<svg width="346" height="377" fill="none" xmlns="http://www.w3.org/2000/svg"><g clip-path="url(#clip0)"><path opacity=".4" d="M234.601 290.778l-36.129-20.848c-2.606-1.508-2.266-4.125.756-5.859l23.42-13.489 45.558 26.292-23.421 13.489c-3.022 1.727-7.555 1.915-10.184.415z" fill="#D6D8E5"/><path d="M237.864 288.869l-36.143-20.818c-2.599-1.508-2.267-4.125.755-5.859l23.421-13.489 45.572 26.262-23.421 13.489c-3.029 1.727-7.577 1.915-10.184.415z" fill="#B1B4C4"/><path d="M271.439 274.966v-1.38l-2.108 1.214 2.108.166zM199.976 265.57v-1.402l2.16.897-2.16.505z" fill="#B1B4C4"/><path d="M237.864 287.501l-36.143-20.826c-2.599-1.508-2.267-4.117.755-5.851l23.421-13.512 45.572 26.255-23.421 13.489c-3.029 1.726-7.577 1.945-10.184.445z" fill="#D6D8E5"/><path d="M225.995 247.392l-5.643-18.669 46.063 26.367 5.024 18.496-45.444-26.194z" fill="#9EA1AF"/><path d="M270.101 274.357l1.338-.754-1.987-1.583.649 2.337z" fill="#9EA1AF"/><path d="M224.537 248.095l-5.636-18.669 46.063 26.367 5.138 18.564-45.565-26.262z" fill="#B1B4C4"/><path d="M341.49 305.828l-178.3-102.74c-2.501-1.44-4.533-5.278-4.533-8.641V56.797c0-3.325 2.025-4.856 4.533-3.415l178.3 102.74c2.5 1.44 4.533 5.278 4.533 8.633v137.658c0 3.325-2.048 4.855-4.533 3.415z" fill="#B1B4C4"/><path d="M342.389 307.248l1.979-1.139-.854-5.843-1.125 6.982zM158.317 54.233l1.949-1.124 2.795 1.591s-2.976.453-3.022.438c-.045-.015-1.722-.905-1.722-.905z" fill="#B1B4C4"/><path d="M339.843 306.77l-178.3-102.74c-2.501-1.44-4.533-5.278-4.533-8.641V57.739c0-3.326 2.032-4.856 4.533-3.416l178.3 102.74c2.5 1.44 4.533 5.278 4.533 8.633v137.658c-.008 3.325-2.033 4.856-4.533 3.416z" fill="#E4E7F2"/><path d="M339.525 306.946l-178.3-102.74c-2.5-1.44-4.533-5.278-4.533-8.634V57.922c0-3.325 2.025-4.856 4.533-3.415l178.3 102.74c2.501 1.44 4.533 5.278 4.533 8.633v137.65c0 3.348-2.032 4.856-4.533 3.416z" fill="#D6D8E5"/><path d="M341.603 298.582L158.951 193.339l.098-134.868c0-1.38.975-1.938 2.169-1.252l178.3 102.74a4.788 4.788 0 012.168 3.77l-.083 134.853z" fill="#fff"/><path d="M330.293 181.337L168.387 88.052a4.418 4.418 0 01-1.843-3.513V72.874c0-1.35.823-1.975 1.843-1.387l161.906 93.285a4.41 4.41 0 011.843 3.521v11.657c0 1.357-.823 1.975-1.843 1.387zM321.847 212.558l-38.055-21.926a4.408 4.408 0 01-1.844-3.514v-24.512c0-1.357.824-1.976 1.844-1.388l38.055 21.927a4.399 4.399 0 011.843 3.513v24.513c-.03 1.35-.854 1.975-1.843 1.387zM271.688 220.52l-95.466-55.042a2.188 2.188 0 01-.922-1.757v-4.215c0-.678.408-.995.922-.701l95.466 55.042a2.214 2.214 0 01.922 1.757v4.222c0 .672-.416.988-.922.694zM262.289 225.091l-85.795-49.41a2.214 2.214 0 01-.922-1.757v-2.104c0-.678.416-.987.922-.693l85.795 49.432a2.203 2.203 0 01.922 1.757v2.096c0 .656-.415.973-.922.679zM262.289 233.053l-85.795-49.432a2.21 2.21 0 01-.922-1.757v-2.103c0-.671.416-.988.922-.694l85.795 49.432a2.206 2.206 0 01.922 1.757v2.104c0 .678-.415.988-.922.693zM240.357 228.379l-63.863-36.796a2.21 2.21 0 01-.922-1.757v-2.081c0-.678.416-.987.922-.701l63.863 36.795a2.273 2.273 0 01.922 1.765v2.103c0 .656-.416.966-.922.672zM322.738 222.752l-39.898-22.989a2.187 2.187 0 01-.922-1.757v-2.103c0-.679.408-.988.922-.694l39.898 22.989a2.217 2.217 0 01.922 1.757v2.104c0 .678-.416.988-.922.693zM322.738 230.724l-39.898-22.997a2.181 2.181 0 01-.922-1.757v-2.096c0-.679.408-.996.922-.702l39.898 23.028a2.194 2.194 0 01.922 1.756v2.097c0 .671-.416.957-.922.671zM312.289 232.659l-29.464-16.973a2.17 2.17 0 01-.672-.768 2.17 2.17 0 01-.25-.988v-2.059c0-.678.408-.987.922-.693l29.464 16.965a2.189 2.189 0 01.922 1.756v2.104c0 .641-.431.98-.922.656zM321.847 273.936l-38.055-21.926a4.411 4.411 0 01-1.844-3.514v-24.512c0-1.35.824-1.976 1.844-1.388l38.055 21.927a4.405 4.405 0 011.813 3.543v24.513c0 1.319-.824 1.945-1.813 1.357zM322.738 284.13l-39.898-22.989a2.187 2.187 0 01-.922-1.757v-2.096c0-.679.408-.996.922-.701l39.898 22.989a2.264 2.264 0 01.922 1.764v2.096c0 .679-.416.988-.922.694z" fill="#F4F5F7"/><path d="M176.473 87.263c1.384-.798 1.383-3.385-.003-5.78-1.385-2.395-3.63-3.69-5.014-2.892-1.384.798-1.383 3.385.002 5.78 1.386 2.395 3.631 3.69 5.015 2.892zM258.142 132.966l-14.007-8.068a1.101 1.101 0 01-.461-.882v-1.87c0-.339.204-.497.461-.347l14.007 8.068a1.085 1.085 0 01.461.875v1.855c0 .362-.219.52-.461.369zM280.807 146.034l-14.007-8.053a1.1 1.1 0 01-.461-.874v-1.855c0-.34.212-.498.461-.347l14.007 8.068a1.098 1.098 0 01.461.882v1.855c0 .309-.219.467-.461.324zM303.11 158.881l-14.008-8.083a1.071 1.071 0 01-.46-.874v-1.855c0-.34.204-.49.46-.347l14.008 8.068a1.112 1.112 0 01.46.882v1.855c0 .347-.204.497-.46.354zM325.775 171.909l-14-8.068a1.106 1.106 0 01-.461-.882v-1.855c0-.339.204-.49.461-.347l14 8.136a1.084 1.084 0 01.461.874v1.855c0 .287-.204.468-.461.287zM304.778 191.149c1.252-.718 1.258-3.054.013-5.217-1.246-2.163-3.271-3.334-4.523-2.615-1.253.718-1.258 3.054-.013 5.216 1.246 2.163 3.271 3.334 4.523 2.616zM304.768 252.676c1.246-.719 1.247-3.046.002-5.199-1.246-2.153-3.266-3.316-4.513-2.598-1.246.718-1.247 3.046-.002 5.199 1.246 2.153 3.266 3.316 4.513 2.598z" fill="#DADCE5"/><path d="M205.256 154.82l-3.535 14.13v-12.094l3.535-2.036zM164.074 130.863l-3.536 14.138v-12.094l3.536-2.044z" fill="#434757"/><path d="M222.225 218.531l-84.179-48.505a3.953 3.953 0 01-1.647-3.152v-42.978c0-1.214.756-1.772 1.647-1.244l84.179 48.505a3.926 3.926 0 011.655 3.144v43.016c0 1.184-.741 1.742-1.655 1.214z" fill="#F4F5F7"/><path d="M179.567 175.555c2.129-1.227 2.127-5.206-.003-8.888-2.13-3.682-5.582-5.672-7.71-4.446-2.129 1.226-2.127 5.205.003 8.887 2.13 3.682 5.582 5.673 7.71 4.447z" fill="#9A4FD5"/><path d="M200.172 151.887l-.008-16.12-4.578-3.431v19.551l-5.092 2.933 7.381 4.253 7.381-4.253-5.084-2.933z" fill="#737887"/><path d="M197.875 159.072l3.846 9.878V156.855l-3.846 2.217zM190.494 154.82l3.271 9.486 7.956 4.644-3.846-9.877-7.381-4.253z" fill="#434757"/><path d="M158.982 127.938v-19.559h-4.579v19.551l-5.092 2.933 7.381 4.26 7.382-4.26-5.092-2.925z" fill="#737887"/><path d="M156.692 135.123l3.846 9.877v-12.094l-3.846 2.217zM149.311 130.863l3.271 9.486 7.956 4.652-3.846-9.878-7.381-4.26z" fill="#434757"/><path opacity=".4" d="M108.619 219.218l-45.602-26.406-54.948 31.661 49.16 28.456 54.956-31.661v-4.101l-3.566 2.051z" fill="#D6D8E5"/><path d="M114.407 215.66l-51.39-29.609-51.39 29.609-3.558-2.051v4.102l54.948 31.668 54.948-31.668v-4.102l-3.558 2.051z" fill="#B1B4C4"/><path d="M63.017 245.27L8.069 213.61l54.948-31.661 54.948 31.661-54.948 31.66z" fill="#E7E9F2"/><path d="M62.843 201.883l3.589-2.066V46.898l-3.589 2.066v152.919z" fill="#B1B4C4"/><path d="M63.13 111.359l25.09 39.63 3.59-1.463-25.378-40.022-3.302 1.855z" fill="#B1B4C4"/><path d="M62.979 118.408l25.106 39.826v-7.449l-25.106-39.683v7.306z" fill="#D6D8E5"/><path d="M59.39 199.817l3.59 2.066V48.964l-3.59-2.066v152.919zM88.085 216.352l3.589 2.066V65.5l-3.589-2.066v152.918z" fill="#D6D8E5"/><path d="M91.537 218.418l3.589-2.066V63.434L91.537 65.5v152.918z" fill="#B1B4C4"/><path d="M62.979 190.859l25.106-30.002v-7.193l-25.106 30.047v7.148z" fill="#D6D8E5"/><path d="M62.979 190.86l3.453-1.885 21.653-26.05v-2.624L62.979 190.86z" fill="#B1B4C4"/><path d="M62.979 111.359l25.106-30.002v-7.193l-25.106 30.047v7.148z" fill="#D6D8E5"/><path d="M62.979 111.36l3.453-1.892 21.653-26.043V80.8L62.979 111.36zM34.36 218.395l3.589-2.066V63.41l-3.589 2.066v152.919z" fill="#B1B4C4"/><path d="M34.648 127.87l25.09 39.623 3.589-1.455-25.378-40.022-3.301 1.854z" fill="#B1B4C4"/><path d="M34.497 134.919l25.105 39.819v-7.442l-25.105-39.691v7.314zM30.916 216.329l3.58 2.066V65.476l-3.58-2.066V216.33z" fill="#D6D8E5"/><path d="M59.602 232.856l3.589 2.066V82.011l-3.589-2.073v152.918z" fill="#D6D8E5"/><path d="M63.055 234.922l3.588-2.066V79.938l-3.588 2.073v152.911z" fill="#B1B4C4"/><path d="M34.497 207.37l25.105-30.001v-7.201l-25.105 30.054v7.148z" fill="#D6D8E5"/><path d="M34.497 207.372l3.452-1.893 21.653-26.043v-2.631l-25.105 30.567z" fill="#B1B4C4"/><path d="M34.497 127.87l25.105-30.001v-7.201l-25.105 30.047v7.155z" fill="#D6D8E5"/><path d="M34.497 127.872l3.452-1.893 21.653-26.05v-2.624l-25.105 30.567z" fill="#B1B4C4"/><path d="M63.19 89.754L26.148 68.408 63.19 47.07l37.042 21.339L63.19 89.754z" fill="#F7DC6B"/><path d="M60.433 28.582L16.516 53.886 3.944 46.64l43.918-25.304 12.571 7.246z" fill="#737887"/><path d="M3.944 56.793V46.645l12.572 7.245v10.15L3.944 56.792zM16.516 64.039l43.917-25.304v-10.15L16.516 53.89v9.161" fill="#434757"/><path d="M60.433 17.2L16.516 42.502 3.944 35.257 47.862 9.953 60.432 17.2z" fill="#737887"/><path d="M3.944 45.414V35.258l12.572 7.246V52.66L3.944 45.414zM16.516 52.66l43.917-25.304V17.199L16.516 42.504v9.168" fill="#434757"/><path d="M27.236 48.672L0 33.08v-5.685l27.236 15.494v5.783z" fill="#D6D8E5"/><path d="M66.643 65.463L0 27.393l4.933-2.842 66.644 38.07-4.934 2.842z" fill="#E7E9F2"/><path d="M57.2 39.682L22.981 19.927v-5.693l34.217 18.3v7.148z" fill="#D6D8E5"/><path d="M83.151 48.326L22.982 14.245l4.934-2.843 60.169 34.081-4.934 2.843z" fill="#E7E9F2"/><path d="M41.213 24.73v5.686l2.342 16.369 3.475 2.156-5.817-24.21z" fill="#D6D8E5"/><path d="M51.51 51.37l-4.502-23.3-5.795-3.34 3.513 22.96 6.785 3.68z" fill="#E7E9F2"/><path d="M41.213 30.414l-17.974 4.728-9.232-5.323 26.42-5.557.786.467v5.685z" fill="#B1B4C4"/><path d="M41.213 24.733l-25.03 6.348-5.38-3.099 25.227-6.431 5.183 3.182z" fill="#E7E9F2"/><path d="M63.19 42.691L26.148 21.346 63.19 0l37.042 21.346L63.19 42.69z" fill="#E7E9F2"/><path d="M26.148 87.262V21.348L63.19 42.693v65.915L26.148 87.262z" fill="#D6D8E5"/><path d="M100.233 21.348v65.914l-37.042 21.346V42.686l37.042-21.338z" fill="#B1B4C4"/><path d="M63.19 65.651L41.924 53.4l-6.837-21.715L63.19 47.879v17.772z" fill="#9A4FD5"/><path d="M100.233 26.531v17.772L63.191 65.656V47.884l37.042-21.353z" fill="#8745BA"/><path d="M228.367 165.332L68.087 72.974V67.29l160.28 92.358v5.685z" fill="#D6D8E5"/><path d="M228.367 159.646l-160.28-92.35 4.933-2.843 160.281 92.35-4.934 2.843z" fill="#E7E9F2"/><path d="M251.35 152.179L91.069 59.822v-5.685l160.281 92.357v5.685z" fill="#D6D8E5"/><path d="M251.35 146.497L91.069 54.139l4.933-2.842 160.281 92.357-4.933 2.843z" fill="#E7E9F2"/><path d="M256.283 149.353l-27.916 15.977v-5.692l27.916-15.97v5.685z" fill="#B1B4C4"/><path d="M256.283 143.667l-27.9 15.977-4.178-2.405 27.9-15.977 4.178 2.405z" fill="#E7E9F2"/><path d="M231.261 140.59l-17.981 4.728-9.233-5.324 26.42-5.556.794.467v5.685z" fill="#B1B4C4"/><path d="M231.261 134.905l-25.03 6.348-5.379-3.106 25.219-6.424 5.19 3.182z" fill="#E7E9F2"/><path d="M190.698 111.562v5.686l2.342 16.369 3.475 2.149-5.817-24.204z" fill="#D6D8E5"/><path d="M200.995 138.201l-4.503-23.298-5.794-3.341 3.52 22.96 6.777 3.679z" fill="#E7E9F2"/><path d="M190.698 117.246l-17.974 4.728-9.232-5.323 26.42-5.557.786.467v5.685z" fill="#B1B4C4"/><path d="M190.698 111.561l-25.022 6.348-5.38-3.098 25.219-6.432 5.183 3.182z" fill="#E7E9F2"/><path d="M149.999 88.09v5.685l2.334 16.369 3.483 2.157-5.817-24.211z" fill="#D6D8E5"/><path d="M160.296 114.729l-4.503-23.299-5.794-3.34 3.513 22.959 6.784 3.68z" fill="#E7E9F2"/><path d="M149.999 93.774L132.025 98.5l-9.232-5.323 26.42-5.557.786.468v5.685z" fill="#B1B4C4"/><path d="M149.999 88.092l-25.03 6.349-5.38-3.1 25.227-6.43 5.183 3.181z" fill="#E7E9F2"/><path d="M109.299 64.633v5.685l2.335 16.37 3.483 2.148-5.818-24.203z" fill="#D6D8E5"/><path d="M119.589 91.272l-4.495-23.299-5.795-3.34 3.513 22.96 6.777 3.679z" fill="#E7E9F2"/><path d="M109.3 70.317l-17.974 4.727-9.232-5.323 26.42-5.557.786.468v5.685z" fill="#B1B4C4"/><path d="M109.299 64.631l-25.03 6.349-5.379-3.1 25.219-6.43 5.19 3.181z" fill="#E7E9F2"/><path opacity=".4" d="M23.987 260.605l-20.21-11.83c-2.266-1.342-2.01-3.687.643-5.233l10.274-6.032c2.652-1.508 6.657-1.711 8.953-.369l20.24 11.83c2.267 1.335 2.002 3.68-.642 5.233l-10.275 6.032c-2.682 1.546-6.694 1.712-8.983.369z" fill="#D6D8E5"/><path d="M49.108 248.941v-28.599l-43.23-4.924v28.78a2.64 2.64 0 001.511 2.345l20.263 11.83c2.266 1.342 6.308 1.177 8.952-.377l10.275-6.032c1.511-.874 2.267-1.998 2.191-3.016l.038-.007z" fill="#D6D8E5"/><path d="M49.063 223.464v-3.122h-3.325L27.29 209.545c-2.267-1.342-6.309-1.169-8.953.377l-10.275 6.032a5.441 5.441 0 00-.536.347l-1.647-.882v3.408a2.657 2.657 0 001.511 2.337l20.263 11.823c2.266 1.342 6.308 1.168 8.952-.377l10.275-6.032c1.511-.897 2.267-2.059 2.184-3.144v.03z" fill="#EDF0F9"/><path d="M27.652 229.594l-20.233-11.83c-2.266-1.342-2.01-3.687.642-5.233l10.275-6.032c2.644-1.508 6.656-1.719 8.953-.377l20.24 11.83c2.266 1.343 2.002 3.687-.65 5.233l-10.275 6.032c-2.606 1.546-6.656 1.719-8.952.377z" fill="#E2E5F2"/><path d="M23.096 213.442v-1.138h-.687l-.22-.136a4.768 4.768 0 00-4.374 0 2.23 2.23 0 00-.363.256l-.536-.12v1.138a1.51 1.51 0 00.9 1.282 4.82 4.82 0 004.373 0 1.569 1.569 0 00.907-1.282z" fill="#8745BA"/><path d="M20.006 214.115c1.707 0 3.09-.81 3.09-1.809 0-1-1.383-1.81-3.09-1.81-1.707 0-3.09.81-3.09 1.81 0 .999 1.383 1.809 3.09 1.809z" fill="#9A4FD5"/><path d="M30.56 217.731v-1.138h-.687l-.212-.136a4.768 4.768 0 00-4.374 0 1.989 1.989 0 00-.37.256l-.537-.12v1.138a1.563 1.563 0 00.907 1.282 4.806 4.806 0 004.374 0 1.508 1.508 0 00.9-1.282z" fill="#8745BA"/><path d="M27.47 218.404c1.707 0 3.09-.81 3.09-1.809 0-1-1.383-1.81-3.09-1.81-1.706 0-3.09.81-3.09 1.81 0 .999 1.384 1.809 3.09 1.809z" fill="#9A4FD5"/><path d="M38.04 222.317v-1.138h-.695l-.212-.136a4.768 4.768 0 00-4.374 0c-.131.074-.255.16-.37.256l-.537-.12v1.138a1.554 1.554 0 00.907 1.282 4.768 4.768 0 004.374 0 1.556 1.556 0 00.907-1.282z" fill="#8745BA"/><path d="M34.942 222.986c1.707 0 3.09-.81 3.09-1.809 0-1-1.383-1.81-3.09-1.81-1.706 0-3.09.81-3.09 1.81 0 .999 1.384 1.809 3.09 1.809z" fill="#9A4FD5"/></g><defs><clipPath id="clip0"><path fill="#fff" d="M0 0h346v377H0z"/></clipPath></defs></svg>