
<svg width="1266" height="199" viewBox="0 0 1266 199" fill="none" xmlns="http://www.w3.org/2000/svg">
    <rect width="1266" height="199" fill="#9A4FD5"/>
    <g style="mix-blend-mode:overlay" opacity="0.47">
        <path d="M101.069 159.891L85.1292 135.078L109.934 119.131L125.882 143.947L125.728 144.045L101.069 159.891ZM85.6264 135.188L101.179 159.386L125.377 143.833L109.825 119.632L85.6264 135.188Z" fill="#8745BA"/>
    </g>
    <g style="mix-blend-mode:overlay" opacity="0.47">
        <path d="M101.103 159.734L85.2794 135.111L109.902 119.288L125.725 143.91L125.666 143.947L101.103 159.734ZM85.4696 135.153L101.145 159.543L125.533 143.868L109.86 119.478L85.4696 135.153Z" fill="#8745BA"/>
    </g>
    <path d="M101.103 159.734L85.2794 135.111L109.902 119.288L125.725 143.91L125.666 143.947L101.103 159.734ZM85.4696 135.153L101.145 159.543L125.533 143.868L109.86 119.478L85.4696 135.153Z" fill="#8745BA"/>
    <g style="mix-blend-mode:overlay">
        <path d="M105.501 160.355L84.6432 139.499L105.501 118.643L126.357 139.499L105.501 160.355ZM85.1606 139.499L105.501 159.838L125.84 139.499L105.501 119.158L85.1606 139.499Z" fill="#8745BA"/>
    </g>
    <path d="M105.501 160.355L84.6432 139.499L105.501 118.643L126.357 139.499L105.501 160.355ZM85.1606 139.499L105.501 159.838L125.84 139.499L105.501 119.158L85.1606 139.499Z" fill="#8745BA"/>
    <path d="M105.501 160.355L84.6432 139.499L105.501 118.643L126.357 139.499L105.501 160.355ZM85.1606 139.499L105.501 159.838L125.84 139.499L105.501 119.158L85.1606 139.499Z" fill="#8745BA"/>
    <g style="mix-blend-mode:overlay">
        <path d="M101.595 142.761H102.82V141.322H101.595V139.035H102.82V133.354H106.314C107.724 133.354 108.75 133.698 109.394 134.387C110.047 135.075 110.374 136.022 110.374 137.227C110.374 137.94 110.241 138.611 109.976 139.238C109.71 139.865 109.266 140.369 108.643 140.75C108.03 141.131 107.192 141.322 106.13 141.322H105.134V142.761H107.494V144.55H105.134V146.523H102.82V144.55H101.595V142.761ZM106.191 135.641H105.134V139.035H105.9C106.554 139.035 107.07 138.9 107.448 138.629C107.836 138.359 108.03 137.922 108.03 137.32C108.03 136.201 107.417 135.641 106.191 135.641Z" fill="#8745BA"/>
    </g>
    <path d="M101.595 142.761H102.82V141.322H101.595V139.035H102.82V133.354H106.314C107.724 133.354 108.75 133.698 109.394 134.387C110.047 135.075 110.374 136.022 110.374 137.227C110.374 137.94 110.241 138.611 109.976 139.238C109.71 139.865 109.266 140.369 108.643 140.75C108.03 141.131 107.192 141.322 106.13 141.322H105.134V142.761H107.494V144.55H105.134V146.523H102.82V144.55H101.595V142.761ZM106.191 135.641H105.134V139.035H105.9C106.554 139.035 107.07 138.9 107.448 138.629C107.836 138.359 108.03 137.922 108.03 137.32C108.03 136.201 107.417 135.641 106.191 135.641Z" fill="#8745BA"/>
    <g style="mix-blend-mode:overlay" filter="url(#filter0_f)">
        <path d="M63.5397 68.2045C63.1525 67.2167 62.4204 66.4146 61.4881 65.9569C61.1553 65.7811 61.158 65.6864 61.4514 65.4349C61.6622 65.2875 61.8619 65.1238 62.0488 64.9453C63.0969 63.7823 63.2882 62.3488 63.0524 60.8882C62.7904 59.2059 61.3754 57.6425 59.6277 57.5722C58.9439 57.5424 58.9439 57.4856 58.9177 56.7932C58.9177 56.7283 58.9177 56.6607 58.9177 56.5958C58.9177 56.3253 58.8024 56.1819 58.522 56.1928C58.2416 56.2036 57.9613 56.1928 57.6783 56.1928C56.832 56.1928 56.8136 56.1928 56.8503 57.0664C56.8634 57.3937 56.7245 57.4559 56.4704 57.4478C56.0852 57.4478 55.7027 57.4234 55.3201 57.4234C54.272 57.4234 54.4397 57.4505 54.403 56.5173C54.403 56.2469 54.3008 56.1738 54.0624 56.1765C53.6143 56.1765 53.1663 56.1765 52.7208 56.1603C52.3592 56.136 52.1968 56.2658 52.1968 56.6418C52.1968 56.7337 52.1811 56.8284 52.1968 56.9122C52.2309 57.2449 52.071 57.3612 51.7697 57.3558C51.2823 57.3558 50.7976 57.3558 50.3128 57.3558C49.9565 57.3396 49.7888 57.4694 49.8098 57.8535C49.8281 58.5378 49.8255 59.2248 49.8098 59.9118C49.8098 60.2796 49.9434 60.4122 50.2893 60.377C50.5041 60.3581 50.7216 60.377 50.9391 60.377C51.4238 60.377 51.4369 60.377 51.4369 60.8855C51.4369 62.7049 51.4369 64.5252 51.4369 66.3464C51.4369 66.3464 51.4369 70.014 51.4369 71.8478C51.4369 72.2157 51.3085 72.3509 50.9679 72.332C50.7059 72.332 50.4308 72.332 50.1609 72.332C49.891 72.332 49.8307 72.4537 49.8229 72.6971C49.8071 73.395 49.7757 74.0928 49.7521 74.7906C49.7364 75.2748 49.8045 75.3532 50.2762 75.3316C50.8002 75.3316 51.2954 75.2964 51.8064 75.2639C52.1051 75.245 52.2309 75.3694 52.2151 75.6751C52.1994 75.9807 52.2151 76.335 52.1837 76.6623C52.1522 76.9896 52.2806 77.1032 52.5846 77.0815C53.1086 77.0491 53.6327 77.0437 54.1567 76.9896C54.2181 76.9694 54.274 76.9343 54.3196 76.8872C54.3652 76.8401 54.3992 76.7825 54.4187 76.7191C54.4481 76.4045 54.4577 76.0883 54.4476 75.7724C54.4476 75.437 54.5602 75.2612 54.9218 75.2775C55.3935 75.3018 55.8677 75.2775 56.3394 75.2775C56.6748 75.2775 56.8031 75.4208 56.7979 75.7481C56.7927 76.0754 56.7979 76.3567 56.7979 76.6596C56.7979 76.9084 56.9027 77.022 57.1438 77.0166C57.4372 77.0166 57.7307 77.0166 58.0268 77.0166C59.0749 76.995 58.9491 77.1708 58.9543 76.0429C58.9543 75.2315 58.9543 75.2315 59.7404 75.1882C60.4072 75.1852 61.0618 75.0035 61.6401 74.6608C62.1682 74.3201 62.6255 73.8744 62.9853 73.3497C63.3452 72.8251 63.6004 72.2318 63.7363 71.6044C64.0292 70.4791 63.9602 69.286 63.5397 68.2045ZM54.4214 60.8098C54.4214 60.4176 54.5602 60.2688 54.9454 60.2878C55.5454 60.3121 57.8958 60.3067 58.4696 60.2878C60.0286 60.2553 60.6365 61.6401 60.3562 62.9546C60.2759 63.3799 60.0568 63.7638 59.7354 64.0424C59.414 64.321 59.0098 64.4774 58.5901 64.4855C57.3403 64.5234 56.0878 64.518 54.8354 64.5396C54.5498 64.5396 54.4135 64.4395 54.4161 64.1285C54.424 63.025 54.4318 61.916 54.4214 60.8098ZM60.5815 71.2609C60.2356 72.0723 59.4679 72.2536 58.6897 72.2941C58.053 72.3293 55.5219 72.2941 54.8956 72.3212C54.5733 72.3212 54.4318 72.2211 54.4318 71.8722C54.4318 70.5414 54.4318 69.208 54.4109 67.8773C54.4109 67.5527 54.5157 67.4121 54.8563 67.4039C56.1664 67.3688 57.6128 67.3039 58.9858 67.4039C60.1387 67.4878 60.875 68.4858 60.8619 69.6976C60.8685 70.2326 60.7732 70.7638 60.5815 71.2609Z" fill="#8745BA"/>
    </g>
    <path d="M63.7499 67.9221C63.3567 66.9191 62.6135 66.1049 61.667 65.6402C61.3291 65.4617 61.3318 65.3656 61.6297 65.1102C61.8438 64.9605 62.0465 64.7944 62.2362 64.6132C63.3003 63.4324 63.4945 61.9771 63.2551 60.4942C62.9891 58.7862 61.5526 57.1991 59.7783 57.1277C59.084 57.0975 59.084 57.0398 59.0574 56.3368C59.0574 56.2709 59.0574 56.2023 59.0574 56.1364C59.0574 55.8618 58.9403 55.7163 58.6557 55.7272C58.371 55.7382 58.0864 55.7272 57.7991 55.7272C56.9399 55.7272 56.9213 55.7272 56.9585 56.6142C56.9718 56.9464 56.8308 57.0096 56.5728 57.0014C56.1817 57.0014 55.7934 56.9767 55.405 56.9767C54.3409 56.9767 54.5112 57.0041 54.4739 56.0568C54.4739 55.7822 54.3702 55.708 54.1281 55.7108C53.6732 55.7108 53.2183 55.7108 52.7661 55.6943C52.399 55.6696 52.2341 55.8014 52.2341 56.1831C52.2341 56.2764 52.2181 56.3725 52.2341 56.4577C52.2687 56.7954 52.1064 56.9135 51.8005 56.908C51.3057 56.908 50.8136 56.908 50.3214 56.908C49.9596 56.8915 49.7894 57.0233 49.8107 57.4133C49.8293 58.108 49.8266 58.8055 49.8107 59.5029C49.8107 59.8764 49.9463 60.0109 50.2975 59.9752C50.5156 59.956 50.7364 59.9752 50.9572 59.9752C51.4493 59.9752 51.4626 59.9752 51.4626 60.4915C51.4626 62.3386 51.4626 64.1866 51.4626 66.0356C51.4626 66.0356 51.4626 69.7591 51.4626 71.6209C51.4626 71.9943 51.3323 72.1316 50.9865 72.1124C50.7204 72.1124 50.4411 72.1124 50.1671 72.1124C49.8931 72.1124 49.832 72.236 49.824 72.4831C49.808 73.1916 49.7761 73.9 49.7522 74.6085C49.7362 75.1 49.8054 75.1797 50.2842 75.1577C50.8162 75.1577 51.319 75.122 51.8377 75.089C52.141 75.0698 52.2687 75.1961 52.2527 75.5064C52.2367 75.8167 52.2527 76.1764 52.2208 76.5087C52.1889 76.841 52.3192 76.9563 52.6278 76.9343C53.1598 76.9014 53.6918 76.8959 54.2239 76.841C54.2862 76.8205 54.3429 76.7848 54.3892 76.737C54.4355 76.6893 54.47 76.6307 54.4899 76.5664C54.5196 76.247 54.5294 75.926 54.5191 75.6053C54.5191 75.2648 54.6335 75.0863 55.0006 75.1028C55.4795 75.1275 55.9609 75.1028 56.4398 75.1028C56.7803 75.1028 56.9106 75.2483 56.9053 75.5806C56.9 75.9128 56.9053 76.1984 56.9053 76.506C56.9053 76.7586 57.0117 76.8739 57.2564 76.8684C57.5544 76.8684 57.8523 76.8684 58.1529 76.8684C59.217 76.8465 59.0893 77.0249 59.0946 75.8799C59.0946 75.0561 59.0946 75.0561 59.8927 75.0121C60.5696 75.0091 61.2342 74.8246 61.8213 74.4767C62.3574 74.1308 62.8217 73.6783 63.187 73.1457C63.5523 72.613 63.8115 72.0107 63.9494 71.3737C64.2468 70.2312 64.1768 69.02 63.7499 67.9221ZM54.4925 60.4146C54.4925 60.0164 54.6335 59.8654 55.0246 59.8846C55.6338 59.9093 58.0199 59.9039 58.6025 59.8846C60.1853 59.8517 60.8024 61.2576 60.5178 62.5922C60.4363 63.0239 60.2138 63.4137 59.8875 63.6965C59.5613 63.9794 59.1509 64.1382 58.7248 64.1464C57.456 64.1848 56.1844 64.1793 54.9128 64.2013C54.6229 64.2013 54.4846 64.0997 54.4872 63.7839C54.4952 62.6635 54.5032 61.5377 54.4925 60.4146ZM60.7466 71.025C60.3954 71.8488 59.616 72.0328 58.8259 72.074C58.1795 72.1097 55.6098 72.074 54.974 72.1014C54.6468 72.1014 54.5032 71.9998 54.5032 71.6456C54.5032 70.2946 54.5032 68.9408 54.4819 67.5898C54.4819 67.2603 54.5883 67.1175 54.9341 67.1093C56.2642 67.0736 57.7326 67.0077 59.1265 67.1093C60.297 67.1944 61.0445 68.2076 61.0312 69.4378C61.0379 69.981 60.9412 70.5203 60.7466 71.025Z" fill="#8745BA"/>
    <g style="mix-blend-mode:overlay" opacity="0.47">
        <path d="M50.1501 96.1689L27.3043 59.46L62.8555 35.8665L85.7118 72.5807L85.4917 72.7268L50.1501 96.1689ZM28.017 59.6223L50.3073 95.4224L84.9886 72.413L62.6983 36.6076L28.017 59.6223Z" fill="#8745BA"/>
    </g>
    <g style="mix-blend-mode:overlay" opacity="0.47">
        <path d="M50.1975 95.9331L27.5194 59.5056L62.8086 36.0959L85.4867 72.5235L85.4028 72.5776L50.1975 95.9331ZM27.7919 59.5678L50.2577 95.6518L85.2116 72.4613L62.7484 36.3772L27.7919 59.5678Z" fill="#8745BA"/>
    </g>
    <path d="M50.1975 95.9331L27.5194 59.5056L62.8086 36.0959L85.4867 72.5235L85.4028 72.5776L50.1975 95.9331ZM27.7919 59.5678L50.2577 95.6518L85.2115 72.4613L62.7484 36.3772L27.7919 59.5678Z" fill="#8745BA"/>
    <g style="mix-blend-mode:overlay">
        <path d="M56.5016 96.8544L26.6074 65.9986L56.5016 35.1428L86.3931 65.9986L56.5016 96.8544ZM27.3489 65.9986L56.5016 96.089L85.6516 65.9986L56.5016 35.9056L27.3489 65.9986Z" fill="#8745BA"/>
    </g>
    <path d="M56.5016 96.8544L26.6074 65.9986L56.5016 35.1428L86.3931 65.9986L56.5016 96.8544ZM27.3489 65.9986L56.5016 96.089L85.6516 65.9986L56.5016 35.9056L27.3489 65.9986Z" fill="#8745BA"/>
    <path d="M56.5016 96.8544L26.6074 65.9986L56.5016 35.1428L86.3931 65.9986L56.5016 96.8544ZM27.3489 65.9986L56.5016 96.089L85.6516 65.9986L56.5016 35.9056L27.3489 65.9986Z" fill="#8745BA"/>
    <g style="mix-blend-mode:overlay" filter="url(#filter1_f)">
        <path d="M63.5397 68.2045C63.1525 67.2167 62.4204 66.4146 61.4881 65.9569C61.1553 65.7811 61.158 65.6864 61.4514 65.4349C61.6622 65.2875 61.8619 65.1238 62.0488 64.9453C63.0969 63.7823 63.2882 62.3488 63.0524 60.8882C62.7904 59.2059 61.3754 57.6425 59.6277 57.5722C58.9439 57.5424 58.9439 57.4856 58.9177 56.7932C58.9177 56.7283 58.9177 56.6607 58.9177 56.5958C58.9177 56.3253 58.8024 56.1819 58.522 56.1928C58.2416 56.2036 57.9613 56.1928 57.6783 56.1928C56.832 56.1928 56.8136 56.1928 56.8503 57.0664C56.8634 57.3937 56.7245 57.4559 56.4704 57.4478C56.0852 57.4478 55.7027 57.4234 55.3201 57.4234C54.272 57.4234 54.4397 57.4505 54.403 56.5173C54.403 56.2469 54.3008 56.1738 54.0624 56.1765C53.6143 56.1765 53.1663 56.1765 52.7208 56.1603C52.3592 56.136 52.1968 56.2658 52.1968 56.6418C52.1968 56.7337 52.1811 56.8284 52.1968 56.9122C52.2309 57.2449 52.071 57.3612 51.7697 57.3558C51.2823 57.3558 50.7976 57.3558 50.3128 57.3558C49.9565 57.3396 49.7888 57.4694 49.8098 57.8535C49.8281 58.5378 49.8255 59.2248 49.8098 59.9118C49.8098 60.2796 49.9434 60.4122 50.2893 60.377C50.5041 60.3581 50.7216 60.377 50.9391 60.377C51.4238 60.377 51.4369 60.377 51.4369 60.8855C51.4369 62.7049 51.4369 64.5252 51.4369 66.3464C51.4369 66.3464 51.4369 70.014 51.4369 71.8478C51.4369 72.2157 51.3085 72.3509 50.9679 72.332C50.7059 72.332 50.4308 72.332 50.1609 72.332C49.891 72.332 49.8307 72.4537 49.8229 72.6971C49.8071 73.395 49.7757 74.0928 49.7521 74.7906C49.7364 75.2748 49.8045 75.3532 50.2762 75.3316C50.8002 75.3316 51.2954 75.2964 51.8064 75.2639C52.1051 75.245 52.2309 75.3694 52.2151 75.6751C52.1994 75.9807 52.2151 76.335 52.1837 76.6623C52.1522 76.9896 52.2806 77.1032 52.5846 77.0815C53.1086 77.0491 53.6327 77.0437 54.1567 76.9896C54.2181 76.9694 54.274 76.9343 54.3196 76.8872C54.3652 76.8401 54.3992 76.7825 54.4187 76.7191C54.4481 76.4045 54.4577 76.0883 54.4476 75.7724C54.4476 75.437 54.5602 75.2612 54.9218 75.2775C55.3935 75.3018 55.8677 75.2775 56.3394 75.2775C56.6748 75.2775 56.8031 75.4208 56.7979 75.7481C56.7927 76.0754 56.7979 76.3567 56.7979 76.6596C56.7979 76.9084 56.9027 77.022 57.1438 77.0166C57.4372 77.0166 57.7307 77.0166 58.0268 77.0166C59.0749 76.995 58.9491 77.1708 58.9543 76.0429C58.9543 75.2315 58.9543 75.2315 59.7404 75.1882C60.4072 75.1852 61.0618 75.0035 61.6401 74.6608C62.1682 74.3201 62.6255 73.8744 62.9853 73.3497C63.3452 72.8251 63.6004 72.2318 63.7363 71.6044C64.0292 70.4791 63.9602 69.286 63.5397 68.2045ZM54.4214 60.8098C54.4214 60.4176 54.5602 60.2688 54.9454 60.2878C55.5454 60.3121 57.8958 60.3067 58.4696 60.2878C60.0286 60.2553 60.6365 61.6401 60.3562 62.9546C60.2759 63.3799 60.0568 63.7638 59.7354 64.0424C59.414 64.321 59.0098 64.4774 58.5901 64.4855C57.3403 64.5234 56.0878 64.518 54.8354 64.5396C54.5498 64.5396 54.4135 64.4395 54.4161 64.1285C54.424 63.025 54.4318 61.916 54.4214 60.8098ZM60.5815 71.2609C60.2356 72.0723 59.4679 72.2536 58.6897 72.2941C58.053 72.3293 55.5219 72.2941 54.8956 72.3212C54.5733 72.3212 54.4318 72.2211 54.4318 71.8722C54.4318 70.5414 54.4318 69.208 54.4109 67.8773C54.4109 67.5527 54.5157 67.4121 54.8563 67.4039C56.1664 67.3688 57.6128 67.3039 58.9858 67.4039C60.1387 67.4878 60.875 68.4858 60.8619 69.6976C60.8685 70.2326 60.7732 70.7638 60.5815 71.2609Z" fill="#8745BA"/>
    </g>
    <path d="M63.7499 67.9221C63.3567 66.9191 62.6135 66.1049 61.667 65.6402C61.3291 65.4617 61.3318 65.3656 61.6297 65.1102C61.8438 64.9605 62.0465 64.7944 62.2362 64.6132C63.3003 63.4324 63.4945 61.9771 63.2551 60.4942C62.9891 58.7862 61.5526 57.1991 59.7783 57.1277C59.084 57.0975 59.084 57.0398 59.0574 56.3368C59.0574 56.2709 59.0574 56.2023 59.0574 56.1364C59.0574 55.8618 58.9403 55.7163 58.6557 55.7272C58.371 55.7382 58.0864 55.7272 57.7991 55.7272C56.9399 55.7272 56.9213 55.7272 56.9585 56.6142C56.9718 56.9464 56.8308 57.0096 56.5728 57.0014C56.1817 57.0014 55.7934 56.9767 55.405 56.9767C54.3409 56.9767 54.5112 57.0041 54.4739 56.0568C54.4739 55.7822 54.3702 55.708 54.1281 55.7108C53.6732 55.7108 53.2183 55.7108 52.7661 55.6943C52.399 55.6696 52.2341 55.8014 52.2341 56.1831C52.2341 56.2764 52.2181 56.3725 52.2341 56.4577C52.2687 56.7954 52.1064 56.9135 51.8005 56.908C51.3057 56.908 50.8136 56.908 50.3214 56.908C49.9596 56.8915 49.7894 57.0233 49.8107 57.4133C49.8293 58.108 49.8266 58.8055 49.8107 59.5029C49.8107 59.8764 49.9463 60.0109 50.2975 59.9752C50.5156 59.956 50.7364 59.9752 50.9572 59.9752C51.4493 59.9752 51.4626 59.9752 51.4626 60.4915C51.4626 62.3386 51.4626 64.1866 51.4626 66.0356C51.4626 66.0356 51.4626 69.7591 51.4626 71.6209C51.4626 71.9943 51.3323 72.1316 50.9865 72.1124C50.7204 72.1124 50.4411 72.1124 50.1671 72.1124C49.8931 72.1124 49.832 72.236 49.824 72.4831C49.808 73.1916 49.7761 73.9 49.7522 74.6085C49.7362 75.1 49.8054 75.1797 50.2842 75.1577C50.8162 75.1577 51.319 75.122 51.8377 75.089C52.141 75.0698 52.2687 75.1961 52.2527 75.5064C52.2367 75.8167 52.2527 76.1764 52.2208 76.5087C52.1889 76.841 52.3192 76.9563 52.6278 76.9343C53.1598 76.9014 53.6918 76.8959 54.2239 76.841C54.2862 76.8205 54.3429 76.7848 54.3892 76.737C54.4355 76.6893 54.47 76.6307 54.4899 76.5664C54.5196 76.247 54.5294 75.926 54.5191 75.6053C54.5191 75.2648 54.6335 75.0863 55.0006 75.1028C55.4795 75.1275 55.9609 75.1028 56.4398 75.1028C56.7803 75.1028 56.9106 75.2483 56.9053 75.5806C56.9 75.9128 56.9053 76.1984 56.9053 76.506C56.9053 76.7586 57.0117 76.8739 57.2564 76.8684C57.5544 76.8684 57.8523 76.8684 58.1529 76.8684C59.217 76.8465 59.0893 77.0249 59.0946 75.8799C59.0946 75.0561 59.0946 75.0561 59.8927 75.0121C60.5696 75.0091 61.2342 74.8246 61.8213 74.4767C62.3574 74.1308 62.8217 73.6783 63.187 73.1457C63.5523 72.613 63.8115 72.0107 63.9494 71.3737C64.2468 70.2312 64.1768 69.02 63.7499 67.9221ZM54.4925 60.4146C54.4925 60.0164 54.6335 59.8654 55.0246 59.8846C55.6338 59.9093 58.0199 59.9039 58.6025 59.8846C60.1853 59.8517 60.8024 61.2576 60.5178 62.5922C60.4363 63.0239 60.2138 63.4137 59.8875 63.6965C59.5613 63.9794 59.1509 64.1382 58.7248 64.1464C57.456 64.1848 56.1844 64.1793 54.9128 64.2013C54.6229 64.2013 54.4846 64.0997 54.4872 63.7839C54.4952 62.6635 54.5032 61.5377 54.4925 60.4146ZM60.7466 71.025C60.3954 71.8488 59.616 72.0328 58.8259 72.074C58.1795 72.1097 55.6098 72.074 54.974 72.1014C54.6468 72.1014 54.5032 71.9998 54.5032 71.6456C54.5032 70.2946 54.5032 68.9408 54.4819 67.5898C54.4819 67.2603 54.5883 67.1175 54.9341 67.1093C56.2642 67.0736 57.7326 67.0077 59.1265 67.1093C60.297 67.1944 61.0445 68.2076 61.0312 69.4378C61.0379 69.981 60.9412 70.5203 60.7466 71.025Z" fill="#8745BA"/>
    <g style="mix-blend-mode:overlay" opacity="0.47">
        <path d="M50.1501 96.1689L27.3043 59.46L62.8555 35.8665L85.7118 72.5807L85.4917 72.7268L50.1501 96.1689ZM28.017 59.6223L50.3073 95.4224L84.9886 72.413L62.6983 36.6076L28.017 59.6223Z" fill="#8745BA"/>
    </g>
    <g style="mix-blend-mode:overlay" opacity="0.47">
        <path d="M50.1975 95.9331L27.5194 59.5056L62.8086 36.0959L85.4867 72.5235L85.4028 72.5776L50.1975 95.9331ZM27.7919 59.5678L50.2577 95.6518L85.2116 72.4613L62.7484 36.3772L27.7919 59.5678Z" fill="#8745BA"/>
    </g>
    <path d="M50.1975 95.9331L27.5194 59.5056L62.8086 36.0959L85.4867 72.5235L85.4028 72.5776L50.1975 95.9331ZM27.7919 59.5678L50.2577 95.6518L85.2115 72.4613L62.7484 36.3772L27.7919 59.5678Z" fill="#8745BA"/>
    <g style="mix-blend-mode:overlay">
        <path d="M56.5016 96.8544L26.6074 65.9986L56.5016 35.1428L86.3931 65.9986L56.5016 96.8544ZM27.3489 65.9986L56.5016 96.089L85.6516 65.9986L56.5016 35.9056L27.3489 65.9986Z" fill="#8745BA"/>
    </g>
    <path d="M56.5016 96.8544L26.6074 65.9986L56.5016 35.1428L86.3931 65.9986L56.5016 96.8544ZM27.3489 65.9986L56.5016 96.089L85.6516 65.9986L56.5016 35.9056L27.3489 65.9986Z" fill="#8745BA"/>
    <path d="M56.5016 96.8544L26.6074 65.9986L56.5016 35.1428L86.3931 65.9986L56.5016 96.8544ZM27.3489 65.9986L56.5016 96.089L85.6516 65.9986L56.5016 35.9056L27.3489 65.9986Z" fill="#8745BA"/>
    <g style="mix-blend-mode:overlay" filter="url(#filter2_f)">
        <path d="M900.235 95.8928C899.727 94.5963 898.767 93.5436 897.544 92.9428C897.107 92.7121 897.11 92.5878 897.495 92.2577C897.772 92.0642 898.034 91.8494 898.279 91.6151C899.654 90.0886 899.905 88.2071 899.596 86.2901C899.252 84.0821 897.396 82.0302 895.103 81.9379C894.206 81.8988 894.206 81.8243 894.172 80.9155C894.172 80.8303 894.172 80.7415 894.172 80.6563C894.172 80.3013 894.02 80.1132 893.653 80.1274C893.285 80.1416 892.917 80.1274 892.546 80.1274C891.435 80.1274 891.411 80.1274 891.46 81.274C891.477 81.7036 891.295 81.7852 890.961 81.7746C890.456 81.7746 889.954 81.7426 889.452 81.7426C888.077 81.7426 888.297 81.7781 888.249 80.5534C888.249 80.1984 888.115 80.1025 887.802 80.1061C887.214 80.1061 886.627 80.1061 886.042 80.0848C885.568 80.0528 885.355 80.2232 885.355 80.7167C885.355 80.8374 885.334 80.9616 885.355 81.0717C885.4 81.5083 885.19 81.661 884.795 81.6539C884.155 81.6539 883.519 81.6539 882.883 81.6539C882.416 81.6326 882.196 81.803 882.224 82.3071C882.248 83.2052 882.244 84.1069 882.224 85.0086C882.224 85.4914 882.399 85.6653 882.853 85.6192C883.134 85.5944 883.42 85.6192 883.705 85.6192C884.341 85.6192 884.358 85.6192 884.358 86.2866C884.358 88.6745 884.358 91.0637 884.358 93.454C884.358 93.454 884.358 98.2678 884.358 100.675C884.358 101.157 884.19 101.335 883.743 101.31C883.399 101.31 883.038 101.31 882.684 101.31C882.33 101.31 882.251 101.47 882.241 101.789C882.22 102.705 882.179 103.621 882.148 104.537C882.127 105.172 882.217 105.275 882.835 105.247C883.523 105.247 884.172 105.201 884.843 105.158C885.235 105.133 885.4 105.297 885.379 105.698C885.358 106.099 885.379 106.564 885.338 106.994C885.296 107.423 885.465 107.572 885.864 107.544C886.551 107.501 887.239 107.494 887.926 107.423C888.007 107.397 888.08 107.351 888.14 107.289C888.199 107.227 888.244 107.151 888.27 107.068C888.308 106.655 888.321 106.24 888.308 105.826C888.308 105.385 888.455 105.155 888.93 105.176C889.548 105.208 890.171 105.176 890.789 105.176C891.229 105.176 891.398 105.364 891.391 105.794C891.384 106.223 891.391 106.592 891.391 106.99C891.391 107.317 891.528 107.466 891.844 107.459C892.229 107.459 892.614 107.459 893.003 107.459C894.378 107.43 894.213 107.661 894.22 106.181C894.22 105.116 894.22 105.116 895.251 105.059C896.126 105.055 896.984 104.816 897.743 104.367C898.436 103.919 899.036 103.335 899.508 102.646C899.98 101.957 900.314 101.179 900.493 100.355C900.877 98.8781 900.787 97.3122 900.235 95.8928ZM888.273 86.1872C888.273 85.6724 888.455 85.4772 888.961 85.502C889.748 85.534 892.831 85.5269 893.584 85.502C895.629 85.4595 896.426 87.277 896.059 89.0023C895.953 89.5604 895.666 90.0644 895.244 90.4301C894.823 90.7957 894.292 91.001 893.742 91.0116C892.102 91.0613 890.459 91.0542 888.816 91.0826C888.442 91.0826 888.263 90.9513 888.266 90.543C888.277 89.0946 888.287 87.6391 888.273 86.1872ZM896.354 99.9043C895.9 100.969 894.893 101.207 893.872 101.26C893.037 101.307 889.717 101.26 888.895 101.296C888.473 101.296 888.287 101.165 888.287 100.707C888.287 98.96 888.287 97.2099 888.259 95.4633C888.259 95.0373 888.397 94.8527 888.844 94.842C890.562 94.7959 892.46 94.7107 894.261 94.842C895.773 94.9521 896.739 96.262 896.722 97.8524C896.731 98.5547 896.606 99.2518 896.354 99.9043Z" fill="#8745BA"/>
    </g>
    <path d="M900.511 95.5227C899.995 94.2064 899.02 93.1377 897.778 92.5277C897.335 92.2935 897.338 92.1673 897.729 91.8321C898.01 91.6357 898.276 91.4176 898.525 91.1798C899.921 89.63 900.176 87.7199 899.861 85.7737C899.513 83.5319 897.628 81.4488 895.3 81.3551C894.39 81.3154 894.39 81.2398 894.355 80.3171C894.355 80.2306 894.355 80.1405 894.355 80.054C894.355 79.6936 894.201 79.5026 893.828 79.517C893.454 79.5314 893.081 79.517 892.704 79.517C891.577 79.517 891.553 79.517 891.601 80.6811C891.619 81.1172 891.434 81.2001 891.095 81.1893C890.582 81.1893 890.073 81.1569 889.563 81.1569C888.168 81.1569 888.391 81.1929 888.342 79.9495C888.342 79.5891 888.206 79.4918 887.888 79.4954C887.292 79.4954 886.695 79.4954 886.102 79.4738C885.62 79.4413 885.404 79.6143 885.404 80.1153C885.404 80.2378 885.383 80.364 885.404 80.4757C885.449 80.919 885.236 81.074 884.835 81.0668C884.186 81.0668 883.54 81.0668 882.895 81.0668C882.42 81.0451 882.197 81.2181 882.225 81.7299C882.249 82.6417 882.246 83.5572 882.225 84.4726C882.225 84.9628 882.403 85.1394 882.863 85.0925C883.149 85.0673 883.439 85.0925 883.729 85.0925C884.374 85.0925 884.392 85.0925 884.392 85.7701C884.392 88.1944 884.392 90.62 884.392 93.0467C884.392 93.0467 884.392 97.9338 884.392 100.377C884.392 100.868 884.221 101.048 883.767 101.023C883.418 101.023 883.052 101.023 882.692 101.023C882.333 101.023 882.253 101.185 882.242 101.509C882.221 102.439 882.179 103.369 882.148 104.299C882.127 104.944 882.218 105.048 882.846 105.019C883.544 105.019 884.203 104.973 884.884 104.929C885.282 104.904 885.449 105.07 885.428 105.477C885.407 105.884 885.428 106.357 885.386 106.793C885.344 107.229 885.515 107.38 885.92 107.351C886.618 107.308 887.316 107.301 888.014 107.229C888.096 107.202 888.17 107.155 888.231 107.092C888.292 107.03 888.337 106.953 888.363 106.868C888.402 106.449 888.415 106.028 888.401 105.607C888.401 105.16 888.551 104.926 889.033 104.947C889.661 104.98 890.293 104.947 890.921 104.947C891.368 104.947 891.539 105.138 891.532 105.574C891.525 106.011 891.532 106.385 891.532 106.789C891.532 107.121 891.671 107.272 891.992 107.265C892.383 107.265 892.774 107.265 893.168 107.265C894.564 107.236 894.397 107.47 894.404 105.967C894.404 104.886 894.404 104.886 895.451 104.828C896.339 104.824 897.21 104.582 897.981 104.126C898.684 103.672 899.293 103.078 899.772 102.379C900.251 101.68 900.591 100.889 900.772 100.053C901.162 98.5535 901.071 96.9637 900.511 95.5227ZM888.367 85.6692C888.367 85.1466 888.551 84.9483 889.064 84.9736C889.864 85.006 892.994 84.9988 893.758 84.9736C895.834 84.9303 896.644 86.7756 896.271 88.5272C896.164 89.0938 895.872 89.6054 895.444 89.9767C895.016 90.3479 894.477 90.5563 893.919 90.5671C892.254 90.6176 890.586 90.6104 888.918 90.6392C888.538 90.6392 888.356 90.5058 888.36 90.0914C888.37 88.6209 888.38 87.1432 888.367 85.6692ZM896.571 99.5953C896.11 100.677 895.088 100.918 894.051 100.972C893.203 101.019 889.832 100.972 888.998 101.008C888.569 101.008 888.38 100.875 888.38 100.41C888.38 98.6366 888.38 96.8598 888.353 95.0866C888.353 94.6541 888.492 94.4667 888.946 94.4559C890.691 94.4091 892.617 94.3226 894.446 94.4559C895.981 94.5676 896.962 95.8975 896.944 97.5122C896.953 98.2251 896.826 98.9329 896.571 99.5953Z" fill="#8745BA"/>
    <g style="mix-blend-mode:overlay" opacity="0.47">
        <path d="M882.67 132.597L852.7 84.4165L899.337 53.45L929.321 101.637L929.032 101.829L882.67 132.597ZM853.635 84.6295L882.876 131.617L928.372 101.417L899.131 54.4226L853.635 84.6295Z" fill="#8745BA"/>
    </g>
    <g style="mix-blend-mode:overlay" opacity="0.47">
        <path d="M882.732 132.287L852.982 84.4759L899.276 53.7507L929.025 101.562L928.915 101.633L882.732 132.287ZM853.34 84.5575L882.811 131.918L928.665 101.48L899.197 54.1199L853.34 84.5575Z" fill="#8745BA"/>
    </g>
    <path d="M882.732 132.287L852.982 84.4759L899.276 53.7507L929.025 101.562L928.915 101.633L882.732 132.287ZM853.34 84.5575L882.811 131.918L928.665 101.48L899.197 54.1199L853.34 84.5575Z" fill="#8745BA"/>
    <g style="mix-blend-mode:overlay">
        <path d="M891.002 133.496L851.786 92.998L891.002 52.4998L930.215 92.998L891.002 133.496ZM852.759 92.998L891.002 132.492L929.242 92.998L891.002 53.5009L852.759 92.998Z" fill="#8745BA"/>
    </g>
    <path d="M891.002 133.496L851.786 92.998L891.002 52.4998L930.215 92.998L891.002 133.496ZM852.759 92.998L891.002 132.492L929.242 92.998L891.002 53.5009L852.759 92.998Z" fill="#8745BA"/>
    <path d="M891.002 133.496L851.786 92.998L891.002 52.4998L930.215 92.998L891.002 133.496ZM852.759 92.998L891.002 132.492L929.242 92.998L891.002 53.5009L852.759 92.998Z" fill="#8745BA"/>
    <g style="mix-blend-mode:overlay" opacity="0.47">
        <path d="M126.176 65.3425L112.42 43.6315L133.827 29.6775L147.59 51.3916L147.457 51.478L126.176 65.3425ZM112.849 43.7275L126.271 64.901L147.154 51.2924L133.732 30.1158L112.849 43.7275Z" fill="#8745BA"/>
    </g>
    <g style="mix-blend-mode:overlay" opacity="0.47">
        <path d="M126.205 65.2043L112.549 43.6597L133.799 29.8145L147.454 51.359L147.404 51.391L126.205 65.2043ZM112.713 43.6965L126.241 65.0379L147.289 51.3222L133.762 29.9808L112.713 43.6965Z" fill="#8745BA"/>
    </g>
    <path d="M126.205 65.2043L112.549 43.6597L133.799 29.8145L147.454 51.359L147.404 51.391L126.205 65.2043ZM112.713 43.6965L126.241 65.0379L147.289 51.3222L133.762 29.9808L112.713 43.6965Z" fill="#8745BA"/>
    <g style="mix-blend-mode:overlay">
        <path d="M130.001 65.7484L112 47.4992L130.001 29.25L148 47.4992L130.001 65.7484ZM112.447 47.4992L130.001 65.2957L147.554 47.4992L130.001 29.7011L112.447 47.4992Z" fill="#8745BA"/>
    </g>
    <path d="M130.001 65.7484L112 47.4992L130.001 29.25L148 47.4992L130.001 65.7484ZM112.447 47.4992L130.001 65.2957L147.554 47.4992L130.001 29.7011L112.447 47.4992Z" fill="#8745BA"/>
    <path d="M130.001 65.7484L112 47.4992L130.001 29.25L148 47.4992L130.001 65.7484ZM112.447 47.4992L130.001 65.2957L147.554 47.4992L130.001 29.7011L112.447 47.4992Z" fill="#8745BA"/>
    <g style="mix-blend-mode:overlay" filter="url(#filter3_f)">
        <path d="M129.27 50.893V48.0665C128.533 47.8945 127.866 47.4946 127.362 46.9218C126.951 46.3933 126.736 45.7344 126.756 45.0611C126.737 44.3744 126.984 43.7077 127.444 43.2045C127.923 42.6907 128.575 42.3799 129.27 42.3345V41.6685H130.232V42.3345C130.856 42.3869 131.447 42.644 131.915 43.0671C132.346 43.5047 132.625 44.0732 132.71 44.6864L131.031 44.907C131 44.6727 130.911 44.4503 130.771 44.2614C130.631 44.0725 130.445 43.9236 130.232 43.8289V46.468C131.297 46.7594 132.018 47.1382 132.402 47.6045C132.802 48.1102 133.009 48.746 132.984 49.3944C133.009 50.157 132.749 50.901 132.255 51.4758C131.725 52.0538 131.006 52.4151 130.232 52.4915V53.7403H129.27V52.5123C128.57 52.4554 127.912 52.1538 127.407 51.6589C126.885 51.086 126.563 50.3548 126.49 49.5776L128.222 49.3861C128.286 49.7246 128.426 50.0436 128.631 50.3185C128.796 50.5586 129.015 50.7554 129.27 50.893ZM129.27 43.8164C129.021 43.8995 128.803 44.0596 128.647 44.2743C128.493 44.4829 128.411 44.7376 128.414 44.9986C128.413 45.238 128.488 45.4714 128.627 45.6646C128.792 45.887 129.015 46.0585 129.27 46.16V43.8164ZM130.232 50.9887C130.552 50.9363 130.842 50.7695 131.051 50.5183C131.257 50.2743 131.368 49.9617 131.362 49.64C131.369 49.3558 131.276 49.0785 131.1 48.8574C130.87 48.6058 130.57 48.4315 130.24 48.3579L130.232 50.9887Z" fill="#8745BA"/>
    </g>
    <path d="M129.27 50.893V48.0665C128.533 47.8945 127.866 47.4946 127.362 46.9218C126.951 46.3933 126.736 45.7344 126.756 45.0611C126.737 44.3744 126.984 43.7077 127.444 43.2045C127.923 42.6907 128.575 42.3799 129.27 42.3345V41.6685H130.232V42.3345C130.856 42.3869 131.447 42.644 131.915 43.0671C132.346 43.5047 132.625 44.0732 132.71 44.6864L131.031 44.907C131 44.6727 130.911 44.4503 130.771 44.2614C130.631 44.0725 130.445 43.9236 130.232 43.8289V46.468C131.297 46.7594 132.018 47.1382 132.402 47.6045C132.802 48.1102 133.009 48.746 132.984 49.3944C133.009 50.157 132.749 50.901 132.255 51.4758C131.725 52.0538 131.006 52.4151 130.232 52.4915V53.7403H129.27V52.5123C128.57 52.4554 127.912 52.1538 127.407 51.6589C126.885 51.086 126.563 50.3548 126.49 49.5776L128.222 49.3861C128.286 49.7246 128.426 50.0436 128.631 50.3185C128.796 50.5586 129.015 50.7554 129.27 50.893ZM129.27 43.8164C129.021 43.8995 128.803 44.0596 128.647 44.2743C128.493 44.4829 128.411 44.7376 128.414 44.9986C128.413 45.238 128.488 45.4714 128.627 45.6646C128.792 45.887 129.015 46.0585 129.27 46.16V43.8164ZM130.232 50.9887C130.552 50.9363 130.842 50.7695 131.051 50.5183C131.257 50.2743 131.368 49.9617 131.362 49.64C131.369 49.3558 131.276 49.0785 131.1 48.8574C130.87 48.6058 130.57 48.4315 130.24 48.3579L130.232 50.9887Z" fill="#8745BA"/>
    <g style="mix-blend-mode:overlay" opacity="0.47">
        <path d="M969.176 65.3425L955.42 43.6315L976.827 29.6775L990.59 51.3916L990.457 51.478L969.176 65.3425ZM955.849 43.7275L969.271 64.901L990.154 51.2924L976.732 30.1158L955.849 43.7275Z" fill="#8745BA"/>
    </g>
    <g style="mix-blend-mode:overlay" opacity="0.47">
        <path d="M969.205 65.2043L955.549 43.6597L976.799 29.8145L990.454 51.359L990.404 51.391L969.205 65.2043ZM955.713 43.6965L969.241 65.0379L990.289 51.3222L976.762 29.9808L955.713 43.6965Z" fill="#8745BA"/>
    </g>
    <path d="M969.205 65.2043L955.549 43.6597L976.799 29.8145L990.454 51.359L990.404 51.391L969.205 65.2043ZM955.713 43.6965L969.241 65.0379L990.289 51.3222L976.762 29.9808L955.713 43.6965Z" fill="#8745BA"/>
    <g style="mix-blend-mode:overlay">
        <path d="M973.001 65.7484L955 47.4992L973.001 29.25L991 47.4992L973.001 65.7484ZM955.447 47.4992L973.001 65.2957L990.554 47.4992L973.001 29.7011L955.447 47.4992Z" fill="#8745BA"/>
    </g>
    <path d="M973.001 65.7484L955 47.4992L973.001 29.25L991 47.4992L973.001 65.7484ZM955.447 47.4992L973.001 65.2957L990.554 47.4992L973.001 29.7011L955.447 47.4992Z" fill="#8745BA"/>
    <path d="M973.001 65.7484L955 47.4992L973.001 29.25L991 47.4992L973.001 65.7484ZM955.447 47.4992L973.001 65.2957L990.554 47.4992L973.001 29.7011L955.447 47.4992Z" fill="#8745BA"/>
    <g style="mix-blend-mode:overlay" filter="url(#filter4_f)">
        <path d="M972.27 50.893V48.0665C971.533 47.8945 970.866 47.4946 970.362 46.9218C969.951 46.3933 969.736 45.7344 969.756 45.0611C969.737 44.3744 969.984 43.7077 970.444 43.2045C970.923 42.6907 971.575 42.3799 972.27 42.3345V41.6685H973.232V42.3345C973.856 42.3869 974.447 42.644 974.915 43.0671C975.346 43.5047 975.625 44.0732 975.71 44.6864L974.031 44.907C974 44.6727 973.911 44.4503 973.771 44.2614C973.631 44.0725 973.445 43.9236 973.232 43.8289V46.468C974.297 46.7594 975.018 47.1382 975.402 47.6045C975.802 48.1102 976.009 48.746 975.984 49.3944C976.009 50.157 975.749 50.901 975.255 51.4758C974.725 52.0538 974.006 52.4151 973.232 52.4915V53.7403H972.27V52.5123C971.57 52.4554 970.912 52.1538 970.407 51.6589C969.885 51.086 969.563 50.3548 969.49 49.5776L971.222 49.3861C971.286 49.7246 971.426 50.0436 971.631 50.3185C971.796 50.5586 972.015 50.7554 972.27 50.893ZM972.27 43.8164C972.021 43.8995 971.803 44.0596 971.647 44.2743C971.493 44.4829 971.411 44.7376 971.414 44.9986C971.413 45.238 971.488 45.4714 971.627 45.6646C971.792 45.887 972.015 46.0585 972.27 46.16V43.8164ZM973.232 50.9887C973.552 50.9363 973.842 50.7695 974.051 50.5183C974.257 50.2743 974.368 49.9617 974.362 49.64C974.369 49.3558 974.276 49.0785 974.1 48.8574C973.87 48.6058 973.57 48.4315 973.24 48.3579L973.232 50.9887Z" fill="#8745BA"/>
    </g>
    <path d="M972.27 50.893V48.0665C971.533 47.8945 970.866 47.4946 970.362 46.9218C969.951 46.3933 969.736 45.7344 969.756 45.0611C969.737 44.3744 969.984 43.7077 970.444 43.2045C970.923 42.6907 971.575 42.3799 972.27 42.3345V41.6685H973.232V42.3345C973.856 42.3869 974.447 42.644 974.915 43.0671C975.346 43.5047 975.625 44.0732 975.71 44.6864L974.031 44.907C974 44.6727 973.911 44.4503 973.771 44.2614C973.631 44.0725 973.445 43.9236 973.232 43.8289V46.468C974.297 46.7594 975.018 47.1382 975.402 47.6045C975.802 48.1102 976.009 48.746 975.984 49.3944C976.009 50.157 975.749 50.901 975.255 51.4758C974.725 52.0538 974.006 52.4151 973.232 52.4915V53.7403H972.27V52.5123C971.57 52.4554 970.912 52.1538 970.407 51.6589C969.885 51.086 969.563 50.3548 969.49 49.5776L971.222 49.3861C971.286 49.7246 971.426 50.0436 971.631 50.3185C971.796 50.5586 972.015 50.7554 972.27 50.893ZM972.27 43.8164C972.021 43.8995 971.803 44.0596 971.647 44.2743C971.493 44.4829 971.411 44.7376 971.414 44.9986C971.413 45.238 971.488 45.4714 971.627 45.6646C971.792 45.887 972.015 46.0585 972.27 46.16V43.8164ZM973.232 50.9887C973.552 50.9363 973.842 50.7695 974.051 50.5183C974.257 50.2743 974.368 49.9617 974.362 49.64C974.369 49.3558 974.276 49.0785 974.1 48.8574C973.87 48.6058 973.57 48.4315 973.24 48.3579L973.232 50.9887Z" fill="#8745BA"/>
    <g style="mix-blend-mode:overlay" opacity="0.47">
        <path d="M478.176 128.342L464.42 106.632L485.827 92.6775L499.59 114.392L499.457 114.478L478.176 128.342ZM464.849 106.728L478.271 127.901L499.154 114.292L485.732 93.1158L464.849 106.728Z" fill="#8745BA"/>
    </g>
    <g style="mix-blend-mode:overlay" opacity="0.47">
        <path d="M478.205 128.204L464.549 106.66L485.799 92.8145L499.454 114.359L499.404 114.391L478.205 128.204ZM464.713 106.697L478.241 128.038L499.289 114.322L485.762 92.9808L464.713 106.697Z" fill="#8745BA"/>
    </g>
    <path d="M478.205 128.204L464.549 106.66L485.799 92.8145L499.454 114.359L499.404 114.391L478.205 128.204ZM464.713 106.697L478.241 128.038L499.289 114.322L485.762 92.9808L464.713 106.697Z" fill="#8745BA"/>
    <g style="mix-blend-mode:overlay">
        <path d="M482.001 128.748L464 110.499L482.001 92.25L500 110.499L482.001 128.748ZM464.447 110.499L482.001 128.296L499.554 110.499L482.001 92.7011L464.447 110.499Z" fill="#8745BA"/>
    </g>
    <path d="M482.001 128.748L464 110.499L482.001 92.25L500 110.499L482.001 128.748ZM464.447 110.499L482.001 128.296L499.554 110.499L482.001 92.7011L464.447 110.499Z" fill="#8745BA"/>
    <path d="M482.001 128.748L464 110.499L482.001 92.25L500 110.499L482.001 128.748ZM464.447 110.499L482.001 128.296L499.554 110.499L482.001 92.7011L464.447 110.499Z" fill="#8745BA"/>
    <g style="mix-blend-mode:overlay" filter="url(#filter5_f)">
        <path d="M481.27 113.893V111.067C480.533 110.894 479.866 110.495 479.362 109.922C478.951 109.393 478.736 108.734 478.756 108.061C478.737 107.374 478.984 106.708 479.444 106.204C479.923 105.691 480.575 105.38 481.27 105.334V104.668H482.232V105.334C482.856 105.387 483.447 105.644 483.915 106.067C484.346 106.505 484.625 107.073 484.71 107.686L483.031 107.907C483 107.673 482.911 107.45 482.771 107.261C482.631 107.073 482.445 106.924 482.232 106.829V109.468C483.297 109.759 484.018 110.138 484.402 110.604C484.802 111.11 485.009 111.746 484.984 112.394C485.009 113.157 484.749 113.901 484.255 114.476C483.725 115.054 483.006 115.415 482.232 115.491V116.74H481.27V115.512C480.57 115.455 479.912 115.154 479.407 114.659C478.885 114.086 478.563 113.355 478.49 112.578L480.222 112.386C480.286 112.725 480.426 113.044 480.631 113.319C480.796 113.559 481.015 113.755 481.27 113.893ZM481.27 106.816C481.021 106.9 480.803 107.06 480.647 107.274C480.493 107.483 480.411 107.738 480.414 107.999C480.413 108.238 480.488 108.471 480.627 108.665C480.792 108.887 481.015 109.058 481.27 109.16V106.816ZM482.232 113.989C482.552 113.936 482.842 113.769 483.051 113.518C483.257 113.274 483.368 112.962 483.362 112.64C483.369 112.356 483.276 112.078 483.1 111.857C482.87 111.606 482.57 111.431 482.24 111.358L482.232 113.989Z" fill="#8745BA"/>
    </g>
    <path d="M481.27 113.893V111.067C480.533 110.894 479.866 110.495 479.362 109.922C478.951 109.393 478.736 108.734 478.756 108.061C478.737 107.374 478.984 106.708 479.444 106.204C479.923 105.691 480.575 105.38 481.27 105.334V104.668H482.232V105.334C482.856 105.387 483.447 105.644 483.915 106.067C484.346 106.505 484.625 107.073 484.71 107.686L483.031 107.907C483 107.673 482.911 107.45 482.771 107.261C482.631 107.073 482.445 106.924 482.232 106.829V109.468C483.297 109.759 484.018 110.138 484.402 110.604C484.802 111.11 485.009 111.746 484.984 112.394C485.009 113.157 484.749 113.901 484.255 114.476C483.725 115.054 483.006 115.415 482.232 115.491V116.74H481.27V115.512C480.57 115.455 479.912 115.154 479.407 114.659C478.885 114.086 478.563 113.355 478.49 112.578L480.222 112.386C480.286 112.725 480.426 113.044 480.631 113.319C480.796 113.559 481.015 113.755 481.27 113.893ZM481.27 106.816C481.021 106.9 480.803 107.06 480.647 107.274C480.493 107.483 480.411 107.738 480.414 107.999C480.413 108.238 480.488 108.471 480.627 108.665C480.792 108.887 481.015 109.058 481.27 109.16V106.816ZM482.232 113.989C482.552 113.936 482.842 113.769 483.051 113.518C483.257 113.274 483.368 112.962 483.362 112.64C483.369 112.356 483.276 112.078 483.1 111.857C482.87 111.606 482.57 111.431 482.24 111.358L482.232 113.989Z" fill="#8745BA"/>
    <g style="mix-blend-mode:overlay" opacity="0.47">
        <path d="M1211.18 109.342L1197.42 87.6315L1218.83 73.6775L1232.59 95.3916L1232.46 95.478L1211.18 109.342ZM1197.85 87.7275L1211.27 108.901L1232.15 95.2924L1218.73 74.1158L1197.85 87.7275Z" fill="#8745BA"/>
    </g>
    <g style="mix-blend-mode:overlay" opacity="0.47">
        <path d="M1211.2 109.204L1197.55 87.6597L1218.8 73.8145L1232.45 95.359L1232.4 95.391L1211.2 109.204ZM1197.71 87.6965L1211.24 109.038L1232.29 95.3222L1218.76 73.9808L1197.71 87.6965Z" fill="#8745BA"/>
    </g>
    <path d="M1211.2 109.204L1197.55 87.6597L1218.8 73.8145L1232.45 95.359L1232.4 95.391L1211.2 109.204ZM1197.71 87.6965L1211.24 109.038L1232.29 95.3222L1218.76 73.9808L1197.71 87.6965Z" fill="#8745BA"/>
    <g style="mix-blend-mode:overlay">
        <path d="M1215 109.748L1197 91.4992L1215 73.25L1233 91.4992L1215 109.748ZM1197.45 91.4992L1215 109.296L1232.55 91.4992L1215 73.7011L1197.45 91.4992Z" fill="#8745BA"/>
    </g>
    <path d="M1215 109.748L1197 91.4992L1215 73.25L1233 91.4992L1215 109.748ZM1197.45 91.4992L1215 109.296L1232.55 91.4992L1215 73.7011L1197.45 91.4992Z" fill="#8745BA"/>
    <path d="M1215 109.748L1197 91.4992L1215 73.25L1233 91.4992L1215 109.748ZM1197.45 91.4992L1215 109.296L1232.55 91.4992L1215 73.7011L1197.45 91.4992Z" fill="#8745BA"/>
    <g style="mix-blend-mode:overlay" filter="url(#filter6_f)">
        <path d="M1214.27 94.893V92.0665C1213.53 91.8945 1212.87 91.4946 1212.36 90.9218C1211.95 90.3933 1211.74 89.7344 1211.76 89.0611C1211.74 88.3744 1211.98 87.7077 1212.44 87.2045C1212.92 86.6907 1213.57 86.3799 1214.27 86.3345V85.6685H1215.23V86.3345C1215.86 86.3869 1216.45 86.644 1216.92 87.0671C1217.35 87.5047 1217.63 88.0732 1217.71 88.6864L1216.03 88.907C1216 88.6727 1215.91 88.4503 1215.77 88.2614C1215.63 88.0725 1215.45 87.9236 1215.23 87.8289V90.468C1216.3 90.7594 1217.02 91.1382 1217.4 91.6045C1217.8 92.1102 1218.01 92.746 1217.98 93.3944C1218.01 94.157 1217.75 94.901 1217.26 95.4758C1216.73 96.0538 1216.01 96.4151 1215.23 96.4915V97.7403H1214.27V96.5123C1213.57 96.4554 1212.91 96.1538 1212.41 95.6589C1211.88 95.086 1211.56 94.3548 1211.49 93.5776L1213.22 93.3861C1213.29 93.7246 1213.43 94.0436 1213.63 94.3185C1213.8 94.5586 1214.02 94.7554 1214.27 94.893ZM1214.27 87.8164C1214.02 87.8995 1213.8 88.0596 1213.65 88.2743C1213.49 88.4829 1213.41 88.7376 1213.41 88.9986C1213.41 89.238 1213.49 89.4714 1213.63 89.6646C1213.79 89.887 1214.01 90.0585 1214.27 90.16V87.8164ZM1215.23 94.9887C1215.55 94.9363 1215.84 94.7695 1216.05 94.5183C1216.26 94.2743 1216.37 93.9617 1216.36 93.64C1216.37 93.3558 1216.28 93.0785 1216.1 92.8574C1215.87 92.6058 1215.57 92.4315 1215.24 92.3579L1215.23 94.9887Z" fill="#8745BA"/>
    </g>
    <path d="M1214.27 94.893V92.0665C1213.53 91.8945 1212.87 91.4946 1212.36 90.9218C1211.95 90.3933 1211.74 89.7344 1211.76 89.0611C1211.74 88.3744 1211.98 87.7077 1212.44 87.2045C1212.92 86.6907 1213.57 86.3799 1214.27 86.3345V85.6685H1215.23V86.3345C1215.86 86.3869 1216.45 86.644 1216.92 87.0671C1217.35 87.5047 1217.63 88.0732 1217.71 88.6864L1216.03 88.907C1216 88.6727 1215.91 88.4503 1215.77 88.2614C1215.63 88.0725 1215.45 87.9236 1215.23 87.8289V90.468C1216.3 90.7594 1217.02 91.1382 1217.4 91.6045C1217.8 92.1102 1218.01 92.746 1217.98 93.3944C1218.01 94.157 1217.75 94.901 1217.26 95.4758C1216.73 96.0538 1216.01 96.4151 1215.23 96.4915V97.7403H1214.27V96.5123C1213.57 96.4554 1212.91 96.1538 1212.41 95.6589C1211.88 95.086 1211.56 94.3548 1211.49 93.5776L1213.22 93.3861C1213.29 93.7246 1213.43 94.0436 1213.63 94.3185C1213.8 94.5586 1214.02 94.7554 1214.27 94.893ZM1214.27 87.8164C1214.02 87.8995 1213.8 88.0596 1213.65 88.2743C1213.49 88.4829 1213.41 88.7376 1213.41 88.9986C1213.41 89.238 1213.49 89.4714 1213.63 89.6646C1213.79 89.887 1214.01 90.0585 1214.27 90.16V87.8164ZM1215.23 94.9887C1215.55 94.9363 1215.84 94.7695 1216.05 94.5183C1216.26 94.2743 1216.37 93.9617 1216.36 93.64C1216.37 93.3558 1216.28 93.0785 1216.1 92.8574C1215.87 92.6058 1215.57 92.4315 1215.24 92.3579L1215.23 94.9887Z" fill="#8745BA"/>
    <g style="mix-blend-mode:overlay" opacity="0.47">
        <path d="M193.096 125.773L168.258 87.1099L206.91 62.2603L231.759 100.929L231.52 101.083L193.096 125.773ZM169.033 87.2809L193.267 124.987L230.973 100.753L206.739 63.0408L169.033 87.2809Z" fill="#8745BA"/>
    </g>
    <g style="mix-blend-mode:overlay" opacity="0.47">
        <path d="M193.147 125.528L168.491 87.1613L206.858 62.5054L231.514 100.872L231.423 100.929L193.147 125.528ZM168.787 87.2268L193.213 125.232L231.215 100.807L206.793 62.8016L168.787 87.2268Z" fill="#8745BA"/>
    </g>
    <path d="M193.147 125.528L168.491 87.1611L206.858 62.5051L231.514 100.872L231.423 100.929L193.147 125.528ZM168.787 87.2266L193.213 125.232L231.215 100.807L206.793 62.8014L168.787 87.2266Z" fill="#8745BA"/>
    <g style="mix-blend-mode:overlay">
        <path d="M200.001 126.497L167.5 93.9986L200.001 61.5L232.5 93.9986L200.001 126.497ZM168.306 93.9986L200.001 125.691L231.694 93.9986L200.001 62.3033L168.306 93.9986Z" fill="#8745BA"/>
    </g>
    <path d="M200.001 126.497L167.5 93.9986L200.001 61.5L232.5 93.9986L200.001 126.497ZM168.306 93.9986L200.001 125.691L231.694 93.9986L200.001 62.3033L168.306 93.9986Z" fill="#8745BA"/>
    <path d="M200.001 126.497L167.5 93.9986L200.001 61.5L232.5 93.9986L200.001 126.497ZM168.306 93.9986L200.001 125.691L231.694 93.9986L200.001 62.3033L168.306 93.9986Z" fill="#8745BA"/>
    <g style="mix-blend-mode:overlay">
        <path d="M207.105 84.7809L206.265 88.6862C205.792 88.2615 205.237 87.9364 204.636 87.73C204.034 87.5237 203.397 87.4405 202.762 87.4852C202.054 87.4658 201.35 87.6068 200.704 87.8977C200.058 88.1886 199.486 88.6218 199.032 89.1649C198.472 89.8412 198.083 90.6419 197.898 91.4997H205.669L205.215 93.6832H197.654C197.654 93.9016 197.654 94.1787 197.654 94.5231C197.654 94.8674 197.654 95.2033 197.654 95.5561H204.845L204.392 97.7481H197.923C198.099 98.6117 198.48 99.4207 199.032 100.108C199.475 100.649 200.037 101.081 200.673 101.373C201.309 101.664 202.004 101.806 202.703 101.788C203.501 101.823 204.298 101.692 205.043 101.403C205.788 101.114 206.465 100.673 207.03 100.108V104.433C205.693 105.069 204.225 105.383 202.745 105.349C201.479 105.387 200.22 105.155 199.051 104.669C197.881 104.182 196.83 103.452 195.965 102.527C194.732 101.189 193.904 99.5292 193.579 97.7397H191.471L191.924 95.5477H193.31C193.31 95.3209 193.31 95.0858 193.31 94.8254C193.31 94.3971 193.31 93.9856 193.31 93.6832H191.471L191.924 91.4997H193.604C193.939 89.7432 194.757 88.1146 195.965 86.7965C196.862 85.847 197.953 85.1008 199.163 84.6083C200.373 84.1157 201.675 83.8882 202.98 83.9411C204.402 83.897 205.814 84.1846 207.105 84.7809Z" fill="#8745BA"/>
    </g>
    <path d="M207.105 84.7809L206.265 88.6862C205.792 88.2615 205.237 87.9364 204.636 87.73C204.034 87.5237 203.397 87.4405 202.762 87.4852C202.054 87.4658 201.35 87.6068 200.704 87.8977C200.058 88.1886 199.486 88.6218 199.032 89.1649C198.472 89.8412 198.083 90.6419 197.898 91.4997H205.669L205.215 93.6832H197.654C197.654 93.9016 197.654 94.1787 197.654 94.5231C197.654 94.8674 197.654 95.2033 197.654 95.5561H204.845L204.392 97.7481H197.923C198.099 98.6117 198.48 99.4207 199.032 100.108C199.475 100.649 200.037 101.081 200.673 101.373C201.309 101.664 202.004 101.806 202.703 101.788C203.501 101.823 204.298 101.692 205.043 101.403C205.788 101.114 206.465 100.673 207.03 100.108V104.433C205.693 105.069 204.225 105.383 202.745 105.349C201.479 105.387 200.22 105.155 199.051 104.669C197.881 104.182 196.83 103.452 195.965 102.527C194.732 101.189 193.904 99.5292 193.579 97.7397H191.471L191.924 95.5477H193.31C193.31 95.3209 193.31 95.0858 193.31 94.8254C193.31 94.3971 193.31 93.9856 193.31 93.6832H191.471L191.924 91.4997H193.604C193.939 89.7432 194.757 88.1146 195.965 86.7965C196.862 85.847 197.953 85.1008 199.163 84.6083C200.373 84.1157 201.675 83.8882 202.98 83.9411C204.402 83.897 205.814 84.1846 207.105 84.7809Z" fill="#8745BA"/>
    <g style="mix-blend-mode:overlay" opacity="0.47">
        <path d="M1042.1 125.773L1017.26 87.1099L1055.91 62.2603L1080.76 100.929L1080.52 101.083L1042.1 125.773ZM1018.03 87.2809L1042.27 124.987L1079.97 100.753L1055.74 63.0408L1018.03 87.2809Z" fill="#8745BA"/>
    </g>
    <g style="mix-blend-mode:overlay" opacity="0.47">
        <path d="M1042.15 125.528L1017.49 87.1613L1055.86 62.5054L1080.51 100.872L1080.42 100.929L1042.15 125.528ZM1017.79 87.2268L1042.21 125.232L1080.21 100.807L1055.79 62.8016L1017.79 87.2268Z" fill="#8745BA"/>
    </g>
    <path d="M1042.15 125.528L1017.49 87.1611L1055.86 62.5051L1080.51 100.872L1080.42 100.929L1042.15 125.528ZM1017.79 87.2266L1042.21 125.232L1080.21 100.807L1055.79 62.8014L1017.79 87.2266Z" fill="#8745BA"/>
    <g style="mix-blend-mode:overlay">
        <path d="M1049 126.497L1016.5 93.9986L1049 61.5L1081.5 93.9986L1049 126.497ZM1017.31 93.9986L1049 125.691L1080.69 93.9986L1049 62.3033L1017.31 93.9986Z" fill="#8745BA"/>
    </g>
    <path d="M1049 126.497L1016.5 93.9986L1049 61.5L1081.5 93.9986L1049 126.497ZM1017.31 93.9986L1049 125.691L1080.69 93.9986L1049 62.3033L1017.31 93.9986Z" fill="#8745BA"/>
    <path d="M1049 126.497L1016.5 93.9986L1049 61.5L1081.5 93.9986L1049 126.497ZM1017.31 93.9986L1049 125.691L1080.69 93.9986L1049 62.3033L1017.31 93.9986Z" fill="#8745BA"/>
    <g style="mix-blend-mode:overlay">
        <path d="M1056.11 84.7809L1055.27 88.6862C1054.79 88.2615 1054.24 87.9364 1053.64 87.73C1053.03 87.5237 1052.4 87.4405 1051.76 87.4852C1051.05 87.4658 1050.35 87.6068 1049.7 87.8977C1049.06 88.1886 1048.49 88.6218 1048.03 89.1649C1047.47 89.8412 1047.08 90.6419 1046.9 91.4997H1054.67L1054.21 93.6832H1046.65C1046.65 93.9016 1046.65 94.1787 1046.65 94.5231C1046.65 94.8674 1046.65 95.2033 1046.65 95.5561H1053.85L1053.39 97.7481H1046.92C1047.1 98.6117 1047.48 99.4207 1048.03 100.108C1048.48 100.649 1049.04 101.081 1049.67 101.373C1050.31 101.664 1051 101.806 1051.7 101.788C1052.5 101.823 1053.3 101.692 1054.04 101.403C1054.79 101.114 1055.46 100.673 1056.03 100.108V104.433C1054.69 105.069 1053.23 105.383 1051.74 105.349C1050.48 105.387 1049.22 105.155 1048.05 104.669C1046.88 104.182 1045.83 103.452 1044.97 102.527C1043.73 101.189 1042.9 99.5292 1042.58 97.7397H1040.47L1040.92 95.5477H1042.31C1042.31 95.3209 1042.31 95.0858 1042.31 94.8254C1042.31 94.3971 1042.31 93.9856 1042.31 93.6832H1040.47L1040.92 91.4997H1042.6C1042.94 89.7432 1043.76 88.1146 1044.97 86.7965C1045.86 85.847 1046.95 85.1008 1048.16 84.6083C1049.37 84.1157 1050.67 83.8882 1051.98 83.9411C1053.4 83.897 1054.81 84.1846 1056.11 84.7809Z" fill="#8745BA"/>
    </g>
    <path d="M1056.11 84.7809L1055.27 88.6862C1054.79 88.2615 1054.24 87.9364 1053.64 87.73C1053.03 87.5237 1052.4 87.4405 1051.76 87.4852C1051.05 87.4658 1050.35 87.6068 1049.7 87.8977C1049.06 88.1886 1048.49 88.6218 1048.03 89.1649C1047.47 89.8412 1047.08 90.6419 1046.9 91.4997H1054.67L1054.21 93.6832H1046.65C1046.65 93.9016 1046.65 94.1787 1046.65 94.5231C1046.65 94.8674 1046.65 95.2033 1046.65 95.5561H1053.85L1053.39 97.7481H1046.92C1047.1 98.6117 1047.48 99.4207 1048.03 100.108C1048.48 100.649 1049.04 101.081 1049.67 101.373C1050.31 101.664 1051 101.806 1051.7 101.788C1052.5 101.823 1053.3 101.692 1054.04 101.403C1054.79 101.114 1055.46 100.673 1056.03 100.108V104.433C1054.69 105.069 1053.23 105.383 1051.74 105.349C1050.48 105.387 1049.22 105.155 1048.05 104.669C1046.88 104.182 1045.83 103.452 1044.97 102.527C1043.73 101.189 1042.9 99.5292 1042.58 97.7397H1040.47L1040.92 95.5477H1042.31C1042.31 95.3209 1042.31 95.0858 1042.31 94.8254C1042.31 94.3971 1042.31 93.9856 1042.31 93.6832H1040.47L1040.92 91.4997H1042.6C1042.94 89.7432 1043.76 88.1146 1044.97 86.7965C1045.86 85.847 1046.95 85.1008 1048.16 84.6083C1049.37 84.1157 1050.67 83.8882 1051.98 83.9411C1053.4 83.897 1054.81 84.1846 1056.11 84.7809Z" fill="#8745BA"/>
    <g style="mix-blend-mode:overlay" opacity="0.47">
        <path d="M557.096 107.773L532.258 69.1099L570.91 44.2603L595.759 82.9292L595.52 83.0831L557.096 107.773ZM533.033 69.2809L557.267 106.987L594.973 82.7526L570.739 45.0408L533.033 69.2809Z" fill="#8745BA"/>
    </g>
    <g style="mix-blend-mode:overlay" opacity="0.47">
        <path d="M557.147 107.528L532.491 69.1613L570.858 44.5054L595.514 82.8724L595.423 82.9293L557.147 107.528ZM532.787 69.2268L557.213 107.232L595.215 82.8069L570.793 44.8016L532.787 69.2268Z" fill="#8745BA"/>
    </g>
    <path d="M557.147 107.528L532.491 69.1611L570.858 44.5051L595.514 82.8721L595.423 82.9291L557.147 107.528ZM532.787 69.2266L557.213 107.232L595.215 82.8066L570.793 44.8014L532.787 69.2266Z" fill="#8745BA"/>
    <g style="mix-blend-mode:overlay">
        <path d="M564.001 108.497L531.5 75.9986L564.001 43.5L596.5 75.9986L564.001 108.497ZM532.306 75.9986L564.001 107.691L595.694 75.9986L564.001 44.3033L532.306 75.9986Z" fill="#8745BA"/>
    </g>
    <path d="M564.001 108.497L531.5 75.9986L564.001 43.5L596.5 75.9986L564.001 108.497ZM532.306 75.9986L564.001 107.691L595.694 75.9986L564.001 44.3033L532.306 75.9986Z" fill="#8745BA"/>
    <path d="M564.001 108.497L531.5 75.9986L564.001 43.5L596.5 75.9986L564.001 108.497ZM532.306 75.9986L564.001 107.691L595.694 75.9986L564.001 44.3033L532.306 75.9986Z" fill="#8745BA"/>
    <g style="mix-blend-mode:overlay">
        <path d="M571.105 66.7809L570.265 70.6862C569.791 70.2615 569.237 69.9364 568.635 69.73C568.034 69.5237 567.396 69.4405 566.762 69.4852C566.054 69.4658 565.35 69.6068 564.704 69.8977C564.058 70.1886 563.486 70.6218 563.032 71.1649C562.472 71.8412 562.083 72.6419 561.897 73.4997H569.669L569.215 75.6832H561.654C561.654 75.9016 561.654 76.1787 561.654 76.5231C561.654 76.8674 561.654 77.2033 561.654 77.5561H568.845L568.392 79.7481H561.923C562.099 80.6117 562.48 81.4207 563.032 82.108C563.475 82.6489 564.037 83.0814 564.673 83.3725C565.309 83.6636 566.003 83.8056 566.703 83.7877C567.501 83.8234 568.298 83.6924 569.043 83.4032C569.788 83.114 570.465 82.6729 571.03 82.108V86.4332C569.693 87.069 568.225 87.3826 566.745 87.3486C565.479 87.3872 564.22 87.1555 563.051 86.6689C561.881 86.1823 560.83 85.452 559.965 84.5268C558.732 83.1895 557.904 81.5292 557.579 79.7397H555.471L555.924 77.5477H557.31C557.31 77.3209 557.31 77.0858 557.31 76.8254C557.31 76.3971 557.31 75.9856 557.31 75.6832H555.471L555.924 73.4997H557.604C557.939 71.7432 558.757 70.1146 559.965 68.7965C560.862 67.847 561.953 67.1008 563.163 66.6083C564.373 66.1157 565.675 65.8882 566.98 65.9411C568.402 65.897 569.814 66.1846 571.105 66.7809Z" fill="#8745BA"/>
    </g>
    <path d="M571.105 66.7809L570.265 70.6862C569.791 70.2615 569.237 69.9364 568.635 69.73C568.034 69.5237 567.396 69.4405 566.762 69.4852C566.054 69.4658 565.35 69.6068 564.704 69.8977C564.058 70.1886 563.486 70.6218 563.032 71.1649C562.472 71.8412 562.083 72.6419 561.897 73.4997H569.669L569.215 75.6832H561.654C561.654 75.9016 561.654 76.1787 561.654 76.5231C561.654 76.8674 561.654 77.2033 561.654 77.5561H568.845L568.392 79.7481H561.923C562.099 80.6117 562.48 81.4207 563.032 82.108C563.475 82.6489 564.037 83.0814 564.673 83.3725C565.309 83.6636 566.003 83.8056 566.703 83.7877C567.501 83.8234 568.298 83.6924 569.043 83.4032C569.788 83.114 570.465 82.6729 571.03 82.108V86.4332C569.693 87.069 568.225 87.3826 566.745 87.3486C565.479 87.3872 564.22 87.1555 563.051 86.6689C561.881 86.1823 560.83 85.452 559.965 84.5268C558.732 83.1895 557.904 81.5292 557.579 79.7397H555.471L555.924 77.5477H557.31C557.31 77.3209 557.31 77.0858 557.31 76.8254C557.31 76.3971 557.31 75.9856 557.31 75.6832H555.471L555.924 73.4997H557.604C557.939 71.7432 558.757 70.1146 559.965 68.7965C560.862 67.847 561.953 67.1008 563.163 66.6083C564.373 66.1157 565.675 65.8882 566.98 65.9411C568.402 65.897 569.814 66.1846 571.105 66.7809Z" fill="#8745BA"/>
    <g style="mix-blend-mode:overlay" opacity="0.47">
        <path d="M270.22 71.801L251.222 42.23L280.785 23.2241L299.791 52.7995L299.608 52.9172L270.22 71.801ZM251.815 42.3608L270.35 71.1997L299.189 52.6644L280.654 23.8211L251.815 42.3608Z" fill="#8745BA"/>
    </g>
    <g style="mix-blend-mode:overlay" opacity="0.47">
        <path d="M270.259 71.6138L251.402 42.2694L280.746 23.4116L299.604 52.7561L299.534 52.7996L270.259 71.6138ZM251.628 42.3195L270.309 71.3872L299.375 52.7059L280.696 23.6382L251.628 42.3195Z" fill="#8745BA"/>
    </g>
    <path d="M270.259 71.6138L251.402 42.2694L280.746 23.4116L299.604 52.7561L299.534 52.7996L270.259 71.6138ZM251.628 42.3195L270.309 71.3872L299.375 52.7059L280.696 23.6382L251.628 42.3195Z" fill="#8745BA"/>
    <g style="mix-blend-mode:overlay">
        <path d="M275.502 72.3547L250.643 47.4986L275.502 22.6426L300.358 47.4986L275.502 72.3547ZM251.26 47.4986L275.502 71.7381L299.741 47.4986L275.502 23.257L251.26 47.4986Z" fill="#8745BA"/>
    </g>
    <path d="M275.502 72.3547L250.643 47.4986L275.502 22.6426L300.358 47.4986L275.502 72.3547ZM251.26 47.4986L275.502 71.7381L299.741 47.4986L275.502 23.257L251.26 47.4986Z" fill="#8745BA"/>
    <path d="M275.502 72.3547L250.643 47.4986L275.502 22.6426L300.358 47.4986L275.502 72.3547ZM251.26 47.4986L275.502 71.7381L299.741 47.4986L275.502 23.257L251.26 47.4986Z" fill="#8745BA"/>
    <g style="mix-blend-mode:overlay">
        <path d="M270.846 51.3857H272.307V49.6711H270.846V46.9454H272.307V40.175H276.47C278.15 40.175 279.373 40.5854 280.14 41.406C280.92 42.2267 281.309 43.3551 281.309 44.7912C281.309 45.6411 281.151 46.4398 280.834 47.1872C280.518 47.9346 279.988 48.5354 279.246 48.9897C278.515 49.444 277.517 49.6711 276.251 49.6711H275.064V51.3857H277.876V53.5179H275.064V55.8699H272.307V53.5179H270.846V51.3857ZM276.324 42.9008H275.064V46.9454H275.977C276.756 46.9454 277.371 46.7842 277.821 46.4618C278.284 46.1394 278.515 45.6192 278.515 44.9011C278.515 43.5675 277.785 42.9008 276.324 42.9008Z" fill="#8745BA"/>
    </g>
    <path d="M270.846 51.3857H272.307V49.6711H270.846V46.9454H272.307V40.175H276.47C278.15 40.175 279.373 40.5854 280.14 41.406C280.92 42.2267 281.309 43.3551 281.309 44.7912C281.309 45.6411 281.151 46.4398 280.834 47.1872C280.518 47.9346 279.988 48.5354 279.246 48.9897C278.515 49.444 277.517 49.6711 276.251 49.6711H275.064V51.3857H277.876V53.5179H275.064V55.8699H272.307V53.5179H270.846V51.3857ZM276.324 42.9008H275.064V46.9454H275.977C276.756 46.9454 277.371 46.7842 277.821 46.4618C278.284 46.1394 278.515 45.6192 278.515 44.9011C278.515 43.5675 277.785 42.9008 276.324 42.9008Z" fill="#8745BA"/>
    <g style="mix-blend-mode:overlay" opacity="0.47">
        <path d="M1124.22 71.801L1105.22 42.23L1134.78 23.2241L1153.79 52.7995L1153.61 52.9172L1124.22 71.801ZM1105.82 42.3608L1124.35 71.1997L1153.19 52.6644L1134.65 23.8211L1105.82 42.3608Z" fill="#8745BA"/>
    </g>
    <g style="mix-blend-mode:overlay" opacity="0.47">
        <path d="M1124.26 71.6138L1105.4 42.2694L1134.75 23.4116L1153.6 52.7561L1153.53 52.7996L1124.26 71.6138ZM1105.63 42.3195L1124.31 71.3872L1153.37 52.7059L1134.7 23.6382L1105.63 42.3195Z" fill="#8745BA"/>
    </g>
    <path d="M1124.26 71.6138L1105.4 42.2694L1134.75 23.4116L1153.6 52.7561L1153.53 52.7996L1124.26 71.6138ZM1105.63 42.3195L1124.31 71.3872L1153.37 52.7059L1134.7 23.6382L1105.63 42.3195Z" fill="#8745BA"/>
    <g style="mix-blend-mode:overlay">
        <path d="M1129.5 72.3547L1104.64 47.4986L1129.5 22.6426L1154.36 47.4986L1129.5 72.3547ZM1105.26 47.4986L1129.5 71.7381L1153.74 47.4986L1129.5 23.257L1105.26 47.4986Z" fill="#8745BA"/>
    </g>
    <path d="M1129.5 72.3547L1104.64 47.4986L1129.5 22.6426L1154.36 47.4986L1129.5 72.3547ZM1105.26 47.4986L1129.5 71.7381L1153.74 47.4986L1129.5 23.257L1105.26 47.4986Z" fill="#8745BA"/>
    <path d="M1129.5 72.3547L1104.64 47.4986L1129.5 22.6426L1154.36 47.4986L1129.5 72.3547ZM1105.26 47.4986L1129.5 71.7381L1153.74 47.4986L1129.5 23.257L1105.26 47.4986Z" fill="#8745BA"/>
    <g style="mix-blend-mode:overlay">
        <path d="M1124.85 51.3857H1126.31V49.6711H1124.85V46.9454H1126.31V40.175H1130.47C1132.15 40.175 1133.37 40.5854 1134.14 41.406C1134.92 42.2267 1135.31 43.3551 1135.31 44.7912C1135.31 45.6411 1135.15 46.4398 1134.83 47.1872C1134.52 47.9346 1133.99 48.5354 1133.25 48.9897C1132.52 49.444 1131.52 49.6711 1130.25 49.6711H1129.06V51.3857H1131.88V53.5179H1129.06V55.8699H1126.31V53.5179H1124.85V51.3857ZM1130.32 42.9008H1129.06V46.9454H1129.98C1130.76 46.9454 1131.37 46.7842 1131.82 46.4618C1132.28 46.1394 1132.52 45.6192 1132.52 44.9011C1132.52 43.5675 1131.78 42.9008 1130.32 42.9008Z" fill="#8745BA"/>
    </g>
    <path d="M1124.85 51.3857H1126.31V49.6711H1124.85V46.9454H1126.31V40.175H1130.47C1132.15 40.175 1133.37 40.5854 1134.14 41.406C1134.92 42.2267 1135.31 43.3551 1135.31 44.7912C1135.31 45.6411 1135.15 46.4398 1134.83 47.1872C1134.52 47.9346 1133.99 48.5354 1133.25 48.9897C1132.52 49.444 1131.52 49.6711 1130.25 49.6711H1129.06V51.3857H1131.88V53.5179H1129.06V55.8699H1126.31V53.5179H1124.85V51.3857ZM1130.32 42.9008H1129.06V46.9454H1129.98C1130.76 46.9454 1131.37 46.7842 1131.82 46.4618C1132.28 46.1394 1132.52 45.6192 1132.52 44.9011C1132.52 43.5675 1131.78 42.9008 1130.32 42.9008Z" fill="#8745BA"/>
    <g style="mix-blend-mode:overlay" opacity="0.47">
        <path d="M786.22 71.801L767.222 42.23L796.785 23.2241L815.791 52.7995L815.608 52.9172L786.22 71.801ZM767.815 42.3608L786.35 71.1997L815.189 52.6644L796.654 23.8211L767.815 42.3608Z" fill="#8745BA"/>
    </g>
    <g style="mix-blend-mode:overlay" opacity="0.47">
        <path d="M786.259 71.6138L767.402 42.2694L796.746 23.4116L815.604 52.7561L815.534 52.7996L786.259 71.6138ZM767.628 42.3195L786.309 71.3872L815.375 52.7059L796.696 23.6382L767.628 42.3195Z" fill="#8745BA"/>
    </g>
    <path d="M786.259 71.6138L767.402 42.2694L796.746 23.4116L815.604 52.7561L815.534 52.7996L786.259 71.6138ZM767.628 42.3195L786.309 71.3872L815.375 52.7059L796.696 23.6382L767.628 42.3195Z" fill="#8745BA"/>
    <g style="mix-blend-mode:overlay">
        <path d="M791.502 72.3547L766.643 47.4986L791.502 22.6426L816.358 47.4986L791.502 72.3547ZM767.26 47.4986L791.502 71.7381L815.741 47.4986L791.502 23.257L767.26 47.4986Z" fill="#8745BA"/>
    </g>
    <path d="M791.501 72.3547L766.643 47.4986L791.501 22.6426L816.358 47.4986L791.501 72.3547ZM767.26 47.4986L791.501 71.7381L815.741 47.4986L791.501 23.257L767.26 47.4986Z" fill="#8745BA"/>
    <path d="M791.502 72.3547L766.643 47.4986L791.502 22.6426L816.358 47.4986L791.502 72.3547ZM767.26 47.4986L791.502 71.7381L815.741 47.4986L791.502 23.257L767.26 47.4986Z" fill="#8745BA"/>
    <g style="mix-blend-mode:overlay">
        <path d="M786.846 51.3857H788.307V49.6711H786.846V46.9454H788.307V40.175H792.47C794.15 40.175 795.373 40.5854 796.14 41.406C796.919 42.2267 797.309 43.3551 797.309 44.7912C797.309 45.6411 797.151 46.4398 796.834 47.1872C796.518 47.9346 795.988 48.5354 795.246 48.9897C794.515 49.444 793.517 49.6711 792.251 49.6711H791.064V51.3857H793.876V53.5179H791.064V55.8699H788.307V53.5179H786.846V51.3857ZM792.324 42.9008H791.064V46.9454H791.977C792.756 46.9454 793.371 46.7842 793.821 46.4618C794.284 46.1394 794.515 45.6192 794.515 44.9011C794.515 43.5675 793.785 42.9008 792.324 42.9008Z" fill="#8745BA"/>
    </g>
    <path d="M786.846 51.3857H788.307V49.6711H786.846V46.9454H788.307V40.175H792.47C794.15 40.175 795.373 40.5854 796.14 41.406C796.919 42.2267 797.309 43.3551 797.309 44.7912C797.309 45.6411 797.151 46.4398 796.834 47.1872C796.518 47.9346 795.988 48.5354 795.246 48.9897C794.515 49.444 793.517 49.6711 792.251 49.6711H791.064V51.3857H793.876V53.5179H791.064V55.8699H788.307V53.5179H786.846V51.3857ZM792.324 42.9008H791.064V46.9454H791.977C792.756 46.9454 793.371 46.7842 793.821 46.4618C794.284 46.1394 794.515 45.6192 794.515 44.9011C794.515 43.5675 793.785 42.9008 792.324 42.9008Z" fill="#8745BA"/>
    <g style="mix-blend-mode:overlay" opacity="0.47">
        <path d="M325.623 113.342L311.676 91.6313L333.38 77.6772L347.334 99.3914L347.2 99.4777L325.623 113.342ZM312.111 91.7273L325.719 112.901L346.893 99.2922L333.284 78.1156L312.111 91.7273Z" fill="#8745BA"/>
    </g>
    <g style="mix-blend-mode:overlay" opacity="0.47">
        <path d="M325.652 113.204L311.807 91.6597L333.351 77.8145L347.196 99.359L347.145 99.391L325.652 113.204ZM311.973 91.6965L325.689 113.038L347.028 99.3222L333.314 77.9808L311.973 91.6965Z" fill="#8745BA"/>
    </g>
    <path d="M325.652 113.204L311.807 91.6597L333.351 77.8145L347.196 99.359L347.145 99.391L325.652 113.204ZM311.973 91.6965L325.689 113.038L347.028 99.3222L333.314 77.9808L311.973 91.6965Z" fill="#8745BA"/>
    <g style="mix-blend-mode:overlay">
        <path d="M329.501 113.748L311.25 95.4992L329.501 77.25L347.75 95.4992L329.501 113.748ZM311.703 95.4992L329.501 113.296L347.297 95.4992L329.501 77.7011L311.703 95.4992Z" fill="#8745BA"/>
    </g>
    <path d="M329.501 113.748L311.25 95.4992L329.501 77.25L347.75 95.4992L329.501 113.748ZM311.703 95.4992L329.501 113.296L347.297 95.4992L329.501 77.7011L311.703 95.4992Z" fill="#8745BA"/>
    <path d="M329.501 113.748L311.25 95.4992L329.501 77.25L347.75 95.4992L329.501 113.748ZM311.703 95.4992L329.501 113.296L347.297 95.4992L329.501 77.7011L311.703 95.4992Z" fill="#8745BA"/>
    <path fill-rule="evenodd" clip-rule="evenodd" d="M329.375 89.5737L325.589 95.8455L329.375 98.0911L333.156 95.8455L329.375 89.5737ZM325.26 96.4539L329.375 101.92L333.49 96.4539L329.375 98.8968L325.26 96.4539Z" fill="#8745BA"/>
    <path fill-rule="evenodd" clip-rule="evenodd" d="M329.375 101.92L333.49 96.4536L329.375 98.8965V101.92Z" fill="#8745BA"/>
    <g style="mix-blend-mode:overlay" opacity="0.47">
        <path d="M969.623 163.342L955.676 141.631L977.38 127.677L991.334 149.391L991.2 149.478L969.623 163.342ZM956.111 141.727L969.719 162.901L990.893 149.292L977.284 128.116L956.111 141.727Z" fill="#8745BA"/>
    </g>
    <g style="mix-blend-mode:overlay" opacity="0.47">
        <path d="M969.652 163.204L955.807 141.66L977.351 127.814L991.196 149.359L991.145 149.391L969.652 163.204ZM955.973 141.697L969.689 163.038L991.028 149.322L977.314 127.981L955.973 141.697Z" fill="#8745BA"/>
    </g>
    <path d="M969.652 163.204L955.807 141.66L977.351 127.814L991.196 149.359L991.145 149.391L969.652 163.204ZM955.973 141.697L969.689 163.038L991.028 149.322L977.314 127.981L955.973 141.697Z" fill="#8745BA"/>
    <g style="mix-blend-mode:overlay">
        <path d="M973.501 163.748L955.25 145.499L973.501 127.25L991.75 145.499L973.501 163.748ZM955.703 145.499L973.501 163.296L991.297 145.499L973.501 127.701L955.703 145.499Z" fill="#8745BA"/>
    </g>
    <path d="M973.501 163.748L955.25 145.499L973.501 127.25L991.75 145.499L973.501 163.748ZM955.703 145.499L973.501 163.296L991.297 145.499L973.501 127.701L955.703 145.499Z" fill="#8745BA"/>
    <path d="M973.501 163.748L955.25 145.499L973.501 127.25L991.75 145.499L973.501 163.748ZM955.703 145.499L973.501 163.296L991.297 145.499L973.501 127.701L955.703 145.499Z" fill="#8745BA"/>
    <path fill-rule="evenodd" clip-rule="evenodd" d="M973.375 139.574L969.589 145.845L973.375 148.091L977.156 145.845L973.375 139.574ZM969.26 146.454L973.375 151.92L977.49 146.454L973.375 148.897L969.26 146.454Z" fill="#8745BA"/>
    <path fill-rule="evenodd" clip-rule="evenodd" d="M973.375 151.92L977.49 146.454L973.375 148.897V151.92Z" fill="#8745BA"/>
    <g style="mix-blend-mode:overlay" opacity="0.47">
        <path d="M643.048 56.3868L630.629 37.0552L649.955 24.6304L662.38 43.9649L662.26 44.0418L643.048 56.3868ZM631.016 37.1407L643.133 55.9937L661.986 43.8765L649.869 25.0207L631.016 37.1407Z" fill="#8745BA"/>
    </g>
    <g style="mix-blend-mode:overlay" opacity="0.47">
        <path d="M643.074 56.2642L630.746 37.0807L649.929 24.7527L662.257 43.9362L662.211 43.9647L643.074 56.2642ZM630.894 37.1134L643.106 56.116L662.108 43.9034L649.896 24.9008L630.894 37.1134Z" fill="#8745BA"/>
    </g>
    <path d="M643.074 56.2642L630.746 37.0807L649.929 24.7527L662.257 43.9362L662.211 43.9647L643.074 56.2642ZM630.894 37.1134L643.106 56.116L662.108 43.9034L649.896 24.9008L630.894 37.1134Z" fill="#8745BA"/>
    <g style="mix-blend-mode:overlay">
        <path d="M646.501 56.7486L630.25 40.4993L646.501 24.25L662.75 40.4993L646.501 56.7486ZM630.653 40.4993L646.501 56.3455L662.347 40.4993L646.501 24.6517L630.653 40.4993Z" fill="#8745BA"/>
    </g>
    <path d="M646.501 56.7486L630.25 40.4993L646.501 24.25L662.75 40.4993L646.501 56.7486ZM630.653 40.4993L646.501 56.3455L662.347 40.4993L646.501 24.6517L630.653 40.4993Z" fill="#8745BA"/>
    <path d="M646.501 56.7486L630.25 40.4993L646.501 24.25L662.75 40.4993L646.501 56.7486ZM630.653 40.4993L646.501 56.3455L662.347 40.4993L646.501 24.6517L630.653 40.4993Z" fill="#8745BA"/>
    <path fill-rule="evenodd" clip-rule="evenodd" d="M646.389 35.2231L643.018 40.8076L646.389 42.8071L649.755 40.8076L646.389 35.2231ZM642.724 41.3493L646.389 46.2163L650.053 41.3493L646.389 43.5245L642.724 41.3493Z" fill="#8745BA"/>
    <path fill-rule="evenodd" clip-rule="evenodd" d="M646.389 46.2161L650.053 41.3491L646.389 43.5243V46.2161Z" fill="#8745BA"/>
    <g style="mix-blend-mode:overlay" opacity="0.47">
        <path d="M405.84 84.8659L383.676 50.9597L418.166 29.1675L440.339 63.0787L440.126 63.2136L405.84 84.8659ZM384.368 51.1096L405.992 84.1764L439.638 62.9238L418.013 29.852L384.368 51.1096Z" fill="#8745BA"/>
    </g>
    <g style="mix-blend-mode:overlay" opacity="0.47">
        <path d="M405.885 84.6503L383.884 51.0039L418.12 29.3816L440.12 63.028L440.039 63.0779L405.885 84.6503ZM384.149 51.0614L405.944 84.3905L439.853 62.9705L418.061 29.6414L384.149 51.0614Z" fill="#8745BA"/>
    </g>
    <path d="M405.885 84.6503L383.884 51.0039L418.12 29.3816L440.12 63.028L440.039 63.0779L405.885 84.6503ZM384.149 51.0614L405.944 84.3905L439.853 62.9705L418.061 29.6414L384.149 51.0614Z" fill="#8745BA"/>
    <g style="mix-blend-mode:overlay">
        <path d="M412.001 85.5L383 57L412.001 28.5L441 57L412.001 85.5ZM383.719 57L412.001 84.793L440.281 57L412.001 29.2045L383.719 57Z" fill="#8745BA"/>
    </g>
    <path d="M412.001 85.5L383 57L412.001 28.5L441 57L412.001 85.5ZM383.719 57L412.001 84.793L440.281 57L412.001 29.2045L383.719 57Z" fill="#8745BA"/>
    <path d="M412.001 85.5L383 57L412.001 28.5L441 57L412.001 85.5ZM383.719 57L412.001 84.793L440.281 57L412.001 29.2045L383.719 57Z" fill="#8745BA"/>
    <g style="mix-blend-mode:overlay">
        <path fill-rule="evenodd" clip-rule="evenodd" d="M406.342 65.973H419.064L419.823 62.5363H412.272L413.237 58.1509L416.125 57.4552V55.6631L413.64 56.2618L415.112 49.2874H409.89L408.118 57.5564L405.634 58.1509V59.9473L407.711 59.4497L406.342 65.973Z" fill="#8745BA"/>
    </g>
    <path fill-rule="evenodd" clip-rule="evenodd" d="M406.342 65.2765H419.064L419.823 61.8398H412.272L413.237 57.4544L416.125 56.7587V54.9665L413.64 55.5653L415.112 48.5908H409.89L408.118 56.8599L405.634 57.4544V59.2507L407.711 58.7532L406.342 65.2765Z" fill="#8745BA"/>
    <g style="mix-blend-mode:overlay" opacity="0.47">
        <path d="M1154.82 172.166L1134.37 140.937L1166.19 120.865L1186.64 152.099L1186.44 152.223L1154.82 172.166ZM1135.01 141.075L1154.96 171.531L1185.99 151.956L1166.05 121.495L1135.01 141.075Z" fill="#8745BA"/>
    </g>
    <g style="mix-blend-mode:overlay" opacity="0.47">
        <path d="M1154.86 171.967L1134.57 140.977L1166.14 121.062L1186.44 152.052L1186.36 152.098L1154.86 171.967ZM1134.81 141.03L1154.91 171.728L1186.19 151.999L1166.09 121.301L1134.81 141.03Z" fill="#8745BA"/>
    </g>
    <path d="M1154.86 171.967L1134.57 140.977L1166.14 121.062L1186.44 152.052L1186.36 152.098L1154.86 171.967ZM1134.81 141.03L1154.91 171.728L1186.19 151.999L1166.09 121.301L1134.81 141.03Z" fill="#8745BA"/>
    <g style="mix-blend-mode:overlay">
        <path d="M1160.5 172.75L1133.75 146.5L1160.5 120.25L1187.25 146.5L1160.5 172.75ZM1134.41 146.5L1160.5 172.099L1186.59 146.5L1160.5 120.899L1134.41 146.5Z" fill="#8745BA"/>
    </g>
    <path d="M1160.5 172.75L1133.75 146.5L1160.5 120.25L1187.25 146.5L1160.5 172.75ZM1134.41 146.5L1160.5 172.099L1186.59 146.5L1160.5 120.899L1134.41 146.5Z" fill="#8745BA"/>
    <path d="M1160.5 172.75L1133.75 146.5L1160.5 120.25L1187.25 146.5L1160.5 172.75ZM1134.41 146.5L1160.5 172.099L1186.59 146.5L1160.5 120.899L1134.41 146.5Z" fill="#8745BA"/>
    <g style="mix-blend-mode:overlay">
        <path fill-rule="evenodd" clip-rule="evenodd" d="M1155.28 154.765H1167.02L1167.72 151.599H1160.75L1161.64 147.56L1164.3 146.919V145.269L1162.01 145.82L1163.37 139.396H1158.55L1156.92 147.012L1154.63 147.56V149.215L1156.54 148.756L1155.28 154.765Z" fill="#8745BA"/>
    </g>
    <path fill-rule="evenodd" clip-rule="evenodd" d="M1155.28 154.123H1167.02L1167.72 150.958H1160.75L1161.64 146.918L1164.3 146.278V144.627L1162.01 145.179L1163.37 138.755H1158.55L1156.92 146.371L1154.63 146.918V148.573L1156.54 148.115L1155.28 154.123Z" fill="#8745BA"/>
    <g style="mix-blend-mode:overlay" opacity="0.47">
        <path d="M708.84 126.866L686.676 92.9597L721.166 71.1675L743.339 105.079L743.126 105.214L708.84 126.866ZM687.368 93.1096L708.992 126.176L742.638 104.924L721.013 71.852L687.368 93.1096Z" fill="#8745BA"/>
    </g>
    <g style="mix-blend-mode:overlay" opacity="0.47">
        <path d="M708.885 126.65L686.884 93.0039L721.12 71.3816L743.12 105.028L743.039 105.078L708.885 126.65ZM687.149 93.0614L708.944 126.39L742.853 104.971L721.061 71.6414L687.149 93.0614Z" fill="#8745BA"/>
    </g>
    <path d="M708.885 126.65L686.884 93.0039L721.12 71.3816L743.12 105.028L743.039 105.078L708.885 126.65ZM687.149 93.0614L708.944 126.39L742.853 104.971L721.061 71.6414L687.149 93.0614Z" fill="#8745BA"/>
    <g style="mix-blend-mode:overlay">
        <path d="M715.001 127.5L686 99L715.001 70.5L744 99L715.001 127.5ZM686.719 99L715.001 126.793L743.281 99L715.001 71.2045L686.719 99Z" fill="#8745BA"/>
    </g>
    <path d="M715.001 127.5L686 99L715.001 70.5L744 99L715.001 127.5ZM686.719 99L715.001 126.793L743.281 99L715.001 71.2045L686.719 99Z" fill="#8745BA"/>
    <path d="M715.001 127.5L686 99L715.001 70.5L744 99L715.001 127.5ZM686.719 99L715.001 126.793L743.281 99L715.001 71.2045L686.719 99Z" fill="#8745BA"/>
    <g style="mix-blend-mode:overlay">
        <path fill-rule="evenodd" clip-rule="evenodd" d="M709.342 107.973H722.064L722.823 104.536H715.272L716.237 100.151L719.125 99.4552V97.6631L716.64 98.2618L718.112 91.2874H712.89L711.118 99.5564L708.634 100.151V101.947L710.711 101.45L709.342 107.973Z" fill="#8745BA"/>
    </g>
    <path fill-rule="evenodd" clip-rule="evenodd" d="M709.342 107.276H722.064L722.823 103.84H715.272L716.237 99.4544L719.125 98.7587V96.9665L716.64 97.5653L718.112 90.5908H712.89L711.118 98.8599L708.634 99.4544V101.251L710.711 100.753L709.342 107.276Z" fill="#8745BA"/>
    <defs>
        <filter id="filter0_f" x="25.7501" y="32.1575" width="62.1647" height="68.9266" filterUnits="userSpaceOnUse" color-interpolation-filters="sRGB">
            <feFlood flood-opacity="0" result="BackgroundImageFix"/>
            <feBlend mode="normal" in="SourceGraphic" in2="BackgroundImageFix" result="shape"/>
            <feGaussianBlur stdDeviation="12" result="effect1_foregroundBlur"/>
        </filter>
        <filter id="filter1_f" x="25.7501" y="32.1575" width="62.1647" height="68.9266" filterUnits="userSpaceOnUse" color-interpolation-filters="sRGB">
            <feFlood flood-opacity="0" result="BackgroundImageFix"/>
            <feBlend mode="normal" in="SourceGraphic" in2="BackgroundImageFix" result="shape"/>
            <feGaussianBlur stdDeviation="12" result="effect1_foregroundBlur"/>
        </filter>
        <filter id="filter2_f" x="858.145" y="56.0811" width="66.5816" height="75.4662" filterUnits="userSpaceOnUse" color-interpolation-filters="sRGB">
            <feFlood flood-opacity="0" result="BackgroundImageFix"/>
            <feBlend mode="normal" in="SourceGraphic" in2="BackgroundImageFix" result="shape"/>
            <feGaussianBlur stdDeviation="12" result="effect1_foregroundBlur"/>
        </filter>
        <filter id="filter3_f" x="102.49" y="17.6685" width="54.4965" height="60.0718" filterUnits="userSpaceOnUse" color-interpolation-filters="sRGB">
            <feFlood flood-opacity="0" result="BackgroundImageFix"/>
            <feBlend mode="normal" in="SourceGraphic" in2="BackgroundImageFix" result="shape"/>
            <feGaussianBlur stdDeviation="12" result="effect1_foregroundBlur"/>
        </filter>
        <filter id="filter4_f" x="945.49" y="17.6685" width="54.4965" height="60.0718" filterUnits="userSpaceOnUse" color-interpolation-filters="sRGB">
            <feFlood flood-opacity="0" result="BackgroundImageFix"/>
            <feBlend mode="normal" in="SourceGraphic" in2="BackgroundImageFix" result="shape"/>
            <feGaussianBlur stdDeviation="12" result="effect1_foregroundBlur"/>
        </filter>
        <filter id="filter5_f" x="454.49" y="80.6685" width="54.4965" height="60.0718" filterUnits="userSpaceOnUse" color-interpolation-filters="sRGB">
            <feFlood flood-opacity="0" result="BackgroundImageFix"/>
            <feBlend mode="normal" in="SourceGraphic" in2="BackgroundImageFix" result="shape"/>
            <feGaussianBlur stdDeviation="12" result="effect1_foregroundBlur"/>
        </filter>
        <filter id="filter6_f" x="1187.49" y="61.6685" width="54.4965" height="60.0718" filterUnits="userSpaceOnUse" color-interpolation-filters="sRGB">
            <feFlood flood-opacity="0" result="BackgroundImageFix"/>
            <feBlend mode="normal" in="SourceGraphic" in2="BackgroundImageFix" result="shape"/>
            <feGaussianBlur stdDeviation="12" result="effect1_foregroundBlur"/>
        </filter>
    </defs>
</svg>
