<?xml version="1.0" encoding="utf-8"?>
<!-- Generator: Adobe Illustrator 22.0.1, SVG Export Plug-In . SVG Version: 6.00 Build 0)  -->
<svg version="1.1" id="Layer_1" xmlns="http://www.w3.org/2000/svg" xmlns:xlink="http://www.w3.org/1999/xlink" x="0px" y="0px"
	 width="1046px" height="503px" viewBox="0 0 1046 503" style="enable-background:new 0 0 1046 503;" xml:space="preserve">
<style type="text/css">
	.st0{fill:#E0AC0B;}
	.st1{fill:#FFDC4B;}
	.st2{fill:#FCB424;}
	.st3{fill:#FFFFFF;}
	.st4{fill:#49345B;}
</style>
<g>
	<g>
		<g>
			
				<ellipse transform="matrix(0.9088 -0.4171 0.4171 0.9088 -19.9775 205.1379)" class="st0" cx="459.4" cy="148.3" rx="36.5" ry="20.8"/>
		</g>
		<g>
			
				<ellipse transform="matrix(0.9088 -0.4171 0.4171 0.9088 -19.5604 205.0467)" class="st0" cx="459.4" cy="147.3" rx="36.5" ry="20.8"/>
		</g>
		<g>
			
				<ellipse transform="matrix(0.9088 -0.4171 0.4171 0.9088 -19.1432 204.9556)" class="st0" cx="459.4" cy="146.3" rx="36.5" ry="20.8"/>
		</g>
		<g>
			
				<ellipse transform="matrix(0.9088 -0.4171 0.4171 0.9088 -18.7261 204.8644)" class="st0" cx="459.4" cy="145.3" rx="36.5" ry="20.8"/>
		</g>
		<g>
			
				<ellipse transform="matrix(0.9088 -0.4171 0.4171 0.9088 -18.3089 204.7733)" class="st0" cx="459.4" cy="144.3" rx="36.5" ry="20.8"/>
		</g>
		<g>
			
				<ellipse transform="matrix(0.9088 -0.4171 0.4171 0.9088 -17.8918 204.6821)" class="st0" cx="459.4" cy="143.3" rx="36.5" ry="20.8"/>
		</g>
	</g>
	
		<ellipse transform="matrix(0.9088 -0.4171 0.4171 0.9088 -17.8918 204.6821)" class="st1" cx="459.4" cy="143.3" rx="36.5" ry="20.8"/>
</g>
<g>
	<g>
		<g>
			
				<ellipse transform="matrix(0.9088 -0.4171 0.4171 0.9088 28.2428 188.1033)" class="st0" cx="444.5" cy="29.4" rx="36.5" ry="20.8"/>
		</g>
		<g>
			
				<ellipse transform="matrix(0.9088 -0.4171 0.4171 0.9088 28.6599 188.0121)" class="st0" cx="444.5" cy="28.4" rx="36.5" ry="20.8"/>
		</g>
		<g>
			
				<ellipse transform="matrix(0.9088 -0.4171 0.4171 0.9088 29.0771 187.9209)" class="st0" cx="444.5" cy="27.4" rx="36.5" ry="20.8"/>
		</g>
		<g>
			
				<ellipse transform="matrix(0.9088 -0.4171 0.4171 0.9088 29.4942 187.8298)" class="st0" cx="444.5" cy="26.4" rx="36.5" ry="20.8"/>
		</g>
		<g>
			
				<ellipse transform="matrix(0.9088 -0.4171 0.4171 0.9088 29.9114 187.7386)" class="st0" cx="444.5" cy="25.4" rx="36.5" ry="20.8"/>
		</g>
		<g>
			
				<ellipse transform="matrix(0.9088 -0.4171 0.4171 0.9088 30.3285 187.6475)" class="st0" cx="444.5" cy="24.4" rx="36.5" ry="20.8"/>
		</g>
	</g>
	
		<ellipse transform="matrix(0.9088 -0.4171 0.4171 0.9088 30.3285 187.6475)" class="st1" cx="444.5" cy="24.4" rx="36.5" ry="20.8"/>
</g>
<g>
	<g>
		<g>
			
				<ellipse transform="matrix(0.6035 -0.7974 0.7974 0.6035 67.6632 338.1966)" class="st0" cx="373.9" cy="101.1" rx="20.8" ry="36.5"/>
		</g>
		<g>
			
				<ellipse transform="matrix(0.6035 -0.7974 0.7974 0.6035 68.4606 337.8001)" class="st0" cx="373.9" cy="100.1" rx="20.8" ry="36.5"/>
		</g>
		<g>
			
				<ellipse transform="matrix(0.6035 -0.7974 0.7974 0.6035 69.258 337.4036)" class="st0" cx="373.9" cy="99.1" rx="20.8" ry="36.5"/>
		</g>
		<g>
			
				<ellipse transform="matrix(0.6035 -0.7974 0.7974 0.6035 70.0553 337.0071)" class="st0" cx="373.9" cy="98.1" rx="20.8" ry="36.5"/>
		</g>
		<g>
			
				<ellipse transform="matrix(0.6035 -0.7974 0.7974 0.6035 70.8527 336.6106)" class="st0" cx="373.9" cy="97.1" rx="20.8" ry="36.5"/>
		</g>
		<g>
			
				<ellipse transform="matrix(0.6035 -0.7974 0.7974 0.6035 71.6501 336.2141)" class="st0" cx="373.9" cy="96.1" rx="20.8" ry="36.5"/>
		</g>
	</g>
	
		<ellipse transform="matrix(0.6035 -0.7974 0.7974 0.6035 71.6501 336.2141)" class="st1" cx="373.9" cy="96.1" rx="20.8" ry="36.5"/>
</g>
<path class="st1" d="M1019.9,502.9H486.1c-14.4,0-26.1-11.7-26.1-26.1V235.4c0-14.4,11.7-26.1,26.1-26.1h533.8
	c14.4,0,26.1,11.7,26.1,26.1v241.4C1046,491.2,1034.3,502.9,1019.9,502.9z"/>
<path class="st2" d="M695.7,209.4L459,403.8v61.9c0,20.5,11.7,37.1,26.1,37.1h72.7L915,209.4H695.7z"/>
<g>
	<path class="st3" d="M0,131.8h42.4c24.3,0,40.7,1.1,49.2,3.2c12.1,3,22.1,9.1,29.8,18.4c7.7,9.3,11.6,21,11.6,35.1
		c0,14.2-3.8,25.9-11.3,35.1c-7.5,9.2-17.9,15.4-31.1,18.6c-9.6,2.3-27.7,3.5-54.1,3.5H21.3v98.9H0V131.8z M21.3,152.6v72.2l36,0.4
		c14.6,0,25.2-1.3,32-4c6.7-2.6,12.1-6.9,15.9-12.8c3.9-5.9,5.8-12.5,5.8-19.8c0-7.1-1.9-13.6-5.8-19.6c-3.9-5.9-8.9-10.1-15.3-12.6
		c-6.3-2.5-16.7-3.8-31-3.8H21.3z"/>
	<path class="st3" d="M329,187.2v157.4h-20v-27c-8.5,10.3-18,18.1-28.6,23.3c-10.6,5.2-22.1,7.8-34.6,7.8
		c-22.3,0-41.3-8.1-57.1-24.2c-15.8-16.2-23.6-35.8-23.6-58.9c0-22.7,8-42,23.9-58.1c15.9-16.1,35.1-24.2,57.4-24.2
		c12.9,0,24.6,2.7,35.1,8.2c10.5,5.5,19.6,13.7,27.6,24.7v-28.9H329z M248,202.7c-11.3,0-21.7,2.8-31.2,8.3
		c-9.5,5.5-17.1,13.3-22.8,23.3c-5.6,10-8.4,20.6-8.4,31.8c0,11.1,2.8,21.7,8.5,31.8c5.7,10.1,13.3,18,22.9,23.6
		c9.6,5.6,19.9,8.5,30.8,8.5c11.1,0,21.6-2.8,31.5-8.4c9.9-5.6,17.6-13.1,22.9-22.7c5.3-9.5,8-20.3,8-32.2c0-18.2-6-33.4-18-45.7
		C280.3,208.8,265.6,202.7,248,202.7z"/>
	<path class="st3" d="M357.6,187.2H379l54.1,121.2l52.5-121.2h21.6l-93.9,214.9h-21.4l30.3-69.5L357.6,187.2z"/>
</g>
<path class="st4" d="M710.4,289.7l-16.5,15.6c-11.9-11.7-24.9-20.5-39-26.5c-14.1-6-27.9-9-41.3-9c-16.7,0-32.6,4.1-47.7,12.3
	c-15.1,8.2-26.8,19.3-35.1,33.3c-8.3,14-12.4,28.9-12.4,44.5c0,16,4.3,31.2,12.9,45.6c8.6,14.4,20.4,25.7,35.6,34
	c15.1,8.2,31.7,12.4,49.8,12.4c21.9,0,40.4-6.2,55.5-18.5c15.1-12.3,24.1-28.4,26.9-48h-67.8v-20.5H723c-0.2,32.9-10,59-29.3,78.3
	c-19.3,19.3-45.2,29-77.6,29c-39.3,0-70.5-13.4-93.4-40.2c-17.6-20.6-26.5-44.5-26.5-71.6c0-20.2,5.1-38.9,15.2-56.3
	c10.1-17.4,24-30.9,41.7-40.7c17.6-9.8,37.6-14.7,59.9-14.7c18,0,35,3.3,50.9,9.8C679.7,264.9,695.3,275.4,710.4,289.7z"/>
<path class="st4" d="M892.6,414.6l17.1,9c-5.6,11-12.1,19.9-19.4,26.6c-7.3,6.8-15.6,11.9-24.8,15.4c-9.2,3.5-19.5,5.3-31.1,5.3
	c-25.7,0-45.7-8.4-60.2-25.2c-14.5-16.8-21.7-35.8-21.7-57.1c0-20,6.1-37.8,18.4-53.4c15.5-19.9,36.3-29.8,62.4-29.8
	c26.8,0,48.3,10.2,64.3,30.5c11.4,14.4,17.2,32.3,17.4,53.8H773.3c0.4,18.3,6.2,33.3,17.5,45c11.3,11.7,25.2,17.5,41.9,17.5
	c8,0,15.8-1.4,23.4-4.2c7.6-2.8,14-6.5,19.3-11.1S886.5,424.8,892.6,414.6z M892.6,372.2c-2.7-10.8-6.6-19.4-11.8-25.9
	c-5.2-6.5-12-11.7-20.5-15.6c-8.5-4-17.4-5.9-26.8-5.9c-15.4,0-28.7,5-39.8,14.9c-8.1,7.2-14.2,18.1-18.4,32.5H892.6z"/>
<path class="st4" d="M970.3,251h20.2v58.4h32.1v17.5h-32.1v139.9h-20.2V326.9h-27.6v-17.5h27.6V251z"/>
</svg>
