<svg xmlns="http://www.w3.org/2000/svg" xmlns:xlink="http://www.w3.org/1999/xlink">
    <defs>
        <symbol id="arrow" viewBox="0 0 7 4">
            <path d="M3.5,3.7c-0.1,0-0.2,0-0.3-0.1l-3-2.5C0.1,1.1,0,0.9,0,0.8c0-0.1,0-0.3,0.1-0.4c0.1-0.1,0.2-0.2,0.3-0.2
                c0.1,0,0.3,0,0.4,0.1l2.7,2.2l2.7-2.2c0.1,0,0.1-0.1,0.2-0.1c0.1,0,0.1,0,0.2,0c0.1,0,0.1,0,0.2,0.1c0.1,0,0.1,0.1,0.1,0.1
                C6.9,0.6,7,0.6,7,0.7c0,0.1,0,0.1,0,0.2S7,1,6.9,1.1c0,0.1-0.1,0.1-0.1,0.2l-3,2.4C3.7,3.7,3.6,3.8,3.5,3.7z"/>
        </symbol>
        <symbol id="ban" viewBox="0 0 182 182" fill="none">
            <circle cx="91" cy="91" r="86" stroke="#9A4FD5" stroke-width="10"/>
            <path d="M132.776 125.376C132.776 126.352 132.485 127.307 131.941 128.119C131.397 128.931 130.624 129.564 129.719 129.938C128.814 130.311 127.818 130.409 126.857 130.219C125.897 130.028 125.014 129.558 124.322 128.867C123.629 128.177 123.157 127.297 122.966 126.339C122.775 125.381 122.873 124.388 123.248 123.486C123.623 122.584 124.258 121.813 125.072 121.27C125.887 120.728 126.844 120.438 127.823 120.438C129.136 120.441 130.394 120.962 131.322 121.888C132.25 122.813 132.773 124.067 132.776 125.376Z" fill="#FFF2D7"/>
            <path d="M20.042 59.6738H161.769V135C161.769 138.866 158.635 142 154.769 142H27.042C23.176 142 20.042 138.866 20.042 135V59.6738Z" fill="#FDEA87"/>
            <rect x="27.2949" y="60.6738" width="127.221" height="70.9475" fill="white" stroke="#21163F" stroke-width="2"/>
            <path d="M20 52C20 47.5817 23.5817 44 28 44H154C158.418 44 162 47.5817 162 52V60H20V52Z" fill="white"/>
            <rect x="20" y="44" width="141.811" height="97.0002" rx="7" stroke="#21163F" stroke-width="2"/>
            <rect x="19" y="59.6738" width="142.769" height="2.08421" fill="#21163F"/>
            <circle cx="31.4894" cy="51.9283" r="2.9762" fill="#9A4FD5"/>
            <circle cx="42.2037" cy="51.9283" r="2.9762" fill="#9A4FD5"/>
            <circle cx="52.9176" cy="51.9283" r="2.9762" fill="#9A4FD5"/>
            <rect x="98.751" y="51.3335" width="46.4287" height="2.38096" rx="1.19048" fill="#9A4FD5"/>
            <path d="M91.8252 64.9803C76.5005 64.3506 78.416 82.6096 78.416 82.6096L95.6564 76.3134L103.957 82.6096C103.957 82.6096 107.15 65.6099 91.8252 64.9803Z" fill="#434757" stroke="#434757"/>
            <path d="M108.843 106.551C108.227 106.154 107.567 105.823 106.877 105.566L101.159 103.242L97.1297 100.647C97.0903 100.623 97.049 100.601 97.0061 100.582V98.8952C98.5367 98.1508 99.858 97.0535 100.856 95.6984C101.853 94.3432 102.497 92.7712 102.731 91.1185C103.621 91.0487 104.473 90.7368 105.191 90.2182C105.909 89.6996 106.463 88.9951 106.79 88.1847C107.118 87.3743 107.207 86.4905 107.045 85.6336C106.884 84.7767 106.48 83.9811 105.879 83.337V77.3705C105.875 73.7516 104.399 70.2821 101.776 67.7232C99.153 65.1643 95.5964 63.725 91.8868 63.7212H90.807C87.0969 63.7244 83.5397 65.1634 80.9161 67.7223C78.2924 70.2813 76.8167 73.7512 76.8127 77.3705V83.2756C76.1912 83.9127 75.7672 84.7085 75.59 85.5708C75.4127 86.4332 75.4893 87.3269 75.811 88.1485C76.1327 88.9701 76.6862 89.6861 77.4077 90.2137C78.1291 90.7412 78.9889 91.0587 79.8876 91.1294C80.1235 92.7815 80.7687 94.3525 81.7673 95.7066C82.7658 97.0606 84.0877 98.1567 85.6185 98.9001V100.467L81.4182 103.177C81.3599 103.189 81.3028 103.207 81.2477 103.229L75.4884 105.566C74.13 106.086 72.8887 106.86 71.8342 107.845C70.1763 109.374 68.1997 112.126 68.1997 116.552V124.443C68.1995 124.571 68.2254 124.699 68.2758 124.818C68.3262 124.937 68.4002 125.045 68.4934 125.136C68.5867 125.227 68.6975 125.3 68.8194 125.349C68.9414 125.398 69.0721 125.424 69.2041 125.424H81.0636C81.1984 125.428 81.3328 125.406 81.4587 125.359C81.5846 125.312 81.6995 125.241 81.7965 125.149C81.8935 125.058 81.9707 124.948 82.0234 124.827C82.0761 124.706 82.1032 124.576 82.1032 124.445C82.1032 124.313 82.0761 124.183 82.0234 124.062C81.9707 123.941 81.8935 123.831 81.7965 123.74C81.6995 123.648 81.5846 123.577 81.4587 123.53C81.3328 123.483 81.1984 123.461 81.0636 123.465H77.9752V116.192C77.9752 115.933 77.8694 115.683 77.681 115.5C77.4927 115.316 77.2372 115.213 76.9709 115.213C76.7045 115.213 76.449 115.316 76.2607 115.5C76.0723 115.683 75.9665 115.933 75.9665 116.192V123.464H70.2084V116.552C70.2084 109.494 75.9331 107.49 76.1728 107.409C76.1963 107.402 76.2185 107.394 76.2395 107.385L80.9698 105.457C81.0242 105.429 81.083 105.409 81.1439 105.398C81.1924 105.368 81.2453 105.345 81.3008 105.331C81.3514 105.301 81.4064 105.278 81.4639 105.264C81.5076 105.237 81.555 105.217 81.6047 105.203C81.6999 105.107 81.8279 105.049 81.9642 105.04L82.1508 104.949C82.2743 104.875 82.409 104.802 82.5436 104.732C82.6373 104.686 82.7338 104.645 82.8327 104.611C82.864 104.586 82.8985 104.565 82.9352 104.548L85.6185 102.82V102.969C85.6182 103.07 85.634 103.17 85.6654 103.266C85.6094 103.439 85.6037 103.624 85.6488 103.8C85.694 103.976 85.7882 104.136 85.9211 104.263L89.7508 107.895C89.8034 107.937 89.85 107.985 89.8892 108.039C90.0444 108.166 90.1924 108.301 90.3327 108.443C90.6902 108.706 91.0249 108.996 91.3333 109.312L91.4643 109.406C91.7113 109.139 91.9584 108.864 92.2055 108.588C92.2907 108.489 92.3772 108.396 92.4637 108.307C92.4927 108.254 92.5307 108.207 92.5761 108.166C92.6224 108.067 92.6981 107.983 92.7935 107.925L92.7787 107.914L96.7368 103.899C96.8414 103.793 96.9202 103.666 96.9672 103.526C97.0143 103.387 97.0284 103.238 97.0086 103.093C97.0138 103.053 97.0167 103.012 97.0173 102.972V102.92L99.5177 104.53C99.5409 104.539 99.5635 104.549 99.5856 104.561C99.6223 104.581 99.6563 104.606 99.6869 104.635C99.7073 104.644 99.7267 104.654 99.745 104.667C99.8213 104.693 99.8914 104.734 99.9513 104.787C99.9918 104.799 100.031 104.814 100.069 104.833C100.098 104.848 100.125 104.866 100.15 104.887C100.173 104.898 100.194 104.909 100.216 104.922C100.301 104.946 100.381 104.987 100.449 105.043C100.48 105.056 100.51 105.068 100.538 105.082L100.57 105.102C100.61 105.113 100.649 105.128 100.686 105.146C100.714 105.161 100.74 105.178 100.765 105.197C100.781 105.202 100.796 105.209 100.81 105.217L100.828 105.228C100.871 105.241 100.913 105.257 100.952 105.278C100.962 105.278 100.969 105.29 100.979 105.296H100.99C101.061 105.312 101.127 105.343 101.184 105.387C101.227 105.402 101.269 105.421 101.308 105.445H101.315C101.358 105.456 101.4 105.472 101.439 105.495C101.487 105.507 101.533 105.525 101.577 105.549V105.54L106.126 107.39L106.189 107.413C106.735 107.619 107.257 107.883 107.745 108.2C109.758 109.474 112.157 111.959 112.157 116.556V123.469H106.4V116.192C106.391 115.939 106.281 115.698 106.094 115.522C105.907 115.346 105.656 115.247 105.396 115.247C105.136 115.247 104.886 115.346 104.699 115.522C104.511 115.698 104.402 115.939 104.392 116.192V123.464H96.407C96.0364 123.47 95.6658 123.492 95.2951 123.464H95.0617C95.0141 123.47 94.9659 123.47 94.9184 123.464H90.004C89.4382 123.565 88.8675 123.528 88.2819 123.489C87.5617 123.441 86.8427 123.504 86.1225 123.465H84.2089C83.9425 123.465 83.6871 123.569 83.4987 123.752C83.3104 123.936 83.2045 124.185 83.2045 124.445C83.2045 124.705 83.3104 124.954 83.4987 125.138C83.6871 125.322 83.9425 125.425 84.2089 125.425H113.167C113.434 125.424 113.689 125.32 113.878 125.136C114.066 124.952 114.172 124.703 114.172 124.443V116.552C114.174 110.785 110.837 107.812 108.843 106.551ZM105.12 86.4776C105.119 87.1116 104.89 87.7251 104.472 88.211C104.055 88.6968 103.476 89.0243 102.836 89.1361V83.8179C103.476 83.9302 104.055 84.2579 104.472 84.744C104.889 85.23 105.119 85.8435 105.12 86.4776ZM79.7949 89.1361C79.1546 89.0252 78.5748 88.698 78.157 88.2118C77.7393 87.7256 77.5104 87.1114 77.5104 86.477C77.5104 85.8426 77.7393 85.2284 78.157 84.7422C78.5748 84.256 79.1546 83.9288 79.7949 83.8179V89.1361ZM80.798 80.8726C80.7635 80.8726 80.7301 80.8726 80.6955 80.8726H80.6646C80.6412 80.8726 80.6189 80.8726 80.5967 80.8834C80.5744 80.8943 80.5683 80.8906 80.5534 80.8943C80.5355 80.8975 80.5177 80.902 80.5003 80.9075L80.4521 80.9244L80.4077 80.94L80.3545 80.9654L80.32 80.981L80.2693 81.0111L80.2372 81.0304C80.2211 81.0401 80.2063 81.0521 80.1915 81.063L80.1606 81.0859C80.1466 81.0966 80.1334 81.1083 80.1211 81.1208C80.1098 81.1298 80.0991 81.1395 80.0889 81.1497C80.0768 81.1612 80.0652 81.1733 80.0543 81.1859L80.0235 81.2184L79.9938 81.257L79.9654 81.2944C79.9569 81.3068 79.949 81.3197 79.9419 81.3329C79.9326 81.3465 79.9239 81.3606 79.916 81.3751C79.9087 81.3876 79.9021 81.4005 79.8962 81.4137L79.8727 81.4607L79.8579 81.4992L79.8394 81.5498L79.8283 81.5908C79.8283 81.6077 79.8184 81.6258 79.8147 81.6438C79.811 81.6619 79.8147 81.6728 79.8073 81.6872C79.7999 81.7017 79.8073 81.7222 79.7986 81.7402C79.79 81.7583 79.7986 81.7716 79.7986 81.786C79.7986 81.8005 79.7986 81.815 79.7986 81.8282C79.4672 81.8656 79.1405 81.9363 78.8239 82.0391V77.3705C78.8272 74.2711 80.0907 71.2997 82.3373 69.1081C84.5839 66.9165 87.6299 65.6839 90.807 65.6807H91.8892C95.0663 65.6839 98.1124 66.9165 100.359 69.1081C102.606 71.2997 103.869 74.2711 103.872 77.3705V82.0584C103.537 81.9475 103.19 81.8739 102.838 81.8391V81.8258C102.838 81.8053 102.838 81.7836 102.838 81.7619C102.838 81.7402 102.838 81.7366 102.838 81.7234C102.838 81.7101 102.838 81.686 102.83 81.6679C102.821 81.6499 102.822 81.6366 102.819 81.6221L102.807 81.5764L102.789 81.5245C102.789 81.5125 102.78 81.5004 102.775 81.4884C102.77 81.4763 102.759 81.4522 102.752 81.4354C102.744 81.4185 102.741 81.4137 102.736 81.4028L102.706 81.3522C102.7 81.3413 102.694 81.3309 102.686 81.3209C102.676 81.3052 102.665 81.2907 102.654 81.2763C102.646 81.2645 102.638 81.2532 102.628 81.2425L102.596 81.2052C102.586 81.1931 102.575 81.1823 102.564 81.1702L102.532 81.1401L102.492 81.1051L102.459 81.0786L102.416 81.0485L102.379 81.0244L102.334 80.9979L102.29 80.975L102.248 80.9557C102.23 80.948 102.211 80.9411 102.192 80.9352L102.156 80.922C102.135 80.9147 102.114 80.9099 102.093 80.9039L102.066 80.8967C98.1365 80.0254 96.9505 75.1964 96.9394 75.1494C96.8971 74.9655 96.8014 74.7974 96.6636 74.6652C96.5259 74.5331 96.352 74.4425 96.1628 74.4043C95.9736 74.3662 95.7771 74.3821 95.5969 74.4501C95.4167 74.5181 95.2605 74.6354 95.1469 74.7879C90.6798 80.8135 80.9698 80.8689 80.8166 80.8689L80.798 80.8726ZM95.0073 102.824L91.2691 106.61L87.6062 103.129C87.6161 103.075 87.6211 103.02 87.621 102.965V99.634C88.4904 99.8568 89.3856 99.9694 90.2845 99.969H92.3426C93.2419 99.9695 94.1375 99.8569 95.0073 99.634V102.824ZM92.3451 98.0155H90.2832C88.0336 98.0126 85.8769 97.1396 84.2861 95.5877C82.6954 94.0359 81.8004 91.9321 81.7975 89.7375V82.7984C84.3658 82.6441 91.1863 81.8101 95.5743 77.3295C96.3316 79.0673 97.8993 81.6041 100.828 82.5899V89.7375C100.825 91.9321 99.9305 94.0359 98.3397 95.5877C96.749 97.1396 94.5923 98.0126 92.3426 98.0155H92.3451Z" fill="#21163F"/>
            <rect x="151.787" y="24.8154" width="10.5507" height="178.142" transform="rotate(45 151.787 24.8154)" fill="#9A4FD5"/>
        </symbol>
        <symbol id="block" viewBox="0 0 24 24">
            <path d="M12,2C6.5,2,2,6.5,2,12s4.5,10,10,10s10-4.5,10-10S17.5,2,12,2z M4,12c0-4.4,3.6-8,8-8c1.8,0,3.5,0.6,4.9,1.7L5.7,16.9
                C4.6,15.5,4,13.8,4,12z M12,20c-1.8,0-3.5-0.6-4.9-1.7L18.3,7.1C19.4,8.5,20,10.2,20,12C20,16.4,16.4,20,12,20z"/>
        </symbol>
        <symbol id="chat" viewBox="0 0 24 24">
            <path d="M20 2H4C2.9 2 2 2.9 2 4V20.3101C2 20.9337 2.754 21.246 3.19497 20.805L6 18H20C21.1 18 22 17.1 22 16V4C22 2.9 21.1 2 20 2Z"/>
            <rect x="6" y="7" width="12" height="2" rx="1" fill="white"/>
            <rect x="6" y="11" width="12" height="2" rx="1" fill="white"/>
        </symbol>
        <symbol id="dialog" viewBox="0 0 24 24">
            <path d="M3,22c-0.3,0-0.5-0.1-0.7-0.3c-0.3-0.3-0.4-0.7-0.2-1l1.8-5.3C3.3,14.2,3,12.8,3,11.5c0-1.8,0.5-3.5,1.4-5
                C5.3,5,6.7,3.8,8.3,3c1.3-0.7,2.8-1,4.2-1c0,0,0,0,0,0H13c2.4,0.1,4.6,1.1,6.2,2.8c1.7,1.7,2.6,3.8,2.8,6.2l0,0.6
                c0,1.5-0.3,2.9-1,4.3c-0.8,1.6-2,2.9-3.5,3.8c-1.5,0.9-3.2,1.4-5,1.4c0,0,0,0,0,0c-1.3,0-2.6-0.3-3.8-0.8l-5.3,1.8
                C3.2,22,3.1,22,3,22z M12.5,4c-1.2,0-2.3,0.3-3.3,0.8c-1.3,0.6-2.3,1.6-3,2.8C5.4,8.7,5,10.1,5,11.5c0,1.2,0.3,2.3,0.8,3.3
                c0.1,0.2,0.1,0.5,0.1,0.8l-1.3,3.8l3.8-1.3c0.3-0.1,0.5-0.1,0.8,0.1c1,0.5,2.2,0.8,3.3,0.8c1.4,0,2.8-0.4,4-1.1
                c1.2-0.7,2.1-1.8,2.8-3c0.5-1,0.8-2.2,0.8-3.4c0,0,0,0,0,0V11c-0.1-1.8-0.9-3.5-2.2-4.8c-1.3-1.3-3-2.1-4.9-2.2L12.5,4
                C12.5,4,12.5,4,12.5,4z"/>
        </symbol>
        <symbol id="equals" viewBox="0 0 17 9">
            <path d="M0 9H17V7H0V9Z"/>
            <path d="M0 0V2H17V0H0Z"/>
        </symbol>
        <symbol id="eye-off" viewBox="0 0 24 24">
            <path d="M12 13.25C12.6904 13.25 13.25 12.6904 13.25 12C13.25 11.3096 12.6904 10.75 12 10.75C11.3096 10.75 10.75 11.3096 10.75 12C10.75 12.6904 11.3096 13.25 12 13.25Z" fill="#B6B4C1"/>
            <path d="M14.7417 17.0998L13.6667 15.9831L13.6084 15.9248L12.5501 14.8664C12.3821 14.8959 12.2122 14.9126 12.0417 14.9164C11.6552 14.922 11.2714 14.8506 10.9128 14.7065C10.5541 14.5624 10.2276 14.3484 9.95233 14.077C9.67707 13.8057 9.4585 13.4823 9.30932 13.1256C9.16015 12.769 9.08335 12.3863 9.08338 11.9998C9.08725 11.8293 9.10396 11.6594 9.13339 11.4914L7.46672 9.82477L6.16672 8.55811C5.22616 9.44433 4.42039 10.4635 3.77505 11.5831C3.70191 11.7098 3.66341 11.8535 3.66341 11.9998C3.66341 12.1461 3.70191 12.2898 3.77505 12.4164C4.30005 13.3248 7.10839 17.8331 12.0167 17.8331H12.2251C13.148 17.8057 14.059 17.6168 14.9167 17.2748L14.7417 17.0998Z" fill="#B6B4C1"/>
            <path d="M9.15833 6.79997L11.4917 9.13331C11.6596 9.10389 11.8295 9.08717 12 9.08331C12.7735 9.08331 13.5154 9.3906 14.0624 9.93758C14.6094 10.4846 14.9167 11.2264 14.9167 12C14.9128 12.1704 14.8961 12.3404 14.8667 12.5083L17.1 14.7416L17.8 15.4416C18.7524 14.5577 19.5695 13.5385 20.225 12.4166C20.2981 12.29 20.3366 12.1463 20.3366 12C20.3366 11.8537 20.2981 11.71 20.225 11.5833C19.6917 10.6583 16.7583 6.01664 11.775 6.16664C10.852 6.19402 9.94103 6.38299 9.08333 6.72497L9.15833 6.79997Z" fill="#B6B4C1"/>
            <path d="M19.2583 18.075L18.1749 17L16.5083 15.3333L8.57495 7.39166L7.34995 6.16666L5.92495 4.74166C5.84725 4.66396 5.75501 4.60233 5.65349 4.56028C5.55197 4.51823 5.44316 4.49658 5.33328 4.49658C5.2234 4.49658 5.11459 4.51823 5.01307 4.56028C4.91155 4.60233 4.81931 4.66396 4.74161 4.74166C4.58469 4.89858 4.49654 5.11141 4.49654 5.33333C4.49654 5.55524 4.58469 5.76807 4.74161 5.92499L6.60828 7.83333L8.06661 9.24999L14.1583 15.3333L14.2166 15.3917L15.3333 16.5083L15.8249 17L18.0749 19.2583C18.1524 19.3364 18.2446 19.3984 18.3461 19.4407C18.4477 19.483 18.5566 19.5048 18.6666 19.5048C18.7766 19.5048 18.8855 19.483 18.9871 19.4407C19.0886 19.3984 19.1808 19.3364 19.2583 19.2583C19.3364 19.1809 19.3984 19.0887 19.4407 18.9871C19.483 18.8856 19.5048 18.7767 19.5048 18.6667C19.5048 18.5566 19.483 18.4477 19.4407 18.3462C19.3984 18.2446 19.3364 18.1525 19.2583 18.075Z" fill="#B6B4C1"/>
        </symbol>
        <symbol id="eye" viewBox="0 0 24 24">
            <path d="M12 13.25C12.6904 13.25 13.25 12.6904 13.25 12C13.25 11.3096 12.6904 10.75 12 10.75C11.3096 10.75 10.75 11.3096 10.75 12C10.75 12.6904 11.3096 13.25 12 13.25Z" fill="#B6B4C1"/>
            <path d="M20.2251 11.5833C19.6917 10.6583 16.7584 6.01664 11.7751 6.16664C7.16672 6.28331 4.50005 10.3333 3.77505 11.5833C3.70191 11.71 3.66341 11.8537 3.66341 12C3.66341 12.1463 3.70191 12.29 3.77505 12.4166C4.30005 13.325 7.10839 17.8333 12.0167 17.8333H12.2251C16.8334 17.7166 19.5084 13.6666 20.2251 12.4166C20.2982 12.29 20.3367 12.1463 20.3367 12C20.3367 11.8537 20.2982 11.71 20.2251 11.5833ZM12.0001 14.9166C11.4232 14.9166 10.8593 14.7456 10.3796 14.4251C9.9 14.1046 9.52616 13.6491 9.3054 13.1161C9.08465 12.5832 9.02689 11.9967 9.13943 11.431C9.25197 10.8652 9.52975 10.3455 9.93766 9.93758C10.3456 9.52968 10.8653 9.25189 11.431 9.13935C11.9968 9.02681 12.5833 9.08457 13.1162 9.30533C13.6492 9.52608 14.1047 9.89992 14.4252 10.3796C14.7457 10.8592 14.9167 11.4231 14.9167 12C14.9167 12.7735 14.6094 13.5154 14.0624 14.0624C13.5155 14.6093 12.7736 14.9166 12.0001 14.9166Z" fill="#B6B4C1"/>
        </symbol>
        <symbol id="google-authenticator" viewBox="0 0 24 24">
            <path d="M21 11.7212V11.5937C20.9961 11.4968 20.9549 11.4053 20.885 11.3382C20.8151 11.271 20.7219 11.2336 20.625 11.2337H12C11.8011 11.2337 11.6103 11.3127 11.4697 11.4534C11.329 11.594 11.25 11.7848 11.25 11.9837C11.25 12.0831 11.2105 12.1785 11.1402 12.2488C11.0698 12.3192 10.9744 12.3587 10.875 12.3587C10.7755 12.3587 10.6802 12.3192 10.6098 12.2488C10.5395 12.1785 10.5 12.0831 10.5 11.9837C10.5 11.5859 10.658 11.2043 10.9393 10.923C11.2206 10.6417 11.6022 10.4837 12 10.4837H13.83C13.9049 10.4841 13.9783 10.4621 14.0406 10.4205C14.1029 10.3788 14.1513 10.3195 14.1796 10.25C14.2078 10.1806 14.2146 10.1043 14.1991 10.031C14.1836 9.95768 14.1465 9.89069 14.0925 9.83868C13.6213 9.37627 13.0107 9.0822 12.3554 9.00206C11.7001 8.92193 11.0366 9.06019 10.4679 9.39543C9.89913 9.73067 9.45685 10.2442 9.20959 10.8563C8.96233 11.4684 8.9239 12.1451 9.10025 12.7813C9.27661 13.4175 9.65791 13.9777 10.185 14.3752C10.7122 14.7727 11.3557 14.9852 12.0159 14.9798C12.676 14.9744 13.316 14.7513 13.8365 14.3452C14.3571 13.9391 14.7291 13.3727 14.895 12.7337H16.4325C16.2693 13.6993 15.7955 14.5853 15.0831 15.2572C14.3707 15.9292 13.4586 16.3504 12.4851 16.4569C11.5116 16.5635 10.53 16.3496 9.68906 15.8477C8.84817 15.3458 8.19396 14.5832 7.82571 13.6758C7.45746 12.7684 7.39527 11.7656 7.64858 10.8197C7.90189 9.8737 8.45687 9.03619 9.22931 8.43422C10.0017 7.83225 10.9495 7.49869 11.9286 7.48416C12.9078 7.46962 13.865 7.77491 14.655 8.35368C14.7229 8.41178 14.8094 8.44371 14.8987 8.44371C14.9881 8.44371 15.0746 8.41178 15.1425 8.35368L17.8125 5.68368C17.8512 5.64853 17.8821 5.60569 17.9032 5.55791C17.9243 5.51012 17.9353 5.45844 17.9353 5.40618C17.9353 5.35393 17.9243 5.30225 17.9032 5.25446C17.8821 5.20667 17.8512 5.16383 17.8125 5.12868C16.2468 3.80425 14.2757 3.05424 12.2256 3.00283C10.1755 2.95142 8.16937 3.60168 6.53925 4.84597C4.90913 6.09026 3.75284 7.85394 3.26181 9.84503C2.77078 11.8361 2.97446 13.9352 3.83912 15.7947C4.70378 17.6543 6.17758 19.1627 8.01651 20.0704C9.85543 20.9781 11.9492 21.2305 13.9512 20.7859C15.9531 20.3414 17.7432 19.2264 19.0251 17.6257C20.307 16.0249 21.0037 14.0344 21 11.9837C21 11.8937 21 11.8112 21 11.7212ZM12 4.48368C12.1483 4.48368 12.2933 4.52767 12.4167 4.61008C12.54 4.69249 12.6361 4.80963 12.6929 4.94667C12.7497 5.08371 12.7645 5.23451 12.7356 5.38C12.7066 5.52549 12.6352 5.65912 12.5303 5.76401C12.4254 5.8689 12.2918 5.94033 12.1463 5.96927C12.0008 5.99821 11.85 5.98336 11.713 5.92659C11.5759 5.86983 11.4588 5.7737 11.3764 5.65036C11.294 5.52702 11.25 5.38202 11.25 5.23368C11.25 5.03477 11.329 4.844 11.4697 4.70335C11.6103 4.5627 11.8011 4.48368 12 4.48368ZM6.69749 6.68118C6.83801 6.54149 7.0281 6.46309 7.22624 6.46309C7.42438 6.46309 7.61447 6.54149 7.75499 6.68118C7.86033 6.78589 7.9322 6.91952 7.9615 7.06513C7.9908 7.21074 7.97621 7.36176 7.91958 7.49907C7.86294 7.63637 7.76682 7.75377 7.64338 7.83638C7.51995 7.91899 7.37477 7.96309 7.22624 7.96309C7.07771 7.96309 6.93253 7.91899 6.8091 7.83638C6.68567 7.75377 6.58954 7.63637 6.53291 7.49907C6.47627 7.36176 6.46168 7.21074 6.49098 7.06513C6.52028 6.91952 6.59216 6.78589 6.69749 6.68118ZM5.24999 12.7337C5.10166 12.7337 4.95665 12.6897 4.83331 12.6073C4.70998 12.5249 4.61385 12.4077 4.55708 12.2707C4.50032 12.1336 4.48546 11.9828 4.5144 11.8374C4.54334 11.6919 4.61477 11.5582 4.71966 11.4534C4.82455 11.3485 4.95819 11.277 5.10367 11.2481C5.24916 11.2192 5.39996 11.234 5.537 11.2908C5.67405 11.3475 5.79118 11.4437 5.87359 11.567C5.956 11.6903 5.99999 11.8353 5.99999 11.9837C5.99999 12.1826 5.92097 12.3734 5.78032 12.514C5.63967 12.6547 5.4489 12.7337 5.24999 12.7337ZM7.75499 17.2862C7.63284 17.4093 7.47177 17.4863 7.29922 17.5041C7.12667 17.5218 6.9533 17.4792 6.80864 17.3835C6.66398 17.2878 6.55697 17.1449 6.50583 16.9791C6.4547 16.8134 6.4626 16.635 6.52819 16.4744C6.59378 16.3138 6.713 16.181 6.86556 16.0984C7.01812 16.0158 7.19457 15.9887 7.36488 16.0217C7.53519 16.0546 7.68881 16.1455 7.7996 16.279C7.91039 16.4125 7.97149 16.5802 7.97249 16.7537C7.97306 16.8524 7.95414 16.9502 7.91682 17.0416C7.8795 17.133 7.8245 17.2161 7.75499 17.2862ZM12 19.4837C11.8517 19.4837 11.7066 19.4397 11.5833 19.3573C11.46 19.2749 11.3638 19.1577 11.3071 19.0207C11.2503 18.8836 11.2355 18.7328 11.2644 18.5874C11.2933 18.4419 11.3648 18.3082 11.4697 18.2033C11.5745 18.0985 11.7082 18.027 11.8537 17.9981C11.9992 17.9691 12.15 17.984 12.287 18.0408C12.424 18.0975 12.5412 18.1937 12.6236 18.317C12.706 18.4403 12.75 18.5853 12.75 18.7337C12.75 18.9326 12.671 19.1234 12.5303 19.264C12.3897 19.4047 12.1989 19.4837 12 19.4837ZM17.3025 17.2862C17.1803 17.4093 17.0193 17.4863 16.8467 17.5041C16.6742 17.5218 16.5008 17.4792 16.3561 17.3835C16.2115 17.2878 16.1045 17.1449 16.0533 16.9791C16.0022 16.8134 16.0101 16.635 16.0757 16.4744C16.1413 16.3138 16.2605 16.181 16.4131 16.0984C16.5656 16.0158 16.7421 15.9887 16.9124 16.0217C17.0827 16.0546 17.2363 16.1455 17.3471 16.279C17.4579 16.4125 17.519 16.5802 17.52 16.7537C17.5206 16.8524 17.5016 16.9502 17.4643 17.0416C17.427 17.133 17.372 17.2161 17.3025 17.2862Z"/>
            <path d="M15.6299 9.33613C15.8328 9.62296 16.0014 9.93257 16.1324 10.2586C16.1631 10.3294 16.2148 10.3889 16.2806 10.4292C16.3463 10.4695 16.4229 10.4885 16.4999 10.4836H20.4299C20.4863 10.4839 20.542 10.4714 20.5929 10.4472C20.6438 10.4229 20.6886 10.3875 20.7239 10.3435C20.7592 10.2995 20.7842 10.2481 20.7969 10.1932C20.8096 10.1383 20.8098 10.0812 20.7974 10.0261C20.483 8.61808 19.8348 7.30622 18.9074 6.20114C18.8742 6.16115 18.833 6.12851 18.7865 6.10527C18.7401 6.08203 18.6893 6.0687 18.6374 6.06614C18.5858 6.06436 18.5344 6.07346 18.4866 6.09284C18.4388 6.11222 18.3956 6.14146 18.3599 6.17864L15.6674 8.84863C15.6038 8.91197 15.5651 8.99599 15.5582 9.08543C15.5514 9.17488 15.5768 9.26382 15.6299 9.33613Z"/>
        </symbol>
        <symbol id="hamburger" viewBox="0 0 24 24">
            <path d="M23,13H1c-0.6,0-1-0.4-1-1s0.4-1,1-1h22c0.6,0,1,0.4,1,1S23.6,13,23,13z"/>
            <path d="M23,4H1C0.4,4,0,3.6,0,3s0.4-1,1-1h22c0.6,0,1,0.4,1,1S23.6,4,23,4z"/>
            <path d="M23,22H1c-0.6,0-1-0.4-1-1s0.4-1,1-1h22c0.6,0,1,0.4,1,1S23.6,22,23,22z"/>
        </symbol>
        <symbol id="info" viewBox="0 0 16 16">
            <path d="M8.00025 0C6.418 0 4.87128 0.469192 3.55569 1.34824C2.24009 2.22729 1.21471 3.47672 0.609211 4.93853C0.00371041 6.40034 -0.154716 8.00887 0.153965 9.56072C0.462647 11.1126 1.22457 12.538 2.34339 13.6569C3.46221 14.7757 4.88768 15.5376 6.43952 15.8463C7.99137 16.155 9.59991 15.9965 11.0617 15.391C12.5235 14.7855 13.7729 13.7602 14.652 12.4446C15.5311 11.129 16.0002 9.58225 16.0002 8C16.0002 6.94942 15.7933 5.90914 15.3913 4.93853C14.9892 3.96793 14.4 3.08601 13.6571 2.34315C12.9142 1.60028 12.0323 1.011 11.0617 0.608964C10.0911 0.206926 9.05082 0 8.00025 0ZM8.80025 11.2C8.80025 11.4122 8.71596 11.6157 8.56593 11.7657C8.4159 11.9157 8.21242 12 8.00025 12C7.78807 12 7.58459 11.9157 7.43456 11.7657C7.28453 11.6157 7.20025 11.4122 7.20025 11.2V7.2C7.20025 6.98783 7.28453 6.78434 7.43456 6.63431C7.58459 6.48428 7.78807 6.4 8.00025 6.4C8.21242 6.4 8.4159 6.48428 8.56593 6.63431C8.71596 6.78434 8.80025 6.98783 8.80025 7.2V11.2ZM8.00025 5.6C7.84202 5.6 7.68735 5.55308 7.55579 5.46517C7.42423 5.37727 7.32169 5.25233 7.26114 5.10615C7.20059 4.95997 7.18475 4.79911 7.21562 4.64393C7.24649 4.48874 7.32268 4.3462 7.43456 4.23431C7.54644 4.12243 7.68899 4.04624 7.84417 4.01537C7.99936 3.9845 8.16021 4.00035 8.30639 4.0609C8.45257 4.12145 8.57752 4.22398 8.66542 4.35554C8.75333 4.4871 8.80025 4.64177 8.80025 4.8C8.80025 5.01217 8.71596 5.21566 8.56593 5.36568C8.4159 5.51571 8.21242 5.6 8.00025 5.6Z" fill="#B6B4C1"/>
        </symbol>
        <symbol id="message" viewBox="0 0 24 24">
            <path d="M20.4 1H3.6C2.64522 1 1.72955 1.37928 1.05442 2.05442C0.379285 2.72955 0 3.64522 0 4.6V22.6C0.000366428 22.8126 0.0572265 23.0214 0.164761 23.2048C0.272295 23.3882 0.42664 23.5398 0.612 23.644C0.791347 23.7456 0.993854 23.7994 1.2 23.8C1.41538 23.7999 1.62677 23.7419 1.812 23.632L7.2 20.368C7.39916 20.2494 7.62839 20.1911 7.86 20.2H20.4C21.3548 20.2 22.2705 19.8207 22.9456 19.1456C23.6207 18.4705 24 17.5548 24 16.6V4.6C24 3.64522 23.6207 2.72955 22.9456 2.05442C22.2705 1.37928 21.3548 1 20.4 1ZM7.2 11.8C6.96266 11.8 6.73066 11.7296 6.53332 11.5978C6.33598 11.4659 6.18217 11.2785 6.09134 11.0592C6.00052 10.8399 5.97676 10.5987 6.02306 10.3659C6.06936 10.1331 6.18365 9.91929 6.35147 9.75147C6.5193 9.58365 6.73311 9.46936 6.96589 9.42306C7.19867 9.37675 7.43995 9.40052 7.65922 9.49134C7.87849 9.58217 8.06591 9.73598 8.19776 9.93331C8.32962 10.1307 8.4 10.3627 8.4 10.6C8.4 10.9183 8.27357 11.2235 8.04853 11.4485C7.82348 11.6736 7.51826 11.8 7.2 11.8ZM12 11.8C11.7627 11.8 11.5307 11.7296 11.3333 11.5978C11.136 11.4659 10.9822 11.2785 10.8913 11.0592C10.8005 10.8399 10.7768 10.5987 10.8231 10.3659C10.8694 10.1331 10.9836 9.91929 11.1515 9.75147C11.3193 9.58365 11.5331 9.46936 11.7659 9.42306C11.9987 9.37675 12.2399 9.40052 12.4592 9.49134C12.6785 9.58217 12.8659 9.73598 12.9978 9.93331C13.1296 10.1307 13.2 10.3627 13.2 10.6C13.2 10.9183 13.0736 11.2235 12.8485 11.4485C12.6235 11.6736 12.3183 11.8 12 11.8ZM16.8 11.8C16.5627 11.8 16.3307 11.7296 16.1333 11.5978C15.936 11.4659 15.7822 11.2785 15.6913 11.0592C15.6005 10.8399 15.5768 10.5987 15.6231 10.3659C15.6694 10.1331 15.7836 9.91929 15.9515 9.75147C16.1193 9.58365 16.3331 9.46936 16.5659 9.42306C16.7987 9.37675 17.0399 9.40052 17.2592 9.49134C17.4785 9.58217 17.6659 9.73598 17.7978 9.93331C17.9296 10.1307 18 10.3627 18 10.6C18 10.9183 17.8736 11.2235 17.6485 11.4485C17.4235 11.6736 17.1183 11.8 16.8 11.8Z"/>
        </symbol>
        <symbol id="moon-outline" viewBox="0 0 24 24">
            <path d="M12.3 22.0002H12.2C10.8285 21.9897 9.4729 21.7057 8.21254 21.1649C6.95219 20.624 5.81242 19.837 4.85998 18.8502C3.09382 16.9615 2.08986 14.4855 2.04184 11.9001C1.99383 9.3147 2.90517 6.80316 4.59998 4.85017C5.69186 3.62651 7.06451 2.68625 8.59998 2.11017C8.77914 2.04123 8.97436 2.02531 9.16232 2.06432C9.35029 2.10333 9.52305 2.19562 9.65998 2.33017C9.78679 2.45949 9.87611 2.62083 9.91838 2.79695C9.96065 2.97308 9.95429 3.15738 9.89998 3.33017C9.35193 4.8311 9.24335 6.45722 9.58698 8.01769C9.9306 9.57817 10.7122 11.0083 11.84 12.1402C12.9783 13.2645 14.4118 14.0434 15.9745 14.3868C17.5372 14.7301 19.1652 14.6238 20.67 14.0802C20.8491 14.0171 21.0424 14.0064 21.2274 14.0492C21.4124 14.092 21.5814 14.1866 21.7146 14.3219C21.8478 14.4572 21.9398 14.6276 21.9797 14.8133C22.0196 14.9989 22.0058 15.1921 21.94 15.3702C21.4291 16.7339 20.6311 17.9719 19.6 19.0002C18.6408 19.9565 17.5021 20.7138 16.2494 21.2286C14.9966 21.7435 13.6544 22.0057 12.3 22.0002ZM7.45998 4.92017C6.95765 5.27247 6.49791 5.68187 6.08998 6.14017C4.71451 7.71631 3.9734 9.74709 4.01035 11.8387C4.0473 13.9303 4.8597 15.9336 6.28998 17.4602C7.0585 18.2584 7.97924 18.8944 8.99777 19.3307C10.0163 19.7669 11.112 19.9946 12.22 20.0002H12.3C13.6262 19.9994 14.9331 19.6824 16.1122 19.0754C17.2914 18.4685 18.3088 17.5891 19.08 16.5102C17.5083 16.7138 15.9109 16.5545 14.4104 16.0446C12.9099 15.5346 11.5463 14.6875 10.4242 13.5683C9.30214 12.4491 8.45151 11.0877 7.93766 9.58852C7.4238 8.08935 7.26039 6.49234 7.45998 4.92017Z"/>
        </symbol>
<!--        <symbol id="pin" viewBox="0 0 14 14">-->
<!--            <path d="M13.9878 5.62452C13.9699 5.53764 13.9094 5.46527 13.827 5.43253C13.1002 5.14281 12.3296 4.99598 11.5365 4.99598C10.3002 4.99598 9.34633 5.34934 8.97792 5.50885L5.04843 2.16566C5.18576 0.959266 4.53503 0.13423 4.50598 0.098313C4.45871 0.0399477 4.38925 0.00429476 4.31451 6.92226e-05C4.24003 -0.00151535 4.16635 0.024102 4.11353 0.0771853L0.0850102 4.10571C0.0316627 4.15879 0.00366856 4.23221 0.0081582 4.30774C0.0123837 4.38274 0.0485649 4.45273 0.107458 4.49947C0.683452 4.95636 1.38648 5.05249 1.87453 5.05249C1.98333 5.05249 2.07629 5.04747 2.14734 5.04193L5.50717 8.99122C5.27793 9.58016 4.57755 11.7035 5.42609 13.834C5.45884 13.9166 5.53094 13.9768 5.61809 13.9948C5.63578 13.9985 5.65374 14.0003 5.67143 14.0003C5.74089 14.0003 5.80824 13.9729 5.85815 13.923L9.70603 10.0751L13.2898 13.6589C13.3413 13.7104 13.4089 13.7362 13.4765 13.7362C13.5441 13.7362 13.6117 13.7104 13.6632 13.6589C13.7665 13.5556 13.7665 13.3887 13.6632 13.2854L10.0795 9.70164L13.916 5.86485C13.9788 5.802 14.0058 5.71168 13.9878 5.62452Z"/>-->
<!--        </symbol>-->

        <symbol id="select-arrow" viewBox="0 0 9 6">
            <path d="M0 1.38618L1.35199 0L4.5 3.22763L7.64801 0L9 1.38618L4.5 6L0 1.38618Z" fill="#9A4FD5"/>
        </symbol>
        <symbol id="sun-outline" viewBox="0 0 24 24">
            <path d="M12 6C12.2652 6 12.5196 5.89464 12.7071 5.70711C12.8946 5.51957 13 5.26522 13 5V3C13 2.73478 12.8946 2.48043 12.7071 2.29289C12.5196 2.10536 12.2652 2 12 2C11.7348 2 11.4804 2.10536 11.2929 2.29289C11.1054 2.48043 11 2.73478 11 3V5C11 5.26522 11.1054 5.51957 11.2929 5.70711C11.4804 5.89464 11.7348 6 12 6Z"/>
            <path d="M21 11H19C18.7348 11 18.4804 11.1054 18.2929 11.2929C18.1054 11.4804 18 11.7348 18 12C18 12.2652 18.1054 12.5196 18.2929 12.7071C18.4804 12.8946 18.7348 13 19 13H21C21.2652 13 21.5196 12.8946 21.7071 12.7071C21.8946 12.5196 22 12.2652 22 12C22 11.7348 21.8946 11.4804 21.7071 11.2929C21.5196 11.1054 21.2652 11 21 11Z"/>
            <path d="M6 12C6 11.7348 5.89464 11.4804 5.70711 11.2929C5.51957 11.1054 5.26522 11 5 11H3C2.73478 11 2.48043 11.1054 2.29289 11.2929C2.10536 11.4804 2 11.7348 2 12C2 12.2652 2.10536 12.5196 2.29289 12.7071C2.48043 12.8946 2.73478 13 3 13H5C5.26522 13 5.51957 12.8946 5.70711 12.7071C5.89464 12.5196 6 12.2652 6 12Z"/>
            <path d="M6.22023 5.00019C6.0253 4.81587 5.76512 4.71653 5.49695 4.72403C5.22877 4.73153 4.97456 4.84526 4.79023 5.04019C4.60591 5.23513 4.50657 5.4953 4.51407 5.76348C4.52157 6.03165 4.6353 6.28587 4.83023 6.47019L6.27023 7.86019C6.36687 7.9535 6.48131 8.02639 6.60673 8.07449C6.73215 8.1226 6.86598 8.14494 7.00023 8.14019C7.13494 8.13968 7.26815 8.11195 7.39187 8.05868C7.5156 8.00541 7.62728 7.92769 7.72023 7.83019C7.90648 7.64283 8.01102 7.38938 8.01102 7.12519C8.01102 6.86101 7.90648 6.60755 7.72023 6.42019L6.22023 5.00019Z"/>
            <path d="M17.0001 8.14024C17.2576 8.13921 17.5047 8.03892 17.6901 7.86024L19.1301 6.47024C19.3058 6.28669 19.405 6.04316 19.4076 5.7891C19.4102 5.53505 19.316 5.28953 19.1442 5.10241C18.9723 4.91528 18.7357 4.80058 18.4824 4.7816C18.229 4.76263 17.9779 4.8408 17.7801 5.00024L16.3401 6.42024C16.1539 6.6076 16.0493 6.86105 16.0493 7.12524C16.0493 7.38942 16.1539 7.64287 16.3401 7.83024C16.5133 8.01295 16.7489 8.12365 17.0001 8.14024Z"/>
            <path d="M12 18C11.7348 18 11.4804 18.1054 11.2929 18.2929C11.1054 18.4804 11 18.7348 11 19V21C11 21.2652 11.1054 21.5196 11.2929 21.7071C11.4804 21.8946 11.7348 22 12 22C12.2652 22 12.5196 21.8946 12.7071 21.7071C12.8946 21.5196 13 21.2652 13 21V19C13 18.7348 12.8946 18.4804 12.7071 18.2929C12.5196 18.1054 12.2652 18 12 18Z"/>
            <path d="M17.7299 16.1401C17.5389 15.9558 17.2826 15.8548 17.0172 15.8595C16.7518 15.8642 16.4992 15.9741 16.3149 16.1651C16.1306 16.356 16.0296 16.6124 16.0343 16.8778C16.039 17.1431 16.1489 17.3958 16.3399 17.5801L17.7799 19.0001C17.9653 19.1788 18.2124 19.2791 18.4699 19.2801C18.6039 19.2809 18.7367 19.2547 18.8603 19.2032C18.984 19.1516 19.0961 19.0758 19.1899 18.9801C19.2836 18.8871 19.358 18.7765 19.4088 18.6547C19.4596 18.5328 19.4857 18.4021 19.4857 18.2701C19.4857 18.1381 19.4596 18.0074 19.4088 17.8855C19.358 17.7637 19.2836 17.6531 19.1899 17.5601L17.7299 16.1401Z"/>
            <path d="M6.26998 16.1399L4.82998 17.5299C4.73625 17.6228 4.66186 17.7334 4.61109 17.8553C4.56032 17.9772 4.53418 18.1079 4.53418 18.2399C4.53418 18.3719 4.56032 18.5026 4.61109 18.6244C4.66186 18.7463 4.73625 18.8569 4.82998 18.9499C4.92377 19.0456 5.03584 19.1214 5.15952 19.173C5.28321 19.2245 5.41599 19.2507 5.54998 19.2499C5.79649 19.252 6.03509 19.1629 6.21998 18.9999L7.65998 17.6099C7.85093 17.4255 7.96085 17.1729 7.96553 16.9076C7.97022 16.6422 7.8693 16.3858 7.68498 16.1949C7.50065 16.0039 7.24802 15.894 6.98266 15.8893C6.71729 15.8846 6.46093 15.9855 6.26998 16.1699V16.1399Z"/>
            <path d="M12 8C11.2089 8 10.4355 8.2346 9.77772 8.67412C9.11993 9.11365 8.60723 9.73836 8.30448 10.4693C8.00173 11.2002 7.92252 12.0044 8.07686 12.7804C8.2312 13.5563 8.61216 14.269 9.17157 14.8284C9.73098 15.3878 10.4437 15.7688 11.2196 15.9231C11.9956 16.0775 12.7998 15.9983 13.5307 15.6955C14.2616 15.3928 14.8864 14.8801 15.3259 14.2223C15.7654 13.5645 16 12.7911 16 12C16 10.9391 15.5786 9.92172 14.8284 9.17157C14.0783 8.42143 13.0609 8 12 8ZM12 14C11.6044 14 11.2178 13.8827 10.8889 13.6629C10.56 13.4432 10.3036 13.1308 10.1522 12.7654C10.0009 12.3999 9.96126 11.9978 10.0384 11.6098C10.1156 11.2219 10.3061 10.8655 10.5858 10.5858C10.8655 10.3061 11.2219 10.1156 11.6098 10.0384C11.9978 9.96126 12.3999 10.0009 12.7654 10.1522C13.1308 10.3036 13.4432 10.56 13.6629 10.8889C13.8827 11.2178 14 11.6044 14 12C14 12.5304 13.7893 13.0391 13.4142 13.4142C13.0391 13.7893 12.5304 14 12 14Z"/>
        </symbol>
        <symbol id="threedots" viewBox="0 0 24 24">
            <path d="M12 14C13.1046 14 14 13.1046 14 12C14 10.8954 13.1046 10 12 10C10.8954 10 10 10.8954 10 12C10 13.1046 10.8954 14 12 14Z"/>
            <path d="M12 7C13.1046 7 14 6.10457 14 5C14 3.89543 13.1046 3 12 3C10.8954 3 10 3.89543 10 5C10 6.10457 10.8954 7 12 7Z"/>
            <path d="M12 21C13.1046 21 14 20.1046 14 19C14 17.8954 13.1046 17 12 17C10.8954 17 10 17.8954 10 19C10 20.1046 10.8954 21 12 21Z"/>
        </symbol>
        <symbol id="threedots-horizontal" viewBox="0 0 24 24">
            <path d="M2 2H2.01M9 2H9.01M16 2H16.01M3 2C3 2.55228 2.55228 3 2 3C1.44772 3 1 2.55228 1 2C1 1.44772 1.44772 1 2 1C2.55228 1 3 1.44772 3 2ZM10 2C10 2.55228 9.55228 3 9 3C8.44772 3 8 2.55228 8 2C8 1.44772 8.44772 1 9 1C9.55228 1 10 1.44772 10 2ZM17 2C17 2.55228 16.5523 3 16 3C15.4477 3 15 2.55228 15 2C15 1.44772 15.4477 1 16 1C16.5523 1 17 1.44772 17 2Z"/>
        </symbol>
        <symbol id="toggle" viewBox="0 0 20 20">
            <path d="M15.0904 11.2825L19.4358 15.5001L15.0904 19.7176L13.6975 18.2825L15.5339 16.5001H1V14.5001H15.5339L13.6975 12.7176L15.0904 11.2825Z"/>
            <path d="M4.40959 8.71753L0.0641998 4.49995L4.40959 0.282366L5.80254 1.71753L3.9661 3.49995L18.5 3.49995L18.5 5.49995L3.9661 5.49995L5.80254 7.28237L4.40959 8.71753Z"/>
        </symbol>
        <symbol id="trash" viewBox="0 0 24 24">
            <path d="M19.2 7.2011H15.2V5.8651C15.1812 5.35296 14.9602 4.86915 14.5853 4.51974C14.2104 4.17032 13.7122 3.98382 13.2 4.0011H10.8C10.2878 3.98382 9.78965 4.17032 9.41474 4.51974C9.03984 4.86915 8.81877 5.35296 8.8 5.8651V7.2011H4.8C4.58783 7.2011 4.38434 7.28539 4.23431 7.43542C4.08429 7.58545 4 7.78893 4 8.0011C4 8.21328 4.08429 8.41676 4.23431 8.56679C4.38434 8.71682 4.58783 8.8011 4.8 8.8011H5.6V17.6011C5.6 18.2376 5.85286 18.8481 6.30294 19.2982C6.75303 19.7482 7.36348 20.0011 8 20.0011H16C16.6365 20.0011 17.247 19.7482 17.6971 19.2982C18.1471 18.8481 18.4 18.2376 18.4 17.6011V8.8011H19.2C19.4122 8.8011 19.6157 8.71682 19.7657 8.56679C19.9157 8.41676 20 8.21328 20 8.0011C20 7.78893 19.9157 7.58545 19.7657 7.43542C19.6157 7.28539 19.4122 7.2011 19.2 7.2011ZM10.4 15.2011C10.4 15.4133 10.3157 15.6168 10.1657 15.7668C10.0157 15.9168 9.81217 16.0011 9.6 16.0011C9.38783 16.0011 9.18434 15.9168 9.03431 15.7668C8.88429 15.6168 8.8 15.4133 8.8 15.2011V12.0011C8.8 11.7889 8.88429 11.5854 9.03431 11.4354C9.18434 11.2854 9.38783 11.2011 9.6 11.2011C9.81217 11.2011 10.0157 11.2854 10.1657 11.4354C10.3157 11.5854 10.4 11.7889 10.4 12.0011V15.2011ZM10.4 5.8651C10.4 5.7371 10.568 5.6011 10.8 5.6011H13.2C13.432 5.6011 13.6 5.7371 13.6 5.8651V7.2011H10.4V5.8651ZM15.2 15.2011C15.2 15.4133 15.1157 15.6168 14.9657 15.7668C14.8157 15.9168 14.6122 16.0011 14.4 16.0011C14.1878 16.0011 13.9843 15.9168 13.8343 15.7668C13.6843 15.6168 13.6 15.4133 13.6 15.2011V12.0011C13.6 11.7889 13.6843 11.5854 13.8343 11.4354C13.9843 11.2854 14.1878 11.2011 14.4 11.2011C14.6122 11.2011 14.8157 11.2854 14.9657 11.4354C15.1157 11.5854 15.2 11.7889 15.2 12.0011V15.2011Z"/>
        </symbol>
        <symbol id="edit" viewBox="0 0 24 24">
            <path d="M19.4,7.3l-2.7-2.7C16.3,4.2,15.9,4,15.4,4c-0.5,0-1,0.2-1.3,0.5l-9,9c-0.3,0.3-0.5,0.8-0.6,1.2L4,18.9
            c0,0.1,0,0.3,0.1,0.4c0.1,0.1,0.1,0.3,0.2,0.4c0.1,0.1,0.2,0.2,0.3,0.2C4.7,20,4.8,20,5,20h0.1l4.2-0.4c0.5,0,0.9-0.2,1.2-0.6l9-9
            C19.9,9.6,20,9.1,20,8.6C20,8.1,19.8,7.6,19.4,7.3L19.4,7.3z M16,10.6L13.3,8l2-2L18,8.7L16,10.6z"/>
        </symbol>
        <symbol id="warning" viewBox="0 0 24 24">
            <path d="M22.56 16.3001L14.89 3.58006C14.5798 3.09488 14.1525 2.69558 13.6475 2.419C13.1424 2.14241 12.5758 1.99744 12 1.99744C11.4241 1.99744 10.8576 2.14241 10.3525 2.419C9.84743 2.69558 9.42012 3.09488 9.10998 3.58006L1.43998 16.3001C1.16903 16.7517 1.02177 17.2667 1.01299 17.7934C1.00421 18.32 1.13423 18.8396 1.38998 19.3001C1.68566 19.8183 2.11364 20.2488 2.63018 20.5475C3.14672 20.8462 3.7333 21.0023 4.32998 21.0001H19.67C20.2627 21.0064 20.8467 20.8562 21.3629 20.5648C21.879 20.2733 22.3092 19.8509 22.61 19.3401C22.8732 18.8748 23.0074 18.3477 22.9986 17.8133C22.9898 17.2788 22.8384 16.7564 22.56 16.3001ZM20.86 18.3501C20.7398 18.5567 20.5654 18.7264 20.3556 18.841C20.1459 18.9556 19.9088 19.0106 19.67 19.0001H4.32998C4.0912 19.0106 3.85409 18.9556 3.64434 18.841C3.43458 18.7264 3.26016 18.5567 3.13998 18.3501C3.05221 18.198 3.006 18.0256 3.006 17.8501C3.006 17.6745 3.05221 17.5021 3.13998 17.3501L10.82 4.62006C10.958 4.43777 11.1363 4.28992 11.3411 4.18813C11.5458 4.08634 11.7713 4.03337 12 4.03337C12.2286 4.03337 12.4541 4.08634 12.6589 4.18813C12.8636 4.28992 13.042 4.43777 13.18 4.62006L20.85 17.3401C20.9411 17.4924 20.9901 17.6662 20.9919 17.8437C20.9936 18.0212 20.9481 18.196 20.86 18.3501Z"/>
            <path d="M12 17C12.5523 17 13 16.5523 13 16C13 15.4477 12.5523 15 12 15C11.4477 15 11 15.4477 11 16C11 16.5523 11.4477 17 12 17Z"/>
            <path d="M12 8C11.7348 8 11.4804 8.10536 11.2929 8.29289C11.1054 8.48043 11 8.73478 11 9V13C11 13.2652 11.1054 13.5196 11.2929 13.7071C11.4804 13.8946 11.7348 14 12 14C12.2652 14 12.5196 13.8946 12.7071 13.7071C12.8946 13.5196 13 13.2652 13 13V9C13 8.73478 12.8946 8.48043 12.7071 8.29289C12.5196 8.10536 12.2652 8 12 8Z"/>
        </symbol>
        <symbol id="lock" viewBox="0 0 24 24" fill="currentColor">
            <path d="M18 8H17V6C17 3.24 14.76 1 12 1C9.24 1 7 3.24 7 6V8H6C4.9 8 4 8.9 4 10V20C4 21.1 4.9 22 6 22H18C19.1 22 20 21.1 20 20V10C20 8.9 19.1 8 18 8ZM12 17C10.9 17 10 16.1 10 15C10 13.9 10.9 13 12 13C13.1 13 14 13.9 14 15C14 16.1 13.1 17 12 17ZM15.1 8H8.9V6C8.9 4.29 10.29 2.9 12 2.9C13.71 2.9 15.1 4.29 15.1 6V8Z"/>
        </symbol>
        <symbol id="unlock" viewBox="0 0 24 24"  fill="currentColor">
            <path d="M12 17C13.1 17 14 16.1 14 15C14 13.9 13.1 13 12 13C10.9 13 10 13.9 10 15C10 16.1 10.9 17 12 17ZM18 8H17V6C17 3.24 14.76 1 12 1C9.24 1 7 3.24 7 6H8.9C8.9 4.29 10.29 2.9 12 2.9C13.71 2.9 15.1 4.29 15.1 6V8H6C4.9 8 4 8.9 4 10V20C4 21.1 4.9 22 6 22H18C19.1 22 20 21.1 20 20V10C20 8.9 19.1 8 18 8ZM18 20H6V10H18V20Z"/>
        </symbol>
        <symbol id="letter" viewBox="0 0 24 24">
            <path d="M20 2H4C2.9 2 2 2.9 2 4V20.3101C2 20.9337 2.754 21.246 3.19497 20.805L6 18H20C21.1 18 22 17.1 22 16V4C22 2.9 21.1 2 20 2Z"/>
            <rect x="6" y="7" width="12" height="2" rx="1" fill="white"/>
            <rect x="6" y="11" width="12" height="2" rx="1" fill="white"/>
        </symbol>
        <symbol id="filter" viewBox="0 0 21 19">
            <path d="M9.99991 9V16.2233C10.0366 16.4983 9.94491 16.7917 9.73408 16.9842C9.37658 17.3417 8.79908 17.3417 8.44158 16.9842L6.59908 15.1417C6.38824 14.9308 6.29658 14.6467 6.33324 14.3808V9H6.30574L1.02574 2.235C0.714077 1.84083 0.78741 1.26333 1.18158 0.951667C1.35574 0.823333 1.54824 0.75 1.74991 0.75H14.5832C14.7849 0.75 14.9774 0.823333 15.1516 0.951667C15.5457 1.26333 15.6191 1.84083 15.3074 2.235L10.0274 9H9.99991ZM12.7499 13.5833H15.4999V10.8333H17.3332V13.5833H20.0832V15.4167H17.3332V18.1667H15.4999V15.4167H12.7499V13.5833Z" fill="#9A4FD5"/>
        </symbol>
        <symbol id="checkbox-clear" viewBox="0 0 16 16">
            <rect x="1" y="1" width="14" height="14" rx="2" stroke="#B6B4C1" stroke-width="1.2"/>
        </symbol>
        <symbol id="checkbox-apply" viewBox="0 0 10 8">
            <path d="M1.5 3.00011L4.125 5.62511L8.50021 1.25" stroke="white" stroke-width="2" stroke-linecap="round"/>
        </symbol>
        <symbol id="accordion" viewBox="0 0 9 6">
            <path d="M0 1.38618L1.35199 0L4.5 3.22763L7.64801 0L9 1.38618L4.5 6L0 1.38618Z"/>
        </symbol>
        <symbol id="notifications" viewBox="0 0 24 24"  fill="currentColor">
            <path d="M12 22C13.1 22 14 21.1 14 20H10C10 20.5304 10.2107 21.0391 10.5858 21.4142C10.9609 21.7893 11.4696 22 12 22ZM18 16V11C18 7.93 16.36 5.36 13.5 4.68V4C13.5 3.17 12.83 2.5 12 2.5C11.17 2.5 10.5 3.17 10.5 4V4.68C7.63 5.36 6 7.92 6 11V16L4 18V19H20V18L18 16Z"/>
        </symbol>
        <symbol id="tuning" viewBox="0 0 20 20">
            <path d="M17.4997 10C17.4997 9.77 17.4897 9.55 17.4697 9.32L19.3297 7.91C19.7297 7.61 19.8397 7.05 19.5897 6.61L17.7197 3.38C17.5998 3.16818 17.4058 3.00814 17.1751 2.93062C16.9444 2.8531 16.6931 2.86356 16.4697 2.96L14.3197 3.87C13.9497 3.61 13.5597 3.38 13.1497 3.19L12.8597 0.88C12.7997 0.38 12.3697 0 11.8697 0H8.13967C7.62967 0 7.19967 0.38 7.13967 0.88L6.84967 3.19C6.43967 3.38 6.04966 3.61 5.67967 3.87L3.52967 2.96C3.06967 2.76 2.52967 2.94 2.27967 3.38L0.409665 6.62C0.159665 7.06 0.269665 7.61 0.669665 7.92L2.52967 9.33C2.48821 9.77905 2.48821 10.231 2.52967 10.68L0.669665 12.09C0.269665 12.39 0.159665 12.95 0.409665 13.39L2.27967 16.62C2.52967 17.06 3.06967 17.24 3.52967 17.04L5.67967 16.13C6.04966 16.39 6.43967 16.62 6.84967 16.81L7.13967 19.12C7.19967 19.62 7.62967 20 8.12967 20H11.8597C12.3597 20 12.7897 19.62 12.8497 19.12L13.1397 16.81C13.5497 16.62 13.9397 16.39 14.3097 16.13L16.4597 17.04C16.9197 17.24 17.4597 17.06 17.7097 16.62L19.5797 13.39C19.8297 12.95 19.7197 12.4 19.3197 12.09L17.4597 10.68C17.4897 10.45 17.4997 10.23 17.4997 10ZM10.0397 13.5C8.10967 13.5 6.53967 11.93 6.53967 10C6.53967 8.07 8.10967 6.5 10.0397 6.5C11.9697 6.5 13.5397 8.07 13.5397 10C13.5397 11.93 11.9697 13.5 10.0397 13.5Z" />
        </symbol>
<!--        <symbol id="volume" viewBox="0 0 24 24">-->
<!--            <path d="M3 9.00047V15.0005H7L12 20.0005V4.00047L7 9.00047H3ZM16.5 12.0005C16.4998 11.1626 16.2657 10.3414 15.824 9.62941C15.3823 8.91741 14.7506 8.34286 14 7.97047V16.0205C15.48 15.2905 16.5 13.7705 16.5 12.0005ZM14 3.23047V5.29047C16.89 6.15047 19 8.83047 19 12.0005C19 15.1705 16.89 17.8505 14 18.7105V20.7705C18.01 19.8605 21 16.2805 21 12.0005C21 7.72047 18.01 4.14047 14 3.23047Z"/>-->
<!--        </symbol>-->
        <symbol id="details" viewBox="0 0 24 24">
            <path d="M4 8V4M4 4H8M4 4L9 9M20 8V4M20 4H16M20 4L15 9M4 16V20M4 20H8M4 20L9 15M20 20L15 15M20 20V16M20 20H16" stroke="#737887" stroke-width="2" stroke-linecap="round" stroke-linejoin="round"/>
        </symbol>
        <symbol id="desktop" viewBox="0 0 20 20" fill="none">
            <path d="M1.66667 5.00004C1.66667 4.55801 1.84226 4.13409 2.15482 3.82153C2.46738 3.50897 2.89131 3.33337 3.33333 3.33337H16.6667C17.1087 3.33337 17.5326 3.50897 17.8452 3.82153C18.1577 4.13409 18.3333 4.55801 18.3333 5.00004V12.5C18.3333 12.9421 18.1577 13.366 17.8452 13.6786C17.5326 13.9911 17.1087 14.1667 16.6667 14.1667H3.33333C2.89131 14.1667 2.46738 13.9911 2.15482 13.6786C1.84226 13.366 1.66667 12.9421 1.66667 12.5V5.00004Z" stroke="#434757" stroke-width="1.5" stroke-linecap="round" stroke-linejoin="round"/>
            <path d="M6.66667 16.6667H13.3333" stroke="#434757" stroke-width="1.5" stroke-linecap="round" stroke-linejoin="round"/>
         </symbol>
        <symbol id="mobile" viewBox="0 0 20 20" fill="none">
            <path d="M13.3333 1.66663H6.66667C5.74619 1.66663 5 2.41282 5 3.33329V16.6666C5 17.5871 5.74619 18.3333 6.66667 18.3333H13.3333C14.2538 18.3333 15 17.5871 15 16.6666V3.33329C15 2.41282 14.2538 1.66663 13.3333 1.66663Z" stroke="#434757" stroke-width="1.5" stroke-linecap="round" stroke-linejoin="round"/>
            <path d="M9.95834 15H10.0417" stroke="#434757" stroke-width="1.5" stroke-linecap="round" stroke-linejoin="round"/>
        </symbol>
        <symbol id="laptop" viewBox="0 0 20 20" fill="none">
            <path d="M3.33334 5.83329C3.33334 5.39127 3.50893 4.96734 3.82149 4.65478C4.13405 4.34222 4.55797 4.16663 5 4.16663H15C15.442 4.16663 15.866 4.34222 16.1785 4.65478C16.4911 4.96734 16.6667 5.39127 16.6667 5.83329V13.3333H3.33334V5.83329Z" stroke="#434757" stroke-width="1.5" stroke-linecap="round" stroke-linejoin="round"/>
            <path d="M1.66667 15.8333H18.3333" stroke="#434757" stroke-width="1.5" stroke-linecap="round" stroke-linejoin="round"/>
        </symbol>
        <symbol id="tablet" viewBox="0 0 20 20" fill="none">
            <path d="M15 1.66663H5C4.07952 1.66663 3.33333 2.41282 3.33333 3.33329V16.6666C3.33333 17.5871 4.07952 18.3333 5 18.3333H15C15.9205 18.3333 16.6667 17.5871 16.6667 16.6666V3.33329C16.6667 2.41282 15.9205 1.66663 15 1.66663Z" stroke="#434757" stroke-width="1.5" stroke-linecap="round" stroke-linejoin="round"/>
            <path d="M9.16666 15H10.8333" stroke="#434757" stroke-width="1.5" stroke-linecap="round" stroke-linejoin="round"/>
        </symbol>
        <symbol id="arowdown" viewBox="0 0 24 24" fill="none">
            <path stroke-linecap="round" stroke-linejoin="round" stroke-width="2" d="M17 13l-5 5m0 0l-5-5m5 5V6" />
        </symbol>
        <symbol id="arowvisit" viewBox="0 0 20 20" fill="none">
            <path fill-rule="evenodd" d="M7.293 14.707a1 1 0 010-1.414L10.586 10 7.293 6.707a1 1 0 011.414-1.414l4 4a1 1 0 010 1.414l-4 4a1 1 0 01-1.414 0z" clip-rule="evenodd" />
        </symbol>
        <symbol id="download" viewBox="0 0 24 24" fill="none">
            <path d="M4 16v1a3 3 0 003 3h10a3 3 0 003-3v-1m-4-4l-4 4m0 0l-4-4m4 4V4" />
        </symbol>
        <symbol id="like" viewBox="0 0 24 24" >
            <path d="M2.3999 12.5999C2.3999 11.6058 3.20579 10.7999 4.1999 10.7999C5.19401 10.7999 5.9999 11.6058 5.9999 12.5999V19.7999C5.9999 20.794 5.19401 21.5999 4.1999 21.5999C3.20579 21.5999 2.3999 20.794 2.3999 19.7999V12.5999Z" />
            <path d="M7.1999 12.3999V18.9166C7.1999 19.8257 7.71351 20.6567 8.52659 21.0632L8.5864 21.0932C9.25291 21.4264 9.98785 21.5999 10.733 21.5999H17.2324C18.3764 21.5999 19.3614 20.7924 19.5858 19.6706L21.0258 12.4706C21.3228 10.9855 20.1869 9.5999 18.6724 9.5999H14.3999V4.7999C14.3999 3.47442 13.3254 2.3999 11.9999 2.3999C11.3372 2.3999 10.7999 2.93716 10.7999 3.5999V4.3999C10.7999 5.43848 10.463 6.44904 9.8399 7.2799L8.1599 9.5199C7.53676 10.3508 7.1999 11.3613 7.1999 12.3999Z"/>
        </symbol>
        <symbol id="view" viewBox="0 0 24 24">
            <path d="M12 14.4001C13.3255 14.4001 14.4 13.3256 14.4 12.0001C14.4 10.6746 13.3255 9.6001 12 9.6001C10.6745 9.6001 9.60001 10.6746 9.60001 12.0001C9.60001 13.3256 10.6745 14.4001 12 14.4001Z"/>
            <path fill-rule="evenodd" clip-rule="evenodd" d="M0.549316 12.0001C2.07842 7.13159 6.62678 3.6001 12 3.6001C17.3731 3.6001 21.9215 7.13155 23.4506 12.0001C21.9215 16.8686 17.3731 20.4001 11.9999 20.4001C6.62679 20.4001 2.07845 16.8686 0.549316 12.0001ZM16.8 12.0001C16.8 14.6511 14.651 16.8001 12 16.8001C9.34904 16.8001 7.20001 14.6511 7.20001 12.0001C7.20001 9.34913 9.34904 7.2001 12 7.2001C14.651 7.2001 16.8 9.34913 16.8 12.0001Z"/>
        </symbol>
        <symbol id="user" viewBox="0 0 28 28" fill="none">
            <path d="M14 12.6C16.3196 12.6 18.2 10.7195 18.2 8.39995C18.2 6.08036 16.3196 4.19995 14 4.19995C11.6804 4.19995 9.80001 6.08036 9.80001 8.39995C9.80001 10.7195 11.6804 12.6 14 12.6Z" fill="#9A4FD5"/>
            <path d="M4.20001 25.1999C4.20001 19.7876 8.58762 15.4 14 15.4C19.4124 15.4 23.8 19.7876 23.8 25.1999H4.20001Z" fill="#9A4FD5"/>
        </symbol>

        <symbol id="unnotifications" viewBox="0 0 24 24">
            <path d="M20 18.69L7.84 6.14L5.27 3.49L4 4.76L6.8 7.56V7.57C6.28 8.56 6 9.73 6 10.99V15.99L4 17.99V18.99H17.73L19.73 20.99L21 19.72L20 18.69ZM12 22C13.11 22 14 21.11 14 20H10C10 21.11 10.89 22 12 22ZM18 14.68V11C18 7.92 16.36 5.36 13.5 4.68V4C13.5 3.17 12.83 2.5 12 2.5C11.17 2.5 10.5 3.17 10.5 4V4.68C10.35 4.71 10.21 4.76 10.08 4.8C9.98 4.83 9.88 4.87 9.78 4.91H9.77C9.76 4.91 9.76 4.91 9.75 4.92C9.52 5.01 9.29 5.12 9.07 5.23C9.07 5.23 9.06 5.23 9.06 5.24L18 14.68Z" />
        </symbol>
        <symbol id="switch-horizontal" fill="none" viewBox="0 0 24 24" stroke="currentColor">
            <path stroke-linecap="round" stroke-linejoin="round" stroke-width="2" d="M8 7h12m0 0l-4-4m4 4l-4 4m0 6H4m0 0l4 4m-4-4l4-4" />
        </symbol>
        <symbol id="thumb-up" xmlns="http://www.w3.org/2000/svg"  fill="none" viewBox="0 0 24 24" stroke="currentColor">
            <path stroke-linecap="round" stroke-linejoin="round" stroke-width="2" d="M14 10h4.764a2 2 0 011.789 2.894l-3.5 7A2 2 0 0115.263 21h-4.017c-.163 0-.326-.02-.485-.06L7 20m7-10V5a2 2 0 00-2-2h-.095c-.5 0-.905.405-.905.905 0 .714-.211 1.412-.608 2.006L7 11v9m7-10h-2M7 20H5a2 2 0 01-2-2v-6a2 2 0 012-2h2.5" />
        </symbol>
        <symbol id="shield-check" xmlns="http://www.w3.org/2000/svg" fill="none" viewBox="0 0 24 24" stroke="currentColor">
            <path stroke-linecap="round" stroke-linejoin="round" stroke-width="2" d="M9 12l2 2 4-4m5.618-4.016A11.955 11.955 0 0112 2.944a11.955 11.955 0 01-8.618 3.04A12.02 12.02 0 003 9c0 5.591 3.824 10.29 9 11.622 5.176-1.332 9-6.03 9-11.622 0-1.042-.133-2.052-.382-3.016z" />
        </symbol>
        <symbol id="user-stroke" xmlns="http://www.w3.org/2000/svg" fill="none" viewBox="0 0 24 24" stroke="currentColor">
            <path stroke-linecap="round" stroke-linejoin="round" stroke-width="2" d="M16 7a4 4 0 11-8 0 4 4 0 018 0zM12 14a7 7 0 00-7 7h14a7 7 0 00-7-7z" />
        </symbol>
        <symbol id="lock-closed" fill="none" viewBox="0 0 24 24" stroke="currentColor">
            <path stroke-linecap="round" stroke-linejoin="round" stroke-width="2" d="M12 15v2m-6 4h12a2 2 0 002-2v-6a2 2 0 00-2-2H6a2 2 0 00-2 2v6a2 2 0 002 2zm10-10V7a4 4 0 00-8 0v4h8z" />
        </symbol>
        <symbol id="lock-open" fill="none" viewBox="0 0 24 24" stroke="currentColor">
            <path stroke-linecap="round" stroke-linejoin="round" stroke-width="2" d="M8 11V7a4 4 0 118 0m-4 8v2m-6 4h12a2 2 0 002-2v-6a2 2 0 00-2-2H6a2 2 0 00-2 2v6a2 2 0 002 2z" />
        </symbol>
        <symbol id="exclamation-circle" xmlns="http://www.w3.org/2000/svg" viewBox="0 0 20 20" fill="currentColor" aria-hidden="true">
            <path fill-rule="evenodd" d="M18 10a8 8 0 11-16 0 8 8 0 0116 0zm-7 4a1 1 0 11-2 0 1 1 0 012 0zm-1-9a1 1 0 00-1 1v4a1 1 0 102 0V6a1 1 0 00-1-1z" clip-rule="evenodd" />
        </symbol>
        <symbol id="eye-on" xmlns="http://www.w3.org/2000/svg" viewBox="0 0 20 20" fill="currentColor">
            <path d="M10 12a2 2 0 100-4 2 2 0 000 4z" />
            <path fill-rule="evenodd" d="M.458 10C1.732 5.943 5.522 3 10 3s8.268 2.943 9.542 7c-1.274 4.057-5.064 7-9.542 7S1.732 14.057.458 10zM14 10a4 4 0 11-8 0 4 4 0 018 0z" clip-rule="evenodd" />
        </symbol>
        <symbol id="eye-off-new" xmlns="http://www.w3.org/2000/svg" viewBox="0 0 20 20" fill="currentColor">
            <path fill-rule="evenodd" d="M3.707 2.293a1 1 0 00-1.414 1.414l14 14a1 1 0 001.414-1.414l-1.473-1.473A10.014 10.014 0 0019.542 10C18.268 5.943 14.478 3 10 3a9.958 9.958 0 00-4.512 1.074l-1.78-1.781zm4.261 4.26l1.514 1.515a2.003 2.003 0 012.45 2.45l1.514 1.514a4 4 0 00-5.478-5.478z" clip-rule="evenodd" />
            <path d="M12.454 16.697L9.75 13.992a4 4 0 01-3.742-3.741L2.335 6.578A9.98 9.98 0 00.458 10c1.274 4.057 5.065 7 9.542 7 .847 0 1.669-.105 2.454-.303z" />
        </symbol>
        <symbol id="close-new" xmlns="http://www.w3.org/2000/svg" class="h-6 w-6" fill="none" viewBox="0 0 24 24" stroke="currentColor">
            <path stroke-linecap="round" stroke-linejoin="round" stroke-width="2" d="M6 18L18 6M6 6l12 12" />
        </symbol>
        <symbol id="refresh" viewBox="0 0 32 32" fill="currentColor">
            <path d="M28 6.08838C28.5523 6.08838 29 6.53609 29 7.08838V13.6338C29 14.1861 28.5523 14.6338 28 14.6338H21.4546C20.9023 14.6338 20.4546 14.1861 20.4546 13.6338C20.4546 13.0815 20.9023 12.6338 21.4546 12.6338H27V7.08838C27 6.53609 27.4478 6.08838 28 6.08838Z"/>
            <path d="M3 17.9976C3 17.4453 3.44772 16.9976 4 16.9976H10.5455C11.0977 16.9976 11.5455 17.4453 11.5455 17.9976C11.5455 18.5498 11.0977 18.9976 10.5455 18.9976H5V24.543C5 25.0953 4.55228 25.543 4 25.543C3.44772 25.543 3 25.0953 3 24.543V17.9976Z"/>
            <path d="M18.4442 7.34725C17.0132 6.93335 15.5008 6.88868 14.0479 7.21741C12.595 7.54614 11.2491 8.23755 10.1358 9.22713C9.02237 10.2167 8.17782 11.4722 7.6809 12.8765C7.49666 13.3971 6.92524 13.6698 6.40459 13.4856C5.88394 13.3013 5.61123 12.7299 5.79547 12.2093C6.40509 10.4865 7.44119 8.94628 8.80709 7.73225C10.173 6.51823 11.8242 5.67001 13.6065 5.26672C15.3889 4.86343 17.2444 4.91823 18.9999 5.42601C20.7502 5.93229 22.3443 6.87246 23.6341 8.15916L28.6848 12.905C29.0873 13.2832 29.1069 13.9161 28.7288 14.3186C28.3506 14.721 27.7177 14.7407 27.3152 14.3625L22.2534 9.60617C22.2458 9.59902 22.2383 9.59174 22.2309 9.58435C21.1779 8.53079 19.8751 7.76115 18.4442 7.34725ZM3.27125 17.3126C3.64944 16.9102 4.2823 16.8905 4.68478 17.2687L9.7466 22.025C9.75421 22.0322 9.76172 22.0395 9.7691 22.0469C10.8221 23.1004 12.1249 23.8701 13.5558 24.284C14.9868 24.6979 16.4992 24.7425 17.9521 24.4138C19.405 24.0851 20.7509 23.3936 21.8643 22.4041C22.9776 21.4145 23.8222 20.159 24.3191 18.7547C24.5033 18.2341 25.0748 17.9614 25.5954 18.1456C26.1161 18.3299 26.3888 18.9013 26.2045 19.4219C25.5949 21.1447 24.5588 22.6849 23.1929 23.8989C21.827 25.113 20.1758 25.9612 18.3935 26.3645C16.6111 26.7678 14.7556 26.713 13.0001 26.2052C11.2498 25.6989 9.65577 24.7588 8.3659 23.4721L3.31523 18.7262C2.91275 18.348 2.89306 17.7151 3.27125 17.3126Z"/>
        </symbol>
        <symbol id="random-image" viewBox="0 0 34 34">
            <path d="M1 25L10.1716 15.8284C11.7337 14.2663 14.2663 14.2663 15.8284 15.8284L25 25M21 21L24.1716 17.8284C25.7337 16.2663 28.2663 16.2663 29.8284 17.8284L33 21M21 9H21.02M5 33H29C31.2091 33 33 31.2091 33 29V5C33 2.79086 31.2091 1 29 1H5C2.79086 1 1 2.79086 1 5V29C1 31.2091 2.79086 33 5 33Z" stroke-width="2" stroke-linecap="round" stroke-linejoin="round"/>
        </symbol>
        <symbol id="random-image" viewBox="0 0 34 34">
            <path d="M1 25L10.1716 15.8284C11.7337 14.2663 14.2663 14.2663 15.8284 15.8284L25 25M21 21L24.1716 17.8284C25.7337 16.2663 28.2663 16.2663 29.8284 17.8284L33 21M21 9H21.02M5 33H29C31.2091 33 33 31.2091 33 29V5C33 2.79086 31.2091 1 29 1H5C2.79086 1 1 2.79086 1 5V29C1 31.2091 2.79086 33 5 33Z" stroke-width="2" stroke-linecap="round" stroke-linejoin="round"/>
        </symbol>
        <symbol id="select"  viewBox="0 0 20 20" fill="currentColor">
            <path fill-rule="evenodd" d="M10 3a1 1 0 01.707.293l3 3a1 1 0 01-1.414 1.414L10 5.414 7.707 7.707a1 1 0 01-1.414-1.414l3-3A1 1 0 0110 3zm-3.707 9.293a1 1 0 011.414 0L10 14.586l2.293-2.293a1 1 0 011.414 1.414l-3 3a1 1 0 01-1.414 0l-3-3a1 1 0 010-1.414z" clip-rule="evenodd"/>
        </symbol>
        <symbol id="back-arrow" viewBox="0 0 19 9" fill="currentColor">
            <path d="M4.79289 8.70703L0.585787 4.49992L4.79289 0.292817L6.20711 1.70703L4.41421 3.49992L18.5 3.49992L18.5 5.49992L4.41421 5.49992L6.20711 7.29282L4.79289 8.70703Z"/>
        </symbol>
        <symbol id="attach" viewBox="0 0 24 24" fill="currentColor">
            <path d="M9.29 21C8.46382 20.9961 7.64668 20.8278 6.88614 20.505C6.1256 20.1823 5.43686 19.7115 4.86 19.12C4.28746 18.5774 3.82755 17.9272 3.50658 17.2066C3.18561 16.486 3.00987 15.7092 2.98944 14.9207C2.96901 14.1321 3.10427 13.3472 3.38749 12.611C3.67071 11.8748 4.09633 11.2016 4.64 10.63L12 3.20003C12.393 2.80771 12.8615 2.49911 13.3771 2.29286C13.8927 2.08662 14.4448 1.987 15 2.00003C15.5947 2.00206 16.1831 2.12247 16.7307 2.35425C17.2784 2.58603 17.7745 2.92454 18.19 3.35003C19.017 4.14627 19.4966 5.23655 19.5247 6.38421C19.5527 7.53187 19.1271 8.6443 18.34 9.48003L10.94 16.91C10.703 17.1487 10.4209 17.3378 10.1102 17.4666C9.79951 17.5953 9.46632 17.6611 9.13 17.66C8.76667 17.6605 8.40693 17.5882 8.07201 17.4474C7.7371 17.3065 7.43379 17.1 7.18 16.84C6.67272 16.3489 6.37977 15.6774 6.36479 14.9715C6.34981 14.2656 6.61402 13.5823 7.1 13.07L13.93 6.21003C14.1244 6.08094 14.3578 6.02388 14.5898 6.04875C14.8218 6.07362 15.0378 6.17884 15.2004 6.34619C15.3631 6.51355 15.462 6.7325 15.4802 6.96514C15.4984 7.19778 15.4346 7.42945 15.3 7.62003L8.47 14.48C8.3561 14.6172 8.30067 14.7937 8.31563 14.9714C8.3306 15.1491 8.41476 15.3138 8.55 15.43C8.69071 15.5717 8.8804 15.654 9.08 15.66C9.15393 15.6611 9.22734 15.6475 9.296 15.62C9.36465 15.5926 9.42719 15.5518 9.48 15.5L16.87 8.07003C17.2848 7.60921 17.5016 7.00367 17.4735 6.38428C17.4455 5.7649 17.1748 5.18144 16.72 4.76003C16.2976 4.32147 15.7231 4.06149 15.1149 4.03359C14.5066 4.00569 13.9108 4.21199 13.45 4.61003L6.06 12C5.70064 12.386 5.42116 12.8392 5.23762 13.3336C5.05409 13.828 4.97013 14.3538 4.99058 14.8808C5.01102 15.4078 5.13547 15.9255 5.35676 16.4042C5.57805 16.8829 5.89181 17.3131 6.28 17.67C6.66927 18.0736 7.13506 18.3955 7.65016 18.617C8.16525 18.8385 8.71932 18.9551 9.28 18.96C9.76341 18.964 10.2428 18.8723 10.6908 18.6904C11.1387 18.5085 11.5462 18.2399 11.89 17.9L19.28 10.47C19.3726 10.3768 19.4826 10.3027 19.6038 10.252C19.725 10.2013 19.8551 10.1749 19.9865 10.1745C20.1179 10.174 20.2481 10.1994 20.3696 10.2493C20.4912 10.2991 20.6018 10.3725 20.695 10.465C20.7882 10.5576 20.8623 10.6677 20.913 10.7889C20.9637 10.9101 20.9901 11.0401 20.9906 11.1715C20.991 11.3029 20.9656 11.4331 20.9157 11.5547C20.8659 11.6762 20.7926 11.7868 20.7 11.88L13.31 19.31C12.7853 19.844 12.1597 20.2684 11.4696 20.5585C10.7795 20.8486 10.0386 20.9987 9.29 21Z"/>
        </symbol>
        <symbol id="close" viewBox="0 0 24 24" fill="currentColor">
            <path d="M10.7929 12.2071L5 6.41421L6.41421 5L12.2071 10.7929L18 5L19.4142 6.41421L13.6213 12.2071L19.4142 18L18 19.4142L12.2071 13.6213L6.41421 19.4142L5 18L10.7929 12.2071Z"/>
        </symbol>
        <symbol id="plane" viewBox="0 0 21 18" fill="currentColor">
            <path d="M0.886696 0.049754C0.655205 -0.0462032 0.386992 -0.000995466 0.202671 0.164938C0.01832 0.330958 -0.0473001 0.586497 0.0352474 0.816547L2.74973 8.38487L21 8.38508L0.886696 0.049754Z"/>
            <path d="M2.74962 9.61503L0.035136 17.1834C-0.0449037 17.4066 0.014447 17.6536 0.186229 17.8198C0.191573 17.8249 0.196977 17.83 0.202589 17.835C0.38691 18.001 0.655122 18.0462 0.886643 17.9503L20.9999 9.61512L2.74962 9.61503Z"/>
        </symbol>
        <symbol id="globe-alt" fill="none" viewBox="0 0 24 24" stroke="currentColor">
            <path stroke-linecap="round" stroke-linejoin="round" stroke-width="2" d="M21 12a9 9 0 01-9 9m9-9a9 9 0 00-9-9m9 9H3m9 9a9 9 0 01-9-9m9 9c1.657 0 3-4.03 3-9s-1.343-9-3-9m0 18c-1.657 0-3-4.03-3-9s1.343-9 3-9m-9 9a9 9 0 019-9" />
        </symbol>
        <symbol id="bell" fill="none" viewBox="0 0 24 24" stroke="currentColor">
            <path stroke-linecap="round" stroke-linejoin="round" stroke-width="2" d="M15 17h5l-1.405-1.405A2.032 2.032 0 0118 14.158V11a6.002 6.002 0 00-4-5.659V5a2 2 0 10-4 0v.341C7.67 6.165 6 8.388 6 11v3.159c0 .538-.214 1.055-.595 1.436L4 17h5m6 0v1a3 3 0 11-6 0v-1m6 0H9" />
        </symbol>
        <symbol id="chat-new" fill="none" viewBox="0 0 24 24" stroke="currentColor">
            <path stroke-linecap="round" stroke-linejoin="round" stroke-width="2" d="M8 12h.01M12 12h.01M16 12h.01M21 12c0 4.418-4.03 8-9 8a9.863 9.863 0 01-4.255-.949L3 20l1.395-3.72C3.512 15.042 3 13.574 3 12c0-4.418 4.03-8 9-8s9 3.582 9 8z" />
        </symbol>
        <symbol id="menu" fill="none" viewBox="0 0 24 24" stroke="currentColor">
            <path stroke-linecap="round" stroke-linejoin="round" stroke-width="2" d="M4 6h16M4 12h16M4 18h16" />
        </symbol>
        <symbol id="pencil-alt" viewBox="0 0 15 15" fill="currentColor">
            <path d="M10.586 0.610576C10.7705 0.419556 10.9912 0.267191 11.2352 0.162373C11.4792 0.0575555 11.7416 0.00238315 12.0072 7.55134e-05C12.2728 -0.00223212 12.5361 0.0483713 12.7819 0.148933C13.0277 0.249495 13.251 0.398001 13.4388 0.585786C13.6266 0.773572 13.7751 0.996876 13.8756 1.24267C13.9762 1.48846 14.0268 1.75182 14.0245 2.01738C14.0222 2.28294 13.967 2.54538 13.8622 2.78939C13.7574 3.03339 13.605 3.25408 13.414 3.43858L12.621 4.23158L9.793 1.40358L10.586 0.610576ZM8.379 2.81758L0 11.1966V14.0246H2.828L11.208 5.64558L8.379 2.81758Z"/>
        </symbol>
        <symbol id="check" viewBox="0 0 64 64" fill="currentColor">
            <path fill-rule="evenodd" clip-rule="evenodd" d="M53.4628 16.9373C54.7125 18.1869 54.7125 20.2131 53.4628 21.4627L27.8628 47.0627C26.6132 48.3124 24.587 48.3124 23.3374 47.0627L10.5374 34.2627C9.28768 33.0131 9.28768 30.9869 10.5374 29.7373C11.787 28.4876 13.8132 28.4876 15.0628 29.7373L25.6001 40.2745L48.9374 16.9373C50.187 15.6876 52.2132 15.6876 53.4628 16.9373Z" />
        </symbol>
        <symbol id="search" viewBox="0 0 18 17" fill="currentColor">
            <path d="M16.8339 15.4843L12.6199 11.2762C13.7034 10.0396 14.2971 8.48359 14.2971 6.86374C14.2971 3.07913 11.0902 0 7.14853 0C3.20689 0 8.44761e-09 3.07913 8.44761e-09 6.86374C8.44761e-09 10.6484 3.20689 13.7275 7.14853 13.7275C8.62827 13.7275 10.0384 13.299 11.244 12.4854L15.4899 16.7255C15.6674 16.9024 15.9061 17 16.1619 17C16.404 17 16.6337 16.9114 16.8081 16.7502C17.1785 16.4079 17.1903 15.8403 16.8339 15.4843ZM7.14853 1.79054C10.062 1.79054 12.4322 4.06632 12.4322 6.86374C12.4322 9.66117 10.062 11.9369 7.14853 11.9369C4.23504 11.9369 1.86483 9.66117 1.86483 6.86374C1.86483 4.06632 4.23504 1.79054 7.14853 1.79054Z" />
        </symbol>
        <symbol id="chat-alt" viewBox="0 0 20 20" fill="currentColor">
            <path fill-rule="evenodd" d="M18 5v8a2 2 0 01-2 2h-5l-5 4v-4H4a2 2 0 01-2-2V5a2 2 0 012-2h12a2 2 0 012 2zM7 8H5v2h2V8zm2 0h2v2H9V8zm6 0h-2v2h2V8z" clip-rule="evenodd" />
        </symbol>
        <symbol id="verified" viewBox="0 0 24 24" fill="currentColor">
            <path xmlns="http://www.w3.org/2000/svg" fill-rule="evenodd" clip-rule="evenodd" d="M7.52041 4.14594C8.29209 4.08436 9.02468 3.78091 9.61388 3.2788C10.9888 2.10706 13.0111 2.10706 14.3861 3.2788C14.9753 3.78091 15.7079 4.08436 16.4796 4.14594C18.2804 4.28965 19.7103 5.71962 19.854 7.52041C19.9156 8.29209 20.2191 9.02468 20.7212 9.61388C21.8929 10.9888 21.8929 13.0111 20.7212 14.3861C20.2191 14.9753 19.9156 15.7079 19.854 16.4796C19.7103 18.2804 18.2804 19.7103 16.4796 19.854C15.7079 19.9156 14.9753 20.2191 14.3861 20.7212C13.0111 21.8929 10.9888 21.8929 9.61388 20.7212C9.02468 20.2191 8.29209 19.9156 7.52041 19.854C5.71962 19.7103 4.28965 18.2804 4.14594 16.4796C4.08436 15.7079 3.78091 14.9753 3.2788 14.3861C2.10706 13.0111 2.10706 10.9888 3.2788 9.61388C3.78091 9.02468 4.08436 8.29209 4.14594 7.52041C4.28965 5.71962 5.71962 4.28965 7.52041 4.14594ZM16.4485 10.4485C16.9172 9.97989 16.9172 9.22009 16.4485 8.75147C15.9799 8.28284 15.2201 8.28284 14.7515 8.75147L10.8 12.7029L9.24852 11.1515C8.77989 10.6828 8.02009 10.6828 7.55147 11.1515C7.08284 11.6201 7.08284 12.3799 7.55147 12.8485L9.95147 15.2485C10.4201 15.7172 11.1799 15.7172 11.6485 15.2485L16.4485 10.4485Z"/>
        </symbol>
        <symbol id="switch-vertical" fill="none" viewBox="0 0 24 24" stroke="currentColor">
            <path stroke-linecap="round" stroke-linejoin="round" stroke-width="2" d="M7 16V4m0 0L3 8m4-4l4 4m6 0v12m0 0l4-4m-4 4l-4-4" />
        </symbol>
        <symbol id="hand" viewBox="0 0 20 20" fill="currentColor">
            <path fill-rule="evenodd" d="M9 3a1 1 0 012 0v5.5a.5.5 0 001 0V4a1 1 0 112 0v4.5a.5.5 0 001 0V6a1 1 0 112 0v5a7 7 0 11-14 0V9a1 1 0 012 0v2.5a.5.5 0 001 0V4a1 1 0 012 0v4.5a.5.5 0 001 0V3z" clip-rule="evenodd" />
        </symbol>
        <symbol id="credit-card" viewBox="0 0 20 20" fill="currentColor">
            <path d="M4 4a2 2 0 00-2 2v1h16V6a2 2 0 00-2-2H4z" />
            <path fill-rule="evenodd" d="M18 9H2v5a2 2 0 002 2h12a2 2 0 002-2V9zM4 13a1 1 0 011-1h1a1 1 0 110 2H5a1 1 0 01-1-1zm5-1a1 1 0 100 2h1a1 1 0 100-2H9z" clip-rule="evenodd" />
        </symbol>
        <symbol id="identification"  viewBox="0 0 20 20" fill="currentColor">
            <path fill-rule="evenodd" d="M10 2a1 1 0 00-1 1v1a1 1 0 002 0V3a1 1 0 00-1-1zM4 4h3a3 3 0 006 0h3a2 2 0 012 2v9a2 2 0 01-2 2H4a2 2 0 01-2-2V6a2 2 0 012-2zm2.5 7a1.5 1.5 0 100-3 1.5 1.5 0 000 3zm2.45 4a2.5 2.5 0 10-4.9 0h4.9zM12 9a1 1 0 100 2h3a1 1 0 100-2h-3zm-1 4a1 1 0 011-1h2a1 1 0 110 2h-2a1 1 0 01-1-1z" clip-rule="evenodd" />
        </symbol>
        <symbol id="users" viewBox="0 0 20 20" fill="currentColor">
            <path d="M9 6a3 3 0 11-6 0 3 3 0 016 0zM17 6a3 3 0 11-6 0 3 3 0 016 0zM12.93 17c.046-.327.07-.66.07-1a6.97 6.97 0 00-1.5-4.33A5 5 0 0119 16v1h-6.07zM6 11a5 5 0 015 5v1H1v-1a5 5 0 015-5z" />
        </symbol>
        <symbol id="arrow-left" fill="none" viewBox="0 0 24 24" stroke="currentColor">
            <path stroke-linecap="round" stroke-linejoin="round" stroke-width="2" d="M10 19l-7-7m0 0l7-7m-7 7h18" />
        </symbol>
        <symbol id="payment" fill="none" viewBox="0 0 16 16" stroke="currentColor">
            <path fill-rule="evenodd" clip-rule="evenodd" d="M3.2001 3.2002C2.77575 3.2002 2.36878 3.36877 2.06873 3.66882C1.76867 3.96888 1.6001 4.37585 1.6001 4.8002V8.0002C1.6001 8.42454 1.76867 8.83151 2.06873 9.13157C2.36878 9.43162 2.77575 9.6002 3.2001 9.6002V4.8002H11.2001C11.2001 4.37585 11.0315 3.96888 10.7315 3.66882C10.4314 3.36877 10.0244 3.2002 9.6001 3.2002H3.2001ZM4.8001 8.0002C4.8001 7.57585 4.96867 7.16888 5.26873 6.86882C5.56878 6.56877 5.97575 6.4002 6.4001 6.4002H12.8001C13.2244 6.4002 13.6314 6.56877 13.9315 6.86882C14.2315 7.16888 14.4001 7.57585 14.4001 8.0002V11.2002C14.4001 11.6245 14.2315 12.0315 13.9315 12.3316C13.6314 12.6316 13.2244 12.8002 12.8001 12.8002H6.4001C5.97575 12.8002 5.56878 12.6316 5.26873 12.3316C4.96867 12.0315 4.8001 11.6245 4.8001 11.2002V8.0002ZM9.6001 11.2002C10.0244 11.2002 10.4314 11.0316 10.7315 10.7316C11.0315 10.4315 11.2001 10.0245 11.2001 9.6002C11.2001 9.17585 11.0315 8.76888 10.7315 8.46882C10.4314 8.16877 10.0244 8.0002 9.6001 8.0002C9.17575 8.0002 8.76878 8.16877 8.46873 8.46882C8.16867 8.76888 8.0001 9.17585 8.0001 9.6002C8.0001 10.0245 8.16867 10.4315 8.46873 10.7316C8.76878 11.0316 9.17575 11.2002 9.6001 11.2002Z" fill="white"/>
        </symbol>
        <symbol id="check" viewBox="0 0 64 64" fill="currentColor">
            <path fill-rule="evenodd" clip-rule="evenodd" d="M53.4628 16.9373C54.7125 18.1869 54.7125 20.2131 53.4628 21.4627L27.8628 47.0627C26.6132 48.3124 24.587 48.3124 23.3374 47.0627L10.5374 34.2627C9.28768 33.0131 9.28768 30.9869 10.5374 29.7373C11.787 28.4876 13.8132 28.4876 15.0628 29.7373L25.6001 40.2745L48.9374 16.9373C50.187 15.6876 52.2132 15.6876 53.4628 16.9373Z" />
        </symbol>
        <symbol id="exclamation-circle" fill="none" viewBox="0 0 24 24" stroke="currentColor">
            <path stroke-linecap="round" stroke-linejoin="round" stroke-width="2" d="M12 8v4m0 4h.01M21 12a9 9 0 11-18 0 9 9 0 0118 0z" />
        </symbol>
        <symbol id="spinner" viewBox="0 0 32 32"  fill="currentColor">
            <path d="M16 0c-8.837 0-16 7.163-16 16s7.163 16 16 16 16-7.163 16-16-7.163-16-16-16zM16 8c4.418 0 8 3.582 8 8s-3.582 8-8 8-8-3.582-8-8 3.582-8 8-8zM25.546 25.546c-2.55 2.55-5.94 3.954-9.546 3.954s-6.996-1.404-9.546-3.954-3.954-5.94-3.954-9.546c0-3.606 1.404-6.996 3.954-9.546l2.121 2.121c0 0 0 0 0 0-4.094 4.094-4.094 10.755 0 14.849 1.983 1.983 4.62 3.075 7.425 3.075s5.441-1.092 7.425-3.075c4.094-4.094 4.094-10.755 0-14.849l2.121-2.121c2.55 2.55 3.954 5.94 3.954 9.546s-1.404 6.996-3.954 9.546z"></path>
        </symbol>
        <symbol id="menu-alt-4" viewBox="0 0 20 20" fill="currentColor">
            <path fill-rule="evenodd" d="M3 7a1 1 0 011-1h12a1 1 0 110 2H4a1 1 0 01-1-1zM3 13a1 1 0 011-1h12a1 1 0 110 2H4a1 1 0 01-1-1z" clip-rule="evenodd" />
        </symbol>
        <symbol id="information-circle" viewBox="0 0 20 20" fill="currentColor">
            <path fill-rule="evenodd" d="M18 10a8 8 0 11-16 0 8 8 0 0116 0zm-7-4a1 1 0 11-2 0 1 1 0 012 0zM9 9a1 1 0 000 2v3a1 1 0 001 1h1a1 1 0 100-2v-3a1 1 0 00-1-1H9z" clip-rule="evenodd" />
        </symbol>
        <symbol id="toggler" fill="none" viewBox="0 0 12 12">
            <path d="M4 8l2-2m0 0l2-2M6 6L4 4m2 2l2 2" stroke="currentColor" stroke-width="2" stroke-linecap="round" stroke-linejoin="round" />
        </symbol>
        <symbol id="toggler-check" fill="currentColor" viewBox="0 0 12 12">
            <path d="M3.707 5.293a1 1 0 00-1.414 1.414l1.414-1.414zM5 8l-.707.707a1 1 0 001.414 0L5 8zm4.707-3.293a1 1 0 00-1.414-1.414l1.414 1.414zm-7.414 2l2 2 1.414-1.414-2-2-1.414 1.414zm3.414 2l4-4-1.414-1.414-4 4 1.414 1.414z" />
        </symbol>
        <symbol id="pencil" fill="none" viewBox="0 0 24 24" stroke="currentColor">
            <path stroke-linecap="round" stroke-linejoin="round" stroke-width="2" d="M15.232 5.232l3.536 3.536m-2.036-5.036a2.5 2.5 0 113.536 3.536L6.5 21.036H3v-3.572L16.732 3.732z" />
        </symbol>
        <symbol id="cog" viewBox="0 0 20 20" fill="currentColor">
            <path fill-rule="evenodd" d="M11.49 3.17c-.38-1.56-2.6-1.56-2.98 0a1.532 1.532 0 01-2.286.948c-1.372-.836-2.942.734-2.106 2.106.54.886.061 2.042-.947 2.287-1.561.379-1.561 2.6 0 2.978a1.532 1.532 0 01.947 2.287c-.836 1.372.734 2.942 2.106 2.106a1.532 1.532 0 012.287.947c.379 1.561 2.6 1.561 2.978 0a1.533 1.533 0 012.287-.947c1.372.836 2.942-.734 2.106-2.106a1.533 1.533 0 01.947-2.287c1.561-.379 1.561-2.6 0-2.978a1.532 1.532 0 01-.947-2.287c.836-1.372-.734-2.942-2.106-2.106a1.532 1.532 0 01-2.287-.947zM10 13a3 3 0 100-6 3 3 0 000 6z" clip-rule="evenodd" />
        </symbol>
        <symbol id="facebook" fill="none" viewBox="0 0 16 16" >
            <path d="M9.721 3.325H11V1.099C10.779 1.069 10.02 1 9.138 1 7.295 1 6.033 2.16 6.033 4.289v1.96H4v2.489h2.033v6.261L8.526 15V8.739h1.951l.31-2.488H8.525V4.537c.001-.72.194-1.212 1.196-1.212Z" fill="#fff"/>
        </symbol>
        <symbol id="vk" fill="none" viewBox="0 0 16 16" >
            <path d="M15.851 11.34c0-.064-.063-.064-.063-.128-.255-.51-.828-1.146-1.592-1.846-.382-.318-.573-.573-.7-.7-.191-.255-.191-.446-.127-.7.063-.191.318-.51.764-1.083.254-.318.382-.509.573-.7.954-1.273 1.4-2.1 1.273-2.483l-.064-.063c-.064-.064-.127-.128-.255-.128-.127-.063-.318-.063-.509 0h-2.865l-.063.064c-.064.064-.064.064-.064.127-.255.7-.573 1.273-.891 1.91-.191.318-.382.637-.573.891-.191.255-.318.446-.446.573-.127.128-.254.191-.318.319-.064.063-.191.127-.191.063-.064 0-.127 0-.127-.063l-.191-.191c-.064-.064-.064-.191-.128-.319V3.7c0-.063-.063-.19-.063-.254l-.191-.191c-.064-.064-.191-.064-.255-.128A5.71 5.71 0 0 0 7.64 3c-1.018 0-1.719.064-1.973.191-.128.064-.255.127-.319.255-.127.127-.127.19-.063.19.318.064.573.192.7.383l.064.127c.063.064.063.19.127.382.064.19.064.382.064.636v1.019c0 .318-.064.51-.064.7 0 .191-.064.319-.127.382-.064.128-.064.191-.128.191 0 0 0 .064-.063.064-.064 0-.128.064-.255.064a.483.483 0 0 1-.255-.128.767.767 0 0 1-.318-.318 2.222 2.222 0 0 1-.382-.573c-.127-.255-.318-.51-.445-.891l-.128-.255a9.01 9.01 0 0 1-.318-.7c-.127-.318-.255-.573-.382-.891a.879.879 0 0 0-.191-.255h-.064s-.063-.064-.127-.064-.127-.063-.19-.063H.508c-.254 0-.382.063-.445.127L0 3.637v.127c0 .064 0 .127.064.255.318.763.7 1.527 1.082 2.291.382.7.764 1.337 1.018 1.783.319.445.573.891.892 1.273.318.382.509.637.573.764l.254.255.191.19c.128.128.319.319.573.51.255.19.573.382.891.573.319.19.7.318 1.083.445.445.128.827.191 1.21.128h.954a.578.578 0 0 0 .446-.191l.063-.064c0-.064.064-.064.064-.127v-.255c0-.255 0-.445.064-.636.063-.191.063-.319.127-.446a.878.878 0 0 1 .191-.255l.127-.127h.064c.127-.064.318 0 .446.127.19.128.382.319.509.51.127.19.318.382.573.636.255.255.446.446.573.51l.19.127c.128.063.255.127.446.19.191.064.319.064.446.064l2.164-.063c.191 0 .382-.064.51-.128.127-.063.19-.127.19-.254v-.255c-.127-.127-.127-.19-.127-.255Z" fill="#fff"/>
        </symbol>
        <symbol id="telegram"  viewBox="0 0 16 16" >
            <path d="M.28 7.7 3.96 9.07l1.434 4.615c.062.311.436.374.686.187l2.057-1.684c.187-.187.5-.187.748 0l3.679 2.681c.25.187.623.063.686-.25l2.743-13.092c.062-.312-.25-.624-.561-.499L.28 6.888c-.375.125-.375.687 0 .811Zm4.926.685 7.232-4.427c.125-.062.25.125.125.187L6.64 9.695c-.187.186-.374.436-.374.748l-.187 1.496c0 .187-.312.25-.374 0l-.748-2.743c-.187-.312-.063-.686.249-.81Z" fill="#fff"/>
        </symbol>

        <symbol id="telegram-user" viewBox="0 0 24 24" fill="currentColor">
            <path fill-rule="evenodd" clip-rule="evenodd" d="M6.66362 11.9439C9.25492 10.815 10.9829 10.0707 11.8474 9.71106C14.316 8.68431 14.8289 8.50595 15.1633 8.50006C15.2368 8.49877 15.4012 8.51699 15.5077 8.60341C15.5976 8.67638 15.6224 8.77495 15.6342 8.84413C15.646 8.91331 15.6608 9.07091 15.6491 9.19406C15.5153 10.5996 14.9365 14.0105 14.642 15.5847C14.5174 16.2508 14.272 16.4742 14.0345 16.496C13.5183 16.5435 13.1264 16.1549 12.6264 15.8272C11.8441 15.3143 11.4021 14.9951 10.6427 14.4947C9.76507 13.9163 10.334 13.5985 10.8341 13.079C10.965 12.943 13.2394 10.8743 13.2834 10.6867C13.2889 10.6632 13.294 10.5757 13.2421 10.5295C13.1901 10.4833 13.1134 10.4991 13.058 10.5117C12.9796 10.5295 11.7298 11.3556 9.30862 12.9899C8.95387 13.2335 8.63255 13.3522 8.34466 13.346C8.02728 13.3391 7.41676 13.1665 6.96291 13.019C6.40624 12.838 5.96381 12.7424 6.00234 12.435C6.02241 12.275 6.24283 12.1113 6.66362 11.9439Z"/>
        </symbol>

        <symbol id="twitter"  viewBox="0 0 16 16" >
            <path d="M16 2.551a7.06 7.06 0 0 1-1.877.49c.652-.408 1.224-1.061 1.469-1.796-.653.408-1.306.653-2.123.816A3.212 3.212 0 0 0 11.102 1a3.275 3.275 0 0 0-3.265 3.265c0 .245 0 .49.081.735a9.623 9.623 0 0 1-6.775-3.429 3.716 3.716 0 0 0-.408 1.633c0 1.143.571 2.123 1.47 2.694a2.819 2.819 0 0 1-1.47-.408c0 1.55 1.143 2.939 2.612 3.183-.245.082-.571.082-.898.082-.245 0-.408 0-.653-.082a3.259 3.259 0 0 0 3.102 2.286c-1.143.898-2.53 1.388-4.082 1.388-.245 0-.49 0-.816-.082 1.47.898 3.184 1.47 5.061 1.47 6.041 0 9.306-4.98 9.306-9.306V4.02c.653-.244 1.225-.816 1.633-1.469Z" fill="#fff"/>
        </symbol>
        <symbol id="viber"  viewBox="0 0 16 16" >
            <g clip-path="url(#a)">
                <path d="M12.307.88a21.554 21.554 0 0 0-8.056 0c-1.173.253-2.652 1.67-2.907 2.785a15.909 15.909 0 0 0 0 6.582c.306 1.114 1.785 2.532 2.907 2.785.05 0 .102.05.102.102v3.19c0 .151.204.253.306.1l1.53-1.569s1.223-1.266 1.427-1.468c0 0 .051-.05.102-.05 1.53.05 3.11-.102 4.64-.355 1.173-.253 2.652-1.671 2.906-2.785a15.91 15.91 0 0 0 0-6.583C14.96 2.551 13.48 1.133 12.308.88Zm.051 9.52c-.255.506-.56.91-1.07 1.164l-.46.152a6.482 6.482 0 0 1-.51-.152c-1.631-.658-3.16-1.57-4.385-2.886a12.178 12.178 0 0 1-1.682-2.532c-.204-.456-.408-.86-.561-1.317-.153-.405.102-.81.357-1.114a2.36 2.36 0 0 1 .917-.658c.255-.152.51-.05.714.152.408.506.816 1.013 1.122 1.57.204.354.153.76-.204 1.012-.102.051-.153.102-.255.203-.05.05-.153.101-.204.202a.49.49 0 0 0-.05.456c.407 1.165 1.172 2.076 2.345 2.583.204.1.357.152.612.152.357-.051.51-.456.765-.659.255-.202.56-.202.866-.05.255.152.51.354.816.557.255.202.51.354.765.557.153.1.204.354.102.607Zm-2.142-3.798c-.101 0-.05 0 0 0-.204 0-.254-.102-.305-.254 0-.1 0-.253-.051-.354a.962.962 0 0 0-.357-.557l-.306-.152c-.153-.05-.255-.05-.408-.05-.153-.051-.204-.152-.204-.304 0-.102.153-.203.255-.203.816.05 1.428.506 1.53 1.468V6.4c0 .101-.051.203-.153.203Zm-.51-2.228c-.254-.102-.51-.203-.815-.254-.102 0-.255-.05-.357-.05-.153 0-.255-.101-.204-.253 0-.152.102-.254.255-.203.51.05.969.152 1.427.355.918.455 1.428 1.215 1.581 2.227v.659c-.05.202-.408.253-.459 0 0-.05-.05-.152-.05-.203 0-.456-.103-.911-.307-1.316a2.736 2.736 0 0 0-1.07-.962Zm2.754 3.038c-.153 0-.255-.152-.255-.304 0-.304-.05-.608-.102-.912-.204-1.62-1.53-2.936-3.11-3.19-.255-.05-.51-.05-.714-.1-.153 0-.357 0-.408-.203-.051-.152.102-.304.255-.304h.102c2.09.05.102 0 0 0 2.142.05 3.926 1.468 4.283 3.595.051.354.102.709.102 1.114.102.152 0 .304-.153.304Z" fill="#fff"/>
            </g>
            <defs><clipPath id="a"><path fill="#fff" transform="translate(0 .5)" d="M0 0h16v16H0z"/></clipPath></defs>
        </symbol>
        <symbol id="whatsapp" viewBox="0 0 16 16" >
            <path d="M13.659 2.333A7.945 7.945 0 0 0 8.027 0C3.624 0 .056 3.556.056 7.944c0 1.39.39 2.778 1.059 3.945L0 16l4.237-1.111a8.151 8.151 0 0 0 3.79.944c4.405 0 7.973-3.555 7.973-7.944-.056-2.056-.836-4.056-2.341-5.556Zm-1.784 8.445c-.168.444-.948.889-1.338.944-.335.056-.78.056-1.227-.055-.279-.111-.669-.223-1.115-.445-2.007-.833-3.29-2.833-3.4-3-.112-.11-.837-1.055-.837-2.055 0-1 .502-1.445.67-1.667.166-.222.39-.222.557-.222h.39c.111 0 .279-.056.446.333.167.389.557 1.389.613 1.445a.353.353 0 0 1 0 .333 1.162 1.162 0 0 1-.223.333c-.111.111-.223.278-.279.334-.111.11-.223.222-.111.388.111.223.502.834 1.115 1.39.78.666 1.394.888 1.617 1 .223.11.334.055.446-.056.111-.111.501-.556.613-.778.111-.222.279-.167.446-.111.167.055 1.17.555 1.338.667.223.11.334.166.39.222.056.166.056.555-.111 1Z" fill="#fff"/>
        </symbol>
        <symbol id="star" viewBox="0 0 20 20" fill="currentColor">
            <path d="M9.049 2.927c.3-.921 1.603-.921 1.902 0l1.07 3.292a1 1 0 00.95.69h3.462c.969 0 1.371 1.24.588 1.81l-2.8 2.034a1 1 0 00-.364 1.118l1.07 3.292c.3.921-.755 1.688-1.54 1.118l-2.8-2.034a1 1 0 00-1.175 0l-2.8 2.034c-.784.57-1.838-.197-1.539-1.118l1.07-3.292a1 1 0 00-.364-1.118L2.98 8.72c-.783-.57-.38-1.81.588-1.81h3.461a1 1 0 00.951-.69l1.07-3.292z" />
        </symbol>
        <symbol id="clipboard-copy" viewBox="0 0 20 20" fill="currentColor">
            <path d="M8 2a1 1 0 000 2h2a1 1 0 100-2H8z" />
            <path d="M3 5a2 2 0 012-2 3 3 0 003 3h2a3 3 0 003-3 2 2 0 012 2v6h-4.586l1.293-1.293a1 1 0 00-1.414-1.414l-3 3a1 1 0 000 1.414l3 3a1 1 0 001.414-1.414L10.414 13H15v3a2 2 0 01-2 2H5a2 2 0 01-2-2V5zM15 11h2a1 1 0 110 2h-2v-2z" />
        </symbol>
        <symbol id="cash" viewBox="0 0 20 20" fill="currentColor">
            <path fill-rule="evenodd" d="M4 4a2 2 0 00-2 2v4a2 2 0 002 2V6h10a2 2 0 00-2-2H4zm2 6a2 2 0 012-2h8a2 2 0 012 2v4a2 2 0 01-2 2H8a2 2 0 01-2-2v-4zm6 4a2 2 0 100-4 2 2 0 000 4z" clip-rule="evenodd" />
        </symbol>
        <symbol id="newspaper" viewBox="0 0 20 20" fill="currentColor">
            <path fill-rule="evenodd" d="M2 5a2 2 0 012-2h8a2 2 0 012 2v10a2 2 0 002 2H4a2 2 0 01-2-2V5zm3 1h6v4H5V6zm6 6H5v2h6v-2z" clip-rule="evenodd" />
            <path d="M15 7h1a2 2 0 012 2v5.5a1.5 1.5 0 01-3 0V7z" />
        </symbol>
        <symbol id="warning-new" viewBox="0 0 24 24" stroke="currentColor" fill="transparent">
            <path d="M12 9V11M12 15H12.01M5.07183 19H18.9282C20.4678 19 21.4301 17.3333 20.6603 16L13.7321 4C12.9623 2.66667 11.0378 2.66667 10.268 4L3.33978 16C2.56998 17.3333 3.53223 19 5.07183 19Z" stroke-width="2" stroke-linecap="round" stroke-linejoin="round"/>
        </symbol>
        <symbol id="chevron-down" fill="none" viewBox="0 0 24 24" stroke="currentColor">
            <path stroke-linecap="round" stroke-linejoin="round" stroke-width="2" d="M19 9l-7 7-7-7" />
        </symbol>
        <symbol id="filters-empty" viewBox="0 0 22 22" fill="currentColor">
            <path d="M10.9999 11V18.2233C11.0366 18.4983 10.9449 18.7917 10.7341 18.9842C10.3766 19.3417 9.79908 19.3417 9.44158 18.9842L7.59908 17.1417C7.38824 16.9308 7.29658 16.6467 7.33324 16.3808V11H7.30574L2.02574 4.235C1.71408 3.84083 1.78741 3.26333 2.18158 2.95167C2.35574 2.82333 2.54824 2.75 2.74991 2.75H15.5832C15.7849 2.75 15.9774 2.82333 16.1516 2.95167C16.5457 3.26333 16.6191 3.84083 16.3074 4.235L11.0274 11H10.9999Z" />
        </symbol>
        <symbol id="filters-plus" viewBox="0 0 9 9" fill="currentColor">
            <path d="M0.75 3.58301H3.5V0.833008H5.33333V3.58301H8.08333V5.41634H5.33333V8.16634H3.5V5.41634H0.75V3.58301Z" />
        </symbol>
        <symbol id="volume-off" fill="none" viewBox="0 0 24 24" stroke="currentColor">
            <path stroke-linecap="round" stroke-linejoin="round" stroke-width="2" d="M5.586 15H4a1 1 0 01-1-1v-4a1 1 0 011-1h1.586l4.707-4.707C10.923 3.663 12 4.109 12 5v14c0 .891-1.077 1.337-1.707.707L5.586 15z" clip-rule="evenodd" />
            <path stroke-linecap="round" stroke-linejoin="round" stroke-width="2" d="M17 14l2-2m0 0l2-2m-2 2l-2-2m2 2l2 2" />
        </symbol>
        <symbol id="volume-up" fill="none" viewBox="0 0 24 24" stroke="currentColor">
            <path stroke-linecap="round" stroke-linejoin="round" stroke-width="2" d="M15.536 8.464a5 5 0 010 7.072m2.828-9.9a9 9 0 010 12.728M5.586 15H4a1 1 0 01-1-1v-4a1 1 0 011-1h1.586l4.707-4.707C10.923 3.663 12 4.109 12 5v14c0 .891-1.077 1.337-1.707.707L5.586 15z" />
        </symbol>
        <symbol id="paper-airplane" viewBox="0 0 20 20" fill="currentColor">
            <path d="M10.894 2.553a1 1 0 00-1.788 0l-7 14a1 1 0 001.169 1.409l5-1.429A1 1 0 009 15.571V11a1 1 0 112 0v4.571a1 1 0 00.725.962l5 1.428a1 1 0 001.17-1.408l-7-14z" />
        </symbol>
        <symbol id="paper-clip" fill="none" viewBox="0 0 24 24" stroke="currentColor">
            <path stroke-linecap="round" stroke-linejoin="round" stroke-width="2" d="M15.172 7l-6.586 6.586a2 2 0 102.828 2.828l6.414-6.586a4 4 0 00-5.656-5.656l-6.415 6.585a6 6 0 108.486 8.486L20.5 13" />
        </symbol>
        <symbol id="exclamation" fill="none" viewBox="0 0 24 24" stroke="currentColor">
            <path stroke-linecap="round" stroke-linejoin="round" stroke-width="2" d="M12 9v2m0 4h.01m-6.938 4h13.856c1.54 0 2.502-1.667 1.732-3L13.732 4c-.77-1.333-2.694-1.333-3.464 0L3.34 16c-.77 1.333.192 3 1.732 3z" />
        </symbol>
        <symbol id="rating-negative" viewBox="0 0 24 24" fill="currentColor">
            <path d="M22.3909 5.97645C21.3178 4.13803 19.8622 2.68243 18.0238 1.60938C16.1849 0.536388 14.1775 0 12.0004 0C9.82322 0 7.81531 0.536388 5.97684 1.60938C4.13825 2.68227 2.68265 4.13787 1.60955 5.97645C0.536388 7.81515 0 9.82306 0 12C0 14.1771 0.536552 16.1847 1.60938 18.0235C2.68243 19.8619 4.13803 21.3175 5.97662 22.3907C7.81531 23.4635 9.82306 23.9998 12.0001 23.9998C14.1772 23.9998 16.1852 23.4634 18.0238 22.3907C19.8622 21.3176 21.3178 19.8619 22.3908 18.0235C23.4636 16.1847 23.9999 14.177 23.9999 12C24 9.82284 23.4636 7.81487 22.3909 5.97645ZM21.2034 15.8828C20.6721 17.1172 19.9613 18.1798 19.0707 19.0704C18.1802 19.9608 17.1175 20.6717 15.8831 21.2029C14.6487 21.7344 13.3545 21.9999 12.0004 21.9999C10.6462 21.9999 9.35202 21.734 8.11752 21.2029C6.88319 20.6717 5.82053 19.9608 4.92989 19.0704C4.03952 18.1797 3.32861 17.1173 2.79714 15.8828C2.2659 14.6485 2.0002 13.354 2.0002 12C2.0002 10.6458 2.26585 9.35169 2.79714 8.11719C3.32839 6.88286 4.0393 5.82037 4.92989 4.92956C5.82053 4.03919 6.88319 3.32822 8.11752 2.79682C9.35185 2.26574 10.6462 2.00009 12.0004 2.00009C13.3543 2.00009 14.6489 2.26557 15.8831 2.79682C17.1175 3.32806 18.18 4.03903 19.0707 4.92956C19.9612 5.82021 20.6721 6.88269 21.2034 8.11719C21.7348 9.35153 22.0005 10.6457 22.0005 12C22.0007 13.3542 21.7348 14.6487 21.2034 15.8828Z"/>
            <path d="M17.0781 18.9494C16.8177 19.0332 16.5627 19.0116 16.3124 18.8868C16.0622 18.762 15.8956 18.5639 15.8128 18.293C15.5526 17.4596 15.0706 16.785 14.3673 16.2696C13.6644 15.754 12.8751 15.496 12 15.496C11.1252 15.496 10.3362 15.7541 9.63295 16.2696C8.92986 16.7852 8.44809 17.4596 8.18764 18.293C8.1044 18.5639 7.94021 18.762 7.69553 18.8868C7.45073 19.0115 7.19821 19.0332 6.93776 18.9494C6.66691 18.8662 6.46907 18.7021 6.34396 18.4576C6.21897 18.213 6.19806 17.9597 6.28152 17.6998C6.66675 16.439 7.38555 15.4235 8.43764 14.6526C9.48984 13.8817 10.6773 13.4967 12.0002 13.4967C13.3229 13.4967 14.5107 13.8817 15.5629 14.6526C16.6143 15.4239 17.3332 16.439 17.7186 17.6998C17.8025 17.9597 17.7815 18.213 17.6564 18.4576C17.5309 18.7021 17.338 18.8658 17.0781 18.9494Z"/>
            <path d="M8.00014 10.0002C8.55207 10.0002 9.0235 9.80446 9.41415 9.41409C9.80485 9.0236 10.0002 8.55218 10.0002 8.00008C10.0002 7.44793 9.80485 6.97673 9.41415 6.58608C9.02344 6.19543 8.55207 6 8.00014 6C7.44805 6 6.97662 6.19543 6.58597 6.58608C6.19549 6.97678 6 7.44799 6 8.00008C6 8.55218 6.19527 9.0236 6.58597 9.41409C6.97678 9.80462 7.44799 10.0002 8.00014 10.0002Z"/>
            <path d="M16.0005 6C15.4483 6 14.9767 6.19543 14.586 6.58608C14.1957 6.97678 14 7.44799 14 8.00008C14 8.55218 14.1957 9.0236 14.586 9.41409C14.9767 9.80468 15.4483 10.0002 16.0005 10.0002C16.5522 10.0002 17.0238 9.80446 17.4145 9.41409C17.8052 9.0236 18.0005 8.55218 18.0005 8.00008C18.0005 7.44793 17.8052 6.97673 17.4145 6.58608C17.0238 6.19543 16.5522 6 16.0005 6Z"/>
        </symbol>
        <symbol id="rating-neutral" viewBox="0 0 24 24" fill="currentColor">
            <path d="M22.3909 5.97645C21.3178 4.13803 19.8622 2.68243 18.0238 1.60938C16.1849 0.536388 14.1775 0 12.0004 0C9.82322 0 7.81531 0.536388 5.97684 1.60938C4.13825 2.68227 2.68265 4.13787 1.60955 5.97645C0.536388 7.81515 0 9.82306 0 12C0 14.1771 0.536552 16.1847 1.60938 18.0235C2.68243 19.8619 4.13803 21.3175 5.97662 22.3907C7.81531 23.4635 9.82306 23.9998 12.0001 23.9998C14.1772 23.9998 16.1852 23.4634 18.0238 22.3907C19.8622 21.3176 21.3178 19.8619 22.3908 18.0235C23.4636 16.1847 23.9999 14.177 23.9999 12C24 9.82284 23.4636 7.81487 22.3909 5.97645ZM21.2034 15.8828C20.6721 17.1172 19.9613 18.1798 19.0707 19.0704C18.1802 19.9608 17.1175 20.6717 15.8831 21.2029C14.6487 21.7344 13.3545 21.9999 12.0004 21.9999C10.6462 21.9999 9.35202 21.734 8.11752 21.2029C6.88319 20.6717 5.82053 19.9608 4.92989 19.0704C4.03952 18.1797 3.32861 17.1173 2.79714 15.8828C2.2659 14.6485 2.0002 13.354 2.0002 12C2.0002 10.6458 2.26585 9.35169 2.79714 8.11719C3.32839 6.88286 4.0393 5.82037 4.92989 4.92956C5.82053 4.03919 6.88319 3.32822 8.11752 2.79682C9.35185 2.26574 10.6462 2.00009 12.0004 2.00009C13.3543 2.00009 14.6489 2.26557 15.8831 2.79682C17.1175 3.32806 18.18 4.03903 19.0707 4.92956C19.9612 5.82021 20.6721 6.88269 21.2034 8.11719C21.7348 9.35153 22.0005 10.6457 22.0005 12C22.0007 13.3542 21.7348 14.6487 21.2034 15.8828Z"/>
            <path d="M8.00014 10.0002C8.55207 10.0002 9.0235 9.80446 9.41415 9.41409C9.80485 9.0236 10.0002 8.55218 10.0002 8.00008C10.0002 7.44793 9.80485 6.97673 9.41415 6.58608C9.02344 6.19543 8.55207 6 8.00014 6C7.44805 6 6.97662 6.19543 6.58597 6.58608C6.19549 6.97678 6 7.44799 6 8.00008C6 8.55218 6.19527 9.0236 6.58597 9.41409C6.97678 9.80462 7.44799 10.0002 8.00014 10.0002Z"/>
            <path d="M16.0005 6C15.4483 6 14.9767 6.19543 14.586 6.58608C14.1957 6.97678 14 7.44799 14 8.00008C14 8.55218 14.1957 9.0236 14.586 9.41409C14.9767 9.80468 15.4483 10.0002 16.0005 10.0002C16.5522 10.0002 17.0238 9.80446 17.4145 9.41409C17.8052 9.0236 18.0005 8.55218 18.0005 8.00008C18.0005 7.44793 17.8052 6.97673 17.4145 6.58608C17.0238 6.19543 16.5522 6 16.0005 6Z"/>
            <path d="M6 16C6 15.4477 6.44772 15 7 15H17C17.5523 15 18 15.4477 18 16C18 16.5523 17.5523 17 17 17H7C6.44772 17 6 16.5523 6 16Z"/>
        </symbol>
        <symbol id="rating-positive" viewBox="0 0 24 24" fill="currentColor">
            <path d="M22.3909 5.97645C21.3178 4.13803 19.8622 2.68243 18.0238 1.60938C16.1849 0.536388 14.1775 0 12.0004 0C9.82322 0 7.81531 0.536388 5.97684 1.60938C4.13825 2.68227 2.68265 4.13787 1.60955 5.97645C0.536388 7.81515 0 9.82306 0 12C0 14.1771 0.536552 16.1847 1.60938 18.0235C2.68243 19.8619 4.13803 21.3175 5.97662 22.3907C7.81531 23.4635 9.82306 23.9998 12.0001 23.9998C14.1772 23.9998 16.1852 23.4634 18.0238 22.3907C19.8622 21.3176 21.3178 19.8619 22.3908 18.0235C23.4636 16.1847 23.9999 14.177 23.9999 12C24 9.82284 23.4636 7.81487 22.3909 5.97645ZM21.2034 15.8828C20.6721 17.1172 19.9613 18.1798 19.0707 19.0704C18.1802 19.9608 17.1175 20.6717 15.8831 21.2029C14.6487 21.7344 13.3545 21.9999 12.0004 21.9999C10.6462 21.9999 9.35202 21.734 8.11752 21.2029C6.88319 20.6717 5.82053 19.9608 4.92989 19.0704C4.03952 18.1797 3.32861 17.1173 2.79714 15.8828C2.2659 14.6485 2.0002 13.354 2.0002 12C2.0002 10.6458 2.26585 9.35169 2.79714 8.11719C3.32839 6.88286 4.0393 5.82037 4.92989 4.92956C5.82053 4.03919 6.88319 3.32822 8.11752 2.79682C9.35185 2.26574 10.6462 2.00009 12.0004 2.00009C13.3543 2.00009 14.6489 2.26557 15.8831 2.79682C17.1175 3.32806 18.18 4.03903 19.0707 4.92956C19.9612 5.82021 20.6721 6.88269 21.2034 8.11719C21.7348 9.35153 22.0005 10.6457 22.0005 12C22.0007 13.3542 21.7348 14.6487 21.2034 15.8828Z"/>
            <path d="M17.0781 13.5469C16.8177 13.4631 16.5627 13.4848 16.3124 13.6096C16.0622 13.7343 15.8956 13.9324 15.8128 14.2033C15.5526 15.0368 15.0706 15.7113 14.3673 16.2268C13.6644 16.7424 12.8751 17.0003 12 17.0003C11.1252 17.0003 10.3362 16.7422 9.63295 16.2268C8.92986 15.7112 8.44809 15.0368 8.18764 14.2033C8.1044 13.9325 7.94021 13.7343 7.69553 13.6096C7.45073 13.4848 7.19821 13.4631 6.93776 13.5469C6.66691 13.6301 6.46907 13.7942 6.34396 14.0388C6.21897 14.2834 6.19806 14.5366 6.28152 14.7966C6.66675 16.0574 7.38555 17.0729 8.43764 17.8438C9.48984 18.6147 10.6773 18.9997 12.0002 18.9997C13.3229 18.9997 14.5107 18.6147 15.5629 17.8438C16.6143 17.0725 17.3332 16.0574 17.7186 14.7966C17.8025 14.5366 17.7815 14.2834 17.6564 14.0388C17.5309 13.7942 17.338 13.6306 17.0781 13.5469Z"/>
            <path d="M8.00014 10.0002C8.55207 10.0002 9.0235 9.80446 9.41415 9.41409C9.80485 9.0236 10.0002 8.55218 10.0002 8.00008C10.0002 7.44793 9.80485 6.97673 9.41415 6.58608C9.02344 6.19543 8.55207 6 8.00014 6C7.44805 6 6.97662 6.19543 6.58597 6.58608C6.19549 6.97678 6 7.44799 6 8.00008C6 8.55218 6.19527 9.0236 6.58597 9.41409C6.97678 9.80462 7.44799 10.0002 8.00014 10.0002Z"/>
            <path d="M16.0005 6C15.4483 6 14.9767 6.19543 14.586 6.58608C14.1957 6.97678 14 7.44799 14 8.00008C14 8.55218 14.1957 9.0236 14.586 9.41409C14.9767 9.80468 15.4483 10.0002 16.0005 10.0002C16.5522 10.0002 17.0238 9.80446 17.4145 9.41409C17.8052 9.0236 18.0005 8.55218 18.0005 8.00008C18.0005 7.44793 17.8052 6.97673 17.4145 6.58608C17.0238 6.19543 16.5522 6 16.0005 6Z"/>
        </symbol>
        <symbol id="dots-vertical" viewBox="0 0 20 20" fill="currentColor">
            <path d="M10 6a2 2 0 110-4 2 2 0 010 4zM10 12a2 2 0 110-4 2 2 0 010 4zM10 18a2 2 0 110-4 2 2 0 010 4z" />
        </symbol>
        <symbol id="flag" viewBox="0 0 20 20" fill="currentColor">
            <path fill-rule="evenodd" d="M3 6a3 3 0 013-3h10a1 1 0 01.8 1.6L14.25 8l2.55 3.4A1 1 0 0116 13H6a1 1 0 00-1 1v3a1 1 0 11-2 0V6z" clip-rule="evenodd" />
        </symbol>
        <symbol id="file" viewBox="0 -256 1792 1792" fill="currentColor">
            <g transform="matrix(1, 0, 0, -1, 242.98304748535168, 1285.4237060546877)" id="g4">
                <path d="m 1024,352 v -64 q 0,-14 -9,-23 -9,-9 -23,-9 H 288 q -14,0 -23,9 -9,9 -9,23 v 64 q 0,14 9,23 9,9 23,9 h 704 q 14,0 23,-9 9,-9 9,-23 z m 0,256 v -64 q 0,-14 -9,-23 -9,-9 -23,-9 H 288 q -14,0 -23,9 -9,9 -9,23 v 64 q 0,14 9,23 9,9 23,9 h 704 q 14,0 23,-9 9,-9 9,-23 z M 128,0 H 1152 V 768 H 736 q -40,0 -68,28 -28,28 -28,68 v 416 H 128 V 0 z m 640,896 h 299 L 768,1195 V 896 z M 1280,768 V -32 q 0,-40 -28,-68 -28,-28 -68,-28 H 96 q -40,0 -68,28 -28,28 -28,68 v 1344 q 0,40 28,68 28,28 68,28 h 544 q 40,0 88,-20 48,-20 76,-48 l 408,-408 q 28,-28 48,-76 20,-48 20,-88 z" id="path6"/>
            </g>
        </symbol>
    </defs>
</svg>
