<svg width="63" height="62" viewBox="0 0 63 62" fill="none" xmlns="http://www.w3.org/2000/svg">
<g clip-path="url(#clip0_2271_1740)">
<path d="M62.3789 31.0116C62.3789 13.9485 48.5465 0.116211 31.4835 0.116211C14.4205 0.116211 0.588135 13.9485 0.588135 31.0116C0.588135 48.0746 14.4205 61.9069 31.4835 61.9069C48.5465 61.9069 62.3789 48.0746 62.3789 31.0116Z" fill="url(#paint0_linear_2271_1740)"/>
<path d="M13.4337 23.9543H8.48853V30.0534H13.4337V23.9543Z" fill="white"/>
<path d="M13.4336 23.9543V37.8008H18.5436V28.9843C18.5436 26.2066 16.2555 23.9543 13.4336 23.9543Z" fill="white" stroke="white" stroke-width="0.173083" stroke-miterlimit="10"/>
<path d="M8.57507 28.9843C8.57507 26.2824 10.7053 24.0886 13.3472 24.0417V37.7143H8.57507V28.9843Z" fill="#0E8A50" stroke="white" stroke-width="0.173083"/>
<path d="M19.0198 22.9631H7.85767V38.5893H19.0198V22.9631Z" stroke="white" stroke-width="0.346167" stroke-miterlimit="10"/>
<path d="M27.0027 27.3676H23.9387V24.1706H27.9485V23.1094H21.0034V32.8979H27.0019C27.867 32.8979 28.5681 32.1968 28.5681 31.3318V28.9345C28.5681 28.0694 27.867 27.3683 27.0019 27.3683L27.0027 27.3676ZM25.5512 31.8286C25.5512 31.8639 25.5225 31.8926 25.4872 31.8926H24.0438C24.0086 31.8926 23.9799 31.8639 23.9799 31.8286V28.5802C23.9799 28.5449 24.0086 28.5163 24.0438 28.5163H25.4872C25.5225 28.5163 25.5512 28.5449 25.5512 28.5802V31.8286Z" fill="white" stroke="white" stroke-width="0.173083" stroke-miterlimit="10"/>
<path d="M35.5419 23.11H31.0221L28.5688 32.8986H31.6276L32.1237 30.5556H34.4108L34.6864 33.1462H37.718L35.5412 23.11H35.5419ZM34.1418 29.1776H32.3927C32.3604 29.1776 32.3368 29.1482 32.3427 29.1173L33.1659 24.718C33.1761 24.6629 33.2548 24.6622 33.2665 24.7165L34.1926 29.1159C34.1992 29.1475 34.1749 29.1776 34.1426 29.1776H34.1418Z" fill="white" stroke="white" stroke-width="0.173083" stroke-miterlimit="10"/>
<path d="M42.9551 23.0754V27.1381H41.4668V23.11H38.4904V32.9669H41.4668V28.5022H42.9551V32.9324H45.9316V23.0754H42.9551Z" fill="white" stroke="white" stroke-width="0.129812" stroke-miterlimit="10"/>
<path d="M55.1095 33.1462L52.3807 27.6754L54.7788 23.0754H51.6369L49.9422 26.7633V23.11H46.9657V33.0081H49.9422V29.1563L52.2572 33.1462H55.1095Z" fill="white" stroke="white" stroke-width="0.129812" stroke-miterlimit="10"/>
<path d="M32.145 38.7135H33.6127L32.7028 33.7115H30.1607L29.0443 38.7135H30.6156L30.7802 37.5009H31.9745L32.145 38.7135ZM30.8787 36.7703L31.1734 34.6001H31.5659L31.8716 36.7703H30.8787Z" fill="white" stroke="white" stroke-width="0.129812" stroke-miterlimit="10"/>
<path d="M44.7411 38.7135H46.2087L45.2989 33.7115H42.7567L41.6404 38.7135H43.2117L43.3763 37.5009H44.5706L44.7411 38.7135ZM43.4748 36.7703L43.7695 34.6001H44.1619L44.4677 36.7703H43.4748Z" fill="white" stroke="white" stroke-width="0.129812" stroke-miterlimit="10"/>
<path d="M22.9812 38.7135H24.4488L23.539 33.7115H20.9969L19.8805 38.7135H21.4518L21.6164 37.5009H22.8107L22.9812 38.7135ZM21.7156 36.7703L22.0103 34.6001H22.4028L22.7085 36.7703H21.7156Z" fill="white" stroke="white" stroke-width="0.129812" stroke-miterlimit="10"/>
<path d="M36.5891 33.7836V35.8818H35.7624V33.7115H34.3983V38.7135H35.7624V36.4602H36.5891V38.7855H37.9532V33.7836H36.5891Z" fill="white" stroke="white" stroke-width="0.129812" stroke-miterlimit="10"/>
<path d="M41.7873 33.7115H40.2271H39.5965H38.9659V38.651H40.2271V34.2797H41.7873V33.7115Z" fill="white" stroke="white" stroke-width="0.129812" stroke-miterlimit="10"/>
<path d="M49.5143 33.7799H46.8546V38.7128H48.1915V36.9629H49.5143C50.0317 36.9629 50.4514 36.5433 50.4514 36.0259V34.7169C50.4514 34.1996 50.0317 33.7799 49.5143 33.7799ZM49.1836 36.3294C49.1836 36.3823 49.1403 36.4257 49.0873 36.4257H48.3017C48.2488 36.4257 48.2054 36.3823 48.2054 36.3294V34.4832C48.2054 34.4303 48.2488 34.387 48.3017 34.387H49.0873C49.1403 34.387 49.1836 34.4303 49.1836 34.4832V36.3294Z" fill="white" stroke="white" stroke-width="0.129812" stroke-miterlimit="10"/>
<path d="M28.6335 35.3819V34.5103C28.6335 34.0686 28.2756 33.7107 27.8339 33.7107H24.9331V38.6509H27.8339C28.2756 38.6509 28.6335 38.293 28.6335 37.8513V36.9797C28.6335 36.538 28.2756 36.1801 27.8339 36.1801C28.2756 36.1801 28.6335 35.8222 28.6335 35.3805V35.3819ZM27.1357 37.9138C27.1357 38.0167 27.0527 38.0997 26.9498 38.0997H26.3368V36.5078H26.9498C27.0527 36.5078 27.1357 36.5909 27.1357 36.6938V37.913V37.9138ZM27.1357 35.5642C27.1357 35.6671 27.0527 35.7501 26.9498 35.7501H26.3368V34.3582H26.9498C27.0527 34.3582 27.1357 34.4412 27.1357 34.5441V35.5642Z" fill="white" stroke="white" stroke-width="0.129812" stroke-miterlimit="10"/>
<path d="M54.4584 37.866V33.918H50.9858V37.866H50.2104V39.1066H51.5539V38.4863H53.4765V39.1066H54.8817V37.866H54.4576H54.4584ZM53.3832 37.8866H52.3601V34.3869H53.3832V37.8866Z" fill="white" stroke="white" stroke-width="0.129812" stroke-miterlimit="10"/>
<path d="M13.2688 36.3173C13.0307 36.3173 12.7949 36.2704 12.5749 36.1792C12.3549 36.0881 12.155 35.9545 11.9867 35.7862C11.8183 35.6178 11.6847 35.4179 11.5936 35.1979C11.5025 34.9779 11.4556 34.7421 11.4556 34.504C11.4556 34.2659 11.5025 34.0301 11.5936 33.8101C11.6847 33.5901 11.8183 33.3903 11.9867 33.2219C12.155 33.0535 12.3549 32.9199 12.5749 32.8288C12.7949 32.7377 13.0307 32.6908 13.2688 32.6908L13.2688 34.504L13.2688 36.3173Z" fill="white"/>
<path d="M13.2688 36.3173C13.5069 36.3173 13.7427 36.2704 13.9627 36.1792C14.1827 36.0881 14.3826 35.9545 14.5509 35.7862C14.7193 35.6178 14.8529 35.4179 14.944 35.1979C15.0351 34.9779 15.082 34.7421 15.082 34.504C15.082 34.2659 15.0351 34.0301 14.944 33.8101C14.8529 33.5901 14.7193 33.3903 14.5509 33.2219C14.3826 33.0535 14.1827 32.9199 13.9627 32.8288C13.7427 32.7377 13.5069 32.6908 13.2688 32.6908L13.2688 34.504L13.2688 36.3173Z" fill="#0E8A50"/>
</g>
<defs>
<linearGradient id="paint0_linear_2271_1740" x1="6.04026" y1="-32.7696" x2="62.3789" y2="108.466" gradientUnits="userSpaceOnUse">
<stop offset="0.1" stop-color="#19C173"/>
<stop offset="0.700494" stop-color="#034B29"/>
</linearGradient>
<clipPath id="clip0_2271_1740">
<rect width="61.7907" height="61.7907" fill="white" transform="translate(0.588135 0.116211)"/>
</clipPath>
</defs>
</svg>
