<svg width="63" height="63" viewBox="0 0 63 63" fill="none" xmlns="http://www.w3.org/2000/svg">
<path d="M62.1836 31.5523C62.1836 14.4893 48.3513 0.656982 31.2882 0.656982C14.2252 0.656982 0.392883 14.4893 0.392883 31.5523C0.392883 48.6154 14.2252 62.4477 31.2882 62.4477C48.3513 62.4477 62.1836 48.6154 62.1836 31.5523Z" fill="url(#paint0_linear_2271_2263)"/>
<path d="M47.9147 36.3646L42.9922 31.4421L47.9147 26.5195L52.8373 31.4421L47.9147 36.3646Z" fill="#FAD528"/>
<path d="M14.8351 36.3646L9.9126 31.4421L14.8351 26.5195L19.7577 31.4421L14.8351 36.3646Z" fill="#FAD528"/>
<path d="M31.3748 43.3549L23.2034 35.1835L18.3793 40.0076L31.3748 53.0031L44.3704 40.0076L39.5463 35.1835L31.3748 43.3549Z" fill="#FAD528"/>
<path d="M31.3748 36.168L26.7476 31.5408L31.3748 26.9136L36.002 31.5408L31.3748 36.168Z" fill="#FAD528"/>
<path d="M23.0066 28.0948L18.1825 23.2707L31.2765 10.1768L44.3704 23.2707L39.5463 28.0948L31.2765 19.825L23.0066 28.0948Z" fill="#FAD528"/>
<defs>
<linearGradient id="paint0_linear_2271_2263" x1="130.638" y1="167.077" x2="7.74892" y2="-7.65102" gradientUnits="userSpaceOnUse">
<stop offset="0.335418" stop-color="#CD4666" stop-opacity="0.75"/>
<stop offset="0.890165" stop-color="#6B21C4"/>
</linearGradient>
</defs>
</svg>
