<svg width="63" height="63" viewBox="0 0 63 63" fill="none" xmlns="http://www.w3.org/2000/svg">
<path d="M62.3569 31.7386C62.3569 14.6756 48.5246 0.843262 31.4615 0.843262C14.3985 0.843262 0.566162 14.6756 0.566162 31.7386C0.566162 48.8017 14.3985 62.634 31.4615 62.634C48.5246 62.634 62.3569 48.8017 62.3569 31.7386Z" fill="url(#paint0_linear_2271_2245)"/>
<path d="M48.0877 36.5509L43.1652 31.6284L48.0877 26.7058L53.0103 31.6284L48.0877 36.5509Z" fill="#242424"/>
<path d="M15.0082 36.5509L10.0857 31.6284L15.0082 26.7058L19.9308 31.6284L15.0082 36.5509Z" fill="#242424"/>
<path d="M31.5479 43.5409L23.3765 35.3695L18.5524 40.1936L31.5479 53.1891L44.5435 40.1936L39.7194 35.3695L31.5479 43.5409Z" fill="#242424"/>
<path d="M31.5479 36.354L26.9207 31.7268L31.5479 27.0996L36.1751 31.7268L31.5479 36.354Z" fill="#242424"/>
<path d="M23.1798 28.2811L18.3557 23.457L31.4497 10.363L44.5437 23.457L39.7196 28.2811L31.4497 20.0112L23.1798 28.2811Z" fill="#242424"/>
<defs>
<linearGradient id="paint0_linear_2271_2245" x1="130.811" y1="167.263" x2="7.9222" y2="-7.46474" gradientUnits="userSpaceOnUse">
<stop offset="0.40835" stop-color="#7946CD" stop-opacity="0.24"/>
<stop offset="0.890165" stop-color="#F4BC08"/>
</linearGradient>
</defs>
</svg>
