<svg width="63" height="63" viewBox="0 0 63 63" fill="none" xmlns="http://www.w3.org/2000/svg">
<path d="M62.2279 31.7386C62.2279 14.6756 48.3955 0.843262 31.3325 0.843262C14.2695 0.843262 0.437134 14.6756 0.437134 31.7386C0.437134 48.8017 14.2695 62.634 31.3325 62.634C48.3955 62.634 62.2279 48.8017 62.2279 31.7386Z" fill="url(#paint0_linear_2271_2232)"/>
<path d="M39.7463 21.0817L37.8797 20.5552L39.3747 14.7768L36.1221 13.9364L34.5512 19.6151L32.1263 18.9291L33.3817 13.1874L29.9442 12.4399L28.5136 17.9077L22.0003 16.0674L20.9465 19.8044L23.7298 20.4837C24.5872 20.693 25.1125 21.5617 24.9043 22.4237L21.3792 36.9882C21.1843 37.7938 20.3667 38.2787 19.5721 38.0595L17.2925 37.4317L15.4953 41.5424L22.2333 43.22L20.8853 48.6428L24.3691 49.5763L25.831 44.1152L28.2295 44.7131L26.9708 50.3237L30.2944 51.2106L31.8289 45.6083L34.2704 46.2162C38.4628 47.2609 43.5572 45.1848 44.2857 39.5792L44.3517 39.355C44.7647 36.4019 43.1855 34.1597 40.8333 32.9638C42.5198 32.8127 44.1717 31.4906 44.6359 29.8529L44.8291 29.172C45.8335 25.6292 43.9289 22.0599 39.748 21.0783L39.7463 21.0817ZM37.1694 39.659C36.7399 40.9046 35.506 41.6803 34.2043 41.5258L26.9708 40.0111L28.5136 33.7827L34.5991 35.1396C36.4922 35.7492 38.0433 37.7688 37.1694 39.6606V39.659ZM38.3968 28.2884C38.0102 30.0024 36.3435 31.0986 34.6255 30.7714L29.6187 29.8164L31.1054 23.7341L36.327 25.1077C37.6567 25.5694 38.5074 26.8782 38.3968 28.2884Z" fill="white"/>
<defs>
<linearGradient id="paint0_linear_2271_2232" x1="-0.836153" y1="-25.4714" x2="72.959" y2="90.8466" gradientUnits="userSpaceOnUse">
<stop offset="0.351304" stop-color="#FFA216"/>
<stop offset="0.890165" stop-color="#FFF27E"/>
</linearGradient>
</defs>
</svg>
