<svg width="63" height="63" viewBox="0 0 63 63" fill="none" xmlns="http://www.w3.org/2000/svg">
<path d="M62.6095 31.7386C62.6095 14.6756 48.7772 0.843262 31.7141 0.843262C14.6511 0.843262 0.818787 14.6756 0.818787 31.7386C0.818787 48.8017 14.6511 62.634 31.7141 62.634C48.7772 62.634 62.6095 48.8017 62.6095 31.7386Z" fill="url(#paint0_linear_2271_2236)"/>
<path d="M48.3405 36.5509L43.418 31.6284L48.3405 26.7058L53.2631 31.6284L48.3405 36.5509Z" fill="white"/>
<path d="M15.2609 36.5509L10.3384 31.6284L15.2609 26.7058L20.1835 31.6284L15.2609 36.5509Z" fill="white"/>
<path d="M31.8007 43.5409L23.6292 35.3695L18.8051 40.1936L31.8007 53.1891L44.7962 40.1936L39.9721 35.3695L31.8007 43.5409Z" fill="white"/>
<path d="M31.8007 36.354L27.1735 31.7268L31.8007 27.0996L36.4279 31.7268L31.8007 36.354Z" fill="white"/>
<path d="M23.4325 28.2811L18.6084 23.457L31.7024 10.363L44.7963 23.457L39.9722 28.2811L31.7024 20.0112L23.4325 28.2811Z" fill="white"/>
<defs>
<linearGradient id="paint0_linear_2271_2236" x1="131.064" y1="167.263" x2="8.17482" y2="-7.46474" gradientUnits="userSpaceOnUse">
<stop offset="0.40835" stop-color="#7946CD" stop-opacity="0.24"/>
<stop offset="0.890165" stop-color="#F4BC08"/>
</linearGradient>
</defs>
</svg>
