<svg width="63" height="62" viewBox="0 0 63 62" fill="none" xmlns="http://www.w3.org/2000/svg">
<circle cx="31.8113" cy="30.9886" r="30.8954" fill="url(#paint0_linear_2271_2517)"/>
<g clip-path="url(#clip0_2271_2517)">
<path d="M24.3224 21.1205L23.0122 10.3049H41.0093L39.8515 21.1205H24.3224Z" fill="white"/>
<path d="M24.4006 23.6709H39.2334V28.5369C39.2334 28.5369 31.7387 33.4811 25.0187 28.5369L24.4006 23.6709Z" fill="white"/>
<path d="M20.9272 27.6882C20.9272 27.6882 25.41 33.4071 32.0147 33.0198C38.6194 32.6325 42.7148 27.6882 42.7148 27.6882L44.8779 29.6206C44.8779 29.6206 31.8993 43.7982 18.9207 29.464L20.9313 27.6882H20.9272Z" fill="white"/>
<path d="M37.3793 36.9587C35.451 36.9587 33.8442 38.3184 33.4527 40.1272C32.6122 39.6163 31.4915 39.5874 30.6263 40.0571C30.2101 38.2813 28.6197 36.9587 26.7203 36.9587C24.5037 36.9587 22.7031 38.7593 22.7031 40.9759C22.7031 43.1926 24.5037 44.9931 26.7203 44.9931C28.7145 44.9931 30.3667 43.5346 30.6798 41.6269L31.1372 41.3385C31.6728 40.9965 32.3568 40.9842 32.9089 41.3014L33.4239 41.6475C33.7412 43.5469 35.3892 44.9973 37.3793 44.9973C39.596 44.9973 41.3965 43.1967 41.3965 40.9801C41.3965 38.7634 39.596 36.9629 37.3793 36.9629V36.9587ZM26.7203 43.0608C25.6944 43.0608 24.8662 42.2326 24.8662 41.2067C24.8662 40.1807 25.6944 39.3526 26.7203 39.3526C27.7463 39.3526 28.5744 40.1807 28.5744 41.2067C28.5744 42.2326 27.7463 43.0608 26.7203 43.0608ZM37.3793 43.0608C36.3534 43.0608 35.5252 42.2326 35.5252 41.2067C35.5252 40.1807 36.3534 39.3526 37.3793 39.3526C38.4052 39.3526 39.2334 40.1807 39.2334 41.2067C39.2334 42.2326 38.4052 43.0608 37.3793 43.0608Z" fill="white"/>
<path d="M32.2127 46.6905C32.2127 46.6905 33.0532 43.8229 36.0074 46.6905C38.7927 49.3934 40.1606 49.0844 42.0064 47.6588C42.1424 47.5558 42.3319 47.667 42.3072 47.8359C42.1383 48.9649 41.3183 51.7996 37.2805 51.47C33.0491 51.1239 32.2127 49.2986 32.2127 49.2986C32.2127 49.2986 31.1126 51.5029 26.1889 51.4988C23.5355 51.4988 22.3778 49.0638 21.9946 47.9966C21.9493 47.8648 22.0976 47.7494 22.2088 47.8359C23.0287 48.454 25.2083 49.4717 28.5704 46.637C28.5704 46.637 30.8201 43.9424 32.2127 46.6947V46.6905Z" fill="white"/>
</g>
<defs>
<linearGradient id="paint0_linear_2271_2517" x1="16.8396" y1="-3.62803" x2="69.9761" y2="102.212" gradientUnits="userSpaceOnUse">
<stop stop-color="#88C12D"/>
<stop offset="0.734661" stop-color="#61A393"/>
</linearGradient>
<clipPath id="clip0_2271_2517">
<rect width="25.9573" height="41.1938" fill="white" transform="translate(18.9165 10.3049)"/>
</clipPath>
</defs>
</svg>
