<svg width="63" height="63" viewBox="0 0 63 63" fill="none" xmlns="http://www.w3.org/2000/svg">
<path d="M62.7686 31.4342C62.7686 14.3711 48.9362 0.538818 31.8732 0.538818C14.8102 0.538818 0.977844 14.3711 0.977844 31.4342C0.977844 48.4972 14.8102 62.3295 31.8732 62.3295C48.9362 62.3295 62.7686 48.4972 62.7686 31.4342Z" fill="url(#paint0_linear_2271_2090)"/>
<path fill-rule="evenodd" clip-rule="evenodd" d="M11.1897 31.4454C11.1897 20.1231 20.3922 10.924 31.714 10.924C43.0101 10.924 52.2104 20.1231 52.2104 31.4454C52.2104 42.7444 43.0101 51.9447 31.714 51.9447C20.3922 51.9447 11.1897 42.7444 11.1897 31.4454ZM12.2151 31.4454C12.2151 42.1791 20.9619 50.9187 31.714 50.9187C42.4443 50.9187 51.185 42.1769 51.185 31.4454C51.185 20.694 42.4476 11.9499 31.714 11.9499C20.9586 11.9499 12.2151 20.6895 12.2151 31.4454ZM37.5337 18.5508C34.2878 17.1031 28.2394 16.9596 23.2848 19.1662C23.681 18.8824 24.0944 18.6265 24.5233 18.3972C24.7848 18.257 25.0524 18.1268 25.3245 18.0078C26.8846 17.2811 29.4005 16.5768 32.5363 16.5768C32.6843 16.5768 32.8323 16.5779 32.9809 16.5812C35.662 16.6291 38.8406 17.5549 40.7835 19.4766C41.114 19.8794 41.3054 20.2811 41.3761 20.5916C42.9178 21.375 43.818 22.1094 44.3149 22.964C44.5302 23.4136 44.6008 23.8865 44.504 24.4328C45.0098 24.7166 45.4482 25.1061 45.7893 25.5756C45.999 25.9306 46.1654 26.3301 46.2143 26.6917C46.2839 27.1624 46.3306 27.7077 45.8327 28.3498C46.3545 28.6112 46.7796 29.3434 46.8308 29.655C47.0917 30.8134 46.3306 31.9529 45.3597 32.8331C44.6331 33.4673 43.3484 34.1795 41.9836 34.7481C41.208 35.0708 40.4063 35.3479 39.6669 35.5371C36.8176 36.2581 34.1899 36.6832 31.8898 37.056C30.9395 37.2106 30.0448 37.3553 29.2136 37.5078C29.9714 37.6891 30.8878 37.9061 32.0951 38.0519C32.9263 38.1532 33.8955 38.2199 35.0467 38.2199C41.0901 38.2199 46.4263 35.3701 46.4263 35.3701C46.4263 35.3701 46.3089 35.7285 46.1882 36.0612C42.3481 38.3846 36.2557 39.356 33.6452 39.237C31.0129 39.1168 28.7852 38.7151 26.6031 38.0497C25.9365 38.2377 25.28 38.4592 24.6363 38.7151C27.9579 40.2329 30.4694 40.5667 33.2919 40.7782C36.1823 40.994 40.9749 40.303 45.002 38.8364C44.9118 38.9276 44.8429 39.04 44.7755 39.1502C44.7015 39.2704 44.6287 39.3894 44.5302 39.4762C42.4666 40.5667 38.1062 41.6583 35.9002 41.7529C33.7169 41.8486 31.0619 41.7529 28.7373 41.3245C26.7455 40.9239 25.107 40.303 23.4011 39.5474C23.0957 39.7811 22.9532 40.0693 22.8792 40.402C29.5463 43.8883 35.755 43.9573 42.8482 41.7529L42.2056 42.3705C34.4041 45.5497 28.31 44.3145 23.5892 42.0367C23.4261 41.9655 23.2359 41.8931 23.0957 41.7997C23.5469 42.5597 27.1478 45.1925 31.1793 45.5252C32.637 45.6498 34.2639 45.5775 35.7716 45.3649C37.1359 45.1724 38.4033 44.8642 39.3603 44.4825L38.1752 45.0979C37.2021 45.573 34.6183 46.6669 31.0118 46.4276C26.1997 46.0938 23.4957 43.9584 22.2856 42.8457C21.717 42.3204 21.4582 41.7296 21.2908 40.994C20.1991 40.4243 19.512 39.829 18.9456 38.9287C18.6129 38.4313 18.6813 37.8394 18.752 37.3375L18.9 36.9158C18.3748 36.5319 17.8301 36.129 17.617 35.7285C17.1396 34.8739 17.4289 34.1372 17.7594 33.5675C17.6543 33.4462 17.5525 33.3249 17.4601 33.2036C17.301 32.9933 17.1697 32.783 17.0979 32.5727C16.9538 32.1932 16.9315 31.8093 16.9744 31.3842C17.0712 30.6743 17.4506 30.0122 17.9486 29.4403C18.9901 28.2296 20.6537 27.2815 23.4718 26.3568C25.6205 25.6391 26.7744 25.3909 28.1531 25.0949C28.5565 25.0081 28.9788 24.918 29.4506 24.8101C31.8926 24.2448 34.8097 24.0567 37.2499 23.2021C30.4443 22.017 23.3794 23.1064 17.617 27.0645L17.9953 25.9506C23.1641 22.5834 28.8798 20.5916 38.5535 22.2763C39.0754 21.967 39.3831 21.6576 39.5278 21.0423C37.1075 20.1654 34.477 19.8572 31.0869 19.9028C28.0502 19.9996 22.5704 21.1335 19.635 22.8716L20.5319 21.7544C22.5704 20.5404 27.9056 18.9536 31.9165 18.8824C34.7357 18.8123 36.1823 18.977 39.5506 19.8794C39.2396 19.313 38.5535 19.0259 37.5337 18.5508ZM42.7025 23.487C42.6101 22.8227 41.8512 22.1817 41.1858 21.7544C41.124 21.9703 40.9543 22.2151 40.7774 22.4321C40.6817 22.5501 40.5838 22.6591 40.4998 22.7515C41.2347 22.9429 41.9936 23.2233 42.7025 23.487ZM39.4571 23.6984C38.9797 24.079 38.4373 24.4095 37.6283 24.721C38.9591 24.9536 39.9551 25.3342 41.0901 25.6446C41.1018 25.6502 41.1151 25.6524 41.1279 25.6513C41.3749 25.6513 42.1873 24.9002 42.3275 24.6943C41.8879 24.5018 41.3944 24.3082 40.8653 24.1268C40.4174 23.9733 39.9445 23.8275 39.4571 23.6984ZM44.5302 27.1858C44.8367 26.5927 44.6476 26.2133 44.0094 25.6669C43.7473 25.9785 43.4625 26.2366 43.1548 26.4736C43.3785 26.5805 43.5932 26.6728 43.8008 26.7707C44.0539 26.8898 44.2965 27.0167 44.5302 27.1858ZM33.8616 25.9306C30.7314 26.3101 27.2674 26.971 24.3047 27.8501L24.1467 27.898C22.6761 28.3453 17.1157 30.0322 18.8043 32.3579L18.8243 32.3357C18.9857 32.1532 20.158 30.8212 23.8523 29.7474C26.4512 28.984 29.1157 28.4989 31.8219 28.0059C34.2527 27.563 36.7175 27.1135 39.1973 26.4514C37.7212 26.0586 36.7153 25.8238 35.4567 25.8227C34.9755 25.8227 34.4575 25.8572 33.8616 25.9306ZM37.2516 28.8004C35.5686 29.2266 31.4881 29.8197 27.1033 30.7678C25.7268 31.076 21.9551 31.9529 20.1057 33.5196C20.4022 33.7644 20.6381 33.9002 20.8907 34.0326C21.0816 34.1328 21.2824 34.2318 21.5267 34.3742C22.2856 33.8746 23.3305 33.4006 24.8744 32.9955C27.3097 32.349 29.2025 32.0374 31.3468 31.6847L31.9872 31.579C34.3824 31.2162 38.9102 30.2681 41.3989 29.3668C41.9714 29.1732 42.5077 28.9328 42.9645 28.6535C43.1721 28.5267 43.3629 28.392 43.5331 28.2507C43.3668 28.0638 41.7544 27.2815 41.7065 27.3538C40.714 27.8268 39.2907 28.2997 37.2516 28.8004ZM38.9352 32.0263C33.8616 33.4006 30.1834 33.5875 26.0094 34.6135C25.5287 34.7348 25.0408 34.875 24.5639 35.0352C24.2168 35.1509 23.8751 35.2778 23.5469 35.4169C24.3264 35.8208 25.181 36.178 26.0333 36.5107C27.7403 36.0122 28.5504 35.7986 31.0118 35.3957L32.3788 35.1498C33.6824 34.9117 35.5029 34.5745 36.94 34.283C40.714 33.4729 46.2383 31.717 44.7683 29.4403C44.6949 29.5026 44.6214 29.5593 44.548 29.6161C44.4551 29.6895 44.3627 29.763 44.2703 29.8442C43.1548 30.6932 41.3761 31.3842 38.9352 32.0263ZM19.6795 35.8208C19.8436 35.6561 20.0589 35.5126 20.2253 35.3701C19.8436 35.1732 19.5821 35.0063 19.2822 34.8149L19.1098 34.7047C18.9195 35.1365 19.3023 35.6049 19.6795 35.8208ZM24.0882 37.1973C23.4011 36.8891 22.6672 36.5831 21.9551 36.2503C21.6235 36.464 21.3169 36.6754 21.0788 36.8891C21.6474 37.2218 22.1943 37.5278 22.7641 37.8405C23.183 37.5823 23.6264 37.3664 24.0882 37.1973ZM21.3169 39.405C21.3853 39.1658 21.5061 38.9777 21.6724 38.7407C21.4849 38.6405 21.298 38.5415 21.1111 38.438C20.8941 38.3167 20.6782 38.191 20.4623 38.0497C20.4362 38.5026 20.7233 38.9054 21.3169 39.405Z" fill="white"/>
<defs>
<linearGradient id="paint0_linear_2271_2090" x1="-47.7451" y1="99.8886" x2="102.318" y2="-35.1163" gradientUnits="userSpaceOnUse">
<stop offset="0.356851" stop-color="#5961EA"/>
<stop offset="0.755751" stop-color="#064F9F"/>
</linearGradient>
</defs>
</svg>
