<svg width="63" height="63" viewBox="0 0 63 63" fill="none" xmlns="http://www.w3.org/2000/svg">
<g clip-path="url(#clip0_2271_1991)">
<path d="M62.6187 31.4154C62.6187 14.3523 48.7863 0.52002 31.7233 0.52002C14.6603 0.52002 0.827942 14.3523 0.827942 31.4154C0.827942 48.4784 14.6603 62.3107 31.7233 62.3107C48.7863 62.3107 62.6187 48.4784 62.6187 31.4154Z" fill="url(#paint0_linear_2271_1991)"/>
<path d="M53.9788 43.2753V21.9685L48.0819 19.5806L38.2532 21.846V42.7859L9.93508 42.7242" stroke="white" stroke-width="1.73083" stroke-miterlimit="10"/>
<path d="M38.2532 21.846L48.0819 19.5806L48.0194 43.2753H38.2532V21.846Z" fill="white"/>
<path d="M12.5682 25.6422V27.2339H10.9765V25.6422H9.81255V30.1316H10.9765V28.1317H12.5682V30.1316H13.5885V25.6422H12.5682Z" fill="white"/>
<path d="M16.487 25.5198C15.2695 25.5198 14.2825 26.5709 14.2825 27.8672C14.2825 29.1634 15.2695 30.2146 16.487 30.2146C17.7046 30.2146 18.6916 29.1634 18.6916 27.8672C18.6916 26.5709 17.7046 25.5198 16.487 25.5198ZM16.4659 29.316C15.8912 29.316 15.4253 28.6854 15.4253 27.9078C15.4253 27.1302 15.8912 26.4995 16.4659 26.4995C17.0406 26.4995 17.5065 27.1302 17.5065 27.9078C17.5065 28.6854 17.0406 29.316 16.4659 29.316Z" fill="white"/>
<path d="M19.2825 30.1592V25.6422H20.9359L21.7322 28.6008L22.5073 25.6422H24.1607V30.1592H23.0991V27.2339L22.2216 30.1316H21.2216L20.2622 26.9685V30.1316L19.2825 30.1592Z" fill="white"/>
<path d="M28.4261 26.5805V25.6422H26.2338H25.7078H25.181V27.2339V28.1317V30.1316H25.4602V30.1592H28.4261V29.173H26.2338V28.1317H28.4261V27.2339H26.2338V26.5805H28.4261Z" fill="white"/>
<path d="M21.7216 31.9685V31.0302H19.4814H18.9432H18.4051V32.6219V33.5196V35.5196H18.6908V35.5472H21.7216V34.561H19.4814V33.5196H21.7216V32.6219H19.4814V31.9685H21.7216Z" fill="white"/>
<path d="M16.798 33.7452C17.2874 33.5252 17.63 33.0277 17.63 32.4481C17.63 31.6648 17.005 31.0293 16.2347 31.0293H13.936V35.5463H15.0585V33.8661H15.4279L16.4871 35.5463H17.8134L16.798 33.7444V33.7452ZM15.983 33.0504H15.0374V31.8337H15.983C16.3191 31.8337 16.5918 32.1064 16.5918 32.4424C16.5918 32.7785 16.3191 33.0512 15.983 33.0512V33.0504Z" fill="white"/>
<path d="M11.634 34.5709C11.0447 34.5709 10.5674 33.9581 10.5674 33.2024C10.5674 32.4467 11.0447 31.8339 11.634 31.8339C12.078 31.8339 12.4578 32.1821 12.6185 32.6764L13.5138 31.9751C13.1226 31.2795 12.4197 30.816 11.6185 30.816C10.3897 30.816 9.39371 31.9053 9.39371 33.2495C9.39371 34.5936 10.3897 35.6829 11.6185 35.6829C12.401 35.6829 13.0885 35.2405 13.4846 34.5733L12.565 33.8672C12.3832 34.2868 12.0341 34.5709 11.6332 34.5709H11.634Z" fill="white"/>
<path d="M24.3645 30.9481H22.4254V35.4384H24.2013C25.4522 35.4384 26.4668 34.4238 26.4668 33.173V33.0504C26.4668 31.8897 25.5252 30.9481 24.3645 30.9481ZM24.0536 34.5195H23.5487V32.0398H24.0536C24.7387 32.0398 25.2939 32.595 25.2939 33.2801C25.2939 33.9652 24.7387 34.5203 24.0536 34.5203V34.5195Z" fill="white"/>
<path d="M28.1104 31.0302H27.0081V35.423H28.1104V31.0302Z" fill="white"/>
<path d="M31.957 30.9481H28.5536V31.9635H29.7167V35.3621H30.789V31.9635H31.957V30.9481Z" fill="white"/>
<path d="M12.5658 38.5611H12.4197C13.0244 38.5611 13.5138 38.0708 13.5138 37.467C13.5138 36.8631 13.0236 36.3728 12.4197 36.3728H9.81255V40.7502H12.565C13.1697 40.7502 13.6591 40.26 13.6591 39.6561C13.6591 39.0522 13.1689 38.5619 12.565 38.5619L12.5658 38.5611ZM10.966 37.26H11.8669C12.091 37.26 12.2728 37.4418 12.2728 37.6658C12.2728 37.8898 12.091 38.0717 11.8669 38.0717H10.966V37.2608V37.26ZM11.9992 39.8241H10.966V39.0132H11.9992C12.2233 39.0132 12.4051 39.195 12.4051 39.4191C12.4051 39.6431 12.2233 39.8249 11.9992 39.8249V39.8241Z" fill="white"/>
<path d="M16.7728 40.7502H18.0788L16.4871 36.3728H15.3036L13.6608 40.7502H14.9157L15.0812 40.1942H16.617L16.7736 40.7502H16.7728ZM15.3775 39.1934L15.8694 37.54L16.3345 39.1934H15.3775Z" fill="white"/>
<path d="M20.9359 36.3719V38.8695L19.3848 36.3719H18.2825V40.8265H19.3848V38.4296L20.9359 40.8265H21.9976V36.3719H20.9359Z" fill="white"/>
<path d="M25.5488 38.0716L27.0082 36.3719H25.7525L24.0382 38.2551V36.3719H23.1405V40.7502H24.0382V39.695L24.6916 38.8671L25.9359 40.8265H27.3036L25.5488 38.0716Z" fill="white"/>
</g>
<defs>
<linearGradient id="paint0_linear_2271_1991" x1="-0.445346" y1="-25.7946" x2="44.5827" y2="64.223" gradientUnits="userSpaceOnUse">
<stop offset="0.372087" stop-color="#DB0626"/>
<stop offset="1" stop-color="#BE122C"/>
</linearGradient>
<clipPath id="clip0_2271_1991">
<rect width="61.7907" height="61.7907" fill="white" transform="translate(0.827942 0.52002)"/>
</clipPath>
</defs>
</svg>
