<svg width="63" height="63" viewBox="0 0 63 63" fill="none" xmlns="http://www.w3.org/2000/svg">
<path d="M62.53 31.4342C62.53 14.3711 48.6977 0.538818 31.6346 0.538818C14.5716 0.538818 0.739258 14.3711 0.739258 31.4342C0.739258 48.4972 14.5716 62.3295 31.6346 62.3295C48.6977 62.3295 62.53 48.4972 62.53 31.4342Z" fill="url(#paint0_linear_2271_2120)"/>
<path d="M45.5279 21.5183L41.0398 43.1624C40.5794 45.3848 39.7434 47.5102 38.5734 49.4539C36.872 52.2804 34.409 55.9238 33.1299 55.723C33.1299 55.723 29.7548 43.0204 45.5261 21.5183H45.5279Z" fill="white"/>
<path d="M20.1262 21.2968L23.7904 43.0949C24.166 45.3328 24.9206 47.4894 26.0163 49.4764C27.6104 52.3652 29.9314 56.0986 31.2174 55.948C31.2174 55.948 35.072 43.3822 20.1245 21.2968H20.1262Z" fill="white"/>
<path d="M31.574 8.84692H30.5026C30.2072 8.84692 29.9678 9.08637 29.9678 9.38175V10.4549C29.9678 10.7502 30.2072 10.9897 30.5026 10.9897H31.574C31.8694 10.9897 32.1088 10.7502 32.1088 10.4549V9.38175C32.1088 9.08637 31.8694 8.84692 31.574 8.84692Z" fill="white"/>
<path d="M34.5665 8.84692H33.4952C33.1998 8.84692 32.9603 9.08637 32.9603 9.38175V10.4549C32.9603 10.7502 33.1998 10.9897 33.4952 10.9897H34.5665C34.8619 10.9897 35.1014 10.7502 35.1014 10.4549V9.38175C35.1014 9.08637 34.8619 8.84692 34.5665 8.84692Z" fill="white"/>
<path d="M29.4071 11.6508H28.0432C27.7478 11.6508 27.5084 11.8902 27.5084 12.1856V13.5495C27.5084 13.8449 27.7478 14.0843 28.0432 14.0843H29.4071C29.7025 14.0843 29.9419 13.8449 29.9419 13.5495V12.1856C29.9419 11.8902 29.7025 11.6508 29.4071 11.6508Z" fill="white"/>
<path d="M28.7667 14.5968H26.932C26.6367 14.5968 26.3972 14.8363 26.3972 15.1316V16.9663C26.3972 17.2617 26.6367 17.5011 26.932 17.5011H28.7667C29.0621 17.5011 29.3016 17.2617 29.3016 16.9663V15.1316C29.3016 14.8363 29.0621 14.5968 28.7667 14.5968Z" fill="white"/>
<path d="M28.6731 18.7336H26.3434C26.048 18.7336 25.8085 18.9731 25.8085 19.2685V21.5982C25.8085 21.8935 26.048 22.133 26.3434 22.133H28.6731C28.9684 22.133 29.2079 21.8935 29.2079 21.5982V19.2685C29.2079 18.9731 28.9684 18.7336 28.6731 18.7336Z" fill="white"/>
<path d="M38.4212 18.7336H36.0915C35.7961 18.7336 35.5566 18.9731 35.5566 19.2685V21.5982C35.5566 21.8935 35.7961 22.133 36.0915 22.133H38.4212C38.7165 22.133 38.956 21.8935 38.956 21.5982V19.2685C38.956 18.9731 38.7165 18.7336 38.4212 18.7336Z" fill="white"/>
<path d="M38.4212 23.2372H36.0915C35.7961 23.2372 35.5566 23.4766 35.5566 23.772V26.1017C35.5566 26.3971 35.7961 26.6365 36.0915 26.6365H38.4212C38.7165 26.6365 38.956 26.3971 38.956 26.1017V23.772C38.956 23.4766 38.7165 23.2372 38.4212 23.2372Z" fill="white"/>
<path d="M28.6731 23.2372H26.3434C26.048 23.2372 25.8085 23.4766 25.8085 23.772V26.1017C25.8085 26.3971 26.048 26.6365 26.3434 26.6365H28.6731C28.9684 26.6365 29.2079 26.3971 29.2079 26.1017V23.772C29.2079 23.4766 28.9684 23.2372 28.6731 23.2372Z" fill="white"/>
<path d="M28.5433 30.9894L27.1673 30.9462C26.9648 30.9392 26.7692 30.8596 26.6186 30.7229C26.2257 30.3663 26.0838 30.0963 25.8466 29.5979C25.7376 29.3677 25.6805 29.1167 25.6805 28.8622V28.1249C25.6805 27.8289 25.9211 27.5901 26.2153 27.5901H28.5433C28.8393 27.5901 29.0781 27.8307 29.0781 28.1249V30.4529C29.0781 30.7489 28.8375 30.9877 28.5433 30.9877V30.9894Z" fill="white"/>
<path d="M36.0932 31.0432L37.4692 30.9999C37.6718 30.993 37.8673 30.9133 38.0179 30.7766C38.4108 30.4201 38.5528 30.15 38.7899 29.6516C38.8989 29.4214 38.956 29.1704 38.956 28.916V28.1786C38.956 27.8827 38.7154 27.6438 38.4212 27.6438H36.0932C35.7973 27.6438 35.5584 27.8844 35.5584 28.1786V30.5066C35.5584 30.8026 35.799 31.0414 36.0932 31.0414V31.0432Z" fill="white"/>
<path d="M37.7236 14.7267H35.889C35.5936 14.7267 35.3541 14.9661 35.3541 15.2615V17.0962C35.3541 17.3916 35.5936 17.631 35.889 17.631H37.7236C38.019 17.631 38.2585 17.3916 38.2585 17.0962V15.2615C38.2585 14.9661 38.019 14.7267 37.7236 14.7267Z" fill="white"/>
<path d="M36.7093 11.6508H35.3454C35.0501 11.6508 34.8106 11.8902 34.8106 12.1856V13.5495C34.8106 13.8449 35.0501 14.0843 35.3454 14.0843H36.7093C37.0047 14.0843 37.2442 13.8449 37.2442 13.5495V12.1856C37.2442 11.8902 37.0047 11.6508 36.7093 11.6508Z" fill="white"/>
<path d="M33.5955 11.6508H31.2329C30.9376 11.6508 30.6981 11.8902 30.6981 12.1856V13.5495C30.6981 13.8449 30.9376 14.0843 31.2329 14.0843H33.5955C33.8909 14.0843 34.1304 13.8449 34.1304 13.5495V12.1856C34.1304 11.8902 33.8909 11.6508 33.5955 11.6508Z" fill="white"/>
<path d="M33.926 14.5968H30.9005C30.6051 14.5968 30.3657 14.8363 30.3657 15.1316V16.9663C30.3657 17.2617 30.6051 17.5011 30.9005 17.5011H33.926C34.2214 17.5011 34.4608 17.2617 34.4608 16.9663V15.1316C34.4608 14.8363 34.2214 14.5968 33.926 14.5968Z" fill="white"/>
<path d="M34.1392 18.6815H30.6896C30.3942 18.6815 30.1548 18.921 30.1548 19.2163V21.3522C30.1548 21.6476 30.3942 21.887 30.6896 21.887H34.1392C34.4345 21.887 34.674 21.6476 34.674 21.3522V19.2163C34.674 18.921 34.4345 18.6815 34.1392 18.6815Z" fill="white"/>
<path d="M34.2758 23.1765H30.551C30.2556 23.1765 30.0162 23.416 30.0162 23.7113V26.0428C30.0162 26.3381 30.2556 26.5776 30.551 26.5776H34.2758C34.5711 26.5776 34.8106 26.3381 34.8106 26.0428V23.7113C34.8106 23.416 34.5711 23.1765 34.2758 23.1765Z" fill="white"/>
<path d="M34.1996 27.642H30.6254C30.33 27.642 30.0906 27.8814 30.0906 28.1768V30.4009C30.0906 30.6963 30.33 30.9357 30.6254 30.9357H34.1996C34.4949 30.9357 34.7344 30.6963 34.7344 30.4009V28.1768C34.7344 27.8814 34.4949 27.642 34.1996 27.642Z" fill="white"/>
<path d="M34.1996 32.0037H30.6254C30.33 32.0037 30.0906 32.2431 30.0906 32.5385V34.7626C30.0906 35.058 30.33 35.2974 30.6254 35.2974H34.1996C34.4949 35.2974 34.7344 35.058 34.7344 34.7626V32.5385C34.7344 32.2431 34.4949 32.0037 34.1996 32.0037Z" fill="white"/>
<path d="M34.1996 36.6112H30.6254C30.33 36.6112 30.0906 36.8507 30.0906 37.146V39.3702C30.0906 39.6655 30.33 39.905 30.6254 39.905H34.1996C34.4949 39.905 34.7344 39.6655 34.7344 39.3702V37.146C34.7344 36.8507 34.4949 36.6112 34.1996 36.6112Z" fill="white"/>
<path d="M31.2019 41.2913L33.5592 41.3294C33.7652 41.3328 33.8812 41.563 33.7618 41.7309C33.4173 42.2121 32.9067 43.0775 32.8808 43.9931C32.8773 44.1316 32.7665 44.2424 32.6281 44.2424H31.8059C31.6605 44.2424 31.5463 44.1195 31.5515 43.9741C31.5671 43.5864 31.5065 42.7919 30.9682 41.6565C30.8868 41.4852 31.0115 41.2878 31.2001 41.2913H31.2019Z" fill="white"/>
<path d="M37.5817 31.95C37.2165 31.9119 36.6177 31.9136 36.1919 32.2477C35.9513 32.4364 35.825 32.7358 35.825 33.0422V34.3818C35.825 34.7626 35.9807 35.1261 36.2559 35.3892L36.2663 35.3995C36.3736 35.4999 36.5519 35.4376 36.5761 35.2922C36.6609 34.8041 36.9258 33.7224 37.7444 32.2737C37.8206 32.1387 37.7341 31.9673 37.58 31.9517L37.5817 31.95Z" fill="white"/>
<path d="M27.1172 31.9535C27.4166 31.9206 27.8926 31.9102 28.2924 32.1023C28.6663 32.2806 28.8947 32.6683 28.8947 33.0837V34.3818C28.8947 34.7626 28.7389 35.1261 28.4637 35.3892L28.4534 35.3995C28.3461 35.4999 28.1678 35.4376 28.1435 35.2922C28.0587 34.8024 27.7922 33.712 26.9631 32.2529C26.8922 32.1265 26.9718 31.969 27.1154 31.9535H27.1172Z" fill="white"/>
<defs>
<linearGradient id="paint0_linear_2271_2120" x1="17.1822" y1="-46.3667" x2="36.2213" y2="181.497" gradientUnits="userSpaceOnUse">
<stop offset="0.251137" stop-color="#FFE68D"/>
<stop offset="0.620848" stop-color="#FCB703"/>
</linearGradient>
</defs>
</svg>
