<svg width="63" height="63" viewBox="0 0 63 63" fill="none" xmlns="http://www.w3.org/2000/svg">
<rect x="0.942566" y="0.843262" width="61.7907" height="61.7907" rx="30.8954" fill="url(#paint0_linear_2271_2291)"/>
<path d="M30.7392 14.6899H36.3327C36.795 14.6899 37.1274 15.1344 36.9968 15.5779L32.5062 30.8259L36.5901 29.5676L35.7733 32.6024L31.541 33.7867L28.7936 42.8909H43.2168C43.7985 42.8909 44.2145 43.4532 44.0444 44.0094L42.7175 48.3481C42.6062 48.7119 42.2704 48.9604 41.8899 48.9604H19.7349L23.4645 36.3033L19.2894 37.4876L20.1062 34.4528L24.3588 33.2685L29.5771 15.5591C29.7289 15.0437 30.202 14.6899 30.7392 14.6899Z" fill="white"/>
<defs>
<linearGradient id="paint0_linear_2271_2291" x1="18.3374" y1="-1.5799" x2="50.4444" y2="88.8561" gradientUnits="userSpaceOnUse">
<stop stop-color="#345D9D"/>
<stop offset="0.872134" stop-color="#3489FD"/>
</linearGradient>
</defs>
</svg>
