<svg width="63" height="63" viewBox="0 0 63 63" fill="none" xmlns="http://www.w3.org/2000/svg">
<g clip-path="url(#clip0_2271_1929)">
<path d="M62.4373 31.4154C62.4373 14.3523 48.605 0.52002 31.542 0.52002C14.4789 0.52002 0.646606 14.3523 0.646606 31.4154C0.646606 48.4784 14.4789 62.3107 31.542 62.3107C48.605 62.3107 62.4373 48.4784 62.4373 31.4154Z" fill="url(#paint0_linear_2271_1929)"/>
<path d="M11.7239 28.1339V35.952H13.9451V31.6503C13.9451 30.8579 14.2218 30.1276 15.2753 30.009C15.5689 29.976 15.8591 29.9954 16.0989 30.1723C16.3172 30.3337 16.4326 30.6 16.4306 30.8715C16.4216 31.9548 16.3898 36.057 16.4326 36.1004C16.4818 36.1496 18.8903 36.1004 18.8903 36.1004V31.7015C18.8903 30.8987 18.8604 30.414 19.9859 30.022C19.9756 30.0233 19.9957 30.0188 19.9859 30.022C21.0246 29.8658 21.1801 30.3116 21.1801 30.8002V36.1224H23.4998L23.4175 30C23.4097 29.4077 23.1563 28.8369 22.6969 28.4624C22.2972 28.1371 21.6907 27.8889 20.7855 27.9959C19.5168 28.1455 19.0944 28.568 18.7198 28.9438C18.5974 29.0669 18.3952 29.0429 18.2987 28.8985C18.0207 28.4851 17.4479 27.9609 16.3341 27.9706C14.4978 27.9861 13.9153 29.0915 13.9153 29.0915L13.9056 29.1408L13.925 28.0645L11.7239 28.1339Z" fill="white"/>
<path d="M34.5563 28.1338H36.7477V29.1109C36.7477 29.1109 37.7397 27.793 39.3687 27.9563C40.9976 28.1196 41.7233 28.8005 41.93 30.0291V36.1742H39.5903V30.9932C39.5903 30.6731 39.4432 30.3634 39.1788 30.1826C38.9877 30.0517 38.7149 29.9494 38.3313 29.9552C37.8207 29.9623 37.5019 30.0848 37.2706 30.2571C36.9214 30.517 36.7321 30.9407 36.7321 31.3768V36.1749H34.4669L34.5557 28.1345L34.5563 28.1338Z" fill="white"/>
<path d="M28.9841 27.8669C26.6904 27.8669 24.8307 29.7266 24.8307 32.0203C24.8307 34.314 26.6904 36.1736 28.9841 36.1736C31.2778 36.1736 33.1375 34.314 33.1375 32.0203C33.1375 29.7266 31.2778 27.8669 28.9841 27.8669ZM29.0508 34.2784C27.939 34.2784 27.037 33.3006 27.037 32.0942C27.037 30.8877 27.9383 29.9099 29.0508 29.9099C30.1634 29.9099 31.0647 30.8877 31.0647 32.0942C31.0647 33.3006 30.1634 34.2784 29.0508 34.2784Z" fill="white"/>
<path d="M47.4635 27.8669C45.1697 27.8669 43.3101 29.7266 43.3101 32.0203C43.3101 34.314 45.1697 36.1736 47.4635 36.1736C49.7572 36.1736 51.6168 34.314 51.6168 32.0203C51.6168 29.7266 49.7572 27.8669 47.4635 27.8669ZM47.5296 34.2784C46.4177 34.2784 45.5157 33.3006 45.5157 32.0942C45.5157 30.8877 46.417 29.9099 47.5296 29.9099C48.6421 29.9099 49.5434 30.8877 49.5434 32.0942C49.5434 33.3006 48.6421 34.2784 47.5296 34.2784Z" fill="white"/>
</g>
<defs>
<linearGradient id="paint0_linear_2271_1929" x1="64.6874" y1="68.109" x2="0.646606" y2="-27.2598" gradientUnits="userSpaceOnUse">
<stop offset="0.114012" stop-color="#1C1D21"/>
<stop offset="0.848173" stop-color="#595D6A"/>
</linearGradient>
<clipPath id="clip0_2271_1929">
<rect width="61.7907" height="61.7907" fill="white" transform="translate(0.646606 0.52002)"/>
</clipPath>
</defs>
</svg>
