<svg width="63" height="63" viewBox="0 0 63 63" fill="none" xmlns="http://www.w3.org/2000/svg">
<g clip-path="url(#clip0_2271_1593)">
<path d="M62.0172 31.4154C62.0172 14.3523 48.1848 0.52002 31.1218 0.52002C14.0588 0.52002 0.22644 14.3523 0.22644 31.4154C0.22644 48.4784 14.0588 62.3107 31.1218 62.3107C48.1848 62.3107 62.0172 48.4784 62.0172 31.4154Z" fill="url(#paint0_linear_2271_1593)"/>
<path d="M20.0565 36.2527V26.5862H25.1441L26.7126 32.3522L28.3444 26.5862H33.4321V36.2527H30.4647L30.528 28.515L28.4085 36.2527H25.0589L22.9606 28.515V36.2527H20.0565Z" fill="white"/>
<path d="M34.2167 29.1934H36.9723V36.1888H39.8342V29.1934H42.5265V26.5011H34.2167V29.1934Z" fill="white"/>
<path d="M52.9778 29.1089V26.5862H48.3951C47.4273 26.5862 46.4648 26.7701 45.5784 27.1568C44.3046 27.7123 42.8944 28.7825 42.8025 30.8116C42.6751 33.6207 43.9316 34.9548 45.6403 35.6611C46.5131 36.0213 47.4537 36.1894 48.3981 36.1894H52.9778V33.6456H48.2203C48.2203 33.6456 45.7284 33.7519 45.7284 31.1937C45.7239 31.257 45.7284 31.1304 45.7284 31.1937C45.751 30.8802 46.042 29.2868 48.2203 29.1941C50.7098 29.0878 52.9778 29.1097 52.9778 29.1097V29.1089Z" fill="white"/>
<path d="M13.1019 36.7849C13.1848 36.7812 13.2662 36.7819 13.3491 36.7872C13.8661 36.8181 15.853 36.7698 16.8554 34.373C18.0147 31.603 15.513 25.8649 13.3363 25.9644C11.1595 26.0639 8.55914 31.236 9.66184 34.1755C10.6176 36.7239 12.5931 36.8083 13.1019 36.7857V36.7849Z" fill="white"/>
</g>
<defs>
<linearGradient id="paint0_linear_2271_1593" x1="20.0445" y1="0.52002" x2="80.364" y2="94.9369" gradientUnits="userSpaceOnUse">
<stop stop-color="#E30611"/>
<stop offset="0.0001" stop-color="#E30611"/>
<stop offset="0.774801" stop-color="#D2000A"/>
</linearGradient>
<clipPath id="clip0_2271_1593">
<rect width="61.7907" height="61.7907" fill="white" transform="translate(0.22644 0.52002)"/>
</clipPath>
</defs>
</svg>
