<svg width="63" height="63" viewBox="0 0 63 63" fill="none" xmlns="http://www.w3.org/2000/svg">
<g clip-path="url(#clip0_2271_1543)">
<path d="M62.9267 31.8168C62.9267 14.6715 49.0277 0.772583 31.8825 0.772583C14.7372 0.772583 0.838257 14.6715 0.838257 31.8168C0.838257 48.962 14.7372 62.861 31.8825 62.861C49.0277 62.861 62.9267 48.962 62.9267 31.8168Z" fill="url(#paint0_linear_2271_1543)"/>
<path d="M15.5919 31.7012L15.5247 21.2075C15.5701 19.8364 17.4367 19.4682 17.9995 20.7192L21.9844 29.7601C22.569 31.0866 24.551 30.6693 24.551 29.2192V19.3354" stroke="white" stroke-width="1.55082" stroke-miterlimit="10"/>
<path d="M37.6349 20.3511H31.0524C29.7395 20.3511 28.6749 21.5076 28.6749 22.935C28.6749 24.3615 29.7395 25.5189 31.0524 25.5189H36.3156H30.9151C29.6777 25.5189 28.6749 26.609 28.6749 27.9528C28.6749 29.2974 29.6777 30.3866 30.9151 30.3866H37.6358" stroke="white" stroke-width="1.55082" stroke-miterlimit="10"/>
<path d="M44.6312 20.3511H45.664C47.4842 20.3511 49.1525 21.3848 49.9453 23.0241C50.0199 23.1786 50.0908 23.3386 50.1553 23.5023C51.4591 26.8108 48.9634 30.3866 45.4067 30.3866C43.1155 30.3866 41.0281 28.9829 40.2507 26.8272C39.7252 25.3716 39.7979 23.5887 41.5318 21.7094C42.33 20.8439 43.4538 20.3511 44.6312 20.3511Z" stroke="white" stroke-width="1.55082" stroke-miterlimit="10"/>
<path d="M14.278 45.3207V34.8069H18.5493C19.9513 34.8069 21.0877 35.9243 21.0877 37.3035C21.0877 38.6818 19.9513 39.8001 18.5493 39.8001H14.5171H18.6984C20.2486 39.8001 21.506 41.0357 21.506 42.5604C21.506 44.0851 20.2486 45.3207 18.6984 45.3207H14.278Z" stroke="white" stroke-width="0.465245" stroke-miterlimit="10"/>
<path d="M22.4917 45.5298L24.0937 41.7576L26.7776 35.0861L31.0635 45.4998" stroke="white" stroke-width="0.465245" stroke-miterlimit="10"/>
<path d="M29.6024 41.6758H24.1" stroke="white" stroke-width="0.465245" stroke-miterlimit="10"/>
<path d="M33.1544 45.3209V35.3017L40.5315 44.8099V34.3698" stroke="white" stroke-width="0.465245" stroke-miterlimit="10"/>
<path d="M43.389 34.3698V40.064L43.3881 45.64" stroke="white" stroke-width="0.465245" stroke-miterlimit="10"/>
<path d="M50.4162 34.4625L47.2505 39.4976C47.0368 39.8376 47.0595 40.2749 47.3078 40.5904L51.2054 45.5436" stroke="white" stroke-width="0.465245" stroke-miterlimit="10"/>
<path d="M43.2501 40.064H47.0432" stroke="white" stroke-width="0.465245" stroke-miterlimit="10"/>
</g>
<defs>
<linearGradient id="paint0_linear_2271_1543" x1="-5.50971" y1="-34.0978" x2="114.493" y2="190.168" gradientUnits="userSpaceOnUse">
<stop offset="0.242167" stop-color="#0FCAD9"/>
<stop offset="0.689377" stop-color="#0973AE"/>
</linearGradient>
<clipPath id="clip0_2271_1543">
<rect width="62.0884" height="62.0884" fill="white" transform="translate(0.838379 0.772461)"/>
</clipPath>
</defs>
</svg>
