<svg width="63" height="63" viewBox="0 0 63 63" fill="none" xmlns="http://www.w3.org/2000/svg">
<rect x="0.476196" y="0.233643" width="61.7907" height="61.7907" rx="30.8954" fill="url(#paint0_linear_2271_2286)"/>
<g clip-path="url(#clip0_2271_2286)">
<path d="M53.23 26.9767L48.7314 26.8884L47.5294 33.4533H43.3966L43.6608 31.9879H46.2102L46.4743 30.1708H43.9539L44.2469 28.8516L46.826 28.9391L47.2074 26.8876H41.8734L40.6714 33.1008H38.8254L40.0563 26.8884H37.0958L35.9235 33.1016H34.0775L35.3084 26.8884H32.3776L31.2053 33.4533H26.985L27.2781 31.9879H29.7985L30.1205 30.2295H27.6001L27.8642 28.8524L30.4918 28.9696L30.8528 26.8891H14.2067L13.2103 31.9887L11.4815 26.8884H8.46239L6.87976 35.3876H9.72302L10.6906 30.3467L12.4193 35.3876H22.384L23.5563 28.8524H25.1101L23.908 35.3876H49.9921L50.6369 31.4893L51.8967 35.3876H54.6516L53.4496 32.1349C54.5313 32.0747 55.4387 31.2978 55.6653 30.2381L55.72 29.9833C55.9834 28.4311 54.8048 27.0071 53.23 26.9767ZM19.9362 33.483H15.7597L15.9941 32.0614H18.6467L18.9984 30.3029L16.3169 30.2881L16.6248 28.8813H20.8303L19.9362 33.483ZM50.7572 30.9071L51.1964 28.7422C51.1964 28.7422 52.8009 28.4342 52.933 29.6652C53.0737 30.979 51.1308 30.9618 50.7572 30.9071Z" fill="white"/>
</g>
<defs>
<linearGradient id="paint0_linear_2271_2286" x1="7.22644" y1="-6.60315" x2="90.566" y2="113.517" gradientUnits="userSpaceOnUse">
<stop offset="0.130196" stop-color="#83BA3B"/>
<stop offset="0.791721" stop-color="#C5FF79"/>
</linearGradient>
<clipPath id="clip0_2271_2286">
<rect width="48.877" height="8.49929" fill="white" transform="translate(6.87976 26.8885)"/>
</clipPath>
</defs>
</svg>
