<svg width="63" height="63" viewBox="0 0 63 63" fill="none" xmlns="http://www.w3.org/2000/svg">
<g clip-path="url(#clip0_2271_1909)">
<path d="M62.698 31.6654C62.698 14.6023 48.8656 0.77002 31.8026 0.77002C14.7396 0.77002 0.907227 14.6023 0.907227 31.6654C0.907227 48.7284 14.7396 62.5607 31.8026 62.5607C48.8656 62.5607 62.698 48.7284 62.698 31.6654Z" fill="url(#paint0_linear_2271_1909)"/>
<path d="M37.5981 14.0975L35.7221 20.2687V20.2695C40.6401 21.8167 44.2007 26.3327 44.2007 31.6658C44.2007 36.999 40.5305 41.653 35.4952 43.1308L37.4978 49.2071C44.9214 46.8149 50.2932 39.8542 50.2932 31.635C50.2932 23.4157 44.9693 16.5199 37.5989 14.0975H37.5981Z" fill="white"/>
<path d="M28.1086 43.0166C23.2632 41.4285 19.7697 36.9488 19.7697 31.6666C19.7697 26.3844 23.2238 21.9556 28.026 20.3436L28.0245 20.3413L25.9371 14.1407C18.6322 16.6009 13.3693 23.5013 13.3693 31.6357C13.3693 39.7701 18.6762 46.7277 26.0281 49.1608L28.1086 43.0158V43.0166Z" fill="white"/>
</g>
<defs>
<linearGradient id="paint0_linear_2271_1909" x1="-15.9684" y1="-26.0579" x2="91.4298" y2="106.264" gradientUnits="userSpaceOnUse">
<stop offset="0.0826481" stop-color="#3EDCFF"/>
<stop offset="0.606908" stop-color="#009FDF"/>
</linearGradient>
<clipPath id="clip0_2271_1909">
<rect width="61.7907" height="61.7907" fill="white" transform="translate(0.907227 0.77002)"/>
</clipPath>
</defs>
</svg>
