<svg width="63" height="63" viewBox="0 0 63 63" fill="none" xmlns="http://www.w3.org/2000/svg">
<g clip-path="url(#clip0_2271_2063)">
<path d="M62.7016 31.3959C62.7016 14.3328 48.8693 0.500488 31.8063 0.500488C14.7432 0.500488 0.910889 14.3328 0.910889 31.3959C0.910889 48.4589 14.7432 62.2912 31.8063 62.2912C48.8693 62.2912 62.7016 48.4589 62.7016 31.3959Z" fill="url(#paint0_linear_2271_2063)"/>
<path d="M45.7818 15.2125H18.028C16.7954 15.2125 15.7961 16.2118 15.7961 17.4445V45.1982C15.7961 46.4309 16.7954 47.4302 18.028 47.4302H45.7818C47.0144 47.4302 48.0137 46.4309 48.0137 45.1982V17.4445C48.0137 16.2118 47.0144 15.2125 45.7818 15.2125Z" stroke="white" stroke-width="1.55775" stroke-miterlimit="10"/>
<path d="M26.7793 18.6204C26.7793 18.6204 20.0258 20.9933 21.0297 27.8389C22.0337 34.6839 37.9735 27.5345 30.2482 17.8906C30.2173 17.8522 30.2565 17.8041 30.3162 17.7594C30.4337 17.6708 30.5794 17.6268 30.7272 17.6254L40.7448 17.5258C40.7448 17.5258 37.5502 26.5615 35.9992 26.7442L39.6502 26.0138C39.6502 26.0138 41.6581 20.7809 45.3091 23.0933C45.3091 23.0933 47.6819 21.0853 48.4124 22.9105C48.4124 22.9105 49.8726 21.3719 51.6071 21.9134C53.3415 22.4542 51.3336 26.1052 50.4203 25.6489C50.4203 25.6489 52.1547 28.7522 46.8607 28.0217C46.8607 28.0217 48.1787 31.2569 40.9283 27.7482C36.0707 25.3974 24.9563 37.5137 28.6986 44.1766H30.8893C30.8893 44.1766 26.1128 38.5177 34.6922 30.6687C43.2716 22.8198 51.6682 37.8484 37.2478 45.6368L36.0308 44.4198C36.0308 44.4198 43.0283 42.8682 42.0546 35.2536C41.0506 27.4026 24.9267 35.9016 32.7908 45.5612L22.2185 45.6375C22.2185 45.6375 25.585 36.9976 28.1001 34.5025C30.6152 32.0073 37.4299 25.1321 33.5968 18.7434L31.8933 18.439C31.8933 18.439 37.7343 25.1926 26.7216 33.4683C26.7216 33.4683 18.6899 37.4099 17.8989 28.3571C17.1932 20.2765 25.9911 17.5876 25.9911 17.5876L26.7821 18.6218L26.7793 18.6204Z" fill="#F3D23E"/>
<path d="M38.3834 25.7707C38.3834 25.7707 40.2128 25.7807 42.7636 26.3971C45.3144 27.0135 48.2596 26.3971 49.1399 24.7657" stroke="#018045" stroke-width="0.51925" stroke-miterlimit="10" stroke-linecap="round"/>
</g>
<defs>
<linearGradient id="paint0_linear_2271_2063" x1="-16.6571" y1="-9.71142" x2="90.3949" y2="124.947" gradientUnits="userSpaceOnUse">
<stop offset="0.115925" stop-color="#1D8B5A"/>
<stop offset="1" stop-color="#035A24"/>
</linearGradient>
<clipPath id="clip0_2271_2063">
<rect width="61.7907" height="61.7907" fill="white" transform="translate(0.910889 0.500488)"/>
</clipPath>
</defs>
</svg>
