<svg width="63" height="63" viewBox="0 0 63 63" fill="none" xmlns="http://www.w3.org/2000/svg">
<g clip-path="url(#clip0_2271_2069)">
<path d="M62.7016 31.6678C62.7016 14.6048 48.8693 0.772461 31.8063 0.772461C14.7432 0.772461 0.910889 14.6048 0.910889 31.6678C0.910889 48.7309 14.7432 62.5632 31.8063 62.5632C48.8693 62.5632 62.7016 48.7309 62.7016 31.6678Z" fill="url(#paint0_linear_2271_2069)"/>
<path d="M45.7818 15.4847H18.028C16.7954 15.4847 15.7961 16.484 15.7961 17.7167V45.4704C15.7961 46.7031 16.7954 47.7024 18.028 47.7024H45.7818C47.0144 47.7024 48.0137 46.7031 48.0137 45.4704V17.7167C48.0137 16.484 47.0144 15.4847 45.7818 15.4847Z" stroke="white" stroke-width="1.55775" stroke-miterlimit="10"/>
<path d="M26.7793 18.8923C26.7793 18.8923 20.0258 21.2651 21.0297 28.1108C22.0337 34.9557 37.9735 27.8064 30.2482 18.1625C30.2173 18.124 30.2565 18.0759 30.3162 18.0312C30.4337 17.9426 30.5794 17.8986 30.7272 17.8972L40.7448 17.7976C40.7448 17.7976 37.5502 26.8333 35.9992 27.0161L39.6502 26.2856C39.6502 26.2856 41.6581 21.0528 45.3091 23.3651C45.3091 23.3651 47.6819 21.3572 48.4124 23.1823C48.4124 23.1823 49.8726 21.6437 51.6071 22.1852C53.3415 22.726 51.3336 26.377 50.4203 25.9207C50.4203 25.9207 52.1547 29.024 46.8607 28.2936C46.8607 28.2936 48.1787 31.5288 40.9283 28.0201C36.0707 25.6692 24.9563 37.7855 28.6986 44.4484H30.8893C30.8893 44.4484 26.1128 38.7895 34.6922 30.9406C43.2716 23.0916 51.6682 38.1202 37.2478 45.9087L36.0308 44.6917C36.0308 44.6917 43.0283 43.14 42.0546 35.5254C41.0506 27.6744 24.9267 36.1734 32.7908 45.8331L22.2185 45.9094C22.2185 45.9094 25.585 37.2695 28.1001 34.7743C30.6152 32.2792 37.4299 25.404 33.5968 19.0153L31.8933 18.7109C31.8933 18.7109 37.7343 25.4644 26.7216 33.7401C26.7216 33.7401 18.6899 37.6818 17.8989 28.6289C17.1932 20.5484 25.9911 17.8595 25.9911 17.8595L26.7821 18.8937L26.7793 18.8923Z" fill="white"/>
<path d="M38.3834 26.0425C38.3834 26.0425 40.2128 26.0526 42.7636 26.669C45.3144 27.2854 48.2596 26.669 49.1399 25.0376" stroke="#018045" stroke-width="0.51925" stroke-miterlimit="10" stroke-linecap="round"/>
</g>
<defs>
<linearGradient id="paint0_linear_2271_2069" x1="31.8062" y1="0.772464" x2="90.3949" y2="125.219" gradientUnits="userSpaceOnUse">
<stop offset="0.115925" stop-color="#008348"/>
<stop offset="1" stop-color="#035A24"/>
</linearGradient>
<clipPath id="clip0_2271_2069">
<rect width="61.7907" height="61.7907" fill="white" transform="translate(0.910889 0.772461)"/>
</clipPath>
</defs>
</svg>
