<svg width="63" height="63" viewBox="0 0 63 63" fill="none" xmlns="http://www.w3.org/2000/svg">
<g clip-path="url(#clip0_2271_2025)">
<path d="M62.7177 31.3441C62.7177 14.2811 48.8854 0.44873 31.8224 0.44873C14.7593 0.44873 0.927002 14.2811 0.927002 31.3441C0.927002 48.4071 14.7593 62.2395 31.8224 62.2395C48.8854 62.2395 62.7177 48.4071 62.7177 31.3441Z" fill="#C2FF02"/>
<path d="M40.0952 23.8988C40.0952 28.444 36.3286 32.1289 31.6822 32.1289C27.0359 32.1289 23.2693 28.444 23.2693 23.8988C23.2693 19.3535 27.0359 15.6687 31.6822 15.6687C31.7007 15.6687 31.7193 15.6687 31.7386 15.6687L31.6961 10.7122C31.6915 10.7122 31.6869 10.7122 31.6822 10.7122C24.4963 10.7122 18.67 16.6164 18.67 23.8988C18.67 31.1812 24.4955 37.0854 31.6822 37.0854C38.869 37.0854 44.6945 31.1812 44.6945 23.8988C44.6945 23.8448 44.6929 23.7915 44.6921 23.7383C43.2568 23.7452 41.5761 23.7769 40.0936 23.8116C40.0936 23.8409 40.0944 23.8702 40.0944 23.8996L40.0952 23.8988Z" fill="#2B2B2B"/>
<path d="M48.0707 23.8992C48.0691 23.893 48.0645 23.8875 48.0567 23.8821C48.0722 23.914 48.0777 23.921 48.0707 23.8992Z" fill="#2B2B2B"/>
<path d="M31.6784 29.5577C34.8109 29.5577 37.3503 27.0183 37.3503 23.8858C37.3503 20.7533 34.8109 18.2139 31.6784 18.2139C28.5459 18.2139 26.0065 20.7533 26.0065 23.8858C26.0065 27.0183 28.5459 29.5577 31.6784 29.5577Z" fill="#2B2B2B"/>
<path d="M39.2425 19.7308C41.0887 19.7308 42.5854 18.2341 42.5854 16.3879C42.5854 14.5416 41.0887 13.0449 39.2425 13.0449C37.3962 13.0449 35.8995 14.5416 35.8995 16.3879C35.8995 18.2341 37.3962 19.7308 39.2425 19.7308Z" fill="#2B2B2B"/>
<path d="M15.5957 43.414C14.0592 42.8715 11.7743 43.644 11.1353 45.4536C10.4963 47.2632 11.099 48.5689 12.5714 49.2665C13.5792 49.7442 16.0602 49.2272 16.6984 47.4176C17.3366 45.6079 17.1321 43.9565 15.5957 43.414ZM14.9683 46.6019C14.6488 47.6421 13.9126 48.339 13.3254 48.1576C12.7373 47.977 12.5197 46.987 12.84 45.9475C13.1602 44.908 13.8956 44.2104 14.4829 44.3918C15.0709 44.5723 15.2885 45.5624 14.9683 46.6019Z" fill="#2B2B2B"/>
<path d="M20.4487 44.5446L21.4303 44.6503L21.881 43.2435H20.6339L21.1911 41.2556L19.1754 41.8128L18.8336 43.3392L18.1668 43.2443L17.8196 44.5453H18.5635L17.8481 47.7409C17.6853 48.4694 18.2394 49.1608 18.9856 49.1608H20.6339L20.9518 47.9138L20.4055 48.021C19.9193 48.1167 19.5065 47.6606 19.65 47.1861L20.4479 44.5446H20.4487Z" fill="#2B2B2B"/>
<path d="M27.5051 43.6695C26.4116 42.62 24.6352 43.8331 24.6406 43.8284L24.7733 43.1123L22.7307 43.4302C22.7307 43.4302 21.1919 51.9713 20.688 51.9713H22.8897L23.5795 49.292C28.1726 49.4247 28.8317 44.942 27.5051 43.6687V43.6695ZM23.7647 47.9138L24.3991 44.81C24.5858 44.685 26.025 44.0985 26.1786 45.3934C26.3646 46.9584 24.7463 48.4972 23.7647 47.9138Z" fill="#2B2B2B"/>
<path d="M33.6856 43.9613C32.7573 42.6618 30.5819 43.7753 30.5819 43.7753L31.5102 40.3267L29.9985 40.5389L28.1102 49.2921C34.1 49.955 34.9712 45.7609 33.6856 43.9605V43.9613ZM32.863 46.3397C31.8814 48.85 29.4946 48.3121 29.4946 48.3121L30.2902 44.8426C31.0325 43.6812 33.8446 43.8286 32.863 46.3397Z" fill="#2B2B2B"/>
<path d="M34.9056 46.2515C34.2952 49.9294 37.6111 49.4787 38.3543 48.7626L38.301 49.2526H39.6276L40.8746 43.3507C40.8746 43.3507 35.516 42.5729 34.9064 46.2507L34.9056 46.2515ZM38.4716 48.0835C38.4716 48.0835 36.0631 49.1353 36.0855 46.99C36.1118 44.5553 38.71 43.938 39.2826 44.3639L38.4716 48.0835Z" fill="#2B2B2B"/>
<path d="M41.7759 43.5369L43.3147 43.2437L43.0492 44.0138C43.0492 44.0138 45.3836 42.1641 46.6569 44.3618L45.8342 49.252H44.4815L45.3836 45.6845C45.3836 45.6845 45.7818 43.1557 42.9165 44.8441L42.1209 49.252C42.1209 49.252 40.6354 49.1857 40.6354 49.252C40.6354 49.3184 42.0144 44.5439 41.7759 43.5361V43.5369Z" fill="#2B2B2B"/>
<path d="M48.8053 40.5929L50.2375 40.3274L48.938 45.7122L51.2986 43.4574L52.7579 43.4041L50.0786 45.8974L51.882 49.1601L50.476 49.3631C50.476 49.3631 49.2027 46.0834 48.9372 45.9507C48.6718 45.818 48.1949 49.1601 48.1949 49.1601H46.9478L48.8045 40.5921L48.8053 40.5929Z" fill="#2B2B2B"/>
</g>
<defs>
<clipPath id="clip0_2271_2025">
<rect width="61.7907" height="61.7907" fill="white" transform="translate(0.927002 0.44873)"/>
</clipPath>
</defs>
</svg>
