<svg width="63" height="63" viewBox="0 0 63 63" fill="none" xmlns="http://www.w3.org/2000/svg">
<g clip-path="url(#clip0_2271_2010)">
<path d="M62.7177 31.4154C62.7177 14.3523 48.8854 0.52002 31.8224 0.52002C14.7593 0.52002 0.927002 14.3523 0.927002 31.4154C0.927002 48.4784 14.7593 62.3107 31.8224 62.3107C48.8854 62.3107 62.7177 48.4784 62.7177 31.4154Z" fill="url(#paint0_linear_2271_2010)"/>
<path d="M40.0952 23.9698C40.0952 28.5151 36.3286 32.1999 31.6822 32.1999C27.0359 32.1999 23.2693 28.5151 23.2693 23.9698C23.2693 19.4246 27.0359 15.7398 31.6822 15.7398C31.7007 15.7398 31.7193 15.7398 31.7386 15.7398L31.6961 10.7832C31.6915 10.7832 31.6869 10.7832 31.6822 10.7832C24.4963 10.7832 18.67 16.6874 18.67 23.9698C18.67 31.2523 24.4955 37.1565 31.6822 37.1565C38.869 37.1565 44.6945 31.2523 44.6945 23.9698C44.6945 23.9158 44.6929 23.8626 44.6921 23.8093C43.2568 23.8163 41.5761 23.8479 40.0936 23.8826C40.0936 23.912 40.0944 23.9413 40.0944 23.9706L40.0952 23.9698Z" fill="white"/>
<path d="M48.0707 23.97C48.0691 23.9638 48.0645 23.9583 48.0567 23.9529C48.0722 23.9848 48.0777 23.9918 48.0707 23.97Z" fill="white"/>
<path d="M31.6784 29.6287C34.8109 29.6287 37.3503 27.0893 37.3503 23.9568C37.3503 20.8243 34.8109 18.2849 31.6784 18.2849C28.5459 18.2849 26.0065 20.8243 26.0065 23.9568C26.0065 27.0893 28.5459 29.6287 31.6784 29.6287Z" fill="white"/>
<path d="M39.2425 19.8019C41.0887 19.8019 42.5854 18.3052 42.5854 16.4589C42.5854 14.6127 41.0887 13.116 39.2425 13.116C37.3962 13.116 35.8995 14.6127 35.8995 16.4589C35.8995 18.3052 37.3962 19.8019 39.2425 19.8019Z" fill="white"/>
<path d="M15.5957 43.4852C14.0592 42.9427 11.7743 43.7152 11.1353 45.5248C10.4963 47.3344 11.099 48.6401 12.5714 49.3377C13.5792 49.8154 16.0602 49.2983 16.6984 47.4887C17.3366 45.6791 17.1321 44.0277 15.5957 43.4852ZM14.9683 46.6731C14.6488 47.7133 13.9126 48.4101 13.3254 48.2288C12.7373 48.0482 12.5197 47.0581 12.84 46.0187C13.1602 44.9792 13.8956 44.2816 14.4829 44.4629C15.0709 44.6435 15.2885 45.6336 14.9683 46.6731Z" fill="white"/>
<path d="M20.4487 44.6157L21.4303 44.7214L21.881 43.3147H20.6339L21.1911 41.3268L19.1754 41.8839L18.8336 43.4103L18.1668 43.3154L17.8196 44.6165H18.5635L17.8481 47.8121C17.6853 48.5405 18.2394 49.232 18.9856 49.232H20.6339L20.9518 47.9849L20.4055 48.0922C19.9193 48.1879 19.5065 47.7318 19.65 47.2572L20.4479 44.6157H20.4487Z" fill="white"/>
<path d="M27.5051 43.7405C26.4116 42.691 24.6352 43.9041 24.6406 43.8995L24.7733 43.1833L22.7307 43.5013C22.7307 43.5013 21.1919 52.0423 20.688 52.0423H22.8897L23.5795 49.363C28.1726 49.4958 28.8317 45.013 27.5051 43.7397V43.7405ZM23.7647 47.9848L24.3991 44.8811C24.5858 44.7561 26.025 44.1696 26.1786 45.4645C26.3646 47.0294 24.7463 48.5682 23.7647 47.9848Z" fill="white"/>
<path d="M33.6856 44.0322C32.7573 42.7327 30.5819 43.8463 30.5819 43.8463L31.5102 40.3976L29.9985 40.6098L28.1102 49.3631C34.1 50.026 34.9712 45.8318 33.6856 44.0315V44.0322ZM32.863 46.4106C31.8814 48.9209 29.4946 48.383 29.4946 48.383L30.2902 44.9135C31.0325 43.7521 33.8446 43.8995 32.863 46.4106Z" fill="white"/>
<path d="M34.9056 46.3228C34.2952 50.0007 37.6111 49.55 38.3543 48.8339L38.301 49.3239H39.6276L40.8746 43.422C40.8746 43.422 35.516 42.6441 34.9064 46.322L34.9056 46.3228ZM38.4716 48.1548C38.4716 48.1548 36.0631 49.2066 36.0855 47.0613C36.1118 44.6266 38.71 44.0093 39.2826 44.4352L38.4716 48.1548Z" fill="white"/>
<path d="M41.7759 43.6079L43.3147 43.3147L43.0492 44.0848C43.0492 44.0848 45.3836 42.2351 46.6569 44.4329L45.8342 49.3231H44.4815L45.3836 45.7556C45.3836 45.7556 45.7818 43.2267 42.9165 44.9152L42.1209 49.3231C42.1209 49.3231 40.6354 49.2567 40.6354 49.3231C40.6354 49.3894 42.0144 44.615 41.7759 43.6072V43.6079Z" fill="white"/>
<path d="M48.8053 40.6639L50.2375 40.3984L48.938 45.7833L51.2986 43.5284L52.7579 43.4752L50.0786 45.9685L51.882 49.2312L50.476 49.4341C50.476 49.4341 49.2027 46.1545 48.9372 46.0217C48.6718 45.889 48.1949 49.2312 48.1949 49.2312H46.9478L48.8045 40.6631L48.8053 40.6639Z" fill="white"/>
</g>
<defs>
<linearGradient id="paint0_linear_2271_2010" x1="80.9922" y1="-42.5124" x2="-19.7953" y2="85.4938" gradientUnits="userSpaceOnUse">
<stop offset="0.185767" stop-color="#6EC72D"/>
<stop offset="0.762849" stop-color="#00674C"/>
</linearGradient>
<clipPath id="clip0_2271_2010">
<rect width="61.7907" height="61.7907" fill="white" transform="translate(0.927002 0.52002)"/>
</clipPath>
</defs>
</svg>
