<svg width="63" height="63" viewBox="0 0 63 63" fill="none" xmlns="http://www.w3.org/2000/svg">
<g clip-path="url(#clip0_2271_2040)">
<path d="M62.7177 31.8666C62.7177 14.8035 48.8854 0.971191 31.8224 0.971191C14.7593 0.971191 0.927002 14.8035 0.927002 31.8666C0.927002 48.9296 14.7593 62.7619 31.8224 62.7619C48.8854 62.7619 62.7177 48.9296 62.7177 31.8666Z" fill="#C2FF02"/>
<path d="M41.6989 32.1751C41.6989 37.7403 37.087 42.2519 31.3981 42.2519C25.7092 42.2519 21.0974 37.7403 21.0974 32.1751C21.0974 26.6099 25.7092 22.0983 31.3981 22.0983C31.4208 22.0983 31.4435 22.0983 31.4671 22.0983L31.4151 16.0295C31.4095 16.0295 31.4038 16.0295 31.3981 16.0295C22.5997 16.0295 15.4661 23.2586 15.4661 32.1751C15.4661 41.0916 22.5988 48.3207 31.3981 48.3207C40.1975 48.3207 47.3301 41.0916 47.3301 32.1751C47.3301 32.109 47.3283 32.0438 47.3273 31.9786C45.5699 31.9871 43.512 32.0258 41.697 32.0683C41.697 32.1042 41.6979 32.1401 41.6979 32.176L41.6989 32.1751Z" fill="#2B2B2B"/>
<path d="M51.464 32.1753C51.4621 32.1676 51.4564 32.161 51.4468 32.1543C51.4659 32.1934 51.4726 32.2019 51.464 32.1753Z" fill="#2B2B2B"/>
<path d="M31.3933 39.1036C35.2287 39.1036 38.3379 35.9944 38.3379 32.159C38.3379 28.3236 35.2287 25.2144 31.3933 25.2144C27.5578 25.2144 24.4486 28.3236 24.4486 32.159C24.4486 35.9944 27.5578 39.1036 31.3933 39.1036Z" fill="#2B2B2B"/>
<path d="M40.6547 27.0721C42.9152 27.0721 44.7478 25.2396 44.7478 22.9791C44.7478 20.7185 42.9152 18.886 40.6547 18.886C38.3941 18.886 36.5616 20.7185 36.5616 22.9791C36.5616 25.2396 38.3941 27.0721 40.6547 27.0721Z" fill="#2B2B2B"/>
</g>
<defs>
<clipPath id="clip0_2271_2040">
<rect width="61.7907" height="61.7907" fill="white" transform="translate(0.927002 0.971191)"/>
</clipPath>
</defs>
</svg>
