<svg width="63" height="63" viewBox="0 0 63 63" fill="none" xmlns="http://www.w3.org/2000/svg">
<g clip-path="url(#clip0_2271_2048)">
<path d="M62.7177 31.4759C62.7177 14.4129 48.8854 0.580566 31.8224 0.580566C14.7593 0.580566 0.927002 14.4129 0.927002 31.4759C0.927002 48.539 14.7593 62.3713 31.8224 62.3713C48.8854 62.3713 62.7177 48.539 62.7177 31.4759Z" fill="url(#paint0_linear_2271_2048)"/>
<path d="M40.0952 24.0304C40.0952 28.5756 36.3286 32.2605 31.6822 32.2605C27.0359 32.2605 23.2693 28.5756 23.2693 24.0304C23.2693 19.4851 27.0359 15.8003 31.6822 15.8003C31.7007 15.8003 31.7193 15.8003 31.7386 15.8003L31.6961 10.8438C31.6915 10.8438 31.6869 10.8438 31.6822 10.8438C24.4963 10.8438 18.67 16.7479 18.67 24.0304C18.67 31.3128 24.4955 37.217 31.6822 37.217C38.869 37.217 44.6945 31.3128 44.6945 24.0304C44.6945 23.9764 44.6929 23.9231 44.6921 23.8699C43.2568 23.8768 41.5761 23.9085 40.0936 23.9432C40.0936 23.9725 40.0944 24.0018 40.0944 24.0312L40.0952 24.0304Z" fill="#00674C"/>
<path d="M48.0707 24.0306C48.0691 24.0243 48.0645 24.0189 48.0567 24.0134C48.0722 24.0453 48.0777 24.0523 48.0707 24.0306Z" fill="#00674C"/>
<path d="M31.6784 29.6893C34.8109 29.6893 37.3503 27.1499 37.3503 24.0174C37.3503 20.8849 34.8109 18.3455 31.6784 18.3455C28.5459 18.3455 26.0065 20.8849 26.0065 24.0174C26.0065 27.1499 28.5459 29.6893 31.6784 29.6893Z" fill="#6EC72D"/>
<path d="M39.2425 19.8624C41.0887 19.8624 42.5854 18.3657 42.5854 16.5195C42.5854 14.6732 41.0887 13.1765 39.2425 13.1765C37.3962 13.1765 35.8995 14.6732 35.8995 16.5195C35.8995 18.3657 37.3962 19.8624 39.2425 19.8624Z" fill="#00674C"/>
<path d="M15.5957 43.5456C14.0592 43.0031 11.7743 43.7756 11.1353 45.5852C10.4963 47.3948 11.099 48.7005 12.5714 49.3981C13.5792 49.8758 16.0602 49.3588 16.6984 47.5492C17.3366 45.7395 17.1321 44.0881 15.5957 43.5456ZM14.9683 46.7335C14.6488 47.7737 13.9126 48.4705 13.3254 48.2892C12.7373 48.1086 12.5197 47.1185 12.84 46.0791C13.1602 45.0396 13.8956 44.342 14.4829 44.5234C15.0709 44.7039 15.2885 45.694 14.9683 46.7335Z" fill="#00674C"/>
<path d="M20.4487 44.676L21.4303 44.7817L21.881 43.375H20.6339L21.1911 41.3871L19.1754 41.9442L18.8336 43.4706L18.1668 43.3757L17.8196 44.6768H18.5635L17.8481 47.8724C17.6853 48.6008 18.2394 49.2923 18.9856 49.2923H20.6339L20.9518 48.0452L20.4055 48.1525C19.9193 48.2482 19.5065 47.7921 19.65 47.3175L20.4479 44.676H20.4487Z" fill="#00674C"/>
<path d="M27.5051 43.8011C26.4116 42.7516 24.6352 43.9647 24.6406 43.96L24.7733 43.2439L22.7307 43.5618C22.7307 43.5618 21.1919 52.1029 20.688 52.1029H22.8897L23.5795 49.4236C28.1726 49.5563 28.8317 45.0736 27.5051 43.8003V43.8011ZM23.7647 48.0454L24.3991 44.9416C24.5858 44.8166 26.025 44.2301 26.1786 45.525C26.3646 47.09 24.7463 48.6287 23.7647 48.0454Z" fill="#00674C"/>
<path d="M33.6856 44.0928C32.7573 42.7933 30.5819 43.9068 30.5819 43.9068L31.5102 40.4581L29.9985 40.6703L28.1102 49.4236C34.1 50.0865 34.9712 45.8924 33.6856 44.092V44.0928ZM32.863 46.4711C31.8814 48.9814 29.4946 48.4436 29.4946 48.4436L30.2902 44.9741C31.0325 43.8127 33.8446 43.9601 32.863 46.4711Z" fill="#6EC72D"/>
<path d="M34.9056 46.3831C34.2952 50.061 37.6111 49.6103 38.3543 48.8942L38.301 49.3842H39.6276L40.8746 43.4823C40.8746 43.4823 35.516 42.7044 34.9064 46.3823L34.9056 46.3831ZM38.4716 48.2151C38.4716 48.2151 36.0631 49.2669 36.0855 47.1216C36.1118 44.6869 38.71 44.0696 39.2826 44.4955L38.4716 48.2151Z" fill="#6EC72D"/>
<path d="M41.7759 43.6685L43.3147 43.3752L43.0492 44.1454C43.0492 44.1454 45.3836 42.2956 46.6569 44.4934L45.8342 49.3836H44.4815L45.3836 45.8161C45.3836 45.8161 45.7818 43.2873 42.9165 44.9757L42.1209 49.3836C42.1209 49.3836 40.6354 49.3173 40.6354 49.3836C40.6354 49.45 42.0144 44.6755 41.7759 43.6677V43.6685Z" fill="#6EC72D"/>
<path d="M48.8053 40.7244L50.2375 40.459L48.938 45.8438L51.2986 43.589L52.7579 43.5357L50.0786 46.029L51.882 49.2917L50.476 49.4947C50.476 49.4947 49.2027 46.215 48.9372 46.0823C48.6718 45.9496 48.1949 49.2917 48.1949 49.2917H46.9478L48.8045 40.7237L48.8053 40.7244Z" fill="#6EC72D"/>
</g>
<defs>
<linearGradient id="paint0_linear_2271_2048" x1="38.2768" y1="-17.5541" x2="-15.7029" y2="118.456" gradientUnits="userSpaceOnUse">
<stop offset="0.218004" stop-color="white"/>
<stop offset="0.99414" stop-color="#5A5A5A"/>
</linearGradient>
<clipPath id="clip0_2271_2048">
<rect width="61.7907" height="61.7907" fill="white" transform="translate(0.927002 0.580566)"/>
</clipPath>
</defs>
</svg>
