<svg width="62" height="62" viewBox="0 0 62 62" fill="none" xmlns="http://www.w3.org/2000/svg">
<g clip-path="url(#clip0_2271_1613)">
<path d="M61.7907 31.0909C61.7907 14.0279 47.9584 0.195557 30.8954 0.195557C13.8323 0.195557 0 14.0279 0 31.0909C0 48.154 13.8323 61.9863 30.8954 61.9863C47.9584 61.9863 61.7907 48.154 61.7907 31.0909Z" fill="url(#paint0_linear_2271_1613)"/>
<path d="M13.5042 27.0234C10.8257 27.0234 8.65417 29.2243 8.65417 31.9391C8.65417 34.6539 10.8257 36.8548 13.5042 36.8548C16.1828 36.8548 18.3543 34.6539 18.3543 31.9391C18.3543 29.2243 16.1828 27.0234 13.5042 27.0234ZM13.4826 34.5983C12.062 34.5983 10.9106 33.4223 10.9106 31.9723C10.9106 30.5223 12.062 29.3462 13.4826 29.3462C14.9033 29.3462 16.0547 30.5223 16.0547 31.9723C16.0547 33.4223 14.9033 34.5983 13.4826 34.5983Z" fill="white"/>
<path d="M20.914 27.3204H28.0398C28.2837 27.3204 28.4233 27.5982 28.2783 27.7935L23.3911 34.3814H27.1315C27.7589 34.3814 28.2674 34.8899 28.2674 35.5173C28.2674 36.1447 27.7589 36.6532 27.1315 36.6532H19.4339C19.1854 36.6532 19.0427 36.37 19.1908 36.1702L24.1003 29.5344H20.914C20.2913 29.5344 19.7912 29.0212 19.8074 28.3985C19.8228 27.7989 20.3136 27.3204 20.914 27.3204Z" fill="white"/>
<path d="M35.82 27.0234C32.0642 27.0234 29.0199 29.2243 29.0199 31.9391C29.0199 34.6539 32.0642 36.8548 35.82 36.8548C39.5758 36.8548 42.6202 34.6539 42.6202 31.9391C42.6202 29.2243 39.5758 27.0234 35.82 27.0234ZM35.7907 34.5983C33.2812 34.5983 31.247 33.4223 31.247 31.9723C31.247 30.5223 33.2812 29.3462 35.7907 29.3462C38.3002 29.3462 40.3344 30.5223 40.3344 31.9723C40.3344 33.4223 38.3002 34.5983 35.7907 34.5983Z" fill="white"/>
<path d="M45.4058 36.6385C44.7861 36.6385 44.2822 36.1377 44.2799 35.518L44.2413 27.575C44.2413 27.3512 44.4991 27.2254 44.6758 27.3635L50.8972 32.226V28.4786C50.8972 27.8397 51.4157 27.3211 52.0547 27.3211C52.6936 27.3211 53.2122 27.8397 53.2122 28.4786V36.2195C53.2122 36.5358 52.8472 36.7118 52.5995 36.5158L46.4985 31.6773L46.5325 35.5041C46.5379 36.1299 46.0324 36.6408 45.4066 36.6408L45.4058 36.6385Z" fill="white"/>
</g>
<defs>
<linearGradient id="paint0_linear_2271_1613" x1="17.9141" y1="0.195556" x2="77.1951" y2="100.757" gradientUnits="userSpaceOnUse">
<stop stop-color="#005BFF"/>
<stop offset="0.713522" stop-color="#F91158"/>
</linearGradient>
<clipPath id="clip0_2271_1613">
<rect width="61.7907" height="61.7907" fill="white" transform="translate(0 0.195557)"/>
</clipPath>
</defs>
</svg>
