<svg width="63" height="62" viewBox="0 0 63 62" fill="none" xmlns="http://www.w3.org/2000/svg">
<rect x="0.303101" y="0.123779" width="61.7907" height="61.7907" rx="30.8954" fill="url(#paint0_linear_2271_2384)"/>
<g clip-path="url(#clip0_2271_2384)">
<path d="M11.7054 25.7617H7.57275V36.3681H9.60416V32.9249H11.7396C13.4711 32.9249 14.8731 31.5217 14.8731 29.7915V28.9307C14.8731 27.1809 13.4551 25.7617 11.7041 25.7617H11.7054ZM12.6005 29.3176C12.6005 30.3682 11.7482 31.2204 10.6976 31.2204H9.56987V27.4148H10.6976C11.7482 27.4148 12.6005 28.267 12.6005 29.3176Z" fill="#3C3F3E"/>
<path d="M21.5554 36.3694H23.6223L19.9709 25.7617H17.9738L14.3579 36.3681H16.3893L17.1656 34.1984H20.7889L21.5554 36.3681V36.3694ZM17.7815 32.478L18.9889 29.1033L20.1803 32.478H17.7815Z" fill="#3C3F3E"/>
<path d="M23.1381 25.7617H25.4462L27.2364 29.6543L29.0964 25.7617H31.2318L28.2698 32.271V36.3694H26.1699V32.3053L23.1381 25.7617Z" fill="#3C3F3E"/>
<path d="M34.7219 34.797V32.0187H37.9594V29.9517H34.7219V27.5408H38.579V25.5669H34.7219H33.7227H32.7247V36.5639H34.079H34.7219H39.13V34.797H34.7219Z" fill="white"/>
<path d="M42.4814 34.797V32.0187H45.7189V29.9517H42.4814V27.5408H46.3385V25.5669H42.4814H41.4834H40.4843V36.5639H41.8385H42.4814H46.8895V34.797H42.4814Z" fill="white"/>
<path d="M53.4331 31.8582C54.4384 31.6783 55.1755 30.8089 55.1878 29.7877L55.2061 28.2081C55.222 26.8257 54.1212 25.6893 52.7388 25.6612L48.1299 25.5681V36.5651H50.1968V32.2489H51.0919L53.5261 36.7488L55.9604 36.5651L53.4355 31.8582H53.4331ZM51.7115 30.3191H50.1956V27.564H51.7115C52.4719 27.564 53.089 28.1811 53.089 28.9415C53.089 29.7019 52.4719 30.3191 51.7115 30.3191Z" fill="white"/>
</g>
<defs>
<linearGradient id="paint0_linear_2271_2384" x1="6.5341" y1="2.54694" x2="80.6137" y2="92.8099" gradientUnits="userSpaceOnUse">
<stop offset="0.161977" stop-color="#0099DD"/>
<stop offset="0.773961" stop-color="#7DE0FF"/>
</linearGradient>
<clipPath id="clip0_2271_2384">
<rect width="48.3864" height="11.1807" fill="white" transform="translate(7.57275 25.5669)"/>
</clipPath>
</defs>
</svg>
