<svg width="62" height="63" viewBox="0 0 62 63" fill="none" xmlns="http://www.w3.org/2000/svg">
<rect x="0.124756" y="0.843018" width="61.7907" height="61.7907" rx="30.8954" fill="url(#paint0_linear_2271_2491)"/>
<path fill-rule="evenodd" clip-rule="evenodd" d="M31.0203 40.6524C39.2889 40.6524 45.992 33.9493 45.992 25.6807C45.992 17.412 39.2889 10.709 31.0203 10.709C22.7516 10.709 16.0486 17.412 16.0486 25.6807C16.0486 33.9493 22.7516 40.6524 31.0203 40.6524ZM31.1029 37.3434C37.4985 37.3434 42.6832 32.1587 42.6832 25.763C42.6832 19.3674 37.4985 14.1827 31.1029 14.1827C24.7072 14.1827 19.5225 19.3674 19.5225 25.763C19.5225 32.1587 24.7072 37.3434 31.1029 37.3434Z" fill="url(#paint1_angular_2271_2491)"/>
<g clip-path="url(#clip0_2271_2491)">
<path d="M21.6045 45.7672V46.3381C21.1918 45.9306 20.6364 45.6802 20.0248 45.6802C18.7522 45.6802 17.7207 46.7616 17.7207 48.0955C17.7207 49.4295 18.7522 50.5109 20.0248 50.5109C20.6364 50.5109 21.1918 50.2605 21.6045 49.853V50.2883H22.6091V45.7672H21.6045ZM20.1649 49.5351C19.3808 49.5351 18.745 48.8668 18.745 48.0425C18.745 47.2181 19.3808 46.5499 20.1649 46.5499C20.9491 46.5499 21.5849 47.2181 21.5849 48.0425C21.5849 48.8668 20.9491 49.5351 20.1649 49.5351Z" fill="white"/>
<path d="M23.2363 45.811H24.41L25.5404 49.007L26.83 45.811H27.946L25.3956 51.9839H24.2508L24.9901 50.448L23.2363 45.811Z" fill="white"/>
<path d="M30.3347 45.7043C29.0158 45.7043 27.9462 46.7739 27.9462 48.0929C27.9462 49.4119 29.0158 50.4815 30.3347 50.4815C31.6537 50.4815 32.7233 49.4119 32.7233 48.0929C32.7233 46.7739 31.6537 45.7043 30.3347 45.7043ZM30.3466 49.4866C29.5995 49.4866 28.9941 48.8508 28.9941 48.0666C28.9941 47.2825 29.5995 46.6467 30.3466 46.6467C31.0937 46.6467 31.6991 47.2825 31.6991 48.0666C31.6991 48.8508 31.0937 49.4866 30.3466 49.4866Z" fill="white"/>
<path d="M33.4232 45.7044H34.4665V46.3325C34.4665 46.3325 34.9158 45.7287 35.9009 45.7044C36.886 45.6802 37.5672 46.1893 37.7413 47.0868V50.361H36.7268V47.5644C36.7268 47.5644 36.7413 46.7431 35.785 46.6468C34.8287 46.5504 34.5242 47.231 34.5098 47.55V50.361H33.4232V45.7044Z" fill="white"/>
<path d="M41.1617 45.7042C38.9086 45.3832 37.6695 48.2592 39.1183 49.7085C40.5671 51.1579 42.509 50.2928 42.9294 49.4865L42.1035 49.0068C42.1035 49.0068 41.4806 49.7426 40.5965 49.4865C39.7124 49.2304 39.582 48.4045 39.582 48.4045H43.0598C43.0598 48.4045 43.5173 46.0402 41.1617 45.7042ZM39.6258 47.5348C39.7706 47.1 40.0292 46.6193 40.8505 46.5904C41.7372 46.559 42.0314 47.5348 42.0314 47.5348H39.6258Z" fill="white"/>
<path d="M46.3493 45.7042C44.0962 45.3832 42.8571 48.2592 44.3059 49.7085C45.7547 51.1579 47.6966 50.2928 48.117 49.4865L47.2911 49.0068C47.2911 49.0068 46.6682 49.7426 45.7841 49.4865C44.9 49.2304 44.7696 48.4045 44.7696 48.4045H48.2474C48.2474 48.4045 48.7049 46.0402 46.3493 45.7042ZM44.8129 47.5348C44.9577 47.1 45.2163 46.6193 46.0376 46.5904C46.9243 46.559 47.2185 47.5348 47.2185 47.5348H44.8129Z" fill="white"/>
<path d="M15.3974 43.7678H12.76V50.2885H13.876V48.2595H15.3974C16.6381 48.2595 17.6433 47.2538 17.6433 46.0137C17.6433 44.7735 16.6376 43.7678 15.3974 43.7678ZM16.4552 46.0137C16.4552 46.702 15.8972 47.26 15.2089 47.26H13.861V44.7679H15.2089C15.8972 44.7679 16.4552 45.3259 16.4552 46.0142V46.0137Z" fill="white"/>
<path d="M49.0302 45.7039H50.1461V46.3762C50.1461 46.3762 50.6825 45.5065 51.7258 45.7966V46.724C51.7258 46.724 50.3347 46.521 50.1461 47.5355V50.361H49.0302V45.7039Z" fill="white"/>
</g>
<defs>
<linearGradient id="paint0_linear_2271_2491" x1="16.2215" y1="4.56431" x2="84.0701" y2="109.885" gradientUnits="userSpaceOnUse">
<stop offset="0.0960128" stop-color="#202020"/>
<stop offset="1" stop-color="#643ADB"/>
</linearGradient>
<radialGradient id="paint1_angular_2271_2491" cx="0" cy="0" r="1" gradientUnits="userSpaceOnUse" gradientTransform="translate(31.0203 25.6807) rotate(90) scale(14.9717)">
<stop stop-color="#DE50C6"/>
<stop offset="0.0903209" stop-color="#F34A45"/>
<stop offset="0.216643" stop-color="#FF4500"/>
<stop offset="0.3692" stop-color="#F86700"/>
<stop offset="0.517679" stop-color="#DED701"/>
<stop offset="0.657684" stop-color="#43DC5F"/>
<stop offset="0.765" stop-color="#1ADB7E"/>
<stop offset="0.85" stop-color="#0790F2"/>
</radialGradient>
<clipPath id="clip0_2271_2491">
<rect width="38.9653" height="8.21626" fill="white" transform="translate(12.76 43.7678)"/>
</clipPath>
</defs>
</svg>
