<svg width="32" height="37" viewBox="0 0 32 37" fill="none" xmlns="http://www.w3.org/2000/svg">
<path d="M0.260632 30.1468L4.46486 2.63611C4.65743 1.37455 5.74312 0.443115 7.01942 0.443115H20.258C25.3681 0.443115 29.0692 5.31546 27.6996 10.2379L27.3734 11.412C25.9743 16.4386 21.4822 19.9826 16.2679 20.1722L11.3347 20.352C10.979 20.3648 10.6793 20.6222 10.6125 20.972L8.57967 32.8173L1.83562 32.1197C0.836392 32.048 0.110305 31.1382 0.261614 30.1478L0.260632 30.1468Z" fill="#003085"/>
<path d="M8.17582 34.6184L12.2906 9.70255C12.4685 8.62276 13.4284 7.84853 14.5219 7.90257L25.4859 8.44688C29.3119 8.63651 32.0522 12.2159 31.2367 15.9593L30.6609 18.6023C29.6744 23.1307 25.7247 26.4006 21.0911 26.5244L19.3216 26.5715C18.4334 26.5951 17.6808 27.2318 17.5088 28.1033L16.0517 35.5145C15.9132 36.2199 15.2687 36.7092 14.5524 36.6542L9.46489 36.2632C8.63564 36.1993 8.03924 35.4388 8.17483 34.6194L8.17582 34.6184Z" fill="#019CDE"/>
<path fill-rule="evenodd" clip-rule="evenodd" d="M27.9305 9.07987C27.8837 9.46402 27.8074 9.85082 27.6997 10.2379L27.3735 11.4121C25.9744 16.4387 21.4822 19.9826 16.268 20.1722L11.3347 20.3521C10.9791 20.3648 10.6794 20.6222 10.6126 20.972L8.57973 32.8173L8.4751 32.8065L12.2907 9.70255C12.4685 8.62276 13.4284 7.84853 14.522 7.90257L25.486 8.44688C26.3687 8.49064 27.1937 8.71484 27.9305 9.07987Z" fill="#012069"/>
</svg>
