<svg width="63" height="63" viewBox="0 0 63 63" fill="none" xmlns="http://www.w3.org/2000/svg">
<path d="M62.2556 31.6266C62.2556 14.5635 48.4232 0.731201 31.3602 0.731201C14.2972 0.731201 0.464844 14.5635 0.464844 31.6266C0.464844 48.6896 14.2972 62.5219 31.3602 62.5219C48.4232 62.5219 62.2556 48.6896 62.2556 31.6266Z" fill="url(#paint0_linear_2271_2210)"/>
<path d="M45.3847 27.5992C45.1838 15.2929 33.2122 12.0153 25.7214 14.8244C22.3505 16.0889 20.3072 18.6394 19.0789 21.0626C17.8893 23.4097 17.2942 26.013 17.2942 28.6443V49.2019H23.5139C23.7815 42.0452 30.6706 41.4435 31.8073 41.5101C32.944 41.5767 45.5851 39.9049 45.3847 27.5986V27.5992ZM38.3119 31.9968C36.0545 35.4081 34.9511 35.1067 30.0018 35.6251C25.109 36.1375 23.247 37.7653 23.247 37.7653V28.4838C23.247 26.4328 23.9265 24.4305 25.216 22.836C26.4342 21.3301 28.3568 19.9586 31.3407 19.8415C38.1615 19.5739 40.87 28.1313 38.3119 31.9974V31.9968Z" fill="#000099"/>
<path fill-rule="evenodd" clip-rule="evenodd" d="M45.3633 26.9645C44.768 15.1804 33.0814 12.064 25.721 14.8241C22.3501 16.0887 20.3068 18.6391 19.0786 21.0623C18.143 22.9083 17.5751 24.9127 17.3752 26.9645H23.3722C23.6233 25.4597 24.2476 24.0328 25.2157 22.8357C26.4338 21.3299 28.3565 19.9583 31.3403 19.8412C35.8447 19.6645 38.5557 23.3366 39.1408 26.9645H45.3633Z" fill="#3399FE"/>
<path d="M17.2943 49.1992C17.318 44.0151 21.2577 39.5087 23.2394 37.8144L23.3583 26.9051C21.436 26.8754 17.5202 26.8338 17.3537 26.9051C17.1873 26.9765 17.2744 41.7877 17.2943 49.1992Z" fill="#34CC67"/>
<defs>
<linearGradient id="paint0_linear_2271_2210" x1="-3.68915" y1="-14.327" x2="136.681" y2="175.805" gradientUnits="userSpaceOnUse">
<stop offset="0.257455" stop-color="#F0F5FC" stop-opacity="0.9"/>
<stop offset="0.71116" stop-color="#122B6B" stop-opacity="0.77"/>
</linearGradient>
</defs>
</svg>
