<svg width="63" height="63" viewBox="0 0 63 63" fill="none" xmlns="http://www.w3.org/2000/svg">
<rect x="0.706665" y="0.532715" width="61.7907" height="61.7907" rx="30.8954" fill="url(#paint0_linear_2271_2438)"/>
<g clip-path="url(#clip0_2271_2438)">
<path d="M22.8678 22.5142H15.0938C14.8142 22.5142 14.588 22.7404 14.588 23.0199C14.588 23.2995 14.8014 23.5129 15.0703 23.5257L16.3805 23.5854C16.8372 23.6068 17.1979 23.9823 17.1979 24.4411V32.1469H19.6882V24.1488C19.6882 23.8436 19.9123 23.5875 20.2132 23.5385C22.8998 23.0839 24.7308 24.9149 24.7308 24.9149C26.5916 29.6864 24.161 31.5472 21.8798 32.3581C19.5986 33.1691 11.4361 32.2664 11.7947 32.5374C11.8971 32.6142 12.3239 32.7231 12.8808 32.8362C14.9721 33.2672 17.1445 33.4273 19.3169 33.4465L21.5576 33.3867C24.6369 33.3718 28.1793 30.9049 28.1793 27.8256C28.1793 24.8914 25.802 22.5142 22.8678 22.5142Z" fill="white"/>
<path d="M21.5788 40.1302H21.0986C20.2856 40.1302 19.6283 39.4708 19.6283 38.6599V34.0078H17.0484L16.9801 38.6599C16.9673 39.4985 16.2972 40.1771 15.4585 40.1963L15.0766 40.207C14.8056 40.2134 14.5879 40.4353 14.5879 40.7085C14.5879 40.9816 14.812 41.2099 15.0894 41.2099H21.5809C21.8797 41.2099 22.1208 40.9688 22.1208 40.6701C22.1208 40.3713 21.8797 40.1302 21.5809 40.1302H21.5788Z" fill="white"/>
<path d="M28.0002 40.3735C28.0002 40.0684 28.2478 39.8208 28.5529 39.8208H29.4492C30.0275 39.8208 30.5055 39.3684 30.5397 38.7922L31.3271 25.0687C31.3698 24.3282 30.8598 23.671 30.1321 23.528L29.1633 23.3381C29.0459 23.3146 28.9627 23.2122 28.9627 23.0927V22.9475C28.9627 22.8088 29.0736 22.6979 29.2123 22.6979H33.3288C33.5699 22.6979 33.7641 22.8921 33.7641 23.1332V23.3935C33.7641 23.9889 33.9007 24.5758 34.161 25.1114L39.7264 36.5281C39.8246 36.7308 40.1126 36.7308 40.2129 36.5302L46.3886 24.2535C46.5594 23.9121 46.649 23.5365 46.649 23.1545C46.649 22.9006 46.856 22.6936 47.1099 22.6936H51.4504V23.4533L48.9707 23.4938L49.3975 39.4239C49.4061 39.7056 49.6237 39.9361 49.9054 39.9574L51.1858 40.0534C51.3992 40.0684 51.5699 40.2327 51.5934 40.4461C51.6233 40.7107 51.4184 40.9412 51.1516 40.9412H44.8479C44.626 40.9412 44.4489 40.7619 44.4489 40.5421C44.4489 40.3202 44.6281 40.1409 44.8479 40.1409H45.8381C46.2862 40.1409 46.649 39.7781 46.649 39.33V26.8164L39.8694 40.6381C39.6688 41.0479 39.0819 41.0414 38.8899 40.6275L32.4069 26.618L31.995 39.0889C31.9801 39.5562 32.3535 39.9425 32.8209 39.9425H34.1034C34.3381 39.9425 34.528 40.1324 34.528 40.3671C34.528 40.5976 34.3445 40.7875 34.1141 40.7918L28.5743 40.9284C28.2627 40.9369 28.0066 40.6851 28.0066 40.3757L28.0002 40.3735Z" fill="white"/>
</g>
<defs>
<linearGradient id="paint0_linear_2271_2438" x1="15.0726" y1="0.532715" x2="94.0851" y2="134.24" gradientUnits="userSpaceOnUse">
<stop offset="0.120435" stop-color="#F10F11"/>
<stop offset="1" stop-color="#3748DA"/>
</linearGradient>
<clipPath id="clip0_2271_2438">
<rect width="39.8091" height="18.6957" fill="white" transform="translate(11.7841 22.5142)"/>
</clipPath>
</defs>
</svg>
