<svg width="62" height="63" viewBox="0 0 62 63" fill="none" xmlns="http://www.w3.org/2000/svg">
<g clip-path="url(#clip0_2271_1581)">
<path d="M61.9237 31.4154C61.9237 14.3523 48.0914 0.52002 31.0284 0.52002C13.9653 0.52002 0.132996 14.3523 0.132996 31.4154C0.132996 48.4784 13.9653 62.3107 31.0284 62.3107C48.0914 62.3107 61.9237 48.4784 61.9237 31.4154Z" fill="url(#paint0_linear_2271_1581)"/>
<path d="M12.9411 29.6616V19.399L19.2065 19.4411V29.7029L17.1935 29.6616V21.1347H14.9534V29.6616H13.0444" fill="white"/>
<path d="M24.2195 19.0398C22.3098 19.0398 20.7615 21.5042 20.7615 24.5439C20.7615 27.5837 22.3098 30.0481 24.2195 30.0481C26.1292 30.0481 27.6775 27.5837 27.6775 24.5439C27.6775 21.5042 26.1292 19.0398 24.2195 19.0398ZM24.1782 28.0845C23.3764 28.0845 22.7258 26.4935 22.7258 24.5299C22.7258 22.5664 23.3757 20.9753 24.1782 20.9753C24.9807 20.9753 25.6306 22.5664 25.6306 24.5299C25.6306 26.4935 24.9807 28.0845 24.1782 28.0845Z" fill="white"/>
<path d="M28.7839 19.3991V22.0988C28.7839 23.3616 29.686 24.4636 30.9333 24.665C30.9724 24.6716 31.0122 24.6768 31.0521 24.6819H32.8224V29.7022C32.8224 29.7022 34.8966 29.8541 34.8966 29.7022V19.3983H32.8497V22.9669H31.6466C31.2114 22.9669 30.8581 22.6144 30.8581 22.1784V19.3983H28.7839V19.3991Z" fill="white"/>
<path d="M42.0058 19.399H36.8881V21.28H38.3818V29.7708H40.5121V21.28H42.0058V19.399Z" fill="white"/>
<path d="M49.7508 22.0995C49.5672 20.8264 48.7299 19.399 47.4273 19.399H44.0254L43.8321 29.77H45.8031V24.7431L47.9953 24.7232L48.3825 29.7641L50.4191 29.742L49.7516 22.0988L49.7508 22.0995ZM47.7939 22.9603H45.8429V21.2387H46.7258C47.3159 21.2387 47.7939 21.7167 47.7939 22.3068V22.9603Z" fill="white"/>
<path d="M26.9929 36.0872C26.8093 34.814 25.9721 33.3867 24.6694 33.3867H21.2675L21.0742 43.7577H23.0452V38.7308L25.2374 38.7109L25.6247 43.7518L27.6612 43.7297L26.9937 36.0864L26.9929 36.0872ZM25.036 36.948H23.085V35.2264H23.9679C24.558 35.2264 25.036 35.7043 25.036 36.2944V36.948Z" fill="white"/>
<path d="M34.2261 33.4236V36.6736H31.5707V33.4236H29.6204V43.7577H31.5707V38.4785H34.2261V43.9141H36.093V33.4236H34.2261Z" fill="white"/>
<path d="M38.6865 33.52H40.4288V36.9478H41.2063C41.6636 36.9478 42.0848 36.6881 42.278 36.2743C42.5126 35.772 42.6439 34.9872 42.6343 33.4994L44.5772 33.5068L44.4909 35.4637C44.471 35.9232 44.3625 36.3769 44.1545 36.787C43.9753 37.1418 43.7053 37.5099 43.3114 37.7112L45.5936 43.9139H43.4154L41.7728 38.9372C41.7012 38.7196 41.4976 38.572 41.2682 38.572H40.4908V43.9139H38.6858V33.52H38.6865Z" fill="white"/>
<path d="M15.8039 36.798H14.7874V35.2262H18.314V33.4994H12.9411V43.9139H15.8039C17.729 43.9139 19.2891 42.3538 19.2891 40.4286V40.2833C19.2891 38.3581 17.729 36.798 15.8039 36.798ZM17.3698 40.6809C17.3698 41.5572 16.6418 42.2572 15.7662 42.224L14.9113 42.1916V38.4784L15.8843 38.5152C16.7133 38.547 17.3698 39.2285 17.3698 40.0583V40.6809Z" fill="white"/>
</g>
<defs>
<linearGradient id="paint0_linear_2271_1581" x1="132.022" y1="26.396" x2="-9.55966" y2="22.4151" gradientUnits="userSpaceOnUse">
<stop offset="0.3" stop-color="#FF2727"/>
<stop offset="0.502883" stop-color="#CC003D"/>
<stop offset="1" stop-color="#0821A6"/>
</linearGradient>
<clipPath id="clip0_2271_1581">
<rect width="61.7907" height="61.7907" fill="white" transform="translate(0.132996 0.52002)"/>
</clipPath>
</defs>
</svg>
