<svg width="63" height="63" viewBox="0 0 63 63" fill="none" xmlns="http://www.w3.org/2000/svg">
<rect x="0.664429" y="0.477783" width="61.7907" height="61.7907" rx="30.8954" fill="url(#paint0_linear_2271_2342)"/>
<path d="M29.6494 27.027L33.6264 24.6533V21.2175C33.6264 20.3458 33.171 19.5381 32.4268 19.0907L24.27 14.1823C23.2774 13.5851 22.0478 13.7392 21.0634 14.3496L12.7992 19.1621C12.1448 19.5431 11.7418 20.2456 11.7418 21.0057V31.2198C11.7418 31.9379 12.1205 32.6021 12.7369 32.9656L21.4888 38.0457C22.2674 38.4975 23.2269 38.4949 24.0029 38.04L39.3933 29.0103C40.024 28.6399 40.802 28.6293 41.4426 28.9821L46.4547 31.8445C47.1128 32.2205 47.5214 32.9198 47.5264 33.6805L47.5663 39.2958C47.5713 40.0302 47.187 40.712 46.557 41.0842L41.6991 44.0068C41.0315 44.4085 40.1943 44.3934 39.5418 43.9679L34.7463 41.2089C34.138 40.8586 33.7575 40.2138 33.7437 39.5095L33.672 35.7923L29.6719 38.1422L29.781 41.64C29.8079 42.4885 30.2726 43.2611 31.0081 43.6791L39.3559 48.5969C40.1207 49.0474 41.0658 49.0562 41.8382 48.6201L50.2202 43.8351C51.0499 43.3614 51.559 42.4734 51.5509 41.5147L51.5353 31.5337C51.534 30.6733 51.0705 29.88 50.272 29.5228L41.8831 24.5292C41.1139 24.0711 40.1581 24.0655 39.3833 24.5148L24.26 33.443C23.2612 34.0327 22.016 34.002 21.0478 33.3641L16.7732 30.7667C16.1163 30.3675 15.7326 29.6356 15.7775 28.8655L15.6908 23.5329C15.6758 22.6243 16.1531 21.7789 16.9366 21.3246L21.6392 18.5988C22.3217 18.2034 23.1645 18.214 23.8364 18.627L28.5321 21.512C29.1684 21.903 29.5627 22.5929 29.577 23.3424L29.6475 27.0276L29.6494 27.027Z" fill="#EAE6E6"/>
<defs>
<linearGradient id="paint0_linear_2271_2342" x1="8.88588" y1="2.81441" x2="57.6088" y2="68.3264" gradientUnits="userSpaceOnUse">
<stop offset="0.197311" stop-color="#7C3FE3"/>
<stop offset="1" stop-color="#A238E4"/>
</linearGradient>
</defs>
</svg>
