<svg width="63" height="63" viewBox="0 0 63 63" fill="none" xmlns="http://www.w3.org/2000/svg">
<g clip-path="url(#clip0_2271_1973)">
<path d="M62.3383 31.3607C62.3383 14.2977 48.506 0.465332 31.443 0.465332C14.3799 0.465332 0.547607 14.2977 0.547607 31.3607C0.547607 48.4237 14.3799 62.2561 31.443 62.2561C48.506 62.2561 62.3383 48.4237 62.3383 31.3607Z" fill="url(#paint0_linear_2271_1973)"/>
<path d="M16.6444 16.5632V30.9557C24.4408 30.6468 27.3068 32.0804 29.4195 34.6081C31.0464 36.5557 32.1275 39.3227 32.1275 41.8598V46.0014H46.4116V16.562H16.6444V16.5632ZM40.2504 40.1703H37.9067C37.9067 40.1703 37.5801 26.8683 22.7514 25.015V22.5074H40.2516V40.1715L40.2504 40.1703Z" fill="white"/>
<path d="M27.9658 34.6091H16.6444V45.8763H27.9658V34.6091Z" fill="#212121"/>
</g>
<defs>
<linearGradient id="paint0_linear_2271_1973" x1="62.6058" y1="68.1156" x2="-29.4823" y2="-17.0161" gradientUnits="userSpaceOnUse">
<stop offset="0.317224" stop-color="#5EB04C"/>
<stop offset="0.911462" stop-color="#97DD61"/>
</linearGradient>
<clipPath id="clip0_2271_1973">
<rect width="61.7907" height="61.7907" fill="white" transform="translate(0.547607 0.465332)"/>
</clipPath>
</defs>
</svg>
