<svg width="63" height="63" viewBox="0 0 63 63" fill="none" xmlns="http://www.w3.org/2000/svg">
<g clip-path="url(#clip0_2271_1947)">
<path d="M62.7205 31.8385C62.7205 14.7754 48.8881 0.943115 31.8251 0.943115C14.7621 0.943115 0.929749 14.7754 0.929749 31.8385C0.929749 48.9015 14.7621 62.7338 31.8251 62.7338C48.8881 62.7338 62.7205 48.9015 62.7205 31.8385Z" fill="url(#paint0_linear_2271_1947)"/>
<path d="M16.8812 13.2321L34.2826 18.2032C34.961 18.397 35.4257 19.021 35.4168 19.7261L35.3575 24.6438C35.3575 24.8623 35.5137 25.0492 35.7283 25.0888L37.1751 25.3548C36.7854 24.4836 36.6223 23.6302 36.6747 22.8331C36.733 21.9412 37.0613 21.061 37.5034 20.2848C38.6801 20.2838 38.8117 20.3045 39.8272 20.2907C39.9736 22.0499 40.9585 23.2494 41.272 23.5026C42.3944 24.4084 43.7759 24.5943 45.0377 24.5943C45.1217 27.8675 45.099 27.9951 45.1494 30.3002C45.1623 30.8629 44.9348 31.206 44.4958 31.4977C44.0804 31.7736 43.1983 31.9556 42.7009 31.9922L42.6683 36.5628C42.6663 36.8802 42.8908 37.1531 43.2023 37.2125L44.4968 37.4597C44.8973 37.5358 45.186 37.8859 45.186 38.2933V40.1534C45.186 40.5816 44.8389 40.9287 44.4107 40.9287H37.802C37.4915 40.9287 37.2117 40.7388 37.0969 40.4511L35.3644 36.1029C35.2952 35.9279 35.1231 35.8162 34.9352 35.8241L31.3921 35.9606L30.9649 36.4352C30.8512 36.5618 30.9036 36.7635 31.0648 36.8179L33.4747 37.6407C33.6487 37.7 33.7664 37.8641 33.7664 38.0481V40.3551C33.7664 40.6726 33.5093 40.9297 33.1918 40.9297H17.6169C17.1967 40.9297 16.8565 40.5895 16.8565 40.1692V34.2854C16.8565 33.7642 17.2075 33.3084 17.7109 33.1749L28.3522 30.3605L16.8565 26.9864V25.4655L29.9839 29.3598V27.8023L16.8565 23.9832V22.4623L30.0205 26.2814V24.6497L16.8565 20.9414V19.3839L29.8722 23.1298V21.6465L16.8565 17.9006V16.3065L31.7639 20.6457V29.5219C31.7639 29.7563 31.9172 29.963 32.1426 30.0302L37.3175 31.5857C37.6388 31.6826 37.981 31.6886 38.3063 31.6045L43.2053 30.3308C43.3042 30.3051 43.3734 30.2171 43.3754 30.1153L43.41 28.4648C43.4119 28.3481 43.3229 28.2492 43.2063 28.2403L42.0117 28.1484C41.2651 28.091 40.5264 27.9496 39.8114 27.7271L34.0027 25.9194C33.7743 25.8482 33.6161 25.6386 33.6121 25.3983L33.5162 20.2086C33.5112 19.9377 33.3333 19.7003 33.0752 19.6202L16.8852 14.7213V13.2321H16.8812Z" fill="white"/>
<path d="M38.0184 33.2449L40.8832 32.5369L41.0177 37.0907C41.0365 37.7424 41.4904 38.3011 42.1243 38.4544L43.3584 38.752V39.559H38.6029L36.9781 35.4324C36.7171 34.7698 36.0733 34.3377 35.3603 34.3475L31.3682 34.4029C30.8589 34.4099 30.3793 34.6432 30.0599 35.0398L28.6606 36.7723C28.3976 37.0976 28.542 37.5852 28.9395 37.7157L31.9279 38.6976V39.56H18.4949V34.4425L30.9271 31.1327L38.0194 33.2469L38.0184 33.2449Z" fill="white"/>
<path d="M21.3043 44.0427C20.9127 43.8637 20.4835 43.7856 20.0534 43.7856H19.0042C18.8776 43.7856 19.0556 43.7767 18.6333 43.7856H16.8533V45.9364V50.5723H18.6333V48.0556C18.754 48.0763 18.8776 48.0882 19.0042 48.0882H20.4499C21.6375 48.0882 22.6007 47.125 22.6007 45.9374C22.6007 45.0464 22.0816 44.3997 21.3043 44.0437V44.0427ZM19.7824 46.8818H18.7253V45.2313H19.7824C20.2383 45.2313 20.6071 45.6012 20.6071 46.0561C20.6071 46.5109 20.2373 46.8808 19.7824 46.8808V46.8818Z" fill="white"/>
<path d="M28.6448 43.7816V46.3161H25.5862V43.7816H23.7498V50.4328H25.5862V47.7905H28.6448V50.4328H30.4811V43.7816H28.6448Z" fill="white"/>
<path d="M39.2969 50.5713L35.9594 46.8818L39.1862 43.7816H36.711L34.041 46.8511V43.7816H32.2047V50.4328H34.041V47.3564L36.9058 50.5713H39.2969Z" fill="white"/>
<path d="M43.5433 46.2507H42.0224V45.2035H45.1838V43.7805H40.2424V50.5148H43.5433C44.7211 50.5148 45.6753 49.5605 45.6753 48.3828C45.6753 47.205 44.7211 46.2507 43.5433 46.2507ZM43.0568 49.1432H42.0877V47.6876H43.0568C43.4582 47.6876 43.7846 48.0129 43.7846 48.4154C43.7846 48.8179 43.4592 49.1432 43.0568 49.1432Z" fill="white"/>
<path d="M39.2941 18.7104C39.8954 18.3218 41.8217 17.1549 43.7481 16.8207C43.7481 16.8207 43.484 17.7799 44.0961 17.9055C44.7083 18.0311 45.6675 17.9055 45.6675 17.9055C45.6675 17.9055 45.7505 18.5176 44.6104 18.4474C43.4702 18.3772 42.3438 18.6699 42.4684 19.5599C42.4684 19.5599 41.3194 19.8012 42.0225 20.5092C42.3379 20.8266 42.775 20.9918 43.223 20.9918H46.1253C46.1253 20.9918 47.1379 20.9661 47.3189 19.9723C47.3298 19.9119 47.2922 19.8506 47.2329 19.8378C47.0509 19.7982 46.6672 19.907 46.0551 19.9208C45.3738 19.9367 44.7864 19.9189 44.995 19.5075C45.09 19.3196 45.2947 19.2138 45.5043 19.2247L47.4198 19.3245C47.7115 19.3394 47.9825 19.1722 48.0991 18.9052L48.5036 18.3891C48.7647 18.0558 48.7439 17.5811 48.4551 17.2716C48.3978 17.2103 48.3335 17.146 48.2633 17.0798C47.4574 16.3203 46.3814 15.9149 45.2739 15.9149H45.0534C45.0534 15.9149 44.1654 14.3702 41.8435 15.2068C41.7485 15.2404 41.6447 15.1683 41.6516 15.0684C41.6605 14.9418 41.5982 14.8093 41.3124 14.7885C40.8951 14.7579 40.6192 14.9438 40.5015 15.0456C40.4561 15.0852 40.3997 15.1079 40.3394 15.1149C40.0229 15.1485 39.039 15.3641 39.0044 16.7633L38.1025 18.4375C38.0234 18.5848 38.1223 18.7648 38.2894 18.7767L38.863 18.8172C39.0143 18.8281 39.1656 18.7895 39.2931 18.7075L39.2941 18.7104Z" fill="white"/>
</g>
<defs>
<linearGradient id="paint0_linear_2271_1947" x1="9.93008" y1="8.55878" x2="90.5869" y2="72.9457" gradientUnits="userSpaceOnUse">
<stop offset="0.274627" stop-color="#22A9C7"/>
<stop offset="0.877297" stop-color="#2FCBAF"/>
</linearGradient>
<clipPath id="clip0_2271_1947">
<rect width="61.7907" height="61.7907" fill="white" transform="translate(0.929749 0.943115)"/>
</clipPath>
</defs>
</svg>
