<svg width="63" height="63" viewBox="0 0 63 63" fill="none" xmlns="http://www.w3.org/2000/svg">
<path d="M62.0363 31.4154C62.0363 14.3523 48.2039 0.52002 31.1409 0.52002C14.0779 0.52002 0.245544 14.3523 0.245544 31.4154C0.245544 48.4784 14.0779 62.3107 31.1409 62.3107C48.2039 62.3107 62.0363 48.4784 62.0363 31.4154Z" fill="url(#paint0_linear_2271_1985)"/>
<path d="M40.812 13.1549L21.2319 15.739V21.5927L40.812 19.8274V13.1549Z" fill="#E4003A"/>
<path d="M33.3264 24.9462C30.1342 24.9462 27.5397 26.9124 26.8964 27.7264V25.3669H21.2319V49.5024H26.8609V40.9178C27.5217 41.7495 30.0983 43.6804 33.3085 43.6804C38.6355 43.6804 41.5692 40.7939 41.5692 34.2995C41.5692 27.8051 38.6395 24.9462 33.3264 24.9462ZM31.3099 39.0047C27.9559 39.0047 26.9004 37.7876 26.9004 34.2857C26.9004 30.7839 27.9481 29.5668 31.3099 29.5668C34.6717 29.5668 35.6997 30.7662 35.6997 34.2857C35.6997 37.8053 34.6875 38.9968 31.3099 38.9968V39.0047Z" fill="white"/>
<defs>
<linearGradient id="paint0_linear_2271_1985" x1="-3.12958" y1="-19.3846" x2="97.2587" y2="120.813" gradientUnits="userSpaceOnUse">
<stop offset="0.254938" stop-color="#00274F"/>
<stop offset="0.742463" stop-color="#2564A5"/>
</linearGradient>
</defs>
</svg>
