<svg width="63" height="63" viewBox="0 0 63 63" fill="none" xmlns="http://www.w3.org/2000/svg">
<rect x="0.723328" y="0.806396" width="61.7907" height="61.7907" rx="30.8954" fill="url(#paint0_linear_2271_2348)"/>
<path d="M37.3838 14.8264H25.6947C24.5859 14.8264 23.6868 15.8195 23.6868 17.0443V30.0452H20.8135C20.1373 30.0452 19.5895 30.6503 19.5895 31.3972V34.1942C19.5895 34.941 20.1373 35.5461 20.8135 35.5461H23.6875V37.5485H20.8406C20.1498 37.5485 19.5895 38.1674 19.5895 38.9304V41.2844C19.5895 42.0474 20.1498 42.6663 20.8406 42.6663H23.6868V48.4709C23.6868 49.153 24.1796 49.7111 24.7971 49.7273L27.1189 49.7889C27.7562 49.8059 28.2813 49.2413 28.2842 48.5374L28.307 42.6655H39.0016C39.6338 42.6655 40.1464 42.0993 40.1464 41.401V38.8721C40.1464 38.1739 39.6338 37.6077 39.0016 37.6077H28.2248C28.2248 37.6077 28.315 35.6782 28.2424 35.5186C28.5534 35.5696 32.9954 35.568 37.4102 35.5542C42.389 35.538 46.4174 31.0756 46.4174 25.5771V24.8035C46.4174 19.2929 42.3729 14.8264 37.3845 14.8264H37.3838ZM42.1954 24.9421C42.1954 27.7601 40.1266 30.0452 37.5752 30.0452H28.2798V19.8389H37.5752C40.1266 19.8389 42.1954 22.124 42.1954 24.9421Z" fill="white"/>
<defs>
<linearGradient id="paint0_linear_2271_2348" x1="10.6756" y1="-4.47264" x2="57.235" y2="92.8001" gradientUnits="userSpaceOnUse">
<stop stop-color="#378DDC"/>
<stop offset="0.830711" stop-color="#52D5FF"/>
</linearGradient>
</defs>
</svg>
