<svg width="63" height="62" viewBox="0 0 63 62" fill="none" xmlns="http://www.w3.org/2000/svg">
<g clip-path="url(#clip0_2271_1805)">
<path d="M62.5384 31.0116C62.5384 13.9485 48.7061 0.116211 31.643 0.116211C14.58 0.116211 0.747681 13.9485 0.747681 31.0116C0.747681 48.0746 14.58 61.9069 31.643 61.9069C48.7061 61.9069 62.5384 48.0746 62.5384 31.0116Z" fill="url(#paint0_linear_2271_1805)"/>
<path d="M34.4493 15.1417C34.4353 15.1995 34.4662 15.2574 34.5231 15.2763C34.7414 15.3461 35.224 15.5166 35.3556 15.6871C35.3556 15.6871 35.3895 15.6183 35.3556 15.4647C35.3217 15.3112 37.0474 16.6272 36.8421 18.0449C36.8421 18.0449 37.1501 18.7628 38.6536 19.3948C38.6536 19.3948 38.7563 19.685 38.4831 19.8564C38.4831 19.8564 38.3465 20.7627 37.3376 20.6431C37.3376 20.6431 37.0853 20.8504 37.0215 20.8694C37.0215 20.8694 37.0345 20.6131 36.9577 20.5493C36.9079 20.5085 36.848 20.5573 36.8121 20.5972C36.7882 20.6231 36.7553 20.6381 36.7204 20.6361L36.6018 20.6291C36.5699 20.6271 36.545 20.6012 36.545 20.5693V20.4337C36.545 20.4337 35.856 20.4337 35.7025 20.6131C35.549 20.7926 35.9976 20.8694 35.9976 20.8694C35.9976 20.8694 36.216 20.9461 36.3057 21.2024C36.3615 21.3609 36.4961 21.3629 36.5898 21.3409C36.6427 21.329 36.7095 21.315 36.7503 21.2791C36.8321 21.2083 36.8819 21.1575 36.9089 21.2283C36.9378 21.3051 36.873 21.4317 36.8391 21.4905C36.8281 21.5094 36.8341 21.5324 36.852 21.5453L36.9856 21.6341C37.0444 21.6729 37.0634 21.7507 37.0285 21.8125C36.9447 21.9591 36.7932 22.1993 36.7035 22.1904C36.5798 22.1784 35.5201 21.6141 34.3725 21.6351C34.3287 21.6351 34.3017 21.5862 34.3277 21.5513C34.3755 21.4875 34.4284 21.4018 34.4214 21.3449C34.4084 21.2422 29.3966 21.1525 29.7685 22.4476C29.7685 22.4476 27.0108 22.7238 27.2351 24.6509C27.2381 24.6788 27.271 24.6928 27.294 24.6758C27.5203 24.5034 28.5033 23.8464 29.936 24.2162C29.936 24.2162 30.2311 24.282 30.3776 24.4944C30.3956 24.5213 30.3836 24.5572 30.3527 24.5662L30.1942 24.612C30.1423 24.627 30.0865 24.621 30.0416 24.5911C29.939 24.5223 29.7116 24.4216 29.3966 24.5881C28.9609 24.8184 28.8453 24.8443 28.6917 24.8065C28.6917 24.8065 28.4485 25.0756 29.4484 24.8962C29.4484 24.8962 29.7814 24.7297 30.0257 25.0248C30.0257 25.0248 28.7695 25.2681 27.9111 25.4864C27.9111 25.4864 27.8343 25.8323 29.3467 25.8194C30.8592 25.8064 31.8462 25.7426 31.9229 27.1145C31.9229 27.1145 31.6837 27.6728 31.4603 27.9978C31.4364 28.0327 31.4723 28.0776 31.5122 28.0606C31.7365 27.9659 32.1632 27.7456 32.2689 27.3986C32.2729 27.3856 32.2918 27.3866 32.2948 27.3996C32.3636 27.7466 32.6338 29.6328 30.5571 30.3716C30.5342 30.3796 30.5112 30.3876 30.4883 30.3955C28.2909 31.1323 26.5333 29.2819 26.288 29.0067C26.278 28.9958 26.288 28.9788 26.302 28.9808C26.631 29.0396 28.7645 29.3876 30.0347 28.8313C30.0646 28.8183 30.0576 28.7744 30.0257 28.7715C29.2969 28.7066 25.3778 28.2969 24.6689 26.9609C24.1026 25.8932 24.0139 25.4236 24.0079 25.2461C24.0069 25.2052 24.0528 25.1803 24.0867 25.2042C24.4466 25.4605 26.1076 26.604 27.3508 26.8214C27.3917 26.8283 27.4136 26.7755 27.3797 26.7516C26.8683 26.3927 25.0378 25.0577 24.1674 23.7626C23.8414 23.2781 23.6929 22.6988 23.7427 22.1166C23.7746 21.7417 23.8534 21.2383 24.0358 20.649C24.0428 20.6281 24.0717 20.6251 24.0817 20.6441C24.2651 21.0109 25.3279 23.0996 25.7965 23.2821C25.8134 23.289 25.8304 23.2741 25.8244 23.2571C25.7237 22.9441 25.0119 20.6809 24.96 19.2443C24.9491 18.9332 25.0488 18.6292 25.2452 18.3879L26.1923 17.2224C26.2132 17.1975 26.2531 17.2134 26.2511 17.2453C26.2152 17.7359 26.0826 19.7857 26.3877 20.011C26.3877 20.011 26.7067 18.0788 27.5292 16.7449C27.8214 16.2703 28.266 15.9084 28.7884 15.713L29.6767 15.38C29.7166 15.365 29.7485 15.4129 29.7206 15.4438C29.4195 15.7708 28.6339 16.6482 28.6439 16.8964C28.6439 16.8964 30.8352 15.2683 31.8223 15.1407C32.8093 15.0131 34.0784 14.4229 34.2958 14.3332C34.4872 14.2544 34.5241 14.8496 34.4543 15.1427L34.4493 15.1417Z" fill="white" stroke="white" stroke-width="0.0865416" stroke-miterlimit="10"/>
<path d="M32.896 16.1038C33.0076 16.0559 33.1951 15.9852 33.3875 15.9562C33.4413 15.9483 33.4882 15.9134 33.5131 15.8655L33.879 15.1537C33.895 15.1238 33.866 15.0889 33.8341 15.0998C33.6228 15.1696 33.0774 15.4059 32.8312 16.039C32.8152 16.0799 32.8561 16.1207 32.896 16.1038Z" fill="#8B3ACB"/>
<path d="M32.6228 16.9194C32.3855 17.2384 31.5909 18.351 31.5351 19.0041C31.5251 19.1227 31.6378 19.2134 31.7494 19.1736C31.8611 19.1337 32.0106 19.0928 32.1891 19.0749C32.1891 19.0749 31.3686 20.3949 32.215 21.0359C32.215 21.0359 31.3307 21.0618 31.2669 21.1516C31.2071 21.2353 31.1472 20.2991 31.3865 19.8166C31.4144 19.7598 31.3766 19.693 31.3137 19.693C31.227 19.692 31.1044 19.7149 30.9728 19.8136C30.9229 19.8515 30.8521 19.8136 30.8591 19.7518C30.9199 19.1985 31.215 17.5305 32.5889 16.8775C32.6148 16.8645 32.6417 16.8965 32.6238 16.9194H32.6228Z" fill="#8B3ACB"/>
<path d="M35.2449 17.8526C35.2189 17.8296 35.2319 17.7878 35.2658 17.7818C35.4213 17.7549 35.7613 17.718 36.0464 17.8496C36.0893 17.8695 36.1401 17.8566 36.172 17.8217C36.204 17.7868 36.2438 17.7329 36.2747 17.6701C36.2887 17.6432 36.3286 17.6502 36.3296 17.6801C36.3336 17.7967 36.3346 17.9592 36.3166 18.0819C36.3056 18.1566 36.2259 18.1975 36.1561 18.1676C36.1242 18.1537 36.0873 18.1407 36.0484 18.1327C35.9248 18.1048 35.7673 18.1935 35.7882 18.3191C35.8111 18.4557 35.8141 18.5704 35.8919 18.686C35.8919 18.686 35.519 18.1048 35.2439 17.8526H35.2449Z" fill="#8B3ACB"/>
<path d="M30.4095 22.0547C30.4215 22.0387 30.4484 22.0457 30.4494 22.0657C30.4534 22.1494 30.4833 22.288 30.6299 22.3169C30.8293 22.3568 31.8542 22.1215 32.2131 22.1803C32.24 22.1843 32.249 22.2192 32.226 22.2342C31.9678 22.4156 30.8542 23.2162 31.0057 23.4275C31.1762 23.6668 31.6378 23.4535 32.3985 23.7356C33.1592 24.0178 33.9448 24.3428 35.1332 25.3507C35.9388 26.0346 36.2499 26.0346 36.3655 25.9639C36.3894 25.9489 36.4183 25.9708 36.4084 25.9978C36.3545 26.1463 36.1751 26.3567 35.5819 26.1224C35.5709 26.1184 35.5609 26.1314 35.5689 26.1393C35.8062 26.3916 37.195 27.891 37.3047 28.5929C37.3126 28.6428 37.2957 28.6936 37.2608 28.7305C37.0843 28.9199 36.4971 29.543 36.2558 29.7105C36.2329 29.7265 36.201 29.7105 36.201 29.6826C36.197 29.1263 35.9956 24.9051 30.9708 23.6848C30.9708 23.6848 30.3697 23.5861 30.9619 22.8064C30.9708 22.7945 30.9599 22.7765 30.9449 22.7825C30.6777 22.8842 29.4823 23.289 30.4075 22.0557L30.4095 22.0547Z" fill="white" stroke="white" stroke-width="0.0432708" stroke-miterlimit="10"/>
<path d="M35.1332 23.8555C35.1332 23.8555 37.6626 24.2672 39.167 25.8813C39.167 25.8813 38.7224 27.2731 38.518 27.2223C38.518 27.2223 37.0145 24.7099 35.1342 23.8555H35.1332Z" fill="white"/>
<path d="M34.0734 26.9829C34.0734 26.9829 35.0644 29.1533 33.0824 30.9818C33.0824 30.9818 33.9368 31.0177 34.4842 30.5641C35.0315 30.1104 34.7065 27.4954 34.0744 26.9829H34.0734Z" fill="white"/>
<path d="M37.149 22.4447C37.149 22.4447 38.2427 22.3051 38.5159 22.0459C38.5159 22.0459 38.5498 22.2303 38.3275 22.4447C38.3275 22.4447 39.5408 22.7956 39.5926 23.001C39.6445 23.2064 39.5926 23.7697 39.5926 23.7697C39.5926 23.7697 38.4132 22.7079 37.149 22.4447Z" fill="white"/>
<path d="M31.7544 12.405C25.7566 12.405 20.8933 17.2673 20.8933 23.2661C20.8933 29.265 25.7556 34.1273 31.7544 34.1273C37.7533 34.1273 42.6155 29.265 42.6155 23.2661C42.6155 17.2673 37.7533 12.405 31.7544 12.405ZM31.6866 32.9279C26.3508 32.9279 22.0249 28.602 22.0249 23.2661C22.0249 17.9303 26.3508 13.6044 31.6866 13.6044C37.0225 13.6044 41.3484 17.9303 41.3484 23.2661C41.3484 28.602 37.0225 32.9279 31.6866 32.9279Z" fill="white"/>
<path d="M43.4352 43.6087H41.4346C41.4346 43.6087 41.5896 43.7056 41.5953 44.0671C41.601 44.4286 41.5953 47.3359 41.5953 47.3359C41.5953 47.3359 41.6118 47.4836 41.4626 47.6106H42.7021C42.7021 47.6106 42.5579 47.5087 42.5579 47.376V46.3625H43.4352C44.2558 46.3625 44.9207 45.7506 44.9207 44.9953V44.9752C44.9207 44.2199 44.2558 43.608 43.4352 43.608V43.6087ZM43.9832 45.0563C43.9832 45.5225 43.5729 45.9005 43.0658 45.9005H42.5723V44.113H43.0658C43.5722 44.113 43.9832 44.491 43.9832 44.9573V45.0563Z" fill="white"/>
<path d="M18.8409 44.2722C18.8409 44.2722 18.9521 44.1882 19.2907 44.1179C19.3897 44.0971 19.4901 44.0878 19.5912 44.0878H20.381V47.0281C20.381 47.2805 20.2999 47.5273 20.1507 47.731H21.5337C21.4132 47.5409 21.3494 47.3214 21.3494 47.0962V44.0878H22.0322C22.2431 44.0878 22.4504 44.1452 22.6312 44.2535L22.9446 43.5341H19.1358L18.8409 44.2722Z" fill="white"/>
<path d="M45.0685 44.1402C45.0685 44.1402 45.1797 44.0563 45.5182 43.986C45.6172 43.9652 45.7176 43.9559 45.8188 43.9559H46.6085V46.8961C46.6085 47.1486 46.5275 47.3953 46.3783 47.5991H47.7612C47.6407 47.409 47.5769 47.1895 47.5769 46.9642V43.9559H48.2598C48.4707 43.9559 48.678 44.0132 48.8587 44.1216L49.1722 43.4021H45.3633L45.0685 44.1402Z" fill="white"/>
<path d="M27.3532 43.5527H28.7182C28.6343 43.6546 28.5877 43.7808 28.5841 43.9128L28.5518 45.2779H30.3408V44.0721C30.3408 43.9057 30.2748 43.7457 30.1564 43.6273L30.1005 43.5714H31.4655L31.4275 43.6166C31.3271 43.7364 31.2733 43.8877 31.2754 44.0441L31.3235 47.2734C31.3256 47.4362 31.3916 47.5919 31.5071 47.7074H30.1284L30.1528 47.683C30.2482 47.5876 30.3027 47.4599 30.3056 47.325L30.34 45.8768H28.5324V47.2863C28.5324 47.4068 28.574 47.523 28.6508 47.6163L28.7261 47.7074L27.3517 47.7396L27.422 47.6457C27.5017 47.5388 27.5454 47.4097 27.5454 47.2763V44.0046C27.5454 43.8339 27.4751 43.6704 27.3517 43.5527H27.3532Z" fill="white"/>
<path d="M18.7613 42.8383C18.7613 42.8383 18.615 42.9882 17.8181 42.857C16.8275 42.6934 14.2129 42.7257 14.4345 45.643C14.5845 47.6163 16.1302 47.8301 17.0692 47.7741C17.3016 47.7605 17.5613 47.7375 17.7915 47.6436C18.0584 47.5338 18.252 47.4298 18.4565 47.2612L18.7685 46.9879L18.5232 46.4327C18.5232 46.4327 17.7406 47.4714 16.6302 47.1371C15.8828 46.9119 15.2358 46.1623 15.9186 44.0986C16.1281 43.4653 16.9738 43.2651 17.61 43.4645C17.8238 43.5312 18.1093 43.6776 18.3245 43.8634L18.762 42.839L18.7613 42.8383Z" fill="white"/>
<path d="M33.2842 37.4526C33.2842 37.4526 33.4499 37.6327 33.455 37.8952L33.4564 41.2995C33.4564 41.405 33.427 41.4487 33.3667 41.5348C33.3438 41.5678 33.3158 41.5979 33.2842 41.6159H34.6263C34.6263 41.6159 34.6199 41.6123 34.6098 41.6066C34.5159 41.5484 34.4606 41.4437 34.4606 41.3333V37.7804C34.4606 37.7804 34.4821 37.5258 34.6148 37.4548C34.6163 37.4548 34.6156 37.4526 34.6148 37.4526H33.2857H33.2842Z" fill="white"/>
<path d="M18.7868 36.8207H16.5646C16.5646 36.8207 16.7367 36.9376 16.7432 37.3737C16.7496 37.8098 16.7432 41.3211 16.7432 41.3211C16.7432 41.3211 16.7618 41.4997 16.5954 41.6532H17.9726C17.9726 41.6532 17.8127 41.5305 17.8127 41.3705V40.1468H18.7875C19.6992 40.1468 20.438 39.408 20.438 38.4963V38.4719C20.438 37.5602 19.6992 36.8214 18.7875 36.8214L18.7868 36.8207ZM19.3958 38.568C19.3958 39.1311 18.9396 39.5873 18.3765 39.5873H17.8278V37.4297H18.3765C18.9396 37.4297 19.3958 37.8859 19.3958 38.449V38.5688V38.568Z" fill="white"/>
<path d="M37.9503 37.4526L38.0472 37.5961C38.116 37.6979 38.1533 37.8185 38.1533 37.9418V41.0241C38.1533 41.2292 38.088 41.4294 37.9668 41.5944L37.951 41.6166H39.334C39.225 41.4258 39.1669 41.2106 39.1647 40.9918L39.1633 40.8512L40.925 39.0623L40.9458 41.1066C40.9472 41.2551 40.8984 41.3992 40.8066 41.5162L40.727 41.6173H42.1286C41.9945 41.4624 41.8984 41.2759 41.922 41.1338L41.9141 37.8809C41.9141 37.8113 41.9271 37.7431 41.9522 37.6786L42.0547 37.4175H40.7313L40.8195 37.5681C40.8769 37.6657 40.9071 37.7761 40.9085 37.8895L40.9114 38.1642L39.1683 40.055L39.1762 37.9167C39.1762 37.7489 39.2343 37.586 39.3383 37.4548H37.9503V37.4526Z" fill="white"/>
<path d="M42.8567 37.4526L42.9535 37.5961C43.0224 37.6979 43.0597 37.8185 43.0597 37.9418V41.0241C43.0597 41.2292 42.9944 41.4294 42.8732 41.5944L42.8574 41.6166H44.2404C44.1313 41.4258 44.0732 41.2106 44.0711 40.9918L44.0697 40.8512L45.8314 39.0623L45.8522 41.1066C45.8536 41.2551 45.8048 41.3992 45.713 41.5162L45.6334 41.6173H47.035C46.9009 41.4624 46.8047 41.2759 46.8284 41.1338L46.8205 37.8809C46.8205 37.8113 46.8334 37.7431 46.8585 37.6786L46.9611 37.4175H45.6377L45.7259 37.5681C45.7833 37.6657 45.8134 37.7761 45.8149 37.8895L45.8177 38.1642L44.0747 40.055L44.0826 37.9167C44.0826 37.7489 44.1407 37.586 44.2447 37.4548H42.8567V37.4526Z" fill="white"/>
<path d="M20.702 37.4907H22.2392C22.2392 37.4907 21.9932 37.6994 22.2392 38.2288C22.4458 38.6728 22.9472 39.8284 23.1028 40.1871C23.1201 40.2265 23.1767 40.2251 23.1925 40.1849L24.0224 38.0567C24.0224 38.0567 24.1702 37.5646 23.9607 37.4907H25.0554C25.0554 37.4907 24.871 37.6629 24.7849 37.8594C24.7139 38.0215 23.9335 40.1196 23.6609 40.8542C23.6121 40.9854 23.5684 41.1188 23.5275 41.253C23.3632 41.7881 22.6086 43.5218 20.7027 42.3598L20.9854 41.7816C20.9854 41.7816 21.57 42.5183 22.1904 42.1596C22.5376 41.9588 22.6732 41.5234 22.5247 41.1504C22.1237 40.1404 21.1209 37.7045 20.7027 37.49L20.702 37.4907Z" fill="white"/>
<path d="M28.8334 37.4225C28.8334 37.4225 28.7065 37.5524 28.0186 37.4383C27.1628 37.297 24.9033 37.325 25.0948 39.8456C25.229 41.6137 26.665 41.7859 27.4591 41.6812C27.9124 41.6209 28.1563 41.5011 28.4145 41.3354L28.8385 41.0083L28.6261 40.5285C28.6261 40.5285 27.9497 41.4258 26.9907 41.1374C26.3451 40.9431 25.7856 40.2953 26.3759 38.5121C26.5567 37.9648 27.2876 37.7919 27.8378 37.9641C28.0222 38.0222 28.2696 38.1484 28.4547 38.3084L28.8327 37.4232L28.8334 37.4225Z" fill="white"/>
<path d="M32.8109 37.4225C32.8109 37.4225 32.6839 37.5524 31.996 37.4383C31.1402 37.297 28.8807 37.325 29.0723 39.8456C29.2315 41.9358 31.2263 41.8311 31.7987 41.6338C31.9408 41.585 32.0154 41.5556 32.156 41.4875C32.2965 41.4193 32.4235 41.3376 32.5404 41.2386L32.8166 41.0076L32.6043 40.5277C32.6043 40.5277 31.9278 41.4251 30.9688 41.1367C30.3232 40.9423 29.7637 40.2946 30.3541 38.5114C30.5348 37.9641 31.2658 37.7912 31.8159 37.9634C32.0003 38.0215 32.2478 38.1477 32.4328 38.3077L32.8109 37.4225Z" fill="white"/>
<path d="M34.4599 39.4862L36.01 37.8644C36.1011 37.769 36.152 37.6413 36.152 37.5093V37.4526H37.3972L35.5695 39.2803C35.533 39.3169 35.5294 39.3757 35.5616 39.4166L36.9647 41.1719C37.0436 41.2701 37.1368 41.3562 37.2416 41.4258L37.5256 41.6152H35.9117C35.8995 41.453 35.8385 41.2981 35.7367 41.1719L34.4175 39.5335L34.4591 39.4855" fill="white"/>
<path d="M44.6813 36.1874C44.6813 36.1874 44.3449 36.7512 44.9273 36.7591C45.5098 36.767 45.1734 36.1874 45.1734 36.1874H45.6281C45.6281 36.1874 45.8849 36.7698 45.5392 36.9822C45.2652 37.15 44.7975 37.112 44.5522 37.0761C44.3937 37.0532 44.248 36.9649 44.1656 36.8279C44.0788 36.683 44.045 36.4678 44.2567 36.1881H44.6806L44.6813 36.1874Z" fill="white"/>
<path d="M27.1036 47.7906L27.0003 47.716C26.9587 47.6859 26.9221 47.65 26.8905 47.6099C26.7657 47.4478 26.7004 47.272 26.6151 47.0769L25.0901 43.5958H23.8606L24.0787 43.8067C24.1203 43.8469 24.1468 43.8978 24.1569 43.9516C24.1719 44.0312 24.1461 44.0936 24.1375 44.1152C23.6885 45.2679 23.2581 46.2965 22.7596 47.3954C22.7036 47.5195 22.5738 47.6938 22.4755 47.7827C22.4719 47.7863 22.4741 47.7921 22.4798 47.7921H23.4912C23.3807 47.6414 23.4381 47.3021 23.5213 47.0697L23.6017 46.8481H25.4581C25.4875 47.0167 25.6733 47.5568 25.5499 47.7928H27.1021L27.1036 47.7906ZM23.8054 46.3366L24.5435 44.6646L25.2257 46.3366H23.8054Z" fill="white"/>
<path d="M41.1864 47.7906L41.0831 47.716C41.0415 47.6859 41.0049 47.65 40.9733 47.6099C40.8485 47.4478 40.7833 47.272 40.6979 47.0769L39.1729 43.5958H37.9434L38.1615 43.8067C38.2031 43.8469 38.2297 43.8978 38.2397 43.9516C38.2548 44.0312 38.2289 44.0936 38.2203 44.1152C37.7713 45.2679 37.3409 46.2965 36.8424 47.3954C36.7864 47.5195 36.6566 47.6938 36.5583 47.7827C36.5547 47.7863 36.5569 47.7921 36.5626 47.7921H37.574C37.4636 47.6414 37.521 47.3021 37.6042 47.0697L37.6845 46.8481H39.5409C39.5703 47.0167 39.7561 47.5568 39.6327 47.7928H41.185L41.1864 47.7906ZM37.8882 46.3366L38.6263 44.6646L39.3085 46.3366H37.8882Z" fill="white"/>
<path d="M36.1695 47.4168L35.9472 47.2396C35.7729 47.1012 35.671 46.8903 35.671 46.6672V44.115C35.671 43.945 35.7133 43.7786 35.7937 43.6287L35.8554 43.5146L32.5077 43.5512L32.5364 43.5814C32.6712 43.722 32.7444 43.9099 32.7401 44.105L32.7157 45.0805C32.7473 47.0467 32.4984 46.9455 31.8621 47.4161V48.1169L32.0931 47.9906C32.3958 47.8257 32.7344 47.7389 33.0794 47.7389H35.2614C35.4329 47.7389 35.6 47.7869 35.7449 47.878L36.2147 48.1721L36.1688 47.4161L36.1695 47.4168ZM34.694 47.1313H33.0894L33.1863 46.9175C33.2745 46.7239 33.3197 46.5137 33.3197 46.3014V44.4292C33.3197 44.2155 33.4933 44.0419 33.707 44.0419H34.694V47.1313Z" fill="white"/>
</g>
<defs>
<linearGradient id="paint0_linear_2271_1805" x1="19.5272" y1="0.116212" x2="69.4617" y2="98.9468" gradientUnits="userSpaceOnUse">
<stop stop-color="#6B6B6B"/>
<stop offset="0.643494" stop-color="#141414"/>
</linearGradient>
<clipPath id="clip0_2271_1805">
<rect width="61.7907" height="61.7907" fill="white" transform="translate(0.747681 0.116211)"/>
</clipPath>
</defs>
</svg>
