<svg width="63" height="63" viewBox="0 0 63 63" fill="none" xmlns="http://www.w3.org/2000/svg">
<rect x="0.476196" y="0.827148" width="61.7907" height="61.7907" rx="30.8954" fill="url(#paint0_linear_2271_2310)"/>
<g clip-path="url(#clip0_2271_2310)">
<path d="M21.6093 25.9095L25.2886 25.0114V32.1382C25.2886 32.1382 27.0562 29.9947 27.461 28.8936L31.4874 28.8071C31.4874 28.8071 29.9516 33.124 28.9957 33.4999C28.9957 33.4999 31.3422 38.0197 31.4874 38.7727H26.9387C26.9387 38.7727 26.1271 36.1069 25.2876 34.978V38.7727H21.6083V25.9095H21.6093Z" fill="white"/>
<path d="M35.7466 38.7717H32.125V32.3113C32.125 32.3113 32.4732 27.9367 37.9478 28.7484L38.1507 31.616C38.1507 31.616 35.7466 31.066 35.7466 33.5855V38.7707V38.7717Z" fill="white"/>
<path d="M42.8445 28.6486H39.2517V38.7728H42.8445V28.6486Z" fill="white"/>
<path d="M47.8856 38.8883H44.4092V25.7068L47.8856 25.1558V38.8883Z" fill="white"/>
<path d="M53.0707 38.8883H49.5944V25.7068L53.0707 25.1558V38.8883Z" fill="white"/>
<path d="M40.9647 27.7926C41.9107 27.7926 42.6776 27.0257 42.6776 26.0797C42.6776 25.1336 41.9107 24.3667 40.9647 24.3667C40.0186 24.3667 39.2517 25.1336 39.2517 26.0797C39.2517 27.0257 40.0186 27.7926 40.9647 27.7926Z" fill="white"/>
<path d="M20.0157 25.7356V29.009C20.0157 29.009 16.0016 27.1189 14.3227 28.357C12.8497 29.4437 14.6337 30.4449 16.3652 30.2832C17.8423 30.1452 21.0869 32.0219 20.5513 35.1357C20.0157 38.2495 16.5578 39.8914 10.0882 38.3463V35.2367C10.0882 35.2367 16.1911 37.0907 16.4425 34.7536C16.4425 34.7536 16.7711 33.4979 14.3948 33.5567C12.0185 33.6154 9.6061 31.8385 9.83786 28.8834C10.0696 25.9282 13.8942 23.8423 20.0157 25.7356Z" fill="white"/>
</g>
<defs>
<linearGradient id="paint0_linear_2271_2310" x1="11.8997" y1="0.827147" x2="57.8533" y2="76.7242" gradientUnits="userSpaceOnUse">
<stop offset="0.128689" stop-color="#B22A93"/>
<stop offset="1" stop-color="#36124C"/>
</linearGradient>
<clipPath id="clip0_2271_2310">
<rect width="43.2483" height="14.5689" fill="white" transform="translate(9.82239 24.3666)"/>
</clipPath>
</defs>
</svg>
