<svg width="62" height="63" viewBox="0 0 62 63" fill="none" xmlns="http://www.w3.org/2000/svg">
<rect x="0.124512" y="0.827148" width="61.7907" height="61.7907" rx="30.8954" fill="url(#paint0_linear_2271_2277)"/>
<g clip-path="url(#clip0_2271_2277)">
<path d="M14.8433 28.2125L15.0816 27.309L16.4289 27.6893L15.5093 30.0983C15.5093 30.0983 14.5424 29.0519 12.5298 29.0519C10.5173 29.0519 10.8343 30.6071 12.8392 31.1675C14.8441 31.7279 17.2116 33.0482 16.0131 35.1376C14.8145 37.2271 11.0676 37.3014 8.9519 34.6508L10.0575 33.5925C10.0575 33.5925 10.9374 35.1376 12.9694 35.1849C15.0013 35.2323 15.5009 33.6398 13.2905 32.9975C11.0802 32.3551 9.4151 31.2512 9.51061 29.8608C9.60612 28.4703 10.9365 26.6869 14.8433 28.2125Z" fill="white"/>
<path d="M42.3363 28.2124L42.5738 27.3088L43.9211 27.6892L43.0015 30.0981C43.0015 30.0981 42.0345 29.0517 40.022 29.0517C38.0095 29.0517 38.3265 30.607 40.3314 31.1674C42.3363 31.7278 44.7038 33.048 43.5053 35.1375C42.2568 37.3123 38.5606 37.3005 36.4449 34.6498L37.5505 33.5915C37.5505 33.5915 38.4304 35.1366 40.4624 35.184C42.4944 35.2313 42.9939 33.6389 40.7836 32.9965C38.5733 32.3541 36.909 31.2494 37.0037 29.8589C37.0983 28.4753 38.4304 26.685 42.3363 28.2107V28.2124Z" fill="white"/>
<path d="M24.8195 33.355C24.8195 33.355 23.79 35.5357 21.3726 35.0903C18.9831 34.6507 18.9713 32.4514 18.9713 32.4514H25.3182C25.3182 32.4514 26.554 28.6241 22.8222 27.6969C19.0905 26.7697 16.3358 30.471 17.7829 33.8063C19.2215 37.1222 24.0233 37.9785 26.0316 34.0675L24.8195 33.3541V33.355ZM21.7116 29.0366C23.861 29.1161 23.9878 31.0492 23.9878 31.0492L19.0905 31.1438C19.0905 31.1438 19.8571 28.9673 21.7116 29.0358V29.0366Z" fill="white"/>
<path d="M52.3424 33.355C52.3424 33.355 51.3129 35.5357 48.8955 35.0903C46.5059 34.6507 46.4941 32.4514 46.4941 32.4514H52.8411C52.8411 32.4514 54.0768 28.6241 50.345 27.6969C46.6133 26.7697 43.8586 30.471 45.3057 33.8063C46.7443 37.1222 51.5461 37.9785 53.5544 34.0675L52.3424 33.3541V33.355ZM49.2344 29.0366C51.3839 29.1161 51.5106 31.0492 51.5106 31.0492L46.6133 31.1438C46.6133 31.1438 47.3799 28.9673 49.2344 29.0358V29.0366Z" fill="white"/>
<path d="M27.1736 27.8397H28.8379V28.8616C28.8379 28.8616 30.9932 26.5633 33.8011 28.1879C35.036 28.9021 35.304 30.1108 35.304 31.3322V36.3732H33.7589V31.2866C33.7589 30.5757 33.4225 29.897 32.8333 29.5006C32.4631 29.2521 31.9636 29.0872 31.3009 29.1709C30.017 29.3324 29.5386 29.8547 29.2368 30.5081C28.9807 31.0634 28.8615 31.6712 28.8615 32.2831V36.3741H27.1736V27.8397Z" fill="white"/>
</g>
<defs>
<linearGradient id="paint0_linear_2271_2277" x1="-6.88536" y1="-12.5003" x2="89.1759" y2="156.689" gradientUnits="userSpaceOnUse">
<stop stop-color="#3600FF"/>
<stop offset="0.66904" stop-color="#0286FF"/>
</linearGradient>
<clipPath id="clip0_2271_2277">
<rect width="44.6036" height="9.39996" fill="white" transform="translate(8.95178 27.309)"/>
</clipPath>
</defs>
</svg>
