<svg width="63" height="63" viewBox="0 0 63 63" fill="none" xmlns="http://www.w3.org/2000/svg">
<rect x="0.822144" y="0.587646" width="61.7907" height="61.7907" rx="30.8954" fill="url(#paint0_linear_2271_2404)"/>
<g clip-path="url(#clip0_2271_2404)">
<path d="M17.458 30.1782H20.3411V29.3685C20.3411 27.7766 19.0498 26.4854 17.458 26.4854L13.5531 26.6385C11.7516 26.7088 10.4362 28.3687 10.7783 30.1379L10.9292 31.6031C11.1204 32.5891 12.0615 33.2952 13.0601 33.3942L17.0997 33.7939C17.3624 33.8204 17.5685 34.0301 17.5881 34.2927L17.6515 35.1105C17.6849 35.5425 17.3439 35.9122 16.9097 35.9122H14.6117C14.0772 35.9122 13.6338 35.4999 13.5946 34.9677L13.567 34.5841L10.6838 34.6164L10.7794 35.9318C10.7898 36.0712 10.8071 36.2117 10.8405 36.3476C11.1526 37.5939 12.3828 38.3968 13.6983 38.3473L17.9728 38.2989C19.4449 38.3139 20.6936 37.0111 20.6936 35.539V33.6511C20.6936 32.4278 19.7421 31.4142 18.5211 31.3382L14.7246 31.1009C14.2892 31.0732 13.9459 30.7196 13.9321 30.2831L13.9171 29.8039C13.9022 29.3351 14.2788 28.948 14.7476 28.948H16.6332C17.1009 28.948 17.4764 29.3339 17.4637 29.8004L17.4534 30.1782H17.458Z" fill="white"/>
<path d="M40.377 26.4854H33.8195V38.3496H36.8005V35.4273H40.4438C42.1797 35.4273 43.631 34.1061 43.7935 32.3783L43.7981 30.3522C43.9973 28.2316 42.508 26.4865 40.3782 26.4865L40.377 26.4854ZM40.4922 31.3497C40.4922 31.9786 39.9819 32.4889 39.353 32.4889H36.7348V28.9469H39.3265C39.9704 28.9469 40.4922 29.4687 40.4922 30.1126V31.3485V31.3497Z" fill="white"/>
<path d="M51.1828 38.3496H54.4656L50.8372 26.4854H46.0432L42.2858 38.3496H45.7414L46.2586 36.502C46.3184 36.2877 46.5143 36.1391 46.7377 36.1391H50.153C50.373 36.1391 50.5665 36.2831 50.6299 36.4939L51.1839 38.3496H51.1828ZM46.9405 34.0658L48.3745 28.9469L49.9031 34.0658H46.9405Z" fill="white"/>
<path d="M32.944 26.9393L32.3612 28.7212C32.3612 28.7212 27.6639 27.0798 25.655 30.7186L31.389 30.8591L30.9029 32.2955L25.4926 32.1331C25.4926 32.1331 25.4166 32.8679 25.4926 32.997H30.6979L30.2659 34.2824H25.9246C25.9246 34.2824 26.7021 37.3602 32.231 36.183L32.6307 37.9972C32.6307 37.9972 24.9201 39.9842 23.2361 34.5854L21.1409 34.5635L21.9184 33.3103L22.9769 33.2458C22.9769 33.2458 22.9009 32.8196 23.015 32.269L21.1409 32.3012L21.7997 30.8925L23.2085 30.9409C23.2085 30.9409 24.0136 25.3198 32.944 26.9393Z" fill="#FFC701"/>
</g>
<defs>
<linearGradient id="paint0_linear_2271_2404" x1="14.9284" y1="0.587648" x2="59.1512" y2="72.8499" gradientUnits="userSpaceOnUse">
<stop offset="0.362868" stop-color="#163381"/>
<stop offset="1" stop-color="#4067D0"/>
</linearGradient>
<clipPath id="clip0_2271_2404">
<rect width="43.7778" height="11.8688" fill="white" transform="translate(10.6877 26.4854)"/>
</clipPath>
</defs>
</svg>
