<svg width="97" height="63" viewBox="0 0 97 63" fill="none" xmlns="http://www.w3.org/2000/svg">
<path d="M79.5141 31.3442C79.5141 14.2812 65.6817 0.448853 48.6187 0.448853C31.5557 0.448853 17.7233 14.2812 17.7233 31.3442C17.7233 48.4073 31.5557 62.2396 48.6187 62.2396C65.6817 62.2396 79.5141 48.4073 79.5141 31.3442Z" fill="url(#paint0_linear_2271_1978)"/>
<path d="M24.6899 24.687L27.5877 29.8572V33.0109L24.6933 38.171L24.6899 24.687Z" fill="#5B57A2"/>
<path d="M35.8162 27.976L38.5315 26.3147L44.0885 26.3096L35.8162 31.3681V27.976Z" fill="#D90751"/>
<path d="M35.8008 24.6567L35.8162 31.5018L32.9117 29.7204V19.488L35.801 24.6567H35.8008Z" fill="#FAB718"/>
<path d="M44.0886 26.3095L38.5313 26.3147L35.8008 24.6567L32.9117 19.488L44.0884 26.3095H44.0886Z" fill="#ED6F26"/>
<path d="M35.8162 38.1998V34.8787L32.9117 33.1311L32.9132 43.3736L35.8162 38.1998Z" fill="#63B22F"/>
<path d="M38.5247 36.5535L27.5875 29.8572L24.6899 24.687L44.0768 36.5467L38.5245 36.5535H38.5247Z" fill="#1487C9"/>
<path d="M32.9135 43.3735L35.8161 38.1997L38.5246 36.5536L44.0767 36.5469L32.9135 43.3735Z" fill="#017F36"/>
<path d="M24.6934 38.171L32.9354 33.1311L30.1645 31.4341L27.5877 33.0109L24.6934 38.171Z" fill="#984995"/>
<path fill-rule="evenodd" clip-rule="evenodd" d="M56.3727 32.2428C58.2427 32.2428 59.6313 31.0982 59.6313 29.3632C59.6313 27.6838 58.6068 26.5935 56.8944 26.5935C56.1042 26.5935 55.4522 26.8711 54.961 27.3502C55.0783 26.36 55.9172 25.6369 56.8408 25.6369C57.054 25.6369 58.6588 25.6336 58.6588 25.6336L59.5664 23.9001C59.5664 23.9001 57.5516 23.946 56.6149 23.946C54.4749 23.9831 53.0294 25.9248 53.0294 28.283C53.0294 31.0306 54.4392 32.2428 56.3727 32.2428ZM56.384 28.1289C57.0784 28.1289 57.5596 28.5843 57.5596 29.363C57.5596 30.0638 57.132 30.6413 56.384 30.6428C55.6685 30.6428 55.1871 30.1077 55.1871 29.3749C55.1871 28.596 55.6685 28.1289 56.384 28.1289ZM66.8522 26.1944V32.034H64.7632V27.9376H62.7518V32.034H60.6628V26.194L66.8522 26.1944ZM50.0989 30.4166C50.8357 30.3629 51.329 30.0789 51.329 30.0789L52.1021 31.5066C51.607 31.8241 50.7946 32.0305 50.2058 32.0523C48.0991 32.0909 46.6336 30.8113 46.6336 28.947C46.6336 27.1063 48.1927 25.7961 50.2058 25.7961C51.0034 25.7961 51.6891 26.0098 52.204 26.3993C52.0956 26.591 51.9483 26.8565 51.8083 27.1105L51.5841 27.5183L51.3801 27.8908C51.3801 27.8908 50.6383 27.5028 50.0775 27.5028C49.1631 27.5028 48.4971 28.0333 48.4971 28.9587C48.4971 29.9077 49.2518 30.4416 50.0989 30.4166ZM48.4977 35.964C48.4339 36.0452 48.35 36.1067 48.2493 36.1481C48.1459 36.19 48.0354 36.2114 47.9238 36.2108C47.8129 36.2124 47.7026 36.1939 47.5982 36.1564C47.5044 36.1224 47.4188 36.0693 47.3465 36.0007C47.2752 35.9319 47.2192 35.8489 47.1822 35.757C47.1421 35.6565 47.1222 35.549 47.1234 35.4407C47.1234 35.3332 47.1419 35.2337 47.1804 35.1394C47.2173 35.0449 47.271 34.9639 47.3381 34.8959C47.3686 34.8644 47.4018 34.8362 47.4374 34.8109L47.4593 34.7961C47.4821 34.7812 47.506 34.7672 47.5307 34.7543L47.5573 34.7411L47.5765 34.732C47.6688 34.6921 47.7695 34.6706 47.8802 34.6706C47.9993 34.6706 48.1101 34.6855 48.2107 34.7153C48.2743 34.7339 48.3318 34.7606 48.3832 34.7952C48.4133 34.8156 48.4414 34.8387 48.4674 34.8646L48.345 35.0716C48.2857 35.0179 48.216 34.9773 48.1401 34.952C48.0681 34.9289 47.9927 34.9172 47.9171 34.9174C47.85 34.9174 47.7862 34.9307 47.7242 34.9555C47.6631 34.98 47.6073 35.016 47.5597 35.0617C47.5111 35.1083 47.4728 35.1649 47.4472 35.2273C47.4188 35.2916 47.4053 35.363 47.4053 35.4425C47.4053 35.5235 47.4203 35.5964 47.4488 35.6594C47.4776 35.7239 47.516 35.7787 47.5647 35.825C47.6133 35.8715 47.6703 35.9061 47.7358 35.9294C47.7625 35.9395 47.7897 35.9475 47.8176 35.9533C47.8582 35.9618 47.9002 35.9659 47.9439 35.9659C48.0345 35.9659 48.1169 35.9475 48.1873 35.9127C48.2242 35.8948 48.2591 35.8734 48.2916 35.8487C48.3205 35.8267 48.3473 35.8023 48.3719 35.7754L48.4977 35.964ZM48.8433 36.176V34.7021H49.1084V35.8003L49.9709 34.7021H50.2361V36.1762H49.9709V35.0782L49.1084 36.1762L48.8433 36.176ZM51.9929 35.964C51.9277 36.046 51.8421 36.1094 51.7446 36.1481C51.6854 36.172 51.6238 36.1893 51.561 36.1996C51.5142 36.2071 51.4667 36.211 51.419 36.2108C51.3745 36.2114 51.3302 36.2089 51.2862 36.2031C51.2206 36.1945 51.1561 36.179 51.0936 36.1564C51.0721 36.1486 51.0511 36.1399 51.0306 36.1302C51.0057 36.1183 50.9816 36.1051 50.9582 36.0907C50.9165 36.0649 50.8775 36.0347 50.8418 36.0007C50.7704 35.9319 50.7144 35.8489 50.6774 35.757C50.6374 35.6565 50.6173 35.549 50.6186 35.4407C50.6186 35.3332 50.6371 35.2337 50.6757 35.1394C50.7128 35.0449 50.7663 34.9639 50.8334 34.8959C50.9006 34.8263 50.9811 34.7734 51.0716 34.732C51.1673 34.69 51.2709 34.669 51.3753 34.6706C51.4447 34.6706 51.511 34.6756 51.5742 34.6857L51.6112 34.6921C51.6253 34.6949 51.6392 34.698 51.6529 34.7013L51.6774 34.7073L51.706 34.7153C51.8067 34.745 51.8921 34.7948 51.9627 34.8646L51.8402 35.0716C51.7811 35.0179 51.7113 34.9773 51.6356 34.952C51.6174 34.9462 51.599 34.941 51.5804 34.9365C51.5676 34.9336 51.5548 34.931 51.5418 34.9287C51.5297 34.9266 51.5174 34.9246 51.5051 34.9231L51.4781 34.9202C51.4562 34.9182 51.4343 34.9172 51.4124 34.9174C51.2791 34.9178 51.1511 34.9695 51.0549 35.0617C51.0424 35.0739 51.0307 35.0865 51.0196 35.1C51.0064 35.1157 50.9942 35.1324 50.9831 35.1497C50.9674 35.1744 50.9537 35.2003 50.9424 35.2273C50.9362 35.2413 50.9308 35.2557 50.926 35.2704C50.9204 35.2873 50.9159 35.3046 50.9122 35.3223C50.9044 35.3602 50.9006 35.4001 50.9006 35.4425C50.9006 35.4807 50.9039 35.5171 50.9104 35.5515C50.9143 35.5719 50.9193 35.5914 50.9253 35.6102C50.9308 35.6273 50.9371 35.6436 50.9442 35.6594C50.9622 35.7002 50.9842 35.7371 51.0102 35.7704C51.0254 35.7898 51.0419 35.8079 51.0599 35.825C51.1085 35.8715 51.1658 35.9061 51.2311 35.9294C51.2966 35.9525 51.3654 35.9659 51.4391 35.9659C51.4701 35.9659 51.4999 35.9638 51.5286 35.9595C51.5839 35.9515 51.635 35.9356 51.6824 35.9127C51.7521 35.879 51.8148 35.8324 51.867 35.7754L51.9929 35.964ZM52.1305 34.7021H53.4896V34.9639H52.9426V36.176H52.6775V34.9639H52.1305V34.7021ZM54.9881 36.0155C54.9143 36.0816 54.8288 36.1298 54.728 36.1613C54.631 36.1926 54.5297 36.2087 54.4278 36.2093C54.3869 36.2099 54.3461 36.2077 54.3056 36.2031C54.2346 36.1947 54.1647 36.1786 54.0972 36.1547C53.9981 36.1183 53.9143 36.0668 53.8455 35.999C53.7752 35.9302 53.7203 35.8472 53.6844 35.7556C53.6475 35.6611 53.6273 35.5552 53.6273 35.4392C53.6263 35.3363 53.644 35.2343 53.6794 35.1379C53.7116 35.0471 53.7625 34.9643 53.8286 34.8943C53.8601 34.8618 53.8946 34.8323 53.9315 34.8062C53.9742 34.7761 54.0202 34.7507 54.0687 34.7302C54.124 34.7073 54.1839 34.6904 54.2486 34.6803C54.2956 34.6729 54.3452 34.669 54.3975 34.669C54.4282 34.6688 54.4589 34.6706 54.4892 34.6743C54.5167 34.6776 54.5439 34.6824 54.5708 34.6886C54.6036 34.6964 54.636 34.7065 54.6677 34.7188C54.7499 34.7493 54.8253 34.7959 54.8892 34.8562C54.9055 34.8719 54.9209 34.8883 54.9354 34.9056C54.9474 34.9198 54.9588 34.9343 54.9695 34.9495C54.986 34.9726 55.001 34.9971 55.0142 35.0222C55.0224 35.0378 55.0299 35.0537 55.0368 35.0698C55.052 35.104 55.0641 35.1396 55.073 35.1767C55.0858 35.2294 55.0922 35.2854 55.0922 35.3449C55.0922 35.4127 55.0872 35.4706 55.0754 35.522H53.9277C53.9395 35.6613 53.9915 35.7704 54.087 35.8483C54.1827 35.9263 54.3035 35.9642 54.4495 35.9642C54.4992 35.9642 54.5468 35.9603 54.5919 35.9525C54.6351 35.9451 54.676 35.9342 54.7147 35.9197C54.7935 35.8897 54.8589 35.8534 54.9076 35.8102L54.9881 36.0155ZM54.3857 34.9159C54.2481 34.9159 54.1391 34.9522 54.0569 35.0267C53.9756 35.1 53.9238 35.2001 53.9109 35.3083H54.817C54.8102 35.1859 54.7702 35.0899 54.6945 35.0203C54.682 35.0086 54.6686 34.9981 54.6546 34.9886C54.6414 34.9794 54.6275 34.9713 54.6129 34.9639C54.6019 34.9583 54.5904 34.9532 54.5785 34.9485C54.5225 34.9268 54.458 34.9159 54.3857 34.9159ZM55.4529 34.7021H55.6946L56.2685 35.4325L56.8121 34.7021H57.047V36.1762H56.782V35.1013L56.2651 35.7853H56.2549L55.7182 35.1011V36.176H55.4529V34.7021ZM57.6525 34.7466C57.6901 34.7306 57.7289 34.7174 57.7684 34.7071C57.854 34.684 57.9429 34.6708 58.037 34.6708C58.1287 34.6708 58.2086 34.6807 58.2767 34.7005C58.3221 34.7137 58.3623 34.7314 58.3971 34.7534C58.4303 34.7742 58.4585 34.7991 58.4817 34.828C58.5191 34.8737 58.5481 34.9279 58.5689 34.9905C58.5958 35.0712 58.6091 35.1657 58.6091 35.2737V36.178H58.3609V35.9875C58.3172 36.0439 58.2568 36.0934 58.1811 36.1366C58.1058 36.1795 58.0067 36.2011 57.8825 36.2011C57.7925 36.2011 57.7142 36.1842 57.6473 36.1504C57.6327 36.143 57.6187 36.1348 57.6051 36.1259C57.596 36.1197 57.587 36.1131 57.5783 36.1063C57.5687 36.0987 57.5594 36.0905 57.5503 36.082C57.4665 36.0025 57.4244 35.8897 57.4244 35.7457C57.4236 35.6763 57.4385 35.6079 57.4681 35.5451C57.4958 35.4879 57.5359 35.4376 57.5855 35.3979C57.6342 35.3581 57.6946 35.3282 57.765 35.3083C57.7789 35.3044 57.793 35.3008 57.8072 35.2974L57.8287 35.2928L57.8527 35.2885C57.8963 35.2809 57.9414 35.2768 57.9883 35.2768C58.0526 35.2776 58.1166 35.2842 58.1796 35.2969C58.2447 35.3081 58.3065 35.3336 58.3609 35.3715C58.3609 35.3422 58.3602 35.3138 58.3588 35.2864L58.3562 35.2461C58.3544 35.2244 58.3521 35.2032 58.3491 35.1826C58.3407 35.1246 58.3255 35.0751 58.3021 35.0352C58.291 35.0166 58.2777 34.9993 58.2621 34.9841C58.2548 34.9769 58.2471 34.9701 58.2387 34.9639C58.233 34.9598 58.2271 34.9557 58.2209 34.952C58.2141 34.948 58.2071 34.9443 58.1997 34.9408C58.1545 34.9176 58.0956 34.9058 58.0218 34.9058C57.9295 34.9058 57.8523 34.9159 57.792 34.9375L57.7598 34.9493L57.7327 34.9596L57.7008 34.9726C57.6707 34.9853 57.6408 34.9989 57.6107 35.0137L57.5403 34.8047C57.5762 34.7825 57.6138 34.7631 57.6525 34.7466ZM57.975 35.9642C58.0723 35.9642 58.1512 35.9445 58.2117 35.9014C58.2661 35.8652 58.3158 35.8223 58.3592 35.7737V35.5865C58.3299 35.5655 58.2987 35.548 58.2655 35.5338C58.2469 35.5258 58.2277 35.519 58.2079 35.5134C58.1942 35.5095 58.1802 35.506 58.1658 35.5029C58.1495 35.4994 58.1327 35.4967 58.1156 35.4945C58.0861 35.4909 58.0554 35.4889 58.0237 35.4889C57.9834 35.4889 57.9449 35.4938 57.9062 35.5037C57.887 35.5084 57.8683 35.5148 57.8504 35.5229C57.8343 35.5301 57.8187 35.5387 57.8039 35.5486C57.7754 35.5684 57.7503 35.5933 57.7317 35.6248L57.7279 35.6316C57.7251 35.6368 57.7225 35.6421 57.7203 35.6475C57.7178 35.6536 57.7156 35.6598 57.7138 35.6662C57.712 35.672 57.7106 35.678 57.7093 35.6843C57.7063 35.6992 57.7048 35.7152 57.7048 35.7323C57.7048 35.8019 57.7283 35.8582 57.7754 35.9012C57.8025 35.9251 57.8363 35.9424 57.8765 35.9527C57.9059 35.9603 57.9388 35.9642 57.975 35.9642ZM61.1011 34.0563C61.054 34.1176 61.0038 34.159 60.9501 34.1836C60.8963 34.2085 60.8377 34.2252 60.7739 34.2385C60.726 34.2484 60.676 34.2575 60.6235 34.267L60.5709 34.2768C60.4913 34.2913 60.414 34.3164 60.3409 34.3512C60.3132 34.3631 60.2866 34.3774 60.2616 34.394C60.2436 34.4058 60.2265 34.4187 60.2102 34.4326L60.1907 34.4503L60.1788 34.4622L60.1664 34.4752C60.1574 34.4859 60.1486 34.4968 60.1402 34.5079C60.1235 34.5298 60.1081 34.5526 60.0941 34.5763C60.08 34.6002 60.0672 34.6251 60.0558 34.6509C60.0271 34.7153 60.0054 34.7835 59.9902 34.8546C59.9752 34.926 59.9668 34.9954 59.9617 35.0632H59.9685C59.992 35.0103 60.0254 34.9639 60.0658 34.9223C60.1069 34.8803 60.1538 34.8442 60.205 34.8148C60.2162 34.8084 60.2275 34.8022 60.239 34.7961C60.2519 34.7895 60.2651 34.7833 60.2784 34.7775C60.309 34.7641 60.3405 34.7528 60.3729 34.7437C60.4333 34.7271 60.4953 34.7188 60.5591 34.7188C60.6214 34.718 60.6834 34.7248 60.7438 34.739C60.7791 34.7474 60.8137 34.7582 60.8476 34.7716C60.9311 34.8047 61.0061 34.8558 61.0676 34.9209C61.1289 34.9874 61.1758 35.0657 61.2051 35.1511C61.2371 35.2407 61.2538 35.3416 61.2538 35.4524C61.2538 35.5552 61.2353 35.6528 61.1968 35.7439C61.1809 35.7832 61.1618 35.8207 61.1398 35.8561C61.1109 35.9027 61.0771 35.9455 61.039 35.9842C60.9701 36.0542 60.8879 36.1098 60.7974 36.1481C60.7035 36.1879 60.5994 36.2095 60.487 36.2095C60.3645 36.2095 60.2554 36.1879 60.1581 36.1449C60.0608 36.102 59.9784 36.0421 59.9097 35.9626C59.8408 35.8847 59.789 35.7888 59.7519 35.6744C59.715 35.5601 59.6966 35.4327 59.6966 35.2918C59.6966 35.1826 59.7033 35.0685 59.7168 34.9491C59.7299 34.8321 59.7564 34.7172 59.7956 34.6062C59.8342 34.4968 59.8913 34.3975 59.9635 34.3098C60.0357 34.2219 60.1312 34.1525 60.2505 34.101L60.2765 34.0898C60.2892 34.0845 60.3021 34.0795 60.315 34.0748C60.3386 34.0662 60.3623 34.0585 60.3864 34.0515C60.4008 34.0474 60.4153 34.0435 60.4299 34.04C60.4482 34.0355 60.4667 34.0316 60.4853 34.0283L60.5771 34.0126L60.6263 34.004L60.6765 33.9951C60.706 33.99 60.7352 33.9832 60.764 33.9747C60.7866 33.9681 60.8089 33.9605 60.8309 33.9519C60.843 33.9473 60.8549 33.9413 60.8664 33.9345L60.8814 33.9247C60.9085 33.9059 60.9336 33.8806 60.9568 33.8493L61.1011 34.0563ZM59.9803 35.3416C59.9787 35.429 59.9912 35.5163 60.0171 35.5999C60.0393 35.6707 60.0739 35.7367 60.1194 35.7955C60.1628 35.8479 60.2173 35.8903 60.2789 35.9197C60.3409 35.9494 60.4082 35.9644 60.4819 35.9644C60.5377 35.9644 60.5889 35.9568 60.6366 35.9414L60.6539 35.9356C60.6633 35.9323 60.6725 35.9286 60.6817 35.9245C60.7397 35.9 60.7922 35.8639 60.836 35.8188C60.8798 35.7735 60.9141 35.7198 60.9368 35.6611C60.9601 35.6017 60.9737 35.5369 60.9737 35.4658C60.9737 35.3217 60.9334 35.2024 60.851 35.1066C60.8235 35.0747 60.7919 35.0483 60.7562 35.0271C60.7269 35.0096 60.6947 34.9958 60.6598 34.9855C60.6106 34.9711 60.5559 34.9639 60.4953 34.9639C60.3701 34.9629 60.2482 35.0043 60.1497 35.0815C60.1061 35.1165 60.0692 35.1561 60.0406 35.2008C60.0307 35.2156 60.0217 35.231 60.0139 35.2469C60.0075 35.2597 60.0018 35.2728 59.9968 35.286C59.99 35.3041 59.9845 35.3227 59.9803 35.3416ZM63.0224 34.7023H63.2876V36.1764H63.0224V34.7023ZM61.9015 34.7023H61.6363H61.6347V36.178H62.1163C62.1404 36.178 62.1636 36.1772 62.186 36.1759C62.2001 36.1751 62.2139 36.1739 62.2273 36.1725C62.2394 36.1714 62.2512 36.17 62.2628 36.1683C62.3178 36.1605 62.3672 36.1481 62.4116 36.1317C62.4303 36.1247 62.4481 36.1173 62.4651 36.1094L62.4868 36.0985L62.5039 36.0894C62.516 36.0824 62.5276 36.075 62.5386 36.0672C62.5457 36.0623 62.5525 36.0573 62.5591 36.0522C62.5672 36.0458 62.575 36.0392 62.5825 36.0324C62.5896 36.026 62.5964 36.0192 62.6028 36.0124C62.6499 35.9626 62.6852 35.908 62.7054 35.8452C62.7182 35.8079 62.7271 35.7706 62.732 35.7327C62.7355 35.7064 62.7372 35.6798 62.7372 35.6528C62.7372 35.6386 62.7367 35.6246 62.7357 35.6106C62.735 35.5983 62.7338 35.5863 62.7323 35.5742C62.7277 35.5361 62.7197 35.499 62.7087 35.4623C62.6902 35.4012 62.6582 35.3466 62.613 35.3002C62.5677 35.2537 62.5073 35.2158 62.4318 35.1874C62.3561 35.1594 62.2622 35.1445 62.1466 35.1445H61.9015V34.7023ZM62.0945 35.9311H61.9015V35.3911V35.3876H62.0979C62.1226 35.3876 62.146 35.3884 62.1681 35.3902C62.202 35.3929 62.2326 35.3977 62.2602 35.4046C62.2809 35.4096 62.2998 35.416 62.317 35.4234C62.3387 35.4329 62.3574 35.4442 62.3731 35.4574C62.391 35.473 62.406 35.4907 62.418 35.5109C62.4314 35.533 62.4413 35.5581 62.4474 35.5859C62.4526 35.609 62.4552 35.6341 62.4552 35.6611C62.4552 35.749 62.4285 35.8151 62.3747 35.8615C62.3512 35.8818 62.3202 35.8977 62.2815 35.9092C62.2317 35.9237 62.1692 35.9311 62.0945 35.9311ZM65.0412 35.964C64.9774 36.0452 64.8935 36.1067 64.7928 36.1481C64.6894 36.1898 64.5789 36.2112 64.4673 36.2108C64.3564 36.2124 64.2461 36.1939 64.1417 36.1564C64.0479 36.1224 63.9623 36.0693 63.89 36.0007C63.8627 35.9743 63.8375 35.9457 63.8148 35.9154L63.7964 35.8895C63.7898 35.8798 63.7835 35.8699 63.7774 35.8598L63.7689 35.8456C63.7633 35.8361 63.7581 35.8264 63.753 35.8164C63.7462 35.8034 63.7398 35.7902 63.7337 35.7766L63.7256 35.757C63.6856 35.6565 63.6657 35.549 63.6669 35.4407C63.6669 35.3332 63.6853 35.2337 63.7239 35.1394C63.7608 35.0449 63.8145 34.9639 63.8816 34.8959C63.9488 34.8263 64.0292 34.7734 64.12 34.732C64.2156 34.69 64.3192 34.669 64.4237 34.6706C64.5427 34.6706 64.6536 34.6855 64.7542 34.7153C64.855 34.745 64.9405 34.7948 65.0109 34.8646L64.8885 35.0716C64.8637 35.049 64.837 35.0288 64.8088 35.0111C64.7948 35.0024 64.7805 34.9942 64.7658 34.9866C64.7543 34.9808 64.7426 34.9754 64.7307 34.9701L64.7083 34.961L64.6836 34.952C64.6116 34.9289 64.5362 34.9172 64.4606 34.9174C64.4336 34.9174 64.4071 34.9196 64.381 34.9237C64.3424 34.9299 64.3047 34.9408 64.2675 34.9555C64.2065 34.98 64.1507 35.0162 64.1032 35.0617C64.0877 35.0768 64.0732 35.093 64.0598 35.1099L64.0481 35.1252C64.0252 35.1569 64.0059 35.1911 63.9907 35.2273C63.9623 35.2916 63.9488 35.363 63.9488 35.4425C63.9488 35.5235 63.9638 35.5964 63.9923 35.6594C64.0209 35.7239 64.0595 35.7787 64.1082 35.825C64.1568 35.8715 64.2139 35.9061 64.2793 35.9294C64.3449 35.9525 64.4136 35.9659 64.4875 35.9659C64.542 35.9659 64.5928 35.9593 64.6404 35.9463C64.6524 35.943 64.6642 35.9393 64.6758 35.9352C64.6946 35.9288 64.713 35.9212 64.7308 35.9127C64.8005 35.879 64.8632 35.8324 64.9154 35.7754L65.0412 35.964ZM65.1788 34.7021H66.538V34.9639H65.9908V36.176H65.7258V34.9639H65.1788V34.7021ZM66.8265 34.7024H67.0917V34.8762C67.142 34.8164 67.2141 34.7687 67.3065 34.7289C67.3988 34.689 67.4961 34.6692 67.6 34.6692C67.6168 34.6688 67.6336 34.6692 67.6503 34.6702C67.6841 34.6721 67.7176 34.6764 67.7506 34.683C67.7972 34.6923 67.8429 34.7065 67.8869 34.7254C67.9698 34.76 68.0439 34.8127 68.1034 34.8795C68.1643 34.9481 68.211 35.028 68.2411 35.1145C68.2566 35.1589 68.2685 35.2053 68.2767 35.2541C68.2853 35.3058 68.2897 35.3598 68.2897 35.4162C68.2897 35.527 68.2712 35.6316 68.2343 35.729C68.1974 35.8267 68.1453 35.9096 68.0766 35.9811C68.0067 36.0522 67.9235 36.109 67.8317 36.1483C67.736 36.1879 67.6302 36.2093 67.5128 36.2093C67.4339 36.2093 67.3567 36.2011 67.2829 36.1846C67.2091 36.1681 67.1454 36.1432 67.0917 36.1084V36.8321H66.8265V34.7024ZM67.523 34.9159C67.434 34.9159 67.3519 34.9359 67.2763 34.9757C67.201 35.0154 67.1387 35.0634 67.0919 35.1196V35.8501C67.152 35.8903 67.2183 35.9206 67.2881 35.9397C67.3519 35.9562 67.4192 35.9644 67.4911 35.9644C67.5654 35.9657 67.6391 35.9515 67.7076 35.923C67.7691 35.8979 67.8246 35.86 67.8703 35.812C67.9159 35.7634 67.9509 35.7058 67.9729 35.6431C67.9962 35.5768 68.0098 35.5056 68.0098 35.4261C68.0098 35.4094 68.0093 35.3929 68.0082 35.3768L68.006 35.3505L68.0038 35.3319L68.0009 35.3126L67.9975 35.2941L67.9928 35.2726C67.9886 35.2549 67.9837 35.2376 67.9778 35.2207C67.9577 35.1579 67.9258 35.1048 67.884 35.0584C67.8418 35.0121 67.7916 34.9773 67.7312 34.9524C67.669 34.9275 67.6002 34.9159 67.523 34.9159ZM70.0583 34.7023H70.3235V36.1762H70.0583V34.7023ZM68.9358 34.7023H68.6706H68.669V36.1778H69.1505C69.268 36.1778 69.3653 36.1613 69.4459 36.1317C69.5265 36.1018 69.5902 36.0621 69.6372 36.0124C69.6842 35.9626 69.7194 35.908 69.7396 35.845C69.7613 35.7822 69.7713 35.7191 69.7713 35.6528C69.7713 35.5865 69.7613 35.5237 69.7428 35.4623C69.7245 35.4012 69.6926 35.3464 69.6473 35.3002C69.602 35.2537 69.5416 35.2156 69.466 35.1874C69.3904 35.1594 69.2966 35.1445 69.1807 35.1445H68.9358V34.7023ZM69.1307 35.9311H68.9376V35.3911V35.3876H69.134C69.2614 35.3876 69.3537 35.411 69.4092 35.4574C69.4629 35.5039 69.4913 35.5715 69.4913 35.6611C69.4913 35.749 69.4644 35.8151 69.4108 35.8613C69.3571 35.908 69.2631 35.9311 69.1307 35.9311ZM71.5955 35.4127L72.1625 36.1762H71.8371L71.3991 35.5799L70.9544 36.1762H70.6457L71.2094 35.4257L70.6792 34.7021H71.0049L71.4092 35.2586L71.8202 34.7021H72.1291L71.5955 35.4127ZM48.3015 37.998H47.4877V39.227H47.2225V37.7531H48.5665V39.227H48.3015V37.998ZM50.0716 38.0145H49.5482L49.5312 38.2629C49.5196 38.3953 49.5054 38.5111 49.4877 38.6111C49.4772 38.6699 49.4655 38.7234 49.4524 38.7714C49.4171 38.9007 49.3735 39 49.3232 39.0696C49.273 39.1392 49.2141 39.1872 49.1469 39.2105C49.0776 39.2356 49.0043 39.2478 48.9306 39.2469L48.9104 38.9916C48.9389 38.9932 48.9724 38.9868 49.0093 38.9703C49.0464 38.9537 49.0833 38.9172 49.1184 38.8628C49.1537 38.8062 49.1857 38.7267 49.2141 38.6241C49.2426 38.5197 49.2612 38.384 49.2711 38.2132L49.2981 37.7544H50.3368V39.2286H50.0716V38.0145ZM50.8233 37.8539C50.8887 37.8125 50.9659 37.7795 51.0516 37.7564C51.139 37.7323 51.2293 37.72 51.32 37.72C51.5314 37.72 51.6808 37.7727 51.7647 37.8773C51.8502 37.9816 51.8923 38.1307 51.8923 38.3228V39.227H51.6439V39.0366C51.6001 39.0929 51.5398 39.1427 51.4644 39.1856C51.3888 39.2288 51.2899 39.2504 51.1657 39.2504C51.0281 39.2504 50.9172 39.2105 50.8335 39.131C50.7874 39.0877 50.7541 39.0342 50.7333 38.971C50.7162 38.9188 50.7076 38.8601 50.7076 38.7949C50.7075 38.7844 50.7077 38.7739 50.7083 38.7634C50.7095 38.7403 50.7126 38.7176 50.7173 38.6952C50.7246 38.6604 50.7359 38.6266 50.7511 38.5943C50.7788 38.5372 50.8189 38.4868 50.8685 38.4472C50.895 38.4254 50.9249 38.4068 50.958 38.391C50.9859 38.3778 51.016 38.3667 51.0482 38.3576C51.1186 38.3376 51.1926 38.3261 51.2713 38.3261C51.3356 38.3269 51.3996 38.3335 51.4626 38.3459C51.4867 38.3502 51.5104 38.3564 51.5334 38.3644C51.5725 38.378 51.6097 38.3968 51.6439 38.4204C51.6439 38.3525 51.6405 38.2897 51.6321 38.2316C51.6276 38.2009 51.6213 38.1725 51.6128 38.1467C51.6084 38.1335 51.6036 38.1208 51.5981 38.109C51.5941 38.1004 51.5898 38.0921 51.5853 38.0843C51.5617 38.0444 51.5282 38.0114 51.4827 37.9898C51.4532 37.9748 51.4182 37.9645 51.3768 37.9593L51.3565 37.9572C51.3402 37.9558 51.3229 37.955 51.3048 37.955C51.2127 37.955 51.1353 37.9651 51.075 37.9865C51.0574 37.9927 51.0399 37.9993 51.0224 38.0061C50.9796 38.0229 50.9368 38.0415 50.8939 38.0627L50.8233 37.8539ZM51.2598 39.0134C51.3206 39.0134 51.3743 39.0056 51.4206 38.9893C51.4485 38.9794 51.4737 38.9666 51.4963 38.9502C51.5508 38.9143 51.6004 38.8713 51.6441 38.8227V38.6355C51.5518 38.5695 51.4392 38.5382 51.3084 38.5382C51.2932 38.5382 51.2779 38.5387 51.2627 38.5401C51.2385 38.5424 51.2146 38.5467 51.191 38.5527C51.1523 38.5628 51.1172 38.5776 51.0887 38.5976C51.0602 38.6175 51.0348 38.6423 51.0165 38.6738C50.9979 38.7053 50.9896 38.7401 50.9896 38.7815C50.9896 38.8509 51.0131 38.9073 51.0602 38.9502C51.1071 38.9918 51.1724 39.0134 51.2598 39.0134ZM52.154 37.7531H53.5132V38.0147H52.966V39.227H52.701V38.0149H52.154V37.7531ZM54.8714 39.1631C54.834 39.1825 54.7942 39.1989 54.7516 39.2121C54.6509 39.2436 54.5502 39.2603 54.4511 39.2603C54.3386 39.2616 54.2267 39.2432 54.1207 39.2055C54.0216 39.1691 53.9376 39.1176 53.8689 39.0498C53.8 38.9819 53.7448 38.9007 53.7077 38.8064C53.6708 38.7117 53.6507 38.606 53.6507 38.49C53.6498 38.3871 53.6674 38.2851 53.7028 38.1885C53.7179 38.1463 53.7369 38.1059 53.7597 38.0676C53.7858 38.0236 53.8168 37.9824 53.8521 37.9451C53.9202 37.8747 54.0019 37.819 54.0922 37.781C54.1878 37.7412 54.2968 37.7198 54.421 37.7198C54.5134 37.7192 54.6051 37.7361 54.6912 37.7696C54.7735 37.8001 54.8488 37.8469 54.9125 37.907C54.9757 37.9677 55.026 38.0403 55.0604 38.1206C55.0973 38.2034 55.1158 38.2946 55.1158 38.3955C55.1158 38.4635 55.1106 38.5216 55.099 38.5728H53.9513C53.963 38.7119 54.0148 38.8214 54.1105 38.8991C54.2063 38.9769 54.3271 39.015 54.473 39.015C54.5704 39.015 54.6593 39.0002 54.7381 38.9705C54.817 38.9405 54.8825 38.9042 54.9311 38.8608L55.0117 39.0663C54.969 39.1044 54.9225 39.1367 54.8714 39.1631ZM54.4077 37.9649C54.27 37.9649 54.161 38.0015 54.0788 38.0759C53.9976 38.149 53.9457 38.2491 53.9328 38.3576H54.8389C54.8322 38.2349 54.7919 38.1389 54.7166 38.0693C54.641 38.0015 54.5387 37.9649 54.4077 37.9649ZM55.5806 37.7531H55.245L55.7935 38.4635L55.2198 39.227H55.5452L56.0922 38.4637L55.5806 37.7531ZM56.4229 37.7531H56.1577V39.227H56.4229V37.7531ZM56.7869 38.4635L57.3709 39.227H57.042L56.4882 38.4635L57.0033 37.7529H57.3324L56.7869 38.4635ZM58.8424 39.0663C58.7686 39.1324 58.6832 39.1806 58.5824 39.2121C58.4853 39.2432 58.384 39.2595 58.2821 39.2603C58.1695 39.2616 58.0576 39.2432 57.9515 39.2055C57.8524 39.1691 57.7687 39.1176 57.6999 39.0498C57.631 38.9819 57.5756 38.9007 57.5387 38.8064C57.5018 38.7117 57.4818 38.606 57.4818 38.49C57.4807 38.3871 57.4983 38.2851 57.5337 38.1885C57.566 38.0979 57.6169 38.0149 57.6831 37.9451C57.7511 37.8747 57.8328 37.819 57.923 37.781C58.0187 37.7412 58.1278 37.7198 58.2518 37.7198C58.3442 37.7192 58.4358 37.7361 58.522 37.7696C58.6044 37.8001 58.6797 37.8469 58.7435 37.907C58.8066 37.9677 58.8568 38.0403 58.8911 38.1206C58.9282 38.2034 58.9465 38.2946 58.9465 38.3955C58.9465 38.4635 58.9416 38.5216 58.9298 38.5728H57.782C57.7938 38.7119 57.8458 38.8214 57.9413 38.8991C58.037 38.9769 58.1579 39.015 58.3038 39.015C58.4012 39.015 58.4901 39.0002 58.569 38.9705C58.6478 38.9405 58.7132 38.9042 58.7619 38.8608L58.8424 39.0663ZM58.2387 37.9649C58.1011 37.9649 57.992 38.0015 57.9097 38.0759C57.8284 38.149 57.7765 38.2491 57.7636 38.3576H58.6698C58.6632 38.2349 58.6229 38.1389 58.5473 38.0693C58.4718 38.0015 58.3679 37.9649 58.2387 37.9649ZM59.8384 37.1901C59.8811 37.2352 59.9425 37.2578 60.0223 37.2578C60.1699 37.2578 60.2522 37.1717 60.264 36.9994H60.5123C60.5123 37.0655 60.5005 37.1252 60.477 37.1816C60.4537 37.2379 60.42 37.286 60.3781 37.3256C60.3593 37.3427 60.3393 37.3587 60.3177 37.373C60.2893 37.3921 60.2582 37.4084 60.2238 37.4216C60.1896 37.4356 60.1533 37.4454 60.1144 37.4514C60.0846 37.4558 60.0534 37.458 60.0206 37.458C59.9889 37.458 59.9588 37.4562 59.9301 37.4527C59.8844 37.4471 59.8424 37.437 59.8042 37.4216C59.7422 37.397 59.6884 37.3655 59.6465 37.3256C59.6212 37.3017 59.5995 37.2745 59.5815 37.2444C59.5697 37.2247 59.5595 37.2037 59.5508 37.1816C59.5386 37.1503 59.5297 37.1178 59.5241 37.0838C59.5196 37.0568 59.5173 37.0288 59.5173 36.9994H59.7673C59.7739 37.0836 59.7976 37.1472 59.8384 37.1901ZM59.5708 39.227H59.3057V37.7529H59.5708V38.8509L60.4333 37.7529H60.6985V39.227H60.4333V38.1288L59.5708 39.227Z" fill="white"/>
<defs>
<linearGradient id="paint0_linear_2271_1978" x1="79.7815" y1="68.0991" x2="-1.48891" y2="-7.16681" gradientUnits="userSpaceOnUse">
<stop offset="0.0320324" stop-color="#4F4F4F"/>
<stop offset="0.391424" stop-color="#373737"/>
</linearGradient>
</defs>
</svg>
