<svg width="96" height="25" viewBox="0 0 96 25" fill="none" xmlns="http://www.w3.org/2000/svg">
<path d="M24.0171 5.70349L26.9148 10.8737V14.0274L24.0204 19.1874L24.0171 5.70349Z" fill="#5B57A2"/>
<path d="M35.1433 8.99234L37.8586 7.3311L43.4157 7.32593L35.1433 12.3845V8.99234Z" fill="#D90751"/>
<path d="M35.128 5.67301L35.1433 12.5182L32.2388 10.7367V0.504395L35.1282 5.67301H35.128Z" fill="#FAB718"/>
<path d="M43.4157 7.32588L37.8584 7.33106L35.128 5.67301L32.2388 0.504395L43.4155 7.32588H43.4157Z" fill="#ED6F26"/>
<path d="M35.1433 19.216V15.895L32.2388 14.1473L32.2403 24.3898L35.1433 19.216Z" fill="#63B22F"/>
<path d="M37.8518 17.57L26.9146 10.8737L24.0171 5.70349L43.4039 17.5632L37.8517 17.57H37.8518Z" fill="#1487C9"/>
<path d="M32.2406 24.3899L35.1432 19.2161L37.8517 17.57L43.4038 17.5632L32.2406 24.3899Z" fill="#017F36"/>
<path d="M24.0205 19.1873L32.2625 14.1475L29.4916 12.4504L26.9148 14.0273L24.0205 19.1873Z" fill="#984995"/>
<path fill-rule="evenodd" clip-rule="evenodd" d="M55.6997 13.2591C57.5698 13.2591 58.9584 12.1146 58.9584 10.3796C58.9584 8.70012 57.9339 7.60984 56.2215 7.60984C55.4313 7.60984 54.7792 7.88741 54.2881 8.36656C54.4054 7.37639 55.2443 6.65329 56.1679 6.65329C56.3811 6.65329 57.9859 6.64999 57.9859 6.64999L58.8935 4.9165C58.8935 4.9165 56.8787 4.96238 55.942 4.96238C53.802 4.9995 52.3565 6.94117 52.3565 9.29939C52.3565 12.047 53.7662 13.2591 55.6997 13.2591ZM55.7111 9.14525C56.4055 9.14525 56.8867 9.60068 56.8867 10.3794C56.8867 11.0801 56.4591 11.6576 55.7111 11.6592C54.9956 11.6592 54.5142 11.124 54.5142 10.3912C54.5142 9.61235 54.9956 9.14525 55.7111 9.14525ZM66.1793 7.21078V13.0504H64.0903V8.95398H62.0789V13.0504H59.9899V7.21039L66.1793 7.21078ZM49.426 11.4329C50.1628 11.3793 50.6561 11.0953 50.6561 11.0953L51.4292 12.523C50.9341 12.8404 50.1217 13.0469 49.5329 13.0686C47.4261 13.1073 45.9607 11.8277 45.9607 9.9634C45.9607 8.12261 47.5198 6.81249 49.5329 6.81249C50.3305 6.81249 51.0162 7.02611 51.5311 7.41565C51.4227 7.60731 51.2754 7.87284 51.1354 8.12689L50.9112 8.5347L50.7072 8.90713C50.7072 8.90713 49.9654 8.51915 49.4046 8.51915C48.4902 8.51915 47.8242 9.04961 47.8242 9.97506C47.8242 10.924 48.5789 11.458 49.426 11.4329ZM47.8248 16.9803C47.761 17.0616 47.6771 17.123 47.5764 17.1644C47.473 17.2064 47.3625 17.2278 47.2509 17.2272C47.14 17.2288 47.0297 17.2103 46.9253 17.1728C46.8315 17.1388 46.7458 17.0857 46.6736 17.0171C46.6023 16.9483 46.5463 16.8653 46.5093 16.7733C46.4692 16.6728 46.4493 16.5653 46.4505 16.4571C46.4505 16.3496 46.469 16.25 46.5075 16.1558C46.5444 16.0613 46.598 15.9802 46.6652 15.9122C46.6957 15.8807 46.7289 15.8525 46.7645 15.8273L46.7864 15.8125C46.8092 15.7975 46.8331 15.7835 46.8578 15.7707L46.8844 15.7575L46.9036 15.7484C46.9959 15.7085 47.0966 15.6869 47.2073 15.6869C47.3264 15.6869 47.4371 15.7019 47.5378 15.7316C47.6014 15.7503 47.6589 15.7769 47.7103 15.8115C47.7404 15.8319 47.7685 15.8551 47.7945 15.8809L47.6721 16.0879C47.6128 16.0343 47.5431 15.9937 47.4672 15.9684C47.3952 15.9453 47.3198 15.9336 47.2442 15.9338C47.1771 15.9338 47.1133 15.947 47.0513 15.9719C46.9902 15.9964 46.9343 16.0323 46.8868 16.078C46.8382 16.1247 46.7999 16.1812 46.7743 16.2436C46.7458 16.308 46.7324 16.3793 46.7324 16.4588C46.7324 16.5399 46.7474 16.6128 46.7759 16.6757C46.8047 16.7403 46.8431 16.7951 46.8918 16.8414C46.9404 16.8878 46.9974 16.9224 47.0629 16.9457C47.0896 16.9558 47.1168 16.9638 47.1447 16.9696C47.1853 16.9782 47.2273 16.9823 47.271 16.9823C47.3616 16.9823 47.444 16.9638 47.5144 16.929C47.5513 16.9111 47.5862 16.8898 47.6187 16.8651C47.6476 16.8431 47.6744 16.8186 47.699 16.7918L47.8248 16.9803ZM48.1704 17.1924V15.7184H48.4355V16.8167L49.298 15.7184H49.5632V17.1926H49.298V16.0945L48.4355 17.1926L48.1704 17.1924ZM51.32 16.9803C51.2548 17.0624 51.1692 17.1257 51.0717 17.1644C51.0125 17.1883 50.9509 17.2056 50.8881 17.2159C50.8413 17.2235 50.7938 17.2274 50.7461 17.2272C50.7016 17.2278 50.6572 17.2253 50.6133 17.2194C50.5477 17.2109 50.4832 17.1953 50.4206 17.1728C50.3992 17.165 50.3782 17.1562 50.3576 17.1465C50.3328 17.1347 50.3087 17.1215 50.2853 17.1071C50.2436 17.0812 50.2046 17.0511 50.1689 17.0171C50.0975 16.9483 50.0415 16.8653 50.0045 16.7733C49.9645 16.6728 49.9444 16.5653 49.9457 16.4571C49.9457 16.3496 49.9642 16.25 50.0027 16.1558C50.0398 16.0613 50.0934 15.9802 50.1605 15.9122C50.2277 15.8426 50.3082 15.7898 50.3987 15.7484C50.4944 15.7064 50.5979 15.6854 50.7024 15.6869C50.7717 15.6869 50.8381 15.692 50.9012 15.7021L50.9383 15.7085C50.9524 15.7112 50.9663 15.7143 50.98 15.7176L51.0045 15.7237L51.0331 15.7316C51.1338 15.7614 51.2192 15.8111 51.2898 15.8809L51.1673 16.0879C51.1081 16.0343 51.0384 15.9937 50.9627 15.9684C50.9445 15.9626 50.9261 15.9573 50.9075 15.9528C50.8947 15.9499 50.8819 15.9474 50.8689 15.9451C50.8567 15.9429 50.8445 15.941 50.8322 15.9394L50.8051 15.9365C50.7833 15.9346 50.7614 15.9336 50.7395 15.9338C50.6062 15.9342 50.4782 15.9859 50.382 16.078C50.3695 16.0903 50.3577 16.1029 50.3466 16.1163C50.3335 16.1321 50.3213 16.1488 50.3102 16.1661C50.2945 16.1908 50.2808 16.2166 50.2695 16.2436C50.2633 16.2576 50.2578 16.272 50.2531 16.2868C50.2475 16.3037 50.243 16.321 50.2393 16.3387C50.2315 16.3766 50.2277 16.4164 50.2277 16.4588C50.2277 16.4971 50.231 16.5335 50.2375 16.5679C50.2414 16.5883 50.2464 16.6077 50.2524 16.6266C50.2578 16.6437 50.2642 16.66 50.2713 16.6757C50.2893 16.7166 50.3113 16.7535 50.3373 16.7867C50.3525 16.8062 50.369 16.8242 50.387 16.8414C50.4356 16.8878 50.4929 16.9224 50.5582 16.9457C50.6237 16.9689 50.6925 16.9823 50.7662 16.9823C50.7972 16.9823 50.827 16.9801 50.8557 16.9759C50.911 16.9679 50.9621 16.952 51.0095 16.929C51.0792 16.8954 51.1419 16.8487 51.1941 16.7918L51.32 16.9803ZM51.4576 15.7184H52.8167V15.9802H52.2697V17.1924H52.0046V15.9802H51.4576V15.7184ZM54.3152 17.0318C54.2414 17.0979 54.1559 17.1461 54.0551 17.1776C53.9581 17.2089 53.8568 17.2251 53.7549 17.2256C53.714 17.2262 53.6732 17.2241 53.6327 17.2194C53.5617 17.2111 53.4918 17.1949 53.4243 17.171C53.3252 17.1347 53.2414 17.0832 53.1726 17.0153C53.1023 16.9465 53.0474 16.8635 53.0115 16.772C52.9746 16.6775 52.9544 16.5716 52.9544 16.4555C52.9534 16.3527 52.9711 16.2506 53.0065 16.1542C53.0387 16.0634 53.0896 15.9806 53.1557 15.9107C53.1872 15.8782 53.2217 15.8487 53.2586 15.8226C53.3013 15.7925 53.3473 15.767 53.3958 15.7466C53.4511 15.7237 53.511 15.7068 53.5757 15.6966C53.6227 15.6893 53.6723 15.6854 53.7246 15.6854C53.7553 15.6852 53.786 15.6869 53.8163 15.6906C53.8438 15.6939 53.871 15.6988 53.8979 15.705C53.9307 15.7128 53.9631 15.7229 53.9948 15.7351C54.077 15.7657 54.1524 15.8123 54.2163 15.8726C54.2326 15.8883 54.248 15.9046 54.2625 15.9219C54.2745 15.9361 54.2859 15.9507 54.2966 15.9659C54.3131 15.989 54.3281 16.0135 54.3413 16.0386C54.3495 16.0541 54.357 16.0701 54.3639 16.0862C54.3791 16.1204 54.3911 16.156 54.4001 16.1931C54.4129 16.2458 54.4193 16.3018 54.4193 16.3612C54.4193 16.4291 54.4143 16.487 54.4025 16.5383H53.2548C53.2666 16.6777 53.3186 16.7867 53.4141 16.8647C53.5098 16.9426 53.6306 16.9805 53.7766 16.9805C53.8263 16.9805 53.8739 16.9766 53.919 16.9689C53.9621 16.9615 54.0031 16.9506 54.0418 16.936C54.1206 16.9061 54.186 16.8697 54.2347 16.8266L54.3152 17.0318ZM53.7128 15.9322C53.5752 15.9322 53.4662 15.9686 53.384 16.043C53.3027 16.1163 53.2509 16.2164 53.238 16.3247H54.1441C54.1373 16.2022 54.0973 16.1062 54.0216 16.0366C54.0091 16.025 53.9957 16.0145 53.9817 16.0049C53.9685 15.9958 53.9546 15.9876 53.94 15.9802C53.9289 15.9746 53.9175 15.9696 53.9056 15.9649C53.8496 15.9431 53.7851 15.9322 53.7128 15.9322ZM54.78 15.7184H55.0217L55.5956 16.4489L56.1392 15.7184H56.3741V17.1926H56.1091V16.1177L55.5922 16.8017H55.582L55.0453 16.1175V17.1924H54.78V15.7184ZM56.9796 15.7629C57.0172 15.747 57.056 15.7338 57.0955 15.7235C57.1811 15.7003 57.27 15.6871 57.3641 15.6871C57.4557 15.6871 57.5357 15.697 57.6037 15.7169C57.6492 15.7301 57.6894 15.7478 57.7242 15.7697C57.7574 15.7905 57.7856 15.8154 57.8088 15.8444C57.8462 15.8901 57.8752 15.9443 57.896 16.0069C57.9229 16.0875 57.9362 16.182 57.9362 16.2901V17.1943H57.688V17.0039C57.6443 17.0602 57.5839 17.1098 57.5082 17.1529C57.4329 17.1959 57.3337 17.2175 57.2096 17.2175C57.1196 17.2175 57.0413 17.2006 56.9744 17.1667C56.9598 17.1594 56.9457 17.1512 56.9322 17.1423C56.9231 17.136 56.9141 17.1294 56.9054 17.1226C56.8958 17.115 56.8864 17.1069 56.8774 17.0983C56.7936 17.0188 56.7515 16.9061 56.7515 16.762C56.7507 16.6927 56.7656 16.6242 56.7952 16.5614C56.8229 16.5043 56.863 16.454 56.9126 16.4143C56.9613 16.3745 57.0217 16.3445 57.0921 16.3247C57.106 16.3208 57.1201 16.3171 57.1343 16.3138L57.1558 16.3091L57.1798 16.3049C57.2234 16.2973 57.2685 16.2932 57.3154 16.2932C57.3797 16.294 57.4437 16.3006 57.5067 16.3132C57.5718 16.3245 57.6336 16.35 57.688 16.3879C57.688 16.3585 57.6873 16.3301 57.6859 16.3027L57.6833 16.2625C57.6815 16.2407 57.6792 16.2195 57.6762 16.1989C57.6678 16.141 57.6526 16.0914 57.6292 16.0516C57.6181 16.0329 57.6048 16.0156 57.5892 16.0005C57.5819 15.9933 57.5741 15.9865 57.5658 15.9802C57.5601 15.9762 57.5542 15.9721 57.548 15.9684C57.5412 15.9643 57.5342 15.9606 57.5268 15.9571C57.4816 15.934 57.4227 15.9221 57.3489 15.9221C57.2566 15.9221 57.1794 15.9322 57.1191 15.9538L57.0869 15.9657L57.0598 15.976L57.0279 15.989C56.9978 16.0016 56.9678 16.0152 56.9378 16.03L56.8674 15.8211C56.9033 15.7989 56.9409 15.7795 56.9796 15.7629ZM57.3021 16.9805C57.3994 16.9805 57.4783 16.9609 57.5388 16.9177C57.5932 16.8816 57.6429 16.8386 57.6863 16.79V16.6028C57.657 16.5819 57.6258 16.5644 57.5925 16.5502C57.574 16.5422 57.5548 16.5354 57.535 16.5298C57.5213 16.5259 57.5073 16.5224 57.4929 16.5193C57.4766 16.5158 57.4598 16.513 57.4427 16.5109C57.4132 16.5072 57.3825 16.5053 57.3508 16.5053C57.3105 16.5053 57.272 16.5101 57.2333 16.52C57.2141 16.5247 57.1954 16.5311 57.1775 16.5393C57.1614 16.5465 57.1458 16.555 57.131 16.5649C57.1025 16.5848 57.0774 16.6097 57.0588 16.6411L57.055 16.6479C57.0522 16.6532 57.0496 16.6584 57.0474 16.6639C57.0449 16.6699 57.0427 16.6761 57.0409 16.6825C57.0391 16.6884 57.0377 16.6944 57.0364 16.7006C57.0334 16.7156 57.0319 16.7315 57.0319 16.7486C57.0319 16.8182 57.0554 16.8746 57.1025 16.9176C57.1296 16.9415 57.1634 16.9588 57.2036 16.9691C57.233 16.9766 57.2659 16.9805 57.3021 16.9805ZM60.4281 15.0727C60.3811 15.1339 60.3309 15.1753 60.2772 15.2C60.2234 15.2249 60.1648 15.2416 60.101 15.2548C60.0531 15.2647 60.003 15.2739 59.9506 15.2834L59.898 15.2931C59.8184 15.3077 59.7411 15.3328 59.668 15.3676C59.6403 15.3794 59.6137 15.3938 59.5887 15.4103C59.5707 15.4222 59.5536 15.435 59.5373 15.449L59.5178 15.4667L59.5059 15.4786L59.4935 15.4916C59.4845 15.5023 59.4757 15.5132 59.4673 15.5242C59.4506 15.5462 59.4352 15.5689 59.4212 15.5927C59.4071 15.6166 59.3943 15.6414 59.3829 15.6673C59.3542 15.7316 59.3325 15.7999 59.3173 15.871C59.3023 15.9423 59.2939 16.0117 59.2888 16.0796H59.2956C59.319 16.0267 59.3525 15.9802 59.3929 15.9387C59.434 15.8967 59.4809 15.8605 59.5321 15.8312C59.5433 15.8247 59.5546 15.8185 59.5661 15.8125C59.579 15.8059 59.5922 15.7997 59.6055 15.7938C59.6361 15.7804 59.6676 15.7692 59.6999 15.76C59.7604 15.7435 59.8224 15.7351 59.8862 15.7351C59.9485 15.7344 60.0105 15.7412 60.0709 15.7554C60.1062 15.7637 60.1408 15.7746 60.1747 15.788C60.2581 15.8211 60.3332 15.8722 60.3947 15.9373C60.456 16.0038 60.5029 16.0821 60.5322 16.1674C60.5642 16.257 60.5809 16.3579 60.5809 16.4687C60.5809 16.5716 60.5624 16.6691 60.5239 16.7603C60.508 16.7996 60.4889 16.8371 60.4669 16.8725C60.438 16.9191 60.4042 16.9619 60.3661 17.0006C60.2972 17.0705 60.215 17.1261 60.1245 17.1644C60.0306 17.2043 59.9265 17.2258 59.8141 17.2258C59.6916 17.2258 59.5825 17.2043 59.4852 17.1613C59.3879 17.1183 59.3055 17.0585 59.2368 16.979C59.1679 16.901 59.1161 16.8052 59.079 16.6907C59.0421 16.5764 59.0237 16.4491 59.0237 16.3082C59.0237 16.1989 59.0304 16.0848 59.0439 15.9655C59.057 15.8485 59.0835 15.7336 59.1227 15.6226C59.1613 15.5132 59.2184 15.4138 59.2906 15.3262C59.3628 15.2383 59.4583 15.1689 59.5776 15.1174L59.6036 15.1061C59.6163 15.1009 59.6292 15.0958 59.6421 15.0912C59.6657 15.0826 59.6894 15.0748 59.7135 15.0678C59.7279 15.0637 59.7424 15.0599 59.757 15.0564C59.7753 15.0519 59.7938 15.048 59.8124 15.0447L59.9042 15.029L59.9534 15.0204L60.0036 15.0115C60.0331 15.0064 60.0623 14.9996 60.0911 14.991C60.1137 14.9844 60.136 14.9769 60.158 14.9683C60.1701 14.9636 60.182 14.9576 60.1935 14.9508L60.2085 14.9411C60.2356 14.9222 60.2607 14.897 60.2839 14.8657L60.4281 15.0727ZM59.3074 16.3579C59.3058 16.4454 59.3183 16.5327 59.3442 16.6163C59.3664 16.687 59.401 16.7531 59.4465 16.8118C59.4899 16.8643 59.5444 16.9067 59.606 16.936C59.668 16.9658 59.7353 16.9807 59.809 16.9807C59.8648 16.9807 59.916 16.9731 59.9637 16.9578L59.981 16.952C59.9904 16.9487 59.9996 16.945 60.0088 16.9409C60.0668 16.9164 60.1193 16.8802 60.1631 16.8351C60.2069 16.7898 60.2412 16.7362 60.2639 16.6775C60.2872 16.618 60.3008 16.5533 60.3008 16.4821C60.3008 16.3381 60.2605 16.2188 60.1781 16.1229C60.1506 16.091 60.119 16.0646 60.0833 16.0434C60.054 16.0259 60.0218 16.0121 59.9869 16.0018C59.9377 15.9874 59.883 15.9802 59.8224 15.9802C59.6972 15.9793 59.5753 16.0207 59.4768 16.0978C59.4332 16.1328 59.3963 16.1725 59.3677 16.2172C59.3578 16.232 59.3488 16.2473 59.341 16.2633C59.3346 16.2761 59.3289 16.2891 59.3239 16.3023C59.3171 16.3204 59.3116 16.3391 59.3074 16.3579ZM62.3495 15.7186H62.6147V17.1928H62.3495V15.7186ZM61.2286 15.7186H60.9634H60.9618V17.1943H61.4434C61.4675 17.1943 61.4907 17.1936 61.5131 17.1922C61.5272 17.1914 61.5409 17.1903 61.5544 17.1889C61.5665 17.1877 61.5783 17.1864 61.5899 17.1846C61.6449 17.1769 61.6943 17.1644 61.7387 17.1481C61.7574 17.1411 61.7752 17.1337 61.7922 17.1257L61.8139 17.1148L61.831 17.1057C61.8431 17.0987 61.8547 17.0913 61.8657 17.0836C61.8728 17.0787 61.8796 17.0736 61.8862 17.0686C61.8943 17.0622 61.9021 17.0556 61.9096 17.0488C61.9167 17.0423 61.9235 17.0355 61.9299 17.0287C61.977 16.979 62.0123 16.9244 62.0325 16.8616C62.0453 16.8242 62.0542 16.7869 62.0591 16.749C62.0626 16.7228 62.0643 16.6962 62.0643 16.6691C62.0643 16.6549 62.0638 16.6409 62.0628 16.627C62.0621 16.6147 62.0609 16.6027 62.0594 16.5906C62.0547 16.5525 62.0468 16.5154 62.0358 16.4786C62.0173 16.4176 61.9853 16.363 61.9401 16.3165C61.8948 16.2701 61.8344 16.2322 61.7589 16.2038C61.6832 16.1758 61.5893 16.1608 61.4737 16.1608H61.2286V15.7186ZM61.4216 16.9475H61.2286V16.4075V16.404H61.425C61.4497 16.404 61.4731 16.4048 61.4952 16.4065C61.5291 16.4092 61.5597 16.4141 61.5873 16.4209C61.608 16.426 61.6269 16.4324 61.6441 16.4398C61.6658 16.4493 61.6845 16.4606 61.7002 16.4738C61.7181 16.4893 61.7331 16.507 61.7451 16.5272C61.7585 16.5494 61.7684 16.5745 61.7745 16.6023C61.7797 16.6254 61.7823 16.6505 61.7823 16.6775C61.7823 16.7654 61.7556 16.8314 61.7018 16.8779C61.6783 16.8981 61.6473 16.9141 61.6086 16.9255C61.5588 16.9401 61.4963 16.9475 61.4216 16.9475ZM64.3683 16.9803C64.3045 17.0616 64.2206 17.123 64.1199 17.1644C64.0165 17.2062 63.906 17.2276 63.7944 17.2272C63.6835 17.2288 63.5732 17.2103 63.4688 17.1728C63.375 17.1388 63.2894 17.0857 63.2171 17.0171C63.1897 16.9906 63.1646 16.9621 63.1419 16.9317L63.1235 16.9059C63.1169 16.8962 63.1106 16.8863 63.1045 16.8761L63.096 16.862C63.0904 16.8524 63.0852 16.8427 63.0801 16.8328C63.0733 16.8198 63.0669 16.8066 63.0608 16.793L63.0527 16.7733C63.0127 16.6728 62.9928 16.5653 62.994 16.4571C62.994 16.3496 63.0123 16.25 63.051 16.1558C63.0879 16.0613 63.1416 15.9802 63.2087 15.9122C63.2759 15.8426 63.3563 15.7898 63.4471 15.7484C63.5427 15.7064 63.6463 15.6854 63.7508 15.6869C63.8698 15.6869 63.9807 15.7019 64.0813 15.7316C64.1821 15.7614 64.2676 15.8111 64.338 15.8809L64.2156 16.0879C64.1908 16.0654 64.1641 16.0452 64.1359 16.0275C64.1219 16.0187 64.1076 16.0106 64.0929 16.003C64.0814 15.9972 64.0697 15.9917 64.0578 15.9865L64.0354 15.9773L64.0107 15.9684C63.9387 15.9453 63.8633 15.9336 63.7877 15.9338C63.7607 15.9338 63.7342 15.9359 63.7081 15.94C63.6695 15.9462 63.6318 15.9571 63.5946 15.9719C63.5335 15.9964 63.4778 16.0325 63.4303 16.078C63.4148 16.0932 63.4003 16.1093 63.3869 16.1262L63.3752 16.1416C63.3523 16.1733 63.333 16.2075 63.3178 16.2436C63.2894 16.308 63.2759 16.3793 63.2759 16.4588C63.2759 16.5399 63.2909 16.6128 63.3194 16.6757C63.348 16.7403 63.3866 16.7951 63.4353 16.8414C63.4839 16.8878 63.5409 16.9224 63.6064 16.9457C63.672 16.9689 63.7407 16.9823 63.8145 16.9823C63.8691 16.9823 63.9199 16.9757 63.9675 16.9626C63.9795 16.9593 63.9913 16.9556 64.0029 16.9516C64.0217 16.9452 64.04 16.9376 64.0579 16.929C64.1276 16.8954 64.1903 16.8487 64.2425 16.7918L64.3683 16.9803ZM64.5058 15.7184H65.8651V15.9802H65.3179V17.1924H65.0529V15.9802H64.5058V15.7184ZM66.1536 15.7188H66.4188V15.8926C66.469 15.8327 66.5412 15.7851 66.6336 15.7452C66.7259 15.7054 66.8232 15.6856 66.9271 15.6856C66.9439 15.6852 66.9606 15.6856 66.9774 15.6865C67.0112 15.6885 67.0447 15.6928 67.0777 15.6994C67.1243 15.7087 67.17 15.7229 67.214 15.7417C67.2969 15.7763 67.3709 15.829 67.4305 15.8959C67.4914 15.9645 67.5381 16.0444 67.5682 16.1309C67.5837 16.1752 67.5956 16.2217 67.6038 16.2705C67.6124 16.3222 67.6168 16.3762 67.6168 16.4326C67.6168 16.5434 67.5983 16.6479 67.5614 16.7453C67.5245 16.8431 67.4724 16.9259 67.4037 16.9974C67.3338 17.0686 67.2506 17.1253 67.1588 17.1646C67.0631 17.2043 66.9573 17.2256 66.8399 17.2256C66.7609 17.2256 66.6838 17.2175 66.61 17.201C66.5362 17.1844 66.4725 17.1596 66.4188 17.1248V17.8484H66.1536V15.7188ZM66.8501 15.9322C66.7611 15.9322 66.679 15.9523 66.6034 15.9921C66.528 16.0318 66.4658 16.0798 66.419 16.1359V16.8664C66.4791 16.9067 66.5454 16.937 66.6152 16.956C66.679 16.9726 66.7462 16.9807 66.8182 16.9807C66.8925 16.9821 66.9662 16.9679 67.0347 16.9393C67.0962 16.9142 67.1517 16.8763 67.1974 16.8283C67.243 16.7797 67.278 16.7222 67.3 16.6594C67.3233 16.5931 67.3369 16.522 67.3369 16.4425C67.3369 16.4258 67.3364 16.4092 67.3353 16.3931L67.3331 16.3669L67.3309 16.3482L67.328 16.329L67.3246 16.3105L67.3199 16.2889C67.3157 16.2712 67.3108 16.2539 67.3049 16.237C67.2848 16.1742 67.2529 16.1212 67.2111 16.0747C67.1689 16.0285 67.1187 15.9937 67.0583 15.9688C66.9961 15.9439 66.9272 15.9322 66.8501 15.9322ZM69.3854 15.7186H69.6506V17.1926H69.3854V15.7186ZM68.2629 15.7186H67.9977H67.9961V17.1942H68.4776C68.5951 17.1942 68.6924 17.1776 68.773 17.1481C68.8535 17.1182 68.9173 17.0785 68.9643 17.0287C69.0113 16.979 69.0465 16.9244 69.0667 16.8614C69.0884 16.7986 69.0984 16.7354 69.0984 16.6691C69.0984 16.6028 69.0884 16.5401 69.0699 16.4786C69.0516 16.4176 69.0197 16.3628 68.9744 16.3165C68.9291 16.2701 68.8687 16.232 68.7931 16.2038C68.7175 16.1758 68.6237 16.1608 68.5078 16.1608H68.2629V15.7186ZM68.4578 16.9475H68.2647V16.4075V16.404H68.4611C68.5885 16.404 68.6808 16.4273 68.7363 16.4738C68.79 16.5202 68.8184 16.5879 68.8184 16.6775C68.8184 16.7654 68.7915 16.8314 68.7379 16.8777C68.6842 16.9244 68.5902 16.9475 68.4578 16.9475ZM70.9226 16.4291L71.4896 17.1926H71.1642L70.7262 16.5962L70.2815 17.1926H69.9728L70.5365 16.4421L70.0063 15.7184H70.332L70.7363 16.2749L71.1473 15.7184H71.4561L70.9226 16.4291ZM47.6286 19.0143H46.8148V20.2434H46.5496V18.7694H47.8936V20.2434H47.6286V19.0143ZM49.3987 19.0309H48.8752L48.8583 19.2793C48.8467 19.4116 48.8325 19.5275 48.8148 19.6274C48.8043 19.6863 48.7926 19.7398 48.7795 19.7878C48.7442 19.917 48.7006 20.0164 48.6503 20.086C48.6001 20.1555 48.5412 20.2036 48.474 20.2269C48.4047 20.252 48.3314 20.2642 48.2577 20.2632L48.2375 20.008C48.266 20.0096 48.2995 20.0031 48.3364 19.9866C48.3735 19.9701 48.4104 19.9336 48.4455 19.8791C48.4808 19.8226 48.5128 19.7431 48.5412 19.6404C48.5697 19.536 48.5883 19.4004 48.5982 19.2295L48.6252 18.7708H49.6639V20.245H49.3987V19.0309ZM50.1504 18.8703C50.2158 18.8289 50.293 18.7958 50.3787 18.7727C50.4661 18.7486 50.5564 18.7364 50.6471 18.7364C50.8585 18.7364 51.0079 18.789 51.0918 18.8936C51.1773 18.998 51.2194 19.1471 51.2194 19.3391V20.2434H50.971V20.0529C50.9272 20.1093 50.8669 20.159 50.7915 20.202C50.7159 20.2451 50.617 20.2667 50.4928 20.2667C50.3552 20.2667 50.2443 20.2269 50.1606 20.1474C50.1145 20.104 50.0812 20.0506 50.0604 19.9874C50.0433 19.9351 50.0347 19.8764 50.0347 19.8113C50.0346 19.8008 50.0348 19.7903 50.0354 19.7798C50.0366 19.7567 50.0397 19.7339 50.0444 19.7116C50.0517 19.6768 50.063 19.643 50.0782 19.6107C50.1059 19.5535 50.146 19.5032 50.1956 19.4635C50.2221 19.4418 50.252 19.4231 50.2851 19.4074C50.313 19.3942 50.343 19.3831 50.3753 19.3739C50.4457 19.3539 50.5197 19.3424 50.5984 19.3424C50.6627 19.3432 50.7267 19.3498 50.7897 19.3623C50.8138 19.3666 50.8375 19.3728 50.8604 19.3807C50.8996 19.3943 50.9368 19.4132 50.971 19.4367C50.971 19.3689 50.9676 19.3061 50.9592 19.248C50.9547 19.2173 50.9484 19.1889 50.9399 19.163C50.9355 19.1498 50.9307 19.1372 50.9252 19.1253C50.9212 19.1168 50.9169 19.1084 50.9123 19.1006C50.8888 19.0608 50.8553 19.0277 50.8098 19.0062C50.7803 18.9912 50.7453 18.9809 50.7039 18.9757L50.6836 18.9735C50.6673 18.9722 50.65 18.9714 50.6319 18.9714C50.5398 18.9714 50.4624 18.9815 50.402 19.0029C50.3845 19.0091 50.367 19.0157 50.3495 19.0225C50.3067 19.0392 50.2639 19.0579 50.2209 19.0791L50.1504 18.8703ZM50.5869 20.0298C50.6477 20.0298 50.7014 20.022 50.7477 20.0057C50.7755 19.9958 50.8008 19.9829 50.8234 19.9666C50.8779 19.9306 50.9275 19.8877 50.9712 19.8391V19.6519C50.8789 19.5858 50.7663 19.5545 50.6355 19.5545C50.6202 19.5545 50.605 19.5551 50.5898 19.5565C50.5656 19.5588 50.5417 19.5631 50.5181 19.5691C50.4794 19.5792 50.4443 19.594 50.4158 19.614C50.3872 19.6338 50.3619 19.6587 50.3436 19.6902C50.325 19.7217 50.3167 19.7565 50.3167 19.7979C50.3167 19.8673 50.3402 19.9236 50.3872 19.9666C50.4342 20.0082 50.4995 20.0298 50.5869 20.0298ZM51.4811 18.7694H52.8403V19.031H52.2931V20.2434H52.0281V19.0312H51.4811V18.7694ZM54.1985 20.1794C54.1611 20.1989 54.1212 20.2152 54.0787 20.2284C53.978 20.2599 53.8773 20.2766 53.7782 20.2766C53.6657 20.278 53.5538 20.2595 53.4478 20.2218C53.3487 20.1855 53.2647 20.134 53.196 20.0661C53.1271 19.9983 53.0719 19.917 53.0348 19.8228C52.9979 19.7281 52.9778 19.6224 52.9778 19.5063C52.9769 19.4035 52.9945 19.3014 53.0299 19.2048C53.045 19.1626 53.064 19.1222 53.0868 19.0839C53.1129 19.04 53.1439 18.9988 53.1792 18.9615C53.2473 18.8911 53.329 18.8353 53.4193 18.7974C53.5148 18.7576 53.6239 18.7362 53.7481 18.7362C53.8405 18.7356 53.9322 18.7525 54.0183 18.7859C54.1006 18.8165 54.1759 18.8633 54.2396 18.9234C54.3028 18.984 54.3531 19.0567 54.3874 19.137C54.4243 19.2198 54.4428 19.311 54.4428 19.4118C54.4428 19.4799 54.4377 19.538 54.4261 19.5891H53.2783C53.2901 19.7283 53.3419 19.8377 53.4376 19.9155C53.5333 19.9932 53.6542 20.0313 53.8001 20.0313C53.8975 20.0313 53.9864 20.0166 54.0652 19.9868C54.1441 19.9569 54.2096 19.9205 54.2582 19.8772L54.3388 20.0826C54.2961 20.1207 54.2496 20.153 54.1985 20.1794ZM53.7348 18.9813C53.5971 18.9813 53.4881 19.0178 53.4059 19.0923C53.3247 19.1654 53.2728 19.2655 53.2599 19.3739H54.166C54.1593 19.2513 54.119 19.1553 54.0436 19.0857C53.9681 19.0178 53.8658 18.9813 53.7348 18.9813ZM54.9077 18.7694H54.5721L55.1206 19.4799L54.5469 20.2434H54.8723L55.4193 19.4801L54.9077 18.7694ZM55.75 18.7694H55.4848V20.2434H55.75V18.7694ZM56.114 19.4799L56.6979 20.2434H56.3691L55.8153 19.4799L56.3304 18.7692H56.6595L56.114 19.4799ZM58.1695 20.0826C58.0957 20.1487 58.0103 20.1969 57.9095 20.2284C57.8124 20.2595 57.7111 20.2759 57.6092 20.2766C57.4966 20.278 57.3847 20.2595 57.2786 20.2218C57.1795 20.1855 57.0958 20.134 57.0269 20.0661C56.9581 19.9983 56.9027 19.917 56.8658 19.8228C56.8289 19.7281 56.8088 19.6224 56.8088 19.5063C56.8078 19.4035 56.8254 19.3014 56.8608 19.2048C56.8931 19.1142 56.944 19.0312 57.0102 18.9615C57.0782 18.8911 57.1599 18.8353 57.2501 18.7974C57.3458 18.7576 57.4549 18.7362 57.5789 18.7362C57.6713 18.7356 57.7629 18.7525 57.8491 18.7859C57.9315 18.8165 58.0067 18.8633 58.0706 18.9234C58.1337 18.984 58.1839 19.0567 58.2182 19.137C58.2553 19.2198 58.2736 19.311 58.2736 19.4118C58.2736 19.4799 58.2687 19.538 58.2569 19.5891H57.1091C57.1209 19.7283 57.1729 19.8377 57.2684 19.9155C57.3641 19.9932 57.485 20.0313 57.6309 20.0313C57.7283 20.0313 57.8172 20.0166 57.8961 19.9868C57.9749 19.9569 58.0403 19.9205 58.089 19.8772L58.1695 20.0826ZM57.5658 18.9813C57.4282 18.9813 57.319 19.0178 57.2368 19.0923C57.1555 19.1654 57.1036 19.2655 57.0907 19.3739H57.9969C57.9903 19.2513 57.95 19.1553 57.8744 19.0857C57.7989 19.0178 57.695 18.9813 57.5658 18.9813ZM59.1655 18.2065C59.2081 18.2516 59.2696 18.2741 59.3494 18.2741C59.497 18.2741 59.5793 18.188 59.5911 18.0158H59.8394C59.8394 18.0819 59.8276 18.1416 59.8041 18.1979C59.7808 18.2543 59.7471 18.3023 59.7052 18.342C59.6864 18.3591 59.6664 18.375 59.6448 18.3894C59.6164 18.4084 59.5852 18.4248 59.5509 18.438C59.5167 18.452 59.4804 18.4617 59.4415 18.4677C59.4117 18.4722 59.3805 18.4743 59.3477 18.4743C59.316 18.4743 59.2858 18.4726 59.2572 18.4691C59.2115 18.4635 59.1695 18.4534 59.1313 18.438C59.0693 18.4133 59.0155 18.3818 58.9736 18.342C58.9483 18.3181 58.9266 18.2908 58.9086 18.2607C58.8968 18.2411 58.8865 18.2201 58.8779 18.1979C58.8657 18.1666 58.8568 18.1342 58.8512 18.1002C58.8467 18.0731 58.8444 18.0452 58.8444 18.0158H59.0944C59.1009 18.1 59.1247 18.1635 59.1655 18.2065ZM58.8979 20.2434H58.6328V18.7692H58.8979V19.8673L59.7604 18.7692H60.0256V20.2434H59.7604V19.1452L58.8979 20.2434Z" fill="#1F1F1F"/>
</svg>
