<svg width="63" height="62" viewBox="0 0 63 62" fill="none" xmlns="http://www.w3.org/2000/svg">
<rect x="0.883911" y="0.0932617" width="61.7907" height="61.7907" rx="30.8954" fill="url(#paint0_linear_2271_2424)"/>
<g clip-path="url(#clip0_2271_2424)">
<path d="M49.4611 29.7408C46.6305 26.5633 35.6599 26.2667 35.6599 26.2667V22.5437H46.6808V16.8823H16.8912V22.5437H27.912V26.28C15.9114 26.8387 14.2114 29.9898 14.2114 29.9898V35.2539C16.6449 38.3812 27.9146 38.6301 27.9146 38.6301V48.1627H35.6599V38.6248C46.1062 38.4579 49.4611 35.3042 49.4611 35.3042V29.7435V29.7408ZM15.1726 32.876C14.892 32.7304 14.8258 32.357 15.0482 32.132C15.8743 31.2952 18.6653 29.6429 27.9173 29.2404V33.2653H35.6626V29.1927C35.6626 29.1927 47.7267 30.0612 48.8706 32.4073C49.996 34.719 25.7671 38.4156 15.1753 32.8734L15.1726 32.876Z" fill="white"/>
</g>
<defs>
<linearGradient id="paint0_linear_2271_2424" x1="12.2209" y1="0.0932601" x2="62.6746" y2="77.6346" gradientUnits="userSpaceOnUse">
<stop offset="0.119844" stop-color="#009393"/>
<stop offset="1" stop-color="#03D0D0"/>
</linearGradient>
<clipPath id="clip0_2271_2424">
<rect width="35.2497" height="31.2778" fill="white" transform="translate(14.2114 16.8823)"/>
</clipPath>
</defs>
</svg>
