<svg width="63" height="63" viewBox="0 0 63 63" fill="none" xmlns="http://www.w3.org/2000/svg">
<g clip-path="url(#clip0_2271_1691)">
<path d="M62.2192 31.6654C62.2192 14.6023 48.3869 0.77002 31.3238 0.77002C14.2608 0.77002 0.428467 14.6023 0.428467 31.6654C0.428467 48.7284 14.2608 62.5607 31.3238 62.5607C48.3869 62.5607 62.2192 48.7284 62.2192 31.6654Z" fill="url(#paint0_linear_2271_1691)"/>
<path d="M19.7832 14.9629H42.9664V26.8007C42.9664 26.8007 43.2951 31.2428 38.6063 33.9268C34.7113 36.1566 31.4518 38.2051 31.4234 38.1461C31.4234 38.1461 23.5581 33.6451 23.0416 33.1068C22.5251 32.5684 20.0879 31.114 19.9241 26.5551C19.7603 21.9962 19.7832 14.964 19.7832 14.964V14.9629Z" fill="white"/>
<path d="M26.252 21.0734H36.6365V24.6233C36.6365 24.6397 36.6157 24.6462 36.6059 24.6331C36.464 24.4278 35.7586 23.6624 33.1379 23.7596L33.1357 28.6526C33.1357 28.6526 33.3071 30.0438 33.8072 30.5908L29.0092 30.6694C29.0092 30.6694 29.6491 29.5993 29.743 28.6461V23.7781C29.743 23.7781 27.4903 23.4986 26.2531 24.6135C26.2498 24.6168 26.2433 24.6135 26.2433 24.6091L26.2509 21.0745L26.252 21.0734Z" fill="#373737"/>
<path d="M28.721 42.459H26.1648L23.7844 48.3777H25.7534L26.0915 47.5475H28.7511L29.0742 48.3777H31.0726L28.7217 42.459H28.721ZM26.5467 46.1951L27.394 43.8298C27.394 43.8298 27.5069 43.8319 27.5069 43.8326C27.5466 43.9448 28.2994 46.0822 28.3391 46.1951H26.5467Z" fill="white"/>
<path d="M22.7271 45.2992C22.918 45.1966 23.7557 44.6819 23.5648 43.5951C23.3738 42.5083 21.9927 42.459 21.9927 42.459H17.2177V48.3777L22.3746 48.3558C23.109 48.1354 23.6825 47.7316 23.7112 46.7693C23.7441 45.7037 22.7271 45.2999 22.7271 45.2999V45.2992ZM21.385 47.028H18.9115V46.0097H21.385C21.6663 46.0097 21.8942 46.2376 21.8942 46.5188C21.8942 46.8001 21.6663 47.028 21.385 47.028ZM21.385 44.775H18.9115V43.7566H21.385C21.6663 43.7566 21.8942 43.9845 21.8942 44.2658C21.8942 44.5471 21.6663 44.775 21.385 44.775Z" fill="white"/>
<path d="M31.5668 48.377L31.6058 42.459H33.1826L36.2091 45.74V42.459H37.8742V48.377H36.3069L33.2217 45.1131V48.377H31.5668Z" fill="white"/>
<path d="M45.5142 48.377L42.6048 45.3088L45.4067 42.459H43.2317L41.0847 44.6723H41.082H40.6166V42.459H38.8734V48.377H40.6166V46.1417H41.0697L43.1927 48.377H45.5142Z" fill="white"/>
</g>
<defs>
<linearGradient id="paint0_linear_2271_1691" x1="15.1405" y1="0.770021" x2="68.7964" y2="90.4271" gradientUnits="userSpaceOnUse">
<stop offset="0.286958" stop-color="#FFDD2D"/>
<stop offset="0.891638" stop-color="#CBAF66"/>
</linearGradient>
<clipPath id="clip0_2271_1691">
<rect width="61.7907" height="61.7907" fill="white" transform="translate(0.428467 0.77002)"/>
</clipPath>
</defs>
</svg>
