<svg width="62" height="63" viewBox="0 0 62 63" fill="none" xmlns="http://www.w3.org/2000/svg">
<g clip-path="url(#clip0_2271_1732)">
<path d="M61.7989 31.6654C61.7989 14.6023 47.9666 0.77002 30.9035 0.77002C13.8405 0.77002 0.00817871 14.6023 0.00817871 31.6654C0.00817871 48.7284 13.8405 62.5607 30.9035 62.5607C47.9666 62.5607 61.7989 48.7284 61.7989 31.6654Z" fill="url(#paint0_linear_2271_1732)"/>
<path d="M19.3947 13.5781H42.5779V25.416C42.5779 25.416 42.9066 29.858 38.2177 32.5421C34.3227 34.7718 31.0633 36.8203 31.0349 36.7614C31.0349 36.7614 23.1695 32.2603 22.653 31.722C22.1365 31.1837 19.6993 29.7292 19.5355 25.1703C19.3717 20.6114 19.3947 13.5792 19.3947 13.5792V13.5781Z" fill="white"/>
<path d="M25.8634 19.6886H36.2478V23.2385C36.2478 23.2549 36.2271 23.2615 36.2172 23.2484C36.0753 23.0431 35.3699 22.2776 32.7492 22.3748L32.747 27.2678C32.747 27.2678 32.9185 28.659 33.4186 29.2061L28.6205 29.2847C28.6205 29.2847 29.2604 28.2146 29.3543 27.2613V22.3934C29.3543 22.3934 27.1016 22.1138 25.8644 23.2287C25.8612 23.232 25.8546 23.2287 25.8546 23.2243L25.8623 19.6897L25.8634 19.6886Z" fill="#373737"/>
<path d="M17.6642 46.0599H19.084C19.0651 46.471 18.9542 46.8334 18.7513 47.1471C18.5485 47.4608 18.2673 47.7055 17.9076 47.8813C17.5506 48.0544 17.1287 48.1409 16.6419 48.1409C16.247 48.1409 15.8941 48.0747 15.5831 47.9422C15.2748 47.8097 15.0125 47.619 14.7961 47.3702C14.5825 47.1214 14.4189 46.8198 14.3053 46.4656C14.1944 46.1113 14.1389 45.7124 14.1389 45.2688V44.9484C14.1389 44.5048 14.1971 44.1059 14.3134 43.7517C14.4324 43.3947 14.6 43.0918 14.8164 42.843C15.0355 42.5915 15.2978 42.3995 15.6034 42.2669C15.909 42.1344 16.2484 42.0682 16.6216 42.0682C17.1354 42.0682 17.5695 42.1601 17.9238 42.344C18.2781 42.5279 18.5526 42.7808 18.7473 43.1026C18.942 43.4217 19.0569 43.7855 19.0921 44.1938H17.6723C17.6669 43.9721 17.629 43.7868 17.5587 43.6381C17.4884 43.4866 17.3775 43.373 17.226 43.2973C17.0746 43.2216 16.8731 43.1837 16.6216 43.1837C16.4458 43.1837 16.293 43.2162 16.1632 43.2811C16.0334 43.346 15.9252 43.4488 15.8387 43.5894C15.7521 43.73 15.6872 43.9126 15.644 44.137C15.6034 44.3588 15.5831 44.6265 15.5831 44.9403V45.2688C15.5831 45.5826 15.602 45.8503 15.6399 46.0721C15.6778 46.2938 15.7386 46.475 15.8225 46.6157C15.9063 46.7563 16.0145 46.8604 16.147 46.928C16.2822 46.9929 16.4472 47.0254 16.6419 47.0254C16.8582 47.0254 17.0408 46.9916 17.1895 46.924C17.3383 46.8536 17.4532 46.7482 17.5344 46.6075C17.6155 46.4642 17.6588 46.2817 17.6642 46.0599ZM22.2603 43.3947L20.8202 48.0598H19.2909L21.4612 42.1533H22.4307L22.2603 43.3947ZM23.453 48.0598L22.0088 43.3947L21.8222 42.1533H22.8039L24.9864 48.0598H23.453ZM23.3962 45.8571V46.9564H20.3659V45.8571H23.3962ZM28.4629 46.4899C28.4629 46.3979 28.4494 46.3155 28.4224 46.2424C28.3953 46.1667 28.3453 46.0964 28.2723 46.0315C28.1993 45.9666 28.0938 45.9017 27.9559 45.8368C27.8206 45.7692 27.6421 45.6989 27.4204 45.6258C27.1608 45.5393 26.9106 45.4419 26.6699 45.3338C26.4292 45.2229 26.2142 45.0944 26.0249 44.9484C25.8356 44.7996 25.6855 44.6265 25.5746 44.4291C25.4637 44.229 25.4083 43.9964 25.4083 43.7314C25.4083 43.4772 25.4651 43.2486 25.5787 43.0458C25.6923 42.8403 25.8505 42.6658 26.0533 42.5225C26.2588 42.3765 26.4995 42.2656 26.7754 42.1899C27.0512 42.1114 27.3528 42.0722 27.68 42.0722C28.1127 42.0722 28.494 42.1479 28.824 42.2994C29.1566 42.4481 29.4162 42.6604 29.6029 42.9363C29.7922 43.2094 29.8868 43.5326 29.8868 43.9058H28.4711C28.4711 43.7571 28.4399 43.6259 28.3777 43.5123C28.3183 43.3987 28.2277 43.3095 28.106 43.2446C27.9843 43.1797 27.8315 43.1472 27.6476 43.1472C27.4691 43.1472 27.319 43.1743 27.1973 43.2284C27.0756 43.2824 26.9836 43.3555 26.9214 43.4474C26.8592 43.5367 26.8281 43.6354 26.8281 43.7436C26.8281 43.8328 26.8525 43.9139 26.9011 43.9869C26.9525 44.0573 27.0242 44.1235 27.1161 44.1857C27.2108 44.2479 27.3244 44.3074 27.4569 44.3642C27.5921 44.421 27.7436 44.4764 27.9112 44.5305C28.2249 44.6306 28.5035 44.7428 28.7469 44.8672C28.993 44.9889 29.1999 45.1282 29.3676 45.2851C29.5379 45.4392 29.6664 45.615 29.7529 45.8124C29.8422 46.0099 29.8868 46.233 29.8868 46.4818C29.8868 46.7468 29.8354 46.9821 29.7327 47.1876C29.6299 47.3932 29.4825 47.5676 29.2905 47.7109C29.0985 47.8516 28.8686 47.9584 28.6009 48.0314C28.3331 48.1044 28.0343 48.1409 27.7043 48.1409C27.4014 48.1409 27.1026 48.1031 26.8078 48.0274C26.5158 47.9489 26.2507 47.8299 26.0127 47.6704C25.7747 47.5081 25.5841 47.3012 25.4407 47.0497C25.3001 46.7955 25.2298 46.494 25.2298 46.1451H26.6577C26.6577 46.3182 26.6807 46.4642 26.7267 46.5832C26.7727 46.7022 26.8403 46.7982 26.9295 46.8712C27.0188 46.9415 27.1283 46.9929 27.2581 47.0254C27.3879 47.0551 27.5367 47.07 27.7043 47.07C27.8855 47.07 28.0316 47.0443 28.1425 46.9929C28.2533 46.9388 28.3345 46.8685 28.3859 46.782C28.4372 46.6927 28.4629 46.5954 28.4629 46.4899ZM34.6006 44.4981V45.5934H31.5703V44.4981H34.6006ZM32.0449 42.1533V48.0598H30.6211V42.1533H32.0449ZM35.558 42.1533V48.0598H34.1382V42.1533H35.558ZM39.067 44.9849V46.0437H36.629V44.9849H39.067ZM41.716 42.1533V48.0598H40.2962V42.1533H41.716ZM47.6508 42.1533V48.0598H46.231L44.1418 44.3845V48.0598H42.718V42.1533H44.1418L46.231 45.8287V42.1533H47.6508Z" fill="white"/>
</g>
<defs>
<linearGradient id="paint0_linear_2271_1732" x1="14.7203" y1="0.770021" x2="68.3761" y2="90.4271" gradientUnits="userSpaceOnUse">
<stop offset="0.286958" stop-color="#FFDD2D"/>
<stop offset="0.891638" stop-color="#CBAF66"/>
</linearGradient>
<clipPath id="clip0_2271_1732">
<rect width="61.7907" height="61.7907" fill="white" transform="translate(0.00817871 0.77002)"/>
</clipPath>
</defs>
</svg>
