<svg width="62" height="63" viewBox="0 0 62 63" fill="none" xmlns="http://www.w3.org/2000/svg">
<rect x="0.0985413" y="0.785645" width="61.7907" height="61.7907" rx="30.8954" fill="url(#paint0_linear_2271_2482)"/>
<path d="M29.8392 21.9601V19.4582C29.8392 19.1832 30.0782 18.9602 30.3732 18.9602H32.6564C32.9513 18.9602 33.1904 19.1832 33.1904 19.4582V21.9598C33.1904 21.9598 35.7816 22.197 37.2541 24.3519C38.6156 26.3447 38.3854 28.1808 38.3854 28.1808H34.1486C34.1486 28.1808 33.9758 24.1449 30.4253 25.0357C27.388 25.7977 28.2259 30.0562 31.4517 30.6424C34.2093 31.1435 39.2021 33.0453 38.3642 38.3391C38.3642 38.3391 37.673 42.1679 33.0433 42.7538V45.3227C33.0433 45.6301 32.7759 45.8794 32.4464 45.8794H30.3516C30.022 45.8794 29.7546 45.6301 29.7546 45.3227V42.8907C29.7546 42.8907 22.8428 42.4413 23.3873 36.6394H27.6606C27.6606 36.6394 27.6606 39.765 30.7817 39.8039C33.9028 39.8428 34.2171 37.8897 34.0287 36.6002C33.8403 35.3107 32.3026 34.5685 30.9139 34.0608C29.5252 33.553 23.8692 32.4785 24.1414 27.4775C24.4136 22.4765 28.9804 22.1466 29.8392 21.9601Z" fill="white"/>
<path fill-rule="evenodd" clip-rule="evenodd" d="M9.56895 31.599C9.56895 21.5089 16.5722 13.0546 25.9831 10.8315V14.4545C18.5292 16.5914 13.0744 23.4581 13.0744 31.5988C13.0744 39.7395 18.5292 46.6061 25.9831 48.7431V52.3664C16.5722 50.1434 9.56895 41.689 9.56895 31.599ZM37.1447 52.0113C45.8866 49.3434 52.2458 41.2138 52.2458 31.599C52.2458 21.9841 45.8866 13.8545 37.1447 11.1866V14.8873C43.9174 17.4162 48.74 23.9443 48.74 31.5988C48.74 39.2533 43.9174 45.7814 37.1447 48.3103V52.0113Z" fill="white"/>
<defs>
<linearGradient id="paint0_linear_2271_2482" x1="16.0222" y1="-3.10873" x2="125.497" y2="166.167" gradientUnits="userSpaceOnUse">
<stop offset="0.0435734" stop-color="#2C9AFF"/>
<stop offset="0.580801" stop-color="#03FF86"/>
</linearGradient>
</defs>
</svg>
