<svg width="62" height="63" viewBox="0 0 62 63" fill="none" xmlns="http://www.w3.org/2000/svg">
<g clip-path="url(#clip0_2271_1764)">
<path d="M61.9586 31.6654C61.9586 14.6023 48.1262 0.77002 31.0632 0.77002C14.0002 0.77002 0.167847 14.6023 0.167847 31.6654C0.167847 48.7284 14.0002 62.5607 31.0632 62.5607C48.1262 62.5607 61.9586 48.7284 61.9586 31.6654Z" fill="url(#paint0_linear_2271_1764)"/>
<path d="M30.4091 32.8164C31.4516 32.3559 32.1786 31.3135 32.1786 30.1015V29.8017C32.1786 28.1631 30.85 26.8345 29.2114 26.8345H23.7618V39.598H29.4501C31.202 39.598 32.6229 38.1778 32.6229 36.4253V35.861C32.6229 34.4381 31.6937 33.2322 30.4091 32.8157V32.8164ZM26.2591 28.9424H28.0537C28.9014 28.9424 29.5892 29.6301 29.5892 30.4779C29.5892 31.3257 28.9014 32.0134 28.0537 32.0134H26.2591V28.9424ZM29.9954 35.8149C29.9954 36.7495 29.2378 37.5077 28.3026 37.5077H26.4157C26.3289 37.5077 26.2584 37.4372 26.2584 37.3504V34.2794C26.2584 34.1925 26.3289 34.122 26.4157 34.122H28.3026C29.2372 34.122 29.9954 34.8796 29.9954 35.8149Z" fill="white"/>
<path d="M42.9997 26.7693L32.8351 26.8337V28.9423H36.4148V39.6257H39.0503V28.9423H42.3248L42.9997 26.7693Z" fill="white"/>
<path d="M49.1505 31.8655H46.3297V28.8874H51.3981L52.1381 26.7693H43.8508V39.6257H49.1505C51.158 39.6257 52.7851 37.998 52.7851 35.9911V35.5008C52.7851 33.4932 51.1574 31.8662 49.1505 31.8662V31.8655ZM50.1034 35.7687C50.1034 36.7697 49.2916 37.5816 48.2905 37.5816H46.3854V33.9558H48.2905C49.2916 33.9558 50.1034 34.7676 50.1034 35.7687Z" fill="white"/>
<path d="M10.868 23.6169L10.0731 25.7425H20.6907L21.468 23.6169H10.868Z" fill="white"/>
<path d="M8.57833 29.8877L7.78345 32.0133H18.4011L19.1783 29.8877H8.57833Z" fill="white"/>
<path d="M9.72518 26.7524L8.9303 28.878H19.5479L20.3252 26.7524H9.72518Z" fill="white"/>
</g>
<defs>
<linearGradient id="paint0_linear_2271_1764" x1="27.2554" y1="7.08756" x2="26.0438" y2="62.5607" gradientUnits="userSpaceOnUse">
<stop stop-color="#009FDF"/>
<stop offset="0.976109" stop-color="#0A2896"/>
</linearGradient>
<clipPath id="clip0_2271_1764">
<rect width="61.7907" height="61.7907" fill="white" transform="translate(0.167847 0.77002)"/>
</clipPath>
</defs>
</svg>
