<svg width="63" height="63" viewBox="0 0 63 63" fill="none" xmlns="http://www.w3.org/2000/svg">
<path d="M62.3544 31.8573C62.3544 14.7942 48.5221 0.961914 31.4591 0.961914C14.396 0.961914 0.563721 14.7942 0.563721 31.8573C0.563721 48.9203 14.396 62.7526 31.4591 62.7526C48.5221 62.7526 62.3544 48.9203 62.3544 31.8573Z" fill="url(#paint0_linear_2271_2218)"/>
<path d="M24.2145 22.2821L28.9956 18.1379L33.2581 22.8793L28.477 27.1824L24.2145 22.2821Z" fill="white"/>
<path d="M27.7198 30.489L32.5009 26.3457L36.7643 31.0862L31.9832 35.3894L27.7198 30.489Z" fill="white"/>
<path d="M30.9469 38.5371L35.728 34.3929L39.9914 39.1343L35.2103 43.4374L30.9469 38.5371Z" fill="white"/>
<path d="M39.433 34.7095L42.9086 31.6315L46.0074 35.1535L42.5318 38.3508L39.433 34.7095Z" fill="white"/>
<path d="M42.4614 41.9938L45.9363 38.9158L49.035 42.4378L45.5602 45.6352L42.4614 41.9938Z" fill="white"/>
<path d="M36.366 27.2263L39.8408 24.1475L42.9396 27.6703L39.4647 30.8677L36.366 27.2263Z" fill="white"/>
<path d="M33.079 19.9751L36.5538 16.8962L39.6526 20.4191L36.1777 23.6164L33.079 19.9751Z" fill="white"/>
<path d="M40.8278 18.3889L43.2282 16.2617L45.3695 18.6953L42.9682 20.9045L40.8278 18.3889Z" fill="white"/>
<path d="M43.9352 25.4007L46.3365 23.2736L48.4777 25.7072L46.0764 27.9163L43.9352 25.4007Z" fill="white"/>
<path d="M46.8706 32.4127L49.2711 30.2855L51.4123 32.72L49.011 34.9291L46.8706 32.4127Z" fill="white"/>
<path d="M41.3062 14.3933L39.6528 16.1062L36.834 13.2874L32.0629 17.4208L29.3136 14.4728L20.8672 22.1621L26.1262 28.2975L24.0148 30.2855L29.4727 36.3456L27.4408 38.1786L35.0506 46.9837L39.652 42.92L43.7356 47.5412C43.7356 47.5412 33.4569 56.0672 21.8629 49.3743C10.2688 42.6806 10.1694 30.8678 13.018 24.1485C15.5278 18.2276 25.2491 6.38584 41.3053 14.3941L41.3062 14.3933Z" fill="white"/>
<defs>
<linearGradient id="paint0_linear_2271_2218" x1="90.1343" y1="95.8115" x2="-12.8502" y2="-23.7024" gradientUnits="userSpaceOnUse">
<stop offset="0.281503" stop-color="#3970B1"/>
<stop offset="1" stop-color="#1177D2"/>
</linearGradient>
</defs>
</svg>
