<svg width="62" height="62" viewBox="0 0 62 62" fill="none" xmlns="http://www.w3.org/2000/svg">
<g clip-path="url(#clip0_2271_2190)">
<path d="M61.904 30.9339C61.904 13.8709 48.0717 0.0385742 31.0086 0.0385742C13.9456 0.0385742 0.113281 13.8709 0.113281 30.9339C0.113281 47.997 13.9456 61.8293 31.0086 61.8293C48.0717 61.8293 61.904 47.997 61.904 30.9339Z" fill="url(#paint0_linear_2271_2190)"/>
<path d="M12.9094 36.2805C15.8425 36.2805 18.2202 33.9028 18.2202 30.9697C18.2202 28.0367 15.8425 25.6589 12.9094 25.6589C9.97636 25.6589 7.59863 28.0367 7.59863 30.9697C7.59863 33.9028 9.97636 36.2805 12.9094 36.2805Z" fill="#EC011C"/>
<path d="M19.3943 36.2805C22.3274 36.2805 24.7051 33.9028 24.7051 30.9697C24.7051 28.0367 22.3274 25.6589 19.3943 25.6589C16.4612 25.6589 14.0835 28.0367 14.0835 30.9697C14.0835 33.9028 16.4612 36.2805 19.3943 36.2805Z" fill="#F79F1B"/>
<path fill-rule="evenodd" clip-rule="evenodd" d="M16.1524 26.7633C14.8944 27.7345 14.0841 29.2575 14.0841 30.9697C14.0841 32.6819 14.8944 34.2049 16.1524 35.1761C17.4105 34.2049 18.2208 32.6819 18.2208 30.9697C18.2208 29.2575 17.4105 27.7345 16.1524 26.7633Z" fill="#FF5F00"/>
<path d="M27.0999 26.9197L28.6803 27.3388C29.2685 27.4944 29.7264 27.9561 29.8776 28.545L31.5905 35.1938H33.9754L37.497 26.7528H35.261L32.9943 32.4108C32.9756 32.4565 32.909 32.4505 32.8993 32.4019L31.9317 27.5468C31.8419 27.0956 31.4461 26.7693 30.9859 26.7678L27.0999 26.7521V26.9197Z" fill="white"/>
<path d="M38.5221 26.7521H40.7027L38.876 35.324H36.6962L38.5221 26.7521Z" fill="white"/>
<path d="M47.1502 26.9384L46.7529 28.7276C46.7529 28.7276 45.9327 28.2307 44.79 28.3303C43.6474 28.4298 43.5231 29.0382 43.7469 29.4236C43.9706 29.8089 45.3992 30.4046 45.8586 30.7653C46.3181 31.126 47.7878 32.4535 45.9335 34.4545C44.2064 36.3178 40.4797 35.0008 40.4797 35.0008L40.8651 33.1247C40.8651 33.1247 42.0392 33.7324 43.1632 33.671C44.2587 33.6111 44.8746 33.0387 44.0709 32.1706C44.0036 32.0973 43.9197 32.0412 43.8285 32C43.2552 31.7433 41.1248 30.6486 41.3987 29.0741C41.7182 27.2355 43.2747 26.1796 47.1502 26.9377V26.9384Z" fill="white"/>
<path d="M52.8331 26.7522H50.7842C50.4781 26.7522 50.2013 26.9341 50.08 27.2147L46.6281 35.1932L48.9576 35.3234L49.3534 34.1186C49.3841 34.0259 49.4709 33.9645 49.5682 33.966L52.1708 34.0169C52.2307 34.0184 52.2823 34.061 52.2943 34.1201L52.5353 35.3234H54.641L52.8338 26.7515L52.8331 26.7522ZM50.0696 32.2681L51.201 29.1408C51.2077 29.1214 51.2362 29.1229 51.2407 29.1431L51.9823 32.2673H50.0688L50.0696 32.2681Z" fill="white"/>
</g>
<defs>
<linearGradient id="paint0_linear_2271_2190" x1="21.7592" y1="82.5322" x2="37.6174" y2="2.66232" gradientUnits="userSpaceOnUse">
<stop stop-color="#172066"/>
<stop offset="0.959077" stop-color="#2548A1"/>
</linearGradient>
<clipPath id="clip0_2271_2190">
<rect width="61.7907" height="61.7907" fill="white" transform="translate(0.113403 0.0385742)"/>
</clipPath>
</defs>
</svg>
