<svg width="63" height="62" viewBox="0 0 63 62" fill="none" xmlns="http://www.w3.org/2000/svg">
<rect x="0.303101" y="0.178467" width="61.7907" height="61.7907" rx="30.8954" fill="url(#paint0_linear_2271_2333)"/>
<g clip-path="url(#clip0_2271_2333)">
<path d="M19.3092 27.3337L20.3477 38.0753H22.8141L25.7029 31.422L26.7085 38.0753H29.1749L32.9724 27.3337H30.2134L28.2351 33.4678L27.2935 27.3337H25.3135L22.5874 33.4678L22.3278 27.3337H19.3092Z" fill="#153300"/>
<path d="M34.1081 27.3337H37.0298L35.5689 38.0753H32.4863L34.1081 27.3337Z" fill="#153300"/>
<path d="M11.9758 38.0753L15.3509 29.2152H11.1312L12.007 30.7417L10.5808 32.5037H12.9659L12.2666 34.1809L6.88025 34.2778L9.99575 30.6119L8.1126 27.3337H18.141L14.1826 38.0753H11.9758Z" fill="#153300"/>
<path d="M44.6227 31.0014L45.1091 28.0486C45.1091 28.0486 41.6111 26.2606 39.3004 28.0486C36.9897 29.8365 37.7582 32.682 39.9823 33.5007C42.0109 34.2467 42.0715 35.6469 41.2476 35.8702C40.737 36.0086 39.0737 36.6491 37.483 34.3453L37.0295 37.2341C37.0295 37.2341 40.0152 39.2782 42.8071 37.8831C45.5989 36.4881 45.4847 32.7062 41.6716 31.3925C38.6773 30.3609 42.9698 27.9205 44.6244 31.0031L44.6227 31.0014Z" fill="#153300"/>
<path d="M52.2989 27.3337C47.8939 26.2952 44.5361 30.7175 45.6542 34.643C46.8467 38.8299 51.9579 39.9256 54.9765 35.6417L52.6641 34.5946C52.6641 34.5946 51.5702 35.9585 50.2063 35.9585C49.0137 35.9585 48.4287 35.01 48.356 33.5976H55.4628C55.4628 33.5976 56.4806 28.3203 52.2989 27.3337ZM48.5014 31.5518L48.6624 31.1312C49.0311 30.1637 49.9813 29.5457 51.0146 29.6011H51.0354C52.0704 29.6583 52.8822 30.515 52.8822 31.5518H48.5014Z" fill="#153300"/>
</g>
<defs>
<linearGradient id="paint0_linear_2271_2333" x1="6.01485" y1="-2.76395" x2="69.5364" y2="90.7876" gradientUnits="userSpaceOnUse">
<stop offset="0.296335" stop-color="#9EE76F"/>
<stop offset="1" stop-color="#83C857"/>
</linearGradient>
<clipPath id="clip0_2271_2333">
<rect width="48.6918" height="11.1881" fill="white" transform="translate(6.88025 27.1796)"/>
</clipPath>
</defs>
</svg>
