<svg width="63" height="63" viewBox="0 0 63 63" fill="none" xmlns="http://www.w3.org/2000/svg">
<g clip-path="url(#clip0_2271_1571)">
<path d="M62.6695 31.4342C62.6695 14.3711 48.8372 0.538818 31.7741 0.538818C14.7111 0.538818 0.878784 14.3711 0.878784 31.4342C0.878784 48.4972 14.7111 62.3295 31.7741 62.3295C48.8372 62.3295 62.6695 48.4972 62.6695 31.4342Z" fill="url(#paint0_linear_2271_1571)"/>
<path d="M14.7254 22.8666L20.7099 41.2134H24.9373V22.8666H14.7254Z" fill="white"/>
<path d="M37.3993 19.2319C30.5162 19.2319 24.9373 24.8118 24.9373 31.6939C24.9373 38.5761 30.5172 44.1559 37.3993 44.1559C44.2815 44.1559 49.8613 38.5761 49.8613 31.6939C49.8613 24.8118 44.2815 19.2319 37.3993 19.2319ZM37.605 36.4217C34.9937 36.4217 32.8772 34.3052 32.8772 31.6939C32.8772 29.0827 34.9937 26.9662 37.605 26.9662C40.2162 26.9662 42.3327 29.0827 42.3327 31.6939C42.3327 34.3052 40.2162 36.4217 37.605 36.4217Z" fill="white"/>
</g>
<defs>
<linearGradient id="paint0_linear_2271_1571" x1="12.5972" y1="0.53882" x2="91.834" y2="102.312" gradientUnits="userSpaceOnUse">
<stop stop-color="#8B3EFE"/>
<stop offset="0.691377" stop-color="#532598"/>
</linearGradient>
<clipPath id="clip0_2271_1571">
<rect width="61.7907" height="61.7907" fill="white" transform="translate(0.878662 0.538818)"/>
</clipPath>
</defs>
</svg>
