<svg xmlns="http://www.w3.org/2000/svg" xmlns:xlink="http://www.w3.org/1999/xlink" viewBox="0 0 512 512" width="512" height="512" style="width: 100%; height: 100%; transform: translate3d(0,0,0); content-visibility: visible;" preserveAspectRatio="xMidYMid meet"><defs><clipPath id="__lottie_element_2"><rect width="512" height="512" x="0" y="0"></rect></clipPath><linearGradient id="__lottie_element_6" spreadMethod="pad" gradientUnits="userSpaceOnUse" x1="152" y1="211.5" x2="151.75" y2="194.75"><stop offset="0%" stop-color="rgb(38,39,40)"></stop><stop offset="51%" stop-color="rgb(30,31,32)"></stop><stop offset="100%" stop-color="rgb(22,23,25)"></stop></linearGradient><linearGradient id="__lottie_element_7" spreadMethod="pad" gradientUnits="userSpaceOnUse" x1="141" y1="136" x2="127" y2="154.75"><stop offset="0%" stop-color="rgb(22,23,23)"></stop><stop offset="13%" stop-color="rgb(46,46,46)"></stop><stop offset="34%" stop-color="rgb(70,70,70)"></stop><stop offset="69%" stop-color="rgb(46,46,46)"></stop><stop offset="92%" stop-color="rgb(22,23,23)"></stop></linearGradient><linearGradient id="__lottie_element_8" spreadMethod="pad" gradientUnits="userSpaceOnUse" x1="196.125" y1="200.25" x2="208.75" y2="209.625"><stop offset="0%" stop-color="rgb(0,0,0)"></stop><stop offset="37%" stop-color="rgb(0,0,0)"></stop><stop offset="100%" stop-color="rgb(0,0,0)"></stop></linearGradient><mask id="__lottie_element_10"><path fill="url(#__lottie_element_9)" d=" M202.93800354003906,192.875 C203.18800354003906,193 199.81300354003906,204.125 189.68800354003906,208.125 C194.31300354003906,213.25 203.87600708007812,215.28199768066406 208.43800354003906,209.625 C211.56300354003906,205.75 213.18800354003906,198.375 202.93800354003906,192.875z"></path></mask><linearGradient id="__lottie_element_9" spreadMethod="pad" gradientUnits="userSpaceOnUse" x1="196.125" y1="200.25" x2="208.75" y2="209.625"><stop stop-color="rgb(255,255,255)" offset="0%" stop-opacity="0"></stop><stop stop-color="rgb(255,255,255)" offset="39%" stop-opacity="0.5"></stop><stop stop-color="rgb(255,255,255)" offset="100%" stop-opacity="1"></stop></linearGradient><radialGradient id="__lottie_element_11" spreadMethod="pad" gradientUnits="userSpaceOnUse" cx="166" cy="142.25" r="66.2872536767062" fx="166" fy="142.25"><stop offset="0%" stop-color="rgb(255,255,255)"></stop><stop offset="37%" stop-color="rgb(255,255,255)"></stop><stop offset="100%" stop-color="rgb(255,255,255)"></stop></radialGradient><mask id="__lottie_element_13"><path fill="url(#__lottie_element_12)" d=" M109.18800354003906,114.25 C108.93800354003906,114.75 105.43800354003906,118 105.43800354003906,118.25 C202.93800354003906,195.25 209.18800354003906,199.5 210.43800354003906,206.375 C214.06300354003906,195.75 201.18800354003906,193 109.18800354003906,114.25z"></path></mask><radialGradient id="__lottie_element_12" spreadMethod="pad" gradientUnits="userSpaceOnUse" cx="166" cy="142.25" r="66.2872536767062" fx="166" fy="142.25"><stop stop-color="rgb(255,255,255)" offset="0%" stop-opacity="1"></stop><stop stop-color="rgb(255,255,255)" offset="39%" stop-opacity="0.5"></stop><stop stop-color="rgb(255,255,255)" offset="100%" stop-opacity="0"></stop></radialGradient><radialGradient id="__lottie_element_14" spreadMethod="pad" gradientUnits="userSpaceOnUse" cx="133.75" cy="173.75" r="68.03032412093889" fx="133.75" fy="173.75"><stop offset="0%" stop-color="rgb(255,255,255)"></stop><stop offset="37%" stop-color="rgb(255,255,255)"></stop><stop offset="100%" stop-color="rgb(255,255,255)"></stop></radialGradient><mask id="__lottie_element_16"><path fill="url(#__lottie_element_15)" d=" M84.56300354003906,133.125 C83.49099731445312,132.43499755859375 82.93800354003906,137.75 83.18800354003906,137.75 C178.56300354003906,198.125 196.81300354003906,220.25 206.43800354003906,211.125 C203.43800354003906,220.125 149.18800354003906,174.75 84.56300354003906,133.125z"></path></mask><radialGradient id="__lottie_element_15" spreadMethod="pad" gradientUnits="userSpaceOnUse" cx="133.75" cy="173.75" r="68.03032412093889" fx="133.75" fy="173.75"><stop stop-color="rgb(255,255,255)" offset="0%" stop-opacity="1"></stop><stop stop-color="rgb(255,255,255)" offset="39%" stop-opacity="0.5"></stop><stop stop-color="rgb(255,255,255)" offset="100%" stop-opacity="0"></stop></radialGradient><radialGradient id="__lottie_element_17" spreadMethod="pad" gradientUnits="userSpaceOnUse" cx="83" cy="99" r="38.1526539050693" fx="83" fy="99"><stop offset="0%" stop-color="rgb(74,76,77)"></stop><stop offset="0%" stop-color="rgb(83,85,87)"></stop><stop offset="0%" stop-color="rgb(93,94,96)"></stop><stop offset="50%" stop-color="rgb(61,63,65)"></stop><stop offset="100%" stop-color="rgb(29,31,34)"></stop></radialGradient><linearGradient id="__lottie_element_18" spreadMethod="pad" gradientUnits="userSpaceOnUse" x1="146.75" y1="165.75" x2="156.625" y2="152.5"><stop offset="0%" stop-color="rgb(42,43,45)"></stop><stop offset="26%" stop-color="rgb(86,88,90)"></stop><stop offset="51%" stop-color="rgb(131,134,134)"></stop><stop offset="76%" stop-color="rgb(86,88,90)"></stop><stop offset="100%" stop-color="rgb(42,43,45)"></stop></linearGradient><linearGradient id="__lottie_element_19" spreadMethod="pad" gradientUnits="userSpaceOnUse" x1="112.875" y1="111.125" x2="91.875" y2="138.75"><stop offset="0%" stop-color="rgb(67,68,70)"></stop><stop offset="9%" stop-color="rgb(99,101,102)"></stop><stop offset="46%" stop-color="rgb(131,134,134)"></stop><stop offset="62%" stop-color="rgb(99,101,102)"></stop><stop offset="74%" stop-color="rgb(67,68,70)"></stop></linearGradient><linearGradient id="__lottie_element_23" spreadMethod="pad" gradientUnits="userSpaceOnUse" x1="-89.5" y1="-128.5" x2="-93.5" y2="28.5"><stop offset="0%" stop-color="rgb(249,129,229)"></stop><stop offset="50%" stop-color="rgb(215,103,191)"></stop><stop offset="100%" stop-color="rgb(181,76,153)"></stop></linearGradient><linearGradient id="__lottie_element_24" spreadMethod="pad" gradientUnits="userSpaceOnUse" x1="-61" y1="-133.5" x2="-130" y2="26"><stop offset="0%" stop-color="rgb(137,37,102)"></stop><stop offset="8%" stop-color="rgb(140,41,105)"></stop><stop offset="23%" stop-color="rgb(143,44,108)"></stop><stop offset="74%" stop-color="rgb(140,41,105)"></stop><stop offset="100%" stop-color="rgb(137,37,102)"></stop></linearGradient><mask id="__lottie_element_26"><path fill="url(#__lottie_element_25)" d=" M-80.5,-158 C-145.62399291992188,-122.33699798583984 -116.5,17.5 -76.5,80 C-77.5,69.5 -117.5,-4.25 -77.5,-91.25 C-78.25,-91 -103,-61 -101.25,-10.25 C-112,-57.75 -114.75,-125 -81.25,-146.75 C-75.60399627685547,-150.41600036621094 -74.28399658203125,-140.99600219726562 -57.75,-126.25 C-48.5,-118 -77,-86.75 -73.25,-67.25 C-68,-76.5 -39.25,-127.25 -39.75,-132.5 C-41.755001068115234,-153.55299377441406 -59.5,-169.5 -80.5,-158z"></path></mask><linearGradient id="__lottie_element_25" spreadMethod="pad" gradientUnits="userSpaceOnUse" x1="-61" y1="-133.5" x2="-130" y2="26"><stop stop-color="rgb(255,255,255)" offset="0%" stop-opacity="1"></stop><stop stop-color="rgb(255,255,255)" offset="9%" stop-opacity="0.6000000238418579"></stop><stop stop-color="rgb(255,255,255)" offset="23%" stop-opacity="0.20000000298023224"></stop><stop stop-color="rgb(255,255,255)" offset="74%" stop-opacity="0.6000000238418579"></stop><stop stop-color="rgb(255,255,255)" offset="100%" stop-opacity="1"></stop></linearGradient><linearGradient id="__lottie_element_27" spreadMethod="pad" gradientUnits="userSpaceOnUse" x1="-66" y1="-145" x2="-104.5" y2="-52"><stop offset="0%" stop-color="rgb(247,176,246)" stop-opacity="1"></stop><stop offset="50%" stop-color="rgb(247,176,246)" stop-opacity="0.5"></stop><stop offset="100%" stop-color="rgb(247,176,246)" stop-opacity="0"></stop></linearGradient><linearGradient id="__lottie_element_28" spreadMethod="pad" gradientUnits="userSpaceOnUse" x1="26" y1="-142" x2="28.5" y2="32"><stop offset="0%" stop-color="rgb(249,129,229)"></stop><stop offset="50%" stop-color="rgb(215,103,191)"></stop><stop offset="100%" stop-color="rgb(181,76,153)"></stop></linearGradient><linearGradient id="__lottie_element_29" spreadMethod="pad" gradientUnits="userSpaceOnUse" x1="-12" y1="-56.5" x2="-11.5" y2="-210.5"><stop offset="0%" stop-color="rgb(143,44,108)" stop-opacity="0"></stop><stop offset="50%" stop-color="rgb(143,44,108)" stop-opacity="0.5"></stop><stop offset="100%" stop-color="rgb(143,44,108)" stop-opacity="1"></stop></linearGradient><radialGradient id="__lottie_element_30" spreadMethod="pad" gradientUnits="userSpaceOnUse" cx="10" cy="-118.5" r="142.12670403551894" fx="10" fy="-118.5"><stop offset="0%" stop-color="rgb(247,176,246)" stop-opacity="1"></stop><stop offset="48%" stop-color="rgb(247,176,246)" stop-opacity="0.5"></stop><stop offset="96%" stop-color="rgb(247,176,246)" stop-opacity="0"></stop><stop offset="97%" stop-color="rgb(247,176,246)" stop-opacity="0"></stop><stop offset="100%" stop-color="rgb(247,176,246)" stop-opacity="0"></stop></radialGradient><radialGradient id="__lottie_element_34" spreadMethod="pad" gradientUnits="userSpaceOnUse" cx="-2.6760001182556152" cy="130.71099853515625" r="42.440736384479386" fx="-2.6760001182556152" fy="130.71099853515625"><stop offset="8%" stop-color="rgb(117,55,14)" stop-opacity="1"></stop><stop offset="54%" stop-color="rgb(117,55,14)" stop-opacity="0.5"></stop><stop offset="100%" stop-color="rgb(117,55,14)" stop-opacity="0"></stop></radialGradient><linearGradient id="__lottie_element_41" spreadMethod="pad" gradientUnits="userSpaceOnUse" x1="-3.1760001182556152" y1="85.71099853515625" x2="-2.3010001182556152" y2="116.6709976196289"><stop offset="0%" stop-color="rgb(255,168,0)" stop-opacity="1"></stop><stop offset="65%" stop-color="rgb(255,168,0)" stop-opacity="0.5"></stop><stop offset="100%" stop-color="rgb(255,168,0)" stop-opacity="0"></stop></linearGradient><linearGradient id="__lottie_element_42" spreadMethod="pad" gradientUnits="userSpaceOnUse" x1="-2.0510001182556152" y1="103.96099853515625" x2="-2.9260001182556152" y2="80.63999938964844"><stop offset="10%" stop-color="rgb(219,110,0)" stop-opacity="1"></stop><stop offset="49%" stop-color="rgb(219,110,0)" stop-opacity="0.5"></stop><stop offset="78%" stop-color="rgb(219,110,0)" stop-opacity="0"></stop></linearGradient><radialGradient id="__lottie_element_43" spreadMethod="pad" gradientUnits="userSpaceOnUse" cx="-3.9260001182556152" cy="73.96099853515625" r="22.90700101852417" fx="-3.9260001182556152" fy="73.96099853515625"><stop offset="40%" stop-color="rgb(255,168,0)" stop-opacity="0"></stop><stop offset="70%" stop-color="rgb(255,168,0)" stop-opacity="0.5"></stop><stop offset="100%" stop-color="rgb(255,168,0)" stop-opacity="1"></stop></radialGradient><linearGradient id="__lottie_element_44" spreadMethod="pad" gradientUnits="userSpaceOnUse" x1="-2.9260001182556152" y1="71.96099853515625" x2="-2.9260001182556152" y2="82.61699676513672"><stop offset="0%" stop-color="rgb(255,255,254)" stop-opacity="1"></stop><stop offset="50%" stop-color="rgb(255,255,254)" stop-opacity="0.5"></stop><stop offset="100%" stop-color="rgb(255,255,254)" stop-opacity="0"></stop></linearGradient><linearGradient id="__lottie_element_48" spreadMethod="pad" gradientUnits="userSpaceOnUse" x1="-80.73799896240234" y1="10.89900016784668" x2="-61.7130012512207" y2="39.979000091552734"><stop offset="0%" stop-color="rgb(66,0,0)"></stop><stop offset="37%" stop-color="rgb(118,40,0)"></stop><stop offset="100%" stop-color="rgb(170,80,0)"></stop></linearGradient><radialGradient id="__lottie_element_49" spreadMethod="pad" gradientUnits="userSpaceOnUse" cx="-63.92599868774414" cy="33.96099853515625" r="12.805999755859375" fx="-63.92599868774414" fy="33.96099853515625"><stop offset="0%" stop-color="rgb(246,175,0)" stop-opacity="1"></stop><stop offset="50%" stop-color="rgb(246,175,0)" stop-opacity="0.5"></stop><stop offset="100%" stop-color="rgb(246,175,0)" stop-opacity="0"></stop></radialGradient><linearGradient id="__lottie_element_50" spreadMethod="pad" gradientUnits="userSpaceOnUse" x1="-82.9260025024414" y1="0.9610000252723694" x2="-82.9260025024414" y2="11.782999992370605"><stop offset="0%" stop-color="rgb(255,255,255)" stop-opacity="1"></stop><stop offset="60%" stop-color="rgb(255,255,255)" stop-opacity="0.5"></stop><stop offset="100%" stop-color="rgb(255,255,255)" stop-opacity="0"></stop></linearGradient><linearGradient id="__lottie_element_51" spreadMethod="pad" gradientUnits="userSpaceOnUse" x1="-80.73799896240234" y1="10.89900016784668" x2="-61.7130012512207" y2="39.979000091552734"><stop offset="0%" stop-color="rgb(66,0,0)"></stop><stop offset="37%" stop-color="rgb(118,40,0)"></stop><stop offset="100%" stop-color="rgb(170,80,0)"></stop></linearGradient><radialGradient id="__lottie_element_52" spreadMethod="pad" gradientUnits="userSpaceOnUse" cx="-63.92599868774414" cy="33.96099853515625" r="12.805999755859375" fx="-63.92599868774414" fy="33.96099853515625"><stop offset="0%" stop-color="rgb(246,175,0)" stop-opacity="1"></stop><stop offset="50%" stop-color="rgb(246,175,0)" stop-opacity="0.5"></stop><stop offset="100%" stop-color="rgb(246,175,0)" stop-opacity="0"></stop></radialGradient><linearGradient id="__lottie_element_53" spreadMethod="pad" gradientUnits="userSpaceOnUse" x1="-82.9260025024414" y1="0.9610000252723694" x2="-82.9260025024414" y2="11.782999992370605"><stop offset="0%" stop-color="rgb(255,255,255)" stop-opacity="1"></stop><stop offset="60%" stop-color="rgb(255,255,255)" stop-opacity="0.5"></stop><stop offset="100%" stop-color="rgb(255,255,255)" stop-opacity="0"></stop></linearGradient><linearGradient id="__lottie_element_57" spreadMethod="pad" gradientUnits="userSpaceOnUse" x1="-2" y1="-90.5" x2="-87" y2="36.5"><stop offset="0%" stop-color="rgb(44,82,85)"></stop><stop offset="6%" stop-color="rgb(82,135,139)"></stop><stop offset="50%" stop-color="rgb(119,189,194)"></stop><stop offset="94%" stop-color="rgb(83,158,178)"></stop><stop offset="100%" stop-color="rgb(46,127,163)"></stop></linearGradient><linearGradient id="__lottie_element_58" spreadMethod="pad" gradientUnits="userSpaceOnUse" x1="-80.5" y1="40.5" x2="-2" y2="-86"><stop offset="0%" stop-color="rgb(157,16,115)"></stop><stop offset="6%" stop-color="rgb(181,34,147)"></stop><stop offset="50%" stop-color="rgb(205,53,179)"></stop><stop offset="94%" stop-color="rgb(173,39,131)"></stop><stop offset="100%" stop-color="rgb(141,24,83)"></stop></linearGradient><linearGradient id="__lottie_element_62" spreadMethod="pad" gradientUnits="userSpaceOnUse" x1="-3.6760001182556152" y1="-115.78900146484375" x2="-0.9259999990463257" y2="16.527000427246094"><stop offset="0%" stop-color="rgb(219,110,0)" stop-opacity="1"></stop><stop offset="38%" stop-color="rgb(219,110,0)" stop-opacity="0.5"></stop><stop offset="70%" stop-color="rgb(219,110,0)" stop-opacity="0"></stop></linearGradient><linearGradient id="__lottie_element_63" spreadMethod="pad" gradientUnits="userSpaceOnUse" x1="-8.925999641418457" y1="-86.53900146484375" x2="-4.426000118255615" y2="151.72300720214844"><stop offset="0%" stop-color="rgb(255,216,0)" stop-opacity="0"></stop><stop offset="14%" stop-color="rgb(255,216,0)" stop-opacity="0.5"></stop><stop offset="45%" stop-color="rgb(255,216,0)" stop-opacity="1"></stop><stop offset="90%" stop-color="rgb(255,216,0)" stop-opacity="0.5"></stop><stop offset="100%" stop-color="rgb(255,216,0)" stop-opacity="0"></stop></linearGradient><linearGradient id="__lottie_element_67" spreadMethod="pad" gradientUnits="userSpaceOnUse" x1="4.5" y1="133" x2="5.5" y2="220.5"><stop offset="0%" stop-color="rgb(124,70,138)"></stop><stop offset="25%" stop-color="rgb(163,98,172)"></stop><stop offset="49%" stop-color="rgb(202,125,207)"></stop><stop offset="89%" stop-color="rgb(195,117,200)"></stop><stop offset="100%" stop-color="rgb(187,109,193)"></stop></linearGradient><linearGradient id="__lottie_element_68" spreadMethod="pad" gradientUnits="userSpaceOnUse" x1="-163.5" y1="123.5" x2="-135.5" y2="228"><stop offset="0%" stop-color="rgb(58,109,131)"></stop><stop offset="22%" stop-color="rgb(43,143,177)"></stop><stop offset="51%" stop-color="rgb(27,177,223)"></stop><stop offset="78%" stop-color="rgb(39,164,212)"></stop><stop offset="100%" stop-color="rgb(50,151,201)"></stop></linearGradient><linearGradient id="__lottie_element_69" spreadMethod="pad" gradientUnits="userSpaceOnUse" x1="184.5" y1="129.5" x2="142.5" y2="230"><stop offset="0%" stop-color="rgb(58,109,131)"></stop><stop offset="22%" stop-color="rgb(43,143,177)"></stop><stop offset="51%" stop-color="rgb(27,177,223)"></stop><stop offset="78%" stop-color="rgb(39,164,212)"></stop><stop offset="100%" stop-color="rgb(50,151,201)"></stop></linearGradient><linearGradient id="__lottie_element_70" spreadMethod="pad" gradientUnits="userSpaceOnUse" x1="29" y1="149.5" x2="26.5" y2="216.5"><stop offset="0%" stop-color="rgb(30,71,111)"></stop><stop offset="50%" stop-color="rgb(34,108,146)"></stop><stop offset="100%" stop-color="rgb(39,144,181)"></stop></linearGradient><radialGradient id="__lottie_element_71" spreadMethod="pad" gradientUnits="userSpaceOnUse" cx="-119" cy="130" r="84.59905436823747" fx="-119" fy="130"><stop offset="0%" stop-color="rgb(255,255,255)"></stop><stop offset="31%" stop-color="rgb(255,255,255)"></stop><stop offset="100%" stop-color="rgb(255,255,255)"></stop></radialGradient><mask id="__lottie_element_73"><path fill="url(#__lottie_element_72)" d=" M-48.75,126.5 C-101,128 -162.5,143.6020050048828 -162.5,148.75 C-162.5,150.25 -159.25,157.75 -158.75,158 C-145.5,149.5 -83.75,140.75 -38.25,134 C-32.22800064086914,133.10699462890625 -43.54999923706055,126.35099792480469 -48.75,126.5z"></path></mask><radialGradient id="__lottie_element_72" spreadMethod="pad" gradientUnits="userSpaceOnUse" cx="-119" cy="130" r="84.59905436823747" fx="-119" fy="130"><stop stop-color="rgb(255,255,255)" offset="0%" stop-opacity="1"></stop><stop stop-color="rgb(255,255,255)" offset="32%" stop-opacity="0.5"></stop><stop stop-color="rgb(255,255,255)" offset="100%" stop-opacity="0"></stop></radialGradient><radialGradient id="__lottie_element_74" spreadMethod="pad" gradientUnits="userSpaceOnUse" cx="134.5" cy="128.5" r="77.47257579298626" fx="134.5" fy="128.5"><stop offset="0%" stop-color="rgb(255,255,255)"></stop><stop offset="31%" stop-color="rgb(255,255,255)"></stop><stop offset="100%" stop-color="rgb(255,255,255)"></stop></radialGradient><mask id="__lottie_element_76"><path fill="url(#__lottie_element_75)" d=" M78,126.75 C77.75,126.75 61.483001708984375,133.7530059814453 74.75,135.75 C98,139.25 167,152.25 174.25,157.75 C174.5,157.25 180.13600158691406,148.77200317382812 179,148.25 C136,128.5 90.75,130 78,126.75z"></path></mask><radialGradient id="__lottie_element_75" spreadMethod="pad" gradientUnits="userSpaceOnUse" cx="134.5" cy="128.5" r="77.47257579298626" fx="134.5" fy="128.5"><stop stop-color="rgb(255,255,255)" offset="0%" stop-opacity="1"></stop><stop stop-color="rgb(255,255,255)" offset="32%" stop-opacity="0.5"></stop><stop stop-color="rgb(255,255,255)" offset="100%" stop-opacity="0"></stop></radialGradient><linearGradient id="__lottie_element_77" spreadMethod="pad" gradientUnits="userSpaceOnUse" x1="95.5" y1="133" x2="103.5" y2="162"><stop offset="0%" stop-color="rgb(84,43,87)"></stop><stop offset="43%" stop-color="rgb(84,43,87)"></stop><stop offset="100%" stop-color="rgb(84,43,87)"></stop></linearGradient><mask id="__lottie_element_79"><path fill="url(#__lottie_element_78)" d=" M73.5,128 C59,124 4.5,205 8,213.5 C15,223 162.5,167 177,148 C169.5,137 85.5,126 73.5,128z"></path></mask><linearGradient id="__lottie_element_78" spreadMethod="pad" gradientUnits="userSpaceOnUse" x1="95.5" y1="133" x2="103.5" y2="162"><stop stop-color="rgb(255,255,255)" offset="0%" stop-opacity="1"></stop><stop stop-color="rgb(255,255,255)" offset="47%" stop-opacity="0.5"></stop><stop stop-color="rgb(255,255,255)" offset="100%" stop-opacity="0"></stop></linearGradient><linearGradient id="__lottie_element_80" spreadMethod="pad" gradientUnits="userSpaceOnUse" x1="-100" y1="134.25" x2="-105.75" y2="157"><stop offset="0%" stop-color="rgb(84,43,87)"></stop><stop offset="43%" stop-color="rgb(84,43,87)"></stop><stop offset="100%" stop-color="rgb(84,43,87)"></stop></linearGradient><mask id="__lottie_element_82"><path fill="url(#__lottie_element_81)" d=" M7,216 C-8.5,215.5 -120,169.5 -164.5,147 C-143,140 -105.53500366210938,129.19900512695312 -47.750999450683594,126.2229995727539 C10.5,214.25 -4,191 7,216z"></path></mask><linearGradient id="__lottie_element_81" spreadMethod="pad" gradientUnits="userSpaceOnUse" x1="-100" y1="134.25" x2="-105.75" y2="157"><stop stop-color="rgb(255,255,255)" offset="0%" stop-opacity="1"></stop><stop stop-color="rgb(255,255,255)" offset="47%" stop-opacity="0.5"></stop><stop stop-color="rgb(255,255,255)" offset="100%" stop-opacity="0"></stop></linearGradient><linearGradient id="__lottie_element_83" spreadMethod="pad" gradientUnits="userSpaceOnUse" x1="0" y1="0" x2="100" y2="0"><stop offset="0%" stop-color="rgb(58,109,131)"></stop><stop offset="22%" stop-color="rgb(43,143,177)"></stop><stop offset="51%" stop-color="rgb(27,177,223)"></stop><stop offset="78%" stop-color="rgb(39,164,212)"></stop><stop offset="100%" stop-color="rgb(50,151,201)"></stop></linearGradient><linearGradient id="__lottie_element_84" spreadMethod="pad" gradientUnits="userSpaceOnUse" x1="-75" y1="107.5" x2="-9" y2="172"><stop offset="0%" stop-color="rgb(22,96,103)" stop-opacity="0"></stop><stop offset="50%" stop-color="rgb(22,96,103)" stop-opacity="0.5"></stop><stop offset="100%" stop-color="rgb(22,96,103)" stop-opacity="1"></stop></linearGradient><linearGradient id="__lottie_element_85" spreadMethod="pad" gradientUnits="userSpaceOnUse" x1="90" y1="109.5" x2="29.5" y2="174"><stop offset="0%" stop-color="rgb(22,96,103)" stop-opacity="0"></stop><stop offset="50%" stop-color="rgb(22,96,103)" stop-opacity="0.5"></stop><stop offset="100%" stop-color="rgb(22,96,103)" stop-opacity="1"></stop></linearGradient><radialGradient id="__lottie_element_86" spreadMethod="pad" gradientUnits="userSpaceOnUse" cx="6.5" cy="201.5" r="80.50155278005512" fx="6.5" fy="201.5"><stop offset="0%" stop-color="rgb(147,90,137)"></stop><stop offset="50%" stop-color="rgb(186,108,180)"></stop><stop offset="100%" stop-color="rgb(226,126,222)"></stop></radialGradient><linearGradient id="__lottie_element_87" spreadMethod="pad" gradientUnits="userSpaceOnUse" x1="0" y1="0" x2="100" y2="0"><stop offset="0%" stop-color="rgb(35,20,65)"></stop><stop offset="51%" stop-color="rgb(35,20,65)"></stop><stop offset="100%" stop-color="rgb(35,20,65)"></stop></linearGradient><mask id="__lottie_element_89"><path fill="url(#__lottie_element_88)" d=" M-81.75,70.5 C-88.625,71.75 -94.125,76.625 -94.25,76.375 C-87.25,93.375 -61,115.5 -56.875,110.875 C-53.74300003051758,107.36299896240234 -71.125,99.75 -81.75,70.5z"></path></mask><linearGradient id="__lottie_element_88" spreadMethod="pad" gradientUnits="userSpaceOnUse" x1="0" y1="0" x2="100" y2="0"><stop stop-color="rgb(255,255,255)" offset="0%" stop-opacity="1"></stop><stop stop-color="rgb(255,255,255)" offset="49%" stop-opacity="0.5"></stop><stop stop-color="rgb(255,255,255)" offset="100%" stop-opacity="0"></stop></linearGradient><linearGradient id="__lottie_element_93" spreadMethod="pad" gradientUnits="userSpaceOnUse" x1="0" y1="142.64700317382812" x2="0.9800000190734863" y2="178.43099975585938"><stop offset="0%" stop-color="rgb(255,216,0)" stop-opacity="1"></stop><stop offset="50%" stop-color="rgb(255,216,0)" stop-opacity="0.5"></stop><stop offset="100%" stop-color="rgb(255,216,0)" stop-opacity="0"></stop></linearGradient><radialGradient id="__lottie_element_94" spreadMethod="pad" gradientUnits="userSpaceOnUse" cx="-1.4709999561309814" cy="65.19599914550781" r="53.92422646838295" fx="-1.4709999561309814" fy="65.19599914550781"><stop offset="27%" stop-color="rgb(181,102,6)"></stop><stop offset="82%" stop-color="rgb(181,102,6)"></stop><stop offset="100%" stop-color="rgb(181,102,6)"></stop></radialGradient><mask id="__lottie_element_96"><path fill="url(#__lottie_element_95)" d=" M38.58599853515625,78.58499908447266 C38.58599853515625,78.58499908447266 -41.566001892089844,78.58499908447266 -41.566001892089844,78.58499908447266 C-41.566001892089844,78.58499908447266 -32.12799835205078,125.24500274658203 -67.06199645996094,127.8010025024414 C-71.83399963378906,215.4409942626953 48.26499938964844,256.6180114746094 60.6510009765625,128.78199768066406 C31.597999572753906,127.20600128173828 38.58599853515625,78.58499908447266 38.58599853515625,78.58499908447266z"></path></mask><radialGradient id="__lottie_element_95" spreadMethod="pad" gradientUnits="userSpaceOnUse" cx="-1.4709999561309814" cy="65.19599914550781" r="53.92422646838295" fx="-1.4709999561309814" fy="65.19599914550781"><stop stop-color="rgb(255,255,255)" offset="29%" stop-opacity="1"></stop><stop stop-color="rgb(255,255,255)" offset="82%" stop-opacity="0.5"></stop><stop stop-color="rgb(255,255,255)" offset="100%" stop-opacity="0"></stop></radialGradient><radialGradient id="__lottie_element_97" spreadMethod="pad" gradientUnits="userSpaceOnUse" cx="-1.5420000553131104" cy="109.23300170898438" r="66.90714796713634" fx="-1.5420000553131104" fy="109.23300170898438"><stop offset="20%" stop-color="rgb(255,168,0)" stop-opacity="1"></stop><stop offset="68%" stop-color="rgb(255,168,0)" stop-opacity="0.5"></stop><stop offset="100%" stop-color="rgb(255,168,0)" stop-opacity="0"></stop></radialGradient><linearGradient id="__lottie_element_101" spreadMethod="pad" gradientUnits="userSpaceOnUse" x1="30.25" y1="60.25" x2="80.5" y2="97.25"><stop offset="0%" stop-color="rgb(8,52,70)"></stop><stop offset="85%" stop-color="rgb(41,132,154)"></stop><stop offset="100%" stop-color="rgb(74,211,237)"></stop></linearGradient><linearGradient id="__lottie_element_102" spreadMethod="pad" gradientUnits="userSpaceOnUse" x1="-9.25" y1="55.75" x2="-65.25" y2="103"><stop offset="0%" stop-color="rgb(8,52,70)"></stop><stop offset="85%" stop-color="rgb(41,132,154)"></stop><stop offset="100%" stop-color="rgb(74,211,237)"></stop></linearGradient><linearGradient id="__lottie_element_103" spreadMethod="pad" gradientUnits="userSpaceOnUse" x1="-83" y1="84.25" x2="95.25" y2="81.5"><stop offset="0%" stop-color="rgb(226,126,222)"></stop><stop offset="0%" stop-color="rgb(226,126,222)"></stop><stop offset="0%" stop-color="rgb(226,126,222)"></stop><stop offset="6%" stop-color="rgb(151,87,159)"></stop><stop offset="50%" stop-color="rgb(77,49,97)"></stop><stop offset="92%" stop-color="rgb(151,87,159)"></stop><stop offset="100%" stop-color="rgb(226,126,222)"></stop></linearGradient><linearGradient id="__lottie_element_107" spreadMethod="pad" gradientUnits="userSpaceOnUse" x1="83" y1="25.5" x2="88.5" y2="276.5"><stop offset="0%" stop-color="rgb(126,41,94)"></stop><stop offset="50%" stop-color="rgb(187,85,161)"></stop><stop offset="100%" stop-color="rgb(249,129,229)"></stop></linearGradient></defs><g clip-path="url(#__lottie_element_2)"><g style="display: block;" transform="matrix(1,0,0,1,256,256)" opacity="1"><g opacity="1" transform="matrix(1,0,0,1,0,0)"><path fill="url(#__lottie_element_107)" fill-opacity="1" d=" M101,-27.5 C98.177001953125,-55.375 -106.78600311279297,-60.88399887084961 -104,-28.5 C-100,18 -113,64 -126.5,84.5 C-115.5,85 -105,74 -104.5,73 C-104.5,73.5 -107.5,85.5 -111,100.5 C-98.5,96.5 -80,82 -80,82 C-80.5,83.5 -75.5,98 -73.5,108 C-27.5,101 -12,53.5 5.5,52 C20,53.5 52,105 96.5,103.5 C93,93 92,70 93,70 C92.5,70 101,84 124.5,93 C115.5,81.5 112,68 113,67.5 C112.5,67.5 127,77.5 133,78 C116,47.5 105,12 101,-27.5z"></path><path stroke-linecap="round" stroke-linejoin="round" fill-opacity="0" stroke="rgb(119,41,92)" stroke-opacity="1" stroke-width="8" d=" M101,-27.5 C98.177001953125,-55.375 -106.78600311279297,-60.88399887084961 -104,-28.5 C-100,18 -113,64 -126.5,84.5 C-115.5,85 -105,74 -104.5,73 C-104.5,73.5 -107.5,85.5 -111,100.5 C-98.5,96.5 -80,82 -80,82 C-80.5,83.5 -75.5,98 -73.5,108 C-27.5,101 -12,53.5 5.5,52 C20,53.5 52,105 96.5,103.5 C93,93 92,70 93,70 C92.5,70 101,84 124.5,93 C115.5,81.5 112,68 113,67.5 C112.5,67.5 127,77.5 133,78 C116,47.5 105,12 101,-27.5z"></path></g></g><g style="display: block;" transform="matrix(1,0,0,1,256,256)" opacity="1"><g opacity="1" transform="matrix(1,0,0,1,0,0)"><path fill="url(#__lottie_element_101)" fill-opacity="1" d=" M0,58 C-44,235.5 72.25,168.75 99.75,75.25 C58,61.75 17.25,55 0,58z"></path></g><g opacity="1" transform="matrix(1,0,0,1,0,0)"><path fill="url(#__lottie_element_102)" fill-opacity="1" d=" M10.25,58.25 C-27.25,58.75 -83.5,70 -86.75,77.25 C-38.75,193.25 40.5,211 10.25,58.25z"></path></g><g opacity="1" transform="matrix(1,0,0,1,0,0)"><path fill="url(#__lottie_element_103)" fill-opacity="1" d=" M-98.5,84.75 C-106.5739974975586,90.16999816894531 -97.9540023803711,93.59200286865234 -91.5,90 C-36.25,59.25 46.5,58.25 99.75,85.75 C118.80799865722656,95.59200286865234 112.76000213623047,86.60399627685547 107.5,82.25 C62.5,45 -44.5,48.5 -98.5,84.75z"></path></g><g opacity="1" transform="matrix(1,0,0,1,0,0)"><path stroke-linecap="round" stroke-linejoin="miter" fill-opacity="0" stroke-miterlimit="4" stroke="rgb(99,53,103)" stroke-opacity="1" stroke-width="8" d=" M-87.625,77.09400177001953 C-42.875,52.59400177001953 51.75,46.875 99.5,75.5"></path></g></g><g style="display: block;" transform="matrix(1.0199999809265137,0,0,1.0199999809265137,261.2698059082031,253.7493133544922)" opacity="1"><g opacity="1" transform="matrix(1,0,0,1,0,0)"><path fill="rgb(255,168,0)" fill-opacity="1" d=" M-40.95100021362305,79.16699981689453 C-37.02899932861328,123.7750015258789 -54.1870002746582,122.79399871826172 -67.91200256347656,128.67599487304688 C-55.65700149536133,236.0290069580078 51.20600128173828,237.99000549316406 60.52000045776367,128.67599487304688 C51.69599914550781,128.18600463867188 32.57899856567383,122.30400085449219 37.97100067138672,79.65699768066406 C38.46099853515625,76.71600341796875 -38.5,75.73600006103516 -40.95100021362305,79.16699981689453z"></path></g><g opacity="1" transform="matrix(1,0,0,1,0,0)"><path fill="url(#__lottie_element_93)" fill-opacity="1" d=" M23.020000457763672,79.65699768066406 C23.09000015258789,77.63700103759766 -25.486000061035156,77.6760025024414 -25.510000228881836,79.16699981689453 C-26,109.80400085449219 -35.80400085449219,121.0790023803711 -35.80400085449219,121.81400299072266 C-13.744999885559082,155.14700317382812 -1.2300000190734863,185.19700622558594 1.2059999704360962,184.92599487304688 C3.4119999408721924,184.68099975585938 14.440999984741211,154.656005859375 34.784000396728516,123.52899932861328 C34.53900146484375,123.03900146484375 22.040000915527344,108.08799743652344 23.020000457763672,79.65699768066406z"></path></g><g opacity="1" transform="matrix(1,0,0,1,0,0)"><path fill="url(#__lottie_element_94)" mask="url(#__lottie_element_96)" fill-opacity="1" d="M0 0 M38.58599853515625,78.58499908447266 C38.58599853515625,78.58499908447266 -41.566001892089844,78.58499908447266 -41.566001892089844,78.58499908447266 C-41.566001892089844,78.58499908447266 -32.12799835205078,125.24500274658203 -67.06199645996094,127.8010025024414 C-71.83399963378906,215.4409942626953 48.26499938964844,256.6180114746094 60.6510009765625,128.78199768066406 C31.597999572753906,127.20600128173828 38.58599853515625,78.58499908447266 38.58599853515625,78.58499908447266z"></path></g><g opacity="0.3" transform="matrix(1,0,0,1,0,0)"><path fill="url(#__lottie_element_97)" fill-opacity="1" d=" M39.58599853515625,78.58499908447266 C39.58599853515625,78.58499908447266 -40.566001892089844,78.58499908447266 -40.566001892089844,78.58499908447266 C-40.566001892089844,78.58499908447266 -32.61800003051758,128.18600463867188 -68.02300262451172,126.82099914550781 C-50.26499938964844,245.83299255371094 59.04899978637695,225.73599243164062 59.20000076293945,128.29200744628906 C28.16699981689453,125.24600219726562 39.58599853515625,78.58499908447266 39.58599853515625,78.58499908447266z"></path></g><g opacity="1" transform="matrix(1,0,0,1,0,0)"><path stroke-linecap="round" stroke-linejoin="round" fill-opacity="0" stroke="rgb(153,71,4)" stroke-opacity="1" stroke-width="8" d=" M59.66999816894531,128.72300720214844 C40.9109992980957,126.71600341796875 34.53900146484375,113.48100280761719 38.58599853515625,78.58499908447266 C37.970001220703125,76.71600341796875 -34.57899856567383,74.26499938964844 -41.566001892089844,78.58499908447266 C-37.029998779296875,115.44100189208984 -47.81399917602539,123.77400207519531 -64.61100006103516,127.74199676513672"></path></g></g><g style="display: block;" transform="matrix(1,0,0,1,256,256)" opacity="1"><g opacity="1" transform="matrix(1,0,0,1,0,0)"><g opacity="1" transform="matrix(1,0,0,1,0,0)"><path fill="rgb(34,39,43)" fill-opacity="1" d=" M167.75,202.75 C159.593994140625,179.44700622558594 98.5,162 37.722999572753906,158.593994140625 C2.5,194.25 14.5,210.25 -19.246000289916992,161.50599670410156 C-90.25,159 -143.08299255371094,167.63299560546875 -155.75,202 C-153.75,205.75 -147.5,214.75 -121.75,215.5 C-122.25,216 138.5,215.25 138,215.25 C144.25,215.25 162.75,213.25 167.75,202.75z"></path></g><g opacity="1" transform="matrix(1,0,0,1,0,0)"><path fill="rgb(34,39,43)" fill-opacity="1" d=" M166.5,202.5 C155.25,176 121.4990005493164,172.58799743652344 56.391998291015625,163.79600524902344 C9,205.5 15.5,243.5 -38.5,155.5 C-132,151 -146.75,181.75 -154.25,202"></path><path stroke-linecap="round" stroke-linejoin="miter" fill-opacity="0" stroke-miterlimit="4" stroke="rgb(9,9,9)" stroke-opacity="1" stroke-width="8" d=" M166.5,202.5 C155.25,176 121.4990005493164,172.58799743652344 56.391998291015625,163.79600524902344 C9,205.5 15.5,243.5 -38.5,155.5 C-132,151 -146.75,181.75 -154.25,202"></path></g></g><g opacity="1" transform="matrix(1,0,0,1,0,0)"><path fill="url(#__lottie_element_67)" fill-opacity="1" d=" M-165,147.5 C-163.25,155 -130,203.25 -119.25,217.75 C-118.25,217.75 135.75,218.5 135.75,218.5 C149,204.25 178.5,152.25 180,148 C156.22500610351562,136.11300659179688 108.03600311279297,128.39999389648438 55.47800064086914,125.38999938964844 C3.75,219.75 9.75,215 -48.492000579833984,126.12300109863281 C-92.68299865722656,128.9669952392578 -133.48800659179688,134.89500427246094 -165,147.5z"></path></g><g opacity="1" transform="matrix(1,0,0,1,0,0)"><path fill="url(#__lottie_element_68)" fill-opacity="1" d=" M-145.56300354003906,143.06300354003906 C-145.81300354003906,143.31300354003906 -154.25,143.75 -154,144.25 C-153,157 -110,212.875 -108.25,217.625 C-108.25,218.375 -96.09400177001953,217.98399353027344 -95.84400177001953,217.98399353027344 C-106.75,204.25 -138.75,159.75100708007812 -145.56300354003906,143.06300354003906z"></path></g><g opacity="1" transform="matrix(1,0,0,1,0,0)"><path fill="url(#__lottie_element_69)" fill-opacity="1" d=" M160.875,143 C153.25,160.875 123.68699645996094,206 110.60900115966797,218.406005859375 C110.60900115966797,218.406005859375 124.64099884033203,218.5 124.76599884033203,218.625 C141.01600646972656,195.875 164.875,154 169.875,145 C170,144.875 160.98500061035156,142.7429962158203 160.875,143z"></path></g><g opacity="1" transform="matrix(1,0,0,1,0,0)"><path fill="url(#__lottie_element_70)" fill-opacity="1" d=" M-63.25,135.25 C-42,165.75 -24.25,195.75 -17.5,217.5 C-17.5,217.25 33.0629997253418,218 33.3129997253418,218 C39.5,196 56.5,165.25 76.5,135.25 C31.5,158 14.75,197.5 7.5,197.75 C0.7490000128746033,197.98300170898438 -31,146.5 -63.25,135.25z"></path></g><g opacity="0.3" transform="matrix(1,0,0,1,0,0)"><g opacity="1" transform="matrix(1,0,0,1,0,0)"><path fill="url(#__lottie_element_71)" mask="url(#__lottie_element_73)" fill-opacity="1" d="M0 0 M-48.75,126.5 C-101,128 -162.5,143.6020050048828 -162.5,148.75 C-162.5,150.25 -159.25,157.75 -158.75,158 C-145.5,149.5 -83.75,140.75 -38.25,134 C-32.22800064086914,133.10699462890625 -43.54999923706055,126.35099792480469 -48.75,126.5z"></path></g><g opacity="1" transform="matrix(1,0,0,1,0,0)"><path fill="url(#__lottie_element_74)" mask="url(#__lottie_element_76)" fill-opacity="1" d="M0 0 M78,126.75 C77.75,126.75 61.483001708984375,133.7530059814453 74.75,135.75 C98,139.25 167,152.25 174.25,157.75 C174.5,157.25 180.13600158691406,148.77200317382812 179,148.25 C136,128.5 90.75,130 78,126.75z"></path></g></g><g opacity="1" transform="matrix(1,0,0,1,0,0)"><path fill="url(#__lottie_element_77)" mask="url(#__lottie_element_79)" fill-opacity="1" d="M0 0 M73.5,128 C59,124 4.5,205 8,213.5 C15,223 162.5,167 177,148 C169.5,137 85.5,126 73.5,128z"></path></g><g opacity="0.6900000000000001" transform="matrix(1,0,0,1,0,0)"><path fill="url(#__lottie_element_80)" mask="url(#__lottie_element_82)" fill-opacity="1" d="M0 0 M7,216 C-8.5,215.5 -120,169.5 -164.5,147 C-143,140 -105.53500366210938,129.19900512695312 -47.750999450683594,126.2229995727539 C10.5,214.25 -4,191 7,216z"></path></g><g opacity="1" transform="matrix(1,0,0,1,0,0)"><g opacity="1" transform="matrix(1,0,0,1,0,0)"><path stroke-linecap="round" stroke-linejoin="round" fill-opacity="0" stroke="rgb(130,66,134)" stroke-opacity="1" stroke-width="8" d=" M-119.93800354003906,216 C-149.75,180.25 -164,148.25 -164,147.25"></path></g><g opacity="1" transform="matrix(1,0,0,1,0,0)"><path fill="url(#__lottie_element_83)" fill-opacity="1" d=" M178.75,147.5 C171.75,166.75 145,206.5 136.5,216.5"></path><path stroke-linecap="round" stroke-linejoin="miter" fill-opacity="0" stroke-miterlimit="4" stroke="rgb(130,66,134)" stroke-opacity="1" stroke-width="8" d=" M178.75,147.5 C171.75,166.75 145,206.5 136.5,216.5"></path></g><g opacity="1" transform="matrix(1,0,0,1,0,0)"><path stroke-linecap="round" stroke-linejoin="miter" fill-opacity="0" stroke-miterlimit="4" stroke="rgb(99,52,102)" stroke-opacity="1" stroke-width="8" d=" M-164.75,147.25 C-129.29200744628906,132.71299743652344 -95.25,130 -47.01599884033203,125.7959976196289 C-42.60499954223633,132.8209991455078 -11.25,179.25 7.014999866485596,197.57200622558594 C16.25,187.25 50.018001556396484,138.1510009765625 57.52199935913086,125.37999725341797 C106.51799774169922,128.3419952392578 155.04200744628906,136.7899932861328 179.25,147.25"></path></g></g><g opacity="1" transform="matrix(1,0,0,1,0,0)"><g opacity="1" transform="matrix(1,0,0,1,0,0)"><path fill="rgb(74,211,237)" fill-opacity="1" d=" M-91.75,80.25 C-119.75,95.25 -136,114.5 -139.5,123 C-61.5,119 -9.5,187.5 7,212.5 C31.5,175.5 81,116.5 153,121.5 C131.5,100.5 104.5,78.625 101,78.625 C69.375,100.875 21.5,170 6.5,198 C-3.5,180.5 -58.625,94.875 -91.75,80.25z"></path></g><g opacity="1" transform="matrix(1,0,0,1,0,0)"><path fill="url(#__lottie_element_84)" fill-opacity="1" d=" M-60.75,103.25 C-88,109.5 -93.5,128.5 -93,129.25 C-74,135.25 -42.25,147.75 6.75,210.25 C14,197 -52.5,107.5 -60.75,103.25z"></path></g><g opacity="1" transform="matrix(1,0,0,1,0,0)"><path fill="url(#__lottie_element_85)" fill-opacity="1" d=" M74.25,99.25 C62.5,111.5 0.5,191.5 7.25,211.75 C52.75,149 90.75,131.25 104,128 C103.5,122.75 87.25,104.75 74.25,99.25z"></path></g><g opacity="1" transform="matrix(1,0,0,1,0,0)"><g opacity="1" transform="matrix(1,0,0,1,0,0)"><path fill="url(#__lottie_element_86)" fill-opacity="1" d=" M-90.75,79.75 C-108.25,86 -134.5,110.75 -140.25,124.25 C-61,117.75 -20,181.25 7,211.5 C61,141 94.5,121.5 151.35400390625,121.35900115966797 C141.91700744628906,105.05699920654297 106.9739990234375,81.41600036621094 99.59200286865234,76.02899932861328 C97.25,80 95.375,82.625 94.91200256347656,83.1520004272461 C95.625,83.375 121.25,102.5 126.26000213623047,112.19999694824219 C42.5,123 9.590999603271484,199.33399963378906 6.5229997634887695,198.23699951171875 C-24.75,147.25 -70.5,116.75 -119.25,113.5 C-119,113.75 -102.875,96.18800354003906 -82.375,85.18800354003906 C-81.875,84.93800354003906 -90,79.5 -90.75,79.75z"></path></g></g><g opacity="1" transform="matrix(1,0,0,1,0,0)"><g opacity="1" transform="matrix(1,0,0,1,0,0)"><path stroke-linecap="round" stroke-linejoin="round" fill-opacity="0" stroke="rgb(22,96,103)" stroke-opacity="1" stroke-width="8" d=" M-61,103 C-40,123.5 7,198.75 7,198 C7,199.25 48,121.5 74.5,99.5"></path></g><g opacity="1" transform="matrix(1,0,0,1,0,0)"><path stroke-linecap="round" stroke-linejoin="round" fill-opacity="0" stroke="rgb(130,66,134)" stroke-opacity="1" stroke-width="8" d=" M-88,77.5 C-115.5,90 -141.5,123.75 -140.5,123.75 C-43,117 -0.75,212.25 7.5,212 C12.75,211.75 57.5,115.5 152.5,122.75 C152.5,122.75 121.25,88.7509994506836 101.25,76.43800354003906"></path></g><g opacity="1" transform="matrix(1,0,0,1,0,0)"><path stroke-linecap="round" stroke-linejoin="miter" fill-opacity="0" stroke-miterlimit="4" stroke="rgb(99,53,103)" stroke-opacity="1" stroke-width="8" d=" M95.75,73.25 C95.5,73.5 117,82.75 152.75,122.25"></path></g><g opacity="1" transform="matrix(1,0,0,1,0,0)"><path stroke-linecap="round" stroke-linejoin="miter" fill-opacity="0" stroke-miterlimit="4" stroke="rgb(99,53,103)" stroke-opacity="1" stroke-width="8" d=" M-140.5,123.75 C-133.5,111.25 -103.5,83.25 -84,75.25"></path></g></g></g><g opacity="0.2" transform="matrix(1,0,0,1,0,0)"><path fill="url(#__lottie_element_87)" mask="url(#__lottie_element_89)" fill-opacity="1" d="M0 0 M-81.75,70.5 C-88.625,71.75 -94.125,76.625 -94.25,76.375 C-87.25,93.375 -61,115.5 -56.875,110.875 C-53.74300003051758,107.36299896240234 -71.125,99.75 -81.75,70.5z"></path></g></g><g style="display: block;" transform="matrix(0.7699999809265137,0,0,0.7699999809265137,262.0005798339844,216.00009155273438)" opacity="1"><g opacity="1" transform="matrix(1,0,0,1,0,0)"><path fill="rgb(255,168,0)" fill-opacity="1" d=" M109.01799774169922,-107.23999786376953 C82.98300170898438,-143.39999389648438 48.70199966430664,-164.66299438476562 -2.8350000381469727,-164.66299438476562 C-54.37200164794922,-164.66299438476562 -88.65399932861328,-143.39999389648438 -114.68800354003906,-107.23999786376953 C-140.72300720214844,-71.08100128173828 -162.41900634765625,13.241999626159668 -128.4290008544922,84.11399841308594 C-94.44000244140625,154.98599243164062 -37.01599884033203,177.4040069580078 -2.8350000381469727,177.4040069580078 C31.34600067138672,177.4040069580078 88.76799774169922,154.98599243164062 122.75800323486328,84.11399841308594 C156.7480010986328,13.241999626159668 135.05299377441406,-71.08100128173828 109.01799774169922,-107.23999786376953z"></path></g><g opacity="1" transform="matrix(1,0,0,1,0,0)"><path fill="url(#__lottie_element_62)" fill-opacity="1" d=" M109.20700073242188,-107.23999786376953 C83.1719970703125,-143.39999389648438 48.88999938964844,-164.66299438476562 -2.6470000743865967,-164.66299438476562 C-54.183998107910156,-164.66299438476562 -88.46499633789062,-143.39999389648438 -114.4990005493164,-107.23999786376953 C-140.53399658203125,-71.08100128173828 -162.22999572753906,13.241999626159668 -128.24000549316406,84.11399841308594 C-94.2509994506836,154.98599243164062 -36.827999114990234,177.4040069580078 -2.6470000743865967,177.4040069580078 C31.534000396728516,177.4040069580078 88.95700073242188,154.98599243164062 122.9469985961914,84.11399841308594 C156.93699645996094,13.241999626159668 135.24200439453125,-71.08100128173828 109.20700073242188,-107.23999786376953z"></path></g><g opacity="1" transform="matrix(1,0,0,1,0,0)"><path fill="url(#__lottie_element_63)" fill-opacity="1" d=" M54.279998779296875,-15.239999771118164 C54.279998779296875,-15.239999771118164 56.97100067138672,15.149999618530273 42.284000396728516,0.37400001287460327 C-6.49399995803833,-48.70199966430664 -40.909000396728516,-65.25900268554688 -59.45899963378906,-74.46499633789062 C-83.76599884033203,-43.18199920654297 -91.88300323486328,-4.21999979019165 -108.73699951171875,-6.519999980926514 C-114.90899658203125,-7.361999988555908 -116.23400115966797,-18.832000732421875 -115.01899719238281,-18.382999420166016 C-122.0780029296875,9.090999603271484 -121.85299682617188,63.64500045776367 -103.84200286865234,93.5469970703125 C-76.1729965209961,139.48300170898438 -30.659000396728516,155.2429962158203 -2.8350000381469727,155.2429962158203 C24.98900032043457,155.2429962158203 70.50299835205078,139.48300170898438 98.1719970703125,93.5469970703125 C105.9990005493164,80.552001953125 118.18099975585938,21.42799949645996 54.279998779296875,-15.239999771118164z"></path></g><g opacity="1" transform="matrix(1,0,0,1,0,0)"><path stroke-linecap="round" stroke-linejoin="round" fill-opacity="0" stroke="rgb(219,110,0)" stroke-opacity="1" stroke-width="10" d=" M109.01799774169922,-107.23999786376953 C82.98300170898438,-143.39999389648438 48.70199966430664,-164.66299438476562 -2.8350000381469727,-164.66299438476562 C-54.37200164794922,-164.66299438476562 -88.65399932861328,-143.39999389648438 -114.68800354003906,-107.23999786376953 C-140.72300720214844,-71.08100128173828 -162.41900634765625,13.241999626159668 -128.4290008544922,84.11399841308594 C-94.44000244140625,154.98599243164062 -37.01599884033203,177.4040069580078 -2.8350000381469727,177.4040069580078 C31.34600067138672,177.4040069580078 88.76799774169922,154.98599243164062 122.75800323486328,84.11399841308594 C156.7480010986328,13.241999626159668 135.05299377441406,-71.08100128173828 109.01799774169922,-107.23999786376953z"></path></g></g><g style="display: block;" transform="matrix(1,0,0,1,256,256)" opacity="1"><g opacity="1" transform="matrix(1,0,0,1,0,0)"><path fill="url(#__lottie_element_57)" fill-opacity="1" d=" M7.5,-152 C-85.5,-68.5 -99.25,10.5 -99,10 C-85.48999786376953,-2.009000062942505 -62.9370002746582,-12.37399959564209 -63.483001708984375,-11.515999794006348 C-78.75,12.5 -92.75,32.125 -65.19400024414062,59.14799880981445 C-46.125,25.75 -4,-13.25 20.152000427246094,-33.551998138427734 C20.25,-33.25 -23.197999954223633,-10.305000305175781 -19.25,-16.75 C34.5,-104.5 8,-152.5 7.5,-152z"></path></g><g opacity="1" transform="matrix(1,0,0,1,0,0)"><path fill="url(#__lottie_element_58)" fill-opacity="1" d=" M17,-145 C-6,-132.5 -83.5,-32.25 -98.75,10 C-98.25,10.25 -82.5,1.75 -76,0.75 C-76,1 -83.25,18.5 -85.75,30 C-79.25,44.25 -71.25,53.125 -71.25,52.625 C-58.75,31.875 -35.5,3.25 20.25,-33.5 C3.25,-29.25 -12.75,-18.5 -13,-18.5 C-13,-18.5 22,-83 58,-119.5 C55.5,-122.5 18,-146 17,-145z"></path></g><g opacity="0.1" transform="matrix(1,0,0,1,0,0)"><g opacity="1" transform="matrix(1,0,0,1,0,0)"><path fill="rgb(29,11,23)" fill-opacity="1" d=" M5.625,-150.125 C-52.375,-98.125 -77.875,-44.875 -78.125,-44.875 C-63.625,-43.375 -59.5,-72.375 -39.375,-97.25 C-38.875,-97.125 -6.875,-81.875 13.75,-62.375 C13.25,-62.125 42.5,-106.5 58.375,-118.625 C58.375,-118.25 9.23900032043457,-153.36500549316406 5.625,-150.125z"></path></g><g opacity="1" transform="matrix(1,0,0,1,0,0)"><path fill="rgb(29,11,23)" fill-opacity="1" d=" M-85.75,-28.375 C-91.875,-17.25 -98.375,6.375 -99.125,9.875 C-99.25,10.125 -93,7.5 -83.375,3 C-84.625,-4.875 -86.125,-20.375 -85.75,-28.375z"></path></g><g opacity="1" transform="matrix(1,0,0,1,0,0)"><path fill="rgb(29,11,23)" fill-opacity="1" d=" M-81.125,14.5 C-83.125,19.125 -85.625,30 -85.875,29.875 C-84.375,34.75 -71.875,54.125 -65.125,59.25 C-65,59.125 -61.875,53 -59.625,50 C-66.75,45.5 -80,24.125 -81.125,14.5z"></path></g></g></g><g style="display: block;" transform="matrix(0.7699999809265137,0,0,0.7699999809265137,262.00006103515625,215.99954223632812)" opacity="1"><g opacity="1" transform="matrix(1,0,0,1,0,0)"><g opacity="1" transform="matrix(1,0,0,1,0,0)"><path fill="rgb(255,255,255)" fill-opacity="1" d=" M-33.71799850463867,37.624000549316406 C-33.71799850463867,37.624000549316406 -37.43199920654297,-6.709000110626221 -74.30799865722656,-10.413000106811523 C-108.17400360107422,-13.814000129699707 -119.28600311279297,25.458999633789062 -119.28600311279297,25.458999633789062 C-119.28600311279297,25.458999633789062 -110.1709976196289,49.233001708984375 -80.52400207519531,52.48400115966797 C-47.472999572753906,56.10900115966797 -33.71799850463867,37.624000549316406 -33.71799850463867,37.624000549316406z"></path></g><g opacity="1" transform="matrix(1,0,0,1,0,0)"><g opacity="1" transform="matrix(1,0,0,1,0,0)"><path fill="url(#__lottie_element_48)" fill-opacity="1" d=" M-51.20500183105469,19.68600082397461 C-51.20500183105469,33.59600067138672 -61.845001220703125,44.87200164794922 -74.97100067138672,44.87200164794922 C-88.09700012207031,44.87200164794922 -98.73799896240234,33.59600067138672 -98.73799896240234,19.68600082397461 C-98.73799896240234,5.776000022888184 -88.09700012207031,-5.5 -74.97100067138672,-5.5 C-61.845001220703125,-5.5 -51.20500183105469,5.776000022888184 -51.20500183105469,19.68600082397461z"></path></g><g opacity="1" transform="matrix(1,0,0,1,0,0)"><g opacity="1" transform="matrix(1,0,0,1,0,0)"><path fill="url(#__lottie_element_49)" fill-opacity="1" d=" M-69.46700286865234,43.790000915527344 C-71.34400177001953,43.790000915527344 -73.08100128173828,42.577999114990234 -73.66300201416016,40.691001892089844 C-74.37799835205078,38.37300109863281 -73.0780029296875,35.91400146484375 -70.76000213623047,35.19900131225586 C-66.32599639892578,33.83100128173828 -62.79600143432617,30.38599967956543 -61.31800079345703,25.983999252319336 C-60.54600143432617,23.683000564575195 -58.051998138427734,22.447999954223633 -55.75699996948242,23.218000411987305 C-53.457000732421875,23.989999771118164 -52.21900177001953,26.479999542236328 -52.99100112915039,28.780000686645508 C-55.36600112915039,35.856998443603516 -61.04100036621094,41.39500045776367 -68.1719970703125,43.59400177001953 C-68.60299682617188,43.72700119018555 -69.03900146484375,43.790000915527344 -69.46700286865234,43.790000915527344z"></path></g></g><g opacity="1" transform="matrix(1,0,0,1,0,0)"><path fill="rgb(24,19,9)" fill-opacity="1" d=" M-59.95100021362305,19.68600082397461 C-59.95100021362305,28.476999282836914 -66.67500305175781,35.604000091552734 -74.97100067138672,35.604000091552734 C-83.26699829101562,35.604000091552734 -89.99199676513672,28.476999282836914 -89.99199676513672,19.68600082397461 C-89.99199676513672,10.895000457763672 -83.26699829101562,3.7690000534057617 -74.97100067138672,3.7690000534057617 C-66.67500305175781,3.7690000534057617 -59.95100021362305,10.895000457763672 -59.95100021362305,19.68600082397461z"></path></g><g opacity="1" transform="matrix(1,0,0,1,0,0)"><path fill="url(#__lottie_element_50)" fill-opacity="1" d=" M-76.302001953125,5.961999893188477 C-76.302001953125,9.300000190734863 -78.85600280761719,12.005999565124512 -82.00599670410156,12.005999565124512 C-85.15599822998047,12.005999565124512 -87.70999908447266,9.300000190734863 -87.70999908447266,5.961999893188477 C-87.70999908447266,2.624000072479248 -85.15599822998047,-0.08299999684095383 -82.00599670410156,-0.08299999684095383 C-78.85600280761719,-0.08299999684095383 -76.302001953125,2.624000072479248 -76.302001953125,5.961999893188477z"></path></g></g><g opacity="1" transform="matrix(1,0,0,1,0,0)"><path fill="rgb(135,48,0)" fill-opacity="1" d=" M-33.71799850463867,37.624000549316406 C-33.71799850463867,37.624000549316406 -35.4900016784668,-7.86299991607666 -76.50199890136719,-11.777000427246094 C-93.33999633789062,-13.383999824523926 -107.60199737548828,-4.119999885559082 -113.76799774169922,6.861000061035156 C-118.95999908447266,16.107999801635742 -119.28600311279297,25.458999633789062 -119.28600311279297,25.458999633789062 C-119.28600311279297,25.458999633789062 -115.41500091552734,-9.817000389099121 -77.822998046875,-8.013999938964844 C-37.59400177001953,-6.084000110626221 -33.71799850463867,37.624000549316406 -33.71799850463867,37.624000549316406z"></path><path stroke-linecap="round" stroke-linejoin="round" fill-opacity="0" stroke="rgb(135,48,0)" stroke-opacity="1" stroke-width="2" d=" M-33.71799850463867,37.624000549316406 C-33.71799850463867,37.624000549316406 -35.4900016784668,-7.86299991607666 -76.50199890136719,-11.777000427246094 C-93.33999633789062,-13.383999824523926 -107.60199737548828,-4.119999885559082 -113.76799774169922,6.861000061035156 C-118.95999908447266,16.107999801635742 -119.28600311279297,25.458999633789062 -119.28600311279297,25.458999633789062 C-119.28600311279297,25.458999633789062 -115.41500091552734,-9.817000389099121 -77.822998046875,-8.013999938964844 C-37.59400177001953,-6.084000110626221 -33.71799850463867,37.624000549316406 -33.71799850463867,37.624000549316406z"></path></g></g><g opacity="1" transform="matrix(-1,0,0,1,-4.125,0)"><g opacity="1" transform="matrix(1,0,0,1,0,0)"><path fill="rgb(255,255,255)" fill-opacity="1" d=" M-33.71799850463867,37.624000549316406 C-33.71799850463867,37.624000549316406 -37.43199920654297,-6.709000110626221 -74.30799865722656,-10.413000106811523 C-108.17400360107422,-13.814000129699707 -119.28600311279297,25.458999633789062 -119.28600311279297,25.458999633789062 C-119.28600311279297,25.458999633789062 -110.1709976196289,49.233001708984375 -80.52400207519531,52.48400115966797 C-47.472999572753906,56.10900115966797 -33.71799850463867,37.624000549316406 -33.71799850463867,37.624000549316406z"></path></g><g opacity="1" transform="matrix(-1,0,0,1,-149.94200134277344,0)"><g opacity="1" transform="matrix(1,0,0,1,0,0)"><g opacity="1" transform="matrix(1,0,0,1,0,0)"><path fill="url(#__lottie_element_51)" fill-opacity="1" d=" M-51.20500183105469,19.68600082397461 C-51.20500183105469,33.59600067138672 -61.845001220703125,44.87200164794922 -74.97100067138672,44.87200164794922 C-88.09700012207031,44.87200164794922 -98.73799896240234,33.59600067138672 -98.73799896240234,19.68600082397461 C-98.73799896240234,5.776000022888184 -88.09700012207031,-5.5 -74.97100067138672,-5.5 C-61.845001220703125,-5.5 -51.20500183105469,5.776000022888184 -51.20500183105469,19.68600082397461z"></path></g><g opacity="1" transform="matrix(1,0,0,1,0,0)"><g opacity="1" transform="matrix(1,0,0,1,0,0)"><path fill="url(#__lottie_element_52)" fill-opacity="1" d=" M-69.46700286865234,43.790000915527344 C-71.34400177001953,43.790000915527344 -73.08100128173828,42.577999114990234 -73.66300201416016,40.691001892089844 C-74.37799835205078,38.37300109863281 -73.0780029296875,35.91400146484375 -70.76000213623047,35.19900131225586 C-66.32599639892578,33.83100128173828 -62.79600143432617,30.38599967956543 -61.31800079345703,25.983999252319336 C-60.54600143432617,23.683000564575195 -58.051998138427734,22.447999954223633 -55.75699996948242,23.218000411987305 C-53.457000732421875,23.989999771118164 -52.21900177001953,26.479999542236328 -52.99100112915039,28.780000686645508 C-55.36600112915039,35.856998443603516 -61.04100036621094,41.39500045776367 -68.1719970703125,43.59400177001953 C-68.60299682617188,43.72700119018555 -69.03900146484375,43.790000915527344 -69.46700286865234,43.790000915527344z"></path></g></g><g opacity="1" transform="matrix(1,0,0,1,0,0)"><path fill="rgb(24,19,9)" fill-opacity="1" d=" M-59.95100021362305,19.68600082397461 C-59.95100021362305,28.476999282836914 -66.67500305175781,35.604000091552734 -74.97100067138672,35.604000091552734 C-83.26699829101562,35.604000091552734 -89.99199676513672,28.476999282836914 -89.99199676513672,19.68600082397461 C-89.99199676513672,10.895000457763672 -83.26699829101562,3.7690000534057617 -74.97100067138672,3.7690000534057617 C-66.67500305175781,3.7690000534057617 -59.95100021362305,10.895000457763672 -59.95100021362305,19.68600082397461z"></path></g><g opacity="1" transform="matrix(1,0,0,1,0,0)"><path fill="url(#__lottie_element_53)" fill-opacity="1" d=" M-76.302001953125,5.961999893188477 C-76.302001953125,9.300000190734863 -78.85600280761719,12.005999565124512 -82.00599670410156,12.005999565124512 C-85.15599822998047,12.005999565124512 -87.70999908447266,9.300000190734863 -87.70999908447266,5.961999893188477 C-87.70999908447266,2.624000072479248 -85.15599822998047,-0.08299999684095383 -82.00599670410156,-0.08299999684095383 C-78.85600280761719,-0.08299999684095383 -76.302001953125,2.624000072479248 -76.302001953125,5.961999893188477z"></path></g></g></g><g opacity="1" transform="matrix(1,0,0,1,0,0)"><path fill="rgb(135,48,0)" fill-opacity="1" d=" M-33.71799850463867,37.624000549316406 C-33.71799850463867,37.624000549316406 -35.4900016784668,-7.86299991607666 -76.50199890136719,-11.777000427246094 C-93.33999633789062,-13.383999824523926 -107.60199737548828,-4.119999885559082 -113.76799774169922,6.861000061035156 C-118.95999908447266,16.107999801635742 -119.28600311279297,25.458999633789062 -119.28600311279297,25.458999633789062 C-119.28600311279297,25.458999633789062 -115.41500091552734,-9.817000389099121 -77.822998046875,-8.013999938964844 C-37.59400177001953,-6.084000110626221 -33.71799850463867,37.624000549316406 -33.71799850463867,37.624000549316406z"></path><path stroke-linecap="round" stroke-linejoin="round" fill-opacity="0" stroke="rgb(135,48,0)" stroke-opacity="1" stroke-width="2" d=" M-33.71799850463867,37.624000549316406 C-33.71799850463867,37.624000549316406 -35.4900016784668,-7.86299991607666 -76.50199890136719,-11.777000427246094 C-93.33999633789062,-13.383999824523926 -107.60199737548828,-4.119999885559082 -113.76799774169922,6.861000061035156 C-118.95999908447266,16.107999801635742 -119.28600311279297,25.458999633789062 -119.28600311279297,25.458999633789062 C-119.28600311279297,25.458999633789062 -115.41500091552734,-9.817000389099121 -77.822998046875,-8.013999938964844 C-37.59400177001953,-6.084000110626221 -33.71799850463867,37.624000549316406 -33.71799850463867,37.624000549316406z"></path></g></g></g><g style="display: block;" transform="matrix(0.7699999809265137,0,0,0.7699999809265137,261.99993896484375,215.99960327148438)" opacity="1"><g opacity="1" transform="matrix(1,0,0,1,0,0)"><path fill="url(#__lottie_element_41)" fill-opacity="1" d=" M18.190000534057617,94.09300231933594 C18.190000534057617,102.9260025024414 8.125,110.77799987792969 -2.8350000381469727,110.77799987792969 C-13.795000076293945,110.77799987792969 -23.861000061035156,102.9260025024414 -23.861000061035156,94.09300231933594 C-23.861000061035156,85.26100158691406 -13.795000076293945,77.16200256347656 -2.8350000381469727,77.16200256347656 C8.125,77.16200256347656 18.190000534057617,85.26100158691406 18.190000534057617,94.09300231933594z"></path></g><g opacity="1" transform="matrix(1,0,0,1,0,0)"><path fill="rgb(255,168,0)" fill-opacity="0.8" d=" M18.190000534057617,85.64399719238281 C18.190000534057617,94.10600280761719 8.777000427246094,100.96600341796875 -2.8350000381469727,100.96600341796875 C-14.446999549865723,100.96600341796875 -23.860000610351562,94.10600280761719 -23.860000610351562,85.64399719238281 C-23.860000610351562,77.18199920654297 -14.446999549865723,70.68299865722656 -2.8350000381469727,70.68299865722656 C8.777000427246094,70.68299865722656 18.190000534057617,77.18199920654297 18.190000534057617,85.64399719238281z"></path></g><g opacity="1" transform="matrix(1,0,0,1,0,0)"><path fill="url(#__lottie_element_42)" fill-opacity="1" d=" M18.190000534057617,85.64399719238281 C18.190000534057617,94.10600280761719 8.777000427246094,100.96600341796875 -2.8350000381469727,100.96600341796875 C-14.446999549865723,100.96600341796875 -23.860000610351562,94.10600280761719 -23.860000610351562,85.64399719238281 C-23.860000610351562,77.18199920654297 -14.446999549865723,70.68299865722656 -2.8350000381469727,70.68299865722656 C8.777000427246094,70.68299865722656 18.190000534057617,77.18199920654297 18.190000534057617,85.64399719238281z"></path></g><g opacity="1" transform="matrix(1,0,0,1,0,0)"><path fill="rgb(255,216,0)" fill-opacity="1" d=" M15.352999687194824,80.80799865722656 C15.352999687194824,87.10800170898438 7.210000038146973,92.21499633789062 -2.8350000381469727,92.21499633789062 C-12.880000114440918,92.21499633789062 -21.02400016784668,87.10800170898438 -21.02400016784668,80.80799865722656 C-21.02400016784668,74.50800323486328 -12.880000114440918,70.43599700927734 -2.8350000381469727,70.43599700927734 C7.210000038146973,70.43599700927734 15.352999687194824,74.50800323486328 15.352999687194824,80.80799865722656z"></path></g><g opacity="1" transform="matrix(1,0,0,1,0,0)"><path fill="url(#__lottie_element_43)" fill-opacity="1" d=" M15.352999687194824,80.80799865722656 C15.352999687194824,87.10800170898438 7.210000038146973,92.21499633789062 -2.8350000381469727,92.21499633789062 C-12.880000114440918,92.21499633789062 -21.02400016784668,87.10800170898438 -21.02400016784668,80.80799865722656 C-21.02400016784668,74.50800323486328 -12.880000114440918,70.43599700927734 -2.8350000381469727,70.43599700927734 C7.210000038146973,70.43599700927734 15.352999687194824,74.50800323486328 15.352999687194824,80.80799865722656z"></path></g><g opacity="1" transform="matrix(1,0,0,1,0,0)"><path fill="url(#__lottie_element_44)" fill-opacity="0.7000000000000001" d=" M6.535999774932861,76.23300170898438 C6.535999774932861,79.60600280761719 2.3399999141693115,82.77799987792969 -2.8350000381469727,82.77799987792969 C-8.010000228881836,82.77799987792969 -12.206000328063965,79.60600280761719 -12.206000328063965,76.23300170898438 C-12.206000328063965,72.86000061035156 -8.010000228881836,71.16799926757812 -2.8350000381469727,71.16799926757812 C2.3399999141693115,71.16799926757812 6.535999774932861,72.86000061035156 6.535999774932861,76.23300170898438z"></path></g></g><g style="display: block;" transform="matrix(0.7699999809265137,0,0,0.7699999809265137,262.00006103515625,216.00003051757812)" opacity="1"><g opacity="1" transform="matrix(1,0,0,1,0,0)"><path fill="rgb(135,48,0)" fill-opacity="1" d=" M-108.53900146484375,-29.43400001525879 C-108.53900146484375,-29.43400001525879 -93.75199890136719,-39.57699966430664 -76.2020034790039,-39.02899932861328 C-59.3849983215332,-38.50400161743164 -52.435001373291016,-32.145999908447266 -52.435001373291016,-32.145999908447266 C-52.435001373291016,-32.145999908447266 -58.0369987487793,-44.35599899291992 -76.2020034790039,-43.82699966430664 C-96.21299743652344,-43.24399948120117 -108.53900146484375,-29.43400001525879 -108.53900146484375,-29.43400001525879z"></path><path stroke-linecap="round" stroke-linejoin="round" fill-opacity="0" stroke="rgb(135,48,0)" stroke-opacity="1" stroke-width="2" d=" M-108.53900146484375,-29.43400001525879 C-108.53900146484375,-29.43400001525879 -93.75199890136719,-39.57699966430664 -76.2020034790039,-39.02899932861328 C-59.3849983215332,-38.50400161743164 -52.435001373291016,-32.145999908447266 -52.435001373291016,-32.145999908447266 C-52.435001373291016,-32.145999908447266 -58.0369987487793,-44.35599899291992 -76.2020034790039,-43.82699966430664 C-96.21299743652344,-43.24399948120117 -108.53900146484375,-29.43400001525879 -108.53900146484375,-29.43400001525879z"></path></g><g opacity="1" transform="matrix(1,0,0,1,0,0)"><path fill="rgb(135,48,0)" fill-opacity="1" d=" M102.75700378417969,-29.43400001525879 C102.75700378417969,-29.43400001525879 87.97000122070312,-39.57699966430664 70.41999816894531,-39.02899932861328 C53.60300064086914,-38.50400161743164 46.65299987792969,-32.145999908447266 46.65299987792969,-32.145999908447266 C46.65299987792969,-32.145999908447266 52.255001068115234,-44.35599899291992 70.41999816894531,-43.82699966430664 C90.43099975585938,-43.24399948120117 102.75700378417969,-29.43400001525879 102.75700378417969,-29.43400001525879z"></path><path stroke-linecap="round" stroke-linejoin="round" fill-opacity="0" stroke="rgb(135,48,0)" stroke-opacity="1" stroke-width="2" d=" M102.75700378417969,-29.43400001525879 C102.75700378417969,-29.43400001525879 87.97000122070312,-39.57699966430664 70.41999816894531,-39.02899932861328 C53.60300064086914,-38.50400161743164 46.65299987792969,-32.145999908447266 46.65299987792969,-32.145999908447266 C46.65299987792969,-32.145999908447266 52.255001068115234,-44.35599899291992 70.41999816894531,-43.82699966430664 C90.43099975585938,-43.24399948120117 102.75700378417969,-29.43400001525879 102.75700378417969,-29.43400001525879z"></path></g></g><g style="display: block;" transform="matrix(0.7699999809265137,0,0,0.7699999809265137,262.0003662109375,216.00021362304688)" opacity="1"><g opacity="1" transform="matrix(1,0,0,1,0,0)"><path fill="rgb(75,37,2)" fill-opacity="1" d=" M43.34299850463867,120.85099792480469 C40.119998931884766,119.03800201416016 25.618000030517578,121.85800170898438 14.940999984741211,118.03099822998047 C4.264999866485596,114.2040023803711 1.8489999771118164,119.62100219726562 -1.9789999723434448,119.62100219726562 C-5.806000232696533,119.62100219726562 -8.222999572753906,114.2040023803711 -18.899999618530273,118.03099822998047 C-29.576000213623047,121.85800170898438 -44.07899856567383,119.03800201416016 -47.301998138427734,120.85099792480469 C-50.525001525878906,122.66400146484375 -28.535999298095703,143.5919952392578 -1.9789999723434448,143.5919952392578 C24.26799964904785,143.5919952392578 46.566001892089844,122.66400146484375 43.34299850463867,120.85099792480469z"></path></g><g opacity="1" transform="matrix(1,0,0,1,0,0)"><path fill="url(#__lottie_element_34)" fill-opacity="1" d=" M43.34299850463867,120.85099792480469 C40.119998931884766,119.03800201416016 25.618000030517578,121.85800170898438 14.940999984741211,118.03099822998047 C4.264999866485596,114.2040023803711 1.8489999771118164,119.62100219726562 -1.9789999723434448,119.62100219726562 C-5.806000232696533,119.62100219726562 -8.222999572753906,114.2040023803711 -18.899999618530273,118.03099822998047 C-29.576000213623047,121.85800170898438 -44.07899856567383,119.03800201416016 -47.301998138427734,120.85099792480469 C-50.525001525878906,122.66400146484375 -28.535999298095703,143.5919952392578 -1.9789999723434448,143.5919952392578 C24.26799964904785,143.5919952392578 46.566001892089844,122.66400146484375 43.34299850463867,120.85099792480469z"></path></g><g opacity="1" transform="matrix(1,0,0,1,0,0)"><path fill="rgb(23,19,11)" fill-opacity="1" d=" M-39.88199996948242,124.6240005493164 C-39.88199996948242,124.6240005493164 -28.322999954223633,127.36900329589844 -20.43899917602539,127.36900329589844 C-15.086999893188477,127.36900329589844 -7.00600004196167,130.20700073242188 -1.9789999723434448,130.20700073242188 C2.8519999980926514,130.20700073242188 9.390000343322754,127.43000030517578 14.458999633789062,127.43000030517578 C24.839000701904297,127.43000030517578 35.196998596191406,124.6240005493164 35.196998596191406,124.6240005493164 C35.196998596191406,124.6240005493164 26.56399917602539,127.21399688720703 13.963000297546387,129.86099243164062 C9.489999771118164,130.80099487304688 3.2860000133514404,133.1820068359375 -1.9789999723434448,133.1820068359375 C-8.236000061035156,133.1820068359375 -15.381999969482422,130.53799438476562 -20.562000274658203,129.3000030517578 C-32.020999908447266,126.56099700927734 -39.88199996948242,124.6240005493164 -39.88199996948242,124.6240005493164z"></path><path stroke-linecap="round" stroke-linejoin="round" fill-opacity="0" stroke="rgb(23,19,11)" stroke-opacity="1" stroke-width="1" d=" M-39.88199996948242,124.6240005493164 C-39.88199996948242,124.6240005493164 -28.322999954223633,127.36900329589844 -20.43899917602539,127.36900329589844 C-15.086999893188477,127.36900329589844 -7.00600004196167,130.20700073242188 -1.9789999723434448,130.20700073242188 C2.8519999980926514,130.20700073242188 9.390000343322754,127.43000030517578 14.458999633789062,127.43000030517578 C24.839000701904297,127.43000030517578 35.196998596191406,124.6240005493164 35.196998596191406,124.6240005493164 C35.196998596191406,124.6240005493164 26.56399917602539,127.21399688720703 13.963000297546387,129.86099243164062 C9.489999771118164,130.80099487304688 3.2860000133514404,133.1820068359375 -1.9789999723434448,133.1820068359375 C-8.236000061035156,133.1820068359375 -15.381999969482422,130.53799438476562 -20.562000274658203,129.3000030517578 C-32.020999908447266,126.56099700927734 -39.88199996948242,124.6240005493164 -39.88199996948242,124.6240005493164z"></path></g></g><g style="display: block;" transform="matrix(1,0,0,1,256,256)" opacity="1"><g opacity="1" transform="matrix(1,0,0,1,0,0)"><g opacity="1" transform="matrix(1,0,0,1,0,0)"><path fill="url(#__lottie_element_23)" fill-opacity="1" d=" M-47,-167.5 C-122.99800109863281,-165.88299560546875 -156.5,-47 -59.5,108 C-112.5,19 -91.5,-67.5 -79,-85.5 C-78.5,-86 -78.5,-58.5 -75.5,-56.5 C-66,-102 0,-168.5 -47,-167.5z"></path></g><g opacity="0.51" transform="matrix(1,0,0,1,0,0)"><path fill="url(#__lottie_element_24)" mask="url(#__lottie_element_26)" fill-opacity="1" d="M0 0 M-80.5,-158 C-145.62399291992188,-122.33699798583984 -116.5,17.5 -76.5,80 C-77.5,69.5 -117.5,-4.25 -77.5,-91.25 C-78.25,-91 -103,-61 -101.25,-10.25 C-112,-57.75 -114.75,-125 -81.25,-146.75 C-75.60399627685547,-150.41600036621094 -74.28399658203125,-140.99600219726562 -57.75,-126.25 C-48.5,-118 -77,-86.75 -73.25,-67.25 C-68,-76.5 -39.25,-127.25 -39.75,-132.5 C-41.755001068115234,-153.55299377441406 -59.5,-169.5 -80.5,-158z"></path></g><g opacity="1" transform="matrix(1,0,0,1,0,0)"><path fill="url(#__lottie_element_27)" fill-opacity="1" d=" M-80.75,-147.25 C-108.5,-126 -116.5,-80.75 -100,-3.5 C-101.25,-14.25 -106.25,-72.75 -68.5,-113 C-68.25,-113 -71.25,-98 -71,-84 C-64,-104 -51.19599914550781,-120.81500244140625 -57.5,-126 C-73,-138.75 -75.86799621582031,-150.98899841308594 -80.75,-147.25z"></path></g><g opacity="1" transform="matrix(1,0,0,1,0,0)"><path stroke-linecap="round" stroke-linejoin="round" fill-opacity="0" stroke="rgb(166,58,129)" stroke-opacity="1" stroke-width="8" d=" M-46,-167 C-168.5,-160 -110.5,45.5 -59,107.5 C-98,41.5 -104.5,-33.5 -78,-88.5 C-77.5,-89 -80,-65.5 -76,-56 C-59,-113 -3,-161 -46,-167z"></path></g><g opacity="1" transform="matrix(1,0,0,1,0,0)"><path stroke-linecap="round" stroke-linejoin="round" fill-opacity="0" stroke="rgb(119,41,92)" stroke-opacity="1" stroke-width="8" d=" M-40.03099822998047,-127.5 C-51.03099822998047,-109.5 -70.875,-76.875 -75.875,-55.875 C-76,-56.25 -79.875,-73.875 -78,-88.75 C-91.125,-65.125 -114.2509994506836,12 -58.9379997253418,107.31300354003906"></path></g></g><g opacity="1" transform="matrix(1,0,0,1,0,0)"><g opacity="1" transform="matrix(1,0,0,1,0,0)"><path fill="url(#__lottie_element_28)" fill-opacity="1" d=" M-70,-188 C-106,-158.5 -10.5,-108.5 37,-50 C37.5,-50.5 26,-75.5 19,-95 C19.5,-95 60,-47 75.5,-8.5 C73,-27 61.5,-77.5 60,-77.5 C79.5,-57.5 96.5,-16 95,26.5 C94,26 112,1 111.5,-45 C112,-44 115.5,2.5 106.5,32 C117.5,22 139.5,-36 137.5,-81.5 C139,-81.5 147.5,-72 151,-67 C131,-185.5 -12.557999610900879,-235.0709991455078 -70,-188z"></path></g><g opacity="0.51" transform="matrix(1,0,0,1,0,0)"><path fill="url(#__lottie_element_29)" fill-opacity="1" d=" M139.25,-81.25 C138.98500061035156,-81.64800262451172 148.5,-71 149.05299377441406,-71.72100067138672 C119.5,-212 -36.5,-221.5 -71,-188 C-105.625,-154.3780059814453 22,-80.5 35.75,-51 C38.25,-52 17.5,-92.75 18.75,-95.25 C28.5,-87.5 67.5,-27.5 71.25,-25.25 C73.5,-28.25 60.75,-70.25 60.75,-77.75 C95.75,-38.25 94.5,25.5 95.5,26 C107.75,-9 108.25,-44.25 52.875,-90.5 C56.125,-79.125 60.25,-52.875 60.5,-50.375 C43.125,-79.375 25.25,-96 10.234000205993652,-108.375 C14.375,-92.75 17.5,-82.75 17.625,-81.125 C-3.25,-105 -70.91500091552734,-151.66700744628906 -58.75,-181.25 C-47.75,-208 95.5,-208.5 137.7740020751953,-91.77200317382812 C132.5,-100.5 120,-110.5 120.60399627685547,-110.88400268554688 C134.5,-69.5 119.75,-5.75 110.06800079345703,21.08799934387207 C136,-11 138.5,-81 139.25,-81.25z"></path></g><g opacity="1" transform="matrix(1,0,0,1,0,0)"><path fill="url(#__lottie_element_30)" fill-opacity="1" d=" M-58.5,-182 C-69.90399932861328,-153.09100341796875 -6.886000156402588,-103.8280029296875 17.479999542236328,-81.18199920654297 C16,-87.25 13.125,-99 9.85200023651123,-108.64600372314453 C22.375,-99.125 44.75,-77 60.582000732421875,-50.09199905395508 C58.625,-60.75 55.0620002746582,-87.125 52.542999267578125,-90.61100006103516 C55.25,-88.25 84.75,-67.5 99.4229965209961,-29.97100067138672 C104,-38.5 120.15899658203125,-72.0270004272461 113.63700103759766,-109.96199798583984 C98.5,-198 -46.27299880981445,-212.99600219726562 -58.5,-182z"></path></g><g opacity="1" transform="matrix(1,0,0,1,0,0)"><path stroke-linecap="round" stroke-linejoin="round" fill-opacity="0" stroke="rgb(166,58,129)" stroke-opacity="1" stroke-width="8" d=" M-71.5,-187.5 C-102.5,-153 -1.5,-101.5 36.5,-51 C36,-56.5 20.75,-87.5 18.75,-94.5 C44.25,-68 64.75,-29.75 75.5,-8.25 C76,-8 67.75,-51.25 60.25,-77.5 C88.5,-45.25 95.5,2.5 95.25,26.5 C107.75,2.5 110.5,-17.5 111.25,-46.25 C115.5,-12 109,22 105.5,33 C116.5,23 136.5,-26 139.5,-80.5 C139.56100463867188,-81.61599731445312 150.91700744628906,-66.39399719238281 150.75,-67.5 C130.75,-200 -34.52799987792969,-228.64700317382812 -71.5,-187.5z"></path></g><g opacity="1" transform="matrix(1,0,0,1,0,0)"><path stroke-linecap="round" stroke-linejoin="round" fill-opacity="0" stroke="rgb(119,41,92)" stroke-opacity="1" stroke-width="8" d=" M-75.375,-163.625 C-63.25,-130.5 24,-75.125 36.125,-51.125 C31,-68.25 18.562999725341797,-94.5 18.812999725341797,-95 C43.25,-68 67.2509994506836,-25.75 75.18800354003906,-8.125 C70.5009994506836,-42.25 61,-77.5 60.25,-77.75 C73.25,-67.75 96.875,-16.625 95.125,26.125 C113.125,-5.125 111.75,-46.5 111.5,-46.25 C112.75,-31.75 113.75,10 104.75,33.5"></path></g></g></g><g style="display: block;" transform="matrix(1,0,0,1,255.56298828125,257)" opacity="1"><g opacity="1" transform="matrix(1,0,0,1,0,0)"><g opacity="1" transform="matrix(1,0,0,1,0,0)"><path fill="rgb(38,39,40)" fill-opacity="1" d=" M168.06300354003906,218.5 C169.31300354003906,206.5 140.68800354003906,202.125 141.06300354003906,218.625 C140.93800354003906,218.75 167.93800354003906,218.25 168.06300354003906,218.5z"></path></g><g opacity="1" transform="matrix(1,0,0,1,0,0)"><path fill="url(#__lottie_element_6)" fill-opacity="1" d=" M140.5,216 C140.5,216 140.68800354003906,164.25 140.68800354003906,164.25 C140.68800354003906,164.25 166.5,164.75 166.5,164.75 C166.5,164.75 166.5,216 166.5,216"></path><path stroke-linecap="round" stroke-linejoin="miter" fill-opacity="0" stroke-miterlimit="4" stroke="rgb(20,22,23)" stroke-opacity="1" stroke-width="8" d=" M140.5,216 C140.5,216 140.68800354003906,164.25 140.68800354003906,164.25 C140.68800354003906,164.25 166.5,164.75 166.5,164.75 C166.5,164.75 166.5,216 166.5,216"></path></g></g><g opacity="1" transform="matrix(1,0,0,1,0,0)"><g opacity="1" transform="matrix(1,0,0,1,0,0)"><path fill="url(#__lottie_element_7)" fill-opacity="1" d=" M105,105 C98.58499908447266,100.26499938964844 67.19000244140625,130.5489959716797 83.75,142.5 C108,160 178.718994140625,206.13600158691406 193,215 C207.5,224 223.00599670410156,204.28900146484375 210.5,193.5 C197.75,182.5 126,120.5 105,105z"></path><path stroke-linecap="round" stroke-linejoin="round" fill-opacity="0" stroke="rgb(12,13,13)" stroke-opacity="1" stroke-width="8" d=" M105,105 C98.58499908447266,100.26499938964844 67.19000244140625,130.5489959716797 83.75,142.5 C108,160 178.718994140625,206.13600158691406 193,215 C207.5,224 223.00599670410156,204.28900146484375 210.5,193.5 C197.75,182.5 126,120.5 105,105z"></path></g><g opacity="0.5" transform="matrix(1,0,0,1,0,0)"><path fill="url(#__lottie_element_8)" mask="url(#__lottie_element_10)" fill-opacity="1" d="M0 0 M202.93800354003906,192.875 C203.18800354003906,193 199.81300354003906,204.125 189.68800354003906,208.125 C194.31300354003906,213.25 203.87600708007812,215.28199768066406 208.43800354003906,209.625 C211.56300354003906,205.75 213.18800354003906,198.375 202.93800354003906,192.875z"></path></g><g opacity="0.5" transform="matrix(1,0,0,1,0,0)"><path fill="url(#__lottie_element_11)" mask="url(#__lottie_element_13)" fill-opacity="1" d="M0 0 M109.18800354003906,114.25 C108.93800354003906,114.75 105.43800354003906,118 105.43800354003906,118.25 C202.93800354003906,195.25 209.18800354003906,199.5 210.43800354003906,206.375 C214.06300354003906,195.75 201.18800354003906,193 109.18800354003906,114.25z"></path></g><g opacity="0.1" transform="matrix(1,0,0,1,0,0)"><path fill="url(#__lottie_element_14)" mask="url(#__lottie_element_16)" fill-opacity="1" d="M0 0 M84.56300354003906,133.125 C83.49099731445312,132.43499755859375 82.93800354003906,137.75 83.18800354003906,137.75 C178.56300354003906,198.125 196.81300354003906,220.25 206.43800354003906,211.125 C203.43800354003906,220.125 149.18800354003906,174.75 84.56300354003906,133.125z"></path></g><g opacity="0.15" transform="matrix(1,0,0,1,0,0)"><path stroke-linecap="round" stroke-linejoin="miter" fill-opacity="0" stroke-miterlimit="4" stroke="rgb(186,186,186)" stroke-opacity="1" stroke-width="8" d=" M104.68800354003906,105 C128.43800354003906,122.375 204.18800354003906,188.375 210.43800354003906,193.375 C216.68800354003906,198.375 215.93800354003906,205.375 213.1719970703125,209.75"></path></g><g opacity="1" transform="matrix(1,0,0,1,0,0)"><g opacity="1" transform="matrix(1,0,0,1,0,0)"><path fill="url(#__lottie_element_17)" fill-opacity="1" d=" M80.75,85 C65.71700286865234,85 50,102.5 52.25,117.5 C55.07099914550781,136.3040008544922 76.68699645996094,144.5 84.75,146.25 C93.93800354003906,121.25 101.06199645996094,116.875 113.75,107.25 C112.18699645996094,103.25 99.75,85 80.75,85z"></path><path stroke-linecap="butt" stroke-linejoin="miter" fill-opacity="0" stroke-miterlimit="4" stroke="rgb(14,17,19)" stroke-opacity="1" stroke-width="8" d=" M80.75,85 C65.71700286865234,85 50,102.5 52.25,117.5 C55.07099914550781,136.3040008544922 76.68699645996094,144.5 84.75,146.25 C93.93800354003906,121.25 101.06199645996094,116.875 113.75,107.25 C112.18699645996094,103.25 99.75,85 80.75,85z"></path></g><g opacity="0.35000000000000003" transform="matrix(1,0,0,1,0,0)"><g opacity="1" transform="matrix(1,0,0,1,-1,0.875)"><path fill="rgb(0,0,0)" fill-opacity="1" d=" M91.12300109863281,89.59200286865234 C87.5739974975586,90.28700256347656 86.75199890136719,91.57599639892578 86.56400299072266,91.51300048828125 C89.8949966430664,93.7979965209961 93.66200256347656,96.322998046875 93.53700256347656,96.26000213623047 C96.16200256347656,94.6969985961914 98.5479965209961,93.66300201416016 98.73600006103516,93.66300201416016 C95.875,91 91.12300109863281,89.65499877929688 91.12300109863281,89.59200286865234z"></path></g><g opacity="1" transform="matrix(0.9999997615814209,0.0006981316255405545,-0.0006981316255405545,0.9999997615814209,-0.375,1.625)"><path fill="rgb(0,0,0)" fill-opacity="1" d=" M82.4520034790039,93.59100341796875 C78.80899810791016,95.41000366210938 76.93499755859375,98.572998046875 76.74700164794922,98.447998046875 C80.08499908447266,100.86699676513672 83.87100219726562,103.80899810791016 83.80799865722656,103.74600219726562 C86.71099853515625,100.29900360107422 89.1709976196289,98.41100311279297 89.1709976196289,98.41100311279297 C85.40299987792969,95.48799896240234 82.4520034790039,93.71600341796875 82.4520034790039,93.59100341796875z"></path></g><g opacity="1" transform="matrix(1,0,0,1,-0.625,1.875)"><path fill="rgb(0,0,0)" fill-opacity="1" d=" M74.26599884033203,101.28500366210938 C71.01899719238281,104.03600311279297 69.74299621582031,107.1729965209961 69.68000030517578,107.1729965209961 C72.26899719238281,110.06400299072266 76.72000122070312,112.91899871826172 76.90799713134766,112.85600280761719 C78.90799713134766,109.66799926757812 81.50199890136719,106.76100158691406 81.50199890136719,106.572998046875 C79.30699920654297,104.0979995727539 74.64099884033203,101.16000366210938 74.26599884033203,101.28500366210938z"></path></g><g opacity="1" transform="matrix(1,0,0,1,0,0)"><path fill="rgb(0,0,0)" fill-opacity="1" d=" M66.83599853515625,112.56600189208984 C66.96099853515625,112.62899780273438 64.48200225830078,115.60099792480469 63.584999084472656,118.77799987792969 C63.459999084472656,118.96600341796875 67.22899627685547,122.47000122070312 70.13300323486328,124.59200286865234 C70.24600219726562,124.67400360107422 71.15699768066406,122.13800048828125 73.77100372314453,118.11399841308594 C74.02100372314453,118.302001953125 70.36000061035156,115.58999633789062 66.83599853515625,112.56600189208984z"></path></g><g opacity="1" transform="matrix(1,0,0,1,0,0)"><path fill="rgb(0,0,0)" fill-opacity="1" d=" M61.82600021362305,123.63200378417969 C61.888999938964844,123.75700378417969 61.23099899291992,124.9260025024414 61.167999267578125,128.05099487304688 C61.16400146484375,128.23800659179688 63.82099914550781,132.05799865722656 67.4530029296875,134.70399475097656 C67.4530029296875,134.70399475097656 67.43699645996094,131.22900390625 68.48799896240234,129.35499572753906 C68.48799896240234,129.35499572753906 64.58499908447266,126.49800109863281 61.82600021362305,123.63200378417969z"></path></g><g opacity="1" transform="matrix(1,0,0,1,1.847000002861023,1.3919999599456787)"><path fill="rgb(0,0,0)" fill-opacity="1" d=" M81.2020034790039,108.89299774169922 C81.11299896240234,108.822998046875 76.64900207519531,114.85099792480469 76.72599792480469,115.00599670410156 C79.18099975585938,117.30599975585938 83.73999786376953,120.19300079345703 83.52999877929688,120.11000061035156 C85.55899810791016,116.947998046875 88.35099792480469,113.96399688720703 88.3759994506836,113.99600219726562 C88.5260009765625,113.94000244140625 83.822998046875,110.00399780273438 81.2020034790039,108.89299774169922z"></path></g><g opacity="1" transform="matrix(1,0,0,1,0,0)"><path fill="rgb(0,0,0)" fill-opacity="1" d=" M91.79499816894531,102.45700073242188 C89.76100158691406,102.53900146484375 86.08200073242188,107.16799926757812 86.16400146484375,106.91799926757812 C88.40399932861328,108.447998046875 92.90499877929688,112.07499694824219 92.8239974975586,112.02300262451172 C94.9229965209961,109.91699981689453 98.01200103759766,107.68599700927734 97.84600067138672,107.78900146484375 C95.65499877929688,105.20600128173828 91.68599700927734,102.58100128173828 91.79499816894531,102.45700073242188z"></path></g><g opacity="1" transform="matrix(1,0,0,1,0,0)"><path fill="rgb(0,0,0)" fill-opacity="1" d=" M100.9260025024414,97.53700256347656 C101.0530014038086,97.63200378417969 98.0260009765625,97.6989974975586 95.5250015258789,99.9229965209961 C95.48300170898438,99.93000030517578 98.95700073242188,102.69499969482422 101.16999816894531,105.37999725341797 C101.11299896240234,105.33699798583984 103.625,104.12699890136719 106.53500366210938,102.9540023803711 C106.427001953125,103.10800170898438 105.18800354003906,100.125 100.9260025024414,97.53700256347656z"></path></g><g opacity="1" transform="matrix(1,0,0,1,2.321000099182129,1.593000054359436)"><path fill="rgb(0,0,0)" fill-opacity="1" d=" M73.89099884033203,118.58300018310547 C73.97699737548828,118.70700073242188 71.97699737548828,121.46499633789062 70.63099670410156,124.94499969482422 C70.51899719238281,125.06199645996094 74.48699951171875,128.20799255371094 77.34400177001953,129.61599731445312 C77.33399963378906,129.7270050048828 79.33799743652344,125.40599822998047 80.54199981689453,123.25 C80.60199737548828,123.30699920654297 75.96199798583984,120.1240005493164 73.89099884033203,118.58300018310547z"></path></g><g opacity="1" transform="matrix(1,0,0,1,0,0)"><path fill="rgb(0,0,0)" fill-opacity="1" d=" M71.802001953125,131.3520050048828 C71.76200103759766,131.20199584960938 70.33899688720703,134.3719940185547 71.00900268554688,136.39999389648438 C71.05899810791016,136.63699340820312 75.00199890136719,139.48300170898438 78.1050033569336,140.1009979248047 C78.07599639892578,140.0780029296875 77.75800323486328,138.30299377441406 78.2979965209961,135.16400146484375 C78.47799682617188,135.16700744628906 75.35600280761719,133.91000366210938 71.802001953125,131.3520050048828z"></path></g><g opacity="1" transform="matrix(1,0,0,1,0,0)"><path fill="rgb(0,0,0)" fill-opacity="1" d=" M56.00400161743164,115.64700317382812 C55.875999450683594,119.46600341796875 58.4640007019043,124.33999633789062 58.37900161743164,124.4469985961914 C58.35599899291992,122.302001953125 59.18600082397461,120.4729995727539 59.262001037597656,120.4010009765625 C58.1510009765625,119.14600372314453 55.933998107910156,115.75399780273438 56.00400161743164,115.64700317382812z"></path></g><g opacity="1" transform="matrix(1,0,0,1,0,0)"><path fill="rgb(0,0,0)" fill-opacity="1" d=" M59.62200164794922,106.30799865722656 C57.5369987487793,109.05699920654297 57.38199996948242,111.5469970703125 57.41699981689453,111.6989974975586 C57.979000091552734,112.93599700927734 59.0629997253418,114.53500366210938 60.69900131225586,116.4219970703125 C60.62099838256836,116.41400146484375 62.053001403808594,113.24199676513672 63.70100021362305,110.46099853515625 C63.724998474121094,110.51100158691406 59.60599899291992,106.31099700927734 59.62200164794922,106.30799865722656z"></path></g><g opacity="1" transform="matrix(1,0,0,1,0,0)"><path fill="rgb(0,0,0)" fill-opacity="1" d=" M65.0479965209961,98.28700256347656 C65.0770034790039,98.35800170898438 63.106998443603516,100.00399780273438 62.106998443603516,102.18199920654297 C61.95100021362305,102.14199829101562 63.94300079345703,104.52799987792969 66.18000030517578,106.6510009765625 C65.98899841308594,106.69499969482422 68.77899932861328,102.57599639892578 70.56099700927734,100.9749984741211 C70.50800323486328,101.21700286865234 68.24600219726562,99.39700317382812 65.0479965209961,98.28700256347656z"></path></g><g opacity="1" transform="matrix(1,0,0,1,0,0)"><path fill="rgb(0,0,0)" fill-opacity="1" d=" M71.87000274658203,92.052001953125 C72.03800201416016,92.2030029296875 69.58699798583984,92.85900115966797 67.94400024414062,95.13800048828125 C68.34500122070312,94.81900024414062 71.00900268554688,96.18499755859375 73.37699890136719,97.54399871826172 C73.5199966430664,97.54499816894531 75.39399719238281,95.12200164794922 78.57099914550781,93.33100128173828 C78.51000213623047,93.47899627685547 74.86399841308594,91.6719970703125 71.87000274658203,92.052001953125z"></path></g><g opacity="1" transform="matrix(1,0,0,1,0,0)"><path fill="rgb(0,0,0)" fill-opacity="1" d=" M86.20899963378906,89.18399810791016 C86.36799621582031,89.17900085449219 80.28399658203125,88.00900268554688 76.38600158691406,89.51100158691406 C76.25599670410156,89.51200103759766 79.56800079345703,89.89399719238281 81.60099792480469,90.65499877929688 C81.61599731445312,90.81099700927734 83.62899780273438,89.6969985961914 86.20899963378906,89.18399810791016z"></path></g></g><g opacity="0.08" transform="matrix(1,0,0,1,0,0)"><path stroke-linecap="round" stroke-linejoin="miter" fill-opacity="0" stroke-miterlimit="4" stroke="rgb(217,224,229)" stroke-opacity="1" stroke-width="8" d=" M52.3129997253418,117.5 C49.9379997253418,104.5 64.18699645996094,85 80.75,85.01599884033203 C99.62799835205078,85.03399658203125 112.06199645996094,103.25 113.625,107.375"></path></g></g><g opacity="0.25" transform="matrix(1,0,0,1,0,0)"><path fill="rgb(0,0,0)" fill-opacity="1" d=" M111.375,116.43800354003906 C98.875,119.31300354003906 89.7030029296875,128.88699340820312 86.06800079345703,139.6280059814453 C86.06199645996094,139.625 96.375,146.18800354003906 96.5,146.31300354003906 C96.375,146.18800354003906 104.31300354003906,127.125 117.31300354003906,121.375 C117,120.93699645996094 111.25,115.93800354003906 111.375,116.43800354003906z"></path></g><g opacity="1" transform="matrix(1,0,0,1,0,0)"><path fill="url(#__lottie_element_18)" fill-opacity="1" d=" M149.875,140.18800354003906 C137.625,142.43800354003906 124.31300354003906,159.625 125.31300354003906,172.18800354003906 C125.06300354003906,171.93800354003906 145.43800354003906,185.18800354003906 145.18800354003906,185.43800354003906 C146.25100708007812,172.75 157,159.62600708007812 167.43800354003906,155.06300354003906 C167.93800354003906,155.31300354003906 149.625,139.93800354003906 149.875,140.18800354003906z"></path><path stroke-linecap="round" stroke-linejoin="round" fill-opacity="0" stroke="rgb(33,34,34)" stroke-opacity="1" stroke-width="8" d=" M149.875,140.18800354003906 C137.625,142.43800354003906 124.31300354003906,159.625 125.31300354003906,172.18800354003906 C125.06300354003906,171.93800354003906 145.43800354003906,185.18800354003906 145.18800354003906,185.43800354003906 C146.25100708007812,172.75 157,159.62600708007812 167.43800354003906,155.06300354003906 C167.93800354003906,155.31300354003906 149.625,139.93800354003906 149.875,140.18800354003906z"></path></g><g opacity="0.33" transform="matrix(1,0,0,1,0,0)"><path fill="rgb(255,255,255)" fill-opacity="1" d=" M148.875,144.5 C147,145.125 144.93800354003906,146.5 144.93800354003906,146.5 C149.37600708007812,149.81300354003906 156.82400512695312,156.8939971923828 156.93800354003906,156.81300354003906 C159.12600708007812,155.25 160.81300354003906,154.875 160.81300354003906,154.875 C160.81300354003906,155 149.125,144.68800354003906 148.875,144.5z"></path></g><g opacity="0.06" transform="matrix(1,0,0,1,0,0)"><path fill="rgb(255,255,255)" fill-opacity="1" d=" M129.93800354003906,165.375 C129.56300354003906,167.31300354003906 129.375,169.625 129.25,169.81300354003906 C129.25,169.81300354003906 142.75100708007812,178.62600708007812 142.68800354003906,178.56300354003906 C143.37600708007812,175.375 143.56199645996094,174.56199645996094 143.625,174.625 C143.75,174.625 130.00100708007812,165.43800354003906 129.93800354003906,165.375z"></path></g><g opacity="0.1" transform="matrix(1,0,0,1,0,0)"><path stroke-linecap="round" stroke-linejoin="round" fill-opacity="0" stroke="rgb(233,244,244)" stroke-opacity="1" stroke-width="8" d=" M132.56300354003906,152.43800354003906 C141.18800354003906,141.18800354003906 150,140.25 149.843994140625,140.156005859375 C149.90699768066406,140.281005859375 167.468994140625,155 167.43800354003906,155.031005859375 C158.93800354003906,159.125 156.31300354003906,163.375 153.68800354003906,166"></path></g><g opacity="1" transform="matrix(1,0,0,1,0,0)"><path fill="url(#__lottie_element_19)" fill-opacity="1" d=" M115.25,105.25 C99.25,107.5 78.5,130.25 82.25,147.25 C81.5,147 89.75,151.5 90.25,151.75 C88,136.25 106.75,115.25 121.25,111.75 C121,111.5 115.25,106 115.25,105.25z"></path><path stroke-linecap="round" stroke-linejoin="round" fill-opacity="0" stroke="rgb(33,35,35)" stroke-opacity="1" stroke-width="6" d=" M115.25,105.25 C99.25,107.5 78.5,130.25 82.25,147.25 C81.5,147 89.75,151.5 90.25,151.75 C88,136.25 106.75,115.25 121.25,111.75 C121,111.5 115.25,106 115.25,105.25z"></path></g><g opacity="0.1" transform="matrix(1,0,0,1,0,0)"><path stroke-linecap="round" stroke-linejoin="round" fill-opacity="0" stroke="rgb(255,255,255)" stroke-opacity="1" stroke-width="6" d=" M92.68800354003906,119.375 C95.56300354003906,116 103.31300354003906,107.375 115.18800354003906,105.5 C115.06300354003906,105.25 121.43800354003906,111.875 121.31300354003906,111.625 C107.68800354003906,116.375 101.06300354003906,126 100.81300354003906,125.625"></path></g></g></g></g></svg>