<svg xmlns="http://www.w3.org/2000/svg" xmlns:xlink="http://www.w3.org/1999/xlink" viewBox="0 0 512 512" width="512" height="512" style="width: 100%; height: 100%; transform: translate3d(0,0,0); content-visibility: visible;" preserveAspectRatio="xMidYMid meet"><defs><clipPath id="__lottie_element_2"><rect width="512" height="512" x="0" y="0"></rect></clipPath><linearGradient id="__lottie_element_6" spreadMethod="pad" gradientUnits="userSpaceOnUse" x1="-0.25600001215934753" y1="57.891998291015625" x2="-0.5120000243186951" y2="-53.68199920654297"><stop offset="21%" stop-color="rgb(49,60,84)" stop-opacity="0"></stop><stop offset="60%" stop-color="rgb(49,60,84)" stop-opacity="0.5"></stop><stop offset="100%" stop-color="rgb(49,60,84)" stop-opacity="1"></stop></linearGradient><linearGradient id="__lottie_element_10" spreadMethod="pad" gradientUnits="userSpaceOnUse" x1="0.21899999678134918" y1="56.891998291015625" x2="-2.0789999961853027" y2="-50.59700012207031"><stop offset="21%" stop-color="rgb(49,60,84)" stop-opacity="0"></stop><stop offset="60%" stop-color="rgb(49,60,84)" stop-opacity="0.5"></stop><stop offset="100%" stop-color="rgb(49,60,84)" stop-opacity="1"></stop></linearGradient><linearGradient id="__lottie_element_14" spreadMethod="pad" gradientUnits="userSpaceOnUse" x1="26.753000259399414" y1="-12.241000175476074" x2="-21.1200008392334" y2="19.93000030517578"><stop offset="42%" stop-color="rgb(0,0,0)" stop-opacity="0"></stop><stop offset="71%" stop-color="rgb(0,0,0)" stop-opacity="0.30000001192092896"></stop><stop offset="100%" stop-color="rgb(0,0,0)" stop-opacity="0.6000000238418579"></stop></linearGradient><linearGradient id="__lottie_element_15" spreadMethod="pad" gradientUnits="userSpaceOnUse" x1="-24.496999740600586" y1="-9.324000358581543" x2="16.481000900268555" y2="16.336000442504883"><stop offset="31%" stop-color="rgb(0,0,0)" stop-opacity="0.20000000298023224"></stop><stop offset="65%" stop-color="rgb(0,0,0)" stop-opacity="0.30000001192092896"></stop><stop offset="100%" stop-color="rgb(0,0,0)" stop-opacity="0.4000000059604645"></stop></linearGradient><linearGradient id="__lottie_element_16" spreadMethod="pad" gradientUnits="userSpaceOnUse" x1="-23.235000610351562" y1="-2.9100000858306885" x2="17.743000030517578" y2="8.196000099182129"><stop offset="43%" stop-color="rgb(0,0,0)" stop-opacity="0"></stop><stop offset="71%" stop-color="rgb(0,0,0)" stop-opacity="0.15000000596046448"></stop><stop offset="100%" stop-color="rgb(0,0,0)" stop-opacity="0.30000001192092896"></stop></linearGradient><linearGradient id="__lottie_element_17" spreadMethod="pad" gradientUnits="userSpaceOnUse" x1="23.643999099731445" y1="-2.015000104904175" x2="-26.14299964904785" y2="5.644999980926514"><stop offset="43%" stop-color="rgb(0,0,0)" stop-opacity="0"></stop><stop offset="71%" stop-color="rgb(0,0,0)" stop-opacity="0.15000000596046448"></stop><stop offset="100%" stop-color="rgb(0,0,0)" stop-opacity="0.30000001192092896"></stop></linearGradient><linearGradient id="__lottie_element_18" spreadMethod="pad" gradientUnits="userSpaceOnUse" x1="0.16500000655651093" y1="32.077999114990234" x2="-0.984000027179718" y2="-29.198999404907227"><stop offset="36%" stop-color="rgb(0,0,0)" stop-opacity="0"></stop><stop offset="68%" stop-color="rgb(0,0,0)" stop-opacity="0.30000001192092896"></stop><stop offset="100%" stop-color="rgb(0,0,0)" stop-opacity="0.6000000238418579"></stop></linearGradient><radialGradient id="__lottie_element_19" spreadMethod="pad" gradientUnits="userSpaceOnUse" cx="-33.055999755859375" cy="37.03099822998047" r="78.73208055086106" fx="-33.055999755859375" fy="37.03099822998047"><stop offset="0%" stop-color="rgb(255,169,0)" stop-opacity="1"></stop><stop offset="50%" stop-color="rgb(255,169,0)" stop-opacity="0.5"></stop><stop offset="100%" stop-color="rgb(255,169,0)" stop-opacity="0"></stop></radialGradient><radialGradient id="__lottie_element_20" spreadMethod="pad" gradientUnits="userSpaceOnUse" cx="37.89400100708008" cy="41.34000015258789" r="92.55388353856662" fx="37.89400100708008" fy="41.34000015258789"><stop offset="0%" stop-color="rgb(255,169,0)" stop-opacity="1"></stop><stop offset="50%" stop-color="rgb(255,169,0)" stop-opacity="0.5"></stop><stop offset="100%" stop-color="rgb(255,169,0)" stop-opacity="0"></stop></radialGradient><radialGradient id="__lottie_element_21" spreadMethod="pad" gradientUnits="userSpaceOnUse" cx="-1.5099999904632568" cy="19.62299919128418" r="49.880998373031616" fx="-1.5099999904632568" fy="19.62299919128418"><stop offset="19%" stop-color="rgb(255,163,0)" stop-opacity="1"></stop><stop offset="66%" stop-color="rgb(255,163,0)" stop-opacity="0.5"></stop><stop offset="99%" stop-color="rgb(255,163,0)" stop-opacity="0"></stop></radialGradient><linearGradient id="__lottie_element_22" spreadMethod="pad" gradientUnits="userSpaceOnUse" x1="-0.35199999809265137" y1="27.48699951171875" x2="-0.35199999809265137" y2="-25.06999969482422"><stop offset="0%" stop-color="rgb(144,57,0)" stop-opacity="1"></stop><stop offset="59%" stop-color="rgb(199,110,0)" stop-opacity="0.5"></stop><stop offset="100%" stop-color="rgb(255,163,0)" stop-opacity="0"></stop></linearGradient><linearGradient id="__lottie_element_23" spreadMethod="pad" gradientUnits="userSpaceOnUse" x1="1.9900000095367432" y1="-102.85199737548828" x2="-0.6909999847412109" y2="3.999000072479248"><stop offset="0%" stop-color="rgb(219,110,0)" stop-opacity="1"></stop><stop offset="39%" stop-color="rgb(219,110,0)" stop-opacity="0.5"></stop><stop offset="71%" stop-color="rgb(219,110,0)" stop-opacity="0"></stop></linearGradient><linearGradient id="__lottie_element_24" spreadMethod="pad" gradientUnits="userSpaceOnUse" x1="0.3619999885559082" y1="-94.44999694824219" x2="-0.40400001406669617" y2="91.6780014038086"><stop offset="2%" stop-color="rgb(255,216,0)" stop-opacity="0"></stop><stop offset="16%" stop-color="rgb(255,216,0)" stop-opacity="0.5"></stop><stop offset="45%" stop-color="rgb(255,216,0)" stop-opacity="1"></stop><stop offset="90%" stop-color="rgb(255,216,0)" stop-opacity="0.5"></stop><stop offset="100%" stop-color="rgb(255,216,0)" stop-opacity="0"></stop></linearGradient><linearGradient id="__lottie_element_25" spreadMethod="pad" gradientUnits="userSpaceOnUse" x1="-0.8679999709129333" y1="-2.7200000286102295" x2="-0.9160000085830688" y2="17.577999114990234"><stop offset="0%" stop-color="rgb(255,168,0)" stop-opacity="1"></stop><stop offset="66%" stop-color="rgb(255,168,0)" stop-opacity="0.5"></stop><stop offset="100%" stop-color="rgb(255,168,0)" stop-opacity="0"></stop></linearGradient><linearGradient id="__lottie_element_26" spreadMethod="pad" gradientUnits="userSpaceOnUse" x1="-7.3979997634887695" y1="-9.86400032043457" x2="9.45300006866455" y2="12.604000091552734"><stop offset="0%" stop-color="rgb(60,5,0)"></stop><stop offset="38%" stop-color="rgb(110,45,0)"></stop><stop offset="100%" stop-color="rgb(160,84,0)"></stop></linearGradient><radialGradient id="__lottie_element_27" spreadMethod="pad" gradientUnits="userSpaceOnUse" cx="-0.1979999989271164" cy="-0.1899999976158142" r="9.630000159144402" fx="-0.1979999989271164" fy="-0.1899999976158142"><stop offset="0%" stop-color="rgb(246,175,0)" stop-opacity="1"></stop><stop offset="52%" stop-color="rgb(246,175,0)" stop-opacity="0.5"></stop><stop offset="100%" stop-color="rgb(246,175,0)" stop-opacity="0"></stop></radialGradient><linearGradient id="__lottie_element_28" spreadMethod="pad" gradientUnits="userSpaceOnUse" x1="-0.1080000028014183" y1="-5.544000148773193" x2="-0.04399999976158142" y2="4.4770002365112305"><stop offset="0%" stop-color="rgb(255,255,255)" stop-opacity="1"></stop><stop offset="58%" stop-color="rgb(255,255,255)" stop-opacity="0.5"></stop><stop offset="100%" stop-color="rgb(255,255,255)" stop-opacity="0"></stop></linearGradient><linearGradient id="__lottie_element_29" spreadMethod="pad" gradientUnits="userSpaceOnUse" x1="-4.626999855041504" y1="-6.863999843597412" x2="9.15999984741211" y2="13.145999908447266"><stop offset="0%" stop-color="rgb(60,5,0)"></stop><stop offset="38%" stop-color="rgb(110,45,0)"></stop><stop offset="100%" stop-color="rgb(160,84,0)"></stop></linearGradient><radialGradient id="__lottie_element_30" spreadMethod="pad" gradientUnits="userSpaceOnUse" cx="-0.39500001072883606" cy="-0.16899999976158142" r="9.629000216722488" fx="-0.39500001072883606" fy="-0.16899999976158142"><stop offset="0%" stop-color="rgb(246,175,0)" stop-opacity="1"></stop><stop offset="52%" stop-color="rgb(246,175,0)" stop-opacity="0.5"></stop><stop offset="100%" stop-color="rgb(246,175,0)" stop-opacity="0"></stop></radialGradient><linearGradient id="__lottie_element_31" spreadMethod="pad" gradientUnits="userSpaceOnUse" x1="-0.3370000123977661" y1="-6.544000148773193" x2="0.14100000262260437" y2="3.4130001068115234"><stop offset="0%" stop-color="rgb(255,255,255)" stop-opacity="1"></stop><stop offset="58%" stop-color="rgb(255,255,255)" stop-opacity="0.5"></stop><stop offset="100%" stop-color="rgb(255,255,255)" stop-opacity="0"></stop></linearGradient><linearGradient id="__lottie_element_32" spreadMethod="pad" gradientUnits="userSpaceOnUse" x1="0.13199999928474426" y1="11.404000282287598" x2="-0.44200000166893005" y2="-6.020999908447266"><stop offset="11%" stop-color="rgb(219,110,0)" stop-opacity="1"></stop><stop offset="50%" stop-color="rgb(219,110,0)" stop-opacity="0.5"></stop><stop offset="78%" stop-color="rgb(219,110,0)" stop-opacity="0"></stop></linearGradient><radialGradient id="__lottie_element_33" spreadMethod="pad" gradientUnits="userSpaceOnUse" cx="-0.8679999709129333" cy="-6.182000160217285" r="16.661000192165375" fx="-0.8679999709129333" fy="-6.182000160217285"><stop offset="40%" stop-color="rgb(255,168,0)" stop-opacity="0"></stop><stop offset="71%" stop-color="rgb(255,168,0)" stop-opacity="0.5"></stop><stop offset="100%" stop-color="rgb(255,168,0)" stop-opacity="1"></stop></radialGradient><linearGradient id="__lottie_element_34" spreadMethod="pad" gradientUnits="userSpaceOnUse" x1="-0.8679999709129333" y1="-5.940000057220459" x2="-0.5809999704360962" y2="3.490999937057495"><stop offset="0%" stop-color="rgb(255,255,255)" stop-opacity="1"></stop><stop offset="50%" stop-color="rgb(255,255,255)" stop-opacity="0.5"></stop><stop offset="100%" stop-color="rgb(255,255,255)" stop-opacity="0"></stop></linearGradient><radialGradient id="__lottie_element_35" spreadMethod="pad" gradientUnits="userSpaceOnUse" cx="-0.5099999904632568" cy="-0.8989999890327454" r="32.099000692367554" fx="-0.5099999904632568" fy="-0.8989999890327454"><stop offset="8%" stop-color="rgb(117,55,14)" stop-opacity="1"></stop><stop offset="57%" stop-color="rgb(117,55,14)" stop-opacity="0.5"></stop><stop offset="100%" stop-color="rgb(117,55,14)" stop-opacity="0"></stop></radialGradient><linearGradient id="__lottie_element_36" spreadMethod="pad" gradientUnits="userSpaceOnUse" x1="9.553999900817871" y1="-80.3030014038086" x2="3.4260001182556152" y2="33.569000244140625"><stop offset="14%" stop-color="rgb(255,169,0)" stop-opacity="0"></stop><stop offset="41%" stop-color="rgb(255,169,0)" stop-opacity="0.5"></stop><stop offset="67%" stop-color="rgb(255,169,0)" stop-opacity="1"></stop></linearGradient><linearGradient id="__lottie_element_37" spreadMethod="pad" gradientUnits="userSpaceOnUse" x1="0.2280000001192093" y1="87.36199951171875" x2="-8.45300006866455" y2="-89.06400299072266"><stop offset="8%" stop-color="rgb(218,110,0)" stop-opacity="0.30000001192092896"></stop><stop offset="28%" stop-color="rgb(218,110,0)" stop-opacity="0.6499999761581421"></stop><stop offset="69%" stop-color="rgb(218,110,0)" stop-opacity="1"></stop><stop offset="80%" stop-color="rgb(218,110,0)" stop-opacity="0.5"></stop><stop offset="100%" stop-color="rgb(218,110,0)" stop-opacity="0"></stop></linearGradient><linearGradient id="__lottie_element_38" spreadMethod="pad" gradientUnits="userSpaceOnUse" x1="-6.511000156402588" y1="-17.524999618530273" x2="8.041999816894531" y2="16.687999725341797"><stop offset="0%" stop-color="rgb(255,255,255)" stop-opacity="1"></stop><stop offset="50%" stop-color="rgb(255,255,255)" stop-opacity="0.5"></stop><stop offset="100%" stop-color="rgb(255,255,255)" stop-opacity="0"></stop></linearGradient><linearGradient id="__lottie_element_39" spreadMethod="pad" gradientUnits="userSpaceOnUse" x1="6.1479997634887695" y1="-33.49100112915039" x2="-8.916000366210938" y2="34.933998107910156"><stop offset="0%" stop-color="rgb(255,255,255)" stop-opacity="1"></stop><stop offset="50%" stop-color="rgb(255,255,255)" stop-opacity="0.5"></stop><stop offset="100%" stop-color="rgb(255,255,255)" stop-opacity="0"></stop></linearGradient><linearGradient id="__lottie_element_40" spreadMethod="pad" gradientUnits="userSpaceOnUse" x1="-3.0239999294281006" y1="51.53799819946289" x2="-0.2150000035762787" y2="-49.05699920654297"><stop offset="0%" stop-color="rgb(242,244,247)"></stop><stop offset="50%" stop-color="rgb(218,221,226)"></stop><stop offset="100%" stop-color="rgb(193,198,205)"></stop></linearGradient><linearGradient id="__lottie_element_41" spreadMethod="pad" gradientUnits="userSpaceOnUse" x1="-23.121999740600586" y1="-1.343000054359436" x2="28.45199966430664" y2="5.039999961853027"><stop offset="0%" stop-color="rgb(0,0,0)" stop-opacity="0"></stop><stop offset="50%" stop-color="rgb(50,31,0)" stop-opacity="0.4000000059604645"></stop><stop offset="100%" stop-color="rgb(101,61,0)" stop-opacity="0.800000011920929"></stop></linearGradient><linearGradient id="__lottie_element_42" spreadMethod="pad" gradientUnits="userSpaceOnUse" x1="21.83300018310547" y1="-2.1600000858306885" x2="-27.187999725341797" y2="6.010000228881836"><stop offset="0%" stop-color="rgb(0,0,0)" stop-opacity="0"></stop><stop offset="50%" stop-color="rgb(50,31,0)" stop-opacity="0.4000000059604645"></stop><stop offset="100%" stop-color="rgb(101,61,0)" stop-opacity="0.800000011920929"></stop></linearGradient></defs><g clip-path="url(#__lottie_element_2)"><g style="display: block;" transform="matrix(1,0,0,1,0,0)" opacity="1"><g opacity="1" transform="matrix(1,0,0,1,0,0)"><g opacity="1" transform="matrix(1,0,0,1,252.83900451660156,422.45098876953125)"><path fill="rgb(39,46,70)" fill-opacity="1" d=" M45.15599822998047,-48.42300033569336 C45.15599822998047,-48.42300033569336 45.15599822998047,-48.59000015258789 45.15599822998047,-48.59000015258789 C45.15599822998047,-48.59000015258789 -32.50400161743164,-50.59299850463867 -44.2239990234375,-48.590999603271484 C-44.2239990234375,-48.590999603271484 -44.2239990234375,-48.59000015258789 -44.2239990234375,-48.59000015258789 C-72.24700164794922,-47.05400085449219 -104.80799865722656,-41.422000885009766 -125.43699645996094,-21.235000610351562 C-139.45899963378906,-7.513000011444092 -146.85699462890625,13.758999824523926 -148.63900756835938,40.45899963378906 C-148.63900756835938,40.45899963378906 -140.38400268554688,48.55400085449219 -114.5009994506836,48.95500183105469 C-114.5009994506836,48.95500183105469 -25.43199920654297,48.8650016784668 4.254000186920166,49.24300003051758 C34.03099822998047,49.62200164794922 113.31800079345703,49.43299865722656 113.31800079345703,49.43299865722656 C137.2050018310547,49.4640007019043 148.63900756835938,40.35900115966797 148.63900756835938,40.35900115966797 C145.4010009765625,-30.503999710083008 93.84200286865234,-45.696998596191406 45.15599822998047,-48.42300033569336z"></path></g><g opacity="1" transform="matrix(1,0,0,1,122.24700164794922,438.2409973144531)"><path fill="url(#__lottie_element_14)" fill-opacity="1" d=" M1.656000018119812,-33.22800064086914 C1.656000018119812,-33.22800064086914 -15.23900032043457,6.560999870300293 -15.23900032043457,6.560999870300293 C-15.23900032043457,6.560999870300293 -18.04800033569336,23.902000427246094 -18.04800033569336,23.902000427246094 C-18.04800033569336,23.902000427246094 -15.345999717712402,27.98699951171875 -4.132999897003174,30.68899917602539 C9.631999969482422,34.00600051879883 18.04800033569336,33.12099838256836 18.04800033569336,33.12099838256836 C18.04800033569336,33.12099838256836 1.656000018119812,-33.22800064086914 1.656000018119812,-33.22800064086914z"></path></g><g opacity="1" transform="matrix(1,0,0,1,383.49700927734375,440.3240051269531)"><path fill="url(#__lottie_element_15)" fill-opacity="1" d=" M-2.3529999256134033,-31.683000564575195 C-2.3529999256134033,-31.683000564575195 15.723999977111816,3.3289999961853027 15.723999977111816,3.3289999961853027 C15.723999977111816,3.3289999961853027 18.531999588012695,21.670000076293945 18.531999588012695,21.670000076293945 C18.531999588012695,21.670000076293945 12.437999725341797,27.670000076293945 0,29.797000885009766 C-15.135000228881836,32.3849983215332 -18.531999588012695,31.55699920654297 -18.531999588012695,31.55699920654297 C-18.531999588012695,31.55699920654297 -2.3529999256134033,-31.683000564575195 -2.3529999256134033,-31.683000564575195z"></path></g><g opacity="1" transform="matrix(1,0,0,1,355.2349853515625,428.9100036621094)"><path fill="url(#__lottie_element_16)" fill-opacity="1" d=" M-4.307000160217285,-42.972999572753906 C-4.307000160217285,-42.972999572753906 -23.857999801635742,42.53900146484375 -23.857999801635742,42.53900146484375 C-23.857999801635742,42.53900146484375 10.92199993133545,42.972999572753906 10.92199993133545,42.972999572753906 C10.92199993133545,42.972999572753906 16.113000869750977,22.88800048828125 18.922000885009766,8.465999603271484 C20.343000411987305,1.1690000295639038 23.857999801635742,-20.857999801635742 23.857999801635742,-20.857999801635742 C23.857999801635742,-20.857999801635742 12.156000137329102,-33.78900146484375 12.156000137329102,-33.78900146484375 C12.156000137329102,-33.78900146484375 -4.307000160217285,-42.972999572753906 -4.307000160217285,-42.972999572753906z"></path></g><g opacity="1" transform="matrix(1,0,0,1,154.3560028076172,428.0150146484375)"><path fill="url(#__lottie_element_17)" fill-opacity="1" d=" M-0.4650000035762787,-43.58000183105469 C-0.4650000035762787,-43.58000183105469 26.952999114990234,43.58000183105469 26.952999114990234,43.58000183105469 C26.952999114990234,43.58000183105469 -14.0600004196167,43.34700012207031 -14.0600004196167,43.34700012207031 C-14.0600004196167,43.34700012207031 -19.513999938964844,22.719999313354492 -22.322999954223633,8.29800033569336 C-23.743999481201172,1.0010000467300415 -26.952999114990234,-23.31599998474121 -26.952999114990234,-23.31599998474121 C-26.952999114990234,-23.31599998474121 -16.927000045776367,-34.395999908447266 -16.927000045776367,-34.395999908447266 C-16.927000045776367,-34.395999908447266 -0.4650000035762787,-43.58000183105469 -0.4650000035762787,-43.58000183105469z"></path></g><g opacity="1" transform="matrix(1,0,0,1,252.8350067138672,399.9219970703125)"><g opacity="1" transform="matrix(1,0,0,1,0,0)"><path fill="url(#__lottie_element_18)" fill-opacity="1" d=" M44.220001220703125,-26.059999465942383 C102.34300231933594,-17.1200008392334 130.30999755859375,9.718000411987305 130.30999755859375,9.718000411987305 C130.30999755859375,9.718000411987305 125.66100311279297,26.059999465942383 125.66100311279297,26.059999465942383 C125.66100311279297,26.059999465942383 -124.66100311279297,26.059999465942383 -124.66100311279297,26.059999465942383 C-124.66100311279297,26.059999465942383 -130.30999755859375,8.718000411987305 -130.30999755859375,8.718000411987305 C-130.30999755859375,8.718000411987305 -102.93299865722656,-17.1200008392334 -44.220001220703125,-26.059999465942383 C-44.220001220703125,-26.059999465942383 44.220001220703125,-26.059999465942383 44.220001220703125,-26.059999465942383z"></path></g></g><g opacity="1" transform="matrix(1,0,0,1,373.04998779296875,439.97100830078125)"><path stroke-linecap="butt" stroke-linejoin="miter" fill-opacity="0" stroke-miterlimit="10" stroke="rgb(22,26,38)" stroke-opacity="1" stroke-width="6" d=" M6.89300012588501,-31.91200065612793 C6.89300012588501,-31.91200065612793 -6.89300012588501,24.006999969482422 -6.89300012588501,31.91200065612793"></path></g><g opacity="1" transform="matrix(1,0,0,1,132.0330047607422,437.1260070800781)"><path stroke-linecap="butt" stroke-linejoin="miter" fill-opacity="0" stroke-miterlimit="10" stroke="rgb(22,26,38)" stroke-opacity="1" stroke-width="6" d=" M-7.307000160217285,-34.066001892089844 C-7.307000160217285,-34.066001892089844 7.307000160217285,29.259000778198242 7.307000160217285,34.066001892089844"></path></g><g opacity="0.5700000000000001" transform="matrix(1,0,0,1,155.3489990234375,417.6239929199219)"><path fill="rgb(96,96,96)" fill-opacity="1" d=" M49.150001525878906,-36.3129997253418 C49.150001525878906,-36.3129997253418 1.8049999475479126,-33.323001861572266 -23.75200080871582,-8.651000022888184 C-39.49399948120117,6.546000003814697 -51.08599853515625,53.551998138427734 -48.880001068115234,45.01499938964844 C-48.880001068115234,45.01499938964844 -43.99599838256836,-1.246999979019165 -27.430999755859375,-15.704999923706055 C-6.190999984741211,-34.24300003051758 46.404998779296875,-46.042999267578125 46.404998779296875,-46.042999267578125 C46.404998779296875,-46.042999267578125 49.150001525878906,-36.3129997253418 49.150001525878906,-36.3129997253418z"></path></g><g opacity="0.5700000000000001" transform="matrix(1,0,0,1,348.70098876953125,418.4460144042969)"><path fill="rgb(96,96,96)" fill-opacity="1" d=" M-49.150001525878906,-34.323001861572266 C-49.150001525878906,-34.323001861572266 -1.8049999475479126,-32.33300018310547 23.75200080871582,-7.660999774932861 C39.49399948120117,7.535999774932861 51.08599853515625,53.54199981689453 48.880001068115234,45.005001068115234 C48.880001068115234,45.005001068115234 43.99599838256836,-1.2569999694824219 27.430999755859375,-15.71500015258789 C6.190999984741211,-34.25299835205078 -46.404998779296875,-46.053001403808594 -46.404998779296875,-46.053001403808594 C-46.404998779296875,-46.053001403808594 -49.150001525878906,-34.323001861572266 -49.150001525878906,-34.323001861572266z"></path></g><g opacity="1" transform="matrix(1,0,0,1,0,0)"><g opacity="1" transform="matrix(1,0,0,1,398.864990234375,460.9800109863281)"><path fill="rgb(22,26,38)" fill-opacity="1" d=" M-4.13100004196167,-4.742000102996826 C-4.13100004196167,-4.742000102996826 -3.1480000019073486,1.4509999752044678 -2.7190001010894775,4.742000102996826 C-2.7190001010894775,4.742000102996826 4.627999782562256,2.812000036239624 4.104000091552734,-1.4600000381469727 C4.104000091552734,-1.4600000381469727 -4.13100004196167,-4.742000102996826 -4.13100004196167,-4.742000102996826z"></path></g><g opacity="1" transform="matrix(1,0,0,1,345.114990234375,414.6419982910156)"><path stroke-linecap="round" stroke-linejoin="round" fill-opacity="0" stroke="rgb(22,26,38)" stroke-opacity="1" stroke-width="8" d=" M54.058998107910156,44.74800109863281 C53.395999908447266,39.540000915527344 52.14699935913086,28.077999114990234 47.74599838256836,14.175999641418457 C41.992000579833984,-4.000999927520752 36.54800033569336,-7.000999927520752 36.54800033569336,-7.000999927520752 C25.16200065612793,-27.513999938964844 -41.71699905395508,-41.67100143432617 -54.058998107910156,-44.74800109863281"></path></g></g><g opacity="1" transform="matrix(1,0,0,1,0,0)"><g opacity="1" transform="matrix(1,0,0,1,103.67900085449219,458.98199462890625)"><path fill="rgb(22,26,38)" fill-opacity="1" d=" M4.13100004196167,-4.742000102996826 C4.13100004196167,-4.742000102996826 3.1480000019073486,1.4509999752044678 2.7190001010894775,4.742000102996826 C2.7190001010894775,4.742000102996826 -4.627999782562256,2.812000036239624 -4.104000091552734,-1.4600000381469727 C-4.104000091552734,-1.4600000381469727 4.13100004196167,-4.742000102996826 4.13100004196167,-4.742000102996826z"></path></g><g opacity="1" transform="matrix(1,0,0,1,156.92999267578125,413.8340148925781)"><path stroke-linecap="round" stroke-linejoin="round" fill-opacity="0" stroke="rgb(22,26,38)" stroke-opacity="1" stroke-width="8" d=" M-53.558998107910156,43.55799865722656 C-52.895999908447266,38.349998474121094 -51.64699935913086,26.88800048828125 -47.24599838256836,12.986000061035156 C-41.492000579833984,-5.190999984741211 -36.04800033569336,-8.192000389099121 -36.04800033569336,-8.192000389099121 C-24.66200065612793,-28.704999923706055 39.49599838256836,-40.86399841308594 53.558998107910156,-43.55799865722656"></path></g></g></g><g opacity="1" transform="matrix(1,0,0,1,0,0)"><g opacity="1" transform="matrix(1,0,0,1,0,0)"><g opacity="1" transform="matrix(1,0,0,1,256.3450012207031,229.43899536132812)"><path fill="rgb(159,84,2)" fill-opacity="1" d=" M104.70700073242188,-85.75499725341797 C70.1719970703125,-139.8699951171875 -1.996999979019165,-138.4530029296875 -1.996999979019165,-138.4530029296875 C-1.996999979019165,-138.4530029296875 -74.16600036621094,-139.8699951171875 -108.70099639892578,-85.75499725341797 C-143.23599243164062,-31.639999389648438 -160.38699340820312,70.13700103759766 -152.5030059814453,107.43900299072266 C-145.43899536132812,140.85899353027344 -46.92300033569336,138.41700744628906 -1.996999979019165,138.41700744628906 C42.92900085449219,138.41700744628906 155.58799743652344,133.572998046875 154.38600158691406,107.43900299072266 C151.38699340820312,42.222999572753906 139.24099731445312,-31.639999389648438 104.70700073242188,-85.75499725341797z"></path></g><g opacity="1" transform="matrix(1,0,0,1,161.05599975585938,298.9809875488281)"><path fill="url(#__lottie_element_19)" fill-opacity="1" d=" M35.733001708984375,68.63300323486328 C22.8700008392334,67.2040023803711 11.869999885559082,64.53299713134766 2.882999897003174,63.51599884033203 C-49.63100051879883,57.573001861572266 -54.60100173950195,47.729000091552734 -58.58300018310547,29.488000869750977 C-60.382999420166016,21.218000411987305 -61.32099914550781,10.777999877929688 -61.441001892089844,-1.2879999876022339 C-58.15700149536133,-24.329999923706055 -46.73500061035156,-80.625 -15.630999565124512,-66.34400177001953 C7.377999782562256,-55.79399871826172 6.047999858856201,-35.05500030517578 42.236000061035156,4.701000213623047 C74.00599670410156,39.60200119018555 62.494998931884766,68.38200378417969 35.733001708984375,68.63300323486328z"></path></g><g opacity="1" transform="matrix(1,0,0,1,351.8940124511719,298.9809875488281)"><path fill="url(#__lottie_element_20)" fill-opacity="1" d=" M-34.78200149536133,68.63300323486328 C-21.91900062561035,67.2040023803711 -10.918999671936035,64.53299713134766 -1.9320000410079956,63.51599884033203 C50.582000732421875,57.573001861572266 55.551998138427734,47.729000091552734 59.534000396728516,29.488000869750977 C61.33399963378906,21.218000411987305 60.016998291015625,10.777999877929688 60.137001037597656,-1.2879999876022339 C56.85300064086914,-24.329999923706055 47.68600082397461,-80.625 16.582000732421875,-66.34400177001953 C-6.427000045776367,-55.79399871826172 -5.0960001945495605,-35.05500030517578 -41.284000396728516,4.701000213623047 C-73.05400085449219,39.60200119018555 -61.54399871826172,68.38200378417969 -34.78200149536133,68.63300323486328z"></path></g><g opacity="1" transform="matrix(1,0,0,1,256.1600036621094,235.781005859375)"><path stroke-linecap="round" stroke-linejoin="round" fill-opacity="0" stroke="rgb(163,65,0)" stroke-opacity="1" stroke-width="8" d=" M104.89199829101562,-92.09700012207031 C70.35700225830078,-146.21200561523438 -71.5530014038086,-144.58399963378906 -108.51599884033203,-92.09700012207031 C-150.25,-32.83399963378906 -160.45700073242188,63.85100173950195 -152.3179931640625,101.0979995727539 C-149.57200622558594,113.66699981689453 -134.00799560546875,119.16000366210938 -109.9530029296875,124.5459976196289 C-65.12100219726562,134.58399963378906 67.38300323486328,134.58399963378906 112.20600128173828,124.5459976196289 C133.95599365234375,119.67500305175781 153.97500610351562,113.94999694824219 154.5709991455078,101.0979995727539 C157.5959930419922,35.882999420166016 139.427001953125,-37.981998443603516 104.89199829101562,-92.09700012207031z"></path></g></g><g opacity="1" transform="matrix(1,0,0,1,254.50999450683594,360.385009765625)"><path fill="rgb(192,98,0)" fill-opacity="1" d=" M40.07600021362305,-25.799999237060547 C40.07600021362305,-25.799999237060547 0,-22.756999969482422 0,-22.756999969482422 C0,-22.756999969482422 -40.07600021362305,-25.799999237060547 -40.07600021362305,-25.799999237060547 C-40.07600021362305,-25.799999237060547 -41.0620002746582,19.0049991607666 -41.0620002746582,19.0049991607666 C-41.0620002746582,19.0049991607666 -23.204999923706055,25.799999237060547 0,25.799999237060547 C23.204999923706055,25.799999237060547 41.0620002746582,19.0049991607666 41.0620002746582,19.0049991607666 C41.0620002746582,19.0049991607666 40.07600021362305,-25.799999237060547 40.07600021362305,-25.799999237060547z"></path></g><g opacity="1" transform="matrix(1,0,0,1,254.50999450683594,360.385009765625)"><path fill="url(#__lottie_element_21)" fill-opacity="1" d=" M40.07600021362305,-25.799999237060547 C40.07600021362305,-25.799999237060547 0,-22.756999969482422 0,-22.756999969482422 C0,-22.756999969482422 -40.07600021362305,-25.799999237060547 -40.07600021362305,-25.799999237060547 C-40.07600021362305,-25.799999237060547 -41.0620002746582,19.0049991607666 -41.0620002746582,19.0049991607666 C-41.0620002746582,19.0049991607666 -23.204999923706055,25.799999237060547 0,25.799999237060547 C23.204999923706055,25.799999237060547 41.0620002746582,19.0049991607666 41.0620002746582,19.0049991607666 C41.0620002746582,19.0049991607666 40.07600021362305,-25.799999237060547 40.07600021362305,-25.799999237060547z"></path></g><g opacity="1" transform="matrix(1,0,0,1,255.3520050048828,384.51300048828125)"><path fill="url(#__lottie_element_22)" fill-opacity="1" d=" M41.90399932861328,-24.128000259399414 C41.90399932861328,-24.128000259399414 -40.50899887084961,-23.135000228881836 -40.50899887084961,-23.135000228881836 C-40.50899887084961,-23.135000228881836 -41.90399932861328,4.876999855041504 -41.90399932861328,4.876999855041504 C-41.90399932861328,4.876999855041504 -24.68899917602539,24.128000259399414 -1.4839999675750732,24.128000259399414 C21.763999938964844,24.128000259399414 22.506000518798828,8.657999992370605 40.220001220703125,6.876999855041504 C40.220001220703125,6.876999855041504 41.90399932861328,-24.128000259399414 41.90399932861328,-24.128000259399414z"></path></g><g opacity="1" transform="matrix(1,0,0,1,254.50999450683594,355.48699951171875)"><path stroke-linecap="round" stroke-linejoin="round" fill-opacity="0" stroke="rgb(163,65,0)" stroke-opacity="1" stroke-width="8" d=" M41.0620002746582,20.902000427246094 C41.0620002746582,20.902000427246094 40.07600021362305,-20.902000427246094 40.07600021362305,-20.902000427246094 C40.07600021362305,-20.902000427246094 0,-17.858999252319336 0,-17.858999252319336 C0,-17.858999252319336 -40.07600021362305,-20.902000427246094 -40.07600021362305,-20.902000427246094 C-40.07600021362305,-20.902000427246094 -41.0620002746582,20.902000427246094 -41.0620002746582,20.902000427246094"></path></g><g opacity="1" transform="matrix(1,0,0,1,0,0)"><g opacity="1" transform="matrix(1,0,0,1,253.8679962158203,217.8520050048828)"><path fill="rgb(255,168,0)" fill-opacity="1" d=" M84.1050033569336,-85.427001953125 C64.52899932861328,-112.61599731445312 38.75199890136719,-128.60400390625 0,-128.60400390625 C-38.75199890136719,-128.60400390625 -64.52899932861328,-112.61599731445312 -84.1050033569336,-85.427001953125 C-103.68099975585938,-58.237998962402344 -119.99500274658203,5.165999889373779 -94.43699645996094,58.457000732421875 C-68.87899780273438,111.74800109863281 -25.701000213623047,128.60400390625 0,128.60400390625 C25.701000213623047,128.60400390625 68.87899780273438,111.74800109863281 94.43699645996094,58.457000732421875 C119.99500274658203,5.165999889373779 103.68099975585938,-58.237998962402344 84.1050033569336,-85.427001953125z"></path></g><g opacity="1" transform="matrix(1,0,0,1,254.00999450683594,217.8520050048828)"><path fill="url(#__lottie_element_23)" fill-opacity="1" d=" M84.1050033569336,-85.427001953125 C64.52899932861328,-112.61599731445312 38.75199890136719,-128.60400390625 0,-128.60400390625 C-38.75199890136719,-128.60400390625 -64.52899932861328,-112.61599731445312 -84.1050033569336,-85.427001953125 C-103.68099975585938,-58.237998962402344 -119.99500274658203,5.165999889373779 -94.43699645996094,58.457000732421875 C-68.87999725341797,111.74800109863281 -25.701000213623047,128.60400390625 0,128.60400390625 C25.701000213623047,128.60400390625 68.87899780273438,111.74800109863281 94.43699645996094,58.457000732421875 C119.99500274658203,5.165999889373779 103.68099975585938,-58.237998962402344 84.1050033569336,-85.427001953125z"></path></g><g opacity="1" transform="matrix(1,0,0,1,253.8679962158203,217.8520050048828)"><path stroke-linecap="round" stroke-linejoin="round" fill-opacity="0" stroke="rgb(219,110,0)" stroke-opacity="1" stroke-width="8" d=" M84.1050033569336,-85.427001953125 C64.52899932861328,-112.61599731445312 38.75199890136719,-128.60400390625 0,-128.60400390625 C-38.75199890136719,-128.60400390625 -64.52899932861328,-112.61599731445312 -84.1050033569336,-85.427001953125 C-103.68099975585938,-58.237998962402344 -119.99500274658203,5.165999889373779 -94.43699645996094,58.457000732421875 C-68.87899780273438,111.74800109863281 -25.701000213623047,128.60400390625 0,128.60400390625 C25.701000213623047,128.60400390625 68.87899780273438,111.74800109863281 94.43699645996094,58.457000732421875 C119.99500274658203,5.165999889373779 103.68099975585938,-58.237998962402344 84.1050033569336,-85.427001953125z"></path></g><g opacity="1" transform="matrix(1,0,0,1,252.63800048828125,237.4499969482422)"><path fill="url(#__lottie_element_24)" fill-opacity="1" d=" M76.88999938964844,-28.52400016784668 C76.88999938964844,-28.52400016784668 39.21500015258789,-40.696998596191406 16.11400032043457,-51.9379997253418 C-12.446999549865723,-65.83499908447266 -34.80799865722656,-82.3219985961914 -47.207000732421875,-92.34300231933594 C-47.207000732421875,-92.34300231933594 -57.01300048828125,-63.159000396728516 -72.78600311279297,-46.380001068115234 C-97.6729965209961,-19.905000686645508 -95.5250015258789,11.411999702453613 -74.72000122070312,45.95199966430664 C-53.915000915527344,80.49199676513672 -19.691999435424805,92.34300231933594 1.2300000190734863,92.34300231933594 C22.152000427246094,92.34300231933594 56.375,80.49199676513672 77.18000030517578,45.95199966430664 C97.98500061035156,11.411999702453613 92.82599639892578,-10.901000022888184 76.88999938964844,-28.52400016784668z"></path></g><g opacity="1" transform="matrix(1,0,0,1,253.8679962158203,283.7200012207031)"><path fill="url(#__lottie_element_25)" fill-opacity="1" d=" M15.809000015258789,0.09200000017881393 C15.809000015258789,6.732999801635742 8.241000175476074,12.637999534606934 0,12.637999534606934 C-8.241000175476074,12.637999534606934 -15.809000015258789,6.732999801635742 -15.809000015258789,0.09200000017881393 C-15.809000015258789,-6.548999786376953 -8.241000175476074,-12.637999534606934 0,-12.637999534606934 C8.241000175476074,-12.637999534606934 15.809000015258789,-6.548999786376953 15.809000015258789,0.09200000017881393z"></path></g></g><g opacity="1" transform="matrix(1,0,0,1,0,0)"><g opacity="1" transform="matrix(1,0,0,1,0,0)"><g opacity="1" transform="matrix(1,0,0,1,310.39801025390625,228.9770050048828)"><path fill="rgb(255,255,255)" fill-opacity="1" d=" M-32.17100143432617,12.375 C-32.17100143432617,12.375 -29.378000259399414,-20.959999084472656 -1.649999976158142,-23.7450008392334 C23.815000534057617,-26.30299949645996 32.17100143432617,3.2279999256134033 32.17100143432617,3.2279999256134033 C32.17100143432617,3.2279999256134033 25.31599998474121,21.10300064086914 3.0239999294281006,23.54800033569336 C-21.827999114990234,26.273000717163086 -32.17100143432617,12.375 -32.17100143432617,12.375z"></path></g><g opacity="1" transform="matrix(1,0,0,1,0,0)"><g opacity="1" transform="matrix(1,0,0,1,310.39801025390625,227.86399841308594)"><path fill="url(#__lottie_element_26)" fill-opacity="1" d=" M17.871000289916992,0 C17.871000289916992,10.458999633789062 9.869999885559082,18.937999725341797 0,18.937999725341797 C-9.869999885559082,18.937999725341797 -17.871000289916992,10.458999633789062 -17.871000289916992,0 C-17.871000289916992,-10.458999633789062 -9.869999885559082,-18.937999725341797 0,-18.937999725341797 C9.869999885559082,-18.937999725341797 17.871000289916992,-10.458999633789062 17.871000289916992,0z"></path></g><g opacity="1" transform="matrix(1,0,0,1,319.197998046875,238.16799926757812)"><g opacity="1" transform="matrix(1,0,0,1,0,0)"><path fill="url(#__lottie_element_27)" fill-opacity="1" d=" M-4.629000186920166,7.820000171661377 C-6.039999961853027,7.820000171661377 -7.3470001220703125,6.908999919891357 -7.784999847412109,5.489999771118164 C-8.322999954223633,3.746999979019165 -7.34499979019165,1.8980000019073486 -5.6020002365112305,1.3609999418258667 C-2.2679998874664307,0.3330000042915344 0.3869999945163727,-2.257999897003174 1.4980000257492065,-5.567999839782715 C2.0789999961853027,-7.297999858856201 3.9539999961853027,-8.22700023651123 5.678999900817871,-7.6479997634887695 C7.408999919891357,-7.067999839782715 8.340999603271484,-5.195000171661377 7.760000228881836,-3.4660000801086426 C5.973999977111816,1.8550000190734863 1.7070000171661377,6.019000053405762 -3.6549999713897705,7.672999858856201 C-3.9790000915527344,7.7729997634887695 -4.307000160217285,7.820000171661377 -4.629000186920166,7.820000171661377z"></path></g></g><g opacity="1" transform="matrix(1,0,0,1,310.39801025390625,227.86399841308594)"><path fill="rgb(23,19,10)" fill-opacity="1" d=" M11.293999671936035,0 C11.293999671936035,6.610000133514404 6.23799991607666,11.968999862670898 0,11.968999862670898 C-6.23799991607666,11.968999862670898 -11.293999671936035,6.610000133514404 -11.293999671936035,0 C-11.293999671936035,-6.610000133514404 -6.23799991607666,-11.968999862670898 0,-11.968999862670898 C6.23799991607666,-11.968999862670898 11.293999671936035,-6.610000133514404 11.293999671936035,0z"></path></g></g><g opacity="1" transform="matrix(1,0,0,1,310.39801025390625,222.71099853515625)"><path fill="rgb(163,65,0)" fill-opacity="1" d=" M-32.17100143432617,18.641000747680664 C-32.17100143432617,18.641000747680664 -30.83799934387207,-15.560999870300293 0,-18.503999710083008 C12.66100025177002,-19.711999893188477 23.385000228881836,-12.746999740600586 28.02199935913086,-4.489999771118164 C31.926000595092773,2.4630000591278076 32.17100143432617,9.494000434875488 32.17100143432617,9.494000434875488 C32.17100143432617,9.494000434875488 29.259000778198242,-17.0310001373291 0.9929999709129333,-15.675000190734863 C-29.256000518798828,-14.223999977111816 -32.17100143432617,18.641000747680664 -32.17100143432617,18.641000747680664z"></path><path stroke-linecap="round" stroke-linejoin="round" fill-opacity="0" stroke="rgb(163,65,0)" stroke-opacity="1" stroke-width="2" d=" M-32.17100143432617,18.641000747680664 C-32.17100143432617,18.641000747680664 -30.83799934387207,-15.560999870300293 0,-18.503999710083008 C12.66100025177002,-19.711999893188477 23.385000228881836,-12.746999740600586 28.02199935913086,-4.489999771118164 C31.926000595092773,2.4630000591278076 32.17100143432617,9.494000434875488 32.17100143432617,9.494000434875488 C32.17100143432617,9.494000434875488 29.259000778198242,-17.0310001373291 0.9929999709129333,-15.675000190734863 C-29.256000518798828,-14.223999977111816 -32.17100143432617,18.641000747680664 -32.17100143432617,18.641000747680664z"></path></g><g opacity="1" transform="matrix(1,0,0,1,305.1080017089844,217.54400634765625)"><path fill="url(#__lottie_element_28)" fill-opacity="1" d=" M4.289000034332275,0 C4.289000034332275,2.509999990463257 2.36899995803833,4.545000076293945 0,4.545000076293945 C-2.36899995803833,4.545000076293945 -4.289000034332275,2.509999990463257 -4.289000034332275,0 C-4.289000034332275,-2.509999990463257 -2.36899995803833,-4.545000076293945 0,-4.545000076293945 C2.36899995803833,-4.545000076293945 4.289000034332275,-2.509999990463257 4.289000034332275,0z"></path></g></g><g opacity="1" transform="matrix(1,0,0,1,0,0)"><g opacity="1" transform="matrix(1,0,0,1,198.4759979248047,228.9770050048828)"><path fill="rgb(255,255,255)" fill-opacity="1" d=" M32.16999816894531,12.375 C32.16999816894531,12.375 29.378000259399414,-20.959999084472656 1.649999976158142,-23.7450008392334 C-23.815000534057617,-26.30299949645996 -32.16999816894531,3.2279999256134033 -32.16999816894531,3.2279999256134033 C-32.16999816894531,3.2279999256134033 -25.316999435424805,21.10300064086914 -3.0250000953674316,23.54800033569336 C21.82699966430664,26.273000717163086 32.16999816894531,12.375 32.16999816894531,12.375z"></path></g><g opacity="1" transform="matrix(1,0,0,1,0,0)"><g opacity="1" transform="matrix(1,0,0,1,199.6269989013672,227.86399841308594)"><path fill="url(#__lottie_element_29)" fill-opacity="1" d=" M17.871000289916992,0 C17.871000289916992,10.458999633789062 9.869999885559082,18.937999725341797 0,18.937999725341797 C-9.869999885559082,18.937999725341797 -17.871000289916992,10.458999633789062 -17.871000289916992,0 C-17.871000289916992,-10.458999633789062 -9.869999885559082,-18.937999725341797 0,-18.937999725341797 C9.869999885559082,-18.937999725341797 17.871000289916992,-10.458999633789062 17.871000289916992,0z"></path></g><g opacity="1" transform="matrix(1,0,0,1,208.39500427246094,238.16799926757812)"><g opacity="1" transform="matrix(1,0,0,1,0,0)"><path fill="url(#__lottie_element_30)" fill-opacity="1" d=" M-4.629000186920166,7.820000171661377 C-6.039999961853027,7.820000171661377 -7.3470001220703125,6.908999919891357 -7.784999847412109,5.489999771118164 C-8.322999954223633,3.746999979019165 -7.34499979019165,1.8980000019073486 -5.6020002365112305,1.3609999418258667 C-2.2679998874664307,0.3330000042915344 0.3869999945163727,-2.257999897003174 1.4980000257492065,-5.567999839782715 C2.0789999961853027,-7.297999858856201 3.9539999961853027,-8.22700023651123 5.678999900817871,-7.6479997634887695 C7.408999919891357,-7.067999839782715 8.340999603271484,-5.195000171661377 7.760000228881836,-3.4660000801086426 C5.973999977111816,1.8550000190734863 1.7070000171661377,6.019000053405762 -3.6549999713897705,7.672999858856201 C-3.9790000915527344,7.7729997634887695 -4.307000160217285,7.820000171661377 -4.629000186920166,7.820000171661377z"></path></g></g><g opacity="1" transform="matrix(1,0,0,1,199.6269989013672,227.86399841308594)"><path fill="rgb(23,19,10)" fill-opacity="1" d=" M11.293999671936035,0 C11.293999671936035,6.610000133514404 6.23799991607666,11.968999862670898 0,11.968999862670898 C-6.23799991607666,11.968999862670898 -11.293999671936035,6.610000133514404 -11.293999671936035,0 C-11.293999671936035,-6.610000133514404 -6.23799991607666,-11.968999862670898 0,-11.968999862670898 C6.23799991607666,-11.968999862670898 11.293999671936035,-6.610000133514404 11.293999671936035,0z"></path></g><g opacity="1" transform="matrix(1,0,0,1,194.33700561523438,217.54400634765625)"><path fill="url(#__lottie_element_31)" fill-opacity="1" d=" M4.289000034332275,0 C4.289000034332275,2.509999990463257 2.36899995803833,4.545000076293945 0,4.545000076293945 C-2.36899995803833,4.545000076293945 -4.289000034332275,2.509999990463257 -4.289000034332275,0 C-4.289000034332275,-2.509999990463257 -2.36899995803833,-4.545000076293945 0,-4.545000076293945 C2.36899995803833,-4.545000076293945 4.289000034332275,-2.509999990463257 4.289000034332275,0z"></path></g></g><g opacity="1" transform="matrix(1,0,0,1,198.4759979248047,222.71099853515625)"><path fill="rgb(163,65,0)" fill-opacity="1" d=" M32.16999816894531,18.641000747680664 C32.16999816894531,18.641000747680664 30.83799934387207,-15.560999870300293 0,-18.503999710083008 C-12.66100025177002,-19.711999893188477 -23.385000228881836,-12.746999740600586 -28.02199935913086,-4.489999771118164 C-31.926000595092773,2.4630000591278076 -32.16999816894531,9.494000434875488 -32.16999816894531,9.494000434875488 C-32.16999816894531,9.494000434875488 -29.259000778198242,-17.0310001373291 -0.9929999709129333,-15.675000190734863 C29.256000518798828,-14.223999977111816 32.16999816894531,18.641000747680664 32.16999816894531,18.641000747680664z"></path><path stroke-linecap="round" stroke-linejoin="round" fill-opacity="0" stroke="rgb(163,65,0)" stroke-opacity="1" stroke-width="2" d=" M32.16999816894531,18.641000747680664 C32.16999816894531,18.641000747680664 30.83799934387207,-15.560999870300293 0,-18.503999710083008 C-12.66100025177002,-19.711999893188477 -23.385000228881836,-12.746999740600586 -28.02199935913086,-4.489999771118164 C-31.926000595092773,2.4630000591278076 -32.16999816894531,9.494000434875488 -32.16999816894531,9.494000434875488 C-32.16999816894531,9.494000434875488 -29.259000778198242,-17.0310001373291 -0.9929999709129333,-15.675000190734863 C29.256000518798828,-14.223999977111816 32.16999816894531,18.641000747680664 32.16999816894531,18.641000747680664z"></path></g></g></g><g opacity="1" transform="matrix(1,0,0,1,0,0)"><g opacity="0.8" transform="matrix(1,0,0,1,253.8679962158203,277.59600830078125)"><path fill="rgb(255,168,0)" fill-opacity="1" d=" M15.809000015258789,-0.13600000739097595 C15.809000015258789,6.2270002365112305 8.730999946594238,11.385000228881836 0,11.385000228881836 C-8.730999946594238,11.385000228881836 -15.809000015258789,6.2270002365112305 -15.809000015258789,-0.13600000739097595 C-15.809000015258789,-6.499000072479248 -8.730999946594238,-11.385000228881836 0,-11.385000228881836 C8.730999946594238,-11.385000228881836 15.809000015258789,-6.499000072479248 15.809000015258789,-0.13600000739097595z"></path></g><g opacity="0.7000000000000001" transform="matrix(1,0,0,1,253.8679962158203,277.59600830078125)"><path fill="url(#__lottie_element_32)" fill-opacity="1" d=" M15.809000015258789,-0.13600000739097595 C15.809000015258789,6.2270002365112305 8.730999946594238,11.385000228881836 0,11.385000228881836 C-8.730999946594238,11.385000228881836 -15.809000015258789,6.2270002365112305 -15.809000015258789,-0.13600000739097595 C-15.809000015258789,-6.499000072479248 -8.730999946594238,-11.385000228881836 0,-11.385000228881836 C8.730999946594238,-11.385000228881836 15.809000015258789,-6.499000072479248 15.809000015258789,-0.13600000739097595z"></path></g><g opacity="1" transform="matrix(1,0,0,1,253.8679962158203,274.2120056152344)"><path fill="rgb(255,216,0)" fill-opacity="1" d=" M13.675999641418457,-0.3889999985694885 C13.675999641418457,4.3480000495910645 7.552999973297119,8.187999725341797 0,8.187999725341797 C-7.552999973297119,8.187999725341797 -13.675999641418457,4.3480000495910645 -13.675999641418457,-0.3889999985694885 C-13.675999641418457,-5.125999927520752 -7.552999973297119,-8.187999725341797 0,-8.187999725341797 C7.552999973297119,-8.187999725341797 13.675999641418457,-5.125999927520752 13.675999641418457,-0.3889999985694885z"></path></g><g opacity="1" transform="matrix(1,0,0,1,253.8679962158203,274.2120056152344)"><path fill="url(#__lottie_element_33)" fill-opacity="1" d=" M13.675999641418457,-0.3889999985694885 C13.675999641418457,4.3480000495910645 7.552999973297119,8.187999725341797 0,8.187999725341797 C-7.552999973297119,8.187999725341797 -13.675999641418457,4.3480000495910645 -13.675999641418457,-0.3889999985694885 C-13.675999641418457,-5.125999927520752 -7.552999973297119,-8.187999725341797 0,-8.187999725341797 C7.552999973297119,-8.187999725341797 13.675999641418457,-5.125999927520752 13.675999641418457,-0.3889999985694885z"></path></g><g opacity="0.7000000000000001" transform="matrix(1,0,0,1,253.8679962158203,270.94000244140625)"><path fill="url(#__lottie_element_34)" fill-opacity="1" d=" M7.046000003814697,-0.5569999814033508 C7.046000003814697,1.9789999723434448 3.8919999599456787,4.364999771118164 0,4.364999771118164 C-3.8919999599456787,4.364999771118164 -7.046000003814697,1.9789999723434448 -7.046000003814697,-0.5569999814033508 C-7.046000003814697,-3.0929999351501465 -3.8919999599456787,-4.364999771118164 0,-4.364999771118164 C3.8919999599456787,-4.364999771118164 7.046000003814697,-3.0929999351501465 7.046000003814697,-0.5569999814033508z"></path></g></g><g opacity="1" transform="matrix(1,0,0,1,0,0)"><g opacity="1" transform="matrix(1,0,0,1,195.47999572753906,185.51199340820312)"><path fill="rgb(163,65,0)" fill-opacity="1" d=" M-21.093000411987305,5.416999816894531 C-21.093000411987305,5.416999816894531 -9.973999977111816,-2.2090001106262207 3.2219998836517334,-1.7970000505447388 C15.866999626159668,-1.4019999504089355 21.093000411987305,3.378000020980835 21.093000411987305,3.378000020980835 C21.093000411987305,3.378000020980835 16.881000518798828,-5.802999973297119 3.2219998836517334,-5.40500020980835 C-11.824999809265137,-4.966000080108643 -21.093000411987305,5.416999816894531 -21.093000411987305,5.416999816894531z"></path><path stroke-linecap="round" stroke-linejoin="round" fill-opacity="0" stroke="rgb(163,65,0)" stroke-opacity="1" stroke-width="2" d=" M-21.093000411987305,5.416999816894531 C-21.093000411987305,5.416999816894531 -9.973999977111816,-2.2090001106262207 3.2219998836517334,-1.7970000505447388 C15.866999626159668,-1.4019999504089355 21.093000411987305,3.378000020980835 21.093000411987305,3.378000020980835 C21.093000411987305,3.378000020980835 16.881000518798828,-5.802999973297119 3.2219998836517334,-5.40500020980835 C-11.824999809265137,-4.966000080108643 -21.093000411987305,5.416999816894531 -21.093000411987305,5.416999816894531z"></path></g><g opacity="1" transform="matrix(1,0,0,1,312.1730041503906,185.51199340820312)"><path fill="rgb(163,65,0)" fill-opacity="1" d=" M21.093000411987305,5.416999816894531 C21.093000411987305,5.416999816894531 9.973999977111816,-2.2090001106262207 -3.2219998836517334,-1.7970000505447388 C-15.866999626159668,-1.4019999504089355 -21.093000411987305,3.378000020980835 -21.093000411987305,3.378000020980835 C-21.093000411987305,3.378000020980835 -16.881000518798828,-5.802999973297119 -3.2219998836517334,-5.40500020980835 C11.824999809265137,-4.966000080108643 21.093000411987305,5.416999816894531 21.093000411987305,5.416999816894531z"></path><path stroke-linecap="round" stroke-linejoin="round" fill-opacity="0" stroke="rgb(163,65,0)" stroke-opacity="1" stroke-width="2" d=" M21.093000411987305,5.416999816894531 C21.093000411987305,5.416999816894531 9.973999977111816,-2.2090001106262207 -3.2219998836517334,-1.7970000505447388 C-15.866999626159668,-1.4019999504089355 -21.093000411987305,3.378000020980835 -21.093000411987305,3.378000020980835 C-21.093000411987305,3.378000020980835 -16.881000518798828,-5.802999973297119 -3.2219998836517334,-5.40500020980835 C11.824999809265137,-4.966000080108643 21.093000411987305,5.416999816894531 21.093000411987305,5.416999816894531z"></path></g></g><g opacity="1" transform="matrix(1,0,0,1,0,0)"><g opacity="1" transform="matrix(1,0,0,1,254.50999450683594,310.9079895019531)"><path fill="rgb(75,37,2)" fill-opacity="1" d=" M34.08100128173828,-6.974999904632568 C31.658000946044922,-8.338000297546387 20.75200080871582,-6.2170000076293945 12.723999977111816,-9.095000267028809 C4.696000099182129,-11.972999572753906 2.878999948501587,-7.900000095367432 0.0010000000474974513,-7.900000095367432 C-2.877000093460083,-7.900000095367432 -4.693999767303467,-11.972999572753906 -12.722000122070312,-9.095000267028809 C-20.75,-6.2170000076293945 -31.65399932861328,-8.338000297546387 -34.077999114990234,-6.974999904632568 C-36.500999450683594,-5.611999988555908 -19.968000411987305,10.12399959564209 0.0010000000474974513,10.12399959564209 C19.73699951171875,10.12399959564209 36.505001068115234,-5.611999988555908 34.08100128173828,-6.974999904632568z"></path></g><g opacity="1" transform="matrix(1,0,0,1,254.50999450683594,310.9079895019531)"><path fill="url(#__lottie_element_35)" fill-opacity="1" d=" M34.08100128173828,-6.974999904632568 C31.658000946044922,-8.338000297546387 20.75200080871582,-6.2170000076293945 12.723999977111816,-9.095000267028809 C4.696000099182129,-11.972999572753906 2.878999948501587,-7.900000095367432 0.0010000000474974513,-7.900000095367432 C-2.877000093460083,-7.900000095367432 -4.693999767303467,-11.972999572753906 -12.722000122070312,-9.095000267028809 C-20.75,-6.2170000076293945 -31.65399932861328,-8.338000297546387 -34.077999114990234,-6.974999904632568 C-36.500999450683594,-5.611999988555908 -19.968000411987305,10.12399959564209 0.0010000000474974513,10.12399959564209 C19.73699951171875,10.12399959564209 36.505001068115234,-5.611999988555908 34.08100128173828,-6.974999904632568z"></path></g><g opacity="1" transform="matrix(1,0,0,1,254.23800659179688,309.98699951171875)"><path fill="rgb(23,19,11)" fill-opacity="1" d=" M-28.226999282836914,-3.2179999351501465 C-28.226999282836914,-3.2179999351501465 -19.53499984741211,-1.152999997138977 -13.607000350952148,-1.152999997138977 C-9.581999778747559,-1.152999997138977 -3.506999969482422,0.9800000190734863 0.27300000190734863,0.9800000190734863 C3.9059998989105225,0.9800000190734863 8.821999549865723,-1.1080000400543213 12.633000373840332,-1.1080000400543213 C20.437999725341797,-1.1080000400543213 28.226999282836914,-3.2179999351501465 28.226999282836914,-3.2179999351501465 C28.226999282836914,-3.2179999351501465 21.736000061035156,-1.2699999809265137 12.26099967956543,0.7200000286102295 C8.897000312805176,1.4259999990463257 4.23199987411499,3.2179999351501465 0.27300000190734863,3.2179999351501465 C-4.431000232696533,3.2179999351501465 -9.803999900817871,1.2300000190734863 -13.699000358581543,0.29899999499320984 C-22.315000534057617,-1.7599999904632568 -28.226999282836914,-3.2179999351501465 -28.226999282836914,-3.2179999351501465z"></path><path stroke-linecap="round" stroke-linejoin="round" fill-opacity="0" stroke="rgb(23,19,11)" stroke-opacity="1" stroke-width="1" d=" M-28.226999282836914,-3.2179999351501465 C-28.226999282836914,-3.2179999351501465 -19.53499984741211,-1.152999997138977 -13.607000350952148,-1.152999997138977 C-9.581999778747559,-1.152999997138977 -3.506999969482422,0.9800000190734863 0.27300000190734863,0.9800000190734863 C3.9059998989105225,0.9800000190734863 8.821999549865723,-1.1080000400543213 12.633000373840332,-1.1080000400543213 C20.437999725341797,-1.1080000400543213 28.226999282836914,-3.2179999351501465 28.226999282836914,-3.2179999351501465 C28.226999282836914,-3.2179999351501465 21.736000061035156,-1.2699999809265137 12.26099967956543,0.7200000286102295 C8.897000312805176,1.4259999990463257 4.23199987411499,3.2179999351501465 0.27300000190734863,3.2179999351501465 C-4.431000232696533,3.2179999351501465 -9.803999900817871,1.2300000190734863 -13.699000358581543,0.29899999499320984 C-22.315000534057617,-1.7599999904632568 -28.226999282836914,-3.2179999351501465 -28.226999282836914,-3.2179999351501465z"></path></g></g><g opacity="1" transform="matrix(1,0,0,1,0,0)"><g opacity="1" transform="matrix(1,0,0,1,256.4460144042969,195.30299377441406)"><path fill="rgb(255,205,0)" fill-opacity="1" d=" M-59.125999450683594,-80.13200378417969 C-65.13600158691406,-31.38599967956543 -89.76399993896484,0.6890000104904175 -130.5240020751953,18.31599998474121 C-130.5240020751953,18.31599998474121 -161.5070037841797,56.91400146484375 -152.60400390625,137.0760040283203 C-152.60400390625,137.0760040283203 -163.97900390625,72.77799987792969 -138.0850067138672,-21.67099952697754 C-114.0790023803711,-109.23500061035156 -74.5790023803711,-122.7699966430664 -65.40699768066406,-119.18099975585938 C-65.40699768066406,-119.18099975585938 -52.494998931884766,-143.70799255371094 11.468000411987305,-135.33299255371094 C75.43099975585938,-126.95800018310547 115.89700317382812,-79.697998046875 134.01600646972656,-24.66200065612793 C152.13499450683594,30.374000549316406 157.30499267578125,95.79900360107422 154.28500366210938,137.0760040283203 C154.28500366210938,137.0760040283203 162.23699951171875,36.18199920654297 94.2020034790039,3.4630000591278076 C94.2020034790039,3.4630000591278076 -2.0980000495910645,-16.861000061035156 -59.125999450683594,-80.13200378417969z"></path></g><g opacity="1" transform="matrix(1,0,0,1,256.4460144042969,195.30299377441406)"><path fill="url(#__lottie_element_36)" fill-opacity="1" d=" M-59.125999450683594,-80.13200378417969 C-65.13600158691406,-31.38599967956543 -89.76399993896484,0.6890000104904175 -130.5240020751953,18.31599998474121 C-130.5240020751953,18.31599998474121 -161.5070037841797,56.91400146484375 -152.60400390625,137.0760040283203 C-152.60400390625,137.0760040283203 -163.97900390625,72.77799987792969 -138.0850067138672,-21.67099952697754 C-114.0790023803711,-109.23500061035156 -74.5790023803711,-122.7699966430664 -65.40699768066406,-119.18099975585938 C-65.40699768066406,-119.18099975585938 -52.494998931884766,-143.70799255371094 11.468000411987305,-135.33299255371094 C75.43099975585938,-126.95800018310547 115.89700317382812,-79.697998046875 134.01600646972656,-24.66200065612793 C152.13499450683594,30.374000549316406 157.30499267578125,95.79900360107422 154.28500366210938,137.0760040283203 C154.28500366210938,137.0760040283203 162.23699951171875,36.18199920654297 94.2020034790039,3.4630000591278076 C94.2020034790039,3.4630000591278076 -2.0980000495910645,-16.861000061035156 -59.125999450683594,-80.13200378417969z"></path></g><g opacity="1" transform="matrix(1,0,0,1,245.77200317382812,162.63800048828125)"><path fill="url(#__lottie_element_37)" fill-opacity="1" d=" M141.42300415039062,40.349998474121094 C141.42300415039062,40.349998474121094 124.39900207519531,36.52299880981445 104.87799835205078,36.13199996948242 C104.87799835205078,36.13199996948242 8.57699966430664,15.805999755859375 -48.452999114990234,-47.47100067138672 C-48.452999114990234,-47.47100067138672 -50.63800048828125,-4.3470001220703125 -78.29000091552734,21.124000549316406 C-104.41899871826172,45.20399856567383 -119.84600067138672,50.97700119018555 -119.84600067138672,50.97700119018555 C-119.84600067138672,50.97700119018555 -139.42100524902344,79.37300109863281 -141.3769989013672,104.40899658203125 C-141.3769989013672,104.40899658203125 -143.1269989013672,51.053001403808594 -125.09600067138672,43.222999572753906 C-125.09600067138672,43.222999572753906 -95.27300262451172,26.95400047302246 -79.20800018310547,6.079999923706055 C-58.62200164794922,-20.66900062561035 -60.15700149536133,-56.03099822998047 -62.95399856567383,-65.66100311279297 C-67.0260009765625,-79.68099975585938 -98.12899780273438,-64.10700225830078 -117.0469970703125,-20.31800079345703 C-93.37799835205078,-79.88700103759766 -62.67900085449219,-89.62300109863281 -54.73099899291992,-86.51399993896484 C-54.73099899291992,-86.51399993896484 -41.81800079345703,-111.03900146484375 22.141000747680664,-102.66699981689453 C54.500999450683594,-98.43099975585938 80.86000061035156,-84.23200225830078 101.34400177001953,-64.10600280761719 C101.34400177001953,-64.10600280761719 60.369998931884766,-102.27200317382812 -6.125999927520752,-94.9489974975586 C-50.93600082397461,-90.01499938964844 -44.61600112915039,-68.24600219726562 -39.632999420166016,-59.94300079345703 C-32.566001892089844,-48.167999267578125 3.634000062942505,-11.144000053405762 55.15299987792969,8.197999954223633 C99.23400115966797,24.74799919128418 124.46299743652344,29.09600067138672 141.42300415039062,40.349998474121094z"></path></g><g opacity="1" transform="matrix(1,0,0,1,256.1969909667969,194.63499450683594)"><path stroke-linecap="round" stroke-linejoin="round" fill-opacity="0" stroke="rgb(197,92,0)" stroke-opacity="1" stroke-width="8" d=" M-58.87699890136719,-79.46299743652344 C-55.349998474121094,-36.39400100708008 -87.58499908447266,0.8939999938011169 -130.27499389648438,18.985000610351562 C-130.27499389648438,18.985000610351562 -162.27499389648438,56.132999420166016 -153.3719940185547,136.2949981689453 C-153.3719940185547,136.2949981689453 -163.7310028076172,73.4469985961914 -137.83700561523438,-21.00200080871582 C-113.83100128173828,-108.56600189208984 -74.33000183105469,-122.10099792480469 -65.15799713134766,-118.51200103759766 C-65.15799713134766,-118.51200103759766 -52.24599838256836,-143.03900146484375 11.717000007629395,-134.66400146484375 C75.68000030517578,-126.28900146484375 116.14600372314453,-79.02899932861328 134.26499938964844,-23.993000030517578 C152.38400268554688,31.042999267578125 157.63699340820312,95.12999725341797 154.61700439453125,136.40699768066406 C154.61700439453125,136.40699768066406 162.29299926757812,35.909000396728516 94.44999694824219,4.131999969482422 C94.44999694824219,4.131999969482422 -1.8489999771118164,-16.191999435424805 -58.87699890136719,-79.46299743652344z"></path></g><g opacity="0.9" transform="matrix(1,0,0,1,159.51100158691406,120.5250015258789)"><path fill="url(#__lottie_element_38)" fill-opacity="1" d=" M24.785999298095703,-12.432999610900879 C25.27899932861328,-31.558000564575195 27.344999313354492,-35.83000183105469 22.952999114990234,-34.74100112915039 C8.986000061035156,-31.277000427246094 -13.767999649047852,-10.715999603271484 -25.70199966430664,27.358999252319336 C-25.11199951171875,41.301998138427734 -7.828000068664551,31.71299934387207 0.4099999964237213,31.304000854492188 C21.503000259399414,30.256000518798828 24.349000930786133,4.507999897003174 24.785999298095703,-12.432999610900879z"></path></g><g opacity="0.9" transform="matrix(1,0,0,1,282.85198974609375,113.49099731445312)"><path fill="url(#__lottie_element_39)" fill-opacity="1" d=" M-14.185999870300293,37.066001892089844 C-47.512001037597656,25.61199951171875 -71.77200317382812,-3.625 -77.19200134277344,-12.585000038146973 C-83.58000183105469,-23.145999908447266 -85.47100067138672,-32.74700164794922 -83.72799682617188,-34.72800064086914 C-76.2239990234375,-43.25600051879883 -48.0260009765625,-51.222999572753906 -8.548999786376953,-43.41400146484375 C28.011999130249023,-36.18199920654297 65.10399627685547,-8.61400032043457 83.10399627685547,25.259000778198242 C93.14399719238281,44.152000427246094 40.534000396728516,55.874000549316406 -14.185999870300293,37.066001892089844z"></path></g><g opacity="1" transform="matrix(1,0,0,1,256.16900634765625,223.1060028076172)"><path stroke-linecap="round" stroke-linejoin="round" fill-opacity="0" stroke="rgb(163,65,0)" stroke-opacity="1" stroke-width="8" d=" M154.64599609375,107.93499755859375 C154.64599609375,107.93499755859375 162.32200622558594,7.436999797821045 94.47899627685547,-24.34000015258789 C94.47899627685547,-24.34000015258789 -1.8209999799728394,-44.66400146484375 -58.8489990234375,-107.93499755859375 C-55.321998596191406,-64.86599731445312 -87.55599975585938,-27.577999114990234 -130.24600219726562,-9.487000465393066 C-130.24600219726562,-9.487000465393066 -162.24600219726562,27.660999298095703 -153.34300231933594,107.822998046875"></path></g></g></g><g opacity="1" transform="matrix(1,0,0,1,256.02398681640625,425.4620056152344)"><g opacity="1" transform="matrix(1,0,0,1,0,0)"><path fill="url(#__lottie_element_40)" fill-opacity="1" d=" M49.24300003051758,28.29599952697754 C49.24300003051758,28.29599952697754 51.474998474121094,-39.875999450683594 51.474998474121094,-39.875999450683594 C51.63100051879883,-44.65399932861328 46.816001892089844,-48.03300094604492 42.39099884033203,-46.2239990234375 C32.625999450683594,-42.23099899291992 16.43199920654297,-36.92100143432617 -0.6430000066757202,-36.92100143432617 C-16.569000244140625,-36.92100143432617 -32.68000030517578,-41.6609992980957 -42.26499938964844,-45.095001220703125 C-46.558998107910156,-46.63399887084961 -51.07699966430664,-43.4630012512207 -51.099998474121094,-38.902000427246094 C-51.099998474121094,-38.902000427246094 -51.479000091552734,35.191001892089844 -51.479000091552734,35.191001892089844 C-51.5099983215332,41.2869987487793 -46.59600067138672,46.25600051879883 -40.5,46.292999267578125 C-40.5,46.292999267578125 30.091999053955078,46.71900177001953 30.091999053955078,46.71900177001953 C40.41299819946289,46.78099822998047 48.904998779296875,38.611000061035156 49.24300003051758,28.29599952697754z"></path></g></g><g opacity="1" transform="matrix(1,0,0,1,303.12200927734375,422.3429870605469)"><path fill="url(#__lottie_element_41)" fill-opacity="1" d=" M-22.729000091552734,49.94900131225586 C-22.729000091552734,49.94900131225586 22.729000091552734,49.540000915527344 22.729000091552734,49.540000915527344 C22.729000091552734,49.540000915527344 21.979000091552734,-43.71099853515625 21.979000091552734,-43.71099853515625 C21.979000091552734,-43.71099853515625 -7.703999996185303,-49.94900131225586 -7.703999996185303,-49.94900131225586 C-7.703999996185303,-49.94900131225586 -22.729000091552734,49.94900131225586 -22.729000091552734,49.94900131225586z"></path></g><g opacity="1" transform="matrix(1,0,0,1,204.16700744628906,424.1600036621094)"><path fill="url(#__lottie_element_42)" fill-opacity="1" d=" M23.160999298095703,47.770999908447266 C23.160999298095703,47.770999908447266 -18.922000885009766,47.24599838256836 -18.922000885009766,47.24599838256836 C-18.922000885009766,47.24599838256836 -23.160999298095703,-40.84000015258789 -23.160999298095703,-40.84000015258789 C-23.160999298095703,-40.84000015258789 6.322000026702881,-47.770999908447266 6.322000026702881,-47.770999908447266 C6.322000026702881,-47.770999908447266 23.160999298095703,47.770999908447266 23.160999298095703,47.770999908447266z"></path></g><g opacity="1" transform="matrix(1,0,0,1,253.1009979248047,381.2569885253906)"><path stroke-linecap="butt" stroke-linejoin="miter" fill-opacity="0" stroke-miterlimit="10" stroke="rgb(128,135,142)" stroke-opacity="1" stroke-width="8" d=" M-48.612998962402344,-7.140999794006348 C-48.612998962402344,-7.140999794006348 -30.643999099731445,5.965000152587891 -3.075000047683716,7.066999912261963 C24.493999481201172,8.168999671936035 48.612998962402344,-3.427999973297119 48.612998962402344,-3.427999973297119"></path></g></g><g style="display: block;" transform="matrix(1,0,0,1,0,0)" opacity="1"><g opacity="1" transform="matrix(1,0,0,1,171.22500610351562,424.031005859375)"><path stroke-linecap="butt" stroke-linejoin="round" fill-opacity="0" stroke="rgb(22,26,38)" stroke-opacity="1" stroke-width="8" d=" M11.32699966430664,-47.137001037597656 C-4.63100004196167,-34.54800033569336 -5.291999816894531,-21.601999282836914 -5.802999973297119,-16.725000381469727 C-6.044000148773193,-14.427000045776367 3.881999969482422,-10.237000465393066 4.3480000495910645,-7.410999774932861 C4.915999889373779,-3.9649999141693115 -8.704000473022461,1.562999963760376 -11.244000434875488,10.883999824523926 C-11.949999809265137,13.475000381469727 -7.951000213623047,29.690000534057617 -7.2179999351501465,47.137001037597656"></path></g><g opacity="1" transform="matrix(1,0,0,1,187.30499267578125,418.09600830078125)"><path fill="rgb(61,78,108)" fill-opacity="1" d=" M24.834999084472656,53.54999923706055 C24.834999084472656,53.54999923706055 18.458999633789062,-8.234000205993652 19.43000030517578,-53.54999923706055 C19.43000030517578,-53.54999923706055 3.5290000438690186,-49.89400100708008 -5.091000080108643,-41.042999267578125 C-11.946000099182129,-34.00400161743164 -20.42799949645996,-23.041000366210938 -21.465999603271484,-19.281999588012695 C-21.691999435424805,-18.46500015258789 -21.54199981689453,-17.590999603271484 -21.06599998474121,-16.902999877929688 C-21.06599998474121,-16.902999877929688 -7.256999969482422,-4.14900016784668 -7.256999969482422,-4.14900016784668 C-7.256999969482422,-4.14900016784668 -23.46299934387207,5.382999897003174 -23.46299934387207,5.382999897003174 C-24.384000778198242,5.9710001945495605 -24.91200065612793,7.047999858856201 -24.826000213623047,8.177000045776367 C-24.267000198364258,15.494000434875488 -19.163999557495117,42.27299880981445 -15.815999984741211,53.27299880981445 C-15.815999984741211,53.27299880981445 24.834999084472656,53.54999923706055 24.834999084472656,53.54999923706055z"></path></g><g opacity="0.8" transform="matrix(1,0,0,1,185.781005859375,414.1080017089844)"><path fill="url(#__lottie_element_10)" fill-opacity="1" d=" M22.506999969482422,44.13999938964844 C22.506999969482422,44.13999938964844 18.28499984741211,-49.28900146484375 18.28499984741211,-49.28900146484375 C18.28499984741211,-49.28900146484375 -9.555999755859375,-36.9379997253418 -9.555999755859375,-36.9379997253418 C-9.555999755859375,-36.9379997253418 -18.990999221801758,-11.293999671936035 -18.990999221801758,-11.293999671936035 C-18.990999221801758,-11.293999671936035 -4.706999778747559,1.8070000410079956 -4.706999778747559,1.8070000410079956 C-4.706999778747559,1.8070000410079956 -22.506999969482422,10.008999824523926 -22.506999969482422,10.008999824523926 C-22.506999969482422,10.008999824523926 -16.006000518798828,49.28900146484375 -16.006000518798828,49.28900146484375 C-16.006000518798828,49.28900146484375 22.506999969482422,44.13999938964844 22.506999969482422,44.13999938964844z"></path></g><g opacity="1" transform="matrix(1,0,0,1,186.24099731445312,420.29901123046875)"><path stroke-linecap="butt" stroke-linejoin="miter" fill-opacity="0" stroke-miterlimit="10" stroke="rgb(66,85,122)" stroke-opacity="1" stroke-width="8" d=" M20.43199920654297,51.310001373291016 C20.43199920654297,35.69900131225586 17.711999893188477,15.524999618530273 16.513999938964844,-1.7369999885559082 C14.246999740600586,-34.4010009765625 16.652000427246094,-51.310001373291016 16.652000427246094,-51.310001373291016 C16.652000427246094,-51.310001373291016 13.784000396728516,-49.65800094604492 7.771999835968018,-46.4370002746582 C5.4730000495910645,-45.20600128173828 1.5709999799728394,-44.50600051879883 -1.1200000047683716,-42.459999084472656 C-7.425000190734863,-37.66699981689453 -14.437999725341797,-30.3799991607666 -20.43199920654297,-19.375"></path></g><g opacity="1" transform="matrix(1,0,0,1,187.072998046875,418.1090087890625)"><path stroke-linecap="butt" stroke-linejoin="miter" fill-opacity="0" stroke-miterlimit="10" stroke="rgb(49,64,91)" stroke-opacity="1" stroke-width="8" d=" M24.614999771118164,53.499000549316406 C24.614999771118164,53.499000549316406 24.614999771118164,48.422000885009766 22.503999710083008,24.179000854492188 C20.672000885009766,3.1470000743865967 18.777000427246094,-15.048999786376953 19.6560001373291,-53.266998291015625 C19.659000396728516,-53.41899871826172 19.535999298095703,-53.49599838256836 19.391000747680664,-53.49800109863281 C14.800000190734863,-53.56399917602539 12.989999771118164,-50.72800064086914 8.710000038146973,-47.5359992980957 C8.710000038146973,-47.5359992980957 -2.7209999561309814,-42.66600036621094 -4.859000205993652,-41.05699920654297 C-17.756000518798828,-31.350000381469727 -21.356000900268555,-18.187000274658203 -21.628999710083008,-17.224000930786133 C-21.840999603271484,-16.479000091552734 -21.698999404907227,-15.678000450134277 -21.263999938964844,-15.050000190734863 C-21.263999938964844,-15.050000190734863 -6.579999923706055,-5.894999980926514 -6.579999923706055,-5.894999980926514 C-6.307000160217285,-5.500999927520752 -5.493000030517578,-0.5019999742507935 -6.809000015258789,0.3070000112056732 C-6.809000015258789,0.3070000112056732 -23.3799991607666,9.46399974822998 -23.3799991607666,9.46399974822998 C-24.209999084472656,9.994000434875488 -24.68400001525879,10.963000297546387 -24.60700035095215,11.980999946594238 C-24.072999954223633,19.017000198364258 -17.656999588012695,38.856998443603516 -17.59600067138672,53.34600067138672"></path></g></g><g style="display: block;" transform="matrix(1,0,0,1,0,0)" opacity="1"><g opacity="1" transform="matrix(1,0,0,1,336.81201171875,424.2690124511719)"><path stroke-linecap="butt" stroke-linejoin="round" fill-opacity="0" stroke="rgb(22,26,38)" stroke-opacity="1" stroke-width="8" d=" M-11.32699966430664,-47.375 C4.63100004196167,-34.7859992980957 5.291999816894531,-21.84000015258789 5.802999973297119,-16.96299934387207 C6.044000148773193,-14.664999961853027 -3.881999969482422,-10.475000381469727 -4.3480000495910645,-7.64900016784668 C-4.915999889373779,-4.203000068664551 8.704000473022461,1.3250000476837158 11.244000434875488,10.645999908447266 C11.949999809265137,13.237000465393066 7.951000213623047,29.92799949645996 7.2179999351501465,47.375"></path></g><g opacity="1" transform="matrix(1,0,0,1,320.73199462890625,418.41900634765625)"><path fill="rgb(61,78,108)" fill-opacity="1" d=" M-24.834999084472656,53.702999114990234 C-24.834999084472656,53.702999114990234 -18.458999633789062,-8.557000160217285 -19.43000030517578,-53.87300109863281 C-19.43000030517578,-53.87300109863281 -3.5290000438690186,-50.21699905395508 5.091000080108643,-41.36600112915039 C11.946000099182129,-34.32699966430664 20.42799949645996,-23.36400032043457 21.465999603271484,-19.604999542236328 C21.691999435424805,-18.788000106811523 21.54199981689453,-17.915000915527344 21.06599998474121,-17.226999282836914 C21.06599998474121,-17.226999282836914 7.256999969482422,-4.4730000495910645 7.256999969482422,-4.4730000495910645 C7.256999969482422,-4.4730000495910645 23.46299934387207,5.059999942779541 23.46299934387207,5.059999942779541 C24.384000778198242,5.6479997634887695 24.91200065612793,6.723999977111816 24.826000213623047,7.853000164031982 C24.267000198364258,15.170000076293945 19.764999389648438,42.87300109863281 16.41699981689453,53.87300109863281 C16.41699981689453,53.87300109863281 -24.834999084472656,53.702999114990234 -24.834999084472656,53.702999114990234z"></path></g><g opacity="0.8" transform="matrix(1,0,0,1,322.2560119628906,414.1080017089844)"><path fill="url(#__lottie_element_6)" fill-opacity="1" d=" M-22.506999969482422,44.13999938964844 C-22.506999969482422,44.13999938964844 -18.28499984741211,-49.28900146484375 -18.28499984741211,-49.28900146484375 C-18.28499984741211,-49.28900146484375 9.555999755859375,-36.9379997253418 9.555999755859375,-36.9379997253418 C9.555999755859375,-36.9379997253418 18.990999221801758,-11.293999671936035 18.990999221801758,-11.293999671936035 C18.990999221801758,-11.293999671936035 4.706999778747559,1.8070000410079956 4.706999778747559,1.8070000410079956 C4.706999778747559,1.8070000410079956 22.506999969482422,10.008999824523926 22.506999969482422,10.008999824523926 C22.506999969482422,10.008999824523926 16.006000518798828,49.28900146484375 16.006000518798828,49.28900146484375 C16.006000518798828,49.28900146484375 -22.506999969482422,44.13999938964844 -22.506999969482422,44.13999938964844z"></path></g><g opacity="1" transform="matrix(1,0,0,1,321.7959899902344,420.5369873046875)"><path stroke-linecap="butt" stroke-linejoin="miter" fill-opacity="0" stroke-miterlimit="10" stroke="rgb(66,85,122)" stroke-opacity="1" stroke-width="8" d=" M-20.43199920654297,51.54800033569336 C-20.43199920654297,35.9370002746582 -17.711999893188477,15.28600025177002 -16.513999938964844,-1.9759999513626099 C-14.246999740600586,-34.63999938964844 -16.652000427246094,-51.54800033569336 -16.652000427246094,-51.54800033569336 C-16.652000427246094,-51.54800033569336 -13.784000396728516,-49.895999908447266 -7.771999835968018,-46.67499923706055 C-5.4730000495910645,-45.444000244140625 -1.5709999799728394,-44.744998931884766 1.1200000047683716,-42.69900131225586 C7.425000190734863,-37.90599822998047 14.437999725341797,-30.618000030517578 20.43199920654297,-19.613000869750977"></path></g><g opacity="1" transform="matrix(1,0,0,1,320.9649963378906,418.45098876953125)"><path stroke-linecap="butt" stroke-linejoin="miter" fill-opacity="0" stroke-miterlimit="10" stroke="rgb(49,64,91)" stroke-opacity="1" stroke-width="8" d=" M-24.614999771118164,53.840999603271484 C-24.614999771118164,53.840999603271484 -24.614999771118164,48.08100128173828 -22.503999710083008,23.83799934387207 C-20.672000885009766,2.805999994277954 -18.777000427246094,-15.390999794006348 -19.6560001373291,-53.60900115966797 C-19.659000396728516,-53.76100158691406 -19.535999298095703,-53.8380012512207 -19.391000747680664,-53.84000015258789 C-14.800000190734863,-53.90599822998047 -12.989999771118164,-51.06999969482422 -8.710000038146973,-47.87799835205078 C-8.710000038146973,-47.87799835205078 2.7209999561309814,-43.00699996948242 4.859000205993652,-41.39799880981445 C17.756000518798828,-31.69099998474121 21.356000900268555,-18.52899932861328 21.628999710083008,-17.56599998474121 C21.840999603271484,-16.820999145507812 21.698999404907227,-16.020000457763672 21.263999938964844,-15.392000198364258 C21.263999938964844,-15.392000198364258 6.579999923706055,-6.236999988555908 6.579999923706055,-6.236999988555908 C6.307000160217285,-5.8429999351501465 5.493000030517578,-0.843999981880188 6.809000015258789,-0.03500000014901161 C6.809000015258789,-0.03500000014901161 23.3799991607666,9.121999740600586 23.3799991607666,9.121999740600586 C24.209999084472656,9.652000427246094 24.68400001525879,10.621000289916992 24.60700035095215,11.638999938964844 C24.072999954223633,18.674999237060547 17.656999588012695,38.99100112915039 17.59600067138672,53.47999954223633"></path></g></g></g></svg>