<svg xmlns="http://www.w3.org/2000/svg" xmlns:xlink="http://www.w3.org/1999/xlink" viewBox="0 0 512 512" width="512" height="512" style="width: 100%; height: 100%; transform: translate3d(0,0,0); content-visibility: visible;" preserveAspectRatio="xMidYMid meet"><defs><clipPath id="__lottie_element_2"><rect width="512" height="512" x="0" y="0"></rect></clipPath><linearGradient id="__lottie_element_6" spreadMethod="pad" gradientUnits="userSpaceOnUse" x1="-22.325000762939453" y1="-162.843994140625" x2="-1.5520000457763672" y2="-162.843994140625"><stop offset="0%" stop-color="rgb(255,255,255)" stop-opacity="0"></stop><stop offset="10%" stop-color="rgb(255,255,255)" stop-opacity="0.5"></stop><stop offset="50%" stop-color="rgb(255,255,255)" stop-opacity="1"></stop><stop offset="90%" stop-color="rgb(255,255,255)" stop-opacity="0.5049999952316284"></stop><stop offset="100%" stop-color="rgb(255,255,255)" stop-opacity="0.009999999776482582"></stop></linearGradient><radialGradient id="__lottie_element_10" spreadMethod="pad" gradientUnits="userSpaceOnUse" cx="-43.07500076293945" cy="-141.56700134277344" r="97.2547126846311" fx="-43.07500076293945" fy="-141.56700134277344"><stop offset="68%" stop-color="rgb(0,97,200)"></stop><stop offset="94%" stop-color="rgb(0,74,157)"></stop><stop offset="100%" stop-color="rgb(0,52,114)"></stop></radialGradient><radialGradient id="__lottie_element_11" spreadMethod="pad" gradientUnits="userSpaceOnUse" cx="0.42500001192092896" cy="-64.84400177001953" r="127.84603598186779" fx="0.42500001192092896" fy="-64.84400177001953"><stop offset="52%" stop-color="rgb(0,145,255)" stop-opacity="0"></stop><stop offset="90%" stop-color="rgb(0,145,255)" stop-opacity="0.5"></stop><stop offset="100%" stop-color="rgb(0,145,255)" stop-opacity="1"></stop></radialGradient><radialGradient id="__lottie_element_12" spreadMethod="pad" gradientUnits="userSpaceOnUse" cx="-4.324999809265137" cy="-147.843994140625" r="129.46499919891357" fx="-4.324999809265137" fy="-147.843994140625"><stop offset="78%" stop-color="rgb(0,50,109)" stop-opacity="0"></stop><stop offset="89%" stop-color="rgb(0,50,109)" stop-opacity="0.5"></stop><stop offset="100%" stop-color="rgb(0,50,109)" stop-opacity="1"></stop></radialGradient><linearGradient id="__lottie_element_13" spreadMethod="pad" gradientUnits="userSpaceOnUse" x1="-102.32499694824219" y1="-84.84400177001953" x2="104.91799926757812" y2="-84.84400177001953"><stop offset="0%" stop-color="rgb(15,15,16)"></stop><stop offset="23%" stop-color="rgb(65,65,65)"></stop><stop offset="35%" stop-color="rgb(114,114,114)"></stop><stop offset="48%" stop-color="rgb(65,65,65)"></stop><stop offset="100%" stop-color="rgb(15,15,16)"></stop></linearGradient><linearGradient id="__lottie_element_14" spreadMethod="pad" gradientUnits="userSpaceOnUse" x1="-104.32499694824219" y1="-113.84400177001953" x2="106.92500305175781" y2="-113.84400177001953"><stop offset="0%" stop-color="rgb(15,15,16)"></stop><stop offset="23%" stop-color="rgb(65,65,65)"></stop><stop offset="35%" stop-color="rgb(114,114,114)"></stop><stop offset="48%" stop-color="rgb(65,65,65)"></stop><stop offset="100%" stop-color="rgb(15,15,16)"></stop></linearGradient><radialGradient id="__lottie_element_21" spreadMethod="pad" gradientUnits="userSpaceOnUse" cx="2.674999952316284" cy="-133.843994140625" r="87.5633558952621" fx="2.674999952316284" fy="-133.843994140625"><stop offset="15%" stop-color="rgb(163,65,0)" stop-opacity="1"></stop><stop offset="89%" stop-color="rgb(163,65,0)" stop-opacity="0.5"></stop><stop offset="100%" stop-color="rgb(163,65,0)" stop-opacity="0"></stop></radialGradient><linearGradient id="__lottie_element_25" spreadMethod="pad" gradientUnits="userSpaceOnUse" x1="50.137001037597656" y1="-35.707000732421875" x2="64.30899810791016" y2="-16.142000198364258"><stop offset="0%" stop-color="rgb(66,0,0)"></stop><stop offset="37%" stop-color="rgb(118,40,0)"></stop><stop offset="100%" stop-color="rgb(170,80,0)"></stop></linearGradient><radialGradient id="__lottie_element_26" spreadMethod="pad" gradientUnits="userSpaceOnUse" cx="62.67499923706055" cy="-19.8439998626709" r="8.891002655029297" fx="62.67499923706055" fy="-19.8439998626709"><stop offset="0%" stop-color="rgb(246,175,0)" stop-opacity="1"></stop><stop offset="50%" stop-color="rgb(246,175,0)" stop-opacity="0.5"></stop><stop offset="100%" stop-color="rgb(246,175,0)" stop-opacity="0"></stop></radialGradient><linearGradient id="__lottie_element_27" spreadMethod="pad" gradientUnits="userSpaceOnUse" x1="48.67499923706055" y1="-40.84400177001953" x2="48.814998626708984" y2="-32.869998931884766"><stop offset="0%" stop-color="rgb(255,255,255)" stop-opacity="1"></stop><stop offset="60%" stop-color="rgb(255,255,255)" stop-opacity="0.5"></stop><stop offset="100%" stop-color="rgb(255,255,255)" stop-opacity="0"></stop></linearGradient><linearGradient id="__lottie_element_31" spreadMethod="pad" gradientUnits="userSpaceOnUse" x1="50.137001037597656" y1="-35.707000732421875" x2="64.30899810791016" y2="-16.142000198364258"><stop offset="0%" stop-color="rgb(66,0,0)"></stop><stop offset="37%" stop-color="rgb(118,40,0)"></stop><stop offset="100%" stop-color="rgb(170,80,0)"></stop></linearGradient><radialGradient id="__lottie_element_32" spreadMethod="pad" gradientUnits="userSpaceOnUse" cx="62.67499923706055" cy="-19.8439998626709" r="8.891002655029297" fx="62.67499923706055" fy="-19.8439998626709"><stop offset="0%" stop-color="rgb(246,175,0)" stop-opacity="1"></stop><stop offset="50%" stop-color="rgb(246,175,0)" stop-opacity="0.5"></stop><stop offset="100%" stop-color="rgb(246,175,0)" stop-opacity="0"></stop></radialGradient><linearGradient id="__lottie_element_33" spreadMethod="pad" gradientUnits="userSpaceOnUse" x1="48.67499923706055" y1="-40.84400177001953" x2="48.814998626708984" y2="-32.869998931884766"><stop offset="0%" stop-color="rgb(255,255,255)" stop-opacity="1"></stop><stop offset="60%" stop-color="rgb(255,255,255)" stop-opacity="0.5"></stop><stop offset="100%" stop-color="rgb(255,255,255)" stop-opacity="0"></stop></linearGradient><linearGradient id="__lottie_element_37" spreadMethod="pad" gradientUnits="userSpaceOnUse" x1="-1.4259999990463257" y1="99.6240005493164" x2="-1.1759999990463257" y2="122.68000030517578"><stop offset="0%" stop-color="rgb(255,168,0)" stop-opacity="1"></stop><stop offset="66%" stop-color="rgb(255,168,0)" stop-opacity="0.5"></stop><stop offset="100%" stop-color="rgb(255,168,0)" stop-opacity="0"></stop></linearGradient><linearGradient id="__lottie_element_38" spreadMethod="pad" gradientUnits="userSpaceOnUse" x1="-1.9259999990463257" y1="113.0989990234375" x2="-1.9259999990463257" y2="88.71299743652344"><stop offset="10%" stop-color="rgb(219,110,0)" stop-opacity="1"></stop><stop offset="51%" stop-color="rgb(219,110,0)" stop-opacity="0.5"></stop><stop offset="80%" stop-color="rgb(219,110,0)" stop-opacity="0"></stop></linearGradient><radialGradient id="__lottie_element_39" spreadMethod="pad" gradientUnits="userSpaceOnUse" cx="-2.9260001182556152" cy="84.41799926757812" r="24.002000331878662" fx="-2.9260001182556152" fy="84.41799926757812"><stop offset="36%" stop-color="rgb(255,168,0)" stop-opacity="0"></stop><stop offset="74%" stop-color="rgb(255,168,0)" stop-opacity="0.5"></stop><stop offset="100%" stop-color="rgb(255,168,0)" stop-opacity="1"></stop></radialGradient><linearGradient id="__lottie_element_40" spreadMethod="pad" gradientUnits="userSpaceOnUse" x1="-1.9259999990463257" y1="80.41799926757812" x2="-1.9259999990463257" y2="90.41799926757812"><stop offset="0%" stop-color="rgb(255,255,255)" stop-opacity="1"></stop><stop offset="50%" stop-color="rgb(255,255,255)" stop-opacity="0.5"></stop><stop offset="100%" stop-color="rgb(255,255,255)" stop-opacity="0"></stop></linearGradient><radialGradient id="__lottie_element_44" spreadMethod="pad" gradientUnits="userSpaceOnUse" cx="4.328000068664551" cy="71.38300323486328" r="37.656771264474465" fx="4.328000068664551" fy="71.38300323486328"><stop offset="8%" stop-color="rgb(117,55,14)" stop-opacity="1"></stop><stop offset="54%" stop-color="rgb(117,55,14)" stop-opacity="0.5"></stop><stop offset="100%" stop-color="rgb(117,55,14)" stop-opacity="0"></stop></radialGradient><linearGradient id="__lottie_element_48" spreadMethod="pad" gradientUnits="userSpaceOnUse" x1="1.9249999523162842" y1="-112.9219970703125" x2="2.424999952316284" y2="-46.87799835205078"><stop offset="10%" stop-color="rgb(255,169,0)" stop-opacity="0"></stop><stop offset="55%" stop-color="rgb(255,169,0)" stop-opacity="0.5"></stop><stop offset="100%" stop-color="rgb(255,169,0)" stop-opacity="1"></stop></linearGradient><linearGradient id="__lottie_element_52" spreadMethod="pad" gradientUnits="userSpaceOnUse" x1="-1.6759999990463257" y1="-69.09100341796875" x2="3.0739998817443848" y2="90.91999816894531"><stop offset="0%" stop-color="rgb(255,216,0)" stop-opacity="0"></stop><stop offset="11%" stop-color="rgb(255,216,0)" stop-opacity="0.5"></stop><stop offset="45%" stop-color="rgb(255,216,0)" stop-opacity="1"></stop><stop offset="90%" stop-color="rgb(255,216,0)" stop-opacity="0.5"></stop><stop offset="100%" stop-color="rgb(255,216,0)" stop-opacity="0"></stop></linearGradient><linearGradient id="__lottie_element_59" spreadMethod="pad" gradientUnits="userSpaceOnUse" x1="0.675000011920929" y1="126.15599822998047" x2="1.406000018119812" y2="168.81500244140625"><stop offset="0%" stop-color="rgb(0,56,102)"></stop><stop offset="50%" stop-color="rgb(0,77,151)"></stop><stop offset="100%" stop-color="rgb(0,97,200)"></stop></linearGradient><radialGradient id="__lottie_element_60" spreadMethod="pad" gradientUnits="userSpaceOnUse" cx="3.6459999084472656" cy="135.75599670410156" r="50.75949973602184" fx="3.6459999084472656" fy="135.75599670410156"><stop offset="20%" stop-color="rgb(255,168,0)" stop-opacity="1"></stop><stop offset="68%" stop-color="rgb(255,168,0)" stop-opacity="0.5"></stop><stop offset="100%" stop-color="rgb(255,168,0)" stop-opacity="0"></stop></radialGradient><linearGradient id="__lottie_element_61" spreadMethod="pad" gradientUnits="userSpaceOnUse" x1="97.20899963378906" y1="132.5240020751953" x2="102.18399810791016" y2="126.33499908447266"><stop offset="0%" stop-color="rgb(0,105,204)"></stop><stop offset="80%" stop-color="rgb(0,125,229)"></stop><stop offset="100%" stop-color="rgb(0,145,255)"></stop></linearGradient><linearGradient id="__lottie_element_62" spreadMethod="pad" gradientUnits="userSpaceOnUse" x1="97.20899963378906" y1="132.5240020751953" x2="102.18399810791016" y2="126.33499908447266"><stop offset="0%" stop-color="rgb(0,105,204)"></stop><stop offset="80%" stop-color="rgb(0,125,229)"></stop><stop offset="100%" stop-color="rgb(0,145,255)"></stop></linearGradient><linearGradient id="__lottie_element_63" spreadMethod="pad" gradientUnits="userSpaceOnUse" x1="-40.32500076293945" y1="97.15599822998047" x2="-31.44499969482422" y2="133.27000427246094"><stop offset="0%" stop-color="rgb(0,56,102)"></stop><stop offset="60%" stop-color="rgb(0,100,178)"></stop><stop offset="100%" stop-color="rgb(0,145,255)"></stop></linearGradient><linearGradient id="__lottie_element_64" spreadMethod="pad" gradientUnits="userSpaceOnUse" x1="52.67499923706055" y1="101.15599822998047" x2="41.14899826049805" y2="138.1750030517578"><stop offset="0%" stop-color="rgb(0,56,102)"></stop><stop offset="60%" stop-color="rgb(0,100,178)"></stop><stop offset="100%" stop-color="rgb(0,145,255)"></stop></linearGradient></defs><g clip-path="url(#__lottie_element_2)"><g style="display: block;" transform="matrix(0.9890900254249573,0,0,0.9841700196266174,255.42745971679688,248.46743774414062)" opacity="1"><g opacity="1" transform="matrix(1,0,0,1,0,0)"><path fill="rgb(255,169,0)" fill-opacity="1" d=" M44.928001403808594,64.67900085449219 C44.928001403808594,64.67900085449219 -39.55099868774414,62.20899963378906 -39.55099868774414,62.20899963378906 C-39.55099868774414,62.20899963378906 -75.1449966430664,112.7969970703125 -67.36299896240234,147.23699951171875 C-55.47200012207031,199.86399841308594 64.5530014038086,196.7259979248047 75.66200256347656,151.23699951171875 C85,113 44.928001403808594,64.67900085449219 44.928001403808594,64.67900085449219z"></path><path stroke-linecap="round" stroke-linejoin="round" fill-opacity="0" stroke="rgb(197,92,0)" stroke-opacity="1" stroke-width="8.5" d=" M44.928001403808594,64.67900085449219 C44.928001403808594,64.67900085449219 -39.55099868774414,62.20899963378906 -39.55099868774414,62.20899963378906 C-39.55099868774414,62.20899963378906 -75.1449966430664,112.7969970703125 -67.36299896240234,147.23699951171875 C-55.47200012207031,199.86399841308594 64.5530014038086,196.7259979248047 75.66200256347656,151.23699951171875 C85,113 44.928001403808594,64.67900085449219 44.928001403808594,64.67900085449219z"></path></g></g><g style="display: block;" transform="matrix(1.0815000534057617,0,0,1.0815000534057617,255.89634704589844,256.85968017578125)" opacity="1"><g opacity="1" transform="matrix(1,0,0,1,0,0)"><g opacity="1" transform="matrix(1,0,0,1,0,0)"><g opacity="1" transform="matrix(1,0,0,1,0,0)"><path fill="rgb(0,71,154)" fill-opacity="1" d=" M47.869998931884766,94.61199951171875 C39.5369987487793,84.93599700927734 -37.14899826049805,86.45700073242188 -41.94900131225586,95.58699798583984"></path><path stroke-linecap="round" stroke-linejoin="round" fill-opacity="0" stroke="rgb(0,71,154)" stroke-opacity="1" stroke-width="8" d=" M47.869998931884766,94.61199951171875 C39.5369987487793,84.93599700927734 -37.14899826049805,86.45700073242188 -41.94900131225586,95.58699798583984"></path></g></g><g opacity="1" transform="matrix(1,0,0,1,0,0)"><g opacity="1" transform="matrix(1,0,0,1,0,0)"><path fill="url(#__lottie_element_59)" fill-opacity="1" d=" M46.51900100708008,107.12100219726562 C46.51900100708008,107.12100219726562 46.51900100708008,106.96099853515625 46.51900100708008,106.96099853515625 C46.51900100708008,106.96099853515625 -27.93000030517578,105.03700256347656 -39.165000915527344,106.95999908447266 C-39.165000915527344,106.95999908447266 -39.165000915527344,106.96099853515625 -39.165000915527344,106.96099853515625 C-84.28900146484375,109.43900299072266 -134.78900146484375,129.57400512695312 -139.00999450683594,192.947998046875 C-139.00999450683594,192.947998046875 -131.36700439453125,199.99400329589844 -105.86299896240234,199.99400329589844 C-105.86299896240234,199.99400329589844 111.8030014038086,199.99400329589844 111.8030014038086,199.99400329589844 C134.70199584960938,200.0240020751953 144.42100524902344,192.82899475097656 144.42100524902344,192.82899475097656 C141.31700134277344,124.76599884033203 93.19100189208984,109.73999786376953 46.51900100708008,107.12100219726562z"></path></g><g opacity="1" transform="matrix(1,0,0,1,0,0)"><g opacity="1" transform="matrix(1,0,0,1,0,0)"><path stroke-linecap="round" stroke-linejoin="round" fill-opacity="0" stroke="rgb(0,43,111)" stroke-opacity="1" stroke-width="8" d=" M-138.48199462890625,187.03399658203125 C-137.54800415039062,179.69700622558594 -134.18800354003906,158.79800415039062 -121.69499969482422,143.177001953125 C-109.9749984741211,128.53599548339844 -81.34100341796875,114.17400360107422 -39.165000915527344,106.96099853515625"></path></g></g><g opacity="1" transform="matrix(1,0,0,1,0,0)"><path stroke-linecap="round" stroke-linejoin="round" fill-opacity="0" stroke="rgb(0,43,111)" stroke-opacity="1" stroke-width="5" d=" M-118.6259994506836,139.74400329589844 C-118.6259994506836,139.74400329589844 -117.50900268554688,164.71400451660156 -106.53600311279297,197.11000061035156"></path></g><g opacity="1" transform="matrix(1,0,0,1,0,0)"><g opacity="1" transform="matrix(1,0,0,1,0,0)"><path stroke-linecap="round" stroke-linejoin="round" fill-opacity="0" stroke="rgb(0,43,111)" stroke-opacity="1" stroke-width="8" d=" M145.06900024414062,188.73599243164062 C144.35699462890625,182.69000244140625 141.18299865722656,159.47799682617188 128.14700317382812,143.177001953125 C116.427001953125,128.53599548339844 87.79299926757812,114.17400360107422 45.617000579833984,106.96099853515625"></path></g></g><g opacity="1" transform="matrix(1,0,0,1,0,0)"><path stroke-linecap="round" stroke-linejoin="round" fill-opacity="0" stroke="rgb(0,43,111)" stroke-opacity="1" stroke-width="5" d=" M125.0780029296875,139.74400329589844 C125.0780029296875,139.74400329589844 123.35299682617188,164.8939971923828 112.37999725341797,197.2899932861328"></path></g><g opacity="1" transform="matrix(1,0,0,1,0,0)"><g opacity="1" transform="matrix(1,0,0,1,0,0)"><path fill="rgb(181,102,6)" fill-opacity="1" d=" M-31.98200035095215,80.35700225830078 C-31.98200035095215,80.35700225830078 -40.81700134277344,119.4489974975586 -39.165000915527344,122.8280029296875 C-32.12099838256836,137.23300170898438 -4.6479997634887695,165.55999755859375 3.9200000762939453,165.55999755859375 C12.151000022888184,165.55999755859375 38.33599853515625,136.97500610351562 45.61800003051758,122.8280029296875 C47.27399826049805,119.61100006103516 37.35900115966797,79.31199645996094 37.35900115966797,79.31199645996094 C37.35900115966797,79.31199645996094 -31.98200035095215,80.35700225830078 -31.98200035095215,80.35700225830078z"></path></g><g opacity="1" transform="matrix(1,0,0,1,0,0)"><path stroke-linecap="round" stroke-linejoin="round" fill-opacity="0" stroke="rgb(153,71,4)" stroke-opacity="1" stroke-width="8" d=" M43.202999114990234,111.48300170898438 C43.481998443603516,109.34300231933594 38.18600082397461,81.18199920654297 38.18600082397461,80.35700225830078 C38.18600082397461,80.35700225830078 -31.98200035095215,80.35700225830078 -31.98200035095215,80.35700225830078 C-31.98200035095215,80.35700225830078 -36.7130012512207,108.47000122070312 -36.39099884033203,110.83499908447266"></path></g><g opacity="1" transform="matrix(1,0,0,0.7416300177574158,0,32.29624938964844)"><path fill="url(#__lottie_element_60)" fill-opacity="1" d=" M37.13800048828125,65.18699645996094 C37.13800048828125,65.18699645996094 -31.26300048828125,65.86199951171875 -31.26300048828125,65.86199951171875 C-31.26300048828125,65.86199951171875 -39.165000915527344,122.8280029296875 -39.165000915527344,122.8280029296875 C-39.165000915527344,122.8280029296875 -10.406000137329102,178.7169952392578 3.6700000762939453,178.70700073242188 C17.600000381469727,178.697998046875 45.61800003051758,122.8280029296875 45.61800003051758,122.8280029296875 C45.61800003051758,122.8280029296875 37.13800048828125,65.18699645996094 37.13800048828125,65.18699645996094z"></path></g></g></g><g opacity="1" transform="matrix(1,0,0,1,0,0)"><g opacity="1" transform="matrix(1,0,0,1,0,0)"><path fill="url(#__lottie_element_61)" fill-opacity="1" d=" M73.13700103759766,111.87999725341797 C73.13700103759766,111.87999725341797 77.75199890136719,127.78800201416016 80.69000244140625,129.55099487304688 C83.62799835205078,131.31399536132812 103.44599914550781,138.218994140625 123.02999877929688,154.2949981689453 C123.02999877929688,154.2949981689453 126.40699768066406,142.77000427246094 121.56400299072266,134.406005859375 C121.56400299072266,134.406005859375 108.48799896240234,120.11399841308594 90.7760009765625,113.85299682617188 C83.77999877929688,111.37999725341797 73.13700103759766,111.87999725341797 73.13700103759766,111.87999725341797z"></path><path stroke-linecap="round" stroke-linejoin="round" fill-opacity="0" stroke="rgb(0,43,111)" stroke-opacity="1" stroke-width="5" d=" M73.13700103759766,111.87999725341797 C73.13700103759766,111.87999725341797 77.75199890136719,127.78800201416016 80.69000244140625,129.55099487304688 C83.62799835205078,131.31399536132812 103.44599914550781,138.218994140625 123.02999877929688,154.2949981689453 C123.02999877929688,154.2949981689453 126.40699768066406,142.77000427246094 121.56400299072266,134.406005859375 C121.56400299072266,134.406005859375 108.48799896240234,120.11399841308594 90.7760009765625,113.85299682617188 C83.77999877929688,111.37999725341797 73.13700103759766,111.87999725341797 73.13700103759766,111.87999725341797z"></path></g><g opacity="1" transform="matrix(1,0,0,1,0,0)"><path fill="rgb(0,36,84)" fill-opacity="1" d=" M83.33100128173828,118.55000305175781 C81.19400024414062,122.95099639892578 94.90699768066406,128.625 97.45800018310547,124.18199920654297 C99.70099639892578,120.27400207519531 85.62100219726562,113.83300018310547 83.33100128173828,118.55000305175781z"></path></g></g><g opacity="1" transform="matrix(-1,0,0,1,6.067999839782715,0.48500001430511475)"><g opacity="1" transform="matrix(1,0,0,1,0,0)"><path fill="url(#__lottie_element_62)" fill-opacity="1" d=" M73.13700103759766,111.87999725341797 C73.13700103759766,111.87999725341797 77.75199890136719,127.78800201416016 80.69000244140625,129.55099487304688 C83.62799835205078,131.31399536132812 103.44599914550781,138.218994140625 123.02999877929688,154.2949981689453 C123.02999877929688,154.2949981689453 126.40699768066406,142.77000427246094 121.56400299072266,134.406005859375 C121.56400299072266,134.406005859375 108.48799896240234,120.11399841308594 90.7760009765625,113.85299682617188 C83.77999877929688,111.37999725341797 73.13700103759766,111.87999725341797 73.13700103759766,111.87999725341797z"></path><path stroke-linecap="round" stroke-linejoin="round" fill-opacity="0" stroke="rgb(0,43,111)" stroke-opacity="1" stroke-width="5" d=" M73.13700103759766,111.87999725341797 C73.13700103759766,111.87999725341797 77.75199890136719,127.78800201416016 80.69000244140625,129.55099487304688 C83.62799835205078,131.31399536132812 103.44599914550781,138.218994140625 123.02999877929688,154.2949981689453 C123.02999877929688,154.2949981689453 126.40699768066406,142.77000427246094 121.56400299072266,134.406005859375 C121.56400299072266,134.406005859375 108.48799896240234,120.11399841308594 90.7760009765625,113.85299682617188 C83.77999877929688,111.37999725341797 73.13700103759766,111.87999725341797 73.13700103759766,111.87999725341797z"></path></g><g opacity="1" transform="matrix(1,0,0,1,0,0)"><path fill="rgb(0,36,84)" fill-opacity="1" d=" M83.33100128173828,118.55000305175781 C81.19400024414062,122.95099639892578 94.90699768066406,128.625 97.45800018310547,124.18199920654297 C99.70099639892578,120.27400207519531 85.62100219726562,113.83300018310547 83.33100128173828,118.55000305175781z"></path></g></g><g opacity="1" transform="matrix(1,0,0,1,0,0)"><g opacity="1" transform="matrix(1,0,0,1,0,0)"><path fill="rgb(0,119,220)" fill-opacity="1" d=" M-88.822998046875,199.99400329589844 C-88.822998046875,199.99400329589844 -88.822998046875,182.76499938964844 -88.822998046875,182.76499938964844 C-88.822998046875,182.76499938964844 -38.01499938964844,182.76499938964844 -38.01499938964844,182.76499938964844 C-38.01499938964844,182.76499938964844 -38.01499938964844,199.99400329589844 -38.01499938964844,199.99400329589844 C-38.01499938964844,199.99400329589844 -88.822998046875,199.99400329589844 -88.822998046875,199.99400329589844z"></path></g><g opacity="1" transform="matrix(1,0,0,1,0,0)"><path stroke-linecap="round" stroke-linejoin="round" fill-opacity="0" stroke="rgb(0,71,154)" stroke-opacity="1" stroke-width="5" d=" M-88.822998046875,197.718994140625 C-88.822998046875,197.718994140625 -88.822998046875,182.76499938964844 -88.822998046875,182.76499938964844 C-88.822998046875,182.76499938964844 -38.01499938964844,182.76499938964844 -38.01499938964844,182.76499938964844 C-38.01499938964844,182.76499938964844 -38.01499938964844,197.718994140625 -38.01499938964844,197.718994140625"></path></g><g opacity="1" transform="matrix(1,0,0,1,0,0)"><path fill="rgb(0,145,255)" fill-opacity="1" d=" M-90.87799835205078,174.07899475097656 C-91.51899719238281,174.07899475097656 -92.03900146484375,174.60000610351562 -92.03900146484375,175.24099731445312 C-92.03900146484375,175.24099731445312 -92.03900146484375,187.06300354003906 -92.03900146484375,187.06300354003906 C-92.03900146484375,187.7760009765625 -91.40599822998047,188.31900024414062 -90.70099639892578,188.21099853515625 C-87.10800170898438,187.6580047607422 -77.7750015258789,186.13499450683594 -70.74600219726562,190.43699645996094 C-69.35199737548828,191.2899932861328 -68.23300170898438,192.47000122070312 -67.03600311279297,193.29400634765625 C-64.84500122070312,194.80299377441406 -61.95600128173828,194.81399536132812 -59.770999908447266,193.2949981689453 C-58.60300064086914,192.48300170898438 -56.96900177001953,191.56700134277344 -55.606998443603516,190.61900329589844 C-48.750999450683594,185.8470001220703 -39.73099899291992,187.6580047607422 -36.13800048828125,188.21099853515625 C-35.43299865722656,188.31900024414062 -34.79999923706055,187.7760009765625 -34.79999923706055,187.06300354003906 C-34.79999923706055,187.06300354003906 -34.79999923706055,175.24099731445312 -34.79999923706055,175.24099731445312 C-34.79999923706055,174.60000610351562 -35.31999969482422,174.07899475097656 -35.96099853515625,174.07899475097656 C-35.96099853515625,174.07899475097656 -90.87799835205078,174.07899475097656 -90.87799835205078,174.07899475097656z"></path><path stroke-linecap="round" stroke-linejoin="round" fill-opacity="0" stroke="rgb(0,71,154)" stroke-opacity="1" stroke-width="5" d=" M-90.87799835205078,174.07899475097656 C-91.51899719238281,174.07899475097656 -92.03900146484375,174.60000610351562 -92.03900146484375,175.24099731445312 C-92.03900146484375,175.24099731445312 -92.03900146484375,187.06300354003906 -92.03900146484375,187.06300354003906 C-92.03900146484375,187.7760009765625 -91.40599822998047,188.31900024414062 -90.70099639892578,188.21099853515625 C-87.10800170898438,187.6580047607422 -77.7750015258789,186.13499450683594 -70.74600219726562,190.43699645996094 C-69.35199737548828,191.2899932861328 -68.23300170898438,192.47000122070312 -67.03600311279297,193.29400634765625 C-64.84500122070312,194.80299377441406 -61.95600128173828,194.81399536132812 -59.770999908447266,193.2949981689453 C-58.60300064086914,192.48300170898438 -56.96900177001953,191.56700134277344 -55.606998443603516,190.61900329589844 C-48.750999450683594,185.8470001220703 -39.73099899291992,187.6580047607422 -36.13800048828125,188.21099853515625 C-35.43299865722656,188.31900024414062 -34.79999923706055,187.7760009765625 -34.79999923706055,187.06300354003906 C-34.79999923706055,187.06300354003906 -34.79999923706055,175.24099731445312 -34.79999923706055,175.24099731445312 C-34.79999923706055,174.60000610351562 -35.31999969482422,174.07899475097656 -35.96099853515625,174.07899475097656 C-35.96099853515625,174.07899475097656 -90.87799835205078,174.07899475097656 -90.87799835205078,174.07899475097656z"></path></g></g><g opacity="1" transform="matrix(1,0,0,1,0,0)"><g opacity="1" transform="matrix(1,0,0,1,0,0)"><path stroke-linecap="butt" stroke-linejoin="miter" fill-opacity="0" stroke-miterlimit="10" stroke="rgb(224,163,52)" stroke-opacity="1" stroke-width="8" d=" M-92.03900146484375,162.18699645996094 C-92.03900146484375,162.18699645996094 -61.152000427246094,162.18699645996094 -61.152000427246094,162.18699645996094"></path></g><g opacity="1" transform="matrix(1,0,0,1,0,0)"><path stroke-linecap="butt" stroke-linejoin="miter" fill-opacity="0" stroke-miterlimit="10" stroke="rgb(255,207,15)" stroke-opacity="1" stroke-width="5" d=" M-92.03900146484375,160.29800415039062 C-92.03900146484375,160.29800415039062 -61.152000427246094,160.29800415039062 -61.152000427246094,160.29800415039062"></path></g></g><g opacity="1" transform="matrix(1,0,0,1,0,0)"><g opacity="1" transform="matrix(1,0,0,1,0,0)"><path fill="rgb(241,220,0)" fill-opacity="1" d=" M106.14900207519531,166.1820068359375 C103.48899841308594,163.08200073242188 103.69499969482422,160.65899658203125 105.27999877929688,158.19900512695312 C109.34500122070312,151.88800048828125 103.54399871826172,149.97999572753906 99.87899780273438,151.41799926757812 C95.83999633789062,153.0030059814453 85.10199737548828,152.80499267578125 81.01799774169922,151.33999633789062 C76.52999877929688,149.72999572753906 73.13700103759766,153.32899475097656 75.94599914550781,157.6719970703125 C78.3290023803711,161.3560028076172 75.8759994506836,163.4290008544922 74.14800262451172,166.1820068359375 C71.23999786376953,170.81500244140625 67.06700134277344,177.5659942626953 73.08899688720703,185.1540069580078 C75.80799865722656,188.57899475097656 79.65699768066406,190 83.1989974975586,191.40199279785156 C85.91200256347656,192.4759979248047 88.44400024414062,194.82899475097656 90.14800262451172,194.82899475097656 C91.86699676513672,194.82899475097656 94.56300354003906,192.4250030517578 97.44200134277344,191.23800659179688 C100.88600158691406,189.81900024414062 104.59200286865234,188.447998046875 107.20700073242188,185.1540069580078 C113.2300033569336,177.5659942626953 109.71099853515625,170.33299255371094 106.14900207519531,166.1820068359375z"></path><path stroke-linecap="round" stroke-linejoin="round" fill-opacity="0" stroke="rgb(195,162,0)" stroke-opacity="1" stroke-width="5" d=" M106.14900207519531,166.1820068359375 C103.48899841308594,163.08200073242188 103.69499969482422,160.65899658203125 105.27999877929688,158.19900512695312 C109.34500122070312,151.88800048828125 103.54399871826172,149.97999572753906 99.87899780273438,151.41799926757812 C95.83999633789062,153.0030059814453 85.10199737548828,152.80499267578125 81.01799774169922,151.33999633789062 C76.52999877929688,149.72999572753906 73.13700103759766,153.32899475097656 75.94599914550781,157.6719970703125 C78.3290023803711,161.3560028076172 75.8759994506836,163.4290008544922 74.14800262451172,166.1820068359375 C71.23999786376953,170.81500244140625 67.06700134277344,177.5659942626953 73.08899688720703,185.1540069580078 C75.80799865722656,188.57899475097656 79.65699768066406,190 83.1989974975586,191.40199279785156 C85.91200256347656,192.4759979248047 88.44400024414062,194.82899475097656 90.14800262451172,194.82899475097656 C91.86699676513672,194.82899475097656 94.56300354003906,192.4250030517578 97.44200134277344,191.23800659179688 C100.88600158691406,189.81900024414062 104.59200286865234,188.447998046875 107.20700073242188,185.1540069580078 C113.2300033569336,177.5659942626953 109.71099853515625,170.33299255371094 106.14900207519531,166.1820068359375z"></path></g><g opacity="1" transform="matrix(1,0,0,1,0,0)"><path fill="rgb(255,247,126)" fill-opacity="1" d=" M98.78600311279297,166.44400024414062 C97.50299835205078,164.38900756835938 95.03199768066406,161.75900268554688 96.4260025024414,158.802001953125 C97.82499694824219,155.83599853515625 97.77100372314453,156.13299560546875 95.00499725341797,156.7689971923828 C92.52300262451172,157.33999633789062 86.87699890136719,157.2010040283203 84.73400115966797,156.76600646972656 C81.9530029296875,156.2010040283203 81.9260025024414,155.83599853515625 83.3239974975586,158.802001953125 C84.89199829101562,162.12899780273438 82.38400268554688,164.35400390625 81.2249984741211,166.13499450683594 C79.44999694824219,168.86399841308594 75.31800079345703,174.61700439453125 78.9020004272461,179.13299560546875 C80.5199966430664,181.17100524902344 88.93599700927734,184.9720001220703 89.94999694824219,184.9720001220703 C90.9729995727539,184.9720001220703 99.91500091552734,181.093994140625 101.47100067138672,179.13299560546875 C105.05599975585938,174.61700439453125 100.51000213623047,169.2050018310547 98.78600311279297,166.44400024414062z"></path></g><g opacity="1" transform="matrix(1,0,0,1,0,0)"><path fill="rgb(222,191,0)" fill-opacity="1" d=" M90.18699645996094,166.03700256347656 C91.08499908447266,166.03399658203125 92.66500091552734,169.13499450683594 92.95500183105469,169.177001953125 C92.95500183105469,169.177001953125 95.73899841308594,169.3699951171875 96.08399963378906,170.0050048828125 C96.39399719238281,170.61500549316406 93.97100067138672,173.74200439453125 94.0199966430664,174.02999877929688 C94.0199966430664,174.02999877929688 94.90799713134766,177.56700134277344 94.06099700927734,177.9340057373047 C93.31700134277344,178.30999755859375 90.56199645996094,176.54200744628906 90.56199645996094,176.54200744628906 C90.3030014038086,176.406005859375 87.57599639892578,178.22799682617188 86.53900146484375,177.93099975585938 C85.86599731445312,177.56399536132812 86.2760009765625,174.02999877929688 86.2760009765625,174.02999877929688 C86.32499694824219,173.74200439453125 83.74199676513672,170.61599731445312 84.12899780273438,169.97500610351562 C84.43599700927734,169.33999633789062 87.34100341796875,169.177001953125 87.34100341796875,169.177001953125 C87.63099670410156,169.13499450683594 89.26399993896484,166.125 90.18699645996094,166.03700256347656z"></path></g><g opacity="1" transform="matrix(1,0,0,1,0,0)"><path fill="rgb(255,255,255)" fill-opacity="0.5" d=" M90.64600372314453,154.8159942626953 C90.64600372314453,154.8159942626953 75.02999877929688,183.09100341796875 75.02999877929688,183.09100341796875 C75.02999877929688,183.09100341796875 79.75299835205078,187.48599243164062 79.75299835205078,187.48599243164062 C79.75299835205078,187.48599243164062 98.44000244140625,154.8159942626953 98.44000244140625,154.8159942626953 C98.44000244140625,154.8159942626953 90.64600372314453,154.8159942626953 90.64600372314453,154.8159942626953z"></path></g><g opacity="1" transform="matrix(1,0,0,1,0,0)"><path fill="rgb(255,255,255)" fill-opacity="0.5" d=" M103.48799896240234,153.90699768066406 C103.48799896240234,153.90699768066406 83.56099700927734,188.79100036621094 83.56099700927734,188.79100036621094 C83.56099700927734,188.79100036621094 85.97899627685547,190.83299255371094 85.97899627685547,190.83299255371094 C85.97899627685547,190.83299255371094 102.02300262451172,162.99600219726562 102.02300262451172,162.99600219726562 C102.02300262451172,162.99600219726562 103.48799896240234,153.90699768066406 103.48799896240234,153.90699768066406z"></path></g></g><g opacity="1" transform="matrix(1,0,0,1,0,0)"><g opacity="1" transform="matrix(1,0,0,1,0,0)"><path fill="rgb(223,228,234)" fill-opacity="1" d=" M-125.6709976196289,162.18699645996094 C-125.6709976196289,162.18699645996094 -130.22900390625,171.77000427246094 -133.1300048828125,193.9459991455078 C-133.1300048828125,193.9459991455078 -140.02999877929688,191.18600463867188 -142.0290069580078,187.50999450683594 C-142.0290069580078,187.50999450683594 -142.05599975585938,175.45899963378906 -133.95599365234375,156.34100341796875 C-133.95599365234375,156.34100341796875 -130.85899353027344,160.2969970703125 -125.6709976196289,162.18699645996094z"></path></g><g opacity="1" transform="matrix(1,0,0,1,0,0)"><path stroke-linecap="round" stroke-linejoin="round" fill-opacity="0" stroke="rgb(185,102,128)" stroke-opacity="1" stroke-width="5" d=" M-140.5449981689453,176.69000244140625 C-140.5449981689453,176.69000244140625 -137.54800415039062,181.43299865722656 -131.36700439453125,182.79800415039062"></path></g><g opacity="1" transform="matrix(1,0,0,1,0,0)"><path stroke-linecap="round" stroke-linejoin="round" fill-opacity="0" stroke="rgb(185,102,128)" stroke-opacity="1" stroke-width="5" d=" M-141.77000427246094,184.6280059814453 C-141.77000427246094,184.6280059814453 -139.01100158691406,188.31900024414062 -132.5659942626953,189.92300415039062"></path></g><g opacity="1" transform="matrix(1,0,0,1,0,0)"><path fill="rgb(45,115,182)" fill-opacity="1" d=" M-125.6729965209961,162.1909942626953 C-125.6729965209961,162.1909942626953 -127.86799621582031,167.75999450683594 -130.08599853515625,177.30799865722656 C-135.95700073242188,176.32699584960938 -139.00999450683594,171.51699829101562 -139.00999450683594,171.51699829101562 C-137.82000732421875,167.0449981689453 -136.98800659179688,163.51199340820312 -134.42799377441406,157.4709930419922 C-134.42799377441406,157.4709930419922 -130.85699462890625,160.29800415039062 -125.6729965209961,162.1909942626953z"></path></g><g opacity="1" transform="matrix(1,0,0,1,0,0)"><path stroke-linecap="round" stroke-linejoin="round" fill-opacity="0" stroke="rgb(79,103,69)" stroke-opacity="1" stroke-width="5" d=" M-125.6709976196289,162.18699645996094 C-125.6709976196289,162.18699645996094 -130.22900390625,171.77000427246094 -133.1300048828125,193.9459991455078 C-133.1300048828125,193.9459991455078 -140.02999877929688,191.18600463867188 -142.0290069580078,187.50999450683594 C-142.0290069580078,187.50999450683594 -142.5279998779297,176.58900451660156 -134.42799377441406,157.4709930419922 C-134.42799377441406,157.4709930419922 -132.5659942626953,160.2969970703125 -125.6709976196289,162.18699645996094z"></path></g><g opacity="1" transform="matrix(1,0,0,1,0,0)"><path stroke-linecap="round" stroke-linejoin="round" fill-opacity="0" stroke="rgb(185,210,62)" stroke-opacity="1" stroke-width="5" d=" M-134.42799377441406,157.4709930419922 C-134.42799377441406,157.4709930419922 -132.5659942626953,160.2969970703125 -125.6709976196289,162.18699645996094 C-125.6709976196289,162.18699645996094 -130.22900390625,171.77000427246094 -133.1300048828125,193.9459991455078"></path></g></g></g><g opacity="1" transform="matrix(1,0,0,1,0,0)"><g opacity="1" transform="matrix(1,0,0,1,0,0)"><g opacity="1" transform="matrix(1,0,0,1,0,0)"><g opacity="1" transform="matrix(1,0,0,1,0,0)"><path fill="rgb(0,71,154)" fill-opacity="0.6" d=" M21.86199951171875,197.6320037841797 C21.86199951171875,197.6320037841797 21.86199951171875,163.41099548339844 21.86199951171875,163.41099548339844 C21.86199951171875,163.41099548339844 2.555000066757202,179.86099243164062 2.555000066757202,179.86099243164062 C2.555000066757202,179.86099243164062 2.555000066757202,197.6320037841797 2.555000066757202,197.6320037841797"></path><path stroke-linecap="round" stroke-linejoin="round" fill-opacity="0" stroke="rgb(0,43,111)" stroke-opacity="1" stroke-width="5" d=" M21.86199951171875,197.6320037841797 C21.86199951171875,197.6320037841797 21.86199951171875,163.41099548339844 21.86199951171875,163.41099548339844 C21.86199951171875,163.41099548339844 2.555000066757202,179.86099243164062 2.555000066757202,179.86099243164062 C2.555000066757202,179.86099243164062 2.555000066757202,197.6320037841797 2.555000066757202,197.6320037841797"></path></g></g><g opacity="1" transform="matrix(1,0,0,1,0,0)"><path fill="rgb(0,36,84)" fill-opacity="1" d=" M17.517000198364258,194.29100036621094 C17.517000198364258,197.22300720214844 15.140000343322754,199.5989990234375 12.208000183105469,199.5989990234375 C9.276000022888184,199.5989990234375 6.900000095367432,197.22300720214844 6.900000095367432,194.29100036621094 C6.900000095367432,191.35899353027344 9.276000022888184,188.98199462890625 12.208000183105469,188.98199462890625 C15.140000343322754,188.98199462890625 17.517000198364258,191.35899353027344 17.517000198364258,194.29100036621094z"></path></g></g><g opacity="1" transform="matrix(1,0,0,1,0,0)"><path fill="url(#__lottie_element_63)" fill-opacity="1" d=" M-41.92499923706055,96.03800201416016 C-34.37099838256836,122.19300079345703 0.781000018119812,152.8769989013672 6.979000091552734,166.281005859375 C6.979000091552734,166.281005859375 3.9200000762939453,176.0709991455078 3.9200000762939453,176.0709991455078 C-5.599999904632568,166.63099670410156 -19.334999084472656,159.79299926757812 -19.334999084472656,159.79299926757812 C-19.334999084472656,159.79299926757812 -21.450000762939453,149.41600036621094 -21.450000762939453,149.41600036621094 C-21.450000762939453,149.41600036621094 -38.39799880981445,152.55999755859375 -53.676998138427734,166.60800170898438 C-53.676998138427734,166.60800170898438 -56.683998107910156,139.60800170898438 -52.02399826049805,112.34500122070312 C-50.99700164794922,106.33499908447266 -41.92499923706055,96.03800201416016 -41.92499923706055,96.03800201416016z"></path><path stroke-linecap="round" stroke-linejoin="round" fill-opacity="0" stroke="rgb(0,71,154)" stroke-opacity="1" stroke-width="8" d=" M-41.92499923706055,96.03800201416016 C-34.37099838256836,122.19300079345703 0.781000018119812,152.8769989013672 6.979000091552734,166.281005859375 C6.979000091552734,166.281005859375 3.9200000762939453,176.0709991455078 3.9200000762939453,176.0709991455078 C-5.599999904632568,166.63099670410156 -19.334999084472656,159.79299926757812 -19.334999084472656,159.79299926757812 C-19.334999084472656,159.79299926757812 -21.450000762939453,149.41600036621094 -21.450000762939453,149.41600036621094 C-21.450000762939453,149.41600036621094 -38.39799880981445,152.55999755859375 -53.676998138427734,166.60800170898438 C-53.676998138427734,166.60800170898438 -56.683998107910156,139.60800170898438 -52.02399826049805,112.34500122070312 C-50.99700164794922,106.33499908447266 -41.92499923706055,96.03800201416016 -41.92499923706055,96.03800201416016z"></path></g><g opacity="1" transform="matrix(1,0,0,1,0,0)"><path stroke-linecap="round" stroke-linejoin="round" fill-opacity="0" stroke="rgb(0,43,111)" stroke-opacity="1" stroke-width="8" d=" M3.9200000762939453,176.0709991455078 C-5.599999904632568,166.63099670410156 -19.334999084472656,159.79299926757812 -19.334999084472656,159.79299926757812 C-19.334999084472656,159.79299926757812 -21.659000396728516,149.30799865722656 -21.659000396728516,149.30799865722656 C-21.659000396728516,149.30799865722656 -38.41999816894531,152.5760040283203 -53.69900131225586,166.62399291992188"></path></g><g opacity="1" transform="matrix(1,0,0,1,0,0)"><path fill="url(#__lottie_element_64)" fill-opacity="1" d=" M3.9200000762939453,179.86099243164062 C3.9200000762939453,179.86099243164062 5.794000148773193,166.97500610351562 10.937000274658203,157.14300537109375 C13.350000381469727,152.52999877929688 41.96500015258789,125.59200286865234 48.262001037597656,94.56700134277344 C48.262001037597656,94.56700134277344 55.018001556396484,108.6050033569336 57.402000427246094,115.40499877929688 C58.867000579833984,119.58499908447266 63.082000732421875,142.8249969482422 62.22999954223633,166.2530059814453 C62.22999954223633,166.2530059814453 48.77199935913086,152.4499969482422 31.160999298095703,146.9980010986328 C31.160999298095703,146.9980010986328 30.281999588012695,159.61000061035156 30.281999588012695,159.61000061035156 C30.281999588012695,159.61000061035156 17.507999420166016,165.55999755859375 3.9200000762939453,179.86099243164062z"></path><path stroke-linecap="round" stroke-linejoin="round" fill-opacity="0" stroke="rgb(0,71,154)" stroke-opacity="1" stroke-width="8" d=" M3.9200000762939453,179.86099243164062 C3.9200000762939453,179.86099243164062 5.794000148773193,166.97500610351562 10.937000274658203,157.14300537109375 C13.350000381469727,152.52999877929688 41.96500015258789,125.59200286865234 48.262001037597656,94.56700134277344 C48.262001037597656,94.56700134277344 55.018001556396484,108.6050033569336 57.402000427246094,115.40499877929688 C58.867000579833984,119.58499908447266 63.082000732421875,142.8249969482422 62.22999954223633,166.2530059814453 C62.22999954223633,166.2530059814453 48.77199935913086,152.4499969482422 31.160999298095703,146.9980010986328 C31.160999298095703,146.9980010986328 30.281999588012695,159.61000061035156 30.281999588012695,159.61000061035156 C30.281999588012695,159.61000061035156 17.507999420166016,165.55999755859375 3.9200000762939453,179.86099243164062z"></path></g><g opacity="1" transform="matrix(1,0,0,1,0,0)"><path stroke-linecap="round" stroke-linejoin="round" fill-opacity="0" stroke="rgb(0,43,111)" stroke-opacity="1" stroke-width="8" d=" M62.220001220703125,166.41400146484375 C62.220001220703125,166.41400146484375 48.77199935913086,152.4499969482422 31.160999298095703,146.9980010986328 C31.160999298095703,146.9980010986328 30.281999588012695,159.61000061035156 30.281999588012695,159.61000061035156 C30.281999588012695,159.61000061035156 17.507999420166016,165.55999755859375 3.9200000762939453,179.86099243164062"></path></g></g></g><g style="display: block;" transform="matrix(0.9764999747276306,0,0,0.9764999747276306,255.73541259765625,247.08419799804688)" opacity="1"><g opacity="1" transform="matrix(1,0,0,1,0,0)"><path fill="rgb(255,168,0)" fill-opacity="1" d=" M-111.76699829101562,-40.81399917602539 C-111.76699829101562,-40.81399917602539 -123.31199645996094,-40.88199996948242 -125.0739974975586,-25.385000228881836 C-126.44200134277344,-13.348999977111816 -118.99199676513672,25.340999603271484 -103.51300048828125,22.10300064086914 C-82.83899688720703,17.77899932861328 -100.07499694824219,-43.775001525878906 -111.76699829101562,-40.81399917602539z"></path><path stroke-linecap="round" stroke-linejoin="round" fill-opacity="0" stroke="rgb(219,110,0)" stroke-opacity="1" stroke-width="8" d=" M-111.76699829101562,-40.81399917602539 C-111.76699829101562,-40.81399917602539 -123.31199645996094,-40.88199996948242 -125.0739974975586,-25.385000228881836 C-126.44200134277344,-13.348999977111816 -118.99199676513672,25.340999603271484 -103.51300048828125,22.10300064086914 C-82.83899688720703,17.77899932861328 -100.07499694824219,-43.775001525878906 -111.76699829101562,-40.81399917602539z"></path></g><g opacity="1" transform="matrix(1,0,0,1,0,0)"><path fill="rgb(255,168,0)" fill-opacity="1" d=" M118.69300079345703,-40.79899978637695 C118.69300079345703,-40.79899978637695 130.23800659179688,-40.86600112915039 132,-25.368999481201172 C133.3679962158203,-13.333000183105469 126.0199966430664,24.823999404907227 110.43900299072266,22.118999481201172 C91.26899719238281,18.790000915527344 105.34100341796875,-41.678001403808594 118.69300079345703,-40.79899978637695z"></path><path stroke-linecap="round" stroke-linejoin="round" fill-opacity="0" stroke="rgb(219,110,0)" stroke-opacity="1" stroke-width="8" d=" M118.69300079345703,-40.79899978637695 C118.69300079345703,-40.79899978637695 130.23800659179688,-40.86600112915039 132,-25.368999481201172 C133.3679962158203,-13.333000183105469 126.0199966430664,24.823999404907227 110.43900299072266,22.118999481201172 C91.26899719238281,18.790000915527344 105.34100341796875,-41.678001403808594 118.69300079345703,-40.79899978637695z"></path></g></g><g style="display: block;" transform="matrix(0.9841700196266174,0,0,0.9841700196266174,255.9711151123047,246.10491943359375)" opacity="1"><g opacity="1" transform="matrix(1,0,0,1,0,0)"><path fill="rgb(255,168,0)" fill-opacity="1" d=" M94.2020034790039,-122.3010025024414 C73.04199981689453,-151.68899536132812 -66.4530029296875,-151.68899536132812 -87.61199951171875,-122.3010025024414 C-108.77200317382812,-92.91300201416016 -126.40399932861328,-24.381000518798828 -98.77899932861328,33.220001220703125 C-71.15499877929688,90.82099914550781 -24.485000610351562,109.04000091552734 3.2950000762939453,109.04000091552734 C31.075000762939453,109.04000091552734 77.74400329589844,90.82099914550781 105.36900329589844,33.220001220703125 C132.9929962158203,-24.381000518798828 115.36100006103516,-92.91300201416016 94.2020034790039,-122.3010025024414z"></path></g><g opacity="1" transform="matrix(1,0,0,1,0,0)"><path fill="url(#__lottie_element_52)" fill-opacity="1" d=" M90.0479965209961,-62.39899826049805 C81.99600219726562,-71.97699737548828 50.84199905395508,-89.69300079345703 -2.2009999752044678,-89.73400115966797 C-47.000999450683594,-89.76899719238281 -74.26499938964844,-68.22200012207031 -82.61499786376953,-59.064998626708984 C-98.4469985961914,-41.70199966430664 -101.28500366210938,3.552999973297119 -78.7969970703125,40.887001037597656 C-56.310001373291016,78.22100067138672 -19.319000244140625,91.02899932861328 3.2950000762939453,91.02899932861328 C25.909000396728516,91.02899932861328 62.89899826049805,78.22100067138672 85.38700103759766,40.887001037597656 C107.8740005493164,3.552999973297119 106.71900177001953,-42.56800079345703 90.0479965209961,-62.39899826049805z"></path></g><g opacity="1" transform="matrix(1,0,0,1,0,0)"><path stroke-linecap="round" stroke-linejoin="round" fill-opacity="0" stroke="rgb(219,110,0)" stroke-opacity="1" stroke-width="8" d=" M-109.58200073242188,1.1490000486373901 C-107.30000305175781,12 -103.78199768066406,22.788999557495117 -98.77899932861328,33.220001220703125 C-71.15499877929688,90.82099914550781 -24.485000610351562,109.04000091552734 3.2950000762939453,109.04000091552734 C31.075000762939453,109.04000091552734 77.74400329589844,90.82099914550781 105.36900329589844,33.220001220703125 C132.9929962158203,-24.381000518798828 115.36100006103516,-92.91300201416016 94.2020034790039,-122.3010025024414 C94.2020034790039,-122.3010025024414 94.2020034790039,-122.3010025024414 94.2020034790039,-122.3010025024414 C73.04199981689453,-151.68899536132812 -66.4530029296875,-151.68899536132812 -87.61199951171875,-122.3010025024414 C-104.94000244140625,-98.23500061035156 -119.9020004272461,-47.917999267578125 -109.58200073242188,1.1490000486373901"></path></g></g><g style="display: block;" transform="matrix(0.9890900254249573,0,0,0.9841700196266174,255.9551544189453,248.46832275390625)" opacity="1"><g opacity="1" transform="matrix(1,0,0,1,0,0)"><path fill="rgb(255,205,0)" fill-opacity="1" d=" M124.59600067138672,-104.1760025024414 C133.86300659179688,-61.055999755859375 121.5469970703125,-28.040000915527344 121.5469970703125,-28.040000915527344 C104.89600372314453,-117.88899993896484 6.626999855041504,-85.87300109863281 6.626999855041504,-85.87300109863281 C6.626999855041504,-85.87300109863281 0,-85.87300109863281 0,-85.87300109863281 C0,-85.87300109863281 -98.26899719238281,-117.88899993896484 -114.91999816894531,-28.040000915527344 C-114.91999816894531,-28.040000915527344 -127.23500061035156,-61.055999755859375 -117.96800231933594,-104.1760025024414 C-107.24500274658203,-154.0749969482422 113.87300109863281,-154.0749969482422 124.59600067138672,-104.1760025024414z"></path></g><g opacity="1" transform="matrix(1,0,0,1,0,0)"><path fill="url(#__lottie_element_48)" fill-opacity="1" d=" M124.59600067138672,-104.1760025024414 C133.86300659179688,-61.055999755859375 121.5469970703125,-28.040000915527344 121.5469970703125,-28.040000915527344 C104.89600372314453,-117.88899993896484 6.626999855041504,-85.87300109863281 6.626999855041504,-85.87300109863281 C6.626999855041504,-85.87300109863281 0,-85.87300109863281 0,-85.87300109863281 C0,-85.87300109863281 -98.26899719238281,-117.88899993896484 -114.91999816894531,-28.040000915527344 C-114.91999816894531,-28.040000915527344 -127.23500061035156,-61.055999755859375 -117.96800231933594,-104.1760025024414 C-107.24500274658203,-154.0749969482422 113.87300109863281,-154.0749969482422 124.59600067138672,-104.1760025024414z"></path></g><g opacity="1" transform="matrix(1,0,0,1,0,0)"><path stroke-linecap="round" stroke-linejoin="round" fill-opacity="0" stroke="rgb(197,92,0)" stroke-opacity="1" stroke-width="8" d=" M124.59600067138672,-104.1760025024414 C133.86300659179688,-61.055999755859375 121.5469970703125,-28.040000915527344 121.5469970703125,-28.040000915527344 C104.89600372314453,-117.88899993896484 6.626999855041504,-85.87300109863281 6.626999855041504,-85.87300109863281 C6.626999855041504,-85.87300109863281 0,-85.87300109863281 0,-85.87300109863281 C0,-85.87300109863281 -98.26899719238281,-117.88899993896484 -114.91999816894531,-28.040000915527344 C-114.91999816894531,-28.040000915527344 -127.23500061035156,-61.055999755859375 -117.96800231933594,-104.1760025024414 C-107.24500274658203,-154.0749969482422 113.87300109863281,-154.0749969482422 124.59600067138672,-104.1760025024414z"></path></g><g opacity="1" transform="matrix(1,0,0,1,0,0)"><path stroke-linecap="round" stroke-linejoin="round" fill-opacity="0" stroke="rgb(163,65,0)" stroke-opacity="1" stroke-width="8" d=" M121.5469970703125,-28.040000915527344 C104.89600372314453,-117.88899993896484 6.626999855041504,-85.87300109863281 6.626999855041504,-85.87300109863281 C6.626999855041504,-85.87300109863281 0,-85.87300109863281 0,-85.87300109863281 C0,-85.87300109863281 -98.26899719238281,-117.88899993896484 -114.91999816894531,-28.040000915527344"></path></g></g><g style="display: block;" transform="matrix(0.9841700196266174,0,0,0.9841700196266174,255.57313537597656,247.00486755371094)" opacity="1"><g opacity="1" transform="matrix(1,0,0,1,0,0)"><path fill="rgb(75,37,2)" fill-opacity="1" d=" M40.82600021362305,63.077999114990234 C38.207000732421875,61.60499954223633 26.41900062561035,63.89699935913086 17.742000579833984,60.7859992980957 C9.0649995803833,57.67499923706055 7.10099983215332,62.077999114990234 3.990000009536743,62.077999114990234 C0.8799999952316284,62.077999114990234 -1.0839999914169312,57.67499923706055 -9.76099967956543,60.7859992980957 C-18.437999725341797,63.89699935913086 -30.225000381469727,61.60499954223633 -32.845001220703125,63.077999114990234 C-35.4640007019043,64.5510025024414 -17.5939998626709,81.55999755859375 3.990000009536743,81.55999755859375 C25.32200050354004,81.55999755859375 43.44599914550781,64.5510025024414 40.82600021362305,63.077999114990234z"></path></g><g opacity="1" transform="matrix(1,0,0,1,0,0)"><path fill="url(#__lottie_element_44)" fill-opacity="1" d=" M40.82600021362305,63.077999114990234 C38.207000732421875,61.60499954223633 26.41900062561035,63.89699935913086 17.742000579833984,60.7859992980957 C9.0649995803833,57.67499923706055 7.10099983215332,62.077999114990234 3.990000009536743,62.077999114990234 C0.8799999952316284,62.077999114990234 -1.0839999914169312,57.67499923706055 -9.76099967956543,60.7859992980957 C-18.437999725341797,63.89699935913086 -30.225000381469727,61.60499954223633 -32.845001220703125,63.077999114990234 C-35.4640007019043,64.5510025024414 -17.5939998626709,81.55999755859375 3.990000009536743,81.55999755859375 C25.32200050354004,81.55999755859375 43.44599914550781,64.5510025024414 40.82600021362305,63.077999114990234z"></path></g><g opacity="1" transform="matrix(1,0,0,1,0,0)"><path fill="rgb(23,19,11)" fill-opacity="1" d=" M-26.81399917602539,66.14399719238281 C-26.81399917602539,66.14399719238281 -17.420000076293945,68.375 -11.01200008392334,68.375 C-6.6620001792907715,68.375 -0.09399999678134918,70.68099975585938 3.990999937057495,70.68099975585938 C7.918000221252441,70.68099975585938 13.229999542236328,68.42400360107422 17.350000381469727,68.42400360107422 C25.785999298095703,68.42400360107422 34.20500183105469,66.14399719238281 34.20500183105469,66.14399719238281 C34.20500183105469,66.14399719238281 27.18899917602539,68.2490005493164 16.947999954223633,70.4000015258789 C13.312000274658203,71.16400146484375 8.270000457763672,73.0999984741211 3.990999937057495,73.0999984741211 C-1.093999981880188,73.0999984741211 -6.9019999504089355,70.95099639892578 -11.112000465393066,69.94499969482422 C-20.424999237060547,67.71900177001953 -26.81399917602539,66.14399719238281 -26.81399917602539,66.14399719238281z"></path><path stroke-linecap="round" stroke-linejoin="round" fill-opacity="0" stroke="rgb(23,19,11)" stroke-opacity="1" stroke-width="1" d=" M-26.81399917602539,66.14399719238281 C-26.81399917602539,66.14399719238281 -17.420000076293945,68.375 -11.01200008392334,68.375 C-6.6620001792907715,68.375 -0.09399999678134918,70.68099975585938 3.990999937057495,70.68099975585938 C7.918000221252441,70.68099975585938 13.229999542236328,68.42400360107422 17.350000381469727,68.42400360107422 C25.785999298095703,68.42400360107422 34.20500183105469,66.14399719238281 34.20500183105469,66.14399719238281 C34.20500183105469,66.14399719238281 27.18899917602539,68.2490005493164 16.947999954223633,70.4000015258789 C13.312000274658203,71.16400146484375 8.270000457763672,73.0999984741211 3.990999937057495,73.0999984741211 C-1.093999981880188,73.0999984741211 -6.9019999504089355,70.95099639892578 -11.112000465393066,69.94499969482422 C-20.424999237060547,67.71900177001953 -26.81399917602539,66.14399719238281 -26.81399917602539,66.14399719238281z"></path></g></g><g style="display: block;" transform="matrix(0.7677299976348877,0,0,0.7559999823570251,260.55706787109375,209.27444458007812)" opacity="1"><g opacity="1" transform="matrix(1,0,0,1,0,0)"><path fill="url(#__lottie_element_37)" fill-opacity="1" d=" M20.55699920654297,103.68299865722656 C20.55699920654297,112.51599884033203 9.977999687194824,120.36799621582031 -1.5410000085830688,120.36799621582031 C-13.0600004196167,120.36799621582031 -23.638999938964844,112.51599884033203 -23.638999938964844,103.68299865722656 C-23.638999938964844,94.85099792480469 -13.0600004196167,86.75199890136719 -1.5410000085830688,86.75199890136719 C9.977999687194824,86.75199890136719 20.55699920654297,94.85099792480469 20.55699920654297,103.68299865722656z"></path></g><g opacity="1" transform="matrix(1,0,0,1,0,0)"><path fill="rgb(255,168,0)" fill-opacity="0.8" d=" M20.55699920654297,94.10800170898438 C20.55699920654297,102.94100189208984 10.663000106811523,109.47899627685547 -1.5410000085830688,109.47899627685547 C-13.746000289916992,109.47899627685547 -23.638999938964844,102.94100189208984 -23.638999938964844,94.10800170898438 C-23.638999938964844,85.2760009765625 -13.746000289916992,78.49199676513672 -1.5410000085830688,78.49199676513672 C10.663000106811523,78.49199676513672 20.55699920654297,85.2760009765625 20.55699920654297,94.10800170898438z"></path></g><g opacity="1" transform="matrix(1,0,0,1,0,0)"><path fill="url(#__lottie_element_38)" fill-opacity="1" d=" M20.55699920654297,94.10800170898438 C20.55699920654297,102.94100189208984 10.663000106811523,109.47899627685547 -1.5410000085830688,109.47899627685547 C-13.746000289916992,109.47899627685547 -23.638999938964844,102.94100189208984 -23.638999938964844,94.10800170898438 C-23.638999938964844,85.2760009765625 -13.746000289916992,78.49199676513672 -1.5410000085830688,78.49199676513672 C10.663000106811523,78.49199676513672 20.55699920654297,85.2760009765625 20.55699920654297,94.10800170898438z"></path></g><g opacity="1" transform="matrix(1,0,0,1,0,0)"><path fill="rgb(255,216,0)" fill-opacity="1" d=" M18.388999938964844,90.01699829101562 C18.388999938964844,96.59200286865234 11.600000381469727,102.87899780273438 -1.5410000085830688,102.87899780273438 C-14.861000061035156,102.87899780273438 -21.472000122070312,96.59200286865234 -21.472000122070312,90.01699829101562 C-21.472000122070312,83.44200134277344 -12.098999977111816,78.23400115966797 -1.5410000085830688,78.23400115966797 C9.017000198364258,78.23400115966797 18.388999938964844,83.44200134277344 18.388999938964844,90.01699829101562z"></path></g><g opacity="1" transform="matrix(1,0,0,1,0,0)"><path fill="url(#__lottie_element_39)" fill-opacity="1" d=" M18.388999938964844,90.01699829101562 C18.388999938964844,96.59200286865234 11.600000381469727,102.87899780273438 -1.5410000085830688,102.87899780273438 C-14.861000061035156,102.87899780273438 -21.472000122070312,96.59200286865234 -21.472000122070312,90.01699829101562 C-21.472000122070312,83.44200134277344 -12.098999977111816,78.23400115966797 -1.5410000085830688,78.23400115966797 C9.017000198364258,78.23400115966797 18.388999938964844,83.44200134277344 18.388999938964844,90.01699829101562z"></path></g><g opacity="1" transform="matrix(1,0,0,1,0,0)"><path fill="url(#__lottie_element_40)" fill-opacity="0.7000000000000001" d=" M9.892999649047852,84.93199920654297 C9.892999649047852,88.39299774169922 4.77400016784668,91.64900207519531 -1.5410000085830688,91.64900207519531 C-7.855999946594238,91.64900207519531 -12.97599983215332,88.39299774169922 -12.97599983215332,84.93199920654297 C-12.97599983215332,81.47100067138672 -7.855999946594238,79.73400115966797 -1.5410000085830688,79.73400115966797 C4.77400016784668,79.73400115966797 9.892999649047852,81.47100067138672 9.892999649047852,84.93199920654297z"></path></g></g><g style="display: block;" transform="matrix(0.9841700196266174,0,0,0.9841700196266174,255.57293701171875,247.0050506591797)" opacity="1"><g opacity="1" transform="matrix(1,0,0,1,0,0)"><path fill="rgb(255,255,255)" fill-opacity="1" d=" M29.624000549316406,-4.564000129699707 C29.624000549316406,-4.564000129699707 32.70600128173828,-40.01900100708008 62.612998962402344,-43.60499954223633 C93.79900360107422,-47.34400177001953 99.16899871826172,-14.451000213623047 99.16899871826172,-14.451000213623047 C99.16899871826172,-14.451000213623047 91.76100158691406,4.870999813079834 67.66600036621094,7.513000011444092 C40.80400085449219,10.458999633789062 29.624000549316406,-4.564000129699707 29.624000549316406,-4.564000129699707z"></path></g><g opacity="1" transform="matrix(1.159999966621399,0,0,1.203760027885437,-10.556442260742188,4.304893493652344)"><g opacity="1" transform="matrix(1,0,0,1,10.819000244140625,9.58899974822998)"><g opacity="1" transform="matrix(1,0,0,1,0,0)"><path fill="url(#__lottie_element_31)" fill-opacity="1" d=" M71.07599639892578,-29.082000732421875 C71.07599639892578,-19.634000778198242 63.38199996948242,-11.975000381469727 53.88999938964844,-11.975000381469727 C44.39799880981445,-11.975000381469727 36.702999114990234,-19.634000778198242 36.702999114990234,-29.082000732421875 C36.702999114990234,-38.529998779296875 44.39799880981445,-46.18899917602539 53.88999938964844,-46.18899917602539 C63.38199996948242,-46.18899917602539 71.07599639892578,-38.529998779296875 71.07599639892578,-29.082000732421875z"></path></g><g opacity="1" transform="matrix(1,0,0,1,0,0)"><g opacity="1" transform="matrix(1,0,0,1,0,0)"><path fill="url(#__lottie_element_32)" fill-opacity="1" d=" M58.51300048828125,-12.925000190734863 C57.209999084472656,-12.925000190734863 56.00299835205078,-13.767000198364258 55.5989990234375,-15.07699966430664 C55.10200119018555,-16.68600082397461 56.005001068115234,-18.39299964904785 57.6150016784668,-18.888999938964844 C60.69300079345703,-19.839000701904297 63.14400100708008,-22.229999542236328 64.16999816894531,-25.28700065612793 C64.70600128173828,-26.884000778198242 66.43800354003906,-27.743000030517578 68.03099822998047,-27.20800018310547 C69.62799835205078,-26.672000885009766 70.48799896240234,-24.94300079345703 69.9520034790039,-23.34600067138672 C68.3030014038086,-18.433000564575195 64.36299896240234,-14.588000297546387 59.4119987487793,-13.060999870300293 C59.112998962402344,-12.968999862670898 58.810001373291016,-12.925000190734863 58.51300048828125,-12.925000190734863z"></path></g></g><g opacity="1" transform="matrix(1,0,0,1,0,0)"><path fill="rgb(23,19,10)" fill-opacity="1" d=" M64.75199890136719,-29.082000732421875 C64.75199890136719,-23.111000061035156 59.888999938964844,-18.270000457763672 53.88999938964844,-18.270000457763672 C47.89099884033203,-18.270000457763672 43.02799987792969,-23.111000061035156 43.02799987792969,-29.082000732421875 C43.02799987792969,-35.053001403808594 47.89099884033203,-39.89400100708008 53.88999938964844,-39.89400100708008 C59.888999938964844,-39.89400100708008 64.75199890136719,-35.053001403808594 64.75199890136719,-29.082000732421875z"></path></g><g opacity="1" transform="matrix(1,0,0,1,0,0)"><path fill="url(#__lottie_element_33)" fill-opacity="1" d=" M52.926998138427734,-37.56100082397461 C52.926998138427734,-35.292999267578125 51.08100128173828,-33.45500183105469 48.803001403808594,-33.45500183105469 C46.525001525878906,-33.45500183105469 44.678001403808594,-35.292999267578125 44.678001403808594,-37.56100082397461 C44.678001403808594,-39.82899856567383 46.525001525878906,-41.66699981689453 48.803001403808594,-41.66699981689453 C51.08100128173828,-41.66699981689453 52.926998138427734,-39.82899856567383 52.926998138427734,-37.56100082397461z"></path></g></g></g><g opacity="1" transform="matrix(1,0,0,1,0,0)"><path fill="rgb(163,65,0)" fill-opacity="1" d=" M29.624000549316406,-4.564000129699707 C29.624000549316406,-4.564000129699707 31.065000534057617,-41.53300094604492 64.39700317382812,-44.7140007019043 C78.08200073242188,-46.02000045776367 89.67400360107422,-38.49100112915039 94.68499755859375,-29.56599998474121 C98.90499877929688,-22.051000595092773 99.16899871826172,-14.451000213623047 99.16899871826172,-14.451000213623047 C99.16899871826172,-14.451000213623047 96.02200317382812,-43.12200164794922 65.47000122070312,-41.65599822998047 C32.775001525878906,-40.08700180053711 29.624000549316406,-4.564000129699707 29.624000549316406,-4.564000129699707z"></path><path stroke-linecap="round" stroke-linejoin="round" fill-opacity="0" stroke="rgb(163,65,0)" stroke-opacity="1" stroke-width="2" d=" M29.624000549316406,-4.564000129699707 C29.624000549316406,-4.564000129699707 31.065000534057617,-41.53300094604492 64.39700317382812,-44.7140007019043 C78.08200073242188,-46.02000045776367 89.67400360107422,-38.49100112915039 94.68499755859375,-29.56599998474121 C98.90499877929688,-22.051000595092773 99.16899871826172,-14.451000213623047 99.16899871826172,-14.451000213623047 C99.16899871826172,-14.451000213623047 96.02200317382812,-43.12200164794922 65.47000122070312,-41.65599822998047 C32.775001525878906,-40.08700180053711 29.624000549316406,-4.564000129699707 29.624000549316406,-4.564000129699707z"></path></g></g><g style="display: block;" transform="matrix(0.9841700196266174,0,0,0.9841700196266174,255.57254028320312,247.0050506591797)" opacity="1"><g opacity="1" transform="matrix(1,0,0,1,0,0)"><path fill="rgb(255,255,255)" fill-opacity="1" d=" M-21.80500030517578,-4.564000129699707 C-21.80500030517578,-4.564000129699707 -24.847000122070312,-40.37200164794922 -54.79399871826172,-43.60499954223633 C-85.95099639892578,-46.96900177001953 -91.3489990234375,-14.451000213623047 -91.3489990234375,-14.451000213623047 C-91.3489990234375,-14.451000213623047 -83.94100189208984,4.870999813079834 -59.84600067138672,7.513000011444092 C-32.98400115966797,10.458999633789062 -21.80500030517578,-4.564000129699707 -21.80500030517578,-4.564000129699707z"></path></g><g opacity="1" transform="matrix(1.159999966621399,0,0,1.203760027885437,-130.38043212890625,4.304893493652344)"><g opacity="1" transform="matrix(1,0,0,1,10.819000244140625,9.58899974822998)"><g opacity="1" transform="matrix(1,0,0,1,0,0)"><path fill="url(#__lottie_element_25)" fill-opacity="1" d=" M71.07599639892578,-29.082000732421875 C71.07599639892578,-19.634000778198242 63.38199996948242,-11.975000381469727 53.88999938964844,-11.975000381469727 C44.39799880981445,-11.975000381469727 36.702999114990234,-19.634000778198242 36.702999114990234,-29.082000732421875 C36.702999114990234,-38.529998779296875 44.39799880981445,-46.18899917602539 53.88999938964844,-46.18899917602539 C63.38199996948242,-46.18899917602539 71.07599639892578,-38.529998779296875 71.07599639892578,-29.082000732421875z"></path></g><g opacity="1" transform="matrix(1,0,0,1,0,0)"><g opacity="1" transform="matrix(1,0,0,1,0,0)"><path fill="url(#__lottie_element_26)" fill-opacity="1" d=" M58.51300048828125,-12.925000190734863 C57.209999084472656,-12.925000190734863 56.00299835205078,-13.767000198364258 55.5989990234375,-15.07699966430664 C55.10200119018555,-16.68600082397461 56.005001068115234,-18.39299964904785 57.6150016784668,-18.888999938964844 C60.69300079345703,-19.839000701904297 63.14400100708008,-22.229999542236328 64.16999816894531,-25.28700065612793 C64.70600128173828,-26.884000778198242 66.43800354003906,-27.743000030517578 68.03099822998047,-27.20800018310547 C69.62799835205078,-26.672000885009766 70.48799896240234,-24.94300079345703 69.9520034790039,-23.34600067138672 C68.3030014038086,-18.433000564575195 64.36299896240234,-14.588000297546387 59.4119987487793,-13.060999870300293 C59.112998962402344,-12.968999862670898 58.810001373291016,-12.925000190734863 58.51300048828125,-12.925000190734863z"></path></g></g><g opacity="1" transform="matrix(1,0,0,1,0,0)"><path fill="rgb(23,19,10)" fill-opacity="1" d=" M64.75199890136719,-29.082000732421875 C64.75199890136719,-23.111000061035156 59.888999938964844,-18.270000457763672 53.88999938964844,-18.270000457763672 C47.89099884033203,-18.270000457763672 43.02799987792969,-23.111000061035156 43.02799987792969,-29.082000732421875 C43.02799987792969,-35.053001403808594 47.89099884033203,-39.89400100708008 53.88999938964844,-39.89400100708008 C59.888999938964844,-39.89400100708008 64.75199890136719,-35.053001403808594 64.75199890136719,-29.082000732421875z"></path></g><g opacity="1" transform="matrix(1,0,0,1,0,0)"><path fill="url(#__lottie_element_27)" fill-opacity="1" d=" M52.926998138427734,-37.56100082397461 C52.926998138427734,-35.292999267578125 51.08100128173828,-33.45500183105469 48.803001403808594,-33.45500183105469 C46.525001525878906,-33.45500183105469 44.678001403808594,-35.292999267578125 44.678001403808594,-37.56100082397461 C44.678001403808594,-39.82899856567383 46.525001525878906,-41.66699981689453 48.803001403808594,-41.66699981689453 C51.08100128173828,-41.66699981689453 52.926998138427734,-39.82899856567383 52.926998138427734,-37.56100082397461z"></path></g></g></g><g opacity="1" transform="matrix(1,0,0,1,0,0)"><path fill="rgb(163,65,0)" fill-opacity="1" d=" M-21.80500030517578,-4.564000129699707 C-21.80500030517578,-4.564000129699707 -23.2450008392334,-41.53300094604492 -56.57699966430664,-44.7140007019043 C-70.26200103759766,-46.02000045776367 -81.85299682617188,-38.49100112915039 -86.86499786376953,-29.56599998474121 C-91.08499908447266,-22.051000595092773 -91.3489990234375,-14.451000213623047 -91.3489990234375,-14.451000213623047 C-91.3489990234375,-14.451000213623047 -88.2030029296875,-43.12200164794922 -57.650001525878906,-41.65599822998047 C-24.954999923706055,-40.08700180053711 -21.80500030517578,-4.564000129699707 -21.80500030517578,-4.564000129699707z"></path><path stroke-linecap="round" stroke-linejoin="round" fill-opacity="0" stroke="rgb(163,65,0)" stroke-opacity="1" stroke-width="2" d=" M-21.80500030517578,-4.564000129699707 C-21.80500030517578,-4.564000129699707 -23.2450008392334,-41.53300094604492 -56.57699966430664,-44.7140007019043 C-70.26200103759766,-46.02000045776367 -81.85299682617188,-38.49100112915039 -86.86499786376953,-29.56599998474121 C-91.08499908447266,-22.051000595092773 -91.3489990234375,-14.451000213623047 -91.3489990234375,-14.451000213623047 C-91.3489990234375,-14.451000213623047 -88.2030029296875,-43.12200164794922 -57.650001525878906,-41.65599822998047 C-24.954999923706055,-40.08700180053711 -21.80500030517578,-4.564000129699707 -21.80500030517578,-4.564000129699707z"></path></g></g><g style="display: block;" transform="matrix(1.096750020980835,0,0,1.0800000429153442,256.9255676269531,255.4010009765625)" opacity="1"><g opacity="1" transform="matrix(1,0,0,1,0,0)"><g opacity="1" transform="matrix(1.3191699981689453,0,0,1,-1.1170949935913086,-0.4850006103515625)"><path fill="url(#__lottie_element_21)" fill-opacity="1" d=" M87.97000122070312,-94.68199920654297 C77.09500122070312,-66.39900207519531 33.137001037597656,-43.59199905395508 2.0380001068115234,-43.59199905395508 C-27.400999069213867,-43.59199905395508 -55.71799850463867,-59.60300064086914 -79.17500305175781,-87.36799621582031 C-79.17500305175781,-87.36799621582031 -86.88099670410156,-96.54100036621094 -80.89299774169922,-97.9260025024414 C-66.0780029296875,-101.35199737548828 -41.79999923706055,-100.17400360107422 1.4429999589920044,-100.17400360107422 C46.39699935913086,-100.17400360107422 74.17900085449219,-109.06500244140625 88.18800354003906,-105.7249984741211 C93.10199737548828,-104.5530014038086 87.97000122070312,-94.68199920654297 87.97000122070312,-94.68199920654297z"></path></g></g></g><g style="display: block;" transform="matrix(0.9841700196266174,0,0,0.9841700196266174,256.8854675292969,248.580322265625)" opacity="1"><g opacity="1" transform="matrix(1,0,0,1,0,0)"><path fill="rgb(163,65,0)" fill-opacity="1" d=" M-82.61499786376953,-59.064998626708984 C-82.61499786376953,-59.064998626708984 -70.59700012207031,-67.30799865722656 -56.33300018310547,-66.86299896240234 C-42.665000915527344,-66.43599700927734 -37.016998291015625,-61.26900100708008 -37.016998291015625,-61.26900100708008 C-37.016998291015625,-61.26900100708008 -41.569000244140625,-71.19200134277344 -56.33300018310547,-70.76200103759766 C-72.59700012207031,-70.28800201416016 -82.61499786376953,-59.064998626708984 -82.61499786376953,-59.064998626708984z"></path><path stroke-linecap="round" stroke-linejoin="round" fill-opacity="0" stroke="rgb(163,65,0)" stroke-opacity="1" stroke-width="2" d=" M-82.61499786376953,-59.064998626708984 C-82.61499786376953,-59.064998626708984 -70.59700012207031,-67.30799865722656 -56.33300018310547,-66.86299896240234 C-42.665000915527344,-66.43599700927734 -37.016998291015625,-61.26900100708008 -37.016998291015625,-61.26900100708008 C-37.016998291015625,-61.26900100708008 -41.569000244140625,-71.19200134277344 -56.33300018310547,-70.76200103759766 C-72.59700012207031,-70.28800201416016 -82.61499786376953,-59.064998626708984 -82.61499786376953,-59.064998626708984z"></path></g><g opacity="1" transform="matrix(1,0,0,1,0,0)"><path fill="rgb(163,65,0)" fill-opacity="1" d=" M89.11399841308594,-59.064998626708984 C89.11399841308594,-59.064998626708984 77.09600067138672,-67.30799865722656 62.832000732421875,-66.86299896240234 C49.16400146484375,-66.43599700927734 43.51599884033203,-61.26900100708008 43.51599884033203,-61.26900100708008 C43.51599884033203,-61.26900100708008 48.06800079345703,-71.19200134277344 62.832000732421875,-70.76200103759766 C79.09600067138672,-70.28800201416016 89.11399841308594,-59.064998626708984 89.11399841308594,-59.064998626708984z"></path><path stroke-linecap="round" stroke-linejoin="round" fill-opacity="0" stroke="rgb(163,65,0)" stroke-opacity="1" stroke-width="2" d=" M89.11399841308594,-59.064998626708984 C89.11399841308594,-59.064998626708984 77.09600067138672,-67.30799865722656 62.832000732421875,-66.86299896240234 C49.16400146484375,-66.43599700927734 43.51599884033203,-61.26900100708008 43.51599884033203,-61.26900100708008 C43.51599884033203,-61.26900100708008 48.06800079345703,-71.19200134277344 62.832000732421875,-70.76200103759766 C79.09600067138672,-70.28800201416016 89.11399841308594,-59.064998626708984 89.11399841308594,-59.064998626708984z"></path></g></g><g style="display: block;" transform="matrix(1.0800000429153442,0,0,1.0800000429153442,256.9469299316406,254.87600708007812)" opacity="1"><g opacity="1" transform="matrix(1,0,0,1,0,0)"><g opacity="1" transform="matrix(1.5211000442504883,0,0,0.6586199998855591,-3.45412540435791,-45.5009765625)"><path fill="url(#__lottie_element_10)" fill-opacity="1" d=" M93.65899658203125,-137.4810028076172 C95.13099670410156,-112.16100311279297 88.00800323486328,-83.29499816894531 67.68900299072266,-71.46299743652344 C52.402000427246094,-62.56100082397461 24.37700080871582,-63.689998626708984 1.215000033378601,-64.23999786376953 C-27.95599937438965,-64.93199920654297 -51.39899826049805,-63.36899948120117 -65.63700103759766,-73.1729965209961 C-84.45999908447266,-86.13300323486328 -89.14099884033203,-113.4209976196289 -88.86599731445312,-137.4810028076172 C-88.53099822998047,-166.80099487304688 -77.56600189208984,-185.36300659179688 -48.40299987792969,-213.8489990234375 C-20.954999923706055,-240.66000366210938 -5.818999767303467,-245.58700561523438 2.3970000743865967,-245.58700561523438 C10.61299991607666,-245.58700561523438 25.749000549316406,-240.67599487304688 53.19599914550781,-213.8489990234375 C82.3499984741211,-185.35400390625 91.96900177001953,-166.5489959716797 93.65899658203125,-137.4810028076172z"></path></g><g opacity="1" transform="matrix(1.2799999713897705,0,0,0.6800000071525574,0.940000057220459,-61.91999816894531)"><path fill="url(#__lottie_element_11)" fill-opacity="0.8" d=" M108.41500091552734,-112.07599639892578 C110.14199829101562,-88.52799987792969 101.78600311279297,-61.68199920654297 77.9520034790039,-50.676998138427734 C60.02000045776367,-42.39799880981445 27.148000717163086,-43.448001861572266 -0.020999999716877937,-43.95899963378906 C-34.237998962402344,-44.60300064086914 -61.736000061035156,-43.14899826049805 -78.43800354003906,-52.266998291015625 C-100.51699829101562,-64.31999969482422 -106.00800323486328,-89.69999694824219 -105.68499755859375,-112.07599639892578 C-105.29199981689453,-139.34500122070312 -92.43000030517578,-156.60699462890625 -58.22200012207031,-183.10000610351562 C-26.025999069213867,-208.03500366210938 -8.27299976348877,-212.6179962158203 1.3650000095367432,-212.6179962158203 C11.003000259399414,-212.6179962158203 28.756999969482422,-208.0500030517578 60.95199966430664,-183.10000610351562 C95.14900207519531,-156.5989990234375 106.43299865722656,-139.11000061035156 108.41500091552734,-112.07599639892578z"></path></g><g opacity="1" transform="matrix(1,0,0,0.46000000834465027,0,-85.20999908447266)"><path fill="url(#__lottie_element_12)" fill-opacity="1" d=" M139.08999633789062,-114.875 C141.3000030517578,-79.38800048828125 130.60699462890625,-38.930999755859375 100.10600280761719,-22.347000122070312 C77.15799713134766,-9.869999885559082 35.09199905395508,-11.454000473022461 0.3230000138282776,-12.223999977111816 C-43.46500015258789,-13.194000244140625 -78.65499877929688,-11.003000259399414 -100.02799987792969,-24.743000030517578 C-128.2830047607422,-42.90700149536133 -135.3090057373047,-81.15399932861328 -134.89599609375,-114.875 C-134.39300537109375,-155.968994140625 -117.93800354003906,-181.97999572753906 -74.15799713134766,-221.9080047607422 C-32.95600128173828,-259.4849853515625 -10.236000061035156,-266.3909912109375 2.0969998836517334,-266.3909912109375 C14.430000305175781,-266.3909912109375 37.15599822998047,-259.50201416015625 78.35099792480469,-221.9080047607422 C122.11299896240234,-181.9709930419922 136.55299377441406,-155.61500549316406 139.08999633789062,-114.875z"></path></g><g opacity="0.6" transform="matrix(1,0,0,1,0,0)"><g opacity="1" transform="matrix(1,0,0,1,0,0)"><path fill="rgb(0,20,55)" fill-opacity="0.3" d=" M-83.87000274658203,-157.38099670410156 C-68.88600158691406,-163.74000549316406 -44.683998107910156,-170.8280029296875 -36.6879997253418,-182.6230010986328 C-30.777000427246094,-191.3419952392578 35.047000885009766,-192.0050048828125 40.24300003051758,-183.3730010986328 C40.24300003051758,-183.3730010986328 45.6609992980957,-177.43600463867188 54.27199935913086,-172.55599975585938 C65.99299621582031,-165.91299438476562 70.6050033569336,-164.09300231933594 87.5719985961914,-157.11099243164062 C119.36599731445312,-144.0279998779297 106.95099639892578,-135.08399963378906 97.51100158691406,-136.17999267578125 C72.42500305175781,-139.09300231933594 57.74100112915039,-140.31900024414062 34.720001220703125,-139.2169952392578 C25.70199966430664,-132.1750030517578 2.802000045776367,-121.60900115966797 2.802000045776367,-121.60900115966797 C2.802000045776367,-121.60900115966797 -17.13800048828125,-129.6269989013672 -28.062000274658203,-138.48800659179688 C-53.10499954223633,-139.53399658203125 -73.8010025024414,-138.3780059814453 -95.77200317382812,-136.5330047607422 C-108.64299774169922,-135.45199584960938 -107.99099731445312,-147.1439971923828 -83.87000274658203,-157.38099670410156z"></path></g><g opacity="1" transform="matrix(1,0,0,1,0,0)"><path fill="rgb(0,20,55)" fill-opacity="0.6" d=" M-79.08200073242188,-156.6269989013672 C-65.5739974975586,-162.4149932861328 -41.30799865722656,-169.552001953125 -34.08700180053711,-180.20399475097656 C-28.749000549316406,-188.0780029296875 33.10499954223633,-188.36399841308594 38.96799850463867,-180.58299255371094 C38.96799850463867,-180.58299255371094 42.61000061035156,-174.69200134277344 50.547000885009766,-170.58200073242188 C64.56300354003906,-163.32400512695312 67.81400299072266,-162.3939971923828 82.72100067138672,-156.46800231933594 C111.5719985961914,-144.99899291992188 105.76499938964844,-137.58999633789062 97.28500366210938,-138.91099548339844 C73.51799774169922,-142.61300659179688 53.75400161743164,-143.41000366210938 32.96500015258789,-142.4149932861328 C25.36199951171875,-136.46299743652344 2.736999988555908,-124.45899963378906 2.736999988555908,-124.45899963378906 C2.736999988555908,-124.45899963378906 -22.6299991607666,-138.25399780273438 -26.785999298095703,-141.64599609375 C-49.402000427246094,-142.58999633789062 -74.05400085449219,-141.3990020751953 -93.59700012207031,-139.60899353027344 C-102.18699645996094,-138.82200622558594 -106.63999938964844,-144.81900024414062 -79.08200073242188,-156.6269989013672z"></path></g><g opacity="1" transform="matrix(1,0,0,1,0,0)"><path fill="rgb(0,20,55)" fill-opacity="1" d=" M-77.50800323486328,-153.89599609375 C-65.1500015258789,-159.1909942626953 -38.14699935913086,-168.11599731445312 -31.540000915527344,-177.86099243164062 C-26.656999588012695,-185.06500244140625 32.1349983215332,-182.9040069580078 36.02000045776367,-177.7899932861328 C36.02000045776367,-177.7899932861328 40.81399917602539,-172.36599731445312 48.07500076293945,-168.6060028076172 C60.89799880981445,-161.96600341796875 68.41999816894531,-158.7530059814453 83.61299896240234,-152.83900451660156 C110.08300018310547,-142.53500366210938 100.01599884033203,-142.38900756835938 92.20500183105469,-143.19000244140625 C71.81900024414062,-145.28199768066406 49.582000732421875,-146.9810028076172 30.562000274658203,-146.0709991455078 C27.356000900268555,-143.57000732421875 2.821000099182129,-128.24400329589844 2.821000099182129,-128.24400329589844 C2.821000099182129,-128.24400329589844 -21.91900062561035,-141.64199829101562 -25.72100067138672,-144.7449951171875 C-46.4119987487793,-145.60899353027344 -71.49600219726562,-145.98199462890625 -89.48500061035156,-143.11199951171875 C-97.27799987792969,-141.86900329589844 -102.72100067138672,-143.09300231933594 -77.50800323486328,-153.89599609375z"></path></g></g><g opacity="1" transform="matrix(1,0,0,1,0,0)"><path stroke-linecap="round" stroke-linejoin="round" fill-opacity="0" stroke="rgb(0,36,95)" stroke-opacity="1" stroke-width="5" d=" M-103.34600067138672,-129.38099670410156 C-103.34600067138672,-129.38099670410156 -103.23999786376953,-121.91100311279297 -103.23999786376953,-111.3550033569336 C-103.23999786376953,-107.22699737548828 -105.94499969482422,-97.00700378417969 -105.94499969482422,-97.00700378417969"></path></g><g opacity="1" transform="matrix(1,0,0,1,0,0)"><path stroke-linecap="round" stroke-linejoin="round" fill-opacity="0" stroke="rgb(0,20,55)" stroke-opacity="1" stroke-width="5" d=" M107.822998046875,-129.38099670410156 C107.822998046875,-129.38099670410156 107.71700286865234,-121.91100311279297 107.71700286865234,-111.3550033569336 C107.71700286865234,-107.22699737548828 110.4219970703125,-97.00700378417969 110.4219970703125,-97.00700378417969"></path></g><g opacity="1" transform="matrix(1,0,0,1,0,0)"><path stroke-linecap="round" stroke-linejoin="round" fill-opacity="0" stroke="rgb(0,43,111)" stroke-opacity="1" stroke-width="8" d=" M139.08999633789062,-137.82400512695312 C139.17999267578125,-118.35900115966797 128.6320037841797,-108.63999938964844 116.59600067138672,-101.94100189208984 C113.69300079345703,-100.3270034790039 109.99600219726562,-98.23600006103516 105.71399688720703,-95.91000366210938 C92.20899963378906,-88.54399871826172 -88.03299713134766,-88.5530014038086 -101.52999877929688,-95.91000366210938 C-105.81199645996094,-98.24500274658203 -109.50800323486328,-100.3270034790039 -112.4020004272461,-101.94100189208984 C-124.4469985961914,-108.63999938964844 -134.98599243164062,-118.35900115966797 -134.89599609375,-137.82400512695312 C-134.80599975585938,-156.82000732421875 -117.92900085449219,-167.0260009765625 -74.15799713134766,-185.4810028076172 C-32.95600128173828,-202.84500122070312 -10.237000465393066,-207.83999633789062 2.0969998836517334,-207.83999633789062 C14.430000305175781,-207.83999633789062 37.13999938964844,-202.84500122070312 78.35099792480469,-185.4810028076172 C122.11299896240234,-167.0260009765625 139,-156.82000732421875 139.08999633789062,-137.82400512695312z"></path></g><g opacity="1" transform="matrix(1,0,0,1,0,0)"><path stroke-linecap="round" stroke-linejoin="round" fill-opacity="0" stroke="rgb(0,20,55)" stroke-opacity="1" stroke-width="8" d=" M139.08999633789062,-137.82400512695312 C139.17999267578125,-118.35900115966797 128.6320037841797,-108.63999938964844 116.59600067138672,-101.94100189208984 C113.69300079345703,-100.3270034790039 109.99600219726562,-98.23600006103516 105.71399688720703,-95.91000366210938 C92.20899963378906,-88.54399871826172 -88.03299713134766,-88.5530014038086 -101.52999877929688,-95.91000366210938 C-105.81199645996094,-98.24500274658203 -109.50800323486328,-100.3270034790039 -112.4020004272461,-101.94100189208984 C-124.4469985961914,-108.63999938964844 -134.98599243164062,-118.35900115966797 -134.89599609375,-137.82400512695312"></path></g></g><g opacity="1" transform="matrix(1,0,0,1,0,0)"><g opacity="1" transform="matrix(1,0,0,1,0,0)"><path fill="url(#__lottie_element_13)" fill-opacity="1" d=" M105.71399688720703,-95.91000366210938 C77.56500244140625,-73.50399780273438 27.031999588012695,-67.03299713134766 2.0969998836517334,-67.03299713134766 C-22.735000610351562,-67.03299713134766 -72.09600067138672,-74.18099975585938 -101.52999877929688,-95.91000366210938 C-101.52999877929688,-95.91000366210938 -59.24599838256836,-103.78099822998047 2.0969998836517334,-103.78099822998047 C63.439998626708984,-103.78099822998047 105.71399688720703,-95.91000366210938 105.71399688720703,-95.91000366210938z"></path><path stroke-linecap="round" stroke-linejoin="round" fill-opacity="0" stroke="rgb(0,0,0)" stroke-opacity="1" stroke-width="7.5" d=" M105.71399688720703,-95.91000366210938 C77.56500244140625,-73.50399780273438 27.031999588012695,-67.03299713134766 2.0969998836517334,-67.03299713134766 C-22.735000610351562,-67.03299713134766 -72.09600067138672,-74.18099975585938 -101.52999877929688,-95.91000366210938 C-101.52999877929688,-95.91000366210938 -59.24599838256836,-103.78099822998047 2.0969998836517334,-103.78099822998047 C63.439998626708984,-103.78099822998047 105.71399688720703,-95.91000366210938 105.71399688720703,-95.91000366210938z"></path></g><g opacity="1" transform="matrix(1,0,0,1,0,0)"><path fill="url(#__lottie_element_14)" fill-opacity="1" d=" M2.0920000076293945,-123.73899841308594 C2.0920000076293945,-123.73899841308594 -58.132999420166016,-124.33399963378906 -103.53299713134766,-113.68000030517578 C-103.53299713134766,-113.68000030517578 -103.53299713134766,-105.42500305175781 -103.53299713134766,-105.42500305175781 C-103.53299713134766,-105.42500305175781 -71.00900268554688,-114.28500366210938 2.0920000076293945,-114.28500366210938 C75.19300079345703,-114.28500366210938 107.71700286865234,-105.42500305175781 107.71700286865234,-105.42500305175781 C107.71700286865234,-105.42500305175781 107.71700286865234,-113.68000030517578 107.71700286865234,-113.68000030517578 C62.31700134277344,-124.33399963378906 2.0920000076293945,-123.73899841308594 2.0920000076293945,-123.73899841308594z"></path><path stroke-linecap="round" stroke-linejoin="round" fill-opacity="0" stroke="rgb(0,0,0)" stroke-opacity="1" stroke-width="5" d=" M2.0920000076293945,-123.73899841308594 C2.0920000076293945,-123.73899841308594 -58.132999420166016,-124.33399963378906 -103.53299713134766,-113.68000030517578 C-103.53299713134766,-113.68000030517578 -103.53299713134766,-105.42500305175781 -103.53299713134766,-105.42500305175781 C-103.53299713134766,-105.42500305175781 -71.00900268554688,-114.28500366210938 2.0920000076293945,-114.28500366210938 C75.19300079345703,-114.28500366210938 107.71700286865234,-105.42500305175781 107.71700286865234,-105.42500305175781 C107.71700286865234,-105.42500305175781 107.71700286865234,-113.68000030517578 107.71700286865234,-113.68000030517578 C62.31700134277344,-124.33399963378906 2.0920000076293945,-123.73899841308594 2.0920000076293945,-123.73899841308594z"></path></g><g opacity="1" transform="matrix(1,0,0,1,0,0)"><g opacity="1" transform="matrix(1,0,0,1,0,0)"><path stroke-linecap="round" stroke-linejoin="round" fill-opacity="0" stroke="rgb(204,140,0)" stroke-opacity="1" stroke-width="5" d=" M-103.53299713134766,-115.48300170898438 C-103.53299713134766,-115.48300170898438 -103.53299713134766,-105.42500305175781 -103.53299713134766,-105.42500305175781"></path></g><g opacity="1" transform="matrix(1,0,0,1,0,0)"><path stroke-linecap="round" stroke-linejoin="round" fill-opacity="0" stroke="rgb(173,115,0)" stroke-opacity="1" stroke-width="5" d=" M107.71700286865234,-115.48300170898438 C107.71700286865234,-115.48300170898438 107.71700286865234,-105.42500305175781 107.71700286865234,-105.42500305175781"></path></g><g opacity="1" transform="matrix(1,0,0,1,0,0)"><path stroke-linecap="round" stroke-linejoin="round" fill-opacity="0" stroke="rgb(255,205,0)" stroke-opacity="1" stroke-width="5" d=" M-103.53299713134766,-115.48300170898438 C-103.53299713134766,-115.48300170898438 -103.53299713134766,-113.68000030517578 -103.53299713134766,-113.68000030517578"></path></g><g opacity="1" transform="matrix(1,0,0,1,0,0)"><path stroke-linecap="round" stroke-linejoin="round" fill-opacity="0" stroke="rgb(204,140,0)" stroke-opacity="1" stroke-width="5" d=" M107.71700286865234,-115.48600006103516 C107.71700286865234,-115.48600006103516 107.71700286865234,-113.68299865722656 107.71700286865234,-113.68299865722656"></path></g><g opacity="1" transform="matrix(1,0,0,1,0,0)"><path stroke-linecap="round" stroke-linejoin="round" fill-opacity="0" stroke="rgb(29,29,27)" stroke-opacity="1" stroke-width="8" d=" M-66.97799682617188,-100.43800354003906 C-49.2140007019043,-102.19000244140625 -25.485000610351562,-103.78099822998047 2.0969998836517334,-103.78099822998047"></path></g></g></g></g><g style="display: block;" transform="matrix(1.0800000429153442,0,0,1.0800000429153442,255.60873413085938,258.54638671875)" opacity="1"><g opacity="1" transform="matrix(1,0,0,1,0,0)"><path fill="rgb(241,220,0)" fill-opacity="1" d=" M31.582000732421875,-191.96099853515625 C15.640000343322754,-178.27200317382812 3.937000036239624,-194.92300415039062 2.8329999446868896,-196.37899780273438 C1.7289999723434448,-194.92300415039062 -9.973999977111816,-178.27200317382812 -25.916000366210938,-191.96099853515625 C-25.916000366210938,-191.96099853515625 -33.000999450683594,-177.06300354003906 -28.0939998626709,-160.95199584960938 C-23.86199951171875,-147.0570068359375 2.8329999446868896,-133.27999877929688 2.8329999446868896,-133.27999877929688 C2.8329999446868896,-133.27999877929688 29.030000686645508,-145.5540008544922 33.7599983215332,-160.95199584960938 C38.73099899291992,-177.13499450683594 31.582000732421875,-191.96099853515625 31.582000732421875,-191.96099853515625z"></path></g><g opacity="1" transform="matrix(1,0,0,1,0,0)"><path fill="url(#__lottie_element_6)" fill-opacity="0.7000000000000001" d=" M0.9470000267028809,-190.59100341796875 C0.9470000267028809,-190.59100341796875 0.9470000267028809,-136.92799377441406 0.9470000267028809,-136.92799377441406 C0.9470000267028809,-136.92799377441406 -23.013999938964844,-150.0449981689453 -23.013999938964844,-150.0449981689453 C-23.013999938964844,-150.0449981689453 -23.013999938964844,-188.59800720214844 -23.013999938964844,-188.59800720214844 C-23.013999938964844,-188.59800720214844 -7.083000183105469,-184.802001953125 0.9470000267028809,-190.59100341796875z"></path></g><g opacity="1" transform="matrix(1,0,0,1,0,0)"><path stroke-linecap="round" stroke-linejoin="round" fill-opacity="0" stroke="rgb(195,162,0)" stroke-opacity="1" stroke-width="8" d=" M31.582000732421875,-191.96099853515625 C15.640000343322754,-178.27200317382812 3.937000036239624,-194.92300415039062 2.8329999446868896,-196.37899780273438 C1.7289999723434448,-194.92300415039062 -9.973999977111816,-178.27200317382812 -25.916000366210938,-191.96099853515625 C-25.916000366210938,-191.96099853515625 -34.17499923706055,-176.6580047607422 -28.0939998626709,-160.95199584960938 C-24.17300033569336,-150.82400512695312 -16.089000701904297,-144.86099243164062 -8.404000282287598,-140.3800048828125 C-2.2820000648498535,-136.81100463867188 2.8329999446868896,-133.27999877929688 2.8329999446868896,-133.27999877929688 C2.8329999446868896,-133.27999877929688 7.836999893188477,-136.6479949951172 13.869000434875488,-140.0469970703125 C21.604999542236328,-144.40699768066406 29.90999984741211,-150.3249969482422 33.7599983215332,-160.95199584960938 C39.527000427246094,-176.86900329589844 31.582000732421875,-191.96099853515625 31.582000732421875,-191.96099853515625z"></path></g></g></g></svg>