<svg xmlns="http://www.w3.org/2000/svg" xmlns:xlink="http://www.w3.org/1999/xlink" viewBox="0 0 512 512" width="512" height="512" style="width: 100%; height: 100%; transform: translate3d(0,0,0); content-visibility: visible;" preserveAspectRatio="xMidYMid meet"><defs><clipPath id="__lottie_element_2"><rect width="512" height="512" x="0" y="0"></rect></clipPath><linearGradient id="__lottie_element_6" spreadMethod="pad" gradientUnits="userSpaceOnUse" x1="9.074000358581543" y1="-118.53900146484375" x2="2.6449999809265137" y2="92.43299865722656"><stop offset="15%" stop-color="rgb(255,169,0)" stop-opacity="0"></stop><stop offset="41%" stop-color="rgb(255,169,0)" stop-opacity="0.5"></stop><stop offset="67%" stop-color="rgb(255,169,0)" stop-opacity="1"></stop></linearGradient><linearGradient id="__lottie_element_7" spreadMethod="pad" gradientUnits="userSpaceOnUse" x1="-12.925999641418457" y1="43.96099853515625" x2="-24.229000091552734" y2="-187.24200439453125"><stop offset="8%" stop-color="rgb(218,110,0)" stop-opacity="0.30000001192092896"></stop><stop offset="28%" stop-color="rgb(218,110,0)" stop-opacity="0.6499999761581421"></stop><stop offset="70%" stop-color="rgb(218,110,0)" stop-opacity="1"></stop><stop offset="80%" stop-color="rgb(218,110,0)" stop-opacity="0.5"></stop><stop offset="100%" stop-color="rgb(218,110,0)" stop-opacity="0"></stop></linearGradient><linearGradient id="__lottie_element_8" spreadMethod="pad" gradientUnits="userSpaceOnUse" x1="-134.92599487304688" y1="-139.03900146484375" x2="-117.93199920654297" y2="-99.41600036621094"><stop offset="0%" stop-color="rgb(255,255,255)" stop-opacity="1"></stop><stop offset="50%" stop-color="rgb(255,255,255)" stop-opacity="0.5"></stop><stop offset="100%" stop-color="rgb(255,255,255)" stop-opacity="0"></stop></linearGradient><linearGradient id="__lottie_element_9" spreadMethod="pad" gradientUnits="userSpaceOnUse" x1="41.07400131225586" y1="-172.03900146484375" x2="28.14900016784668" y2="-87.43800354003906"><stop offset="0%" stop-color="rgb(255,255,255)" stop-opacity="1"></stop><stop offset="50%" stop-color="rgb(255,255,255)" stop-opacity="0.5"></stop><stop offset="100%" stop-color="rgb(255,255,255)" stop-opacity="0"></stop></linearGradient><radialGradient id="__lottie_element_13" spreadMethod="pad" gradientUnits="userSpaceOnUse" cx="-2.6760001182556152" cy="130.71099853515625" r="42.440736384479386" fx="-2.6760001182556152" fy="130.71099853515625"><stop offset="8%" stop-color="rgb(117,55,14)" stop-opacity="1"></stop><stop offset="54%" stop-color="rgb(117,55,14)" stop-opacity="0.5"></stop><stop offset="100%" stop-color="rgb(117,55,14)" stop-opacity="0"></stop></radialGradient><linearGradient id="__lottie_element_20" spreadMethod="pad" gradientUnits="userSpaceOnUse" x1="-3.1760001182556152" y1="85.71099853515625" x2="-2.3010001182556152" y2="116.6709976196289"><stop offset="0%" stop-color="rgb(255,168,0)" stop-opacity="1"></stop><stop offset="65%" stop-color="rgb(255,168,0)" stop-opacity="0.5"></stop><stop offset="100%" stop-color="rgb(255,168,0)" stop-opacity="0"></stop></linearGradient><linearGradient id="__lottie_element_21" spreadMethod="pad" gradientUnits="userSpaceOnUse" x1="-2.0510001182556152" y1="103.96099853515625" x2="-2.9260001182556152" y2="80.63999938964844"><stop offset="10%" stop-color="rgb(219,110,0)" stop-opacity="1"></stop><stop offset="49%" stop-color="rgb(219,110,0)" stop-opacity="0.5"></stop><stop offset="78%" stop-color="rgb(219,110,0)" stop-opacity="0"></stop></linearGradient><radialGradient id="__lottie_element_22" spreadMethod="pad" gradientUnits="userSpaceOnUse" cx="-3.9260001182556152" cy="73.96099853515625" r="22.90700101852417" fx="-3.9260001182556152" fy="73.96099853515625"><stop offset="40%" stop-color="rgb(255,168,0)" stop-opacity="0"></stop><stop offset="70%" stop-color="rgb(255,168,0)" stop-opacity="0.5"></stop><stop offset="100%" stop-color="rgb(255,168,0)" stop-opacity="1"></stop></radialGradient><linearGradient id="__lottie_element_23" spreadMethod="pad" gradientUnits="userSpaceOnUse" x1="-2.9260001182556152" y1="71.96099853515625" x2="-2.9260001182556152" y2="82.61699676513672"><stop offset="0%" stop-color="rgb(255,255,254)" stop-opacity="1"></stop><stop offset="50%" stop-color="rgb(255,255,254)" stop-opacity="0.5"></stop><stop offset="100%" stop-color="rgb(255,255,254)" stop-opacity="0"></stop></linearGradient><linearGradient id="__lottie_element_27" spreadMethod="pad" gradientUnits="userSpaceOnUse" x1="-80.73799896240234" y1="10.89900016784668" x2="-61.7130012512207" y2="39.979000091552734"><stop offset="0%" stop-color="rgb(66,0,0)"></stop><stop offset="37%" stop-color="rgb(118,40,0)"></stop><stop offset="100%" stop-color="rgb(170,80,0)"></stop></linearGradient><radialGradient id="__lottie_element_28" spreadMethod="pad" gradientUnits="userSpaceOnUse" cx="-63.92599868774414" cy="33.96099853515625" r="12.805999755859375" fx="-63.92599868774414" fy="33.96099853515625"><stop offset="0%" stop-color="rgb(246,175,0)" stop-opacity="1"></stop><stop offset="50%" stop-color="rgb(246,175,0)" stop-opacity="0.5"></stop><stop offset="100%" stop-color="rgb(246,175,0)" stop-opacity="0"></stop></radialGradient><linearGradient id="__lottie_element_29" spreadMethod="pad" gradientUnits="userSpaceOnUse" x1="-82.9260025024414" y1="0.9610000252723694" x2="-82.9260025024414" y2="11.782999992370605"><stop offset="0%" stop-color="rgb(255,255,255)" stop-opacity="1"></stop><stop offset="60%" stop-color="rgb(255,255,255)" stop-opacity="0.5"></stop><stop offset="100%" stop-color="rgb(255,255,255)" stop-opacity="0"></stop></linearGradient><linearGradient id="__lottie_element_30" spreadMethod="pad" gradientUnits="userSpaceOnUse" x1="-80.73799896240234" y1="10.89900016784668" x2="-61.7130012512207" y2="39.979000091552734"><stop offset="0%" stop-color="rgb(66,0,0)"></stop><stop offset="37%" stop-color="rgb(118,40,0)"></stop><stop offset="100%" stop-color="rgb(170,80,0)"></stop></linearGradient><radialGradient id="__lottie_element_31" spreadMethod="pad" gradientUnits="userSpaceOnUse" cx="-63.92599868774414" cy="33.96099853515625" r="12.805999755859375" fx="-63.92599868774414" fy="33.96099853515625"><stop offset="0%" stop-color="rgb(246,175,0)" stop-opacity="1"></stop><stop offset="50%" stop-color="rgb(246,175,0)" stop-opacity="0.5"></stop><stop offset="100%" stop-color="rgb(246,175,0)" stop-opacity="0"></stop></radialGradient><linearGradient id="__lottie_element_32" spreadMethod="pad" gradientUnits="userSpaceOnUse" x1="-82.9260025024414" y1="0.9610000252723694" x2="-82.9260025024414" y2="11.782999992370605"><stop offset="0%" stop-color="rgb(255,255,255)" stop-opacity="1"></stop><stop offset="60%" stop-color="rgb(255,255,255)" stop-opacity="0.5"></stop><stop offset="100%" stop-color="rgb(255,255,255)" stop-opacity="0"></stop></linearGradient><linearGradient id="__lottie_element_36" spreadMethod="pad" gradientUnits="userSpaceOnUse" x1="-3.6760001182556152" y1="-115.78900146484375" x2="-0.9259999990463257" y2="16.527000427246094"><stop offset="0%" stop-color="rgb(219,110,0)" stop-opacity="1"></stop><stop offset="38%" stop-color="rgb(219,110,0)" stop-opacity="0.5"></stop><stop offset="70%" stop-color="rgb(219,110,0)" stop-opacity="0"></stop></linearGradient><linearGradient id="__lottie_element_37" spreadMethod="pad" gradientUnits="userSpaceOnUse" x1="-8.925999641418457" y1="-86.53900146484375" x2="-4.426000118255615" y2="151.72300720214844"><stop offset="0%" stop-color="rgb(255,216,0)" stop-opacity="0"></stop><stop offset="14%" stop-color="rgb(255,216,0)" stop-opacity="0.5"></stop><stop offset="45%" stop-color="rgb(255,216,0)" stop-opacity="1"></stop><stop offset="90%" stop-color="rgb(255,216,0)" stop-opacity="0.5"></stop><stop offset="100%" stop-color="rgb(255,216,0)" stop-opacity="0"></stop></linearGradient><radialGradient id="__lottie_element_41" spreadMethod="pad" gradientUnits="userSpaceOnUse" cx="173.32400512695312" cy="154.46099853515625" r="110.61927924526688" fx="173.32400512695312" fy="154.46099853515625"><stop offset="0%" stop-color="rgb(255,169,0)" stop-opacity="1"></stop><stop offset="50%" stop-color="rgb(255,169,0)" stop-opacity="0.5"></stop><stop offset="100%" stop-color="rgb(255,169,0)" stop-opacity="0"></stop></radialGradient><radialGradient id="__lottie_element_42" spreadMethod="pad" gradientUnits="userSpaceOnUse" cx="172.07400512695312" cy="153.71099853515625" r="109.16335891331488" fx="172.07400512695312" fy="153.71099853515625"><stop offset="0%" stop-color="rgb(255,169,0)" stop-opacity="1"></stop><stop offset="50%" stop-color="rgb(255,169,0)" stop-opacity="0.5"></stop><stop offset="100%" stop-color="rgb(255,169,0)" stop-opacity="0"></stop></radialGradient></defs><g clip-path="url(#__lottie_element_2)"><g style="display: block;" transform="matrix(1,0,0,1,256,256)" opacity="1"><g opacity="1" transform="matrix(1,0,0,1,0,0)"><path fill="rgb(159,84,2)" fill-opacity="1" d=" M139.7100067138672,-92.26699829101562 C93.78099822998047,-164.23599243164062 -2.197999954223633,-162.35000610351562 -2.197999954223633,-162.35000610351562 C-2.197999954223633,-162.35000610351562 -98.1760025024414,-164.23599243164062 -144.10499572753906,-92.26699829101562 C-190.0330047607422,-20.29800033569336 -212.84300231933594,115.05699920654297 -202.35800170898438,164.66600036621094 C-192.96400451660156,209.11199951171875 -61.94499969482422,205.86399841308594 -2.197000026702881,205.86399841308594 C57.55099868774414,205.86399841308594 207.3780059814453,199.4219970703125 205.77999877929688,164.66600036621094 C201.79200744628906,77.93399810791016 185.63800048828125,-20.29800033569336 139.7100067138672,-92.26699829101562z"></path></g><g opacity="1" transform="matrix(-1,0,0,1,0,0)"><path fill="url(#__lottie_element_41)" fill-opacity="1" d=" M81.27400207519531,205.54200744628906 C98.38099670410156,203.64100646972656 113.01000213623047,200.08999633789062 124.96199798583984,198.73699951171875 C194.80099487304688,190.83299255371094 201.41099548339844,177.74200439453125 206.70700073242188,153.48300170898438 C209.1009979248047,142.48500061035156 207.34800720214844,128.5989990234375 207.50799560546875,112.552001953125 C203.14100646972656,81.90799713134766 190.9499969482422,7.039999961853027 149.58399963378906,26.033000946044922 C118.98400115966797,40.0629997253418 120.75399780273438,67.64600372314453 72.62699890136719,120.51799774169922 C30.375999450683594,166.93299865722656 45.68299865722656,205.20799255371094 81.27400207519531,205.54200744628906z"></path></g><g opacity="1" transform="matrix(1,0,0,1,0,0)"><path fill="url(#__lottie_element_42)" fill-opacity="1" d=" M81.27400207519531,205.54200744628906 C98.38099670410156,203.64100646972656 113.01000213623047,200.08999633789062 124.96199798583984,198.73699951171875 C194.80099487304688,190.83299255371094 201.41099548339844,177.74200439453125 206.70700073242188,153.48300170898438 C209.1009979248047,142.48500061035156 207.34800720214844,128.5989990234375 207.50799560546875,112.552001953125 C203.14100646972656,81.90799713134766 190.9499969482422,7.039999961853027 149.58399963378906,26.033000946044922 C118.98400115966797,40.0629997253418 120.75399780273438,67.64600372314453 72.62699890136719,120.51799774169922 C30.375999450683594,166.93299865722656 45.68299865722656,205.20799255371094 81.27400207519531,205.54200744628906z"></path></g><g opacity="1" transform="matrix(1,0,0,1,0,0)"><path stroke-linecap="round" stroke-linejoin="round" fill-opacity="0" stroke="rgb(163,65,0)" stroke-opacity="1" stroke-width="8" d=" M139.7100067138672,-92.26699829101562 C93.78099822998047,-164.23599243164062 -94.947998046875,-162.0709991455078 -144.10499572753906,-92.26699829101562 C-199.60899353027344,-13.45199966430664 -213.1820068359375,115.12999725341797 -202.35800170898438,164.66600036621094 C-198.70599365234375,181.38099670410156 -178.0070037841797,188.68800354003906 -146.01600646972656,195.8509979248047 C-86.39299774169922,209.2010040283203 89.8270034790039,209.2010040283203 149.43800354003906,195.8509979248047 C178.36399841308594,189.3730010986328 204.98699951171875,181.75799560546875 205.77999877929688,164.66600036621094 C209.80299377441406,77.93599700927734 185.63800048828125,-20.29800033569336 139.7100067138672,-92.26699829101562z"></path></g></g><g style="display: block;" transform="matrix(1,0,0,1,256,256)" opacity="1"><g opacity="1" transform="matrix(1,0,0,1,0,0)"><path fill="rgb(255,168,0)" fill-opacity="1" d=" M109.01799774169922,-107.23999786376953 C82.98300170898438,-143.39999389648438 48.70199966430664,-164.66299438476562 -2.8350000381469727,-164.66299438476562 C-54.37200164794922,-164.66299438476562 -88.65399932861328,-143.39999389648438 -114.68800354003906,-107.23999786376953 C-140.72300720214844,-71.08100128173828 -162.41900634765625,13.241999626159668 -128.4290008544922,84.11399841308594 C-94.44000244140625,154.98599243164062 -37.01599884033203,177.4040069580078 -2.8350000381469727,177.4040069580078 C31.34600067138672,177.4040069580078 88.76799774169922,154.98599243164062 122.75800323486328,84.11399841308594 C156.7480010986328,13.241999626159668 135.05299377441406,-71.08100128173828 109.01799774169922,-107.23999786376953z"></path></g><g opacity="1" transform="matrix(1,0,0,1,0,0)"><path fill="url(#__lottie_element_36)" fill-opacity="1" d=" M109.20700073242188,-107.23999786376953 C83.1719970703125,-143.39999389648438 48.88999938964844,-164.66299438476562 -2.6470000743865967,-164.66299438476562 C-54.183998107910156,-164.66299438476562 -88.46499633789062,-143.39999389648438 -114.4990005493164,-107.23999786376953 C-140.53399658203125,-71.08100128173828 -162.22999572753906,13.241999626159668 -128.24000549316406,84.11399841308594 C-94.2509994506836,154.98599243164062 -36.827999114990234,177.4040069580078 -2.6470000743865967,177.4040069580078 C31.534000396728516,177.4040069580078 88.95700073242188,154.98599243164062 122.9469985961914,84.11399841308594 C156.93699645996094,13.241999626159668 135.24200439453125,-71.08100128173828 109.20700073242188,-107.23999786376953z"></path></g><g opacity="1" transform="matrix(1,0,0,1,0,0)"><path fill="url(#__lottie_element_37)" fill-opacity="1" d=" M97.78700256347656,-5.5 C97.78700256347656,-5.5 47.68199920654297,-21.690000534057617 16.958999633789062,-36.638999938964844 C-21.02400016784668,-55.12099838256836 -50.76300048828125,-77.0469970703125 -67.25199890136719,-90.3740005493164 C-67.25199890136719,-90.3740005493164 -80.29399871826172,-51.5629997253418 -101.2699966430664,-29.24799919128418 C-134.3679962158203,5.960999965667725 -131.51100158691406,47.611000061035156 -103.84200286865234,93.5469970703125 C-76.1729965209961,139.48300170898438 -30.659000396728516,155.2429962158203 -2.8350000381469727,155.2429962158203 C24.98900032043457,155.2429962158203 70.50299835205078,139.48300170898438 98.1719970703125,93.5469970703125 C125.84100341796875,47.611000061035156 118.9800033569336,17.937000274658203 97.78700256347656,-5.5z"></path></g><g opacity="1" transform="matrix(1,0,0,1,0,0)"><path stroke-linecap="round" stroke-linejoin="round" fill-opacity="0" stroke="rgb(219,110,0)" stroke-opacity="1" stroke-width="8" d=" M109.01799774169922,-107.23999786376953 C82.98300170898438,-143.39999389648438 48.70199966430664,-164.66299438476562 -2.8350000381469727,-164.66299438476562 C-54.37200164794922,-164.66299438476562 -88.65399932861328,-143.39999389648438 -114.68800354003906,-107.23999786376953 C-140.72300720214844,-71.08100128173828 -162.41900634765625,13.241999626159668 -128.4290008544922,84.11399841308594 C-94.44000244140625,154.98599243164062 -37.01599884033203,177.4040069580078 -2.8350000381469727,177.4040069580078 C31.34600067138672,177.4040069580078 88.76799774169922,154.98599243164062 122.75800323486328,84.11399841308594 C156.7480010986328,13.241999626159668 135.05299377441406,-71.08100128173828 109.01799774169922,-107.23999786376953z"></path></g></g><g style="display: block;" transform="matrix(1,0,0,1,256,255.99998474121094)" opacity="1"><g opacity="1" transform="matrix(1,0,0,1,0,0)"><g opacity="1" transform="matrix(1,0,0,1,0,0)"><path fill="rgb(255,255,255)" fill-opacity="1" d=" M-33.71799850463867,37.624000549316406 C-33.71799850463867,37.624000549316406 -37.43199920654297,-6.709000110626221 -74.30799865722656,-10.413000106811523 C-108.17400360107422,-13.814000129699707 -119.28600311279297,25.458999633789062 -119.28600311279297,25.458999633789062 C-119.28600311279297,25.458999633789062 -110.1709976196289,49.233001708984375 -80.52400207519531,52.48400115966797 C-47.472999572753906,56.10900115966797 -33.71799850463867,37.624000549316406 -33.71799850463867,37.624000549316406z"></path></g><g opacity="1" transform="matrix(1,0,0,1,0,0)"><g opacity="1" transform="matrix(1,0,0,1,0,0)"><path fill="url(#__lottie_element_27)" fill-opacity="1" d=" M-51.20500183105469,19.68600082397461 C-51.20500183105469,33.59600067138672 -61.845001220703125,44.87200164794922 -74.97100067138672,44.87200164794922 C-88.09700012207031,44.87200164794922 -98.73799896240234,33.59600067138672 -98.73799896240234,19.68600082397461 C-98.73799896240234,5.776000022888184 -88.09700012207031,-5.5 -74.97100067138672,-5.5 C-61.845001220703125,-5.5 -51.20500183105469,5.776000022888184 -51.20500183105469,19.68600082397461z"></path></g><g opacity="1" transform="matrix(1,0,0,1,0,0)"><g opacity="1" transform="matrix(1,0,0,1,0,0)"><path fill="url(#__lottie_element_28)" fill-opacity="1" d=" M-69.46700286865234,43.790000915527344 C-71.34400177001953,43.790000915527344 -73.08100128173828,42.577999114990234 -73.66300201416016,40.691001892089844 C-74.37799835205078,38.37300109863281 -73.0780029296875,35.91400146484375 -70.76000213623047,35.19900131225586 C-66.32599639892578,33.83100128173828 -62.79600143432617,30.38599967956543 -61.31800079345703,25.983999252319336 C-60.54600143432617,23.683000564575195 -58.051998138427734,22.447999954223633 -55.75699996948242,23.218000411987305 C-53.457000732421875,23.989999771118164 -52.21900177001953,26.479999542236328 -52.99100112915039,28.780000686645508 C-55.36600112915039,35.856998443603516 -61.04100036621094,41.39500045776367 -68.1719970703125,43.59400177001953 C-68.60299682617188,43.72700119018555 -69.03900146484375,43.790000915527344 -69.46700286865234,43.790000915527344z"></path></g></g><g opacity="1" transform="matrix(1,0,0,1,0,0)"><path fill="rgb(24,19,9)" fill-opacity="1" d=" M-59.95100021362305,19.68600082397461 C-59.95100021362305,28.476999282836914 -66.67500305175781,35.604000091552734 -74.97100067138672,35.604000091552734 C-83.26699829101562,35.604000091552734 -89.99199676513672,28.476999282836914 -89.99199676513672,19.68600082397461 C-89.99199676513672,10.895000457763672 -83.26699829101562,3.7690000534057617 -74.97100067138672,3.7690000534057617 C-66.67500305175781,3.7690000534057617 -59.95100021362305,10.895000457763672 -59.95100021362305,19.68600082397461z"></path></g><g opacity="1" transform="matrix(1,0,0,1,0,0)"><path fill="url(#__lottie_element_29)" fill-opacity="1" d=" M-76.302001953125,5.961999893188477 C-76.302001953125,9.300000190734863 -78.85600280761719,12.005999565124512 -82.00599670410156,12.005999565124512 C-85.15599822998047,12.005999565124512 -87.70999908447266,9.300000190734863 -87.70999908447266,5.961999893188477 C-87.70999908447266,2.624000072479248 -85.15599822998047,-0.08299999684095383 -82.00599670410156,-0.08299999684095383 C-78.85600280761719,-0.08299999684095383 -76.302001953125,2.624000072479248 -76.302001953125,5.961999893188477z"></path></g></g><g opacity="1" transform="matrix(1,0,0,1,0,0)"><path fill="rgb(163,65,0)" fill-opacity="1" d=" M-33.71799850463867,37.624000549316406 C-33.71799850463867,37.624000549316406 -35.4900016784668,-7.86299991607666 -76.50199890136719,-11.777000427246094 C-93.33999633789062,-13.383999824523926 -107.60199737548828,-4.119999885559082 -113.76799774169922,6.861000061035156 C-118.95999908447266,16.107999801635742 -119.28600311279297,25.458999633789062 -119.28600311279297,25.458999633789062 C-119.28600311279297,25.458999633789062 -115.41500091552734,-9.817000389099121 -77.822998046875,-8.013999938964844 C-37.59400177001953,-6.084000110626221 -33.71799850463867,37.624000549316406 -33.71799850463867,37.624000549316406z"></path><path stroke-linecap="round" stroke-linejoin="round" fill-opacity="0" stroke="rgb(163,65,0)" stroke-opacity="1" stroke-width="2" d=" M-33.71799850463867,37.624000549316406 C-33.71799850463867,37.624000549316406 -35.4900016784668,-7.86299991607666 -76.50199890136719,-11.777000427246094 C-93.33999633789062,-13.383999824523926 -107.60199737548828,-4.119999885559082 -113.76799774169922,6.861000061035156 C-118.95999908447266,16.107999801635742 -119.28600311279297,25.458999633789062 -119.28600311279297,25.458999633789062 C-119.28600311279297,25.458999633789062 -115.41500091552734,-9.817000389099121 -77.822998046875,-8.013999938964844 C-37.59400177001953,-6.084000110626221 -33.71799850463867,37.624000549316406 -33.71799850463867,37.624000549316406z"></path></g></g><g opacity="1" transform="matrix(-1,0,0,1,-4.125,0)"><g opacity="1" transform="matrix(1,0,0,1,0,0)"><path fill="rgb(255,255,255)" fill-opacity="1" d=" M-33.71799850463867,37.624000549316406 C-33.71799850463867,37.624000549316406 -37.43199920654297,-6.709000110626221 -74.30799865722656,-10.413000106811523 C-108.17400360107422,-13.814000129699707 -119.28600311279297,25.458999633789062 -119.28600311279297,25.458999633789062 C-119.28600311279297,25.458999633789062 -110.1709976196289,49.233001708984375 -80.52400207519531,52.48400115966797 C-47.472999572753906,56.10900115966797 -33.71799850463867,37.624000549316406 -33.71799850463867,37.624000549316406z"></path></g><g opacity="1" transform="matrix(-1,0,0,1,-149.94200134277344,0)"><g opacity="1" transform="matrix(1,0,0,1,0,0)"><g opacity="1" transform="matrix(1,0,0,1,0,0)"><path fill="url(#__lottie_element_30)" fill-opacity="1" d=" M-51.20500183105469,19.68600082397461 C-51.20500183105469,33.59600067138672 -61.845001220703125,44.87200164794922 -74.97100067138672,44.87200164794922 C-88.09700012207031,44.87200164794922 -98.73799896240234,33.59600067138672 -98.73799896240234,19.68600082397461 C-98.73799896240234,5.776000022888184 -88.09700012207031,-5.5 -74.97100067138672,-5.5 C-61.845001220703125,-5.5 -51.20500183105469,5.776000022888184 -51.20500183105469,19.68600082397461z"></path></g><g opacity="1" transform="matrix(1,0,0,1,0,0)"><g opacity="1" transform="matrix(1,0,0,1,0,0)"><path fill="url(#__lottie_element_31)" fill-opacity="1" d=" M-69.46700286865234,43.790000915527344 C-71.34400177001953,43.790000915527344 -73.08100128173828,42.577999114990234 -73.66300201416016,40.691001892089844 C-74.37799835205078,38.37300109863281 -73.0780029296875,35.91400146484375 -70.76000213623047,35.19900131225586 C-66.32599639892578,33.83100128173828 -62.79600143432617,30.38599967956543 -61.31800079345703,25.983999252319336 C-60.54600143432617,23.683000564575195 -58.051998138427734,22.447999954223633 -55.75699996948242,23.218000411987305 C-53.457000732421875,23.989999771118164 -52.21900177001953,26.479999542236328 -52.99100112915039,28.780000686645508 C-55.36600112915039,35.856998443603516 -61.04100036621094,41.39500045776367 -68.1719970703125,43.59400177001953 C-68.60299682617188,43.72700119018555 -69.03900146484375,43.790000915527344 -69.46700286865234,43.790000915527344z"></path></g></g><g opacity="1" transform="matrix(1,0,0,1,0,0)"><path fill="rgb(24,19,9)" fill-opacity="1" d=" M-59.95100021362305,19.68600082397461 C-59.95100021362305,28.476999282836914 -66.67500305175781,35.604000091552734 -74.97100067138672,35.604000091552734 C-83.26699829101562,35.604000091552734 -89.99199676513672,28.476999282836914 -89.99199676513672,19.68600082397461 C-89.99199676513672,10.895000457763672 -83.26699829101562,3.7690000534057617 -74.97100067138672,3.7690000534057617 C-66.67500305175781,3.7690000534057617 -59.95100021362305,10.895000457763672 -59.95100021362305,19.68600082397461z"></path></g><g opacity="1" transform="matrix(1,0,0,1,0,0)"><path fill="url(#__lottie_element_32)" fill-opacity="1" d=" M-76.302001953125,5.961999893188477 C-76.302001953125,9.300000190734863 -78.85600280761719,12.005999565124512 -82.00599670410156,12.005999565124512 C-85.15599822998047,12.005999565124512 -87.70999908447266,9.300000190734863 -87.70999908447266,5.961999893188477 C-87.70999908447266,2.624000072479248 -85.15599822998047,-0.08299999684095383 -82.00599670410156,-0.08299999684095383 C-78.85600280761719,-0.08299999684095383 -76.302001953125,2.624000072479248 -76.302001953125,5.961999893188477z"></path></g></g></g><g opacity="1" transform="matrix(1,0,0,1,0,0)"><path fill="rgb(163,65,0)" fill-opacity="1" d=" M-33.71799850463867,37.624000549316406 C-33.71799850463867,37.624000549316406 -35.4900016784668,-7.86299991607666 -76.50199890136719,-11.777000427246094 C-93.33999633789062,-13.383999824523926 -107.60199737548828,-4.119999885559082 -113.76799774169922,6.861000061035156 C-118.95999908447266,16.107999801635742 -119.28600311279297,25.458999633789062 -119.28600311279297,25.458999633789062 C-119.28600311279297,25.458999633789062 -115.41500091552734,-9.817000389099121 -77.822998046875,-8.013999938964844 C-37.59400177001953,-6.084000110626221 -33.71799850463867,37.624000549316406 -33.71799850463867,37.624000549316406z"></path><path stroke-linecap="round" stroke-linejoin="round" fill-opacity="0" stroke="rgb(163,65,0)" stroke-opacity="1" stroke-width="2" d=" M-33.71799850463867,37.624000549316406 C-33.71799850463867,37.624000549316406 -35.4900016784668,-7.86299991607666 -76.50199890136719,-11.777000427246094 C-93.33999633789062,-13.383999824523926 -107.60199737548828,-4.119999885559082 -113.76799774169922,6.861000061035156 C-118.95999908447266,16.107999801635742 -119.28600311279297,25.458999633789062 -119.28600311279297,25.458999633789062 C-119.28600311279297,25.458999633789062 -115.41500091552734,-9.817000389099121 -77.822998046875,-8.013999938964844 C-37.59400177001953,-6.084000110626221 -33.71799850463867,37.624000549316406 -33.71799850463867,37.624000549316406z"></path></g></g></g><g style="display: block;" transform="matrix(1,0,0,1,256,256)" opacity="1"><g opacity="1" transform="matrix(1,0,0,1,0,0)"><path fill="url(#__lottie_element_20)" fill-opacity="1" d=" M18.190000534057617,94.09300231933594 C18.190000534057617,102.9260025024414 8.125,110.77799987792969 -2.8350000381469727,110.77799987792969 C-13.795000076293945,110.77799987792969 -23.861000061035156,102.9260025024414 -23.861000061035156,94.09300231933594 C-23.861000061035156,85.26100158691406 -13.795000076293945,77.16200256347656 -2.8350000381469727,77.16200256347656 C8.125,77.16200256347656 18.190000534057617,85.26100158691406 18.190000534057617,94.09300231933594z"></path></g><g opacity="1" transform="matrix(1,0,0,1,0,0)"><path fill="rgb(255,168,0)" fill-opacity="0.8" d=" M18.190000534057617,85.64399719238281 C18.190000534057617,94.10600280761719 8.777000427246094,100.96600341796875 -2.8350000381469727,100.96600341796875 C-14.446999549865723,100.96600341796875 -23.860000610351562,94.10600280761719 -23.860000610351562,85.64399719238281 C-23.860000610351562,77.18199920654297 -14.446999549865723,70.68299865722656 -2.8350000381469727,70.68299865722656 C8.777000427246094,70.68299865722656 18.190000534057617,77.18199920654297 18.190000534057617,85.64399719238281z"></path></g><g opacity="1" transform="matrix(1,0,0,1,0,0)"><path fill="url(#__lottie_element_21)" fill-opacity="1" d=" M18.190000534057617,85.64399719238281 C18.190000534057617,94.10600280761719 8.777000427246094,100.96600341796875 -2.8350000381469727,100.96600341796875 C-14.446999549865723,100.96600341796875 -23.860000610351562,94.10600280761719 -23.860000610351562,85.64399719238281 C-23.860000610351562,77.18199920654297 -14.446999549865723,70.68299865722656 -2.8350000381469727,70.68299865722656 C8.777000427246094,70.68299865722656 18.190000534057617,77.18199920654297 18.190000534057617,85.64399719238281z"></path></g><g opacity="1" transform="matrix(1,0,0,1,0,0)"><path fill="rgb(255,216,0)" fill-opacity="1" d=" M15.352999687194824,80.80799865722656 C15.352999687194824,87.10800170898438 7.210000038146973,92.21499633789062 -2.8350000381469727,92.21499633789062 C-12.880000114440918,92.21499633789062 -21.02400016784668,87.10800170898438 -21.02400016784668,80.80799865722656 C-21.02400016784668,74.50800323486328 -12.880000114440918,70.43599700927734 -2.8350000381469727,70.43599700927734 C7.210000038146973,70.43599700927734 15.352999687194824,74.50800323486328 15.352999687194824,80.80799865722656z"></path></g><g opacity="1" transform="matrix(1,0,0,1,0,0)"><path fill="url(#__lottie_element_22)" fill-opacity="1" d=" M15.352999687194824,80.80799865722656 C15.352999687194824,87.10800170898438 7.210000038146973,92.21499633789062 -2.8350000381469727,92.21499633789062 C-12.880000114440918,92.21499633789062 -21.02400016784668,87.10800170898438 -21.02400016784668,80.80799865722656 C-21.02400016784668,74.50800323486328 -12.880000114440918,70.43599700927734 -2.8350000381469727,70.43599700927734 C7.210000038146973,70.43599700927734 15.352999687194824,74.50800323486328 15.352999687194824,80.80799865722656z"></path></g><g opacity="1" transform="matrix(1,0,0,1,0,0)"><path fill="url(#__lottie_element_23)" fill-opacity="0.7000000000000001" d=" M6.535999774932861,76.23300170898438 C6.535999774932861,79.60600280761719 2.3399999141693115,82.77799987792969 -2.8350000381469727,82.77799987792969 C-8.010000228881836,82.77799987792969 -12.206000328063965,79.60600280761719 -12.206000328063965,76.23300170898438 C-12.206000328063965,72.86000061035156 -8.010000228881836,71.16799926757812 -2.8350000381469727,71.16799926757812 C2.3399999141693115,71.16799926757812 6.535999774932861,72.86000061035156 6.535999774932861,76.23300170898438z"></path></g></g><g style="display: block;" transform="matrix(1,0,0,1,256,256)" opacity="1"><g opacity="1" transform="matrix(1,0,0,1,0,0)"><path fill="rgb(163,65,0)" fill-opacity="1" d=" M-108.53900146484375,-29.43400001525879 C-108.53900146484375,-29.43400001525879 -93.75199890136719,-39.57699966430664 -76.2020034790039,-39.02899932861328 C-59.3849983215332,-38.50400161743164 -52.435001373291016,-32.145999908447266 -52.435001373291016,-32.145999908447266 C-52.435001373291016,-32.145999908447266 -58.0369987487793,-44.35599899291992 -76.2020034790039,-43.82699966430664 C-96.21299743652344,-43.24399948120117 -108.53900146484375,-29.43400001525879 -108.53900146484375,-29.43400001525879z"></path><path stroke-linecap="round" stroke-linejoin="round" fill-opacity="0" stroke="rgb(163,65,0)" stroke-opacity="1" stroke-width="2" d=" M-108.53900146484375,-29.43400001525879 C-108.53900146484375,-29.43400001525879 -93.75199890136719,-39.57699966430664 -76.2020034790039,-39.02899932861328 C-59.3849983215332,-38.50400161743164 -52.435001373291016,-32.145999908447266 -52.435001373291016,-32.145999908447266 C-52.435001373291016,-32.145999908447266 -58.0369987487793,-44.35599899291992 -76.2020034790039,-43.82699966430664 C-96.21299743652344,-43.24399948120117 -108.53900146484375,-29.43400001525879 -108.53900146484375,-29.43400001525879z"></path></g><g opacity="1" transform="matrix(1,0,0,1,0,0)"><path fill="rgb(163,65,0)" fill-opacity="1" d=" M102.75700378417969,-29.43400001525879 C102.75700378417969,-29.43400001525879 87.97000122070312,-39.57699966430664 70.41999816894531,-39.02899932861328 C53.60300064086914,-38.50400161743164 46.65299987792969,-32.145999908447266 46.65299987792969,-32.145999908447266 C46.65299987792969,-32.145999908447266 52.255001068115234,-44.35599899291992 70.41999816894531,-43.82699966430664 C90.43099975585938,-43.24399948120117 102.75700378417969,-29.43400001525879 102.75700378417969,-29.43400001525879z"></path><path stroke-linecap="round" stroke-linejoin="round" fill-opacity="0" stroke="rgb(163,65,0)" stroke-opacity="1" stroke-width="2" d=" M102.75700378417969,-29.43400001525879 C102.75700378417969,-29.43400001525879 87.97000122070312,-39.57699966430664 70.41999816894531,-39.02899932861328 C53.60300064086914,-38.50400161743164 46.65299987792969,-32.145999908447266 46.65299987792969,-32.145999908447266 C46.65299987792969,-32.145999908447266 52.255001068115234,-44.35599899291992 70.41999816894531,-43.82699966430664 C90.43099975585938,-43.24399948120117 102.75700378417969,-29.43400001525879 102.75700378417969,-29.43400001525879z"></path></g></g><g style="display: block;" transform="matrix(1,0,0,1,256,256)" opacity="1"><g opacity="1" transform="matrix(1,0,0,1,0,0)"><path fill="rgb(75,37,2)" fill-opacity="1" d=" M43.34299850463867,120.85099792480469 C40.119998931884766,119.03800201416016 25.618000030517578,121.85800170898438 14.940999984741211,118.03099822998047 C4.264999866485596,114.2040023803711 1.8489999771118164,119.62100219726562 -1.9789999723434448,119.62100219726562 C-5.806000232696533,119.62100219726562 -8.222999572753906,114.2040023803711 -18.899999618530273,118.03099822998047 C-29.576000213623047,121.85800170898438 -44.07899856567383,119.03800201416016 -47.301998138427734,120.85099792480469 C-50.525001525878906,122.66400146484375 -28.535999298095703,143.5919952392578 -1.9789999723434448,143.5919952392578 C24.26799964904785,143.5919952392578 46.566001892089844,122.66400146484375 43.34299850463867,120.85099792480469z"></path></g><g opacity="1" transform="matrix(1,0,0,1,0,0)"><path fill="url(#__lottie_element_13)" fill-opacity="1" d=" M43.34299850463867,120.85099792480469 C40.119998931884766,119.03800201416016 25.618000030517578,121.85800170898438 14.940999984741211,118.03099822998047 C4.264999866485596,114.2040023803711 1.8489999771118164,119.62100219726562 -1.9789999723434448,119.62100219726562 C-5.806000232696533,119.62100219726562 -8.222999572753906,114.2040023803711 -18.899999618530273,118.03099822998047 C-29.576000213623047,121.85800170898438 -44.07899856567383,119.03800201416016 -47.301998138427734,120.85099792480469 C-50.525001525878906,122.66400146484375 -28.535999298095703,143.5919952392578 -1.9789999723434448,143.5919952392578 C24.26799964904785,143.5919952392578 46.566001892089844,122.66400146484375 43.34299850463867,120.85099792480469z"></path></g><g opacity="1" transform="matrix(1,0,0,1,0,0)"><path fill="rgb(23,19,11)" fill-opacity="1" d=" M-39.88199996948242,124.6240005493164 C-39.88199996948242,124.6240005493164 -28.322999954223633,127.36900329589844 -20.43899917602539,127.36900329589844 C-15.086999893188477,127.36900329589844 -7.00600004196167,130.20700073242188 -1.9789999723434448,130.20700073242188 C2.8519999980926514,130.20700073242188 9.390000343322754,127.43000030517578 14.458999633789062,127.43000030517578 C24.839000701904297,127.43000030517578 35.196998596191406,124.6240005493164 35.196998596191406,124.6240005493164 C35.196998596191406,124.6240005493164 26.56399917602539,127.21399688720703 13.963000297546387,129.86099243164062 C9.489999771118164,130.80099487304688 3.2860000133514404,133.1820068359375 -1.9789999723434448,133.1820068359375 C-8.236000061035156,133.1820068359375 -15.381999969482422,130.53799438476562 -20.562000274658203,129.3000030517578 C-32.020999908447266,126.56099700927734 -39.88199996948242,124.6240005493164 -39.88199996948242,124.6240005493164z"></path><path stroke-linecap="round" stroke-linejoin="round" fill-opacity="0" stroke="rgb(23,19,11)" stroke-opacity="1" stroke-width="1" d=" M-39.88199996948242,124.6240005493164 C-39.88199996948242,124.6240005493164 -28.322999954223633,127.36900329589844 -20.43899917602539,127.36900329589844 C-15.086999893188477,127.36900329589844 -7.00600004196167,130.20700073242188 -1.9789999723434448,130.20700073242188 C2.8519999980926514,130.20700073242188 9.390000343322754,127.43000030517578 14.458999633789062,127.43000030517578 C24.839000701904297,127.43000030517578 35.196998596191406,124.6240005493164 35.196998596191406,124.6240005493164 C35.196998596191406,124.6240005493164 26.56399917602539,127.21399688720703 13.963000297546387,129.86099243164062 C9.489999771118164,130.80099487304688 3.2860000133514404,133.1820068359375 -1.9789999723434448,133.1820068359375 C-8.236000061035156,133.1820068359375 -15.381999969482422,130.53799438476562 -20.562000274658203,129.3000030517578 C-32.020999908447266,126.56099700927734 -39.88199996948242,124.6240005493164 -39.88199996948242,124.6240005493164z"></path></g></g><g style="display: block;" transform="matrix(1,0,0,1,256,256)" opacity="1"><g opacity="1" transform="matrix(1,0,0,1,0,0)"><path fill="rgb(255,205,0)" fill-opacity="1" d=" M-78.04000091552734,-130.18600463867188 C-86.03299713134766,-65.35700225830078 -118.78600311279297,-22.701000213623047 -172.9929962158203,0.7409999966621399 C-172.9929962158203,0.7409999966621399 -214.197998046875,52.073001861572266 -202.35800170898438,158.6820068359375 C-202.35800170898438,158.6820068359375 -217.48500061035156,73.1729965209961 -183.0489959716797,-52.4370002746582 C-151.1230010986328,-168.88999938964844 -98.58999633789062,-186.89199829101562 -86.39199829101562,-182.1179962158203 C-86.39199829101562,-182.1179962158203 -69.22000122070312,-214.73699951171875 15.845000267028809,-203.5989990234375 C100.91000366210938,-192.46099853515625 154.7270050048828,-129.60899353027344 178.82400512695312,-56.415000915527344 C202.92100524902344,16.77899932861328 209.79600524902344,103.78600311279297 205.77999877929688,158.6820068359375 C205.77999877929688,158.6820068359375 216.35499572753906,24.500999450683594 125.8740005493164,-19.011999130249023 C125.8740005493164,-19.011999130249023 -2.197999954223633,-46.04100036621094 -78.04000091552734,-130.18600463867188z"></path></g><g opacity="1" transform="matrix(1,0,0,1,0,0)"><path fill="url(#__lottie_element_6)" fill-opacity="1" d=" M-78.04000091552734,-130.18600463867188 C-86.03299713134766,-65.35700225830078 -118.78600311279297,-22.701000213623047 -172.9929962158203,0.7409999966621399 C-172.9929962158203,0.7409999966621399 -214.197998046875,52.073001861572266 -202.35800170898438,158.6820068359375 C-202.35800170898438,158.6820068359375 -217.48500061035156,73.1729965209961 -183.0489959716797,-52.4370002746582 C-151.1230010986328,-168.88999938964844 -98.58999633789062,-186.89199829101562 -86.39199829101562,-182.1179962158203 C-86.39199829101562,-182.1179962158203 -69.22000122070312,-214.73699951171875 15.845000267028809,-203.5989990234375 C100.91000366210938,-192.46099853515625 154.7270050048828,-129.60899353027344 178.82400512695312,-56.415000915527344 C202.92100524902344,16.77899932861328 209.79600524902344,103.78600311279297 205.77999877929688,158.6820068359375 C205.77999877929688,158.6820068359375 216.35499572753906,24.500999450683594 125.8740005493164,-19.011999130249023 C125.8740005493164,-19.011999130249023 -2.197999954223633,-46.04100036621094 -78.04000091552734,-130.18600463867188z"></path></g><g opacity="1" transform="matrix(1,0,0,1,0,0)"><path fill="url(#__lottie_element_7)" fill-opacity="1" d=" M174.47900390625,-13.397000312805176 C174.47900390625,-13.397000312805176 151.83799743652344,-18.486000061035156 125.87699890136719,-19.006000518798828 C125.87699890136719,-19.006000518798828 -2.196000099182129,-46.0369987487793 -78.04100036621094,-130.1909942626953 C-78.04100036621094,-130.1909942626953 -80.94599914550781,-72.83999633789062 -117.72100067138672,-38.965999603271484 C-152.47000122070312,-6.940999984741211 -172.98699951171875,0.7360000014305115 -172.98699951171875,0.7360000014305115 C-172.98699951171875,0.7360000014305115 -199.02099609375,38.500999450683594 -201.6219940185547,71.7969970703125 C-201.6219940185547,71.7969970703125 -203.947998046875,0.8379999995231628 -179.968994140625,-9.576000213623047 C-179.968994140625,-9.576000213623047 -140.3070068359375,-31.211999893188477 -118.94200134277344,-58.972999572753906 C-91.56400299072266,-94.5469970703125 -93.60700225830078,-141.5749969482422 -97.32599639892578,-154.3820037841797 C-102.74099731445312,-173.0279998779297 -144.10499572753906,-152.31700134277344 -169.26499938964844,-94.08100128173828 C-137.78700256347656,-173.302001953125 -96.95999908447266,-186.25 -86.38999938964844,-182.11500549316406 C-86.38999938964844,-182.11500549316406 -69.21600341796875,-214.73199462890625 15.843999862670898,-203.59800720214844 C58.880001068115234,-197.96499633789062 93.93499755859375,-179.08099365234375 121.1780014038086,-152.31500244140625 C121.1780014038086,-152.31500244140625 66.68599700927734,-203.072998046875 -21.749000549316406,-193.33399963378906 C-81.34300231933594,-186.77099609375 -72.93800354003906,-157.82000732421875 -66.31099700927734,-146.7779998779297 C-56.9119987487793,-131.1179962158203 -8.767999649047852,-81.87999725341797 59.74700164794922,-56.15599822998047 C118.37000274658203,-34.145999908447266 151.92300415039062,-28.36400032043457 174.47900390625,-13.397000312805176z"></path></g><g opacity="1" transform="matrix(1,0,0,1,0,0)"><path stroke-linecap="round" stroke-linejoin="round" fill-opacity="0" stroke="rgb(197,92,0)" stroke-opacity="1" stroke-width="8" d=" M-78.04000091552734,-130.18600463867188 C-73.3499984741211,-72.90699768066406 -116.21900177001953,-23.319000244140625 -172.9929962158203,0.7409999966621399 C-172.9929962158203,0.7409999966621399 -215.5489959716797,50.145999908447266 -203.70899963378906,156.7550048828125 C-203.70899963378906,156.7550048828125 -217.48500061035156,73.1729965209961 -183.0489959716797,-52.4370002746582 C-151.1230010986328,-168.88999938964844 -98.58999633789062,-186.89199829101562 -86.39199829101562,-182.1179962158203 C-86.39199829101562,-182.1179962158203 -69.22000122070312,-214.73699951171875 15.845000267028809,-203.5989990234375 C100.91000366210938,-192.46099853515625 154.7270050048828,-129.60899353027344 178.82400512695312,-56.415000915527344 C202.92100524902344,16.77899932861328 209.90699768066406,102.00700378417969 205.89100646972656,156.9029998779297 C205.89100646972656,156.9029998779297 216.0989990234375,23.24799919128418 125.8740005493164,-19.011999130249023 C125.8740005493164,-19.011999130249023 -2.197999954223633,-46.04100036621094 -78.04000091552734,-130.18600463867188z"></path></g><g opacity="1" transform="matrix(1,0,0,1,0,0)"><path fill="url(#__lottie_element_8)" fill-opacity="0.9" d=" M-95.35900115966797,-139.6020050048828 C-94.7030029296875,-165.03700256347656 -91.95500183105469,-170.71800231933594 -97.7959976196289,-169.27000427246094 C-116.37200164794922,-164.66400146484375 -146.6320037841797,-137.3179931640625 -162.50399780273438,-86.68099975585938 C-161.718994140625,-68.13700103759766 -138.73300170898438,-80.89099884033203 -127.7770004272461,-81.43499755859375 C-99.7249984741211,-82.8280029296875 -95.94000244140625,-117.0719985961914 -95.35900115966797,-139.6020050048828z"></path></g><g opacity="1" transform="matrix(1,0,0,1,0,0)"><path fill="url(#__lottie_element_9)" fill-opacity="0.9" d=" M16.84600067138672,-83.1259994506836 C-27.475000381469727,-98.36000061035156 -59.73899841308594,-137.24200439453125 -66.9469985961914,-149.1580047607422 C-75.44300079345703,-163.20399475097656 -77.95800018310547,-175.9709930419922 -75.63999938964844,-178.60499572753906 C-65.66000366210938,-189.9459991455078 -28.160999298095703,-200.54200744628906 24.340999603271484,-190.15699768066406 C72.96399688720703,-180.53900146484375 122.29399871826172,-143.87600708007812 146.23300170898438,-98.8280029296875 C159.5850067138672,-73.7020034790039 89.62000274658203,-58.112998962402344 16.84600067138672,-83.1259994506836z"></path></g><g opacity="1" transform="matrix(1,0,0,1,0,0)"><path stroke-linecap="round" stroke-linejoin="round" fill-opacity="0" stroke="rgb(163,65,0)" stroke-opacity="1" stroke-width="8" d=" M205.89100646972656,156.9029998779297 C205.89100646972656,156.9029998779297 216.0989990234375,23.24799919128418 125.8740005493164,-19.011999130249023 C125.8740005493164,-19.011999130249023 -2.197999954223633,-46.04100036621094 -78.04000091552734,-130.18600463867188 C-73.3499984741211,-72.90699768066406 -116.21900177001953,-23.319000244140625 -172.9929962158203,0.7409999966621399 C-172.9929962158203,0.7409999966621399 -215.5489959716797,50.145999908447266 -203.70899963378906,156.7550048828125"></path></g></g></g></svg>