<svg xmlns="http://www.w3.org/2000/svg" xmlns:xlink="http://www.w3.org/1999/xlink" viewBox="0 0 512 512" width="512" height="512" style="width: 100%; height: 100%; transform: translate3d(0,0,0); content-visibility: visible;" preserveAspectRatio="xMidYMid meet"><defs><clipPath id="__lottie_element_2"><rect width="512" height="512" x="0" y="0"></rect></clipPath><radialGradient id="__lottie_element_6" spreadMethod="pad" gradientUnits="userSpaceOnUse" cx="0" cy="0" r="14.75211849193193" fx="0" fy="0"><stop offset="0%" stop-color="rgb(255,255,255)"></stop><stop offset="50%" stop-color="rgb(238,236,234)"></stop><stop offset="100%" stop-color="rgb(222,217,212)"></stop></radialGradient><radialGradient id="__lottie_element_10" spreadMethod="pad" gradientUnits="userSpaceOnUse" cx="0" cy="0" r="6.504805915628844" fx="0" fy="0"><stop offset="0%" stop-color="rgb(255,255,255)"></stop><stop offset="50%" stop-color="rgb(238,236,234)"></stop><stop offset="100%" stop-color="rgb(222,217,212)"></stop></radialGradient><radialGradient id="__lottie_element_14" spreadMethod="pad" gradientUnits="userSpaceOnUse" cx="0" cy="0" r="9.003471552684553" fx="0" fy="0"><stop offset="0%" stop-color="rgb(255,255,255)"></stop><stop offset="50%" stop-color="rgb(238,236,234)"></stop><stop offset="100%" stop-color="rgb(222,217,212)"></stop></radialGradient><radialGradient id="__lottie_element_18" spreadMethod="pad" gradientUnits="userSpaceOnUse" cx="0" cy="0" r="14.75211849193193" fx="0" fy="0"><stop offset="0%" stop-color="rgb(255,255,255)"></stop><stop offset="50%" stop-color="rgb(238,236,234)"></stop><stop offset="100%" stop-color="rgb(222,217,212)"></stop></radialGradient><radialGradient id="__lottie_element_22" spreadMethod="pad" gradientUnits="userSpaceOnUse" cx="0" cy="0" r="14.75211849193193" fx="0" fy="0"><stop offset="0%" stop-color="rgb(255,255,255)"></stop><stop offset="50%" stop-color="rgb(238,236,234)"></stop><stop offset="100%" stop-color="rgb(222,217,212)"></stop></radialGradient><linearGradient id="__lottie_element_26" spreadMethod="pad" gradientUnits="userSpaceOnUse" x1="374" y1="371" x2="415" y2="372"><stop offset="0%" stop-color="rgb(178,191,208)"></stop><stop offset="50%" stop-color="rgb(178,191,208)"></stop><stop offset="100%" stop-color="rgb(178,191,208)"></stop></linearGradient><mask id="__lottie_element_28"><path fill="url(#__lottie_element_27)" d=" M411.33,342.65 C411.33,342.65 411.21,317 411.21,317 C411.21,317 378.97,317 378.97,317 C378.97,317 379.09,342.65 379.09,342.65 C379.09,354.57 377.01,366.4 372.92,377.59 C372.92,377.59 339.79,468.5 339.79,468.5 C338.48,472.09 341.14,475.89 344.96,475.89 C344.96,475.89 445.47,475.89 445.47,475.89 C449.29,475.89 451.95,472.09 450.64,468.5 C450.64,468.5 417.5,377.59 417.5,377.59 C413.42,366.4 411.33,354.57 411.33,342.65z"></path></mask><linearGradient id="__lottie_element_27" spreadMethod="pad" gradientUnits="userSpaceOnUse" x1="374" y1="371" x2="415" y2="372"><stop stop-color="rgb(255,255,255)" offset="0%" stop-opacity="0.75"></stop><stop stop-color="rgb(255,255,255)" offset="24%" stop-opacity="0.4749999940395355"></stop><stop stop-color="rgb(255,255,255)" offset="49%" stop-opacity="0.20000000298023224"></stop><stop stop-color="rgb(255,255,255)" offset="74%" stop-opacity="0.4749999940395355"></stop><stop stop-color="rgb(255,255,255)" offset="100%" stop-opacity="0.75"></stop></linearGradient><linearGradient id="__lottie_element_29" spreadMethod="pad" gradientUnits="userSpaceOnUse" x1="381.5" y1="384" x2="369.25" y2="402"><stop offset="0%" stop-color="rgb(134,141,152)" stop-opacity="0.5"></stop><stop offset="50%" stop-color="rgb(134,141,152)" stop-opacity="0.625"></stop><stop offset="100%" stop-color="rgb(134,141,152)" stop-opacity="0.75"></stop></linearGradient><linearGradient id="__lottie_element_30" spreadMethod="pad" gradientUnits="userSpaceOnUse" x1="-55.5" y1="17.5" x2="54.5" y2="17.5"><stop offset="0%" stop-color="rgb(6,195,0)"></stop><stop offset="35%" stop-color="rgb(36,225,15)"></stop><stop offset="71%" stop-color="rgb(65,255,29)"></stop><stop offset="79%" stop-color="rgb(35,235,15)"></stop><stop offset="87%" stop-color="rgb(5,215,0)"></stop></linearGradient><linearGradient id="__lottie_element_31" spreadMethod="pad" gradientUnits="userSpaceOnUse" x1="374" y1="371" x2="415" y2="372"><stop offset="0%" stop-color="rgb(156,181,212)"></stop><stop offset="50%" stop-color="rgb(156,181,212)"></stop><stop offset="100%" stop-color="rgb(156,181,212)"></stop></linearGradient><mask id="__lottie_element_33"><path fill="url(#__lottie_element_32)" d=" M416.38,328.42 C416.38,328.42 374.05,328.42 374.05,328.42 C374.05,328.42 374.05,316.75 374.05,316.75 C374.05,316.75 416.38,316.75 416.38,316.75 C416.38,316.75 416.38,328.42 416.38,328.42z"></path></mask><linearGradient id="__lottie_element_32" spreadMethod="pad" gradientUnits="userSpaceOnUse" x1="374" y1="371" x2="415" y2="372"><stop stop-color="rgb(255,255,255)" offset="0%" stop-opacity="0.75"></stop><stop stop-color="rgb(255,255,255)" offset="24%" stop-opacity="0.4749999940395355"></stop><stop stop-color="rgb(255,255,255)" offset="49%" stop-opacity="0.20000000298023224"></stop><stop stop-color="rgb(255,255,255)" offset="74%" stop-opacity="0.4749999940395355"></stop><stop stop-color="rgb(255,255,255)" offset="100%" stop-opacity="0.75"></stop></linearGradient><linearGradient id="__lottie_element_34" spreadMethod="pad" gradientUnits="userSpaceOnUse" x1="363" y1="430.5" x2="402.5" y2="430.5"><stop offset="0%" stop-color="rgb(203,255,113)" stop-opacity="0.20000000298023224"></stop><stop offset="50%" stop-color="rgb(207,255,110)" stop-opacity="0.4749999940395355"></stop><stop offset="100%" stop-color="rgb(211,255,107)" stop-opacity="0.75"></stop></linearGradient><linearGradient id="__lottie_element_35" spreadMethod="pad" gradientUnits="userSpaceOnUse" x1="363" y1="430.5" x2="402.5" y2="430.5"><stop offset="0%" stop-color="rgb(255,255,255)" stop-opacity="0.20000000298023224"></stop><stop offset="50%" stop-color="rgb(255,255,255)" stop-opacity="0.4749999940395355"></stop><stop offset="100%" stop-color="rgb(255,255,255)" stop-opacity="0.75"></stop></linearGradient><linearGradient id="__lottie_element_39" spreadMethod="pad" gradientUnits="userSpaceOnUse" x1="-115" y1="-15.5" x2="114" y2="-16.5"><stop offset="0%" stop-color="rgb(158,168,177)"></stop><stop offset="50%" stop-color="rgb(158,168,177)"></stop><stop offset="100%" stop-color="rgb(158,168,177)"></stop></linearGradient><mask id="__lottie_element_41"><path fill="url(#__lottie_element_40)" d=" M111.66799926757812,-40.83300018310547 C111.66799926757812,-40.83300018310547 57.426998138427734,-45.83300018310547 0,-45.83300018310547 C-57.428001403808594,-45.83300018310547 -111.66699981689453,-40.83300018310547 -111.66699981689453,-40.83300018310547 C-111.66699981689453,-40.83300018310547 -113.16699981689453,-28.533000946044922 -112.01899719238281,-13.144000053405762 C-110.87200164794922,2.24399995803833 -108.33300018310547,12.166999816894531 -108.33300018310547,12.166999816894531 C-108.33300018310547,12.166999816894531 -90.08300018310547,22.16699981689453 -76.41699981689453,30.5 C-62.75,38.83399963378906 -44.3489990234375,45.83399963378906 -35.54999923706055,45.5 C-26.75,45.16699981689453 -20.698999404907227,28.527000427246094 -14.75,13.166999816894531 C-9.112000465393066,-1.3930000066757202 0,-0.5 0,-0.5 C0,-0.5 9.112000465393066,-1.3930000066757202 14.75,13.166999816894531 C20.698999404907227,28.527000427246094 26.750999450683594,45.16699981689453 35.55099868774414,45.5 C44.35100173950195,45.83399963378906 62.750999450683594,38.83399963378906 76.41799926757812,30.5 C90.08499908447266,22.16699981689453 108.33499908447266,12.166999816894531 108.33499908447266,12.166999816894531 C108.33499908447266,12.166999816894531 110.87300109863281,3.24399995803833 112.02100372314453,-12.144000053405762 C113.16799926757812,-27.533000946044922 111.66799926757812,-40.83300018310547 111.66799926757812,-40.83300018310547z"></path></mask><linearGradient id="__lottie_element_40" spreadMethod="pad" gradientUnits="userSpaceOnUse" x1="-115" y1="-15.5" x2="114" y2="-16.5"><stop stop-color="rgb(255,255,255)" offset="0%" stop-opacity="0.75"></stop><stop stop-color="rgb(255,255,255)" offset="10%" stop-opacity="0.5249999761581421"></stop><stop stop-color="rgb(255,255,255)" offset="20%" stop-opacity="0.30000001192092896"></stop><stop stop-color="rgb(255,255,255)" offset="50%" stop-opacity="0.30000001192092896"></stop><stop stop-color="rgb(255,255,255)" offset="80%" stop-opacity="0.30000001192092896"></stop><stop stop-color="rgb(255,255,255)" offset="90%" stop-opacity="0.5249999761581421"></stop><stop stop-color="rgb(255,255,255)" offset="100%" stop-opacity="0.75"></stop></linearGradient><linearGradient id="__lottie_element_45" spreadMethod="pad" gradientUnits="userSpaceOnUse" x1="-28.305999755859375" y1="-101.7040023803711" x2="-4.560999870300293" y2="-18.4689998626709"><stop offset="0%" stop-color="rgb(219,110,0)" stop-opacity="1"></stop><stop offset="39%" stop-color="rgb(219,110,0)" stop-opacity="0.5"></stop><stop offset="71%" stop-color="rgb(219,110,0)" stop-opacity="0"></stop></linearGradient><linearGradient id="__lottie_element_46" spreadMethod="pad" gradientUnits="userSpaceOnUse" x1="0.057999998331069946" y1="-113.7699966430664" x2="-1.218000054359436" y2="98.91000366210938"><stop offset="6%" stop-color="rgb(255,216,0)" stop-opacity="0"></stop><stop offset="15%" stop-color="rgb(255,216,0)" stop-opacity="0.5"></stop><stop offset="50%" stop-color="rgb(255,216,0)" stop-opacity="1"></stop><stop offset="89%" stop-color="rgb(255,216,0)" stop-opacity="0.5"></stop><stop offset="100%" stop-color="rgb(255,216,0)" stop-opacity="0"></stop></linearGradient><linearGradient id="__lottie_element_47" spreadMethod="pad" gradientUnits="userSpaceOnUse" x1="-7.111000061035156" y1="-7.998000144958496" x2="9.739999771118164" y2="12.17199993133545"><stop offset="0%" stop-color="rgb(66,0,0)"></stop><stop offset="38%" stop-color="rgb(118,40,0)"></stop><stop offset="100%" stop-color="rgb(170,80,0)"></stop></linearGradient><radialGradient id="__lottie_element_48" spreadMethod="pad" gradientUnits="userSpaceOnUse" cx="-0.17299999296665192" cy="-0.19599999487400055" r="9.42800010740757" fx="-0.17299999296665192" fy="-0.19599999487400055"><stop offset="0%" stop-color="rgb(246,175,0)" stop-opacity="1"></stop><stop offset="52%" stop-color="rgb(246,175,0)" stop-opacity="0.5"></stop><stop offset="100%" stop-color="rgb(246,175,0)" stop-opacity="0"></stop></radialGradient><linearGradient id="__lottie_element_49" spreadMethod="pad" gradientUnits="userSpaceOnUse" x1="-5.186999797821045" y1="-6.998000144958496" x2="7.514999866485596" y2="11.704000473022461"><stop offset="0%" stop-color="rgb(66,0,0)"></stop><stop offset="38%" stop-color="rgb(118,40,0)"></stop><stop offset="100%" stop-color="rgb(170,80,0)"></stop></linearGradient><radialGradient id="__lottie_element_50" spreadMethod="pad" gradientUnits="userSpaceOnUse" cx="-0.17900000512599945" cy="-0.21400000154972076" r="9.42799960076809" fx="-0.17900000512599945" fy="-0.21400000154972076"><stop offset="0%" stop-color="rgb(246,175,0)" stop-opacity="1"></stop><stop offset="52%" stop-color="rgb(246,175,0)" stop-opacity="0.5"></stop><stop offset="100%" stop-color="rgb(246,175,0)" stop-opacity="0"></stop></radialGradient><radialGradient id="__lottie_element_51" spreadMethod="pad" gradientUnits="userSpaceOnUse" cx="-0.902999997138977" cy="-0.5789999961853027" r="24.389000058174133" fx="-0.902999997138977" fy="-0.5789999961853027"><stop offset="10%" stop-color="rgb(219,110,0)" stop-opacity="1"></stop><stop offset="67%" stop-color="rgb(219,110,0)" stop-opacity="0.5"></stop><stop offset="100%" stop-color="rgb(219,110,0)" stop-opacity="0"></stop></radialGradient><radialGradient id="__lottie_element_52" spreadMethod="pad" gradientUnits="userSpaceOnUse" cx="-0.5289999842643738" cy="-0.1979999989271164" r="32.16899937391281" fx="-0.5289999842643738" fy="-0.1979999989271164"><stop offset="0%" stop-color="rgb(255,255,254)" stop-opacity="1"></stop><stop offset="63%" stop-color="rgb(255,255,254)" stop-opacity="0.5"></stop><stop offset="100%" stop-color="rgb(255,255,254)" stop-opacity="0"></stop></radialGradient><linearGradient id="__lottie_element_53" spreadMethod="pad" gradientUnits="userSpaceOnUse" x1="-0.5289999842643738" y1="14.770000457763672" x2="-0.5289999842643738" y2="-14.340999603271484"><stop offset="0%" stop-color="rgb(255,168,0)" stop-opacity="1"></stop><stop offset="66%" stop-color="rgb(255,168,0)" stop-opacity="0.5"></stop><stop offset="100%" stop-color="rgb(255,168,0)" stop-opacity="0"></stop></linearGradient><linearGradient id="__lottie_element_54" spreadMethod="pad" gradientUnits="userSpaceOnUse" x1="-0.5289999842643738" y1="9.281000137329102" x2="-0.5289999842643738" y2="-4.0289998054504395"><stop offset="0%" stop-color="rgb(88,11,14)" stop-opacity="0"></stop><stop offset="36%" stop-color="rgb(88,11,14)" stop-opacity="0.5"></stop><stop offset="80%" stop-color="rgb(88,11,14)" stop-opacity="1"></stop></linearGradient><radialGradient id="__lottie_element_55" spreadMethod="pad" gradientUnits="userSpaceOnUse" cx="-0.5289999842643738" cy="1.5759999752044678" r="52.9469992518425" fx="-0.5289999842643738" fy="1.5759999752044678"><stop offset="53%" stop-color="rgb(255,169,0)" stop-opacity="0"></stop><stop offset="73%" stop-color="rgb(255,169,0)" stop-opacity="0.5"></stop><stop offset="90%" stop-color="rgb(255,169,0)" stop-opacity="1"></stop></radialGradient><linearGradient id="__lottie_element_56" spreadMethod="pad" gradientUnits="userSpaceOnUse" x1="-0.5289999842643738" y1="4.866000175476074" x2="-0.5289999842643738" y2="-5.145999908447266"><stop offset="23%" stop-color="rgb(163,65,0)" stop-opacity="1"></stop><stop offset="64%" stop-color="rgb(163,65,0)" stop-opacity="0.6499999761581421"></stop><stop offset="97%" stop-color="rgb(163,65,0)" stop-opacity="0.30000001192092896"></stop></linearGradient><linearGradient id="__lottie_element_57" spreadMethod="pad" gradientUnits="userSpaceOnUse" x1="-0.9419999718666077" y1="-4.822000026702881" x2="-1.2289999723434448" y2="19.209999084472656"><stop offset="0%" stop-color="rgb(255,168,0)" stop-opacity="1"></stop><stop offset="66%" stop-color="rgb(255,168,0)" stop-opacity="0.5"></stop><stop offset="100%" stop-color="rgb(255,168,0)" stop-opacity="0"></stop></linearGradient><linearGradient id="__lottie_element_58" spreadMethod="pad" gradientUnits="userSpaceOnUse" x1="0.057999998331069946" y1="16.430999755859375" x2="-1.187000036239624" y2="-5.9730000495910645"><stop offset="11%" stop-color="rgb(219,110,0)" stop-opacity="1"></stop><stop offset="51%" stop-color="rgb(219,110,0)" stop-opacity="0.5"></stop><stop offset="80%" stop-color="rgb(219,110,0)" stop-opacity="0"></stop></linearGradient><radialGradient id="__lottie_element_59" spreadMethod="pad" gradientUnits="userSpaceOnUse" cx="-0.9419999718666077" cy="-6.882999897003174" r="26.38299995660782" fx="-0.9419999718666077" fy="-6.882999897003174"><stop offset="37%" stop-color="rgb(255,168,0)" stop-opacity="0"></stop><stop offset="75%" stop-color="rgb(255,168,0)" stop-opacity="0.5"></stop><stop offset="100%" stop-color="rgb(255,168,0)" stop-opacity="1"></stop></radialGradient><linearGradient id="__lottie_element_60" spreadMethod="pad" gradientUnits="userSpaceOnUse" x1="-0.9419999718666077" y1="-10.743000030517578" x2="-0.5590000152587891" y2="6.203999996185303"><stop offset="0%" stop-color="rgb(255,255,254)" stop-opacity="1"></stop><stop offset="50%" stop-color="rgb(255,255,254)" stop-opacity="0.5"></stop><stop offset="100%" stop-color="rgb(255,255,254)" stop-opacity="0"></stop></linearGradient><linearGradient id="__lottie_element_61" spreadMethod="pad" gradientUnits="userSpaceOnUse" x1="1.9869999885559082" y1="-38.20000076293945" x2="-2.2249999046325684" y2="51.034000396728516"><stop offset="11%" stop-color="rgb(255,169,0)" stop-opacity="0"></stop><stop offset="48%" stop-color="rgb(255,169,0)" stop-opacity="0.5"></stop><stop offset="100%" stop-color="rgb(255,169,0)" stop-opacity="1"></stop></linearGradient><linearGradient id="__lottie_element_62" spreadMethod="pad" gradientUnits="userSpaceOnUse" x1="-0.492000013589859" y1="71.2040023803711" x2="-0.10899999737739563" y2="-85.0510025024414"><stop offset="8%" stop-color="rgb(218,110,0)" stop-opacity="0.30000001192092896"></stop><stop offset="27%" stop-color="rgb(218,110,0)" stop-opacity="0.6499999761581421"></stop><stop offset="46%" stop-color="rgb(218,110,0)" stop-opacity="1"></stop><stop offset="59%" stop-color="rgb(218,110,0)" stop-opacity="0.5"></stop><stop offset="79%" stop-color="rgb(218,110,0)" stop-opacity="0"></stop></linearGradient><linearGradient id="__lottie_element_63" spreadMethod="pad" gradientUnits="userSpaceOnUse" x1="-16.7810001373291" y1="-25.24799919128418" x2="5.048999786376953" y2="14.199000358581543"><stop offset="0%" stop-color="rgb(255,255,255)" stop-opacity="1"></stop><stop offset="50%" stop-color="rgb(255,255,255)" stop-opacity="0.5"></stop><stop offset="100%" stop-color="rgb(255,255,255)" stop-opacity="0"></stop></linearGradient><linearGradient id="__lottie_element_64" spreadMethod="pad" gradientUnits="userSpaceOnUse" x1="-6.499000072479248" y1="-32.584999084472656" x2="5.756999969482422" y2="30.98900032043457"><stop offset="0%" stop-color="rgb(255,255,255)" stop-opacity="1"></stop><stop offset="50%" stop-color="rgb(255,255,255)" stop-opacity="0.5"></stop><stop offset="100%" stop-color="rgb(255,255,255)" stop-opacity="0"></stop></linearGradient><linearGradient id="__lottie_element_65" spreadMethod="pad" gradientUnits="userSpaceOnUse" x1="-0.9539999961853027" y1="-5.363999843597412" x2="-0.4749999940395355" y2="4.210999965667725"><stop offset="0%" stop-color="rgb(255,255,255)" stop-opacity="1"></stop><stop offset="58%" stop-color="rgb(255,255,255)" stop-opacity="0.5"></stop><stop offset="100%" stop-color="rgb(255,255,255)" stop-opacity="0"></stop></linearGradient><linearGradient id="__lottie_element_66" spreadMethod="pad" gradientUnits="userSpaceOnUse" x1="-0.878000020980835" y1="-5.363999843597412" x2="-0.734000027179718" y2="3.2049999237060547"><stop offset="0%" stop-color="rgb(255,255,255)" stop-opacity="1"></stop><stop offset="58%" stop-color="rgb(255,255,255)" stop-opacity="0.5"></stop><stop offset="100%" stop-color="rgb(255,255,255)" stop-opacity="0"></stop></linearGradient><linearGradient id="__lottie_element_70" spreadMethod="pad" gradientUnits="userSpaceOnUse" x1="-3" y1="-31.5" x2="-1.5" y2="24.5"><stop offset="0%" stop-color="rgb(103,149,255)"></stop><stop offset="50%" stop-color="rgb(93,143,229)"></stop><stop offset="100%" stop-color="rgb(83,137,203)"></stop></linearGradient><linearGradient id="__lottie_element_71" spreadMethod="pad" gradientUnits="userSpaceOnUse" x1="0" y1="52.5" x2="-11.5" y2="-39.5"><stop offset="0%" stop-color="rgb(241,245,245)"></stop><stop offset="50%" stop-color="rgb(219,222,223)"></stop><stop offset="100%" stop-color="rgb(197,199,202)"></stop></linearGradient><linearGradient id="__lottie_element_72" spreadMethod="pad" gradientUnits="userSpaceOnUse" x1="23.5" y1="49.5" x2="-10" y2="-44.5"><stop offset="0%" stop-color="rgb(246,249,254)"></stop><stop offset="35%" stop-color="rgb(234,237,238)"></stop><stop offset="70%" stop-color="rgb(222,225,223)"></stop><stop offset="85%" stop-color="rgb(194,197,200)"></stop><stop offset="100%" stop-color="rgb(166,170,178)"></stop></linearGradient><linearGradient id="__lottie_element_73" spreadMethod="pad" gradientUnits="userSpaceOnUse" x1="8" y1="52" x2="23.5" y2="-35.5"><stop offset="0%" stop-color="rgb(187,189,188)"></stop><stop offset="19%" stop-color="rgb(203,202,201)"></stop><stop offset="37%" stop-color="rgb(220,216,213)"></stop><stop offset="69%" stop-color="rgb(209,208,208)"></stop><stop offset="100%" stop-color="rgb(197,199,202)"></stop></linearGradient><linearGradient id="__lottie_element_74" spreadMethod="pad" gradientUnits="userSpaceOnUse" x1="23.5" y1="49.5" x2="-10" y2="-44.5"><stop offset="0%" stop-color="rgb(246,249,254)"></stop><stop offset="35%" stop-color="rgb(234,237,238)"></stop><stop offset="70%" stop-color="rgb(222,225,223)"></stop><stop offset="85%" stop-color="rgb(194,197,200)"></stop><stop offset="100%" stop-color="rgb(166,170,178)"></stop></linearGradient><radialGradient id="__lottie_element_78" spreadMethod="pad" gradientUnits="userSpaceOnUse" cx="-0.7599999904632568" cy="52.91999816894531" r="56.77800077925188" fx="-0.7599999904632568" fy="52.91999816894531"><stop offset="19%" stop-color="rgb(255,163,0)" stop-opacity="1"></stop><stop offset="66%" stop-color="rgb(255,163,0)" stop-opacity="0.5"></stop><stop offset="99%" stop-color="rgb(255,163,0)" stop-opacity="0"></stop></radialGradient><linearGradient id="__lottie_element_79" spreadMethod="pad" gradientUnits="userSpaceOnUse" x1="252.5" y1="355.5" x2="252.5" y2="422.5"><stop offset="0%" stop-color="rgb(181,102,6)"></stop><stop offset="59%" stop-color="rgb(181,102,6)"></stop><stop offset="100%" stop-color="rgb(181,102,6)"></stop></linearGradient><mask id="__lottie_element_81"><path fill="url(#__lottie_element_80)" d=" M286,352 C286,352 215.5,355 215.5,355 C215.5,355 222,418 222,418 C222,418 240.5,417 240.5,417 C240.5,417 264,414 264,414 C264,414 287,412 287,412 C287,412 286,352 286,352z"></path></mask><linearGradient id="__lottie_element_80" spreadMethod="pad" gradientUnits="userSpaceOnUse" x1="252.5" y1="355.5" x2="252.5" y2="422.5"><stop stop-color="rgb(255,255,255)" offset="0%" stop-opacity="0.699999988079071"></stop><stop stop-color="rgb(255,255,255)" offset="58%" stop-opacity="0.3499999940395355"></stop><stop stop-color="rgb(255,255,255)" offset="99%" stop-opacity="0"></stop></linearGradient></defs><g clip-path="url(#__lottie_element_2)"><g style="display: block;" transform="matrix(1,0,0,1,16.000015258789062,2)" opacity="1"><g opacity="1" transform="matrix(1,0,0,1,251.50999450683594,369.885009765625)"><path fill="rgb(192,98,0)" fill-opacity="1" d=" M40.07600021362305,-28.299999237060547 C40.07600021362305,-28.299999237060547 0,-25.256999969482422 0,-25.256999969482422 C0,-25.256999969482422 -40.07600021362305,-28.299999237060547 -40.07600021362305,-28.299999237060547 C-40.07600021362305,-28.299999237060547 -41,42.755001068115234 -41,42.755001068115234 C-41,42.755001068115234 -23.14299964904785,49.54999923706055 0.06199999898672104,49.54999923706055 C23.267000198364258,49.54999923706055 41.124000549316406,42.755001068115234 41.124000549316406,42.755001068115234 C41.124000549316406,42.755001068115234 40.07600021362305,-28.299999237060547 40.07600021362305,-28.299999237060547z"></path></g><g opacity="1" transform="matrix(1,0,0,1,251.50999450683594,369.885009765625)"><path fill="url(#__lottie_element_78)" fill-opacity="1" d=" M40.07600021362305,-28.299999237060547 C40.07600021362305,-28.299999237060547 0,-25.256999969482422 0,-25.256999969482422 C0,-25.256999969482422 -40.07600021362305,-28.299999237060547 -40.07600021362305,-28.299999237060547 C-40.07600021362305,-28.299999237060547 -41,42.755001068115234 -41,42.755001068115234 C-41,42.755001068115234 -23.14299964904785,49.54999923706055 0.06199999898672104,49.54999923706055 C23.267000198364258,49.54999923706055 41.124000549316406,42.755001068115234 41.124000549316406,42.755001068115234 C41.124000549316406,42.755001068115234 40.07600021362305,-28.299999237060547 40.07600021362305,-28.299999237060547z"></path></g><g opacity="1" transform="matrix(1,0,0,1,251.50999450683594,362.48699951171875)"><path stroke-linecap="round" stroke-linejoin="round" fill-opacity="0" stroke="rgb(163,65,0)" stroke-opacity="1" stroke-width="8" d=" M41.124000549316406,42.152000427246094 C41.124000549316406,42.152000427246094 40.07600021362305,-20.902000427246094 40.07600021362305,-20.902000427246094 C40.07600021362305,-20.902000427246094 0,-17.858999252319336 0,-17.858999252319336 C0,-17.858999252319336 -40.07600021362305,-20.902000427246094 -40.07600021362305,-20.902000427246094 C-40.07600021362305,-20.902000427246094 -41,42.152000427246094 -41,42.152000427246094"></path></g><g opacity="1" transform="matrix(1,0,0,1,0,0)"><path fill="url(#__lottie_element_79)" mask="url(#__lottie_element_81)" fill-opacity="1" d="M0 0 M286,352 C286,352 215.5,355 215.5,355 C215.5,355 222,418 222,418 C222,418 240.5,417 240.5,417 C240.5,417 264,414 264,414 C264,414 287,412 287,412 C287,412 286,352 286,352z"></path></g></g><g style="display: block;" transform="matrix(1,0,0,1,5.5,0)" opacity="1"><g opacity="1" transform="matrix(1,0,0,1,0,0)"><g opacity="1" transform="matrix(1,0,0,1,-11.5,0)"><g opacity="1" transform="matrix(1,0,0,1,272.7510070800781,432.0790100097656)"><path fill="url(#__lottie_element_70)" fill-opacity="1" d=" M-31.009000778198242,-28.260000228881836 C-31.009000778198242,-28.260000228881836 -16.44700050354004,-23.823999404907227 -0.22300000488758087,-24.281999588012695 C16.000999450683594,-24.739999771118164 31.009000778198242,-28.260000228881836 31.009000778198242,-28.260000228881836 C31.009000778198242,-28.260000228881836 20.158000946044922,26.409000396728516 -0.22300000488758087,27.334999084472656 C-20.604000091552734,28.26099967956543 -31.009000778198242,-28.260000228881836 -31.009000778198242,-28.260000228881836z"></path><path stroke-linecap="butt" stroke-linejoin="miter" fill-opacity="0" stroke-miterlimit="4" stroke="rgb(24,73,162)" stroke-opacity="1" stroke-width="8" d=" M-31.009000778198242,-28.260000228881836 C-31.009000778198242,-28.260000228881836 -16.44700050354004,-23.823999404907227 -0.22300000488758087,-24.281999588012695 C16.000999450683594,-24.739999771118164 31.009000778198242,-28.260000228881836 31.009000778198242,-28.260000228881836 C31.009000778198242,-28.260000228881836 20.158000946044922,26.409000396728516 -0.22300000488758087,27.334999084472656 C-20.604000091552734,28.26099967956543 -31.009000778198242,-28.260000228881836 -31.009000778198242,-28.260000228881836z"></path></g></g></g><g opacity="1" transform="matrix(1,0,0,1,0,0)"><g opacity="1" transform="matrix(1,0,0,1,-11.5,0)"><g opacity="1" transform="matrix(1,0,0,1,197.9499969482422,421.364990234375)"><path fill="url(#__lottie_element_71)" fill-opacity="1" d=" M27.202999114990234,-54.029998779296875 C27.202999114990234,-54.029998779296875 15.883999824523926,-49.46099853515625 -17.115999221801758,-38.46099853515625 C-50.11600112915039,-27.461000442504883 -57.45000076293945,-17.12700080871582 -57.45000076293945,-17.12700080871582 C-57.45000076293945,-17.12700080871582 -62.11600112915039,-15.461000442504883 -65.44999694824219,-10.461000442504883 C-67.52999877929688,-7.340000152587891 -73.24800109863281,17.011999130249023 -77.2509994506836,34.874000549316406 C-69.19999694824219,54.1349983215332 -46.95000076293945,54.529998779296875 -46.95000076293945,54.529998779296875 C-46.95000076293945,54.529998779296875 81.44999694824219,54.029998779296875 81.44999694824219,54.029998779296875 C81.44999694824219,54.029998779296875 81.44999694824219,44.8849983215332 81.44999694824219,44.8849983215332 C81.44999694824219,44.8849983215332 67.98999786376953,28.533000946044922 49.637001037597656,-0.9990000128746033 C31.284000396728516,-30.531999588012695 27.202999114990234,-54.029998779296875 27.202999114990234,-54.029998779296875z"></path></g></g><g opacity="1" transform="matrix(1,0,0,1,-11.5,0)"><g opacity="1" transform="matrix(1,0,0,1,197.9499969482422,421.364990234375)"><path stroke-linecap="round" stroke-linejoin="round" fill-opacity="0" stroke="rgb(152,152,152)" stroke-opacity="1" stroke-width="8" d=" M81.44999694824219,49.779998779296875 C81.44999694824219,49.779998779296875 81.44999694824219,44.8849983215332 81.44999694824219,44.8849983215332 C81.44999694824219,44.8849983215332 67.98999786376953,28.533000946044922 49.637001037597656,-0.9990000128746033 C31.284000396728516,-30.531999588012695 27.202999114990234,-54.029998779296875 27.202999114990234,-54.029998779296875 C27.202999114990234,-54.029998779296875 15.883999824523926,-49.46099853515625 -17.115999221801758,-38.46099853515625 C-50.11600112915039,-27.461000442504883 -57.45000076293945,-17.12700080871582 -57.45000076293945,-17.12700080871582 C-57.45000076293945,-17.12700080871582 -62.11600112915039,-15.461000442504883 -65.44999694824219,-10.461000442504883 C-67.52999877929688,-7.340000152587891 -72.49800109863281,13.76200008392334 -76.5009994506836,31.624000549316406"></path></g></g><g opacity="1" transform="matrix(1,0,0,1,0,0)"><g opacity="0.35000000000000003" transform="matrix(1,0,0,1,-11.5,0)"><g opacity="1" transform="matrix(1,0,0,1,0,0)"><path fill="rgb(255,255,255)" fill-opacity="1" d=" M201.5,380.25 C201.5,380.25 187,383.5 172.5,390 C158,396.5 145.625,404.375 145.625,404.375 C145.625,404.375 140.01400756835938,408.40301513671875 137.1320037841797,411.7640075683594 C134.25,415.125 131.4600067138672,431.0849914550781 131.4600067138672,431.0849914550781 C131.4600067138672,431.0849914550781 138,417.625 138,417.625 C138,417.625 140.36500549316406,431.4020080566406 143.27699279785156,444.56298828125 C146.25,458 150.0229949951172,469.3320007324219 152.45899963378906,474.65399169921875 C153.48500061035156,476.8949890136719 154.9290008544922,475.7359924316406 155.06700134277344,475.5119934082031 C155.4409942626953,474.9049987792969 150.21200561523438,460.04901123046875 146.781005859375,443.9670104980469 C143.68099975585938,429.43499755859375 142.3470001220703,413.51300048828125 142.59300231933594,413.197998046875 C147.625,406.75 163.34800720214844,400.39801025390625 173,396.5 C186,391.25 197.375,388 197.375,388 C197.375,388 201.5,380.25 201.5,380.25z"></path></g></g></g><g opacity="0.25" transform="matrix(1,0,0,1,0,0)"><path fill="rgb(114,114,114)" fill-opacity="1" d=" M185.75,388.25 C185.75,388.25 178.25,400.5 181.5,403 C184.75,405.5 195.75,412.25 195.75,412.25 C195.75,412.25 185.5,428 189.75,431.75 C194,435.5 210.3979949951172,449.1080017089844 235.07400512695312,459.1789855957031 C234.75,461.75 231.5,475.125 231.5,475.125 C231.5,475.125 259.5,475.81201171875 259.5,475.81201171875 C259.5,475.81201171875 267.5,453 267.5,453 C267.5,453 209.75,395 209.75,395 C209.75,395 185.75,388.25 185.75,388.25z"></path></g><g opacity="1" transform="matrix(1,0,0,1,-11.5,0)"><g opacity="1" transform="matrix(1,0,0,1,235.38900756835938,407.8280029296875)"><path fill="url(#__lottie_element_72)" fill-opacity="1" d=" M-8.73900032043457,-49.077999114990234 C-8.73900032043457,-49.077999114990234 -19.23900032043457,-44.15800094604492 -26.98900032043457,-34.24300003051758 C-34.73899841308594,-24.327999114990234 -36.73899841308594,-13.32800006866455 -36.73899841308594,-13.32800006866455 C-36.73899841308594,-13.32800006866455 -16.98900032043457,-4.008999824523926 -16.98900032043457,-4.008999824523926 C-16.98900032043457,-4.008999824523926 -26.73900032043457,19.172000885009766 -26.73900032043457,19.172000885009766 C-26.73900032043457,19.172000885009766 2.0250000953674316,34.928001403808594 12.277999877929688,39.172000885009766 C23.218000411987305,43.70100021362305 36.73899841308594,49.077999114990234 36.354000091552734,48.922000885009766 C36.354000091552734,48.922000885009766 22.51099967956543,27.672000885009766 9.51099967956543,1.6720000505447388 C-3.489000082015991,-24.327999114990234 -8.73900032043457,-49.077999114990234 -8.73900032043457,-49.077999114990234z"></path><path stroke-linecap="round" stroke-linejoin="round" fill-opacity="0" stroke="rgb(152,152,152)" stroke-opacity="1" stroke-width="8" d=" M-8.73900032043457,-49.077999114990234 C-8.73900032043457,-49.077999114990234 -19.23900032043457,-44.15800094604492 -26.98900032043457,-34.24300003051758 C-34.73899841308594,-24.327999114990234 -36.73899841308594,-13.32800006866455 -36.73899841308594,-13.32800006866455 C-36.73899841308594,-13.32800006866455 -16.98900032043457,-4.008999824523926 -16.98900032043457,-4.008999824523926 C-16.98900032043457,-4.008999824523926 -26.73900032043457,19.172000885009766 -26.73900032043457,19.172000885009766 C-26.73900032043457,19.172000885009766 2.0250000953674316,34.928001403808594 12.277999877929688,39.172000885009766 C23.218000411987305,43.70100021362305 36.73899841308594,49.077999114990234 36.354000091552734,48.922000885009766 C36.354000091552734,48.922000885009766 22.51099967956543,27.672000885009766 9.51099967956543,1.6720000505447388 C-3.489000082015991,-24.327999114990234 -8.73900032043457,-49.077999114990234 -8.73900032043457,-49.077999114990234z"></path></g></g></g><g opacity="1" transform="matrix(1,0,0,1,0,0)"><g opacity="1" transform="matrix(1,0,0,1,-11.5,0)"><g opacity="1" transform="matrix(1,0,0,1,344.95001220703125,421.864990234375)"><path fill="url(#__lottie_element_73)" fill-opacity="1" d=" M-27.202999114990234,-54.029998779296875 C-27.202999114990234,-54.029998779296875 -15.883999824523926,-49.46099853515625 17.115999221801758,-38.46099853515625 C50.11600112915039,-27.461000442504883 57.45000076293945,-17.12700080871582 57.45000076293945,-17.12700080871582 C57.45000076293945,-17.12700080871582 62.11600112915039,-15.461000442504883 65.44999694824219,-10.461000442504883 C68.78299713134766,-5.460999965667725 76.19999694824219,29.280000686645508 76.19999694824219,29.280000686645508 C76.19999694824219,29.280000686645508 69.67500305175781,53.95500183105469 45.04999923706055,54.060001373291016 C20.424999237060547,54.165000915527344 -81.44999694824219,54.029998779296875 -81.44999694824219,54.029998779296875 C-81.44999694824219,54.029998779296875 -81.44999694824219,44.8849983215332 -81.44999694824219,44.8849983215332 C-81.44999694824219,44.8849983215332 -67.98999786376953,28.533000946044922 -49.637001037597656,-0.9990000128746033 C-31.284000396728516,-30.531999588012695 -27.202999114990234,-54.029998779296875 -27.202999114990234,-54.029998779296875z"></path></g><g opacity="1" transform="matrix(1,0,0,1,344.95001220703125,421.864990234375)"><path stroke-linecap="round" stroke-linejoin="round" fill-opacity="0" stroke="rgb(152,152,152)" stroke-opacity="1" stroke-width="8" d=" M-81.44999694824219,50.279998779296875 C-81.44999694824219,50.279998779296875 -81.44999694824219,44.8849983215332 -81.44999694824219,44.8849983215332 C-81.44999694824219,44.8849983215332 -67.98999786376953,28.533000946044922 -49.637001037597656,-0.9990000128746033 C-31.284000396728516,-30.531999588012695 -27.202999114990234,-54.029998779296875 -27.202999114990234,-54.029998779296875 C-27.202999114990234,-54.029998779296875 -15.883999824523926,-49.46099853515625 17.115999221801758,-38.46099853515625 C50.11600112915039,-27.461000442504883 57.45000076293945,-17.12700080871582 57.45000076293945,-17.12700080871582 C57.45000076293945,-17.12700080871582 62.11600112915039,-15.461000442504883 65.44999694824219,-10.461000442504883 C68.78299713134766,-5.460999965667725 74.94999694824219,25.280000686645508 74.94999694824219,25.280000686645508"></path></g></g><g opacity="1" transform="matrix(1,0,0,1,0,0)"><g opacity="0.35000000000000003" transform="matrix(1,0,0,1,-11.5,0)"><g opacity="1" transform="matrix(1,0,0,1,0,0)"><path fill="rgb(255,255,255)" fill-opacity="1" d=" M335.25,379 C335.25,379 331.25,386.75 331.25,386.75 C331.25,386.75 353.5,391 366.5,395.5 C379.5,400 396.75,410.5 396.75,410.5 C396.75,410.5 397,405 397,405 C397,405 383.5,395 367.75,389.75 C352,384.5 335.25,379 335.25,379z"></path></g></g></g><g opacity="1" transform="matrix(1,0,0,1,-11.5,0)"><g opacity="0.35000000000000003" transform="matrix(1,0,0,1,0,0)"><path fill="rgb(115,115,115)" fill-opacity="1" d=" M318.75,388.75 C318.75,388.75 304.5,424.75 294.5,436.5 C284.5,448.25 268.5,464.75 268.5,464.75 C268.5,464.75 266.875,474.75 266.875,474.75 C266.875,474.75 276,475 276,475 C276,475 276.75,471.5 276.75,471.5 C276.75,471.5 293.5,463.25 304.25,457.75 C315,452.25 343,436.25 345.75,431.75 C348.5,427.25 338.5,408.75 338.5,408.75 C338.5,408.75 348,402.5 350.75,401.25 C353.5,400 348,392.5 348,392.5 C348,392.5 318.75,388.75 318.75,388.75z"></path></g><g opacity="1" transform="matrix(1,0,0,1,305.875,412.75)"><path fill="url(#__lottie_element_74)" fill-opacity="1" d=" M14.375,-54 C14.375,-54 24.375,-48.83000183105469 32.125,-38.915000915527344 C39.875,-29 42.375,-18.25 42.375,-18.25 C42.375,-18.25 22.625,-8.930999755859375 22.625,-8.930999755859375 C22.625,-8.930999755859375 32.375,14.25 32.375,14.25 C32.375,14.25 -0.625,35.25 -10.875,39.5 C-21.125,43.75 -42.375,54 -42.375,54 C-42.375,54 -16.875,22.75 -3.875,-3.25 C9.125,-29.25 14.375,-54 14.375,-54z"></path><path stroke-linecap="round" stroke-linejoin="round" fill-opacity="0" stroke="rgb(152,152,152)" stroke-opacity="1" stroke-width="8" d=" M14.375,-54 C14.375,-54 24.375,-48.83000183105469 32.125,-38.915000915527344 C39.875,-29 42.375,-18.25 42.375,-18.25 C42.375,-18.25 22.625,-8.930999755859375 22.625,-8.930999755859375 C22.625,-8.930999755859375 32.375,14.25 32.375,14.25 C32.375,14.25 -0.625,35.25 -10.875,39.5 C-21.125,43.75 -42.375,54 -42.375,54 C-42.375,54 -16.875,22.75 -3.875,-3.25 C9.125,-29.25 14.375,-54 14.375,-54z"></path></g></g></g></g><g style="display: block;" transform="matrix(1,0,0,1,15.749984741210938,1.75)" opacity="1"><g opacity="1" transform="matrix(1,0,0,1,0,0)"><g opacity="1" transform="matrix(1,0,0,1,0,0)"><g opacity="1" transform="matrix(1,0,0,1,138.45799255371094,241.04100036621094)"><path fill="rgb(255,168,0)" fill-opacity="1" d=" M3.6630001068115234,-31.18199920654297 C3.6630001068115234,-31.18199920654297 -6.739999771118164,-38.25299835205078 -12.208999633789062,-28.777000427246094 C-17.211999893188477,-20.108999252319336 -7.6519999504089355,24.70199966430664 1.1799999475479126,31.9689998626709 C6.61299991607666,36.439998626708984 12.494999885559082,30.924999237060547 12.494999885559082,30.924999237060547 C16.077999114990234,28.472999572753906 10.262999534606934,-22.19300079345703 3.6630001068115234,-31.18199920654297z"></path><path stroke-linecap="round" stroke-linejoin="round" fill-opacity="0" stroke="rgb(219,110,0)" stroke-opacity="1" stroke-width="8" d=" M3.6630001068115234,-31.18199920654297 C3.6630001068115234,-31.18199920654297 -6.739999771118164,-38.25299835205078 -12.208999633789062,-28.777000427246094 C-17.211999893188477,-20.108999252319336 -7.6519999504089355,24.70199966430664 1.1799999475479126,31.9689998626709 C6.61299991607666,36.439998626708984 12.494999885559082,30.924999237060547 12.494999885559082,30.924999237060547 C16.077999114990234,28.472999572753906 10.262999534606934,-22.19300079345703 3.6630001068115234,-31.18199920654297z"></path></g><g opacity="1" transform="matrix(1,0,0,1,364.60101318359375,241.04100036621094)"><path fill="rgb(255,168,0)" fill-opacity="1" d=" M-3.6630001068115234,-31.18199920654297 C-3.6630001068115234,-31.18199920654297 6.739999771118164,-38.25299835205078 12.208999633789062,-28.777000427246094 C17.211999893188477,-20.108999252319336 7.6519999504089355,24.70199966430664 -1.1799999475479126,31.9689998626709 C-6.61299991607666,36.439998626708984 -12.494999885559082,30.924999237060547 -12.494999885559082,30.924999237060547 C-16.077999114990234,28.472999572753906 -10.262999534606934,-22.19300079345703 -3.6630001068115234,-31.18199920654297z"></path><path stroke-linecap="round" stroke-linejoin="round" fill-opacity="0" stroke="rgb(219,110,0)" stroke-opacity="1" stroke-width="8" d=" M-3.6630001068115234,-31.18199920654297 C-3.6630001068115234,-31.18199920654297 6.739999771118164,-38.25299835205078 12.208999633789062,-28.777000427246094 C17.211999893188477,-20.108999252319336 7.6519999504089355,24.70199966430664 -1.1799999475479126,31.9689998626709 C-6.61299991607666,36.439998626708984 -12.494999885559082,30.924999237060547 -12.494999885559082,30.924999237060547 C-16.077999114990234,28.472999572753906 -10.262999534606934,-22.19300079345703 -3.6630001068115234,-31.18199920654297z"></path></g></g><g opacity="1" transform="matrix(1,0,0,1,0,0)"><g opacity="1" transform="matrix(1,0,0,1,251.30599975585938,222.70399475097656)"><path fill="rgb(255,168,0)" fill-opacity="1" d=" M108.3479995727539,16.783000946044922 C108.3479995727539,85.55799865722656 59.51599884033203,143.5540008544922 0.6359999775886536,143.5540008544922 C-58.24399948120117,143.5540008544922 -107.0770034790039,85.55799865722656 -107.0770034790039,16.783000946044922 C-117.91100311279297,-97.55000305175781 -57.58000183105469,-143.5540008544922 0.6359999775886536,-143.5540008544922 C57.32500076293945,-143.5540008544922 108.3479995727539,-125.61499786376953 108.3479995727539,16.783000946044922z"></path></g><g opacity="1" transform="matrix(1,0,0,1,251.30599975585938,222.70399475097656)"><path fill="url(#__lottie_element_45)" fill-opacity="1" d=" M108.3479995727539,16.783000946044922 C108.3479995727539,85.55799865722656 59.51599884033203,143.5540008544922 0.6359999775886536,143.5540008544922 C-58.24399948120117,143.5540008544922 -107.0770034790039,85.55799865722656 -107.0770034790039,16.783000946044922 C-117.91100311279297,-97.55000305175781 -57.58000183105469,-143.5540008544922 0.6359999775886536,-143.5540008544922 C57.32500076293945,-143.5540008544922 108.3479995727539,-125.61499786376953 108.3479995727539,16.783000946044922z"></path></g><g opacity="1" transform="matrix(1,0,0,1,251.30599975585938,222.70399475097656)"><path stroke-linecap="round" stroke-linejoin="round" fill-opacity="0" stroke="rgb(219,110,0)" stroke-opacity="1" stroke-width="8" d=" M108.3479995727539,16.783000946044922 C108.3479995727539,85.55799865722656 59.51599884033203,143.5540008544922 0.6359999775886536,143.5540008544922 C-58.24399948120117,143.5540008544922 -107.0770034790039,85.55799865722656 -107.0770034790039,16.783000946044922 C-117.91100311279297,-97.55000305175781 -57.58000183105469,-143.5540008544922 0.6359999775886536,-143.5540008544922 C57.32500076293945,-143.5540008544922 108.3479995727539,-125.61499786376953 108.3479995727539,16.783000946044922z"></path></g><g opacity="1" transform="matrix(1,0,0,1,251.94200134277344,246.77000427246094)"><g opacity="1" transform="matrix(1,0,0,1,0,0)"><path fill="url(#__lottie_element_46)" fill-opacity="1" d=" M97.55000305175781,-44.92900085449219 C79.0780029296875,-63.689998626708984 78.91999816894531,-80.91000366210938 78.0270004272461,-85.96900177001953 C77.84600067138672,-86.99500274658203 76.85700225830078,-87.67400360107422 75.83499908447266,-87.47000122070312 C-4.670000076293945,-71.4280014038086 -58.63999938964844,-92.06199645996094 -68.31800079345703,-99.125 C-69.44100189208984,-99.94499969482422 -71.29900360107422,-99.2969970703125 -71.24700164794922,-97.90799713134766 C-70.36799621582031,-74.60800170898438 -96.54900360107422,-49.762001037597656 -97.75199890136719,-46.334999084472656 C-97.7699966430664,-44.97700119018555 -97.81199645996094,-18.746000289916992 -97.81199645996094,-17.09000015258789 C-97.81199645996094,44.93299865722656 -53.46799850463867,99.48600006103516 0,99.48600006103516 C53.46799850463867,99.48600006103516 97.81199645996094,44.93299865722656 97.81199645996094,-17.09000015258789 C97.81199645996094,-22.551000595092773 97.57599639892578,-44.02399826049805 97.55000305175781,-44.92900085449219z"></path></g></g></g><g opacity="1" transform="matrix(1,0,0,1,0,0)"><g opacity="1" transform="matrix(1,0,0,1,305.0199890136719,185.29600524902344)"><path stroke-linecap="round" stroke-linejoin="round" fill-opacity="0" stroke="rgb(163,65,0)" stroke-opacity="1" stroke-width="13" d=" M-15.770000457763672,-1.2100000381469727 C-15.770000457763672,-1.2100000381469727 0.777999997138977,-5.0289998054504395 15.770000457763672,2.2160000801086426"></path></g><g opacity="1" transform="matrix(1,0,0,1,199.2779998779297,185.29600524902344)"><path stroke-linecap="round" stroke-linejoin="round" fill-opacity="0" stroke="rgb(163,65,0)" stroke-opacity="1" stroke-width="13" d=" M15.770000457763672,-1.2100000381469727 C15.770000457763672,-1.2100000381469727 -0.777999997138977,-5.0289998054504395 -15.770000457763672,2.2160000801086426"></path></g></g><g opacity="1" transform="matrix(1,0,0,1,0,0)"><g opacity="1" transform="matrix(1,0,0,1,0,0)"><g opacity="1" transform="matrix(1,0,0,1,304.406005859375,222.9980010986328)"><path fill="rgb(255,255,255)" fill-opacity="1" d=" M-28.073999404907227,13.859999656677246 C-28.073999404907227,13.859999656677246 -29.545000076293945,-3.056999921798706 -17.545000076293945,-14.050000190734863 C-7.236000061035156,-23.4950008392334 12.17300033569336,-22.56800079345703 21.899999618530273,-10.467000007629395 C29.820999145507812,-0.6140000224113464 27.934999465942383,10.87399959564209 27.934999465942383,10.87399959564209 C27.934999465942383,10.87399959564209 20.027000427246094,19.37700080871582 3.7960000038146973,20.30299949645996 C-16.854000091552734,21.48200035095215 -28.073999404907227,13.859999656677246 -28.073999404907227,13.859999656677246z"></path></g><g opacity="1" transform="matrix(1,0,0,1,303.1109924316406,222.9980010986328)"><path fill="url(#__lottie_element_47)" fill-opacity="1" d=" M17.68000030517578,0 C17.68000030517578,9.763999938964844 9.763999938964844,17.68000030517578 0,17.68000030517578 C-9.763999938964844,17.68000030517578 -17.68000030517578,9.763999938964844 -17.68000030517578,0 C-17.68000030517578,-9.763999938964844 -9.763999938964844,-17.68000030517578 0,-17.68000030517578 C9.763999938964844,-17.68000030517578 17.68000030517578,-9.763999938964844 17.68000030517578,0z"></path></g><g opacity="1" transform="matrix(1,0,0,1,312.1730041503906,232.21499633789062)"><g opacity="1" transform="matrix(1,0,0,1,0,0)"><path fill="url(#__lottie_element_48)" fill-opacity="1" d=" M-4.5329999923706055,7.6570000648498535 C-5.914999961853027,7.6570000648498535 -7.192999839782715,6.765999794006348 -7.622000217437744,5.375999927520752 C-8.14900016784668,3.6700000762939453 -7.191999912261963,1.8589999675750732 -5.485000133514404,1.3329999446868896 C-2.2200000286102295,0.32600000500679016 0.3790000081062317,-2.2109999656677246 1.4670000076293945,-5.452000141143799 C2.0360000133514404,-7.145999908447266 3.871999979019165,-8.055999755859375 5.560999870300293,-7.488999843597412 C7.255000114440918,-6.921000003814697 8.166000366210938,-5.086999893188477 7.5980000495910645,-3.3940000534057617 C5.848999977111816,1.815999984741211 1.6710000038146973,5.894000053405762 -3.5789999961853027,7.513000011444092 C-3.8959999084472656,7.611000061035156 -4.2179999351501465,7.6570000648498535 -4.5329999923706055,7.6570000648498535z"></path></g></g><g opacity="1" transform="matrix(1,0,0,1,303.1109924316406,222.9980010986328)"><path fill="rgb(24,19,9)" fill-opacity="1" d=" M11.173999786376953,0 C11.173999786376953,6.171000003814697 6.171000003814697,11.17300033569336 0,11.17300033569336 C-6.171000003814697,11.17300033569336 -11.173999786376953,6.171000003814697 -11.173999786376953,0 C-11.173999786376953,-6.171000003814697 -6.171000003814697,-11.17300033569336 0,-11.17300033569336 C6.171000003814697,-11.17300033569336 11.173999786376953,-6.171000003814697 11.173999786376953,0z"></path></g><g opacity="1" transform="matrix(1,0,0,1,304.4590148925781,218.9080047607422)"><path fill="rgb(175,57,0)" fill-opacity="1" d=" M-28.12700080871582,17.950000762939453 C-30.40999984741211,0.08699999749660492 -18.863000869750977,-18.216999053955078 0.367000013589859,-17.94700050354004 C17.656999588012695,-17.70400047302246 31.31100082397461,-2.378999948501587 27.881999969482422,14.96500015258789 C28.256000518798828,-1.1380000114440918 16.363000869750977,-14.869000434875488 -0.1469999998807907,-14.67199993133545 C-17.8799991607666,-14.460000038146973 -27.46299934387207,1.753000020980835 -28.12700080871582,17.950000762939453z"></path><path stroke-linecap="round" stroke-linejoin="round" fill-opacity="0" stroke="rgb(175,57,0)" stroke-opacity="1" stroke-width="2" d=" M-28.12700080871582,17.950000762939453 C-30.40999984741211,0.08699999749660492 -18.863000869750977,-18.216999053955078 0.367000013589859,-17.94700050354004 C17.656999588012695,-17.70400047302246 31.31100082397461,-2.378999948501587 27.881999969482422,14.96500015258789 C28.256000518798828,-1.1380000114440918 16.363000869750977,-14.869000434875488 -0.1469999998807907,-14.67199993133545 C-17.8799991607666,-14.460000038146973 -27.46299934387207,1.753000020980835 -28.12700080871582,17.950000762939453z"></path></g></g><g opacity="1" transform="matrix(1,0,0,1,0,0)"><g opacity="1" transform="matrix(1,0,0,1,199.89199829101562,222.9980010986328)"><path fill="rgb(255,255,255)" fill-opacity="1" d=" M28.073999404907227,13.859999656677246 C28.073999404907227,13.859999656677246 29.545000076293945,-3.056999921798706 17.545000076293945,-14.050000190734863 C7.236000061035156,-23.4950008392334 -12.17300033569336,-22.56800079345703 -21.899999618530273,-10.467000007629395 C-29.820999145507812,-0.6140000224113464 -27.934999465942383,10.87399959564209 -27.934999465942383,10.87399959564209 C-27.934999465942383,10.87399959564209 -20.027000427246094,19.37700080871582 -3.7960000038146973,20.30299949645996 C16.854000091552734,21.48200035095215 28.073999404907227,13.859999656677246 28.073999404907227,13.859999656677246z"></path></g><g opacity="1" transform="matrix(1,0,0,1,201.18699645996094,222.9980010986328)"><path fill="url(#__lottie_element_49)" fill-opacity="1" d=" M17.68000030517578,0 C17.68000030517578,9.763999938964844 9.763999938964844,17.68000030517578 0,17.68000030517578 C-9.763999938964844,17.68000030517578 -17.68000030517578,9.763999938964844 -17.68000030517578,0 C-17.68000030517578,-9.763999938964844 -9.763999938964844,-17.68000030517578 0,-17.68000030517578 C9.763999938964844,-17.68000030517578 17.68000030517578,-9.763999938964844 17.68000030517578,0z"></path></g><g opacity="1" transform="matrix(1,0,0,1,210.1790008544922,232.21499633789062)"><g opacity="1" transform="matrix(1,0,0,1,0,0)"><path fill="url(#__lottie_element_50)" fill-opacity="1" d=" M-4.5329999923706055,7.6570000648498535 C-5.914999961853027,7.6570000648498535 -7.192999839782715,6.765999794006348 -7.622000217437744,5.375999927520752 C-8.14900016784668,3.6700000762939453 -7.191999912261963,1.8589999675750732 -5.485000133514404,1.3329999446868896 C-2.2200000286102295,0.32600000500679016 0.3790000081062317,-2.2109999656677246 1.4670000076293945,-5.452000141143799 C2.0350000858306885,-7.145999908447266 3.871000051498413,-8.055999755859375 5.560999870300293,-7.488999843597412 C7.254000186920166,-6.921000003814697 8.166000366210938,-5.086999893188477 7.5980000495910645,-3.3940000534057617 C5.848999977111816,1.815999984741211 1.6710000038146973,5.894000053405762 -3.5789999961853027,7.513000011444092 C-3.8959999084472656,7.611000061035156 -4.2179999351501465,7.6570000648498535 -4.5329999923706055,7.6570000648498535z"></path></g></g><g opacity="1" transform="matrix(1,0,0,1,201.18699645996094,222.9980010986328)"><path fill="rgb(24,19,9)" fill-opacity="1" d=" M11.173999786376953,0 C11.173999786376953,6.171000003814697 6.171000003814697,11.17300033569336 0,11.17300033569336 C-6.171000003814697,11.17300033569336 -11.173999786376953,6.171000003814697 -11.173999786376953,0 C-11.173999786376953,-6.171000003814697 -6.171000003814697,-11.17300033569336 0,-11.17300033569336 C6.171000003814697,-11.17300033569336 11.173999786376953,-6.171000003814697 11.173999786376953,0z"></path></g><g opacity="1" transform="matrix(1,0,0,1,199.83900451660156,218.9080047607422)"><path fill="rgb(175,57,0)" fill-opacity="1" d=" M28.12700080871582,17.950000762939453 C30.40999984741211,0.08699999749660492 18.863000869750977,-18.216999053955078 -0.367000013589859,-17.94700050354004 C-17.656999588012695,-17.70400047302246 -31.31100082397461,-2.378999948501587 -27.881999969482422,14.96500015258789 C-28.256000518798828,-1.1380000114440918 -16.363000869750977,-14.869000434875488 0.1469999998807907,-14.67199993133545 C17.8799991607666,-14.460000038146973 27.46299934387207,1.753000020980835 28.12700080871582,17.950000762939453z"></path><path stroke-linecap="round" stroke-linejoin="round" fill-opacity="0" stroke="rgb(175,57,0)" stroke-opacity="1" stroke-width="2" d=" M28.12700080871582,17.950000762939453 C30.40999984741211,0.08699999749660492 18.863000869750977,-18.216999053955078 -0.367000013589859,-17.94700050354004 C-17.656999588012695,-17.70400047302246 -31.31100082397461,-2.378999948501587 -27.881999969482422,14.96500015258789 C-28.256000518798828,-1.1380000114440918 -16.363000869750977,-14.869000434875488 0.1469999998807907,-14.67199993133545 C17.8799991607666,-14.460000038146973 27.46299934387207,1.753000020980835 28.12700080871582,17.950000762939453z"></path></g></g></g><g opacity="1" transform="matrix(1,0,0,1,0,0)"><g opacity="0.5" transform="matrix(1,0,0,1,251.9029998779297,325.5840148925781)"><path fill="url(#__lottie_element_51)" fill-opacity="1" d=" M24.371999740600586,-4.915999889373779 C24.371999740600586,-0.6259999871253967 13.460000038146973,6.5929999351501465 0,6.5929999351501465 C-13.460000038146973,6.5929999351501465 -24.371999740600586,-0.6259999871253967 -24.371999740600586,-4.915999889373779 C-24.371999740600586,-9.206000328063965 -13.460000038146973,-3.9089999198913574 0,-3.9089999198913574 C13.460000038146973,-3.9089999198913574 24.371999740600586,-9.206000328063965 24.371999740600586,-4.915999889373779z"></path></g><g opacity="0.7000000000000001" transform="matrix(1,0,0,1,251.5290069580078,310.1960144042969)"><path fill="url(#__lottie_element_52)" fill-opacity="1" d=" M32.14799880981445,-5.36299991607666 C32.14799880981445,2.691999912261963 17.7549991607666,11.404000282287598 0,11.404000282287598 C-17.7549991607666,11.404000282287598 -32.14799880981445,2.691999912261963 -32.14799880981445,-5.36299991607666 C-32.14799880981445,-13.418000221252441 32.14799880981445,-13.418000221252441 32.14799880981445,-5.36299991607666z"></path></g><g opacity="1" transform="matrix(1,0,0,1,251.5290069580078,294.2300109863281)"><path fill="url(#__lottie_element_53)" fill-opacity="1" d=" M34.391998291015625,-14.13599967956543 C34.391998291015625,-14.13599967956543 -33.64099884033203,-14.13599967956543 -33.64099884033203,-14.13599967956543 C-46.237998962402344,-14.13599967956543 -59.66999816894531,-2.11299991607666 -59.66999816894531,11.678000450134277 C-59.66999816894531,13.005000114440918 -58.683998107910156,14.13599967956543 -57.28200149536133,14.13599967956543 C-57.28200149536133,14.13599967956543 57.28200149536133,14.13599967956543 57.28200149536133,14.13599967956543 C58.683998107910156,14.13599967956543 59.66999816894531,13.005000114440918 59.66999816894531,11.678000450134277 C59.66999816894531,-0.5889999866485596 46.98899841308594,-14.13599967956543 34.391998291015625,-14.13599967956543z"></path></g><g opacity="1" transform="matrix(1,0,0,1,251.5290069580078,307.718994140625)"><path fill="rgb(136,24,4)" fill-opacity="1" d=" M-28.01300048828125,-3.5339999198913574 C-28.01300048828125,-2.059999942779541 -27.408000946044922,-0.6520000100135803 -26.274999618530273,0.6460000276565552 C-22.336999893188477,5.255000114440918 -12.062999725341797,8.534000396728516 -0.006000000052154064,8.534000396728516 C12.062000274658203,8.534000396728516 22.336999893188477,5.255000114440918 26.274999618530273,0.6460000276565552 C27.408000946044922,-0.6520000100135803 28.01300048828125,-2.059999942779541 28.01300048828125,-3.5339999198913574 C28.01300048828125,-10.201000213623047 -28.01300048828125,-10.201000213623047 -28.01300048828125,-3.5339999198913574z"></path></g><g opacity="1" transform="matrix(1,0,0,1,251.5290069580078,307.718994140625)"><path fill="url(#__lottie_element_54)" fill-opacity="1" d=" M-28.01300048828125,-3.5339999198913574 C-28.01300048828125,-2.059999942779541 -27.408000946044922,-0.6520000100135803 -26.274999618530273,0.6460000276565552 C-22.336999893188477,5.255000114440918 -12.062999725341797,8.534000396728516 -0.006000000052154064,8.534000396728516 C12.062000274658203,8.534000396728516 22.336999893188477,5.255000114440918 26.274999618530273,0.6460000276565552 C27.408000946044922,-0.6520000100135803 28.01300048828125,-2.059999942779541 28.01300048828125,-3.5339999198913574 C28.01300048828125,-10.201000213623047 -28.01300048828125,-10.201000213623047 -28.01300048828125,-3.5339999198913574z"></path></g><g opacity="1" transform="matrix(1,0,0,1,251.5290069580078,293.6409912109375)"><path fill="rgb(255,206,1)" fill-opacity="1" d=" M30.30699920654297,-10.545000076293945 C30.30699920654297,-10.545000076293945 -30.30699920654297,-10.545000076293945 -30.30699920654297,-10.545000076293945 C-42.185001373291016,-10.545000076293945 -54.1609992980957,-2.2929999828338623 -55.3849983215332,8.29800033569336 C-55.52399826049805,9.503000259399414 -54.45600128173828,10.545000076293945 -53.13399887084961,10.545000076293945 C-53.13399887084961,10.545000076293945 53.132999420166016,10.545000076293945 53.132999420166016,10.545000076293945 C54.45500183105469,10.545000076293945 55.52399826049805,9.503000259399414 55.3849983215332,8.29800033569336 C54.1609992980957,-2.2929999828338623 42.185001373291016,-10.545000076293945 30.30699920654297,-10.545000076293945z"></path></g><g opacity="1" transform="matrix(1,0,0,1,251.5290069580078,293.6409912109375)"><path fill="url(#__lottie_element_55)" fill-opacity="1" d=" M30.30699920654297,-10.545000076293945 C30.30699920654297,-10.545000076293945 -30.30699920654297,-10.545000076293945 -30.30699920654297,-10.545000076293945 C-42.185001373291016,-10.545000076293945 -54.1609992980957,-2.2929999828338623 -55.3849983215332,8.29800033569336 C-55.52399826049805,9.503000259399414 -54.45600128173828,10.545000076293945 -53.13399887084961,10.545000076293945 C-53.13399887084961,10.545000076293945 53.132999420166016,10.545000076293945 53.132999420166016,10.545000076293945 C54.45500183105469,10.545000076293945 55.52399826049805,9.503000259399414 55.3849983215332,8.29800033569336 C54.1609992980957,-2.2929999828338623 42.185001373291016,-10.545000076293945 30.30699920654297,-10.545000076293945z"></path></g><g opacity="1" transform="matrix(1,0,0,1,251.5290069580078,298.1340026855469)"><path fill="url(#__lottie_element_56)" fill-opacity="1" d=" M55.382999420166016,3.805999994277954 C55.5260009765625,5.005000114440918 54.45899963378906,6.050000190734863 53.138999938964844,6.050000190734863 C53.138999938964844,6.050000190734863 -53.138999938964844,6.050000190734863 -53.138999938964844,6.050000190734863 C-54.45899963378906,6.050000190734863 -55.5260009765625,5.005000114440918 -55.382999420166016,3.805999994277954 C-54.96500015258789,0.16500000655651093 -53.270999908447266,-3.2009999752044678 -50.75199890136719,-6.050000190734863 C-51.51100158691406,-4.4770002365112305 -53.09700012207031,1.0219999551773071 -50.10200119018555,1.0449999570846558 C-50.10200119018555,1.0449999570846558 50.10300064086914,1.0449999570846558 50.10300064086914,1.0449999570846558 C53.64799880981445,1.0809999704360962 51.52199935913086,-4.4770002365112305 50.75199890136719,-6.050000190734863 C53.28200149536133,-3.2009999752044678 54.96500015258789,0.16500000655651093 55.382999420166016,3.805999994277954z"></path></g></g><g opacity="1" transform="matrix(1,0,0,1,0,0)"><g opacity="1" transform="matrix(1,0,0,1,251.94200134277344,277.8219909667969)"><path fill="url(#__lottie_element_57)" fill-opacity="1" d=" M21.90399932861328,-5.144999980926514 C21.90399932861328,4.556000232696533 13.312000274658203,12.420999526977539 0,12.420999526977539 C-13.312000274658203,12.420999526977539 -21.90399932861328,4.556000232696533 -21.90399932861328,-5.144999980926514 C-21.90399932861328,-14.845999717712402 21.90399932861328,-14.845999717712402 21.90399932861328,-5.144999980926514z"></path></g><g opacity="0.8" transform="matrix(1,0,0,1,251.94200134277344,269.5690002441406)"><path fill="rgb(255,168,0)" fill-opacity="1" d=" M22.363000869750977,-0.19200000166893005 C22.363000869750977,8.807999610900879 12.350000381469727,16.104999542236328 0,16.104999542236328 C-12.35099983215332,16.104999542236328 -22.363000869750977,8.807999610900879 -22.363000869750977,-0.19200000166893005 C-22.363000869750977,-9.192999839782715 -12.35099983215332,-16.104999542236328 0,-16.104999542236328 C12.350000381469727,-16.104999542236328 22.363000869750977,-9.192999839782715 22.363000869750977,-0.19200000166893005z"></path></g><g opacity="1" transform="matrix(1,0,0,1,251.94200134277344,269.5690002441406)"><path fill="url(#__lottie_element_58)" fill-opacity="1" d=" M22.363000869750977,-0.19200000166893005 C22.363000869750977,8.807999610900879 12.350000381469727,16.104999542236328 0,16.104999542236328 C-12.35099983215332,16.104999542236328 -22.363000869750977,8.807999610900879 -22.363000869750977,-0.19200000166893005 C-22.363000869750977,-9.192999839782715 -12.35099983215332,-16.104999542236328 0,-16.104999542236328 C12.350000381469727,-16.104999542236328 22.363000869750977,-9.192999839782715 22.363000869750977,-0.19200000166893005z"></path></g><g opacity="1" transform="matrix(1,0,0,1,251.94200134277344,265.6700134277344)"><path fill="rgb(255,216,0)" fill-opacity="1" d=" M20.351999282836914,-0.6000000238418579 C20.351999282836914,6.099999904632568 10.684000015258789,12.538999557495117 0,12.538999557495117 C-10.684000015258789,12.538999557495117 -20.351999282836914,6.099999904632568 -20.351999282836914,-0.6000000238418579 C-20.351999282836914,-7.300000190734863 -10.684000015258789,-12.538999557495117 0,-12.538999557495117 C10.684000015258789,-12.538999557495117 20.351999282836914,-7.300000190734863 20.351999282836914,-0.6000000238418579z"></path></g><g opacity="1" transform="matrix(1,0,0,1,251.94200134277344,265.6700134277344)"><path fill="url(#__lottie_element_59)" fill-opacity="1" d=" M20.351999282836914,-0.6000000238418579 C20.351999282836914,6.099999904632568 10.684000015258789,12.538999557495117 0,12.538999557495117 C-10.684000015258789,12.538999557495117 -20.351999282836914,6.099999904632568 -20.351999282836914,-0.6000000238418579 C-20.351999282836914,-7.300000190734863 -10.684000015258789,-12.538999557495117 0,-12.538999557495117 C10.684000015258789,-12.538999557495117 20.351999282836914,-7.300000190734863 20.351999282836914,-0.6000000238418579z"></path></g><g opacity="0.7000000000000001" transform="matrix(1,0,0,1,251.94200134277344,261.7430114746094)"><path fill="url(#__lottie_element_60)" fill-opacity="1" d=" M9.079999923706055,-0.9980000257492065 C9.079999923706055,3.5490000247955322 5.014999866485596,7.826000213623047 0,7.826000213623047 C-5.014999866485596,7.826000213623047 -9.079999923706055,3.5490000247955322 -9.079999923706055,-0.9980000257492065 C-9.079999923706055,-5.545000076293945 -5.014999866485596,-7.826000213623047 0,-7.826000213623047 C5.014999866485596,-7.826000213623047 9.079999923706055,-5.545000076293945 9.079999923706055,-0.9980000257492065z"></path></g></g><g opacity="1" transform="matrix(1,0,0,1,0,0)"><g opacity="1" transform="matrix(1,0,0,1,251.01300048828125,147.1999969482422)"><path fill="rgb(255,206,1)" fill-opacity="1" d=" M-80.20600128173828,-18.17099952697754 C-80.08999633789062,-19.16900062561035 -78.94999694824219,-19.70199966430664 -78.10800170898438,-19.135000228881836 C-71.03800201416016,-14.371999740600586 -43.64099884033203,1.7740000486373901 5.363999843597412,3.755000114440918 C53.242000579833984,5.690999984741211 80.66999816894531,-0.16500000655651093 87.1989974975586,-1.7799999713897705 C87.99500274658203,-1.9769999980926514 88.7750015258789,-1.4390000104904175 88.85800170898438,-0.6349999904632568 C89.38800048828125,4.515999794006348 91.90299987792969,21.79599952697754 102.78700256347656,39.819000244140625 C103.76899719238281,41.44599914550781 104.26899719238281,43.3129997253418 104.26899719238281,45.20500183105469 C104.26899719238281,45.20500183105469 104.26899719238281,89.11900329589844 104.26899719238281,89.11900329589844 C104.26899719238281,90.61900329589844 105.7750015258789,91.73600006103516 107.20700073242188,91.22100067138672 C110.06099700927734,90.19400024414062 114.26699829101562,86.29000091552734 116.39900207519531,72.77200317382812 C119.80999755859375,51.14400100708008 127.39199829101562,15.718999862670898 120.56900024414062,-15.604999542236328 C113.74600219726562,-46.92900085449219 90.0270004272461,-81.31300354003906 38.4739990234375,-89.6719970703125 C-17.65999984741211,-98.77400207519531 -75.7770004272461,-87.70800018310547 -97.39600372314453,-51.590999603271484 C-101.63899993896484,-49.167999267578125 -146.36500549316406,-16.22800064086914 -107.68599700927734,90.87699890136719 C-107.01399993896484,92.73799896240234 -103.27899932861328,93.5199966430664 -103.27899932861328,91.54499816894531 C-103.27899932861328,91.54499816894531 -103.83999633789062,45.62200164794922 -103.83999633789062,45.62200164794922 C-103.83999633789062,43.27000045776367 -103.04299926757812,40.9900016784668 -101.5989990234375,39.1150016784668 C-96.43599700927734,32.409000396728516 -83.86799621582031,13.255999565124512 -80.20600128173828,-18.17099952697754z"></path></g><g opacity="1" transform="matrix(1,0,0,1,251.01300048828125,147.1999969482422)"><path fill="url(#__lottie_element_61)" fill-opacity="1" d=" M-80.20600128173828,-18.17099952697754 C-80.08999633789062,-19.16900062561035 -78.94999694824219,-19.70199966430664 -78.10800170898438,-19.135000228881836 C-71.03800201416016,-14.371999740600586 -43.64099884033203,1.7740000486373901 5.363999843597412,3.755000114440918 C53.242000579833984,5.690999984741211 80.66999816894531,-0.16500000655651093 87.1989974975586,-1.7799999713897705 C87.99500274658203,-1.9769999980926514 88.7750015258789,-1.4390000104904175 88.85800170898438,-0.6349999904632568 C89.38800048828125,4.515999794006348 91.90299987792969,21.79599952697754 102.78700256347656,39.819000244140625 C103.76899719238281,41.44599914550781 104.26899719238281,43.3129997253418 104.26899719238281,45.20500183105469 C104.26899719238281,45.20500183105469 104.26899719238281,89.11900329589844 104.26899719238281,89.11900329589844 C104.26899719238281,90.61900329589844 105.7750015258789,91.73600006103516 107.20700073242188,91.22100067138672 C110.06099700927734,90.19400024414062 114.26699829101562,86.29000091552734 116.39900207519531,72.77200317382812 C119.80999755859375,51.14400100708008 127.39199829101562,15.718999862670898 120.56900024414062,-15.604999542236328 C113.74600219726562,-46.92900085449219 90.0270004272461,-81.31300354003906 38.4739990234375,-89.6719970703125 C-17.65999984741211,-98.77400207519531 -75.7770004272461,-87.70800018310547 -97.39600372314453,-51.590999603271484 C-101.63899993896484,-49.167999267578125 -146.36500549316406,-16.22800064086914 -107.68599700927734,90.87699890136719 C-107.01399993896484,92.73799896240234 -103.27899932861328,93.5199966430664 -103.27899932861328,91.54499816894531 C-103.27899932861328,91.54499816894531 -103.83999633789062,45.62200164794922 -103.83999633789062,45.62200164794922 C-103.83999633789062,43.27000045776367 -103.04299926757812,40.9900016784668 -101.5989990234375,39.1150016784668 C-96.43599700927734,32.409000396728516 -83.86799621582031,13.255999565124512 -80.20600128173828,-18.17099952697754z"></path></g><g opacity="1" transform="matrix(1,0,0,1,251.49200439453125,147.79600524902344)"><path fill="url(#__lottie_element_62)" fill-opacity="1" d=" M114.93900299072266,77.197998046875 C112.66100311279297,86.7040023803711 106.27799987792969,94.19100189208984 106.27799987792969,92.69000244140625 C106.27799987792969,92.69000244140625 102.9489974975586,42.45399856567383 102.9489974975586,42.45399856567383 C89.88400268554688,18.322999954223633 88.91300201416016,6.826000213623047 88.38200378417969,1.6710000038146973 C88.29299926757812,0.8659999966621399 54.891998291015625,9.015999794006348 7.01800012588501,7.079999923706055 C-41.99399948120117,5.090000152587891 -74.46199798583984,-11.097999572753906 -81.53800201416016,-15.862000465393066 C-82.37899780273438,-16.42799949645996 -77.72200012207031,10.060999870300293 -102.08300018310547,41.42399978637695 C-103.52999877929688,43.2869987487793 -105.29900360107422,92.69000244140625 -105.29900360107422,92.69000244140625 C-111.30899810791016,90.95600128173828 -113.50399780273438,81.93900299072266 -115.72599792480469,71.60800170898438 C-108.4280014038086,95.3479995727539 -112.24400329589844,43.6870002746582 -112.24400329589844,43.6870002746582 C-113.0510025024414,43.981998443603516 -114.8740005493164,43.83399963378906 -114.8740005493164,43.83399963378906 C-94.66400146484375,18.9689998626709 -89.28199768066406,-8.595999717712402 -89.72699737548828,-21.48200035095215 C-90.06999969482422,-31.41900062561035 -91.48899841308594,-37.16600036621094 -95.18800354003906,-38.97999954223633 C-107.5009994506836,-45.01900100708008 -121.87300109863281,-2.742000102996826 -121.87300109863281,-2.742000102996826 C-122.79199981689453,-31.905000686645508 -103.05500030517578,-46.91699981689453 -97.052001953125,-50.39699935913086 C-72.93800354003906,-84.3740005493164 -18.136999130249023,-99.37100219726562 37.994998931884766,-90.26799774169922 C89.55000305175781,-81.91500091552734 113.65699768066406,-59.314998626708984 121.90399932861328,-5.145999908447266 C118.33899688720703,-58.178001403808594 72.91300201416016,-84.2300033569336 4.573999881744385,-84.12200164794922 C-49.19499969482422,-84.03700256347656 -71.63600158691406,-67.62999725341797 -80.44400024414062,-57.71099853515625 C-83.0790023803711,-54.74300003051758 -85.96800231933594,-47.38100051879883 -83.21199798583984,-42.18000030517578 C-74.66600036621094,-26.049999237060547 -44.632999420166016,-9.083000183105469 9.10099983215332,-6.005000114440918 C66.677001953125,-2.7070000171661377 109.25,-15.368000030517578 110.14600372314453,-15.640000343322754 C103.88800048828125,-10.050000190734863 98.39700317382812,-2.2200000286102295 98.39700317382812,-2.2200000286102295 C100.25199890136719,24.430999755859375 115.6240005493164,44.54199981689453 115.6240005493164,44.54199981689453 C113.58300018310547,45.040000915527344 111.87799835205078,44.611000061035156 111.87799835205078,44.611000061035156 C111.03900146484375,85.83399963378906 114.93900299072266,77.197998046875 114.93900299072266,77.197998046875z"></path></g><g opacity="0.9" transform="matrix(1,0,0,1,146.781005859375,132.2480010986328)"><path fill="url(#__lottie_element_63)" fill-opacity="1" d=" M14.741000175476074,0.9959999918937683 C16.472999572753906,-18.525999069213867 10.154000282287598,-25.695999145507812 8.63700008392334,-25.683000564575195 C6.249000072479248,-25.66200065612793 1.0099999904632568,-21.882999420166016 -2.25,-17.645999908447266 C-13.359999656677246,-3.2079999446868896 -15.319000244140625,9.133999824523926 -15.008999824523926,23.860000610351562 C-14.888999938964844,29.58799934387207 -11.439000129699707,21.106000900268555 -4.183000087738037,8.34000015258789 C2.940999984741211,-4.193999767303467 14.303999900817871,5.927000045776367 14.741000175476074,0.9959999918937683z"></path></g><g opacity="0.9" transform="matrix(1,0,0,1,256.4989929199219,101.58499908447266)"><path fill="url(#__lottie_element_64)" fill-opacity="1" d=" M-3.2170000076293945,37.86899948120117 C-45.75299835205078,37.87099838256836 -74.12300109863281,23.618000030517578 -85.1510009765625,8.138999938964844 C-87.25,5.192999839782715 -91.80899810791016,-0.9980000257492065 -90.3239974975586,-4.5370001792907715 C-83.88999938964844,-19.875 -49.308998107910156,-37.23099899291992 -2.078000068664551,-37.84400177001953 C31.024999618530273,-38.2760009765625 60.685001373291016,-33.13600158691406 81.50199890136719,-13.618000030517578 C107.92400360107422,9.98900032043457 76.06199645996094,37.86600112915039 -3.2170000076293945,37.86899948120117z"></path></g><g opacity="1" transform="matrix(1,0,0,1,251.43800354003906,148.60699462890625)"><path stroke-linecap="round" stroke-linejoin="round" fill-opacity="0" stroke="rgb(197,92,0)" stroke-opacity="1" stroke-width="8" d=" M-80.89800262451172,-18.75 C-40.09000015258789,6.002999782562256 27.902999877929688,10.003000259399414 89.40799713134766,-0.8320000171661377 C89.40799713134766,-0.8320000171661377 89.05799865722656,18.4950008392334 103.00299835205078,41.641998291015625 C102.98899841308594,48.06800079345703 103.98600006103516,88.7979965209961 103.98600006103516,88.7979965209961 C103.98600006103516,92.5270004272461 104.88300323486328,94.37000274658203 110.82099914550781,87.90299987792969 C119.04000091552734,78.9520034790039 126.7770004272461,22.94700050354004 121.95800018310547,-11.470999717712402 C116.7699966430664,-48.51900100708008 92.58399963378906,-94.12100219726562 2.986999988555908,-94.125 C-72.4020004272461,-94.12799835205078 -95.76799774169922,-58.189998626708984 -97.82099914550781,-52.99800109863281 C-123.70899963378906,-41.63399887084961 -132.1929931640625,18.559999465942383 -112.94599914550781,83.23100280761719 C-108.72100067138672,96.56099700927734 -103.56500244140625,98.09300231933594 -103.447998046875,85.40799713134766 C-103.33100128173828,72.7229995727539 -102.86499786376953,41.249000549316406 -102.86499786376953,41.249000549316406 C-102.86499786376953,41.249000549316406 -83.0510025024414,15.77400016784668 -80.89800262451172,-18.75z"></path></g><g opacity="1" transform="matrix(1,0,0,1,251.5070037841797,160.0540008544922)"><path stroke-linecap="round" stroke-linejoin="round" fill-opacity="0" stroke="rgb(163,65,0)" stroke-opacity="1" stroke-width="8" d=" M-102.93399810791016,29.80299949645996 C-102.93399810791016,29.80299949645996 -83.12000274658203,4.328000068664551 -80.96700286865234,-30.195999145507812 C-40.159000396728516,-5.442999839782715 27.833999633789062,-1.4429999589920044 89.33899688720703,-12.277999877929688 C89.33899688720703,-12.277999877929688 88.98899841308594,7.048999786376953 102.93399810791016,30.195999145507812"></path></g></g></g><g opacity="1" transform="matrix(1,0,0,1,195.95399475097656,213.36399841308594)"><path fill="url(#__lottie_element_65)" fill-opacity="1" d=" M4.2820000648498535,0 C4.2820000648498535,2.50600004196167 2.365000009536743,4.5370001792907715 0,4.5370001792907715 C-2.365000009536743,4.5370001792907715 -4.2820000648498535,2.50600004196167 -4.2820000648498535,0 C-4.2820000648498535,-2.50600004196167 -2.365000009536743,-4.5370001792907715 0,-4.5370001792907715 C2.365000009536743,-4.5370001792907715 4.2820000648498535,-2.50600004196167 4.2820000648498535,0z"></path></g><g opacity="1" transform="matrix(1,0,0,1,297.87799072265625,213.36399841308594)"><path fill="url(#__lottie_element_66)" fill-opacity="1" d=" M4.2820000648498535,0 C4.2820000648498535,2.50600004196167 2.365000009536743,4.5370001792907715 0,4.5370001792907715 C-2.365000009536743,4.5370001792907715 -4.2820000648498535,2.50600004196167 -4.2820000648498535,0 C-4.2820000648498535,-2.50600004196167 -2.365000009536743,-4.5370001792907715 0,-4.5370001792907715 C2.365000009536743,-4.5370001792907715 4.2820000648498535,-2.50600004196167 4.2820000648498535,0z"></path></g></g><g style="display: block;" transform="matrix(1,0,0,1,7,0)" opacity="1"><g opacity="1" transform="matrix(1,0,0,1,-11.5,0)"><path stroke-linecap="butt" stroke-linejoin="miter" fill-opacity="0" stroke-miterlimit="4" stroke="rgb(186,170,139)" stroke-opacity="1" stroke-width="8" d=" M383.42,198.5 C383.42,198.5 329.18,193.5 271.75,193.5 C214.32,193.5 160.08,198.5 160.08,198.5 C160.08,198.5 158.58,210.8 159.73,226.19 C160.88,241.58 163.42,251.5 163.42,251.5 C163.42,251.5 181.67,261.5 195.33,269.83 C209,278.17 227.4,285.17 236.2,284.83 C245,284.5 251.05,267.86 257,252.5 C262.64,237.94 271.75,238.83 271.75,238.83 C271.75,238.83 280.86,237.94 286.5,252.5 C292.45,267.86 298.5,284.5 307.3,284.83 C316.1,285.17 334.5,278.17 348.17,269.83 C361.84,261.5 380.09,251.5 380.09,251.5 C380.09,251.5 382.62,242.58 383.77,227.19 C384.92,211.8 383.42,198.5 383.42,198.5z"></path><g opacity="1" transform="matrix(1,0,0,1,271.7510070800781,239.33299255371094)"><path fill="url(#__lottie_element_39)" mask="url(#__lottie_element_41)" fill-opacity="1" d="M0 0 M111.66799926757812,-40.83300018310547 C111.66799926757812,-40.83300018310547 57.426998138427734,-45.83300018310547 0,-45.83300018310547 C-57.428001403808594,-45.83300018310547 -111.66699981689453,-40.83300018310547 -111.66699981689453,-40.83300018310547 C-111.66699981689453,-40.83300018310547 -113.16699981689453,-28.533000946044922 -112.01899719238281,-13.144000053405762 C-110.87200164794922,2.24399995803833 -108.33300018310547,12.166999816894531 -108.33300018310547,12.166999816894531 C-108.33300018310547,12.166999816894531 -90.08300018310547,22.16699981689453 -76.41699981689453,30.5 C-62.75,38.83399963378906 -44.3489990234375,45.83399963378906 -35.54999923706055,45.5 C-26.75,45.16699981689453 -20.698999404907227,28.527000427246094 -14.75,13.166999816894531 C-9.112000465393066,-1.3930000066757202 0,-0.5 0,-0.5 C0,-0.5 9.112000465393066,-1.3930000066757202 14.75,13.166999816894531 C20.698999404907227,28.527000427246094 26.750999450683594,45.16699981689453 35.55099868774414,45.5 C44.35100173950195,45.83399963378906 62.750999450683594,38.83399963378906 76.41799926757812,30.5 C90.08499908447266,22.16699981689453 108.33499908447266,12.166999816894531 108.33499908447266,12.166999816894531 C108.33499908447266,12.166999816894531 110.87300109863281,3.24399995803833 112.02100372314453,-12.144000053405762 C113.16799926757812,-27.533000946044922 111.66799926757812,-40.83300018310547 111.66799926757812,-40.83300018310547z"></path></g></g><g opacity="1" transform="matrix(1,0,0,1,-11.5,0)"><g opacity="1" transform="matrix(1,0,0,1,271.7510070800781,196)"><path stroke-linecap="round" stroke-linejoin="miter" fill-opacity="0" stroke-miterlimit="10" stroke="rgb(6,5,5)" stroke-opacity="1" stroke-width="10" d=" M111.66799926757812,2.5 C111.66799926757812,2.5 57.426998138427734,-2.5 0,-2.5 C-57.428001403808594,-2.5 -111.66699981689453,2.5 -111.66699981689453,2.5"></path></g></g><g opacity="1" transform="matrix(1,0,0,1,-11.5,0)"><g opacity="1" transform="matrix(1,0,0,1,271.7510070800781,257.2200012207031)"><path stroke-linecap="round" stroke-linejoin="round" fill-opacity="0" stroke="rgb(6,5,5)" stroke-opacity="1" stroke-width="8" d=" M-25.354000091552734,19.280000686645508 C-21.472999572753906,12.960000038146973 -18.09600067138672,3.9179999828338623 -14.75100040435791,-4.71999979019165 C-9.11299991607666,-19.280000686645508 -0.0010000000474974513,-18.386999130249023 -0.0010000000474974513,-18.386999130249023 C-0.0010000000474974513,-18.386999130249023 9.112000465393066,-19.280000686645508 14.75,-4.71999979019165 C18.094999313354492,3.9179999828338623 21.472999572753906,12.960000038146973 25.354000091552734,19.280000686645508"></path></g></g></g><g style="display: block;" transform="matrix(1,0,0,1,7,0)" opacity="1"><g opacity="1" transform="matrix(1,0,0,1,-11.5,0)"><path fill="url(#__lottie_element_26)" mask="url(#__lottie_element_28)" fill-opacity="1" d="M0 0 M411.33,342.65 C411.33,342.65 411.21,317 411.21,317 C411.21,317 378.97,317 378.97,317 C378.97,317 379.09,342.65 379.09,342.65 C379.09,354.57 377.01,366.4 372.92,377.59 C372.92,377.59 339.79,468.5 339.79,468.5 C338.48,472.09 341.14,475.89 344.96,475.89 C344.96,475.89 445.47,475.89 445.47,475.89 C449.29,475.89 451.95,472.09 450.64,468.5 C450.64,468.5 417.5,377.59 417.5,377.59 C413.42,366.4 411.33,354.57 411.33,342.65z"></path><g opacity="1" transform="matrix(1,0,0,1,395.2130126953125,398.4469909667969)"><path stroke-linecap="round" stroke-linejoin="round" fill-opacity="0" stroke="rgb(156,161,168)" stroke-opacity="1" stroke-width="8" d=" M16.1200008392334,-55.79499816894531 C16.1200008392334,-55.79499816894531 16,-81.4469985961914 16,-81.4469985961914 C16,-81.4469985961914 -16.239999771118164,-81.4469985961914 -16.239999771118164,-81.4469985961914 C-16.239999771118164,-81.4469985961914 -16.1200008392334,-55.79499816894531 -16.1200008392334,-55.79499816894531 C-16.1200008392334,-43.87699890136719 -18.20800018310547,-32.05099868774414 -22.288999557495117,-20.854000091552734 C-22.288999557495117,-20.854000091552734 -55.42499923706055,70.05599975585938 -55.42499923706055,70.05599975585938 C-56.73500061035156,73.64800262451172 -54.07500076293945,77.447998046875 -50.250999450683594,77.447998046875 C-50.250999450683594,77.447998046875 50.25199890136719,77.447998046875 50.25199890136719,77.447998046875 C54.07500076293945,77.447998046875 56.73500061035156,73.64800262451172 55.42499923706055,70.05599975585938 C55.42499923706055,70.05599975585938 22.288999557495117,-20.854000091552734 22.288999557495117,-20.854000091552734 C18.20800018310547,-32.05099868774414 16.1200008392334,-43.87699890136719 16.1200008392334,-55.79499816894531z"></path></g></g><g opacity="1" transform="matrix(1,0,0,1,0,0)"><path fill="url(#__lottie_element_29)" fill-opacity="1" d=" M361.5,384.25 C361.5,384.25 351.75,408 351.75,409.75 C351.75,411.5 396.25,412.5 397.75,409 C399.25,405.5 391.5,401 380,393 C374.18798828125,388.9570007324219 361.5,384.25 361.5,384.25z"></path></g><g opacity="1" transform="matrix(1,0,0,1,-11.5,0)"><g opacity="1" transform="matrix(1,0,0,1,395.2139892578125,442.1570129394531)"><path fill="url(#__lottie_element_30)" fill-opacity="1" d=" M33.525001525878906,-33.737998962402344 C33.525001525878906,-33.737998962402344 -33.525001525878906,-33.737998962402344 -33.525001525878906,-33.737998962402344 C-33.525001525878906,-33.737998962402344 -55.42599868774414,26.344999313354492 -55.42599868774414,26.344999313354492 C-56.73500061035156,29.937000274658203 -54.07500076293945,33.737998962402344 -50.25199890136719,33.737998962402344 C-50.25199890136719,33.737998962402344 50.250999450683594,33.737998962402344 50.250999450683594,33.737998962402344 C54.07500076293945,33.737998962402344 56.73500061035156,29.937000274658203 55.42499923706055,26.344999313354492 C55.42499923706055,26.344999313354492 33.525001525878906,-33.737998962402344 33.525001525878906,-33.737998962402344z"></path><path stroke-linecap="round" stroke-linejoin="round" fill-opacity="0" stroke="rgb(7,180,0)" stroke-opacity="1" stroke-width="8" d=" M33.525001525878906,-33.737998962402344 C33.525001525878906,-33.737998962402344 -33.525001525878906,-33.737998962402344 -33.525001525878906,-33.737998962402344 C-33.525001525878906,-33.737998962402344 -55.42599868774414,26.344999313354492 -55.42599868774414,26.344999313354492 C-56.73500061035156,29.937000274658203 -54.07500076293945,33.737998962402344 -50.25199890136719,33.737998962402344 C-50.25199890136719,33.737998962402344 50.250999450683594,33.737998962402344 50.250999450683594,33.737998962402344 C54.07500076293945,33.737998962402344 56.73500061035156,29.937000274658203 55.42499923706055,26.344999313354492 C55.42499923706055,26.344999313354492 33.525001525878906,-33.737998962402344 33.525001525878906,-33.737998962402344z"></path></g></g><g opacity="1" transform="matrix(1,0,0,1,-11.5,0)"><g opacity="1" transform="matrix(1,0,0,1,395.2139892578125,442.1570129394531)"><path stroke-linecap="round" stroke-linejoin="round" fill-opacity="0" stroke="rgb(5,134,0)" stroke-opacity="1" stroke-width="8" d="M0 0"></path></g></g><g opacity="1" transform="matrix(1,0,0,1,0,0)"><g opacity="1" transform="matrix(1.181972861289978,0.14619609713554382,-0.13546627759933472,1.0952240228652954,-19.36309814453125,-95.79153442382812)"><path fill="rgb(229,255,180)" fill-opacity="0.25" d=" M397.21,434.02 C397.21,441.98 390.76,448.44 382.79,448.44 C374.83,448.44 368.37,441.98 368.37,434.02 C368.37,426.05 374.83,419.59 382.79,419.59 C390.76,419.59 397.21,426.05 397.21,434.02z"></path><g opacity="1" transform="matrix(1,0,0,1,382.7919921875,434.0169982910156)"><path stroke-linecap="round" stroke-linejoin="round" fill-opacity="0" stroke="rgb(190,255,14)" stroke-opacity="1" stroke-width="3" d=" M14.42199993133545,0 C14.42199993133545,7.965000152587891 7.964000225067139,14.42199993133545 -0.0010000000474974513,14.42199993133545 C-7.965000152587891,14.42199993133545 -14.42199993133545,7.965000152587891 -14.42199993133545,0 C-14.42199993133545,-7.965000152587891 -7.965000152587891,-14.42199993133545 -0.0010000000474974513,-14.42199993133545 C7.964000225067139,-14.42199993133545 14.42199993133545,-7.965000152587891 14.42199993133545,0z"></path></g></g><g opacity="1" transform="matrix(1,0,0,1,-10.5,-7.5)"><path fill="rgb(229,255,180)" fill-opacity="0.25" d=" M365.71,452.24 C365.71,455.58 363,458.29 359.67,458.29 C356.33,458.29 353.62,455.58 353.62,452.24 C353.62,448.91 356.33,446.2 359.67,446.2 C363,446.2 365.71,448.91 365.71,452.24z"></path><g opacity="1" transform="matrix(1,0,0,1,359.6669921875,452.2449951171875)"><path stroke-linecap="round" stroke-linejoin="round" fill-opacity="0" stroke="rgb(190,255,14)" stroke-opacity="1" stroke-width="3" d=" M6.044000148773193,0 C6.044000148773193,3.3380000591278076 3.3380000591278076,6.044000148773193 0,6.044000148773193 C-3.3380000591278076,6.044000148773193 -6.044000148773193,3.3380000591278076 -6.044000148773193,0 C-6.044000148773193,-3.3380000591278076 -3.3380000591278076,-6.044000148773193 0,-6.044000148773193 C3.3380000591278076,-6.044000148773193 6.044000148773193,-3.3380000591278076 6.044000148773193,0z"></path></g></g><g opacity="1" transform="matrix(1,0,0,1,4.75,-4)"><path fill="rgb(229,255,180)" fill-opacity="0.25" d=" M372.42,462.8 C372.42,465.77 374.83,468.18 377.8,468.18 C380.77,468.18 383.18,465.77 383.18,462.8 C383.18,459.83 380.77,457.42 377.8,457.42 C374.83,457.42 372.42,459.83 372.42,462.8z"></path><g opacity="1" transform="matrix(1,0,0,1,377.79901123046875,462.802001953125)"><path stroke-linecap="round" stroke-linejoin="round" fill-opacity="0" stroke="rgb(190,255,14)" stroke-opacity="1" stroke-width="3" d=" M-5.377999782562256,0 C-5.377999782562256,2.9700000286102295 -2.9700000286102295,5.377999782562256 0,5.377999782562256 C2.9690001010894775,5.377999782562256 5.376999855041504,2.9700000286102295 5.376999855041504,0 C5.376999855041504,-2.9700000286102295 2.9690001010894775,-5.377999782562256 0,-5.377999782562256 C-2.9700000286102295,-5.377999782562256 -5.377999782562256,-2.9700000286102295 -5.377999782562256,0z"></path></g></g><g opacity="1" transform="matrix(0.8123700022697449,0,0,0.8123700022697449,60.34136962890625,74.97079467773438)"><path fill="rgb(229,255,180)" fill-opacity="0.25" d=" M404.4,424.88 C404.4,429.93 408.49,434.02 413.53,434.02 C418.58,434.02 422.67,429.93 422.67,424.88 C422.67,419.84 418.58,415.75 413.53,415.75 C408.49,415.75 404.4,419.84 404.4,424.88z"></path><g opacity="1" transform="matrix(1,0,0,1,413.53399658203125,424.88299560546875)"><path stroke-linecap="round" stroke-linejoin="round" fill-opacity="0" stroke="rgb(190,255,14)" stroke-opacity="1" stroke-width="3" d=" M-9.133999824523926,0 C-9.133999824523926,5.044000148773193 -5.045000076293945,9.133000373840332 -0.0010000000474974513,9.133000373840332 C5.044000148773193,9.133000373840332 9.133000373840332,5.044000148773193 9.133000373840332,0 C9.133000373840332,-5.044000148773193 5.044000148773193,-9.133000373840332 -0.0010000000474974513,-9.133000373840332 C-5.045000076293945,-9.133000373840332 -9.133999824523926,-5.044000148773193 -9.133999824523926,0z"></path></g></g><g opacity="1" transform="matrix(0.8123700022697449,0,0,0.8123700022697449,29.84136962890625,85.97079467773438)"><path fill="rgb(229,255,180)" fill-opacity="0.25" d=" M398.25,455.38 C398.25,458.23 400.56,460.54 403.41,460.54 C406.26,460.54 408.57,458.23 408.57,455.38 C408.57,452.53 406.26,450.22 403.41,450.22 C400.56,450.22 398.25,452.53 398.25,455.38z"></path><g opacity="1" transform="matrix(1,0,0,1,413.53399658203125,424.88299560546875)"><path stroke-linecap="round" stroke-linejoin="round" fill-opacity="0" stroke="rgb(190,255,14)" stroke-opacity="1" stroke-width="3" d=" M-15.288000106811523,30.496000289916992 C-15.288000106811523,33.34600067138672 -12.977999687194824,35.65700149536133 -10.126999855041504,35.65700149536133 C-7.276000022888184,35.65700149536133 -4.965000152587891,33.34700012207031 -4.965000152587891,30.496000289916992 C-4.965000152587891,27.645000457763672 -7.276000022888184,25.333999633789062 -10.126999855041504,25.333999633789062 C-12.977999687194824,25.333999633789062 -15.288000106811523,27.645999908447266 -15.288000106811523,30.496000289916992z"></path></g></g><g opacity="1" transform="matrix(0.8123700022697449,0,0,0.8123700022697449,35.341644287109375,46.220123291015625)"><path fill="rgb(229,255,180)" fill-opacity="0.25" d=" M398.25,455.38 C398.25,458.23 400.56,460.54 403.41,460.54 C406.26,460.54 408.57,458.23 408.57,455.38 C408.57,452.53 406.26,450.22 403.41,450.22 C400.56,450.22 398.25,452.53 398.25,455.38z"></path><g opacity="1" transform="matrix(1,0,0,1,413.53399658203125,424.88299560546875)"><path stroke-linecap="round" stroke-linejoin="round" fill-opacity="0" stroke="rgb(190,255,14)" stroke-opacity="1" stroke-width="4" d=" M-15.288000106811523,30.496000289916992 C-15.288000106811523,33.34600067138672 -12.977999687194824,35.65700149536133 -10.126999855041504,35.65700149536133 C-7.276000022888184,35.65700149536133 -4.965000152587891,33.34700012207031 -4.965000152587891,30.496000289916992 C-4.965000152587891,27.645000457763672 -7.276000022888184,25.333999633789062 -10.126999855041504,25.333999633789062 C-12.977999687194824,25.333999633789062 -15.288000106811523,27.645999908447266 -15.288000106811523,30.496000289916992z"></path></g></g><g opacity="1" transform="matrix(0.8123700022697449,0,0,0.8123700022697449,17.575653076171875,97.0831298828125)"><path fill="rgb(229,255,180)" fill-opacity="0.25" d=" M398.25,455.38 C398.25,458.23 400.56,460.54 403.41,460.54 C406.26,460.54 408.57,458.23 408.57,455.38 C408.57,452.53 406.26,450.22 403.41,450.22 C400.56,450.22 398.25,452.53 398.25,455.38z"></path><g opacity="1" transform="matrix(1,0,0,1,413.53399658203125,424.88299560546875)"><path stroke-linecap="round" stroke-linejoin="round" fill-opacity="0" stroke="rgb(190,255,14)" stroke-opacity="1" stroke-width="3" d=" M-15.288000106811523,30.496000289916992 C-15.288000106811523,33.34600067138672 -12.977999687194824,35.65700149536133 -10.126999855041504,35.65700149536133 C-7.276000022888184,35.65700149536133 -4.965000152587891,33.34700012207031 -4.965000152587891,30.496000289916992 C-4.965000152587891,27.645000457763672 -7.276000022888184,25.333999633789062 -10.126999855041504,25.333999633789062 C-12.977999687194824,25.333999633789062 -15.288000106811523,27.645999908447266 -15.288000106811523,30.496000289916992z"></path></g></g></g><g opacity="1" transform="matrix(1,0,0,1,-11.5,0)"><path fill="url(#__lottie_element_31)" mask="url(#__lottie_element_33)" fill-opacity="1" d="M0 0 M416.38,328.42 C416.38,328.42 374.05,328.42 374.05,328.42 C374.05,328.42 374.05,316.75 374.05,316.75 C374.05,316.75 416.38,316.75 416.38,316.75 C416.38,316.75 416.38,328.42 416.38,328.42z"></path><g opacity="1" transform="matrix(1,0,0,1,395.2139892578125,322.5830078125)"><path stroke-linecap="round" stroke-linejoin="round" fill-opacity="0" stroke="rgb(167,169,173)" stroke-opacity="1" stroke-width="8" d=" M21.16699981689453,5.833000183105469 C21.16699981689453,5.833000183105469 -21.16699981689453,5.833000183105469 -21.16699981689453,5.833000183105469 C-21.16699981689453,5.833000183105469 -21.16699981689453,-5.833000183105469 -21.16699981689453,-5.833000183105469 C-21.16699981689453,-5.833000183105469 21.16699981689453,-5.833000183105469 21.16699981689453,-5.833000183105469 C21.16699981689453,-5.833000183105469 21.16699981689453,5.833000183105469 21.16699981689453,5.833000183105469z"></path></g></g><g opacity="1" transform="matrix(1,0,0,1,0,0)"><path fill="url(#__lottie_element_34)" fill-opacity="1" d=" M384.125,403.93798828125 C384.125,403.93798828125 387.25,472 387.25,472 C387.25,472 416.25,472 416.25,472 C416.25,472 402.375,403.93798828125 402.375,403.93798828125 C402.375,403.93798828125 384.125,403.93798828125 384.125,403.93798828125z"></path></g><g opacity="1" transform="matrix(1,0,0,1,0,0)"><path fill="url(#__lottie_element_35)" fill-opacity="1" d=" M391,337.125 C391,337.125 383.25,337.375 383.25,337.375 C383.25,337.375 383.25,362.625 383.25,362.625 C383.25,362.625 384.06201171875,404.125 384.06201171875,404.125 C384.06201171875,404.125 402,404 402,404 C402,404 391,361.5 391,361.5 C391,361.5 391,337.125 391,337.125z"></path></g></g><g style="display: block;" transform="matrix(1,0,0,1,33.5,-5)" opacity="1"><g opacity="0.3" transform="matrix(1,0,0,1,-11.5,0)"></g><g opacity="0.3" transform="matrix(1,0,0,1,-11.5,0)"><g opacity="1" transform="matrix(1,0,0,1,388.75,291.25)"><path fill="rgb(222,217,212)" fill-opacity="1" d=" M0,23 C-12.682999610900879,23 -23,12.682999610900879 -23,0 C-23,-12.682999610900879 -12.682999610900879,-23 0,-23 C12.682999610900879,-23 23,-12.682999610900879 23,0 C23,12.682999610900879 12.682999610900879,23 0,23z"></path></g></g><g opacity="0.3" transform="matrix(1,0,0,1,-11.5,0)"><g opacity="1" transform="matrix(1,0,0,1,388.75,291.25)"><path fill="rgb(222,217,212)" fill-opacity="1" d=" M19,0 C19,10.493000030517578 10.493000030517578,19 0,19 C-10.493000030517578,19 -19,10.493000030517578 -19,0 C-19,-10.493000030517578 -10.493000030517578,-19 0,-19 C10.493000030517578,-19 19,-10.493000030517578 19,0z"></path></g></g><g opacity="0.5" transform="matrix(1,0,0,1,-11.5,0)"><g opacity="1" transform="matrix(1,0,0,1,388.75,291.25)"><path fill="url(#__lottie_element_22)" fill-opacity="1" d=" M0,15 C-8.270999908447266,15 -15,8.270999908447266 -15,0 C-15,-8.270999908447266 -8.270999908447266,-15 0,-15 C8.270999908447266,-15 15,-8.270999908447266 15,0 C15,8.270999908447266 8.270999908447266,15 0,15z"></path></g></g></g><g style="display: block;" transform="matrix(1,0,0,1,7.5,-47)" opacity="1"><g opacity="0.3" transform="matrix(1,0,0,1,-11.5,0)"></g><g opacity="0.3" transform="matrix(1,0,0,1,-11.5,0)"><g opacity="1" transform="matrix(1,0,0,1,388.75,291.25)"><path fill="rgb(222,217,212)" fill-opacity="1" d=" M0,23 C-12.682999610900879,23 -23,12.682999610900879 -23,0 C-23,-12.682999610900879 -12.682999610900879,-23 0,-23 C12.682999610900879,-23 23,-12.682999610900879 23,0 C23,12.682999610900879 12.682999610900879,23 0,23z"></path></g></g><g opacity="0.3" transform="matrix(1,0,0,1,-11.5,0)"><g opacity="1" transform="matrix(1,0,0,1,388.75,291.25)"><path fill="rgb(222,217,212)" fill-opacity="1" d=" M19,0 C19,10.493000030517578 10.493000030517578,19 0,19 C-10.493000030517578,19 -19,10.493000030517578 -19,0 C-19,-10.493000030517578 -10.493000030517578,-19 0,-19 C10.493000030517578,-19 19,-10.493000030517578 19,0z"></path></g></g><g opacity="0.5" transform="matrix(1,0,0,1,-11.5,0)"><g opacity="1" transform="matrix(1,0,0,1,388.75,291.25)"><path fill="url(#__lottie_element_18)" fill-opacity="1" d=" M0,15 C-8.270999908447266,15 -15,8.270999908447266 -15,0 C-15,-8.270999908447266 -8.270999908447266,-15 0,-15 C8.270999908447266,-15 15,-8.270999908447266 15,0 C15,8.270999908447266 8.270999908447266,15 0,15z"></path></g></g></g><g style="display: block;" transform="matrix(1,0,0,1,8,-17)" opacity="1"><g opacity="0.3" transform="matrix(1,0,0,1,-11.5,0)"><g opacity="1" transform="matrix(1,0,0,1,409.75,249)"><path fill="rgb(222,217,212)" fill-opacity="1" d=" M0,17 C-9.37399959564209,17 -17,9.37399959564209 -17,0 C-17,-9.37399959564209 -9.37399959564209,-17 0,-17 C9.37399959564209,-17 17,-9.37399959564209 17,0 C17,9.37399959564209 9.37399959564209,17 0,17z"></path></g></g><g opacity="0.3" transform="matrix(1,0,0,1,-11.5,0)"><g opacity="1" transform="matrix(1,0,0,1,409.75,249)"><path fill="rgb(222,217,212)" fill-opacity="1" d=" M0,13 C-7.168000221252441,13 -13,7.168000221252441 -13,0 C-13,-7.168000221252441 -7.168000221252441,-13 0,-13 C7.168000221252441,-13 13,-7.168000221252441 13,0 C13,7.168000221252441 7.168000221252441,13 0,13z"></path></g></g><g opacity="0.5" transform="matrix(1,0,0,1,-11.5,0)"><g opacity="1" transform="matrix(1,0,0,1,409.75,249)"><path fill="url(#__lottie_element_14)" fill-opacity="1" d=" M0,9 C-4.9629998207092285,9 -9,4.9629998207092285 -9,0 C-9,-4.9629998207092285 -4.9629998207092285,-9 0,-9 C4.9629998207092285,-9 9,-4.9629998207092285 9,0 C9,4.9629998207092285 4.9629998207092285,9 0,9z"></path></g></g></g><g style="display: block;" transform="matrix(1,0,0,1,-20,-33)" opacity="1"><g opacity="0.3" transform="matrix(1,0,0,1,-11.5,0)"><g opacity="1" transform="matrix(1,0,0,1,430.75,225.5)"><path fill="rgb(222,217,212)" fill-opacity="1" d=" M0,10.5 C-5.789999961853027,10.5 -10.5,5.789999961853027 -10.5,0 C-10.5,-5.789999961853027 -5.789999961853027,-10.5 0,-10.5 C5.789999961853027,-10.5 10.5,-5.789999961853027 10.5,0 C10.5,5.789999961853027 5.789999961853027,10.5 0,10.5z"></path></g></g><g opacity="0.5" transform="matrix(1,0,0,1,-11.5,0)"><g opacity="1" transform="matrix(1,0,0,1,430.75,225.5)"><path fill="url(#__lottie_element_10)" fill-opacity="1" d=" M0,6.5 C-3.5840001106262207,6.5 -6.5,3.5840001106262207 -6.5,0 C-6.5,-3.5840001106262207 -3.5840001106262207,-6.5 0,-6.5 C3.5840001106262207,-6.5 6.5,-3.5840001106262207 6.5,0 C6.5,3.5840001106262207 3.5840001106262207,6.5 0,6.5z"></path></g></g></g><g style="display: block;" transform="matrix(1,0,0,1,26.75,54.5)" opacity="1"><g opacity="0.3" transform="matrix(1,0,0,1,-11.5,0)"></g><g opacity="0.3" transform="matrix(1,0,0,1,-11.5,0)"><g opacity="1" transform="matrix(1,0,0,1,380.75,215)"><path fill="rgb(222,217,212)" fill-opacity="1" d=" M0,23 C-12.682999610900879,23 -23,12.682999610900879 -23,0 C-23,-12.682999610900879 -12.682999610900879,-23 0,-23 C12.682999610900879,-23 23,-12.682999610900879 23,0 C23,12.682999610900879 12.682999610900879,23 0,23z"></path></g></g><g opacity="0.3" transform="matrix(1,0,0,1,-11.5,0)"><g opacity="1" transform="matrix(1,0,0,1,380.75,215)"><path fill="rgb(222,217,212)" fill-opacity="1" d=" M19,0 C19,10.493000030517578 10.493000030517578,19 0,19 C-10.493000030517578,19 -19,10.493000030517578 -19,0 C-19,-10.493000030517578 -10.493000030517578,-19 0,-19 C10.493000030517578,-19 19,-10.493000030517578 19,0z"></path></g></g><g opacity="0.5" transform="matrix(1,0,0,1,-11.5,0)"><g opacity="1" transform="matrix(1,0,0,1,380.75,215)"><path fill="url(#__lottie_element_6)" fill-opacity="1" d=" M0,15 C-8.270999908447266,15 -15,8.270999908447266 -15,0 C-15,-8.270999908447266 -8.270999908447266,-15 0,-15 C8.270999908447266,-15 15,-8.270999908447266 15,0 C15,8.270999908447266 8.270999908447266,15 0,15z"></path></g></g></g></g></svg>