<svg xmlns="http://www.w3.org/2000/svg" xmlns:xlink="http://www.w3.org/1999/xlink" viewBox="0 0 512 512" width="512" height="512" style="width: 100%; height: 100%; transform: translate3d(0,0,0); content-visibility: visible;" preserveAspectRatio="xMidYMid meet"><defs><clipPath id="__lottie_element_2"><rect width="512" height="512" x="0" y="0"></rect></clipPath><linearGradient id="__lottie_element_6" spreadMethod="pad" gradientUnits="userSpaceOnUse" x1="152" y1="211.5" x2="151.75" y2="194.75"><stop offset="0%" stop-color="rgb(38,39,40)"></stop><stop offset="51%" stop-color="rgb(30,31,32)"></stop><stop offset="100%" stop-color="rgb(22,23,25)"></stop></linearGradient><linearGradient id="__lottie_element_7" spreadMethod="pad" gradientUnits="userSpaceOnUse" x1="141" y1="136" x2="127" y2="154.75"><stop offset="0%" stop-color="rgb(22,23,23)"></stop><stop offset="13%" stop-color="rgb(46,46,46)"></stop><stop offset="34%" stop-color="rgb(70,70,70)"></stop><stop offset="69%" stop-color="rgb(46,46,46)"></stop><stop offset="92%" stop-color="rgb(22,23,23)"></stop></linearGradient><linearGradient id="__lottie_element_8" spreadMethod="pad" gradientUnits="userSpaceOnUse" x1="196.125" y1="200.25" x2="208.75" y2="209.625"><stop offset="0%" stop-color="rgb(0,0,0)"></stop><stop offset="37%" stop-color="rgb(0,0,0)"></stop><stop offset="100%" stop-color="rgb(0,0,0)"></stop></linearGradient><mask id="__lottie_element_10"><path fill="url(#__lottie_element_9)" d=" M202.93800354003906,192.875 C203.18800354003906,193 199.81300354003906,204.125 189.68800354003906,208.125 C194.31300354003906,213.25 203.87600708007812,215.28199768066406 208.43800354003906,209.625 C211.56300354003906,205.75 213.18800354003906,198.375 202.93800354003906,192.875z"></path></mask><linearGradient id="__lottie_element_9" spreadMethod="pad" gradientUnits="userSpaceOnUse" x1="196.125" y1="200.25" x2="208.75" y2="209.625"><stop stop-color="rgb(255,255,255)" offset="0%" stop-opacity="0"></stop><stop stop-color="rgb(255,255,255)" offset="39%" stop-opacity="0.5"></stop><stop stop-color="rgb(255,255,255)" offset="100%" stop-opacity="1"></stop></linearGradient><radialGradient id="__lottie_element_11" spreadMethod="pad" gradientUnits="userSpaceOnUse" cx="166" cy="142.25" r="66.2872536767062" fx="166" fy="142.25"><stop offset="0%" stop-color="rgb(255,255,255)"></stop><stop offset="37%" stop-color="rgb(255,255,255)"></stop><stop offset="100%" stop-color="rgb(255,255,255)"></stop></radialGradient><mask id="__lottie_element_13"><path fill="url(#__lottie_element_12)" d=" M109.18800354003906,114.25 C108.93800354003906,114.75 105.43800354003906,118 105.43800354003906,118.25 C202.93800354003906,195.25 209.18800354003906,199.5 210.43800354003906,206.375 C214.06300354003906,195.75 201.18800354003906,193 109.18800354003906,114.25z"></path></mask><radialGradient id="__lottie_element_12" spreadMethod="pad" gradientUnits="userSpaceOnUse" cx="166" cy="142.25" r="66.2872536767062" fx="166" fy="142.25"><stop stop-color="rgb(255,255,255)" offset="0%" stop-opacity="1"></stop><stop stop-color="rgb(255,255,255)" offset="39%" stop-opacity="0.5"></stop><stop stop-color="rgb(255,255,255)" offset="100%" stop-opacity="0"></stop></radialGradient><radialGradient id="__lottie_element_14" spreadMethod="pad" gradientUnits="userSpaceOnUse" cx="133.75" cy="173.75" r="68.03032412093889" fx="133.75" fy="173.75"><stop offset="0%" stop-color="rgb(255,255,255)"></stop><stop offset="37%" stop-color="rgb(255,255,255)"></stop><stop offset="100%" stop-color="rgb(255,255,255)"></stop></radialGradient><mask id="__lottie_element_16"><path fill="url(#__lottie_element_15)" d=" M84.56300354003906,133.125 C83.49099731445312,132.43499755859375 82.93800354003906,137.75 83.18800354003906,137.75 C178.56300354003906,198.125 196.81300354003906,220.25 206.43800354003906,211.125 C203.43800354003906,220.125 149.18800354003906,174.75 84.56300354003906,133.125z"></path></mask><radialGradient id="__lottie_element_15" spreadMethod="pad" gradientUnits="userSpaceOnUse" cx="133.75" cy="173.75" r="68.03032412093889" fx="133.75" fy="173.75"><stop stop-color="rgb(255,255,255)" offset="0%" stop-opacity="1"></stop><stop stop-color="rgb(255,255,255)" offset="39%" stop-opacity="0.5"></stop><stop stop-color="rgb(255,255,255)" offset="100%" stop-opacity="0"></stop></radialGradient><radialGradient id="__lottie_element_17" spreadMethod="pad" gradientUnits="userSpaceOnUse" cx="83" cy="99" r="38.1526539050693" fx="83" fy="99"><stop offset="0%" stop-color="rgb(74,76,77)"></stop><stop offset="0%" stop-color="rgb(83,85,87)"></stop><stop offset="0%" stop-color="rgb(93,94,96)"></stop><stop offset="50%" stop-color="rgb(61,63,65)"></stop><stop offset="100%" stop-color="rgb(29,31,34)"></stop></radialGradient><linearGradient id="__lottie_element_18" spreadMethod="pad" gradientUnits="userSpaceOnUse" x1="146.75" y1="165.75" x2="156.625" y2="152.5"><stop offset="0%" stop-color="rgb(42,43,45)"></stop><stop offset="26%" stop-color="rgb(86,88,90)"></stop><stop offset="51%" stop-color="rgb(131,134,134)"></stop><stop offset="76%" stop-color="rgb(86,88,90)"></stop><stop offset="100%" stop-color="rgb(42,43,45)"></stop></linearGradient><linearGradient id="__lottie_element_19" spreadMethod="pad" gradientUnits="userSpaceOnUse" x1="112.875" y1="111.125" x2="91.875" y2="138.75"><stop offset="0%" stop-color="rgb(67,68,70)"></stop><stop offset="9%" stop-color="rgb(99,101,102)"></stop><stop offset="46%" stop-color="rgb(131,134,134)"></stop><stop offset="62%" stop-color="rgb(99,101,102)"></stop><stop offset="74%" stop-color="rgb(67,68,70)"></stop></linearGradient><linearGradient id="__lottie_element_23" spreadMethod="pad" gradientUnits="userSpaceOnUse" x1="28.5" y1="-171" x2="34.5" y2="8.5"><stop offset="0%" stop-color="rgb(133,165,230)"></stop><stop offset="50%" stop-color="rgb(93,124,192)"></stop><stop offset="100%" stop-color="rgb(52,84,154)"></stop></linearGradient><linearGradient id="__lottie_element_24" spreadMethod="pad" gradientUnits="userSpaceOnUse" x1="-13.5" y1="-7.5" x2="-11.5" y2="-210.5"><stop offset="0%" stop-color="rgb(54,79,140)" stop-opacity="0"></stop><stop offset="50%" stop-color="rgb(54,79,140)" stop-opacity="0.5"></stop><stop offset="100%" stop-color="rgb(54,79,140)" stop-opacity="1"></stop></linearGradient><radialGradient id="__lottie_element_25" spreadMethod="pad" gradientUnits="userSpaceOnUse" cx="10" cy="-118.5" r="136.7132034589198" fx="10" fy="-118.5"><stop offset="0%" stop-color="rgb(147,180,246)" stop-opacity="1"></stop><stop offset="50%" stop-color="rgb(147,180,246)" stop-opacity="0.5"></stop><stop offset="100%" stop-color="rgb(147,180,246)" stop-opacity="0"></stop></radialGradient><linearGradient id="__lottie_element_29" spreadMethod="pad" gradientUnits="userSpaceOnUse" x1="-3.9260001182556152" y1="89.5719985961914" x2="-3.9260001182556152" y2="111.40899658203125"><stop offset="0%" stop-color="rgb(255,168,0)" stop-opacity="1"></stop><stop offset="65%" stop-color="rgb(255,168,0)" stop-opacity="0.5"></stop><stop offset="100%" stop-color="rgb(255,168,0)" stop-opacity="0"></stop></linearGradient><linearGradient id="__lottie_element_30" spreadMethod="pad" gradientUnits="userSpaceOnUse" x1="-3.9260001182556152" y1="99.6969985961914" x2="-3.9260001182556152" y2="72.13500213623047"><stop offset="10%" stop-color="rgb(219,110,0)" stop-opacity="1"></stop><stop offset="51%" stop-color="rgb(219,110,0)" stop-opacity="0.5"></stop><stop offset="80%" stop-color="rgb(219,110,0)" stop-opacity="0"></stop></linearGradient><radialGradient id="__lottie_element_31" spreadMethod="pad" gradientUnits="userSpaceOnUse" cx="-4.926000118255615" cy="62.696998596191406" r="35.147000789642334" fx="-4.926000118255615" fy="62.696998596191406"><stop offset="40%" stop-color="rgb(255,168,0)" stop-opacity="0"></stop><stop offset="76%" stop-color="rgb(255,168,0)" stop-opacity="0.5"></stop><stop offset="100%" stop-color="rgb(255,168,0)" stop-opacity="1"></stop></radialGradient><linearGradient id="__lottie_element_32" spreadMethod="pad" gradientUnits="userSpaceOnUse" x1="-3.9260001182556152" y1="58.696998596191406" x2="-3.9260001182556152" y2="78.00800323486328"><stop offset="0%" stop-color="rgb(255,255,255)" stop-opacity="1"></stop><stop offset="50%" stop-color="rgb(255,255,255)" stop-opacity="0.5"></stop><stop offset="99%" stop-color="rgb(255,255,255)" stop-opacity="0"></stop></linearGradient><linearGradient id="__lottie_element_36" spreadMethod="pad" gradientUnits="userSpaceOnUse" x1="59.07400131225586" y1="10.696999549865723" x2="74.9020004272461" y2="35.19300079345703"><stop offset="0%" stop-color="rgb(66,0,0)"></stop><stop offset="37%" stop-color="rgb(118,40,0)"></stop><stop offset="100%" stop-color="rgb(170,80,0)"></stop></linearGradient><radialGradient id="__lottie_element_37" spreadMethod="pad" gradientUnits="userSpaceOnUse" cx="76.0739974975586" cy="29.69700050354004" r="12.561004638671875" fx="76.0739974975586" fy="29.69700050354004"><stop offset="0%" stop-color="rgb(246,175,0)" stop-opacity="1"></stop><stop offset="50%" stop-color="rgb(246,175,0)" stop-opacity="0.5"></stop><stop offset="100%" stop-color="rgb(246,175,0)" stop-opacity="0"></stop></radialGradient><linearGradient id="__lottie_element_38" spreadMethod="pad" gradientUnits="userSpaceOnUse" x1="57.07400131225586" y1="-1.3029999732971191" x2="57.07400131225586" y2="9.519000053405762"><stop offset="0%" stop-color="rgb(255,255,255)" stop-opacity="1"></stop><stop offset="60%" stop-color="rgb(255,255,255)" stop-opacity="0.5"></stop><stop offset="100%" stop-color="rgb(255,255,255)" stop-opacity="0"></stop></linearGradient><linearGradient id="__lottie_element_39" spreadMethod="pad" gradientUnits="userSpaceOnUse" x1="-77.0510025024414" y1="7.447000026702881" x2="-59.347999572753906" y2="35.94200134277344"><stop offset="0%" stop-color="rgb(66,0,0)"></stop><stop offset="37%" stop-color="rgb(118,40,0)"></stop><stop offset="100%" stop-color="rgb(170,80,0)"></stop></linearGradient><radialGradient id="__lottie_element_40" spreadMethod="pad" gradientUnits="userSpaceOnUse" cx="-59.92599868774414" cy="29.69700050354004" r="12.560997009277344" fx="-59.92599868774414" fy="29.69700050354004"><stop offset="0%" stop-color="rgb(246,175,0)" stop-opacity="1"></stop><stop offset="50%" stop-color="rgb(246,175,0)" stop-opacity="0.5"></stop><stop offset="100%" stop-color="rgb(246,175,0)" stop-opacity="0"></stop></radialGradient><linearGradient id="__lottie_element_41" spreadMethod="pad" gradientUnits="userSpaceOnUse" x1="-78.9260025024414" y1="-1.3029999732971191" x2="-78.9260025024414" y2="9.519000053405762"><stop offset="0%" stop-color="rgb(255,255,255)" stop-opacity="1"></stop><stop offset="60%" stop-color="rgb(255,255,255)" stop-opacity="0.5"></stop><stop offset="100%" stop-color="rgb(255,255,255)" stop-opacity="0"></stop></linearGradient><linearGradient id="__lottie_element_48" spreadMethod="pad" gradientUnits="userSpaceOnUse" x1="-3.5230000019073486" y1="117.01100158691406" x2="-3.5230000019073486" y2="128.1199951171875"><stop offset="0%" stop-color="rgb(255,168,0)" stop-opacity="1"></stop><stop offset="50%" stop-color="rgb(255,168,0)" stop-opacity="0.5"></stop><stop offset="100%" stop-color="rgb(255,168,0)" stop-opacity="0"></stop></linearGradient><radialGradient id="__lottie_element_49" spreadMethod="pad" gradientUnits="userSpaceOnUse" cx="-3.5230000019073486" cy="134.01100158691406" r="46.09299969673157" fx="-3.5230000019073486" fy="134.01100158691406"><stop offset="0%" stop-color="rgb(255,255,255)" stop-opacity="1"></stop><stop offset="62%" stop-color="rgb(255,255,255)" stop-opacity="0.5"></stop><stop offset="100%" stop-color="rgb(255,255,255)" stop-opacity="0"></stop></radialGradient><linearGradient id="__lottie_element_50" spreadMethod="pad" gradientUnits="userSpaceOnUse" x1="-3.5230000019073486" y1="135.76100158691406" x2="-3.5230000019073486" y2="122.95600128173828"><stop offset="0%" stop-color="rgb(88,11,14)" stop-opacity="0"></stop><stop offset="34%" stop-color="rgb(88,11,14)" stop-opacity="0.5"></stop><stop offset="75%" stop-color="rgb(88,11,14)" stop-opacity="1"></stop></linearGradient><radialGradient id="__lottie_element_51" spreadMethod="pad" gradientUnits="userSpaceOnUse" cx="-3.5230000019073486" cy="153.01100158691406" r="28.551410372737077" fx="-3.5230000019073486" fy="153.01100158691406"><stop offset="10%" stop-color="rgb(219,110,0)" stop-opacity="1"></stop><stop offset="66%" stop-color="rgb(219,110,0)" stop-opacity="0.5"></stop><stop offset="100%" stop-color="rgb(219,110,0)" stop-opacity="0"></stop></radialGradient><linearGradient id="__lottie_element_55" spreadMethod="pad" gradientUnits="userSpaceOnUse" x1="-76.5" y1="66" x2="8.5" y2="-82"><stop offset="4%" stop-color="rgb(38,51,107)"></stop><stop offset="17%" stop-color="rgb(83,92,139)"></stop><stop offset="50%" stop-color="rgb(128,133,171)"></stop><stop offset="91%" stop-color="rgb(90,100,136)"></stop><stop offset="100%" stop-color="rgb(53,67,100)"></stop></linearGradient><linearGradient id="__lottie_element_56" spreadMethod="pad" gradientUnits="userSpaceOnUse" x1="-77" y1="44.5" x2="-5" y2="-80.5"><stop offset="0%" stop-color="rgb(171,19,24)"></stop><stop offset="6%" stop-color="rgb(197,25,40)"></stop><stop offset="50%" stop-color="rgb(223,32,55)"></stop><stop offset="94%" stop-color="rgb(182,26,50)"></stop><stop offset="100%" stop-color="rgb(142,21,46)"></stop></linearGradient><linearGradient id="__lottie_element_60" spreadMethod="pad" gradientUnits="userSpaceOnUse" x1="-4.5229997634887695" y1="-95.98899841308594" x2="-4.5229997634887695" y2="130.96600341796875"><stop offset="0%" stop-color="rgb(255,216,0)" stop-opacity="1"></stop><stop offset="50%" stop-color="rgb(255,216,0)" stop-opacity="0.5"></stop><stop offset="100%" stop-color="rgb(255,216,0)" stop-opacity="0"></stop></linearGradient><linearGradient id="__lottie_element_61" spreadMethod="pad" gradientUnits="userSpaceOnUse" x1="-4.5229997634887695" y1="-194.98899841308594" x2="-4.5229997634887695" y2="177.42799377441406"><stop offset="6%" stop-color="rgb(255,216,0)" stop-opacity="0"></stop><stop offset="15%" stop-color="rgb(255,216,0)" stop-opacity="0.5"></stop><stop offset="50%" stop-color="rgb(255,216,0)" stop-opacity="1"></stop><stop offset="88%" stop-color="rgb(255,216,0)" stop-opacity="0.5"></stop><stop offset="100%" stop-color="rgb(255,216,0)" stop-opacity="0"></stop></linearGradient><linearGradient id="__lottie_element_62" spreadMethod="pad" gradientUnits="userSpaceOnUse" x1="-46.104000091552734" y1="-129.8699951171875" x2="-85.71399688720703" y2="-41.55799865722656"><stop offset="0%" stop-color="rgb(219,110,0)"></stop><stop offset="50%" stop-color="rgb(219,110,0)"></stop><stop offset="100%" stop-color="rgb(219,110,0)"></stop></linearGradient><mask id="__lottie_element_64"><path fill="url(#__lottie_element_63)" d=" M-0.6489999890327454,-188.96099853515625 C-104.54499816894531,-240.25999450683594 -180.5189971923828,-59.09000015258789 -136.68800354003906,-41.55799865722656 C-131.8179931640625,-83.11599731445312 -121.4280014038086,-102.5979995727539 -117.53199768066406,-108.44200134277344 C-111.68800354003906,-87.66300201416016 9.090999603271484,-16.233999252319336 37.6619987487793,14.9350004196167 C65.58399963378906,13.63599967956543 82.23899841308594,-148.03500366210938 -0.6489999890327454,-188.96099853515625z"></path></mask><linearGradient id="__lottie_element_63" spreadMethod="pad" gradientUnits="userSpaceOnUse" x1="-46.104000091552734" y1="-129.8699951171875" x2="-85.71399688720703" y2="-41.55799865722656"><stop stop-color="rgb(255,255,255)" offset="0%" stop-opacity="1"></stop><stop stop-color="rgb(255,255,255)" offset="51%" stop-opacity="0.5"></stop><stop stop-color="rgb(255,255,255)" offset="100%" stop-opacity="0"></stop></linearGradient><linearGradient id="__lottie_element_71" spreadMethod="pad" gradientUnits="userSpaceOnUse" x1="4.5" y1="133" x2="5.5" y2="220.5"><stop offset="0%" stop-color="rgb(38,54,77)"></stop><stop offset="25%" stop-color="rgb(55,87,123)"></stop><stop offset="49%" stop-color="rgb(72,119,169)"></stop><stop offset="89%" stop-color="rgb(70,116,164)"></stop><stop offset="100%" stop-color="rgb(68,112,160)"></stop></linearGradient><linearGradient id="__lottie_element_72" spreadMethod="pad" gradientUnits="userSpaceOnUse" x1="-163.5" y1="123.5" x2="-135.5" y2="228"><stop offset="0%" stop-color="rgb(143,40,51)"></stop><stop offset="22%" stop-color="rgb(158,44,53)"></stop><stop offset="51%" stop-color="rgb(173,48,56)"></stop><stop offset="78%" stop-color="rgb(158,44,53)"></stop><stop offset="100%" stop-color="rgb(143,40,51)"></stop></linearGradient><linearGradient id="__lottie_element_73" spreadMethod="pad" gradientUnits="userSpaceOnUse" x1="184.5" y1="129.5" x2="142.5" y2="230"><stop offset="0%" stop-color="rgb(143,40,51)"></stop><stop offset="22%" stop-color="rgb(158,44,53)"></stop><stop offset="51%" stop-color="rgb(173,48,56)"></stop><stop offset="78%" stop-color="rgb(158,44,53)"></stop><stop offset="100%" stop-color="rgb(143,40,51)"></stop></linearGradient><linearGradient id="__lottie_element_74" spreadMethod="pad" gradientUnits="userSpaceOnUse" x1="29" y1="149.5" x2="26.5" y2="216.5"><stop offset="0%" stop-color="rgb(140,16,19)"></stop><stop offset="50%" stop-color="rgb(175,31,34)"></stop><stop offset="100%" stop-color="rgb(211,46,50)"></stop></linearGradient><radialGradient id="__lottie_element_75" spreadMethod="pad" gradientUnits="userSpaceOnUse" cx="-119" cy="130" r="84.59905436823747" fx="-119" fy="130"><stop offset="0%" stop-color="rgb(255,255,255)"></stop><stop offset="31%" stop-color="rgb(255,255,255)"></stop><stop offset="100%" stop-color="rgb(255,255,255)"></stop></radialGradient><mask id="__lottie_element_77"><path fill="url(#__lottie_element_76)" d=" M-48.75,126.5 C-101,128 -162.5,143.6020050048828 -162.5,148.75 C-162.5,150.25 -159.25,157.75 -158.75,158 C-145.5,149.5 -83.75,140.75 -38.25,134 C-32.22800064086914,133.10699462890625 -43.54999923706055,126.35099792480469 -48.75,126.5z"></path></mask><radialGradient id="__lottie_element_76" spreadMethod="pad" gradientUnits="userSpaceOnUse" cx="-119" cy="130" r="84.59905436823747" fx="-119" fy="130"><stop stop-color="rgb(255,255,255)" offset="0%" stop-opacity="1"></stop><stop stop-color="rgb(255,255,255)" offset="32%" stop-opacity="0.5"></stop><stop stop-color="rgb(255,255,255)" offset="100%" stop-opacity="0"></stop></radialGradient><radialGradient id="__lottie_element_78" spreadMethod="pad" gradientUnits="userSpaceOnUse" cx="134.5" cy="128.5" r="77.47257579298626" fx="134.5" fy="128.5"><stop offset="0%" stop-color="rgb(255,255,255)"></stop><stop offset="31%" stop-color="rgb(255,255,255)"></stop><stop offset="100%" stop-color="rgb(255,255,255)"></stop></radialGradient><mask id="__lottie_element_80"><path fill="url(#__lottie_element_79)" d=" M78,126.75 C77.75,126.75 61.483001708984375,133.7530059814453 74.75,135.75 C98,139.25 167,152.25 174.25,157.75 C174.5,157.25 180.13600158691406,148.77200317382812 179,148.25 C136,128.5 90.75,130 78,126.75z"></path></mask><radialGradient id="__lottie_element_79" spreadMethod="pad" gradientUnits="userSpaceOnUse" cx="134.5" cy="128.5" r="77.47257579298626" fx="134.5" fy="128.5"><stop stop-color="rgb(255,255,255)" offset="0%" stop-opacity="1"></stop><stop stop-color="rgb(255,255,255)" offset="32%" stop-opacity="0.5"></stop><stop stop-color="rgb(255,255,255)" offset="100%" stop-opacity="0"></stop></radialGradient><linearGradient id="__lottie_element_81" spreadMethod="pad" gradientUnits="userSpaceOnUse" x1="113" y1="131" x2="118.5" y2="163.5"><stop offset="0%" stop-color="rgb(36,57,85)" stop-opacity="1"></stop><stop offset="47%" stop-color="rgb(40,39,68)" stop-opacity="0.5"></stop><stop offset="100%" stop-color="rgb(44,20,52)" stop-opacity="0"></stop></linearGradient><linearGradient id="__lottie_element_82" spreadMethod="pad" gradientUnits="userSpaceOnUse" x1="-100.5" y1="133.75" x2="-106.25" y2="157"><stop offset="0%" stop-color="rgb(36,57,85)" stop-opacity="1"></stop><stop offset="47%" stop-color="rgb(40,39,68)" stop-opacity="0.5"></stop><stop offset="100%" stop-color="rgb(44,20,52)" stop-opacity="0"></stop></linearGradient><linearGradient id="__lottie_element_83" spreadMethod="pad" gradientUnits="userSpaceOnUse" x1="-75" y1="107.5" x2="-18.25" y2="160.75"><stop offset="0%" stop-color="rgb(111,24,25)" stop-opacity="0"></stop><stop offset="50%" stop-color="rgb(111,24,25)" stop-opacity="0.5"></stop><stop offset="100%" stop-color="rgb(111,24,26)" stop-opacity="1"></stop></linearGradient><linearGradient id="__lottie_element_84" spreadMethod="pad" gradientUnits="userSpaceOnUse" x1="90" y1="109.5" x2="34.5" y2="167.25"><stop offset="0%" stop-color="rgb(111,24,25)" stop-opacity="0"></stop><stop offset="50%" stop-color="rgb(111,24,25)" stop-opacity="0.5"></stop><stop offset="100%" stop-color="rgb(111,24,26)" stop-opacity="1"></stop></linearGradient><radialGradient id="__lottie_element_85" spreadMethod="pad" gradientUnits="userSpaceOnUse" cx="6.5" cy="201.5" r="80.50155278005512" fx="6.5" fy="201.5"><stop offset="0%" stop-color="rgb(67,92,132)"></stop><stop offset="50%" stop-color="rgb(74,111,155)"></stop><stop offset="100%" stop-color="rgb(81,131,178)"></stop></radialGradient><linearGradient id="__lottie_element_92" spreadMethod="pad" gradientUnits="userSpaceOnUse" x1="0" y1="142.64700317382812" x2="0.9800000190734863" y2="178.43099975585938"><stop offset="0%" stop-color="rgb(255,216,0)" stop-opacity="1"></stop><stop offset="50%" stop-color="rgb(255,216,0)" stop-opacity="0.5"></stop><stop offset="100%" stop-color="rgb(255,216,0)" stop-opacity="0"></stop></linearGradient><radialGradient id="__lottie_element_93" spreadMethod="pad" gradientUnits="userSpaceOnUse" cx="-1.4709999561309814" cy="65.19599914550781" r="53.92422646838295" fx="-1.4709999561309814" fy="65.19599914550781"><stop offset="27%" stop-color="rgb(181,102,6)"></stop><stop offset="82%" stop-color="rgb(181,102,6)"></stop><stop offset="100%" stop-color="rgb(181,102,6)"></stop></radialGradient><mask id="__lottie_element_95"><path fill="url(#__lottie_element_94)" d=" M38.58599853515625,78.58499908447266 C38.58599853515625,78.58499908447266 -41.566001892089844,78.58499908447266 -41.566001892089844,78.58499908447266 C-41.566001892089844,78.58499908447266 -32.12799835205078,125.24500274658203 -67.06199645996094,127.8010025024414 C-71.83399963378906,215.4409942626953 48.26499938964844,256.6180114746094 60.6510009765625,128.78199768066406 C31.597999572753906,127.20600128173828 38.58599853515625,78.58499908447266 38.58599853515625,78.58499908447266z"></path></mask><radialGradient id="__lottie_element_94" spreadMethod="pad" gradientUnits="userSpaceOnUse" cx="-1.4709999561309814" cy="65.19599914550781" r="53.92422646838295" fx="-1.4709999561309814" fy="65.19599914550781"><stop stop-color="rgb(255,255,255)" offset="29%" stop-opacity="1"></stop><stop stop-color="rgb(255,255,255)" offset="82%" stop-opacity="0.5"></stop><stop stop-color="rgb(255,255,255)" offset="100%" stop-opacity="0"></stop></radialGradient><radialGradient id="__lottie_element_96" spreadMethod="pad" gradientUnits="userSpaceOnUse" cx="-1.5420000553131104" cy="109.23300170898438" r="66.90714796713634" fx="-1.5420000553131104" fy="109.23300170898438"><stop offset="20%" stop-color="rgb(255,168,0)" stop-opacity="1"></stop><stop offset="68%" stop-color="rgb(255,168,0)" stop-opacity="0.5"></stop><stop offset="100%" stop-color="rgb(255,168,0)" stop-opacity="0"></stop></radialGradient><linearGradient id="__lottie_element_100" spreadMethod="pad" gradientUnits="userSpaceOnUse" x1="30.25" y1="60.25" x2="80.5" y2="97.25"><stop offset="0%" stop-color="rgb(85,7,4)"></stop><stop offset="85%" stop-color="rgb(124,24,23)"></stop><stop offset="100%" stop-color="rgb(164,42,43)"></stop></linearGradient><linearGradient id="__lottie_element_101" spreadMethod="pad" gradientUnits="userSpaceOnUse" x1="-9.25" y1="55.75" x2="-65.25" y2="103"><stop offset="0%" stop-color="rgb(85,7,4)"></stop><stop offset="85%" stop-color="rgb(124,24,23)"></stop><stop offset="100%" stop-color="rgb(164,42,43)"></stop></linearGradient><linearGradient id="__lottie_element_102" spreadMethod="pad" gradientUnits="userSpaceOnUse" x1="-83.75" y1="86" x2="97.5" y2="83"><stop offset="0%" stop-color="rgb(81,131,179)"></stop><stop offset="6%" stop-color="rgb(62,94,130)"></stop><stop offset="50%" stop-color="rgb(44,57,80)"></stop><stop offset="92%" stop-color="rgb(62,94,130)"></stop><stop offset="100%" stop-color="rgb(81,131,179)"></stop></linearGradient></defs><g clip-path="url(#__lottie_element_2)"><g style="display: block;" transform="matrix(1,0,0,1,256,256)" opacity="1"><g opacity="1" transform="matrix(1,0,0,1,0,0)"><path fill="url(#__lottie_element_100)" fill-opacity="1" d=" M0,58 C-44,235.5 72.25,168.75 99.75,75.25 C58,61.75 17.25,55 0,58z"></path></g><g opacity="1" transform="matrix(1,0,0,1,0,0)"><path fill="url(#__lottie_element_101)" fill-opacity="1" d=" M10.25,58.25 C-27.25,58.75 -83.5,70 -86.75,77.25 C-38.75,193.25 40.5,211 10.25,58.25z"></path></g><g opacity="1" transform="matrix(1,0,0,1,0,0)"><path fill="url(#__lottie_element_102)" fill-opacity="1" d=" M-98.5,84.75 C-106.5739974975586,90.16999816894531 -97.9540023803711,93.59200286865234 -91.5,90 C-36.25,59.25 46.5,58.25 99.75,85.75 C118.80799865722656,95.59200286865234 112.76000213623047,86.60399627685547 107.5,82.25 C62.5,45 -44.5,48.5 -98.5,84.75z"></path></g><g opacity="1" transform="matrix(1,0,0,1,0,0)"><path stroke-linecap="round" stroke-linejoin="miter" fill-opacity="0" stroke-miterlimit="4" stroke="rgb(36,57,85)" stroke-opacity="1" stroke-width="8" d=" M-87.625,77.09400177001953 C-42.875,52.59400177001953 51.75,46.875 99.5,75.5"></path></g></g><g style="display: block;" transform="matrix(1.0199999809265137,0,0,1.0199999809265137,261.2698059082031,257.24932861328125)" opacity="1"><g opacity="1" transform="matrix(1,0,0,1,0,0)"><path fill="rgb(255,168,0)" fill-opacity="1" d=" M-40.95100021362305,79.16699981689453 C-37.02899932861328,123.7750015258789 -54.1870002746582,122.79399871826172 -67.91200256347656,128.67599487304688 C-55.65700149536133,236.0290069580078 51.20600128173828,237.99000549316406 60.52000045776367,128.67599487304688 C51.69599914550781,128.18600463867188 32.57899856567383,122.30400085449219 37.97100067138672,79.65699768066406 C38.46099853515625,76.71600341796875 -38.5,75.73600006103516 -40.95100021362305,79.16699981689453z"></path></g><g opacity="1" transform="matrix(1,0,0,1,0,0)"><path fill="url(#__lottie_element_92)" fill-opacity="1" d=" M23.020000457763672,79.65699768066406 C23.09000015258789,77.63700103759766 -25.486000061035156,77.6760025024414 -25.510000228881836,79.16699981689453 C-26,109.80400085449219 -35.80400085449219,121.0790023803711 -35.80400085449219,121.81400299072266 C-13.744999885559082,155.14700317382812 -1.2300000190734863,185.19700622558594 1.2059999704360962,184.92599487304688 C3.4119999408721924,184.68099975585938 14.440999984741211,154.656005859375 34.784000396728516,123.52899932861328 C34.53900146484375,123.03900146484375 22.040000915527344,108.08799743652344 23.020000457763672,79.65699768066406z"></path></g><g opacity="1" transform="matrix(1,0,0,1,0,0)"><path fill="url(#__lottie_element_93)" mask="url(#__lottie_element_95)" fill-opacity="1" d="M0 0 M38.58599853515625,78.58499908447266 C38.58599853515625,78.58499908447266 -41.566001892089844,78.58499908447266 -41.566001892089844,78.58499908447266 C-41.566001892089844,78.58499908447266 -32.12799835205078,125.24500274658203 -67.06199645996094,127.8010025024414 C-71.83399963378906,215.4409942626953 48.26499938964844,256.6180114746094 60.6510009765625,128.78199768066406 C31.597999572753906,127.20600128173828 38.58599853515625,78.58499908447266 38.58599853515625,78.58499908447266z"></path></g><g opacity="0.3" transform="matrix(1,0,0,1,0,0)"><path fill="url(#__lottie_element_96)" fill-opacity="1" d=" M39.58599853515625,78.58499908447266 C39.58599853515625,78.58499908447266 -40.566001892089844,78.58499908447266 -40.566001892089844,78.58499908447266 C-40.566001892089844,78.58499908447266 -32.61800003051758,128.18600463867188 -68.02300262451172,126.82099914550781 C-50.26499938964844,245.83299255371094 59.04899978637695,225.73599243164062 59.20000076293945,128.29200744628906 C28.16699981689453,125.24600219726562 39.58599853515625,78.58499908447266 39.58599853515625,78.58499908447266z"></path></g><g opacity="1" transform="matrix(1,0,0,1,0,0)"><path stroke-linecap="round" stroke-linejoin="round" fill-opacity="0" stroke="rgb(153,71,4)" stroke-opacity="1" stroke-width="8" d=" M59.66999816894531,128.72300720214844 C40.9109992980957,126.71600341796875 34.53900146484375,113.48100280761719 38.58599853515625,78.58499908447266 C37.970001220703125,76.71600341796875 -34.57899856567383,74.26499938964844 -41.566001892089844,78.58499908447266 C-37.029998779296875,115.44100189208984 -47.81399917602539,123.77400207519531 -64.61100006103516,127.74199676513672"></path></g></g><g style="display: block;" transform="matrix(1,0,0,1,256,256)" opacity="1"><g opacity="1" transform="matrix(1,0,0,1,0,0)"><g opacity="1" transform="matrix(1,0,0,1,0,0)"><path fill="rgb(255,168,0)" fill-opacity="1" d=" M167.75,202.75 C159.593994140625,179.44700622558594 98.5,162 37.722999572753906,158.593994140625 C2.5,194.25 14.5,210.25 -19.246000289916992,161.50599670410156 C-90.25,159 -143.08299255371094,167.63299560546875 -155.75,202 C-153.75,205.75 -147.5,214.75 -121.75,215.5 C-122.25,216 138.5,215.25 138,215.25 C144.25,215.25 162.75,213.25 167.75,202.75z"></path></g><g opacity="1" transform="matrix(1,0,0,1,0,0)"><path fill="rgb(255,168,0)" fill-opacity="1" d=" M166.5,202.5 C155.25,176 121.4990005493164,172.58799743652344 56.391998291015625,163.79600524902344 C9,205.5 15.5,243.5 -38.5,155.5 C-132,151 -146.75,181.75 -154.25,202"></path><path stroke-linecap="round" stroke-linejoin="miter" fill-opacity="0" stroke-miterlimit="4" stroke="rgb(219,110,0)" stroke-opacity="1" stroke-width="8" d=" M166.5,202.5 C155.25,176 121.4990005493164,172.58799743652344 56.391998291015625,163.79600524902344 C9,205.5 15.5,243.5 -38.5,155.5 C-132,151 -146.75,181.75 -154.25,202"></path></g></g></g><g style="display: block;" transform="matrix(1,0,0,1,256,256)" opacity="1"><g opacity="1" transform="matrix(1,0,0,1,0,0)"><path fill="url(#__lottie_element_71)" fill-opacity="1" d=" M-165,147.5 C-163.25,155 -130,203.25 -119.25,217.75 C-118.25,217.75 135.75,218.5 135.75,218.5 C149,204.25 178.5,152.25 180,148 C156.22500610351562,136.11300659179688 108.03600311279297,128.39999389648438 55.47800064086914,125.38999938964844 C3.75,219.75 9.75,215 -48.492000579833984,126.12300109863281 C-92.68299865722656,128.9669952392578 -133.48800659179688,134.89500427246094 -165,147.5z"></path></g><g opacity="1" transform="matrix(1,0,0,1,0,0)"><path fill="url(#__lottie_element_72)" fill-opacity="1" d=" M-146.06300354003906,142.31300354003906 C-146.31300354003906,142.56300354003906 -154.25,143.75 -154,144.25 C-153,157 -110,212.875 -108.25,217.625 C-108.25,218.375 -96.09400177001953,217.98399353027344 -95.84400177001953,217.98399353027344 C-106.75,204.25 -139.25,159.00100708007812 -146.06300354003906,142.31300354003906z"></path></g><g opacity="1" transform="matrix(1,0,0,1,0,0)"><path fill="url(#__lottie_element_73)" fill-opacity="1" d=" M161.125,143.5 C153.5,161.375 123.68699645996094,206 110.60900115966797,218.406005859375 C110.60900115966797,218.406005859375 124.64099884033203,218.5 124.76599884033203,218.625 C141.01600646972656,195.875 164.875,155 169.875,146 C170,145.875 161.23500061035156,143.2429962158203 161.125,143.5z"></path></g><g opacity="1" transform="matrix(1,0,0,1,0,0)"><path fill="url(#__lottie_element_74)" fill-opacity="1" d=" M-63.25,135.25 C-42,165.75 -24.25,195.75 -17.5,217.5 C-17.5,217.25 33.0629997253418,218 33.3129997253418,218 C39.5,196 56.5,165.25 76.5,135.25 C31.5,158 14.75,197.5 7.5,197.75 C0.7490000128746033,197.98300170898438 -31,146.5 -63.25,135.25z"></path></g><g opacity="0.3" transform="matrix(1,0,0,1,0,0)"><g opacity="1" transform="matrix(1,0,0,1,0,0)"><path fill="url(#__lottie_element_75)" mask="url(#__lottie_element_77)" fill-opacity="1" d="M0 0 M-48.75,126.5 C-101,128 -162.5,143.6020050048828 -162.5,148.75 C-162.5,150.25 -159.25,157.75 -158.75,158 C-145.5,149.5 -83.75,140.75 -38.25,134 C-32.22800064086914,133.10699462890625 -43.54999923706055,126.35099792480469 -48.75,126.5z"></path></g><g opacity="1" transform="matrix(1,0,0,1,0,0)"><path fill="url(#__lottie_element_78)" mask="url(#__lottie_element_80)" fill-opacity="1" d="M0 0 M78,126.75 C77.75,126.75 61.483001708984375,133.7530059814453 74.75,135.75 C98,139.25 167,152.25 174.25,157.75 C174.5,157.25 180.13600158691406,148.77200317382812 179,148.25 C136,128.5 90.75,130 78,126.75z"></path></g></g><g opacity="1" transform="matrix(1,0,0,1,0,0)"><path fill="url(#__lottie_element_81)" fill-opacity="1" d=" M77.5,127.5 C33,149.5 11,203 7.5,216 C58.5,196 162,171 178.5,147.5 C179.5,147.5 138.5,130 77.5,127.5z"></path></g><g opacity="0.6900000000000001" transform="matrix(1,0,0,1,0,0)"><path fill="url(#__lottie_element_82)" fill-opacity="1" d=" M7,216 C-8.5,215.5 -96.5,176.5 -164.5,147 C-152.5,139.5 -105.53500366210938,129.19900512695312 -47.750999450683594,126.2229995727539 C10.5,214.25 -9.5,173 7,216z"></path></g><g opacity="1" transform="matrix(1,0,0,1,0,0)"><g opacity="1" transform="matrix(1,0,0,1,0,0)"><path stroke-linecap="round" stroke-linejoin="round" fill-opacity="0" stroke="rgb(46,71,105)" stroke-opacity="1" stroke-width="8" d=" M-119.93800354003906,216 C-149.75,180.25 -164,148.25 -164,147.25"></path></g><g opacity="1" transform="matrix(1,0,0,1,0,0)"><path stroke-linecap="round" stroke-linejoin="miter" fill-opacity="0" stroke-miterlimit="4" stroke="rgb(46,71,105)" stroke-opacity="1" stroke-width="8" d=" M178.75,147.5 C171.75,166.75 145,206.5 136.5,216.5"></path></g><g opacity="1" transform="matrix(1,0,0,1,0,0)"><path stroke-linecap="round" stroke-linejoin="miter" fill-opacity="0" stroke-miterlimit="4" stroke="rgb(36,57,85)" stroke-opacity="1" stroke-width="8" d=" M-164.75,147.25 C-129.29200744628906,132.71299743652344 -95.25,130 -47.01599884033203,125.7959976196289 C-42.60499954223633,132.8209991455078 -11.25,179.25 7.014999866485596,197.57200622558594 C16.25,187.25 50.018001556396484,138.1510009765625 57.52199935913086,125.37999725341797 C106.51799774169922,128.3419952392578 155.04200744628906,136.7899932861328 179.25,147.25"></path></g></g><g opacity="1" transform="matrix(1,0,0,1,0,0)"><g opacity="1" transform="matrix(1,0,0,1,0,0)"><path fill="rgb(164,42,43)" fill-opacity="1" d=" M-91.75,80.25 C-119.75,95.25 -136,114.5 -139.5,123 C-61.5,119 -9.5,187.5 7,212.5 C31.5,175.5 81,116.5 153,121.5 C131.5,100.5 104.5,78.625 101,78.625 C69.375,100.875 21.5,170 6.5,198 C-3.5,180.5 -58.625,94.875 -91.75,80.25z"></path></g><g opacity="1" transform="matrix(1,0,0,1,0,0)"><path fill="url(#__lottie_element_83)" fill-opacity="1" d=" M-60.75,103.25 C-88,109.5 -93.5,128.5 -93,129.25 C-74,135.25 -42.25,147.75 6.75,210.25 C14,197 -52.5,107.5 -60.75,103.25z"></path></g><g opacity="1" transform="matrix(1,0,0,1,0,0)"><path fill="url(#__lottie_element_84)" fill-opacity="1" d=" M74.25,99.25 C62.5,111.5 0.5,191.5 7.25,211.75 C52.75,149 90.75,131.25 104,128 C103.5,122.75 87.25,104.75 74.25,99.25z"></path></g><g opacity="1" transform="matrix(1,0,0,1,0,0)"><g opacity="1" transform="matrix(1,0,0,1,0,0)"><path fill="url(#__lottie_element_85)" fill-opacity="1" d=" M-90.75,79.75 C-108.25,86 -134.5,110.75 -140.25,124.25 C-61,117.75 -20,181.25 7,211.5 C61,141 94.5,121.5 151.35400390625,121.35900115966797 C141.91700744628906,105.05699920654297 106.9739990234375,81.41600036621094 99.59200286865234,76.02899932861328 C97.25,80 95.375,82.625 94.91200256347656,83.1520004272461 C95.625,83.375 121.25,102.5 126.26000213623047,112.19999694824219 C42.5,123 9.590999603271484,199.33399963378906 6.5229997634887695,198.23699951171875 C-24.75,147.25 -70.5,116.75 -119.25,113.5 C-119,113.75 -102.875,96.18800354003906 -82.375,85.18800354003906 C-81.875,84.93800354003906 -90,79.5 -90.75,79.75z"></path></g></g><g opacity="1" transform="matrix(1,0,0,1,0,0)"><g opacity="1" transform="matrix(1,0,0,1,0,0)"><path stroke-linecap="round" stroke-linejoin="round" fill-opacity="0" stroke="rgb(84,10,11)" stroke-opacity="1" stroke-width="8" d=" M-61,103 C-40,123.5 7,198.75 7,198 C7,199.25 48,121.5 74.5,99.5"></path></g><g opacity="1" transform="matrix(1,0,0,1,0,0)"><path stroke-linecap="round" stroke-linejoin="round" fill-opacity="0" stroke="rgb(46,71,105)" stroke-opacity="1" stroke-width="8" d=" M-88,77.5 C-115.5,90 -141.5,123.75 -140.5,123.75 C-43,117 -0.75,212.25 7.5,212 C12.75,211.75 57.5,115.5 152.5,122.75 C152.5,122.75 121.25,88.7509994506836 101.25,76.43800354003906"></path></g><g opacity="1" transform="matrix(1,0,0,1,0,0)"><path stroke-linecap="round" stroke-linejoin="miter" fill-opacity="0" stroke-miterlimit="4" stroke="rgb(36,57,85)" stroke-opacity="1" stroke-width="8" d=" M95.75,73.25 C95.5,73.5 117,82.75 152.75,122.25"></path></g><g opacity="1" transform="matrix(1,0,0,1,0,0)"><path stroke-linecap="round" stroke-linejoin="miter" fill-opacity="0" stroke-miterlimit="4" stroke="rgb(36,57,85)" stroke-opacity="1" stroke-width="8" d=" M-140.5,123.75 C-133.5,111.25 -103.5,83.25 -84,75.25"></path></g></g></g></g><g style="display: block;" transform="matrix(0.7699999809265137,0,0,0.7699999809265137,266.00067138671875,212.4998016357422)" opacity="1"><g opacity="1" transform="matrix(1,0,0,1,0,0)"><path fill="rgb(255,168,0)" fill-opacity="1" d=" M-150.2259979248047,-0.6800000071525574 C-150.2259979248047,-0.6800000071525574 -164.0850067138672,-10.10099983215332 -171.37100219726562,2.5230000019073486 C-178.03599548339844,14.071000099182129 -165.2989959716797,73.76799774169922 -153.5330047607422,83.44999694824219 C-146.2949981689453,89.40599822998047 -138.4600067138672,82.05899810791016 -138.4600067138672,82.05899810791016 C-133.68699645996094,78.79299926757812 -141.43299865722656,11.295000076293945 -150.2259979248047,-0.6800000071525574z"></path><path stroke-linecap="round" stroke-linejoin="round" fill-opacity="0" stroke="rgb(219,110,0)" stroke-opacity="1" stroke-width="10" d=" M-150.2259979248047,-0.6800000071525574 C-150.2259979248047,-0.6800000071525574 -164.0850067138672,-10.10099983215332 -171.37100219726562,2.5230000019073486 C-178.03599548339844,14.071000099182129 -165.2989959716797,73.76799774169922 -153.5330047607422,83.44999694824219 C-146.2949981689453,89.40599822998047 -138.4600067138672,82.05899810791016 -138.4600067138672,82.05899810791016 C-133.68699645996094,78.79299926757812 -141.43299865722656,11.295000076293945 -150.2259979248047,-0.6800000071525574z"></path></g><g opacity="1" transform="matrix(1,0,0,1,0,0)"><path fill="rgb(255,168,0)" fill-opacity="1" d=" M141.28399658203125,-0.6800000071525574 C141.28399658203125,-0.6800000071525574 155.1439971923828,-10.10099983215332 162.42999267578125,2.5230000019073486 C169.09500122070312,14.071000099182129 156.35800170898438,73.76799774169922 144.5919952392578,83.44999694824219 C137.35400390625,89.40599822998047 129.51800537109375,82.05899810791016 129.51800537109375,82.05899810791016 C124.74500274658203,78.79299926757812 132.49099731445312,11.295000076293945 141.28399658203125,-0.6800000071525574z"></path><path stroke-linecap="round" stroke-linejoin="round" fill-opacity="0" stroke="rgb(219,110,0)" stroke-opacity="1" stroke-width="10" d=" M141.28399658203125,-0.6800000071525574 C141.28399658203125,-0.6800000071525574 155.1439971923828,-10.10099983215332 162.42999267578125,2.5230000019073486 C169.09500122070312,14.071000099182129 156.35800170898438,73.76799774169922 144.5919952392578,83.44999694824219 C137.35400390625,89.40599822998047 129.51800537109375,82.05899810791016 129.51800537109375,82.05899810791016 C124.74500274658203,78.79299926757812 132.49099731445312,11.295000076293945 141.28399658203125,-0.6800000071525574z"></path></g></g><g style="display: block;" transform="matrix(0.7699999809265137,0,0,0.7699999809265137,266.0003662109375,212.50013732910156)" opacity="1"><g opacity="1" transform="matrix(1,0,0,1,0,0)"><path fill="rgb(255,168,0)" fill-opacity="1" d=" M133.0540008544922,88.39800262451172 C115.86000061035156,156.968994140625 59.8120002746582,207.6750030517578 -3.9210000038146973,207.6750030517578 C-66.51599884033203,207.6750030517578 -120.29499816894531,158.39100646972656 -139.8780059814453,92.04100036621094 C-152.73500061035156,48.47999954223633 -156.4149932861328,-16.525999069213867 -150.97500610351562,-68.28900146484375 C-144.33999633789062,-131.41900634765625 -111.94200134277344,-192.81399536132812 -3.9210000038146973,-192.81399536132812 C98.20500183105469,-192.81399536132812 129.88900756835938,-135.9530029296875 138.0030059814453,-74.2969970703125 C146.16099548339844,-12.303999900817871 143.6820068359375,46.013999938964844 133.0540008544922,88.39800262451172z"></path></g><g opacity="1" transform="matrix(1,0,0,1,0,0)"><path fill="url(#__lottie_element_60)" fill-opacity="1" d=" M133.0540008544922,88.39800262451172 C115.86000061035156,156.968994140625 59.8120002746582,207.6750030517578 -3.9210000038146973,207.6750030517578 C-66.51599884033203,207.6750030517578 -120.29499816894531,158.39100646972656 -139.8780059814453,92.04100036621094 C-152.73500061035156,48.47999954223633 -156.4149932861328,-16.525999069213867 -150.97500610351562,-68.28900146484375 C-144.33999633789062,-131.41900634765625 -111.94200134277344,-192.81399536132812 -3.9210000038146973,-192.81399536132812 C98.20500183105469,-192.81399536132812 129.88900756835938,-135.9530029296875 138.0030059814453,-74.2969970703125 C146.16099548339844,-12.303999900817871 143.6820068359375,46.013999938964844 133.0540008544922,88.39800262451172z"></path></g><g opacity="1" transform="matrix(1,0,0,1,0,0)"><path fill="url(#__lottie_element_61)" fill-opacity="1" d=" M119.24600219726562,75.64099884033203 C103.76799774169922,136.2270050048828 53.314998626708984,181.02999877929688 -4.057000160217285,181.02999877929688 C-60.40399932861328,181.02999877929688 -108.81500244140625,137.48399353027344 -126.44300079345703,78.86000061035156 C-138.01699829101562,40.37099838256836 -138.96099853515625,-25.974000930786133 -133.8350067138672,-62.801998138427734 C-131.13699340820312,-82.18299865722656 -122.72699737548828,-101.29900360107422 -117.76399993896484,-108.23600006103516 C-97.40299987792969,-73.37699890136719 14.28600025177002,-23.37700080871582 76.46299743652344,54.229000091552734 C88.44999694824219,69.19100189208984 96.75399780273438,53.24700164794922 97.27899932861328,52.444000244140625 C96.10399627685547,90.90899658203125 115.58399963378906,89.61000061035156 119.24600219726562,75.64099884033203z"></path></g><g opacity="1" transform="matrix(1,0,0,1,0,0)"><path fill="url(#__lottie_element_62)" mask="url(#__lottie_element_64)" fill-opacity="1" d="M0 0 M-0.6489999890327454,-188.96099853515625 C-104.54499816894531,-240.25999450683594 -180.5189971923828,-59.09000015258789 -136.68800354003906,-41.55799865722656 C-131.8179931640625,-83.11599731445312 -121.4280014038086,-102.5979995727539 -117.53199768066406,-108.44200134277344 C-111.68800354003906,-87.66300201416016 9.090999603271484,-16.233999252319336 37.6619987487793,14.9350004196167 C65.58399963378906,13.63599967956543 82.23899841308594,-148.03500366210938 -0.6489999890327454,-188.96099853515625z"></path></g><g opacity="1" transform="matrix(1,0,0,1,0,0)"><path stroke-linecap="round" stroke-linejoin="round" fill-opacity="0" stroke="rgb(219,110,0)" stroke-opacity="1" stroke-width="10" d=" M133.0540008544922,88.39800262451172 C115.86000061035156,156.968994140625 59.8120002746582,207.6750030517578 -3.9210000038146973,207.6750030517578 C-66.51599884033203,207.6750030517578 -120.29499816894531,158.39100646972656 -139.8780059814453,92.04100036621094 C-152.73500061035156,48.47999954223633 -156.4149932861328,-16.525999069213867 -150.97500610351562,-68.28900146484375 C-144.33999633789062,-131.41900634765625 -111.94200134277344,-192.81399536132812 -3.9210000038146973,-192.81399536132812 C98.20500183105469,-192.81399536132812 129.88900756835938,-135.9530029296875 138.0030059814453,-74.2969970703125 C146.16099548339844,-12.303999900817871 143.6820068359375,46.013999938964844 133.0540008544922,88.39800262451172z"></path></g></g><g style="display: block;" transform="matrix(1,0,0,1,257.5,257)" opacity="1"><g opacity="1" transform="matrix(1,0,0,1,0,0)"><path fill="url(#__lottie_element_55)" fill-opacity="1" d=" M7.5,-152 C-85.5,-68.5 -99.25,10.5 -99,10 C-85.48999786376953,-2.009000062942505 -62.9370002746582,-12.37399959564209 -63.483001708984375,-11.515999794006348 C-78.75,12.5 -95.5,45.875 -69.94400024414062,74.14800262451172 C-50,26.25 -4,-13.25 20.152000427246094,-33.551998138427734 C20.25,-33.25 -23.197999954223633,-10.305000305175781 -19.25,-16.75 C34.5,-104.5 8,-152.5 7.5,-152z"></path></g><g opacity="1" transform="matrix(1,0,0,1,0,0)"><path fill="url(#__lottie_element_56)" fill-opacity="1" d=" M17,-145 C-6,-132.5 -83.5,-32.25 -98.75,10 C-98.25,10.25 -80.75,0.25 -74.25,-0.75 C-74.25,-0.5 -95.5,35.75 -76.25,65.875 C-62.75,33.25 -35.5,3.25 20.25,-33.5 C3.25,-29.25 -12.75,-18.5 -13,-18.5 C-13,-18.5 20.25,-80.75 61,-119 C58.5,-122 18,-146 17,-145z"></path></g><g opacity="0.1" transform="matrix(1,0,0,1,0,0)"><g opacity="1" transform="matrix(1,0,0,1,0,0)"><path fill="rgb(29,11,23)" fill-opacity="1" d=" M5.625,-150.125 C-35,-108.75 -45.25,-95.25 -45.875,-95.25 C-45.375,-95.125 -10,-72 10.75,-57.125 C10.25,-56.875 45,-107 60.875,-119.125 C60.875,-118.75 9.026000022888184,-153.58900451660156 5.625,-150.125z"></path></g><g opacity="1" transform="matrix(1,0,0,1,0,0)"><path fill="rgb(29,11,23)" fill-opacity="1" d=" M-94.375,-6.625 C-97.25,2.25 -98.375,6.375 -99.125,9.875 C-99.25,10.125 -94,8.125 -91.375,6.375 C-92.25,4.25 -93.625,-1.375 -94.375,-6.625z"></path></g><g opacity="1" transform="matrix(1,0,0,1,0,0)"><path fill="rgb(29,11,23)" fill-opacity="1" d=" M-83.75,32.25 C-83.875,32.875 -87.75,54 -70.125,73.875 C-70,73.75 -66.375,65.625 -64.375,61.875 C-69.125,58.125 -81.625,41.75 -83.75,32.25z"></path></g></g></g><g style="display: block;" transform="matrix(0.7699999809265137,0,0,0.7699999809265137,266.0001525878906,212.4998779296875)" opacity="1"><g opacity="1" transform="matrix(1,0,0,1,0,0)"><path fill="url(#__lottie_element_48)" fill-opacity="1" d=" M43.11199951171875,118.51000213623047 C39.97700119018555,115.59500122070312 34.92900085449219,114.94200134277344 -3.828000068664551,114.94200134277344 C-41.6510009765625,114.94200134277344 -47.12699890136719,115.59500122070312 -50.768001556396484,118.51000213623047 C-53.64400100708008,120.81300354003906 -52.694000244140625,140.9340057373047 -3.8369998931884766,140.9340057373047 C44.236000061035156,140.9340057373047 45.638999938964844,120.85900115966797 43.11199951171875,118.51000213623047z"></path></g><g opacity="1" transform="matrix(1,0,0,1,0,0)"><path fill="url(#__lottie_element_49)" fill-opacity="0.7000000000000001" d=" M42.8120002746582,125.30899810791016 C41.733001708984375,119.30999755859375 34.92900085449219,121.28500366210938 -3.828000068664551,121.28500366210938 C-41.6510009765625,121.28500366210938 -48.737998962402344,118.93299865722656 -50.46799850463867,125.30899810791016 C-51.15999984741211,127.85900115966797 -35.74300003051758,146.49000549316406 -3.8369998931884766,146.49000549316406 C27.527999877929688,146.49000549316406 43.29600143432617,128 42.8120002746582,125.30899810791016z"></path></g><g opacity="1" transform="matrix(1,0,0,1,0,0)"><path fill="rgb(136,24,4)" fill-opacity="1" d=" M41.617000579833984,122.58699798583984 C39.82600021362305,119.95099639892578 34.92900085449219,120.37699890136719 -3.828000068664551,120.37699890136719 C-41.6510009765625,120.37699890136719 -47.26499938964844,120.04199981689453 -49.27199935913086,122.58699798583984 C-51.034000396728516,124.82099914550781 -35.74300003051758,140.9340057373047 -3.8369998931884766,140.9340057373047 C27.527999877929688,140.9340057373047 43.25699996948242,125.0009994506836 41.617000579833984,122.58699798583984z"></path></g><g opacity="1" transform="matrix(1,0,0,1,0,0)"><path fill="url(#__lottie_element_50)" fill-opacity="1" d=" M41.617000579833984,122.58699798583984 C39.82600021362305,119.95099639892578 34.92900085449219,120.37699890136719 -3.828000068664551,120.37699890136719 C-41.6510009765625,120.37699890136719 -47.26499938964844,120.04199981689453 -49.27199935913086,122.58699798583984 C-51.034000396728516,124.82099914550781 -35.74300003051758,140.9340057373047 -3.8369998931884766,140.9340057373047 C27.527999877929688,140.9340057373047 43.25699996948242,125.0009994506836 41.617000579833984,122.58699798583984z"></path></g><g opacity="1" transform="matrix(1,0,0,1,0,0)"><path fill="url(#__lottie_element_51)" fill-opacity="0.5" d=" M23.929000854492188,146.49000549316406 C23.929000854492188,152.6510009765625 15.489999771118164,161.56900024414062 -3.8369998931884766,161.56900024414062 C-23.163999557495117,161.56900024414062 -31.601999282836914,152.6510009765625 -31.601999282836914,146.49000549316406 C-31.601999282836914,140.32899475097656 -23.163999557495117,146.49000549316406 -3.8369998931884766,146.49000549316406 C15.489999771118164,146.49000549316406 23.929000854492188,140.32899475097656 23.929000854492188,146.49000549316406z"></path></g></g><g style="display: block;" transform="matrix(0.7699999809265137,0,0,0.7699999809265137,265.9996337890625,212.4993133544922)" opacity="1"><g opacity="1" transform="matrix(1,0,0,1,0,0)"><path stroke-linecap="round" stroke-linejoin="round" fill-opacity="0" stroke="rgb(163,65,0)" stroke-opacity="1" stroke-width="15" d=" M45.78099822998047,-35.01499938964844 C45.78099822998047,-35.01499938964844 67.8270034790039,-40.10300064086914 87.80000305175781,-30.451000213623047"></path></g><g opacity="1" transform="matrix(1,0,0,1,0,0)"><path stroke-linecap="round" stroke-linejoin="round" fill-opacity="0" stroke="rgb(163,65,0)" stroke-opacity="1" stroke-width="15" d=" M-53.071998596191406,-35.01499938964844 C-53.071998596191406,-35.01499938964844 -75.11699676513672,-40.10300064086914 -95.08999633789062,-30.451000213623047"></path></g></g><g style="display: block;" transform="matrix(0.7699999809265137,0,0,0.7699999809265137,265.9996337890625,212.5000457763672)" opacity="1"><g opacity="1" transform="matrix(1,0,0,1,0,0)"><g opacity="1" transform="matrix(1,0,0,1,0,0)"><path fill="rgb(255,255,255)" fill-opacity="1" d=" M28.57200050354004,35.28799819946289 C28.57200050354004,35.28799819946289 26.613000869750977,12.751999855041504 42.5989990234375,-1.8940000534057617 C56.33300018310547,-14.47700023651123 82.19000244140625,-13.241999626159668 95.14800262451172,2.878999948501587 C105.69999694824219,16.006000518798828 103.18800354003906,31.309999465942383 103.18800354003906,31.309999465942383 C103.18800354003906,31.309999465942383 92.65299987792969,42.63800048828125 71.02999877929688,43.87200164794922 C43.52000045776367,45.44200134277344 28.57200050354004,35.28799819946289 28.57200050354004,35.28799819946289z"></path></g><g opacity="1" transform="matrix(1,0,0,1,0,0)"><g opacity="1" transform="matrix(1,0,0,1,0,0)"><path fill="url(#__lottie_element_36)" fill-opacity="1" d=" M87.80000305175781,16.822999954223633 C87.80000305175781,29.83099937438965 77.25499725341797,40.375999450683594 64.24700164794922,40.375999450683594 C51.23899841308594,40.375999450683594 40.694000244140625,29.83099937438965 40.694000244140625,16.822999954223633 C40.694000244140625,3.815000057220459 51.23899841308594,-6.730000019073486 64.24700164794922,-6.730000019073486 C77.25499725341797,-6.730000019073486 87.80000305175781,3.815000057220459 87.80000305175781,16.822999954223633z"></path></g><g opacity="1" transform="matrix(1,0,0,1,0,0)"><g opacity="1" transform="matrix(1,0,0,1,0,0)"><path fill="url(#__lottie_element_37)" fill-opacity="1" d=" M70.28099822998047,39.303001403808594 C68.44000244140625,39.303001403808594 66.73600006103516,38.11399841308594 66.16500091552734,36.26300048828125 C65.46299743652344,33.9900016784668 66.73799896240234,31.577999114990234 69.01200103759766,30.87700080871582 C73.36100006103516,29.53499984741211 76.8239974975586,26.1560001373291 78.27300262451172,21.83799934387207 C79.02999877929688,19.58099937438965 81.47699737548828,18.368999481201172 83.72799682617188,19.125 C85.98400115966797,19.881999969482422 87.1989974975586,22.323999404907227 86.44200134277344,24.579999923706055 C84.11199951171875,31.520999908447266 78.5459976196289,36.952999114990234 71.5510025024414,39.11000061035156 C71.12799835205078,39.2400016784668 70.70099639892578,39.303001403808594 70.28099822998047,39.303001403808594z"></path></g></g><g opacity="1" transform="matrix(1,0,0,1,0,0)"><path fill="rgb(24,19,9)" fill-opacity="1" d=" M79.13200378417969,16.822999954223633 C79.13200378417969,25.04400062561035 72.46800231933594,31.708999633789062 64.24700164794922,31.708999633789062 C56.0260009765625,31.708999633789062 49.361000061035156,25.04400062561035 49.361000061035156,16.822999954223633 C49.361000061035156,8.60200023651123 56.0260009765625,1.937999963760376 64.24700164794922,1.937999963760376 C72.46800231933594,1.937999963760376 79.13200378417969,8.60200023651123 79.13200378417969,16.822999954223633z"></path></g><g opacity="1" transform="matrix(1,0,0,1,0,0)"><path fill="url(#__lottie_element_38)" fill-opacity="1" d=" M62.979000091552734,3.98799991607666 C62.979000091552734,7.326000213623047 60.42499923706055,10.032999992370605 57.275001525878906,10.032999992370605 C54.125,10.032999992370605 51.57099914550781,7.326000213623047 51.57099914550781,3.98799991607666 C51.57099914550781,0.6499999761581421 54.125,-2.055999994277954 57.275001525878906,-2.055999994277954 C60.42499923706055,-2.055999994277954 62.979000091552734,0.6499999761581421 62.979000091552734,3.98799991607666z"></path></g></g><g opacity="1" transform="matrix(1,0,0,1,0,0)"><path fill="rgb(163,65,0)" fill-opacity="1" d=" M28.57200050354004,35.28799819946289 C25.5310001373291,11.491000175476074 40.91299819946289,-12.895999908447266 66.53099822998047,-12.53600025177002 C89.56500244140625,-12.211999893188477 107.75700378417969,8.204000473022461 103.18800354003906,31.309999465942383 C103.68699645996094,9.857000350952148 87.84200286865234,-8.434000015258789 65.84700012207031,-8.170999526977539 C42.222999572753906,-7.888000011444092 29.457000732421875,13.711000442504883 28.57200050354004,35.28799819946289z"></path><path stroke-linecap="round" stroke-linejoin="round" fill-opacity="0" stroke="rgb(163,65,0)" stroke-opacity="1" stroke-width="2" d=" M28.57200050354004,35.28799819946289 C25.5310001373291,11.491000175476074 40.91299819946289,-12.895999908447266 66.53099822998047,-12.53600025177002 C89.56500244140625,-12.211999893188477 107.75700378417969,8.204000473022461 103.18800354003906,31.309999465942383 C103.68699645996094,9.857000350952148 87.84200286865234,-8.434000015258789 65.84700012207031,-8.170999526977539 C42.222999572753906,-7.888000011444092 29.457000732421875,13.711000442504883 28.57200050354004,35.28799819946289z"></path></g></g><g opacity="1" transform="matrix(1,0,0,1,0,0)"><g opacity="1" transform="matrix(1,0,0,1,0,0)"><path fill="rgb(255,255,255)" fill-opacity="1" d=" M-35.86199951171875,35.28799819946289 C-35.86199951171875,35.28799819946289 -33.90299987792969,12.751999855041504 -49.888999938964844,-1.8940000534057617 C-63.62300109863281,-14.47700023651123 -89.48100280761719,-13.241999626159668 -102.43900299072266,2.878999948501587 C-112.99099731445312,16.006000518798828 -110.47799682617188,31.309999465942383 -110.47799682617188,31.309999465942383 C-110.47799682617188,31.309999465942383 -99.94400024414062,42.63800048828125 -78.32099914550781,43.87200164794922 C-50.81100082397461,45.44200134277344 -35.86199951171875,35.28799819946289 -35.86199951171875,35.28799819946289z"></path></g><g opacity="1" transform="matrix(1,0,0,1,0,0)"><g opacity="1" transform="matrix(1,0,0,1,0,0)"><path fill="url(#__lottie_element_39)" fill-opacity="1" d=" M-47.98400115966797,16.822999954223633 C-47.98400115966797,29.83099937438965 -58.52899932861328,40.375999450683594 -71.53700256347656,40.375999450683594 C-84.54499816894531,40.375999450683594 -95.08999633789062,29.83099937438965 -95.08999633789062,16.822999954223633 C-95.08999633789062,3.815000057220459 -84.54499816894531,-6.730000019073486 -71.53700256347656,-6.730000019073486 C-58.52899932861328,-6.730000019073486 -47.98400115966797,3.815000057220459 -47.98400115966797,16.822999954223633z"></path></g><g opacity="1" transform="matrix(1,0,0,1,0,0)"><g opacity="1" transform="matrix(1,0,0,1,0,0)"><path fill="url(#__lottie_element_40)" fill-opacity="1" d=" M-65.59600067138672,39.303001403808594 C-67.43699645996094,39.303001403808594 -69.14099884033203,38.11399841308594 -69.71199798583984,36.26300048828125 C-70.41400146484375,33.9900016784668 -69.13899993896484,31.577999114990234 -66.86499786376953,30.87700080871582 C-62.51599884033203,29.53499984741211 -59.053001403808594,26.1560001373291 -57.604000091552734,21.83799934387207 C-56.84700012207031,19.58099937438965 -54.400001525878906,18.368999481201172 -52.14899826049805,19.125 C-49.893001556396484,19.881999969482422 -48.67900085449219,22.323999404907227 -49.43600082397461,24.579999923706055 C-51.76599884033203,31.520999908447266 -57.33100128173828,36.952999114990234 -64.32599639892578,39.11000061035156 C-64.7490005493164,39.2400016784668 -65.1760025024414,39.303001403808594 -65.59600067138672,39.303001403808594z"></path></g></g><g opacity="1" transform="matrix(1,0,0,1,0,0)"><path fill="rgb(24,19,9)" fill-opacity="1" d=" M-56.652000427246094,16.822999954223633 C-56.652000427246094,25.04400062561035 -63.316001892089844,31.708999633789062 -71.53700256347656,31.708999633789062 C-79.75800323486328,31.708999633789062 -86.4229965209961,25.04400062561035 -86.4229965209961,16.822999954223633 C-86.4229965209961,8.60200023651123 -79.75800323486328,1.937999963760376 -71.53700256347656,1.937999963760376 C-63.316001892089844,1.937999963760376 -56.652000427246094,8.60200023651123 -56.652000427246094,16.822999954223633z"></path></g><g opacity="1" transform="matrix(1,0,0,1,0,0)"><path fill="url(#__lottie_element_41)" fill-opacity="1" d=" M-72.80500030517578,3.98799991607666 C-72.80500030517578,7.326000213623047 -75.35900115966797,10.032999992370605 -78.50900268554688,10.032999992370605 C-81.65899658203125,10.032999992370605 -84.21299743652344,7.326000213623047 -84.21299743652344,3.98799991607666 C-84.21299743652344,0.6499999761581421 -81.65899658203125,-2.055999994277954 -78.50900268554688,-2.055999994277954 C-75.35900115966797,-2.055999994277954 -72.80500030517578,0.6499999761581421 -72.80500030517578,3.98799991607666z"></path></g></g><g opacity="1" transform="matrix(1,0,0,1,0,0)"><path fill="rgb(163,65,0)" fill-opacity="1" d=" M-35.86199951171875,35.28799819946289 C-32.82099914550781,11.491000175476074 -48.20399856567383,-12.895999908447266 -73.8219985961914,-12.53600025177002 C-96.85700225830078,-12.211999893188477 -115.0469970703125,8.204000473022461 -110.47799682617188,31.309999465942383 C-110.97699737548828,9.857000350952148 -95.13200378417969,-8.434000015258789 -73.13700103759766,-8.170999526977539 C-49.51300048828125,-7.888000011444092 -36.74700164794922,13.711000442504883 -35.86199951171875,35.28799819946289z"></path><path stroke-linecap="round" stroke-linejoin="round" fill-opacity="0" stroke="rgb(163,65,0)" stroke-opacity="1" stroke-width="2" d=" M-35.86199951171875,35.28799819946289 C-32.82099914550781,11.491000175476074 -48.20399856567383,-12.895999908447266 -73.8219985961914,-12.53600025177002 C-96.85700225830078,-12.211999893188477 -115.0469970703125,8.204000473022461 -110.47799682617188,31.309999465942383 C-110.97699737548828,9.857000350952148 -95.13200378417969,-8.434000015258789 -73.13700103759766,-8.170999526977539 C-49.51300048828125,-7.888000011444092 -36.74700164794922,13.711000442504883 -35.86199951171875,35.28799819946289z"></path></g></g></g><g style="display: block;" transform="matrix(0.7699999809265137,0,0,0.7699999809265137,266.0001525878906,212.5)" opacity="1"><g opacity="1" transform="matrix(1,0,0,1,0,0)"><path fill="url(#__lottie_element_29)" fill-opacity="1" d=" M25.260000228881836,83.00599670410156 C25.260000228881836,95.93000030517578 13.814000129699707,106.40799713134766 -3.9210000038146973,106.40799713134766 C-21.6560001373291,106.40799713134766 -33.10200119018555,95.93000030517578 -33.10200119018555,83.00599670410156 C-37.5,49.625 29.875,48.75 25.260000228881836,83.00599670410156z"></path></g><g opacity="1" transform="matrix(1,0,0,1,0,0)"><path fill="rgb(255,168,0)" fill-opacity="0.8" d=" M25.871000289916992,78.61000061035156 C25.871000289916992,90.5999984741211 12.532999992370605,100.31999969482422 -3.9210000038146973,100.31999969482422 C-20.375,100.31999969482422 -33.7130012512207,90.5999984741211 -33.7130012512207,78.61000061035156 C-33.7130012512207,66.62000274658203 -20.375,57.4109992980957 -3.9210000038146973,57.4109992980957 C12.532999992370605,57.4109992980957 25.871000289916992,66.62000274658203 25.871000289916992,78.61000061035156z"></path></g><g opacity="1" transform="matrix(1,0,0,1,0,0)"><path fill="url(#__lottie_element_30)" fill-opacity="1" d=" M25.871000289916992,78.61000061035156 C25.871000289916992,90.5999984741211 12.532999992370605,100.31999969482422 -3.9210000038146973,100.31999969482422 C-20.375,100.31999969482422 -33.7130012512207,90.5999984741211 -33.7130012512207,78.61000061035156 C-33.7130012512207,66.62000274658203 -20.375,57.4109992980957 -3.9210000038146973,57.4109992980957 C12.532999992370605,57.4109992980957 25.871000289916992,66.62000274658203 25.871000289916992,78.61000061035156z"></path></g><g opacity="1" transform="matrix(1,0,0,1,0,0)"><path fill="rgb(255,216,0)" fill-opacity="1" d=" M23.19300079345703,72.87200164794922 C23.19300079345703,81.7979965209961 10.312999725341797,90.3759994506836 -3.9210000038146973,90.3759994506836 C-18.155000686645508,90.3759994506836 -31.03499984741211,81.7979965209961 -31.03499984741211,72.87200164794922 C-31.03499984741211,63.94599914550781 -18.155000686645508,56.965999603271484 -3.9210000038146973,56.965999603271484 C10.312999725341797,56.965999603271484 23.19300079345703,63.94599914550781 23.19300079345703,72.87200164794922z"></path></g><g opacity="1" transform="matrix(1,0,0,1,0,0)"><path fill="url(#__lottie_element_31)" fill-opacity="1" d=" M23.19300079345703,72.87200164794922 C23.19300079345703,81.7979965209961 10.312999725341797,90.3759994506836 -3.9210000038146973,90.3759994506836 C-18.155000686645508,90.3759994506836 -31.03499984741211,81.7979965209961 -31.03499984741211,72.87200164794922 C-31.03499984741211,63.94599914550781 -18.155000686645508,56.965999603271484 -3.9210000038146973,56.965999603271484 C10.312999725341797,56.965999603271484 23.19300079345703,63.94599914550781 23.19300079345703,72.87200164794922z"></path></g><g opacity="1" transform="matrix(1,0,0,1,0,0)"><path fill="url(#__lottie_element_32)" fill-opacity="0.7000000000000001" d=" M8.175000190734863,67.11000061035156 C8.175000190734863,73.16699981689453 2.759000062942505,78.86599731445312 -3.9210000038146973,78.86599731445312 C-10.60099983215332,78.86599731445312 -16.017000198364258,73.16699981689453 -16.017000198364258,67.11000061035156 C-16.017000198364258,61.053001403808594 -10.60099983215332,58.013999938964844 -3.9210000038146973,58.013999938964844 C2.759000062942505,58.013999938964844 8.175000190734863,61.053001403808594 8.175000190734863,67.11000061035156z"></path></g></g><g style="display: block;" transform="matrix(1,0,0,1,256,256)" opacity="1"><g opacity="1" transform="matrix(1,0,0,1,0,0)"><g opacity="1" transform="matrix(1,0,0,1,0,0)"><path fill="url(#__lottie_element_23)" fill-opacity="1" d=" M-86,-163.25 C-95.87300109863281,-148.06500244140625 -15,-103.5 37,-50 C37.5,-50.5 26,-86.5 14.5,-107.5 C15,-107.5 40.75,-94.75 75.5,-8.5 C73,-27 65.25,-87.75 63.75,-87.75 C87,-64.25 91,-28.5 93,10.5 C92,10 107.5,-6 111.5,-45 C112,-44 115.5,2.5 106.5,32 C117.5,22 143,-49 141,-94.5 C142.5,-94.5 152,-82 155.5,-77 C122.5,-224.5 -33.5,-244 -86,-163.25z"></path></g><g opacity="0.51" transform="matrix(1,0,0,1,0,0)"><path fill="url(#__lottie_element_24)" fill-opacity="1" d=" M142.25,-94.25 C141.98500061035156,-94.64800262451172 154,-79 154.55299377441406,-79.72100067138672 C125.5,-225.5 -40,-241.5 -84.5,-164 C-97.197998046875,-141.88600158691406 22,-80.5 35.75,-51 C38.25,-52 14.75,-104 16,-106.5 C41.25,-90 67.5,-27.5 71.25,-25.25 C73.5,-28.25 63.75,-80.75 63.75,-88.25 C98.75,-48.75 91,8 92,8.5 C100.5,-18 105.375,-68 55.5,-103.75 C58.875,-92.5 64.75,-54.875 65,-52.375 C56.75,-74 31.75,-110.25 -1.5160000324249268,-121.375 C5.75,-107.75 17.5,-82.75 17.625,-81.125 C-6.75,-104.75 -74.11699676513672,-147.781005859375 -71.25,-161.25 C-63,-200 69,-240.5 137.2740020751953,-105.27200317382812 C131.5,-111.5 125.5,-109.5 126.10399627685547,-109.88400268554688 C135.5,-65 116.75,4.25 107.06800079345703,31.08799934387207 C134,-4 141.5,-94 142.25,-94.25z"></path></g><g opacity="1" transform="matrix(1,0,0,1,0,0)"><path fill="url(#__lottie_element_25)" fill-opacity="1" d=" M-71,-161 C-74.88600158691406,-148.61399841308594 -6.886000156402588,-103.8280029296875 17.479999542236328,-81.18199920654297 C16,-87.25 3.25,-111.5 -1.5230000019073486,-121.64600372314453 C38.5,-104 54.25,-76 65.08200073242188,-52.34199905395508 C63.125,-63 57.5620002746582,-100.375 55.042999267578125,-103.86100006103516 C81,-85.75 93.75,-61.75 99.4229965209961,-29.97100067138672 C101.70899963378906,-34.231998443603516 107.5,-61.5 107.447998046875,-73.58799743652344 C108.5,-73 121,-63 122.75800323486328,-50.138999938964844 C126.5,-63 129,-99 121.38700103759766,-119.71199798583984 C84.69599914550781,-219.5330047607422 -55,-212 -71,-161z"></path></g><g opacity="1" transform="matrix(1,0,0,1,0,0)"><path stroke-linecap="round" stroke-linejoin="round" fill-opacity="0" stroke="rgb(50,80,146)" stroke-opacity="1" stroke-width="8" d=" M-85.5,-163 C-94.65399932861328,-147.468994140625 -8.5,-96 36.5,-51 C36,-56.5 11.25,-102.5 9.25,-109.5 C50.25,-83.25 64.75,-29.75 75.5,-8.25 C76,-8 68.75,-64.5 62.75,-90.75 C89,-64.25 92.5,-13 92.25,11 C102,-1.5 110.5,-25 111.25,-53.75 C117,-16 109.5,21.5 106,32.5 C121.5,18.5 139,-39 142,-93.5 C142.06100463867188,-94.61599731445312 156.0070037841797,-75.91200256347656 155.75,-77 C119.5,-230.5 -41,-238.5 -85.5,-163z"></path></g><g opacity="1" transform="matrix(1,0,0,1,0,0)"><path stroke-linecap="round" stroke-linejoin="round" fill-opacity="0" stroke="rgb(39,64,116)" stroke-opacity="1" stroke-width="8" d=" M-85.625,-162.875 C-96.25,-146.5 -6.25,-95.5 36.375,-51.1870002746582 C31.25,-68.31199645996094 8.812999725341797,-109.25 9.062999725341797,-109.75 C45,-88 67.2509994506836,-25.75 75.18800354003906,-8.125 C71.5,-47.75 63.25,-90.5 62.5,-90.75 C86.25,-67.5 92,-26.75 92.375,10.875 C111.25,-14.25 111.5,-55 111.25,-54.75 C114,-38.5 115.5,-3.75 106.25,32.5"></path></g></g></g><g style="display: block;" transform="matrix(1,0,0,1,255.56298828125,257)" opacity="1"><g opacity="1" transform="matrix(1,0,0,1,0,0)"><g opacity="1" transform="matrix(1,0,0,1,0,0)"><path fill="rgb(38,39,40)" fill-opacity="1" d=" M168.06300354003906,218.5 C169.31300354003906,206.5 140.68800354003906,202.125 141.06300354003906,218.625 C140.93800354003906,218.75 167.93800354003906,218.25 168.06300354003906,218.5z"></path></g><g opacity="1" transform="matrix(1,0,0,1,0,0)"><path fill="url(#__lottie_element_6)" fill-opacity="1" d=" M140.5,216 C140.5,216 140.68800354003906,164.25 140.68800354003906,164.25 C140.68800354003906,164.25 166.5,164.75 166.5,164.75 C166.5,164.75 166.5,216 166.5,216"></path><path stroke-linecap="round" stroke-linejoin="miter" fill-opacity="0" stroke-miterlimit="4" stroke="rgb(20,22,23)" stroke-opacity="1" stroke-width="8" d=" M140.5,216 C140.5,216 140.68800354003906,164.25 140.68800354003906,164.25 C140.68800354003906,164.25 166.5,164.75 166.5,164.75 C166.5,164.75 166.5,216 166.5,216"></path></g></g><g opacity="1" transform="matrix(1,0,0,1,0,0)"><g opacity="1" transform="matrix(1,0,0,1,0,0)"><path fill="url(#__lottie_element_7)" fill-opacity="1" d=" M105,105 C98.58499908447266,100.26499938964844 67.19000244140625,130.5489959716797 83.75,142.5 C108,160 178.718994140625,206.13600158691406 193,215 C207.5,224 223.00599670410156,204.28900146484375 210.5,193.5 C197.75,182.5 126,120.5 105,105z"></path><path stroke-linecap="round" stroke-linejoin="round" fill-opacity="0" stroke="rgb(12,13,13)" stroke-opacity="1" stroke-width="8" d=" M105,105 C98.58499908447266,100.26499938964844 67.19000244140625,130.5489959716797 83.75,142.5 C108,160 178.718994140625,206.13600158691406 193,215 C207.5,224 223.00599670410156,204.28900146484375 210.5,193.5 C197.75,182.5 126,120.5 105,105z"></path></g><g opacity="0.5" transform="matrix(1,0,0,1,0,0)"><path fill="url(#__lottie_element_8)" mask="url(#__lottie_element_10)" fill-opacity="1" d="M0 0 M202.93800354003906,192.875 C203.18800354003906,193 199.81300354003906,204.125 189.68800354003906,208.125 C194.31300354003906,213.25 203.87600708007812,215.28199768066406 208.43800354003906,209.625 C211.56300354003906,205.75 213.18800354003906,198.375 202.93800354003906,192.875z"></path></g><g opacity="0.5" transform="matrix(1,0,0,1,0,0)"><path fill="url(#__lottie_element_11)" mask="url(#__lottie_element_13)" fill-opacity="1" d="M0 0 M109.18800354003906,114.25 C108.93800354003906,114.75 105.43800354003906,118 105.43800354003906,118.25 C202.93800354003906,195.25 209.18800354003906,199.5 210.43800354003906,206.375 C214.06300354003906,195.75 201.18800354003906,193 109.18800354003906,114.25z"></path></g><g opacity="0.1" transform="matrix(1,0,0,1,0,0)"><path fill="url(#__lottie_element_14)" mask="url(#__lottie_element_16)" fill-opacity="1" d="M0 0 M84.56300354003906,133.125 C83.49099731445312,132.43499755859375 82.93800354003906,137.75 83.18800354003906,137.75 C178.56300354003906,198.125 196.81300354003906,220.25 206.43800354003906,211.125 C203.43800354003906,220.125 149.18800354003906,174.75 84.56300354003906,133.125z"></path></g><g opacity="0.15" transform="matrix(1,0,0,1,0,0)"><path stroke-linecap="round" stroke-linejoin="miter" fill-opacity="0" stroke-miterlimit="4" stroke="rgb(186,186,186)" stroke-opacity="1" stroke-width="8" d=" M104.68800354003906,105 C128.43800354003906,122.375 204.18800354003906,188.375 210.43800354003906,193.375 C216.68800354003906,198.375 215.93800354003906,205.375 213.1719970703125,209.75"></path></g><g opacity="1" transform="matrix(1,0,0,1,0,0)"><g opacity="1" transform="matrix(1,0,0,1,0,0)"><path fill="url(#__lottie_element_17)" fill-opacity="1" d=" M80.75,85 C65.71700286865234,85 50,102.5 52.25,117.5 C55.07099914550781,136.3040008544922 76.68699645996094,144.5 84.75,146.25 C93.93800354003906,121.25 101.06199645996094,116.875 113.75,107.25 C112.18699645996094,103.25 99.75,85 80.75,85z"></path><path stroke-linecap="butt" stroke-linejoin="miter" fill-opacity="0" stroke-miterlimit="4" stroke="rgb(14,17,19)" stroke-opacity="1" stroke-width="8" d=" M80.75,85 C65.71700286865234,85 50,102.5 52.25,117.5 C55.07099914550781,136.3040008544922 76.68699645996094,144.5 84.75,146.25 C93.93800354003906,121.25 101.06199645996094,116.875 113.75,107.25 C112.18699645996094,103.25 99.75,85 80.75,85z"></path></g><g opacity="0.35000000000000003" transform="matrix(1,0,0,1,0,0)"><g opacity="1" transform="matrix(1,0,0,1,-1,0.875)"><path fill="rgb(0,0,0)" fill-opacity="1" d=" M91.12300109863281,89.59200286865234 C87.5739974975586,90.28700256347656 86.75199890136719,91.57599639892578 86.56400299072266,91.51300048828125 C89.8949966430664,93.7979965209961 93.66200256347656,96.322998046875 93.53700256347656,96.26000213623047 C96.16200256347656,94.6969985961914 98.5479965209961,93.66300201416016 98.73600006103516,93.66300201416016 C95.875,91 91.12300109863281,89.65499877929688 91.12300109863281,89.59200286865234z"></path></g><g opacity="1" transform="matrix(0.9999997615814209,0.0006981316255405545,-0.0006981316255405545,0.9999997615814209,-0.375,1.625)"><path fill="rgb(0,0,0)" fill-opacity="1" d=" M82.4520034790039,93.59100341796875 C78.80899810791016,95.41000366210938 76.93499755859375,98.572998046875 76.74700164794922,98.447998046875 C80.08499908447266,100.86699676513672 83.87100219726562,103.80899810791016 83.80799865722656,103.74600219726562 C86.71099853515625,100.29900360107422 89.1709976196289,98.41100311279297 89.1709976196289,98.41100311279297 C85.40299987792969,95.48799896240234 82.4520034790039,93.71600341796875 82.4520034790039,93.59100341796875z"></path></g><g opacity="1" transform="matrix(1,0,0,1,-0.625,1.875)"><path fill="rgb(0,0,0)" fill-opacity="1" d=" M74.26599884033203,101.28500366210938 C71.01899719238281,104.03600311279297 69.74299621582031,107.1729965209961 69.68000030517578,107.1729965209961 C72.26899719238281,110.06400299072266 76.72000122070312,112.91899871826172 76.90799713134766,112.85600280761719 C78.90799713134766,109.66799926757812 81.50199890136719,106.76100158691406 81.50199890136719,106.572998046875 C79.30699920654297,104.0979995727539 74.64099884033203,101.16000366210938 74.26599884033203,101.28500366210938z"></path></g><g opacity="1" transform="matrix(1,0,0,1,0,0)"><path fill="rgb(0,0,0)" fill-opacity="1" d=" M66.83599853515625,112.56600189208984 C66.96099853515625,112.62899780273438 64.48200225830078,115.60099792480469 63.584999084472656,118.77799987792969 C63.459999084472656,118.96600341796875 67.22899627685547,122.47000122070312 70.13300323486328,124.59200286865234 C70.24600219726562,124.67400360107422 71.15699768066406,122.13800048828125 73.77100372314453,118.11399841308594 C74.02100372314453,118.302001953125 70.36000061035156,115.58999633789062 66.83599853515625,112.56600189208984z"></path></g><g opacity="1" transform="matrix(1,0,0,1,0,0)"><path fill="rgb(0,0,0)" fill-opacity="1" d=" M61.82600021362305,123.63200378417969 C61.888999938964844,123.75700378417969 61.23099899291992,124.9260025024414 61.167999267578125,128.05099487304688 C61.16400146484375,128.23800659179688 63.82099914550781,132.05799865722656 67.4530029296875,134.70399475097656 C67.4530029296875,134.70399475097656 67.43699645996094,131.22900390625 68.48799896240234,129.35499572753906 C68.48799896240234,129.35499572753906 64.58499908447266,126.49800109863281 61.82600021362305,123.63200378417969z"></path></g><g opacity="1" transform="matrix(1,0,0,1,1.847000002861023,1.3919999599456787)"><path fill="rgb(0,0,0)" fill-opacity="1" d=" M81.2020034790039,108.89299774169922 C81.11299896240234,108.822998046875 76.64900207519531,114.85099792480469 76.72599792480469,115.00599670410156 C79.18099975585938,117.30599975585938 83.73999786376953,120.19300079345703 83.52999877929688,120.11000061035156 C85.55899810791016,116.947998046875 88.35099792480469,113.96399688720703 88.3759994506836,113.99600219726562 C88.5260009765625,113.94000244140625 83.822998046875,110.00399780273438 81.2020034790039,108.89299774169922z"></path></g><g opacity="1" transform="matrix(1,0,0,1,0,0)"><path fill="rgb(0,0,0)" fill-opacity="1" d=" M91.79499816894531,102.45700073242188 C89.76100158691406,102.53900146484375 86.08200073242188,107.16799926757812 86.16400146484375,106.91799926757812 C88.40399932861328,108.447998046875 92.90499877929688,112.07499694824219 92.8239974975586,112.02300262451172 C94.9229965209961,109.91699981689453 98.01200103759766,107.68599700927734 97.84600067138672,107.78900146484375 C95.65499877929688,105.20600128173828 91.68599700927734,102.58100128173828 91.79499816894531,102.45700073242188z"></path></g><g opacity="1" transform="matrix(1,0,0,1,0,0)"><path fill="rgb(0,0,0)" fill-opacity="1" d=" M100.9260025024414,97.53700256347656 C101.0530014038086,97.63200378417969 98.0260009765625,97.6989974975586 95.5250015258789,99.9229965209961 C95.48300170898438,99.93000030517578 98.95700073242188,102.69499969482422 101.16999816894531,105.37999725341797 C101.11299896240234,105.33699798583984 103.625,104.12699890136719 106.53500366210938,102.9540023803711 C106.427001953125,103.10800170898438 105.18800354003906,100.125 100.9260025024414,97.53700256347656z"></path></g><g opacity="1" transform="matrix(1,0,0,1,2.321000099182129,1.593000054359436)"><path fill="rgb(0,0,0)" fill-opacity="1" d=" M73.89099884033203,118.58300018310547 C73.97699737548828,118.70700073242188 71.97699737548828,121.46499633789062 70.63099670410156,124.94499969482422 C70.51899719238281,125.06199645996094 74.48699951171875,128.20799255371094 77.34400177001953,129.61599731445312 C77.33399963378906,129.7270050048828 79.33799743652344,125.40599822998047 80.54199981689453,123.25 C80.60199737548828,123.30699920654297 75.96199798583984,120.1240005493164 73.89099884033203,118.58300018310547z"></path></g><g opacity="1" transform="matrix(1,0,0,1,0,0)"><path fill="rgb(0,0,0)" fill-opacity="1" d=" M71.802001953125,131.3520050048828 C71.76200103759766,131.20199584960938 70.33899688720703,134.3719940185547 71.00900268554688,136.39999389648438 C71.05899810791016,136.63699340820312 75.00199890136719,139.48300170898438 78.1050033569336,140.1009979248047 C78.07599639892578,140.0780029296875 77.75800323486328,138.30299377441406 78.2979965209961,135.16400146484375 C78.47799682617188,135.16700744628906 75.35600280761719,133.91000366210938 71.802001953125,131.3520050048828z"></path></g><g opacity="1" transform="matrix(1,0,0,1,0,0)"><path fill="rgb(0,0,0)" fill-opacity="1" d=" M56.00400161743164,115.64700317382812 C55.875999450683594,119.46600341796875 58.4640007019043,124.33999633789062 58.37900161743164,124.4469985961914 C58.35599899291992,122.302001953125 59.18600082397461,120.4729995727539 59.262001037597656,120.4010009765625 C58.1510009765625,119.14600372314453 55.933998107910156,115.75399780273438 56.00400161743164,115.64700317382812z"></path></g><g opacity="1" transform="matrix(1,0,0,1,0,0)"><path fill="rgb(0,0,0)" fill-opacity="1" d=" M59.62200164794922,106.30799865722656 C57.5369987487793,109.05699920654297 57.38199996948242,111.5469970703125 57.41699981689453,111.6989974975586 C57.979000091552734,112.93599700927734 59.0629997253418,114.53500366210938 60.69900131225586,116.4219970703125 C60.62099838256836,116.41400146484375 62.053001403808594,113.24199676513672 63.70100021362305,110.46099853515625 C63.724998474121094,110.51100158691406 59.60599899291992,106.31099700927734 59.62200164794922,106.30799865722656z"></path></g><g opacity="1" transform="matrix(1,0,0,1,0,0)"><path fill="rgb(0,0,0)" fill-opacity="1" d=" M65.0479965209961,98.28700256347656 C65.0770034790039,98.35800170898438 63.106998443603516,100.00399780273438 62.106998443603516,102.18199920654297 C61.95100021362305,102.14199829101562 63.94300079345703,104.52799987792969 66.18000030517578,106.6510009765625 C65.98899841308594,106.69499969482422 68.77899932861328,102.57599639892578 70.56099700927734,100.9749984741211 C70.50800323486328,101.21700286865234 68.24600219726562,99.39700317382812 65.0479965209961,98.28700256347656z"></path></g><g opacity="1" transform="matrix(1,0,0,1,0,0)"><path fill="rgb(0,0,0)" fill-opacity="1" d=" M71.87000274658203,92.052001953125 C72.03800201416016,92.2030029296875 69.58699798583984,92.85900115966797 67.94400024414062,95.13800048828125 C68.34500122070312,94.81900024414062 71.00900268554688,96.18499755859375 73.37699890136719,97.54399871826172 C73.5199966430664,97.54499816894531 75.39399719238281,95.12200164794922 78.57099914550781,93.33100128173828 C78.51000213623047,93.47899627685547 74.86399841308594,91.6719970703125 71.87000274658203,92.052001953125z"></path></g><g opacity="1" transform="matrix(1,0,0,1,0,0)"><path fill="rgb(0,0,0)" fill-opacity="1" d=" M86.20899963378906,89.18399810791016 C86.36799621582031,89.17900085449219 80.28399658203125,88.00900268554688 76.38600158691406,89.51100158691406 C76.25599670410156,89.51200103759766 79.56800079345703,89.89399719238281 81.60099792480469,90.65499877929688 C81.61599731445312,90.81099700927734 83.62899780273438,89.6969985961914 86.20899963378906,89.18399810791016z"></path></g></g><g opacity="0.08" transform="matrix(1,0,0,1,0,0)"><path stroke-linecap="round" stroke-linejoin="miter" fill-opacity="0" stroke-miterlimit="4" stroke="rgb(217,224,229)" stroke-opacity="1" stroke-width="8" d=" M52.3129997253418,117.5 C49.9379997253418,104.5 64.18699645996094,85 80.75,85.01599884033203 C99.62799835205078,85.03399658203125 112.06199645996094,103.25 113.625,107.375"></path></g></g><g opacity="0.25" transform="matrix(1,0,0,1,0,0)"><path fill="rgb(0,0,0)" fill-opacity="1" d=" M111.375,116.43800354003906 C98.875,119.31300354003906 89.7030029296875,128.88699340820312 86.06800079345703,139.6280059814453 C86.06199645996094,139.625 96.375,146.18800354003906 96.5,146.31300354003906 C96.375,146.18800354003906 104.31300354003906,127.125 117.31300354003906,121.375 C117,120.93699645996094 111.25,115.93800354003906 111.375,116.43800354003906z"></path></g><g opacity="1" transform="matrix(1,0,0,1,0,0)"><path fill="url(#__lottie_element_18)" fill-opacity="1" d=" M149.875,140.18800354003906 C137.625,142.43800354003906 124.31300354003906,159.625 125.31300354003906,172.18800354003906 C125.06300354003906,171.93800354003906 145.43800354003906,185.18800354003906 145.18800354003906,185.43800354003906 C146.25100708007812,172.75 157,159.62600708007812 167.43800354003906,155.06300354003906 C167.93800354003906,155.31300354003906 149.625,139.93800354003906 149.875,140.18800354003906z"></path><path stroke-linecap="round" stroke-linejoin="round" fill-opacity="0" stroke="rgb(33,34,34)" stroke-opacity="1" stroke-width="8" d=" M149.875,140.18800354003906 C137.625,142.43800354003906 124.31300354003906,159.625 125.31300354003906,172.18800354003906 C125.06300354003906,171.93800354003906 145.43800354003906,185.18800354003906 145.18800354003906,185.43800354003906 C146.25100708007812,172.75 157,159.62600708007812 167.43800354003906,155.06300354003906 C167.93800354003906,155.31300354003906 149.625,139.93800354003906 149.875,140.18800354003906z"></path></g><g opacity="0.33" transform="matrix(1,0,0,1,0,0)"><path fill="rgb(255,255,255)" fill-opacity="1" d=" M148.875,144.5 C147,145.125 144.93800354003906,146.5 144.93800354003906,146.5 C149.37600708007812,149.81300354003906 156.82400512695312,156.8939971923828 156.93800354003906,156.81300354003906 C159.12600708007812,155.25 160.81300354003906,154.875 160.81300354003906,154.875 C160.81300354003906,155 149.125,144.68800354003906 148.875,144.5z"></path></g><g opacity="0.06" transform="matrix(1,0,0,1,0,0)"><path fill="rgb(255,255,255)" fill-opacity="1" d=" M129.93800354003906,165.375 C129.56300354003906,167.31300354003906 129.375,169.625 129.25,169.81300354003906 C129.25,169.81300354003906 142.75100708007812,178.62600708007812 142.68800354003906,178.56300354003906 C143.37600708007812,175.375 143.56199645996094,174.56199645996094 143.625,174.625 C143.75,174.625 130.00100708007812,165.43800354003906 129.93800354003906,165.375z"></path></g><g opacity="0.1" transform="matrix(1,0,0,1,0,0)"><path stroke-linecap="round" stroke-linejoin="round" fill-opacity="0" stroke="rgb(233,244,244)" stroke-opacity="1" stroke-width="8" d=" M132.56300354003906,152.43800354003906 C141.18800354003906,141.18800354003906 150,140.25 149.843994140625,140.156005859375 C149.90699768066406,140.281005859375 167.468994140625,155 167.43800354003906,155.031005859375 C158.93800354003906,159.125 156.31300354003906,163.375 153.68800354003906,166"></path></g><g opacity="1" transform="matrix(1,0,0,1,0,0)"><path fill="url(#__lottie_element_19)" fill-opacity="1" d=" M115.25,105.25 C99.25,107.5 78.5,130.25 82.25,147.25 C81.5,147 89.75,151.5 90.25,151.75 C88,136.25 106.75,115.25 121.25,111.75 C121,111.5 115.25,106 115.25,105.25z"></path><path stroke-linecap="round" stroke-linejoin="round" fill-opacity="0" stroke="rgb(33,35,35)" stroke-opacity="1" stroke-width="6" d=" M115.25,105.25 C99.25,107.5 78.5,130.25 82.25,147.25 C81.5,147 89.75,151.5 90.25,151.75 C88,136.25 106.75,115.25 121.25,111.75 C121,111.5 115.25,106 115.25,105.25z"></path></g><g opacity="0.1" transform="matrix(1,0,0,1,0,0)"><path stroke-linecap="round" stroke-linejoin="round" fill-opacity="0" stroke="rgb(255,255,255)" stroke-opacity="1" stroke-width="6" d=" M92.68800354003906,119.375 C95.56300354003906,116 103.31300354003906,107.375 115.18800354003906,105.5 C115.06300354003906,105.25 121.43800354003906,111.875 121.31300354003906,111.625 C107.68800354003906,116.375 101.06300354003906,126 100.81300354003906,125.625"></path></g></g></g></g></svg>