<svg xmlns="http://www.w3.org/2000/svg" xmlns:xlink="http://www.w3.org/1999/xlink" viewBox="0 0 512 512" width="512" height="512" style="width: 100%; height: 100%; transform: translate3d(0,0,0); content-visibility: visible;" preserveAspectRatio="xMidYMid meet"><defs><clipPath id="__lottie_element_2"><rect width="512" height="512" x="0" y="0"></rect></clipPath><linearGradient id="__lottie_element_9" spreadMethod="pad" gradientUnits="userSpaceOnUse" x1="-4.877999782562256" y1="-136.2899932861328" x2="-4.877999782562256" y2="1.5609999895095825"><stop offset="11%" stop-color="rgb(255,169,0)" stop-opacity="0"></stop><stop offset="51%" stop-color="rgb(255,169,0)" stop-opacity="0.5"></stop><stop offset="100%" stop-color="rgb(255,169,0)" stop-opacity="1"></stop></linearGradient><linearGradient id="__lottie_element_10" spreadMethod="pad" gradientUnits="userSpaceOnUse" x1="-3.878000020980835" y1="91.70999908447266" x2="-3.878000020980835" y2="-193.41000366210938"><stop offset="21%" stop-color="rgb(218,110,0)" stop-opacity="0.30000001192092896"></stop><stop offset="35%" stop-color="rgb(218,110,0)" stop-opacity="0.6499999761581421"></stop><stop offset="64%" stop-color="rgb(218,110,0)" stop-opacity="1"></stop><stop offset="77%" stop-color="rgb(218,110,0)" stop-opacity="0.5"></stop><stop offset="91%" stop-color="rgb(218,110,0)" stop-opacity="0"></stop></linearGradient><linearGradient id="__lottie_element_11" spreadMethod="pad" gradientUnits="userSpaceOnUse" x1="92.12200164794922" y1="-171.2899932861328" x2="92.46700286865234" y2="-100.46900177001953"><stop offset="0%" stop-color="rgb(255,255,255)" stop-opacity="1"></stop><stop offset="50%" stop-color="rgb(255,255,255)" stop-opacity="0.5"></stop><stop offset="100%" stop-color="rgb(255,255,255)" stop-opacity="0"></stop></linearGradient><linearGradient id="__lottie_element_12" spreadMethod="pad" gradientUnits="userSpaceOnUse" x1="-81.87799835205078" y1="-170.2899932861328" x2="-81.5260009765625" y2="-98.0999984741211"><stop offset="0%" stop-color="rgb(255,255,255)" stop-opacity="1"></stop><stop offset="50%" stop-color="rgb(255,255,255)" stop-opacity="0.5"></stop><stop offset="100%" stop-color="rgb(255,255,255)" stop-opacity="0"></stop></linearGradient><linearGradient id="__lottie_element_16" spreadMethod="pad" gradientUnits="userSpaceOnUse" x1="-0.878000020980835" y1="92.70999908447266" x2="-0.878000020980835" y2="115.66200256347656"><stop offset="0%" stop-color="rgb(255,168,0)" stop-opacity="1"></stop><stop offset="66%" stop-color="rgb(255,168,0)" stop-opacity="0.5049999952316284"></stop><stop offset="100%" stop-color="rgb(255,168,0)" stop-opacity="0.009999999776482582"></stop></linearGradient><linearGradient id="__lottie_element_17" spreadMethod="pad" gradientUnits="userSpaceOnUse" x1="-0.878000020980835" y1="100.70999908447266" x2="-0.878000020980835" y2="80.33899688720703"><stop offset="11%" stop-color="rgb(219,110,0)" stop-opacity="1"></stop><stop offset="44%" stop-color="rgb(219,110,0)" stop-opacity="0.5"></stop><stop offset="77%" stop-color="rgb(219,110,0)" stop-opacity="0"></stop></linearGradient><radialGradient id="__lottie_element_18" spreadMethod="pad" gradientUnits="userSpaceOnUse" cx="0.12200000137090683" cy="75.70999908447266" r="17.812000013887882" fx="0.12200000137090683" fy="75.70999908447266"><stop offset="40%" stop-color="rgb(255,168,0)" stop-opacity="0"></stop><stop offset="70%" stop-color="rgb(255,168,0)" stop-opacity="0.5"></stop><stop offset="100%" stop-color="rgb(255,168,0)" stop-opacity="1"></stop></radialGradient><linearGradient id="__lottie_element_19" spreadMethod="pad" gradientUnits="userSpaceOnUse" x1="-0.878000020980835" y1="73.70999908447266" x2="-0.878000020980835" y2="83.77300262451172"><stop offset="0%" stop-color="rgb(255,255,255)" stop-opacity="1"></stop><stop offset="50%" stop-color="rgb(255,255,255)" stop-opacity="0.5099999904632568"></stop><stop offset="100%" stop-color="rgb(255,255,255)" stop-opacity="0.019999999552965164"></stop></linearGradient><linearGradient id="__lottie_element_23" spreadMethod="pad" gradientUnits="userSpaceOnUse" x1="-0.878000020980835" y1="118.70999908447266" x2="-0.878000020980835" y2="136.5709991455078"><stop offset="0%" stop-color="rgb(255,168,0)" stop-opacity="1"></stop><stop offset="50%" stop-color="rgb(255,168,0)" stop-opacity="0.5"></stop><stop offset="100%" stop-color="rgb(255,168,0)" stop-opacity="0"></stop></linearGradient><radialGradient id="__lottie_element_24" spreadMethod="pad" gradientUnits="userSpaceOnUse" cx="-0.878000020980835" cy="144.7100067138672" r="44.89000105857849" fx="-0.878000020980835" fy="144.7100067138672"><stop offset="0%" stop-color="rgb(255,255,255)" stop-opacity="1"></stop><stop offset="62%" stop-color="rgb(255,255,255)" stop-opacity="0.5"></stop><stop offset="100%" stop-color="rgb(255,255,255)" stop-opacity="0"></stop></radialGradient><linearGradient id="__lottie_element_25" spreadMethod="pad" gradientUnits="userSpaceOnUse" x1="-0.878000020980835" y1="142.7100067138672" x2="-0.878000020980835" y2="124.40299987792969"><stop offset="0%" stop-color="rgb(88,11,14)" stop-opacity="0"></stop><stop offset="34%" stop-color="rgb(88,11,14)" stop-opacity="0.5"></stop><stop offset="75%" stop-color="rgb(88,11,14)" stop-opacity="1"></stop></linearGradient><linearGradient id="__lottie_element_29" spreadMethod="pad" gradientUnits="userSpaceOnUse" x1="-78.37799835205078" y1="37.709999084472656" x2="-59.35300064086914" y2="66.22799682617188"><stop offset="0%" stop-color="rgb(66,0,0)"></stop><stop offset="37%" stop-color="rgb(118,40,0)"></stop><stop offset="100%" stop-color="rgb(170,80,0)"></stop></linearGradient><radialGradient id="__lottie_element_30" spreadMethod="pad" gradientUnits="userSpaceOnUse" cx="-60.87799835205078" cy="60.584999084472656" r="14.931522986938496" fx="-60.87799835205078" fy="60.584999084472656"><stop offset="0%" stop-color="rgb(246,175,0)" stop-opacity="1"></stop><stop offset="50%" stop-color="rgb(246,175,0)" stop-opacity="0.5"></stop><stop offset="100%" stop-color="rgb(246,175,0)" stop-opacity="0"></stop></radialGradient><linearGradient id="__lottie_element_31" spreadMethod="pad" gradientUnits="userSpaceOnUse" x1="-79.75299835205078" y1="30.52199935913086" x2="-79.50299835205078" y2="42.09000015258789"><stop offset="0%" stop-color="rgb(255,255,255)" stop-opacity="1"></stop><stop offset="60%" stop-color="rgb(255,255,255)" stop-opacity="0.5"></stop><stop offset="100%" stop-color="rgb(255,255,255)" stop-opacity="0"></stop></linearGradient><linearGradient id="__lottie_element_32" spreadMethod="pad" gradientUnits="userSpaceOnUse" x1="66.62200164794922" y1="37.709999084472656" x2="85.39700317382812" y2="66.22799682617188"><stop offset="0%" stop-color="rgb(66,0,0)"></stop><stop offset="37%" stop-color="rgb(118,40,0)"></stop><stop offset="100%" stop-color="rgb(170,80,0)"></stop></linearGradient><radialGradient id="__lottie_element_33" spreadMethod="pad" gradientUnits="userSpaceOnUse" cx="83.87200164794922" cy="60.584999084472656" r="15.056518643047522" fx="83.87200164794922" fy="60.584999084472656"><stop offset="0%" stop-color="rgb(246,175,0)" stop-opacity="1"></stop><stop offset="50%" stop-color="rgb(246,175,0)" stop-opacity="0.5"></stop><stop offset="100%" stop-color="rgb(246,175,0)" stop-opacity="0"></stop></radialGradient><linearGradient id="__lottie_element_34" spreadMethod="pad" gradientUnits="userSpaceOnUse" x1="65.12200164794922" y1="30.52199935913086" x2="65.12200164794922" y2="42.09000015258789"><stop offset="0%" stop-color="rgb(255,255,255)" stop-opacity="1"></stop><stop offset="60%" stop-color="rgb(255,255,255)" stop-opacity="0.5"></stop><stop offset="100%" stop-color="rgb(255,255,255)" stop-opacity="0"></stop></linearGradient><linearGradient id="__lottie_element_38" spreadMethod="pad" gradientUnits="userSpaceOnUse" x1="90.62200164794922" y1="-68.79000091552734" x2="44.62799835205078" y2="-31.711999893188477"><stop offset="20%" stop-color="rgb(219,110,0)" stop-opacity="1"></stop><stop offset="46%" stop-color="rgb(219,110,0)" stop-opacity="0.5"></stop><stop offset="71%" stop-color="rgb(219,110,0)" stop-opacity="0"></stop></linearGradient><linearGradient id="__lottie_element_39" spreadMethod="pad" gradientUnits="userSpaceOnUse" x1="-132.8780059814453" y1="-65.29000091552734" x2="-55.17100143432617" y2="-20.672000885009766"><stop offset="11%" stop-color="rgb(219,110,0)" stop-opacity="1"></stop><stop offset="43%" stop-color="rgb(219,110,0)" stop-opacity="0.5"></stop><stop offset="71%" stop-color="rgb(219,110,0)" stop-opacity="0"></stop></linearGradient><linearGradient id="__lottie_element_40" spreadMethod="pad" gradientUnits="userSpaceOnUse" x1="-1.878000020980835" y1="-80.29000091552734" x2="-1.878000020980835" y2="159.9239959716797"><stop offset="0%" stop-color="rgb(255,216,0)" stop-opacity="0"></stop><stop offset="13%" stop-color="rgb(255,216,0)" stop-opacity="0.5"></stop><stop offset="50%" stop-color="rgb(255,216,0)" stop-opacity="1"></stop><stop offset="88%" stop-color="rgb(255,216,0)" stop-opacity="0.5"></stop><stop offset="100%" stop-color="rgb(255,216,0)" stop-opacity="0"></stop></linearGradient><linearGradient id="__lottie_element_44" spreadMethod="pad" gradientUnits="userSpaceOnUse" x1="188.9969940185547" y1="147.7100067138672" x2="118.04399871826172" y2="151.88600158691406"><stop offset="0%" stop-color="rgb(255,169,0)" stop-opacity="0"></stop><stop offset="31%" stop-color="rgb(255,169,0)" stop-opacity="0.5"></stop><stop offset="91%" stop-color="rgb(255,169,0)" stop-opacity="1"></stop></linearGradient><linearGradient id="__lottie_element_45" spreadMethod="pad" gradientUnits="userSpaceOnUse" x1="173.6219940185547" y1="151.2100067138672" x2="97.24600219726562" y2="134.5850067138672"><stop offset="7%" stop-color="rgb(218,110,0)" stop-opacity="0.30000001192092896"></stop><stop offset="38%" stop-color="rgb(218,110,0)" stop-opacity="0.6499999761581421"></stop><stop offset="100%" stop-color="rgb(218,110,0)" stop-opacity="1"></stop></linearGradient><linearGradient id="__lottie_element_46" spreadMethod="pad" gradientUnits="userSpaceOnUse" x1="166.8719940185547" y1="116.95999908447266" x2="157.0489959716797" y2="138.68699645996094"><stop offset="0%" stop-color="rgb(255,255,255)" stop-opacity="1"></stop><stop offset="50%" stop-color="rgb(255,255,255)" stop-opacity="0.5"></stop><stop offset="100%" stop-color="rgb(255,255,255)" stop-opacity="0"></stop></linearGradient><linearGradient id="__lottie_element_47" spreadMethod="pad" gradientUnits="userSpaceOnUse" x1="188.9969940185547" y1="147.7100067138672" x2="118.04399871826172" y2="151.88600158691406"><stop offset="0%" stop-color="rgb(255,169,0)" stop-opacity="0"></stop><stop offset="31%" stop-color="rgb(255,169,0)" stop-opacity="0.5"></stop><stop offset="91%" stop-color="rgb(255,169,0)" stop-opacity="1"></stop></linearGradient><linearGradient id="__lottie_element_48" spreadMethod="pad" gradientUnits="userSpaceOnUse" x1="173.6219940185547" y1="151.2100067138672" x2="97.24600219726562" y2="134.5850067138672"><stop offset="7%" stop-color="rgb(218,110,0)" stop-opacity="0.30000001192092896"></stop><stop offset="38%" stop-color="rgb(218,110,0)" stop-opacity="0.6499999761581421"></stop><stop offset="100%" stop-color="rgb(218,110,0)" stop-opacity="1"></stop></linearGradient><linearGradient id="__lottie_element_49" spreadMethod="pad" gradientUnits="userSpaceOnUse" x1="166.8719940185547" y1="116.95999908447266" x2="157.0489959716797" y2="138.68699645996094"><stop offset="0%" stop-color="rgb(255,255,255)" stop-opacity="1"></stop><stop offset="50%" stop-color="rgb(255,255,255)" stop-opacity="0.5"></stop><stop offset="100%" stop-color="rgb(255,255,255)" stop-opacity="0"></stop></linearGradient></defs><g clip-path="url(#__lottie_element_2)"><g style="display: block;" transform="matrix(1,0,0,1,256,256)" opacity="1"><g opacity="1" transform="matrix(1,0,0,1,0,0)"><g opacity="1" transform="matrix(1,0,0,1,0,0)"><path fill="rgb(255,205,0)" fill-opacity="1" d=" M133.62899780273438,102.5260009765625 C151.81199645996094,104.68699645996094 196.02099609375,118.38600158691406 201.26600646972656,130.62399291992188 C209.5659942626953,149.99099731445312 173.94500732421875,192.87399291992188 151.81199645996094,193.22000122070312 C129.6790008544922,193.5659942626953 108.9280014038086,133.39100646972656 111.00299835205078,119.55799865722656 C113.0780029296875,105.7249984741211 114.1780014038086,100.21399688720703 133.62899780273438,102.5260009765625z"></path></g><g opacity="1" transform="matrix(1,0,0,1,0,0)"><path fill="url(#__lottie_element_44)" fill-opacity="1" d=" M133.62899780273438,102.5260009765625 C151.81199645996094,104.68699645996094 196.02099609375,118.38600158691406 201.26600646972656,130.62399291992188 C209.5659942626953,149.99099731445312 173.94500732421875,192.87399291992188 151.81199645996094,193.22000122070312 C129.6790008544922,193.5659942626953 108.9280014038086,133.39100646972656 111.00299835205078,119.55799865722656 C113.0780029296875,105.7249984741211 114.1780014038086,100.21399688720703 133.62899780273438,102.5260009765625z"></path></g><g opacity="1" transform="matrix(1,0,0,1,0,0)"><path fill="url(#__lottie_element_45)" fill-opacity="0.4" d=" M189.572998046875,167.11700439453125 C167.81199645996094,185.61000061035156 150.4530029296875,169.51600646972656 142.0850067138672,130.5659942626953 C134.8509979248047,96.89399719238281 181.97999572753906,115.99600219726562 181.97999572753906,115.99600219726562 C181.97999572753906,115.99600219726562 124.43199920654297,89.35099792480469 110.86000061035156,103.94200134277344 C97.28800201416016,118.53299713134766 127.96900177001953,189.73699951171875 146.50100708007812,192.17599487304688 C165.0330047607422,194.61500549316406 189.572998046875,167.11700439453125 189.572998046875,167.11700439453125z"></path></g><g opacity="1" transform="matrix(1,0,0,1,0,0)"><path stroke-linecap="round" stroke-linejoin="round" fill-opacity="0" stroke="rgb(197,92,0)" stroke-opacity="1" stroke-width="8" d=" M133.62899780273438,102.5260009765625 C151.81199645996094,104.68699645996094 194.6490020751953,116.03199768066406 201.26600646972656,130.62399291992188 C209.96800231933594,149.81300354003906 173.94500732421875,192.87399291992188 151.81199645996094,193.22000122070312 C129.6790008544922,193.5659942626953 108.9280014038086,133.39100646972656 111.00299835205078,119.55799865722656 C113.0780029296875,105.7249984741211 114.1780014038086,100.21399688720703 133.62899780273438,102.5260009765625z"></path></g><g opacity="1" transform="matrix(1,0,0,1,0,0)"><path stroke-linecap="round" stroke-linejoin="round" fill-opacity="0" stroke="rgb(163,65,0)" stroke-opacity="1" stroke-width="8" d=" M151.81199645996094,193.22000122070312 C129.6790008544922,193.5659942626953 108.9280014038086,133.39100646972656 111.00299835205078,119.55799865722656 C113.0780029296875,105.7249984741211 114.1780014038086,100.21399688720703 133.62899780273438,102.5260009765625"></path></g><g opacity="1" transform="matrix(1,0,0,1,0,0)"><path fill="url(#__lottie_element_46)" fill-opacity="0.6" d=" M142.81900024414062,117.0999984741211 C146.6020050048828,108.26499938964844 190.5,123.4739990234375 193.0540008544922,136.50999450683594 C195.60800170898438,149.54600524902344 178.3260040283203,151.6820068359375 161.46499633789062,145.47000122070312 C144.66400146484375,139.27999877929688 138.5030059814453,127.17900085449219 142.81900024414062,117.0999984741211z"></path></g></g><g opacity="1" transform="matrix(-1,0,0,1,0,0)"><g opacity="1" transform="matrix(1,0,0,1,0,0)"><path fill="rgb(255,205,0)" fill-opacity="1" d=" M133.62899780273438,102.5260009765625 C151.81199645996094,104.68699645996094 196.02099609375,118.38600158691406 201.26600646972656,130.62399291992188 C209.5659942626953,149.99099731445312 173.94500732421875,192.87399291992188 151.81199645996094,193.22000122070312 C129.6790008544922,193.5659942626953 108.9280014038086,133.39100646972656 111.00299835205078,119.55799865722656 C113.0780029296875,105.7249984741211 114.1780014038086,100.21399688720703 133.62899780273438,102.5260009765625z"></path></g><g opacity="1" transform="matrix(1,0,0,1,0,0)"><path fill="url(#__lottie_element_47)" fill-opacity="1" d=" M133.62899780273438,102.5260009765625 C151.81199645996094,104.68699645996094 196.02099609375,118.38600158691406 201.26600646972656,130.62399291992188 C209.5659942626953,149.99099731445312 173.94500732421875,192.87399291992188 151.81199645996094,193.22000122070312 C129.6790008544922,193.5659942626953 108.9280014038086,133.39100646972656 111.00299835205078,119.55799865722656 C113.0780029296875,105.7249984741211 114.1780014038086,100.21399688720703 133.62899780273438,102.5260009765625z"></path></g><g opacity="1" transform="matrix(1,0,0,1,0,0)"><path fill="url(#__lottie_element_48)" fill-opacity="0.4" d=" M189.572998046875,167.11700439453125 C167.81199645996094,185.61000061035156 150.4530029296875,169.51600646972656 142.0850067138672,130.5659942626953 C134.8509979248047,96.89399719238281 181.97999572753906,115.99600219726562 181.97999572753906,115.99600219726562 C181.97999572753906,115.99600219726562 124.43199920654297,89.35099792480469 110.86000061035156,103.94200134277344 C97.28800201416016,118.53299713134766 127.96900177001953,189.73699951171875 146.50100708007812,192.17599487304688 C165.0330047607422,194.61500549316406 189.572998046875,167.11700439453125 189.572998046875,167.11700439453125z"></path></g><g opacity="1" transform="matrix(1,0,0,1,0,0)"><path stroke-linecap="round" stroke-linejoin="round" fill-opacity="0" stroke="rgb(197,92,0)" stroke-opacity="1" stroke-width="8" d=" M133.62899780273438,102.5260009765625 C151.81199645996094,104.68699645996094 194.6490020751953,116.03199768066406 201.26600646972656,130.62399291992188 C209.96800231933594,149.81300354003906 173.94500732421875,192.87399291992188 151.81199645996094,193.22000122070312 C129.6790008544922,193.5659942626953 108.9280014038086,133.39100646972656 111.00299835205078,119.55799865722656 C113.0780029296875,105.7249984741211 114.1780014038086,100.21399688720703 133.62899780273438,102.5260009765625z"></path></g><g opacity="1" transform="matrix(1,0,0,1,0,0)"><path stroke-linecap="round" stroke-linejoin="round" fill-opacity="0" stroke="rgb(163,65,0)" stroke-opacity="1" stroke-width="8" d=" M151.81199645996094,193.22000122070312 C129.6790008544922,193.5659942626953 108.9280014038086,133.39100646972656 111.00299835205078,119.55799865722656 C113.0780029296875,105.7249984741211 114.1780014038086,100.21399688720703 133.62899780273438,102.5260009765625"></path></g><g opacity="1" transform="matrix(1,0,0,1,0,0)"><path fill="url(#__lottie_element_49)" fill-opacity="0.6" d=" M142.81900024414062,117.0999984741211 C146.6020050048828,108.26499938964844 190.5,123.4739990234375 193.0540008544922,136.50999450683594 C195.60800170898438,149.54600524902344 178.3260040283203,151.6820068359375 161.46499633789062,145.47000122070312 C144.66400146484375,139.27999877929688 138.5030059814453,127.17900085449219 142.81900024414062,117.0999984741211z"></path></g></g></g><g style="display: block;" transform="matrix(1,0,0,1,256,256)" opacity="1"><g opacity="1" transform="matrix(1,0,0,1,0,0)"><path fill="rgb(255,168,0)" fill-opacity="1" d=" M0,-155.3939971923828 C-92.6259994506836,-155.3939971923828 -174.77999877929688,-111.12699890136719 -174.77999877929688,-6.599999904632568 C-174.77999877929688,97.927001953125 -89.86100006103516,192.2209930419922 0,192.2209930419922 C89.86100006103516,192.2209930419922 174.77999877929688,97.927001953125 174.77999877929688,-6.599999904632568 C174.77999877929688,-111.12699890136719 92.6259994506836,-155.3939971923828 0,-155.3939971923828z"></path></g><g opacity="1" transform="matrix(1,0,0,1,0,0)"><path fill="url(#__lottie_element_38)" fill-opacity="1" d=" M0,-155.3939971923828 C-92.6259994506836,-155.3939971923828 -174.77999877929688,-111.12699890136719 -174.77999877929688,-6.599999904632568 C-174.77999877929688,97.927001953125 -89.86100006103516,192.2209930419922 0,192.2209930419922 C89.86100006103516,192.2209930419922 174.77999877929688,97.927001953125 174.77999877929688,-6.599999904632568 C174.77999877929688,-111.12699890136719 92.6259994506836,-155.3939971923828 0,-155.3939971923828z"></path></g><g opacity="1" transform="matrix(1,0,0,1,0.5,0)"><path fill="url(#__lottie_element_39)" fill-opacity="1" d=" M0,-155.3939971923828 C-92.6259994506836,-155.3939971923828 -174.77999877929688,-111.12699890136719 -174.77999877929688,-6.599999904632568 C-174.77999877929688,97.927001953125 -89.86100006103516,192.2209930419922 0,192.2209930419922 C89.86100006103516,192.2209930419922 174.77999877929688,97.927001953125 174.77999877929688,-6.599999904632568 C174.77999877929688,-111.12699890136719 92.6259994506836,-155.3939971923828 0,-155.3939971923828z"></path></g><g opacity="1" transform="matrix(1,0,0,1,0,0)"><path fill="url(#__lottie_element_40)" fill-opacity="1" d=" M83.35800170898438,-21.347000122070312 C28.951000213623047,-48.89799880981445 15.979999542236328,-69.94300079345703 7.989999771118164,-83.88999938964844 C7.989999771118164,-83.88999938964844 -3.3389999866485596,-53.611000061035156 -87.39900207519531,-20.29400062561035 C-169.44500732421875,12.225000381469727 -143.32899475097656,81.57099914550781 -97.1449966430664,126.18399810791016 C-57.358001708984375,164.6179962158203 -17.926000595092773,168.6490020751953 0,168.6490020751953 C0,168.6490020751953 0,168.5959930419922 0,168.5959930419922 C17.944000244140625,168.58999633789062 57.34600067138672,164.53700256347656 97.10399627685547,126.13099670410156 C143.28799438476562,81.51799774169922 163.39599609375,19.183000564575195 83.35800170898438,-21.347000122070312z"></path></g><g opacity="1" transform="matrix(1,0,0,1,0,0)"><path stroke-linecap="round" stroke-linejoin="round" fill-opacity="0" stroke="rgb(219,110,0)" stroke-opacity="1" stroke-width="8" d=" M0,-155.3939971923828 C-92.6259994506836,-155.3939971923828 -174.77999877929688,-111.12699890136719 -174.77999877929688,-6.599999904632568 C-174.77999877929688,97.927001953125 -89.86100006103516,192.2209930419922 0,192.2209930419922 C89.86100006103516,192.2209930419922 174.77999877929688,97.927001953125 174.77999877929688,-6.599999904632568 C174.77999877929688,-111.12699890136719 92.6259994506836,-155.3939971923828 0,-155.3939971923828z"></path></g></g><g style="display: block;" transform="matrix(1,0,0,1,256,256)" opacity="1"><g opacity="1" transform="matrix(1,0,0,1,0,0)"><g opacity="1" transform="matrix(1,0,0,1,0,0)"><path fill="rgb(255,255,255)" fill-opacity="1" d=" M-31.125,63.58399963378906 C-31.125,63.58399963378906 -34.72200012207031,19.805999755859375 -71.71499633789062,17.54800033569336 C-97.04299926757812,16.00200080871582 -116.69300079345703,53.41899871826172 -116.69300079345703,53.41899871826172 C-116.69300079345703,53.41899871826172 -107.5780029296875,76.19300079345703 -77.93099975585938,79.44400024414062 C-47.35499954223633,82.7969970703125 -31.316999435424805,63.85499954223633 -31.125,63.58399963378906z"></path></g><g opacity="1" transform="matrix(1,0,0,1,0,0)"><g opacity="1" transform="matrix(1,0,0,1,0,0)"><path fill="url(#__lottie_element_29)" fill-opacity="1" d=" M-48.61199951171875,47.64699935913086 C-48.61199951171875,61.55699920654297 -59.25199890136719,72.83300018310547 -72.37799835205078,72.83300018310547 C-85.50399780273438,72.83300018310547 -96.1449966430664,61.55699920654297 -96.1449966430664,47.64699935913086 C-96.1449966430664,33.73699951171875 -85.50399780273438,22.461000442504883 -72.37799835205078,22.461000442504883 C-59.25199890136719,22.461000442504883 -48.61199951171875,33.73699951171875 -48.61199951171875,47.64699935913086z"></path></g><g opacity="1" transform="matrix(1,0,0,1,0,0)"><path fill="url(#__lottie_element_30)" fill-opacity="1" d=" M-66.8740005493164,71.75 C-68.7509994506836,71.75 -70.48799896240234,70.53800201416016 -71.06999969482422,68.6510009765625 C-71.78500366210938,66.33300018310547 -70.48500061035156,63.874000549316406 -68.16699981689453,63.159000396728516 C-63.733001708984375,61.79100036621094 -60.202999114990234,58.34600067138672 -58.724998474121094,53.944000244140625 C-57.952999114990234,51.643001556396484 -55.45899963378906,50.40800094604492 -53.16400146484375,51.178001403808594 C-50.86399841308594,51.94900131225586 -49.625,54.439998626708984 -50.39699935913086,56.7400016784668 C-52.77199935913086,63.81700134277344 -58.446998596191406,69.3550033569336 -65.5780029296875,71.55400085449219 C-66.00900268554688,71.68699645996094 -66.44599914550781,71.75 -66.8740005493164,71.75z"></path></g><g opacity="1" transform="matrix(1,0,0,1,0,0)"><path fill="rgb(23,19,10)" fill-opacity="1" d=" M-57.358001708984375,47.64699935913086 C-57.358001708984375,56.4379997253418 -64.08200073242188,63.56399917602539 -72.37799835205078,63.56399917602539 C-80.67400360107422,63.56399917602539 -87.39900207519531,56.4379997253418 -87.39900207519531,47.64699935913086 C-87.39900207519531,38.85599899291992 -80.67400360107422,31.729000091552734 -72.37799835205078,31.729000091552734 C-64.08200073242188,31.729000091552734 -57.358001708984375,38.85599899291992 -57.358001708984375,47.64699935913086z"></path></g><g opacity="1" transform="matrix(1,0,0,1,0,0)"><path fill="url(#__lottie_element_31)" fill-opacity="1" d=" M-72.88700103759766,35.922000885009766 C-72.88700103759766,39.74100112915039 -75.80899810791016,42.83700180053711 -79.41300201416016,42.83700180053711 C-83.01699829101562,42.83700180053711 -85.93900299072266,39.74100112915039 -85.93900299072266,35.922000885009766 C-85.93900299072266,32.10300064086914 -83.01699829101562,29.006000518798828 -79.41300201416016,29.006000518798828 C-75.80899810791016,29.006000518798828 -72.88700103759766,32.10300064086914 -72.88700103759766,35.922000885009766z"></path></g></g><g opacity="1" transform="matrix(1,0,0,1,0,0)"><path fill="rgb(163,65,0)" fill-opacity="1" d=" M-32.33399963378906,55.70000076293945 C-32.33700180053711,55.75899887084961 -38.12200164794922,17.441999435424805 -72.90899658203125,17.18400001525879 C-88.66500091552734,17.066999435424805 -100.83100128173828,24.89299964904785 -110.17500305175781,38.82099914550781 C-116.08300018310547,47.62799835205078 -117.69300079345703,53.41899871826172 -117.69300079345703,53.41899871826172 C-117.69300079345703,53.41899871826172 -99.93199920654297,20.190000534057617 -74.2300033569336,19.945999145507812 C-39.41699981689453,19.615999221801758 -32.332000732421875,55.624000549316406 -32.33399963378906,55.70000076293945z"></path><path stroke-linecap="round" stroke-linejoin="round" fill-opacity="0" stroke="rgb(163,65,0)" stroke-opacity="1" stroke-width="2" d=" M-32.33399963378906,55.70000076293945 C-32.33700180053711,55.75899887084961 -38.12200164794922,17.441999435424805 -72.90899658203125,17.18400001525879 C-88.66500091552734,17.066999435424805 -100.83100128173828,24.89299964904785 -110.17500305175781,38.82099914550781 C-116.08300018310547,47.62799835205078 -117.69300079345703,53.41899871826172 -117.69300079345703,53.41899871826172 C-117.69300079345703,53.41899871826172 -99.93199920654297,20.190000534057617 -74.2300033569336,19.945999145507812 C-39.41699981689453,19.615999221801758 -32.332000732421875,55.624000549316406 -32.33399963378906,55.70000076293945z"></path></g></g><g opacity="1" transform="matrix(1,0,0,1,0,0)"><g opacity="1" transform="matrix(1,0,0,1,0,0)"><path fill="rgb(255,255,255)" fill-opacity="1" d=" M31.125,63.58399963378906 C31.125,63.58399963378906 34.72200012207031,19.805999755859375 71.71499633789062,17.54800033569336 C97.04299926757812,16.00200080871582 116.69300079345703,53.41899871826172 116.69300079345703,53.41899871826172 C116.69300079345703,53.41899871826172 107.5780029296875,76.19300079345703 77.93099975585938,79.44400024414062 C47.35499954223633,82.7969970703125 31.316999435424805,63.85499954223633 31.125,63.58399963378906z"></path></g><g opacity="1" transform="matrix(1,0,0,1,0,0)"><g opacity="1" transform="matrix(1,0,0,1,0,0)"><path fill="url(#__lottie_element_32)" fill-opacity="1" d=" M96.1449966430664,47.64699935913086 C96.1449966430664,61.55699920654297 85.50399780273438,72.83300018310547 72.37799835205078,72.83300018310547 C59.25199890136719,72.83300018310547 48.61199951171875,61.55699920654297 48.61199951171875,47.64699935913086 C48.61199951171875,33.73699951171875 59.25199890136719,22.461000442504883 72.37799835205078,22.461000442504883 C85.50399780273438,22.461000442504883 96.1449966430664,33.73699951171875 96.1449966430664,47.64699935913086z"></path></g><g opacity="1" transform="matrix(1,0,0,1,0,0)"><path fill="url(#__lottie_element_33)" fill-opacity="1" d=" M77.88300323486328,71.75 C76.00599670410156,71.75 74.26899719238281,70.53800201416016 73.68699645996094,68.6510009765625 C72.97200012207031,66.33300018310547 74.27100372314453,63.874000549316406 76.58899688720703,63.159000396728516 C81.02300262451172,61.79100036621094 84.5530014038086,58.34600067138672 86.03099822998047,53.944000244140625 C86.8030014038086,51.643001556396484 89.2969970703125,50.40800094604492 91.59200286865234,51.178001403808594 C93.89199829101562,51.94900131225586 95.13099670410156,54.439998626708984 94.35900115966797,56.7400016784668 C91.98400115966797,63.81700134277344 86.30899810791016,69.3550033569336 79.1780014038086,71.55400085449219 C78.74700164794922,71.68699645996094 78.31099700927734,71.75 77.88300323486328,71.75z"></path></g><g opacity="1" transform="matrix(1,0,0,1,0,0)"><path fill="rgb(23,19,10)" fill-opacity="1" d=" M87.39900207519531,47.64699935913086 C87.39900207519531,56.4379997253418 80.67400360107422,63.56399917602539 72.37799835205078,63.56399917602539 C64.08200073242188,63.56399917602539 57.358001708984375,56.4379997253418 57.358001708984375,47.64699935913086 C57.358001708984375,38.85599899291992 64.08200073242188,31.729000091552734 72.37799835205078,31.729000091552734 C80.67400360107422,31.729000091552734 87.39900207519531,38.85599899291992 87.39900207519531,47.64699935913086z"></path></g><g opacity="1" transform="matrix(1,0,0,1,0,0)"><path fill="url(#__lottie_element_34)" fill-opacity="1" d=" M71.86900329589844,35.922000885009766 C71.86900329589844,39.74100112915039 68.9469985961914,42.83700180053711 65.34300231933594,42.83700180053711 C61.73899841308594,42.83700180053711 58.81800079345703,39.74100112915039 58.81800079345703,35.922000885009766 C58.81800079345703,32.10300064086914 61.73899841308594,29.006000518798828 65.34300231933594,29.006000518798828 C68.9469985961914,29.006000518798828 71.86900329589844,32.10300064086914 71.86900329589844,35.922000885009766z"></path></g></g><g opacity="1" transform="matrix(1,0,0,1,0,0)"><path fill="rgb(163,65,0)" fill-opacity="1" d=" M31.979999542236328,55.70000076293945 C31.982999801635742,55.75899887084961 38.12200164794922,17.441999435424805 72.90899658203125,17.18400001525879 C88.66500091552734,17.066999435424805 100.83100128173828,24.89299964904785 110.17500305175781,38.82099914550781 C115.26300048828125,46.404998779296875 117.16300201416016,51.75299835205078 117.59300231933594,53.09199905395508 C117.66200256347656,53.30799865722656 117.69300079345703,53.41899871826172 117.69300079345703,53.41899871826172 C117.69300079345703,53.41899871826172 99.93199920654297,20.190000534057617 74.2300033569336,19.945999145507812 C39.41600036621094,19.615999221801758 31.979000091552734,55.624000549316406 31.979999542236328,55.70000076293945z"></path><path stroke-linecap="round" stroke-linejoin="round" fill-opacity="0" stroke="rgb(163,65,0)" stroke-opacity="1" stroke-width="2" d=" M31.979999542236328,55.70000076293945 C31.982999801635742,55.75899887084961 38.12200164794922,17.441999435424805 72.90899658203125,17.18400001525879 C88.66500091552734,17.066999435424805 100.83100128173828,24.89299964904785 110.17500305175781,38.82099914550781 C115.26300048828125,46.404998779296875 117.16300201416016,51.75299835205078 117.59300231933594,53.09199905395508 C117.66200256347656,53.30799865722656 117.69300079345703,53.41899871826172 117.69300079345703,53.41899871826172 C117.69300079345703,53.41899871826172 99.93199920654297,20.190000534057617 74.2300033569336,19.945999145507812 C39.41600036621094,19.615999221801758 31.979000091552734,55.624000549316406 31.979999542236328,55.70000076293945z"></path></g></g></g><g style="display: block;" transform="matrix(1,0,0,1,256,256)" opacity="1"><g opacity="1" transform="matrix(1,0,0,1,0,0)"><path fill="url(#__lottie_element_23)" fill-opacity="1" d=" M45.08300018310547,125.06300354003906 C43.28200149536133,121.71700286865234 38.45399856567383,119.24700164794922 0.035999998450279236,119.24700164794922 C-37.45600128173828,119.24700164794922 -43.11800003051758,121.76300048828125 -45.01100158691406,125.06300354003906 C-49.10900115966797,132.20599365234375 -31.600000381469727,148.44500732421875 0.027000000700354576,148.44500732421875 C31.117000579833984,148.44500732421875 48.92900085449219,132.20599365234375 45.08300018310547,125.06300354003906z"></path></g><g opacity="1" transform="matrix(1,0,0,1,0,0)"><path fill="url(#__lottie_element_24)" fill-opacity="0.7000000000000001" d=" M45.08300018310547,135.0540008544922 C43.30799865722656,131.69400024414062 38.45399856567383,132.23899841308594 0.035999998450279236,132.23899841308594 C-37.45600128173828,132.23899841308594 -43.02199935913086,131.81100463867188 -45.01100158691406,135.0540008544922 C-46.75699996948242,137.9010009765625 -31.600000381469727,158.43600463867188 0.027000000700354576,158.43600463867188 C31.117000579833984,158.43600463867188 46.70800018310547,138.1300048828125 45.08300018310547,135.0540008544922z"></path></g><g opacity="1" transform="matrix(1,0,0,1,0,0)"><path fill="rgb(136,24,4)" fill-opacity="1" d=" M45.08300018310547,126.05899810791016 C44.08399963378906,124.16799926757812 42.11000061035156,125.56400299072266 33.724998474121094,124.52200317382812 C27.211999893188477,123.71299743652344 16.83099937438965,123.24400329589844 0.035999998450279236,123.24400329589844 C-16.100000381469727,123.24400329589844 -26.32200050354004,123.72100067138672 -32.89099884033203,124.52200317382812 C-41.584999084472656,125.58300018310547 -43.87799835205078,124.21099853515625 -45.01100158691406,126.05899810791016 C-46.75699996948242,128.906005859375 -31.600000381469727,152.4409942626953 0.027000000700354576,152.4409942626953 C31.117000579833984,152.4409942626953 46.70800018310547,129.13499450683594 45.08300018310547,126.05899810791016z"></path></g><g opacity="1" transform="matrix(1,0,0,1,0,0)"><path fill="url(#__lottie_element_25)" fill-opacity="1" d=" M45.08300018310547,126.05899810791016 C44.08399963378906,124.16799926757812 42.11000061035156,125.56400299072266 33.724998474121094,124.52200317382812 C27.211999893188477,123.71299743652344 16.83099937438965,123.24400329589844 0.035999998450279236,123.24400329589844 C-16.100000381469727,123.24400329589844 -26.32200050354004,123.72100067138672 -32.89099884033203,124.52200317382812 C-41.584999084472656,125.58300018310547 -43.87799835205078,124.21099853515625 -45.01100158691406,126.05899810791016 C-46.75699996948242,128.906005859375 -31.600000381469727,152.4409942626953 0.027000000700354576,152.4409942626953 C31.117000579833984,152.4409942626953 46.70800018310547,129.13499450683594 45.08300018310547,126.05899810791016z"></path></g></g><g style="display: block;" transform="matrix(1,0,0,1,256,256)" opacity="1"><g opacity="1" transform="matrix(1,0,0,1,0,0)"><path fill="url(#__lottie_element_16)" fill-opacity="1" d=" M17.926000595092773,95.80699920654297 C17.926000595092773,104.14800262451172 9.343999862670898,111.56400299072266 0,111.56400299072266 C-9.343999862670898,111.56400299072266 -17.926000595092773,104.14800262451172 -17.926000595092773,95.80699920654297 C-17.926000595092773,87.46600341796875 -9.343999862670898,79.81900024414062 0,79.81900024414062 C9.343999862670898,79.81900024414062 17.926000595092773,87.46600341796875 17.926000595092773,95.80699920654297z"></path></g><g opacity="1" transform="matrix(1,0,0,1,0,0)"><path fill="rgb(255,168,0)" fill-opacity="0.8" d=" M17.926000595092773,87.8290023803711 C17.926000595092773,95.81999969482422 9.899999618530273,102.2979965209961 0,102.2979965209961 C-9.899999618530273,102.2979965209961 -17.926000595092773,95.81999969482422 -17.926000595092773,87.8290023803711 C-17.926000595092773,79.83799743652344 -9.899999618530273,73.70099639892578 0,73.70099639892578 C9.899999618530273,73.70099639892578 17.926000595092773,79.83799743652344 17.926000595092773,87.8290023803711z"></path></g><g opacity="1" transform="matrix(1,0,0,1,0,0)"><path fill="url(#__lottie_element_17)" fill-opacity="0.7000000000000001" d=" M17.926000595092773,87.8290023803711 C17.926000595092773,95.81999969482422 9.899999618530273,102.2979965209961 0,102.2979965209961 C-9.899999618530273,102.2979965209961 -17.926000595092773,95.81999969482422 -17.926000595092773,87.8290023803711 C-17.926000595092773,79.83799743652344 -9.899999618530273,73.70099639892578 0,73.70099639892578 C9.899999618530273,73.70099639892578 17.926000595092773,79.83799743652344 17.926000595092773,87.8290023803711z"></path></g><g opacity="1" transform="matrix(1,0,0,1,0,0)"><path fill="rgb(255,216,0)" fill-opacity="1" d=" M15.508000373840332,83.26200103759766 C15.508000373840332,89.21099853515625 8.564000129699707,94.03399658203125 0,94.03399658203125 C-8.5649995803833,94.03399658203125 -15.506999969482422,89.21099853515625 -15.506999969482422,83.26200103759766 C-15.506999969482422,77.31300354003906 -8.5649995803833,73.46700286865234 0,73.46700286865234 C8.564000129699707,73.46700286865234 15.508000373840332,77.31300354003906 15.508000373840332,83.26200103759766z"></path></g><g opacity="1" transform="matrix(1,0,0,1,0,0)"><path fill="url(#__lottie_element_18)" fill-opacity="1" d=" M15.508000373840332,83.26200103759766 C15.508000373840332,89.21099853515625 8.564000129699707,94.03399658203125 0,94.03399658203125 C-8.5649995803833,94.03399658203125 -15.506999969482422,89.21099853515625 -15.506999969482422,83.26200103759766 C-15.506999969482422,77.31300354003906 -8.5649995803833,73.46700286865234 0,73.46700286865234 C8.564000129699707,73.46700286865234 15.508000373840332,77.31300354003906 15.508000373840332,83.26200103759766z"></path></g><g opacity="1" transform="matrix(1,0,0,1,0,0)"><path fill="url(#__lottie_element_19)" fill-opacity="0.7000000000000001" d=" M7.989999771118164,78.94200134277344 C7.989999771118164,82.12699890136719 4.413000106811523,85.12300109863281 0,85.12300109863281 C-4.413000106811523,85.12300109863281 -7.989999771118164,82.12699890136719 -7.989999771118164,78.94200134277344 C-7.989999771118164,75.75700378417969 -4.413000106811523,74.15899658203125 0,74.15899658203125 C4.413000106811523,74.15899658203125 7.989999771118164,75.75700378417969 7.989999771118164,78.94200134277344z"></path></g></g><g style="display: block;" transform="matrix(1,0,0,1,256,256)" opacity="1"><g opacity="1" transform="matrix(1,0,0,1,0,0)"><path fill="rgb(255,205,0)" fill-opacity="1" d=" M9.064000129699707,-115.71399688720703 C9.064000129699707,-115.71399688720703 4.435999870300293,-85.91200256347656 -70.88899993896484,-51.678001403808594 C-143.26100158691406,-18.78700065612793 -160.95700073242188,3.490000009536743 -168.67999267578125,42.05799865722656 C-168.67999267578125,42.05799865722656 -161.35800170898438,72.0719985961914 -149.15699768066406,91.91200256347656 C-149.15699768066406,91.91200256347656 -175.88400268554688,82.94499969482422 -189.38299560546875,41.909000396728516 C-202.8820037841797,0.8730000257492065 -204.50100708007812,-65.54199981689453 -168.86399841308594,-122.23699951171875 C-125.572998046875,-191.11000061035156 -32.290000915527344,-207.46499633789062 11.479999542236328,-181.6320037841797 C11.479999542236328,-181.6320037841797 60.27299880981445,-211.63299560546875 117.5999984741211,-172.11700439453125 C182.69200134277344,-127.2490005493164 223.35400390625,26.614999771118164 153.76800537109375,82.927001953125 C153.76800537109375,82.927001953125 159.531005859375,70.54000091552734 164.19000244140625,57.39400100708008 C164.19000244140625,57.39400100708008 162.9010009765625,12.38700008392334 111.65899658203125,-25.427000045776367 C84.48200225830078,-45.481998443603516 32.77799987792969,-54.72200012207031 9.064000129699707,-115.71399688720703z"></path></g><g opacity="1" transform="matrix(1,0,0,1,0,0)"><path fill="url(#__lottie_element_9)" fill-opacity="1" d=" M9.064000129699707,-115.71399688720703 C9.064000129699707,-115.71399688720703 4.435999870300293,-85.91200256347656 -70.88899993896484,-51.678001403808594 C-143.26100158691406,-18.78700065612793 -160.95700073242188,3.490000009536743 -168.67999267578125,42.05799865722656 C-168.67999267578125,42.05799865722656 -161.35800170898438,72.0719985961914 -149.15699768066406,91.91200256347656 C-149.15699768066406,91.91200256347656 -175.88400268554688,82.94499969482422 -189.38299560546875,41.909000396728516 C-202.8820037841797,0.8730000257492065 -204.50100708007812,-65.54199981689453 -168.86399841308594,-122.23699951171875 C-125.572998046875,-191.11000061035156 -32.290000915527344,-207.46499633789062 11.479999542236328,-181.6320037841797 C11.479999542236328,-181.6320037841797 60.27299880981445,-211.63299560546875 117.5999984741211,-172.11700439453125 C182.69200134277344,-127.2490005493164 223.35400390625,26.614999771118164 153.76800537109375,82.927001953125 C153.76800537109375,82.927001953125 159.531005859375,70.54000091552734 164.19000244140625,57.39400100708008 C164.19000244140625,57.39400100708008 162.9010009765625,12.38700008392334 111.65899658203125,-25.427000045776367 C84.48200225830078,-45.481998443603516 32.77799987792969,-54.72200012207031 9.064000129699707,-115.71399688720703z"></path></g><g opacity="1" transform="matrix(1,0,0,1,0,0)"><path fill="url(#__lottie_element_10)" fill-opacity="1" d=" M188.99200439453125,11.0600004196167 C188.99200439453125,11.0600004196167 188.99200439453125,11.119999885559082 188.99200439453125,11.119999885559082 C185.69200134277344,40.13999938964844 174.73199462890625,65.95999908447266 153.77200317382812,82.93000030517578 C153.77200317382812,82.93000030517578 159.531005859375,70.54000091552734 164.1909942626953,57.38999938964844 C164.1909942626953,57.38999938964844 162.90199279785156,12.390000343322754 111.66200256347656,-25.43000030517578 C84.48200225830078,-45.47999954223633 32.78200149536133,-54.720001220703125 9.062000274658203,-115.70999908447266 C9.062000274658203,-115.70999908447266 4.431000232696533,-85.91000366210938 -70.88899993896484,-51.68000030517578 C-143.25900268554688,-18.790000915527344 -160.95799255371094,3.490000009536743 -168.67799377441406,42.060001373291016 C-168.67799377441406,42.060001373291016 -161.35800170898438,72.06999969482422 -149.1580047607422,91.91000366210938 C-149.1580047607422,91.91000366210938 -175.88800048828125,82.94999694824219 -189.3780059814453,41.90999984741211 C-191.97799682617188,34 -194.13800048828125,25.149999618530273 -195.66799926757812,15.600000381469727 C-194.1479949951172,15.460000038146973 -192.4810028076172,16.197999954223633 -192.28799438476562,18.40999984741211 C-190.572998046875,38.104000091552734 -181.9510040283203,43.422000885009766 -176.4290008544922,27.31599998474121 C-167.10800170898438,0.12600000202655792 -155.35800170898438,-7.160999774932861 -155.35800170898438,-7.160999774932861 C-155.35800170898438,-7.160999774932861 -183.35400390625,9.180999755859375 -180.8070068359375,6.265999794006348 C-127.08000183105469,-55.220001220703125 -47.22800064086914,-65.96399688720703 -17.808000564575195,-105.76000213623047 C3.819000005722046,-135.01499938964844 4.251999855041504,-169.16000366210938 0.6420000195503235,-171.97000122070312 C-40.678001403808594,-204.10000610351562 -134.26800537109375,-159.3800048828125 -136.42799377441406,-158.33999633789062 C-89.06800079345703,-196.07000732421875 -23.22800064086914,-202.11000061035156 11.482000350952148,-181.6300048828125 C11.482000350952148,-181.6300048828125 60.27199935913086,-211.6300048828125 117.60199737548828,-172.1199951171875 C143.8820037841797,-154.00999450683594 166.1719970703125,-118.12999725341797 178.8419952392578,-78.06999969482422 C126.802001953125,-214.00999450683594 22.121999740600586,-178.13999938964844 18.881999969482422,-172.08999633789062 C17.68199920654297,-169.83999633789062 13.081999778747559,-139.02999877929688 29.422000885009766,-106.7300033569336 C45.762001037597656,-74.43000030517578 64.35900115966797,-65.4520034790039 109.89099884033203,-38.888999938964844 C151.2530059814453,-14.758999824523926 158.36000061035156,15.265000343322754 170.89999389648438,27.045000076293945 C183.44000244140625,38.82500076293945 188.99200439453125,11.0600004196167 188.99200439453125,11.0600004196167z"></path></g><g opacity="1" transform="matrix(1,0,0,1,0,0)"><path stroke-linecap="round" stroke-linejoin="round" fill-opacity="0" stroke="rgb(197,92,0)" stroke-opacity="1" stroke-width="8" d=" M9.064000129699707,-115.71399688720703 C9.064000129699707,-115.71399688720703 4.435999870300293,-85.91200256347656 -70.88899993896484,-51.678001403808594 C-143.26100158691406,-18.78700065612793 -160.95700073242188,3.490000009536743 -168.67999267578125,42.05799865722656 C-168.67999267578125,42.05799865722656 -161.35800170898438,72.0719985961914 -149.15699768066406,91.91200256347656 C-149.15699768066406,91.91200256347656 -175.88400268554688,82.94499969482422 -189.38299560546875,41.909000396728516 C-202.8820037841797,0.8730000257492065 -204.50100708007812,-65.54199981689453 -168.86399841308594,-122.23699951171875 C-125.572998046875,-191.11000061035156 -32.290000915527344,-207.46499633789062 11.479999542236328,-181.6320037841797 C11.479999542236328,-181.6320037841797 60.27299880981445,-211.63299560546875 117.5999984741211,-172.11700439453125 C182.69200134277344,-127.2490005493164 223.35400390625,26.614999771118164 153.76800537109375,82.927001953125 C153.76800537109375,82.927001953125 159.531005859375,70.54000091552734 164.19000244140625,57.39400100708008 C164.19000244140625,57.39400100708008 162.9010009765625,12.38700008392334 111.65899658203125,-25.427000045776367 C84.48200225830078,-45.481998443603516 32.77799987792969,-54.72200012207031 9.064000129699707,-115.71399688720703z"></path></g><g opacity="1" transform="matrix(1,0,0,1,0,0)"><path stroke-linecap="round" stroke-linejoin="round" fill-opacity="0" stroke="rgb(163,65,0)" stroke-opacity="1" stroke-width="8" d=" M153.76800537109375,82.927001953125 C153.76800537109375,82.927001953125 159.531005859375,70.54000091552734 164.19000244140625,57.39400100708008 C164.19000244140625,57.39400100708008 162.9010009765625,12.38700008392334 111.65899658203125,-25.427000045776367 C84.48200225830078,-45.481998443603516 32.77799987792969,-54.72200012207031 9.064000129699707,-115.71399688720703 C9.064000129699707,-115.71399688720703 4.435999870300293,-85.91200256347656 -70.88899993896484,-51.678001403808594 C-143.26100158691406,-18.78700065612793 -160.95700073242188,3.490000009536743 -168.67999267578125,42.05799865722656 C-168.67999267578125,42.05799865722656 -161.35800170898438,72.0719985961914 -149.15699768066406,91.91200256347656"></path></g><g opacity="1" transform="matrix(1,0,0,1,0,0)"><path fill="url(#__lottie_element_11)" fill-opacity="1" d=" M18.881999969482422,-172.08999633789062 C17.024999618530273,-166.5279998779297 13.782999992370605,-134.18299865722656 34.4109992980957,-112.572998046875 C55.03900146484375,-90.96299743652344 170.947998046875,-59.03900146484375 167.50999450683594,-78.19300079345703 C164.07200622558594,-97.34700012207031 137.04600524902344,-163.88900756835938 85.75599670410156,-177.04299926757812 C49.15999984741211,-186.4290008544922 19.851999282836914,-174.9969940185547 18.881999969482422,-172.08999633789062z"></path></g><g opacity="1" transform="matrix(1,0,0,1,0,0)"><path fill="url(#__lottie_element_12)" fill-opacity="1" d=" M0.6420000195503235,-171.97000122070312 C-4.258999824523926,-178.9239959716797 -78.63400268554688,-198.20899963378906 -138.66900634765625,-142.98500061035156 C-156.86000061035156,-126.25199890136719 -174.60000610351562,-93.98200225830078 -160.11900329589844,-81.65599822998047 C-132.95700073242188,-58.5369987487793 -47.54600143432617,-70.16400146484375 -18.808000564575195,-104.76000213623047 C-1,-126.1989974975586 5.927999973297119,-164.47000122070312 0.6420000195503235,-171.97000122070312z"></path></g></g><g style="display: block;" transform="matrix(1,0,0,1,256,256)" opacity="1"><g opacity="1" transform="matrix(1,0,0,1,0,0)"><g opacity="1" transform="matrix(1,0,0,1,0,0)"><path fill="rgb(163,65,0)" fill-opacity="1" d=" M115.85399627685547,11.373000144958496 C117.2699966430664,7.47599983215332 102.59400177001953,-11.901000022888184 70.23500061035156,-14.588000297546387 C48.15999984741211,-16.42099952697754 44.88600158691406,-10.253999710083008 46.029998779296875,-7.683000087738037 C47.17399978637695,-5.11299991607666 60.691001892089844,-10.326000213623047 83.75499725341797,-4.77400016784668 C111.36599731445312,1.8730000257492065 114.94200134277344,13.883000373840332 115.85399627685547,11.373000144958496z"></path><path stroke-linecap="round" stroke-linejoin="round" fill-opacity="0" stroke="rgb(163,65,0)" stroke-opacity="1" stroke-width="2" d=" M115.85399627685547,11.373000144958496 C117.2699966430664,7.47599983215332 102.59400177001953,-11.901000022888184 70.23500061035156,-14.588000297546387 C48.15999984741211,-16.42099952697754 44.88600158691406,-10.253999710083008 46.029998779296875,-7.683000087738037 C47.17399978637695,-5.11299991607666 60.691001892089844,-10.326000213623047 83.75499725341797,-4.77400016784668 C111.36599731445312,1.8730000257492065 114.94200134277344,13.883000373840332 115.85399627685547,11.373000144958496z"></path></g></g><g opacity="1" transform="matrix(1,0,0,1,0,0)"><g opacity="1" transform="matrix(1,0,0,1,0,0)"><path fill="rgb(163,65,0)" fill-opacity="1" d=" M-116.43299865722656,11.373000144958496 C-117.8489990234375,7.47599983215332 -103.1729965209961,-11.901000022888184 -70.81400299072266,-14.588000297546387 C-48.73899841308594,-16.42099952697754 -45.4640007019043,-10.253999710083008 -46.608001708984375,-7.683000087738037 C-47.75199890136719,-5.11299991607666 -61.27000045776367,-10.326000213623047 -84.33399963378906,-4.77400016784668 C-111.94599914550781,1.8730000257492065 -115.52100372314453,13.883000373840332 -116.43299865722656,11.373000144958496z"></path><path stroke-linecap="round" stroke-linejoin="round" fill-opacity="0" stroke="rgb(163,65,0)" stroke-opacity="1" stroke-width="2" d=" M-116.43299865722656,11.373000144958496 C-117.8489990234375,7.47599983215332 -103.1729965209961,-11.901000022888184 -70.81400299072266,-14.588000297546387 C-48.73899841308594,-16.42099952697754 -45.4640007019043,-10.253999710083008 -46.608001708984375,-7.683000087738037 C-47.75199890136719,-5.11299991607666 -61.27000045776367,-10.326000213623047 -84.33399963378906,-4.77400016784668 C-111.94599914550781,1.8730000257492065 -115.52100372314453,13.883000373840332 -116.43299865722656,11.373000144958496z"></path></g></g></g></g></svg>