<svg xmlns="http://www.w3.org/2000/svg" xmlns:xlink="http://www.w3.org/1999/xlink" viewBox="0 0 512 512" width="512" height="512" style="width: 100%; height: 100%; transform: translate3d(0,0,0); content-visibility: visible;" preserveAspectRatio="xMidYMid meet"><defs><clipPath id="__lottie_element_2"><rect width="512" height="512" x="0" y="0"></rect></clipPath><linearGradient id="__lottie_element_6" spreadMethod="pad" gradientUnits="userSpaceOnUse" x1="-28.305999755859375" y1="-101.7040023803711" x2="-4.560999870300293" y2="-18.4689998626709"><stop offset="0%" stop-color="rgb(219,110,0)" stop-opacity="1"></stop><stop offset="39%" stop-color="rgb(219,110,0)" stop-opacity="0.5"></stop><stop offset="71%" stop-color="rgb(219,110,0)" stop-opacity="0"></stop></linearGradient><linearGradient id="__lottie_element_7" spreadMethod="pad" gradientUnits="userSpaceOnUse" x1="0.057999998331069946" y1="-113.7699966430664" x2="-1.218000054359436" y2="98.91000366210938"><stop offset="6%" stop-color="rgb(255,216,0)" stop-opacity="0"></stop><stop offset="15%" stop-color="rgb(255,216,0)" stop-opacity="0.5"></stop><stop offset="50%" stop-color="rgb(255,216,0)" stop-opacity="1"></stop><stop offset="89%" stop-color="rgb(255,216,0)" stop-opacity="0.5"></stop><stop offset="100%" stop-color="rgb(255,216,0)" stop-opacity="0"></stop></linearGradient><linearGradient id="__lottie_element_8" spreadMethod="pad" gradientUnits="userSpaceOnUse" x1="-7.111000061035156" y1="-7.998000144958496" x2="9.739999771118164" y2="12.17199993133545"><stop offset="0%" stop-color="rgb(66,0,0)"></stop><stop offset="38%" stop-color="rgb(118,40,0)"></stop><stop offset="100%" stop-color="rgb(170,80,0)"></stop></linearGradient><radialGradient id="__lottie_element_9" spreadMethod="pad" gradientUnits="userSpaceOnUse" cx="-0.17299999296665192" cy="-0.19599999487400055" r="9.42800010740757" fx="-0.17299999296665192" fy="-0.19599999487400055"><stop offset="0%" stop-color="rgb(246,175,0)" stop-opacity="1"></stop><stop offset="52%" stop-color="rgb(246,175,0)" stop-opacity="0.5"></stop><stop offset="100%" stop-color="rgb(246,175,0)" stop-opacity="0"></stop></radialGradient><linearGradient id="__lottie_element_10" spreadMethod="pad" gradientUnits="userSpaceOnUse" x1="-5.186999797821045" y1="-6.998000144958496" x2="7.514999866485596" y2="11.704000473022461"><stop offset="0%" stop-color="rgb(66,0,0)"></stop><stop offset="38%" stop-color="rgb(118,40,0)"></stop><stop offset="100%" stop-color="rgb(170,80,0)"></stop></linearGradient><radialGradient id="__lottie_element_11" spreadMethod="pad" gradientUnits="userSpaceOnUse" cx="-0.17900000512599945" cy="-0.21400000154972076" r="9.42799960076809" fx="-0.17900000512599945" fy="-0.21400000154972076"><stop offset="0%" stop-color="rgb(246,175,0)" stop-opacity="1"></stop><stop offset="52%" stop-color="rgb(246,175,0)" stop-opacity="0.5"></stop><stop offset="100%" stop-color="rgb(246,175,0)" stop-opacity="0"></stop></radialGradient><radialGradient id="__lottie_element_12" spreadMethod="pad" gradientUnits="userSpaceOnUse" cx="-0.902999997138977" cy="-0.5789999961853027" r="24.389000058174133" fx="-0.902999997138977" fy="-0.5789999961853027"><stop offset="10%" stop-color="rgb(219,110,0)" stop-opacity="1"></stop><stop offset="67%" stop-color="rgb(219,110,0)" stop-opacity="0.5"></stop><stop offset="100%" stop-color="rgb(219,110,0)" stop-opacity="0"></stop></radialGradient><radialGradient id="__lottie_element_13" spreadMethod="pad" gradientUnits="userSpaceOnUse" cx="-0.5289999842643738" cy="-0.1979999989271164" r="32.16899937391281" fx="-0.5289999842643738" fy="-0.1979999989271164"><stop offset="0%" stop-color="rgb(255,255,254)" stop-opacity="1"></stop><stop offset="63%" stop-color="rgb(255,255,254)" stop-opacity="0.5"></stop><stop offset="100%" stop-color="rgb(255,255,254)" stop-opacity="0"></stop></radialGradient><linearGradient id="__lottie_element_14" spreadMethod="pad" gradientUnits="userSpaceOnUse" x1="-0.5289999842643738" y1="14.770000457763672" x2="-0.5289999842643738" y2="-14.340999603271484"><stop offset="0%" stop-color="rgb(255,168,0)" stop-opacity="1"></stop><stop offset="66%" stop-color="rgb(255,168,0)" stop-opacity="0.5"></stop><stop offset="100%" stop-color="rgb(255,168,0)" stop-opacity="0"></stop></linearGradient><linearGradient id="__lottie_element_15" spreadMethod="pad" gradientUnits="userSpaceOnUse" x1="-0.5289999842643738" y1="9.281000137329102" x2="-0.5289999842643738" y2="-4.0289998054504395"><stop offset="0%" stop-color="rgb(88,11,14)" stop-opacity="0"></stop><stop offset="36%" stop-color="rgb(88,11,14)" stop-opacity="0.5"></stop><stop offset="80%" stop-color="rgb(88,11,14)" stop-opacity="1"></stop></linearGradient><radialGradient id="__lottie_element_16" spreadMethod="pad" gradientUnits="userSpaceOnUse" cx="-0.5289999842643738" cy="1.5759999752044678" r="52.9469992518425" fx="-0.5289999842643738" fy="1.5759999752044678"><stop offset="53%" stop-color="rgb(255,169,0)" stop-opacity="0"></stop><stop offset="73%" stop-color="rgb(255,169,0)" stop-opacity="0.5"></stop><stop offset="90%" stop-color="rgb(255,169,0)" stop-opacity="1"></stop></radialGradient><linearGradient id="__lottie_element_17" spreadMethod="pad" gradientUnits="userSpaceOnUse" x1="-0.5289999842643738" y1="4.866000175476074" x2="-0.5289999842643738" y2="-5.145999908447266"><stop offset="23%" stop-color="rgb(163,65,0)" stop-opacity="1"></stop><stop offset="64%" stop-color="rgb(163,65,0)" stop-opacity="0.6499999761581421"></stop><stop offset="97%" stop-color="rgb(163,65,0)" stop-opacity="0.30000001192092896"></stop></linearGradient><linearGradient id="__lottie_element_18" spreadMethod="pad" gradientUnits="userSpaceOnUse" x1="-0.9419999718666077" y1="-4.822000026702881" x2="-1.2289999723434448" y2="19.209999084472656"><stop offset="0%" stop-color="rgb(255,168,0)" stop-opacity="1"></stop><stop offset="66%" stop-color="rgb(255,168,0)" stop-opacity="0.5"></stop><stop offset="100%" stop-color="rgb(255,168,0)" stop-opacity="0"></stop></linearGradient><linearGradient id="__lottie_element_19" spreadMethod="pad" gradientUnits="userSpaceOnUse" x1="0.057999998331069946" y1="16.430999755859375" x2="-1.187000036239624" y2="-5.9730000495910645"><stop offset="11%" stop-color="rgb(219,110,0)" stop-opacity="1"></stop><stop offset="51%" stop-color="rgb(219,110,0)" stop-opacity="0.5"></stop><stop offset="80%" stop-color="rgb(219,110,0)" stop-opacity="0"></stop></linearGradient><radialGradient id="__lottie_element_20" spreadMethod="pad" gradientUnits="userSpaceOnUse" cx="-0.9419999718666077" cy="-6.882999897003174" r="26.38299995660782" fx="-0.9419999718666077" fy="-6.882999897003174"><stop offset="37%" stop-color="rgb(255,168,0)" stop-opacity="0"></stop><stop offset="75%" stop-color="rgb(255,168,0)" stop-opacity="0.5"></stop><stop offset="100%" stop-color="rgb(255,168,0)" stop-opacity="1"></stop></radialGradient><linearGradient id="__lottie_element_21" spreadMethod="pad" gradientUnits="userSpaceOnUse" x1="-0.9419999718666077" y1="-10.743000030517578" x2="-0.5590000152587891" y2="6.203999996185303"><stop offset="0%" stop-color="rgb(255,255,254)" stop-opacity="1"></stop><stop offset="50%" stop-color="rgb(255,255,254)" stop-opacity="0.5"></stop><stop offset="100%" stop-color="rgb(255,255,254)" stop-opacity="0"></stop></linearGradient><linearGradient id="__lottie_element_22" spreadMethod="pad" gradientUnits="userSpaceOnUse" x1="1.9869999885559082" y1="-38.20000076293945" x2="-2.2249999046325684" y2="51.034000396728516"><stop offset="11%" stop-color="rgb(255,169,0)" stop-opacity="0"></stop><stop offset="48%" stop-color="rgb(255,169,0)" stop-opacity="0.5"></stop><stop offset="100%" stop-color="rgb(255,169,0)" stop-opacity="1"></stop></linearGradient><linearGradient id="__lottie_element_23" spreadMethod="pad" gradientUnits="userSpaceOnUse" x1="-0.492000013589859" y1="71.2040023803711" x2="-0.10899999737739563" y2="-85.0510025024414"><stop offset="8%" stop-color="rgb(218,110,0)" stop-opacity="0.30000001192092896"></stop><stop offset="27%" stop-color="rgb(218,110,0)" stop-opacity="0.6499999761581421"></stop><stop offset="46%" stop-color="rgb(218,110,0)" stop-opacity="1"></stop><stop offset="59%" stop-color="rgb(218,110,0)" stop-opacity="0.5"></stop><stop offset="79%" stop-color="rgb(218,110,0)" stop-opacity="0"></stop></linearGradient><linearGradient id="__lottie_element_24" spreadMethod="pad" gradientUnits="userSpaceOnUse" x1="-16.7810001373291" y1="-25.24799919128418" x2="5.048999786376953" y2="14.199000358581543"><stop offset="0%" stop-color="rgb(255,255,255)" stop-opacity="1"></stop><stop offset="50%" stop-color="rgb(255,255,255)" stop-opacity="0.5"></stop><stop offset="100%" stop-color="rgb(255,255,255)" stop-opacity="0"></stop></linearGradient><linearGradient id="__lottie_element_25" spreadMethod="pad" gradientUnits="userSpaceOnUse" x1="-6.499000072479248" y1="-32.584999084472656" x2="5.756999969482422" y2="30.98900032043457"><stop offset="0%" stop-color="rgb(255,255,255)" stop-opacity="1"></stop><stop offset="50%" stop-color="rgb(255,255,255)" stop-opacity="0.5"></stop><stop offset="100%" stop-color="rgb(255,255,255)" stop-opacity="0"></stop></linearGradient><linearGradient id="__lottie_element_26" spreadMethod="pad" gradientUnits="userSpaceOnUse" x1="-0.9539999961853027" y1="-5.363999843597412" x2="-0.4749999940395355" y2="4.210999965667725"><stop offset="0%" stop-color="rgb(255,255,255)" stop-opacity="1"></stop><stop offset="58%" stop-color="rgb(255,255,255)" stop-opacity="0.5"></stop><stop offset="100%" stop-color="rgb(255,255,255)" stop-opacity="0"></stop></linearGradient><linearGradient id="__lottie_element_27" spreadMethod="pad" gradientUnits="userSpaceOnUse" x1="-0.878000020980835" y1="-5.363999843597412" x2="-0.734000027179718" y2="3.2049999237060547"><stop offset="0%" stop-color="rgb(255,255,255)" stop-opacity="1"></stop><stop offset="58%" stop-color="rgb(255,255,255)" stop-opacity="0.5"></stop><stop offset="100%" stop-color="rgb(255,255,255)" stop-opacity="0"></stop></linearGradient><linearGradient id="__lottie_element_31" spreadMethod="pad" gradientUnits="userSpaceOnUse" x1="0.6150000095367432" y1="46.374000549316406" x2="-2.4489998817443848" y2="-39.029998779296875"><stop offset="0%" stop-color="rgb(172,222,252)" stop-opacity="0.20000000298023224"></stop><stop offset="50%" stop-color="rgb(125,177,209)" stop-opacity="0.6000000238418579"></stop><stop offset="100%" stop-color="rgb(79,132,165)" stop-opacity="1"></stop></linearGradient><linearGradient id="__lottie_element_32" spreadMethod="pad" gradientUnits="userSpaceOnUse" x1="-0.38499999046325684" y1="47.374000549316406" x2="-0.0020000000949949026" y2="-38.41299819946289"><stop offset="0%" stop-color="rgb(172,222,252)" stop-opacity="0.20000000298023224"></stop><stop offset="50%" stop-color="rgb(125,177,209)" stop-opacity="0.6000000238418579"></stop><stop offset="100%" stop-color="rgb(79,132,165)" stop-opacity="1"></stop></linearGradient><linearGradient id="__lottie_element_33" spreadMethod="pad" gradientUnits="userSpaceOnUse" x1="27.191999435424805" y1="-13.095999717712402" x2="-19.5310001373291" y2="17.924999237060547"><stop offset="0%" stop-color="rgb(172,222,252)" stop-opacity="0"></stop><stop offset="50%" stop-color="rgb(125,177,209)" stop-opacity="0.5"></stop><stop offset="100%" stop-color="rgb(79,132,165)" stop-opacity="1"></stop></linearGradient><linearGradient id="__lottie_element_34" spreadMethod="pad" gradientUnits="userSpaceOnUse" x1="-25.097000122070312" y1="-11.095999717712402" x2="20.094999313354492" y2="18.393999099731445"><stop offset="0%" stop-color="rgb(172,222,252)" stop-opacity="0"></stop><stop offset="50%" stop-color="rgb(125,177,209)" stop-opacity="0.5"></stop><stop offset="100%" stop-color="rgb(79,132,165)" stop-opacity="1"></stop></linearGradient><linearGradient id="__lottie_element_35" spreadMethod="pad" gradientUnits="userSpaceOnUse" x1="-17.75200080871582" y1="-1.6109999418258667" x2="8.67300033569336" y2="3.240000009536743"><stop offset="0%" stop-color="rgb(172,222,252)" stop-opacity="0"></stop><stop offset="50%" stop-color="rgb(117,146,169)" stop-opacity="0.5"></stop><stop offset="100%" stop-color="rgb(61,69,86)" stop-opacity="1"></stop></linearGradient><linearGradient id="__lottie_element_36" spreadMethod="pad" gradientUnits="userSpaceOnUse" x1="-38.573001861572266" y1="0.27300000190734863" x2="34.19300079345703" y2="-1.5140000581741333"><stop offset="0%" stop-color="rgb(41,71,104)" stop-opacity="0.20000000298023224"></stop><stop offset="35%" stop-color="rgb(41,58,92)" stop-opacity="0.5"></stop><stop offset="71%" stop-color="rgb(41,46,79)" stop-opacity="0.800000011920929"></stop></linearGradient><linearGradient id="__lottie_element_37" spreadMethod="pad" gradientUnits="userSpaceOnUse" x1="34.926998138427734" y1="-0.7269999980926514" x2="-32.47800064086914" y2="-0.2160000056028366"><stop offset="0%" stop-color="rgb(41,71,104)" stop-opacity="0.20000000298023224"></stop><stop offset="35%" stop-color="rgb(41,58,92)" stop-opacity="0.5"></stop><stop offset="71%" stop-color="rgb(41,46,79)" stop-opacity="0.800000011920929"></stop></linearGradient><linearGradient id="__lottie_element_38" spreadMethod="pad" gradientUnits="userSpaceOnUse" x1="15.184000015258789" y1="-2.2279999256134033" x2="-13.538999557495117" y2="7.85699987411499"><stop offset="0%" stop-color="rgb(172,222,252)" stop-opacity="0"></stop><stop offset="50%" stop-color="rgb(117,146,169)" stop-opacity="0.5"></stop><stop offset="100%" stop-color="rgb(61,69,86)" stop-opacity="1"></stop></linearGradient><linearGradient id="__lottie_element_39" spreadMethod="pad" gradientUnits="userSpaceOnUse" x1="9.34000015258789" y1="-0.4269999861717224" x2="-11.85099983215332" y2="-0.1720000058412552"><stop offset="0%" stop-color="rgb(218,114,0)" stop-opacity="0"></stop><stop offset="37%" stop-color="rgb(213,110,0)" stop-opacity="0.4790000021457672"></stop><stop offset="73%" stop-color="rgb(208,106,0)" stop-opacity="0.9580000042915344"></stop><stop offset="87%" stop-color="rgb(208,106,0)" stop-opacity="0.9789999723434448"></stop><stop offset="100%" stop-color="rgb(208,106,0)" stop-opacity="1"></stop></linearGradient><linearGradient id="__lottie_element_40" spreadMethod="pad" gradientUnits="userSpaceOnUse" x1="-11.435999870300293" y1="0.5730000138282776" x2="8.98900032043457" y2="-0.7039999961853027"><stop offset="0%" stop-color="rgb(218,114,0)" stop-opacity="0"></stop><stop offset="37%" stop-color="rgb(213,110,0)" stop-opacity="0.4790000021457672"></stop><stop offset="73%" stop-color="rgb(208,106,0)" stop-opacity="0.9580000042915344"></stop><stop offset="87%" stop-color="rgb(208,106,0)" stop-opacity="0.9789999723434448"></stop><stop offset="100%" stop-color="rgb(208,106,0)" stop-opacity="1"></stop></linearGradient><linearGradient id="__lottie_element_41" spreadMethod="pad" gradientUnits="userSpaceOnUse" x1="-19.17300033569336" y1="0.40299999713897705" x2="14.656999588012695" y2="-0.8740000128746033"><stop offset="54%" stop-color="rgb(167,171,166)" stop-opacity="0"></stop><stop offset="77%" stop-color="rgb(167,171,166)" stop-opacity="0.5"></stop><stop offset="100%" stop-color="rgb(167,171,166)" stop-opacity="1"></stop></linearGradient><linearGradient id="__lottie_element_42" spreadMethod="pad" gradientUnits="userSpaceOnUse" x1="-18.17300033569336" y1="0.40299999713897705" x2="13.741999626159668" y2="-0.6179999709129333"><stop offset="0%" stop-color="rgb(167,171,166)" stop-opacity="1"></stop><stop offset="26%" stop-color="rgb(167,171,166)" stop-opacity="0.5"></stop><stop offset="52%" stop-color="rgb(167,171,166)" stop-opacity="0"></stop></linearGradient><linearGradient id="__lottie_element_43" spreadMethod="pad" gradientUnits="userSpaceOnUse" x1="-0.5479999780654907" y1="14.307999610900879" x2="-0.5479999780654907" y2="-12.927000045776367"><stop offset="0%" stop-color="rgb(218,114,0)" stop-opacity="0"></stop><stop offset="50%" stop-color="rgb(177,96,0)" stop-opacity="0.4000000059604645"></stop><stop offset="100%" stop-color="rgb(137,77,0)" stop-opacity="0.800000011920929"></stop></linearGradient><linearGradient id="__lottie_element_44" spreadMethod="pad" gradientUnits="userSpaceOnUse" x1="-17.729999542236328" y1="0.34700000286102295" x2="14.312000274658203" y2="-0.29100000858306885"><stop offset="39%" stop-color="rgb(218,114,0)" stop-opacity="0"></stop><stop offset="70%" stop-color="rgb(213,110,0)" stop-opacity="0.5"></stop><stop offset="100%" stop-color="rgb(208,106,0)" stop-opacity="1"></stop></linearGradient><linearGradient id="__lottie_element_45" spreadMethod="pad" gradientUnits="userSpaceOnUse" x1="-15.729999542236328" y1="0.34700000286102295" x2="15.291000366210938" y2="-0.4189999997615814"><stop offset="0%" stop-color="rgb(208,106,0)" stop-opacity="1"></stop><stop offset="34%" stop-color="rgb(213,110,0)" stop-opacity="0.5"></stop><stop offset="67%" stop-color="rgb(218,114,0)" stop-opacity="0"></stop></linearGradient><linearGradient id="__lottie_element_46" spreadMethod="pad" gradientUnits="userSpaceOnUse" x1="-12.968000411987305" y1="-0.032999999821186066" x2="12.564000129699707" y2="-0.5429999828338623"><stop offset="0%" stop-color="rgb(167,171,166)" stop-opacity="1"></stop><stop offset="26%" stop-color="rgb(167,171,166)" stop-opacity="0.5"></stop><stop offset="52%" stop-color="rgb(167,171,166)" stop-opacity="0"></stop></linearGradient><linearGradient id="__lottie_element_47" spreadMethod="pad" gradientUnits="userSpaceOnUse" x1="-12.968000411987305" y1="-1.0329999923706055" x2="9.628000259399414" y2="-0.39500001072883606"><stop offset="48%" stop-color="rgb(167,171,166)" stop-opacity="0"></stop><stop offset="74%" stop-color="rgb(167,171,166)" stop-opacity="0.5"></stop><stop offset="100%" stop-color="rgb(167,171,166)" stop-opacity="1"></stop></linearGradient><linearGradient id="__lottie_element_48" spreadMethod="pad" gradientUnits="userSpaceOnUse" x1="-0.5950000286102295" y1="12.277999877929688" x2="-0.5950000286102295" y2="-10.48900032043457"><stop offset="0%" stop-color="rgb(218,114,0)" stop-opacity="0"></stop><stop offset="50%" stop-color="rgb(156,87,14)" stop-opacity="0.4000000059604645"></stop><stop offset="100%" stop-color="rgb(94,61,28)" stop-opacity="0.800000011920929"></stop></linearGradient><linearGradient id="__lottie_element_49" spreadMethod="pad" gradientUnits="userSpaceOnUse" x1="29.340999603271484" y1="-10.791999816894531" x2="-29.63800048828125" y2="5.676000118255615"><stop offset="0%" stop-color="rgb(172,222,252)" stop-opacity="0"></stop><stop offset="20%" stop-color="rgb(171,221,250)" stop-opacity="0.017999999225139618"></stop><stop offset="41%" stop-color="rgb(169,219,249)" stop-opacity="0.035999998450279236"></stop><stop offset="70%" stop-color="rgb(124,175,207)" stop-opacity="0.5180000066757202"></stop><stop offset="100%" stop-color="rgb(79,132,165)" stop-opacity="1"></stop></linearGradient><linearGradient id="__lottie_element_50" spreadMethod="pad" gradientUnits="userSpaceOnUse" x1="-30.402999877929688" y1="-9.717000007629395" x2="26.788000106811523" y2="5.603000164031982"><stop offset="0%" stop-color="rgb(172,222,252)" stop-opacity="0"></stop><stop offset="20%" stop-color="rgb(171,221,250)" stop-opacity="0.017999999225139618"></stop><stop offset="41%" stop-color="rgb(169,219,249)" stop-opacity="0.035999998450279236"></stop><stop offset="70%" stop-color="rgb(124,175,207)" stop-opacity="0.5180000066757202"></stop><stop offset="100%" stop-color="rgb(79,132,165)" stop-opacity="1"></stop></linearGradient></defs><g clip-path="url(#__lottie_element_2)"><g style="display: block;" transform="matrix(1,0,0,1,0,0)" opacity="1"><g opacity="1" transform="matrix(1,0,0,1,0,0)"><g opacity="1" transform="matrix(1,0,0,1,0,0)"><g opacity="1" transform="matrix(1,0,0,1,249.2949981689453,421.9389953613281)"><path fill="rgb(172,222,252)" fill-opacity="1" d=" M45.702999114990234,-47.90999984741211 C45.702999114990234,-47.90999984741211 45.702999114990234,-48.07699966430664 45.702999114990234,-48.07699966430664 C45.702999114990234,-48.07699966430664 -31.957000732421875,-50.08399963378906 -43.676998138427734,-48.077999114990234 C-43.676998138427734,-48.077999114990234 -43.676998138427734,-48.07699966430664 -43.676998138427734,-48.07699966430664 C-90.74800109863281,-45.492000579833984 -143.42599487304688,-24.488000869750977 -147.82899475097656,41.61899948120117 C-147.82899475097656,41.61899948120117 -139.85699462890625,48.96900177001953 -113.25199890136719,48.96900177001953 C-113.25199890136719,48.96900177001953 113.8030014038086,48.96900177001953 113.8030014038086,48.96900177001953 C137.69000244140625,49 147.82899475097656,41.49599838256836 147.82899475097656,41.49599838256836 C144.59100341796875,-29.503000259399414 94.38899993896484,-45.178001403808594 45.702999114990234,-47.90999984741211z"></path></g><g opacity="1" transform="matrix(1,0,0,1,248.38499450683594,415.6260070800781)"><g opacity="1" transform="matrix(1,0,0,1,0,0)"><path fill="url(#__lottie_element_31)" fill-opacity="1" d=" M45.67399978637695,-41.763999938964844 C114.46299743652344,-33.82600021362305 121.7699966430664,-16.98900032043457 121.7699966430664,-16.98900032043457 C121.7699966430664,-16.98900032043457 145.81700134277344,16.097000122070312 145.81700134277344,16.097000122070312 C149.26300048828125,25.28700065612793 138.84300231933594,41.763999938964844 129.0279998779297,41.763999938964844 C129.0279998779297,41.763999938964844 -129.68299865722656,41.763999938964844 -129.68299865722656,41.763999938964844 C-137.8040008544922,41.763999938964844 -148.81100463867188,34.29199981689453 -146.0590057373047,26.650999069213867 C-146.0590057373047,26.650999069213867 -128.8560028076172,-6.863999843597412 -128.8560028076172,-6.863999843597412 C-128.8560028076172,-6.863999843597412 -105.427001953125,-38.45600128173828 -42.76599884033203,-41.763999938964844 C-42.76599884033203,-41.763999938964844 45.67399978637695,-41.763999938964844 45.67399978637695,-41.763999938964844z"></path></g></g><g opacity="1" transform="matrix(1,0,0,1,248.38499450683594,415.6260070800781)"><g opacity="1" transform="matrix(1,0,0,1,0,0)"><path fill="url(#__lottie_element_32)" fill-opacity="1" d=" M45.67399978637695,-41.763999938964844 C114.46299743652344,-33.82600021362305 121.7699966430664,-16.98900032043457 121.7699966430664,-16.98900032043457 C121.7699966430664,-16.98900032043457 145.81700134277344,16.097000122070312 145.81700134277344,16.097000122070312 C149.26300048828125,25.28700065612793 138.84300231933594,41.763999938964844 129.0279998779297,41.763999938964844 C129.0279998779297,41.763999938964844 -129.68299865722656,41.763999938964844 -129.68299865722656,41.763999938964844 C-137.8040008544922,41.763999938964844 -148.81100463867188,34.29199981689453 -146.0590057373047,26.650999069213867 C-146.0590057373047,26.650999069213867 -128.8560028076172,-6.863999843597412 -128.8560028076172,-6.863999843597412 C-128.8560028076172,-6.863999843597412 -105.427001953125,-38.45600128173828 -42.76599884033203,-41.763999938964844 C-42.76599884033203,-41.763999938964844 45.67399978637695,-41.763999938964844 45.67399978637695,-41.763999938964844z"></path></g></g><g opacity="1" transform="matrix(1,0,0,1,124.15399932861328,439.9670104980469)"><path stroke-linecap="round" stroke-linejoin="miter" fill-opacity="0" stroke-miterlimit="10" stroke="rgb(194,235,249)" stroke-opacity="1" stroke-width="4" d=" M6.3470001220703125,28.96299934387207 C5.35699987411499,20.513999938964844 2.0309998989105225,14.626999855041504 -0.27799999713897705,5.888000011444092 C-4.427000045776367,-9.814000129699707 -7.664999961853027,-15.753000259399414 -5.813000202178955,-28.96299934387207"></path></g><g opacity="1" transform="matrix(1,0,0,1,374.3529968261719,440.2040100097656)"><path stroke-linecap="round" stroke-linejoin="miter" fill-opacity="0" stroke-miterlimit="10" stroke="rgb(194,235,249)" stroke-opacity="1" stroke-width="4" d=" M-6.853000164031982,28.5939998626709 C-4.7789998054504395,14.866000175476074 9.614999771118164,-15.989999771118164 6.381999969482422,-28.5939998626709"></path></g><g opacity="1" transform="matrix(1,0,0,1,117.80799865722656,439.09600830078125)"><path fill="url(#__lottie_element_33)" fill-opacity="1" d=" M0.1509999930858612,-31.424999237060547 C0.1509999930858612,-31.424999237060547 -12.42199993133545,-13.11299991607666 -12.42199993133545,-13.11299991607666 C-12.42199993133545,-13.11299991607666 -17.93600082397461,22.898000717163086 -17.93600082397461,22.898000717163086 C-17.93600082397461,22.898000717163086 -13.65999984741211,27.386999130249023 -1.2769999504089355,29.812999725341797 C13.944000244140625,32.79399871826172 17.93600082397461,30.72800064086914 17.93600082397461,30.72800064086914 C17.93600082397461,30.72800064086914 0.1509999930858612,-31.424999237060547 0.1509999930858612,-31.424999237060547z"></path></g><g opacity="1" transform="matrix(1,0,0,1,381.09698486328125,439.09600830078125)"><path fill="url(#__lottie_element_34)" fill-opacity="1" d=" M-0.1509999930858612,-31.424999237060547 C-0.1509999930858612,-31.424999237060547 12.42199993133545,-13.11299991607666 12.42199993133545,-13.11299991607666 C12.42199993133545,-13.11299991607666 17.93600082397461,22.898000717163086 17.93600082397461,22.898000717163086 C17.93600082397461,22.898000717163086 13.65999984741211,27.386999130249023 1.2769999504089355,29.812999725341797 C-13.944000244140625,32.79399871826172 -17.93600082397461,30.72800064086914 -17.93600082397461,30.72800064086914 C-17.93600082397461,30.72800064086914 -0.1509999930858612,-31.424999237060547 -0.1509999930858612,-31.424999237060547z"></path></g><g opacity="0.67" transform="matrix(1,0,0,1,155.6649932861328,400.3489990234375)"><path fill="rgb(184,224,242)" fill-opacity="1" d=" M47.04899978637695,-18.034000396728516 C47.04899978637695,-18.034000396728516 2.3940000534057617,-15.164999961853027 -24.85300064086914,7.626999855041504 C-39.02000045776367,19.476999282836914 -47.04899978637695,30.763999938964844 -47.04899978637695,30.763999938964844 C-47.04899978637695,30.763999938964844 -46.09700012207031,14.031000137329102 -29.531999588012695,-0.4269999861717224 C-8.291999816894531,-18.96500015258789 44.30400085449219,-30.763999938964844 44.30400085449219,-30.763999938964844 C44.30400085449219,-30.763999938964844 47.04899978637695,-18.034000396728516 47.04899978637695,-18.034000396728516z"></path></g><g opacity="0.67" transform="matrix(1,0,0,1,347.58099365234375,402.9010009765625)"><path fill="rgb(184,224,242)" fill-opacity="1" d=" M-47.77299880981445,-21.10099983215332 C-47.77299880981445,-21.10099983215332 -3.8310000896453857,-14.925000190734863 23.416000366210938,7.867000102996826 C27.37700080871582,11.180000305175781 49.82699966430664,37.35900115966797 47.62099838256836,28.82200050354004 C47.62099838256836,28.82200050354004 44.65999984741211,14.270999908447266 28.094999313354492,-0.18700000643730164 C6.855000019073486,-18.725000381469727 -45.74100112915039,-30.52400016784668 -45.74100112915039,-30.52400016784668 C-45.74100112915039,-30.52400016784668 -47.77299880981445,-21.10099983215332 -47.77299880981445,-21.10099983215332z"></path></g><g opacity="1" transform="matrix(1,0,0,1,128.53599548339844,437.9800109863281)"><path stroke-linecap="square" stroke-linejoin="round" fill-opacity="0" stroke="rgb(93,137,175)" stroke-opacity="1" stroke-width="6" d=" M-6.806000232696533,-29.920000076293945 C-6.63100004196167,-9.258000373840332 6.806000232696533,18.658000946044922 6.806000232696533,29.920000076293945"></path></g><g opacity="1" transform="matrix(1,0,0,1,370.15399169921875,437.8080139160156)"><path stroke-linecap="square" stroke-linejoin="round" fill-opacity="0" stroke="rgb(93,137,175)" stroke-opacity="1" stroke-width="6" d=" M7.306000232696533,-29.920000076293945 C7.130000114440918,-9.227999687194824 -7.306000232696533,18.56800079345703 -7.306000232696533,29.920000076293945"></path></g></g><g opacity="1" transform="matrix(1,0,0,1,0,0)"><g opacity="1" transform="matrix(1,0,0,1,102.32599639892578,460.4800109863281)"><path fill="rgb(72,113,150)" fill-opacity="1" d=" M4.13100004196167,-5.242000102996826 C4.13100004196167,-5.242000102996826 3.1480000019073486,1.9509999752044678 2.7190001010894775,5.242000102996826 C2.7190001010894775,5.242000102996826 -4.627999782562256,2.312000036239624 -4.104000091552734,-1.9600000381469727 C-4.104000091552734,-1.9600000381469727 4.13100004196167,-5.242000102996826 4.13100004196167,-5.242000102996826z"></path></g><g opacity="1" transform="matrix(1,0,0,1,153.8179931640625,415.1260070800781)"><path stroke-linecap="round" stroke-linejoin="round" fill-opacity="0" stroke="rgb(72,113,150)" stroke-opacity="1" stroke-width="8" d=" M-51.80099868774414,42.263999938964844 C-50.82699966430664,34.61000061035156 -47.361000061035156,2.0269999504089355 -31.288999557495117,-9.486000061035156 C-30.572999954223633,-9.99899959564209 -30.143999099731445,-10.866999626159668 -29.506000518798828,-11.564000129699707 C-15.984999656677246,-26.347000122070312 13.77400016784668,-41.81399917602539 51.80099868774414,-42.263999938964844"></path></g><g opacity="1" transform="matrix(1,0,0,1,397.1969909667969,458.2539978027344)"><path fill="rgb(72,113,150)" fill-opacity="1" d=" M-4.310999870300293,-6.454999923706055 C-4.310999870300293,-6.454999923706055 -2.628000020980835,3.1640000343322754 -2.1989998817443848,6.454999923706055 C-2.1989998817443848,6.454999923706055 4.807000160217285,3.005000114440918 4.2829999923706055,-1.2669999599456787 C4.2829999923706055,-1.2669999599456787 -4.310999870300293,-6.454999923706055 -4.310999870300293,-6.454999923706055z"></path></g><g opacity="1" transform="matrix(1,0,0,1,345.8970031738281,415.1260070800781)"><path stroke-linecap="round" stroke-linejoin="round" fill-opacity="0" stroke="rgb(72,113,150)" stroke-opacity="1" stroke-width="8" d=" M51.80099868774414,42.263999938964844 C50.82699966430664,34.61000061035156 47.361000061035156,2.0269999504089355 31.288999557495117,-9.486000061035156 C30.572999954223633,-9.99899959564209 30.143999099731445,-10.866999626159668 29.506000518798828,-11.564000129699707 C15.984999656677246,-26.347000122070312 -13.77400016784668,-41.81399917602539 -51.80099868774414,-42.263999938964844"></path></g></g></g><g opacity="1" transform="matrix(1,0,0,1,0,0)"><g opacity="1" transform="matrix(1,0,0,1,236.7519989013672,442.6109924316406)"><path fill="url(#__lottie_element_35)" fill-opacity="1" d=" M-17.371000289916992,28.297000885009766 C-17.371000289916992,28.297000885009766 6.736999988555908,28.297000885009766 6.736999988555908,28.297000885009766 C6.736999988555908,28.297000885009766 17.371000289916992,-23.16900062561035 17.371000289916992,-23.16900062561035 C17.371000289916992,-23.16900062561035 -7.451000213623047,-28.297000885009766 -7.451000213623047,-28.297000885009766 C-7.451000213623047,-28.297000885009766 -17.371000289916992,28.297000885009766 -17.371000289916992,28.297000885009766z"></path></g><g opacity="1" transform="matrix(1,0,0,1,220.572998046875,399.72698974609375)"><path fill="url(#__lottie_element_36)" fill-opacity="1" d=" M-27.559999465942383,-21.804000854492188 C-27.559999465942383,-21.804000854492188 -34.79899978637695,-18.354999542236328 -32.5369987487793,-12.243000030517578 C-30.697999954223633,-7.27400016784668 -11.77299976348877,11.74899959564209 -4.386000156402588,20.184999465942383 C-2.821000099182129,21.972000122070312 2.818000078201294,22.325000762939453 4.802000045776367,21.01799964904785 C4.802000045776367,21.01799964904785 32.974998474121094,3.7799999713897705 32.974998474121094,3.7799999713897705 C32.974998474121094,3.7799999713897705 -27.559999465942383,-21.804000854492188 -27.559999465942383,-21.804000854492188z"></path></g><g opacity="1" transform="matrix(1,0,0,1,286.072998046875,398.72698974609375)"><path fill="url(#__lottie_element_37)" fill-opacity="1" d=" M26.059999465942383,-21.804000854492188 C26.059999465942383,-21.804000854492188 33.29899978637695,-18.354999542236328 31.03700065612793,-12.243000030517578 C29.197999954223633,-7.27400016784668 10.27299976348877,11.74899959564209 2.885999917984009,20.184999465942383 C1.3209999799728394,21.972000122070312 -4.317999839782715,22.325000762939453 -6.302000045776367,21.01799964904785 C-6.302000045776367,21.01799964904785 -31.475000381469727,4.78000020980835 -31.475000381469727,4.78000020980835 C-31.475000381469727,4.78000020980835 26.059999465942383,-21.804000854492188 26.059999465942383,-21.804000854492188z"></path></g><g opacity="1" transform="matrix(1,0,0,1,269.8160095214844,442.2279968261719)"><path fill="url(#__lottie_element_38)" fill-opacity="1" d=" M19.875,28.275999069213867 C19.875,28.275999069213867 -6.380000114440918,28.275999069213867 -6.380000114440918,28.275999069213867 C-6.380000114440918,28.275999069213867 -19.875,-21.663000106811523 -19.875,-21.663000106811523 C-19.875,-21.663000106811523 4.5929999351501465,-28.275999069213867 4.5929999351501465,-28.275999069213867 C4.5929999351501465,-28.275999069213867 19.875,28.275999069213867 19.875,28.275999069213867z"></path></g></g><g opacity="1" transform="matrix(1,0,0,1,0,0)"><g opacity="1" transform="matrix(1,0,0,1,251.03399658203125,370.3659973144531)"><path fill="rgb(192,98,0)" fill-opacity="1" d=" M40.54100036621094,-14.437000274658203 C40.54100036621094,-14.437000274658203 0,-12.883999824523926 0,-12.883999824523926 C0,-12.883999824523926 -40.54100036621094,-14.437000274658203 -40.54100036621094,-14.437000274658203 C-40.54100036621094,-14.437000274658203 -41.53799819946289,10.970000267028809 -41.53799819946289,10.970000267028809 C-41.53799819946289,10.970000267028809 -23.474000930786133,14.437000274658203 0,14.437000274658203 C23.474000930786133,14.437000274658203 41.53799819946289,10.970000267028809 41.53799819946289,10.970000267028809 C41.53799819946289,10.970000267028809 40.54100036621094,-14.437000274658203 40.54100036621094,-14.437000274658203z"></path></g><g opacity="1" transform="matrix(1,0,0,1,251.03399658203125,366.5929870605469)"><path stroke-linecap="round" stroke-linejoin="round" fill-opacity="0" stroke="rgb(163,65,0)" stroke-opacity="1" stroke-width="8" d=" M41.53799819946289,10.663000106811523 C41.53799819946289,10.663000106811523 40.54100036621094,-10.663000106811523 40.54100036621094,-10.663000106811523 C40.54100036621094,-10.663000106811523 0,-9.111000061035156 0,-9.111000061035156 C0,-9.111000061035156 -40.54100036621094,-10.663000106811523 -40.54100036621094,-10.663000106811523 C-40.54100036621094,-10.663000106811523 -41.53799819946289,10.663000106811523 -41.53799819946289,10.663000106811523"></path></g></g><g opacity="1" transform="matrix(1,0,0,1,253.3090057373047,442.5119934082031)"><path fill="rgb(255,185,46)" fill-opacity="1" d=" M-17.075000762939453,28.395999908447266 C-17.075000762939453,28.395999908447266 -17.075000762939453,16.30500030517578 -14.517999649047852,6.501999855041504 C-12.197999954223633,-2.3919999599456787 -9.628000259399414,-11.192999839782715 -5.989999771118164,-26.472999572753906 C-5.381999969482422,-29.027999877929688 4.8379998207092285,-29.04599952697754 5.372000217437744,-26.472999572753906 C8.265999794006348,-12.529000282287598 12.8149995803833,-1.8990000486373901 14.685999870300293,6.656000137329102 C17.16200065612793,17.975000381469727 17.073999404907227,28.395999908447266 17.073999404907227,28.395999908447266"></path></g><g opacity="1" transform="matrix(1,0,0,1,242.66000366210938,442.427001953125)"><path fill="url(#__lottie_element_39)" fill-opacity="1" d=" M7.14900016784668,28.481000900268555 C7.14900016784668,28.481000900268555 -7.5320000648498535,28.481000900268555 -7.5320000648498535,28.481000900268555 C-7.5320000648498535,28.481000900268555 -1.3370000123977661,-5.71999979019165 -1.3370000123977661,-5.71999979019165 C-1.3370000123977661,-5.71999979019165 7.5320000648498535,-28.481000900268555 7.5320000648498535,-28.481000900268555 C7.5320000648498535,-28.481000900268555 7.14900016784668,28.481000900268555 7.14900016784668,28.481000900268555z"></path></g><g opacity="1" transform="matrix(1,0,0,1,263.4360046386719,442.427001953125)"><path fill="url(#__lottie_element_40)" fill-opacity="1" d=" M-6.989999771118164,28.481000900268555 C-6.989999771118164,28.481000900268555 7.5320000648498535,28.481000900268555 7.5320000648498535,28.481000900268555 C7.5320000648498535,28.481000900268555 1.3370000123977661,-5.71999979019165 1.3370000123977661,-5.71999979019165 C1.3370000123977661,-5.71999979019165 -7.5320000648498535,-28.481000900268555 -7.5320000648498535,-28.481000900268555 C-7.5320000648498535,-28.481000900268555 -6.989999771118164,28.481000900268555 -6.989999771118164,28.481000900268555z"></path></g><g opacity="1" transform="matrix(1,0,0,1,251.17300415039062,443.59698486328125)"><path fill="rgb(233,241,255)" fill-opacity="1" d=" M-14.338000297546387,18.881999969482422 C-14.338000297546387,18.881999969482422 -8.385000228881836,9.003999710083008 0.8059999942779541,2.056999921798706 C9.996999740600586,-4.889999866485596 14.338000297546387,-6.493000030517578 14.338000297546387,-6.493000030517578 C14.338000297546387,-6.493000030517578 9.069000244140625,-18.881999969482422 9.069000244140625,-18.881999969482422 C9.069000244140625,-18.881999969482422 -0.7260000109672546,-17.180999755859375 -6.3429999351501465,-9.432000160217285 C-11.960000038146973,-1.6829999685287476 -14.338000297546387,18.881999969482422 -14.338000297546387,18.881999969482422z"></path></g><g opacity="1" transform="matrix(1,0,0,1,251.17300415039062,443.59698486328125)"><path fill="url(#__lottie_element_41)" fill-opacity="1" d=" M-14.338000297546387,18.881999969482422 C-14.338000297546387,18.881999969482422 -8.385000228881836,9.003999710083008 0.8059999942779541,2.056999921798706 C9.996999740600586,-4.889999866485596 14.338000297546387,-6.493000030517578 14.338000297546387,-6.493000030517578 C14.338000297546387,-6.493000030517578 9.069000244140625,-18.881999969482422 9.069000244140625,-18.881999969482422 C9.069000244140625,-18.881999969482422 -0.7260000109672546,-17.180999755859375 -6.3429999351501465,-9.432000160217285 C-11.960000038146973,-1.6829999685287476 -14.338000297546387,18.881999969482422 -14.338000297546387,18.881999969482422z"></path></g><g opacity="1" transform="matrix(1,0,0,1,251.17300415039062,443.59698486328125)"><path fill="url(#__lottie_element_42)" fill-opacity="1" d=" M-14.338000297546387,18.881999969482422 C-14.338000297546387,18.881999969482422 -8.385000228881836,9.003999710083008 0.8059999942779541,2.056999921798706 C9.996999740600586,-4.889999866485596 14.338000297546387,-6.493000030517578 14.338000297546387,-6.493000030517578 C14.338000297546387,-6.493000030517578 9.069000244140625,-18.881999969482422 9.069000244140625,-18.881999969482422 C9.069000244140625,-18.881999969482422 -0.7260000109672546,-17.180999755859375 -6.3429999351501465,-9.432000160217285 C-11.960000038146973,-1.6829999685287476 -14.338000297546387,18.881999969482422 -14.338000297546387,18.881999969482422z"></path></g><g opacity="1" transform="matrix(1,0,0,1,263.8299865722656,465.6940002441406)"><path fill="rgb(184,193,185)" fill-opacity="1" d=" M5,-5.215000152587891 C5,-5.215000152587891 1.3619999885559082,-3.134999990463257 -1.6380000114440918,-0.46299999952316284 C-4.354000091552734,1.9559999704360962 -6.552999973297119,5.215000152587891 -6.552999973297119,5.215000152587891 C-6.552999973297119,5.215000152587891 6.552999973297119,5.215000152587891 6.552999973297119,5.215000152587891 C6.552999973297119,5.215000152587891 5,-5.215000152587891 5,-5.215000152587891z"></path></g><g opacity="1" transform="matrix(1,0,0,1,253.54800415039062,427.6919860839844)"><path fill="url(#__lottie_element_43)" fill-opacity="1" d=" M-5.265999794006348,-12.689000129699707 C-5.265999794006348,-12.689000129699707 5.323999881744385,-12.689000129699707 5.323999881744385,-12.689000129699707 C5.323999881744385,-12.689000129699707 11.420999526977539,12.689000129699707 11.420999526977539,12.689000129699707 C11.420999526977539,12.689000129699707 -11.420999526977539,12.689000129699707 -11.420999526977539,12.689000129699707 C-11.420999526977539,12.689000129699707 -5.265999794006348,-12.689000129699707 -5.265999794006348,-12.689000129699707z"></path></g><g opacity="1" transform="matrix(1,0,0,1,253.3090057373047,442.5119934082031)"><path stroke-linecap="butt" stroke-linejoin="miter" fill-opacity="0" stroke-miterlimit="10" stroke="rgb(147,86,20)" stroke-opacity="1" stroke-width="8" d=" M-17.075000762939453,28.395999908447266 C-17.075000762939453,28.395999908447266 -17.075000762939453,16.30500030517578 -14.517999649047852,6.501999855041504 C-12.197999954223633,-2.3919999599456787 -9.628000259399414,-11.192999839782715 -5.989999771118164,-26.472999572753906 C-5.381999969482422,-29.027999877929688 4.8379998207092285,-29.04599952697754 5.372000217437744,-26.472999572753906 C8.265999794006348,-12.529000282287598 12.8149995803833,-1.8990000486373901 14.685999870300293,6.656000137329102 C17.16200065612793,17.975000381469727 17.073999404907227,28.395999908447266 17.073999404907227,28.395999908447266"></path></g><g opacity="1" transform="matrix(1,0,0,1,270.25,467.59600830078125)"><path stroke-linecap="butt" stroke-linejoin="miter" fill-opacity="0" stroke-miterlimit="10" stroke="rgb(105,110,127)" stroke-opacity="1" stroke-width="8" d=" M-0.13300000131130219,-3.312999963760376 C0.1550000011920929,0.7070000171661377 0.13300000131130219,3.312999963760376 0.13300000131130219,3.312999963760376"></path></g><g opacity="1" transform="matrix(1,0,0,1,270.2149963378906,465.1759948730469)"><path stroke-linecap="round" stroke-linejoin="miter" fill-opacity="0" stroke-miterlimit="10" stroke="rgb(105,110,127)" stroke-opacity="1" stroke-width="8" d=" M-0.1679999977350235,-1.8240000009536743 C0.19300000369548798,2.7200000286102295 0.1679999977350235,1.7330000400543213 0.1679999977350235,1.7330000400543213"></path></g><g opacity="1" transform="matrix(1,0,0,1,240.1529998779297,444.8699951171875)"><path stroke-linecap="round" stroke-linejoin="miter" fill-opacity="0" stroke-miterlimit="10" stroke="rgb(105,110,127)" stroke-opacity="1" stroke-width="8" d=" M-2.802999973297119,11.444999694824219 C-2.447999954223633,9.012999534606934 -1.9789999723434448,6.51200008392334 -1.3619999885559082,4.144999980926514 C-0.09300000220537186,-0.7210000157356262 1.25,-5.559000015258789 2.802999973297119,-11.444999694824219"></path></g><g opacity="1" transform="matrix(1,0,0,1,252.72999572753906,403.65301513671875)"><path fill="rgb(255,185,46)" fill-opacity="1" d=" M-7.697000026702881,18.19700050354004 C-7.697000026702881,18.19700050354004 -13.329000473022461,-3.5769999027252197 -13.329000473022461,-3.5769999027252197 C-13.656000137329102,-4.550000190734863 -13.37399959564209,-5.6539998054504395 -12.642000198364258,-6.265999794006348 C-12.642000198364258,-6.265999794006348 -1.440999984741211,-17.67099952697754 -1.440999984741211,-17.67099952697754 C-0.4259999990463257,-18.54800033569336 0.9819999933242798,-18.481000900268555 1.9320000410079956,-17.511999130249023 C1.9320000410079956,-17.511999130249023 12.819000244140625,-5.642000198364258 12.819000244140625,-5.642000198364258 C13.387999534606934,-5.039000034332275 13.604000091552734,-4.111000061035156 13.371999740600586,-3.259999990463257 C13.371999740600586,-3.259999990463257 7.52400016784668,18.187000274658203 7.52400016784668,18.187000274658203 C7.499000072479248,18.280000686645508 7.4039998054504395,18.31800079345703 7.339000225067139,18.256000518798828 C6.7270002365112305,17.670000076293945 4.811999797821045,15.550999641418457 0.7799999713897705,15.550999641418457 C-3.624000072479248,15.550999641418457 -6.829999923706055,17.663999557495117 -7.517000198364258,18.259000778198242 C-7.579999923706055,18.312999725341797 -7.669000148773193,18.281999588012695 -7.697000026702881,18.19700050354004z"></path></g><g opacity="1" transform="matrix(1,0,0,1,252.72999572753906,403.65301513671875)"><path fill="url(#__lottie_element_44)" fill-opacity="1" d=" M-7.697000026702881,18.19700050354004 C-7.697000026702881,18.19700050354004 -13.329000473022461,-3.5769999027252197 -13.329000473022461,-3.5769999027252197 C-13.656000137329102,-4.550000190734863 -13.37399959564209,-5.6539998054504395 -12.642000198364258,-6.265999794006348 C-12.642000198364258,-6.265999794006348 -1.440999984741211,-17.67099952697754 -1.440999984741211,-17.67099952697754 C-0.4259999990463257,-18.54800033569336 0.9819999933242798,-18.481000900268555 1.9320000410079956,-17.511999130249023 C1.9320000410079956,-17.511999130249023 12.819000244140625,-5.642000198364258 12.819000244140625,-5.642000198364258 C13.387999534606934,-5.039000034332275 13.604000091552734,-4.111000061035156 13.371999740600586,-3.259999990463257 C13.371999740600586,-3.259999990463257 7.52400016784668,18.187000274658203 7.52400016784668,18.187000274658203 C7.499000072479248,18.280000686645508 7.4039998054504395,18.31800079345703 7.339000225067139,18.256000518798828 C6.7270002365112305,17.670000076293945 4.811999797821045,15.550999641418457 0.7799999713897705,15.550999641418457 C-3.624000072479248,15.550999641418457 -6.829999923706055,17.663999557495117 -7.517000198364258,18.259000778198242 C-7.579999923706055,18.312999725341797 -7.669000148773193,18.281999588012695 -7.697000026702881,18.19700050354004z"></path></g><g opacity="1" transform="matrix(1,0,0,1,252.72999572753906,403.65301513671875)"><path fill="url(#__lottie_element_45)" fill-opacity="1" d=" M-7.697000026702881,18.19700050354004 C-7.697000026702881,18.19700050354004 -13.329000473022461,-3.5769999027252197 -13.329000473022461,-3.5769999027252197 C-13.656000137329102,-4.550000190734863 -13.37399959564209,-5.6539998054504395 -12.642000198364258,-6.265999794006348 C-12.642000198364258,-6.265999794006348 -1.440999984741211,-17.67099952697754 -1.440999984741211,-17.67099952697754 C-0.4259999990463257,-18.54800033569336 0.9819999933242798,-18.481000900268555 1.9320000410079956,-17.511999130249023 C1.9320000410079956,-17.511999130249023 12.819000244140625,-5.642000198364258 12.819000244140625,-5.642000198364258 C13.387999534606934,-5.039000034332275 13.604000091552734,-4.111000061035156 13.371999740600586,-3.259999990463257 C13.371999740600586,-3.259999990463257 7.52400016784668,18.187000274658203 7.52400016784668,18.187000274658203 C7.499000072479248,18.280000686645508 7.4039998054504395,18.31800079345703 7.339000225067139,18.256000518798828 C6.7270002365112305,17.670000076293945 4.811999797821045,15.550999641418457 0.7799999713897705,15.550999641418457 C-3.624000072479248,15.550999641418457 -6.829999923706055,17.663999557495117 -7.517000198364258,18.259000778198242 C-7.579999923706055,18.312999725341797 -7.669000148773193,18.281999588012695 -7.697000026702881,18.19700050354004z"></path></g><g opacity="1" transform="matrix(1,0,0,1,252.96800231933594,404.0329895019531)"><path fill="rgb(233,241,255)" fill-opacity="1" d=" M-10.309000015258789,6.210999965667725 C-10.309000015258789,6.210999965667725 -8.265999794006348,-0.3799999952316284 -4.531000137329102,-5.84499979019165 C-1.4730000495910645,-10.319000244140625 5.138000011444092,-15.454000473022461 5.138000011444092,-15.454000473022461 C5.138000011444092,-15.454000473022461 10.309000015258789,-6.611000061035156 10.309000015258789,-6.611000061035156 C10.309000015258789,-6.611000061035156 6.317999839782715,-4.59499979019165 2.0739998817443848,0 C-4.043000221252441,6.623000144958496 -7.506999969482422,15.454000473022461 -7.506999969482422,15.454000473022461 C-7.506999969482422,15.454000473022461 -10.309000015258789,6.210999965667725 -10.309000015258789,6.210999965667725z"></path></g><g opacity="1" transform="matrix(1,0,0,1,252.96800231933594,404.0329895019531)"><path fill="url(#__lottie_element_46)" fill-opacity="1" d=" M-10.309000015258789,6.210999965667725 C-10.309000015258789,6.210999965667725 -8.265999794006348,-0.3799999952316284 -4.531000137329102,-5.84499979019165 C-1.4730000495910645,-10.319000244140625 5.138000011444092,-15.454000473022461 5.138000011444092,-15.454000473022461 C5.138000011444092,-15.454000473022461 10.309000015258789,-6.611000061035156 10.309000015258789,-6.611000061035156 C10.309000015258789,-6.611000061035156 6.317999839782715,-4.59499979019165 2.0739998817443848,0 C-4.043000221252441,6.623000144958496 -7.506999969482422,15.454000473022461 -7.506999969482422,15.454000473022461 C-7.506999969482422,15.454000473022461 -10.309000015258789,6.210999965667725 -10.309000015258789,6.210999965667725z"></path></g><g opacity="1" transform="matrix(1,0,0,1,252.96800231933594,404.0329895019531)"><path fill="url(#__lottie_element_47)" fill-opacity="1" d=" M-10.309000015258789,6.210999965667725 C-10.309000015258789,6.210999965667725 -8.265999794006348,-0.3799999952316284 -4.531000137329102,-5.84499979019165 C-1.4730000495910645,-10.319000244140625 5.138000011444092,-15.454000473022461 5.138000011444092,-15.454000473022461 C5.138000011444092,-15.454000473022461 10.309000015258789,-6.611000061035156 10.309000015258789,-6.611000061035156 C10.309000015258789,-6.611000061035156 6.317999839782715,-4.59499979019165 2.0739998817443848,0 C-4.043000221252441,6.623000144958496 -7.506999969482422,15.454000473022461 -7.506999969482422,15.454000473022461 C-7.506999969482422,15.454000473022461 -10.309000015258789,6.210999965667725 -10.309000015258789,6.210999965667725z"></path></g><g opacity="1" transform="matrix(1,0,0,1,252.59500122070312,396.72198486328125)"><path fill="url(#__lottie_element_48)" fill-opacity="1" d=" M9.600000381469727,9.600000381469727 C9.600000381469727,9.600000381469727 9.600000381469727,-9.600000381469727 9.600000381469727,-9.600000381469727 C9.600000381469727,-9.600000381469727 -9.600000381469727,-9.600000381469727 -9.600000381469727,-9.600000381469727 C-9.600000381469727,-9.600000381469727 -9.600000381469727,9.600000381469727 -9.600000381469727,9.600000381469727 C-9.600000381469727,9.600000381469727 9.600000381469727,9.600000381469727 9.600000381469727,9.600000381469727z"></path></g><g opacity="1" transform="matrix(1,0,0,1,252.72999572753906,403.65301513671875)"><path stroke-linecap="butt" stroke-linejoin="miter" fill-opacity="0" stroke-miterlimit="10" stroke="rgb(147,86,20)" stroke-opacity="1" stroke-width="8" d=" M-7.697000026702881,17.19700050354004 C-7.697000026702881,17.19700050354004 -13.329000473022461,-4.577000141143799 -13.329000473022461,-4.577000141143799 C-13.656000137329102,-5.550000190734863 -13.37399959564209,-6.6539998054504395 -12.642000198364258,-7.265999794006348 C-12.642000198364258,-7.265999794006348 -1.440999984741211,-16.67099952697754 -1.440999984741211,-16.67099952697754 C-0.4259999990463257,-17.54800033569336 0.9819999933242798,-17.481000900268555 1.9320000410079956,-16.511999130249023 C1.9320000410079956,-16.511999130249023 12.819000244140625,-6.642000198364258 12.819000244140625,-6.642000198364258 C13.387999534606934,-6.039000034332275 13.604000091552734,-5.111000061035156 13.371999740600586,-4.260000228881836 C13.371999740600586,-4.260000228881836 7.52400016784668,17.187000274658203 7.52400016784668,17.187000274658203 C7.499000072479248,17.280000686645508 7.4039998054504395,17.31800079345703 7.339000225067139,17.256000518798828 C6.7270002365112305,16.670000076293945 4.811999797821045,15.550999641418457 0.7799999713897705,15.550999641418457 C-3.624000072479248,15.550999641418457 -6.829999923706055,16.663999557495117 -7.517000198364258,17.259000778198242 C-7.579999923706055,17.312999725341797 -7.669000148773193,17.281999588012695 -7.697000026702881,17.19700050354004z"></path></g><g opacity="1" transform="matrix(1,0,0,1,242.7550048828125,412.0429992675781)"><path stroke-linecap="round" stroke-linejoin="miter" fill-opacity="0" stroke-miterlimit="10" stroke="rgb(105,110,127)" stroke-opacity="1" stroke-width="8" d=" M0.765999972820282,2.9600000381469727 C0.765999972820282,2.9600000381469727 -0.765999972820282,-2.9600000381469727 -0.765999972820282,-2.9600000381469727"></path></g><g opacity="1" transform="matrix(1,0,0,1,259.4530029296875,391.4840087890625)"><path stroke-linecap="round" stroke-linejoin="miter" fill-opacity="0" stroke-miterlimit="10" stroke="rgb(105,110,127)" stroke-opacity="1" stroke-width="8" d=" M-3.2039999961853027,-2.9049999713897705 C-3.2039999961853027,-2.9049999713897705 3.2039999961853027,2.9049999713897705 3.2039999961853027,2.9049999713897705"></path></g><g opacity="1" transform="matrix(1,0,0,1,262.6570129394531,431.0199890136719)"><path stroke-linecap="round" stroke-linejoin="miter" fill-opacity="0" stroke-miterlimit="10" stroke="rgb(105,110,127)" stroke-opacity="1" stroke-width="8" d=" M-1.6640000343322754,-5.48799991607666 C-0.5709999799728394,-1.5379999876022339 0.5860000252723694,2.1080000400543213 1.6640000343322754,5.48799991607666"></path></g><g opacity="1" transform="matrix(1,0,0,1,220.92100524902344,386.7799987792969)"><path fill="rgb(172,222,252)" fill-opacity="1" d=" M0.38199999928474426,27.8799991607666 C0.38199999928474426,27.8799991607666 29.361000061035156,-1.343999981880188 29.361000061035156,-1.343999981880188 C29.591999053955078,-1.5839999914169312 29.56100082397461,-1.9700000286102295 29.28700065612793,-2.1610000133514404 C24.30299949645996,-5.633999824523926 -14.649999618530273,-30.53499984741211 -17.878999710083008,-27.8439998626709 C-21.326000213623047,-24.972000122070312 -29.54199981689453,-14.439000129699707 -29.514999389648438,-7.559999942779541 C-29.482999801635742,0.6520000100135803 -3.756999969482422,24.63800048828125 -0.38199999928474426,27.895999908447266 C-0.16699999570846558,28.104000091552734 0.17399999499320984,28.094999313354492 0.38199999928474426,27.8799991607666z"></path></g><g opacity="1" transform="matrix(1,0,0,1,219.65899658203125,382.7919921875)"><path fill="url(#__lottie_element_49)" fill-opacity="1" d=" M30.62299919128418,2.6440000534057617 C30.62299919128418,2.6440000534057617 0.8799999952316284,31.882999420166016 0.8799999952316284,31.882999420166016 C0.8799999952316284,31.882999420166016 -30.62299919128418,-3.6559998989105225 -30.62299919128418,-3.6559998989105225 C-30.62299919128418,-3.6559998989105225 -14.041000366210938,-31.882999420166016 -14.041000366210938,-31.882999420166016 C-14.041000366210938,-31.882999420166016 30.62299919128418,2.6440000534057617 30.62299919128418,2.6440000534057617z"></path></g><g opacity="1" transform="matrix(1,0,0,1,216.1790008544922,392.7550048828125)"><path stroke-linecap="butt" stroke-linejoin="miter" fill-opacity="0" stroke-miterlimit="10" stroke="rgb(184,224,242)" stroke-opacity="1" stroke-width="5" d=" M27.14299964904785,-9.180999755859375 C27.14299964904785,-9.180999755859375 6.349999904632568,12.859999656677246 6.349999904632568,12.859999656677246 C5.453999996185303,13.8100004196167 3.9649999141693115,13.878000259399414 2.986999988555908,13.012999534606934 C2.986999988555908,13.012999534606934 -27.14299964904785,-13.619000434875488 -27.14299964904785,-13.619000434875488"></path></g><g opacity="0.6" transform="matrix(1,0,0,1,202.20899963378906,371.6369934082031)"><path stroke-linecap="round" stroke-linejoin="miter" fill-opacity="0" stroke-miterlimit="10" stroke="rgb(194,235,249)" stroke-opacity="1" stroke-width="4" d=" M-6.690999984741211,14.163000106811523 C-5.40500020980835,10.161999702453613 -4.170000076293945,5.460000038146973 -2.069999933242798,0.8410000205039978 C0.6159999966621399,-5.067999839782715 3.9189999103546143,-9.854000091552734 6.690999984741211,-14.163000106811523"></path></g><g opacity="1" transform="matrix(1,0,0,1,220.92100524902344,385.2239990234375)"><path stroke-linecap="butt" stroke-linejoin="miter" fill-opacity="0" stroke-miterlimit="10" stroke="rgb(72,113,150)" stroke-opacity="1" stroke-width="8" d=" M0.38199999928474426,29.43600082397461 C0.38199999928474426,29.43600082397461 29.361000061035156,0.21199999749660492 29.361000061035156,0.21199999749660492 C29.591999053955078,-0.02800000086426735 29.56100082397461,-0.414000004529953 29.28700065612793,-0.6050000190734863 C24.30299949645996,-4.078000068664551 -16.016000747680664,-32.88100051879883 -18.207000732421875,-29.29400062561035 C-27.540000915527344,-14.020000457763672 -29.516000747680664,-8.913999557495117 -29.516000747680664,-4.004000186920166 C-29.516000747680664,1.5800000429153442 -3.756999969482422,26.194000244140625 -0.38199999928474426,29.45199966430664 C-0.16699999570846558,29.65999984741211 0.17399999499320984,29.650999069213867 0.38199999928474426,29.43600082397461z"></path></g><g opacity="1" transform="matrix(1,0,0,1,221.10299682617188,398.3800048828125)"><path stroke-linecap="round" stroke-linejoin="miter" fill-opacity="0" stroke-miterlimit="10" stroke="rgb(98,142,177)" stroke-opacity="1" stroke-width="8" d=" M-29.589000701904297,-16.445999145507812 C-27.777999877929688,-9.743000030517578 -3.809999942779541,13.16100025177002 -0.5630000233650208,16.29599952697754 C-0.3479999899864197,16.503999710083008 -0.007000000216066837,16.4950008392334 0.20100000500679016,16.280000686645508 C0.20100000500679016,16.280000686645508 29.589000701904297,-13.232000350952148 29.589000701904297,-13.232000350952148"></path></g><g opacity="1" transform="matrix(1,0,0,1,285.1409912109375,386.7040100097656)"><path fill="rgb(172,222,252)" fill-opacity="1" d=" M-0.38199999928474426,27.8799991607666 C-0.38199999928474426,27.8799991607666 -29.361000061035156,-1.343999981880188 -29.361000061035156,-1.343999981880188 C-29.591999053955078,-1.5839999914169312 -29.56100082397461,-1.9700000286102295 -29.28700065612793,-2.1610000133514404 C-24.30299949645996,-5.633999824523926 14.649999618530273,-30.53499984741211 17.878999710083008,-27.8439998626709 C21.326000213623047,-24.972000122070312 29.54199981689453,-14.439000129699707 29.514999389648438,-7.559999942779541 C29.482999801635742,0.6520000100135803 3.756999969482422,24.63800048828125 0.38199999928474426,27.895999908447266 C0.16699999570846558,28.104000091552734 -0.17399999499320984,28.094999313354492 -0.38199999928474426,27.8799991607666z"></path></g><g opacity="1" transform="matrix(1,0,0,1,286.40301513671875,382.7170104980469)"><path fill="url(#__lottie_element_50)" fill-opacity="1" d=" M-30.62299919128418,2.6440000534057617 C-30.62299919128418,2.6440000534057617 -0.8799999952316284,31.882999420166016 -0.8799999952316284,31.882999420166016 C-0.8799999952316284,31.882999420166016 30.62299919128418,-3.6559998989105225 30.62299919128418,-3.6559998989105225 C30.62299919128418,-3.6559998989105225 14.041000366210938,-31.882999420166016 14.041000366210938,-31.882999420166016 C14.041000366210938,-31.882999420166016 -30.62299919128418,2.6440000534057617 -30.62299919128418,2.6440000534057617z"></path></g><g opacity="1" transform="matrix(1,0,0,1,289.88299560546875,392.67999267578125)"><path stroke-linecap="butt" stroke-linejoin="miter" fill-opacity="0" stroke-miterlimit="10" stroke="rgb(184,224,242)" stroke-opacity="1" stroke-width="5" d=" M-27.14299964904785,-9.180999755859375 C-27.14299964904785,-9.180999755859375 -6.349999904632568,12.859999656677246 -6.349999904632568,12.859999656677246 C-5.453999996185303,13.8100004196167 -3.9649999141693115,13.878000259399414 -2.986999988555908,13.012999534606934 C-2.986999988555908,13.012999534606934 27.14299964904785,-13.619000434875488 27.14299964904785,-13.619000434875488"></path></g><g opacity="0.6" transform="matrix(1,0,0,1,303.85400390625,371.56201171875)"><path stroke-linecap="round" stroke-linejoin="miter" fill-opacity="0" stroke-miterlimit="10" stroke="rgb(194,235,249)" stroke-opacity="1" stroke-width="4" d=" M6.690999984741211,14.163000106811523 C5.40500020980835,10.161999702453613 4.660999774932861,6.396999835968018 2.561000108718872,1.777999997138977 C-0.125,-4.13100004196167 -3.9189999103546143,-9.854000091552734 -6.690999984741211,-14.163000106811523"></path></g><g opacity="1" transform="matrix(1,0,0,1,285.1409912109375,385.14801025390625)"><path stroke-linecap="butt" stroke-linejoin="miter" fill-opacity="0" stroke-miterlimit="10" stroke="rgb(72,113,150)" stroke-opacity="1" stroke-width="8" d=" M-0.38199999928474426,29.43600082397461 C-0.38199999928474426,29.43600082397461 -29.361000061035156,0.21199999749660492 -29.361000061035156,0.21199999749660492 C-29.591999053955078,-0.02800000086426735 -29.56100082397461,-0.414000004529953 -29.28700065612793,-0.6050000190734863 C-24.30299949645996,-4.078000068664551 16.016000747680664,-32.88100051879883 18.207000732421875,-29.29400062561035 C27.540000915527344,-14.020000457763672 29.516000747680664,-8.913999557495117 29.516000747680664,-4.004000186920166 C29.516000747680664,1.5800000429153442 3.756999969482422,26.194000244140625 0.38199999928474426,29.45199966430664 C0.16699999570846558,29.65999984741211 -0.17399999499320984,29.650999069213867 -0.38199999928474426,29.43600082397461z"></path></g><g opacity="1" transform="matrix(1,0,0,1,284.7449951171875,398.65301513671875)"><path stroke-linecap="round" stroke-linejoin="miter" fill-opacity="0" stroke-miterlimit="10" stroke="rgb(98,142,177)" stroke-opacity="1" stroke-width="8" d=" M29.554000854492188,-16.17300033569336 C26.711999893188477,-8.855999946594238 3.874000072479248,12.968000411987305 0.7099999785423279,16.023000717163086 C0.4950000047683716,16.231000900268555 0.15399999916553497,16.222000122070312 -0.05400000140070915,16.006999969482422 C-0.05400000140070915,16.006999969482422 -29.554000854492188,-13.850000381469727 -29.554000854492188,-13.850000381469727"></path></g></g><g style="display: block;" transform="matrix(1,0,0,1,0,0)" opacity="1"><g opacity="1" transform="matrix(1,0,0,1,0,0)"><g opacity="1" transform="matrix(1,0,0,1,0,0)"><g opacity="1" transform="matrix(1,0,0,1,138.45799255371094,241.04100036621094)"><path fill="rgb(255,168,0)" fill-opacity="1" d=" M3.6630001068115234,-31.18199920654297 C3.6630001068115234,-31.18199920654297 -6.739999771118164,-38.25299835205078 -12.208999633789062,-28.777000427246094 C-17.211999893188477,-20.108999252319336 -7.6519999504089355,24.70199966430664 1.1799999475479126,31.9689998626709 C6.61299991607666,36.439998626708984 12.494999885559082,30.924999237060547 12.494999885559082,30.924999237060547 C16.077999114990234,28.472999572753906 10.262999534606934,-22.19300079345703 3.6630001068115234,-31.18199920654297z"></path><path stroke-linecap="round" stroke-linejoin="round" fill-opacity="0" stroke="rgb(219,110,0)" stroke-opacity="1" stroke-width="8" d=" M3.6630001068115234,-31.18199920654297 C3.6630001068115234,-31.18199920654297 -6.739999771118164,-38.25299835205078 -12.208999633789062,-28.777000427246094 C-17.211999893188477,-20.108999252319336 -7.6519999504089355,24.70199966430664 1.1799999475479126,31.9689998626709 C6.61299991607666,36.439998626708984 12.494999885559082,30.924999237060547 12.494999885559082,30.924999237060547 C16.077999114990234,28.472999572753906 10.262999534606934,-22.19300079345703 3.6630001068115234,-31.18199920654297z"></path></g><g opacity="1" transform="matrix(1,0,0,1,364.60101318359375,241.04100036621094)"><path fill="rgb(255,168,0)" fill-opacity="1" d=" M-3.6630001068115234,-31.18199920654297 C-3.6630001068115234,-31.18199920654297 6.739999771118164,-38.25299835205078 12.208999633789062,-28.777000427246094 C17.211999893188477,-20.108999252319336 7.6519999504089355,24.70199966430664 -1.1799999475479126,31.9689998626709 C-6.61299991607666,36.439998626708984 -12.494999885559082,30.924999237060547 -12.494999885559082,30.924999237060547 C-16.077999114990234,28.472999572753906 -10.262999534606934,-22.19300079345703 -3.6630001068115234,-31.18199920654297z"></path><path stroke-linecap="round" stroke-linejoin="round" fill-opacity="0" stroke="rgb(219,110,0)" stroke-opacity="1" stroke-width="8" d=" M-3.6630001068115234,-31.18199920654297 C-3.6630001068115234,-31.18199920654297 6.739999771118164,-38.25299835205078 12.208999633789062,-28.777000427246094 C17.211999893188477,-20.108999252319336 7.6519999504089355,24.70199966430664 -1.1799999475479126,31.9689998626709 C-6.61299991607666,36.439998626708984 -12.494999885559082,30.924999237060547 -12.494999885559082,30.924999237060547 C-16.077999114990234,28.472999572753906 -10.262999534606934,-22.19300079345703 -3.6630001068115234,-31.18199920654297z"></path></g></g><g opacity="1" transform="matrix(1,0,0,1,0,0)"><g opacity="1" transform="matrix(1,0,0,1,251.30599975585938,222.70399475097656)"><path fill="rgb(255,168,0)" fill-opacity="1" d=" M108.3479995727539,16.783000946044922 C108.3479995727539,85.55799865722656 59.51599884033203,143.5540008544922 0.6359999775886536,143.5540008544922 C-58.24399948120117,143.5540008544922 -107.0770034790039,85.55799865722656 -107.0770034790039,16.783000946044922 C-117.91100311279297,-97.55000305175781 -57.58000183105469,-143.5540008544922 0.6359999775886536,-143.5540008544922 C57.32500076293945,-143.5540008544922 108.3479995727539,-125.61499786376953 108.3479995727539,16.783000946044922z"></path></g><g opacity="1" transform="matrix(1,0,0,1,251.30599975585938,222.70399475097656)"><path fill="url(#__lottie_element_6)" fill-opacity="1" d=" M108.3479995727539,16.783000946044922 C108.3479995727539,85.55799865722656 59.51599884033203,143.5540008544922 0.6359999775886536,143.5540008544922 C-58.24399948120117,143.5540008544922 -107.0770034790039,85.55799865722656 -107.0770034790039,16.783000946044922 C-117.91100311279297,-97.55000305175781 -57.58000183105469,-143.5540008544922 0.6359999775886536,-143.5540008544922 C57.32500076293945,-143.5540008544922 108.3479995727539,-125.61499786376953 108.3479995727539,16.783000946044922z"></path></g><g opacity="1" transform="matrix(1,0,0,1,251.30599975585938,222.70399475097656)"><path stroke-linecap="round" stroke-linejoin="round" fill-opacity="0" stroke="rgb(219,110,0)" stroke-opacity="1" stroke-width="8" d=" M108.3479995727539,16.783000946044922 C108.3479995727539,85.55799865722656 59.51599884033203,143.5540008544922 0.6359999775886536,143.5540008544922 C-58.24399948120117,143.5540008544922 -107.0770034790039,85.55799865722656 -107.0770034790039,16.783000946044922 C-117.91100311279297,-97.55000305175781 -57.58000183105469,-143.5540008544922 0.6359999775886536,-143.5540008544922 C57.32500076293945,-143.5540008544922 108.3479995727539,-125.61499786376953 108.3479995727539,16.783000946044922z"></path></g><g opacity="1" transform="matrix(1,0,0,1,251.94200134277344,246.77000427246094)"><g opacity="1" transform="matrix(1,0,0,1,0,0)"><path fill="url(#__lottie_element_7)" fill-opacity="1" d=" M97.55000305175781,-44.92900085449219 C79.0780029296875,-63.689998626708984 78.91999816894531,-80.91000366210938 78.0270004272461,-85.96900177001953 C77.84600067138672,-86.99500274658203 76.85700225830078,-87.67400360107422 75.83499908447266,-87.47000122070312 C-4.670000076293945,-71.4280014038086 -58.63999938964844,-92.06199645996094 -68.31800079345703,-99.125 C-69.44100189208984,-99.94499969482422 -71.29900360107422,-99.2969970703125 -71.24700164794922,-97.90799713134766 C-70.36799621582031,-74.60800170898438 -96.54900360107422,-49.762001037597656 -97.75199890136719,-46.334999084472656 C-97.7699966430664,-44.97700119018555 -97.81199645996094,-18.746000289916992 -97.81199645996094,-17.09000015258789 C-97.81199645996094,44.93299865722656 -53.46799850463867,99.48600006103516 0,99.48600006103516 C53.46799850463867,99.48600006103516 97.81199645996094,44.93299865722656 97.81199645996094,-17.09000015258789 C97.81199645996094,-22.551000595092773 97.57599639892578,-44.02399826049805 97.55000305175781,-44.92900085449219z"></path></g></g></g><g opacity="1" transform="matrix(1,0,0,1,0,0)"><g opacity="1" transform="matrix(1,0,0,1,305.0199890136719,185.29600524902344)"><path stroke-linecap="round" stroke-linejoin="round" fill-opacity="0" stroke="rgb(163,65,0)" stroke-opacity="1" stroke-width="13" d=" M-15.770000457763672,-1.2100000381469727 C-15.770000457763672,-1.2100000381469727 0.777999997138977,-5.0289998054504395 15.770000457763672,2.2160000801086426"></path></g><g opacity="1" transform="matrix(1,0,0,1,199.2779998779297,185.29600524902344)"><path stroke-linecap="round" stroke-linejoin="round" fill-opacity="0" stroke="rgb(163,65,0)" stroke-opacity="1" stroke-width="13" d=" M15.770000457763672,-1.2100000381469727 C15.770000457763672,-1.2100000381469727 -0.777999997138977,-5.0289998054504395 -15.770000457763672,2.2160000801086426"></path></g></g><g opacity="1" transform="matrix(1,0,0,1,0,0)"><g opacity="1" transform="matrix(1,0,0,1,0,0)"><g opacity="1" transform="matrix(1,0,0,1,304.406005859375,222.9980010986328)"><path fill="rgb(255,255,255)" fill-opacity="1" d=" M-28.073999404907227,13.859999656677246 C-28.073999404907227,13.859999656677246 -29.545000076293945,-3.056999921798706 -17.545000076293945,-14.050000190734863 C-7.236000061035156,-23.4950008392334 12.17300033569336,-22.56800079345703 21.899999618530273,-10.467000007629395 C29.820999145507812,-0.6140000224113464 27.934999465942383,10.87399959564209 27.934999465942383,10.87399959564209 C27.934999465942383,10.87399959564209 20.027000427246094,19.37700080871582 3.7960000038146973,20.30299949645996 C-16.854000091552734,21.48200035095215 -28.073999404907227,13.859999656677246 -28.073999404907227,13.859999656677246z"></path></g><g opacity="1" transform="matrix(1,0,0,1,303.1109924316406,222.9980010986328)"><path fill="url(#__lottie_element_8)" fill-opacity="1" d=" M17.68000030517578,0 C17.68000030517578,9.763999938964844 9.763999938964844,17.68000030517578 0,17.68000030517578 C-9.763999938964844,17.68000030517578 -17.68000030517578,9.763999938964844 -17.68000030517578,0 C-17.68000030517578,-9.763999938964844 -9.763999938964844,-17.68000030517578 0,-17.68000030517578 C9.763999938964844,-17.68000030517578 17.68000030517578,-9.763999938964844 17.68000030517578,0z"></path></g><g opacity="1" transform="matrix(1,0,0,1,312.1730041503906,232.21499633789062)"><g opacity="1" transform="matrix(1,0,0,1,0,0)"><path fill="url(#__lottie_element_9)" fill-opacity="1" d=" M-4.5329999923706055,7.6570000648498535 C-5.914999961853027,7.6570000648498535 -7.192999839782715,6.765999794006348 -7.622000217437744,5.375999927520752 C-8.14900016784668,3.6700000762939453 -7.191999912261963,1.8589999675750732 -5.485000133514404,1.3329999446868896 C-2.2200000286102295,0.32600000500679016 0.3790000081062317,-2.2109999656677246 1.4670000076293945,-5.452000141143799 C2.0360000133514404,-7.145999908447266 3.871999979019165,-8.055999755859375 5.560999870300293,-7.488999843597412 C7.255000114440918,-6.921000003814697 8.166000366210938,-5.086999893188477 7.5980000495910645,-3.3940000534057617 C5.848999977111816,1.815999984741211 1.6710000038146973,5.894000053405762 -3.5789999961853027,7.513000011444092 C-3.8959999084472656,7.611000061035156 -4.2179999351501465,7.6570000648498535 -4.5329999923706055,7.6570000648498535z"></path></g></g><g opacity="1" transform="matrix(1,0,0,1,303.1109924316406,222.9980010986328)"><path fill="rgb(24,19,9)" fill-opacity="1" d=" M11.173999786376953,0 C11.173999786376953,6.171000003814697 6.171000003814697,11.17300033569336 0,11.17300033569336 C-6.171000003814697,11.17300033569336 -11.173999786376953,6.171000003814697 -11.173999786376953,0 C-11.173999786376953,-6.171000003814697 -6.171000003814697,-11.17300033569336 0,-11.17300033569336 C6.171000003814697,-11.17300033569336 11.173999786376953,-6.171000003814697 11.173999786376953,0z"></path></g><g opacity="1" transform="matrix(1,0,0,1,304.4590148925781,218.9080047607422)"><path fill="rgb(175,57,0)" fill-opacity="1" d=" M-28.12700080871582,17.950000762939453 C-30.40999984741211,0.08699999749660492 -18.863000869750977,-18.216999053955078 0.367000013589859,-17.94700050354004 C17.656999588012695,-17.70400047302246 31.31100082397461,-2.378999948501587 27.881999969482422,14.96500015258789 C28.256000518798828,-1.1380000114440918 16.363000869750977,-14.869000434875488 -0.1469999998807907,-14.67199993133545 C-17.8799991607666,-14.460000038146973 -27.46299934387207,1.753000020980835 -28.12700080871582,17.950000762939453z"></path><path stroke-linecap="round" stroke-linejoin="round" fill-opacity="0" stroke="rgb(175,57,0)" stroke-opacity="1" stroke-width="2" d=" M-28.12700080871582,17.950000762939453 C-30.40999984741211,0.08699999749660492 -18.863000869750977,-18.216999053955078 0.367000013589859,-17.94700050354004 C17.656999588012695,-17.70400047302246 31.31100082397461,-2.378999948501587 27.881999969482422,14.96500015258789 C28.256000518798828,-1.1380000114440918 16.363000869750977,-14.869000434875488 -0.1469999998807907,-14.67199993133545 C-17.8799991607666,-14.460000038146973 -27.46299934387207,1.753000020980835 -28.12700080871582,17.950000762939453z"></path></g></g><g opacity="1" transform="matrix(1,0,0,1,0,0)"><g opacity="1" transform="matrix(1,0,0,1,199.89199829101562,222.9980010986328)"><path fill="rgb(255,255,255)" fill-opacity="1" d=" M28.073999404907227,13.859999656677246 C28.073999404907227,13.859999656677246 29.545000076293945,-3.056999921798706 17.545000076293945,-14.050000190734863 C7.236000061035156,-23.4950008392334 -12.17300033569336,-22.56800079345703 -21.899999618530273,-10.467000007629395 C-29.820999145507812,-0.6140000224113464 -27.934999465942383,10.87399959564209 -27.934999465942383,10.87399959564209 C-27.934999465942383,10.87399959564209 -20.027000427246094,19.37700080871582 -3.7960000038146973,20.30299949645996 C16.854000091552734,21.48200035095215 28.073999404907227,13.859999656677246 28.073999404907227,13.859999656677246z"></path></g><g opacity="1" transform="matrix(1,0,0,1,201.18699645996094,222.9980010986328)"><path fill="url(#__lottie_element_10)" fill-opacity="1" d=" M17.68000030517578,0 C17.68000030517578,9.763999938964844 9.763999938964844,17.68000030517578 0,17.68000030517578 C-9.763999938964844,17.68000030517578 -17.68000030517578,9.763999938964844 -17.68000030517578,0 C-17.68000030517578,-9.763999938964844 -9.763999938964844,-17.68000030517578 0,-17.68000030517578 C9.763999938964844,-17.68000030517578 17.68000030517578,-9.763999938964844 17.68000030517578,0z"></path></g><g opacity="1" transform="matrix(1,0,0,1,210.1790008544922,232.21499633789062)"><g opacity="1" transform="matrix(1,0,0,1,0,0)"><path fill="url(#__lottie_element_11)" fill-opacity="1" d=" M-4.5329999923706055,7.6570000648498535 C-5.914999961853027,7.6570000648498535 -7.192999839782715,6.765999794006348 -7.622000217437744,5.375999927520752 C-8.14900016784668,3.6700000762939453 -7.191999912261963,1.8589999675750732 -5.485000133514404,1.3329999446868896 C-2.2200000286102295,0.32600000500679016 0.3790000081062317,-2.2109999656677246 1.4670000076293945,-5.452000141143799 C2.0350000858306885,-7.145999908447266 3.871000051498413,-8.055999755859375 5.560999870300293,-7.488999843597412 C7.254000186920166,-6.921000003814697 8.166000366210938,-5.086999893188477 7.5980000495910645,-3.3940000534057617 C5.848999977111816,1.815999984741211 1.6710000038146973,5.894000053405762 -3.5789999961853027,7.513000011444092 C-3.8959999084472656,7.611000061035156 -4.2179999351501465,7.6570000648498535 -4.5329999923706055,7.6570000648498535z"></path></g></g><g opacity="1" transform="matrix(1,0,0,1,201.18699645996094,222.9980010986328)"><path fill="rgb(24,19,9)" fill-opacity="1" d=" M11.173999786376953,0 C11.173999786376953,6.171000003814697 6.171000003814697,11.17300033569336 0,11.17300033569336 C-6.171000003814697,11.17300033569336 -11.173999786376953,6.171000003814697 -11.173999786376953,0 C-11.173999786376953,-6.171000003814697 -6.171000003814697,-11.17300033569336 0,-11.17300033569336 C6.171000003814697,-11.17300033569336 11.173999786376953,-6.171000003814697 11.173999786376953,0z"></path></g><g opacity="1" transform="matrix(1,0,0,1,199.83900451660156,218.9080047607422)"><path fill="rgb(175,57,0)" fill-opacity="1" d=" M28.12700080871582,17.950000762939453 C30.40999984741211,0.08699999749660492 18.863000869750977,-18.216999053955078 -0.367000013589859,-17.94700050354004 C-17.656999588012695,-17.70400047302246 -31.31100082397461,-2.378999948501587 -27.881999969482422,14.96500015258789 C-28.256000518798828,-1.1380000114440918 -16.363000869750977,-14.869000434875488 0.1469999998807907,-14.67199993133545 C17.8799991607666,-14.460000038146973 27.46299934387207,1.753000020980835 28.12700080871582,17.950000762939453z"></path><path stroke-linecap="round" stroke-linejoin="round" fill-opacity="0" stroke="rgb(175,57,0)" stroke-opacity="1" stroke-width="2" d=" M28.12700080871582,17.950000762939453 C30.40999984741211,0.08699999749660492 18.863000869750977,-18.216999053955078 -0.367000013589859,-17.94700050354004 C-17.656999588012695,-17.70400047302246 -31.31100082397461,-2.378999948501587 -27.881999969482422,14.96500015258789 C-28.256000518798828,-1.1380000114440918 -16.363000869750977,-14.869000434875488 0.1469999998807907,-14.67199993133545 C17.8799991607666,-14.460000038146973 27.46299934387207,1.753000020980835 28.12700080871582,17.950000762939453z"></path></g></g></g><g opacity="1" transform="matrix(1,0,0,1,0,0)"><g opacity="0.5" transform="matrix(1,0,0,1,251.9029998779297,325.5840148925781)"><path fill="url(#__lottie_element_12)" fill-opacity="1" d=" M24.371999740600586,-4.915999889373779 C24.371999740600586,-0.6259999871253967 13.460000038146973,6.5929999351501465 0,6.5929999351501465 C-13.460000038146973,6.5929999351501465 -24.371999740600586,-0.6259999871253967 -24.371999740600586,-4.915999889373779 C-24.371999740600586,-9.206000328063965 -13.460000038146973,-3.9089999198913574 0,-3.9089999198913574 C13.460000038146973,-3.9089999198913574 24.371999740600586,-9.206000328063965 24.371999740600586,-4.915999889373779z"></path></g><g opacity="0.7000000000000001" transform="matrix(1,0,0,1,251.5290069580078,310.1960144042969)"><path fill="url(#__lottie_element_13)" fill-opacity="1" d=" M32.14799880981445,-5.36299991607666 C32.14799880981445,2.691999912261963 17.7549991607666,11.404000282287598 0,11.404000282287598 C-17.7549991607666,11.404000282287598 -32.14799880981445,2.691999912261963 -32.14799880981445,-5.36299991607666 C-32.14799880981445,-13.418000221252441 32.14799880981445,-13.418000221252441 32.14799880981445,-5.36299991607666z"></path></g><g opacity="1" transform="matrix(1,0,0,1,251.5290069580078,294.2300109863281)"><path fill="url(#__lottie_element_14)" fill-opacity="1" d=" M34.391998291015625,-14.13599967956543 C34.391998291015625,-14.13599967956543 -33.64099884033203,-14.13599967956543 -33.64099884033203,-14.13599967956543 C-46.237998962402344,-14.13599967956543 -59.66999816894531,-2.11299991607666 -59.66999816894531,11.678000450134277 C-59.66999816894531,13.005000114440918 -58.683998107910156,14.13599967956543 -57.28200149536133,14.13599967956543 C-57.28200149536133,14.13599967956543 57.28200149536133,14.13599967956543 57.28200149536133,14.13599967956543 C58.683998107910156,14.13599967956543 59.66999816894531,13.005000114440918 59.66999816894531,11.678000450134277 C59.66999816894531,-0.5889999866485596 46.98899841308594,-14.13599967956543 34.391998291015625,-14.13599967956543z"></path></g><g opacity="1" transform="matrix(1,0,0,1,251.5290069580078,307.718994140625)"><path fill="rgb(136,24,4)" fill-opacity="1" d=" M-28.01300048828125,-3.5339999198913574 C-28.01300048828125,-2.059999942779541 -27.408000946044922,-0.6520000100135803 -26.274999618530273,0.6460000276565552 C-22.336999893188477,5.255000114440918 -12.062999725341797,8.534000396728516 -0.006000000052154064,8.534000396728516 C12.062000274658203,8.534000396728516 22.336999893188477,5.255000114440918 26.274999618530273,0.6460000276565552 C27.408000946044922,-0.6520000100135803 28.01300048828125,-2.059999942779541 28.01300048828125,-3.5339999198913574 C28.01300048828125,-10.201000213623047 -28.01300048828125,-10.201000213623047 -28.01300048828125,-3.5339999198913574z"></path></g><g opacity="1" transform="matrix(1,0,0,1,251.5290069580078,307.718994140625)"><path fill="url(#__lottie_element_15)" fill-opacity="1" d=" M-28.01300048828125,-3.5339999198913574 C-28.01300048828125,-2.059999942779541 -27.408000946044922,-0.6520000100135803 -26.274999618530273,0.6460000276565552 C-22.336999893188477,5.255000114440918 -12.062999725341797,8.534000396728516 -0.006000000052154064,8.534000396728516 C12.062000274658203,8.534000396728516 22.336999893188477,5.255000114440918 26.274999618530273,0.6460000276565552 C27.408000946044922,-0.6520000100135803 28.01300048828125,-2.059999942779541 28.01300048828125,-3.5339999198913574 C28.01300048828125,-10.201000213623047 -28.01300048828125,-10.201000213623047 -28.01300048828125,-3.5339999198913574z"></path></g><g opacity="1" transform="matrix(1,0,0,1,251.5290069580078,293.6409912109375)"><path fill="rgb(255,206,1)" fill-opacity="1" d=" M30.30699920654297,-10.545000076293945 C30.30699920654297,-10.545000076293945 -30.30699920654297,-10.545000076293945 -30.30699920654297,-10.545000076293945 C-42.185001373291016,-10.545000076293945 -54.1609992980957,-2.2929999828338623 -55.3849983215332,8.29800033569336 C-55.52399826049805,9.503000259399414 -54.45600128173828,10.545000076293945 -53.13399887084961,10.545000076293945 C-53.13399887084961,10.545000076293945 53.132999420166016,10.545000076293945 53.132999420166016,10.545000076293945 C54.45500183105469,10.545000076293945 55.52399826049805,9.503000259399414 55.3849983215332,8.29800033569336 C54.1609992980957,-2.2929999828338623 42.185001373291016,-10.545000076293945 30.30699920654297,-10.545000076293945z"></path></g><g opacity="1" transform="matrix(1,0,0,1,251.5290069580078,293.6409912109375)"><path fill="url(#__lottie_element_16)" fill-opacity="1" d=" M30.30699920654297,-10.545000076293945 C30.30699920654297,-10.545000076293945 -30.30699920654297,-10.545000076293945 -30.30699920654297,-10.545000076293945 C-42.185001373291016,-10.545000076293945 -54.1609992980957,-2.2929999828338623 -55.3849983215332,8.29800033569336 C-55.52399826049805,9.503000259399414 -54.45600128173828,10.545000076293945 -53.13399887084961,10.545000076293945 C-53.13399887084961,10.545000076293945 53.132999420166016,10.545000076293945 53.132999420166016,10.545000076293945 C54.45500183105469,10.545000076293945 55.52399826049805,9.503000259399414 55.3849983215332,8.29800033569336 C54.1609992980957,-2.2929999828338623 42.185001373291016,-10.545000076293945 30.30699920654297,-10.545000076293945z"></path></g><g opacity="1" transform="matrix(1,0,0,1,251.5290069580078,298.1340026855469)"><path fill="url(#__lottie_element_17)" fill-opacity="1" d=" M55.382999420166016,3.805999994277954 C55.5260009765625,5.005000114440918 54.45899963378906,6.050000190734863 53.138999938964844,6.050000190734863 C53.138999938964844,6.050000190734863 -53.138999938964844,6.050000190734863 -53.138999938964844,6.050000190734863 C-54.45899963378906,6.050000190734863 -55.5260009765625,5.005000114440918 -55.382999420166016,3.805999994277954 C-54.96500015258789,0.16500000655651093 -53.270999908447266,-3.2009999752044678 -50.75199890136719,-6.050000190734863 C-51.51100158691406,-4.4770002365112305 -53.09700012207031,1.0219999551773071 -50.10200119018555,1.0449999570846558 C-50.10200119018555,1.0449999570846558 50.10300064086914,1.0449999570846558 50.10300064086914,1.0449999570846558 C53.64799880981445,1.0809999704360962 51.52199935913086,-4.4770002365112305 50.75199890136719,-6.050000190734863 C53.28200149536133,-3.2009999752044678 54.96500015258789,0.16500000655651093 55.382999420166016,3.805999994277954z"></path></g></g><g opacity="1" transform="matrix(1,0,0,1,0,0)"><g opacity="1" transform="matrix(1,0,0,1,251.94200134277344,277.8219909667969)"><path fill="url(#__lottie_element_18)" fill-opacity="1" d=" M21.90399932861328,-5.144999980926514 C21.90399932861328,4.556000232696533 13.312000274658203,12.420999526977539 0,12.420999526977539 C-13.312000274658203,12.420999526977539 -21.90399932861328,4.556000232696533 -21.90399932861328,-5.144999980926514 C-21.90399932861328,-14.845999717712402 21.90399932861328,-14.845999717712402 21.90399932861328,-5.144999980926514z"></path></g><g opacity="0.8" transform="matrix(1,0,0,1,251.94200134277344,269.5690002441406)"><path fill="rgb(255,168,0)" fill-opacity="1" d=" M22.363000869750977,-0.19200000166893005 C22.363000869750977,8.807999610900879 12.350000381469727,16.104999542236328 0,16.104999542236328 C-12.35099983215332,16.104999542236328 -22.363000869750977,8.807999610900879 -22.363000869750977,-0.19200000166893005 C-22.363000869750977,-9.192999839782715 -12.35099983215332,-16.104999542236328 0,-16.104999542236328 C12.350000381469727,-16.104999542236328 22.363000869750977,-9.192999839782715 22.363000869750977,-0.19200000166893005z"></path></g><g opacity="1" transform="matrix(1,0,0,1,251.94200134277344,269.5690002441406)"><path fill="url(#__lottie_element_19)" fill-opacity="1" d=" M22.363000869750977,-0.19200000166893005 C22.363000869750977,8.807999610900879 12.350000381469727,16.104999542236328 0,16.104999542236328 C-12.35099983215332,16.104999542236328 -22.363000869750977,8.807999610900879 -22.363000869750977,-0.19200000166893005 C-22.363000869750977,-9.192999839782715 -12.35099983215332,-16.104999542236328 0,-16.104999542236328 C12.350000381469727,-16.104999542236328 22.363000869750977,-9.192999839782715 22.363000869750977,-0.19200000166893005z"></path></g><g opacity="1" transform="matrix(1,0,0,1,251.94200134277344,265.6700134277344)"><path fill="rgb(255,216,0)" fill-opacity="1" d=" M20.351999282836914,-0.6000000238418579 C20.351999282836914,6.099999904632568 10.684000015258789,12.538999557495117 0,12.538999557495117 C-10.684000015258789,12.538999557495117 -20.351999282836914,6.099999904632568 -20.351999282836914,-0.6000000238418579 C-20.351999282836914,-7.300000190734863 -10.684000015258789,-12.538999557495117 0,-12.538999557495117 C10.684000015258789,-12.538999557495117 20.351999282836914,-7.300000190734863 20.351999282836914,-0.6000000238418579z"></path></g><g opacity="1" transform="matrix(1,0,0,1,251.94200134277344,265.6700134277344)"><path fill="url(#__lottie_element_20)" fill-opacity="1" d=" M20.351999282836914,-0.6000000238418579 C20.351999282836914,6.099999904632568 10.684000015258789,12.538999557495117 0,12.538999557495117 C-10.684000015258789,12.538999557495117 -20.351999282836914,6.099999904632568 -20.351999282836914,-0.6000000238418579 C-20.351999282836914,-7.300000190734863 -10.684000015258789,-12.538999557495117 0,-12.538999557495117 C10.684000015258789,-12.538999557495117 20.351999282836914,-7.300000190734863 20.351999282836914,-0.6000000238418579z"></path></g><g opacity="0.7000000000000001" transform="matrix(1,0,0,1,251.94200134277344,261.7430114746094)"><path fill="url(#__lottie_element_21)" fill-opacity="1" d=" M9.079999923706055,-0.9980000257492065 C9.079999923706055,3.5490000247955322 5.014999866485596,7.826000213623047 0,7.826000213623047 C-5.014999866485596,7.826000213623047 -9.079999923706055,3.5490000247955322 -9.079999923706055,-0.9980000257492065 C-9.079999923706055,-5.545000076293945 -5.014999866485596,-7.826000213623047 0,-7.826000213623047 C5.014999866485596,-7.826000213623047 9.079999923706055,-5.545000076293945 9.079999923706055,-0.9980000257492065z"></path></g></g><g opacity="1" transform="matrix(1,0,0,1,0,0)"><g opacity="1" transform="matrix(1,0,0,1,251.01300048828125,147.1999969482422)"><path fill="rgb(255,206,1)" fill-opacity="1" d=" M-80.20600128173828,-18.17099952697754 C-80.08999633789062,-19.16900062561035 -78.94999694824219,-19.70199966430664 -78.10800170898438,-19.135000228881836 C-71.03800201416016,-14.371999740600586 -43.64099884033203,1.7740000486373901 5.363999843597412,3.755000114440918 C53.242000579833984,5.690999984741211 80.66999816894531,-0.16500000655651093 87.1989974975586,-1.7799999713897705 C87.99500274658203,-1.9769999980926514 88.7750015258789,-1.4390000104904175 88.85800170898438,-0.6349999904632568 C89.38800048828125,4.515999794006348 91.90299987792969,21.79599952697754 102.78700256347656,39.819000244140625 C103.76899719238281,41.44599914550781 104.26899719238281,43.3129997253418 104.26899719238281,45.20500183105469 C104.26899719238281,45.20500183105469 104.26899719238281,89.11900329589844 104.26899719238281,89.11900329589844 C104.26899719238281,90.61900329589844 105.7750015258789,91.73600006103516 107.20700073242188,91.22100067138672 C110.06099700927734,90.19400024414062 114.26699829101562,86.29000091552734 116.39900207519531,72.77200317382812 C119.80999755859375,51.14400100708008 127.39199829101562,15.718999862670898 120.56900024414062,-15.604999542236328 C113.74600219726562,-46.92900085449219 90.0270004272461,-81.31300354003906 38.4739990234375,-89.6719970703125 C-17.65999984741211,-98.77400207519531 -75.7770004272461,-87.70800018310547 -97.39600372314453,-51.590999603271484 C-101.63899993896484,-49.167999267578125 -146.36500549316406,-16.22800064086914 -107.68599700927734,90.87699890136719 C-107.01399993896484,92.73799896240234 -103.27899932861328,93.5199966430664 -103.27899932861328,91.54499816894531 C-103.27899932861328,91.54499816894531 -103.83999633789062,45.62200164794922 -103.83999633789062,45.62200164794922 C-103.83999633789062,43.27000045776367 -103.04299926757812,40.9900016784668 -101.5989990234375,39.1150016784668 C-96.43599700927734,32.409000396728516 -83.86799621582031,13.255999565124512 -80.20600128173828,-18.17099952697754z"></path></g><g opacity="1" transform="matrix(1,0,0,1,251.01300048828125,147.1999969482422)"><path fill="url(#__lottie_element_22)" fill-opacity="1" d=" M-80.20600128173828,-18.17099952697754 C-80.08999633789062,-19.16900062561035 -78.94999694824219,-19.70199966430664 -78.10800170898438,-19.135000228881836 C-71.03800201416016,-14.371999740600586 -43.64099884033203,1.7740000486373901 5.363999843597412,3.755000114440918 C53.242000579833984,5.690999984741211 80.66999816894531,-0.16500000655651093 87.1989974975586,-1.7799999713897705 C87.99500274658203,-1.9769999980926514 88.7750015258789,-1.4390000104904175 88.85800170898438,-0.6349999904632568 C89.38800048828125,4.515999794006348 91.90299987792969,21.79599952697754 102.78700256347656,39.819000244140625 C103.76899719238281,41.44599914550781 104.26899719238281,43.3129997253418 104.26899719238281,45.20500183105469 C104.26899719238281,45.20500183105469 104.26899719238281,89.11900329589844 104.26899719238281,89.11900329589844 C104.26899719238281,90.61900329589844 105.7750015258789,91.73600006103516 107.20700073242188,91.22100067138672 C110.06099700927734,90.19400024414062 114.26699829101562,86.29000091552734 116.39900207519531,72.77200317382812 C119.80999755859375,51.14400100708008 127.39199829101562,15.718999862670898 120.56900024414062,-15.604999542236328 C113.74600219726562,-46.92900085449219 90.0270004272461,-81.31300354003906 38.4739990234375,-89.6719970703125 C-17.65999984741211,-98.77400207519531 -75.7770004272461,-87.70800018310547 -97.39600372314453,-51.590999603271484 C-101.63899993896484,-49.167999267578125 -146.36500549316406,-16.22800064086914 -107.68599700927734,90.87699890136719 C-107.01399993896484,92.73799896240234 -103.27899932861328,93.5199966430664 -103.27899932861328,91.54499816894531 C-103.27899932861328,91.54499816894531 -103.83999633789062,45.62200164794922 -103.83999633789062,45.62200164794922 C-103.83999633789062,43.27000045776367 -103.04299926757812,40.9900016784668 -101.5989990234375,39.1150016784668 C-96.43599700927734,32.409000396728516 -83.86799621582031,13.255999565124512 -80.20600128173828,-18.17099952697754z"></path></g><g opacity="1" transform="matrix(1,0,0,1,251.49200439453125,147.79600524902344)"><path fill="url(#__lottie_element_23)" fill-opacity="1" d=" M114.93900299072266,77.197998046875 C112.66100311279297,86.7040023803711 106.27799987792969,94.19100189208984 106.27799987792969,92.69000244140625 C106.27799987792969,92.69000244140625 102.9489974975586,42.45399856567383 102.9489974975586,42.45399856567383 C89.88400268554688,18.322999954223633 88.91300201416016,6.826000213623047 88.38200378417969,1.6710000038146973 C88.29299926757812,0.8659999966621399 54.891998291015625,9.015999794006348 7.01800012588501,7.079999923706055 C-41.99399948120117,5.090000152587891 -74.46199798583984,-11.097999572753906 -81.53800201416016,-15.862000465393066 C-82.37899780273438,-16.42799949645996 -77.72200012207031,10.060999870300293 -102.08300018310547,41.42399978637695 C-103.52999877929688,43.2869987487793 -105.29900360107422,92.69000244140625 -105.29900360107422,92.69000244140625 C-111.30899810791016,90.95600128173828 -113.50399780273438,81.93900299072266 -115.72599792480469,71.60800170898438 C-108.4280014038086,95.3479995727539 -112.24400329589844,43.6870002746582 -112.24400329589844,43.6870002746582 C-113.0510025024414,43.981998443603516 -114.8740005493164,43.83399963378906 -114.8740005493164,43.83399963378906 C-94.66400146484375,18.9689998626709 -89.28199768066406,-8.595999717712402 -89.72699737548828,-21.48200035095215 C-90.06999969482422,-31.41900062561035 -91.48899841308594,-37.16600036621094 -95.18800354003906,-38.97999954223633 C-107.5009994506836,-45.01900100708008 -121.87300109863281,-2.742000102996826 -121.87300109863281,-2.742000102996826 C-122.79199981689453,-31.905000686645508 -103.05500030517578,-46.91699981689453 -97.052001953125,-50.39699935913086 C-72.93800354003906,-84.3740005493164 -18.136999130249023,-99.37100219726562 37.994998931884766,-90.26799774169922 C89.55000305175781,-81.91500091552734 113.65699768066406,-59.314998626708984 121.90399932861328,-5.145999908447266 C118.33899688720703,-58.178001403808594 72.91300201416016,-84.2300033569336 4.573999881744385,-84.12200164794922 C-49.19499969482422,-84.03700256347656 -71.63600158691406,-67.62999725341797 -80.44400024414062,-57.71099853515625 C-83.0790023803711,-54.74300003051758 -85.96800231933594,-47.38100051879883 -83.21199798583984,-42.18000030517578 C-74.66600036621094,-26.049999237060547 -44.632999420166016,-9.083000183105469 9.10099983215332,-6.005000114440918 C66.677001953125,-2.7070000171661377 109.25,-15.368000030517578 110.14600372314453,-15.640000343322754 C103.88800048828125,-10.050000190734863 98.39700317382812,-2.2200000286102295 98.39700317382812,-2.2200000286102295 C100.25199890136719,24.430999755859375 115.6240005493164,44.54199981689453 115.6240005493164,44.54199981689453 C113.58300018310547,45.040000915527344 111.87799835205078,44.611000061035156 111.87799835205078,44.611000061035156 C111.03900146484375,85.83399963378906 114.93900299072266,77.197998046875 114.93900299072266,77.197998046875z"></path></g><g opacity="0.9" transform="matrix(1,0,0,1,146.781005859375,132.2480010986328)"><path fill="url(#__lottie_element_24)" fill-opacity="1" d=" M14.741000175476074,0.9959999918937683 C16.472999572753906,-18.525999069213867 10.154000282287598,-25.695999145507812 8.63700008392334,-25.683000564575195 C6.249000072479248,-25.66200065612793 1.0099999904632568,-21.882999420166016 -2.25,-17.645999908447266 C-13.359999656677246,-3.2079999446868896 -15.319000244140625,9.133999824523926 -15.008999824523926,23.860000610351562 C-14.888999938964844,29.58799934387207 -11.439000129699707,21.106000900268555 -4.183000087738037,8.34000015258789 C2.940999984741211,-4.193999767303467 14.303999900817871,5.927000045776367 14.741000175476074,0.9959999918937683z"></path></g><g opacity="0.9" transform="matrix(1,0,0,1,256.4989929199219,101.58499908447266)"><path fill="url(#__lottie_element_25)" fill-opacity="1" d=" M-3.2170000076293945,37.86899948120117 C-45.75299835205078,37.87099838256836 -74.12300109863281,23.618000030517578 -85.1510009765625,8.138999938964844 C-87.25,5.192999839782715 -91.80899810791016,-0.9980000257492065 -90.3239974975586,-4.5370001792907715 C-83.88999938964844,-19.875 -49.308998107910156,-37.23099899291992 -2.078000068664551,-37.84400177001953 C31.024999618530273,-38.2760009765625 60.685001373291016,-33.13600158691406 81.50199890136719,-13.618000030517578 C107.92400360107422,9.98900032043457 76.06199645996094,37.86600112915039 -3.2170000076293945,37.86899948120117z"></path></g><g opacity="1" transform="matrix(1,0,0,1,251.43800354003906,148.60699462890625)"><path stroke-linecap="round" stroke-linejoin="round" fill-opacity="0" stroke="rgb(197,92,0)" stroke-opacity="1" stroke-width="8" d=" M-80.89800262451172,-18.75 C-40.09000015258789,6.002999782562256 27.902999877929688,10.003000259399414 89.40799713134766,-0.8320000171661377 C89.40799713134766,-0.8320000171661377 89.05799865722656,18.4950008392334 103.00299835205078,41.641998291015625 C102.98899841308594,48.06800079345703 103.98600006103516,88.7979965209961 103.98600006103516,88.7979965209961 C103.98600006103516,92.5270004272461 104.88300323486328,94.37000274658203 110.82099914550781,87.90299987792969 C119.04000091552734,78.9520034790039 126.7770004272461,22.94700050354004 121.95800018310547,-11.470999717712402 C116.7699966430664,-48.51900100708008 92.58399963378906,-94.12100219726562 2.986999988555908,-94.125 C-72.4020004272461,-94.12799835205078 -95.76799774169922,-58.189998626708984 -97.82099914550781,-52.99800109863281 C-123.70899963378906,-41.63399887084961 -132.1929931640625,18.559999465942383 -112.94599914550781,83.23100280761719 C-108.72100067138672,96.56099700927734 -103.56500244140625,98.09300231933594 -103.447998046875,85.40799713134766 C-103.33100128173828,72.7229995727539 -102.86499786376953,41.249000549316406 -102.86499786376953,41.249000549316406 C-102.86499786376953,41.249000549316406 -83.0510025024414,15.77400016784668 -80.89800262451172,-18.75z"></path></g><g opacity="1" transform="matrix(1,0,0,1,251.5070037841797,160.0540008544922)"><path stroke-linecap="round" stroke-linejoin="round" fill-opacity="0" stroke="rgb(163,65,0)" stroke-opacity="1" stroke-width="8" d=" M-102.93399810791016,29.80299949645996 C-102.93399810791016,29.80299949645996 -83.12000274658203,4.328000068664551 -80.96700286865234,-30.195999145507812 C-40.159000396728516,-5.442999839782715 27.833999633789062,-1.4429999589920044 89.33899688720703,-12.277999877929688 C89.33899688720703,-12.277999877929688 88.98899841308594,7.048999786376953 102.93399810791016,30.195999145507812"></path></g></g></g><g opacity="1" transform="matrix(1,0,0,1,195.95399475097656,213.36399841308594)"><path fill="url(#__lottie_element_26)" fill-opacity="1" d=" M4.2820000648498535,0 C4.2820000648498535,2.50600004196167 2.365000009536743,4.5370001792907715 0,4.5370001792907715 C-2.365000009536743,4.5370001792907715 -4.2820000648498535,2.50600004196167 -4.2820000648498535,0 C-4.2820000648498535,-2.50600004196167 -2.365000009536743,-4.5370001792907715 0,-4.5370001792907715 C2.365000009536743,-4.5370001792907715 4.2820000648498535,-2.50600004196167 4.2820000648498535,0z"></path></g><g opacity="1" transform="matrix(1,0,0,1,297.87799072265625,213.36399841308594)"><path fill="url(#__lottie_element_27)" fill-opacity="1" d=" M4.2820000648498535,0 C4.2820000648498535,2.50600004196167 2.365000009536743,4.5370001792907715 0,4.5370001792907715 C-2.365000009536743,4.5370001792907715 -4.2820000648498535,2.50600004196167 -4.2820000648498535,0 C-4.2820000648498535,-2.50600004196167 -2.365000009536743,-4.5370001792907715 0,-4.5370001792907715 C2.365000009536743,-4.5370001792907715 4.2820000648498535,-2.50600004196167 4.2820000648498535,0z"></path></g></g></g></svg>