<svg xmlns="http://www.w3.org/2000/svg" xmlns:xlink="http://www.w3.org/1999/xlink" viewBox="0 0 512 512" width="512" height="512" style="width: 100%; height: 100%; transform: translate3d(0,0,0); content-visibility: visible;" preserveAspectRatio="xMidYMid meet"><defs><clipPath id="__lottie_element_2"><rect width="512" height="512" x="0" y="0"></rect></clipPath><linearGradient id="__lottie_element_6" spreadMethod="pad" gradientUnits="userSpaceOnUse" x1="1.9900000095367432" y1="-102.85199737548828" x2="-0.6909999847412109" y2="3.999000072479248"><stop offset="0%" stop-color="rgb(219,110,0)" stop-opacity="1"></stop><stop offset="39%" stop-color="rgb(219,110,0)" stop-opacity="0.5"></stop><stop offset="71%" stop-color="rgb(219,110,0)" stop-opacity="0"></stop></linearGradient><linearGradient id="__lottie_element_7" spreadMethod="pad" gradientUnits="userSpaceOnUse" x1="0.3619999885559082" y1="-94.44999694824219" x2="-0.40400001406669617" y2="91.6780014038086"><stop offset="2%" stop-color="rgb(255,216,0)" stop-opacity="0"></stop><stop offset="16%" stop-color="rgb(255,216,0)" stop-opacity="0.5"></stop><stop offset="45%" stop-color="rgb(255,216,0)" stop-opacity="1"></stop><stop offset="90%" stop-color="rgb(255,216,0)" stop-opacity="0.5"></stop><stop offset="100%" stop-color="rgb(255,216,0)" stop-opacity="0"></stop></linearGradient><linearGradient id="__lottie_element_8" spreadMethod="pad" gradientUnits="userSpaceOnUse" x1="-0.8679999709129333" y1="-2.7200000286102295" x2="-0.9160000085830688" y2="17.577999114990234"><stop offset="0%" stop-color="rgb(255,168,0)" stop-opacity="1"></stop><stop offset="66%" stop-color="rgb(255,168,0)" stop-opacity="0.5"></stop><stop offset="100%" stop-color="rgb(255,168,0)" stop-opacity="0"></stop></linearGradient><linearGradient id="__lottie_element_9" spreadMethod="pad" gradientUnits="userSpaceOnUse" x1="-7.3979997634887695" y1="-9.86400032043457" x2="9.45300006866455" y2="12.604000091552734"><stop offset="0%" stop-color="rgb(60,5,0)"></stop><stop offset="38%" stop-color="rgb(110,45,0)"></stop><stop offset="100%" stop-color="rgb(160,84,0)"></stop></linearGradient><radialGradient id="__lottie_element_10" spreadMethod="pad" gradientUnits="userSpaceOnUse" cx="-0.1979999989271164" cy="-0.1899999976158142" r="9.630000159144402" fx="-0.1979999989271164" fy="-0.1899999976158142"><stop offset="0%" stop-color="rgb(246,175,0)" stop-opacity="1"></stop><stop offset="52%" stop-color="rgb(246,175,0)" stop-opacity="0.5"></stop><stop offset="100%" stop-color="rgb(246,175,0)" stop-opacity="0"></stop></radialGradient><linearGradient id="__lottie_element_11" spreadMethod="pad" gradientUnits="userSpaceOnUse" x1="-0.1080000028014183" y1="-5.544000148773193" x2="-0.04399999976158142" y2="4.4770002365112305"><stop offset="0%" stop-color="rgb(255,255,255)" stop-opacity="1"></stop><stop offset="58%" stop-color="rgb(255,255,255)" stop-opacity="0.5"></stop><stop offset="100%" stop-color="rgb(255,255,255)" stop-opacity="0"></stop></linearGradient><linearGradient id="__lottie_element_12" spreadMethod="pad" gradientUnits="userSpaceOnUse" x1="-4.626999855041504" y1="-6.863999843597412" x2="9.15999984741211" y2="13.145999908447266"><stop offset="0%" stop-color="rgb(60,5,0)"></stop><stop offset="38%" stop-color="rgb(110,45,0)"></stop><stop offset="100%" stop-color="rgb(160,84,0)"></stop></linearGradient><radialGradient id="__lottie_element_13" spreadMethod="pad" gradientUnits="userSpaceOnUse" cx="-0.39500001072883606" cy="-0.16899999976158142" r="9.629000216722488" fx="-0.39500001072883606" fy="-0.16899999976158142"><stop offset="0%" stop-color="rgb(246,175,0)" stop-opacity="1"></stop><stop offset="52%" stop-color="rgb(246,175,0)" stop-opacity="0.5"></stop><stop offset="100%" stop-color="rgb(246,175,0)" stop-opacity="0"></stop></radialGradient><linearGradient id="__lottie_element_14" spreadMethod="pad" gradientUnits="userSpaceOnUse" x1="-0.3370000123977661" y1="-6.544000148773193" x2="0.14100000262260437" y2="3.4130001068115234"><stop offset="0%" stop-color="rgb(255,255,255)" stop-opacity="1"></stop><stop offset="58%" stop-color="rgb(255,255,255)" stop-opacity="0.5"></stop><stop offset="100%" stop-color="rgb(255,255,255)" stop-opacity="0"></stop></linearGradient><linearGradient id="__lottie_element_15" spreadMethod="pad" gradientUnits="userSpaceOnUse" x1="0.13199999928474426" y1="11.404000282287598" x2="-0.44200000166893005" y2="-6.020999908447266"><stop offset="11%" stop-color="rgb(219,110,0)" stop-opacity="1"></stop><stop offset="50%" stop-color="rgb(219,110,0)" stop-opacity="0.5"></stop><stop offset="78%" stop-color="rgb(219,110,0)" stop-opacity="0"></stop></linearGradient><radialGradient id="__lottie_element_16" spreadMethod="pad" gradientUnits="userSpaceOnUse" cx="-0.8679999709129333" cy="-6.182000160217285" r="16.661000192165375" fx="-0.8679999709129333" fy="-6.182000160217285"><stop offset="40%" stop-color="rgb(255,168,0)" stop-opacity="0"></stop><stop offset="71%" stop-color="rgb(255,168,0)" stop-opacity="0.5"></stop><stop offset="100%" stop-color="rgb(255,168,0)" stop-opacity="1"></stop></radialGradient><linearGradient id="__lottie_element_17" spreadMethod="pad" gradientUnits="userSpaceOnUse" x1="-0.8679999709129333" y1="-5.940000057220459" x2="-0.5809999704360962" y2="3.490999937057495"><stop offset="0%" stop-color="rgb(255,255,255)" stop-opacity="1"></stop><stop offset="50%" stop-color="rgb(255,255,255)" stop-opacity="0.5"></stop><stop offset="100%" stop-color="rgb(255,255,255)" stop-opacity="0"></stop></linearGradient><radialGradient id="__lottie_element_18" spreadMethod="pad" gradientUnits="userSpaceOnUse" cx="-0.5099999904632568" cy="-0.8989999890327454" r="32.099000692367554" fx="-0.5099999904632568" fy="-0.8989999890327454"><stop offset="8%" stop-color="rgb(117,55,14)" stop-opacity="1"></stop><stop offset="57%" stop-color="rgb(117,55,14)" stop-opacity="0.5"></stop><stop offset="100%" stop-color="rgb(117,55,14)" stop-opacity="0"></stop></radialGradient><linearGradient id="__lottie_element_19" spreadMethod="pad" gradientUnits="userSpaceOnUse" x1="9.553999900817871" y1="-80.3030014038086" x2="3.4260001182556152" y2="33.569000244140625"><stop offset="14%" stop-color="rgb(255,169,0)" stop-opacity="0"></stop><stop offset="41%" stop-color="rgb(255,169,0)" stop-opacity="0.5"></stop><stop offset="67%" stop-color="rgb(255,169,0)" stop-opacity="1"></stop></linearGradient><linearGradient id="__lottie_element_20" spreadMethod="pad" gradientUnits="userSpaceOnUse" x1="0.2280000001192093" y1="87.36199951171875" x2="-8.45300006866455" y2="-89.06400299072266"><stop offset="8%" stop-color="rgb(218,110,0)" stop-opacity="0.30000001192092896"></stop><stop offset="28%" stop-color="rgb(218,110,0)" stop-opacity="0.6499999761581421"></stop><stop offset="69%" stop-color="rgb(218,110,0)" stop-opacity="1"></stop><stop offset="80%" stop-color="rgb(218,110,0)" stop-opacity="0.5"></stop><stop offset="100%" stop-color="rgb(218,110,0)" stop-opacity="0"></stop></linearGradient><linearGradient id="__lottie_element_21" spreadMethod="pad" gradientUnits="userSpaceOnUse" x1="-6.511000156402588" y1="-17.524999618530273" x2="8.041999816894531" y2="16.687999725341797"><stop offset="0%" stop-color="rgb(255,255,255)" stop-opacity="1"></stop><stop offset="50%" stop-color="rgb(255,255,255)" stop-opacity="0.5"></stop><stop offset="100%" stop-color="rgb(255,255,255)" stop-opacity="0"></stop></linearGradient><linearGradient id="__lottie_element_22" spreadMethod="pad" gradientUnits="userSpaceOnUse" x1="6.1479997634887695" y1="-33.49100112915039" x2="-8.916000366210938" y2="34.933998107910156"><stop offset="0%" stop-color="rgb(255,255,255)" stop-opacity="1"></stop><stop offset="50%" stop-color="rgb(255,255,255)" stop-opacity="0.5"></stop><stop offset="100%" stop-color="rgb(255,255,255)" stop-opacity="0"></stop></linearGradient><linearGradient id="__lottie_element_26" spreadMethod="pad" gradientUnits="userSpaceOnUse" x1="-17.684999465942383" y1="-1.0679999589920044" x2="15.25100040435791" y2="7.230000019073486"><stop offset="0%" stop-color="rgb(86,62,68)" stop-opacity="1"></stop><stop offset="33%" stop-color="rgb(86,62,68)" stop-opacity="0.5"></stop><stop offset="66%" stop-color="rgb(86,62,68)" stop-opacity="0"></stop></linearGradient><linearGradient id="__lottie_element_27" spreadMethod="pad" gradientUnits="userSpaceOnUse" x1="3.01200008392334" y1="-13.097000122070312" x2="-4.392000198364258" y2="11.98799991607666"><stop offset="17%" stop-color="rgb(54,44,43)" stop-opacity="1"></stop><stop offset="32%" stop-color="rgb(54,44,43)" stop-opacity="0.5"></stop><stop offset="48%" stop-color="rgb(54,44,43)" stop-opacity="0"></stop></linearGradient><linearGradient id="__lottie_element_28" spreadMethod="pad" gradientUnits="userSpaceOnUse" x1="-32.082000732421875" y1="15.128999710083008" x2="10.237000465393066" y2="-19.211000442504883"><stop offset="0%" stop-color="rgb(141,137,144)" stop-opacity="0.699999988079071"></stop><stop offset="25%" stop-color="rgb(141,137,144)" stop-opacity="0.3499999940395355"></stop><stop offset="49%" stop-color="rgb(141,137,144)" stop-opacity="0"></stop></linearGradient><linearGradient id="__lottie_element_29" spreadMethod="pad" gradientUnits="userSpaceOnUse" x1="18.56800079345703" y1="-40.74700164794922" x2="-15.420999526977539" y2="40.15700149536133"><stop offset="21%" stop-color="rgb(204,227,235)" stop-opacity="1"></stop><stop offset="50%" stop-color="rgb(204,227,235)" stop-opacity="0.5"></stop><stop offset="78%" stop-color="rgb(204,227,235)" stop-opacity="0"></stop></linearGradient><linearGradient id="__lottie_element_33" spreadMethod="pad" gradientUnits="userSpaceOnUse" x1="-0.871999979019165" y1="-36.060001373291016" x2="-2.6589999198913574" y2="31.216999053955078"><stop offset="0%" stop-color="rgb(252,252,252)"></stop><stop offset="50%" stop-color="rgb(215,218,218)"></stop><stop offset="100%" stop-color="rgb(178,183,183)"></stop></linearGradient><linearGradient id="__lottie_element_34" spreadMethod="pad" gradientUnits="userSpaceOnUse" x1="17.829999923706055" y1="58.02399826049805" x2="-37.957000732421875" y2="-36.82699966430664"><stop offset="61%" stop-color="rgb(82,161,238)"></stop><stop offset="80%" stop-color="rgb(44,139,223)"></stop><stop offset="100%" stop-color="rgb(5,118,208)"></stop></linearGradient><linearGradient id="__lottie_element_35" spreadMethod="pad" gradientUnits="userSpaceOnUse" x1="-39.71799850463867" y1="46.053001403808594" x2="39.04800033569336" y2="-33.479000091552734"><stop offset="61%" stop-color="rgb(82,161,238)"></stop><stop offset="80%" stop-color="rgb(44,139,223)"></stop><stop offset="100%" stop-color="rgb(5,118,208)"></stop></linearGradient><linearGradient id="__lottie_element_39" spreadMethod="pad" gradientUnits="userSpaceOnUse" x1="-49.05799865722656" y1="-0.49900001287460327" x2="47.63600158691406" y2="-0.49900001287460327"><stop offset="61%" stop-color="rgb(82,161,238)"></stop><stop offset="80%" stop-color="rgb(44,139,223)"></stop><stop offset="100%" stop-color="rgb(5,118,208)"></stop></linearGradient><linearGradient id="__lottie_element_40" spreadMethod="pad" gradientUnits="userSpaceOnUse" x1="-0.5099999904632568" y1="12.614999771118164" x2="-0.5099999904632568" y2="-14.53499984741211"><stop offset="36%" stop-color="rgb(255,163,0)" stop-opacity="1"></stop><stop offset="74%" stop-color="rgb(255,163,0)" stop-opacity="0.5"></stop><stop offset="100%" stop-color="rgb(255,163,0)" stop-opacity="0"></stop></linearGradient><radialGradient id="__lottie_element_41" spreadMethod="pad" gradientUnits="userSpaceOnUse" cx="-1.5099999904632568" cy="19.62299919128418" r="49.880998373031616" fx="-1.5099999904632568" fy="19.62299919128418"><stop offset="19%" stop-color="rgb(255,163,0)" stop-opacity="1"></stop><stop offset="66%" stop-color="rgb(255,163,0)" stop-opacity="0.5"></stop><stop offset="99%" stop-color="rgb(255,163,0)" stop-opacity="0"></stop></radialGradient><radialGradient id="__lottie_element_45" spreadMethod="pad" gradientUnits="userSpaceOnUse" cx="-33.055999755859375" cy="37.03099822998047" r="78.73208055086106" fx="-33.055999755859375" fy="37.03099822998047"><stop offset="0%" stop-color="rgb(255,169,0)" stop-opacity="1"></stop><stop offset="50%" stop-color="rgb(255,169,0)" stop-opacity="0.5"></stop><stop offset="100%" stop-color="rgb(255,169,0)" stop-opacity="0"></stop></radialGradient><radialGradient id="__lottie_element_46" spreadMethod="pad" gradientUnits="userSpaceOnUse" cx="37.89400100708008" cy="41.34000015258789" r="92.55388353856662" fx="37.89400100708008" fy="41.34000015258789"><stop offset="0%" stop-color="rgb(255,169,0)" stop-opacity="1"></stop><stop offset="50%" stop-color="rgb(255,169,0)" stop-opacity="0.5"></stop><stop offset="100%" stop-color="rgb(255,169,0)" stop-opacity="0"></stop></radialGradient><linearGradient id="__lottie_element_50" spreadMethod="pad" gradientUnits="userSpaceOnUse" x1="5.493000030517578" y1="-1.3229999542236328" x2="-17.486000061035156" y2="14.95300006866455"><stop offset="0%" stop-color="rgb(0,43,111)" stop-opacity="0"></stop><stop offset="50%" stop-color="rgb(23,45,113)" stop-opacity="0.30000001192092896"></stop><stop offset="100%" stop-color="rgb(47,47,116)" stop-opacity="0.6000000238418579"></stop></linearGradient><linearGradient id="__lottie_element_51" spreadMethod="pad" gradientUnits="userSpaceOnUse" x1="-6.353000164031982" y1="-2.5329999923706055" x2="15.47700023651123" y2="12.659000396728516"><stop offset="0%" stop-color="rgb(0,43,111)" stop-opacity="0"></stop><stop offset="50%" stop-color="rgb(23,45,113)" stop-opacity="0.30000001192092896"></stop><stop offset="100%" stop-color="rgb(47,47,116)" stop-opacity="0.6000000238418579"></stop></linearGradient><linearGradient id="__lottie_element_52" spreadMethod="pad" gradientUnits="userSpaceOnUse" x1="-1.3450000286102295" y1="25.577999114990234" x2="0.6549999713897705" y2="-60.06700134277344"><stop offset="0%" stop-color="rgb(0,43,111)" stop-opacity="0"></stop><stop offset="32%" stop-color="rgb(23,45,113)" stop-opacity="0.5"></stop><stop offset="63%" stop-color="rgb(47,47,116)" stop-opacity="1"></stop></linearGradient></defs><g clip-path="url(#__lottie_element_2)"><g style="display: block;" transform="matrix(1,0,0,1,0,0)" opacity="1"><g opacity="1" transform="matrix(1,0,0,1,0,0)"><g opacity="1" transform="matrix(1,0,0,1,0,0)"><g opacity="1" transform="matrix(1,0,0,1,252.55099487304688,421.9389953613281)"><path fill="rgb(39,101,247)" fill-opacity="1" d=" M45.702999114990234,-47.90999984741211 C45.702999114990234,-47.90999984741211 45.702999114990234,-48.07699966430664 45.702999114990234,-48.07699966430664 C45.702999114990234,-48.07699966430664 -31.957000732421875,-50.08399963378906 -43.676998138427734,-48.077999114990234 C-43.676998138427734,-48.077999114990234 -43.676998138427734,-48.07699966430664 -43.676998138427734,-48.07699966430664 C-90.74800109863281,-45.492000579833984 -143.42599487304688,-24.488000869750977 -147.82899475097656,41.61899948120117 C-147.82899475097656,41.61899948120117 -139.85699462890625,48.96900177001953 -113.25199890136719,48.96900177001953 C-113.25199890136719,48.96900177001953 113.8030014038086,48.96900177001953 113.8030014038086,48.96900177001953 C137.69000244140625,49 147.82899475097656,41.49599838256836 147.82899475097656,41.49599838256836 C144.59100341796875,-29.503000259399414 94.38899993896484,-45.178001403808594 45.702999114990234,-47.90999984741211z"></path></g><g opacity="1" transform="matrix(1,0,0,1,122.50700378417969,451.322998046875)"><path fill="url(#__lottie_element_50)" fill-opacity="1" d=" M-9.67300033569336,-19.6299991607666 C-9.67300033569336,-19.6299991607666 -15.23900032043457,-6.520999908447266 -15.23900032043457,-6.520999908447266 C-15.23900032043457,-6.520999908447266 -18.04800033569336,10.819000244140625 -18.04800033569336,10.819000244140625 C-18.04800033569336,10.819000244140625 -16.534000396728516,15.27400016784668 -4.132999897003174,17.606000900268555 C9.781999588012695,20.222999572753906 18.04800033569336,19.55299949645996 18.04800033569336,19.55299949645996 C18.04800033569336,19.55299949645996 -9.67300033569336,-19.6299991607666 -9.67300033569336,-19.6299991607666z"></path></g><g opacity="1" transform="matrix(1,0,0,1,384.3529968261719,450.5329895019531)"><path fill="url(#__lottie_element_51)" fill-opacity="1" d=" M9.560999870300293,-19.988000869750977 C9.560999870300293,-19.988000869750977 15.128000259399414,-6.879000186920166 15.128000259399414,-6.879000186920166 C15.128000259399414,-6.879000186920166 17.93600082397461,11.461000442504883 17.93600082397461,11.461000442504883 C17.93600082397461,11.461000442504883 13.65999984741211,15.949999809265137 1.2769999504089355,18.375999450683594 C-13.944000244140625,21.35700035095215 -17.93600082397461,19.291000366210938 -17.93600082397461,19.291000366210938 C-17.93600082397461,19.291000366210938 9.560999870300293,-19.988000869750977 9.560999870300293,-19.988000869750977z"></path></g><g opacity="0.5" transform="matrix(1,0,0,1,127.677001953125,439.9670104980469)"><path stroke-linecap="round" stroke-linejoin="miter" fill-opacity="0" stroke-miterlimit="10" stroke="rgb(86,145,219)" stroke-opacity="1" stroke-width="4" d=" M6.079999923706055,28.96299934387207 C3.686000108718872,23.12299919128418 2.5480000972747803,17.659000396728516 0.23899999260902405,8.920000076293945 C-3.9100000858306885,-6.7820000648498535 -5.85699987411499,-19.292999267578125 -6.079999923706055,-28.96299934387207"></path></g><g opacity="0.5" transform="matrix(1,0,0,1,378.125,439.9830017089844)"><path stroke-linecap="round" stroke-linejoin="miter" fill-opacity="0" stroke-miterlimit="10" stroke="rgb(86,145,219)" stroke-opacity="1" stroke-width="4" d=" M-5.900000095367432,28.371999740600586 C0.5410000085830688,16.170000076293945 6.394999980926514,-18.93000030517578 5.866000175476074,-28.371999740600586"></path></g><g opacity="1" transform="matrix(1,0,0,1,253.09500122070312,399.9219970703125)"><g opacity="1" transform="matrix(1,0,0,1,0,0)"><path fill="url(#__lottie_element_52)" fill-opacity="1" d=" M44.220001220703125,-26.059999465942383 C102.34300231933594,-17.1200008392334 130.30999755859375,9.718000411987305 130.30999755859375,9.718000411987305 C130.30999755859375,9.718000411987305 125.66100311279297,26.059999465942383 125.66100311279297,26.059999465942383 C125.66100311279297,26.059999465942383 -124.66100311279297,26.059999465942383 -124.66100311279297,26.059999465942383 C-124.66100311279297,26.059999465942383 -130.30999755859375,8.718000411987305 -130.30999755859375,8.718000411987305 C-130.30999755859375,8.718000411987305 -102.93299865722656,-17.1200008392334 -44.220001220703125,-26.059999465942383 C-44.220001220703125,-26.059999465942383 44.220001220703125,-26.059999465942383 44.220001220703125,-26.059999465942383z"></path></g></g><g opacity="0.6" transform="matrix(1,0,0,1,374.0790100097656,437.5740051269531)"><path stroke-linecap="round" stroke-linejoin="round" fill-opacity="0" stroke="rgb(25,50,128)" stroke-opacity="1" stroke-width="6" d=" M6.123000144958496,-29.513999938964844 C6.123000144958496,-29.513999938964844 5.323999881744385,-4.28000020980835 -6.123000144958496,29.513999938964844"></path></g><g opacity="0.6" transform="matrix(1,0,0,1,132.29200744628906,437.9800109863281)"><path stroke-linecap="round" stroke-linejoin="round" fill-opacity="0" stroke="rgb(25,50,128)" stroke-opacity="1" stroke-width="6" d=" M-6.306000232696533,-29.920000076293945 C-6.306000232696533,-29.920000076293945 -5.140999794006348,-3.874000072479248 6.306000232696533,29.920000076293945"></path></g><g opacity="0.5700000000000001" transform="matrix(1,0,0,1,157.13499450683594,417.15399169921875)"><path fill="rgb(73,144,245)" fill-opacity="1" d=" M48.834999084472656,-34.8390007019043 C48.834999084472656,-34.8390007019043 4.179999828338623,-31.9689998626709 -23.066999435424805,-9.177000045776367 C-37.23400115966797,2.6730000972747803 -48.834999084472656,47.569000244140625 -48.834999084472656,47.569000244140625 C-48.834999084472656,47.569000244140625 -44.3120002746582,-2.7730000019073486 -27.746999740600586,-17.231000900268555 C-6.506999969482422,-35.76900100708008 46.0890007019043,-47.569000244140625 46.0890007019043,-47.569000244140625 C46.0890007019043,-47.569000244140625 48.834999084472656,-34.8390007019043 48.834999084472656,-34.8390007019043z"></path></g><g opacity="0.5700000000000001" transform="matrix(1,0,0,1,351.4360046386719,418.3349914550781)"><path fill="rgb(73,144,245)" fill-opacity="1" d=" M-49.084999084472656,-33.22800064086914 C-49.084999084472656,-33.22800064086914 -4.431000232696533,-30.358999252319336 22.81599998474121,-7.566999912261963 C26.777000427246094,-4.254000186920166 51.1510009765625,53.637001037597656 48.94499969482422,45.099998474121094 C48.94499969482422,45.099998474121094 44.06100082397461,-1.1619999408721924 27.496000289916992,-15.619999885559082 C6.25600004196167,-34.15800094604492 -46.34000015258789,-45.95800018310547 -46.34000015258789,-45.95800018310547 C-46.34000015258789,-45.95800018310547 -49.084999084472656,-33.22800064086914 -49.084999084472656,-33.22800064086914z"></path></g></g><g opacity="0.4" transform="matrix(1,0,0,1,293.9960021972656,424.2139892578125)"><path fill="rgb(5,24,181)" fill-opacity="1" d=" M-18.083999633789062,12.279000282287598 C-7.728000164031982,3.1410000324249268 9.855999946594238,8.034000396728516 17.35700035095215,9.267999649047852 C21.375,9.928999900817871 22.101999282836914,-11.220999717712402 22.101999282836914,-11.220999717712402 C13.416999816894531,-18.98699951171875 -19.46299934387207,-5.198999881744385 -19.46299934387207,-5.198999881744385 C-19.46299934387207,-5.198999881744385 -26.233999252319336,19.47100067138672 -18.083999633789062,12.279000282287598z"></path></g><g opacity="0.4" transform="matrix(1,0,0,1,212.7519989013672,420.9460144042969)"><path fill="rgb(5,24,181)" fill-opacity="1" d=" M18.083999633789062,12.27299976348877 C7.728000164031982,3.134999990463257 -8.409000396728516,12.352999687194824 -15.90999984741211,13.586999893188477 C-19.92799949645996,14.248000144958496 -22.101999282836914,-11.22700023651123 -22.101999282836914,-11.22700023651123 C-13.416999816894531,-18.993000030517578 19.46299934387207,-5.205999851226807 19.46299934387207,-5.205999851226807 C19.46299934387207,-5.205999851226807 26.233999252319336,19.46500015258789 18.083999633789062,12.27299976348877z"></path></g><g opacity="1" transform="matrix(1,0,0,1,0,0)"><g opacity="1" transform="matrix(1,0,0,1,105.58200073242188,460.4800109863281)"><path fill="rgb(22,45,141)" fill-opacity="1" d=" M4.13100004196167,-5.242000102996826 C4.13100004196167,-5.242000102996826 3.1480000019073486,1.9509999752044678 2.7190001010894775,5.242000102996826 C2.7190001010894775,5.242000102996826 -4.627999782562256,2.312000036239624 -4.104000091552734,-1.9600000381469727 C-4.104000091552734,-1.9600000381469727 4.13100004196167,-5.242000102996826 4.13100004196167,-5.242000102996826z"></path></g><g opacity="1" transform="matrix(1,0,0,1,157.07400512695312,415.1260070800781)"><path stroke-linecap="round" stroke-linejoin="round" fill-opacity="0" stroke="rgb(16,44,128)" stroke-opacity="1" stroke-width="8" d=" M-51.80099868774414,42.263999938964844 C-50.82699966430664,34.61000061035156 -47.32099914550781,7.809000015258789 -34.28900146484375,-8.486000061035156 C-22.062999725341797,-23.759000778198242 11.980999946594238,-41.79199981689453 51.80099868774414,-42.263999938964844"></path></g><g opacity="1" transform="matrix(1,0,0,1,400.4530029296875,458.2539978027344)"><path fill="rgb(22,45,141)" fill-opacity="1" d=" M-4.310999870300293,-6.454999923706055 C-4.310999870300293,-6.454999923706055 -2.628000020980835,3.1640000343322754 -2.1989998817443848,6.454999923706055 C-2.1989998817443848,6.454999923706055 4.807000160217285,3.005000114440918 4.2829999923706055,-1.2669999599456787 C4.2829999923706055,-1.2669999599456787 -4.310999870300293,-6.454999923706055 -4.310999870300293,-6.454999923706055z"></path></g><g opacity="1" transform="matrix(1,0,0,1,349.15301513671875,415.59600830078125)"><path stroke-linecap="round" stroke-linejoin="round" fill-opacity="0" stroke="rgb(16,44,128)" stroke-opacity="1" stroke-width="8" d=" M51.8390007019043,41.73400115966797 C51.09700012207031,35.426998138427734 47.8489990234375,11.048999786376953 34.25,-5.954999923706055 C22.02400016784668,-21.22800064086914 -6.991000175476074,-37.6879997253418 -51.8390007019043,-41.73400115966797"></path></g></g></g><g opacity="1" transform="matrix(1,0,0,1,0,0)"><g opacity="1" transform="matrix(1,0,0,1,185.38900756835938,459.94500732421875)"><path fill="rgb(86,145,219)" fill-opacity="1" d=" M-28.315000534057617,11.008999824523926 C-28.315000534057617,11.008999824523926 -28.315000534057617,-11.008999824523926 -28.315000534057617,-11.008999824523926 C-28.315000534057617,-11.008999824523926 28.315000534057617,-11.008999824523926 28.315000534057617,-11.008999824523926 C28.315000534057617,-11.008999824523926 28.315000534057617,11.008999824523926 28.315000534057617,11.008999824523926 C28.315000534057617,11.008999824523926 -28.315000534057617,11.008999824523926 -28.315000534057617,11.008999824523926z"></path></g><g opacity="1" transform="matrix(1,0,0,1,185.07400512695312,459.94500732421875)"><path stroke-linecap="butt" stroke-linejoin="round" fill-opacity="0" stroke="rgb(16,44,128)" stroke-opacity="1" stroke-width="8" d=" M-28,11.008999824523926 C-28,11.008999824523926 -28,-11.008999824523926 -28,-11.008999824523926 C-28,-11.008999824523926 28,-11.008999824523926 28,-11.008999824523926 C28,-11.008999824523926 28,11.008999824523926 28,11.008999824523926"></path></g><g opacity="1" transform="matrix(1,0,0,1,183.57400512695312,454.489990234375)"><path fill="rgb(82,153,235)" fill-opacity="1" d=" M-28.64299964904785,-10.61400032043457 C-29.312000274658203,-10.61400032043457 -29.854000091552734,-10.071999549865723 -29.854000091552734,-9.402999877929688 C-29.854000091552734,-9.402999877929688 -29.854000091552734,2.930000066757202 -29.854000091552734,2.930000066757202 C-29.854000091552734,3.6740000247955322 -29.194000244140625,4.239999771118164 -28.458999633789062,4.126999855041504 C-24.711000442504883,3.549999952316284 -14.97599983215332,1.9620000123977661 -7.64300012588501,6.448999881744385 C-6.189000129699707,7.339000225067139 -5.021999835968018,8.569000244140625 -3.7730000019073486,9.428999900817871 C-1.4869999885559082,11.003000259399414 1.5260000228881836,11.013999938964844 3.805000066757202,9.430000305175781 C5.0229997634887695,8.583000183105469 6.2220001220703125,7.438000202178955 7.64300012588501,6.448999881744385 C14.09000015258789,1.9620000123977661 24.711000442504883,3.549999952316284 28.458999633789062,4.126999855041504 C29.194000244140625,4.239999771118164 29.854000091552734,3.6740000247955322 29.854000091552734,2.930000066757202 C29.854000091552734,2.930000066757202 29.854000091552734,-9.402999877929688 29.854000091552734,-9.402999877929688 C29.854000091552734,-10.071999549865723 29.312000274658203,-10.61400032043457 28.64299964904785,-10.61400032043457 C28.64299964904785,-10.61400032043457 -28.64299964904785,-10.61400032043457 -28.64299964904785,-10.61400032043457z"></path></g><g opacity="1" transform="matrix(1,0,0,1,185.07400512695312,454.58599853515625)"><path stroke-linecap="round" stroke-linejoin="round" fill-opacity="0" stroke="rgb(0,71,151)" stroke-opacity="1" stroke-width="8" d=" M-0.5,-9.527999877929688 C-0.5,-9.527999877929688 -29.14299964904785,-9.527999877929688 -29.14299964904785,-9.527999877929688 C-29.812000274658203,-9.527999877929688 -30.354000091552734,-9.017999649047852 -30.354000091552734,-8.387999534606934 C-30.354000091552734,-8.387999534606934 -30.354000091552734,3.2249999046325684 -30.354000091552734,3.2249999046325684 C-30.354000091552734,3.924999952316284 -29.70199966430664,4.373000144958496 -28.958999633789062,4.3520002365112305 C-19.423999786376953,4.085000038146973 -10.526000022888184,8.534000396728516 -4.2729997634887695,9.345000267028809 C-2.3959999084472656,9.58899974822998 1.4279999732971191,9.59000015258789 3.305000066757202,9.345999717712402 C9.550000190734863,8.53499984741211 20.959999084472656,3.8450000286102295 28.958999633789062,4.3520002365112305 C29.701000213623047,4.39900016784668 30.354000091552734,3.924999952316284 30.354000091552734,3.2249999046325684 C30.354000091552734,3.2249999046325684 30.354000091552734,-8.387999534606934 30.354000091552734,-8.387999534606934 C30.354000091552734,-9.017999649047852 29.812000274658203,-9.527999877929688 29.14299964904785,-9.527999877929688 C29.14299964904785,-9.527999877929688 -0.5,-9.527999877929688 -0.5,-9.527999877929688z"></path></g></g></g><g style="display: block;" transform="matrix(1,0,0,1,0,0)" opacity="1"><g opacity="1" transform="matrix(1,0,0,1,0,0)"><g opacity="1" transform="matrix(1,0,0,1,0,0)"><g opacity="1" transform="matrix(1,0,0,1,256.3450012207031,229.43899536132812)"><path fill="rgb(159,84,2)" fill-opacity="1" d=" M104.70700073242188,-85.75499725341797 C70.1719970703125,-139.8699951171875 -1.996999979019165,-138.4530029296875 -1.996999979019165,-138.4530029296875 C-1.996999979019165,-138.4530029296875 -74.16600036621094,-139.8699951171875 -108.70099639892578,-85.75499725341797 C-143.23599243164062,-31.639999389648438 -160.38699340820312,70.13700103759766 -152.5030059814453,107.43900299072266 C-145.43899536132812,140.85899353027344 -46.92300033569336,138.41700744628906 -1.996999979019165,138.41700744628906 C42.92900085449219,138.41700744628906 155.58799743652344,133.572998046875 154.38600158691406,107.43900299072266 C151.38699340820312,42.222999572753906 139.24099731445312,-31.639999389648438 104.70700073242188,-85.75499725341797z"></path></g><g opacity="1" transform="matrix(1,0,0,1,161.05599975585938,298.9809875488281)"><path fill="url(#__lottie_element_45)" fill-opacity="1" d=" M35.733001708984375,68.63300323486328 C22.8700008392334,67.2040023803711 11.869999885559082,64.53299713134766 2.882999897003174,63.51599884033203 C-49.63100051879883,57.573001861572266 -54.60100173950195,47.729000091552734 -58.58300018310547,29.488000869750977 C-60.382999420166016,21.218000411987305 -61.32099914550781,10.777999877929688 -61.441001892089844,-1.2879999876022339 C-58.15700149536133,-24.329999923706055 -46.73500061035156,-80.625 -15.630999565124512,-66.34400177001953 C7.377999782562256,-55.79399871826172 6.047999858856201,-35.05500030517578 42.236000061035156,4.701000213623047 C74.00599670410156,39.60200119018555 62.494998931884766,68.38200378417969 35.733001708984375,68.63300323486328z"></path></g><g opacity="1" transform="matrix(1,0,0,1,351.8940124511719,298.9809875488281)"><path fill="url(#__lottie_element_46)" fill-opacity="1" d=" M-34.78200149536133,68.63300323486328 C-21.91900062561035,67.2040023803711 -10.918999671936035,64.53299713134766 -1.9320000410079956,63.51599884033203 C50.582000732421875,57.573001861572266 55.551998138427734,47.729000091552734 59.534000396728516,29.488000869750977 C61.33399963378906,21.218000411987305 60.016998291015625,10.777999877929688 60.137001037597656,-1.2879999876022339 C56.85300064086914,-24.329999923706055 47.68600082397461,-80.625 16.582000732421875,-66.34400177001953 C-6.427000045776367,-55.79399871826172 -5.0960001945495605,-35.05500030517578 -41.284000396728516,4.701000213623047 C-73.05400085449219,39.60200119018555 -61.54399871826172,68.38200378417969 -34.78200149536133,68.63300323486328z"></path></g><g opacity="1" transform="matrix(1,0,0,1,256.1600036621094,235.781005859375)"><path stroke-linecap="round" stroke-linejoin="round" fill-opacity="0" stroke="rgb(163,65,0)" stroke-opacity="1" stroke-width="8" d=" M104.89199829101562,-92.09700012207031 C70.35700225830078,-146.21200561523438 -71.5530014038086,-144.58399963378906 -108.51599884033203,-92.09700012207031 C-150.25,-32.83399963378906 -160.45700073242188,63.85100173950195 -152.3179931640625,101.0979995727539 C-149.57200622558594,113.66699981689453 -134.00799560546875,119.16000366210938 -109.9530029296875,124.5459976196289 C-65.12100219726562,134.58399963378906 67.38300323486328,134.58399963378906 112.20600128173828,124.5459976196289 C133.95599365234375,119.67500305175781 153.97500610351562,113.94999694824219 154.5709991455078,101.0979995727539 C157.5959930419922,35.882999420166016 139.427001953125,-37.981998443603516 104.89199829101562,-92.09700012207031z"></path></g></g></g></g><g style="display: block;" transform="matrix(1,0,0,1,0,0)" opacity="1"><g opacity="1" transform="matrix(1,0,0,1,254.05799865722656,358.4989929199219)"><g opacity="1" transform="matrix(1,0,0,1,0,0)"><path fill="url(#__lottie_element_39)" fill-opacity="1" d=" M48.34700012207031,2.4809999465942383 C48.34700012207031,2.4809999465942383 43.31700134277344,-2.5369999408721924 35.78300094604492,-3.499000072479248 C35.78300094604492,-3.499000072479248 -40.56399917602539,-2.5369999408721924 -40.56399917602539,-2.5369999408721924 C-44.95500183105469,-1.5069999694824219 -48.34700012207031,3.499000072479248 -48.34700012207031,3.499000072479248"></path><path stroke-linecap="round" stroke-linejoin="round" fill-opacity="0" stroke="rgb(0,73,166)" stroke-opacity="1" stroke-width="8" d=" M48.34700012207031,2.4809999465942383 C48.34700012207031,2.4809999465942383 43.31700134277344,-2.5369999408721924 35.78300094604492,-3.499000072479248 C35.78300094604492,-3.499000072479248 -40.56399917602539,-2.5369999408721924 -40.56399917602539,-2.5369999408721924 C-44.95500183105469,-1.5069999694824219 -48.34700012207031,3.499000072479248 -48.34700012207031,3.499000072479248"></path></g></g><g opacity="1" transform="matrix(1,0,0,1,0,0)"><g opacity="1" transform="matrix(1,0,0,1,254.50999450683594,360.385009765625)"><path fill="rgb(192,98,0)" fill-opacity="1" d=" M40.07600021362305,-25.799999237060547 C40.07600021362305,-25.799999237060547 0,-22.756999969482422 0,-22.756999969482422 C0,-22.756999969482422 -40.07600021362305,-25.799999237060547 -40.07600021362305,-25.799999237060547 C-40.07600021362305,-25.799999237060547 -41.0620002746582,19.0049991607666 -41.0620002746582,19.0049991607666 C-41.0620002746582,19.0049991607666 -23.204999923706055,25.799999237060547 0,25.799999237060547 C23.204999923706055,25.799999237060547 41.0620002746582,19.0049991607666 41.0620002746582,19.0049991607666 C41.0620002746582,19.0049991607666 40.07600021362305,-25.799999237060547 40.07600021362305,-25.799999237060547z"></path></g><g opacity="1" transform="matrix(1,0,0,1,254.50999450683594,381.385009765625)"><path fill="url(#__lottie_element_40)" fill-opacity="1" d=" M40.07600021362305,-11.800000190734863 C40.07600021362305,-11.800000190734863 -40.07600021362305,-11.800000190734863 -40.07600021362305,-11.800000190734863 C-40.07600021362305,-11.800000190734863 -41.0620002746582,8.005000114440918 -41.0620002746582,8.005000114440918 C-41.0620002746582,8.005000114440918 -23.204999923706055,11.800000190734863 0,11.800000190734863 C23.204999923706055,11.800000190734863 41.0620002746582,10.005000114440918 41.0620002746582,10.005000114440918 C41.0620002746582,10.005000114440918 40.07600021362305,-11.800000190734863 40.07600021362305,-11.800000190734863z"></path></g><g opacity="1" transform="matrix(1,0,0,1,254.50999450683594,360.385009765625)"><path fill="url(#__lottie_element_41)" fill-opacity="1" d=" M40.07600021362305,-25.799999237060547 C40.07600021362305,-25.799999237060547 0,-22.756999969482422 0,-22.756999969482422 C0,-22.756999969482422 -40.07600021362305,-25.799999237060547 -40.07600021362305,-25.799999237060547 C-40.07600021362305,-25.799999237060547 -41.0620002746582,19.0049991607666 -41.0620002746582,19.0049991607666 C-41.0620002746582,19.0049991607666 -23.204999923706055,25.799999237060547 0,25.799999237060547 C23.204999923706055,25.799999237060547 41.0620002746582,19.0049991607666 41.0620002746582,19.0049991607666 C41.0620002746582,19.0049991607666 40.07600021362305,-25.799999237060547 40.07600021362305,-25.799999237060547z"></path></g><g opacity="1" transform="matrix(1,0,0,1,254.50999450683594,355.48699951171875)"><path stroke-linecap="round" stroke-linejoin="round" fill-opacity="0" stroke="rgb(163,65,0)" stroke-opacity="1" stroke-width="8" d=" M41.0620002746582,20.902000427246094 C41.0620002746582,20.902000427246094 40.07600021362305,-20.902000427246094 40.07600021362305,-20.902000427246094 C40.07600021362305,-20.902000427246094 0,-17.858999252319336 0,-17.858999252319336 C0,-17.858999252319336 -40.07600021362305,-20.902000427246094 -40.07600021362305,-20.902000427246094 C-40.07600021362305,-20.902000427246094 -41.0620002746582,20.902000427246094 -41.0620002746582,20.902000427246094"></path></g></g></g><g style="display: block;" transform="matrix(1,0,0,1,0,0)" opacity="1"><g opacity="1" transform="matrix(1,0,0,1,0,0)"><g opacity="1" transform="matrix(1,0,0,1,255.8719940185547,409.05999755859375)"><path fill="url(#__lottie_element_33)" fill-opacity="1" d=" M-41.505001068115234,-33.80099868774414 C-41.505001068115234,-33.80099868774414 -8.125,33.80099868774414 -8.125,33.80099868774414 C-8.125,33.80099868774414 6.810999870300293,32.652000427246094 6.810999870300293,32.652000427246094 C6.810999870300293,32.652000427246094 41.505001068115234,-33.80099868774414 41.505001068115234,-33.80099868774414 C41.505001068115234,-33.80099868774414 25.565000534057617,-18.190000534057617 -1.3040000200271606,-17.135000228881836 C-26.700000762939453,-16.136999130249023 -41.505001068115234,-33.80099868774414 -41.505001068115234,-33.80099868774414z"></path></g><g opacity="1" transform="matrix(1,0,0,1,255.41700744628906,383.8940124511719)"><path stroke-linecap="butt" stroke-linejoin="miter" fill-opacity="0" stroke-miterlimit="10" stroke="rgb(135,137,139)" stroke-opacity="1" stroke-width="8" d=" M-45.124000549316406,-10.031999588012695 C-41.78799819946289,-6.821000099182129 -25.81100082397461,9.871999740600586 -0.8489999771118164,10.029999732971191 C25.423999786376953,10.196999549865723 42.09000015258789,-5.860000133514404 45.124000549316406,-8.892999649047852"></path></g></g><g opacity="1" transform="matrix(1,0,0,1,0,0)"><g opacity="1" transform="matrix(1,0,0,1,225.1699981689453,408.97601318359375)"><path fill="url(#__lottie_element_34)" fill-opacity="1" d=" M-19.198999404907227,-47.97800064086914 C-13.369999885559082,-19.322999954223633 26.374000549316406,22.96299934387207 32.84000015258789,36.94499969482422 C32.84000015258789,36.94499969482422 31.648000717163086,47.97800064086914 31.648000717163086,47.97800064086914 C21.716999053955078,38.13100051879883 4.389999866485596,19.996999740600586 4.389999866485596,19.996999740600586 C4.389999866485596,19.996999740600586 0.9660000205039978,10.0600004196167 0.9660000205039978,10.0600004196167 C0.9660000205039978,10.0600004196167 -13.517000198364258,9.468999862670898 -29.45599937438965,24.12299919128418 C-29.45599937438965,24.12299919128418 -37.391998291015625,-1.8329999446868896 -28.95599937438965,-29.423999786376953 C-26.07200050354004,-38.85499954223633 -19.198999404907227,-47.97800064086914 -19.198999404907227,-47.97800064086914z"></path><path stroke-linecap="round" stroke-linejoin="round" fill-opacity="0" stroke="rgb(0,71,151)" stroke-opacity="1" stroke-width="8" d=" M-19.198999404907227,-47.97800064086914 C-13.369999885559082,-19.322999954223633 26.374000549316406,22.96299934387207 32.84000015258789,36.94499969482422 C32.84000015258789,36.94499969482422 31.648000717163086,47.97800064086914 31.648000717163086,47.97800064086914 C21.716999053955078,38.13100051879883 4.389999866485596,19.996999740600586 4.389999866485596,19.996999740600586 C4.389999866485596,19.996999740600586 0.9660000205039978,10.0600004196167 0.9660000205039978,10.0600004196167 C0.9660000205039978,10.0600004196167 -13.517000198364258,9.468999862670898 -29.45599937438965,24.12299919128418 C-29.45599937438965,24.12299919128418 -37.391998291015625,-1.8329999446868896 -28.95599937438965,-29.423999786376953 C-26.07200050354004,-38.85499954223633 -19.198999404907227,-47.97800064086914 -19.198999404907227,-47.97800064086914z"></path></g><g opacity="1" transform="matrix(1,0,0,1,224.76499938964844,436.4939880371094)"><path stroke-linecap="round" stroke-linejoin="round" fill-opacity="0" stroke="rgb(16,44,128)" stroke-opacity="1" stroke-width="8" d=" M29.052000045776367,17.461000442504883 C19.121000289916992,7.613999843597412 4.794000148773193,-7.519999980926514 4.794000148773193,-7.519999980926514 C4.794000148773193,-7.519999980926514 1.3700000047683716,-17.457000732421875 1.3700000047683716,-17.457000732421875 C1.3700000047683716,-17.457000732421875 -13.11299991607666,-18.048999786376953 -29.052000045776367,-3.3949999809265137"></path></g></g><g opacity="1" transform="matrix(1,0,0,1,0,0)"><g opacity="1" transform="matrix(1,0,0,1,284.7179870605469,413.9469909667969)"><path fill="url(#__lottie_element_35)" fill-opacity="1" d=" M-30.854999542236328,52.40800094604492 C-30.854999542236328,52.40800094604492 -27.04599952697754,29.542999267578125 -21.680999755859375,19.28700065612793 C-19.163999557495117,14.475000381469727 17.045000076293945,-27.222999572753906 18.201000213623047,-52.40800094604492 C18.201000213623047,-52.40800094604492 24.149999618530273,-39.52799987792969 26.739999771118164,-31.176000595092773 C29.229999542236328,-23.145000457763672 32.486000061035156,-5.718999862670898 29.915000915527344,17.933000564575195 C29.915000915527344,17.933000564575195 17.88800048828125,11.366000175476074 -0.4830000102519989,5.678999900817871 C-0.4830000102519989,5.678999900817871 -3.4010000228881836,16.834999084472656 -3.4010000228881836,16.834999084472656 C-3.4010000228881836,16.834999084472656 -15.812000274658203,28.472000122070312 -30.854999542236328,52.40800094604492z"></path><path stroke-linecap="round" stroke-linejoin="round" fill-opacity="0" stroke="rgb(0,71,151)" stroke-opacity="1" stroke-width="8" d=" M-30.854999542236328,52.40800094604492 C-30.854999542236328,52.40800094604492 -27.04599952697754,29.542999267578125 -21.680999755859375,19.28700065612793 C-19.163999557495117,14.475000381469727 17.045000076293945,-27.222999572753906 18.201000213623047,-52.40800094604492 C18.201000213623047,-52.40800094604492 24.149999618530273,-39.52799987792969 26.739999771118164,-31.176000595092773 C29.229999542236328,-23.145000457763672 32.486000061035156,-5.718999862670898 29.915000915527344,17.933000564575195 C29.915000915527344,17.933000564575195 17.88800048828125,11.366000175476074 -0.4830000102519989,5.678999900817871 C-0.4830000102519989,5.678999900817871 -3.4010000228881836,16.834999084472656 -3.4010000228881836,16.834999084472656 C-3.4010000228881836,16.834999084472656 -15.812000274658203,28.472000122070312 -30.854999542236328,52.40800094604492z"></path></g><g opacity="1" transform="matrix(1,0,0,1,283.5920104980469,445.2900085449219)"><path stroke-linecap="butt" stroke-linejoin="round" fill-opacity="0" stroke="rgb(16,44,128)" stroke-opacity="1" stroke-width="8" d=" M31.041000366210938,-13.40999984741211 C31.041000366210938,-13.40999984741211 19.013999938964844,-19.976999282836914 0.6430000066757202,-25.663999557495117 C0.6430000066757202,-25.663999557495117 -2.2750000953674316,-14.506999969482422 -2.2750000953674316,-14.506999969482422 C-2.2750000953674316,-14.506999969482422 -14.965999603271484,-3.302000045776367 -29.163000106811523,20.8700008392334 C-29.785999298095703,21.930999755859375 -31.041000366210938,23.42799949645996 -31.041000366210938,25.663999557495117"></path></g><g opacity="1" transform="matrix(1,0,0,1,299.4339904785156,425.75299072265625)"><path stroke-linecap="round" stroke-linejoin="round" fill-opacity="0" stroke="rgb(22,45,141)" stroke-opacity="1" stroke-width="8" d=" M15.199000358581543,6.126999855041504 C15.199000358581543,6.126999855041504 3.171999931335449,-0.4399999976158142 -15.199000358581543,-6.126999855041504"></path></g></g></g><g style="display: block;" transform="matrix(1,0,0,1,0,0)" opacity="1"><g opacity="1" transform="matrix(1,0,0,1,0,0)"><g opacity="1" transform="matrix(1,0,0,1,0,0)"><g opacity="1" transform="matrix(1,0,0,1,370.6189880371094,417.01800537109375)"><path fill="rgb(151,161,173)" fill-opacity="1" d=" M-31.996999740600586,53.88999938964844 C-31.996999740600586,53.88999938964844 -13.71399974822998,1.7050000429153442 -12.428999900817871,-40.42599868774414 C-12.34000015258789,-43.33000183105469 -12.175000190734863,-48.82600021362305 -8.574999809265137,-51.77199935913086 C2.2279999256134033,-60.61199951171875 31.996999740600586,-38.92499923706055 31.996999740600586,-38.92499923706055 C21.84000015258789,-21.066999435424805 -3.640000104904175,47.98400115966797 -1.059999942779541,53.88999938964844 C-1.059999942779541,53.88999938964844 -31.996999740600586,53.88999938964844 -31.996999740600586,53.88999938964844z"></path></g><g opacity="1" transform="matrix(1,0,0,1,364.68499755859375,427.0679931640625)"><path fill="url(#__lottie_element_26)" fill-opacity="1" d=" M-26.531999588012695,43.84000015258789 C-24.757999420166016,43.94599914550781 3.9649999141693115,43.452999114990234 3.9649999141693115,43.452999114990234 C11.269000053405762,17.631000518798828 19.22800064086914,-9.92300033569336 26.531999588012695,-35.744998931884766 C26.531999588012695,-35.744998931884766 -3.013000011444092,-43.85499954223633 -3.013000011444092,-43.85499954223633 C-3.013000011444092,-43.85499954223633 -26.531999588012695,43.84000015258789 -26.531999588012695,43.84000015258789z"></path></g><g opacity="1" transform="matrix(1,0,0,1,376.1820068359375,431.1159973144531)"><path stroke-linecap="butt" stroke-linejoin="miter" fill-opacity="0" stroke-miterlimit="10" stroke="rgb(172,192,201)" stroke-opacity="1" stroke-width="8" d=" M-13.03499984741211,39.792999267578125 C-13.03499984741211,39.792999267578125 -13.088000297546387,38.54100036621094 -11.732000350952148,33.59400177001953 C-8.190999984741211,20.68199920654297 -0.16500000655651093,-7.263999938964844 13.03499984741211,-39.792999267578125"></path></g><g opacity="1" transform="matrix(1,0,0,1,372.9880065917969,398.09698486328125)"><path fill="url(#__lottie_element_27)" fill-opacity="1" d=" M-12.847000122070312,-16.14299964904785 C-12.847000122070312,-16.14299964904785 -18.777999877929688,7.461999893188477 -18.777999877929688,7.461999893188477 C-18.777999877929688,7.461999893188477 12.847000122070312,16.14299964904785 12.847000122070312,16.14299964904785 C12.847000122070312,16.14299964904785 18.777999877929688,-7.461999893188477 18.777999877929688,-7.461999893188477 C18.777999877929688,-7.461999893188477 -12.847000122070312,-16.14299964904785 -12.847000122070312,-16.14299964904785z"></path></g></g><g opacity="1" transform="matrix(1,0,0,1,0,0)"><g opacity="1" transform="matrix(1,0,0,1,370.6189880371094,417.01800537109375)"><path stroke-linecap="butt" stroke-linejoin="miter" fill-opacity="0" stroke-miterlimit="10" stroke="rgb(110,113,128)" stroke-opacity="1" stroke-width="8" d=" M-31.996999740600586,53.88999938964844 C-31.996999740600586,53.88999938964844 -31.985000610351562,51.481998443603516 -30.25,45.792999267578125 C-24.5,26.940000534057617 -12.130000114440918,-16.499000549316406 -12.428999900817871,-40.42599868774414 C-12.817999839782715,-71.5719985961914 31.996999740600586,-38.92499923706055 31.996999740600586,-38.92499923706055 C31.996999740600586,-38.92499923706055 9.147000312805176,2.0299999713897705 -0.847000002861023,45.090999603271484 C-1.305999994277954,47.06700134277344 -2.2239999771118164,51.37900161743164 -2.2239999771118164,53.88999938964844"></path></g><g opacity="1" transform="matrix(1,0,0,1,348.4070129394531,423.8039855957031)"><path stroke-linecap="butt" stroke-linejoin="miter" fill-opacity="0" stroke-miterlimit="10" stroke="rgb(71,69,73)" stroke-opacity="1" stroke-width="8" d=" M-9.788000106811523,47.21099853515625 C-9.788000106811523,47.21099853515625 -9.800999641418457,45.19599914550781 -8.10200023651123,39.59700012207031 C-2.380000114440918,20.73900032043457 10.083000183105469,-23.19499969482422 9.782999992370605,-47.21099853515625"></path></g></g></g><g opacity="1" transform="matrix(1,0,0,1,0,0)"><g opacity="1" transform="matrix(1,0,0,1,0,0)"><g opacity="1" transform="matrix(1,0,0,1,386.4320068359375,346.74700927734375)"><path fill="rgb(151,161,173)" fill-opacity="1" d=" M-16.66900062561035,-10.420999526977539 C-16.66900062561035,-10.420999526977539 -9.178999900817871,-38.220001220703125 -9.178999900817871,-38.220001220703125 C-8.142999649047852,-43.242000579833984 -15.611000061035156,-44.20000076293945 -19.819000244140625,-39.83700180053711 C-24.575000762939453,-34.904998779296875 -37.994998931884766,-16.143999099731445 -40.1870002746582,-6.26800012588501 C-44.71799850463867,14.140000343322754 -33.792999267578125,28.732999801635742 -25.003999710083008,34.654998779296875 C-16.21500015258789,40.57699966430664 4.2179999351501465,44.310001373291016 13.494999885559082,41.84199905395508 C22.77199935913086,39.374000549316406 36.60200119018555,27.92799949645996 39.446998596191406,16.875999450683594 C42.88100051879883,3.5380001068115234 40.935001373291016,-26.02199935913086 37.516998291015625,-29.969999313354492 C36.492000579833984,-31.15399932861328 30.92099952697754,-34.391998291015625 29.66900062561035,-29.777999877929688 C29.66900062561035,-29.777999877929688 20.67099952697754,0.27900001406669617 20.67099952697754,0.27900001406669617 C19.82699966430664,3.188999891281128 17.634000778198242,5.513999938964844 14.772000312805176,6.507999897003174 C11.163000106811523,7.76200008392334 5.854000091552734,7.38100004196167 0.5910000205039978,6.51200008392334 C-5.781000137329102,5.460000038146973 -12.420999526977539,1.4830000400543213 -15.024999618530273,-2.01200008392334 C-16.82200050354004,-4.422999858856201 -17.43600082397461,-7.513000011444092 -16.66900062561035,-10.420999526977539z"></path></g><g opacity="1" transform="matrix(1,0,0,1,384.0820007324219,362.8710021972656)"><path fill="url(#__lottie_element_28)" fill-opacity="1" d=" M38.89699935913086,10.64799976348877 C38.89699935913086,10.64799976348877 -38.89699935913086,-29.378999710083008 -38.89699935913086,-29.378999710083008 C-38.89699935913086,-29.378999710083008 -33.04899978637695,12.569999694824219 -33.04899978637695,12.569999694824219 C-33.04899978637695,12.569999694824219 8.98799991607666,29.378999710083008 8.98799991607666,29.378999710083008 C8.98799991607666,29.378999710083008 38.89699935913086,10.64799976348877 38.89699935913086,10.64799976348877z"></path></g><g opacity="1" transform="matrix(1,0,0,1,386.4320068359375,346.74700927734375)"><path fill="url(#__lottie_element_29)" fill-opacity="1" d=" M-16.66900062561035,-10.420999526977539 C-16.66900062561035,-10.420999526977539 -9.178999900817871,-38.220001220703125 -9.178999900817871,-38.220001220703125 C-8.142999649047852,-43.242000579833984 -15.611000061035156,-44.20000076293945 -19.819000244140625,-39.83700180053711 C-24.575000762939453,-34.904998779296875 -37.994998931884766,-16.143999099731445 -40.1870002746582,-6.26800012588501 C-44.71799850463867,14.140000343322754 -33.792999267578125,28.732999801635742 -25.003999710083008,34.654998779296875 C-16.21500015258789,40.57699966430664 4.2179999351501465,44.310001373291016 13.494999885559082,41.84199905395508 C22.77199935913086,39.374000549316406 36.60200119018555,27.92799949645996 39.446998596191406,16.875999450683594 C42.88100051879883,3.5380001068115234 40.935001373291016,-26.02199935913086 37.516998291015625,-29.969999313354492 C36.492000579833984,-31.15399932861328 30.92099952697754,-34.391998291015625 29.66900062561035,-29.777999877929688 C29.66900062561035,-29.777999877929688 20.67099952697754,0.27900001406669617 20.67099952697754,0.27900001406669617 C19.82699966430664,3.188999891281128 17.634000778198242,5.513999938964844 14.772000312805176,6.507999897003174 C11.163000106811523,7.76200008392334 5.854000091552734,7.38100004196167 0.5910000205039978,6.51200008392334 C-5.781000137329102,5.460000038146973 -12.420999526977539,1.4830000400543213 -15.024999618530273,-2.01200008392334 C-16.82200050354004,-4.422999858856201 -17.43600082397461,-7.513000011444092 -16.66900062561035,-10.420999526977539z"></path></g><g opacity="1" transform="matrix(1,0,0,1,418.4490051269531,351.739013671875)"><path stroke-linecap="round" stroke-linejoin="miter" fill-opacity="0" stroke-miterlimit="10" stroke="rgb(207,223,229)" stroke-opacity="1" stroke-width="8" d=" M2.072999954223633,-31.575000762939453 C2.9100000858306885,-29.684999465942383 14.49899959564209,18.785999298095703 -6.077000141143799,31.575000762939453"></path></g><g opacity="1" transform="matrix(1,0,0,1,385.2179870605469,333.9909973144531)"><path stroke-linecap="round" stroke-linejoin="miter" fill-opacity="0" stroke-miterlimit="10" stroke="rgb(178,204,216)" stroke-opacity="1" stroke-width="8" d=" M19.687999725341797,19.236000061035156 C6.410999774932861,30.469999313354492 -13.352999687194824,21.738000869750977 -18.886999130249023,10.555000305175781 C-21.792999267578125,4.683000087738037 -16.291000366210938,-10.913000106811523 -10.418999671936035,-24.46500015258789"></path></g></g><g opacity="1" transform="matrix(1,0,0,1,0,0)"><g opacity="1" transform="matrix(1,0,0,1,386.6449890136719,347.19500732421875)"><path stroke-linecap="butt" stroke-linejoin="miter" fill-opacity="0" stroke-miterlimit="10" stroke="rgb(110,113,128)" stroke-opacity="1" stroke-width="8" d=" M-16.881000518798828,-10.869000434875488 C-16.881000518798828,-10.869000434875488 -8.392000198364258,-38.66899871826172 -8.392000198364258,-38.66899871826172 C-7.355999946594238,-43.691001892089844 -14.824000358581543,-44.64799880981445 -19.031999588012695,-40.28499984741211 C-23.788000106811523,-35.35300064086914 -38.20800018310547,-16.591999053955078 -40.400001525878906,-6.716000080108643 C-44.930999755859375,13.692000389099121 -34.00600051879883,28.28499984741211 -25.216999053955078,34.207000732421875 C-16.42799949645996,40.12900161743164 3.005000114440918,44.86199951171875 12.281999588012695,42.39400100708008 C21.55900001525879,39.92599868774414 37.40999984741211,31.30900001525879 40.23400115966797,17.427000045776367 C42.97999954223633,3.930000066757202 40.72200012207031,-25.47100067138672 37.30400085449219,-29.41900062561035 C36.27899932861328,-30.60300064086914 30.70800018310547,-33.84000015258789 29.45599937438965,-29.22599983215332 C29.45599937438965,-29.22599983215332 20.458999633789062,-0.16899999976158142 20.458999633789062,-0.16899999976158142 C19.614999771118164,2.740999937057495 17.42099952697754,5.065999984741211 14.559000015258789,6.059999942779541 C10.949999809265137,7.314000129699707 5.640999794006348,7.932000160217285 0.3779999911785126,7.063000202178955 C-5.99399995803833,6.011000156402588 -12.633999824523926,1.034999966621399 -15.23799991607666,-2.4600000381469727 C-17.03499984741211,-4.870999813079834 -17.648000717163086,-7.960999965667725 -16.881000518798828,-10.869000434875488z"></path></g><g opacity="1" transform="matrix(1,0,0,1,394.7659912109375,354.0169982910156)"><path stroke-linecap="round" stroke-linejoin="miter" fill-opacity="0" stroke-miterlimit="10" stroke="rgb(88,87,89)" stroke-opacity="1" stroke-width="8" d=" M-33.3380012512207,27.385000228881836 C-24.548999786376953,33.30699920654297 -5.116000175476074,38.040000915527344 4.160999774932861,35.571998596191406 C13.437999725341797,33.104000091552734 29.288999557495117,24.48699951171875 32.112998962402344,10.604999542236328 C34.85900115966797,-2.8919999599456787 32.60100173950195,-32.29199981689453 29.183000564575195,-36.2400016784668"></path></g><g opacity="1" transform="matrix(1,0,0,1,376.4429931640625,384.3999938964844)"><path stroke-linecap="round" stroke-linejoin="miter" fill-opacity="0" stroke-miterlimit="10" stroke="rgb(88,87,89)" stroke-opacity="1" stroke-width="8" d=" M-19.016000747680664,-5.997000217437744 C-10.347000122070312,1.784999966621399 8.774999618530273,6.923999786376953 19.016000747680664,5.857999801635742"></path></g><g opacity="1" transform="matrix(1,0,0,1,426.0270080566406,341.20001220703125)"><path stroke-linecap="round" stroke-linejoin="miter" fill-opacity="0" stroke-miterlimit="10" stroke="rgb(88,87,89)" stroke-opacity="1" stroke-width="8" d=" M0.8519999980926514,23.42300033569336 C3.5980000495910645,9.925999641418457 1.340000033378601,-19.475000381469727 -2.078000068664551,-23.42300033569336"></path></g><g opacity="1" transform="matrix(1,0,0,1,378.2309875488281,331.39300537109375)"><path stroke-linecap="round" stroke-linejoin="miter" fill-opacity="0" stroke-miterlimit="10" stroke="rgb(88,87,89)" stroke-opacity="1" stroke-width="8" d=" M8.791999816894531,22.865999221801758 C2.4200000762939453,21.81399917602539 -4.21999979019165,16.836999893188477 -6.823999881744385,13.342000007629395 C-8.621000289916992,10.930999755859375 -9.234999656677246,7.8420000076293945 -8.468000411987305,4.934000015258789 C-8.468000411987305,4.934000015258789 0.02199999988079071,-22.865999221801758 0.02199999988079071,-22.865999221801758"></path></g></g></g></g><g style="display: block;" transform="matrix(1,0,0,1,0,0)" opacity="1"><g opacity="1" transform="matrix(1,0,0,1,0,0)"><g opacity="1" transform="matrix(1,0,0,1,0,0)"><g opacity="1" transform="matrix(1,0,0,1,253.8679962158203,217.8520050048828)"><path fill="rgb(255,168,0)" fill-opacity="1" d=" M84.1050033569336,-85.427001953125 C64.52899932861328,-112.61599731445312 38.75199890136719,-128.60400390625 0,-128.60400390625 C-38.75199890136719,-128.60400390625 -64.52899932861328,-112.61599731445312 -84.1050033569336,-85.427001953125 C-103.68099975585938,-58.237998962402344 -119.99500274658203,5.165999889373779 -94.43699645996094,58.457000732421875 C-68.87899780273438,111.74800109863281 -25.701000213623047,128.60400390625 0,128.60400390625 C25.701000213623047,128.60400390625 68.87899780273438,111.74800109863281 94.43699645996094,58.457000732421875 C119.99500274658203,5.165999889373779 103.68099975585938,-58.237998962402344 84.1050033569336,-85.427001953125z"></path></g><g opacity="1" transform="matrix(1,0,0,1,254.00999450683594,217.8520050048828)"><path fill="url(#__lottie_element_6)" fill-opacity="1" d=" M84.1050033569336,-85.427001953125 C64.52899932861328,-112.61599731445312 38.75199890136719,-128.60400390625 0,-128.60400390625 C-38.75199890136719,-128.60400390625 -64.52899932861328,-112.61599731445312 -84.1050033569336,-85.427001953125 C-103.68099975585938,-58.237998962402344 -119.99500274658203,5.165999889373779 -94.43699645996094,58.457000732421875 C-68.87999725341797,111.74800109863281 -25.701000213623047,128.60400390625 0,128.60400390625 C25.701000213623047,128.60400390625 68.87899780273438,111.74800109863281 94.43699645996094,58.457000732421875 C119.99500274658203,5.165999889373779 103.68099975585938,-58.237998962402344 84.1050033569336,-85.427001953125z"></path></g><g opacity="1" transform="matrix(1,0,0,1,253.8679962158203,217.8520050048828)"><path stroke-linecap="round" stroke-linejoin="round" fill-opacity="0" stroke="rgb(219,110,0)" stroke-opacity="1" stroke-width="8" d=" M84.1050033569336,-85.427001953125 C64.52899932861328,-112.61599731445312 38.75199890136719,-128.60400390625 0,-128.60400390625 C-38.75199890136719,-128.60400390625 -64.52899932861328,-112.61599731445312 -84.1050033569336,-85.427001953125 C-103.68099975585938,-58.237998962402344 -119.99500274658203,5.165999889373779 -94.43699645996094,58.457000732421875 C-68.87899780273438,111.74800109863281 -25.701000213623047,128.60400390625 0,128.60400390625 C25.701000213623047,128.60400390625 68.87899780273438,111.74800109863281 94.43699645996094,58.457000732421875 C119.99500274658203,5.165999889373779 103.68099975585938,-58.237998962402344 84.1050033569336,-85.427001953125z"></path></g><g opacity="1" transform="matrix(1,0,0,1,252.63800048828125,237.4499969482422)"><path fill="url(#__lottie_element_7)" fill-opacity="1" d=" M76.88999938964844,-28.52400016784668 C76.88999938964844,-28.52400016784668 39.21500015258789,-40.696998596191406 16.11400032043457,-51.9379997253418 C-12.446999549865723,-65.83499908447266 -34.80799865722656,-82.3219985961914 -47.207000732421875,-92.34300231933594 C-47.207000732421875,-92.34300231933594 -57.01300048828125,-63.159000396728516 -72.78600311279297,-46.380001068115234 C-97.6729965209961,-19.905000686645508 -95.5250015258789,11.411999702453613 -74.72000122070312,45.95199966430664 C-53.915000915527344,80.49199676513672 -19.691999435424805,92.34300231933594 1.2300000190734863,92.34300231933594 C22.152000427246094,92.34300231933594 56.375,80.49199676513672 77.18000030517578,45.95199966430664 C97.98500061035156,11.411999702453613 92.82599639892578,-10.901000022888184 76.88999938964844,-28.52400016784668z"></path></g><g opacity="1" transform="matrix(1,0,0,1,253.8679962158203,283.7200012207031)"><path fill="url(#__lottie_element_8)" fill-opacity="1" d=" M15.809000015258789,0.09200000017881393 C15.809000015258789,6.732999801635742 8.241000175476074,12.637999534606934 0,12.637999534606934 C-8.241000175476074,12.637999534606934 -15.809000015258789,6.732999801635742 -15.809000015258789,0.09200000017881393 C-15.809000015258789,-6.548999786376953 -8.241000175476074,-12.637999534606934 0,-12.637999534606934 C8.241000175476074,-12.637999534606934 15.809000015258789,-6.548999786376953 15.809000015258789,0.09200000017881393z"></path></g></g><g opacity="1" transform="matrix(1,0,0,1,0,0)"><g opacity="1" transform="matrix(1,0,0,1,0,0)"><g opacity="1" transform="matrix(1,0,0,1,310.39801025390625,228.9770050048828)"><path fill="rgb(255,255,255)" fill-opacity="1" d=" M-32.17100143432617,12.375 C-32.17100143432617,12.375 -29.378000259399414,-20.959999084472656 -1.649999976158142,-23.7450008392334 C23.815000534057617,-26.30299949645996 32.17100143432617,3.2279999256134033 32.17100143432617,3.2279999256134033 C32.17100143432617,3.2279999256134033 25.31599998474121,21.10300064086914 3.0239999294281006,23.54800033569336 C-21.827999114990234,26.273000717163086 -32.17100143432617,12.375 -32.17100143432617,12.375z"></path></g><g opacity="1" transform="matrix(1,0,0,1,0,0)"><g opacity="1" transform="matrix(1,0,0,1,310.39801025390625,227.86399841308594)"><path fill="url(#__lottie_element_9)" fill-opacity="1" d=" M17.871000289916992,0 C17.871000289916992,10.458999633789062 9.869999885559082,18.937999725341797 0,18.937999725341797 C-9.869999885559082,18.937999725341797 -17.871000289916992,10.458999633789062 -17.871000289916992,0 C-17.871000289916992,-10.458999633789062 -9.869999885559082,-18.937999725341797 0,-18.937999725341797 C9.869999885559082,-18.937999725341797 17.871000289916992,-10.458999633789062 17.871000289916992,0z"></path></g><g opacity="1" transform="matrix(1,0,0,1,319.197998046875,238.16799926757812)"><g opacity="1" transform="matrix(1,0,0,1,0,0)"><path fill="url(#__lottie_element_10)" fill-opacity="1" d=" M-4.629000186920166,7.820000171661377 C-6.039999961853027,7.820000171661377 -7.3470001220703125,6.908999919891357 -7.784999847412109,5.489999771118164 C-8.322999954223633,3.746999979019165 -7.34499979019165,1.8980000019073486 -5.6020002365112305,1.3609999418258667 C-2.2679998874664307,0.3330000042915344 0.3869999945163727,-2.257999897003174 1.4980000257492065,-5.567999839782715 C2.0789999961853027,-7.297999858856201 3.9539999961853027,-8.22700023651123 5.678999900817871,-7.6479997634887695 C7.408999919891357,-7.067999839782715 8.340999603271484,-5.195000171661377 7.760000228881836,-3.4660000801086426 C5.973999977111816,1.8550000190734863 1.7070000171661377,6.019000053405762 -3.6549999713897705,7.672999858856201 C-3.9790000915527344,7.7729997634887695 -4.307000160217285,7.820000171661377 -4.629000186920166,7.820000171661377z"></path></g></g><g opacity="1" transform="matrix(1,0,0,1,310.39801025390625,227.86399841308594)"><path fill="rgb(23,19,10)" fill-opacity="1" d=" M11.293999671936035,0 C11.293999671936035,6.610000133514404 6.23799991607666,11.968999862670898 0,11.968999862670898 C-6.23799991607666,11.968999862670898 -11.293999671936035,6.610000133514404 -11.293999671936035,0 C-11.293999671936035,-6.610000133514404 -6.23799991607666,-11.968999862670898 0,-11.968999862670898 C6.23799991607666,-11.968999862670898 11.293999671936035,-6.610000133514404 11.293999671936035,0z"></path></g></g><g opacity="1" transform="matrix(1,0,0,1,310.39801025390625,222.71099853515625)"><path fill="rgb(163,65,0)" fill-opacity="1" d=" M-32.17100143432617,18.641000747680664 C-32.17100143432617,18.641000747680664 -30.83799934387207,-15.560999870300293 0,-18.503999710083008 C12.66100025177002,-19.711999893188477 23.385000228881836,-12.746999740600586 28.02199935913086,-4.489999771118164 C31.926000595092773,2.4630000591278076 32.17100143432617,9.494000434875488 32.17100143432617,9.494000434875488 C32.17100143432617,9.494000434875488 29.259000778198242,-17.0310001373291 0.9929999709129333,-15.675000190734863 C-29.256000518798828,-14.223999977111816 -32.17100143432617,18.641000747680664 -32.17100143432617,18.641000747680664z"></path><path stroke-linecap="round" stroke-linejoin="round" fill-opacity="0" stroke="rgb(163,65,0)" stroke-opacity="1" stroke-width="2" d=" M-32.17100143432617,18.641000747680664 C-32.17100143432617,18.641000747680664 -30.83799934387207,-15.560999870300293 0,-18.503999710083008 C12.66100025177002,-19.711999893188477 23.385000228881836,-12.746999740600586 28.02199935913086,-4.489999771118164 C31.926000595092773,2.4630000591278076 32.17100143432617,9.494000434875488 32.17100143432617,9.494000434875488 C32.17100143432617,9.494000434875488 29.259000778198242,-17.0310001373291 0.9929999709129333,-15.675000190734863 C-29.256000518798828,-14.223999977111816 -32.17100143432617,18.641000747680664 -32.17100143432617,18.641000747680664z"></path></g><g opacity="1" transform="matrix(1,0,0,1,305.1080017089844,217.54400634765625)"><path fill="url(#__lottie_element_11)" fill-opacity="1" d=" M4.289000034332275,0 C4.289000034332275,2.509999990463257 2.36899995803833,4.545000076293945 0,4.545000076293945 C-2.36899995803833,4.545000076293945 -4.289000034332275,2.509999990463257 -4.289000034332275,0 C-4.289000034332275,-2.509999990463257 -2.36899995803833,-4.545000076293945 0,-4.545000076293945 C2.36899995803833,-4.545000076293945 4.289000034332275,-2.509999990463257 4.289000034332275,0z"></path></g></g><g opacity="1" transform="matrix(1,0,0,1,0,0)"><g opacity="1" transform="matrix(1,0,0,1,198.4759979248047,228.9770050048828)"><path fill="rgb(255,255,255)" fill-opacity="1" d=" M32.16999816894531,12.375 C32.16999816894531,12.375 29.378000259399414,-20.959999084472656 1.649999976158142,-23.7450008392334 C-23.815000534057617,-26.30299949645996 -32.16999816894531,3.2279999256134033 -32.16999816894531,3.2279999256134033 C-32.16999816894531,3.2279999256134033 -25.316999435424805,21.10300064086914 -3.0250000953674316,23.54800033569336 C21.82699966430664,26.273000717163086 32.16999816894531,12.375 32.16999816894531,12.375z"></path></g><g opacity="1" transform="matrix(1,0,0,1,0,0)"><g opacity="1" transform="matrix(1,0,0,1,199.6269989013672,227.86399841308594)"><path fill="url(#__lottie_element_12)" fill-opacity="1" d=" M17.871000289916992,0 C17.871000289916992,10.458999633789062 9.869999885559082,18.937999725341797 0,18.937999725341797 C-9.869999885559082,18.937999725341797 -17.871000289916992,10.458999633789062 -17.871000289916992,0 C-17.871000289916992,-10.458999633789062 -9.869999885559082,-18.937999725341797 0,-18.937999725341797 C9.869999885559082,-18.937999725341797 17.871000289916992,-10.458999633789062 17.871000289916992,0z"></path></g><g opacity="1" transform="matrix(1,0,0,1,208.39500427246094,238.16799926757812)"><g opacity="1" transform="matrix(1,0,0,1,0,0)"><path fill="url(#__lottie_element_13)" fill-opacity="1" d=" M-4.629000186920166,7.820000171661377 C-6.039999961853027,7.820000171661377 -7.3470001220703125,6.908999919891357 -7.784999847412109,5.489999771118164 C-8.322999954223633,3.746999979019165 -7.34499979019165,1.8980000019073486 -5.6020002365112305,1.3609999418258667 C-2.2679998874664307,0.3330000042915344 0.3869999945163727,-2.257999897003174 1.4980000257492065,-5.567999839782715 C2.0789999961853027,-7.297999858856201 3.9539999961853027,-8.22700023651123 5.678999900817871,-7.6479997634887695 C7.408999919891357,-7.067999839782715 8.340999603271484,-5.195000171661377 7.760000228881836,-3.4660000801086426 C5.973999977111816,1.8550000190734863 1.7070000171661377,6.019000053405762 -3.6549999713897705,7.672999858856201 C-3.9790000915527344,7.7729997634887695 -4.307000160217285,7.820000171661377 -4.629000186920166,7.820000171661377z"></path></g></g><g opacity="1" transform="matrix(1,0,0,1,199.6269989013672,227.86399841308594)"><path fill="rgb(23,19,10)" fill-opacity="1" d=" M11.293999671936035,0 C11.293999671936035,6.610000133514404 6.23799991607666,11.968999862670898 0,11.968999862670898 C-6.23799991607666,11.968999862670898 -11.293999671936035,6.610000133514404 -11.293999671936035,0 C-11.293999671936035,-6.610000133514404 -6.23799991607666,-11.968999862670898 0,-11.968999862670898 C6.23799991607666,-11.968999862670898 11.293999671936035,-6.610000133514404 11.293999671936035,0z"></path></g><g opacity="1" transform="matrix(1,0,0,1,194.33700561523438,217.54400634765625)"><path fill="url(#__lottie_element_14)" fill-opacity="1" d=" M4.289000034332275,0 C4.289000034332275,2.509999990463257 2.36899995803833,4.545000076293945 0,4.545000076293945 C-2.36899995803833,4.545000076293945 -4.289000034332275,2.509999990463257 -4.289000034332275,0 C-4.289000034332275,-2.509999990463257 -2.36899995803833,-4.545000076293945 0,-4.545000076293945 C2.36899995803833,-4.545000076293945 4.289000034332275,-2.509999990463257 4.289000034332275,0z"></path></g></g><g opacity="1" transform="matrix(1,0,0,1,198.4759979248047,222.71099853515625)"><path fill="rgb(163,65,0)" fill-opacity="1" d=" M32.16999816894531,18.641000747680664 C32.16999816894531,18.641000747680664 30.83799934387207,-15.560999870300293 0,-18.503999710083008 C-12.66100025177002,-19.711999893188477 -23.385000228881836,-12.746999740600586 -28.02199935913086,-4.489999771118164 C-31.926000595092773,2.4630000591278076 -32.16999816894531,9.494000434875488 -32.16999816894531,9.494000434875488 C-32.16999816894531,9.494000434875488 -29.259000778198242,-17.0310001373291 -0.9929999709129333,-15.675000190734863 C29.256000518798828,-14.223999977111816 32.16999816894531,18.641000747680664 32.16999816894531,18.641000747680664z"></path><path stroke-linecap="round" stroke-linejoin="round" fill-opacity="0" stroke="rgb(163,65,0)" stroke-opacity="1" stroke-width="2" d=" M32.16999816894531,18.641000747680664 C32.16999816894531,18.641000747680664 30.83799934387207,-15.560999870300293 0,-18.503999710083008 C-12.66100025177002,-19.711999893188477 -23.385000228881836,-12.746999740600586 -28.02199935913086,-4.489999771118164 C-31.926000595092773,2.4630000591278076 -32.16999816894531,9.494000434875488 -32.16999816894531,9.494000434875488 C-32.16999816894531,9.494000434875488 -29.259000778198242,-17.0310001373291 -0.9929999709129333,-15.675000190734863 C29.256000518798828,-14.223999977111816 32.16999816894531,18.641000747680664 32.16999816894531,18.641000747680664z"></path></g></g></g><g opacity="1" transform="matrix(1,0,0,1,0,0)"><g opacity="0.8" transform="matrix(1,0,0,1,253.8679962158203,277.59600830078125)"><path fill="rgb(255,168,0)" fill-opacity="1" d=" M15.809000015258789,-0.13600000739097595 C15.809000015258789,6.2270002365112305 8.730999946594238,11.385000228881836 0,11.385000228881836 C-8.730999946594238,11.385000228881836 -15.809000015258789,6.2270002365112305 -15.809000015258789,-0.13600000739097595 C-15.809000015258789,-6.499000072479248 -8.730999946594238,-11.385000228881836 0,-11.385000228881836 C8.730999946594238,-11.385000228881836 15.809000015258789,-6.499000072479248 15.809000015258789,-0.13600000739097595z"></path></g><g opacity="0.7000000000000001" transform="matrix(1,0,0,1,253.8679962158203,277.59600830078125)"><path fill="url(#__lottie_element_15)" fill-opacity="1" d=" M15.809000015258789,-0.13600000739097595 C15.809000015258789,6.2270002365112305 8.730999946594238,11.385000228881836 0,11.385000228881836 C-8.730999946594238,11.385000228881836 -15.809000015258789,6.2270002365112305 -15.809000015258789,-0.13600000739097595 C-15.809000015258789,-6.499000072479248 -8.730999946594238,-11.385000228881836 0,-11.385000228881836 C8.730999946594238,-11.385000228881836 15.809000015258789,-6.499000072479248 15.809000015258789,-0.13600000739097595z"></path></g><g opacity="1" transform="matrix(1,0,0,1,253.8679962158203,274.2120056152344)"><path fill="rgb(255,216,0)" fill-opacity="1" d=" M13.675999641418457,-0.3889999985694885 C13.675999641418457,4.3480000495910645 7.552999973297119,8.187999725341797 0,8.187999725341797 C-7.552999973297119,8.187999725341797 -13.675999641418457,4.3480000495910645 -13.675999641418457,-0.3889999985694885 C-13.675999641418457,-5.125999927520752 -7.552999973297119,-8.187999725341797 0,-8.187999725341797 C7.552999973297119,-8.187999725341797 13.675999641418457,-5.125999927520752 13.675999641418457,-0.3889999985694885z"></path></g><g opacity="1" transform="matrix(1,0,0,1,253.8679962158203,274.2120056152344)"><path fill="url(#__lottie_element_16)" fill-opacity="1" d=" M13.675999641418457,-0.3889999985694885 C13.675999641418457,4.3480000495910645 7.552999973297119,8.187999725341797 0,8.187999725341797 C-7.552999973297119,8.187999725341797 -13.675999641418457,4.3480000495910645 -13.675999641418457,-0.3889999985694885 C-13.675999641418457,-5.125999927520752 -7.552999973297119,-8.187999725341797 0,-8.187999725341797 C7.552999973297119,-8.187999725341797 13.675999641418457,-5.125999927520752 13.675999641418457,-0.3889999985694885z"></path></g><g opacity="0.7000000000000001" transform="matrix(1,0,0,1,253.8679962158203,270.94000244140625)"><path fill="url(#__lottie_element_17)" fill-opacity="1" d=" M7.046000003814697,-0.5569999814033508 C7.046000003814697,1.9789999723434448 3.8919999599456787,4.364999771118164 0,4.364999771118164 C-3.8919999599456787,4.364999771118164 -7.046000003814697,1.9789999723434448 -7.046000003814697,-0.5569999814033508 C-7.046000003814697,-3.0929999351501465 -3.8919999599456787,-4.364999771118164 0,-4.364999771118164 C3.8919999599456787,-4.364999771118164 7.046000003814697,-3.0929999351501465 7.046000003814697,-0.5569999814033508z"></path></g></g><g opacity="1" transform="matrix(1,0,0,1,0,0)"><g opacity="1" transform="matrix(1,0,0,1,195.47999572753906,185.51199340820312)"><path fill="rgb(163,65,0)" fill-opacity="1" d=" M-21.093000411987305,5.416999816894531 C-21.093000411987305,5.416999816894531 -9.973999977111816,-2.2090001106262207 3.2219998836517334,-1.7970000505447388 C15.866999626159668,-1.4019999504089355 21.093000411987305,3.378000020980835 21.093000411987305,3.378000020980835 C21.093000411987305,3.378000020980835 16.881000518798828,-5.802999973297119 3.2219998836517334,-5.40500020980835 C-11.824999809265137,-4.966000080108643 -21.093000411987305,5.416999816894531 -21.093000411987305,5.416999816894531z"></path><path stroke-linecap="round" stroke-linejoin="round" fill-opacity="0" stroke="rgb(163,65,0)" stroke-opacity="1" stroke-width="2" d=" M-21.093000411987305,5.416999816894531 C-21.093000411987305,5.416999816894531 -9.973999977111816,-2.2090001106262207 3.2219998836517334,-1.7970000505447388 C15.866999626159668,-1.4019999504089355 21.093000411987305,3.378000020980835 21.093000411987305,3.378000020980835 C21.093000411987305,3.378000020980835 16.881000518798828,-5.802999973297119 3.2219998836517334,-5.40500020980835 C-11.824999809265137,-4.966000080108643 -21.093000411987305,5.416999816894531 -21.093000411987305,5.416999816894531z"></path></g><g opacity="1" transform="matrix(1,0,0,1,312.1730041503906,185.51199340820312)"><path fill="rgb(163,65,0)" fill-opacity="1" d=" M21.093000411987305,5.416999816894531 C21.093000411987305,5.416999816894531 9.973999977111816,-2.2090001106262207 -3.2219998836517334,-1.7970000505447388 C-15.866999626159668,-1.4019999504089355 -21.093000411987305,3.378000020980835 -21.093000411987305,3.378000020980835 C-21.093000411987305,3.378000020980835 -16.881000518798828,-5.802999973297119 -3.2219998836517334,-5.40500020980835 C11.824999809265137,-4.966000080108643 21.093000411987305,5.416999816894531 21.093000411987305,5.416999816894531z"></path><path stroke-linecap="round" stroke-linejoin="round" fill-opacity="0" stroke="rgb(163,65,0)" stroke-opacity="1" stroke-width="2" d=" M21.093000411987305,5.416999816894531 C21.093000411987305,5.416999816894531 9.973999977111816,-2.2090001106262207 -3.2219998836517334,-1.7970000505447388 C-15.866999626159668,-1.4019999504089355 -21.093000411987305,3.378000020980835 -21.093000411987305,3.378000020980835 C-21.093000411987305,3.378000020980835 -16.881000518798828,-5.802999973297119 -3.2219998836517334,-5.40500020980835 C11.824999809265137,-4.966000080108643 21.093000411987305,5.416999816894531 21.093000411987305,5.416999816894531z"></path></g></g><g opacity="1" transform="matrix(1,0,0,1,0,0)"><g opacity="1" transform="matrix(1,0,0,1,254.50999450683594,310.9079895019531)"><path fill="rgb(75,37,2)" fill-opacity="1" d=" M34.08100128173828,-6.974999904632568 C31.658000946044922,-8.338000297546387 20.75200080871582,-6.2170000076293945 12.723999977111816,-9.095000267028809 C4.696000099182129,-11.972999572753906 2.878999948501587,-7.900000095367432 0.0010000000474974513,-7.900000095367432 C-2.877000093460083,-7.900000095367432 -4.693999767303467,-11.972999572753906 -12.722000122070312,-9.095000267028809 C-20.75,-6.2170000076293945 -31.65399932861328,-8.338000297546387 -34.077999114990234,-6.974999904632568 C-36.500999450683594,-5.611999988555908 -19.968000411987305,10.12399959564209 0.0010000000474974513,10.12399959564209 C19.73699951171875,10.12399959564209 36.505001068115234,-5.611999988555908 34.08100128173828,-6.974999904632568z"></path></g><g opacity="1" transform="matrix(1,0,0,1,254.50999450683594,310.9079895019531)"><path fill="url(#__lottie_element_18)" fill-opacity="1" d=" M34.08100128173828,-6.974999904632568 C31.658000946044922,-8.338000297546387 20.75200080871582,-6.2170000076293945 12.723999977111816,-9.095000267028809 C4.696000099182129,-11.972999572753906 2.878999948501587,-7.900000095367432 0.0010000000474974513,-7.900000095367432 C-2.877000093460083,-7.900000095367432 -4.693999767303467,-11.972999572753906 -12.722000122070312,-9.095000267028809 C-20.75,-6.2170000076293945 -31.65399932861328,-8.338000297546387 -34.077999114990234,-6.974999904632568 C-36.500999450683594,-5.611999988555908 -19.968000411987305,10.12399959564209 0.0010000000474974513,10.12399959564209 C19.73699951171875,10.12399959564209 36.505001068115234,-5.611999988555908 34.08100128173828,-6.974999904632568z"></path></g><g opacity="1" transform="matrix(1,0,0,1,254.23800659179688,309.98699951171875)"><path fill="rgb(23,19,11)" fill-opacity="1" d=" M-28.226999282836914,-3.2179999351501465 C-28.226999282836914,-3.2179999351501465 -19.53499984741211,-1.152999997138977 -13.607000350952148,-1.152999997138977 C-9.581999778747559,-1.152999997138977 -3.506999969482422,0.9800000190734863 0.27300000190734863,0.9800000190734863 C3.9059998989105225,0.9800000190734863 8.821999549865723,-1.1080000400543213 12.633000373840332,-1.1080000400543213 C20.437999725341797,-1.1080000400543213 28.226999282836914,-3.2179999351501465 28.226999282836914,-3.2179999351501465 C28.226999282836914,-3.2179999351501465 21.736000061035156,-1.2699999809265137 12.26099967956543,0.7200000286102295 C8.897000312805176,1.4259999990463257 4.23199987411499,3.2179999351501465 0.27300000190734863,3.2179999351501465 C-4.431000232696533,3.2179999351501465 -9.803999900817871,1.2300000190734863 -13.699000358581543,0.29899999499320984 C-22.315000534057617,-1.7599999904632568 -28.226999282836914,-3.2179999351501465 -28.226999282836914,-3.2179999351501465z"></path><path stroke-linecap="round" stroke-linejoin="round" fill-opacity="0" stroke="rgb(23,19,11)" stroke-opacity="1" stroke-width="1" d=" M-28.226999282836914,-3.2179999351501465 C-28.226999282836914,-3.2179999351501465 -19.53499984741211,-1.152999997138977 -13.607000350952148,-1.152999997138977 C-9.581999778747559,-1.152999997138977 -3.506999969482422,0.9800000190734863 0.27300000190734863,0.9800000190734863 C3.9059998989105225,0.9800000190734863 8.821999549865723,-1.1080000400543213 12.633000373840332,-1.1080000400543213 C20.437999725341797,-1.1080000400543213 28.226999282836914,-3.2179999351501465 28.226999282836914,-3.2179999351501465 C28.226999282836914,-3.2179999351501465 21.736000061035156,-1.2699999809265137 12.26099967956543,0.7200000286102295 C8.897000312805176,1.4259999990463257 4.23199987411499,3.2179999351501465 0.27300000190734863,3.2179999351501465 C-4.431000232696533,3.2179999351501465 -9.803999900817871,1.2300000190734863 -13.699000358581543,0.29899999499320984 C-22.315000534057617,-1.7599999904632568 -28.226999282836914,-3.2179999351501465 -28.226999282836914,-3.2179999351501465z"></path></g></g><g opacity="1" transform="matrix(1,0,0,1,0,0)"><g opacity="1" transform="matrix(1,0,0,1,256.4460144042969,195.30299377441406)"><path fill="rgb(255,205,0)" fill-opacity="1" d=" M-59.125999450683594,-80.13200378417969 C-65.13600158691406,-31.38599967956543 -89.76399993896484,0.6890000104904175 -130.5240020751953,18.31599998474121 C-130.5240020751953,18.31599998474121 -161.5070037841797,56.91400146484375 -152.60400390625,137.0760040283203 C-152.60400390625,137.0760040283203 -163.97900390625,72.77799987792969 -138.0850067138672,-21.67099952697754 C-114.0790023803711,-109.23500061035156 -74.5790023803711,-122.7699966430664 -65.40699768066406,-119.18099975585938 C-65.40699768066406,-119.18099975585938 -52.494998931884766,-143.70799255371094 11.468000411987305,-135.33299255371094 C75.43099975585938,-126.95800018310547 115.89700317382812,-79.697998046875 134.01600646972656,-24.66200065612793 C152.13499450683594,30.374000549316406 157.30499267578125,95.79900360107422 154.28500366210938,137.0760040283203 C154.28500366210938,137.0760040283203 162.23699951171875,36.18199920654297 94.2020034790039,3.4630000591278076 C94.2020034790039,3.4630000591278076 -2.0980000495910645,-16.861000061035156 -59.125999450683594,-80.13200378417969z"></path></g><g opacity="1" transform="matrix(1,0,0,1,256.4460144042969,195.30299377441406)"><path fill="url(#__lottie_element_19)" fill-opacity="1" d=" M-59.125999450683594,-80.13200378417969 C-65.13600158691406,-31.38599967956543 -89.76399993896484,0.6890000104904175 -130.5240020751953,18.31599998474121 C-130.5240020751953,18.31599998474121 -161.5070037841797,56.91400146484375 -152.60400390625,137.0760040283203 C-152.60400390625,137.0760040283203 -163.97900390625,72.77799987792969 -138.0850067138672,-21.67099952697754 C-114.0790023803711,-109.23500061035156 -74.5790023803711,-122.7699966430664 -65.40699768066406,-119.18099975585938 C-65.40699768066406,-119.18099975585938 -52.494998931884766,-143.70799255371094 11.468000411987305,-135.33299255371094 C75.43099975585938,-126.95800018310547 115.89700317382812,-79.697998046875 134.01600646972656,-24.66200065612793 C152.13499450683594,30.374000549316406 157.30499267578125,95.79900360107422 154.28500366210938,137.0760040283203 C154.28500366210938,137.0760040283203 162.23699951171875,36.18199920654297 94.2020034790039,3.4630000591278076 C94.2020034790039,3.4630000591278076 -2.0980000495910645,-16.861000061035156 -59.125999450683594,-80.13200378417969z"></path></g><g opacity="1" transform="matrix(1,0,0,1,245.77200317382812,162.63800048828125)"><path fill="url(#__lottie_element_20)" fill-opacity="1" d=" M141.42300415039062,40.349998474121094 C141.42300415039062,40.349998474121094 124.39900207519531,36.52299880981445 104.87799835205078,36.13199996948242 C104.87799835205078,36.13199996948242 8.57699966430664,15.805999755859375 -48.452999114990234,-47.47100067138672 C-48.452999114990234,-47.47100067138672 -50.63800048828125,-4.3470001220703125 -78.29000091552734,21.124000549316406 C-104.41899871826172,45.20399856567383 -119.84600067138672,50.97700119018555 -119.84600067138672,50.97700119018555 C-119.84600067138672,50.97700119018555 -139.42100524902344,79.37300109863281 -141.3769989013672,104.40899658203125 C-141.3769989013672,104.40899658203125 -143.1269989013672,51.053001403808594 -125.09600067138672,43.222999572753906 C-125.09600067138672,43.222999572753906 -95.27300262451172,26.95400047302246 -79.20800018310547,6.079999923706055 C-58.62200164794922,-20.66900062561035 -60.15700149536133,-56.03099822998047 -62.95399856567383,-65.66100311279297 C-67.0260009765625,-79.68099975585938 -98.12899780273438,-64.10700225830078 -117.0469970703125,-20.31800079345703 C-93.37799835205078,-79.88700103759766 -62.67900085449219,-89.62300109863281 -54.73099899291992,-86.51399993896484 C-54.73099899291992,-86.51399993896484 -41.81800079345703,-111.03900146484375 22.141000747680664,-102.66699981689453 C54.500999450683594,-98.43099975585938 80.86000061035156,-84.23200225830078 101.34400177001953,-64.10600280761719 C101.34400177001953,-64.10600280761719 60.369998931884766,-102.27200317382812 -6.125999927520752,-94.9489974975586 C-50.93600082397461,-90.01499938964844 -44.61600112915039,-68.24600219726562 -39.632999420166016,-59.94300079345703 C-32.566001892089844,-48.167999267578125 3.634000062942505,-11.144000053405762 55.15299987792969,8.197999954223633 C99.23400115966797,24.74799919128418 124.46299743652344,29.09600067138672 141.42300415039062,40.349998474121094z"></path></g><g opacity="1" transform="matrix(1,0,0,1,256.1969909667969,194.63499450683594)"><path stroke-linecap="round" stroke-linejoin="round" fill-opacity="0" stroke="rgb(197,92,0)" stroke-opacity="1" stroke-width="8" d=" M-58.87699890136719,-79.46299743652344 C-55.349998474121094,-36.39400100708008 -87.58499908447266,0.8939999938011169 -130.27499389648438,18.985000610351562 C-130.27499389648438,18.985000610351562 -162.27499389648438,56.132999420166016 -153.3719940185547,136.2949981689453 C-153.3719940185547,136.2949981689453 -163.7310028076172,73.4469985961914 -137.83700561523438,-21.00200080871582 C-113.83100128173828,-108.56600189208984 -74.33000183105469,-122.10099792480469 -65.15799713134766,-118.51200103759766 C-65.15799713134766,-118.51200103759766 -52.24599838256836,-143.03900146484375 11.717000007629395,-134.66400146484375 C75.68000030517578,-126.28900146484375 116.14600372314453,-79.02899932861328 134.26499938964844,-23.993000030517578 C152.38400268554688,31.042999267578125 157.63699340820312,95.12999725341797 154.61700439453125,136.40699768066406 C154.61700439453125,136.40699768066406 162.29299926757812,35.909000396728516 94.44999694824219,4.131999969482422 C94.44999694824219,4.131999969482422 -1.8489999771118164,-16.191999435424805 -58.87699890136719,-79.46299743652344z"></path></g><g opacity="0.9" transform="matrix(1,0,0,1,159.51100158691406,120.5250015258789)"><path fill="url(#__lottie_element_21)" fill-opacity="1" d=" M24.785999298095703,-12.432999610900879 C25.27899932861328,-31.558000564575195 27.344999313354492,-35.83000183105469 22.952999114990234,-34.74100112915039 C8.986000061035156,-31.277000427246094 -13.767999649047852,-10.715999603271484 -25.70199966430664,27.358999252319336 C-25.11199951171875,41.301998138427734 -7.828000068664551,31.71299934387207 0.4099999964237213,31.304000854492188 C21.503000259399414,30.256000518798828 24.349000930786133,4.507999897003174 24.785999298095703,-12.432999610900879z"></path></g><g opacity="0.9" transform="matrix(1,0,0,1,282.85198974609375,113.49099731445312)"><path fill="url(#__lottie_element_22)" fill-opacity="1" d=" M-14.185999870300293,37.066001892089844 C-47.512001037597656,25.61199951171875 -71.77200317382812,-3.625 -77.19200134277344,-12.585000038146973 C-83.58000183105469,-23.145999908447266 -85.47100067138672,-32.74700164794922 -83.72799682617188,-34.72800064086914 C-76.2239990234375,-43.25600051879883 -48.0260009765625,-51.222999572753906 -8.548999786376953,-43.41400146484375 C28.011999130249023,-36.18199920654297 65.10399627685547,-8.61400032043457 83.10399627685547,25.259000778198242 C93.14399719238281,44.152000427246094 40.534000396728516,55.874000549316406 -14.185999870300293,37.066001892089844z"></path></g><g opacity="1" transform="matrix(1,0,0,1,256.16900634765625,223.1060028076172)"><path stroke-linecap="round" stroke-linejoin="round" fill-opacity="0" stroke="rgb(163,65,0)" stroke-opacity="1" stroke-width="8" d=" M154.64599609375,107.93499755859375 C154.64599609375,107.93499755859375 162.32200622558594,7.436999797821045 94.47899627685547,-24.34000015258789 C94.47899627685547,-24.34000015258789 -1.8209999799728394,-44.66400146484375 -58.8489990234375,-107.93499755859375 C-55.321998596191406,-64.86599731445312 -87.55599975585938,-27.577999114990234 -130.24600219726562,-9.487000465393066 C-130.24600219726562,-9.487000465393066 -162.24600219726562,27.660999298095703 -153.34300231933594,107.822998046875"></path></g></g></g></g></g></svg>