<svg xmlns="http://www.w3.org/2000/svg" xmlns:xlink="http://www.w3.org/1999/xlink" viewBox="0 0 512 512" width="512" height="512" style="width: 100%; height: 100%; transform: translate3d(0,0,0); content-visibility: visible;" preserveAspectRatio="xMidYMid meet"><defs><clipPath id="__lottie_element_2"><rect width="512" height="512" x="0" y="0"></rect></clipPath><linearGradient id="__lottie_element_6" spreadMethod="pad" gradientUnits="userSpaceOnUse" x1="259" y1="195" x2="258.25" y2="164.25"><stop offset="0%" stop-color="rgb(175,57,0)" stop-opacity="0"></stop><stop offset="50%" stop-color="rgb(175,57,0)" stop-opacity="0.25"></stop><stop offset="100%" stop-color="rgb(175,57,0)" stop-opacity="0.5"></stop></linearGradient><linearGradient id="__lottie_element_7" spreadMethod="pad" gradientUnits="userSpaceOnUse" x1="-112.5" y1="1" x2="114.5" y2="1"><stop offset="0%" stop-color="rgb(0,0,0)"></stop><stop offset="25%" stop-color="rgb(23,24,23)"></stop><stop offset="50%" stop-color="rgb(46,48,46)"></stop><stop offset="75%" stop-color="rgb(23,24,23)"></stop><stop offset="100%" stop-color="rgb(0,0,0)"></stop></linearGradient><radialGradient id="__lottie_element_8" spreadMethod="pad" gradientUnits="userSpaceOnUse" cx="0" cy="0" r="100" fx="0" fy="0"><stop offset="0%" stop-color="rgb(109,117,128)" stop-opacity="1"></stop><stop offset="50%" stop-color="rgb(109,117,128)" stop-opacity="0.675000011920929"></stop><stop offset="100%" stop-color="rgb(109,117,128)" stop-opacity="0.3499999940395355"></stop></radialGradient><linearGradient id="__lottie_element_9" spreadMethod="pad" gradientUnits="userSpaceOnUse" x1="-0.5" y1="86" x2="1" y2="-87.5"><stop offset="0%" stop-color="rgb(30,23,12)"></stop><stop offset="50%" stop-color="rgb(39,34,27)"></stop><stop offset="100%" stop-color="rgb(47,46,42)"></stop></linearGradient><radialGradient id="__lottie_element_10" spreadMethod="pad" gradientUnits="userSpaceOnUse" cx="-1.1829999685287476" cy="-7.2220001220703125" r="84.99039810139156" fx="-1.1829999685287476" fy="-7.2220001220703125"><stop offset="0%" stop-color="rgb(255,255,255)" stop-opacity="0.6000000238418579"></stop><stop offset="50%" stop-color="rgb(255,255,255)" stop-opacity="0.30000001192092896"></stop><stop offset="100%" stop-color="rgb(255,255,255)" stop-opacity="0"></stop></radialGradient><radialGradient id="__lottie_element_11" spreadMethod="pad" gradientUnits="userSpaceOnUse" cx="335.5" cy="185.5" r="50.451090176526414" fx="335.5" fy="185.5"><stop offset="0%" stop-color="rgb(116,198,248)" stop-opacity="1"></stop><stop offset="50%" stop-color="rgb(116,198,248)" stop-opacity="0.5"></stop><stop offset="100%" stop-color="rgb(116,198,248)" stop-opacity="0"></stop></radialGradient><linearGradient id="__lottie_element_12" spreadMethod="pad" gradientUnits="userSpaceOnUse" x1="-35" y1="-38.5" x2="-4.5" y2="45"><stop offset="0%" stop-color="rgb(241,241,250)"></stop><stop offset="25%" stop-color="rgb(239,239,250)"></stop><stop offset="50%" stop-color="rgb(237,237,249)"></stop><stop offset="52%" stop-color="rgb(218,218,233)"></stop><stop offset="54%" stop-color="rgb(198,198,216)"></stop><stop offset="77%" stop-color="rgb(208,201,218)"></stop><stop offset="100%" stop-color="rgb(218,205,220)"></stop></linearGradient><linearGradient id="__lottie_element_13" spreadMethod="pad" gradientUnits="userSpaceOnUse" x1="-93.5" y1="-1.5" x2="94.5" y2="1"><stop offset="0%" stop-color="rgb(41,45,46)"></stop><stop offset="25%" stop-color="rgb(34,36,45)"></stop><stop offset="50%" stop-color="rgb(28,28,44)"></stop><stop offset="75%" stop-color="rgb(34,36,45)"></stop><stop offset="100%" stop-color="rgb(41,45,46)"></stop></linearGradient><linearGradient id="__lottie_element_17" spreadMethod="pad" gradientUnits="userSpaceOnUse" x1="-0.013000000268220901" y1="-34.20000076293945" x2="-0.013000000268220901" y2="42.90599822998047"><stop offset="11%" stop-color="rgb(255,169,0)" stop-opacity="0"></stop><stop offset="48%" stop-color="rgb(255,169,0)" stop-opacity="0.5"></stop><stop offset="100%" stop-color="rgb(255,169,0)" stop-opacity="1"></stop></linearGradient><linearGradient id="__lottie_element_18" spreadMethod="pad" gradientUnits="userSpaceOnUse" x1="-0.492000013589859" y1="72.2040023803711" x2="-0.492000013589859" y2="-87.50199890136719"><stop offset="8%" stop-color="rgb(218,110,0)" stop-opacity="0.30000001192092896"></stop><stop offset="27%" stop-color="rgb(218,110,0)" stop-opacity="0.6499999761581421"></stop><stop offset="46%" stop-color="rgb(218,110,0)" stop-opacity="1"></stop><stop offset="59%" stop-color="rgb(218,110,0)" stop-opacity="0.5"></stop><stop offset="79%" stop-color="rgb(218,110,0)" stop-opacity="0"></stop></linearGradient><linearGradient id="__lottie_element_22" spreadMethod="pad" gradientUnits="userSpaceOnUse" x1="-4.111000061035156" y1="-5.998000144958496" x2="7.769999980926514" y2="12.388999938964844"><stop offset="0%" stop-color="rgb(66,0,0)"></stop><stop offset="38%" stop-color="rgb(118,40,0)"></stop><stop offset="100%" stop-color="rgb(170,80,0)"></stop></linearGradient><radialGradient id="__lottie_element_23" spreadMethod="pad" gradientUnits="userSpaceOnUse" cx="-0.17299999296665192" cy="-0.2150000035762787" r="9.42800010740757" fx="-0.17299999296665192" fy="-0.2150000035762787"><stop offset="0%" stop-color="rgb(246,175,0)" stop-opacity="1"></stop><stop offset="52%" stop-color="rgb(246,175,0)" stop-opacity="0.5"></stop><stop offset="100%" stop-color="rgb(246,175,0)" stop-opacity="0"></stop></radialGradient><linearGradient id="__lottie_element_24" spreadMethod="pad" gradientUnits="userSpaceOnUse" x1="-13.187000274658203" y1="-5.998000144958496" x2="-1.305999994277954" y2="12.388999938964844"><stop offset="0%" stop-color="rgb(66,0,0)"></stop><stop offset="38%" stop-color="rgb(118,40,0)"></stop><stop offset="100%" stop-color="rgb(170,80,0)"></stop></linearGradient><radialGradient id="__lottie_element_25" spreadMethod="pad" gradientUnits="userSpaceOnUse" cx="-0.17900000512599945" cy="-0.2150000035762787" r="9.42799960076809" fx="-0.17900000512599945" fy="-0.2150000035762787"><stop offset="0%" stop-color="rgb(246,175,0)" stop-opacity="1"></stop><stop offset="52%" stop-color="rgb(246,175,0)" stop-opacity="0.5"></stop><stop offset="100%" stop-color="rgb(246,175,0)" stop-opacity="0"></stop></radialGradient><radialGradient id="__lottie_element_26" spreadMethod="pad" gradientUnits="userSpaceOnUse" cx="-0.902999997138977" cy="1.4160000085830688" r="25.22809154558572" fx="-0.902999997138977" fy="1.4160000085830688"><stop offset="10%" stop-color="rgb(219,110,0)" stop-opacity="1"></stop><stop offset="67%" stop-color="rgb(219,110,0)" stop-opacity="0.5"></stop><stop offset="100%" stop-color="rgb(219,110,0)" stop-opacity="0"></stop></radialGradient><radialGradient id="__lottie_element_27" spreadMethod="pad" gradientUnits="userSpaceOnUse" cx="-1.5290000438690186" cy="0.8040000200271606" r="31.72699999809265" fx="-1.5290000438690186" fy="0.8040000200271606"><stop offset="0%" stop-color="rgb(255,255,254)" stop-opacity="1"></stop><stop offset="63%" stop-color="rgb(255,255,254)" stop-opacity="0.5"></stop><stop offset="100%" stop-color="rgb(255,255,254)" stop-opacity="0"></stop></radialGradient><linearGradient id="__lottie_element_28" spreadMethod="pad" gradientUnits="userSpaceOnUse" x1="-0.5289999842643738" y1="14.770000457763672" x2="-0.5289999842643738" y2="-11.942999839782715"><stop offset="0%" stop-color="rgb(255,168,0)" stop-opacity="1"></stop><stop offset="66%" stop-color="rgb(255,168,0)" stop-opacity="0.5"></stop><stop offset="100%" stop-color="rgb(255,168,0)" stop-opacity="0"></stop></linearGradient><linearGradient id="__lottie_element_29" spreadMethod="pad" gradientUnits="userSpaceOnUse" x1="-0.5289999842643738" y1="8.281000137329102" x2="-0.625" y2="-2.634000062942505"><stop offset="0%" stop-color="rgb(88,11,14)" stop-opacity="0"></stop><stop offset="36%" stop-color="rgb(88,11,14)" stop-opacity="0.5"></stop><stop offset="80%" stop-color="rgb(88,11,14)" stop-opacity="1"></stop></linearGradient><radialGradient id="__lottie_element_30" spreadMethod="pad" gradientUnits="userSpaceOnUse" cx="-0.5289999842643738" cy="1.5499999523162842" r="52.9469992518425" fx="-0.5289999842643738" fy="1.5499999523162842"><stop offset="53%" stop-color="rgb(255,169,0)" stop-opacity="0"></stop><stop offset="73%" stop-color="rgb(255,169,0)" stop-opacity="0.5"></stop><stop offset="90%" stop-color="rgb(255,169,0)" stop-opacity="1"></stop></radialGradient><linearGradient id="__lottie_element_31" spreadMethod="pad" gradientUnits="userSpaceOnUse" x1="-0.5289999842643738" y1="4.866000175476074" x2="-0.5289999842643738" y2="-5.145999908447266"><stop offset="23%" stop-color="rgb(163,65,0)" stop-opacity="1"></stop><stop offset="64%" stop-color="rgb(163,65,0)" stop-opacity="0.6499999761581421"></stop><stop offset="97%" stop-color="rgb(163,65,0)" stop-opacity="0.30000001192092896"></stop></linearGradient><linearGradient id="__lottie_element_32" spreadMethod="pad" gradientUnits="userSpaceOnUse" x1="-0.9419999718666077" y1="-4.822000026702881" x2="-1.8990000486373901" y2="20.549999237060547"><stop offset="0%" stop-color="rgb(255,168,0)" stop-opacity="1"></stop><stop offset="66%" stop-color="rgb(255,168,0)" stop-opacity="0.5"></stop><stop offset="100%" stop-color="rgb(255,168,0)" stop-opacity="0"></stop></linearGradient><linearGradient id="__lottie_element_33" spreadMethod="pad" gradientUnits="userSpaceOnUse" x1="-0.9419999718666077" y1="16.430999755859375" x2="-0.9419999718666077" y2="-6.739999771118164"><stop offset="11%" stop-color="rgb(219,110,0)" stop-opacity="1"></stop><stop offset="51%" stop-color="rgb(219,110,0)" stop-opacity="0.5"></stop><stop offset="80%" stop-color="rgb(219,110,0)" stop-opacity="0"></stop></linearGradient><radialGradient id="__lottie_element_34" spreadMethod="pad" gradientUnits="userSpaceOnUse" cx="-0.9419999718666077" cy="-6.89300012588501" r="26.38299995660782" fx="-0.9419999718666077" fy="-6.89300012588501"><stop offset="37%" stop-color="rgb(255,168,0)" stop-opacity="0"></stop><stop offset="75%" stop-color="rgb(255,168,0)" stop-opacity="0.5"></stop><stop offset="100%" stop-color="rgb(255,168,0)" stop-opacity="1"></stop></radialGradient><linearGradient id="__lottie_element_35" spreadMethod="pad" gradientUnits="userSpaceOnUse" x1="-0.9419999718666077" y1="-8.743000030517578" x2="-0.9419999718666077" y2="5.751999855041504"><stop offset="0%" stop-color="rgb(255,255,254)" stop-opacity="1"></stop><stop offset="50%" stop-color="rgb(255,255,254)" stop-opacity="0.5"></stop><stop offset="100%" stop-color="rgb(255,255,254)" stop-opacity="0"></stop></linearGradient><linearGradient id="__lottie_element_36" spreadMethod="pad" gradientUnits="userSpaceOnUse" x1="-0.9539999961853027" y1="-4.363999843597412" x2="-0.8339999914169312" y2="4.1570000648498535"><stop offset="0%" stop-color="rgb(255,255,255)" stop-opacity="1"></stop><stop offset="58%" stop-color="rgb(255,255,255)" stop-opacity="0.5"></stop><stop offset="100%" stop-color="rgb(255,255,255)" stop-opacity="0"></stop></linearGradient><linearGradient id="__lottie_element_37" spreadMethod="pad" gradientUnits="userSpaceOnUse" x1="-0.878000020980835" y1="-4.363999843597412" x2="-0.734000027179718" y2="4.061999797821045"><stop offset="0%" stop-color="rgb(255,255,255)" stop-opacity="1"></stop><stop offset="58%" stop-color="rgb(255,255,255)" stop-opacity="0.5"></stop><stop offset="100%" stop-color="rgb(255,255,255)" stop-opacity="0"></stop></linearGradient><linearGradient id="__lottie_element_41" spreadMethod="pad" gradientUnits="userSpaceOnUse" x1="-20.305999755859375" y1="-102.7040023803711" x2="-5.752999782562256" y2="-27.639999389648438"><stop offset="0%" stop-color="rgb(219,110,0)" stop-opacity="1"></stop><stop offset="39%" stop-color="rgb(219,110,0)" stop-opacity="0.5"></stop><stop offset="71%" stop-color="rgb(219,110,0)" stop-opacity="0"></stop></linearGradient><linearGradient id="__lottie_element_42" spreadMethod="pad" gradientUnits="userSpaceOnUse" x1="0.057999998331069946" y1="-112.7699966430664" x2="-2.494999885559082" y2="103.48500061035156"><stop offset="6%" stop-color="rgb(255,216,0)" stop-opacity="0"></stop><stop offset="15%" stop-color="rgb(255,216,0)" stop-opacity="0.5"></stop><stop offset="51%" stop-color="rgb(255,216,0)" stop-opacity="1"></stop><stop offset="89%" stop-color="rgb(255,216,0)" stop-opacity="0.5"></stop><stop offset="100%" stop-color="rgb(255,216,0)" stop-opacity="0"></stop></linearGradient><linearGradient id="__lottie_element_49" spreadMethod="pad" gradientUnits="userSpaceOnUse" x1="-10" y1="-18.5" x2="7.5" y2="-12"><stop offset="34%" stop-color="rgb(255,255,255)"></stop><stop offset="41%" stop-color="rgb(183,187,190)"></stop><stop offset="49%" stop-color="rgb(110,120,125)"></stop><stop offset="60%" stop-color="rgb(145,152,157)"></stop><stop offset="71%" stop-color="rgb(180,185,188)"></stop><stop offset="85%" stop-color="rgb(134,137,139)"></stop><stop offset="100%" stop-color="rgb(89,90,90)"></stop></linearGradient><linearGradient id="__lottie_element_50" spreadMethod="pad" gradientUnits="userSpaceOnUse" x1="-17.5" y1="0.25" x2="13.5" y2="10.25"><stop offset="0%" stop-color="rgb(35,35,40)"></stop><stop offset="24%" stop-color="rgb(47,47,53)"></stop><stop offset="47%" stop-color="rgb(59,59,66)"></stop><stop offset="55%" stop-color="rgb(53,53,58)"></stop><stop offset="63%" stop-color="rgb(47,46,51)"></stop><stop offset="70%" stop-color="rgb(53,53,58)"></stop><stop offset="77%" stop-color="rgb(59,59,66)"></stop><stop offset="89%" stop-color="rgb(50,52,54)"></stop><stop offset="100%" stop-color="rgb(40,45,42)"></stop></linearGradient><linearGradient id="__lottie_element_51" spreadMethod="pad" gradientUnits="userSpaceOnUse" x1="-3.25" y1="-11" x2="5.75" y2="13.75"><stop offset="0%" stop-color="rgb(226,226,226)"></stop><stop offset="30%" stop-color="rgb(152,152,152)"></stop><stop offset="61%" stop-color="rgb(79,79,79)"></stop><stop offset="80%" stop-color="rgb(108,111,112)"></stop><stop offset="100%" stop-color="rgb(138,143,146)"></stop></linearGradient><linearGradient id="__lottie_element_52" spreadMethod="pad" gradientUnits="userSpaceOnUse" x1="-24.625" y1="9.625" x2="32.75" y2="-14.125"><stop offset="0%" stop-color="rgb(255,255,255)" stop-opacity="1"></stop><stop offset="50%" stop-color="rgb(175,236,248)" stop-opacity="0.550000011920929"></stop><stop offset="100%" stop-color="rgb(94,218,240)" stop-opacity="0.10000000149011612"></stop></linearGradient><linearGradient id="__lottie_element_53" spreadMethod="pad" gradientUnits="userSpaceOnUse" x1="-24.5" y1="7.25" x2="31.75" y2="-14"><stop offset="0%" stop-color="rgb(73,255,255)" stop-opacity="1"></stop><stop offset="50%" stop-color="rgb(73,255,255)" stop-opacity="0.625"></stop><stop offset="100%" stop-color="rgb(73,255,255)" stop-opacity="0.25"></stop></linearGradient><linearGradient id="__lottie_element_54" spreadMethod="pad" gradientUnits="userSpaceOnUse" x1="-9.75" y1="1.75" x2="33.5" y2="-14.375"><stop offset="0%" stop-color="rgb(255,255,255)" stop-opacity="1"></stop><stop offset="50%" stop-color="rgb(255,255,255)" stop-opacity="0.75"></stop><stop offset="100%" stop-color="rgb(255,255,255)" stop-opacity="0.5"></stop></linearGradient><radialGradient id="__lottie_element_55" spreadMethod="pad" gradientUnits="userSpaceOnUse" cx="0" cy="0" r="15.258194519667128" fx="0" fy="0"><stop offset="0%" stop-color="rgb(255,255,255)" stop-opacity="1"></stop><stop offset="50%" stop-color="rgb(128,201,253)" stop-opacity="0.5"></stop><stop offset="100%" stop-color="rgb(0,148,251)" stop-opacity="0"></stop></radialGradient><linearGradient id="__lottie_element_59" spreadMethod="pad" gradientUnits="userSpaceOnUse" x1="-64.5" y1="49.5" x2="51.5" y2="-30.5"><stop offset="0%" stop-color="rgb(53,66,143)"></stop><stop offset="17%" stop-color="rgb(78,92,172)"></stop><stop offset="33%" stop-color="rgb(104,118,201)"></stop><stop offset="38%" stop-color="rgb(112,127,217)"></stop><stop offset="43%" stop-color="rgb(121,137,233)"></stop><stop offset="72%" stop-color="rgb(103,128,233)"></stop><stop offset="100%" stop-color="rgb(86,119,233)"></stop></linearGradient><linearGradient id="__lottie_element_60" spreadMethod="pad" gradientUnits="userSpaceOnUse" x1="25" y1="59.5" x2="-24" y2="-51"><stop offset="0%" stop-color="rgb(83,112,207)"></stop><stop offset="3%" stop-color="rgb(103,143,231)"></stop><stop offset="5%" stop-color="rgb(123,174,255)"></stop><stop offset="35%" stop-color="rgb(121,158,242)"></stop><stop offset="65%" stop-color="rgb(118,142,229)"></stop><stop offset="82%" stop-color="rgb(87,109,185)"></stop><stop offset="100%" stop-color="rgb(57,77,140)"></stop></linearGradient><linearGradient id="__lottie_element_61" spreadMethod="pad" gradientUnits="userSpaceOnUse" x1="75" y1="43" x2="-50.5" y2="-28.5"><stop offset="0%" stop-color="rgb(65,78,155)"></stop><stop offset="11%" stop-color="rgb(80,99,198)"></stop><stop offset="22%" stop-color="rgb(95,119,240)"></stop><stop offset="33%" stop-color="rgb(99,140,245)"></stop><stop offset="44%" stop-color="rgb(104,161,250)"></stop><stop offset="72%" stop-color="rgb(95,140,241)"></stop><stop offset="100%" stop-color="rgb(86,119,233)"></stop></linearGradient><linearGradient id="__lottie_element_62" spreadMethod="pad" gradientUnits="userSpaceOnUse" x1="-31" y1="59.5" x2="14" y2="-56.5"><stop offset="0%" stop-color="rgb(86,115,214)"></stop><stop offset="36%" stop-color="rgb(96,149,232)"></stop><stop offset="72%" stop-color="rgb(107,183,250)"></stop><stop offset="86%" stop-color="rgb(92,139,201)"></stop><stop offset="100%" stop-color="rgb(77,95,152)"></stop></linearGradient><linearGradient id="__lottie_element_66" spreadMethod="pad" gradientUnits="userSpaceOnUse" x1="4.5" y1="-24.5" x2="2" y2="13.5"><stop offset="38%" stop-color="rgb(184,192,198)"></stop><stop offset="40%" stop-color="rgb(173,186,197)"></stop><stop offset="41%" stop-color="rgb(162,181,195)"></stop><stop offset="70%" stop-color="rgb(173,186,197)"></stop><stop offset="100%" stop-color="rgb(184,192,198)"></stop></linearGradient><radialGradient id="__lottie_element_70" spreadMethod="pad" gradientUnits="userSpaceOnUse" cx="-0.7599999904632568" cy="52.91999816894531" r="56.77800077925188" fx="-0.7599999904632568" fy="52.91999816894531"><stop offset="19%" stop-color="rgb(255,163,0)" stop-opacity="1"></stop><stop offset="66%" stop-color="rgb(255,163,0)" stop-opacity="0.5"></stop><stop offset="99%" stop-color="rgb(255,163,0)" stop-opacity="0"></stop></radialGradient><linearGradient id="__lottie_element_74" spreadMethod="pad" gradientUnits="userSpaceOnUse" x1="9.25" y1="17.75" x2="8.75" y2="-20.5"><stop offset="0%" stop-color="rgb(63,82,96)"></stop><stop offset="24%" stop-color="rgb(72,88,102)"></stop><stop offset="47%" stop-color="rgb(82,96,109)"></stop><stop offset="50%" stop-color="rgb(92,101,114)"></stop><stop offset="53%" stop-color="rgb(103,107,120)"></stop><stop offset="76%" stop-color="rgb(111,115,125)"></stop><stop offset="100%" stop-color="rgb(120,122,131)"></stop></linearGradient></defs><g clip-path="url(#__lottie_element_2)"><g style="display: block;" transform="matrix(1,0,0,1,2,0)" opacity="1"><g opacity="1" transform="matrix(0.878279983997345,0,0,0.878279983997345,14.502487182617188,23.995758056640625)"><g opacity="1" transform="matrix(1,0,0,1,0,0)"><g opacity="1" transform="matrix(1,0,0,1,101.72799682617188,197.13800048828125)"><path stroke-linecap="round" stroke-linejoin="round" fill-opacity="0" stroke="rgb(63,81,95)" stroke-opacity="1" stroke-width="18" d=" M355.8810119628906,20.88599967956543 C355.8810119628906,20.88599967956543 -4.625,20.94700050354004 -4.625,20.94700050354004 C-4.625,20.94700050354004 -4.625,-20.94700050354004 -4.625,-20.94700050354004 C-4.625,-20.94700050354004 355.8810119628906,-21.006999969482422 355.8810119628906,-21.006999969482422 C355.8810119628906,-21.006999969482422 355.8810119628906,20.88599967956543 355.8810119628906,20.88599967956543z"></path><path fill="url(#__lottie_element_74)" fill-opacity="1" d=" M355.8810119628906,20.88599967956543 C355.8810119628906,20.88599967956543 -4.625,20.94700050354004 -4.625,20.94700050354004 C-4.625,20.94700050354004 -4.625,-20.94700050354004 -4.625,-20.94700050354004 C-4.625,-20.94700050354004 355.8810119628906,-21.006999969482422 355.8810119628906,-21.006999969482422 C355.8810119628906,-21.006999969482422 355.8810119628906,20.88599967956543 355.8810119628906,20.88599967956543z"></path></g></g></g></g><g style="display: block;" transform="matrix(1,0,0,1,9.000015258789062,2)" opacity="1"><g opacity="1" transform="matrix(1,0,0,1,251.50999450683594,369.885009765625)"><path fill="rgb(192,98,0)" fill-opacity="1" d=" M40.07600021362305,-28.299999237060547 C40.07600021362305,-28.299999237060547 0,-25.256999969482422 0,-25.256999969482422 C0,-25.256999969482422 -40.07600021362305,-28.299999237060547 -40.07600021362305,-28.299999237060547 C-40.07600021362305,-28.299999237060547 -41,42.755001068115234 -41,42.755001068115234 C-41,42.755001068115234 -23.14299964904785,49.54999923706055 0.06199999898672104,49.54999923706055 C23.267000198364258,49.54999923706055 41.124000549316406,42.755001068115234 41.124000549316406,42.755001068115234 C41.124000549316406,42.755001068115234 40.07600021362305,-28.299999237060547 40.07600021362305,-28.299999237060547z"></path></g><g opacity="1" transform="matrix(1,0,0,1,251.50999450683594,369.885009765625)"><path fill="url(#__lottie_element_70)" fill-opacity="1" d=" M40.07600021362305,-28.299999237060547 C40.07600021362305,-28.299999237060547 0,-25.256999969482422 0,-25.256999969482422 C0,-25.256999969482422 -40.07600021362305,-28.299999237060547 -40.07600021362305,-28.299999237060547 C-40.07600021362305,-28.299999237060547 -41,42.755001068115234 -41,42.755001068115234 C-41,42.755001068115234 -23.14299964904785,49.54999923706055 0.06199999898672104,49.54999923706055 C23.267000198364258,49.54999923706055 41.124000549316406,42.755001068115234 41.124000549316406,42.755001068115234 C41.124000549316406,42.755001068115234 40.07600021362305,-28.299999237060547 40.07600021362305,-28.299999237060547z"></path></g></g><g style="display: block;" transform="matrix(1,0,0,1,0,0)" opacity="1"><g opacity="1" transform="matrix(1,0,0,1,0,0)"><g opacity="1" transform="matrix(1,0,0,1,260.2229919433594,441.8559875488281)"><path fill="url(#__lottie_element_66)" fill-opacity="1" d=" M-27.893999099731445,-25.422000885009766 C-27.893999099731445,-25.422000885009766 -14.795000076293945,-21.430999755859375 -0.20100000500679016,-21.843000411987305 C14.394000053405762,-22.2549991607666 27.893999099731445,-25.422000885009766 27.893999099731445,-25.422000885009766 C27.893999099731445,-25.422000885009766 18.131999969482422,23.753999710083008 -0.20100000500679016,24.58799934387207 C-18.534000396728516,25.42099952697754 -27.893999099731445,-25.422000885009766 -27.893999099731445,-25.422000885009766z"></path><path stroke-linecap="butt" stroke-linejoin="miter" fill-opacity="0" stroke-miterlimit="4" stroke="rgb(111,125,136)" stroke-opacity="1" stroke-width="8" d=" M-27.893999099731445,-25.422000885009766 C-27.893999099731445,-25.422000885009766 -14.795000076293945,-21.430999755859375 -0.20100000500679016,-21.843000411987305 C14.394000053405762,-22.2549991607666 27.893999099731445,-25.422000885009766 27.893999099731445,-25.422000885009766 C27.893999099731445,-25.422000885009766 18.131999969482422,23.753999710083008 -0.20100000500679016,24.58799934387207 C-18.534000396728516,25.42099952697754 -27.893999099731445,-25.422000885009766 -27.893999099731445,-25.422000885009766z"></path></g></g></g><g style="display: block;" transform="matrix(1,0,0,1,0,0)" opacity="1"><g opacity="1" transform="matrix(1,0,0,1,0,0)"><g opacity="1" transform="matrix(1,0,0,1,0,0)"><g opacity="1" transform="matrix(1,0,0,1,185.13400268554688,424.2449951171875)"><path fill="url(#__lottie_element_59)" fill-opacity="1" d=" M31.63599967956543,-52.57899856567383 C31.63599967956543,-52.57899856567383 16.9689998626709,-50.9119987487793 -16.0310001373291,-39.9119987487793 C-49.03099822998047,-28.91200065612793 -56.36399841308594,-18.57900047302246 -56.36399841308594,-18.57900047302246 C-56.36399841308594,-18.57900047302246 -61.03099822998047,-16.91200065612793 -64.36399841308594,-11.911999702453613 C-67.6969985961914,-6.9120001792907715 -76.36399841308594,38.327999114990234 -76.36399841308594,38.327999114990234 C-76.36399841308594,38.327999114990234 -69.63400268554688,51.005001068115234 -42.90599822998047,52.4109992980957 C-21.1560001373291,53.55500030517578 75.03199768066406,52.73500061035156 75.03199768066406,52.73500061035156 C75.03199768066406,52.73500061035156 80.36499786376953,43.29100036621094 80.36499786376953,43.29100036621094 C80.36499786376953,43.29100036621094 31.63599967956543,-52.57899856567383 31.63599967956543,-52.57899856567383z"></path></g></g><g opacity="1" transform="matrix(1,0,0,1,0,0)"><g opacity="1" transform="matrix(1,0,0,1,185.13400268554688,424.2449951171875)"><path stroke-linecap="round" stroke-linejoin="round" fill-opacity="0" stroke="rgb(37,60,139)" stroke-opacity="1" stroke-width="8" d=" M75.81400299072266,48.702999114990234 C75.81400299072266,48.702999114990234 80.36499786376953,43.29100036621094 80.36499786376953,43.29100036621094 C80.36499786376953,43.29100036621094 31.63599967956543,-52.57899856567383 31.63599967956543,-52.57899856567383 C31.63599967956543,-52.57899856567383 16.9689998626709,-50.9119987487793 -16.0310001373291,-39.9119987487793 C-49.03099822998047,-28.91200065612793 -56.36399841308594,-18.57900047302246 -56.36399841308594,-18.57900047302246 C-56.36399841308594,-18.57900047302246 -61.03099822998047,-16.91200065612793 -64.36399841308594,-11.911999702453613 C-67.6969985961914,-6.9120001792907715 -75.61399841308594,35.577999114990234 -75.61399841308594,35.577999114990234"></path></g></g><g opacity="1" transform="matrix(1,0,0,1,0,0)"><g opacity="0.5" transform="matrix(1,0,0,1,0,0)"><path fill="rgb(46,71,157)" fill-opacity="1" d=" M202.5,381.25 C202.5,381.25 193.25,404.25 194,423.25 C194.75,442.25 199.25,453 205,454 C210.75,455 221.25,441.25 226.25,440.5 C231.25,439.75 258.43798828125,471.43798828125 258.43798828125,471.43798828125 C258.43798828125,471.43798828125 259.75,465.75 259.75,465.75 C259.75,465.75 250.75,441.25 242,426.5 C233.25,411.75 202.5,381.25 202.5,381.25z"></path></g><g opacity="1" transform="matrix(1,0,0,1,233.37899780273438,414.43499755859375)"><path fill="url(#__lottie_element_60)" fill-opacity="1" d=" M-12.609000205993652,-53.10200119018555 C-12.609000205993652,-53.10200119018555 -25.608999252319336,-46.435001373291016 -30.275999069213867,-20.434999465942383 C-33.82899856567383,-0.6359999775886536 -31.391000747680664,15.684000015258789 -30.024999618530273,22.341999053955078 C-29.691999435424805,23.969999313354492 -27.8799991607666,24.80299949645996 -26.42099952697754,24.007999420166016 C-26.42099952697754,24.007999420166016 -20.270999908447266,17.775999069213867 -12.552000045776367,14.442000389099121 C-4.831999778747559,11.109000205993652 0.057999998331069946,9.5649995803833 0.057999998331069946,9.5649995803833 C0.057999998331069946,9.5649995803833 0.0010000000474974513,17.065000534057617 0.0010000000474974513,17.065000534057617 C0.0010000000474974513,17.065000534057617 6.303999900817871,21.95599937438965 15.454999923706055,33.23099899291992 C25.3799991607666,45.46099853515625 32.119998931884766,53.10200119018555 32.119998931884766,53.10200119018555 C32.119998931884766,53.10200119018555 26.851999282836914,40.689998626708984 12.932999610900879,12.39799976348877 C1.4889999628067017,-10.86299991607666 -5.900000095367432,-28.768999099731445 -8.805999755859375,-44.95800018310547 C-9.772000312805176,-50.3390007019043 -12.609000205993652,-53.10200119018555 -12.609000205993652,-53.10200119018555z"></path><path stroke-linecap="round" stroke-linejoin="round" fill-opacity="0" stroke="rgb(36,60,138)" stroke-opacity="1" stroke-width="8" d=" M-12.609000205993652,-53.10200119018555 C-12.609000205993652,-53.10200119018555 -25.608999252319336,-46.435001373291016 -30.275999069213867,-20.434999465942383 C-33.82899856567383,-0.6359999775886536 -31.391000747680664,15.684000015258789 -30.024999618530273,22.341999053955078 C-29.691999435424805,23.969999313354492 -27.8799991607666,24.80299949645996 -26.42099952697754,24.007999420166016 C-26.42099952697754,24.007999420166016 -20.270999908447266,17.775999069213867 -12.552000045776367,14.442000389099121 C-4.831999778747559,11.109000205993652 0.057999998331069946,9.5649995803833 0.057999998331069946,9.5649995803833 C0.057999998331069946,9.5649995803833 0.0010000000474974513,17.065000534057617 0.0010000000474974513,17.065000534057617 C0.0010000000474974513,17.065000534057617 6.303999900817871,21.95599937438965 15.454999923706055,33.23099899291992 C25.3799991607666,45.46099853515625 32.119998931884766,53.10200119018555 32.119998931884766,53.10200119018555 C32.119998931884766,53.10200119018555 26.851999282836914,40.689998626708984 12.932999610900879,12.39799976348877 C1.4889999628067017,-10.86299991607666 -5.900000095367432,-28.768999099731445 -8.805999755859375,-44.95800018310547 C-9.772000312805176,-50.3390007019043 -12.609000205993652,-53.10200119018555 -12.609000205993652,-53.10200119018555z"></path></g></g><g opacity="0.5" transform="matrix(1,0,0,1,0.5,0)"><g opacity="1" transform="matrix(1,0,0,1,0,0)"><g opacity="1" transform="matrix(1,0,0,1,0,0)"><path fill="rgb(114,164,234)" fill-opacity="1" d=" M203.5,378.5 C203.5,378.5 189.75,381.25 170.25,388 C155.86099243164062,392.9809875488281 138.875,400.625 131.49200439453125,408.2149963378906 C129.7989959716797,409.95599365234375 127.5,409.25 123.81199645996094,414.375 C120.1240005493164,419.5 119.05899810791016,431.4519958496094 119.05899810791016,431.4519958496094 C119.05899810791016,431.4519958496094 123.5,419.875 125.31199645996094,418.375 C127.1240005493164,416.875 128.98199462890625,432.9849853515625 133.02099609375,445.8609924316406 C136.55999755859375,457.14300537109375 140.68800354003906,469.81298828125 143.68299865722656,476.406005859375 C143.875,476.875 145.71800231933594,477.0060119628906 145.6199951171875,476.73199462890625 C143.56300354003906,471 140.125,461.5 135.7949981689453,445.0169982910156 C131.72500610351562,429.52301025390625 129.38800048828125,414.7760009765625 129.69900512695312,414.3949890136719 C136.25,406.375 156.6699981689453,397.8739929199219 171.25,392.625 C190,385.875 201.5,383.75 201.5,383.75 C201.5,383.75 203.5,378.5 203.5,378.5z"></path></g></g></g></g><g opacity="1" transform="matrix(1,0,0,1,0,0)"><g opacity="1" transform="matrix(1,0,0,1,0,0)"><g opacity="1" transform="matrix(1,0,0,1,337.7239990234375,424.2449951171875)"><path fill="url(#__lottie_element_61)" fill-opacity="1" d=" M-34.347999572753906,-52.57899856567383 C-34.347999572753906,-52.57899856567383 -19.680999755859375,-50.9119987487793 13.319000244140625,-39.9119987487793 C46.319000244140625,-28.91200065612793 53.652000427246094,-18.57900047302246 53.652000427246094,-18.57900047302246 C53.652000427246094,-18.57900047302246 58.319000244140625,-16.91200065612793 61.652000427246094,-11.911999702453613 C64.98500061035156,-6.9120001792907715 71.2770004272461,38.452999114990234 71.2770004272461,38.452999114990234 C71.2770004272461,38.452999114990234 57.1510009765625,52.652000427246094 38.6510009765625,52.577999114990234 C20.150999069213867,52.50400161743164 -77.62000274658203,52.73500061035156 -77.62000274658203,52.73500061035156 C-77.62000274658203,52.73500061035156 -75.3479995727539,35.75400161743164 -75.3479995727539,35.75400161743164 C-75.3479995727539,35.75400161743164 -34.347999572753906,-52.57899856567383 -34.347999572753906,-52.57899856567383z"></path></g></g><g opacity="1" transform="matrix(1,0,0,1,0,0)"><g opacity="1" transform="matrix(1,0,0,1,337.7239990234375,424.2449951171875)"><path stroke-linecap="round" stroke-linejoin="round" fill-opacity="0" stroke="rgb(36,60,139)" stroke-opacity="1" stroke-width="8" d=" M-76.83899688720703,48.702999114990234 C-76.83899688720703,48.702999114990234 -75.3479995727539,35.75400161743164 -75.3479995727539,35.75400161743164 C-75.3479995727539,35.75400161743164 -34.347999572753906,-52.57899856567383 -34.347999572753906,-52.57899856567383 C-34.347999572753906,-52.57899856567383 -19.680999755859375,-50.9119987487793 13.319000244140625,-39.9119987487793 C46.319000244140625,-28.91200065612793 53.652000427246094,-18.57900047302246 53.652000427246094,-18.57900047302246 C53.652000427246094,-18.57900047302246 58.319000244140625,-16.91200065612793 61.652000427246094,-11.911999702453613 C63.849998474121094,-8.61400032043457 66.98300170898438,16.510000228881836 70.98999786376953,34.51300048828125"></path></g></g><g opacity="1" transform="matrix(1,0,0,1,0,0)"><g opacity="0.5" transform="matrix(1,0,0,1,0,0)"><path fill="rgb(46,71,157)" fill-opacity="1" d=" M317.25,378.5 C317.25,378.5 293.25,405 281.75,425.5 C270.25,446 260.093994140625,476.906005859375 260.093994140625,476.906005859375 C260.093994140625,476.906005859375 267.906005859375,476.875 267.906005859375,476.875 C267.906005859375,476.875 290.75,446 293.75,443 C296.8370056152344,439.9129943847656 310.75,452 316.25,452.75 C321.75,453.5 326.5,440.25 325,416.5 C323.5,392.75 317.25,378.5 317.25,378.5z"></path></g><g opacity="1" transform="matrix(1,0,0,1,289.47900390625,419.0790100097656)"><path fill="url(#__lottie_element_62)" fill-opacity="1" d=" M9.897000312805176,-57.744998931884766 C9.897000312805176,-57.744998931884766 22.89699935913086,-51.077999114990234 27.56399917602539,-25.077999114990234 C31.117000579833984,-5.2789998054504395 28.679000854492188,11.041000366210938 27.312999725341797,17.698999404907227 C26.979999542236328,19.32699966430664 25.167999267578125,20.15999984741211 23.708999633789062,19.364999771118164 C23.708999633789062,19.364999771118164 17.30900001525879,13.883000373840332 9.59000015258789,10.548999786376953 C1.8700000047683716,7.216000080108643 -1.3949999809265137,5.921999931335449 -1.3949999809265137,5.921999931335449 C-1.3949999809265137,5.921999931335449 -2.0199999809265137,14.42199993133545 -2.0199999809265137,14.42199993133545 C-2.0199999809265137,14.42199993133545 -7.353000164031982,21.33799934387207 -15.020000457763672,33.672000885009766 C-22.68600082397461,46.005001068115234 -28.687999725341797,53.62099838256836 -28.687999725341797,53.62099838256836 C-28.687999725341797,53.62099838256836 -29.56399917602539,36.047000885009766 -15.645000457763672,7.755000114440918 C-4.201000213623047,-15.505999565124512 3.187999963760376,-33.4119987487793 6.093999862670898,-49.60100173950195 C7.059999942779541,-54.981998443603516 9.897000312805176,-57.744998931884766 9.897000312805176,-57.744998931884766z"></path><path stroke-linecap="round" stroke-linejoin="round" fill-opacity="0" stroke="rgb(36,60,138)" stroke-opacity="1" stroke-width="8" d=" M9.897000312805176,-57.744998931884766 C9.897000312805176,-57.744998931884766 22.89699935913086,-51.077999114990234 27.56399917602539,-25.077999114990234 C31.117000579833984,-5.2789998054504395 28.679000854492188,11.041000366210938 27.312999725341797,17.698999404907227 C26.979999542236328,19.32699966430664 25.167999267578125,20.15999984741211 23.708999633789062,19.364999771118164 C23.708999633789062,19.364999771118164 17.30900001525879,13.883000373840332 9.59000015258789,10.548999786376953 C1.8700000047683716,7.216000080108643 -1.3949999809265137,5.921999931335449 -1.3949999809265137,5.921999931335449 C-1.3949999809265137,5.921999931335449 -2.0199999809265137,14.42199993133545 -2.0199999809265137,14.42199993133545 C-2.0199999809265137,14.42199993133545 -7.353000164031982,21.33799934387207 -15.020000457763672,33.672000885009766 C-22.68600082397461,46.005001068115234 -28.687999725341797,53.62099838256836 -28.687999725341797,53.62099838256836 C-28.687999725341797,53.62099838256836 -29.56399917602539,36.047000885009766 -15.645000457763672,7.755000114440918 C-4.201000213623047,-15.505999565124512 3.187999963760376,-33.4119987487793 6.093999862670898,-49.60100173950195 C7.059999942779541,-54.981998443603516 9.897000312805176,-57.744998931884766 9.897000312805176,-57.744998931884766z"></path></g></g><g opacity="0.5" transform="matrix(1,0,0,1,0,0)"><g opacity="0.5" transform="matrix(1,0,0,1,0,0)"><g opacity="1" transform="matrix(1,0,0,1,0,0)"><path fill="rgb(131,182,255)" fill-opacity="1" d=" M317.375,378.5 C317.375,378.5 319.375,384.375 319.375,384.375 C319.375,384.375 335.7340087890625,388.6310119628906 353.625,394.5 C377.25,402.25 388.75,413.75 388.75,413.75 C388.75,413.75 387.48199462890625,429.35400390625 384.4909973144531,441.927001953125 C381.5,454.5 375.31500244140625,476.4729919433594 375.31500244140625,476.4729919433594 C375.31500244140625,476.4729919433594 376.5,477.06298828125 377.02899169921875,476.0570068359375 C379.97698974609375,470.4490051269531 384.3550109863281,454.88299560546875 387.7799987792969,442.6839904785156 C392.5,425.875 391.9580078125,416.9049987792969 393.22900390625,416.6400146484375 C394.5,416.375 399.1940002441406,428.8739929199219 399.1940002441406,428.8739929199219 C399.1940002441406,428.8739929199219 397.625,418.25 395.625,413.875 C393.625,409.5 388.625,409 388.3919982910156,408.5559997558594 C382.25,401.125 365.59600830078125,394.08599853515625 353.5,389.75 C333.625,382.625 317.375,378.5 317.375,378.5z"></path></g></g></g></g></g><g style="display: block;" transform="matrix(1,0,0,1,0,0)" opacity="1"><g opacity="1" transform="matrix(1,0,0,1,0,0)"><g opacity="1" transform="matrix(1,0,0,1,363.7919921875,400.45599365234375)"><path fill="url(#__lottie_element_49)" fill-opacity="1" d=" M-17.68899917602539,53.33700180053711 C-17.68899917602539,53.33700180053711 -30.893999099731445,48.6870002746582 -30.893999099731445,48.6870002746582 C-30.893999099731445,48.6870002746582 -3.5350000858306885,-29.006999969482422 -3.5350000858306885,-29.006999969482422 C-1.3079999685287476,-35.17100143432617 2.6440000534057617,-40.40999984741211 7.914000034332275,-44.21200180053711 C7.914000034332275,-44.21200180053711 8.574000358581543,-44.63399887084961 8.574000358581543,-44.63399887084961 C8.574000358581543,-44.63399887084961 24.023000717163086,-53.33700180053711 24.023000717163086,-53.33700180053711 C24.023000717163086,-53.33700180053711 30.893999099731445,-41.13999938964844 30.893999099731445,-41.13999938964844 C30.893999099731445,-41.13999938964844 15.814000129699707,-32.64400100708008 15.814000129699707,-32.64400100708008 C12.984000205993652,-30.517000198364258 10.857000350952148,-27.639999389648438 9.649999618530273,-24.30299949645996 C9.649999618530273,-24.30299949645996 -17.68899917602539,53.33700180053711 -17.68899917602539,53.33700180053711z"></path><path stroke-linecap="butt" stroke-linejoin="miter" fill-opacity="0" stroke-miterlimit="4" stroke="rgb(97,97,97)" stroke-opacity="1" stroke-width="8" d=" M-17.68899917602539,53.33700180053711 C-17.68899917602539,53.33700180053711 -30.893999099731445,48.6870002746582 -30.893999099731445,48.6870002746582 C-30.893999099731445,48.6870002746582 -3.5350000858306885,-29.006999969482422 -3.5350000858306885,-29.006999969482422 C-1.3079999685287476,-35.17100143432617 2.6440000534057617,-40.40999984741211 7.914000034332275,-44.21200180053711 C7.914000034332275,-44.21200180053711 8.574000358581543,-44.63399887084961 8.574000358581543,-44.63399887084961 C8.574000358581543,-44.63399887084961 24.023000717163086,-53.33700180053711 24.023000717163086,-53.33700180053711 C24.023000717163086,-53.33700180053711 30.893999099731445,-41.13999938964844 30.893999099731445,-41.13999938964844 C30.893999099731445,-41.13999938964844 15.814000129699707,-32.64400100708008 15.814000129699707,-32.64400100708008 C12.984000205993652,-30.517000198364258 10.857000350952148,-27.639999389648438 9.649999618530273,-24.30299949645996 C9.649999618530273,-24.30299949645996 -17.68899917602539,53.33700180053711 -17.68899917602539,53.33700180053711z"></path></g><g opacity="1" transform="matrix(1,0,0,1,258,258)"><path fill="rgb(255,255,255)" fill-opacity="1" d=" M127.25,94.75 C127.25,94.75 113.875,100.375 110,106.625 C107.64299774169922,110.4260025024414 102.81199645996094,121.93800354003906 104.31199645996094,121.93800354003906 C105.81199645996094,121.93800354003906 106.75,112.375 113.5,107.625 C115.7020034790039,106.07499694824219 123.5,101.625 127.625,98.625 C128.48300170898438,98.0009994506836 127.25,94.75 127.25,94.75z"></path></g></g><g opacity="1" transform="matrix(0.8855299949645996,0,0,0.8855299949645996,38.47039794921875,53.53131103515625)"><g opacity="1" transform="matrix(1,0,0,1,336.5140075683594,458.8110046386719)"><path fill="url(#__lottie_element_50)" fill-opacity="1" d=" M-16.062999725341797,-6.671999931335449 C-15.404999732971191,-8.821999549865723 -13.748000144958496,-10.515000343322754 -11.609999656677246,-11.21399974822998 C-3.174999952316284,-13.970000267028809 18.135000228881836,-19.461999893188477 19.736000061035156,-19.66200065612793 C21.736000061035156,-19.91200065612793 23.763999938964844,-19.375 22.486000061035156,-15.911999702453613 C21.033000946044922,-11.973999977111816 17.736000061035156,1.0880000591278076 17.736000061035156,1.0880000591278076 C17.736000061035156,1.0880000591278076 11.986000061035156,8.088000297546387 11.986000061035156,8.088000297546387 C11.986000061035156,8.088000297546387 8.767999649047852,19.347000122070312 8.767999649047852,19.347000122070312 C8.767999649047852,19.347000122070312 -23.48200035095215,19.347000122070312 -23.48200035095215,19.347000122070312 C-23.48200035095215,19.347000122070312 -16.062999725341797,-6.671999931335449 -16.062999725341797,-6.671999931335449z"></path></g><g opacity="1" transform="matrix(1,0,0,1,336.5140075683594,458.8110046386719)"><path stroke-linecap="round" stroke-linejoin="miter" fill-opacity="0" stroke-miterlimit="4" stroke="rgb(27,26,30)" stroke-opacity="1" stroke-width="8" d=" M-22.704999923706055,15.324000358581543 C-22.704999923706055,15.324000358581543 -16.062999725341797,-6.671999931335449 -16.062999725341797,-6.671999931335449 C-15.404999732971191,-8.821999549865723 -13.748000144958496,-10.515000343322754 -11.609999656677246,-11.21399974822998 C-3.174999952316284,-13.970000267028809 18.145000457763672,-19.395000457763672 19.736000061035156,-19.66200065612793 C24.18000030517578,-20.409000396728516 22.486000061035156,-15.48900032043457 22.486000061035156,-15.48900032043457 C22.486000061035156,-15.48900032043457 17.736000061035156,1.0880000591278076 17.736000061035156,1.0880000591278076 C17.736000061035156,1.0880000591278076 11.986000061035156,8.088000297546387 11.986000061035156,8.088000297546387 C11.986000061035156,8.088000297546387 9.685999870300293,15.307000160217285 9.685999870300293,15.307000160217285"></path></g></g><g opacity="1" transform="matrix(1,0,0,1,0,0)"><g opacity="1" transform="matrix(1,0,0,1,403.19500732421875,347.1679992675781)"><path fill="url(#__lottie_element_51)" fill-opacity="1" d=" M12.805000305175781,-4.519000053405762 C10.430000305175781,-10.413999557495117 6.429999828338623,-14.291999816894531 4.179999828338623,-15.541999816894531 C1.9299999475479126,-16.79199981689453 -2.319999933242798,-16.79199981689453 -6.070000171661377,-13.791999816894531 C-9.819999694824219,-10.791999816894531 -15.569999694824219,-3.5420000553131104 -15.569999694824219,-1.0420000553131104 C-15.569999694824219,1.2369999885559082 -14.760000228881836,2.438999891281128 -13.156999588012695,6.333000183105469 C-11.553000450134277,10.227999687194824 -10.965999603271484,12.352999687194824 -9.354999542236328,13.96399974822998 C-7.586999893188477,15.732000350952148 1.6050000190734863,16.791000366210938 6.377999782562256,16.26099967956543 C11.151000022888184,15.730999946594238 14.156000137329102,12.72599983215332 14.86299991607666,10.25100040435791 C15.569999694824219,7.776000022888184 15.180000305175781,1.3760000467300415 12.805000305175781,-4.519000053405762z"></path><path stroke-linecap="butt" stroke-linejoin="miter" fill-opacity="0" stroke-miterlimit="4" stroke="rgb(97,97,97)" stroke-opacity="1" stroke-width="8" d=" M12.805000305175781,-4.519000053405762 C10.430000305175781,-10.413999557495117 6.429999828338623,-14.291999816894531 4.179999828338623,-15.541999816894531 C1.9299999475479126,-16.79199981689453 -2.319999933242798,-16.79199981689453 -6.070000171661377,-13.791999816894531 C-9.819999694824219,-10.791999816894531 -15.569999694824219,-3.5420000553131104 -15.569999694824219,-1.0420000553131104 C-15.569999694824219,1.2369999885559082 -14.760000228881836,2.438999891281128 -13.156999588012695,6.333000183105469 C-11.553000450134277,10.227999687194824 -10.965999603271484,12.352999687194824 -9.354999542236328,13.96399974822998 C-7.586999893188477,15.732000350952148 1.6050000190734863,16.791000366210938 6.377999782562256,16.26099967956543 C11.151000022888184,15.730999946594238 14.156000137329102,12.72599983215332 14.86299991607666,10.25100040435791 C15.569999694824219,7.776000022888184 15.180000305175781,1.3760000467300415 12.805000305175781,-4.519000053405762z"></path></g><g opacity="0.75" transform="matrix(1,0,0,1,0,0)"><path fill="rgb(255,255,255)" fill-opacity="1" d=" M403.5,335.5 C401.25,339.5 403.625,346.375 407.125,351.25 C409.63299560546875,354.7439880371094 410.3909912109375,351.17999267578125 406.75,344.125 C404.75,340.25 405.75,331.5 403.5,335.5z"></path></g></g><g opacity="1" transform="matrix(1,0,0,1,2.25,0)"><g opacity="1" transform="matrix(1,0,0,1,0,0)"><g opacity="1" transform="matrix(1,0,0,1,437.0559997558594,335.8999938964844)"><path fill="url(#__lottie_element_52)" fill-opacity="1" d=" M-8.437999725341797,15.425000190734863 C-25.80699920654297,21.975000381469727 -25.49799919128418,14.694999694824219 -27.663999557495117,8.77299976348877 C-29.829999923706055,2.8519999980926514 -35.30699920654297,-2.1500000953674316 -18.406999588012695,-8.644000053405762 C-4.704999923706055,-13.909000396728516 33.62200164794922,-21.091999053955078 35.78799819946289,-15.170999526977539 C37.95399856567383,-9.24899959564209 5.296000003814697,10.246000289916992 -8.437999725341797,15.425000190734863z"></path></g></g><g opacity="1" transform="matrix(1,0,0,1,0,0)"><g opacity="1" transform="matrix(1,0,0,1,431.43798828125,337.7619934082031)"><path fill="url(#__lottie_element_53)" fill-opacity="1" d=" M-4.181000232696533,10.263999938964844 C-14.460000038146973,14.02400016784668 -19.291000366210938,11.26200008392334 -21.0939998626709,6.334000110626221 C-22.895999908447266,1.406999945640564 -20.98699951171875,-3.819999933242798 -10.708000183105469,-7.579999923706055 C-0.42899999022483826,-11.34000015258789 26.790000915527344,-17.27400016784668 28.591999053955078,-12.345999717712402 C30.395000457763672,-7.419000148773193 6.0980000495910645,6.504000186920166 -4.181000232696533,10.263999938964844z"></path></g></g><g opacity="1" transform="matrix(1,0,0,1,0,0)"><g opacity="1" transform="matrix(1,0,0,1,426.2139892578125,339.2879943847656)"><path fill="url(#__lottie_element_54)" fill-opacity="1" d=" M-2.4749999046325684,9.180999755859375 C-9.824000358581543,11.869000434875488 -14.784000396728516,8.439000129699707 -16.079999923706055,4.894999980926514 C-17.37700080871582,1.350000023841858 -16.643999099731445,-3.4040000438690186 -9.295000076293945,-6.0920000076293945 C-1.9459999799728394,-8.779999732971191 17.284000396728516,-12.182000160217285 18.58099937438965,-8.63700008392334 C19.87700080871582,-5.0929999351501465 4.874000072479248,6.493000030517578 -2.4749999046325684,9.180999755859375z"></path></g></g></g><g opacity="1" transform="matrix(0.6134106516838074,-0.19674387574195862,0.3438703715801239,1.072123646736145,406.625,345.875)"><path fill="url(#__lottie_element_55)" fill-opacity="1" d=" M0,-15.625 C8.623437881469727,-15.625 15.625,-8.623437881469727 15.625,0 C15.625,8.623437881469727 8.623437881469727,15.625 0,15.625 C-8.623437881469727,15.625 -15.625,8.623437881469727 -15.625,0 C-15.625,-8.623437881469727 -8.623437881469727,-15.625 0,-15.625z"></path></g></g><g style="display: block;" transform="matrix(1,0,0,1,8.999984741210938,2)" opacity="1"><g opacity="1" transform="matrix(1,0,0,1,138.45799255371094,241.04100036621094)"><path fill="rgb(255,168,0)" fill-opacity="1" d=" M3.6630001068115234,-31.18199920654297 C3.6630001068115234,-31.18199920654297 -6.739999771118164,-38.25299835205078 -12.208999633789062,-28.777000427246094 C-17.211999893188477,-20.108999252319336 -7.6519999504089355,24.70199966430664 1.1799999475479126,31.9689998626709 C6.61299991607666,36.439998626708984 12.494999885559082,30.924999237060547 12.494999885559082,30.924999237060547 C16.077999114990234,28.472999572753906 10.262999534606934,-22.19300079345703 3.6630001068115234,-31.18199920654297z"></path><path stroke-linecap="round" stroke-linejoin="round" fill-opacity="0" stroke="rgb(219,110,0)" stroke-opacity="1" stroke-width="8" d=" M3.6630001068115234,-31.18199920654297 C3.6630001068115234,-31.18199920654297 -6.739999771118164,-38.25299835205078 -12.208999633789062,-28.777000427246094 C-17.211999893188477,-20.108999252319336 -7.6519999504089355,24.70199966430664 1.1799999475479126,31.9689998626709 C6.61299991607666,36.439998626708984 12.494999885559082,30.924999237060547 12.494999885559082,30.924999237060547 C16.077999114990234,28.472999572753906 10.262999534606934,-22.19300079345703 3.6630001068115234,-31.18199920654297z"></path></g><g opacity="1" transform="matrix(1,0,0,1,364.60101318359375,241.04100036621094)"><path fill="rgb(255,168,0)" fill-opacity="1" d=" M-3.6630001068115234,-31.18199920654297 C-3.6630001068115234,-31.18199920654297 6.739999771118164,-38.25299835205078 12.208999633789062,-28.777000427246094 C17.211999893188477,-20.108999252319336 7.6519999504089355,24.70199966430664 -1.1799999475479126,31.9689998626709 C-6.61299991607666,36.439998626708984 -12.494999885559082,30.924999237060547 -12.494999885559082,30.924999237060547 C-16.077999114990234,28.472999572753906 -10.262999534606934,-22.19300079345703 -3.6630001068115234,-31.18199920654297z"></path><path stroke-linecap="round" stroke-linejoin="round" fill-opacity="0" stroke="rgb(219,110,0)" stroke-opacity="1" stroke-width="8" d=" M-3.6630001068115234,-31.18199920654297 C-3.6630001068115234,-31.18199920654297 6.739999771118164,-38.25299835205078 12.208999633789062,-28.777000427246094 C17.211999893188477,-20.108999252319336 7.6519999504089355,24.70199966430664 -1.1799999475479126,31.9689998626709 C-6.61299991607666,36.439998626708984 -12.494999885559082,30.924999237060547 -12.494999885559082,30.924999237060547 C-16.077999114990234,28.472999572753906 -10.262999534606934,-22.19300079345703 -3.6630001068115234,-31.18199920654297z"></path></g></g><g style="display: block;" transform="matrix(1,0,0,1,9,2)" opacity="1"><g opacity="1" transform="matrix(1,0,0,1,251.30599975585938,222.70399475097656)"><path fill="rgb(255,168,0)" fill-opacity="1" d=" M108.3479995727539,16.783000946044922 C108.3479995727539,85.55799865722656 59.51599884033203,143.5540008544922 0.6359999775886536,143.5540008544922 C-58.244998931884766,143.5540008544922 -107.0770034790039,85.55799865722656 -107.0770034790039,16.783000946044922 C-117.91100311279297,-97.55000305175781 -57.58000183105469,-143.5540008544922 0.6359999775886536,-143.5540008544922 C57.32500076293945,-143.5540008544922 108.3479995727539,-125.61499786376953 108.3479995727539,16.783000946044922z"></path><path stroke-linecap="butt" stroke-linejoin="miter" fill-opacity="0" stroke-miterlimit="4" stroke="rgb(219,110,0)" stroke-opacity="1" stroke-width="8" d=" M108.3479995727539,16.783000946044922 C108.3479995727539,85.55799865722656 59.51599884033203,143.5540008544922 0.6359999775886536,143.5540008544922 C-58.244998931884766,143.5540008544922 -107.0770034790039,85.55799865722656 -107.0770034790039,16.783000946044922 C-117.91100311279297,-97.55000305175781 -57.58000183105469,-143.5540008544922 0.6359999775886536,-143.5540008544922 C57.32500076293945,-143.5540008544922 108.3479995727539,-125.61499786376953 108.3479995727539,16.783000946044922z"></path></g><g opacity="1" transform="matrix(1,0,0,1,251.30599975585938,222.70399475097656)"><path fill="url(#__lottie_element_41)" fill-opacity="1" d=" M108.3479995727539,16.783000946044922 C108.3479995727539,85.55799865722656 59.51599884033203,143.5540008544922 0.6359999775886536,143.5540008544922 C-58.244998931884766,143.5540008544922 -107.0770034790039,85.55799865722656 -107.0770034790039,16.783000946044922 C-117.91100311279297,-97.55000305175781 -57.58000183105469,-143.5540008544922 0.6359999775886536,-143.5540008544922 C57.32500076293945,-143.5540008544922 108.3479995727539,-125.61499786376953 108.3479995727539,16.783000946044922z"></path></g><g opacity="1" transform="matrix(1,0,0,1,251.94200134277344,246.77000427246094)"><g opacity="1" transform="matrix(1,0,0,1,0,0)"><path fill="url(#__lottie_element_42)" fill-opacity="1" d=" M97.60099792480469,-103.42900085449219 C79.12899780273438,-122.19000244140625 -96.4990005493164,-108.26200103759766 -97.7020034790039,-104.83499908447266 C-97.72000122070312,-103.47699737548828 -97.81199645996094,-18.746000289916992 -97.81199645996094,-17.09000015258789 C-97.81199645996094,44.93299865722656 -53.46799850463867,99.48600006103516 0,99.48600006103516 C53.46799850463867,99.48600006103516 97.81199645996094,44.93299865722656 97.81199645996094,-17.09000015258789 C97.81199645996094,-22.551000595092773 97.62699890136719,-102.52400207519531 97.60099792480469,-103.42900085449219z"></path></g></g></g><g style="display: block;" transform="matrix(1,0,0,1,8.999984741210938,2)" opacity="1"><g opacity="1" transform="matrix(1,0,0,1,0,0)"><g opacity="1" transform="matrix(1,0,0,1,305.0199890136719,185.29600524902344)"><path stroke-linecap="round" stroke-linejoin="round" fill-opacity="0" stroke="rgb(163,65,0)" stroke-opacity="1" stroke-width="13" d=" M-15.770000457763672,-1.2100000381469727 C-15.770000457763672,-1.2100000381469727 0.777999997138977,-5.0289998054504395 15.770000457763672,2.2160000801086426"></path></g><g opacity="1" transform="matrix(1,0,0,1,199.2779998779297,185.29600524902344)"><path stroke-linecap="round" stroke-linejoin="round" fill-opacity="0" stroke="rgb(163,65,0)" stroke-opacity="1" stroke-width="13" d=" M15.770000457763672,-1.2100000381469727 C15.770000457763672,-1.2100000381469727 -0.777999997138977,-5.0289998054504395 -15.770000457763672,2.2160000801086426"></path></g></g><g opacity="1" transform="matrix(1,0,0,1,0,0)"><g opacity="1" transform="matrix(1,0,0,1,0,0)"><g opacity="1" transform="matrix(1,0,0,1,304.406005859375,222.9980010986328)"><path fill="rgb(255,255,255)" fill-opacity="1" d=" M-28.073999404907227,13.859999656677246 C-28.073999404907227,13.859999656677246 -29.545000076293945,-3.056999921798706 -17.545000076293945,-14.050000190734863 C-7.236000061035156,-23.4950008392334 12.17300033569336,-22.56800079345703 21.899999618530273,-10.467000007629395 C29.820999145507812,-0.6140000224113464 27.934999465942383,10.87399959564209 27.934999465942383,10.87399959564209 C27.934999465942383,10.87399959564209 20.027000427246094,19.37700080871582 3.7960000038146973,20.30299949645996 C-16.854000091552734,21.48200035095215 -28.073999404907227,13.859999656677246 -28.073999404907227,13.859999656677246z"></path></g><g opacity="1" transform="matrix(1,0,0,1,303.1109924316406,222.9980010986328)"><path fill="url(#__lottie_element_22)" fill-opacity="1" d=" M17.68000030517578,0 C17.68000030517578,9.763999938964844 9.763999938964844,17.68000030517578 0,17.68000030517578 C-9.763999938964844,17.68000030517578 -17.68000030517578,9.763999938964844 -17.68000030517578,0 C-17.68000030517578,-9.763999938964844 -9.763999938964844,-17.68000030517578 0,-17.68000030517578 C9.763999938964844,-17.68000030517578 17.68000030517578,-9.763999938964844 17.68000030517578,0z"></path></g><g opacity="1" transform="matrix(1,0,0,1,312.1730041503906,232.21499633789062)"><g opacity="1" transform="matrix(1,0,0,1,0,0)"><path fill="url(#__lottie_element_23)" fill-opacity="1" d=" M-4.5329999923706055,7.6570000648498535 C-5.914999961853027,7.6570000648498535 -7.192999839782715,6.765999794006348 -7.622000217437744,5.375999927520752 C-8.14900016784668,3.6700000762939453 -7.191999912261963,1.8589999675750732 -5.485000133514404,1.3329999446868896 C-2.2200000286102295,0.32600000500679016 0.3790000081062317,-2.2109999656677246 1.4670000076293945,-5.452000141143799 C2.0360000133514404,-7.145999908447266 3.871999979019165,-8.055999755859375 5.560999870300293,-7.488999843597412 C7.255000114440918,-6.921000003814697 8.166000366210938,-5.086999893188477 7.5980000495910645,-3.3940000534057617 C5.848999977111816,1.815999984741211 1.6710000038146973,5.894000053405762 -3.5789999961853027,7.513000011444092 C-3.8959999084472656,7.611000061035156 -4.2179999351501465,7.6570000648498535 -4.5329999923706055,7.6570000648498535z"></path></g></g><g opacity="1" transform="matrix(1,0,0,1,303.1109924316406,222.9980010986328)"><path fill="rgb(24,19,9)" fill-opacity="1" d=" M11.173999786376953,0 C11.173999786376953,6.171000003814697 6.171000003814697,11.17300033569336 0,11.17300033569336 C-6.171000003814697,11.17300033569336 -11.173999786376953,6.171000003814697 -11.173999786376953,0 C-11.173999786376953,-6.171000003814697 -6.171000003814697,-11.17300033569336 0,-11.17300033569336 C6.171000003814697,-11.17300033569336 11.173999786376953,-6.171000003814697 11.173999786376953,0z"></path></g><g opacity="1" transform="matrix(1,0,0,1,304.4590148925781,218.9080047607422)"><path fill="rgb(163,65,0)" fill-opacity="1" d=" M-28.12700080871582,17.950000762939453 C-30.40999984741211,0.08699999749660492 -18.863000869750977,-18.216999053955078 0.367000013589859,-17.94700050354004 C17.656999588012695,-17.70400047302246 31.31100082397461,-2.378999948501587 27.881999969482422,14.96500015258789 C28.256000518798828,-1.1380000114440918 16.363000869750977,-14.869000434875488 -0.1469999998807907,-14.67199993133545 C-17.8799991607666,-14.460000038146973 -27.46299934387207,1.753000020980835 -28.12700080871582,17.950000762939453z"></path><path stroke-linecap="round" stroke-linejoin="round" fill-opacity="0" stroke="rgb(163,65,0)" stroke-opacity="1" stroke-width="2" d=" M-28.12700080871582,17.950000762939453 C-30.40999984741211,0.08699999749660492 -18.863000869750977,-18.216999053955078 0.367000013589859,-17.94700050354004 C17.656999588012695,-17.70400047302246 31.31100082397461,-2.378999948501587 27.881999969482422,14.96500015258789 C28.256000518798828,-1.1380000114440918 16.363000869750977,-14.869000434875488 -0.1469999998807907,-14.67199993133545 C-17.8799991607666,-14.460000038146973 -27.46299934387207,1.753000020980835 -28.12700080871582,17.950000762939453z"></path></g></g><g opacity="1" transform="matrix(1,0,0,1,0,0)"><g opacity="1" transform="matrix(1,0,0,1,199.89199829101562,222.9980010986328)"><path fill="rgb(255,255,255)" fill-opacity="1" d=" M28.073999404907227,13.859999656677246 C28.073999404907227,13.859999656677246 29.545000076293945,-3.056999921798706 17.545000076293945,-14.050000190734863 C7.236000061035156,-23.4950008392334 -12.17300033569336,-22.56800079345703 -21.899999618530273,-10.467000007629395 C-29.820999145507812,-0.6140000224113464 -27.934999465942383,10.87399959564209 -27.934999465942383,10.87399959564209 C-27.934999465942383,10.87399959564209 -20.027000427246094,19.37700080871582 -3.7960000038146973,20.30299949645996 C16.854000091552734,21.48200035095215 28.073999404907227,13.859999656677246 28.073999404907227,13.859999656677246z"></path></g><g opacity="1" transform="matrix(1,0,0,1,201.18699645996094,222.9980010986328)"><path fill="url(#__lottie_element_24)" fill-opacity="1" d=" M17.68000030517578,0 C17.68000030517578,9.763999938964844 9.763999938964844,17.68000030517578 0,17.68000030517578 C-9.763999938964844,17.68000030517578 -17.68000030517578,9.763999938964844 -17.68000030517578,0 C-17.68000030517578,-9.763999938964844 -9.763999938964844,-17.68000030517578 0,-17.68000030517578 C9.763999938964844,-17.68000030517578 17.68000030517578,-9.763999938964844 17.68000030517578,0z"></path></g><g opacity="1" transform="matrix(1,0,0,1,210.1790008544922,232.21499633789062)"><g opacity="1" transform="matrix(1,0,0,1,0,0)"><path fill="url(#__lottie_element_25)" fill-opacity="1" d=" M-4.5329999923706055,7.6570000648498535 C-5.914999961853027,7.6570000648498535 -7.192999839782715,6.765999794006348 -7.622000217437744,5.375999927520752 C-8.14900016784668,3.6700000762939453 -7.191999912261963,1.8589999675750732 -5.485000133514404,1.3329999446868896 C-2.2200000286102295,0.32600000500679016 0.3790000081062317,-2.2109999656677246 1.4670000076293945,-5.452000141143799 C2.0350000858306885,-7.145999908447266 3.871000051498413,-8.055999755859375 5.560999870300293,-7.488999843597412 C7.255000114440918,-6.921000003814697 8.166000366210938,-5.086999893188477 7.5980000495910645,-3.3940000534057617 C5.848999977111816,1.815999984741211 1.6710000038146973,5.894000053405762 -3.5789999961853027,7.513000011444092 C-3.8959999084472656,7.611000061035156 -4.2179999351501465,7.6570000648498535 -4.5329999923706055,7.6570000648498535z"></path></g></g><g opacity="1" transform="matrix(1,0,0,1,201.18699645996094,222.9980010986328)"><path fill="rgb(24,19,9)" fill-opacity="1" d=" M11.17300033569336,0 C11.17300033569336,6.171000003814697 6.171000003814697,11.17300033569336 0,11.17300033569336 C-6.171000003814697,11.17300033569336 -11.17300033569336,6.171000003814697 -11.17300033569336,0 C-11.17300033569336,-6.171000003814697 -6.171000003814697,-11.17300033569336 0,-11.17300033569336 C6.171000003814697,-11.17300033569336 11.17300033569336,-6.171000003814697 11.17300033569336,0z"></path></g><g opacity="1" transform="matrix(1,0,0,1,199.83900451660156,218.9080047607422)"><path fill="rgb(163,65,0)" fill-opacity="1" d=" M28.12700080871582,17.950000762939453 C30.40999984741211,0.08699999749660492 18.863000869750977,-18.216999053955078 -0.367000013589859,-17.94700050354004 C-17.656999588012695,-17.70400047302246 -31.31100082397461,-2.378999948501587 -27.881999969482422,14.96500015258789 C-28.256999969482422,-1.1380000114440918 -16.363000869750977,-14.869000434875488 0.1469999998807907,-14.67199993133545 C17.8799991607666,-14.460000038146973 27.46299934387207,1.753000020980835 28.12700080871582,17.950000762939453z"></path><path stroke-linecap="round" stroke-linejoin="round" fill-opacity="0" stroke="rgb(163,65,0)" stroke-opacity="1" stroke-width="2" d=" M28.12700080871582,17.950000762939453 C30.40999984741211,0.08699999749660492 18.863000869750977,-18.216999053955078 -0.367000013589859,-17.94700050354004 C-17.656999588012695,-17.70400047302246 -31.31100082397461,-2.378999948501587 -27.881999969482422,14.96500015258789 C-28.256999969482422,-1.1380000114440918 -16.363000869750977,-14.869000434875488 0.1469999998807907,-14.67199993133545 C17.8799991607666,-14.460000038146973 27.46299934387207,1.753000020980835 28.12700080871582,17.950000762939453z"></path></g></g></g><g opacity="1" transform="matrix(1,0,0,1,0,0)"><g opacity="0.5" transform="matrix(1,0,0,1,251.9029998779297,325.5840148925781)"><path fill="url(#__lottie_element_26)" fill-opacity="1" d=" M24.371999740600586,-4.915999889373779 C24.371999740600586,-0.6259999871253967 13.460000038146973,6.5929999351501465 0,6.5929999351501465 C-13.460000038146973,6.5929999351501465 -24.371999740600586,-0.6259999871253967 -24.371999740600586,-4.915999889373779 C-24.371999740600586,-9.206000328063965 -13.460000038146973,-3.9089999198913574 0,-3.9089999198913574 C13.460000038146973,-3.9089999198913574 24.371999740600586,-9.206000328063965 24.371999740600586,-4.915999889373779z"></path></g><g opacity="0.7000000000000001" transform="matrix(1,0,0,1,251.5290069580078,310.1960144042969)"><path fill="url(#__lottie_element_27)" fill-opacity="1" d=" M32.14799880981445,-5.36299991607666 C32.14799880981445,2.691999912261963 17.7549991607666,11.404000282287598 0,11.404000282287598 C-17.7549991607666,11.404000282287598 -32.14799880981445,2.691999912261963 -32.14799880981445,-5.36299991607666 C-32.14799880981445,-13.418000221252441 32.14799880981445,-13.418000221252441 32.14799880981445,-5.36299991607666z"></path></g><g opacity="1" transform="matrix(1,0,0,1,251.5290069580078,294.2300109863281)"><path fill="url(#__lottie_element_28)" fill-opacity="1" d=" M34.391998291015625,-14.13599967956543 C34.391998291015625,-14.13599967956543 -33.64099884033203,-14.13599967956543 -33.64099884033203,-14.13599967956543 C-46.237998962402344,-14.13599967956543 -59.66999816894531,-2.11299991607666 -59.66999816894531,11.678000450134277 C-59.66999816894531,13.005000114440918 -58.683998107910156,14.13599967956543 -57.28200149536133,14.13599967956543 C-57.28200149536133,14.13599967956543 57.28200149536133,14.13599967956543 57.28200149536133,14.13599967956543 C58.683998107910156,14.13599967956543 59.66999816894531,13.005000114440918 59.66999816894531,11.678000450134277 C59.66999816894531,-0.5889999866485596 46.98899841308594,-14.13599967956543 34.391998291015625,-14.13599967956543z"></path></g><g opacity="1" transform="matrix(1,0,0,1,251.5290069580078,307.718994140625)"><path fill="rgb(136,24,4)" fill-opacity="1" d=" M-28.01300048828125,-3.5339999198913574 C-28.01300048828125,-2.059999942779541 -27.408000946044922,-0.6520000100135803 -26.274999618530273,0.6460000276565552 C-22.336999893188477,5.255000114440918 -12.062999725341797,8.534000396728516 -0.006000000052154064,8.534000396728516 C12.062000274658203,8.534000396728516 22.336999893188477,5.255000114440918 26.274999618530273,0.6460000276565552 C27.408000946044922,-0.6520000100135803 28.01300048828125,-2.059999942779541 28.01300048828125,-3.5339999198913574 C28.01300048828125,-10.201000213623047 -28.01300048828125,-10.201000213623047 -28.01300048828125,-3.5339999198913574z"></path></g><g opacity="1" transform="matrix(1,0,0,1,251.5290069580078,307.718994140625)"><path fill="url(#__lottie_element_29)" fill-opacity="1" d=" M-28.01300048828125,-3.5339999198913574 C-28.01300048828125,-2.059999942779541 -27.408000946044922,-0.6520000100135803 -26.274999618530273,0.6460000276565552 C-22.336999893188477,5.255000114440918 -12.062999725341797,8.534000396728516 -0.006000000052154064,8.534000396728516 C12.062000274658203,8.534000396728516 22.336999893188477,5.255000114440918 26.274999618530273,0.6460000276565552 C27.408000946044922,-0.6520000100135803 28.01300048828125,-2.059999942779541 28.01300048828125,-3.5339999198913574 C28.01300048828125,-10.201000213623047 -28.01300048828125,-10.201000213623047 -28.01300048828125,-3.5339999198913574z"></path></g><g opacity="1" transform="matrix(1,0,0,1,251.5290069580078,293.6409912109375)"><path fill="rgb(255,206,1)" fill-opacity="1" d=" M30.30699920654297,-10.545000076293945 C30.30699920654297,-10.545000076293945 -30.30699920654297,-10.545000076293945 -30.30699920654297,-10.545000076293945 C-42.185001373291016,-10.545000076293945 -54.1609992980957,-2.2929999828338623 -55.3849983215332,8.29800033569336 C-55.52399826049805,9.503000259399414 -54.45600128173828,10.545000076293945 -53.13399887084961,10.545000076293945 C-53.13399887084961,10.545000076293945 53.132999420166016,10.545000076293945 53.132999420166016,10.545000076293945 C54.45500183105469,10.545000076293945 55.52399826049805,9.503000259399414 55.3849983215332,8.29800033569336 C54.1609992980957,-2.2929999828338623 42.185001373291016,-10.545000076293945 30.30699920654297,-10.545000076293945z"></path></g><g opacity="1" transform="matrix(1,0,0,1,251.5290069580078,293.6409912109375)"><path fill="url(#__lottie_element_30)" fill-opacity="1" d=" M30.30699920654297,-10.545000076293945 C30.30699920654297,-10.545000076293945 -30.30699920654297,-10.545000076293945 -30.30699920654297,-10.545000076293945 C-42.185001373291016,-10.545000076293945 -54.1609992980957,-2.2929999828338623 -55.3849983215332,8.29800033569336 C-55.52399826049805,9.503000259399414 -54.45600128173828,10.545000076293945 -53.13399887084961,10.545000076293945 C-53.13399887084961,10.545000076293945 53.132999420166016,10.545000076293945 53.132999420166016,10.545000076293945 C54.45500183105469,10.545000076293945 55.52399826049805,9.503000259399414 55.3849983215332,8.29800033569336 C54.1609992980957,-2.2929999828338623 42.185001373291016,-10.545000076293945 30.30699920654297,-10.545000076293945z"></path></g><g opacity="1" transform="matrix(1,0,0,1,251.5290069580078,298.1340026855469)"><path fill="url(#__lottie_element_31)" fill-opacity="1" d=" M55.382999420166016,3.805999994277954 C55.5260009765625,5.005000114440918 54.45899963378906,6.050000190734863 53.138999938964844,6.050000190734863 C53.138999938964844,6.050000190734863 -53.138999938964844,6.050000190734863 -53.138999938964844,6.050000190734863 C-54.45899963378906,6.050000190734863 -55.5260009765625,5.005000114440918 -55.382999420166016,3.805999994277954 C-54.96500015258789,0.16500000655651093 -53.270999908447266,-3.2009999752044678 -50.75199890136719,-6.050000190734863 C-51.51100158691406,-4.4770002365112305 -53.09700012207031,1.0219999551773071 -50.10200119018555,1.0449999570846558 C-50.10200119018555,1.0449999570846558 50.10300064086914,1.0449999570846558 50.10300064086914,1.0449999570846558 C53.64799880981445,1.0809999704360962 51.52199935913086,-4.4770002365112305 50.75199890136719,-6.050000190734863 C53.28200149536133,-3.2009999752044678 54.96500015258789,0.16500000655651093 55.382999420166016,3.805999994277954z"></path></g></g><g opacity="1" transform="matrix(1,0,0,1,0,0)"><g opacity="1" transform="matrix(1,0,0,1,251.94200134277344,277.8219909667969)"><path fill="url(#__lottie_element_32)" fill-opacity="1" d=" M21.90399932861328,-5.144999980926514 C21.90399932861328,4.556000232696533 13.312000274658203,12.420999526977539 0,12.420999526977539 C-13.312000274658203,12.420999526977539 -21.90399932861328,4.556000232696533 -21.90399932861328,-5.144999980926514 C-21.90399932861328,-14.845999717712402 21.90399932861328,-14.845999717712402 21.90399932861328,-5.144999980926514z"></path></g><g opacity="0.8" transform="matrix(1,0,0,1,251.94200134277344,269.5690002441406)"><path fill="rgb(255,168,0)" fill-opacity="1" d=" M22.363000869750977,-0.19200000166893005 C22.363000869750977,8.807999610900879 12.350000381469727,16.104999542236328 0,16.104999542236328 C-12.35099983215332,16.104999542236328 -22.363000869750977,8.807999610900879 -22.363000869750977,-0.19200000166893005 C-22.363000869750977,-9.192999839782715 -12.35099983215332,-16.104999542236328 0,-16.104999542236328 C12.350000381469727,-16.104999542236328 22.363000869750977,-9.192999839782715 22.363000869750977,-0.19200000166893005z"></path></g><g opacity="1" transform="matrix(1,0,0,1,251.94200134277344,269.5690002441406)"><path fill="url(#__lottie_element_33)" fill-opacity="1" d=" M22.363000869750977,-0.19200000166893005 C22.363000869750977,8.807999610900879 12.350000381469727,16.104999542236328 0,16.104999542236328 C-12.35099983215332,16.104999542236328 -22.363000869750977,8.807999610900879 -22.363000869750977,-0.19200000166893005 C-22.363000869750977,-9.192999839782715 -12.35099983215332,-16.104999542236328 0,-16.104999542236328 C12.350000381469727,-16.104999542236328 22.363000869750977,-9.192999839782715 22.363000869750977,-0.19200000166893005z"></path></g><g opacity="1" transform="matrix(1,0,0,1,251.94200134277344,265.6700134277344)"><path fill="rgb(255,216,0)" fill-opacity="1" d=" M20.351999282836914,-0.6000000238418579 C20.351999282836914,6.099999904632568 10.684000015258789,12.538999557495117 0,12.538999557495117 C-10.684000015258789,12.538999557495117 -20.351999282836914,6.099999904632568 -20.351999282836914,-0.6000000238418579 C-20.351999282836914,-7.300000190734863 -10.684000015258789,-12.538999557495117 0,-12.538999557495117 C10.684000015258789,-12.538999557495117 20.351999282836914,-7.300000190734863 20.351999282836914,-0.6000000238418579z"></path></g><g opacity="1" transform="matrix(1,0,0,1,251.94200134277344,265.6700134277344)"><path fill="url(#__lottie_element_34)" fill-opacity="1" d=" M20.351999282836914,-0.6000000238418579 C20.351999282836914,6.099999904632568 10.684000015258789,12.538999557495117 0,12.538999557495117 C-10.684000015258789,12.538999557495117 -20.351999282836914,6.099999904632568 -20.351999282836914,-0.6000000238418579 C-20.351999282836914,-7.300000190734863 -10.684000015258789,-12.538999557495117 0,-12.538999557495117 C10.684000015258789,-12.538999557495117 20.351999282836914,-7.300000190734863 20.351999282836914,-0.6000000238418579z"></path></g><g opacity="0.7000000000000001" transform="matrix(1,0,0,1,251.94200134277344,261.7430114746094)"><path fill="url(#__lottie_element_35)" fill-opacity="1" d=" M9.079999923706055,-0.9980000257492065 C9.079999923706055,3.5490000247955322 5.014999866485596,7.826000213623047 0,7.826000213623047 C-5.014999866485596,7.826000213623047 -9.079999923706055,3.5490000247955322 -9.079999923706055,-0.9980000257492065 C-9.079999923706055,-5.545000076293945 -5.014999866485596,-7.826000213623047 0,-7.826000213623047 C5.014999866485596,-7.826000213623047 9.079999923706055,-5.545000076293945 9.079999923706055,-0.9980000257492065z"></path></g></g><g opacity="1" transform="matrix(1,0,0,1,195.95399475097656,213.36399841308594)"><path fill="url(#__lottie_element_36)" fill-opacity="1" d=" M4.2820000648498535,0 C4.2820000648498535,2.50600004196167 2.365000009536743,4.5370001792907715 0,4.5370001792907715 C-2.365000009536743,4.5370001792907715 -4.2820000648498535,2.50600004196167 -4.2820000648498535,0 C-4.2820000648498535,-2.50600004196167 -2.365000009536743,-4.5370001792907715 0,-4.5370001792907715 C2.365000009536743,-4.5370001792907715 4.2820000648498535,-2.50600004196167 4.2820000648498535,0z"></path></g><g opacity="1" transform="matrix(1,0,0,1,297.87799072265625,213.36399841308594)"><path fill="url(#__lottie_element_37)" fill-opacity="1" d=" M4.2820000648498535,0 C4.2820000648498535,2.50600004196167 2.365000009536743,4.5370001792907715 0,4.5370001792907715 C-2.365000009536743,4.5370001792907715 -4.2820000648498535,2.50600004196167 -4.2820000648498535,0 C-4.2820000648498535,-2.50600004196167 -2.365000009536743,-4.5370001792907715 0,-4.5370001792907715 C2.365000009536743,-4.5370001792907715 4.2820000648498535,-2.50600004196167 4.2820000648498535,0z"></path></g></g><g style="display: block;" transform="matrix(1,0,0,1,9.000015258789062,2)" opacity="1"><g opacity="1" transform="matrix(1,0,0,1,251.01300048828125,147.1999969482422)"><path fill="rgb(255,206,1)" fill-opacity="1" d=" M-80.20600128173828,-18.17099952697754 C-80.08999633789062,-19.16900062561035 -78.94999694824219,-19.70199966430664 -78.10800170898438,-19.135000228881836 C-71.03800201416016,-14.371999740600586 -43.64099884033203,1.7740000486373901 5.363999843597412,3.755000114440918 C53.242000579833984,5.690999984741211 80.66999816894531,-0.16500000655651093 87.1989974975586,-1.7799999713897705 C87.99500274658203,-1.9769999980926514 88.7750015258789,-1.4390000104904175 88.85800170898438,-0.6349999904632568 C89.38800048828125,4.515999794006348 91.90299987792969,21.79599952697754 102.78700256347656,39.819000244140625 C103.76899719238281,41.44599914550781 104.26899719238281,43.3129997253418 104.26899719238281,45.20500183105469 C104.26899719238281,45.20500183105469 104.26899719238281,89.11900329589844 104.26899719238281,89.11900329589844 C104.26899719238281,90.61900329589844 105.7750015258789,91.73600006103516 107.20700073242188,91.22100067138672 C110.06099700927734,90.19400024414062 114.26699829101562,86.29000091552734 116.39900207519531,72.77200317382812 C119.80999755859375,51.14400100708008 127.39199829101562,15.718999862670898 120.56900024414062,-15.604999542236328 C113.74600219726562,-46.92900085449219 -61.01300048828125,-52.95000076293945 -97.39600372314453,-51.590999603271484 C-101.63899993896484,-49.167999267578125 -146.36599731445312,-16.22800064086914 -107.68599700927734,90.87699890136719 C-107.01399993896484,92.73799896240234 -103.27899932861328,93.5199966430664 -103.27899932861328,91.54499816894531 C-103.27899932861328,91.54499816894531 -103.83999633789062,45.62200164794922 -103.83999633789062,45.62200164794922 C-103.83999633789062,43.27000045776367 -103.04299926757812,40.9900016784668 -101.5989990234375,39.1150016784668 C-96.43599700927734,32.409000396728516 -83.86799621582031,13.255999565124512 -80.20600128173828,-18.17099952697754z"></path></g><g opacity="1" transform="matrix(1,0,0,1,251.01300048828125,147.1999969482422)"><path fill="url(#__lottie_element_17)" fill-opacity="1" d=" M-80.20600128173828,-18.17099952697754 C-80.08999633789062,-19.16900062561035 -78.94999694824219,-19.70199966430664 -78.10800170898438,-19.135000228881836 C-71.03800201416016,-14.371999740600586 -43.64099884033203,1.7740000486373901 5.363999843597412,3.755000114440918 C53.242000579833984,5.690999984741211 80.66999816894531,-0.16500000655651093 87.1989974975586,-1.7799999713897705 C87.99500274658203,-1.9769999980926514 88.7750015258789,-1.4390000104904175 88.85800170898438,-0.6349999904632568 C89.38800048828125,4.515999794006348 91.90299987792969,21.79599952697754 102.78700256347656,39.819000244140625 C103.76899719238281,41.44599914550781 104.26899719238281,43.3129997253418 104.26899719238281,45.20500183105469 C104.26899719238281,45.20500183105469 104.26899719238281,89.11900329589844 104.26899719238281,89.11900329589844 C104.26899719238281,90.61900329589844 105.7750015258789,91.73600006103516 107.20700073242188,91.22100067138672 C110.06099700927734,90.19400024414062 114.26699829101562,86.29000091552734 116.39900207519531,72.77200317382812 C119.80999755859375,51.14400100708008 127.39199829101562,15.718999862670898 120.56900024414062,-15.604999542236328 C113.74600219726562,-46.928001403808594 -65.01300048828125,-52.70000076293945 -97.39600372314453,-51.590999603271484 C-101.63899993896484,-49.167999267578125 -146.36599731445312,-16.22800064086914 -107.68599700927734,90.87699890136719 C-107.01399993896484,92.73799896240234 -103.27899932861328,93.5199966430664 -103.27899932861328,91.54499816894531 C-103.27899932861328,91.54499816894531 -103.83999633789062,45.62200164794922 -103.83999633789062,45.62200164794922 C-103.83999633789062,43.27000045776367 -103.04299926757812,40.9900016784668 -101.5989990234375,39.1150016784668 C-96.43599700927734,32.409000396728516 -83.86799621582031,13.255999565124512 -80.20600128173828,-18.17099952697754z"></path></g><g opacity="1" transform="matrix(1,0,0,1,251.49200439453125,147.79600524902344)"><path fill="url(#__lottie_element_18)" fill-opacity="1" d=" M114.93900299072266,77.197998046875 C112.19300079345703,86.5790023803711 106.27799987792969,94.19100189208984 106.27799987792969,92.69000244140625 C106.27799987792969,92.69000244140625 102.9489974975586,42.45399856567383 102.9489974975586,42.45399856567383 C89.88400268554688,18.322999954223633 88.91300201416016,6.826000213623047 88.38200378417969,1.6710000038146973 C88.29299926757812,0.8659999966621399 54.891998291015625,9.015999794006348 7.01800012588501,7.079999923706055 C-41.99399948120117,5.090000152587891 -74.46199798583984,-11.097999572753906 -81.53800201416016,-15.862000465393066 C-82.37899780273438,-16.42799949645996 -77.72200012207031,10.060999870300293 -102.08300018310547,41.42399978637695 C-103.52999877929688,43.2869987487793 -105.29900360107422,92.69000244140625 -105.29900360107422,92.69000244140625 C-111.30899810791016,90.95600128173828 -113.50399780273438,81.93900299072266 -115.72599792480469,71.60800170898438 C-108.4280014038086,95.3479995727539 -125.50399780273438,36.5620002746582 -121.87300109863281,-2.742000102996826 C-118.24199676513672,-42.04600143432617 -103.05500030517578,-46.91699981689453 -97.052001953125,-50.39699935913086 C-51.242000579833984,-48.79600143432617 113.75800323486328,-47.29600143432617 121.90399932861328,-5.145999908447266 C122.00800323486328,-7.796000003814697 128.32699584960938,31.457000732421875 114.93900299072266,77.197998046875z"></path></g><g opacity="1" transform="matrix(1,0,0,1,251.43800354003906,148.60699462890625)"><path stroke-linecap="round" stroke-linejoin="round" fill-opacity="0" stroke="rgb(197,92,0)" stroke-opacity="1" stroke-width="8" d=" M-80.89800262451172,-18.75 C-40.09000015258789,6.002999782562256 27.902999877929688,10.003000259399414 89.40799713134766,-0.8320000171661377 C89.40799713134766,-0.8320000171661377 89.05799865722656,18.4950008392334 103.00299835205078,41.641998291015625 C102.98899841308594,48.06800079345703 103.98600006103516,88.7979965209961 103.98600006103516,88.7979965209961 C103.98600006103516,92.5270004272461 104.88300323486328,94.37000274658203 110.82099914550781,87.90299987792969 C119.04000091552734,78.9520034790039 126.7770004272461,22.94700050354004 121.95800018310547,-11.470999717712402 C114.56199645996094,-54.356998443603516 -95.76799774169922,-58.189998626708984 -97.82099914550781,-52.99800109863281 C-111.13999938964844,-47.152000427246094 -119.85299682617188,-28.381000518798828 -122.552001953125,-2.7249999046325684 C-125.0989990234375,21.48699951171875 -122.29100036621094,51.832000732421875 -112.94599914550781,83.23100280761719 C-108.72100067138672,96.56099700927734 -103.56500244140625,98.09300231933594 -103.447998046875,85.40799713134766 C-103.33100128173828,72.7229995727539 -102.86499786376953,41.249000549316406 -102.86499786376953,41.249000549316406 C-102.86499786376953,41.249000549316406 -83.05000305175781,15.77400016784668 -80.89800262451172,-18.75z"></path></g></g><g style="display: block;" transform="matrix(1,0,0,1,2,0)" opacity="1"><g opacity="1" transform="matrix(1,0,0,1,0,0)"><path fill="url(#__lottie_element_6)" fill-opacity="1" d=" M262.5,112 C178,111 151.5,193 151.5,193 C151.5,193 144.75,224.75 144.75,224.75 C144.75,224.75 186.75100708007812,192.57400512695312 259.25,193 C344.25,193.5 372.5,224.25 372.5,224.25 C372.5,224.25 367,194.5 367,194.5 C367,194.5 347,113 262.5,112z"></path></g><g opacity="1" transform="matrix(1,0,0,1,0,-1.5)"><g opacity="1" transform="matrix(1,0,0,1,0,0)"><g opacity="1" transform="matrix(1,0,0,1,258.4049987792969,171.48599243164062)"><path fill="url(#__lottie_element_7)" fill-opacity="1" d=" M100.08200073242188,23.679000854492188 C99.8010025024414,23.43899917602539 67.35299682617188,-3.678999900817871 -0.0010000000474974513,-3.678999900817871 C-68.02200317382812,-3.678999900817871 -99.77100372314453,23.4060001373291 -100.08399963378906,23.679000854492188 C-100.08399963378906,23.679000854492188 -113.2509994506836,8.626999855041504 -113.2509994506836,8.626999855041504 C-111.74400329589844,7.308000087738037 -75.4540023803711,-23.679000854492188 -0.0010000000474974513,-23.679000854492188 C75.4530029296875,-23.679000854492188 111.74199676513672,7.308000087738037 113.25,8.626999855041504 C113.25,8.626999855041504 100.08200073242188,23.679000854492188 100.08200073242188,23.679000854492188z"></path></g></g><g opacity="1" transform="matrix(1,0,0,1,0,0)"><g opacity="1" transform="matrix(1,0,0,1,258.4049987792969,177.98599243164062)"><path fill="url(#__lottie_element_8)" fill-opacity="1" d=" M100.08300018310547,14.428999900817871 C99.802001953125,14.189000129699707 67.35399627685547,-17.179000854492188 0,-17.179000854492188 C-68.02100372314453,-17.179000854492188 -99.7699966430664,14.156000137329102 -100.08300018310547,14.428999900817871 C-100.08300018310547,14.428999900817871 -100.08300018310547,17.179000854492188 -100.08300018310547,17.179000854492188 C-99.7699966430664,16.9060001373291 -68.02100372314453,-10.178999900817871 0,-10.178999900817871 C67.35399627685547,-10.178999900817871 99.802001953125,16.93899917602539 100.08300018310547,17.179000854492188 C100.08300018310547,17.179000854492188 100.08300018310547,14.428999900817871 100.08300018310547,14.428999900817871z"></path></g></g></g><g opacity="1" transform="matrix(1,0,0,1,0,0)"><g opacity="1" transform="matrix(1,0,0,1,258.4049987792969,142.79800415039062)"><path fill="url(#__lottie_element_9)" fill-opacity="1" d=" M134.97900390625,-6.188000202178955 C118.55500030517578,-50.1879997253418 100.33200073242188,-59.9010009765625 84.09100341796875,-71.4010009765625 C67.8499984741211,-82.9010009765625 0,-82.68800354003906 0,-82.68800354003906 C0,-82.68800354003906 -67.8499984741211,-82.9010009765625 -84.09100341796875,-71.4010009765625 C-100.33200073242188,-59.9010009765625 -118.30500030517578,-50.1879997253418 -134.72900390625,-6.188000202178955 C-147.7779998779297,28.77199935913086 -147.1439971923828,64.6780014038086 -144.79100036621094,77.95700073242188 C-144.18699645996094,81.36499786376953 -141.58799743652344,84.02899932861328 -138.24200439453125,84.68800354003906 C-131.5189971923828,86.01300048828125 -120.46900177001953,86.9010009765625 -116.14900207519531,79.81199645996094 C-109.7509994506836,69.31199645996094 -98.02899932861328,43.59199905395508 -70.87100219726562,20.312000274658203 C-39.37300109863281,-6.688000202178955 -14.854999542236328,-5.188000202178955 0,-5.188000202178955 C14.854999542236328,-5.188000202178955 39.37300109863281,-6.688000202178955 70.87100219726562,20.312000274658203 C98.02899932861328,43.59199905395508 109.7509994506836,69.31199645996094 116.14900207519531,79.81199645996094 C120.46900177001953,86.9010009765625 131.5189971923828,86.01300048828125 138.24200439453125,84.68800354003906 C141.58799743652344,84.02899932861328 144.18699645996094,81.36499786376953 144.79100036621094,77.95700073242188 C147.1439971923828,64.6780014038086 148.0279998779297,28.77199935913086 134.97900390625,-6.188000202178955z"></path><path stroke-linecap="butt" stroke-linejoin="miter" fill-opacity="0" stroke-miterlimit="4" stroke="rgb(13,14,16)" stroke-opacity="1" stroke-width="8" d=" M134.97900390625,-6.188000202178955 C118.55500030517578,-50.1879997253418 100.33200073242188,-59.9010009765625 84.09100341796875,-71.4010009765625 C67.8499984741211,-82.9010009765625 0,-82.68800354003906 0,-82.68800354003906 C0,-82.68800354003906 -67.8499984741211,-82.9010009765625 -84.09100341796875,-71.4010009765625 C-100.33200073242188,-59.9010009765625 -118.30500030517578,-50.1879997253418 -134.72900390625,-6.188000202178955 C-147.7779998779297,28.77199935913086 -147.1439971923828,64.6780014038086 -144.79100036621094,77.95700073242188 C-144.18699645996094,81.36499786376953 -141.58799743652344,84.02899932861328 -138.24200439453125,84.68800354003906 C-131.5189971923828,86.01300048828125 -120.46900177001953,86.9010009765625 -116.14900207519531,79.81199645996094 C-109.7509994506836,69.31199645996094 -98.02899932861328,43.59199905395508 -70.87100219726562,20.312000274658203 C-39.37300109863281,-6.688000202178955 -14.854999542236328,-5.188000202178955 0,-5.188000202178955 C14.854999542236328,-5.188000202178955 39.37300109863281,-6.688000202178955 70.87100219726562,20.312000274658203 C98.02899932861328,43.59199905395508 109.7509994506836,69.31199645996094 116.14900207519531,79.81199645996094 C120.46900177001953,86.9010009765625 131.5189971923828,86.01300048828125 138.24200439453125,84.68800354003906 C141.58799743652344,84.02899932861328 144.18699645996094,81.36499786376953 144.79100036621094,77.95700073242188 C147.1439971923828,64.6780014038086 148.0279998779297,28.77199935913086 134.97900390625,-6.188000202178955z"></path></g><g opacity="1" transform="matrix(1,0,0,0.40648001432418823,260.25,126.25)"><path fill="url(#__lottie_element_10)" fill-opacity="1" d=" M-1,-94.87100219726562 C38.487998962402344,-94.87100219726562 79.25,-64.5790023803711 81.91600036621094,-1.680999994277954 C83.36100006103516,32.41699981689453 64.04100036621094,64.1780014038086 61.70500183105469,60.44599914550781 C46.90800094604492,36.80099868774414 27.163000106811523,16.718000411987305 -1.8220000267028809,16.718000411987305 C-27.56999969482422,16.718000411987305 -46.90800094604492,37.74800109863281 -61.803001403808594,59.801998138427734 C-63.59400177001953,62.45399856567383 -81.8759994506836,50.44599914550781 -83.2229995727539,14.300000190734863 C-85.75,-53.507999420166016 -40.487998962402344,-94.87100219726562 -1,-94.87100219726562z"></path></g></g><g opacity="1" transform="matrix(1,0,0,1,0,0)"><path fill="url(#__lottie_element_11)" fill-opacity="1" d=" M335.25,128.5 C317.75,132 308,141.75 308,141.75 C308.6199951171875,140.19900512695312 342.4630126953125,165.21800231933594 350.75,178 C359.0369873046875,190.78199768066406 376.75,216.75 376.75,216.75 C376.75,216.75 381,179 376.75,157.25 C373.4150085449219,140.17999267578125 352.75,125 335.25,128.5z"></path></g><g opacity="1" transform="matrix(0.9653499722480774,0,0,1,8.9537353515625,1.5)"><g opacity="1" transform="matrix(1,0,0,1,0,0)"><g opacity="1" transform="matrix(1,0,0,1,258.4049987792969,54.16699981689453)"><path fill="url(#__lottie_element_12)" fill-opacity="1" d=" M72.5719985961914,-11.125 C72.5719985961914,-11.125 -72.5009994506836,-11.125 -72.5009994506836,-11.125 C-72.5009994506836,-11.125 -94,15.5 -94,15.5 C-94,15.5 94,15.5 94,15.5 C94,15.5 72.5719985961914,-11.125 72.5719985961914,-11.125z"></path><path stroke-linecap="butt" stroke-linejoin="round" fill-opacity="0" stroke="rgb(52,58,63)" stroke-opacity="1" stroke-width="8" d=" M72.5719985961914,-11.125 C72.5719985961914,-11.125 -72.5009994506836,-11.125 -72.5009994506836,-11.125 C-72.5009994506836,-11.125 -94,15.5 -94,15.5 C-94,15.5 94,15.5 94,15.5 C94,15.5 72.5719985961914,-11.125 72.5719985961914,-11.125z"></path></g></g><g opacity="1" transform="matrix(1,0,0,1,0,0)"><g opacity="1" transform="matrix(1,0,0,1,258.4049987792969,81.66699981689453)"><path fill="url(#__lottie_element_13)" fill-opacity="1" d=" M-94,-12 C-94,-12 -94,12 -94,12 C-94,12 -63,-4 0,-4 C63,-4 94,12 94,12 C94,12 94,-12 94,-12 C94,-12 -94,-12 -94,-12z"></path><path stroke-linecap="butt" stroke-linejoin="round" fill-opacity="0" stroke="rgb(13,14,15)" stroke-opacity="1" stroke-width="8" d=" M-94,-12 C-94,-12 -94,12 -94,12 C-94,12 -63,-4 0,-4 C63,-4 94,12 94,12 C94,12 94,-12 94,-12 C94,-12 -94,-12 -94,-12z"></path></g></g></g></g></g></svg>