<svg xmlns="http://www.w3.org/2000/svg" xmlns:xlink="http://www.w3.org/1999/xlink" viewBox="0 0 512 512" width="512" height="512" style="width: 100%; height: 100%; transform: translate3d(0,0,0); content-visibility: visible;" preserveAspectRatio="xMidYMid meet"><defs><clipPath id="__lottie_element_2"><rect width="512" height="512" x="0" y="0"></rect></clipPath><linearGradient id="__lottie_element_7" spreadMethod="pad" gradientUnits="userSpaceOnUse" x1="0" y1="8.5" x2="0.25" y2="-10.062000274658203"><stop offset="0%" stop-color="rgb(140,147,152)" stop-opacity="1"></stop><stop offset="85%" stop-color="rgb(140,147,152)" stop-opacity="0.5"></stop><stop offset="100%" stop-color="rgb(140,147,152)" stop-opacity="0"></stop></linearGradient><radialGradient id="__lottie_element_8" spreadMethod="pad" gradientUnits="userSpaceOnUse" cx="0.5049999952316284" cy="34.29100036621094" r="66.9037865243146" fx="0.5049999952316284" fy="34.29100036621094"><stop offset="19%" stop-color="rgb(255,168,0)" stop-opacity="1"></stop><stop offset="76%" stop-color="rgb(255,168,0)" stop-opacity="0.5"></stop><stop offset="100%" stop-color="rgb(255,168,0)" stop-opacity="0"></stop></radialGradient><linearGradient id="__lottie_element_9" spreadMethod="pad" gradientUnits="userSpaceOnUse" x1="-0.5" y1="-56" x2="1.5" y2="51.25"><stop offset="0%" stop-color="rgb(211,240,255)" stop-opacity="1"></stop><stop offset="60%" stop-color="rgb(211,240,255)" stop-opacity="0.5"></stop><stop offset="100%" stop-color="rgb(211,240,255)" stop-opacity="0"></stop></linearGradient><linearGradient id="__lottie_element_10" spreadMethod="pad" gradientUnits="userSpaceOnUse" x1="-62.25" y1="0" x2="2" y2="0"><stop offset="0%" stop-color="rgb(77,137,188)" stop-opacity="1"></stop><stop offset="30%" stop-color="rgb(77,137,188)" stop-opacity="0.5"></stop><stop offset="100%" stop-color="rgb(77,137,188)" stop-opacity="0"></stop></linearGradient><linearGradient id="__lottie_element_11" spreadMethod="pad" gradientUnits="userSpaceOnUse" x1="-0.5" y1="-56" x2="1.5" y2="51.25"><stop offset="0%" stop-color="rgb(211,240,255)" stop-opacity="1"></stop><stop offset="60%" stop-color="rgb(211,240,255)" stop-opacity="0.5"></stop><stop offset="100%" stop-color="rgb(211,240,255)" stop-opacity="0"></stop></linearGradient><linearGradient id="__lottie_element_12" spreadMethod="pad" gradientUnits="userSpaceOnUse" x1="-62.25" y1="0" x2="2" y2="0"><stop offset="0%" stop-color="rgb(77,137,188)" stop-opacity="1"></stop><stop offset="30%" stop-color="rgb(77,137,188)" stop-opacity="0.5"></stop><stop offset="100%" stop-color="rgb(77,137,188)" stop-opacity="0"></stop></linearGradient><linearGradient id="__lottie_element_19" spreadMethod="pad" gradientUnits="userSpaceOnUse" x1="-3.249000072479248" y1="-130" x2="-3.249000072479248" y2="-32.974998474121094"><stop offset="0%" stop-color="rgb(219,110,0)" stop-opacity="1"></stop><stop offset="38%" stop-color="rgb(219,110,0)" stop-opacity="0.5"></stop><stop offset="70%" stop-color="rgb(219,110,0)" stop-opacity="0"></stop></linearGradient><linearGradient id="__lottie_element_20" spreadMethod="pad" gradientUnits="userSpaceOnUse" x1="-5.249000072479248" y1="-103" x2="-5.249000072479248" y2="78.50199890136719"><stop offset="3%" stop-color="rgb(255,216,0)" stop-opacity="0"></stop><stop offset="16%" stop-color="rgb(255,216,0)" stop-opacity="0.5"></stop><stop offset="45%" stop-color="rgb(255,216,0)" stop-opacity="1"></stop><stop offset="90%" stop-color="rgb(255,216,0)" stop-opacity="0.5"></stop><stop offset="100%" stop-color="rgb(255,216,0)" stop-opacity="0"></stop></linearGradient><linearGradient id="__lottie_element_23" spreadMethod="pad" gradientUnits="userSpaceOnUse" x1="4.750999927520752" y1="-134" x2="1.3559999465942383" y2="-24.7810001373291"><stop offset="15%" stop-color="rgb(255,169,0)" stop-opacity="0"></stop><stop offset="41%" stop-color="rgb(255,169,0)" stop-opacity="0.5"></stop><stop offset="66%" stop-color="rgb(255,169,0)" stop-opacity="1"></stop></linearGradient><linearGradient id="__lottie_element_24" spreadMethod="pad" gradientUnits="userSpaceOnUse" x1="-11.24899959564209" y1="-6" x2="-19.913999557495117" y2="-183.24000549316406"><stop offset="7%" stop-color="rgb(218,110,0)" stop-opacity="0.30000001192092896"></stop><stop offset="28%" stop-color="rgb(218,110,0)" stop-opacity="0.6499999761581421"></stop><stop offset="70%" stop-color="rgb(218,110,0)" stop-opacity="1"></stop><stop offset="80%" stop-color="rgb(218,110,0)" stop-opacity="0.5199999809265137"></stop><stop offset="100%" stop-color="rgb(218,110,0)" stop-opacity="0.03999999910593033"></stop></linearGradient><linearGradient id="__lottie_element_25" spreadMethod="pad" gradientUnits="userSpaceOnUse" x1="-104.2490005493164" y1="-145" x2="-91.22100067138672" y2="-114.625"><stop offset="0%" stop-color="rgb(255,255,255)" stop-opacity="1"></stop><stop offset="50%" stop-color="rgb(255,255,255)" stop-opacity="0.5"></stop><stop offset="100%" stop-color="rgb(255,255,255)" stop-opacity="0"></stop></linearGradient><linearGradient id="__lottie_element_26" spreadMethod="pad" gradientUnits="userSpaceOnUse" x1="30.750999450683594" y1="-171" x2="20.843000411987305" y2="-106.1449966430664"><stop offset="0%" stop-color="rgb(255,255,255)" stop-opacity="1"></stop><stop offset="50%" stop-color="rgb(255,255,255)" stop-opacity="0.5"></stop><stop offset="100%" stop-color="rgb(255,255,255)" stop-opacity="0"></stop></linearGradient><linearGradient id="__lottie_element_35" spreadMethod="pad" gradientUnits="userSpaceOnUse" x1="-3.1760001182556152" y1="85.71099853515625" x2="-2.3010001182556152" y2="113.70999908447266"><stop offset="0%" stop-color="rgb(255,168,0)" stop-opacity="1"></stop><stop offset="65%" stop-color="rgb(255,168,0)" stop-opacity="0.5"></stop><stop offset="100%" stop-color="rgb(255,168,0)" stop-opacity="0"></stop></linearGradient><linearGradient id="__lottie_element_36" spreadMethod="pad" gradientUnits="userSpaceOnUse" x1="-2.0510001182556152" y1="106.75700378417969" x2="-2.9260001182556152" y2="80.63999938964844"><stop offset="10%" stop-color="rgb(219,110,0)" stop-opacity="1"></stop><stop offset="49%" stop-color="rgb(219,110,0)" stop-opacity="0.5"></stop><stop offset="78%" stop-color="rgb(219,110,0)" stop-opacity="0"></stop></linearGradient><radialGradient id="__lottie_element_37" spreadMethod="pad" gradientUnits="userSpaceOnUse" cx="-3.9260001182556152" cy="73.96099853515625" r="22.90700101852417" fx="-3.9260001182556152" fy="73.96099853515625"><stop offset="40%" stop-color="rgb(255,168,0)" stop-opacity="0"></stop><stop offset="70%" stop-color="rgb(255,168,0)" stop-opacity="0.5"></stop><stop offset="100%" stop-color="rgb(255,168,0)" stop-opacity="1"></stop></radialGradient><linearGradient id="__lottie_element_38" spreadMethod="pad" gradientUnits="userSpaceOnUse" x1="-2.9260001182556152" y1="71.96099853515625" x2="-2.9260001182556152" y2="82.61699676513672"><stop offset="0%" stop-color="rgb(255,255,254)" stop-opacity="1"></stop><stop offset="50%" stop-color="rgb(255,255,254)" stop-opacity="0.5"></stop><stop offset="100%" stop-color="rgb(255,255,254)" stop-opacity="0"></stop></linearGradient><linearGradient id="__lottie_element_41" spreadMethod="pad" gradientUnits="userSpaceOnUse" x1="-80.73799896240234" y1="10.89900016784668" x2="-61.7130012512207" y2="39.979000091552734"><stop offset="0%" stop-color="rgb(66,0,0)"></stop><stop offset="37%" stop-color="rgb(118,40,0)"></stop><stop offset="100%" stop-color="rgb(170,80,0)"></stop></linearGradient><radialGradient id="__lottie_element_42" spreadMethod="pad" gradientUnits="userSpaceOnUse" cx="-63.92599868774414" cy="33.96099853515625" r="12.805999755859375" fx="-63.92599868774414" fy="33.96099853515625"><stop offset="0%" stop-color="rgb(246,175,0)" stop-opacity="1"></stop><stop offset="50%" stop-color="rgb(246,175,0)" stop-opacity="0.5"></stop><stop offset="100%" stop-color="rgb(246,175,0)" stop-opacity="0"></stop></radialGradient><linearGradient id="__lottie_element_43" spreadMethod="pad" gradientUnits="userSpaceOnUse" x1="-82.9260025024414" y1="0.9610000252723694" x2="-82.9260025024414" y2="11.782999992370605"><stop offset="0%" stop-color="rgb(255,255,255)" stop-opacity="1"></stop><stop offset="60%" stop-color="rgb(255,255,255)" stop-opacity="0.5"></stop><stop offset="100%" stop-color="rgb(255,255,255)" stop-opacity="0"></stop></linearGradient><linearGradient id="__lottie_element_44" spreadMethod="pad" gradientUnits="userSpaceOnUse" x1="-80.73799896240234" y1="10.89900016784668" x2="-61.7130012512207" y2="39.979000091552734"><stop offset="0%" stop-color="rgb(66,0,0)"></stop><stop offset="37%" stop-color="rgb(118,40,0)"></stop><stop offset="100%" stop-color="rgb(170,80,0)"></stop></linearGradient><radialGradient id="__lottie_element_45" spreadMethod="pad" gradientUnits="userSpaceOnUse" cx="-63.92599868774414" cy="33.96099853515625" r="12.805999755859375" fx="-63.92599868774414" fy="33.96099853515625"><stop offset="0%" stop-color="rgb(246,175,0)" stop-opacity="1"></stop><stop offset="50%" stop-color="rgb(246,175,0)" stop-opacity="0.5"></stop><stop offset="100%" stop-color="rgb(246,175,0)" stop-opacity="0"></stop></radialGradient><linearGradient id="__lottie_element_46" spreadMethod="pad" gradientUnits="userSpaceOnUse" x1="-82.9260025024414" y1="0.9610000252723694" x2="-82.9260025024414" y2="11.782999992370605"><stop offset="0%" stop-color="rgb(255,255,255)" stop-opacity="1"></stop><stop offset="60%" stop-color="rgb(255,255,255)" stop-opacity="0.5"></stop><stop offset="100%" stop-color="rgb(255,255,255)" stop-opacity="0"></stop></linearGradient><radialGradient id="__lottie_element_55" spreadMethod="pad" gradientUnits="userSpaceOnUse" cx="-2.6760001182556152" cy="130.71099853515625" r="42.440736384479386" fx="-2.6760001182556152" fy="130.71099853515625"><stop offset="8%" stop-color="rgb(117,55,14)" stop-opacity="1"></stop><stop offset="54%" stop-color="rgb(117,55,14)" stop-opacity="0.5"></stop><stop offset="100%" stop-color="rgb(117,55,14)" stop-opacity="0"></stop></radialGradient><radialGradient id="__lottie_element_59" spreadMethod="pad" gradientUnits="userSpaceOnUse" cx="-137.24899291992188" cy="80" r="87.55145429592169" fx="-137.24899291992188" fy="80"><stop offset="0%" stop-color="rgb(255,169,0)" stop-opacity="1"></stop><stop offset="50%" stop-color="rgb(255,169,0)" stop-opacity="0.5"></stop><stop offset="100%" stop-color="rgb(255,169,0)" stop-opacity="0"></stop></radialGradient><radialGradient id="__lottie_element_60" spreadMethod="pad" gradientUnits="userSpaceOnUse" cx="136.75100708007812" cy="79.5" r="85.09973737974671" fx="136.75100708007812" fy="79.5"><stop offset="0%" stop-color="rgb(255,169,0)" stop-opacity="1"></stop><stop offset="50%" stop-color="rgb(255,169,0)" stop-opacity="0.5"></stop><stop offset="100%" stop-color="rgb(255,169,0)" stop-opacity="0"></stop></radialGradient></defs><g clip-path="url(#__lottie_element_2)"><g style="display: block;" transform="matrix(1,0,0,1,0,0)" opacity="1"><g opacity="1" transform="matrix(1,0,0,1,255.822998046875,249.24200439453125)"><path fill="rgb(207,145,94)" fill-opacity="1" d=" M-202.6300048828125,-142.4550018310547 C-202.6300048828125,-142.4550018310547 -202.6300048828125,142.4550018310547 -202.6300048828125,142.4550018310547 C-202.6300048828125,142.4550018310547 202.6300048828125,142.4550018310547 202.6300048828125,142.4550018310547 C202.6300048828125,142.4550018310547 202.6300048828125,-142.4550018310547 202.6300048828125,-142.4550018310547 C202.6300048828125,-142.4550018310547 -202.6300048828125,-142.4550018310547 -202.6300048828125,-142.4550018310547z M183.2100067138672,123.42500305175781 C183.2100067138672,123.42500305175781 -183.2100067138672,123.42500305175781 -183.2100067138672,123.42500305175781 C-183.2100067138672,123.42500305175781 -183.2100067138672,-123.42500305175781 -183.2100067138672,-123.42500305175781 C-183.2100067138672,-123.42500305175781 183.2100067138672,-123.42500305175781 183.2100067138672,-123.42500305175781 C183.2100067138672,-123.42500305175781 183.2100067138672,123.42500305175781 183.2100067138672,123.42500305175781z"></path><path stroke-linecap="round" stroke-linejoin="round" fill-opacity="0" stroke="rgb(140,93,60)" stroke-opacity="1" stroke-width="8" d=" M-202.6300048828125,-142.4550018310547 C-202.6300048828125,-142.4550018310547 -202.6300048828125,142.4550018310547 -202.6300048828125,142.4550018310547 C-202.6300048828125,142.4550018310547 202.6300048828125,142.4550018310547 202.6300048828125,142.4550018310547 C202.6300048828125,142.4550018310547 202.6300048828125,-142.4550018310547 202.6300048828125,-142.4550018310547 C202.6300048828125,-142.4550018310547 -202.6300048828125,-142.4550018310547 -202.6300048828125,-142.4550018310547z M183.2100067138672,123.42500305175781 C183.2100067138672,123.42500305175781 -183.2100067138672,123.42500305175781 -183.2100067138672,123.42500305175781 C-183.2100067138672,123.42500305175781 -183.2100067138672,-123.42500305175781 -183.2100067138672,-123.42500305175781 C-183.2100067138672,-123.42500305175781 183.2100067138672,-123.42500305175781 183.2100067138672,-123.42500305175781 C183.2100067138672,-123.42500305175781 183.2100067138672,123.42500305175781 183.2100067138672,123.42500305175781z"></path></g><g opacity="1" transform="matrix(1,0,0,1,0,0)"><g opacity="1" transform="matrix(1,0,0,1,448.7430114746094,116.302001953125)"><path stroke-linecap="round" stroke-linejoin="round" fill-opacity="0" stroke="rgb(140,93,60)" stroke-opacity="1" stroke-width="5" d=" M9.710000038146973,-9.515000343322754 C9.710000038146973,-9.515000343322754 -9.710000038146973,9.515000343322754 -9.710000038146973,9.515000343322754"></path></g><g opacity="1" transform="matrix(1,0,0,1,448.7430114746094,382.1820068359375)"><path stroke-linecap="round" stroke-linejoin="round" fill-opacity="0" stroke="rgb(140,93,60)" stroke-opacity="1" stroke-width="5" d=" M-9.710000038146973,-9.515000343322754 C-9.710000038146973,-9.515000343322754 9.710000038146973,9.515000343322754 9.710000038146973,9.515000343322754"></path></g><g opacity="1" transform="matrix(1,0,0,1,62.90299987792969,382.1820068359375)"><path stroke-linecap="round" stroke-linejoin="round" fill-opacity="0" stroke="rgb(140,93,60)" stroke-opacity="1" stroke-width="5" d=" M9.710000038146973,-9.515000343322754 C9.710000038146973,-9.515000343322754 -9.710000038146973,9.515000343322754 -9.710000038146973,9.515000343322754"></path></g><g opacity="1" transform="matrix(1,0,0,1,62.90299987792969,116.302001953125)"><path stroke-linecap="round" stroke-linejoin="round" fill-opacity="0" stroke="rgb(140,93,60)" stroke-opacity="1" stroke-width="5" d=" M9.710000038146973,9.515000343322754 C9.710000038146973,9.515000343322754 -9.710000038146973,-9.515000343322754 -9.710000038146973,-9.515000343322754"></path></g></g><g opacity="1" transform="matrix(1,0,0,1,255.822998046875,249.24200439453125)"><path fill="rgb(55,94,70)" fill-opacity="1" d=" M183.2100067138672,-123.42500305175781 C183.2100067138672,-123.42500305175781 183.2100067138672,123.42500305175781 183.2100067138672,123.42500305175781 C183.2100067138672,123.42500305175781 -183.2100067138672,123.42500305175781 -183.2100067138672,123.42500305175781 C-183.2100067138672,123.42500305175781 -183.2100067138672,-123.42500305175781 -183.2100067138672,-123.42500305175781 C-183.2100067138672,-123.42500305175781 183.2100067138672,-123.42500305175781 183.2100067138672,-123.42500305175781z"></path><path stroke-linecap="round" stroke-linejoin="round" fill-opacity="0" stroke="rgb(25,49,38)" stroke-opacity="1" stroke-width="8" d=" M183.2100067138672,-123.42500305175781 C183.2100067138672,-123.42500305175781 183.2100067138672,123.42500305175781 183.2100067138672,123.42500305175781 C183.2100067138672,123.42500305175781 -183.2100067138672,123.42500305175781 -183.2100067138672,123.42500305175781 C-183.2100067138672,123.42500305175781 -183.2100067138672,-123.42500305175781 -183.2100067138672,-123.42500305175781 C-183.2100067138672,-123.42500305175781 183.2100067138672,-123.42500305175781 183.2100067138672,-123.42500305175781z"></path></g><g opacity="1" transform="matrix(1,0,0,1,255.822998046875,249.24200439453125)"><path fill="rgb(65,117,86)" fill-opacity="1" d=" M165.7239990234375,-102.94400024414062 C165.7239990234375,-102.94400024414062 165.7239990234375,102.94400024414062 165.7239990234375,102.94400024414062 C165.7239990234375,104.60099792480469 164.38099670410156,105.94400024414062 162.7239990234375,105.94400024414062 C162.7239990234375,105.94400024414062 -162.7239990234375,105.94400024414062 -162.7239990234375,105.94400024414062 C-164.38099670410156,105.94400024414062 -165.7239990234375,104.60099792480469 -165.7239990234375,102.94400024414062 C-165.7239990234375,102.94400024414062 -165.7239990234375,-102.94400024414062 -165.7239990234375,-102.94400024414062 C-165.7239990234375,-104.60099792480469 -164.38099670410156,-105.94400024414062 -162.7239990234375,-105.94400024414062 C-162.7239990234375,-105.94400024414062 162.7239990234375,-105.94400024414062 162.7239990234375,-105.94400024414062 C164.38099670410156,-105.94400024414062 165.7239990234375,-104.60099792480469 165.7239990234375,-102.94400024414062z"></path></g></g><g style="display: block;" transform="matrix(1.0099999904632568,0,0,1.0099999904632568,258.531005859375,255.8236083984375)" opacity="1"><g opacity="1" transform="matrix(1,0,0,1,0,0)"><path fill="rgb(159,84,2)" fill-opacity="1" d=" M106.10199737548828,-109.48200225830078 C70.89299774169922,-163.6439971923828 -2.684000015258789,-162.22500610351562 -2.684000015258789,-162.22500610351562 C-2.684000015258789,-162.22500610351562 -76.26100158691406,-163.6439971923828 -111.47000122070312,-109.48200225830078 C-145.74099731445312,-56.762001037597656 -164.85400390625,43.34299850463867 -156.1269989013672,83.87999725341797 C-148.92599487304688,117.3290023803711 -48.486000061035156,114.88500213623047 -2.684000015258789,114.88500213623047 C43.11800003051758,114.88500213623047 157.9759979248047,110.03700256347656 156.75100708007812,83.87999725341797 C153.69400024414062,18.607999801635742 141.30999755859375,-55.31999969482422 106.10199737548828,-109.48200225830078z"></path></g><g opacity="1" transform="matrix(1,0,0,1,0,0)"><path fill="url(#__lottie_element_59)" fill-opacity="1" d=" M-61.3650016784668,114.64299774169922 C-74.47899627685547,113.21299743652344 -85.69400024414062,110.53900146484375 -94.85600280761719,109.52100372314453 C-147.08099365234375,103.71900177001953 -154.5279998779297,88.93000030517578 -157.52200317382812,75.46399688720703 C-159.35699462890625,67.18699645996094 -160.31399536132812,56.73699951171875 -160.43600463867188,44.65999984741211 C-157.08799743652344,21.597999572753906 -145.44200134277344,-34.744998931884766 -113.73100280761719,-20.45199966430664 C-90.27300262451172,-9.892999649047852 -91.62999725341797,10.864999771118164 -54.736000061035156,50.654998779296875 C-22.34600067138672,85.58599853515625 -34.08100128173828,114.39199829101562 -61.3650016784668,114.64299774169922z"></path></g><g opacity="1" transform="matrix(1,0,0,1,0,0)"><path fill="url(#__lottie_element_60)" fill-opacity="1" d=" M61.30500030517578,114.64299774169922 C74.41899871826172,113.21299743652344 85.63400268554688,110.53900146484375 94.7959976196289,109.52100372314453 C148.33399963378906,103.572998046875 153.4010009765625,93.72100067138672 157.46099853515625,75.46399688720703 C159.29600524902344,67.18699645996094 157.95399475097656,56.73699951171875 158.0760040283203,44.65999984741211 C154.72799682617188,21.597999572753906 145.3820037841797,-34.744998931884766 113.6709976196289,-20.45199966430664 C90.21299743652344,-9.892999649047852 91.56999969482422,10.864999771118164 54.67599868774414,50.654998779296875 C22.28700065612793,85.58599853515625 34.020999908447266,114.39199829101562 61.30500030517578,114.64299774169922z"></path></g><g opacity="1" transform="matrix(1,0,0,1,0,0)"><path stroke-linecap="round" stroke-linejoin="round" fill-opacity="0" stroke="rgb(163,65,0)" stroke-opacity="1" stroke-width="8" d=" M106.10199737548828,-109.48200225830078 C70.89299774169922,-163.6439971923828 -73.78600311279297,-162.01499938964844 -111.47000122070312,-109.48200225830078 C-153.0399932861328,-51.53200149536133 -165.15499877929688,43.319000244140625 -156.1269989013672,83.87999725341797 C-153.32699584960938,96.45999908447266 -137.45899963378906,101.95800018310547 -112.93499755859375,107.3489990234375 C-67.22799682617188,117.39600372314453 67.86199951171875,117.39600372314453 113.55899810791016,107.3489990234375 C135.73399353027344,102.4739990234375 156.14300537109375,96.74299621582031 156.75100708007812,83.87999725341797 C159.8350067138672,18.608999252319336 141.30999755859375,-55.31999969482422 106.10199737548828,-109.48200225830078z"></path></g></g><g style="display: block;" transform="matrix(1,0,0,1,0,10)" opacity="1"><g opacity="1" transform="matrix(1,0,0,1,256.3320007324219,411.2080078125)"><path fill="rgb(229,235,240)" fill-opacity="1" d=" M-47.01900100708008,51.38100051879883 C-47.01900100708008,51.38100051879883 -47.01900100708008,-46.8120002746582 -47.01900100708008,-46.8120002746582 C-34.55699920654297,-48.94499969482422 -21.030000686645508,-50.51599884033203 -6.507999897003174,-51.38100051879883 C-6.507999897003174,-51.38100051879883 8.572999954223633,-51.09299850463867 8.572999954223633,-51.09299850463867 C8.572999954223633,-51.09299850463867 47.01900100708008,-46.81100082397461 47.01900100708008,-46.81100082397461 C47.01900100708008,-46.81100082397461 47.01900100708008,51.37900161743164 47.01900100708008,51.37900161743164"></path><path stroke-linecap="round" stroke-linejoin="round" fill-opacity="0" stroke="rgb(163,171,170)" stroke-opacity="1" stroke-width="8" d=" M-47.01900100708008,51.38100051879883 C-47.01900100708008,51.38100051879883 -47.01900100708008,-46.8120002746582 -47.01900100708008,-46.8120002746582 C-34.55699920654297,-48.94499969482422 -21.030000686645508,-50.51599884033203 -6.507999897003174,-51.38100051879883 C-6.507999897003174,-51.38100051879883 8.572999954223633,-51.09299850463867 8.572999954223633,-51.09299850463867 C8.572999954223633,-51.09299850463867 47.01900100708008,-46.81100082397461 47.01900100708008,-46.81100082397461 C47.01900100708008,-46.81100082397461 47.01900100708008,51.37900161743164 47.01900100708008,51.37900161743164"></path></g><g opacity="1" transform="matrix(1,0,0,1,256.3320007324219,409.4580078125)"><path fill="url(#__lottie_element_7)" fill-opacity="0.7000000000000001" d=" M-47.01900100708008,51.38100051879883 C-47.01900100708008,51.38100051879883 -47.01900100708008,-46.8120002746582 -47.01900100708008,-46.8120002746582 C-34.55699920654297,-48.94499969482422 -21.030000686645508,-50.51599884033203 -6.507999897003174,-51.38100051879883 C-6.507999897003174,-51.38100051879883 8.572999954223633,-51.09299850463867 8.572999954223633,-51.09299850463867 C8.572999954223633,-51.09299850463867 47.01900100708008,-46.81100082397461 47.01900100708008,-46.81100082397461 C47.01900100708008,-46.81100082397461 47.01900100708008,51.37900161743164 47.01900100708008,51.37900161743164"></path></g><g opacity="1" transform="matrix(1.006469964981079,0,0,0.8698099851608276,-1.782958984375,48.924591064453125)"><g opacity="1" transform="matrix(1,0,0,1,256.5050048828125,375.09100341796875)"><path fill="rgb(181,102,6)" fill-opacity="1" d=" M-36.244998931884766,-51.0620002746582 C-36.244998931884766,-51.0620002746582 -37.98400115966797,-19.44499969482422 -37.98400115966797,-19.44499969482422 C-37.98400115966797,-16.25200080871582 -40.92300033569336,-5.070000171661377 -38.29199981689453,-1.722000002861023 C-21.746999740600586,19.333999633789062 19.354999542236328,23.045000076293945 38.90299987792969,-2.0280001163482666 C41.422000885009766,-5.257999897003174 37.95399856567383,-19.21500015258789 37.95399856567383,-22.31999969482422 C37.95399856567383,-22.31999969482422 34.60100173950195,-50.50699996948242 34.60100173950195,-50.50699996948242 C34.60100173950195,-50.50699996948242 -36.244998931884766,-51.0620002746582 -36.244998931884766,-51.0620002746582z"></path></g><g opacity="1" transform="matrix(1,0,0,1,256.4649963378906,250.14700317382812)"><path fill="rgb(181,102,6)" fill-opacity="1" d=" M-38.25299835205078,117.90899658203125 C-38.25299835205078,117.90899658203125 -36.297000885009766,73.13200378417969 -36.297000885009766,73.13200378417969 C-36.297000885009766,73.13200378417969 36.007999420166016,73.18199920654297 36.007999420166016,73.18199920654297 C36.007999420166016,73.18199920654297 38.69499969482422,117.59200286865234 38.69499969482422,117.59200286865234"></path><path stroke-linecap="round" stroke-linejoin="round" fill-opacity="0" stroke="rgb(153,71,4)" stroke-opacity="1" stroke-width="8" d=" M-38.25299835205078,117.90899658203125 C-38.25299835205078,117.90899658203125 -36.297000885009766,73.13200378417969 -36.297000885009766,73.13200378417969 C-36.297000885009766,73.13200378417969 36.007999420166016,73.18199920654297 36.007999420166016,73.18199920654297 C36.007999420166016,73.18199920654297 38.69499969482422,117.59200286865234 38.69499969482422,117.59200286865234"></path></g><g opacity="1" transform="matrix(1,0,0,1,256.5050048828125,375.09100341796875)"><path fill="url(#__lottie_element_8)" fill-opacity="1" d=" M-33.5260009765625,-51.77899932861328 C-33.5260009765625,-51.77899932861328 -33.65700149536133,-20.881999969482422 -33.65700149536133,-20.881999969482422 C-33.65700149536133,-18.025999069213867 -33.9739990234375,-4.809000015258789 -33.5099983215332,-3.4200000762939453 C-17.211000442504883,22.775999069213867 19.98900032043457,21.05900001525879 34.183998107910156,-1.968000054359436 C36.141998291015625,-5.144999980926514 34.95500183105469,-16.722000122070312 34.95500183105469,-19.82699966430664 C34.95500183105469,-19.82699966430664 32.119998931884766,-51.75299835205078 32.119998931884766,-51.75299835205078 C32.119998931884766,-51.75299835205078 -33.5260009765625,-51.77899932861328 -33.5260009765625,-51.77899932861328z"></path></g><g opacity="1" transform="matrix(1,0,0,1,256.5050048828125,375.09100341796875)"><path stroke-linecap="round" stroke-linejoin="round" fill-opacity="0" stroke="rgb(163,171,170)" stroke-opacity="1" stroke-width="8" d=" M-43.2140007019043,-13.109999656677246 C-42.15800094604492,-9.871999740600586 -40.34600067138672,-7.107999801635742 -38.29199981689453,-3.871000051498413 C-21.993000030517578,21.808000564575195 23.114999771118164,21.757999420166016 38.90299987792969,-4.138999938964844 C40.81800079345703,-7.28000020980835 42.57699966430664,-10.628999710083008 43.834999084472656,-13.65999984741211"></path></g></g><g opacity="1" transform="matrix(1,0,0,1,0,0)"><g opacity="1" transform="matrix(1,0,0,1,358.14801025390625,413.49200439453125)"><path fill="rgb(140,190,234)" fill-opacity="1" d=" M54.79499816894531,43.275001525878906 C54.79499816894531,43.275001525878906 54.79499816894531,43.275001525878906 54.79499816894531,43.275001525878906 C54.79499816894531,43.275001525878906 51.73500061035156,46.724998474121094 41.875,49.17499923706055 C36.415000915527344,50.53499984741211 28.875,51.595001220703125 18.614999771118164,51.595001220703125 C18.614999771118164,51.595001220703125 -54.79499816894531,51.595001220703125 -54.79499816894531,51.595001220703125 C-54.79499816894531,51.595001220703125 -54.79499816894531,-51.595001220703125 -54.79499816894531,-51.595001220703125 C-8.015000343322754,-43.595001220703125 23.7450008392334,-27.665000915527344 36.744998931884766,-11.425000190734863 C48.98500061035156,3.884999990463257 53.125,30.2549991607666 54.79499816894531,43.275001525878906z"></path></g><g opacity="0.8" transform="matrix(1,0,0,1,358.14801025390625,412.2820129394531)"><path fill="url(#__lottie_element_9)" fill-opacity="0.55" d=" M54.79499816894531,44.48500061035156 C54.79499816894531,44.48500061035156 54.79499816894531,44.48500061035156 54.79499816894531,44.48500061035156 C54.79499816894531,44.48500061035156 51.73500061035156,47.935001373291016 41.875,50.3849983215332 C40.255001068115234,37.974998474121094 35.1349983215332,12.585000038146973 26.485000610351562,1.8450000286102295 C3.575000047683716,-26.614999771118164 -54.79499816894531,-32.78499984741211 -54.79499816894531,-32.78499984741211 C-54.79499816894531,-32.78499984741211 -54.79499816894531,-50.3849983215332 -54.79499816894531,-50.3849983215332 C-8.015000343322754,-42.3849983215332 23.7450008392334,-26.454999923706055 36.744998931884766,-10.21500015258789 C48.98500061035156,5.09499979019165 53.125,31.46500015258789 54.79499816894531,44.48500061035156z"></path></g><g opacity="1" transform="matrix(1,0,0,1,358.14801025390625,413.49200439453125)"><path fill="url(#__lottie_element_10)" fill-opacity="1" d=" M54.79499816894531,43.275001525878906 C54.79499816894531,43.275001525878906 54.79499816894531,43.275001525878906 54.79499816894531,43.275001525878906 C54.79499816894531,43.275001525878906 51.73500061035156,46.724998474121094 41.875,49.17499923706055 C36.415000915527344,50.53499984741211 28.875,51.595001220703125 18.614999771118164,51.595001220703125 C18.614999771118164,51.595001220703125 -54.79499816894531,51.595001220703125 -54.79499816894531,51.595001220703125 C-54.79499816894531,51.595001220703125 -54.79499816894531,-51.595001220703125 -54.79499816894531,-51.595001220703125 C-8.015000343322754,-43.595001220703125 23.7450008392334,-27.665000915527344 36.744998931884766,-11.425000190734863 C48.98500061035156,3.884999990463257 53.125,30.2549991607666 54.79499816894531,43.275001525878906z"></path></g><g opacity="1" transform="matrix(1,0,0,1,0,0)"><g opacity="1" transform="matrix(1,0,0,1,413.552001953125,454.2900085449219)"><path fill="rgb(78,138,192)" fill-opacity="1" d=" M-4.052000045776367,-4.205999851226807 C-4.052000045776367,-4.205999851226807 -3.3259999752044678,0.7059999704360962 -2.869999885559082,4.205999851226807 C-2.869999885559082,4.205999851226807 4.578999996185303,0.5370000004768372 4.021999835968018,-4.00600004196167 C4.021999835968018,-4.00600004196167 -4.052000045776367,-4.205999851226807 -4.052000045776367,-4.205999851226807z"></path></g><g opacity="1" transform="matrix(1,0,0,1,358.47198486328125,410.99200439453125)"><path stroke-linecap="round" stroke-linejoin="round" fill-opacity="0" stroke="rgb(77,138,191)" stroke-opacity="1" stroke-width="8" d=" M55.12099838256836,39.65599822998047 C54.332000732421875,32.95000076293945 50.87900161743164,9.156000137329102 36.41899871826172,-8.925000190734863 C23.41900062561035,-25.165000915527344 -8.340999603271484,-41.095001220703125 -55.12099838256836,-49.095001220703125 C-55.12099838256836,-49.095001220703125 -55.12099838256836,49.095001220703125 -55.12099838256836,49.095001220703125"></path></g></g><g opacity="1" transform="matrix(1,0,0,1,0,0)"><g opacity="1" transform="matrix(1,0,0,1,358.47198486328125,410.99200439453125)"><path stroke-linecap="round" stroke-linejoin="round" fill-opacity="0" stroke="rgb(58,114,165)" stroke-opacity="1" stroke-width="8" d=" M-55.12099838256836,-49.095001220703125 C-55.12099838256836,-49.095001220703125 -55.12099838256836,49.095001220703125 -55.12099838256836,49.095001220703125"></path></g></g><g opacity="1" transform="matrix(1,0,0,1,384.44500732421875,430.17401123046875)"><path stroke-linecap="round" stroke-linejoin="round" fill-opacity="0" stroke="rgb(78,138,192)" stroke-opacity="0.7000000000000001" stroke-width="5" d=" M7.041999816894531,-31.915000915527344 C7.041999816894531,-31.915000915527344 5.129000186920166,-4.01800012588501 -7.041999816894531,31.915000915527344"></path></g></g><g opacity="1" transform="matrix(-1,0,0,1,512.8309936523438,0)"><g opacity="1" transform="matrix(1,0,0,1,358.14801025390625,413.49200439453125)"><path fill="rgb(140,190,234)" fill-opacity="1" d=" M54.79499816894531,43.275001525878906 C54.79499816894531,43.275001525878906 54.79499816894531,43.275001525878906 54.79499816894531,43.275001525878906 C54.79499816894531,43.275001525878906 51.73500061035156,46.724998474121094 41.875,49.17499923706055 C36.415000915527344,50.53499984741211 28.875,51.595001220703125 18.614999771118164,51.595001220703125 C18.614999771118164,51.595001220703125 -54.79499816894531,51.595001220703125 -54.79499816894531,51.595001220703125 C-54.79499816894531,51.595001220703125 -54.79499816894531,-51.595001220703125 -54.79499816894531,-51.595001220703125 C-8.015000343322754,-43.595001220703125 23.7450008392334,-27.665000915527344 36.744998931884766,-11.425000190734863 C48.98500061035156,3.884999990463257 53.125,30.2549991607666 54.79499816894531,43.275001525878906z"></path></g><g opacity="0.8" transform="matrix(1,0,0,1,358.14801025390625,412.2820129394531)"><path fill="url(#__lottie_element_11)" fill-opacity="0.55" d=" M54.79499816894531,44.48500061035156 C54.79499816894531,44.48500061035156 54.79499816894531,44.48500061035156 54.79499816894531,44.48500061035156 C54.79499816894531,44.48500061035156 51.73500061035156,47.935001373291016 41.875,50.3849983215332 C40.255001068115234,37.974998474121094 35.1349983215332,12.585000038146973 26.485000610351562,1.8450000286102295 C3.575000047683716,-26.614999771118164 -54.79499816894531,-32.78499984741211 -54.79499816894531,-32.78499984741211 C-54.79499816894531,-32.78499984741211 -54.79499816894531,-50.3849983215332 -54.79499816894531,-50.3849983215332 C-8.015000343322754,-42.3849983215332 23.7450008392334,-26.454999923706055 36.744998931884766,-10.21500015258789 C48.98500061035156,5.09499979019165 53.125,31.46500015258789 54.79499816894531,44.48500061035156z"></path></g><g opacity="1" transform="matrix(1,0,0,1,358.14801025390625,413.49200439453125)"><path fill="url(#__lottie_element_12)" fill-opacity="1" d=" M54.79499816894531,43.275001525878906 C54.79499816894531,43.275001525878906 54.79499816894531,43.275001525878906 54.79499816894531,43.275001525878906 C54.79499816894531,43.275001525878906 51.73500061035156,46.724998474121094 41.875,49.17499923706055 C36.415000915527344,50.53499984741211 28.875,51.595001220703125 18.614999771118164,51.595001220703125 C18.614999771118164,51.595001220703125 -54.79499816894531,51.595001220703125 -54.79499816894531,51.595001220703125 C-54.79499816894531,51.595001220703125 -54.79499816894531,-51.595001220703125 -54.79499816894531,-51.595001220703125 C-8.015000343322754,-43.595001220703125 23.7450008392334,-27.665000915527344 36.744998931884766,-11.425000190734863 C48.98500061035156,3.884999990463257 53.125,30.2549991607666 54.79499816894531,43.275001525878906z"></path></g><g opacity="1" transform="matrix(1,0,0,1,0,0)"><g opacity="1" transform="matrix(1,0,0,1,413.552001953125,454.2900085449219)"><path fill="rgb(78,138,192)" fill-opacity="1" d=" M-4.052000045776367,-4.205999851226807 C-4.052000045776367,-4.205999851226807 -3.3259999752044678,0.7059999704360962 -2.869999885559082,4.205999851226807 C-2.869999885559082,4.205999851226807 4.578999996185303,0.5370000004768372 4.021999835968018,-4.00600004196167 C4.021999835968018,-4.00600004196167 -4.052000045776367,-4.205999851226807 -4.052000045776367,-4.205999851226807z"></path></g><g opacity="1" transform="matrix(1,0,0,1,358.47198486328125,410.99200439453125)"><path stroke-linecap="round" stroke-linejoin="round" fill-opacity="0" stroke="rgb(77,138,191)" stroke-opacity="1" stroke-width="8" d=" M55.12099838256836,39.65599822998047 C54.332000732421875,32.95000076293945 50.87900161743164,9.156000137329102 36.41899871826172,-8.925000190734863 C23.41900062561035,-25.165000915527344 -8.340999603271484,-41.095001220703125 -55.12099838256836,-49.095001220703125 C-55.12099838256836,-49.095001220703125 -55.12099838256836,49.095001220703125 -55.12099838256836,49.095001220703125"></path></g></g><g opacity="1" transform="matrix(1,0,0,1,0,0)"><g opacity="1" transform="matrix(1,0,0,1,358.47198486328125,410.99200439453125)"><path stroke-linecap="round" stroke-linejoin="round" fill-opacity="0" stroke="rgb(58,114,165)" stroke-opacity="1" stroke-width="8" d=" M-55.12099838256836,-49.095001220703125 C-55.12099838256836,-49.095001220703125 -55.12099838256836,49.095001220703125 -55.12099838256836,49.095001220703125"></path></g></g><g opacity="1" transform="matrix(1,0,0,1,384.44500732421875,430.17401123046875)"><path stroke-linecap="round" stroke-linejoin="round" fill-opacity="0" stroke="rgb(78,138,192)" stroke-opacity="0.7000000000000001" stroke-width="5" d=" M7.041999816894531,-31.915000915527344 C7.041999816894531,-31.915000915527344 5.129000186920166,-4.01800012588501 -7.041999816894531,31.915000915527344"></path></g></g></g><g style="display: block;" transform="matrix(1.0099999904632568,0,0,1.0099999904632568,258.531005859375,255.8236083984375)" opacity="1"><g opacity="1" transform="matrix(1,0,0,1,0,0)"><path fill="rgb(255,168,0)" fill-opacity="1" d=" M82.572998046875,-119.45500183105469 C62.6150016784668,-147.1750030517578 36.334999084472656,-163.47500610351562 -3.1730000972747803,-163.47500610351562 C-42.680999755859375,-163.47500610351562 -68.96099853515625,-147.1750030517578 -88.91899871826172,-119.45500183105469 C-108.87699890136719,-91.73500061035156 -125.51000213623047,-27.094999313354492 -99.4530029296875,27.236000061035156 C-73.39700317382812,81.56700134277344 -29.375999450683594,98.75299835205078 -3.1730000972747803,98.75299835205078 C23.030000686645508,98.75299835205078 67.05000305175781,81.56700134277344 93.10700225830078,27.236000061035156 C119.16300201416016,-27.094999313354492 102.53099822998047,-91.73500061035156 82.572998046875,-119.45500183105469z"></path></g><g opacity="1" transform="matrix(1,0,0,1,0,0)"><path fill="url(#__lottie_element_19)" fill-opacity="1" d=" M82.71800231933594,-119.45500183105469 C62.7599983215332,-147.1750030517578 36.47999954223633,-163.47500610351562 -3.0280001163482666,-163.47500610351562 C-42.5359992980957,-163.47500610351562 -68.81600189208984,-147.1750030517578 -88.77400207519531,-119.45500183105469 C-108.73300170898438,-91.73500061035156 -125.36499786376953,-27.094999313354492 -99.30799865722656,27.236000061035156 C-73.25199890136719,81.56700134277344 -29.231000900268555,98.75299835205078 -3.0280001163482666,98.75299835205078 C23.174999237060547,98.75299835205078 67.19400024414062,81.56700134277344 93.2509994506836,27.236000061035156 C119.30699920654297,-27.094999313354492 102.6760025024414,-91.73500061035156 82.71800231933594,-119.45500183105469z"></path></g><g opacity="1" transform="matrix(1,0,0,1,0,0)"><path stroke-linecap="round" stroke-linejoin="round" fill-opacity="0" stroke="rgb(219,110,0)" stroke-opacity="1" stroke-width="8" d=" M82.572998046875,-119.45500183105469 C62.6150016784668,-147.1750030517578 36.334999084472656,-163.47500610351562 -3.1730000972747803,-163.47500610351562 C-42.680999755859375,-163.47500610351562 -68.96099853515625,-147.1750030517578 -88.91899871826172,-119.45500183105469 C-108.87699890136719,-91.73500061035156 -125.51000213623047,-27.094999313354492 -99.4530029296875,27.236000061035156 C-73.39700317382812,81.56700134277344 -29.375999450683594,98.75299835205078 -3.1730000972747803,98.75299835205078 C23.030000686645508,98.75299835205078 67.05000305175781,81.56700134277344 93.10700225830078,27.236000061035156 C119.16300201416016,-27.094999313354492 102.53099822998047,-91.73500061035156 82.572998046875,-119.45500183105469z"></path></g><g opacity="1" transform="matrix(1,0,0,1,0,0)"><path fill="url(#__lottie_element_20)" fill-opacity="1" d=" M73.96399688720703,-41.46099853515625 C73.96399688720703,-41.46099853515625 35.553001403808594,-53.87200164794922 12.00100040435791,-65.33200073242188 C-17.117000579833984,-79.5009994506836 -39.91400146484375,-96.30899810791016 -52.55500030517578,-106.5250015258789 C-52.55500030517578,-106.5250015258789 -62.553001403808594,-76.77200317382812 -78.63300323486328,-59.66600036621094 C-104.00599670410156,-32.67499923706055 -101.81600189208984,-0.7459999918937683 -80.6050033569336,34.46799850463867 C-59.39400100708008,69.68199920654297 -24.503000259399414,81.76399993896484 -3.1730000972747803,81.76399993896484 C18.156999588012695,81.76399993896484 53.04800033569336,69.68199920654297 74.25900268554688,34.46799850463867 C95.47000122070312,-0.7459999918937683 90.20999908447266,-23.4950008392334 73.96399688720703,-41.46099853515625z"></path></g></g><g style="display: block;" transform="matrix(0.7599999904632568,0,0,0.7599999904632568,257.944580078125,217.74566650390625)" opacity="1"><g opacity="1" transform="matrix(1,0,0,1,0,0)"><path fill="rgb(75,37,2)" fill-opacity="1" d=" M43.34299850463867,120.85099792480469 C40.119998931884766,119.03800201416016 25.618000030517578,121.85800170898438 14.940999984741211,118.03099822998047 C4.264999866485596,114.2040023803711 1.8489999771118164,119.62100219726562 -1.9789999723434448,119.62100219726562 C-5.806000232696533,119.62100219726562 -8.222999572753906,114.2040023803711 -18.899999618530273,118.03099822998047 C-29.576000213623047,121.85800170898438 -44.07899856567383,119.03800201416016 -47.301998138427734,120.85099792480469 C-50.525001525878906,122.66400146484375 -28.535999298095703,143.5919952392578 -1.9789999723434448,143.5919952392578 C24.26799964904785,143.5919952392578 46.566001892089844,122.66400146484375 43.34299850463867,120.85099792480469z"></path></g><g opacity="1" transform="matrix(1,0,0,1,0,0)"><path fill="url(#__lottie_element_55)" fill-opacity="1" d=" M43.34299850463867,120.85099792480469 C40.119998931884766,119.03800201416016 25.618000030517578,121.85800170898438 14.940999984741211,118.03099822998047 C4.264999866485596,114.2040023803711 1.8489999771118164,119.62100219726562 -1.9789999723434448,119.62100219726562 C-5.806000232696533,119.62100219726562 -8.222999572753906,114.2040023803711 -18.899999618530273,118.03099822998047 C-29.576000213623047,121.85800170898438 -44.07899856567383,119.03800201416016 -47.301998138427734,120.85099792480469 C-50.525001525878906,122.66400146484375 -28.535999298095703,143.5919952392578 -1.9789999723434448,143.5919952392578 C24.26799964904785,143.5919952392578 46.566001892089844,122.66400146484375 43.34299850463867,120.85099792480469z"></path></g><g opacity="1" transform="matrix(1,0,0,1,0,0)"><path fill="rgb(23,19,11)" fill-opacity="1" d=" M-39.88199996948242,124.6240005493164 C-39.88199996948242,124.6240005493164 -28.322999954223633,127.36900329589844 -20.43899917602539,127.36900329589844 C-15.086999893188477,127.36900329589844 -7.00600004196167,130.20700073242188 -1.9789999723434448,130.20700073242188 C2.8519999980926514,130.20700073242188 9.390000343322754,127.43000030517578 14.458999633789062,127.43000030517578 C24.839000701904297,127.43000030517578 35.196998596191406,124.6240005493164 35.196998596191406,124.6240005493164 C35.196998596191406,124.6240005493164 26.56399917602539,127.21399688720703 13.963000297546387,129.86099243164062 C9.489999771118164,130.80099487304688 3.2860000133514404,133.1820068359375 -1.9789999723434448,133.1820068359375 C-8.236000061035156,133.1820068359375 -15.381999969482422,130.53799438476562 -20.562000274658203,129.3000030517578 C-32.020999908447266,126.56099700927734 -39.88199996948242,124.6240005493164 -39.88199996948242,124.6240005493164z"></path><path stroke-linecap="round" stroke-linejoin="round" fill-opacity="0" stroke="rgb(23,19,11)" stroke-opacity="1" stroke-width="1" d=" M-39.88199996948242,124.6240005493164 C-39.88199996948242,124.6240005493164 -28.322999954223633,127.36900329589844 -20.43899917602539,127.36900329589844 C-15.086999893188477,127.36900329589844 -7.00600004196167,130.20700073242188 -1.9789999723434448,130.20700073242188 C2.8519999980926514,130.20700073242188 9.390000343322754,127.43000030517578 14.458999633789062,127.43000030517578 C24.839000701904297,127.43000030517578 35.196998596191406,124.6240005493164 35.196998596191406,124.6240005493164 C35.196998596191406,124.6240005493164 26.56399917602539,127.21399688720703 13.963000297546387,129.86099243164062 C9.489999771118164,130.80099487304688 3.2860000133514404,133.1820068359375 -1.9789999723434448,133.1820068359375 C-8.236000061035156,133.1820068359375 -15.381999969482422,130.53799438476562 -20.562000274658203,129.3000030517578 C-32.020999908447266,126.56099700927734 -39.88199996948242,124.6240005493164 -39.88199996948242,124.6240005493164z"></path></g></g><g style="display: block;" transform="matrix(0.7599999904632568,0,0,0.7599999904632568,257.944580078125,217.74566650390625)" opacity="1"><g opacity="1" transform="matrix(1,0,0,1,0,0)"><path fill="url(#__lottie_element_35)" fill-opacity="1" d=" M18.190000534057617,94.09300231933594 C18.190000534057617,102.9260025024414 8.125,110.77799987792969 -2.8350000381469727,110.77799987792969 C-13.795000076293945,110.77799987792969 -23.861000061035156,102.9260025024414 -23.861000061035156,94.09300231933594 C-23.861000061035156,85.26100158691406 -13.795000076293945,77.16200256347656 -2.8350000381469727,77.16200256347656 C8.125,77.16200256347656 18.190000534057617,85.26100158691406 18.190000534057617,94.09300231933594z"></path></g><g opacity="1" transform="matrix(1,0,0,1,0,0)"><path fill="rgb(255,168,0)" fill-opacity="0.8" d=" M18.190000534057617,85.64399719238281 C18.190000534057617,94.10600280761719 8.777000427246094,100.96600341796875 -2.8350000381469727,100.96600341796875 C-14.446999549865723,100.96600341796875 -23.860000610351562,94.10600280761719 -23.860000610351562,85.64399719238281 C-23.860000610351562,77.18199920654297 -14.446999549865723,70.68299865722656 -2.8350000381469727,70.68299865722656 C8.777000427246094,70.68299865722656 18.190000534057617,77.18199920654297 18.190000534057617,85.64399719238281z"></path></g><g opacity="1" transform="matrix(1,0,0,1,0,0)"><path fill="url(#__lottie_element_36)" fill-opacity="1" d=" M18.190000534057617,85.64399719238281 C18.190000534057617,94.10600280761719 8.777000427246094,100.96600341796875 -2.8350000381469727,100.96600341796875 C-14.446999549865723,100.96600341796875 -23.860000610351562,94.10600280761719 -23.860000610351562,85.64399719238281 C-23.860000610351562,77.18199920654297 -14.446999549865723,70.68299865722656 -2.8350000381469727,70.68299865722656 C8.777000427246094,70.68299865722656 18.190000534057617,77.18199920654297 18.190000534057617,85.64399719238281z"></path></g><g opacity="1" transform="matrix(1,0,0,1,0,0)"><path fill="rgb(255,216,0)" fill-opacity="1" d=" M15.352999687194824,80.80799865722656 C15.352999687194824,87.10800170898438 7.210000038146973,92.21499633789062 -2.8350000381469727,92.21499633789062 C-12.880000114440918,92.21499633789062 -21.02400016784668,87.10800170898438 -21.02400016784668,80.80799865722656 C-21.02400016784668,74.50800323486328 -12.880000114440918,70.43599700927734 -2.8350000381469727,70.43599700927734 C7.210000038146973,70.43599700927734 15.352999687194824,74.50800323486328 15.352999687194824,80.80799865722656z"></path></g><g opacity="1" transform="matrix(1,0,0,1,0,0)"><path fill="url(#__lottie_element_37)" fill-opacity="1" d=" M15.352999687194824,80.80799865722656 C15.352999687194824,87.10800170898438 7.210000038146973,92.21499633789062 -2.8350000381469727,92.21499633789062 C-12.880000114440918,92.21499633789062 -21.02400016784668,87.10800170898438 -21.02400016784668,80.80799865722656 C-21.02400016784668,74.50800323486328 -12.880000114440918,70.43599700927734 -2.8350000381469727,70.43599700927734 C7.210000038146973,70.43599700927734 15.352999687194824,74.50800323486328 15.352999687194824,80.80799865722656z"></path></g><g opacity="1" transform="matrix(1,0,0,1,0,0)"><path fill="url(#__lottie_element_38)" fill-opacity="0.7000000000000001" d=" M6.535999774932861,76.23300170898438 C6.535999774932861,79.60600280761719 2.3399999141693115,82.77799987792969 -2.8350000381469727,82.77799987792969 C-8.010000228881836,82.77799987792969 -12.206000328063965,79.60600280761719 -12.206000328063965,76.23300170898438 C-12.206000328063965,72.86000061035156 -8.010000228881836,71.16799926757812 -2.8350000381469727,71.16799926757812 C2.3399999141693115,71.16799926757812 6.535999774932861,72.86000061035156 6.535999774932861,76.23300170898438z"></path></g></g><g style="display: block;" transform="matrix(1.0303009748458862,0,0,1.0200999975204468,255.4838409423828,239.9049530029297)" opacity="0.5"><g opacity="1" transform="matrix(1,0,0,1,0,0)"><path fill="rgb(255,168,0)" fill-opacity="1" d=" M98.62899780273438,-27.011999130249023 C98.62899780273438,-27.011999130249023 90.16699981689453,-27.007999420166016 90.16699981689453,-27.007999420166016 C87.5780029296875,-28.398000717163086 84.43599700927734,-29.18899917602539 80.73600006103516,-29.336000442504883 C72.30400085449219,-29.670000076293945 43.49599838256836,-29.781999588012695 30.195999145507812,-27.149999618530273 C24.57699966430664,-26.038000106811523 20.27199935913086,-24.68899917602539 16.99799919128418,-22.93899917602539 C16.573999404907227,-22.83300018310547 16.150999069213867,-22.722999572753906 15.722000122070312,-22.645000457763672 C13.697999954223633,-22.277000427246094 10.003999710083008,-22.273000717163086 7.572000026702881,-22.273000717163086 C7.572000026702881,-22.273000717163086 -8.866999626159668,-22.273000717163086 -8.866999626159668,-22.273000717163086 C-11.989999771118164,-22.273000717163086 -14.739999771118164,-22.652999877929688 -17.618999481201172,-23.253999710083008 C-20.812999725341797,-24.85099983215332 -24.920000076293945,-26.106000900268555 -30.195999145507812,-27.149999618530273 C-43.494998931884766,-29.783000946044922 -72.30699920654297,-29.672000885009766 -80.73699951171875,-29.336000442504883 C-84.43699645996094,-29.18899917602539 -87.5790023803711,-28.398000717163086 -90.16799926757812,-27.007999420166016 C-90.16799926757812,-27.007999420166016 -98.69100189208984,-27.011999130249023 -98.69100189208984,-27.011999130249023 C-100.23200225830078,-27.011999130249023 -99.35600280761719,-26.55500030517578 -99.35600280761719,-25.048999786376953 C-99.35600280761719,-25.048999786376953 -99.35600280761719,-8.64799976348877 -99.35600280761719,-8.64799976348877 C-99.35600280761719,-7.142000198364258 -99.05699920654297,-5.1579999923706055 -98.69100189208984,-5.1579999923706055 C-98.69100189208984,-5.1579999923706055 -98.56999969482422,-5.1529998779296875 -98.56999969482422,-5.1529998779296875 C-98.28900146484375,-1.715000033378601 -97.66500091552734,2.0989999771118164 -96.68499755859375,6.320000171661377 C-92.37000274658203,24.915000915527344 -79.81600189208984,28.256999969482422 -76.0719985961914,28.839000701904297 C-72.88500213623047,29.333999633789062 -68.62200164794922,29.510000228881836 -64.17400360107422,29.510000228881836 C-57.867000579833984,29.510000228881836 -51.191001892089844,29.156999588012695 -46.696998596191406,28.858999252319336 C-46.12799835205078,28.82200050354004 -45.512001037597656,28.788999557495117 -44.854000091552734,28.7549991607666 C-37.86600112915039,28.392000198364258 -26.172000885009766,27.783000946044922 -18.98200035095215,18.305999755859375 C-13.609000205993652,11.223999977111816 -9.604000091552734,1.399999976158142 -8.57800006866455,-6.072000026702881 C-1.4989999532699585,-14.300000190734863 5.23799991607666,-10.25 8.42199993133545,-7.379000186920166 C9.12600040435791,0.2199999988079071 13.289999961853027,10.803999900817871 18.981000900268555,18.305999755859375 C26.172000885009766,27.783000946044922 37.86600112915039,28.392000198364258 44.854000091552734,28.7549991607666 C45.512001037597656,28.788999557495117 46.12799835205078,28.82200050354004 46.696998596191406,28.858999252319336 C51.191001892089844,29.156999588012695 57.867000579833984,29.510000228881836 64.17500305175781,29.510000228881836 C68.62100219726562,29.510000228881836 72.88500213623047,29.333999633789062 76.0719985961914,28.839000701904297 C79.81600189208984,28.256999969482422 92.37000274658203,24.915000915527344 96.68399810791016,6.320000171661377 C97.66400146484375,2.0989999771118164 98.28800201416016,-1.715000033378601 98.56900024414062,-5.1529998779296875 C98.56900024414062,-5.1529998779296875 98.62899780273438,-5.1579999923706055 98.62899780273438,-5.1579999923706055 C100.16999816894531,-5.1579999923706055 99.16899871826172,-6.3480000495910645 99.16899871826172,-7.854000091552734 C99.16899871826172,-7.854000091552734 99.16899871826172,-24.2549991607666 99.16899871826172,-24.2549991607666 C99.16899871826172,-25.76099967956543 100.16999816894531,-27.011999130249023 98.62899780273438,-27.011999130249023z M-22.268999099731445,15.92300033569336 C-28.312000274658203,23.88800048828125 -38.39799880981445,22.413000106811523 -45.07099914550781,22.76099967956543 C-45.75,22.79599952697754 -46.387001037597656,22.829999923706055 -46.972999572753906,22.868999481201172 C-54.46500015258789,23.36400032043457 -68.12000274658203,24.025999069213867 -75.4280014038086,22.88800048828125 C-78.53199768066406,22.406999588012695 -88.9469985961914,21.579999923706055 -92.69400024414062,5.434999942779541 C-95.6719970703125,-7.400000095367432 -95.30699920654297,-15.95199966430664 -91.5790023803711,-20.709999084472656 C-89.2969970703125,-23.621999740600586 -85.69499969482422,-25.13599967956543 -80.57099914550781,-25.34000015258789 C-73.4260025024414,-25.621999740600586 -44.060001373291016,-25.812000274658203 -31.006999969482422,-23.229999542236328 C-17.83099937438965,-20.62299919128418 -14.241000175476074,-17.079999923706055 -12.718999862670898,-12.211000442504883 C-11.159000396728516,-7.22599983215332 -15.071000099182129,6.435999870300293 -22.268999099731445,15.92300033569336z M92.69300079345703,5.434999942779541 C88.9469985961914,21.579999923706055 78.53199768066406,22.406999588012695 75.4280014038086,22.88800048828125 C68.12000274658203,24.024999618530273 54.4640007019043,23.36400032043457 46.972999572753906,22.868999481201172 C46.387001037597656,22.829999923706055 45.75,22.79599952697754 45.07099914550781,22.76099967956543 C38.39799880981445,22.413000106811523 28.312000274658203,23.888999938964844 22.26799964904785,15.92300033569336 C15.071000099182129,6.435999870300293 11.159000396728516,-7.22599983215332 12.718000411987305,-12.211000442504883 C14.239999771118164,-17.079999923706055 17.83099937438965,-20.62299919128418 31.006999969482422,-23.229999542236328 C40.24800109863281,-25.058000564575195 57.66699981689453,-25.496999740600586 69.58699798583984,-25.496999740600586 C74.5009994506836,-25.496999740600586 78.48300170898438,-25.422000885009766 80.56999969482422,-25.34000015258789 C85.69499969482422,-25.13599967956543 89.2969970703125,-23.621999740600586 91.5790023803711,-20.709999084472656 C95.30699920654297,-15.951000213623047 95.6719970703125,-7.400000095367432 92.69300079345703,5.434999942779541z"></path></g></g><g style="display: block;" transform="matrix(0.7599999904632568,0,0,0.7599999904632568,257.1944580078125,216.24542236328125)" opacity="1"><g opacity="1" transform="matrix(1,0,0,1,0,0)"><g opacity="1" transform="matrix(1,0,0,1,0,0)"><path fill="rgb(255,255,255)" fill-opacity="1" d=" M-33.71799850463867,37.624000549316406 C-33.71799850463867,37.624000549316406 -37.43199920654297,-6.709000110626221 -74.30799865722656,-10.413000106811523 C-108.17400360107422,-13.814000129699707 -119.28600311279297,25.458999633789062 -119.28600311279297,25.458999633789062 C-119.28600311279297,25.458999633789062 -110.1709976196289,49.233001708984375 -80.52400207519531,52.48400115966797 C-47.472999572753906,56.10900115966797 -33.71799850463867,37.624000549316406 -33.71799850463867,37.624000549316406z"></path></g><g opacity="1" transform="matrix(1,0,0,1,0,0)"><g opacity="1" transform="matrix(1,0,0,1,0,0)"><path fill="url(#__lottie_element_41)" fill-opacity="1" d=" M-51.20500183105469,19.68600082397461 C-51.20500183105469,33.59600067138672 -61.845001220703125,44.87200164794922 -74.97100067138672,44.87200164794922 C-88.09700012207031,44.87200164794922 -98.73799896240234,33.59600067138672 -98.73799896240234,19.68600082397461 C-98.73799896240234,5.776000022888184 -88.09700012207031,-5.5 -74.97100067138672,-5.5 C-61.845001220703125,-5.5 -51.20500183105469,5.776000022888184 -51.20500183105469,19.68600082397461z"></path></g><g opacity="1" transform="matrix(1,0,0,1,0,0)"><g opacity="1" transform="matrix(1,0,0,1,0,0)"><path fill="url(#__lottie_element_42)" fill-opacity="1" d=" M-69.46700286865234,43.790000915527344 C-71.34400177001953,43.790000915527344 -73.08100128173828,42.577999114990234 -73.66300201416016,40.691001892089844 C-74.37799835205078,38.37300109863281 -73.0780029296875,35.91400146484375 -70.76000213623047,35.19900131225586 C-66.32599639892578,33.83100128173828 -62.79600143432617,30.38599967956543 -61.31800079345703,25.983999252319336 C-60.54600143432617,23.683000564575195 -58.051998138427734,22.447999954223633 -55.75699996948242,23.218000411987305 C-53.457000732421875,23.989999771118164 -52.21900177001953,26.479999542236328 -52.99100112915039,28.780000686645508 C-55.36600112915039,35.856998443603516 -61.04100036621094,41.39500045776367 -68.1719970703125,43.59400177001953 C-68.60299682617188,43.72700119018555 -69.03900146484375,43.790000915527344 -69.46700286865234,43.790000915527344z"></path></g></g><g opacity="1" transform="matrix(1,0,0,1,0,0)"><path fill="rgb(24,19,9)" fill-opacity="1" d=" M-59.95100021362305,19.68600082397461 C-59.95100021362305,28.476999282836914 -66.67500305175781,35.604000091552734 -74.97100067138672,35.604000091552734 C-83.26699829101562,35.604000091552734 -89.99199676513672,28.476999282836914 -89.99199676513672,19.68600082397461 C-89.99199676513672,10.895000457763672 -83.26699829101562,3.7690000534057617 -74.97100067138672,3.7690000534057617 C-66.67500305175781,3.7690000534057617 -59.95100021362305,10.895000457763672 -59.95100021362305,19.68600082397461z"></path></g><g opacity="1" transform="matrix(1,0,0,1,0,0)"><path fill="url(#__lottie_element_43)" fill-opacity="1" d=" M-76.302001953125,5.961999893188477 C-76.302001953125,9.300000190734863 -78.85600280761719,12.005999565124512 -82.00599670410156,12.005999565124512 C-85.15599822998047,12.005999565124512 -87.70999908447266,9.300000190734863 -87.70999908447266,5.961999893188477 C-87.70999908447266,2.624000072479248 -85.15599822998047,-0.08299999684095383 -82.00599670410156,-0.08299999684095383 C-78.85600280761719,-0.08299999684095383 -76.302001953125,2.624000072479248 -76.302001953125,5.961999893188477z"></path></g></g><g opacity="1" transform="matrix(1,0,0,1,0,0)"><path fill="rgb(163,65,0)" fill-opacity="1" d=" M-33.71799850463867,37.624000549316406 C-33.71799850463867,37.624000549316406 -35.4900016784668,-7.86299991607666 -76.50199890136719,-11.777000427246094 C-93.33999633789062,-13.383999824523926 -107.60199737548828,-4.119999885559082 -113.76799774169922,6.861000061035156 C-118.95999908447266,16.107999801635742 -119.28600311279297,25.458999633789062 -119.28600311279297,25.458999633789062 C-119.28600311279297,25.458999633789062 -115.41500091552734,-9.817000389099121 -77.822998046875,-8.013999938964844 C-37.59400177001953,-6.084000110626221 -33.71799850463867,37.624000549316406 -33.71799850463867,37.624000549316406z"></path><path stroke-linecap="round" stroke-linejoin="round" fill-opacity="0" stroke="rgb(163,65,0)" stroke-opacity="1" stroke-width="2" d=" M-33.71799850463867,37.624000549316406 C-33.71799850463867,37.624000549316406 -35.4900016784668,-7.86299991607666 -76.50199890136719,-11.777000427246094 C-93.33999633789062,-13.383999824523926 -107.60199737548828,-4.119999885559082 -113.76799774169922,6.861000061035156 C-118.95999908447266,16.107999801635742 -119.28600311279297,25.458999633789062 -119.28600311279297,25.458999633789062 C-119.28600311279297,25.458999633789062 -115.41500091552734,-9.817000389099121 -77.822998046875,-8.013999938964844 C-37.59400177001953,-6.084000110626221 -33.71799850463867,37.624000549316406 -33.71799850463867,37.624000549316406z"></path></g></g><g opacity="1" transform="matrix(-1,0,0,1,-4.125,0)"><g opacity="1" transform="matrix(1,0,0,1,0,0)"><path fill="rgb(255,255,255)" fill-opacity="1" d=" M-33.71799850463867,37.624000549316406 C-33.71799850463867,37.624000549316406 -37.43199920654297,-6.709000110626221 -74.30799865722656,-10.413000106811523 C-108.17400360107422,-13.814000129699707 -119.28600311279297,25.458999633789062 -119.28600311279297,25.458999633789062 C-119.28600311279297,25.458999633789062 -110.1709976196289,49.233001708984375 -80.52400207519531,52.48400115966797 C-47.472999572753906,56.10900115966797 -33.71799850463867,37.624000549316406 -33.71799850463867,37.624000549316406z"></path></g><g opacity="1" transform="matrix(-1,0,0,1,-149.94200134277344,0)"><g opacity="1" transform="matrix(1,0,0,1,0,0)"><g opacity="1" transform="matrix(1,0,0,1,0,0)"><path fill="url(#__lottie_element_44)" fill-opacity="1" d=" M-51.20500183105469,19.68600082397461 C-51.20500183105469,33.59600067138672 -61.845001220703125,44.87200164794922 -74.97100067138672,44.87200164794922 C-88.09700012207031,44.87200164794922 -98.73799896240234,33.59600067138672 -98.73799896240234,19.68600082397461 C-98.73799896240234,5.776000022888184 -88.09700012207031,-5.5 -74.97100067138672,-5.5 C-61.845001220703125,-5.5 -51.20500183105469,5.776000022888184 -51.20500183105469,19.68600082397461z"></path></g><g opacity="1" transform="matrix(1,0,0,1,0,0)"><g opacity="1" transform="matrix(1,0,0,1,0,0)"><path fill="url(#__lottie_element_45)" fill-opacity="1" d=" M-69.46700286865234,43.790000915527344 C-71.34400177001953,43.790000915527344 -73.08100128173828,42.577999114990234 -73.66300201416016,40.691001892089844 C-74.37799835205078,38.37300109863281 -73.0780029296875,35.91400146484375 -70.76000213623047,35.19900131225586 C-66.32599639892578,33.83100128173828 -62.79600143432617,30.38599967956543 -61.31800079345703,25.983999252319336 C-60.54600143432617,23.683000564575195 -58.051998138427734,22.447999954223633 -55.75699996948242,23.218000411987305 C-53.457000732421875,23.989999771118164 -52.21900177001953,26.479999542236328 -52.99100112915039,28.780000686645508 C-55.36600112915039,35.856998443603516 -61.04100036621094,41.39500045776367 -68.1719970703125,43.59400177001953 C-68.60299682617188,43.72700119018555 -69.03900146484375,43.790000915527344 -69.46700286865234,43.790000915527344z"></path></g></g><g opacity="1" transform="matrix(1,0,0,1,0,0)"><path fill="rgb(24,19,9)" fill-opacity="1" d=" M-59.95100021362305,19.68600082397461 C-59.95100021362305,28.476999282836914 -66.67500305175781,35.604000091552734 -74.97100067138672,35.604000091552734 C-83.26699829101562,35.604000091552734 -89.99199676513672,28.476999282836914 -89.99199676513672,19.68600082397461 C-89.99199676513672,10.895000457763672 -83.26699829101562,3.7690000534057617 -74.97100067138672,3.7690000534057617 C-66.67500305175781,3.7690000534057617 -59.95100021362305,10.895000457763672 -59.95100021362305,19.68600082397461z"></path></g><g opacity="1" transform="matrix(1,0,0,1,0,0)"><path fill="url(#__lottie_element_46)" fill-opacity="1" d=" M-76.302001953125,5.961999893188477 C-76.302001953125,9.300000190734863 -78.85600280761719,12.005999565124512 -82.00599670410156,12.005999565124512 C-85.15599822998047,12.005999565124512 -87.70999908447266,9.300000190734863 -87.70999908447266,5.961999893188477 C-87.70999908447266,2.624000072479248 -85.15599822998047,-0.08299999684095383 -82.00599670410156,-0.08299999684095383 C-78.85600280761719,-0.08299999684095383 -76.302001953125,2.624000072479248 -76.302001953125,5.961999893188477z"></path></g></g></g><g opacity="1" transform="matrix(1,0,0,1,0,0)"><path fill="rgb(163,65,0)" fill-opacity="1" d=" M-33.71799850463867,37.624000549316406 C-33.71799850463867,37.624000549316406 -35.4900016784668,-7.86299991607666 -76.50199890136719,-11.777000427246094 C-93.33999633789062,-13.383999824523926 -107.60199737548828,-4.119999885559082 -113.76799774169922,6.861000061035156 C-118.95999908447266,16.107999801635742 -119.28600311279297,25.458999633789062 -119.28600311279297,25.458999633789062 C-119.28600311279297,25.458999633789062 -115.41500091552734,-9.817000389099121 -77.822998046875,-8.013999938964844 C-37.59400177001953,-6.084000110626221 -33.71799850463867,37.624000549316406 -33.71799850463867,37.624000549316406z"></path><path stroke-linecap="round" stroke-linejoin="round" fill-opacity="0" stroke="rgb(163,65,0)" stroke-opacity="1" stroke-width="2" d=" M-33.71799850463867,37.624000549316406 C-33.71799850463867,37.624000549316406 -35.4900016784668,-7.86299991607666 -76.50199890136719,-11.777000427246094 C-93.33999633789062,-13.383999824523926 -107.60199737548828,-4.119999885559082 -113.76799774169922,6.861000061035156 C-118.95999908447266,16.107999801635742 -119.28600311279297,25.458999633789062 -119.28600311279297,25.458999633789062 C-119.28600311279297,25.458999633789062 -115.41500091552734,-9.817000389099121 -77.822998046875,-8.013999938964844 C-37.59400177001953,-6.084000110626221 -33.71799850463867,37.624000549316406 -33.71799850463867,37.624000549316406z"></path></g></g></g><g style="display: block;" transform="matrix(0.7599999904632568,0,0,0.7599999904632568,257.5014953613281,216.41946411132812)" opacity="1"><g opacity="1" transform="matrix(1,0,0,1,0,0)"><path fill="rgb(163,65,0)" fill-opacity="1" d=" M-108.53900146484375,-29.43400001525879 C-108.53900146484375,-29.43400001525879 -93.75199890136719,-39.57699966430664 -76.2020034790039,-39.02899932861328 C-59.3849983215332,-38.50400161743164 -52.435001373291016,-32.145999908447266 -52.435001373291016,-32.145999908447266 C-52.435001373291016,-32.145999908447266 -58.0369987487793,-44.35599899291992 -76.2020034790039,-43.82699966430664 C-96.21299743652344,-43.24399948120117 -108.53900146484375,-29.43400001525879 -108.53900146484375,-29.43400001525879z"></path><path stroke-linecap="round" stroke-linejoin="round" fill-opacity="0" stroke="rgb(163,65,0)" stroke-opacity="1" stroke-width="2.4" d=" M-108.53900146484375,-29.43400001525879 C-108.53900146484375,-29.43400001525879 -93.75199890136719,-39.57699966430664 -76.2020034790039,-39.02899932861328 C-59.3849983215332,-38.50400161743164 -52.435001373291016,-32.145999908447266 -52.435001373291016,-32.145999908447266 C-52.435001373291016,-32.145999908447266 -58.0369987487793,-44.35599899291992 -76.2020034790039,-43.82699966430664 C-96.21299743652344,-43.24399948120117 -108.53900146484375,-29.43400001525879 -108.53900146484375,-29.43400001525879z"></path></g><g opacity="1" transform="matrix(1,0,0,1,0,0)"><path fill="rgb(163,65,0)" fill-opacity="1" d=" M102.75700378417969,-29.43400001525879 C102.75700378417969,-29.43400001525879 87.97000122070312,-39.57699966430664 70.41999816894531,-39.02899932861328 C53.60300064086914,-38.50400161743164 46.65299987792969,-32.145999908447266 46.65299987792969,-32.145999908447266 C46.65299987792969,-32.145999908447266 52.255001068115234,-44.35599899291992 70.41999816894531,-43.82699966430664 C90.43099975585938,-43.24399948120117 102.75700378417969,-29.43400001525879 102.75700378417969,-29.43400001525879z"></path><path stroke-linecap="round" stroke-linejoin="round" fill-opacity="0" stroke="rgb(163,65,0)" stroke-opacity="1" stroke-width="2.4" d=" M102.75700378417969,-29.43400001525879 C102.75700378417969,-29.43400001525879 87.97000122070312,-39.57699966430664 70.41999816894531,-39.02899932861328 C53.60300064086914,-38.50400161743164 46.65299987792969,-32.145999908447266 46.65299987792969,-32.145999908447266 C46.65299987792969,-32.145999908447266 52.255001068115234,-44.35599899291992 70.41999816894531,-43.82699966430664 C90.43099975585938,-43.24399948120117 102.75700378417969,-29.43400001525879 102.75700378417969,-29.43400001525879z"></path></g></g><g style="display: block;" transform="matrix(1.0303009748458862,0,0,1.0200999975204468,-8.783208847045898,0.5792913436889648)" opacity="1"><g opacity="1" transform="matrix(1,0,0,1,204.18499755859375,228.61500549316406)"><path stroke-linecap="butt" stroke-linejoin="miter" fill-opacity="0" stroke-miterlimit="10" stroke="rgb(19,18,18)" stroke-opacity="1" stroke-width="6" d=" M-26.51099967956543,-27.341999053955078 C-19.246000289916992,-27.636999130249023 9.348999977111816,-27.83799934387207 22.40399932861328,-25.194000244140625 C35.45899963378906,-22.549999237060547 39.974998474121094,-18.749000549316406 41.792999267578125,-12.800000190734863 C43.611000061035156,-6.85099983215332 39.25899887084961,7.525000095367432 32.15299987792969,17.110000610351562 C25.047000885009766,26.69499969482422 12.803999900817871,26.43600082397461 6.539000034332275,26.860000610351562 C-1.062999963760376,27.374000549316406 -14.446999549865723,28.017000198364258 -21.718000411987305,26.860000610351562 C-26.61400032043457,26.08099937438965 -36.590999603271484,21.902000427246094 -40.22700119018555,5.873000144958496 C-44.45600128173828,-12.772000312805176 -42.790000915527344,-26.680999755859375 -26.51099967956543,-27.341999053955078z"></path></g><g opacity="1" transform="matrix(1,0,0,1,255.82400512695312,214.05499267578125)"><path fill="rgb(19,18,18)" fill-opacity="1" d=" M-20.972999572753906,-9.402000427246094 C-20.972999572753906,-9.402000427246094 -19.56800079345703,-9.402000427246094 -19.56800079345703,-9.402000427246094 C-15.569999694824219,-8.407999992370605 -12.114999771118164,-7.7179999351501465 -7.994999885559082,-7.7179999351501465 C-7.994999885559082,-7.7179999351501465 8.069999694824219,-7.7179999351501465 8.069999694824219,-7.7179999351501465 C10.446999549865723,-7.7179999351501465 14.057000160217285,-7.7220001220703125 16.03499984741211,-8.09000015258789 C16.62299919128418,-8.199000358581543 17.207000732421875,-8.340999603271484 17.783000946044922,-8.503000259399414 C17.783000946044922,-8.503000259399414 20.972999572753906,-9.402000427246094 20.972999572753906,-9.402000427246094 C20.972999572753906,-9.402000427246094 8.6899995803833,-1.5260000228881836 10.77400016784668,9.194999694824219 C10.77400016784668,9.194999694824219 1.3769999742507935,-3.5290000438690186 -8.454999923706055,9.402000427246094 C-8.454999923706055,9.402000427246094 -5.769999980926514,-1.7109999656677246 -20.972999572753906,-9.402000427246094z"></path></g><g opacity="1" transform="matrix(1,0,0,1,161.9550018310547,212.52999877929688)"><path fill="rgb(19,18,18)" fill-opacity="1" d=" M7.99399995803833,-10.927000045776367 C7.99399995803833,-10.927000045776367 -5.267000198364258,-10.927000045776367 -5.267000198364258,-10.927000045776367 C-6.7729997634887695,-10.927000045776367 -7.99399995803833,-9.706999778747559 -7.99399995803833,-8.201000213623047 C-7.99399995803833,-8.201000213623047 -7.99399995803833,8.201000213623047 -7.99399995803833,8.201000213623047 C-7.99399995803833,9.706999778747559 -6.7729997634887695,10.927000045776367 -5.267000198364258,10.927000045776367 C-5.267000198364258,10.927000045776367 0.2029999941587448,10.927000045776367 0.2029999941587448,10.927000045776367 C0.2029999941587448,10.927000045776367 -2.6649999618530273,-3.739000082015991 7.99399995803833,-10.927000045776367z"></path></g><g opacity="1" transform="matrix(1,0,0,1,308.8039855957031,228.61500549316406)"><path stroke-linecap="butt" stroke-linejoin="miter" fill-opacity="0" stroke-miterlimit="10" stroke="rgb(19,18,18)" stroke-opacity="1" stroke-width="6" d=" M26.51099967956543,-27.341999053955078 C19.246000289916992,-27.636999130249023 -9.348999977111816,-27.83799934387207 -22.40399932861328,-25.194000244140625 C-35.45899963378906,-22.549999237060547 -39.974998474121094,-18.749000549316406 -41.792999267578125,-12.800000190734863 C-43.611000061035156,-6.85099983215332 -39.25899887084961,7.525000095367432 -32.15299987792969,17.110000610351562 C-25.047000885009766,26.69499969482422 -12.803999900817871,26.43600082397461 -6.539000034332275,26.860000610351562 C1.062999963760376,27.374000549316406 14.446999549865723,28.017000198364258 21.718000411987305,26.860000610351562 C26.61400032043457,26.08099937438965 36.590999603271484,21.902000427246094 40.22700119018555,5.873000144958496 C44.45600128173828,-12.772000312805176 42.790000915527344,-26.680999755859375 26.51099967956543,-27.341999053955078z"></path></g><g opacity="1" transform="matrix(1,0,0,1,351.03399658203125,212.52999877929688)"><path fill="rgb(19,18,18)" fill-opacity="1" d=" M-7.99399995803833,-10.927000045776367 C-7.99399995803833,-10.927000045776367 5.267000198364258,-10.927000045776367 5.267000198364258,-10.927000045776367 C6.7729997634887695,-10.927000045776367 7.99399995803833,-9.706999778747559 7.99399995803833,-8.201000213623047 C7.99399995803833,-8.201000213623047 7.99399995803833,8.201000213623047 7.99399995803833,8.201000213623047 C7.99399995803833,9.706999778747559 6.7729997634887695,10.927000045776367 5.267000198364258,10.927000045776367 C5.267000198364258,10.927000045776367 -0.2029999941587448,10.927000045776367 -0.2029999941587448,10.927000045776367 C-0.2029999941587448,10.927000045776367 2.6649999618530273,-3.739000082015991 -7.99399995803833,-10.927000045776367z"></path></g></g><g style="display: block;" transform="matrix(1.0099999904632568,0,0,1.0099999904632568,258.531005859375,255.8236083984375)" opacity="1"><g opacity="1" transform="matrix(1,0,0,1,0,0)"><path fill="rgb(255,205,0)" fill-opacity="1" d=" M-60.82500076293945,-139.11500549316406 C-66.9530029296875,-89.41699981689453 -92.05999755859375,-56.71699905395508 -133.61500549316406,-38.74599838256836 C-132.94400024414062,-39.582000732421875 -165.6269989013672,-3.2039999961853027 -156.1269989013672,82.33100128173828 C-156.5290069580078,80.05699920654297 -167.072998046875,14.406999588012695 -141.32400512695312,-79.51300048828125 C-116.8499984741211,-168.78500366210938 -76.5790023803711,-182.58399963378906 -67.22799682617188,-178.9250030517578 C-67.22799682617188,-178.9250030517578 -54.06399917602539,-203.93099975585938 11.147000312805176,-195.39199829101562 C76.35800170898438,-186.85299682617188 117.61399841308594,-138.6719970703125 136.08700561523438,-82.56199645996094 C154.55999755859375,-26.45199966430664 159.8300018310547,40.24800109863281 156.75100708007812,82.33100128173828 C156.75100708007812,82.33100128173828 164.85699462890625,-20.531999588012695 95.49500274658203,-53.888999938964844 C95.49500274658203,-53.888999938964844 -2.684999942779541,-74.60900115966797 -60.82500076293945,-139.11500549316406z"></path></g><g opacity="1" transform="matrix(1,0,0,1,0,0)"><path fill="url(#__lottie_element_23)" fill-opacity="1" d=" M-60.82500076293945,-139.11500549316406 C-66.9530029296875,-89.41699981689453 -92.05999755859375,-56.71699905395508 -133.61500549316406,-38.74599838256836 C-132.94400024414062,-39.582000732421875 -165.6269989013672,-3.2039999961853027 -156.1269989013672,82.33100128173828 C-156.5290069580078,80.05699920654297 -167.072998046875,14.406999588012695 -141.32400512695312,-79.51300048828125 C-116.8499984741211,-168.78500366210938 -76.5790023803711,-182.58399963378906 -67.22799682617188,-178.9250030517578 C-67.22799682617188,-178.9250030517578 -54.06399917602539,-203.93099975585938 11.147000312805176,-195.39199829101562 C76.35800170898438,-186.85299682617188 117.61399841308594,-138.6719970703125 136.08700561523438,-82.56199645996094 C154.55999755859375,-26.45199966430664 159.8300018310547,40.24800109863281 156.75100708007812,82.33100128173828 C156.75100708007812,82.33100128173828 164.85699462890625,-20.531999588012695 95.49500274658203,-53.888999938964844 C95.49500274658203,-53.888999938964844 -2.684999942779541,-74.60900115966797 -60.82500076293945,-139.11500549316406z"></path></g><g opacity="1" transform="matrix(1,0,0,1,0,0)"><path fill="url(#__lottie_element_24)" fill-opacity="1" d=" M132.75599670410156,-49.58399963378906 C132.75599670410156,-49.58399963378906 115.39900207519531,-53.486000061035156 95.49700164794922,-53.88399887084961 C95.49700164794922,-53.88399887084961 -2.683000087738037,-74.60700225830078 -60.82600021362305,-139.11900329589844 C-60.82600021362305,-139.11900329589844 -63.051998138427734,-95.15299987792969 -91.24400329589844,-69.18499755859375 C-117.88200378417969,-44.6349983215332 -133.61099243164062,-38.75 -133.61099243164062,-38.75 C-133.61099243164062,-38.75 -153.56900024414062,-9.798999786376953 -155.56300354003906,15.725000381469727 C-155.56300354003906,15.725000381469727 -157.3459930419922,-38.67300033569336 -138.96400451660156,-46.65599822998047 C-138.96400451660156,-46.65599822998047 -108.55899810791016,-63.24100112915039 -92.18000030517578,-84.52300262451172 C-71.19200134277344,-111.79399871826172 -72.75800323486328,-147.84500122070312 -75.60900115966797,-157.66299438476562 C-79.76000213623047,-171.95700073242188 -111.47100067138672,-156.0800018310547 -130.75799560546875,-111.43599700927734 C-106.62699890136719,-172.16700744628906 -75.3290023803711,-182.0919952392578 -67.22599792480469,-178.92300415039062 C-67.22599792480469,-178.92300415039062 -54.060001373291016,-203.92799377441406 11.147000312805176,-195.39199829101562 C44.138999938964844,-191.072998046875 71.01100158691406,-176.5970001220703 91.8949966430664,-156.07899475097656 C91.8949966430664,-156.07899475097656 50.12200164794922,-194.98899841308594 -17.672000885009766,-187.5240020751953 C-63.356998443603516,-182.4929962158203 -56.915000915527344,-160.2989959716797 -51.83399963378906,-151.83399963378906 C-44.62900161743164,-139.82899475097656 -7.7210001945495605,-102.08399963378906 44.803001403808594,-82.36399841308594 C89.74400329589844,-65.49099731445312 115.46499633789062,-61.05699920654297 132.75599670410156,-49.58399963378906z"></path></g><g opacity="1" transform="matrix(1,0,0,1,0,0)"><path stroke-linecap="round" stroke-linejoin="round" fill-opacity="0" stroke="rgb(197,92,0)" stroke-opacity="1" stroke-width="8" d=" M-60.82500076293945,-139.11500549316406 C-57.22999954223633,-95.20500183105469 -90.09200286865234,-57.189998626708984 -133.61500549316406,-38.74599838256836 C-133.61500549316406,-38.74599838256836 -166.14700317382812,-2.615000009536743 -157.07000732421875,79.11100006103516 C-157.07000732421875,79.11100006103516 -167.72300720214844,16.77899932861328 -141.32400512695312,-79.51300048828125 C-116.8499984741211,-168.78500366210938 -76.5790023803711,-182.58399963378906 -67.22799682617188,-178.9250030517578 C-67.22799682617188,-178.9250030517578 -54.06399917602539,-203.93099975585938 11.147000312805176,-195.39199829101562 C76.35800170898438,-186.85299682617188 117.61399841308594,-138.6719970703125 136.08700561523438,-82.56199645996094 C154.55999755859375,-26.45199966430664 159.9149932861328,38.88399887084961 156.83599853515625,80.96700286865234 C156.83599853515625,80.96700286865234 164.66099548339844,-21.492000579833984 95.49500274658203,-53.888999938964844 C95.49500274658203,-53.888999938964844 -2.684999942779541,-74.60900115966797 -60.82500076293945,-139.11500549316406z"></path></g><g opacity="1" transform="matrix(1,0,0,1,0,0)"><path fill="url(#__lottie_element_25)" fill-opacity="0.9" d=" M-74.10199737548828,-146.33299255371094 C-73.5989990234375,-165.83099365234375 -71.49299621582031,-170.18600463867188 -75.97000122070312,-169.0760040283203 C-90.20999908447266,-165.5449981689453 -113.40799713134766,-144.58200073242188 -125.57499694824219,-105.76399993896484 C-124.9729995727539,-91.5479965209961 -107.35199737548828,-101.32499694824219 -98.9530029296875,-101.74199676513672 C-77.447998046875,-102.80999755859375 -74.5469970703125,-129.06199645996094 -74.10199737548828,-146.33299255371094z"></path></g><g opacity="1" transform="matrix(1,0,0,1,0,0)"><path fill="url(#__lottie_element_26)" fill-opacity="0.9" d=" M11.913999557495117,-103.03900146484375 C-22.062000274658203,-114.71700286865234 -46.79600143432617,-144.5229949951172 -52.32099914550781,-153.6580047607422 C-58.83399963378906,-164.4250030517578 -60.762001037597656,-174.21400451660156 -58.98500061035156,-176.23300170898438 C-51.33399963378906,-184.927001953125 -22.58799934387207,-193.0500030517578 17.65999984741211,-185.08900451660156 C54.935001373291016,-177.71600341796875 92.7509994506836,-149.60899353027344 111.10199737548828,-115.07499694824219 C121.33799743652344,-95.81400299072266 67.7020034790039,-83.86399841308594 11.913999557495117,-103.03900146484375z"></path></g><g opacity="1" transform="matrix(1,0,0,1,0,0)"><path stroke-linecap="round" stroke-linejoin="round" fill-opacity="0" stroke="rgb(163,65,0)" stroke-opacity="1" stroke-width="8" d=" M156.83599853515625,80.96700286865234 C156.83599853515625,80.96700286865234 164.66099548339844,-21.492000579833984 95.49500274658203,-53.888999938964844 C95.49500274658203,-53.888999938964844 -2.684999942779541,-74.60900115966797 -60.82500076293945,-139.11500549316406 C-57.22999954223633,-95.20500183105469 -90.09200286865234,-57.189998626708984 -133.61500549316406,-38.74599838256836 C-133.61500549316406,-38.74599838256836 -166.14700317382812,-2.615000009536743 -157.07000732421875,79.11100006103516"></path></g></g><g style="display: block;" transform="matrix(1,0,0,1,0,10)" opacity="1"><g opacity="1" transform="matrix(1,0,0,1,256.90399169921875,437.1629943847656)"><path fill="rgb(220,225,225)" fill-opacity="1" d=" M-84.5999984741211,27.923999786376953 C-84.5999984741211,27.923999786376953 -84.5999984741211,-13.52400016784668 -84.5999984741211,-13.52400016784668 C-84.5999984741211,-13.52400016784668 -72.25700378417969,-27.923999786376953 -72.25700378417969,-27.923999786376953 C-72.25700378417969,-27.923999786376953 84.5999984741211,-27.923999786376953 84.5999984741211,-27.923999786376953 C84.5999984741211,-27.923999786376953 84.5999984741211,27.923999786376953 84.5999984741211,27.923999786376953"></path></g><g opacity="1" transform="matrix(1,0,0,1,256.90399169921875,435.1629943847656)"><path stroke-linecap="square" stroke-linejoin="round" fill-opacity="0" stroke="rgb(160,16,16)" stroke-opacity="1" stroke-width="8" d=" M-84.5999984741211,25.923999786376953 C-84.5999984741211,25.923999786376953 -84.5999984741211,-11.52400016784668 -84.5999984741211,-11.52400016784668 C-84.5999984741211,-11.52400016784668 -72.25700378417969,-25.923999786376953 -72.25700378417969,-25.923999786376953 C-72.25700378417969,-25.923999786376953 84.5999984741211,-25.923999786376953 84.5999984741211,-25.923999786376953 C84.5999984741211,-25.923999786376953 84.5999984741211,25.923999786376953 84.5999984741211,25.923999786376953"></path></g><g opacity="1" transform="matrix(1,0,0,1,250.50399780273438,444.3630065917969)"><path fill="rgb(221,40,40)" fill-opacity="1" d=" M-78.19999694824219,20.724000930786133 C-78.19999694824219,20.724000930786133 -78.19999694824219,-20.724000930786133 -78.19999694824219,-20.724000930786133 C-78.19999694824219,-20.724000930786133 78.19999694824219,-20.724000930786133 78.19999694824219,-20.724000930786133 C78.19999694824219,-20.724000930786133 78.19999694824219,20.724000930786133 78.19999694824219,20.724000930786133"></path></g><g opacity="1" transform="matrix(1,0,0,1,250.50399780273438,442.3630065917969)"><path stroke-linecap="square" stroke-linejoin="round" fill-opacity="0" stroke="rgb(160,16,16)" stroke-opacity="1" stroke-width="8" d=" M-78.19999694824219,18.724000930786133 C-78.19999694824219,18.724000930786133 -78.19999694824219,-18.724000930786133 -78.19999694824219,-18.724000930786133 C-78.19999694824219,-18.724000930786133 78.19999694824219,-18.724000930786133 78.19999694824219,-18.724000930786133 C78.19999694824219,-18.724000930786133 78.19999694824219,18.724000930786133 78.19999694824219,18.724000930786133"></path></g><g opacity="1" transform="matrix(1,0,0,1,184.13299560546875,444.3630065917969)"><path fill="rgb(68,15,15)" fill-opacity="1" d=" M-11.829000473022461,20.724000930786133 C-11.829000473022461,20.724000930786133 -11.829000473022461,-20.724000930786133 -11.829000473022461,-20.724000930786133 C-11.829000473022461,-20.724000930786133 11.829000473022461,-20.724000930786133 11.829000473022461,-20.724000930786133 C11.829000473022461,-20.724000930786133 11.829000473022461,20.724000930786133 11.829000473022461,20.724000930786133"></path></g><g opacity="1" transform="matrix(1,0,0,1,184.13299560546875,442.3630065917969)"><path stroke-linecap="square" stroke-linejoin="round" fill-opacity="0" stroke="rgb(26,6,6)" stroke-opacity="1" stroke-width="8" d=" M-11.829000473022461,18.724000930786133 C-11.829000473022461,18.724000930786133 -11.829000473022461,-18.724000930786133 -11.829000473022461,-18.724000930786133 C-11.829000473022461,-18.724000930786133 11.829000473022461,-18.724000930786133 11.829000473022461,-18.724000930786133 C11.829000473022461,-18.724000930786133 11.829000473022461,18.724000930786133 11.829000473022461,18.724000930786133"></path></g><g opacity="1" transform="matrix(1,0,0,1,190.00399780273438,429.65399169921875)"><path stroke-linecap="square" stroke-linejoin="round" fill-opacity="0" stroke="rgb(26,6,6)" stroke-opacity="1" stroke-width="8" d=" M17.700000762939453,-20.416000366210938 C17.700000762939453,-20.416000366210938 -5.35699987411499,-20.416000366210938 -5.35699987411499,-20.416000366210938 C-5.35699987411499,-20.416000366210938 -17.700000762939453,-6.015999794006348 -17.700000762939453,-6.015999794006348 C-17.700000762939453,-6.015999794006348 -17.700000762939453,20.416000366210938 -17.700000762939453,20.416000366210938"></path></g></g></g></svg>