<svg xmlns="http://www.w3.org/2000/svg" xmlns:xlink="http://www.w3.org/1999/xlink" viewBox="0 0 512 512" width="512" height="512" style="width: 100%; height: 100%; transform: translate3d(0,0,0); content-visibility: visible;" preserveAspectRatio="xMidYMid meet"><defs><clipPath id="__lottie_element_2"><rect width="512" height="512" x="0" y="0"></rect></clipPath><linearGradient id="__lottie_element_7" spreadMethod="pad" gradientUnits="userSpaceOnUse" x1="0" y1="8.5" x2="0.25" y2="-10.062000274658203"><stop offset="0%" stop-color="rgb(140,147,152)" stop-opacity="1"></stop><stop offset="85%" stop-color="rgb(140,147,152)" stop-opacity="0.5"></stop><stop offset="100%" stop-color="rgb(140,147,152)" stop-opacity="0"></stop></linearGradient><radialGradient id="__lottie_element_8" spreadMethod="pad" gradientUnits="userSpaceOnUse" cx="0.5049999952316284" cy="42.05099868774414" r="53.9933038290926" fx="0.5049999952316284" fy="42.05099868774414"><stop offset="19%" stop-color="rgb(255,168,0)" stop-opacity="1"></stop><stop offset="76%" stop-color="rgb(255,168,0)" stop-opacity="0.5"></stop><stop offset="100%" stop-color="rgb(255,168,0)" stop-opacity="0"></stop></radialGradient><linearGradient id="__lottie_element_9" spreadMethod="pad" gradientUnits="userSpaceOnUse" x1="-0.5" y1="-56" x2="1.5" y2="51.25"><stop offset="0%" stop-color="rgb(178,135,80)" stop-opacity="1"></stop><stop offset="60%" stop-color="rgb(178,135,80)" stop-opacity="0.5"></stop><stop offset="100%" stop-color="rgb(178,135,80)" stop-opacity="0"></stop></linearGradient><linearGradient id="__lottie_element_10" spreadMethod="pad" gradientUnits="userSpaceOnUse" x1="-55" y1="0" x2="-0.5" y2="0"><stop offset="0%" stop-color="rgb(112,82,39)" stop-opacity="1"></stop><stop offset="30%" stop-color="rgb(112,82,39)" stop-opacity="0.5"></stop><stop offset="100%" stop-color="rgb(112,82,39)" stop-opacity="0"></stop></linearGradient><linearGradient id="__lottie_element_11" spreadMethod="pad" gradientUnits="userSpaceOnUse" x1="-0.5" y1="-56" x2="1.5" y2="51.25"><stop offset="0%" stop-color="rgb(178,135,80)" stop-opacity="1"></stop><stop offset="60%" stop-color="rgb(178,135,80)" stop-opacity="0.5"></stop><stop offset="100%" stop-color="rgb(178,135,80)" stop-opacity="0"></stop></linearGradient><linearGradient id="__lottie_element_12" spreadMethod="pad" gradientUnits="userSpaceOnUse" x1="-55" y1="0" x2="-0.5" y2="0"><stop offset="0%" stop-color="rgb(112,82,39)" stop-opacity="1"></stop><stop offset="30%" stop-color="rgb(112,82,39)" stop-opacity="0.5"></stop><stop offset="100%" stop-color="rgb(112,82,39)" stop-opacity="0"></stop></linearGradient><linearGradient id="__lottie_element_19" spreadMethod="pad" gradientUnits="userSpaceOnUse" x1="-22.238000869750977" y1="-129" x2="-7.683000087738037" y2="-55.742000579833984"><stop offset="0%" stop-color="rgb(219,110,0)" stop-opacity="1"></stop><stop offset="38%" stop-color="rgb(219,110,0)" stop-opacity="0.5"></stop><stop offset="70%" stop-color="rgb(219,110,0)" stop-opacity="0"></stop></linearGradient><linearGradient id="__lottie_element_20" spreadMethod="pad" gradientUnits="userSpaceOnUse" x1="-1.2380000352859497" y1="-114" x2="-1.2380000352859497" y2="95.20500183105469"><stop offset="6%" stop-color="rgb(255,216,0)" stop-opacity="0"></stop><stop offset="15%" stop-color="rgb(255,216,0)" stop-opacity="0.5"></stop><stop offset="50%" stop-color="rgb(255,216,0)" stop-opacity="1"></stop><stop offset="89%" stop-color="rgb(255,216,0)" stop-opacity="0.5"></stop><stop offset="100%" stop-color="rgb(255,216,0)" stop-opacity="0"></stop></linearGradient><linearGradient id="__lottie_element_23" spreadMethod="pad" gradientUnits="userSpaceOnUse" x1="-2.23799991607666" y1="-135" x2="-2.23799991607666" y2="-60.61600112915039"><stop offset="10%" stop-color="rgb(255,169,0)" stop-opacity="0"></stop><stop offset="46%" stop-color="rgb(255,169,0)" stop-opacity="0.5"></stop><stop offset="100%" stop-color="rgb(255,169,0)" stop-opacity="1"></stop></linearGradient><linearGradient id="__lottie_element_24" spreadMethod="pad" gradientUnits="userSpaceOnUse" x1="-1.7380000352859497" y1="-34" x2="-2.23799991607666" y2="-188.0240020751953"><stop offset="8%" stop-color="rgb(218,110,0)" stop-opacity="0.30000001192092896"></stop><stop offset="26%" stop-color="rgb(218,110,0)" stop-opacity="0.6499999761581421"></stop><stop offset="45%" stop-color="rgb(218,110,0)" stop-opacity="1"></stop><stop offset="58%" stop-color="rgb(218,110,0)" stop-opacity="0.5"></stop><stop offset="80%" stop-color="rgb(218,110,0)" stop-opacity="0"></stop></linearGradient><linearGradient id="__lottie_element_25" spreadMethod="pad" gradientUnits="userSpaceOnUse" x1="-117.23799896240234" y1="-140" x2="-105.31999969482422" y2="-110.20500183105469"><stop offset="0%" stop-color="rgb(255,255,255)" stop-opacity="1"></stop><stop offset="50%" stop-color="rgb(255,255,255)" stop-opacity="0.5"></stop><stop offset="100%" stop-color="rgb(255,255,255)" stop-opacity="0"></stop></linearGradient><linearGradient id="__lottie_element_26" spreadMethod="pad" gradientUnits="userSpaceOnUse" x1="-19.238000869750977" y1="-181" x2="-9.968000411987305" y2="-122.302001953125"><stop offset="0%" stop-color="rgb(255,255,255)" stop-opacity="1"></stop><stop offset="50%" stop-color="rgb(255,255,255)" stop-opacity="0.5"></stop><stop offset="100%" stop-color="rgb(255,255,255)" stop-opacity="0"></stop></linearGradient><linearGradient id="__lottie_element_36" spreadMethod="pad" gradientUnits="userSpaceOnUse" x1="-55.487998962402344" y1="-28.125" x2="-39.1510009765625" y2="-6.464000225067139"><stop offset="0%" stop-color="rgb(66,0,0)"></stop><stop offset="38%" stop-color="rgb(118,40,0)"></stop><stop offset="100%" stop-color="rgb(170,80,0)"></stop></linearGradient><radialGradient id="__lottie_element_37" spreadMethod="pad" gradientUnits="userSpaceOnUse" cx="-42.237998962402344" cy="-10" r="9.889999389648438" fx="-42.237998962402344" fy="-10"><stop offset="0%" stop-color="rgb(246,175,0)" stop-opacity="1"></stop><stop offset="50%" stop-color="rgb(246,175,0)" stop-opacity="0.5"></stop><stop offset="100%" stop-color="rgb(246,175,0)" stop-opacity="0"></stop></radialGradient><linearGradient id="__lottie_element_38" spreadMethod="pad" gradientUnits="userSpaceOnUse" x1="-56.987998962402344" y1="-33.1879997253418" x2="-56.75299835205078" y2="-25.875"><stop offset="0%" stop-color="rgb(255,255,255)" stop-opacity="1"></stop><stop offset="60%" stop-color="rgb(255,255,255)" stop-opacity="0.5"></stop><stop offset="100%" stop-color="rgb(255,255,255)" stop-opacity="0"></stop></linearGradient><linearGradient id="__lottie_element_39" spreadMethod="pad" gradientUnits="userSpaceOnUse" x1="-55.487998962402344" y1="-28.125" x2="-39.1510009765625" y2="-6.464000225067139"><stop offset="0%" stop-color="rgb(66,0,0)"></stop><stop offset="38%" stop-color="rgb(118,40,0)"></stop><stop offset="100%" stop-color="rgb(170,80,0)"></stop></linearGradient><radialGradient id="__lottie_element_40" spreadMethod="pad" gradientUnits="userSpaceOnUse" cx="-42.237998962402344" cy="-10" r="9.889999389648438" fx="-42.237998962402344" fy="-10"><stop offset="0%" stop-color="rgb(246,175,0)" stop-opacity="1"></stop><stop offset="50%" stop-color="rgb(246,175,0)" stop-opacity="0.5"></stop><stop offset="100%" stop-color="rgb(246,175,0)" stop-opacity="0"></stop></radialGradient><linearGradient id="__lottie_element_41" spreadMethod="pad" gradientUnits="userSpaceOnUse" x1="-56.987998962402344" y1="-33.1879997253418" x2="-56.75299835205078" y2="-25.875"><stop offset="0%" stop-color="rgb(255,255,255)" stop-opacity="1"></stop><stop offset="60%" stop-color="rgb(255,255,255)" stop-opacity="0.5"></stop><stop offset="100%" stop-color="rgb(255,255,255)" stop-opacity="0"></stop></linearGradient><linearGradient id="__lottie_element_48" spreadMethod="pad" gradientUnits="userSpaceOnUse" x1="-3.9260001182556152" y1="89.5719985961914" x2="-3.9260001182556152" y2="111.40899658203125"><stop offset="0%" stop-color="rgb(255,168,0)" stop-opacity="1"></stop><stop offset="65%" stop-color="rgb(255,168,0)" stop-opacity="0.5"></stop><stop offset="100%" stop-color="rgb(255,168,0)" stop-opacity="0"></stop></linearGradient><linearGradient id="__lottie_element_49" spreadMethod="pad" gradientUnits="userSpaceOnUse" x1="-3.9260001182556152" y1="99.6969985961914" x2="-3.9260001182556152" y2="72.13500213623047"><stop offset="10%" stop-color="rgb(219,110,0)" stop-opacity="1"></stop><stop offset="51%" stop-color="rgb(219,110,0)" stop-opacity="0.5"></stop><stop offset="80%" stop-color="rgb(219,110,0)" stop-opacity="0"></stop></linearGradient><radialGradient id="__lottie_element_50" spreadMethod="pad" gradientUnits="userSpaceOnUse" cx="-4.926000118255615" cy="62.696998596191406" r="35.147000789642334" fx="-4.926000118255615" fy="62.696998596191406"><stop offset="40%" stop-color="rgb(255,168,0)" stop-opacity="0"></stop><stop offset="76%" stop-color="rgb(255,168,0)" stop-opacity="0.5"></stop><stop offset="100%" stop-color="rgb(255,168,0)" stop-opacity="1"></stop></radialGradient><linearGradient id="__lottie_element_51" spreadMethod="pad" gradientUnits="userSpaceOnUse" x1="-3.9260001182556152" y1="58.696998596191406" x2="-3.9260001182556152" y2="78.00800323486328"><stop offset="0%" stop-color="rgb(255,255,255)" stop-opacity="1"></stop><stop offset="50%" stop-color="rgb(255,255,255)" stop-opacity="0.5"></stop><stop offset="99%" stop-color="rgb(255,255,255)" stop-opacity="0"></stop></linearGradient><radialGradient id="__lottie_element_55" spreadMethod="pad" gradientUnits="userSpaceOnUse" cx="-4.926000118255615" cy="153.69700622558594" r="32.492000102996826" fx="-4.926000118255615" fy="153.69700622558594"><stop offset="10%" stop-color="rgb(219,110,0)" stop-opacity="1"></stop><stop offset="66%" stop-color="rgb(219,110,0)" stop-opacity="0.5"></stop><stop offset="100%" stop-color="rgb(219,110,0)" stop-opacity="0"></stop></radialGradient><radialGradient id="__lottie_element_56" spreadMethod="pad" gradientUnits="userSpaceOnUse" cx="-4.926000118255615" cy="133.69700622558594" r="43.7310004234314" fx="-4.926000118255615" fy="133.69700622558594"><stop offset="0%" stop-color="rgb(255,255,255)"></stop><stop offset="60%" stop-color="rgb(255,255,255)"></stop><stop offset="100%" stop-color="rgb(255,255,255)"></stop></radialGradient><mask id="__lottie_element_58"><path fill="url(#__lottie_element_57)" d=" M38.356998443603516,125.84500122070312 C38.356998443603516,136.5760040283203 19.18199920654297,148.1820068359375 -4.4710001945495605,148.1820068359375 C-28.124000549316406,148.1820068359375 -47.29800033569336,136.5760040283203 -47.29800033569336,125.84500122070312 C-47.29800033569336,115.11399841308594 38.356998443603516,115.11399841308594 38.356998443603516,125.84500122070312z"></path></mask><radialGradient id="__lottie_element_57" spreadMethod="pad" gradientUnits="userSpaceOnUse" cx="-4.926000118255615" cy="133.69700622558594" r="43.7310004234314" fx="-4.926000118255615" fy="133.69700622558594"><stop stop-color="rgb(255,255,255)" offset="0%" stop-opacity="1"></stop><stop stop-color="rgb(255,255,255)" offset="50%" stop-opacity="0.5"></stop><stop stop-color="rgb(255,255,255)" offset="100%" stop-opacity="0"></stop></radialGradient><linearGradient id="__lottie_element_59" spreadMethod="pad" gradientUnits="userSpaceOnUse" x1="-4.926000118255615" y1="129.69700622558594" x2="-4.926000118255615" y2="95.31999969482422"><stop offset="0%" stop-color="rgb(255,168,0)" stop-opacity="1"></stop><stop offset="65%" stop-color="rgb(255,168,0)" stop-opacity="0.5"></stop><stop offset="100%" stop-color="rgb(255,168,0)" stop-opacity="0"></stop></linearGradient><linearGradient id="__lottie_element_60" spreadMethod="pad" gradientUnits="userSpaceOnUse" x1="-4.926000118255615" y1="141.32200622558594" x2="-4.926000118255615" y2="126.96700286865234"><stop offset="0%" stop-color="rgb(88,11,14)" stop-opacity="0"></stop><stop offset="36%" stop-color="rgb(88,11,14)" stop-opacity="0.5"></stop><stop offset="80%" stop-color="rgb(88,11,14)" stop-opacity="1"></stop></linearGradient><radialGradient id="__lottie_element_61" spreadMethod="pad" gradientUnits="userSpaceOnUse" cx="-4.926000118255615" cy="116.6969985961914" r="70.53700017929077" fx="-4.926000118255615" fy="116.6969985961914"><stop offset="52%" stop-color="rgb(255,169,0)" stop-opacity="0"></stop><stop offset="71%" stop-color="rgb(255,169,0)" stop-opacity="0.5"></stop><stop offset="90%" stop-color="rgb(255,169,0)" stop-opacity="1"></stop></radialGradient></defs><g clip-path="url(#__lottie_element_2)"><g style="display: block;" transform="matrix(1,0,0,1,0,0)" opacity="1"><g opacity="1" transform="matrix(1,0,0,1,255.822998046875,249.24200439453125)"><path fill="rgb(207,145,94)" fill-opacity="1" d=" M-202.6300048828125,-142.4550018310547 C-202.6300048828125,-142.4550018310547 -202.6300048828125,142.4550018310547 -202.6300048828125,142.4550018310547 C-202.6300048828125,142.4550018310547 202.6300048828125,142.4550018310547 202.6300048828125,142.4550018310547 C202.6300048828125,142.4550018310547 202.6300048828125,-142.4550018310547 202.6300048828125,-142.4550018310547 C202.6300048828125,-142.4550018310547 -202.6300048828125,-142.4550018310547 -202.6300048828125,-142.4550018310547z M183.2100067138672,123.42500305175781 C183.2100067138672,123.42500305175781 -183.2100067138672,123.42500305175781 -183.2100067138672,123.42500305175781 C-183.2100067138672,123.42500305175781 -183.2100067138672,-123.42500305175781 -183.2100067138672,-123.42500305175781 C-183.2100067138672,-123.42500305175781 183.2100067138672,-123.42500305175781 183.2100067138672,-123.42500305175781 C183.2100067138672,-123.42500305175781 183.2100067138672,123.42500305175781 183.2100067138672,123.42500305175781z"></path><path stroke-linecap="round" stroke-linejoin="round" fill-opacity="0" stroke="rgb(140,93,60)" stroke-opacity="1" stroke-width="8" d=" M-202.6300048828125,-142.4550018310547 C-202.6300048828125,-142.4550018310547 -202.6300048828125,142.4550018310547 -202.6300048828125,142.4550018310547 C-202.6300048828125,142.4550018310547 202.6300048828125,142.4550018310547 202.6300048828125,142.4550018310547 C202.6300048828125,142.4550018310547 202.6300048828125,-142.4550018310547 202.6300048828125,-142.4550018310547 C202.6300048828125,-142.4550018310547 -202.6300048828125,-142.4550018310547 -202.6300048828125,-142.4550018310547z M183.2100067138672,123.42500305175781 C183.2100067138672,123.42500305175781 -183.2100067138672,123.42500305175781 -183.2100067138672,123.42500305175781 C-183.2100067138672,123.42500305175781 -183.2100067138672,-123.42500305175781 -183.2100067138672,-123.42500305175781 C-183.2100067138672,-123.42500305175781 183.2100067138672,-123.42500305175781 183.2100067138672,-123.42500305175781 C183.2100067138672,-123.42500305175781 183.2100067138672,123.42500305175781 183.2100067138672,123.42500305175781z"></path></g><g opacity="1" transform="matrix(1,0,0,1,0,0)"><g opacity="1" transform="matrix(1,0,0,1,448.7430114746094,116.302001953125)"><path stroke-linecap="round" stroke-linejoin="round" fill-opacity="0" stroke="rgb(140,93,60)" stroke-opacity="1" stroke-width="5" d=" M9.710000038146973,-9.515000343322754 C9.710000038146973,-9.515000343322754 -9.710000038146973,9.515000343322754 -9.710000038146973,9.515000343322754"></path></g><g opacity="1" transform="matrix(1,0,0,1,448.7430114746094,382.1820068359375)"><path stroke-linecap="round" stroke-linejoin="round" fill-opacity="0" stroke="rgb(140,93,60)" stroke-opacity="1" stroke-width="5" d=" M-9.710000038146973,-9.515000343322754 C-9.710000038146973,-9.515000343322754 9.710000038146973,9.515000343322754 9.710000038146973,9.515000343322754"></path></g><g opacity="1" transform="matrix(1,0,0,1,62.90299987792969,382.1820068359375)"><path stroke-linecap="round" stroke-linejoin="round" fill-opacity="0" stroke="rgb(140,93,60)" stroke-opacity="1" stroke-width="5" d=" M9.710000038146973,-9.515000343322754 C9.710000038146973,-9.515000343322754 -9.710000038146973,9.515000343322754 -9.710000038146973,9.515000343322754"></path></g><g opacity="1" transform="matrix(1,0,0,1,62.90299987792969,116.302001953125)"><path stroke-linecap="round" stroke-linejoin="round" fill-opacity="0" stroke="rgb(140,93,60)" stroke-opacity="1" stroke-width="5" d=" M9.710000038146973,9.515000343322754 C9.710000038146973,9.515000343322754 -9.710000038146973,-9.515000343322754 -9.710000038146973,-9.515000343322754"></path></g></g><g opacity="1" transform="matrix(1,0,0,1,255.822998046875,249.24200439453125)"><path fill="rgb(55,94,70)" fill-opacity="1" d=" M183.2100067138672,-123.42500305175781 C183.2100067138672,-123.42500305175781 183.2100067138672,123.42500305175781 183.2100067138672,123.42500305175781 C183.2100067138672,123.42500305175781 -183.2100067138672,123.42500305175781 -183.2100067138672,123.42500305175781 C-183.2100067138672,123.42500305175781 -183.2100067138672,-123.42500305175781 -183.2100067138672,-123.42500305175781 C-183.2100067138672,-123.42500305175781 183.2100067138672,-123.42500305175781 183.2100067138672,-123.42500305175781z"></path><path stroke-linecap="round" stroke-linejoin="round" fill-opacity="0" stroke="rgb(25,49,38)" stroke-opacity="1" stroke-width="8" d=" M183.2100067138672,-123.42500305175781 C183.2100067138672,-123.42500305175781 183.2100067138672,123.42500305175781 183.2100067138672,123.42500305175781 C183.2100067138672,123.42500305175781 -183.2100067138672,123.42500305175781 -183.2100067138672,123.42500305175781 C-183.2100067138672,123.42500305175781 -183.2100067138672,-123.42500305175781 -183.2100067138672,-123.42500305175781 C-183.2100067138672,-123.42500305175781 183.2100067138672,-123.42500305175781 183.2100067138672,-123.42500305175781z"></path></g><g opacity="1" transform="matrix(1,0,0,1,255.822998046875,249.24200439453125)"><path fill="rgb(65,117,86)" fill-opacity="1" d=" M165.7239990234375,-102.94400024414062 C165.7239990234375,-102.94400024414062 165.7239990234375,102.94400024414062 165.7239990234375,102.94400024414062 C165.7239990234375,104.60099792480469 164.38099670410156,105.94400024414062 162.7239990234375,105.94400024414062 C162.7239990234375,105.94400024414062 -162.7239990234375,105.94400024414062 -162.7239990234375,105.94400024414062 C-164.38099670410156,105.94400024414062 -165.7239990234375,104.60099792480469 -165.7239990234375,102.94400024414062 C-165.7239990234375,102.94400024414062 -165.7239990234375,-102.94400024414062 -165.7239990234375,-102.94400024414062 C-165.7239990234375,-104.60099792480469 -164.38099670410156,-105.94400024414062 -162.7239990234375,-105.94400024414062 C-162.7239990234375,-105.94400024414062 162.7239990234375,-105.94400024414062 162.7239990234375,-105.94400024414062 C164.38099670410156,-105.94400024414062 165.7239990234375,-104.60099792480469 165.7239990234375,-102.94400024414062z"></path></g></g><g style="display: block;" transform="matrix(1,0,0,1,0,10)" opacity="1"><g opacity="1" transform="matrix(1,0,0,1,256.3320007324219,411.2080078125)"><path fill="rgb(229,235,240)" fill-opacity="1" d=" M-47.01900100708008,51.38100051879883 C-47.01900100708008,51.38100051879883 -47.01900100708008,-46.8120002746582 -47.01900100708008,-46.8120002746582 C-34.55699920654297,-48.94499969482422 -21.030000686645508,-50.51599884033203 -6.507999897003174,-51.38100051879883 C-6.507999897003174,-51.38100051879883 8.572999954223633,-51.09299850463867 8.572999954223633,-51.09299850463867 C8.572999954223633,-51.09299850463867 47.01900100708008,-46.81100082397461 47.01900100708008,-46.81100082397461 C47.01900100708008,-46.81100082397461 47.01900100708008,51.37900161743164 47.01900100708008,51.37900161743164"></path><path stroke-linecap="round" stroke-linejoin="round" fill-opacity="0" stroke="rgb(163,171,170)" stroke-opacity="1" stroke-width="8" d=" M-47.01900100708008,51.38100051879883 C-47.01900100708008,51.38100051879883 -47.01900100708008,-46.8120002746582 -47.01900100708008,-46.8120002746582 C-34.55699920654297,-48.94499969482422 -21.030000686645508,-50.51599884033203 -6.507999897003174,-51.38100051879883 C-6.507999897003174,-51.38100051879883 8.572999954223633,-51.09299850463867 8.572999954223633,-51.09299850463867 C8.572999954223633,-51.09299850463867 47.01900100708008,-46.81100082397461 47.01900100708008,-46.81100082397461 C47.01900100708008,-46.81100082397461 47.01900100708008,51.37900161743164 47.01900100708008,51.37900161743164"></path></g><g opacity="1" transform="matrix(1,0,0,1,256.3320007324219,409.4580078125)"><path fill="url(#__lottie_element_7)" fill-opacity="0.7000000000000001" d=" M-47.01900100708008,51.38100051879883 C-47.01900100708008,51.38100051879883 -47.01900100708008,-46.8120002746582 -47.01900100708008,-46.8120002746582 C-34.55699920654297,-48.94499969482422 -21.030000686645508,-50.51599884033203 -6.507999897003174,-51.38100051879883 C-6.507999897003174,-51.38100051879883 8.572999954223633,-51.09299850463867 8.572999954223633,-51.09299850463867 C8.572999954223633,-51.09299850463867 47.01900100708008,-46.81100082397461 47.01900100708008,-46.81100082397461 C47.01900100708008,-46.81100082397461 47.01900100708008,51.37900161743164 47.01900100708008,51.37900161743164"></path></g><g opacity="1" transform="matrix(1.006469964981079,0,0,0.8698099851608276,-1.782958984375,48.924591064453125)"><g opacity="1" transform="matrix(1,0,0,1,256.5050048828125,375.09100341796875)"><path fill="rgb(181,102,6)" fill-opacity="1" d=" M-41.04800033569336,-19.158000946044922 C-41.04800033569336,-19.158000946044922 -41.04800033569336,-19.158000946044922 -41.04800033569336,-19.158000946044922 C-41.04800033569336,-15.96500015258789 -40.393001556396484,-5.070000171661377 -37.79600143432617,-1.722000002861023 C-21.46299934387207,19.333999633789062 19.110000610351562,23.04400062561035 38.40700149536133,-2.0280001163482666 C40.893001556396484,-5.257999897003174 41.430999755859375,-16.05299949645996 41.430999755859375,-19.158000946044922 C41.430999755859375,-19.158000946044922 41.430999755859375,-20.184999465942383 41.430999755859375,-20.184999465942383 C41.430999755859375,-20.184999465942383 -41.04800033569336,-19.158000946044922 -41.04800033569336,-19.158000946044922z"></path></g><g opacity="1" transform="matrix(1,0,0,1,256.4649963378906,250.14700317382812)"><path fill="rgb(181,102,6)" fill-opacity="1" d=" M-37.75699996948242,117.90899658203125 C-37.75699996948242,117.90899658203125 -35.73500061035156,97.8219985961914 -35.73500061035156,97.8219985961914 C-35.73500061035156,97.8219985961914 35.12099838256836,97.8219985961914 35.12099838256836,97.8219985961914 C35.12099838256836,97.8219985961914 37.70600128173828,117.54299926757812 37.70600128173828,117.54299926757812"></path><path stroke-linecap="round" stroke-linejoin="round" fill-opacity="0" stroke="rgb(153,71,4)" stroke-opacity="1" stroke-width="8" d=" M-37.75699996948242,117.90899658203125 C-37.75699996948242,117.90899658203125 -35.73500061035156,97.8219985961914 -35.73500061035156,97.8219985961914 C-35.73500061035156,97.8219985961914 35.12099838256836,97.8219985961914 35.12099838256836,97.8219985961914 C35.12099838256836,97.8219985961914 37.70600128173828,117.54299926757812 37.70600128173828,117.54299926757812"></path></g><g opacity="1" transform="matrix(1,0,0,1,256.5050048828125,375.09100341796875)"><path fill="url(#__lottie_element_8)" fill-opacity="1" d=" M-41.04800033569336,-19.158000946044922 C-41.04800033569336,-19.158000946044922 -41.04800033569336,-19.158000946044922 -41.04800033569336,-19.158000946044922 C-41.04800033569336,-16.302000045776367 -39.82400131225586,-6.864999771118164 -37.79600143432617,-3.562999963760376 C-21.707000732421875,22.632999420166016 22.82200050354004,22.58300018310547 38.40700149536133,-3.8359999656677246 C40.297000885009766,-7.039999961853027 41.430999755859375,-16.05299949645996 41.430999755859375,-19.158000946044922 C41.430999755859375,-19.158000946044922 41.430999755859375,-20.184999465942383 41.430999755859375,-20.184999465942383 C41.430999755859375,-20.184999465942383 -41.04800033569336,-19.158000946044922 -41.04800033569336,-19.158000946044922z"></path></g><g opacity="1" transform="matrix(1,0,0,1,256.5050048828125,375.09100341796875)"><path stroke-linecap="round" stroke-linejoin="round" fill-opacity="0" stroke="rgb(163,171,170)" stroke-opacity="1" stroke-width="8" d=" M-42.654998779296875,-13.109999656677246 C-41.612998962402344,-9.871999740600586 -39.82400131225586,-7.107999801635742 -37.79600143432617,-3.871000051498413 C-21.707000732421875,21.808000564575195 22.82200050354004,21.757999420166016 38.40700149536133,-4.138999938964844 C40.297000885009766,-7.28000020980835 42.034000396728516,-10.628999710083008 43.2760009765625,-13.65999984741211"></path></g></g><g opacity="1" transform="matrix(1,0,0,1,0,0)"><g opacity="1" transform="matrix(1,0,0,1,358.14801025390625,413.49200439453125)"><path fill="rgb(141,104,52)" fill-opacity="1" d=" M54.79499816894531,43.275001525878906 C54.79499816894531,43.275001525878906 54.79499816894531,43.275001525878906 54.79499816894531,43.275001525878906 C54.79499816894531,43.275001525878906 51.73500061035156,46.724998474121094 41.875,49.17499923706055 C36.415000915527344,50.53499984741211 28.875,51.595001220703125 18.614999771118164,51.595001220703125 C18.614999771118164,51.595001220703125 -54.79499816894531,51.595001220703125 -54.79499816894531,51.595001220703125 C-54.79499816894531,51.595001220703125 -54.79499816894531,-51.595001220703125 -54.79499816894531,-51.595001220703125 C-8.015000343322754,-43.595001220703125 23.7450008392334,-27.665000915527344 36.744998931884766,-11.425000190734863 C48.98500061035156,3.884999990463257 53.125,30.2549991607666 54.79499816894531,43.275001525878906z"></path></g><g opacity="0.8" transform="matrix(1,0,0,1,358.14801025390625,412.2820129394531)"><path fill="url(#__lottie_element_9)" fill-opacity="0.85" d=" M54.79499816894531,44.48500061035156 C54.79499816894531,44.48500061035156 54.79499816894531,44.48500061035156 54.79499816894531,44.48500061035156 C54.79499816894531,44.48500061035156 51.73500061035156,47.935001373291016 41.875,50.3849983215332 C40.255001068115234,37.974998474121094 35.1349983215332,12.585000038146973 26.485000610351562,1.8450000286102295 C3.575000047683716,-26.614999771118164 -54.79499816894531,-32.78499984741211 -54.79499816894531,-32.78499984741211 C-54.79499816894531,-32.78499984741211 -54.79499816894531,-50.3849983215332 -54.79499816894531,-50.3849983215332 C-8.015000343322754,-42.3849983215332 23.7450008392334,-26.454999923706055 36.744998931884766,-10.21500015258789 C48.98500061035156,5.09499979019165 53.125,31.46500015258789 54.79499816894531,44.48500061035156z"></path></g><g opacity="1" transform="matrix(1,0,0,1,358.14801025390625,413.49200439453125)"><path fill="url(#__lottie_element_10)" fill-opacity="1" d=" M54.79499816894531,43.275001525878906 C54.79499816894531,43.275001525878906 54.79499816894531,43.275001525878906 54.79499816894531,43.275001525878906 C54.79499816894531,43.275001525878906 51.73500061035156,46.724998474121094 41.875,49.17499923706055 C36.415000915527344,50.53499984741211 28.875,51.595001220703125 18.614999771118164,51.595001220703125 C18.614999771118164,51.595001220703125 -54.79499816894531,51.595001220703125 -54.79499816894531,51.595001220703125 C-54.79499816894531,51.595001220703125 -54.79499816894531,-51.595001220703125 -54.79499816894531,-51.595001220703125 C-8.015000343322754,-43.595001220703125 23.7450008392334,-27.665000915527344 36.744998931884766,-11.425000190734863 C48.98500061035156,3.884999990463257 53.125,30.2549991607666 54.79499816894531,43.275001525878906z"></path></g><g opacity="1" transform="matrix(1,0,0,1,0,0)"><g opacity="1" transform="matrix(1,0,0,1,413.552001953125,454.2900085449219)"><path fill="rgb(94,64,20)" fill-opacity="1" d=" M-4.052000045776367,-4.205999851226807 C-4.052000045776367,-4.205999851226807 -3.3259999752044678,0.7059999704360962 -2.869999885559082,4.205999851226807 C-2.869999885559082,4.205999851226807 4.578999996185303,0.5370000004768372 4.021999835968018,-4.00600004196167 C4.021999835968018,-4.00600004196167 -4.052000045776367,-4.205999851226807 -4.052000045776367,-4.205999851226807z"></path></g><g opacity="1" transform="matrix(1,0,0,1,358.47198486328125,410.99200439453125)"><path stroke-linecap="round" stroke-linejoin="round" fill-opacity="0" stroke="rgb(93,64,19)" stroke-opacity="1" stroke-width="8" d=" M55.12099838256836,39.65599822998047 C54.332000732421875,32.95000076293945 50.87900161743164,9.156000137329102 36.41899871826172,-8.925000190734863 C23.41900062561035,-25.165000915527344 -8.340999603271484,-41.095001220703125 -55.12099838256836,-49.095001220703125 C-55.12099838256836,-49.095001220703125 -55.12099838256836,49.095001220703125 -55.12099838256836,49.095001220703125"></path></g></g><g opacity="1" transform="matrix(1,0,0,1,0,0)"><g opacity="1" transform="matrix(1,0,0,1,358.47198486328125,410.99200439453125)"><path stroke-linecap="round" stroke-linejoin="round" fill-opacity="0" stroke="rgb(79,51,11)" stroke-opacity="1" stroke-width="8" d=" M-55.12099838256836,-49.095001220703125 C-55.12099838256836,-49.095001220703125 -55.12099838256836,49.095001220703125 -55.12099838256836,49.095001220703125"></path></g></g><g opacity="1" transform="matrix(1,0,0,1,384.44500732421875,430.17401123046875)"><path stroke-linecap="round" stroke-linejoin="round" fill-opacity="0" stroke="rgb(91,65,26)" stroke-opacity="0.8" stroke-width="5" d=" M7.041999816894531,-31.915000915527344 C7.041999816894531,-31.915000915527344 5.129000186920166,-4.01800012588501 -7.041999816894531,31.915000915527344"></path></g></g><g opacity="1" transform="matrix(-1,0,0,1,512.8309936523438,0)"><g opacity="1" transform="matrix(1,0,0,1,358.14801025390625,413.49200439453125)"><path fill="rgb(141,104,52)" fill-opacity="1" d=" M54.79499816894531,43.275001525878906 C54.79499816894531,43.275001525878906 54.79499816894531,43.275001525878906 54.79499816894531,43.275001525878906 C54.79499816894531,43.275001525878906 51.73500061035156,46.724998474121094 41.875,49.17499923706055 C36.415000915527344,50.53499984741211 28.875,51.595001220703125 18.614999771118164,51.595001220703125 C18.614999771118164,51.595001220703125 -54.79499816894531,51.595001220703125 -54.79499816894531,51.595001220703125 C-54.79499816894531,51.595001220703125 -54.79499816894531,-51.595001220703125 -54.79499816894531,-51.595001220703125 C-8.015000343322754,-43.595001220703125 23.7450008392334,-27.665000915527344 36.744998931884766,-11.425000190734863 C48.98500061035156,3.884999990463257 53.125,30.2549991607666 54.79499816894531,43.275001525878906z"></path></g><g opacity="0.8" transform="matrix(1,0,0,1,358.14801025390625,412.2820129394531)"><path fill="url(#__lottie_element_11)" fill-opacity="0.85" d=" M54.79499816894531,44.48500061035156 C54.79499816894531,44.48500061035156 54.79499816894531,44.48500061035156 54.79499816894531,44.48500061035156 C54.79499816894531,44.48500061035156 51.73500061035156,47.935001373291016 41.875,50.3849983215332 C40.255001068115234,37.974998474121094 35.1349983215332,12.585000038146973 26.485000610351562,1.8450000286102295 C3.575000047683716,-26.614999771118164 -54.79499816894531,-32.78499984741211 -54.79499816894531,-32.78499984741211 C-54.79499816894531,-32.78499984741211 -54.79499816894531,-50.3849983215332 -54.79499816894531,-50.3849983215332 C-8.015000343322754,-42.3849983215332 23.7450008392334,-26.454999923706055 36.744998931884766,-10.21500015258789 C48.98500061035156,5.09499979019165 53.125,31.46500015258789 54.79499816894531,44.48500061035156z"></path></g><g opacity="1" transform="matrix(1,0,0,1,358.14801025390625,413.49200439453125)"><path fill="url(#__lottie_element_12)" fill-opacity="1" d=" M54.79499816894531,43.275001525878906 C54.79499816894531,43.275001525878906 54.79499816894531,43.275001525878906 54.79499816894531,43.275001525878906 C54.79499816894531,43.275001525878906 51.73500061035156,46.724998474121094 41.875,49.17499923706055 C36.415000915527344,50.53499984741211 28.875,51.595001220703125 18.614999771118164,51.595001220703125 C18.614999771118164,51.595001220703125 -54.79499816894531,51.595001220703125 -54.79499816894531,51.595001220703125 C-54.79499816894531,51.595001220703125 -54.79499816894531,-51.595001220703125 -54.79499816894531,-51.595001220703125 C-8.015000343322754,-43.595001220703125 23.7450008392334,-27.665000915527344 36.744998931884766,-11.425000190734863 C48.98500061035156,3.884999990463257 53.125,30.2549991607666 54.79499816894531,43.275001525878906z"></path></g><g opacity="1" transform="matrix(1,0,0,1,0,0)"><g opacity="1" transform="matrix(1,0,0,1,413.552001953125,454.2900085449219)"><path fill="rgb(94,64,20)" fill-opacity="1" d=" M-4.052000045776367,-4.205999851226807 C-4.052000045776367,-4.205999851226807 -3.3259999752044678,0.7059999704360962 -2.869999885559082,4.205999851226807 C-2.869999885559082,4.205999851226807 4.578999996185303,0.5370000004768372 4.021999835968018,-4.00600004196167 C4.021999835968018,-4.00600004196167 -4.052000045776367,-4.205999851226807 -4.052000045776367,-4.205999851226807z"></path></g><g opacity="1" transform="matrix(1,0,0,1,358.47198486328125,410.99200439453125)"><path stroke-linecap="round" stroke-linejoin="round" fill-opacity="0" stroke="rgb(93,64,19)" stroke-opacity="1" stroke-width="8" d=" M55.12099838256836,39.65599822998047 C54.332000732421875,32.95000076293945 50.87900161743164,9.156000137329102 36.41899871826172,-8.925000190734863 C23.41900062561035,-25.165000915527344 -8.340999603271484,-41.095001220703125 -55.12099838256836,-49.095001220703125 C-55.12099838256836,-49.095001220703125 -55.12099838256836,49.095001220703125 -55.12099838256836,49.095001220703125"></path></g></g><g opacity="1" transform="matrix(1,0,0,1,0,0)"><g opacity="1" transform="matrix(1,0,0,1,358.47198486328125,410.99200439453125)"><path stroke-linecap="round" stroke-linejoin="round" fill-opacity="0" stroke="rgb(79,51,11)" stroke-opacity="1" stroke-width="8" d=" M-55.12099838256836,-49.095001220703125 C-55.12099838256836,-49.095001220703125 -55.12099838256836,49.095001220703125 -55.12099838256836,49.095001220703125"></path></g></g><g opacity="1" transform="matrix(1,0,0,1,384.44500732421875,430.17401123046875)"><path stroke-linecap="round" stroke-linejoin="round" fill-opacity="0" stroke="rgb(91,65,26)" stroke-opacity="0.8" stroke-width="5" d=" M7.041999816894531,-31.915000915527344 C7.041999816894531,-31.915000915527344 5.129000186920166,-4.01800012588501 -7.041999816894531,31.915000915527344"></path></g></g></g><g style="display: block;" transform="matrix(1,0,0,1,257.75,255.5)" opacity="1"><g opacity="1" transform="matrix(1,0,0,1,0,0)"><path fill="rgb(255,168,0)" fill-opacity="1" d=" M-110.91200256347656,-42.15399932861328 C-110.91200256347656,-42.15399932861328 -121.3280029296875,-49.30099868774414 -126.8030014038086,-39.7239990234375 C-131.81199645996094,-30.96299934387207 -122.23999786376953,14.326000213623047 -113.39700317382812,21.67099952697754 C-107.95800018310547,26.18899917602539 -102.06900024414062,20.614999771118164 -102.06900024414062,20.614999771118164 C-98.48200225830078,18.136999130249023 -104.30400085449219,-33.069000244140625 -110.91200256347656,-42.15399932861328z"></path><path stroke-linecap="round" stroke-linejoin="round" fill-opacity="0" stroke="rgb(219,110,0)" stroke-opacity="1" stroke-width="8" d=" M-110.91200256347656,-42.15399932861328 C-110.91200256347656,-42.15399932861328 -121.3280029296875,-49.30099868774414 -126.8030014038086,-39.7239990234375 C-131.81199645996094,-30.96299934387207 -122.23999786376953,14.326000213623047 -113.39700317382812,21.67099952697754 C-107.95800018310547,26.18899917602539 -102.06900024414062,20.614999771118164 -102.06900024414062,20.614999771118164 C-98.48200225830078,18.136999130249023 -104.30400085449219,-33.069000244140625 -110.91200256347656,-42.15399932861328z"></path></g><g opacity="1" transform="matrix(1,0,0,1,0,0)"><path fill="rgb(255,168,0)" fill-opacity="1" d=" M108.16400146484375,-42.15399932861328 C108.16400146484375,-42.15399932861328 118.58000183105469,-49.30099868774414 124.05500030517578,-39.7239990234375 C129.06399536132812,-30.96299934387207 119.49099731445312,14.326000213623047 110.64900207519531,21.67099952697754 C105.20999908447266,26.18899917602539 99.32099914550781,20.614999771118164 99.32099914550781,20.614999771118164 C95.73400115966797,18.136999130249023 101.55599975585938,-33.069000244140625 108.16400146484375,-42.15399932861328z"></path><path stroke-linecap="round" stroke-linejoin="round" fill-opacity="0" stroke="rgb(219,110,0)" stroke-opacity="1" stroke-width="8" d=" M108.16400146484375,-42.15399932861328 C108.16400146484375,-42.15399932861328 118.58000183105469,-49.30099868774414 124.05500030517578,-39.7239990234375 C129.06399536132812,-30.96299934387207 119.49099731445312,14.326000213623047 110.64900207519531,21.67099952697754 C105.20999908447266,26.18899917602539 99.32099914550781,20.614999771118164 99.32099914550781,20.614999771118164 C95.73400115966797,18.136999130249023 101.55599975585938,-33.069000244140625 108.16400146484375,-42.15399932861328z"></path></g></g><g style="display: block;" transform="matrix(1,0,0,1,257.75,255.5)" opacity="1"><g opacity="1" transform="matrix(1,0,0,1,0,0)"><path fill="rgb(255,168,0)" fill-opacity="1" d=" M106.87899780273438,-12.211000442504883 C106.87899780273438,57.29800033569336 57.98899841308594,115.91300201416016 -0.9610000252723694,115.91300201416016 C-59.9109992980957,115.91300201416016 -108.8010025024414,57.29800033569336 -108.8010025024414,-12.211000442504883 C-119.64800262451172,-127.76399993896484 -59.24599838256836,-174.25900268554688 -0.9610000252723694,-174.25900268554688 C55.79499816894531,-174.25900268554688 106.87899780273438,-156.12899780273438 106.87899780273438,-12.211000442504883z"></path></g><g opacity="1" transform="matrix(1,0,0,1,0,0)"><path fill="url(#__lottie_element_19)" fill-opacity="1" d=" M106.87899780273438,-12.211000442504883 C106.87899780273438,57.29800033569336 57.98899841308594,115.91300201416016 -0.9610000252723694,115.91300201416016 C-59.9109992980957,115.91300201416016 -108.8010025024414,57.29800033569336 -108.8010025024414,-12.211000442504883 C-119.64800262451172,-127.76399993896484 -59.24599838256836,-174.25900268554688 -0.9610000252723694,-174.25900268554688 C55.79499816894531,-174.25900268554688 106.87899780273438,-156.12899780273438 106.87899780273438,-12.211000442504883z"></path></g><g opacity="1" transform="matrix(1,0,0,1,0,0)"><path stroke-linecap="round" stroke-linejoin="round" fill-opacity="0" stroke="rgb(219,110,0)" stroke-opacity="1" stroke-width="8" d=" M106.87899780273438,-12.211000442504883 C106.87899780273438,57.29800033569336 57.98899841308594,115.91300201416016 -0.9610000252723694,115.91300201416016 C-59.9109992980957,115.91300201416016 -108.8010025024414,57.29800033569336 -108.8010025024414,-12.211000442504883 C-119.64800262451172,-127.76399993896484 -59.24599838256836,-174.25900268554688 -0.9610000252723694,-174.25900268554688 C55.79499816894531,-174.25900268554688 106.87899780273438,-156.12899780273438 106.87899780273438,-12.211000442504883z"></path></g><g opacity="1" transform="matrix(1,0,0,1,0,0)"><g opacity="1" transform="matrix(1,0,0,1,0,0)"><path fill="url(#__lottie_element_20)" fill-opacity="1" d=" M96.70500183105469,-50.25699996948242 C78.21099853515625,-69.21800231933594 78.052001953125,-86.62200164794922 77.15799713134766,-91.73500061035156 C76.97699737548828,-92.77200317382812 75.98600006103516,-93.45800018310547 74.96299743652344,-93.25199890136719 C-5.63700008392334,-77.03900146484375 -59.66899871826172,-97.8949966430664 -69.35900115966797,-105.03299713134766 C-70.48300170898438,-105.86100006103516 -72.34400177001953,-105.20600128173828 -72.29199981689453,-103.802001953125 C-71.41200256347656,-80.25399780273438 -97.625,-55.143001556396484 -98.8290023803711,-51.67900085449219 C-98.84700012207031,-50.305999755859375 -98.88800048828125,-23.795000076293945 -98.88800048828125,-22.121999740600586 C-98.88800048828125,40.5629997253418 -54.492000579833984,95.6989974975586 -0.9610000252723694,95.6989974975586 C52.56999969482422,95.6989974975586 96.96600341796875,40.5629997253418 96.96600341796875,-22.121999740600586 C96.96600341796875,-27.642000198364258 96.73100280761719,-49.34299850463867 96.70500183105469,-50.25699996948242z"></path></g></g></g><g style="display: block;" transform="matrix(0.75,0,0,0.75,260.0197448730469,217.4215087890625)" opacity="1"><g opacity="1" transform="matrix(1,0,0,1,0,0)"><path fill="url(#__lottie_element_55)" fill-opacity="0.5" d=" M28.496000289916992,146.94000244140625 C28.496000289916992,152.656005859375 13.960000038146973,162.2729949951172 -3.9719998836517334,162.2729949951172 C-21.90399932861328,162.2729949951172 -36.439998626708984,152.656005859375 -36.439998626708984,146.94000244140625 C-36.439998626708984,141.2239990234375 -21.90399932861328,148.28199768066406 -3.9719998836517334,148.28199768066406 C13.960000038146973,148.28199768066406 28.496000289916992,141.2239990234375 28.496000289916992,146.94000244140625z"></path></g><g opacity="1" transform="matrix(1,0,0,1,0,0)"><path fill="url(#__lottie_element_56)" mask="url(#__lottie_element_58)" fill-opacity="0.7000000000000001" d="M0 0 M38.356998443603516,125.84500122070312 C38.356998443603516,136.5760040283203 19.18199920654297,148.1820068359375 -4.4710001945495605,148.1820068359375 C-28.124000549316406,148.1820068359375 -47.29800033569336,136.5760040283203 -47.29800033569336,125.84500122070312 C-47.29800033569336,115.11399841308594 38.356998443603516,115.11399841308594 38.356998443603516,125.84500122070312z"></path></g><g opacity="1" transform="matrix(1,0,0,1,0,0)"><path fill="url(#__lottie_element_59)" fill-opacity="1" d=" M41.34600067138672,92.88700103759766 C41.34600067138672,92.88700103759766 -49.28799819946289,92.88700103759766 -49.28799819946289,92.88700103759766 C-66.06999969482422,92.88700103759766 -83.96399688720703,108.90399932861328 -83.96399688720703,127.2770004272461 C-83.96399688720703,129.04400634765625 -82.6510009765625,130.552001953125 -80.78299713134766,130.552001953125 C-80.78299713134766,130.552001953125 71.84200286865234,130.552001953125 71.84200286865234,130.552001953125 C73.70999908447266,130.552001953125 75.02300262451172,129.04400634765625 75.02300262451172,127.2770004272461 C75.02300262451172,110.93499755859375 58.12799835205078,92.88700103759766 41.34600067138672,92.88700103759766z"></path></g><g opacity="1" transform="matrix(1,0,0,1,0,0)"><path fill="rgb(136,24,4)" fill-opacity="1" d=" M-41.790000915527344,124.98100280761719 C-41.790000915527344,126.94499969482422 -40.98400115966797,128.8209991455078 -39.474998474121094,130.5500030517578 C-34.22800064086914,136.6909942626953 -20.540000915527344,141.05799865722656 -4.478000164031982,141.05799865722656 C11.598999977111816,141.05799865722656 25.285999298095703,136.6909942626953 30.533000946044922,130.5500030517578 C32.042999267578125,128.8209991455078 32.8489990234375,126.94499969482422 32.8489990234375,124.98100280761719 C32.8489990234375,116.0999984741211 -41.790000915527344,116.0999984741211 -41.790000915527344,124.98100280761719z"></path></g><g opacity="1" transform="matrix(1,0,0,1,0,0)"><path fill="url(#__lottie_element_60)" fill-opacity="1" d=" M-41.790000915527344,124.98100280761719 C-41.790000915527344,126.94499969482422 -40.98400115966797,128.8209991455078 -39.474998474121094,130.5500030517578 C-34.22800064086914,136.6909942626953 -20.540000915527344,141.05799865722656 -4.478000164031982,141.05799865722656 C11.598999977111816,141.05799865722656 25.285999298095703,136.6909942626953 30.533000946044922,130.5500030517578 C32.042999267578125,128.8209991455078 32.8489990234375,126.94499969482422 32.8489990234375,124.98100280761719 C32.8489990234375,116.0999984741211 -41.790000915527344,116.0999984741211 -41.790000915527344,124.98100280761719z"></path></g><g opacity="1" transform="matrix(1,0,0,1,0,0)"><path fill="rgb(255,206,1)" fill-opacity="1" d=" M35.904998779296875,96.88700103759766 C35.904998779296875,96.88700103759766 -44.84600067138672,96.88700103759766 -44.84600067138672,96.88700103759766 C-60.67100143432617,96.88700103759766 -76.625,107.87999725341797 -78.25499725341797,121.98899841308594 C-78.44100189208984,123.59500122070312 -77.01799774169922,124.98300170898438 -75.25599670410156,124.98300170898438 C-75.25599670410156,124.98300170898438 66.31400299072266,124.98300170898438 66.31400299072266,124.98300170898438 C68.07599639892578,124.98300170898438 69.5,123.59500122070312 69.31400299072266,121.98899841308594 C67.68399810791016,107.87999725341797 51.729000091552734,96.88700103759766 35.904998779296875,96.88700103759766z"></path></g><g opacity="1" transform="matrix(1,0,0,1,0,0)"><path fill="url(#__lottie_element_61)" fill-opacity="1" d=" M35.904998779296875,96.88700103759766 C35.904998779296875,96.88700103759766 -44.84600067138672,96.88700103759766 -44.84600067138672,96.88700103759766 C-60.67100143432617,96.88700103759766 -76.625,107.87999725341797 -78.25499725341797,121.98899841308594 C-78.44100189208984,123.59500122070312 -77.01799774169922,124.98300170898438 -75.25599670410156,124.98300170898438 C-75.25599670410156,124.98300170898438 66.31400299072266,124.98300170898438 66.31400299072266,124.98300170898438 C68.07599639892578,124.98300170898438 69.5,123.59500122070312 69.31400299072266,121.98899841308594 C67.68399810791016,107.87999725341797 51.729000091552734,96.88700103759766 35.904998779296875,96.88700103759766z"></path></g><g opacity="1" transform="matrix(1,0,0,1,0,0)"><path fill="rgb(163,65,0)" fill-opacity="1" d=" M69.31099700927734,121.99099731445312 C69.50199890136719,123.58799743652344 68.08100128173828,124.98100280761719 66.3219985961914,124.98100280761719 C66.3219985961914,124.98100280761719 -75.26300048828125,124.98100280761719 -75.26300048828125,124.98100280761719 C-77.02200317382812,124.98100280761719 -78.44300079345703,123.58799743652344 -78.25299835205078,121.99099731445312 C-77.69599914550781,117.13999938964844 -75.43800354003906,112.65599822998047 -72.08200073242188,108.86000061035156 C-73.09300231933594,110.95600128173828 -75.20700073242188,118.28299713134766 -71.21700286865234,118.31300354003906 C-71.21700286865234,118.31300354003906 62.277000427246094,118.31300354003906 62.277000427246094,118.31300354003906 C66.9990005493164,118.36100006103516 64.16699981689453,110.95600128173828 63.14099884033203,108.86000061035156 C66.51100158691406,112.65599822998047 68.75399780273438,117.13999938964844 69.31099700927734,121.99099731445312z"></path></g></g><g style="display: block;" transform="matrix(0.75,0,0,0.75,260.0197448730469,217.1717529296875)" opacity="1"><g opacity="1" transform="matrix(1,0,0,1,0,0)"><path fill="url(#__lottie_element_48)" fill-opacity="1" d=" M25.260000228881836,83.00599670410156 C25.260000228881836,95.93000030517578 13.814000129699707,106.40799713134766 -3.9210000038146973,106.40799713134766 C-21.6560001373291,106.40799713134766 -33.10200119018555,95.93000030517578 -33.10200119018555,83.00599670410156 C-37.5,49.625 29.875,48.75 25.260000228881836,83.00599670410156z"></path></g><g opacity="1" transform="matrix(1,0,0,1,0,0)"><path fill="rgb(255,168,0)" fill-opacity="0.8" d=" M25.871000289916992,78.61000061035156 C25.871000289916992,90.5999984741211 12.532999992370605,100.31999969482422 -3.9210000038146973,100.31999969482422 C-20.375,100.31999969482422 -33.7130012512207,90.5999984741211 -33.7130012512207,78.61000061035156 C-33.7130012512207,66.62000274658203 -20.375,57.4109992980957 -3.9210000038146973,57.4109992980957 C12.532999992370605,57.4109992980957 25.871000289916992,66.62000274658203 25.871000289916992,78.61000061035156z"></path></g><g opacity="1" transform="matrix(1,0,0,1,0,0)"><path fill="url(#__lottie_element_49)" fill-opacity="1" d=" M25.871000289916992,78.61000061035156 C25.871000289916992,90.5999984741211 12.532999992370605,100.31999969482422 -3.9210000038146973,100.31999969482422 C-20.375,100.31999969482422 -33.7130012512207,90.5999984741211 -33.7130012512207,78.61000061035156 C-33.7130012512207,66.62000274658203 -20.375,57.4109992980957 -3.9210000038146973,57.4109992980957 C12.532999992370605,57.4109992980957 25.871000289916992,66.62000274658203 25.871000289916992,78.61000061035156z"></path></g><g opacity="1" transform="matrix(1,0,0,1,0,0)"><path fill="rgb(255,216,0)" fill-opacity="1" d=" M23.19300079345703,72.87200164794922 C23.19300079345703,81.7979965209961 10.312999725341797,90.3759994506836 -3.9210000038146973,90.3759994506836 C-18.155000686645508,90.3759994506836 -31.03499984741211,81.7979965209961 -31.03499984741211,72.87200164794922 C-31.03499984741211,63.94599914550781 -18.155000686645508,56.965999603271484 -3.9210000038146973,56.965999603271484 C10.312999725341797,56.965999603271484 23.19300079345703,63.94599914550781 23.19300079345703,72.87200164794922z"></path></g><g opacity="1" transform="matrix(1,0,0,1,0,0)"><path fill="url(#__lottie_element_50)" fill-opacity="1" d=" M23.19300079345703,72.87200164794922 C23.19300079345703,81.7979965209961 10.312999725341797,90.3759994506836 -3.9210000038146973,90.3759994506836 C-18.155000686645508,90.3759994506836 -31.03499984741211,81.7979965209961 -31.03499984741211,72.87200164794922 C-31.03499984741211,63.94599914550781 -18.155000686645508,56.965999603271484 -3.9210000038146973,56.965999603271484 C10.312999725341797,56.965999603271484 23.19300079345703,63.94599914550781 23.19300079345703,72.87200164794922z"></path></g><g opacity="1" transform="matrix(1,0,0,1,0,0)"><path fill="url(#__lottie_element_51)" fill-opacity="0.7000000000000001" d=" M8.175000190734863,67.11000061035156 C8.175000190734863,73.16699981689453 2.759000062942505,78.86599731445312 -3.9210000038146973,78.86599731445312 C-10.60099983215332,78.86599731445312 -16.017000198364258,73.16699981689453 -16.017000198364258,67.11000061035156 C-16.017000198364258,61.053001403808594 -10.60099983215332,58.013999938964844 -3.9210000038146973,58.013999938964844 C2.759000062942505,58.013999938964844 8.175000190734863,61.053001403808594 8.175000190734863,67.11000061035156z"></path></g></g><g style="display: block;" transform="matrix(1,0,0,1,256.4949951171875,240.11000061035156)" opacity="0.5"><g opacity="1" transform="matrix(1,0,0,1,0,0)"><path fill="rgb(255,168,0)" fill-opacity="1" d=" M98.62899780273438,-27.011999130249023 C98.62899780273438,-27.011999130249023 90.16699981689453,-27.007999420166016 90.16699981689453,-27.007999420166016 C87.5780029296875,-28.398000717163086 84.43599700927734,-29.18899917602539 80.73600006103516,-29.336000442504883 C72.30400085449219,-29.670000076293945 43.49599838256836,-29.781999588012695 30.195999145507812,-27.149999618530273 C24.57699966430664,-26.038000106811523 20.27199935913086,-24.68899917602539 16.99799919128418,-22.93899917602539 C16.573999404907227,-22.83300018310547 16.150999069213867,-22.722999572753906 15.722000122070312,-22.645000457763672 C13.697999954223633,-22.277000427246094 10.003999710083008,-22.273000717163086 7.572000026702881,-22.273000717163086 C7.572000026702881,-22.273000717163086 -8.866999626159668,-22.273000717163086 -8.866999626159668,-22.273000717163086 C-11.989999771118164,-22.273000717163086 -14.739999771118164,-22.652999877929688 -17.618999481201172,-23.253999710083008 C-20.812999725341797,-24.85099983215332 -24.920000076293945,-26.106000900268555 -30.195999145507812,-27.149999618530273 C-43.494998931884766,-29.783000946044922 -72.30699920654297,-29.672000885009766 -80.73699951171875,-29.336000442504883 C-84.43699645996094,-29.18899917602539 -87.5790023803711,-28.398000717163086 -90.16799926757812,-27.007999420166016 C-90.16799926757812,-27.007999420166016 -98.69100189208984,-27.011999130249023 -98.69100189208984,-27.011999130249023 C-100.23200225830078,-27.011999130249023 -99.35600280761719,-26.55500030517578 -99.35600280761719,-25.048999786376953 C-99.35600280761719,-25.048999786376953 -99.35600280761719,-8.64799976348877 -99.35600280761719,-8.64799976348877 C-99.35600280761719,-7.142000198364258 -99.05699920654297,-5.1579999923706055 -98.69100189208984,-5.1579999923706055 C-98.69100189208984,-5.1579999923706055 -98.56999969482422,-5.1529998779296875 -98.56999969482422,-5.1529998779296875 C-98.28900146484375,-1.715000033378601 -97.66500091552734,2.0989999771118164 -96.68499755859375,6.320000171661377 C-92.37000274658203,24.915000915527344 -79.81600189208984,28.256999969482422 -76.0719985961914,28.839000701904297 C-72.88500213623047,29.333999633789062 -68.62200164794922,29.510000228881836 -64.17400360107422,29.510000228881836 C-57.867000579833984,29.510000228881836 -51.191001892089844,29.156999588012695 -46.696998596191406,28.858999252319336 C-46.12799835205078,28.82200050354004 -45.512001037597656,28.788999557495117 -44.854000091552734,28.7549991607666 C-37.86600112915039,28.392000198364258 -26.172000885009766,27.783000946044922 -18.98200035095215,18.305999755859375 C-13.609000205993652,11.223999977111816 -9.604000091552734,1.399999976158142 -8.57800006866455,-6.072000026702881 C-1.4989999532699585,-14.300000190734863 5.23799991607666,-10.25 8.42199993133545,-7.379000186920166 C9.12600040435791,0.2199999988079071 13.289999961853027,10.803999900817871 18.981000900268555,18.305999755859375 C26.172000885009766,27.783000946044922 37.86600112915039,28.392000198364258 44.854000091552734,28.7549991607666 C45.512001037597656,28.788999557495117 46.12799835205078,28.82200050354004 46.696998596191406,28.858999252319336 C51.191001892089844,29.156999588012695 57.867000579833984,29.510000228881836 64.17500305175781,29.510000228881836 C68.62100219726562,29.510000228881836 72.88500213623047,29.333999633789062 76.0719985961914,28.839000701904297 C79.81600189208984,28.256999969482422 92.37000274658203,24.915000915527344 96.68399810791016,6.320000171661377 C97.66400146484375,2.0989999771118164 98.28800201416016,-1.715000033378601 98.56900024414062,-5.1529998779296875 C98.56900024414062,-5.1529998779296875 98.62899780273438,-5.1579999923706055 98.62899780273438,-5.1579999923706055 C100.16999816894531,-5.1579999923706055 99.16899871826172,-6.3480000495910645 99.16899871826172,-7.854000091552734 C99.16899871826172,-7.854000091552734 99.16899871826172,-24.2549991607666 99.16899871826172,-24.2549991607666 C99.16899871826172,-25.76099967956543 100.16999816894531,-27.011999130249023 98.62899780273438,-27.011999130249023z M-22.268999099731445,15.92300033569336 C-28.312000274658203,23.88800048828125 -38.39799880981445,22.413000106811523 -45.07099914550781,22.76099967956543 C-45.75,22.79599952697754 -46.387001037597656,22.829999923706055 -46.972999572753906,22.868999481201172 C-54.46500015258789,23.36400032043457 -68.12000274658203,24.025999069213867 -75.4280014038086,22.88800048828125 C-78.53199768066406,22.406999588012695 -88.9469985961914,21.579999923706055 -92.69400024414062,5.434999942779541 C-95.6719970703125,-7.400000095367432 -95.30699920654297,-15.95199966430664 -91.5790023803711,-20.709999084472656 C-89.2969970703125,-23.621999740600586 -85.69499969482422,-25.13599967956543 -80.57099914550781,-25.34000015258789 C-73.4260025024414,-25.621999740600586 -44.060001373291016,-25.812000274658203 -31.006999969482422,-23.229999542236328 C-17.83099937438965,-20.62299919128418 -14.241000175476074,-17.079999923706055 -12.718999862670898,-12.211000442504883 C-11.159000396728516,-7.22599983215332 -15.071000099182129,6.435999870300293 -22.268999099731445,15.92300033569336z M92.69300079345703,5.434999942779541 C88.9469985961914,21.579999923706055 78.53199768066406,22.406999588012695 75.4280014038086,22.88800048828125 C68.12000274658203,24.024999618530273 54.4640007019043,23.36400032043457 46.972999572753906,22.868999481201172 C46.387001037597656,22.829999923706055 45.75,22.79599952697754 45.07099914550781,22.76099967956543 C38.39799880981445,22.413000106811523 28.312000274658203,23.888999938964844 22.26799964904785,15.92300033569336 C15.071000099182129,6.435999870300293 11.159000396728516,-7.22599983215332 12.718000411987305,-12.211000442504883 C14.239999771118164,-17.079999923706055 17.83099937438965,-20.62299919128418 31.006999969482422,-23.229999542236328 C40.24800109863281,-25.058000564575195 57.66699981689453,-25.496999740600586 69.58699798583984,-25.496999740600586 C74.5009994506836,-25.496999740600586 78.48300170898438,-25.422000885009766 80.56999969482422,-25.34000015258789 C85.69499969482422,-25.13599967956543 89.2969970703125,-23.621999740600586 91.5790023803711,-20.709999084472656 C95.30699920654297,-15.951000213623047 95.6719970703125,-7.400000095367432 92.69300079345703,5.434999942779541z"></path></g></g><g style="display: block;" transform="matrix(1,0,0,1,0,-0.5)" opacity="1"><g opacity="1" transform="matrix(1,0,0,1,0,6)"><g opacity="1" transform="matrix(1,0,0,1,205.2169952392578,223.72300720214844)"><path fill="rgb(255,255,255)" fill-opacity="1" d=" M27.878999710083008,13.762999534606934 C27.878999710083008,13.762999534606934 29.339000701904297,-3.0350000858306885 17.42300033569336,-13.95199966430664 C7.185999870300293,-23.33099937438965 -12.08899974822998,-22.410999298095703 -21.74799919128418,-10.394000053405762 C-29.613000869750977,-0.609000027179718 -27.739999771118164,10.79800033569336 -27.739999771118164,10.79800033569336 C-27.739999771118164,10.79800033569336 -19.88800048828125,19.242000579833984 -3.7699999809265137,20.16200065612793 C16.736000061035156,21.332000732421875 27.878999710083008,13.762999534606934 27.878999710083008,13.762999534606934z"></path></g><g opacity="1" transform="matrix(0.9536200165748596,0,0,0.9536200165748596,255.43502807617188,242.59559631347656)"><g opacity="1" transform="matrix(1,0,0,1,0,0)"><path fill="url(#__lottie_element_36)" fill-opacity="1" d=" M-32.805999755859375,-19.76799964904785 C-32.805999755859375,-9.526000022888184 -41.108001708984375,-1.2239999771118164 -51.349998474121094,-1.2239999771118164 C-61.59199905395508,-1.2239999771118164 -69.89399719238281,-9.526000022888184 -69.89399719238281,-19.76799964904785 C-69.89399719238281,-30.010000228881836 -61.59199905395508,-38.3120002746582 -51.349998474121094,-38.3120002746582 C-41.108001708984375,-38.3120002746582 -32.805999755859375,-30.010000228881836 -32.805999755859375,-19.76799964904785z"></path></g><g opacity="1" transform="matrix(1,0,0,1,0,0)"><g opacity="1" transform="matrix(1,0,0,1,0,0)"><path fill="url(#__lottie_element_37)" fill-opacity="1" d=" M-46.5989990234375,-2.069000005722046 C-48.04800033569336,-2.069000005722046 -49.388999938964844,-3.00600004196167 -49.8390007019043,-4.4629998207092285 C-50.39099884033203,-6.252999782562256 -49.38800048828125,-8.151000022888184 -47.597999572753906,-8.70300006866455 C-44.17399978637695,-9.758999824523926 -41.446998596191406,-12.420000076293945 -40.305999755859375,-15.819999694824219 C-39.709999084472656,-17.597000122070312 -37.784000396728516,-18.551000595092773 -36.012001037597656,-17.95599937438965 C-34.236000061035156,-17.360000610351562 -33.27899932861328,-15.437000274658203 -33.875,-13.66100025177002 C-35.70899963378906,-8.196000099182129 -40.09199905395508,-3.9189999103546143 -45.5989990234375,-2.2209999561309814 C-45.93199920654297,-2.118000030517578 -46.26900100708008,-2.069000005722046 -46.5989990234375,-2.069000005722046z"></path></g></g><g opacity="1" transform="matrix(1,0,0,1,0,0)"><path fill="rgb(24,19,9)" fill-opacity="1" d=" M-39.630001068115234,-19.76799964904785 C-39.630001068115234,-13.295000076293945 -44.87699890136719,-8.04800033569336 -51.349998474121094,-8.04800033569336 C-57.823001861572266,-8.04800033569336 -63.069000244140625,-13.295000076293945 -63.069000244140625,-19.76799964904785 C-63.069000244140625,-26.240999221801758 -57.823001861572266,-31.488000869750977 -51.349998474121094,-31.488000869750977 C-44.87699890136719,-31.488000869750977 -39.630001068115234,-26.240999221801758 -39.630001068115234,-19.76799964904785z"></path></g><g opacity="1" transform="matrix(1,0,0,1,0,0)"><path fill="url(#__lottie_element_38)" fill-opacity="1" d=" M-56.8390007019043,-25.42300033569336 C-59.297000885009766,-25.42300033569336 -61.28900146484375,-27.415000915527344 -61.28900146484375,-29.87299919128418 C-61.28900146484375,-32.33100128173828 -59.297000885009766,-34.32400131225586 -56.8390007019043,-34.32400131225586 C-54.38100051879883,-34.32400131225586 -52.38800048828125,-32.33100128173828 -52.38800048828125,-29.87299919128418 C-52.38800048828125,-27.415000915527344 -54.38100051879883,-25.42300033569336 -56.8390007019043,-25.42300033569336z"></path></g></g><g opacity="1" transform="matrix(1,0,0,1,205.16400146484375,219.66099548339844)"><path fill="rgb(163,65,0)" fill-opacity="1" d=" M27.930999755859375,17.825000762939453 C30.197999954223633,0.08699999749660492 18.73200035095215,-18.090999603271484 -0.36399999260902405,-17.82200050354004 C-17.534000396728516,-17.579999923706055 -31.0939998626709,-2.36299991607666 -27.687999725341797,14.859999656677246 C-28.059999465942383,-1.13100004196167 -16.249000549316406,-14.765000343322754 0.1459999978542328,-14.569000244140625 C17.756000518798828,-14.357999801635742 27.270999908447266,1.7410000562667847 27.930999755859375,17.825000762939453z"></path><path stroke-linecap="round" stroke-linejoin="round" fill-opacity="0" stroke="rgb(163,65,0)" stroke-opacity="1" stroke-width="2" d=" M27.930999755859375,17.825000762939453 C30.197999954223633,0.08699999749660492 18.73200035095215,-18.090999603271484 -0.36399999260902405,-17.82200050354004 C-17.534000396728516,-17.579999923706055 -31.0939998626709,-2.36299991607666 -27.687999725341797,14.859999656677246 C-28.059999465942383,-1.13100004196167 -16.249000549316406,-14.765000343322754 0.1459999978542328,-14.569000244140625 C17.756000518798828,-14.357999801635742 27.270999908447266,1.7410000562667847 27.930999755859375,17.825000762939453z"></path></g></g><g opacity="1" transform="matrix(1,0,0,1,0,6)"><g opacity="1" transform="matrix(1,0,0,1,309.00299072265625,223.72300720214844)"><path fill="rgb(255,255,255)" fill-opacity="1" d=" M-27.878999710083008,13.762999534606934 C-27.878999710083008,13.762999534606934 -29.339000701904297,-3.0350000858306885 -17.42300033569336,-13.95199966430664 C-7.185999870300293,-23.33099937438965 12.08899974822998,-22.410999298095703 21.74799919128418,-10.394000053405762 C29.613000869750977,-0.609000027179718 27.739999771118164,10.79800033569336 27.739999771118164,10.79800033569336 C27.739999771118164,10.79800033569336 19.88800048828125,19.242000579833984 3.7699999809265137,20.16200065612793 C-16.736000061035156,21.332000732421875 -27.878999710083008,13.762999534606934 -27.878999710083008,13.762999534606934z"></path></g><g opacity="1" transform="matrix(0.9536200165748596,0,0,0.9536200165748596,356.6850280761719,242.59559631347656)"><g opacity="1" transform="matrix(1,0,0,1,0,0)"><path fill="url(#__lottie_element_39)" fill-opacity="1" d=" M-32.805999755859375,-19.76799964904785 C-32.805999755859375,-9.526000022888184 -41.108001708984375,-1.2239999771118164 -51.349998474121094,-1.2239999771118164 C-61.59199905395508,-1.2239999771118164 -69.89399719238281,-9.526000022888184 -69.89399719238281,-19.76799964904785 C-69.89399719238281,-30.010000228881836 -61.59199905395508,-38.3120002746582 -51.349998474121094,-38.3120002746582 C-41.108001708984375,-38.3120002746582 -32.805999755859375,-30.010000228881836 -32.805999755859375,-19.76799964904785z"></path></g><g opacity="1" transform="matrix(1,0,0,1,0,0)"><g opacity="1" transform="matrix(1,0,0,1,0,0)"><path fill="url(#__lottie_element_40)" fill-opacity="1" d=" M-46.5989990234375,-2.069000005722046 C-48.04800033569336,-2.069000005722046 -49.388999938964844,-3.00600004196167 -49.8390007019043,-4.4629998207092285 C-50.39099884033203,-6.252999782562256 -49.38800048828125,-8.151000022888184 -47.597999572753906,-8.70300006866455 C-44.17399978637695,-9.758999824523926 -41.446998596191406,-12.420000076293945 -40.305999755859375,-15.819999694824219 C-39.709999084472656,-17.597000122070312 -37.784000396728516,-18.551000595092773 -36.012001037597656,-17.95599937438965 C-34.236000061035156,-17.360000610351562 -33.27899932861328,-15.437000274658203 -33.875,-13.66100025177002 C-35.70899963378906,-8.196000099182129 -40.09199905395508,-3.9189999103546143 -45.5989990234375,-2.2209999561309814 C-45.93199920654297,-2.118000030517578 -46.26900100708008,-2.069000005722046 -46.5989990234375,-2.069000005722046z"></path></g></g><g opacity="1" transform="matrix(1,0,0,1,0,0)"><path fill="rgb(24,19,9)" fill-opacity="1" d=" M-39.630001068115234,-19.76799964904785 C-39.630001068115234,-13.295000076293945 -44.87699890136719,-8.04800033569336 -51.349998474121094,-8.04800033569336 C-57.823001861572266,-8.04800033569336 -63.069000244140625,-13.295000076293945 -63.069000244140625,-19.76799964904785 C-63.069000244140625,-26.240999221801758 -57.823001861572266,-31.488000869750977 -51.349998474121094,-31.488000869750977 C-44.87699890136719,-31.488000869750977 -39.630001068115234,-26.240999221801758 -39.630001068115234,-19.76799964904785z"></path></g><g opacity="1" transform="matrix(1,0,0,1,0,0)"><path fill="url(#__lottie_element_41)" fill-opacity="1" d=" M-56.8390007019043,-25.42300033569336 C-59.297000885009766,-25.42300033569336 -61.28900146484375,-27.415000915527344 -61.28900146484375,-29.87299919128418 C-61.28900146484375,-32.33100128173828 -59.297000885009766,-34.32400131225586 -56.8390007019043,-34.32400131225586 C-54.38100051879883,-34.32400131225586 -52.38800048828125,-32.33100128173828 -52.38800048828125,-29.87299919128418 C-52.38800048828125,-27.415000915527344 -54.38100051879883,-25.42300033569336 -56.8390007019043,-25.42300033569336z"></path></g></g><g opacity="1" transform="matrix(1,0,0,1,309.05499267578125,219.66099548339844)"><path fill="rgb(163,65,0)" fill-opacity="1" d=" M-27.930999755859375,17.825000762939453 C-30.197999954223633,0.08699999749660492 -18.73200035095215,-18.090999603271484 0.36399999260902405,-17.82200050354004 C17.534000396728516,-17.579999923706055 31.0939998626709,-2.36299991607666 27.687999725341797,14.859999656677246 C28.059999465942383,-1.13100004196167 16.249000549316406,-14.765000343322754 -0.1459999978542328,-14.569000244140625 C-17.756000518798828,-14.357999801635742 -27.270999908447266,1.7410000562667847 -27.930999755859375,17.825000762939453z"></path><path stroke-linecap="round" stroke-linejoin="round" fill-opacity="0" stroke="rgb(163,65,0)" stroke-opacity="1" stroke-width="2" d=" M-27.930999755859375,17.825000762939453 C-30.197999954223633,0.08699999749660492 -18.73200035095215,-18.090999603271484 0.36399999260902405,-17.82200050354004 C17.534000396728516,-17.579999923706055 31.0939998626709,-2.36299991607666 27.687999725341797,14.859999656677246 C28.059999465942383,-1.13100004196167 16.249000549316406,-14.765000343322754 -0.1459999978542328,-14.569000244140625 C-17.756000518798828,-14.357999801635742 -27.270999908447266,1.7410000562667847 -27.930999755859375,17.825000762939453z"></path></g></g></g><g style="display: block;" transform="matrix(1,0,0,1,0,5.5)" opacity="1"><g opacity="1" transform="matrix(1,0,0,1,204.18499755859375,228.61500549316406)"><path stroke-linecap="butt" stroke-linejoin="miter" fill-opacity="0" stroke-miterlimit="10" stroke="rgb(19,18,18)" stroke-opacity="1" stroke-width="6" d=" M-26.51099967956543,-27.341999053955078 C-19.246000289916992,-27.636999130249023 9.348999977111816,-27.83799934387207 22.40399932861328,-25.194000244140625 C35.45899963378906,-22.549999237060547 39.974998474121094,-18.749000549316406 41.792999267578125,-12.800000190734863 C43.611000061035156,-6.85099983215332 39.25899887084961,7.525000095367432 32.15299987792969,17.110000610351562 C25.047000885009766,26.69499969482422 12.803999900817871,26.43600082397461 6.539000034332275,26.860000610351562 C-1.062999963760376,27.374000549316406 -14.446999549865723,28.017000198364258 -21.718000411987305,26.860000610351562 C-26.61400032043457,26.08099937438965 -36.590999603271484,21.902000427246094 -40.22700119018555,5.873000144958496 C-44.45600128173828,-12.772000312805176 -42.790000915527344,-26.680999755859375 -26.51099967956543,-27.341999053955078z"></path></g><g opacity="1" transform="matrix(1,0,0,1,255.82400512695312,214.05499267578125)"><path fill="rgb(19,18,18)" fill-opacity="1" d=" M-20.972999572753906,-9.402000427246094 C-20.972999572753906,-9.402000427246094 -19.56800079345703,-9.402000427246094 -19.56800079345703,-9.402000427246094 C-15.569999694824219,-8.407999992370605 -12.114999771118164,-7.7179999351501465 -7.994999885559082,-7.7179999351501465 C-7.994999885559082,-7.7179999351501465 8.069999694824219,-7.7179999351501465 8.069999694824219,-7.7179999351501465 C10.446999549865723,-7.7179999351501465 14.057000160217285,-7.7220001220703125 16.03499984741211,-8.09000015258789 C16.62299919128418,-8.199000358581543 17.207000732421875,-8.340999603271484 17.783000946044922,-8.503000259399414 C17.783000946044922,-8.503000259399414 20.972999572753906,-9.402000427246094 20.972999572753906,-9.402000427246094 C20.972999572753906,-9.402000427246094 8.6899995803833,-1.5260000228881836 10.77400016784668,9.194999694824219 C10.77400016784668,9.194999694824219 1.3769999742507935,-3.5290000438690186 -8.454999923706055,9.402000427246094 C-8.454999923706055,9.402000427246094 -5.769999980926514,-1.7109999656677246 -20.972999572753906,-9.402000427246094z"></path></g><g opacity="1" transform="matrix(1,0,0,1,161.9550018310547,212.52999877929688)"><path fill="rgb(19,18,18)" fill-opacity="1" d=" M7.99399995803833,-10.927000045776367 C7.99399995803833,-10.927000045776367 -5.267000198364258,-10.927000045776367 -5.267000198364258,-10.927000045776367 C-6.7729997634887695,-10.927000045776367 -7.99399995803833,-9.706999778747559 -7.99399995803833,-8.201000213623047 C-7.99399995803833,-8.201000213623047 -7.99399995803833,8.201000213623047 -7.99399995803833,8.201000213623047 C-7.99399995803833,9.706999778747559 -6.7729997634887695,10.927000045776367 -5.267000198364258,10.927000045776367 C-5.267000198364258,10.927000045776367 0.2029999941587448,10.927000045776367 0.2029999941587448,10.927000045776367 C0.2029999941587448,10.927000045776367 -2.6649999618530273,-3.739000082015991 7.99399995803833,-10.927000045776367z"></path></g><g opacity="1" transform="matrix(1,0,0,1,308.8039855957031,228.61500549316406)"><path stroke-linecap="butt" stroke-linejoin="miter" fill-opacity="0" stroke-miterlimit="10" stroke="rgb(19,18,18)" stroke-opacity="1" stroke-width="6" d=" M26.51099967956543,-27.341999053955078 C19.246000289916992,-27.636999130249023 -9.348999977111816,-27.83799934387207 -22.40399932861328,-25.194000244140625 C-35.45899963378906,-22.549999237060547 -39.974998474121094,-18.749000549316406 -41.792999267578125,-12.800000190734863 C-43.611000061035156,-6.85099983215332 -39.25899887084961,7.525000095367432 -32.15299987792969,17.110000610351562 C-25.047000885009766,26.69499969482422 -12.803999900817871,26.43600082397461 -6.539000034332275,26.860000610351562 C1.062999963760376,27.374000549316406 14.446999549865723,28.017000198364258 21.718000411987305,26.860000610351562 C26.61400032043457,26.08099937438965 36.590999603271484,21.902000427246094 40.22700119018555,5.873000144958496 C44.45600128173828,-12.772000312805176 42.790000915527344,-26.680999755859375 26.51099967956543,-27.341999053955078z"></path></g><g opacity="1" transform="matrix(1,0,0,1,351.03399658203125,212.52999877929688)"><path fill="rgb(19,18,18)" fill-opacity="1" d=" M-7.99399995803833,-10.927000045776367 C-7.99399995803833,-10.927000045776367 5.267000198364258,-10.927000045776367 5.267000198364258,-10.927000045776367 C6.7729997634887695,-10.927000045776367 7.99399995803833,-9.706999778747559 7.99399995803833,-8.201000213623047 C7.99399995803833,-8.201000213623047 7.99399995803833,8.201000213623047 7.99399995803833,8.201000213623047 C7.99399995803833,9.706999778747559 6.7729997634887695,10.927000045776367 5.267000198364258,10.927000045776367 C5.267000198364258,10.927000045776367 -0.2029999941587448,10.927000045776367 -0.2029999941587448,10.927000045776367 C-0.2029999941587448,10.927000045776367 2.6649999618530273,-3.739000082015991 -7.99399995803833,-10.927000045776367z"></path></g></g><g style="display: block;" transform="matrix(1,0,0,1,0,-0.5)" opacity="1"><g opacity="1" transform="matrix(1,0,0,1,204.60699462890625,192.28399658203125)"><g opacity="1" transform="matrix(1,0,0,1,0,0)"><path stroke-linecap="round" stroke-linejoin="round" fill-opacity="0" stroke="rgb(163,65,0)" stroke-opacity="1" stroke-width="12" d=" M15.65999984741211,-1.2020000219345093 C15.65999984741211,-1.2020000219345093 -0.7720000147819519,-4.99399995803833 -15.65999984741211,2.200000047683716"></path></g></g><g opacity="1" transform="matrix(1,0,0,1,309.6130065917969,192.28399658203125)"><g opacity="1" transform="matrix(1,0,0,1,0,0)"><path stroke-linecap="round" stroke-linejoin="round" fill-opacity="0" stroke="rgb(163,65,0)" stroke-opacity="1" stroke-width="12" d=" M-15.65999984741211,-1.2020000219345093 C-15.65999984741211,-1.2020000219345093 0.7720000147819519,-4.99399995803833 15.65999984741211,2.200000047683716"></path></g></g></g><g style="display: block;" transform="matrix(1,0,0,1,257.75,255.5)" opacity="1"><g opacity="1" transform="matrix(1,0,0,1,0,0)"><path fill="rgb(255,206,1)" fill-opacity="1" d=" M-82.19200134277344,-123.8479995727539 C-82.07599639892578,-124.85600280761719 -80.93399810791016,-125.39600372314453 -80.09100341796875,-124.8219985961914 C-73.01300048828125,-120.00900268554688 -45.58399963378906,-103.68900299072266 3.4790000915527344,-101.68699645996094 C51.41299819946289,-99.73100280761719 78.8740005493164,-105.64900207519531 85.41100311279297,-107.28099822998047 C86.20800018310547,-107.4800033569336 86.98899841308594,-106.93599700927734 87.0719985961914,-106.1240005493164 C87.60299682617188,-100.91799926757812 90.12000274658203,-83.4530029296875 101.01699829101562,-65.23799896240234 C102.0009994506836,-63.59400177001953 102.5009994506836,-61.707000732421875 102.5009994506836,-59.79499816894531 C102.5009994506836,-59.79499816894531 102.5009994506836,-15.41100025177002 102.5009994506836,-15.41100025177002 C102.5009994506836,-13.895000457763672 104.00900268554688,-12.767000198364258 105.44300079345703,-13.288000106811523 C108.3010025024414,-14.326000213623047 112.51000213623047,-18.270999908447266 114.6449966430664,-31.933000564575195 C118.06099700927734,-53.79199981689453 125.6510009765625,-89.59600067138672 118.81999969482422,-121.25399780273438 C111.98899841308594,-152.91200256347656 88.24199676513672,-187.66299438476562 36.62799835205078,-196.11099243164062 C-19.572999954223633,-205.30999755859375 -77.75800323486328,-194.1269989013672 -99.4020004272461,-157.62399291992188 C-103.6500015258789,-155.17599487304688 -148.42999267578125,-121.88400268554688 -109.70500183105469,-13.63599967956543 C-109.03199768066406,-11.755000114440918 -105.29299926757812,-10.96399974822998 -105.29299926757812,-12.960000038146973 C-105.29299926757812,-12.960000038146973 -105.85399627685547,-59.37300109863281 -105.85399627685547,-59.37300109863281 C-105.85399627685547,-61.75 -105.05500030517578,-64.05500030517578 -103.61000061035156,-65.94999694824219 C-98.44100189208984,-72.72799682617188 -85.85800170898438,-92.08499908447266 -82.19200134277344,-123.8479995727539z"></path></g><g opacity="1" transform="matrix(1,0,0,1,0,0)"><path fill="url(#__lottie_element_23)" fill-opacity="1" d=" M-82.19200134277344,-123.8479995727539 C-82.07599639892578,-124.85600280761719 -80.93399810791016,-125.39600372314453 -80.09100341796875,-124.8219985961914 C-73.01300048828125,-120.00900268554688 -45.58399963378906,-103.68900299072266 3.4790000915527344,-101.68699645996094 C51.41299819946289,-99.73100280761719 78.8740005493164,-105.64900207519531 85.41100311279297,-107.28099822998047 C86.20800018310547,-107.4800033569336 86.98899841308594,-106.93599700927734 87.0719985961914,-106.1240005493164 C87.60299682617188,-100.91799926757812 90.12000274658203,-83.4530029296875 101.01699829101562,-65.23799896240234 C102.0009994506836,-63.59400177001953 102.5009994506836,-61.707000732421875 102.5009994506836,-59.79499816894531 C102.5009994506836,-59.79499816894531 102.5009994506836,-15.41100025177002 102.5009994506836,-15.41100025177002 C102.5009994506836,-13.895000457763672 104.00900268554688,-12.767000198364258 105.44300079345703,-13.288000106811523 C108.3010025024414,-14.326000213623047 112.51000213623047,-18.270999908447266 114.6449966430664,-31.933000564575195 C118.06099700927734,-53.79199981689453 125.6510009765625,-89.59600067138672 118.81999969482422,-121.25399780273438 C111.98899841308594,-152.91200256347656 88.24199676513672,-187.66299438476562 36.62799835205078,-196.11099243164062 C-19.572999954223633,-205.30999755859375 -77.75800323486328,-194.1269989013672 -99.4020004272461,-157.62399291992188 C-103.6500015258789,-155.17599487304688 -148.42999267578125,-121.88400268554688 -109.70500183105469,-13.63599967956543 C-109.03199768066406,-11.755000114440918 -105.29299926757812,-10.96399974822998 -105.29299926757812,-12.960000038146973 C-105.29299926757812,-12.960000038146973 -105.85399627685547,-59.37300109863281 -105.85399627685547,-59.37300109863281 C-105.85399627685547,-61.75 -105.05500030517578,-64.05500030517578 -103.61000061035156,-65.94999694824219 C-98.44100189208984,-72.72799682617188 -85.85800170898438,-92.08499908447266 -82.19200134277344,-123.8479995727539z"></path></g><g opacity="1" transform="matrix(1,0,0,1,0,0)"><path fill="url(#__lottie_element_24)" fill-opacity="1" d=" M113.66300201416016,-26.857999801635742 C111.38300323486328,-17.250999450683594 104.99199676513672,-9.684000015258789 104.99199676513672,-11.201000213623047 C104.99199676513672,-11.201000213623047 101.66000366210938,-61.972999572753906 101.66000366210938,-61.972999572753906 C88.58000183105469,-86.36100006103516 87.60600280761719,-97.98100280761719 87.07499694824219,-103.19100189208984 C86.98600006103516,-104.00399780273438 53.54499816894531,-95.76799774169922 5.614999771118164,-97.7239990234375 C-43.45500183105469,-99.73600006103516 -75.96199798583984,-116.09600067138672 -83.0459976196289,-120.91100311279297 C-83.88800048828125,-121.48300170898438 -79.2249984741211,-94.71199798583984 -103.61499786376953,-63.013999938964844 C-105.06400299072266,-61.13100051879883 -106.83499908447266,-11.201000213623047 -106.83499908447266,-11.201000213623047 C-112.85299682617188,-12.954000473022461 -115.04900360107422,-22.066999435424805 -117.27400207519531,-32.507999420166016 C-109.96800231933594,-8.515000343322754 -113.78800201416016,-60.72700119018555 -113.78800201416016,-60.72700119018555 C-114.59700012207031,-60.42900085449219 -116.4209976196289,-60.577999114990234 -116.4209976196289,-60.577999114990234 C-96.18699645996094,-85.70800018310547 -90.80000305175781,-113.56700134277344 -91.24500274658203,-126.59100341796875 C-91.58799743652344,-136.63400268554688 -93.00900268554688,-142.44200134277344 -96.71199798583984,-144.2760009765625 C-109.03900146484375,-150.3800048828125 -123.4280014038086,-107.6520004272461 -123.4280014038086,-107.6520004272461 C-124.3479995727539,-137.12600708007812 -104.58799743652344,-152.29800415039062 -98.5780029296875,-155.81500244140625 C-74.43599700927734,-190.15499877929688 -19.570999145507812,-205.31199645996094 36.62799835205078,-196.11099243164062 C88.24400329589844,-187.66900634765625 112.37999725341797,-164.8280029296875 120.63700103759766,-110.08100128173828 C117.06800079345703,-163.6790008544922 71.58799743652344,-190.00900268554688 3.1679999828338623,-189.89999389648438 C-50.665000915527344,-189.81399536132812 -73.13300323486328,-173.2310028076172 -81.95099639892578,-163.20700073242188 C-84.58899688720703,-160.20799255371094 -87.48100280761719,-152.76800537109375 -84.72200012207031,-147.51100158691406 C-76.16500091552734,-131.20899963378906 -46.097999572753906,-114.05999755859375 7.699999809265137,-110.9489974975586 C65.34400177001953,-107.61599731445312 107.96700286865234,-120.41200256347656 108.86399841308594,-120.68699645996094 C102.5989990234375,-115.03700256347656 97.10099792480469,-107.1240005493164 97.10099792480469,-107.1240005493164 C98.95800018310547,-80.18900299072266 114.3489990234375,-59.86199951171875 114.3489990234375,-59.86199951171875 C112.30500030517578,-59.35900115966797 110.5979995727539,-59.792999267578125 110.5979995727539,-59.792999267578125 C109.75900268554688,-18.1299991607666 113.66300201416016,-26.857999801635742 113.66300201416016,-26.857999801635742z"></path></g><g opacity="1" transform="matrix(1,0,0,1,0,0)"><path fill="url(#__lottie_element_25)" fill-opacity="0.9" d=" M-91.48699951171875,-119.58799743652344 C-89.75399780273438,-139.3179931640625 -96.0790023803711,-146.56500244140625 -97.5979995727539,-146.552001953125 C-99.98799896240234,-146.531005859375 -105.23500061035156,-142.71099853515625 -108.4990005493164,-138.4290008544922 C-119.62300109863281,-123.83699798583984 -121.58300018310547,-111.36199951171875 -121.27300262451172,-96.47899627685547 C-121.1520004272461,-90.69000244140625 -117.6989974975586,-99.26300048828125 -110.43399810791016,-112.16500091552734 C-103.3010025024414,-124.83300018310547 -91.92500305175781,-114.6050033569336 -91.48699951171875,-119.58799743652344z"></path></g><g opacity="1" transform="matrix(1,0,0,1,0,0)"><path fill="url(#__lottie_element_26)" fill-opacity="0.9" d=" M0.38100001215934753,-113.31099700927734 C-42.20600128173828,-113.30899810791016 -70.60900115966797,-127.71499633789062 -81.6500015258789,-143.35899353027344 C-83.75199890136719,-146.33700561523438 -88.31700134277344,-152.59300231933594 -86.83000183105469,-156.1699981689453 C-80.38800048828125,-171.67100524902344 -45.766998291015625,-189.21200561523438 1.5199999809265137,-189.83200073242188 C34.6619987487793,-190.26800537109375 64.35700225830078,-185.07400512695312 85.1989974975586,-165.3470001220703 C111.6520004272461,-141.48800659179688 79.75399780273438,-113.31400299072266 0.38100001215934753,-113.31099700927734z"></path></g><g opacity="1" transform="matrix(1,0,0,1,0,0)"><path stroke-linecap="round" stroke-linejoin="round" fill-opacity="0" stroke="rgb(197,92,0)" stroke-opacity="1" stroke-width="8" d=" M-82.45899963378906,-123.01000213623047 C-41.60300064086914,-97.99199676513672 26.47100067138672,-93.94999694824219 88.0479965209961,-104.9010009765625 C88.0479965209961,-104.9010009765625 87.697998046875,-85.36699676513672 101.66000366210938,-61.972999572753906 C101.64600372314453,-55.47800064086914 102.64399719238281,-14.3149995803833 102.64399719238281,-14.3149995803833 C102.64399719238281,-10.54699993133545 103.54199981689453,-8.682999610900879 109.48699951171875,-15.218999862670898 C117.71600341796875,-24.266000747680664 125.46199798583984,-80.86900329589844 120.63700103759766,-115.65399932861328 C115.44300079345703,-153.09800720214844 91.22799682617188,-199.18600463867188 1.524999976158142,-199.19000244140625 C-73.9530029296875,-199.1929931640625 -97.34700012207031,-162.8719940185547 -99.4020004272461,-157.62399291992188 C-125.32099914550781,-146.13900756835938 -133.81500244140625,-85.3010025024414 -114.54499816894531,-19.940000534057617 C-110.31500244140625,-6.4679999351501465 -105.1520004272461,-4.920000076293945 -105.03500366210938,-17.739999771118164 C-104.91799926757812,-30.559999465942383 -104.45099639892578,-62.37099838256836 -104.45099639892578,-62.37099838256836 C-104.45099639892578,-62.37099838256836 -84.61399841308594,-88.11799621582031 -82.45899963378906,-123.01000213623047z"></path></g><g opacity="1" transform="matrix(1,0,0,1,0,0)"><path stroke-linecap="round" stroke-linejoin="round" fill-opacity="0" stroke="rgb(163,65,0)" stroke-opacity="1" stroke-width="8" d=" M-104.45099639892578,-62.37099838256836 C-104.45099639892578,-62.37099838256836 -84.61399841308594,-88.11799621582031 -82.45899963378906,-123.01000213623047 C-41.60300064086914,-97.99199676513672 26.47100067138672,-93.94999694824219 88.0479965209961,-104.9010009765625 C88.0479965209961,-104.9010009765625 87.697998046875,-85.36699676513672 101.66000366210938,-61.972999572753906"></path></g></g><g style="display: block;" transform="matrix(1,0,0,1,0,10)" opacity="1"><g opacity="1" transform="matrix(1,0,0,1,256.90399169921875,437.1629943847656)"><path fill="rgb(220,225,225)" fill-opacity="1" d=" M-84.5999984741211,27.923999786376953 C-84.5999984741211,27.923999786376953 -84.5999984741211,-13.52400016784668 -84.5999984741211,-13.52400016784668 C-84.5999984741211,-13.52400016784668 -72.25700378417969,-27.923999786376953 -72.25700378417969,-27.923999786376953 C-72.25700378417969,-27.923999786376953 84.5999984741211,-27.923999786376953 84.5999984741211,-27.923999786376953 C84.5999984741211,-27.923999786376953 84.5999984741211,27.923999786376953 84.5999984741211,27.923999786376953"></path></g><g opacity="1" transform="matrix(1,0,0,1,256.90399169921875,435.1629943847656)"><path stroke-linecap="square" stroke-linejoin="round" fill-opacity="0" stroke="rgb(160,16,16)" stroke-opacity="1" stroke-width="8" d=" M-84.5999984741211,25.923999786376953 C-84.5999984741211,25.923999786376953 -84.5999984741211,-11.52400016784668 -84.5999984741211,-11.52400016784668 C-84.5999984741211,-11.52400016784668 -72.25700378417969,-25.923999786376953 -72.25700378417969,-25.923999786376953 C-72.25700378417969,-25.923999786376953 84.5999984741211,-25.923999786376953 84.5999984741211,-25.923999786376953 C84.5999984741211,-25.923999786376953 84.5999984741211,25.923999786376953 84.5999984741211,25.923999786376953"></path></g><g opacity="1" transform="matrix(1,0,0,1,250.50399780273438,444.3630065917969)"><path fill="rgb(221,40,40)" fill-opacity="1" d=" M-78.19999694824219,20.724000930786133 C-78.19999694824219,20.724000930786133 -78.19999694824219,-20.724000930786133 -78.19999694824219,-20.724000930786133 C-78.19999694824219,-20.724000930786133 78.19999694824219,-20.724000930786133 78.19999694824219,-20.724000930786133 C78.19999694824219,-20.724000930786133 78.19999694824219,20.724000930786133 78.19999694824219,20.724000930786133"></path></g><g opacity="1" transform="matrix(1,0,0,1,250.50399780273438,442.3630065917969)"><path stroke-linecap="square" stroke-linejoin="round" fill-opacity="0" stroke="rgb(160,16,16)" stroke-opacity="1" stroke-width="8" d=" M-78.19999694824219,18.724000930786133 C-78.19999694824219,18.724000930786133 -78.19999694824219,-18.724000930786133 -78.19999694824219,-18.724000930786133 C-78.19999694824219,-18.724000930786133 78.19999694824219,-18.724000930786133 78.19999694824219,-18.724000930786133 C78.19999694824219,-18.724000930786133 78.19999694824219,18.724000930786133 78.19999694824219,18.724000930786133"></path></g><g opacity="1" transform="matrix(1,0,0,1,184.13299560546875,444.3630065917969)"><path fill="rgb(68,15,15)" fill-opacity="1" d=" M-11.829000473022461,20.724000930786133 C-11.829000473022461,20.724000930786133 -11.829000473022461,-20.724000930786133 -11.829000473022461,-20.724000930786133 C-11.829000473022461,-20.724000930786133 11.829000473022461,-20.724000930786133 11.829000473022461,-20.724000930786133 C11.829000473022461,-20.724000930786133 11.829000473022461,20.724000930786133 11.829000473022461,20.724000930786133"></path></g><g opacity="1" transform="matrix(1,0,0,1,184.13299560546875,442.3630065917969)"><path stroke-linecap="square" stroke-linejoin="round" fill-opacity="0" stroke="rgb(26,6,6)" stroke-opacity="1" stroke-width="8" d=" M-11.829000473022461,18.724000930786133 C-11.829000473022461,18.724000930786133 -11.829000473022461,-18.724000930786133 -11.829000473022461,-18.724000930786133 C-11.829000473022461,-18.724000930786133 11.829000473022461,-18.724000930786133 11.829000473022461,-18.724000930786133 C11.829000473022461,-18.724000930786133 11.829000473022461,18.724000930786133 11.829000473022461,18.724000930786133"></path></g><g opacity="1" transform="matrix(1,0,0,1,190.00399780273438,429.65399169921875)"><path stroke-linecap="square" stroke-linejoin="round" fill-opacity="0" stroke="rgb(26,6,6)" stroke-opacity="1" stroke-width="8" d=" M17.700000762939453,-20.416000366210938 C17.700000762939453,-20.416000366210938 -5.35699987411499,-20.416000366210938 -5.35699987411499,-20.416000366210938 C-5.35699987411499,-20.416000366210938 -17.700000762939453,-6.015999794006348 -17.700000762939453,-6.015999794006348 C-17.700000762939453,-6.015999794006348 -17.700000762939453,20.416000366210938 -17.700000762939453,20.416000366210938"></path></g></g></g></svg>