<svg xmlns="http://www.w3.org/2000/svg" xmlns:xlink="http://www.w3.org/1999/xlink" viewBox="0 0 512 512" width="512" height="512" style="width: 100%; height: 100%; transform: translate3d(0,0,0); content-visibility: visible;" preserveAspectRatio="xMidYMid meet"><defs><clipPath id="__lottie_element_2"><rect width="512" height="512" x="0" y="0"></rect></clipPath><linearGradient id="__lottie_element_6" spreadMethod="pad" gradientUnits="userSpaceOnUse" x1="-0.25" y1="219.75" x2="0.41499999165534973" y2="35.29600143432617"><stop offset="0%" stop-color="rgb(76,73,79)"></stop><stop offset="3%" stop-color="rgb(111,108,113)"></stop><stop offset="9%" stop-color="rgb(146,144,147)"></stop><stop offset="46%" stop-color="rgb(146,144,147)"></stop><stop offset="82%" stop-color="rgb(146,144,147)"></stop><stop offset="97%" stop-color="rgb(173,172,174)"></stop><stop offset="100%" stop-color="rgb(200,199,201)"></stop></linearGradient><linearGradient id="__lottie_element_7" spreadMethod="pad" gradientUnits="userSpaceOnUse" x1="-21.25" y1="115" x2="41.23500061035156" y2="172.3520050048828"><stop offset="9%" stop-color="rgb(105,98,110)" stop-opacity="0.5"></stop><stop offset="64%" stop-color="rgb(92,87,99)" stop-opacity="0.75"></stop><stop offset="100%" stop-color="rgb(78,77,88)" stop-opacity="1"></stop></linearGradient><linearGradient id="__lottie_element_8" spreadMethod="pad" gradientUnits="userSpaceOnUse" x1="55" y1="203" x2="43.316001892089844" y2="31.628999710083008"><stop offset="9%" stop-color="rgb(255,255,255)" stop-opacity="0"></stop><stop offset="64%" stop-color="rgb(255,255,255)" stop-opacity="0.5"></stop><stop offset="100%" stop-color="rgb(255,255,255)" stop-opacity="1"></stop></linearGradient><linearGradient id="__lottie_element_13" spreadMethod="pad" gradientUnits="userSpaceOnUse" x1="21.761999130249023" y1="-63" x2="21.761999130249023" y2="125.70800018310547"><stop offset="0%" stop-color="rgb(255,216,0)" stop-opacity="0"></stop><stop offset="14%" stop-color="rgb(255,216,0)" stop-opacity="0.5"></stop><stop offset="45%" stop-color="rgb(255,216,0)" stop-opacity="1"></stop><stop offset="90%" stop-color="rgb(255,216,0)" stop-opacity="0.5"></stop><stop offset="100%" stop-color="rgb(255,216,0)" stop-opacity="0"></stop></linearGradient><linearGradient id="__lottie_element_14" spreadMethod="pad" gradientUnits="userSpaceOnUse" x1="21.091999053955078" y1="-104.1259994506836" x2="22.709999084472656" y2="5.666999816894531"><stop offset="0%" stop-color="rgb(219,110,0)" stop-opacity="1"></stop><stop offset="38%" stop-color="rgb(219,110,0)" stop-opacity="0.5"></stop><stop offset="70%" stop-color="rgb(219,110,0)" stop-opacity="0"></stop></linearGradient><linearGradient id="__lottie_element_17" spreadMethod="pad" gradientUnits="userSpaceOnUse" x1="31.761999130249023" y1="-94" x2="28.23200035095215" y2="19.55500030517578"><stop offset="14%" stop-color="rgb(255,169,0)" stop-opacity="0"></stop><stop offset="40%" stop-color="rgb(255,169,0)" stop-opacity="0.5"></stop><stop offset="66%" stop-color="rgb(255,169,0)" stop-opacity="1"></stop></linearGradient><linearGradient id="__lottie_element_18" spreadMethod="pad" gradientUnits="userSpaceOnUse" x1="15.76200008392334" y1="40" x2="6.752999782562256" y2="-144.2760009765625"><stop offset="7%" stop-color="rgb(218,110,0)" stop-opacity="0.30000001192092896"></stop><stop offset="28%" stop-color="rgb(218,110,0)" stop-opacity="0.6499999761581421"></stop><stop offset="70%" stop-color="rgb(218,110,0)" stop-opacity="1"></stop><stop offset="80%" stop-color="rgb(218,110,0)" stop-opacity="0.5"></stop><stop offset="100%" stop-color="rgb(218,110,0)" stop-opacity="0"></stop></linearGradient><linearGradient id="__lottie_element_19" spreadMethod="pad" gradientUnits="userSpaceOnUse" x1="-81.23799896240234" y1="-105" x2="-67.69300079345703" y2="-73.41899871826172"><stop offset="0%" stop-color="rgb(255,255,255)" stop-opacity="1"></stop><stop offset="50%" stop-color="rgb(255,255,255)" stop-opacity="0.5"></stop><stop offset="100%" stop-color="rgb(255,255,255)" stop-opacity="0"></stop></linearGradient><linearGradient id="__lottie_element_20" spreadMethod="pad" gradientUnits="userSpaceOnUse" x1="58.762001037597656" y1="-132" x2="48.46099853515625" y2="-64.56999969482422"><stop offset="0%" stop-color="rgb(255,255,255)" stop-opacity="1"></stop><stop offset="50%" stop-color="rgb(255,255,255)" stop-opacity="0.5"></stop><stop offset="100%" stop-color="rgb(255,255,255)" stop-opacity="0"></stop></linearGradient><linearGradient id="__lottie_element_24" spreadMethod="pad" gradientUnits="userSpaceOnUse" x1="23.761999130249023" y1="73.625" x2="24.136999130249023" y2="93.21399688720703"><stop offset="0%" stop-color="rgb(255,168,0)" stop-opacity="1"></stop><stop offset="66%" stop-color="rgb(255,168,0)" stop-opacity="0.5"></stop><stop offset="100%" stop-color="rgb(255,168,0)" stop-opacity="0"></stop></linearGradient><linearGradient id="__lottie_element_25" spreadMethod="pad" gradientUnits="userSpaceOnUse" x1="23.886999130249023" y1="84" x2="23.761999130249023" y2="66.55699920654297"><stop offset="10%" stop-color="rgb(219,110,0)" stop-opacity="1"></stop><stop offset="49%" stop-color="rgb(219,110,0)" stop-opacity="0.5"></stop><stop offset="77%" stop-color="rgb(219,110,0)" stop-opacity="0"></stop></linearGradient><radialGradient id="__lottie_element_26" spreadMethod="pad" gradientUnits="userSpaceOnUse" cx="23.761999130249023" cy="63" r="17.660001754760742" fx="23.761999130249023" fy="63"><stop offset="40%" stop-color="rgb(255,168,0)" stop-opacity="0"></stop><stop offset="70%" stop-color="rgb(255,168,0)" stop-opacity="0.5"></stop><stop offset="100%" stop-color="rgb(255,168,0)" stop-opacity="1"></stop></radialGradient><linearGradient id="__lottie_element_27" spreadMethod="pad" gradientUnits="userSpaceOnUse" x1="23.761999130249023" y1="62" x2="23.761999130249023" y2="70.49299621582031"><stop offset="0%" stop-color="rgb(255,255,255)" stop-opacity="1"></stop><stop offset="50%" stop-color="rgb(255,255,255)" stop-opacity="0.5"></stop><stop offset="100%" stop-color="rgb(255,255,255)" stop-opacity="0"></stop></linearGradient><linearGradient id="__lottie_element_31" spreadMethod="pad" gradientUnits="userSpaceOnUse" x1="-109.36299896240234" y1="-51.25" x2="-94.26499938964844" y2="-28.141000747680664"><stop offset="0%" stop-color="rgb(66,0,0)"></stop><stop offset="37%" stop-color="rgb(118,40,0)"></stop><stop offset="100%" stop-color="rgb(170,80,0)"></stop></linearGradient><radialGradient id="__lottie_element_32" spreadMethod="pad" gradientUnits="userSpaceOnUse" cx="-97.23799896240234" cy="-32" r="9.497001647949219" fx="-97.23799896240234" fy="-32"><stop offset="0%" stop-color="rgb(246,175,0)" stop-opacity="1"></stop><stop offset="50%" stop-color="rgb(246,175,0)" stop-opacity="0.5"></stop><stop offset="100%" stop-color="rgb(246,175,0)" stop-opacity="0"></stop></radialGradient><linearGradient id="__lottie_element_33" spreadMethod="pad" gradientUnits="userSpaceOnUse" x1="-110.36299896240234" y1="-55.0620002746582" x2="-110.0250015258789" y2="-48.31399917602539"><stop offset="0%" stop-color="rgb(255,255,255)" stop-opacity="1"></stop><stop offset="60%" stop-color="rgb(255,255,255)" stop-opacity="0.5"></stop><stop offset="100%" stop-color="rgb(255,255,255)" stop-opacity="0"></stop></linearGradient><linearGradient id="__lottie_element_34" spreadMethod="pad" gradientUnits="userSpaceOnUse" x1="-109.36299896240234" y1="-51.25" x2="-94.26499938964844" y2="-28.141000747680664"><stop offset="0%" stop-color="rgb(66,0,0)"></stop><stop offset="37%" stop-color="rgb(118,40,0)"></stop><stop offset="100%" stop-color="rgb(170,80,0)"></stop></linearGradient><radialGradient id="__lottie_element_35" spreadMethod="pad" gradientUnits="userSpaceOnUse" cx="-97.23799896240234" cy="-32" r="9.497001647949219" fx="-97.23799896240234" fy="-32"><stop offset="0%" stop-color="rgb(246,175,0)" stop-opacity="1"></stop><stop offset="50%" stop-color="rgb(246,175,0)" stop-opacity="0.5"></stop><stop offset="100%" stop-color="rgb(246,175,0)" stop-opacity="0"></stop></radialGradient><linearGradient id="__lottie_element_36" spreadMethod="pad" gradientUnits="userSpaceOnUse" x1="-110.36299896240234" y1="-55.0620002746582" x2="-110.0250015258789" y2="-48.31399917602539"><stop offset="0%" stop-color="rgb(255,255,255)" stop-opacity="1"></stop><stop offset="60%" stop-color="rgb(255,255,255)" stop-opacity="0.5"></stop><stop offset="100%" stop-color="rgb(255,255,255)" stop-opacity="0"></stop></linearGradient><radialGradient id="__lottie_element_43" spreadMethod="pad" gradientUnits="userSpaceOnUse" cx="-5" cy="322" r="232.8179931640625" fx="-5" fy="322"><stop offset="42%" stop-color="rgb(51,110,218)"></stop><stop offset="91%" stop-color="rgb(35,75,178)"></stop><stop offset="100%" stop-color="rgb(19,40,138)"></stop></radialGradient><linearGradient id="__lottie_element_44" spreadMethod="pad" gradientUnits="userSpaceOnUse" x1="0" y1="95.5" x2="0.8119999766349792" y2="213.28599548339844"><stop offset="0%" stop-color="rgb(255,255,255)" stop-opacity="1"></stop><stop offset="50%" stop-color="rgb(255,255,255)" stop-opacity="0.5"></stop><stop offset="100%" stop-color="rgb(255,255,255)" stop-opacity="0"></stop></linearGradient><radialGradient id="__lottie_element_45" spreadMethod="pad" gradientUnits="userSpaceOnUse" cx="0" cy="211" r="94.17400360107422" fx="0" fy="211"><stop offset="19%" stop-color="rgb(255,168,0)" stop-opacity="1"></stop><stop offset="84%" stop-color="rgb(255,168,0)" stop-opacity="0.5"></stop><stop offset="100%" stop-color="rgb(255,168,0)" stop-opacity="0"></stop></radialGradient><radialGradient id="__lottie_element_49" spreadMethod="pad" gradientUnits="userSpaceOnUse" cx="-105.02899932861328" cy="98.79199981689453" r="59.040811591163525" fx="-105.02899932861328" fy="98.79199981689453"><stop offset="0%" stop-color="rgb(255,169,0)" stop-opacity="1"></stop><stop offset="50%" stop-color="rgb(255,169,0)" stop-opacity="0.5"></stop><stop offset="100%" stop-color="rgb(255,169,0)" stop-opacity="0"></stop></radialGradient><radialGradient id="__lottie_element_50" spreadMethod="pad" gradientUnits="userSpaceOnUse" cx="164.81500244140625" cy="102.27100372314453" r="66.61437788860154" fx="164.81500244140625" fy="102.27100372314453"><stop offset="0%" stop-color="rgb(255,169,0)" stop-opacity="1"></stop><stop offset="50%" stop-color="rgb(255,169,0)" stop-opacity="0.5"></stop><stop offset="100%" stop-color="rgb(255,169,0)" stop-opacity="0"></stop></radialGradient></defs><g clip-path="url(#__lottie_element_2)"><g style="display: block;" transform="matrix(0.9503999948501587,0,0,0.9599999785423279,229.95301818847656,212.4059600830078)" opacity="1"><g opacity="1" transform="matrix(1,0,0,1,0,0)"><path fill="rgb(159,84,2)" fill-opacity="1" d=" M137.64999389648438,-68.46800231933594 C101.04299926757812,-125.83000183105469 24.545000076293945,-124.3270034790039 24.545000076293945,-124.3270034790039 C24.545000076293945,-124.3270034790039 -51.95399856567383,-125.83000183105469 -88.56099700927734,-68.46800231933594 C-125.16699981689453,-11.107000350952148 -142.82000732421875,96.78399658203125 -134.46299743652344,136.32400512695312 C-126.97599792480469,171.74899291992188 -23.076000213623047,169.15199279785156 24.545000076293945,169.15199279785156 C72.16600036621094,169.15199279785156 192.11000061035156,164.04299926757812 190.83599853515625,136.34100341796875 C187.6580047607422,67.21299743652344 174.25599670410156,-11.107000350952148 137.64999389648438,-68.46800231933594z"></path></g><g opacity="1" transform="matrix(1,0,0,1,0,0)"><path fill="url(#__lottie_element_49)" fill-opacity="1" d=" M-36.465999603271484,168.89500427246094 C-50.10100173950195,167.3800048828125 -61.76100158691406,164.5500030517578 -71.28700256347656,163.4720001220703 C-126.95099639892578,157.1719970703125 -131.6929931640625,146.7469940185547 -135.91400146484375,127.41100311279297 C-137.82200622558594,118.6449966430664 -139.34300231933594,107.56900024414062 -139.47000122070312,94.77899932861328 C-135.98899841308594,70.3550033569336 -123.88099670410156,10.682999610900879 -90.91100311279297,25.820999145507812 C-66.52200317382812,37.00400161743164 -67.93299865722656,58.98699951171875 -29.573999404907227,101.12799835205078 C4.1020002365112305,138.1219940185547 -8.098999977111816,168.62899780273438 -36.465999603271484,168.89500427246094z"></path></g><g opacity="1" transform="matrix(1,0,0,1,0,0)"><path fill="url(#__lottie_element_50)" fill-opacity="1" d=" M91.0739974975586,168.89500427246094 C104.70800018310547,167.3800048828125 116.36900329589844,164.5500030517578 125.8949966430664,163.4720001220703 C181.5590057373047,157.1719970703125 187.35400390625,146.76300048828125 191.5749969482422,127.427001953125 C193.48300170898438,118.66100311279297 191.55999755859375,107.56900024414062 191.68699645996094,94.77899932861328 C188.20599365234375,70.3550033569336 178.48899841308594,10.682999610900879 145.5189971923828,25.820999145507812 C121.12999725341797,37.00400161743164 122.54100036621094,58.98699951171875 84.18199920654297,101.12799835205078 C50.50699996948242,138.1219940185547 62.707000732421875,168.62899780273438 91.0739974975586,168.89500427246094z"></path></g><g opacity="1" transform="matrix(1,0,0,1,0,0)"><path stroke-linecap="round" stroke-linejoin="round" fill-opacity="0" stroke="rgb(163,65,0)" stroke-opacity="1" stroke-width="8" d=" M137.64999389648438,-68.46800231933594 C101.04299926757812,-125.83000183105469 -49.38100051879883,-124.10399627685547 -88.56099700927734,-68.46800231933594 C-132.7989959716797,-5.650000095367432 -143.08999633789062,96.84200286865234 -134.46299743652344,136.32400512695312 C-131.552001953125,149.64700317382812 -115.58100128173828,155.46200561523438 -90.08300018310547,161.17100524902344 C-42.56100082397461,171.81199645996094 97.89099884033203,171.81199645996094 145.4029998779297,161.17100524902344 C168.45799255371094,156.00799560546875 190.20399475097656,149.96400451660156 190.83599853515625,136.34100341796875 C194.04299926757812,67.21399688720703 174.25599670410156,-11.107000350952148 137.64999389648438,-68.46800231933594z"></path></g></g><g style="display: block;" transform="matrix(1,0,0,1,256,256)" opacity="1"><g opacity="1" transform="matrix(1,0,0,1,0,0)"><g opacity="1" transform="matrix(1,0,0,1,0,0)"><path fill="url(#__lottie_element_43)" fill-opacity="1" d=" M162.5489959716797,157.3730010986328 C156.65699768066406,149.73800659179688 55.64400100708008,97.83999633789062 -2.5950000286102295,97.82499694824219 C-60.83399963378906,97.80999755859375 -157.79100036621094,150.57400512695312 -163.03799438476562,157.3730010986328 C-177.04299926757812,175.53199768066406 -182.63299560546875,194.37100219726562 -184.7480010986328,210.70199584960938 C-184.7480010986328,210.70199584960938 -178.88099670410156,224.1750030517578 -142.40699768066406,224.1750030517578 C-142.40699768066406,224.1750030517578 141.2480010986328,224.1750030517578 141.2480010986328,224.1750030517578 C174.56900024414062,224.1750030517578 184.7480010986328,212.91700744628906 184.7480010986328,212.91700744628906 C182.78599548339844,197.0489959716797 176.92999267578125,176.031005859375 162.5489959716797,157.3730010986328z"></path></g><g opacity="1" transform="matrix(1,0,0,1,0,0)"><path fill="url(#__lottie_element_44)" fill-opacity="0.45" d=" M172.01800537109375,218.74200439453125 C171.33599853515625,199.9969940185547 162.552001953125,178.23800659179688 151.8990020751953,168.3719940185547 C134.82000732421875,152.55599975585938 97.08000183105469,138.6060028076172 48.084999084472656,120.95700073242188 C12.923999786376953,113.17400360107422 -18.80699920654297,113.16200256347656 -46.22600173950195,120.92400360107422 C-91.18900299072266,137.12100219726562 -132.58099365234375,153.2030029296875 -150.21200561523438,169.49600219726562 C-159.6320037841797,178.2010040283203 -168.98300170898438,200.52099609375 -169.67599487304688,219.58900451660156 C-172.7779998779297,218.3209991455078 -180.1929931640625,215.9600067138672 -182.0590057373047,214.0260009765625 C-181.26100158691406,192.0709991455078 -169.68099975585938,170.16000366210938 -158.875,160.1739959716797 C-141.94500732421875,144.5290069580078 -105.5250015258789,129.54299926757812 -48.340999603271484,108.94599914550781 C-48.268001556396484,108.91999816894531 -48.194000244140625,108.89600372314453 -48.119998931884766,108.875 C-19.56800079345703,100.76799774169922 13.343000411987305,100.75199890136719 49.70100021362305,108.8270034790039 C49.8380012512207,108.85800170898438 49.97600173950195,108.89800262451172 50.11000061035156,108.94599914550781 C99.95899963378906,126.9010009765625 142.68600463867188,143.1510009765625 160.68099975585938,160.20799255371094 C170.68600463867188,169.6929931640625 182.8209991455078,190.8350067138672 183.66000366210938,213.8990020751953 C180.8070068359375,216.27999877929688 173.69000244140625,218.16200256347656 172.01800537109375,218.74200439453125z"></path></g><g opacity="1" transform="matrix(1,0,0,1,0,0)"><path stroke-linecap="round" stroke-linejoin="round" fill-opacity="0" stroke="rgb(15,49,139)" stroke-opacity="1" stroke-width="8" d=" M-182.7530059814453,208.81399536132812 C-181.98800659179688,188.02699279785156 -171.27499389648438,166.94900512695312 -160.7790069580078,157.3730010986328 C-142.9720001220703,141.1269989013672 -100.99199676513672,122.56199645996094 -48.52899932861328,103.90599822998047 C-19.06100082397461,95.64600372314453 14.008999824523926,95.9489974975586 50.29800033569336,103.90599822998047 C102.76100158691406,122.56199645996094 144.94200134277344,140.89700317382812 162.54800415039062,157.3730010986328 C172.9429931640625,167.1009979248047 183.75599670410156,188.02699279785156 184.52099609375,208.81399536132812"></path></g></g><g opacity="1" transform="matrix(1,0,0,1,0,0)"><g opacity="1" transform="matrix(1,0,0,1,0,0)"><path fill="rgb(181,102,6)" fill-opacity="1" d=" M71.0739974975586,123.79100036621094 C71.0739974975586,144.13999938964844 39.55500030517578,164.23800659179688 0.6740000247955322,164.23800659179688 C-38.207000732421875,164.23800659179688 -69.72599792480469,144.13999938964844 -69.72599792480469,123.79100036621094 C-69.72599792480469,103.44200134277344 -38.207000732421875,98.18599700927734 0.6740000247955322,98.18599700927734 C39.55500030517578,98.18599700927734 71.0739974975586,103.44200134277344 71.0739974975586,123.79100036621094z"></path></g><g opacity="1" transform="matrix(1,0,0,1,0,0)"><path fill="url(#__lottie_element_45)" fill-opacity="1" d=" M71.0739974975586,123.79100036621094 C71.0739974975586,144.13999938964844 39.55500030517578,164.23800659179688 0.6740000247955322,164.23800659179688 C-38.207000732421875,164.23800659179688 -69.72599792480469,144.13999938964844 -69.72599792480469,123.79100036621094 C-69.72599792480469,103.44200134277344 -38.207000732421875,98.18599700927734 0.6740000247955322,98.18599700927734 C39.55500030517578,98.18599700927734 71.0739974975586,103.44200134277344 71.0739974975586,123.79100036621094z"></path></g><g opacity="1" transform="matrix(1,0,0,1,0,0)"><path stroke-linecap="round" stroke-linejoin="round" fill-opacity="0" stroke="rgb(0,40,79)" stroke-opacity="1" stroke-width="8" d=" M71.0739974975586,123.79100036621094 C71.0739974975586,144.13999938964844 39.55500030517578,164.23800659179688 0.6740000247955322,164.23800659179688 C-38.207000732421875,164.23800659179688 -69.72599792480469,144.13999938964844 -69.72599792480469,123.79100036621094 C-69.72599792480469,103.44200134277344 -38.207000732421875,98.18599700927734 0.6740000247955322,98.18599700927734 C39.55500030517578,98.18599700927734 71.0739974975586,103.44200134277344 71.0739974975586,123.79100036621094z"></path></g><g opacity="1" transform="matrix(1,0,0,1,0,0)"><path fill="rgb(181,102,6)" fill-opacity="1" d=" M-53.81700134277344,112.58499908447266 C-53.81700134277344,112.58499908447266 -44.25400161743164,82.10600280761719 -44.25400161743164,82.10600280761719 C-44.25400161743164,82.10600280761719 45.60200119018555,82.10600280761719 45.60200119018555,82.10600280761719 C45.60200119018555,82.10600280761719 55.16400146484375,112.58499908447266 55.16400146484375,112.58499908447266"></path><path stroke-linecap="round" stroke-linejoin="round" fill-opacity="0" stroke="rgb(153,71,4)" stroke-opacity="1" stroke-width="8" d=" M-53.81700134277344,112.58499908447266 C-53.81700134277344,112.58499908447266 -44.25400161743164,82.10600280761719 -44.25400161743164,82.10600280761719 C-44.25400161743164,82.10600280761719 45.60200119018555,82.10600280761719 45.60200119018555,82.10600280761719 C45.60200119018555,82.10600280761719 55.16400146484375,112.58499908447266 55.16400146484375,112.58499908447266"></path></g></g></g><g style="display: block;" transform="matrix(0.9599999785423279,0,0,0.9599999785423279,232.2144775390625,212.4059600830078)" opacity="1"><g opacity="1" transform="matrix(1,0,0,1,0,0)"><path fill="rgb(255,168,0)" fill-opacity="1" d=" M113.18699645996094,-80.4020004272461 C92.43599700927734,-109.22200012207031 65.11299896240234,-126.16999816894531 24.035999298095703,-126.16999816894531 C-17.040000915527344,-126.16999816894531 -44.36399841308594,-109.22200012207031 -65.11399841308594,-80.4020004272461 C-85.86499786376953,-51.582000732421875 -103.15699768066406,15.625 -76.06600189208984,72.11299896240234 C-48.974998474121094,128.6009979248047 -3.2070000171661377,146.46800231933594 24.035999298095703,146.46800231933594 C51.27899932861328,146.46800231933594 97.0479965209961,128.6009979248047 124.13899993896484,72.11299896240234 C151.22999572753906,15.625 133.93699645996094,-51.582000732421875 113.18699645996094,-80.4020004272461z"></path></g><g opacity="1" transform="matrix(1,0,0,1,0,0)"><path fill="url(#__lottie_element_13)" fill-opacity="1" d=" M104.23600006103516,0.6880000233650208 C104.23600006103516,0.6880000233650208 64.30000305175781,-12.215999603271484 39.8129997253418,-24.131000518798828 C9.538999557495117,-38.86199951171875 -14.163999557495117,-56.3380012512207 -27.305999755859375,-66.95999908447266 C-27.305999755859375,-66.95999908447266 -37.70000076293945,-36.0260009765625 -54.41899871826172,-18.239999771118164 C-80.79900360107422,9.822999954223633 -78.52300262451172,43.02000045776367 -56.470001220703125,79.63200378417969 C-34.41699981689453,116.24400329589844 1.8589999675750732,128.80599975585938 24.035999298095703,128.80599975585938 C46.2130012512207,128.80599975585938 82.48899841308594,116.24400329589844 104.54199981689453,79.63200378417969 C126.59500122070312,43.02000045776367 121.12699890136719,19.368000030517578 104.23600006103516,0.6880000233650208z"></path></g><g opacity="1" transform="matrix(1,0,0,1,0,0)"><path fill="url(#__lottie_element_14)" fill-opacity="1" d=" M113.33699798583984,-80.4020004272461 C92.58599853515625,-109.22200012207031 65.26399993896484,-126.16999816894531 24.187000274658203,-126.16999816894531 C-16.888999938964844,-126.16999816894531 -44.2130012512207,-109.22200012207031 -64.96299743652344,-80.4020004272461 C-85.71399688720703,-51.582000732421875 -103.00599670410156,15.625 -75.91500091552734,72.11299896240234 C-48.82400131225586,128.6009979248047 -3.055999994277954,146.46800231933594 24.187000274658203,146.46800231933594 C51.43000030517578,146.46800231933594 97.197998046875,128.6009979248047 124.28900146484375,72.11299896240234 C151.3800048828125,15.625 134.08700561523438,-51.582000732421875 113.33699798583984,-80.4020004272461z"></path></g><g opacity="1" transform="matrix(1,0,0,1,0,0)"><path stroke-linecap="round" stroke-linejoin="round" fill-opacity="0" stroke="rgb(219,110,0)" stroke-opacity="1" stroke-width="8.3" d=" M113.18699645996094,-80.4020004272461 C92.43599700927734,-109.22200012207031 65.11299896240234,-126.16999816894531 24.035999298095703,-126.16999816894531 C-17.040000915527344,-126.16999816894531 -44.36399841308594,-109.22200012207031 -65.11399841308594,-80.4020004272461 C-85.86499786376953,-51.582000732421875 -103.15699768066406,15.625 -76.06600189208984,72.11299896240234 C-48.974998474121094,128.6009979248047 -3.2070000171661377,146.46800231933594 24.035999298095703,146.46800231933594 C51.27899932861328,146.46800231933594 97.0479965209961,128.6009979248047 124.13899993896484,72.11299896240234 C151.22999572753906,15.625 133.93699645996094,-51.582000732421875 113.18699645996094,-80.4020004272461z"></path></g></g><g style="display: block;" transform="matrix(1.0105247497558594,0,0,1.0105247497558594,306.5331115722656,274.5621032714844)" opacity="1"><g opacity="1" transform="matrix(1,0,0,1,0,0)"><path fill="rgb(163,65,0)" fill-opacity="1" d=" M-131.68800354003906,-79.28099822998047 C-131.68800354003906,-79.28099822998047 -120.44000244140625,-86.99600219726562 -107.08999633789062,-86.5790023803711 C-94.2979965209961,-86.18000030517578 -89.01200103759766,-81.34300231933594 -89.01200103759766,-81.34300231933594 C-89.01200103759766,-81.34300231933594 -93.27200317382812,-90.63099670410156 -107.08999633789062,-90.22799682617188 C-122.31199645996094,-89.78399658203125 -131.68800354003906,-79.28099822998047 -131.68800354003906,-79.28099822998047z"></path><path stroke-linecap="round" stroke-linejoin="round" fill-opacity="0" stroke="rgb(163,65,0)" stroke-opacity="1" stroke-width="2" d=" M-131.68800354003906,-79.28099822998047 C-131.68800354003906,-79.28099822998047 -120.44000244140625,-86.99600219726562 -107.08999633789062,-86.5790023803711 C-94.2979965209961,-86.18000030517578 -89.01200103759766,-81.34300231933594 -89.01200103759766,-81.34300231933594 C-89.01200103759766,-81.34300231933594 -93.27200317382812,-90.63099670410156 -107.08999633789062,-90.22799682617188 C-122.31199645996094,-89.78399658203125 -131.68800354003906,-79.28099822998047 -131.68800354003906,-79.28099822998047z"></path></g><g opacity="1" transform="matrix(1,0,0,1,0,0)"><path fill="rgb(163,65,0)" fill-opacity="1" d=" M29.038000106811523,-79.28099822998047 C29.038000106811523,-79.28099822998047 17.790000915527344,-86.99600219726562 4.440000057220459,-86.5790023803711 C-8.35200023651123,-86.18000030517578 -13.637999534606934,-81.34300231933594 -13.637999534606934,-81.34300231933594 C-13.637999534606934,-81.34300231933594 -9.378000259399414,-90.63099670410156 4.440000057220459,-90.22799682617188 C19.66200065612793,-89.78399658203125 29.038000106811523,-79.28099822998047 29.038000106811523,-79.28099822998047z"></path><path stroke-linecap="round" stroke-linejoin="round" fill-opacity="0" stroke="rgb(163,65,0)" stroke-opacity="1" stroke-width="2" d=" M29.038000106811523,-79.28099822998047 C29.038000106811523,-79.28099822998047 17.790000915527344,-86.99600219726562 4.440000057220459,-86.5790023803711 C-8.35200023651123,-86.18000030517578 -13.637999534606934,-81.34300231933594 -13.637999534606934,-81.34300231933594 C-13.637999534606934,-81.34300231933594 -9.378000259399414,-90.63099670410156 4.440000057220459,-90.22799682617188 C19.66200065612793,-89.78399658203125 29.038000106811523,-79.28099822998047 29.038000106811523,-79.28099822998047z"></path></g></g><g style="display: block;" transform="matrix(0.9399999976158142,0,0,0.9599999785423279,251.04823303222656,251.1433563232422)" opacity="1"><g opacity="1" transform="matrix(1,0,0,1,-1,0)"><g opacity="1" transform="matrix(1,0,0,1,0,0)"><path fill="rgb(247,247,247)" fill-opacity="1" d=" M29.624000549316406,-4.564000129699707 C29.624000549316406,-4.564000129699707 32.641998291015625,-40.595001220703125 62.612998962402344,-43.60499954223633 C90.13700103759766,-46.36899948120117 99.16899871826172,-14.451000213623047 99.16899871826172,-14.451000213623047 C99.16899871826172,-14.451000213623047 91.76100158691406,4.870999813079834 67.66600036621094,7.513000011444092 C40.80400085449219,10.458999633789062 29.624000549316406,-4.564000129699707 29.624000549316406,-4.564000129699707z"></path></g><g opacity="1" transform="matrix(1.0899100303649902,0,0,1.100000023841858,178.49490356445312,27.586898803710938)"><g opacity="1" transform="matrix(1.0299999713897705,0,0,1,3.139434814453125,0)"><g opacity="1" transform="matrix(1,0,0,1,0,0)"><path fill="url(#__lottie_element_31)" fill-opacity="1" d=" M-87.38899993896484,-42.51599884033203 C-87.38899993896484,-32.20100021362305 -95.27899932861328,-23.839000701904297 -105.01300048828125,-23.839000701904297 C-114.74700164794922,-23.839000701904297 -122.63800048828125,-32.20100021362305 -122.63800048828125,-42.51599884033203 C-122.63800048828125,-52.83100128173828 -114.74700164794922,-61.19300079345703 -105.01300048828125,-61.19300079345703 C-95.27899932861328,-61.19300079345703 -87.38899993896484,-52.83100128173828 -87.38899993896484,-42.51599884033203z"></path></g><g opacity="1" transform="matrix(1,0,0,1,0,0)"><g opacity="1" transform="matrix(1,0,0,1,0,0)"><path fill="url(#__lottie_element_32)" fill-opacity="1" d=" M-100.93099975585938,-24.642000198364258 C-102.322998046875,-24.642000198364258 -103.61100006103516,-25.540000915527344 -104.04299926757812,-26.940000534057617 C-104.572998046875,-28.659000396728516 -103.60900115966797,-30.48200035095215 -101.88999938964844,-31.011999130249023 C-98.60199737548828,-32.0260009765625 -95.98400115966797,-34.58100128173828 -94.88800048828125,-37.84600067138672 C-94.31500244140625,-39.551998138427734 -92.46700286865234,-40.46799850463867 -90.76499938964844,-39.89699935913086 C-89.05899810791016,-39.32500076293945 -88.13999938964844,-37.47800064086914 -88.71299743652344,-35.77299880981445 C-90.4739990234375,-30.524999618530273 -94.68299865722656,-26.417999267578125 -99.97100067138672,-24.78700065612793 C-100.29100036621094,-24.687999725341797 -100.61399841308594,-24.642000198364258 -100.93099975585938,-24.642000198364258z"></path></g></g><g opacity="1" transform="matrix(1,0,0,1,0.5,0)"><path fill="rgb(23,19,10)" fill-opacity="1" d=" M-93.8740005493164,-42.51599884033203 C-93.8740005493164,-35.99700164794922 -98.86100006103516,-30.711999893188477 -105.01300048828125,-30.711999893188477 C-111.16500091552734,-30.711999893188477 -116.1520004272461,-35.99700164794922 -116.1520004272461,-42.51599884033203 C-116.1520004272461,-49.03499984741211 -111.16500091552734,-54.31999969482422 -105.01300048828125,-54.31999969482422 C-98.86100006103516,-54.31999969482422 -93.8740005493164,-49.03499984741211 -93.8740005493164,-42.51599884033203z"></path></g><g opacity="1" transform="matrix(1,0,0,1,0,0)"><path fill="url(#__lottie_element_33)" fill-opacity="1" d=" M-106,-52.694000244140625 C-106,-50.21799850463867 -107.89399719238281,-48.21200180053711 -110.2300033569336,-48.21200180053711 C-112.56600189208984,-48.21200180053711 -114.45999908447266,-50.21799850463867 -114.45999908447266,-52.694000244140625 C-114.45999908447266,-55.16999816894531 -112.56600189208984,-57.176998138427734 -110.2300033569336,-57.176998138427734 C-107.89399719238281,-57.176998138427734 -106,-55.16999816894531 -106,-52.694000244140625z"></path></g></g></g><g opacity="1" transform="matrix(1,0,0,1,0,0)"><path fill="rgb(133,63,0)" fill-opacity="1" d=" M29.624000549316406,-4.564000129699707 C29.624000549316406,-4.564000129699707 31.065000534057617,-41.53300094604492 64.39700317382812,-44.7140007019043 C78.08200073242188,-46.02000045776367 89.67400360107422,-38.49100112915039 94.68499755859375,-29.56599998474121 C98.90499877929688,-22.051000595092773 99.16899871826172,-14.451000213623047 99.16899871826172,-14.451000213623047 C99.16899871826172,-14.451000213623047 96.02200317382812,-43.12200164794922 65.47000122070312,-41.65599822998047 C32.775001525878906,-40.08700180053711 29.624000549316406,-4.564000129699707 29.624000549316406,-4.564000129699707z"></path><path stroke-linecap="round" stroke-linejoin="round" fill-opacity="0" stroke="rgb(133,63,0)" stroke-opacity="1" stroke-width="2" d=" M29.624000549316406,-4.564000129699707 C29.624000549316406,-4.564000129699707 31.065000534057617,-41.53300094604492 64.39700317382812,-44.7140007019043 C78.08200073242188,-46.02000045776367 89.67400360107422,-38.49100112915039 94.68499755859375,-29.56599998474121 C98.90499877929688,-22.051000595092773 99.16899871826172,-14.451000213623047 99.16899871826172,-14.451000213623047 C99.16899871826172,-14.451000213623047 96.02200317382812,-43.12200164794922 65.47000122070312,-41.65599822998047 C32.775001525878906,-40.08700180053711 29.624000549316406,-4.564000129699707 29.624000549316406,-4.564000129699707z"></path></g></g><g opacity="1" transform="matrix(1,0,0,1,1,0)"><g opacity="1" transform="matrix(1,0,0,1,0,0)"><path fill="rgb(247,247,247)" fill-opacity="1" d=" M-21.80500030517578,-4.564000129699707 C-21.80500030517578,-4.564000129699707 -24.822999954223633,-40.595001220703125 -54.79399871826172,-43.60499954223633 C-82.31800079345703,-46.36899948120117 -91.3489990234375,-14.451000213623047 -91.3489990234375,-14.451000213623047 C-91.3489990234375,-14.451000213623047 -83.94100189208984,4.870999813079834 -59.84600067138672,7.513000011444092 C-32.98400115966797,10.458999633789062 -21.80500030517578,-4.564000129699707 -21.80500030517578,-4.564000129699707z"></path></g><g opacity="1" transform="matrix(1.0899100303649902,0,0,1.100000023841858,59.13990783691406,27.586898803710938)"><g opacity="1" transform="matrix(1.0299999713897705,0,0,1,3.139434814453125,0)"><g opacity="1" transform="matrix(1,0,0,1,0,0)"><path fill="url(#__lottie_element_34)" fill-opacity="1" d=" M-87.38899993896484,-42.51599884033203 C-87.38899993896484,-32.20100021362305 -95.27899932861328,-23.839000701904297 -105.01300048828125,-23.839000701904297 C-114.74700164794922,-23.839000701904297 -122.63800048828125,-32.20100021362305 -122.63800048828125,-42.51599884033203 C-122.63800048828125,-52.83100128173828 -114.74700164794922,-61.19300079345703 -105.01300048828125,-61.19300079345703 C-95.27899932861328,-61.19300079345703 -87.38899993896484,-52.83100128173828 -87.38899993896484,-42.51599884033203z"></path></g><g opacity="1" transform="matrix(1,0,0,1,0,0)"><g opacity="1" transform="matrix(1,0,0,1,0,0)"><path fill="url(#__lottie_element_35)" fill-opacity="1" d=" M-100.93099975585938,-24.642000198364258 C-102.322998046875,-24.642000198364258 -103.61100006103516,-25.540000915527344 -104.04299926757812,-26.940000534057617 C-104.572998046875,-28.659000396728516 -103.60900115966797,-30.48200035095215 -101.88999938964844,-31.011999130249023 C-98.60199737548828,-32.0260009765625 -95.98400115966797,-34.58100128173828 -94.88800048828125,-37.84600067138672 C-94.31500244140625,-39.551998138427734 -92.46700286865234,-40.46799850463867 -90.76499938964844,-39.89699935913086 C-89.05899810791016,-39.32500076293945 -88.13999938964844,-37.47800064086914 -88.71299743652344,-35.77299880981445 C-90.4739990234375,-30.524999618530273 -94.68299865722656,-26.417999267578125 -99.97100067138672,-24.78700065612793 C-100.29100036621094,-24.687999725341797 -100.61399841308594,-24.642000198364258 -100.93099975585938,-24.642000198364258z"></path></g></g><g opacity="1" transform="matrix(1,0,0,1,0.5,0)"><path fill="rgb(23,19,10)" fill-opacity="1" d=" M-93.8740005493164,-42.51599884033203 C-93.8740005493164,-35.99700164794922 -98.86100006103516,-30.711999893188477 -105.01300048828125,-30.711999893188477 C-111.16500091552734,-30.711999893188477 -116.1520004272461,-35.99700164794922 -116.1520004272461,-42.51599884033203 C-116.1520004272461,-49.03499984741211 -111.16500091552734,-54.31999969482422 -105.01300048828125,-54.31999969482422 C-98.86100006103516,-54.31999969482422 -93.8740005493164,-49.03499984741211 -93.8740005493164,-42.51599884033203z"></path></g><g opacity="1" transform="matrix(1,0,0,1,0,0)"><path fill="url(#__lottie_element_36)" fill-opacity="1" d=" M-106,-52.694000244140625 C-106,-50.21799850463867 -107.89399719238281,-48.21200180053711 -110.2300033569336,-48.21200180053711 C-112.56600189208984,-48.21200180053711 -114.45999908447266,-50.21799850463867 -114.45999908447266,-52.694000244140625 C-114.45999908447266,-55.16999816894531 -112.56600189208984,-57.176998138427734 -110.2300033569336,-57.176998138427734 C-107.89399719238281,-57.176998138427734 -106,-55.16999816894531 -106,-52.694000244140625z"></path></g></g></g><g opacity="1" transform="matrix(1,0,0,1,0,0)"><path fill="rgb(133,63,0)" fill-opacity="1" d=" M-21.80500030517578,-4.564000129699707 C-21.80500030517578,-4.564000129699707 -23.2450008392334,-41.53300094604492 -56.57699966430664,-44.7140007019043 C-70.26200103759766,-46.02000045776367 -81.85299682617188,-38.49100112915039 -86.86499786376953,-29.56599998474121 C-91.08499908447266,-22.051000595092773 -91.3489990234375,-14.451000213623047 -91.3489990234375,-14.451000213623047 C-91.3489990234375,-14.451000213623047 -88.2030029296875,-43.12200164794922 -57.650001525878906,-41.65599822998047 C-24.954999923706055,-40.08700180053711 -21.80500030517578,-4.564000129699707 -21.80500030517578,-4.564000129699707z"></path><path stroke-linecap="round" stroke-linejoin="round" fill-opacity="0" stroke="rgb(133,63,0)" stroke-opacity="1" stroke-width="2" d=" M-21.80500030517578,-4.564000129699707 C-21.80500030517578,-4.564000129699707 -23.2450008392334,-41.53300094604492 -56.57699966430664,-44.7140007019043 C-70.26200103759766,-46.02000045776367 -81.85299682617188,-38.49100112915039 -86.86499786376953,-29.56599998474121 C-91.08499908447266,-22.051000595092773 -91.3489990234375,-14.451000213623047 -91.3489990234375,-14.451000213623047 C-91.3489990234375,-14.451000213623047 -88.2030029296875,-43.12200164794922 -57.650001525878906,-41.65599822998047 C-24.954999923706055,-40.08700180053711 -21.80500030517578,-4.564000129699707 -21.80500030517578,-4.564000129699707z"></path></g></g></g><g style="display: block;" transform="matrix(0.9408000111579895,0,0,0.9408000111579895,232.0404510498047,214.6281280517578)" opacity="1"><g opacity="1" transform="matrix(1,0,0,1,0,0)"><path fill="url(#__lottie_element_24)" fill-opacity="1" d=" M40.79399871826172,77.40399932861328 C40.79399871826172,84.79499816894531 32.770999908447266,91.36499786376953 24.035999298095703,91.36499786376953 C15.300999641418457,91.36499786376953 7.2779998779296875,84.79499816894531 7.2779998779296875,77.40399932861328 C7.2779998779296875,70.01300048828125 15.300999641418457,63.23699951171875 24.035999298095703,63.23699951171875 C32.770999908447266,63.23699951171875 40.79399871826172,70.01300048828125 40.79399871826172,77.40399932861328z"></path></g><g opacity="1" transform="matrix(1,0,0,1,0,0)"><path fill="rgb(255,168,0)" fill-opacity="0.8" d=" M40.79399871826172,72.33300018310547 C40.79399871826172,79.0780029296875 33.29100036621094,84.54499816894531 24.035999298095703,84.54499816894531 C14.781000137329102,84.54499816894531 7.2789998054504395,79.0780029296875 7.2789998054504395,72.33300018310547 C7.2789998054504395,65.58799743652344 14.781000137329102,60.40800094604492 24.035999298095703,60.40800094604492 C33.29100036621094,60.40800094604492 40.79399871826172,65.58799743652344 40.79399871826172,72.33300018310547z"></path></g><g opacity="1" transform="matrix(1,0,0,1,0,0)"><path fill="url(#__lottie_element_25)" fill-opacity="0.7000000000000001" d=" M40.79399871826172,72.33300018310547 C40.79399871826172,79.0780029296875 33.29100036621094,84.54499816894531 24.035999298095703,84.54499816894531 C14.781000137329102,84.54499816894531 7.2789998054504395,79.0780029296875 7.2789998054504395,72.33300018310547 C7.2789998054504395,65.58799743652344 14.781000137329102,60.40800094604492 24.035999298095703,60.40800094604492 C33.29100036621094,60.40800094604492 40.79399871826172,65.58799743652344 40.79399871826172,72.33300018310547z"></path></g><g opacity="1" transform="matrix(1,0,0,1,0,0)"><path fill="rgb(255,216,0)" fill-opacity="1" d=" M38.53300094604492,68.47799682617188 C38.53300094604492,73.4990005493164 32.04199981689453,77.56999969482422 24.035999298095703,77.56999969482422 C16.030000686645508,77.56999969482422 9.539999961853027,73.4990005493164 9.539999961853027,68.47799682617188 C9.539999961853027,63.457000732421875 16.030000686645508,60.21099853515625 24.035999298095703,60.21099853515625 C32.04199981689453,60.21099853515625 38.53300094604492,63.457000732421875 38.53300094604492,68.47799682617188z"></path></g><g opacity="1" transform="matrix(1,0,0,1,0,0)"><path fill="url(#__lottie_element_26)" fill-opacity="1" d=" M38.53300094604492,68.47799682617188 C38.53300094604492,73.4990005493164 32.04199981689453,77.56999969482422 24.035999298095703,77.56999969482422 C16.030000686645508,77.56999969482422 9.539999961853027,73.4990005493164 9.539999961853027,68.47799682617188 C9.539999961853027,63.457000732421875 16.030000686645508,60.21099853515625 24.035999298095703,60.21099853515625 C32.04199981689453,60.21099853515625 38.53300094604492,63.457000732421875 38.53300094604492,68.47799682617188z"></path></g><g opacity="1" transform="matrix(1,0,0,1,0,0)"><path fill="url(#__lottie_element_27)" fill-opacity="0.7000000000000001" d=" M31.5049991607666,64.83200073242188 C31.5049991607666,67.5199966430664 28.160999298095703,70.04900360107422 24.035999298095703,70.04900360107422 C19.910999298095703,70.04900360107422 16.566999435424805,67.5199966430664 16.566999435424805,64.83200073242188 C16.566999435424805,62.14400100708008 19.910999298095703,60.79499816894531 24.035999298095703,60.79499816894531 C28.160999298095703,60.79499816894531 31.5049991607666,62.14400100708008 31.5049991607666,64.83200073242188z"></path></g></g><g style="display: block;" transform="matrix(0.9503999948501587,0,0,0.9599999785423279,230.45388793945312,211.9010009765625)" opacity="1"><g opacity="1" transform="matrix(1,0,0,1,0,0)"><path fill="rgb(255,205,0)" fill-opacity="1" d=" M-35.90399932861328,-98.69100189208984 C-42.275001525878906,-47.02000045776367 -68.37999725341797,-13.022000312805176 -111.58499908447266,5.6620001792907715 C-111.58499908447266,5.6620001792907715 -144.427001953125,46.57600021362305 -134.99000549316406,131.5469970703125 C-134.99000549316406,131.5469970703125 -147.0469970703125,63.391998291015625 -119.5999984741211,-36.722999572753906 C-94.15399932861328,-129.5399932861328 -52.28300094604492,-143.88699340820312 -42.56100082397461,-140.08200073242188 C-42.56100082397461,-140.08200073242188 -28.875,-166.08099365234375 38.92499923706055,-157.2030029296875 C106.7249984741211,-148.3249969482422 149.61900329589844,-98.23100280761719 168.8249969482422,-39.893001556396484 C188.031005859375,18.44499969482422 193.51100158691406,87.79299926757812 190.30999755859375,131.5469970703125 C190.30999755859375,131.5469970703125 198.73800659179688,24.599000930786133 126.62200164794922,-10.081999778747559 C126.62200164794922,-10.081999778747559 24.545000076293945,-31.624000549316406 -35.90399932861328,-98.69100189208984z"></path></g><g opacity="1" transform="matrix(1,0,0,1,0,0)"><path fill="url(#__lottie_element_17)" fill-opacity="1" d=" M-35.90399932861328,-98.69100189208984 C-42.275001525878906,-47.02000045776367 -68.37999725341797,-13.022000312805176 -111.58499908447266,5.6620001792907715 C-111.58499908447266,5.6620001792907715 -144.427001953125,46.57600021362305 -134.99000549316406,131.5469970703125 C-134.99000549316406,131.5469970703125 -147.0469970703125,63.391998291015625 -119.5999984741211,-36.722999572753906 C-94.15399932861328,-129.5399932861328 -52.28300094604492,-143.88699340820312 -42.56100082397461,-140.08200073242188 C-42.56100082397461,-140.08200073242188 -28.875,-166.08099365234375 38.92499923706055,-157.2030029296875 C106.7249984741211,-148.3249969482422 149.61900329589844,-98.23100280761719 168.8249969482422,-39.893001556396484 C188.031005859375,18.44499969482422 193.51100158691406,87.79299926757812 190.30999755859375,131.5469970703125 C190.30999755859375,131.5469970703125 198.73800659179688,24.599000930786133 126.62200164794922,-10.081999778747559 C126.62200164794922,-10.081999778747559 24.545000076293945,-31.624000549316406 -35.90399932861328,-98.69100189208984z"></path></g><g opacity="1" transform="matrix(1,0,0,1,0,0)"><path fill="url(#__lottie_element_18)" fill-opacity="1" d=" M165.36199951171875,-5.605999946594238 C165.36199951171875,-5.605999946594238 147.3159942626953,-9.663000106811523 126.6240005493164,-10.07699966430664 C126.6240005493164,-10.07699966430664 24.54599952697754,-31.621999740600586 -35.904998779296875,-98.69499969482422 C-35.904998779296875,-98.69499969482422 -38.220001220703125,-52.98400115966797 -67.53099822998047,-25.985000610351562 C-95.22699737548828,-0.46000000834465027 -111.58100128173828,5.6579999923706055 -111.58100128173828,5.6579999923706055 C-111.58100128173828,5.6579999923706055 -132.33099365234375,35.757999420166016 -134.4040069580078,62.29600143432617 C-134.4040069580078,62.29600143432617 -136.2570037841797,5.738999843597412 -117.1449966430664,-2.561000108718872 C-117.1449966430664,-2.561000108718872 -85.53299713134766,-19.80500030517578 -68.50399780273438,-41.93199920654297 C-46.68299865722656,-70.28600311279297 -48.3120002746582,-107.76799774169922 -51.2760009765625,-117.97599792480469 C-55.59199905395508,-132.83700561523438 -88.56099700927734,-116.33000183105469 -108.61399841308594,-69.91400146484375 C-83.5250015258789,-133.05599975585938 -50.98400115966797,-143.375 -42.558998107910156,-140.0800018310547 C-42.558998107910156,-140.0800018310547 -28.871000289916992,-166.07699584960938 38.92499923706055,-157.2030029296875 C73.22699737548828,-152.71299743652344 101.16600036621094,-137.66200256347656 122.87899780273438,-116.3290023803711 C122.87899780273438,-116.3290023803711 79.44599914550781,-156.78399658203125 8.961000442504883,-149.02200317382812 C-38.5369987487793,-143.79100036621094 -31.83799934387207,-120.71600341796875 -26.555999755859375,-111.91500091552734 C-19.065000534057617,-99.43299865722656 19.308000564575195,-60.18899917602539 73.91699981689453,-39.6870002746582 C120.64199829101562,-22.145000457763672 147.38400268554688,-17.53499984741211 165.36199951171875,-5.605999946594238z"></path></g><g opacity="1" transform="matrix(1,0,0,1,0,0)"><path stroke-linecap="round" stroke-linejoin="round" fill-opacity="0" stroke="rgb(197,92,0)" stroke-opacity="1" stroke-width="8.3" d=" M-35.90399932861328,-98.69100189208984 C-32.16600036621094,-53.03799819946289 -66.33399963378906,-13.515000343322754 -111.58499908447266,5.6620001792907715 C-111.58499908447266,5.6620001792907715 -145.50399780273438,45.03900146484375 -136.06700134277344,130.00999450683594 C-136.06700134277344,130.00999450683594 -147.0469970703125,63.391998291015625 -119.5999984741211,-36.722999572753906 C-94.15399932861328,-129.5399932861328 -52.28300094604492,-143.88699340820312 -42.56100082397461,-140.08200073242188 C-42.56100082397461,-140.08200073242188 -28.875,-166.08099365234375 38.92499923706055,-157.2030029296875 C106.7249984741211,-148.3249969482422 149.61900329589844,-98.23100280761719 168.8249969482422,-39.893001556396484 C188.031005859375,18.44499969482422 193.5989990234375,86.375 190.3979949951172,130.12899780273438 C190.3979949951172,130.12899780273438 198.53399658203125,23.60099983215332 126.62200164794922,-10.081999778747559 C126.62200164794922,-10.081999778747559 24.545000076293945,-31.624000549316406 -35.90399932861328,-98.69100189208984z"></path></g><g opacity="1" transform="matrix(1,0,0,1,0,0)"><path fill="url(#__lottie_element_19)" fill-opacity="0.9" d=" M-49.70800018310547,-106.19599914550781 C-49.185001373291016,-126.46800231933594 -46.99599838256836,-130.99600219726562 -51.6510009765625,-129.8419952392578 C-66.45600128173828,-126.16999816894531 -90.5739974975586,-104.375 -103.2249984741211,-64.01599884033203 C-102.5989990234375,-49.236000061035156 -84.27899932861328,-59.4010009765625 -75.5469970703125,-59.834999084472656 C-53.18899917602539,-60.94599914550781 -50.17100143432617,-88.23899841308594 -49.70800018310547,-106.19599914550781z"></path></g><g opacity="1" transform="matrix(1,0,0,1,0,0)"><path fill="url(#__lottie_element_20)" fill-opacity="0.9" d=" M39.722999572753906,-61.18299865722656 C4.3979997634887695,-73.32499694824219 -21.31800079345703,-104.31400299072266 -27.062999725341797,-113.81199645996094 C-33.83399963378906,-125.00700378417969 -35.84000015258789,-135.1840057373047 -33.992000579833984,-137.2830047607422 C-26.03700065612793,-146.32200622558594 3.8510000705718994,-154.76699829101562 45.696998596191406,-146.49000549316406 C84.45099639892578,-138.82400512695312 123.76799774169922,-109.60199737548828 142.84800720214844,-73.6969985961914 C153.49000549316406,-53.67100143432617 97.72599792480469,-41.24700164794922 39.722999572753906,-61.18299865722656z"></path></g><g opacity="1" transform="matrix(1,0,0,1,0,0)"><path stroke-linecap="round" stroke-linejoin="round" fill-opacity="0" stroke="rgb(163,65,0)" stroke-opacity="1" stroke-width="8.3" d=" M190.3979949951172,130.12899780273438 C190.3979949951172,130.12899780273438 198.53399658203125,23.60099983215332 126.62200164794922,-10.081999778747559 C126.62200164794922,-10.081999778747559 24.545000076293945,-31.624000549316406 -35.90399932861328,-98.69100189208984 C-32.16600036621094,-53.03799819946289 -66.33399963378906,-13.515000343322754 -111.58499908447266,5.6620001792907715 C-111.58499908447266,5.6620001792907715 -145.50399780273438,45.03900146484375 -136.06700134277344,130.00999450683594"></path></g></g><g style="display: block;" transform="matrix(1,0,0,1,256,256)" opacity="1"><g opacity="1" transform="matrix(1,0,0,1,0,0)"><path fill="url(#__lottie_element_6)" fill-opacity="1" d=" M148.16000366210938,30.215999603271484 C148.16000366210938,30.215999603271484 -148.281005859375,30.215999603271484 -148.281005859375,30.215999603271484 C-154.10299682617188,30.215999603271484 -158.71400451660156,35.137001037597656 -158.33299255371094,40.946998596191406 C-158.33299255371094,40.946998596191406 -147.05299377441406,213.14100646972656 -147.05299377441406,213.14100646972656 C-146.81399536132812,216.79600524902344 -143.7790069580078,219.63800048828125 -140.11599731445312,219.63800048828125 C-140.11599731445312,219.63800048828125 139.9949951171875,219.63800048828125 139.9949951171875,219.63800048828125 C143.6580047607422,219.63800048828125 146.69200134277344,216.79600524902344 146.93099975585938,213.14100646972656 C146.93099975585938,213.14100646972656 158.21099853515625,40.946998596191406 158.21099853515625,40.946998596191406 C158.5919952392578,35.137001037597656 153.98199462890625,30.215999603271484 148.16000366210938,30.215999603271484z"></path></g><g opacity="1" transform="matrix(1,0,0,1,0,0)"><path stroke-linecap="round" stroke-linejoin="round" fill-opacity="0" stroke="rgb(83,81,86)" stroke-opacity="1" stroke-width="8" d=" M-147.05299377441406,214.08900451660156 C-146.81399536132812,217.74400329589844 -143.7790069580078,220.58599853515625 -140.11599731445312,220.58599853515625 C-140.11599731445312,220.58599853515625 139.9949951171875,220.58599853515625 139.9949951171875,220.58599853515625 C143.6580047607422,220.58599853515625 146.69200134277344,217.74400329589844 146.93099975585938,214.08900451660156"></path></g><g opacity="1" transform="matrix(1,0,0,1,0,0)"><path fill="url(#__lottie_element_7)" fill-opacity="1" d=" M-0.5299999713897705,108.7750015258789 C-19.68899917602539,108.7750015258789 -35.22700119018555,120.93499755859375 -35.22700119018555,135.9320068359375 C-35.22700119018555,150.9290008544922 -19.68899917602539,163.0800018310547 -0.5299999713897705,163.0800018310547 C18.628999710083008,163.0800018310547 34.16699981689453,150.9290008544922 34.16699981689453,135.9320068359375 C34.16699981689453,120.93499755859375 18.628999710083008,108.7750015258789 -0.5299999713897705,108.7750015258789z M14.411999702453613,148.6510009765625 C13.97700023651123,150.08299255371094 14.20199966430664,151.7969970703125 12.854999542236328,152.947998046875 C10.637999534606934,154.4510040283203 7.565000057220459,152.72799682617188 5.538000106811523,151.74400329589844 C1.4620000123977661,149.58200073242188 -2.7890000343322754,147.57899475097656 -6.61899995803833,145.13600158691406 C-9.369000434875488,143.2030029296875 -5.172999858856201,141.45399475097656 -3.5880000591278076,140.1179962158203 C-1.378000020980835,138.48399353027344 6.710000038146973,132.8780059814453 7.474999904632568,131.16400146484375 C7.734000205993652,129.04600524902344 -6.576000213623047,137.26199340820312 -9.164999961853027,138.63299560546875 C-12.630000114440918,140.35499572753906 -14.826000213623047,142.45599365234375 -19.302000045776367,141.2519989013672 C-21.427000045776367,140.74200439453125 -28.55500030517578,139.01100158691406 -28.02199935913086,137.8509979248047 C-27.43600082397461,135.31100463867188 2.9839999675750732,127.21900177001953 10.244999885559082,124.81099700927734 C12.741999626159668,124.23999786376953 18.6560001373291,121.08499908447266 19.06999969482422,124.81099700927734 C17.77899932861328,132.79800415039062 15.97599983215332,140.69900512695312 14.411999702453613,148.6510009765625z"></path></g><g opacity="1" transform="matrix(1,0,0,1,0,0)"><path stroke-linecap="round" stroke-linejoin="round" fill-opacity="0" stroke="rgb(116,113,119)" stroke-opacity="1" stroke-width="8" d=" M-155.63299560546875,34.35100173950195 C-157.46600341796875,36.30799865722656 -158.5229949951172,38.9900016784668 -158.33299255371094,41.89500045776367 C-158.33299255371094,41.89500045776367 -147.05299377441406,214.08900451660156 -147.05299377441406,214.08900451660156"></path></g><g opacity="1" transform="matrix(1,0,0,1,0,0)"><path stroke-linecap="round" stroke-linejoin="round" fill-opacity="0" stroke="rgb(116,113,119)" stroke-opacity="1" stroke-width="8" d=" M146.93099975585938,214.08900451660156 C146.93099975585938,214.08900451660156 158.21099853515625,41.89500045776367 158.21099853515625,41.89500045776367 C158.38099670410156,39.30699920654297 157.55999755859375,36.89500045776367 156.08299255371094,35.01599884033203"></path></g><g opacity="1" transform="matrix(1,0,0,1,0,0)"><path fill="url(#__lottie_element_8)" fill-opacity="0.17" d=" M158.30499267578125,40.60499954223633 C158.30499267578125,40.60499954223633 146.08900451660156,218.37100219726562 146.08900451660156,218.37100219726562 C143.24600219726562,223.11000061035156 -57.22800064086914,219.2989959716797 -57.22800064086914,219.2989959716797 C-57.22800064086914,219.2989959716797 101.23300170898438,29.875999450683594 101.23300170898438,29.875999450683594 C101.23300170898438,29.875999450683594 160.30499267578125,22.19099998474121 158.30499267578125,40.60499954223633z"></path></g><g opacity="1" transform="matrix(1,0,0,1,0,0)"><path stroke-linecap="round" stroke-linejoin="round" fill-opacity="0" stroke="rgb(200,199,201)" stroke-opacity="1" stroke-width="8" d=" M157.3159942626953,37.03099822998047 C155.72799682617188,33.58300018310547 152.24200439453125,31.163999557495117 148.16000366210938,31.163999557495117 C148.16000366210938,31.163999557495117 -0.08399999886751175,31.163999557495117 -0.08399999886751175,31.163999557495117 C-0.08399999886751175,31.163999557495117 -148.281005859375,31.163999557495117 -148.281005859375,31.163999557495117 C-152.3769989013672,31.163999557495117 -155.87399291992188,33.5989990234375 -157.45399475097656,37.06700134277344"></path></g></g></g></svg>