<svg xmlns="http://www.w3.org/2000/svg" xmlns:xlink="http://www.w3.org/1999/xlink" viewBox="0 0 512 512" width="512" height="512" style="width: 100%; height: 100%; transform: translate3d(0,0,0); content-visibility: visible;" preserveAspectRatio="xMidYMid meet"><defs><clipPath id="__lottie_element_2"><rect width="512" height="512" x="0" y="0"></rect></clipPath><linearGradient id="__lottie_element_6" spreadMethod="pad" gradientUnits="userSpaceOnUse" x1="-0.25" y1="219.75" x2="0.41499999165534973" y2="35.29600143432617"><stop offset="0%" stop-color="rgb(76,73,79)"></stop><stop offset="3%" stop-color="rgb(111,108,113)"></stop><stop offset="9%" stop-color="rgb(146,144,147)"></stop><stop offset="46%" stop-color="rgb(146,144,147)"></stop><stop offset="82%" stop-color="rgb(146,144,147)"></stop><stop offset="97%" stop-color="rgb(173,172,174)"></stop><stop offset="100%" stop-color="rgb(200,199,201)"></stop></linearGradient><linearGradient id="__lottie_element_7" spreadMethod="pad" gradientUnits="userSpaceOnUse" x1="-21.25" y1="115" x2="41.23500061035156" y2="172.3520050048828"><stop offset="9%" stop-color="rgb(105,98,110)" stop-opacity="0.5"></stop><stop offset="64%" stop-color="rgb(92,87,99)" stop-opacity="0.75"></stop><stop offset="100%" stop-color="rgb(78,77,88)" stop-opacity="1"></stop></linearGradient><linearGradient id="__lottie_element_8" spreadMethod="pad" gradientUnits="userSpaceOnUse" x1="55" y1="203" x2="43.316001892089844" y2="31.628999710083008"><stop offset="9%" stop-color="rgb(255,255,255)" stop-opacity="0"></stop><stop offset="64%" stop-color="rgb(255,255,255)" stop-opacity="0.5"></stop><stop offset="100%" stop-color="rgb(255,255,255)" stop-opacity="1"></stop></linearGradient><linearGradient id="__lottie_element_13" spreadMethod="pad" gradientUnits="userSpaceOnUse" x1="-51.237998962402344" y1="-132.5" x2="-51.237998962402344" y2="62.28799819946289"><stop offset="6%" stop-color="rgb(255,216,0)" stop-opacity="0"></stop><stop offset="15%" stop-color="rgb(255,216,0)" stop-opacity="0.5"></stop><stop offset="50%" stop-color="rgb(255,216,0)" stop-opacity="1"></stop><stop offset="88%" stop-color="rgb(255,216,0)" stop-opacity="0.5"></stop><stop offset="100%" stop-color="rgb(255,216,0)" stop-opacity="0"></stop></linearGradient><linearGradient id="__lottie_element_14" spreadMethod="pad" gradientUnits="userSpaceOnUse" x1="-74.23799896240234" y1="-157.5" x2="-57.606998443603516" y2="-77.3550033569336"><stop offset="0%" stop-color="rgb(219,110,0)" stop-opacity="1"></stop><stop offset="38%" stop-color="rgb(219,110,0)" stop-opacity="0.5"></stop><stop offset="70%" stop-color="rgb(219,110,0)" stop-opacity="0"></stop></linearGradient><linearGradient id="__lottie_element_17" spreadMethod="pad" gradientUnits="userSpaceOnUse" x1="-51.237998962402344" y1="-5" x2="-51.237998962402344" y2="13.730999946594238"><stop offset="0%" stop-color="rgb(255,168,0)" stop-opacity="1"></stop><stop offset="66%" stop-color="rgb(255,168,0)" stop-opacity="0.5"></stop><stop offset="100%" stop-color="rgb(255,168,0)" stop-opacity="0"></stop></linearGradient><linearGradient id="__lottie_element_18" spreadMethod="pad" gradientUnits="userSpaceOnUse" x1="-51.237998962402344" y1="4" x2="-51.237998962402344" y2="-17.07900047302246"><stop offset="10%" stop-color="rgb(219,110,0)" stop-opacity="1"></stop><stop offset="51%" stop-color="rgb(219,110,0)" stop-opacity="0.5"></stop><stop offset="80%" stop-color="rgb(219,110,0)" stop-opacity="0"></stop></linearGradient><radialGradient id="__lottie_element_19" spreadMethod="pad" gradientUnits="userSpaceOnUse" cx="-52.237998962402344" cy="-21" r="20.676998138427734" fx="-52.237998962402344" fy="-21"><stop offset="36%" stop-color="rgb(255,168,0)" stop-opacity="0"></stop><stop offset="74%" stop-color="rgb(255,168,0)" stop-opacity="0.5"></stop><stop offset="100%" stop-color="rgb(255,168,0)" stop-opacity="1"></stop></radialGradient><linearGradient id="__lottie_element_20" spreadMethod="pad" gradientUnits="userSpaceOnUse" x1="-51.237998962402344" y1="-24" x2="-51.237998962402344" y2="-10.991000175476074"><stop offset="0%" stop-color="rgb(255,255,255)" stop-opacity="1"></stop><stop offset="50%" stop-color="rgb(255,255,255)" stop-opacity="0.5"></stop><stop offset="100%" stop-color="rgb(255,255,255)" stop-opacity="0"></stop></linearGradient><linearGradient id="__lottie_element_24" spreadMethod="pad" gradientUnits="userSpaceOnUse" x1="-52.237998962402344" y1="-152" x2="-52.237998962402344" y2="-83.95800018310547"><stop offset="10%" stop-color="rgb(255,169,0)" stop-opacity="0"></stop><stop offset="47%" stop-color="rgb(255,169,0)" stop-opacity="0.5"></stop><stop offset="100%" stop-color="rgb(255,169,0)" stop-opacity="1"></stop></linearGradient><linearGradient id="__lottie_element_25" spreadMethod="pad" gradientUnits="userSpaceOnUse" x1="-67.23799896240234" y1="-196.25" x2="-58.76599884033203" y2="-137.58299255371094"><stop offset="0%" stop-color="rgb(255,255,255)" stop-opacity="1"></stop><stop offset="50%" stop-color="rgb(255,255,255)" stop-opacity="0.5"></stop><stop offset="100%" stop-color="rgb(255,255,255)" stop-opacity="0"></stop></linearGradient><linearGradient id="__lottie_element_26" spreadMethod="pad" gradientUnits="userSpaceOnUse" x1="-139.23800659179688" y1="-164" x2="-152.18099975585938" y2="-124.4219970703125"><stop offset="0%" stop-color="rgb(255,255,255)" stop-opacity="1"></stop><stop offset="50%" stop-color="rgb(255,255,255)" stop-opacity="0.5"></stop><stop offset="100%" stop-color="rgb(255,255,255)" stop-opacity="0"></stop></linearGradient><linearGradient id="__lottie_element_27" spreadMethod="pad" gradientUnits="userSpaceOnUse" x1="-52.237998962402344" y1="-62" x2="-52.237998962402344" y2="-200.1479949951172"><stop offset="7%" stop-color="rgb(218,110,0)" stop-opacity="0.30000001192092896"></stop><stop offset="26%" stop-color="rgb(218,110,0)" stop-opacity="0.6499999761581421"></stop><stop offset="45%" stop-color="rgb(218,110,0)" stop-opacity="1"></stop><stop offset="58%" stop-color="rgb(218,110,0)" stop-opacity="0.5"></stop><stop offset="80%" stop-color="rgb(218,110,0)" stop-opacity="0"></stop></linearGradient><linearGradient id="__lottie_element_31" spreadMethod="pad" gradientUnits="userSpaceOnUse" x1="-7.61299991607666" y1="-60.5" x2="6.245999813079834" y2="-40.500999450683594"><stop offset="0%" stop-color="rgb(66,0,0)"></stop><stop offset="37%" stop-color="rgb(118,40,0)"></stop><stop offset="100%" stop-color="rgb(170,80,0)"></stop></linearGradient><radialGradient id="__lottie_element_32" spreadMethod="pad" gradientUnits="userSpaceOnUse" cx="3.76200008392334" cy="-44" r="8.717000007629395" fx="3.76200008392334" fy="-44"><stop offset="0%" stop-color="rgb(246,175,0)" stop-opacity="1"></stop><stop offset="50%" stop-color="rgb(246,175,0)" stop-opacity="0.5"></stop><stop offset="100%" stop-color="rgb(246,175,0)" stop-opacity="0"></stop></radialGradient><linearGradient id="__lottie_element_33" spreadMethod="pad" gradientUnits="userSpaceOnUse" x1="-9.23799991607666" y1="-64" x2="-9.170999526977539" y2="-57.90299987792969"><stop offset="0%" stop-color="rgb(255,255,255)" stop-opacity="1"></stop><stop offset="60%" stop-color="rgb(255,255,255)" stop-opacity="0.5"></stop><stop offset="100%" stop-color="rgb(255,255,255)" stop-opacity="0"></stop></linearGradient><linearGradient id="__lottie_element_34" spreadMethod="pad" gradientUnits="userSpaceOnUse" x1="-101.98799896240234" y1="-60.5" x2="-89.25399780273438" y2="-40.500999450683594"><stop offset="0%" stop-color="rgb(66,0,0)"></stop><stop offset="37%" stop-color="rgb(118,40,0)"></stop><stop offset="100%" stop-color="rgb(170,80,0)"></stop></linearGradient><radialGradient id="__lottie_element_35" spreadMethod="pad" gradientUnits="userSpaceOnUse" cx="-90.23799896240234" cy="-44" r="8.716995239257812" fx="-90.23799896240234" fy="-44"><stop offset="0%" stop-color="rgb(246,175,0)" stop-opacity="1"></stop><stop offset="50%" stop-color="rgb(246,175,0)" stop-opacity="0.5"></stop><stop offset="100%" stop-color="rgb(246,175,0)" stop-opacity="0"></stop></radialGradient><linearGradient id="__lottie_element_36" spreadMethod="pad" gradientUnits="userSpaceOnUse" x1="-103.23799896240234" y1="-64" x2="-103.08000183105469" y2="-58.20000076293945"><stop offset="0%" stop-color="rgb(255,255,255)" stop-opacity="1"></stop><stop offset="60%" stop-color="rgb(255,255,255)" stop-opacity="0.5"></stop><stop offset="100%" stop-color="rgb(255,255,255)" stop-opacity="0"></stop></linearGradient><radialGradient id="__lottie_element_46" spreadMethod="pad" gradientUnits="userSpaceOnUse" cx="-5" cy="322" r="232.8179931640625" fx="-5" fy="322"><stop offset="42%" stop-color="rgb(51,110,218)"></stop><stop offset="91%" stop-color="rgb(35,75,178)"></stop><stop offset="100%" stop-color="rgb(19,40,138)"></stop></radialGradient><linearGradient id="__lottie_element_47" spreadMethod="pad" gradientUnits="userSpaceOnUse" x1="0" y1="95.5" x2="0.8119999766349792" y2="213.28599548339844"><stop offset="0%" stop-color="rgb(255,255,255)" stop-opacity="1"></stop><stop offset="50%" stop-color="rgb(255,255,255)" stop-opacity="0.5"></stop><stop offset="100%" stop-color="rgb(255,255,255)" stop-opacity="0"></stop></linearGradient><radialGradient id="__lottie_element_48" spreadMethod="pad" gradientUnits="userSpaceOnUse" cx="0" cy="211" r="94.17400360107422" fx="0" fy="211"><stop offset="19%" stop-color="rgb(255,168,0)" stop-opacity="1"></stop><stop offset="84%" stop-color="rgb(255,168,0)" stop-opacity="0.5"></stop><stop offset="100%" stop-color="rgb(255,168,0)" stop-opacity="0"></stop></radialGradient><radialGradient id="__lottie_element_52" spreadMethod="pad" gradientUnits="userSpaceOnUse" cx="-5" cy="322" r="232.8179931640625" fx="-5" fy="322"><stop offset="40%" stop-color="rgb(51,142,218)"></stop><stop offset="91%" stop-color="rgb(26,104,177)"></stop><stop offset="100%" stop-color="rgb(0,66,137)"></stop></radialGradient><linearGradient id="__lottie_element_53" spreadMethod="pad" gradientUnits="userSpaceOnUse" x1="0" y1="112" x2="0.8119999766349792" y2="214.78599548339844"><stop offset="0%" stop-color="rgb(255,255,255)" stop-opacity="1"></stop><stop offset="50%" stop-color="rgb(255,255,255)" stop-opacity="0.5"></stop><stop offset="100%" stop-color="rgb(255,255,255)" stop-opacity="0"></stop></linearGradient><radialGradient id="__lottie_element_54" spreadMethod="pad" gradientUnits="userSpaceOnUse" cx="0" cy="211" r="94.17400360107422" fx="0" fy="211"><stop offset="19%" stop-color="rgb(255,168,0)" stop-opacity="1"></stop><stop offset="84%" stop-color="rgb(255,168,0)" stop-opacity="0.5"></stop><stop offset="100%" stop-color="rgb(255,168,0)" stop-opacity="0"></stop></radialGradient></defs><g clip-path="url(#__lottie_element_2)"><g style="display: block;" transform="matrix(1,0,0,1,256,256)" opacity="1"><g opacity="1" transform="matrix(1,0,0,1,0,0)"><g opacity="1" transform="matrix(1,0,0,1,0,0)"><path fill="url(#__lottie_element_52)" fill-opacity="1" d=" M162.5489959716797,157.3730010986328 C156.65699768066406,149.73800659179688 55.64400100708008,97.83999633789062 -2.5950000286102295,97.82499694824219 C-60.83399963378906,97.80999755859375 -157.79100036621094,150.57400512695312 -163.03799438476562,157.3730010986328 C-177.04299926757812,175.53199768066406 -182.63299560546875,194.37100219726562 -184.7480010986328,210.70199584960938 C-184.7480010986328,210.70199584960938 -178.88099670410156,224.1750030517578 -142.40699768066406,224.1750030517578 C-142.40699768066406,224.1750030517578 141.2480010986328,224.1750030517578 141.2480010986328,224.1750030517578 C174.56900024414062,224.1750030517578 184.7480010986328,212.91700744628906 184.7480010986328,212.91700744628906 C182.78599548339844,197.0489959716797 176.92999267578125,176.031005859375 162.5489959716797,157.3730010986328z"></path></g><g opacity="1" transform="matrix(1,0,0,1,0,0)"><path fill="url(#__lottie_element_53)" fill-opacity="0.5" d=" M172.01800537109375,218.74200439453125 C171.33599853515625,199.9969940185547 162.552001953125,178.23800659179688 151.8990020751953,168.3719940185547 C134.82000732421875,152.55599975585938 97.08000183105469,138.6060028076172 48.084999084472656,120.95700073242188 C12.923999786376953,113.17400360107422 -18.80699920654297,113.16200256347656 -46.22600173950195,120.92400360107422 C-91.18900299072266,137.12100219726562 -132.58099365234375,153.2030029296875 -150.21200561523438,169.49600219726562 C-159.6320037841797,178.2010040283203 -168.98300170898438,200.52099609375 -169.67599487304688,219.58900451660156 C-172.7779998779297,218.3209991455078 -180.1929931640625,215.9600067138672 -182.0590057373047,214.0260009765625 C-181.26100158691406,192.0709991455078 -169.68099975585938,170.16000366210938 -158.875,160.1739959716797 C-141.94500732421875,144.5290069580078 -105.5250015258789,129.54299926757812 -48.340999603271484,108.94599914550781 C-48.268001556396484,108.91999816894531 -48.194000244140625,108.89600372314453 -48.119998931884766,108.875 C-19.56800079345703,100.76799774169922 13.343000411987305,100.75199890136719 49.70100021362305,108.8270034790039 C49.8380012512207,108.85800170898438 49.97600173950195,108.89800262451172 50.11000061035156,108.94599914550781 C99.95899963378906,126.9010009765625 142.68600463867188,143.1510009765625 160.68099975585938,160.20799255371094 C170.68600463867188,169.6929931640625 182.8209991455078,190.8350067138672 183.66000366210938,213.8990020751953 C180.8070068359375,216.27999877929688 173.69000244140625,218.16200256347656 172.01800537109375,218.74200439453125z"></path></g><g opacity="1" transform="matrix(1,0,0,1,0,0)"><path stroke-linecap="round" stroke-linejoin="round" fill-opacity="0" stroke="rgb(2,77,140)" stroke-opacity="1" stroke-width="8" d=" M-182.7530059814453,208.81399536132812 C-181.98800659179688,188.02699279785156 -171.27499389648438,166.94900512695312 -160.7790069580078,157.3730010986328 C-142.9720001220703,141.1269989013672 -100.99199676513672,122.56199645996094 -48.52899932861328,103.90599822998047 C-19.06100082397461,95.64600372314453 14.008999824523926,95.9489974975586 50.29800033569336,103.90599822998047 C102.76100158691406,122.56199645996094 144.94200134277344,140.89700317382812 162.54800415039062,157.3730010986328 C172.9429931640625,167.1009979248047 183.75599670410156,188.02699279785156 184.52099609375,208.81399536132812"></path></g></g><g opacity="1" transform="matrix(1,0,0,1,0,0)"><g opacity="1" transform="matrix(1,0,0,1,0,0)"><path fill="rgb(181,102,6)" fill-opacity="1" d=" M71.0739974975586,123.79100036621094 C71.0739974975586,144.13999938964844 39.55500030517578,164.23800659179688 0.6740000247955322,164.23800659179688 C-38.207000732421875,164.23800659179688 -69.72599792480469,144.13999938964844 -69.72599792480469,123.79100036621094 C-69.72599792480469,103.44200134277344 -38.207000732421875,98.18599700927734 0.6740000247955322,98.18599700927734 C39.55500030517578,98.18599700927734 71.0739974975586,103.44200134277344 71.0739974975586,123.79100036621094z"></path></g><g opacity="1" transform="matrix(1,0,0,1,0,0)"><path fill="url(#__lottie_element_54)" fill-opacity="1" d=" M71.0739974975586,123.79100036621094 C71.0739974975586,144.13999938964844 39.55500030517578,164.23800659179688 0.6740000247955322,164.23800659179688 C-38.207000732421875,164.23800659179688 -69.72599792480469,144.13999938964844 -69.72599792480469,123.79100036621094 C-69.72599792480469,103.44200134277344 -38.207000732421875,98.18599700927734 0.6740000247955322,98.18599700927734 C39.55500030517578,98.18599700927734 71.0739974975586,103.44200134277344 71.0739974975586,123.79100036621094z"></path></g><g opacity="1" transform="matrix(1,0,0,1,0,0)"><path stroke-linecap="round" stroke-linejoin="round" fill-opacity="0" stroke="rgb(0,40,79)" stroke-opacity="1" stroke-width="8" d=" M71.0739974975586,123.79100036621094 C71.0739974975586,144.13999938964844 39.55500030517578,164.23800659179688 0.6740000247955322,164.23800659179688 C-38.207000732421875,164.23800659179688 -69.72599792480469,144.13999938964844 -69.72599792480469,123.79100036621094 C-69.72599792480469,103.44200134277344 -38.207000732421875,98.18599700927734 0.6740000247955322,98.18599700927734 C39.55500030517578,98.18599700927734 71.0739974975586,103.44200134277344 71.0739974975586,123.79100036621094z"></path></g><g opacity="1" transform="matrix(1,0,0,1,0,0)"><path fill="rgb(181,102,6)" fill-opacity="1" d=" M-53.81700134277344,112.58499908447266 C-53.81700134277344,112.58499908447266 -44.25400161743164,82.10600280761719 -44.25400161743164,82.10600280761719 C-44.25400161743164,82.10600280761719 45.60200119018555,82.10600280761719 45.60200119018555,82.10600280761719 C45.60200119018555,82.10600280761719 55.16400146484375,112.58499908447266 55.16400146484375,112.58499908447266"></path><path stroke-linecap="round" stroke-linejoin="round" fill-opacity="0" stroke="rgb(153,71,4)" stroke-opacity="1" stroke-width="8" d=" M-53.81700134277344,112.58499908447266 C-53.81700134277344,112.58499908447266 -44.25400161743164,82.10600280761719 -44.25400161743164,82.10600280761719 C-44.25400161743164,82.10600280761719 45.60200119018555,82.10600280761719 45.60200119018555,82.10600280761719 C45.60200119018555,82.10600280761719 55.16400146484375,112.58499908447266 55.16400146484375,112.58499908447266"></path></g></g></g><g style="display: block;" transform="matrix(1,0,0,1,256,256)" opacity="1"><g opacity="1" transform="matrix(1,0,0,1,0,0)"><g opacity="1" transform="matrix(1,0,0,1,0,0)"><path fill="url(#__lottie_element_46)" fill-opacity="1" d=" M162.5489959716797,157.3730010986328 C156.65699768066406,149.73800659179688 55.64400100708008,97.83999633789062 -2.5950000286102295,97.82499694824219 C-60.83399963378906,97.80999755859375 -157.79100036621094,150.57400512695312 -163.03799438476562,157.3730010986328 C-177.04299926757812,175.53199768066406 -182.63299560546875,194.37100219726562 -184.7480010986328,210.70199584960938 C-184.7480010986328,210.70199584960938 -178.88099670410156,224.1750030517578 -142.40699768066406,224.1750030517578 C-142.40699768066406,224.1750030517578 141.2480010986328,224.1750030517578 141.2480010986328,224.1750030517578 C174.56900024414062,224.1750030517578 184.7480010986328,212.91700744628906 184.7480010986328,212.91700744628906 C182.78599548339844,197.0489959716797 176.92999267578125,176.031005859375 162.5489959716797,157.3730010986328z"></path></g><g opacity="1" transform="matrix(1,0,0,1,0,0)"><path fill="url(#__lottie_element_47)" fill-opacity="0.45" d=" M172.01800537109375,218.74200439453125 C171.33599853515625,199.9969940185547 162.552001953125,178.23800659179688 151.8990020751953,168.3719940185547 C134.82000732421875,152.55599975585938 97.08000183105469,138.6060028076172 48.084999084472656,120.95700073242188 C12.923999786376953,113.17400360107422 -18.80699920654297,113.16200256347656 -46.22600173950195,120.92400360107422 C-91.18900299072266,137.12100219726562 -132.58099365234375,153.2030029296875 -150.21200561523438,169.49600219726562 C-159.6320037841797,178.2010040283203 -168.98300170898438,200.52099609375 -169.67599487304688,219.58900451660156 C-172.7779998779297,218.3209991455078 -180.1929931640625,215.9600067138672 -182.0590057373047,214.0260009765625 C-181.26100158691406,192.0709991455078 -169.68099975585938,170.16000366210938 -158.875,160.1739959716797 C-141.94500732421875,144.5290069580078 -105.5250015258789,129.54299926757812 -48.340999603271484,108.94599914550781 C-48.268001556396484,108.91999816894531 -48.194000244140625,108.89600372314453 -48.119998931884766,108.875 C-19.56800079345703,100.76799774169922 13.343000411987305,100.75199890136719 49.70100021362305,108.8270034790039 C49.8380012512207,108.85800170898438 49.97600173950195,108.89800262451172 50.11000061035156,108.94599914550781 C99.95899963378906,126.9010009765625 142.68600463867188,143.1510009765625 160.68099975585938,160.20799255371094 C170.68600463867188,169.6929931640625 182.8209991455078,190.8350067138672 183.66000366210938,213.8990020751953 C180.8070068359375,216.27999877929688 173.69000244140625,218.16200256347656 172.01800537109375,218.74200439453125z"></path></g><g opacity="1" transform="matrix(1,0,0,1,0,0)"><path stroke-linecap="round" stroke-linejoin="round" fill-opacity="0" stroke="rgb(15,49,139)" stroke-opacity="1" stroke-width="8" d=" M-182.7530059814453,208.81399536132812 C-181.98800659179688,188.02699279785156 -171.27499389648438,166.94900512695312 -160.7790069580078,157.3730010986328 C-142.9720001220703,141.1269989013672 -100.99199676513672,122.56199645996094 -48.52899932861328,103.90599822998047 C-19.06100082397461,95.64600372314453 14.008999824523926,95.9489974975586 50.29800033569336,103.90599822998047 C102.76100158691406,122.56199645996094 144.94200134277344,140.89700317382812 162.54800415039062,157.3730010986328 C172.9429931640625,167.1009979248047 183.75599670410156,188.02699279785156 184.52099609375,208.81399536132812"></path></g></g><g opacity="1" transform="matrix(1,0,0,1,0,0)"><g opacity="1" transform="matrix(1,0,0,1,0,0)"><path fill="rgb(181,102,6)" fill-opacity="1" d=" M71.0739974975586,123.79100036621094 C71.0739974975586,144.13999938964844 39.55500030517578,164.23800659179688 0.6740000247955322,164.23800659179688 C-38.207000732421875,164.23800659179688 -69.72599792480469,144.13999938964844 -69.72599792480469,123.79100036621094 C-69.72599792480469,103.44200134277344 -38.207000732421875,98.18599700927734 0.6740000247955322,98.18599700927734 C39.55500030517578,98.18599700927734 71.0739974975586,103.44200134277344 71.0739974975586,123.79100036621094z"></path></g><g opacity="1" transform="matrix(1,0,0,1,0,0)"><path fill="url(#__lottie_element_48)" fill-opacity="1" d=" M71.0739974975586,123.79100036621094 C71.0739974975586,144.13999938964844 39.55500030517578,164.23800659179688 0.6740000247955322,164.23800659179688 C-38.207000732421875,164.23800659179688 -69.72599792480469,144.13999938964844 -69.72599792480469,123.79100036621094 C-69.72599792480469,103.44200134277344 -38.207000732421875,98.18599700927734 0.6740000247955322,98.18599700927734 C39.55500030517578,98.18599700927734 71.0739974975586,103.44200134277344 71.0739974975586,123.79100036621094z"></path></g><g opacity="1" transform="matrix(1,0,0,1,0,0)"><path stroke-linecap="round" stroke-linejoin="round" fill-opacity="0" stroke="rgb(0,40,79)" stroke-opacity="1" stroke-width="8" d=" M71.0739974975586,123.79100036621094 C71.0739974975586,144.13999938964844 39.55500030517578,164.23800659179688 0.6740000247955322,164.23800659179688 C-38.207000732421875,164.23800659179688 -69.72599792480469,144.13999938964844 -69.72599792480469,123.79100036621094 C-69.72599792480469,103.44200134277344 -38.207000732421875,98.18599700927734 0.6740000247955322,98.18599700927734 C39.55500030517578,98.18599700927734 71.0739974975586,103.44200134277344 71.0739974975586,123.79100036621094z"></path></g><g opacity="1" transform="matrix(1,0,0,1,0,0)"><path fill="rgb(181,102,6)" fill-opacity="1" d=" M-53.81700134277344,112.58499908447266 C-53.81700134277344,112.58499908447266 -44.25400161743164,82.10600280761719 -44.25400161743164,82.10600280761719 C-44.25400161743164,82.10600280761719 45.60200119018555,82.10600280761719 45.60200119018555,82.10600280761719 C45.60200119018555,82.10600280761719 55.16400146484375,112.58499908447266 55.16400146484375,112.58499908447266"></path><path stroke-linecap="round" stroke-linejoin="round" fill-opacity="0" stroke="rgb(153,71,4)" stroke-opacity="1" stroke-width="8" d=" M-53.81700134277344,112.58499908447266 C-53.81700134277344,112.58499908447266 -44.25400161743164,82.10600280761719 -44.25400161743164,82.10600280761719 C-44.25400161743164,82.10600280761719 45.60200119018555,82.10600280761719 45.60200119018555,82.10600280761719 C45.60200119018555,82.10600280761719 55.16400146484375,112.58499908447266 55.16400146484375,112.58499908447266"></path></g></g></g><g style="display: block;" transform="matrix(1.0950000286102295,0,0,1.0950000286102295,311.9223327636719,289.9158020019531)" opacity="1"><g opacity="1" transform="matrix(1,0,0,1,0,0)"><path fill="rgb(255,168,0)" fill-opacity="1" d=" M-152.7570037841797,-66.2509994506836 C-152.7570037841797,-66.2509994506836 -162.375,-72.78900146484375 -167.43099975585938,-64.02799987792969 C-172.05599975585938,-56.013999938964844 -163.2169952392578,-14.586000442504883 -155.052001953125,-7.867000102996826 C-150.0290069580078,-3.7339999675750732 -144.5919952392578,-8.833000183105469 -144.5919952392578,-8.833000183105469 C-141.2790069580078,-11.098999977111816 -146.65499877929688,-57.939998626708984 -152.7570037841797,-66.2509994506836z"></path><path stroke-linecap="round" stroke-linejoin="round" fill-opacity="0" stroke="rgb(219,110,0)" stroke-opacity="1" stroke-width="8" d=" M-152.7570037841797,-66.2509994506836 C-152.7570037841797,-66.2509994506836 -162.375,-72.78900146484375 -167.43099975585938,-64.02799987792969 C-172.05599975585938,-56.013999938964844 -163.2169952392578,-14.586000442504883 -155.052001953125,-7.867000102996826 C-150.0290069580078,-3.7339999675750732 -144.5919952392578,-8.833000183105469 -144.5919952392578,-8.833000183105469 C-141.2790069580078,-11.098999977111816 -146.65499877929688,-57.939998626708984 -152.7570037841797,-66.2509994506836z"></path></g><g opacity="1" transform="matrix(1,0,0,1,0,0)"><path fill="rgb(255,168,0)" fill-opacity="1" d=" M49.54100036621094,-66.2509994506836 C49.54100036621094,-66.2509994506836 59.159000396728516,-72.78900146484375 64.21499633789062,-64.02799987792969 C68.83999633789062,-56.013999938964844 60.000999450683594,-14.586000442504883 51.83599853515625,-7.867000102996826 C46.8129997253418,-3.7339999675750732 41.375,-8.833000183105469 41.375,-8.833000183105469 C38.0620002746582,-11.098999977111816 43.43899917602539,-57.939998626708984 49.54100036621094,-66.2509994506836z"></path><path stroke-linecap="round" stroke-linejoin="round" fill-opacity="0" stroke="rgb(219,110,0)" stroke-opacity="1" stroke-width="8" d=" M49.54100036621094,-66.2509994506836 C49.54100036621094,-66.2509994506836 59.159000396728516,-72.78900146484375 64.21499633789062,-64.02799987792969 C68.83999633789062,-56.013999938964844 60.000999450683594,-14.586000442504883 51.83599853515625,-7.867000102996826 C46.8129997253418,-3.7339999675750732 41.375,-8.833000183105469 41.375,-8.833000183105469 C38.0620002746582,-11.098999977111816 43.43899917602539,-57.939998626708984 49.54100036621094,-66.2509994506836z"></path></g></g><g style="display: block;" transform="matrix(1.0950000286102295,0,0,1.0950000286102295,311.9223327636719,289.16571044921875)" opacity="1"><g opacity="1" transform="matrix(1,0,0,1,0,0)"><path fill="rgb(255,169,0)" fill-opacity="1" d=" M48.354000091552734,-38.86000061035156 C48.354000091552734,24.722999572753906 3.2079999446868896,78.33999633789062 -51.22700119018555,78.33999633789062 C-105.66200256347656,78.33999633789062 -150.8070068359375,24.722999572753906 -150.8070068359375,-38.86000061035156 C-160.822998046875,-144.56199645996094 -105.0479965209961,-187.09300231933594 -51.22700119018555,-187.09300231933594 C1.1829999685287476,-187.09300231933594 48.354000091552734,-170.50799560546875 48.354000091552734,-38.86000061035156z"></path></g><g opacity="1" transform="matrix(1,0,0,1,0,0)"><g opacity="1" transform="matrix(1,0,0,1,0,0)"><path fill="url(#__lottie_element_13)" fill-opacity="1" d=" M38.95899963378906,-73.66300201416016 C21.881000518798828,-91.00800323486328 21.735000610351562,-105.85600280761719 20.90999984741211,-110.53299713134766 C20.743000030517578,-111.48100280761719 19.82699966430664,-112.10900115966797 18.882999420166016,-111.9209976196289 C-55.54499816894531,-97.08999633789062 -105.43900299072266,-116.16699981689453 -114.38700103759766,-122.6969985961914 C-115.42500305175781,-123.45500183105469 -117.14299774169922,-122.8550033569336 -117.09500122070312,-121.57099914550781 C-116.28299713134766,-100.02999877929688 -140.48699951171875,-78.13099670410156 -141.5989990234375,-74.96299743652344 C-141.61599731445312,-73.70700073242188 -141.6540069580078,-49.457000732421875 -141.6540069580078,-47.92599868774414 C-141.6540069580078,9.414999961853027 -100.65899658203125,59.8489990234375 -51.22700119018555,59.8489990234375 C-1.7949999570846558,59.8489990234375 39.20100021362305,9.414999961853027 39.20100021362305,-47.92599868774414 C39.20100021362305,-52.974998474121094 38.983001708984375,-72.8270034790039 38.95899963378906,-73.66300201416016z"></path></g></g><g opacity="1" transform="matrix(1,0,0,1,0,0)"><path fill="url(#__lottie_element_14)" fill-opacity="1" d=" M48.354000091552734,-38.86000061035156 C48.354000091552734,24.722999572753906 3.2079999446868896,78.33999633789062 -51.22700119018555,78.33999633789062 C-105.66200256347656,78.33999633789062 -150.8070068359375,24.722999572753906 -150.8070068359375,-38.86000061035156 C-160.822998046875,-144.56199645996094 -105.0479965209961,-187.09300231933594 -51.22700119018555,-187.09300231933594 C1.1829999685287476,-187.09300231933594 48.354000091552734,-170.50799560546875 48.354000091552734,-38.86000061035156z"></path></g><g opacity="1" transform="matrix(1,0,0,1,0,0)"><path stroke-linecap="round" stroke-linejoin="round" fill-opacity="0" stroke="rgb(218,110,0)" stroke-opacity="1" stroke-width="8" d=" M48.354000091552734,-38.86000061035156 C48.354000091552734,24.722999572753906 3.2079999446868896,78.33999633789062 -51.22700119018555,78.33999633789062 C-105.66200256347656,78.33999633789062 -150.8070068359375,24.722999572753906 -150.8070068359375,-38.86000061035156 C-160.822998046875,-144.56199645996094 -105.0479965209961,-187.09300231933594 -51.22700119018555,-187.09300231933594 C1.1829999685287476,-187.09300231933594 48.354000091552734,-170.50799560546875 48.354000091552734,-38.86000061035156z"></path></g></g><g style="display: block;" transform="matrix(1.0950000286102295,0,0,1.0950000286102295,311.9223327636719,290.6647644042969)" opacity="1"><g opacity="1" transform="matrix(1,0,0,1,0,0)"><path stroke-linecap="round" stroke-linejoin="round" fill-opacity="0" stroke="rgb(163,65,0)" stroke-opacity="1" stroke-width="11" d=" M-16.735000610351562,-91.0780029296875 C-16.735000610351562,-91.0780029296875 -1.437000036239624,-94.60900115966797 12.423999786376953,-87.91100311279297"></path></g><g opacity="1" transform="matrix(1,0,0,1,0,0)"><path stroke-linecap="round" stroke-linejoin="round" fill-opacity="0" stroke="rgb(163,65,0)" stroke-opacity="1" stroke-width="11" d=" M-85.33499908447266,-91.0780029296875 C-85.33499908447266,-91.0780029296875 -100.63500213623047,-94.60900115966797 -114.49500274658203,-87.91100311279297"></path></g></g><g style="display: block;" transform="matrix(1.0950000286102295,0,0,1.0950000286102295,311.9223327636719,290.41619873046875)" opacity="1"><g opacity="1" transform="matrix(1,0,0,1,0,0)"><path fill="rgb(255,255,255)" fill-opacity="1" d=" M-28.67799949645996,-41.290000915527344 C-28.67799949645996,-41.290000915527344 -30.038000106811523,-56.92900085449219 -18.944000244140625,-67.09300231933594 C-9.413000106811523,-75.82499694824219 8.531000137329102,-74.96900177001953 17.52400016784668,-63.78099822998047 C24.847000122070312,-54.67100143432617 23.10300064086914,-44.05099868774414 23.10300064086914,-44.05099868774414 C23.10300064086914,-44.05099868774414 15.793000221252441,-36.18899917602539 0.7870000004768372,-35.33300018310547 C-18.304000854492188,-34.24300003051758 -28.67799949645996,-41.290000915527344 -28.67799949645996,-41.290000915527344z"></path></g><g opacity="1" transform="matrix(1,0,0,1,0,-0.9129999876022339)"><g opacity="1" transform="matrix(1,0,0,1,0,0)"><path fill="url(#__lottie_element_31)" fill-opacity="1" d=" M12.423999786376953,-53.104000091552734 C12.423999786376953,-44.07699966430664 5.105999946594238,-36.75899887084961 -3.9210000038146973,-36.75899887084961 C-12.947999954223633,-36.75899887084961 -20.266000747680664,-44.07699966430664 -20.266000747680664,-53.104000091552734 C-20.266000747680664,-62.13100051879883 -12.947999954223633,-69.4489974975586 -3.9210000038146973,-69.4489974975586 C5.105999946594238,-69.4489974975586 12.423999786376953,-62.13100051879883 12.423999786376953,-53.104000091552734z"></path></g><g opacity="1" transform="matrix(1,0,0,1,0,0)"><g opacity="1" transform="matrix(1,0,0,1,0,0)"><path fill="url(#__lottie_element_32)" fill-opacity="1" d=" M0.2669999897480011,-37.50400161743164 C-1.0099999904632568,-37.50400161743164 -2.194000005722046,-38.32899856567383 -2.5899999141693115,-39.61399841308594 C-3.0769999027252197,-41.19200134277344 -2.191999912261963,-42.8650016784668 -0.6140000224113464,-43.35100173950195 C2.4040000438690186,-44.28200149536133 4.807000160217285,-46.62699890136719 5.813000202178955,-49.624000549316406 C6.339000225067139,-51.189998626708984 8.036999702453613,-52.03099822998047 9.598999977111816,-51.50699996948242 C11.164999961853027,-50.981998443603516 12.008000373840332,-49.2859992980957 11.482000350952148,-47.72100067138672 C9.864999771118164,-42.90399932861328 6.001999855041504,-39.1349983215332 1.1480000019073486,-37.63800048828125 C0.8550000190734863,-37.547000885009766 0.5580000281333923,-37.50400161743164 0.2669999897480011,-37.50400161743164z"></path></g></g><g opacity="1" transform="matrix(1,0,0,1,0,0)"><path fill="rgb(24,19,9)" fill-opacity="1" d=" M6.408999919891357,-53.104000091552734 C6.408999919891357,-47.39899826049805 1.784000039100647,-42.77399826049805 -3.9210000038146973,-42.77399826049805 C-9.62600040435791,-42.77399826049805 -14.25100040435791,-47.39899826049805 -14.25100040435791,-53.104000091552734 C-14.25100040435791,-58.808998107910156 -9.62600040435791,-63.433998107910156 -3.9210000038146973,-63.433998107910156 C1.784000039100647,-63.433998107910156 6.408999919891357,-58.808998107910156 6.408999919891357,-53.104000091552734z"></path></g><g opacity="1" transform="matrix(1,0,0,1,0,0)"><path fill="url(#__lottie_element_33)" fill-opacity="1" d=" M-4.908999919891357,-62.77899932861328 C-4.385000228881836,-60.01499938964844 -6.763000011444092,-57.637001037597656 -9.527000427246094,-58.1609992980957 C-11.062000274658203,-58.45199966430664 -12.317999839782715,-59.70800018310547 -12.609000205993652,-61.24300003051758 C-13.133000373840332,-64.00700378417969 -10.755000114440918,-66.38500213623047 -7.991000175476074,-65.86100006103516 C-6.455999851226807,-65.56999969482422 -5.199999809265137,-64.31400299072266 -4.908999919891357,-62.77899932861328z"></path></g></g><g opacity="1" transform="matrix(1,0,0,1,0,0)"><path fill="rgb(163,65,0)" fill-opacity="1" d=" M-28.67799949645996,-41.290000915527344 C-30.788999557495117,-57.80400085449219 -20.113000869750977,-74.72799682617188 -2.3350000381469727,-74.47799682617188 C13.649999618530273,-74.25299835205078 26.27400016784668,-60.084999084472656 23.10300064086914,-44.05099868774414 C23.448999404907227,-58.93899917602539 12.45300006866455,-71.63200378417969 -2.811000108718872,-71.4489974975586 C-19.204999923706055,-71.25299835205078 -28.06399917602539,-56.263999938964844 -28.67799949645996,-41.290000915527344z"></path><path stroke-linecap="round" stroke-linejoin="round" fill-opacity="0" stroke="rgb(163,65,0)" stroke-opacity="1" stroke-width="2" d=" M-28.67799949645996,-41.290000915527344 C-30.788999557495117,-57.80400085449219 -20.113000869750977,-74.72799682617188 -2.3350000381469727,-74.47799682617188 C13.649999618530273,-74.25299835205078 26.27400016784668,-60.084999084472656 23.10300064086914,-44.05099868774414 C23.448999404907227,-58.93899917602539 12.45300006866455,-71.63200378417969 -2.811000108718872,-71.4489974975586 C-19.204999923706055,-71.25299835205078 -28.06399917602539,-56.263999938964844 -28.67799949645996,-41.290000915527344z"></path></g><g opacity="1" transform="matrix(1,0,0,1,0,0)"><path fill="rgb(255,255,255)" fill-opacity="1" d=" M-73.39299774169922,-41.290000915527344 C-73.39299774169922,-41.290000915527344 -72.03299713134766,-56.92900085449219 -83.12699890136719,-67.09300231933594 C-92.65799713134766,-75.82499694824219 -110.60099792480469,-74.96900177001953 -119.59400177001953,-63.78099822998047 C-126.91699981689453,-54.67100143432617 -125.1729965209961,-44.05099868774414 -125.1729965209961,-44.05099868774414 C-125.1729965209961,-44.05099868774414 -117.86299896240234,-36.18899917602539 -102.85700225830078,-35.33300018310547 C-83.76599884033203,-34.24300003051758 -73.39299774169922,-41.290000915527344 -73.39299774169922,-41.290000915527344z"></path></g><g opacity="1" transform="matrix(1,0,0,1,0,-0.9129999876022339)"><g opacity="1" transform="matrix(1,0,0,1,0,0)"><path fill="url(#__lottie_element_34)" fill-opacity="1" d=" M-81.80500030517578,-53.104000091552734 C-81.80500030517578,-44.07699966430664 -89.12300109863281,-36.75899887084961 -98.1500015258789,-36.75899887084961 C-107.177001953125,-36.75899887084961 -114.49500274658203,-44.07699966430664 -114.49500274658203,-53.104000091552734 C-114.49500274658203,-62.13100051879883 -107.177001953125,-69.4489974975586 -98.1500015258789,-69.4489974975586 C-89.12300109863281,-69.4489974975586 -81.80500030517578,-62.13100051879883 -81.80500030517578,-53.104000091552734z"></path></g><g opacity="1" transform="matrix(1,0,0,1,0,0)"><g opacity="1" transform="matrix(1,0,0,1,0,0)"><path fill="url(#__lottie_element_35)" fill-opacity="1" d=" M-94.0270004272461,-37.50400161743164 C-95.30400085449219,-37.50400161743164 -96.48699951171875,-38.32899856567383 -96.88300323486328,-39.61399841308594 C-97.37000274658203,-41.19200134277344 -96.48500061035156,-42.8650016784668 -94.90699768066406,-43.35100173950195 C-91.88899993896484,-44.28200149536133 -89.48699951171875,-46.62699890136719 -88.48100280761719,-49.624000549316406 C-87.95500183105469,-51.189998626708984 -86.25700378417969,-52.03099822998047 -84.69499969482422,-51.50699996948242 C-83.12899780273438,-50.981998443603516 -82.28600311279297,-49.2859992980957 -82.81199645996094,-47.72100067138672 C-84.42900085449219,-42.90399932861328 -88.29100036621094,-39.1349983215332 -93.1449966430664,-37.63800048828125 C-93.43800354003906,-37.547000885009766 -93.73600006103516,-37.50400161743164 -94.0270004272461,-37.50400161743164z"></path></g></g><g opacity="1" transform="matrix(1,0,0,1,0,0)"><path fill="rgb(24,19,9)" fill-opacity="1" d=" M-87.81999969482422,-53.104000091552734 C-87.81999969482422,-47.39899826049805 -92.44499969482422,-42.77399826049805 -98.1500015258789,-42.77399826049805 C-103.8550033569336,-42.77399826049805 -108.4800033569336,-47.39899826049805 -108.4800033569336,-53.104000091552734 C-108.4800033569336,-58.808998107910156 -103.8550033569336,-63.433998107910156 -98.1500015258789,-63.433998107910156 C-92.44499969482422,-63.433998107910156 -87.81999969482422,-58.808998107910156 -87.81999969482422,-53.104000091552734z"></path></g><g opacity="1" transform="matrix(1,0,0,1,0,0)"><path fill="url(#__lottie_element_36)" fill-opacity="1" d=" M-99.13800048828125,-62.77899932861328 C-98.61399841308594,-60.01499938964844 -100.99199676513672,-57.637001037597656 -103.75599670410156,-58.1609992980957 C-105.29100036621094,-58.45199966430664 -106.5469970703125,-59.70800018310547 -106.83799743652344,-61.24300003051758 C-107.36199951171875,-64.00700378417969 -104.98400115966797,-66.38500213623047 -102.22000122070312,-65.86100006103516 C-100.68499755859375,-65.56999969482422 -99.42900085449219,-64.31400299072266 -99.13800048828125,-62.77899932861328z"></path></g></g><g opacity="1" transform="matrix(1,0,0,1,0,0)"><path fill="rgb(163,65,0)" fill-opacity="1" d=" M-73.39299774169922,-41.290000915527344 C-71.28199768066406,-57.80400085449219 -81.95700073242188,-74.72799682617188 -99.73500061035156,-74.47799682617188 C-115.72000122070312,-74.25299835205078 -128.34300231933594,-60.084999084472656 -125.1729965209961,-44.05099868774414 C-125.51899719238281,-58.93899917602539 -114.52400207519531,-71.63200378417969 -99.26000213623047,-71.4489974975586 C-82.86599731445312,-71.25299835205078 -74.00700378417969,-56.263999938964844 -73.39299774169922,-41.290000915527344z"></path><path stroke-linecap="round" stroke-linejoin="round" fill-opacity="0" stroke="rgb(163,65,0)" stroke-opacity="1" stroke-width="2" d=" M-73.39299774169922,-41.290000915527344 C-71.28199768066406,-57.80400085449219 -81.95700073242188,-74.72799682617188 -99.73500061035156,-74.47799682617188 C-115.72000122070312,-74.25299835205078 -128.34300231933594,-60.084999084472656 -125.1729965209961,-44.05099868774414 C-125.51899719238281,-58.93899917602539 -114.52400207519531,-71.63200378417969 -99.26000213623047,-71.4489974975586 C-82.86599731445312,-71.25299835205078 -74.00700378417969,-56.263999938964844 -73.39299774169922,-41.290000915527344z"></path></g></g><g style="display: block;" transform="matrix(1.0950000286102295,0,0,1.0950000286102295,311.9223327636719,288.4156188964844)" opacity="1"><g opacity="1" transform="matrix(1,0,0,1,0,0)"><path fill="rgb(255,206,1)" fill-opacity="1" d=" M-126.48300170898438,-140.21299743652344 C-88.75599670410156,-117.3280029296875 -25.895999908447266,-113.63099670410156 30.96500015258789,-123.64800262451172 C30.96500015258789,-123.64800262451172 30.642000198364258,-105.77899932861328 43.53499984741211,-84.37999725341797 C43.52199935913086,-78.43900299072266 44.444000244140625,-40.78499984741211 44.444000244140625,-40.78499984741211 C44.444000244140625,-37.3380012512207 45.27199935913086,-35.632999420166016 50.762001037597656,-41.61199951171875 C58.361000061035156,-49.88800048828125 65.51300048828125,-101.66400146484375 61.05799865722656,-133.48399353027344 C56.262001037597656,-167.73500061035156 33.902000427246094,-209.8939971923828 -48.930999755859375,-209.8979949951172 C-118.62899780273438,-209.9010009765625 -140.2310028076172,-176.67599487304688 -142.12899780273438,-171.87600708007812 C-166.06300354003906,-161.3699951171875 -173.906005859375,-105.71900177001953 -156.11199951171875,-45.930999755859375 C-152.20599365234375,-33.608001708984375 -147.43800354003906,-32.191001892089844 -147.3300018310547,-43.917999267578125 C-147.2220001220703,-55.64500045776367 -146.79100036621094,-84.74400329589844 -146.79100036621094,-84.74400329589844 C-146.79100036621094,-84.74400329589844 -128.47300720214844,-108.2959976196289 -126.48300170898438,-140.21299743652344z"></path></g><g opacity="1" transform="matrix(1,0,0,1,0,0)"><path fill="url(#__lottie_element_24)" fill-opacity="1" d=" M-126.23699951171875,-140.97900390625 C-126.12899780273438,-141.9010009765625 -125.07599639892578,-142.39500427246094 -124.2969970703125,-141.8699951171875 C-117.76100158691406,-137.4669952392578 -92.43299865722656,-122.54000091552734 -47.12699890136719,-120.70800018310547 C-2.864000082015991,-118.91899871826172 22.493999481201172,-124.33200073242188 28.530000686645508,-125.82499694824219 C29.266000747680664,-126.00700378417969 29.988000869750977,-125.51000213623047 30.06399917602539,-124.76699829101562 C30.554000854492188,-120.00499725341797 32.880001068115234,-104.02899932861328 42.94200134277344,-87.36699676513672 C43.849998474121094,-85.86299896240234 44.31100082397461,-84.13600158691406 44.31100082397461,-82.38700103759766 C44.31100082397461,-82.38700103759766 44.31100082397461,-41.78799819946289 44.31100082397461,-41.78799819946289 C44.31100082397461,-40.4010009765625 45.70399856567383,-39.369998931884766 47.02799987792969,-39.84600067138672 C49.66699981689453,-40.79499816894531 53.55500030517578,-44.40399932861328 55.5260009765625,-56.9010009765625 C58.68000030517578,-76.89600372314453 65.68900299072266,-109.64700317382812 59.38100051879883,-138.6060028076172 C53.073001861572266,-167.56500244140625 31.145000457763672,-199.35400390625 -16.516000747680664,-207.08200073242188 C-68.41200256347656,-215.4969940185547 -122.14199829101562,-205.26699829101562 -142.12899780273438,-171.87600708007812 C-146.052001953125,-169.63600158691406 -187.4010009765625,-139.18299865722656 -151.64199829101562,-40.16400146484375 C-151.02099609375,-38.44300079345703 -147.5679931640625,-37.720001220703125 -147.5679931640625,-39.54600143432617 C-147.5679931640625,-39.54600143432617 -148.08599853515625,-82.00199890136719 -148.08599853515625,-82.00199890136719 C-148.08599853515625,-84.177001953125 -147.35000610351562,-86.28399658203125 -146.01499938964844,-88.01799774169922 C-141.24200439453125,-94.21800231933594 -129.6219940185547,-111.92400360107422 -126.23699951171875,-140.97900390625z"></path></g><g opacity="1" transform="matrix(1,0,0,1,0,0)"><path fill="url(#__lottie_element_25)" fill-opacity="0.9" d=" M-49.987998962402344,-131.34100341796875 C-93.85199737548828,-131.47999572753906 -123.85299682617188,-151.4029998779297 -128.572998046875,-162.625 C-135.48800659179688,-179.0659942626953 -102.6780014038086,-200.63999938964844 -48.93600082397461,-201.33799743652344 C-18.332000732421875,-201.73699951171875 9.08899974822998,-196.98500061035156 28.334999084472656,-178.94000244140625 C52.76300048828125,-157.11500549316406 23.305999755859375,-131.10899353027344 -49.987998962402344,-131.34100341796875z"></path></g><g opacity="1" transform="matrix(1,0,0,1,0,0)"><path fill="url(#__lottie_element_26)" fill-opacity="0.9" d=" M-134.82000732421875,-137.08299255371094 C-132.46800231933594,-163.60400390625 -141.70599365234375,-163.4499969482422 -148.4290008544922,-156.6529998779297 C-161.76199340820312,-143.17300415039062 -162.61099243164062,-129.55799865722656 -162.3249969482422,-115.94400024414062 C-162.21400451660156,-110.64800262451172 -156.8939971923828,-122.91400146484375 -150.18600463867188,-134.71600341796875 C-143.5989990234375,-146.3040008544922 -135.2239990234375,-132.5240020751953 -134.82000732421875,-137.08299255371094z"></path></g><g opacity="1" transform="matrix(1,0,0,1,0,0)"><path fill="url(#__lottie_element_27)" fill-opacity="1" d=" M54.61899948120117,-52.25899887084961 C52.51300048828125,-43.47100067138672 46.61199951171875,-36.54800033569336 46.61199951171875,-37.93600082397461 C46.61199951171875,-37.93600082397461 43.53499984741211,-84.37999725341797 43.53499984741211,-84.37999725341797 C31.457000732421875,-106.68900299072266 30.558000564575195,-117.31800079345703 30.066999435424805,-122.08399963378906 C29.985000610351562,-122.8280029296875 -0.8949999809265137,-115.29299926757812 -45.15399932861328,-117.08300018310547 C-90.46600341796875,-118.9229965209961 -120.48300170898438,-133.88900756835938 -127.0250015258789,-138.29299926757812 C-127.802001953125,-138.8159942626953 -123.49700164794922,-114.3270034790039 -146.0189971923828,-85.33200073242188 C-147.35699462890625,-83.60900115966797 -148.99200439453125,-37.93600082397461 -148.99200439453125,-37.93600082397461 C-154.5489959716797,-39.53900146484375 -156.5780029296875,-47.875999450683594 -158.6320037841797,-57.426998138427734 C-151.88499450683594,-35.479000091552734 -155.41299438476562,-83.23999786376953 -155.41299438476562,-83.23999786376953 C-156.16000366210938,-82.96800231933594 -157.843994140625,-83.10399627685547 -157.843994140625,-83.10399627685547 C-139.15899658203125,-106.09200286865234 -134.18499755859375,-131.5760040283203 -134.5959930419922,-143.48899841308594 C-134.91299438476562,-152.67599487304688 -136.2239990234375,-157.98899841308594 -139.6439971923828,-159.66600036621094 C-151.02699279785156,-165.24899291992188 -164.31500244140625,-126.16400146484375 -164.31500244140625,-126.16400146484375 C-165.1649932861328,-153.125 -146.91799926757812,-167.00399780273438 -141.3679962158203,-170.2209930419922 C-119.07499694824219,-201.63299560546875 -68.41100311279297,-215.4980010986328 -16.516000747680664,-207.08200073242188 C31.14699935913086,-199.36000061035156 53.433998107910156,-178.46499633789062 61.05799865722656,-128.38600158691406 C57.762001037597656,-177.41400146484375 15.765999794006348,-201.5 -47.41400146484375,-201.39999389648438 C-97.1240005493164,-201.3209991455078 -117.87100219726562,-186.1529998779297 -126.01399993896484,-176.98300170898438 C-128.4499969482422,-174.24000549316406 -131.12100219726562,-167.4340057373047 -128.572998046875,-162.625 C-120.6719970703125,-147.71299743652344 -92.90699768066406,-132.02499389648438 -43.229000091552734,-129.17999267578125 C10,-126.13099670410156 49.36000061035156,-137.83700561523438 50.1879997253418,-138.08799743652344 C44.40299987792969,-132.9199981689453 39.32600021362305,-125.68099975585938 39.32600021362305,-125.68099975585938 C41.04100036621094,-101.04199981689453 55.25199890136719,-82.4489974975586 55.25199890136719,-82.4489974975586 C53.3650016784668,-81.98899841308594 51.78900146484375,-82.38500213623047 51.78900146484375,-82.38500213623047 C51.013999938964844,-44.27399826049805 54.61899948120117,-52.25899887084961 54.61899948120117,-52.25899887084961z"></path></g><g opacity="1" transform="matrix(1,0,0,1,0,0)"><path stroke-linecap="round" stroke-linejoin="round" fill-opacity="0" stroke="rgb(197,92,0)" stroke-opacity="1" stroke-width="8" d=" M-126.48300170898438,-140.21299743652344 C-88.75599670410156,-117.3280029296875 -25.895999908447266,-113.63099670410156 30.96500015258789,-123.64800262451172 C30.96500015258789,-123.64800262451172 30.642000198364258,-105.77899932861328 43.53499984741211,-84.37999725341797 C43.52199935913086,-78.43900299072266 44.444000244140625,-40.78499984741211 44.444000244140625,-40.78499984741211 C44.444000244140625,-37.3380012512207 45.27199935913086,-35.632999420166016 50.762001037597656,-41.61199951171875 C58.361000061035156,-49.88800048828125 65.51300048828125,-101.66400146484375 61.05799865722656,-133.48399353027344 C56.262001037597656,-167.73500061035156 33.902000427246094,-209.8939971923828 -48.930999755859375,-209.8979949951172 C-118.62899780273438,-209.9010009765625 -140.2310028076172,-176.67599487304688 -142.12899780273438,-171.87600708007812 C-166.06300354003906,-161.3699951171875 -173.906005859375,-105.71900177001953 -156.11199951171875,-45.930999755859375 C-152.20599365234375,-33.608001708984375 -147.43800354003906,-32.191001892089844 -147.3300018310547,-43.917999267578125 C-147.2220001220703,-55.64500045776367 -146.79100036621094,-84.74400329589844 -146.79100036621094,-84.74400329589844 C-146.79100036621094,-84.74400329589844 -128.47300720214844,-108.2959976196289 -126.48300170898438,-140.21299743652344z"></path></g><g opacity="1" transform="matrix(1,0,0,1,0,0)"><path stroke-linecap="round" stroke-linejoin="round" fill-opacity="0" stroke="rgb(163,65,0)" stroke-opacity="1" stroke-width="8" d=" M-146.79100036621094,-84.74400329589844 C-146.79100036621094,-84.74400329589844 -128.47300720214844,-108.2959976196289 -126.48300170898438,-140.21299743652344 C-88.75599670410156,-117.3280029296875 -25.895999908447266,-113.63099670410156 30.96500015258789,-123.64800262451172 C30.96500015258789,-123.64800262451172 30.642000198364258,-105.77899932861328 43.53499984741211,-84.37999725341797"></path></g></g><g style="display: block;" transform="matrix(1.0950000286102295,0,0,1.0950000286102295,312.0482482910156,290.1654357910156)" opacity="1"><g opacity="1" transform="matrix(1,0,0,1,0,0)"><path fill="url(#__lottie_element_17)" fill-opacity="1" d=" M-31.569000244140625,-7.127999782562256 C-31.569000244140625,1.5779999494552612 -39.279998779296875,9.663999557495117 -51.22700119018555,9.663999557495117 C-63.17399978637695,9.663999557495117 -70.88400268554688,1.5779999494552612 -70.88400268554688,-7.127999782562256 C-70.88400268554688,-15.833999633789062 -31.569000244140625,-15.833999633789062 -31.569000244140625,-7.127999782562256z"></path></g><g opacity="1" transform="matrix(1,0,0,1,0,0)"><path fill="rgb(255,168,0)" fill-opacity="0.8" d=" M-31.156999588012695,-10.09000015258789 C-31.156999588012695,-2.013000011444092 -40.143001556396484,4.534999847412109 -51.22700119018555,4.534999847412109 C-62.31100082397461,4.534999847412109 -71.2959976196289,-2.013000011444092 -71.2959976196289,-10.09000015258789 C-71.2959976196289,-18.16699981689453 -62.31100082397461,-24.371000289916992 -51.22700119018555,-24.371000289916992 C-40.143001556396484,-24.371000289916992 -31.156999588012695,-18.16699981689453 -31.156999588012695,-10.09000015258789z"></path></g><g opacity="1" transform="matrix(1,0,0,1,0,0)"><path fill="url(#__lottie_element_18)" fill-opacity="1" d=" M-31.156999588012695,-10.09000015258789 C-31.156999588012695,-2.013000011444092 -40.143001556396484,4.534999847412109 -51.22700119018555,4.534999847412109 C-62.31100082397461,4.534999847412109 -71.2959976196289,-2.013000011444092 -71.2959976196289,-10.09000015258789 C-71.2959976196289,-18.16699981689453 -62.31100082397461,-24.371000289916992 -51.22700119018555,-24.371000289916992 C-40.143001556396484,-24.371000289916992 -31.156999588012695,-18.16699981689453 -31.156999588012695,-10.09000015258789z"></path></g><g opacity="1" transform="matrix(1,0,0,1,0,0)"><path fill="rgb(255,216,0)" fill-opacity="1" d=" M-32.96099853515625,-13.954999923706055 C-32.96099853515625,-7.941999912261963 -41.638999938964844,-2.1640000343322754 -51.22700119018555,-2.1640000343322754 C-60.816001892089844,-2.1640000343322754 -69.49199676513672,-7.941999912261963 -69.49199676513672,-13.954999923706055 C-69.49199676513672,-19.968000411987305 -60.816001892089844,-24.670000076293945 -51.22700119018555,-24.670000076293945 C-41.638999938964844,-24.670000076293945 -32.96099853515625,-19.968000411987305 -32.96099853515625,-13.954999923706055z"></path></g><g opacity="1" transform="matrix(1,0,0,1,0,0)"><path fill="url(#__lottie_element_19)" fill-opacity="1" d=" M-32.96099853515625,-13.954999923706055 C-32.96099853515625,-7.941999912261963 -41.638999938964844,-2.1640000343322754 -51.22700119018555,-2.1640000343322754 C-60.816001892089844,-2.1640000343322754 -69.49199676513672,-7.941999912261963 -69.49199676513672,-13.954999923706055 C-69.49199676513672,-19.968000411987305 -60.816001892089844,-24.670000076293945 -51.22700119018555,-24.670000076293945 C-41.638999938964844,-24.670000076293945 -32.96099853515625,-19.968000411987305 -32.96099853515625,-13.954999923706055z"></path></g><g opacity="1" transform="matrix(1,0,0,1,0,0)"><path fill="url(#__lottie_element_20)" fill-opacity="0.7000000000000001" d=" M-43.077999114990234,-17.836999893188477 C-43.077999114990234,-13.755999565124512 -46.72700119018555,-9.918000221252441 -51.22700119018555,-9.918000221252441 C-55.72700119018555,-9.918000221252441 -59.375,-13.755999565124512 -59.375,-17.836999893188477 C-59.375,-21.917999267578125 -55.72700119018555,-23.964000701904297 -51.22700119018555,-23.964000701904297 C-46.72700119018555,-23.964000701904297 -43.077999114990234,-21.917999267578125 -43.077999114990234,-17.836999893188477z"></path></g></g><g style="display: block;" transform="matrix(1,0,0,1,256,256)" opacity="1"><g opacity="1" transform="matrix(1,0,0,1,0,0)"><path fill="url(#__lottie_element_6)" fill-opacity="1" d=" M148.16000366210938,30.215999603271484 C148.16000366210938,30.215999603271484 -148.281005859375,30.215999603271484 -148.281005859375,30.215999603271484 C-154.10299682617188,30.215999603271484 -158.71400451660156,35.137001037597656 -158.33299255371094,40.946998596191406 C-158.33299255371094,40.946998596191406 -147.05299377441406,213.14100646972656 -147.05299377441406,213.14100646972656 C-146.81399536132812,216.79600524902344 -143.7790069580078,219.63800048828125 -140.11599731445312,219.63800048828125 C-140.11599731445312,219.63800048828125 139.9949951171875,219.63800048828125 139.9949951171875,219.63800048828125 C143.6580047607422,219.63800048828125 146.69200134277344,216.79600524902344 146.93099975585938,213.14100646972656 C146.93099975585938,213.14100646972656 158.21099853515625,40.946998596191406 158.21099853515625,40.946998596191406 C158.5919952392578,35.137001037597656 153.98199462890625,30.215999603271484 148.16000366210938,30.215999603271484z"></path></g><g opacity="1" transform="matrix(1,0,0,1,0,0)"><path stroke-linecap="round" stroke-linejoin="round" fill-opacity="0" stroke="rgb(83,81,86)" stroke-opacity="1" stroke-width="8" d=" M-147.05299377441406,214.08900451660156 C-146.81399536132812,217.74400329589844 -143.7790069580078,220.58599853515625 -140.11599731445312,220.58599853515625 C-140.11599731445312,220.58599853515625 139.9949951171875,220.58599853515625 139.9949951171875,220.58599853515625 C143.6580047607422,220.58599853515625 146.69200134277344,217.74400329589844 146.93099975585938,214.08900451660156"></path></g><g opacity="1" transform="matrix(1,0,0,1,0,0)"><path fill="url(#__lottie_element_7)" fill-opacity="1" d=" M-0.5299999713897705,108.7750015258789 C-19.68899917602539,108.7750015258789 -35.22700119018555,120.93499755859375 -35.22700119018555,135.9320068359375 C-35.22700119018555,150.9290008544922 -19.68899917602539,163.0800018310547 -0.5299999713897705,163.0800018310547 C18.628999710083008,163.0800018310547 34.16699981689453,150.9290008544922 34.16699981689453,135.9320068359375 C34.16699981689453,120.93499755859375 18.628999710083008,108.7750015258789 -0.5299999713897705,108.7750015258789z M14.411999702453613,148.6510009765625 C13.97700023651123,150.08299255371094 14.20199966430664,151.7969970703125 12.854999542236328,152.947998046875 C10.637999534606934,154.4510040283203 7.565000057220459,152.72799682617188 5.538000106811523,151.74400329589844 C1.4620000123977661,149.58200073242188 -2.7890000343322754,147.57899475097656 -6.61899995803833,145.13600158691406 C-9.369000434875488,143.2030029296875 -5.172999858856201,141.45399475097656 -3.5880000591278076,140.1179962158203 C-1.378000020980835,138.48399353027344 6.710000038146973,132.8780059814453 7.474999904632568,131.16400146484375 C7.734000205993652,129.04600524902344 -6.576000213623047,137.26199340820312 -9.164999961853027,138.63299560546875 C-12.630000114440918,140.35499572753906 -14.826000213623047,142.45599365234375 -19.302000045776367,141.2519989013672 C-21.427000045776367,140.74200439453125 -28.55500030517578,139.01100158691406 -28.02199935913086,137.8509979248047 C-27.43600082397461,135.31100463867188 2.9839999675750732,127.21900177001953 10.244999885559082,124.81099700927734 C12.741999626159668,124.23999786376953 18.6560001373291,121.08499908447266 19.06999969482422,124.81099700927734 C17.77899932861328,132.79800415039062 15.97599983215332,140.69900512695312 14.411999702453613,148.6510009765625z"></path></g><g opacity="1" transform="matrix(1,0,0,1,0,0)"><path stroke-linecap="round" stroke-linejoin="round" fill-opacity="0" stroke="rgb(116,113,119)" stroke-opacity="1" stroke-width="8" d=" M-155.63299560546875,34.35100173950195 C-157.46600341796875,36.30799865722656 -158.5229949951172,38.9900016784668 -158.33299255371094,41.89500045776367 C-158.33299255371094,41.89500045776367 -147.05299377441406,214.08900451660156 -147.05299377441406,214.08900451660156"></path></g><g opacity="1" transform="matrix(1,0,0,1,0,0)"><path stroke-linecap="round" stroke-linejoin="round" fill-opacity="0" stroke="rgb(116,113,119)" stroke-opacity="1" stroke-width="8" d=" M146.93099975585938,214.08900451660156 C146.93099975585938,214.08900451660156 158.21099853515625,41.89500045776367 158.21099853515625,41.89500045776367 C158.38099670410156,39.30699920654297 157.55999755859375,36.89500045776367 156.08299255371094,35.01599884033203"></path></g><g opacity="1" transform="matrix(1,0,0,1,0,0)"><path fill="url(#__lottie_element_8)" fill-opacity="0.17" d=" M158.30499267578125,40.60499954223633 C158.30499267578125,40.60499954223633 146.08900451660156,218.37100219726562 146.08900451660156,218.37100219726562 C143.24600219726562,223.11000061035156 -57.22800064086914,219.2989959716797 -57.22800064086914,219.2989959716797 C-57.22800064086914,219.2989959716797 101.23300170898438,29.875999450683594 101.23300170898438,29.875999450683594 C101.23300170898438,29.875999450683594 160.30499267578125,22.19099998474121 158.30499267578125,40.60499954223633z"></path></g><g opacity="1" transform="matrix(1,0,0,1,0,0)"><path stroke-linecap="round" stroke-linejoin="round" fill-opacity="0" stroke="rgb(200,199,201)" stroke-opacity="1" stroke-width="8" d=" M157.3159942626953,37.03099822998047 C155.72799682617188,33.58300018310547 152.24200439453125,31.163999557495117 148.16000366210938,31.163999557495117 C148.16000366210938,31.163999557495117 -0.08399999886751175,31.163999557495117 -0.08399999886751175,31.163999557495117 C-0.08399999886751175,31.163999557495117 -148.281005859375,31.163999557495117 -148.281005859375,31.163999557495117 C-152.3769989013672,31.163999557495117 -155.87399291992188,33.5989990234375 -157.45399475097656,37.06700134277344"></path></g></g></g></svg>