<svg xmlns="http://www.w3.org/2000/svg" xmlns:xlink="http://www.w3.org/1999/xlink" viewBox="0 0 512 512" width="512" height="512" style="width: 100%; height: 100%; transform: translate3d(0,0,0); content-visibility: visible;" preserveAspectRatio="xMidYMid meet"><defs><clipPath id="__lottie_element_2"><rect width="512" height="512" x="0" y="0"></rect></clipPath><linearGradient id="__lottie_element_6" spreadMethod="pad" gradientUnits="userSpaceOnUse" x1="3" y1="-120" x2="0" y2="122"><stop offset="0%" stop-color="rgb(26,22,37)"></stop><stop offset="50%" stop-color="rgb(13,11,19)"></stop><stop offset="100%" stop-color="rgb(0,0,0)"></stop></linearGradient><radialGradient id="__lottie_element_7" spreadMethod="pad" gradientUnits="userSpaceOnUse" cx="-1" cy="0" r="150.56227947264878" fx="-1" fy="0"><stop offset="0%" stop-color="rgb(255,230,91)"></stop><stop offset="23%" stop-color="rgb(231,187,45)"></stop><stop offset="47%" stop-color="rgb(206,144,0)"></stop><stop offset="66%" stop-color="rgb(184,123,0)"></stop><stop offset="85%" stop-color="rgb(161,102,0)"></stop><stop offset="93%" stop-color="rgb(173,108,0)"></stop><stop offset="100%" stop-color="rgb(185,113,0)"></stop></radialGradient><linearGradient id="__lottie_element_8" spreadMethod="pad" gradientUnits="userSpaceOnUse" x1="35" y1="-38.5" x2="33.5" y2="39"><stop offset="0%" stop-color="rgb(224,223,221)"></stop><stop offset="50%" stop-color="rgb(182,181,180)"></stop><stop offset="100%" stop-color="rgb(139,139,139)"></stop></linearGradient><linearGradient id="__lottie_element_9" spreadMethod="pad" gradientUnits="userSpaceOnUse" x1="-1" y1="-26.5" x2="-0.5" y2="25.5"><stop offset="0%" stop-color="rgb(147,151,153)"></stop><stop offset="20%" stop-color="rgb(135,139,141)"></stop><stop offset="41%" stop-color="rgb(123,127,129)"></stop><stop offset="50%" stop-color="rgb(100,100,103)"></stop><stop offset="58%" stop-color="rgb(77,74,77)"></stop><stop offset="79%" stop-color="rgb(55,51,53)"></stop><stop offset="100%" stop-color="rgb(32,29,29)"></stop></linearGradient><linearGradient id="__lottie_element_10" spreadMethod="pad" gradientUnits="userSpaceOnUse" x1="27" y1="-42.5" x2="16.5" y2="45"><stop offset="0%" stop-color="rgb(224,223,221)"></stop><stop offset="50%" stop-color="rgb(182,181,180)"></stop><stop offset="100%" stop-color="rgb(139,139,139)"></stop></linearGradient><linearGradient id="__lottie_element_11" spreadMethod="pad" gradientUnits="userSpaceOnUse" x1="-1" y1="-26.5" x2="-0.5" y2="25.5"><stop offset="0%" stop-color="rgb(147,151,153)"></stop><stop offset="20%" stop-color="rgb(135,139,141)"></stop><stop offset="41%" stop-color="rgb(123,127,129)"></stop><stop offset="50%" stop-color="rgb(100,100,103)"></stop><stop offset="58%" stop-color="rgb(77,74,77)"></stop><stop offset="79%" stop-color="rgb(55,51,53)"></stop><stop offset="100%" stop-color="rgb(32,29,29)"></stop></linearGradient><linearGradient id="__lottie_element_12" spreadMethod="pad" gradientUnits="userSpaceOnUse" x1="-12.5" y1="-16" x2="5.5" y2="4.5"><stop offset="0%" stop-color="rgb(210,210,210)"></stop><stop offset="50%" stop-color="rgb(185,185,185)"></stop><stop offset="100%" stop-color="rgb(160,160,160)"></stop></linearGradient><linearGradient id="__lottie_element_13" spreadMethod="pad" gradientUnits="userSpaceOnUse" x1="0" y1="0" x2="2" y2="10"><stop offset="0%" stop-color="rgb(82,82,82)"></stop><stop offset="50%" stop-color="rgb(41,41,41)"></stop><stop offset="100%" stop-color="rgb(0,0,0)"></stop></linearGradient><linearGradient id="__lottie_element_14" spreadMethod="pad" gradientUnits="userSpaceOnUse" x1="0" y1="-87.68399810791016" x2="1.3450000286102295" y2="0.9179999828338623"><stop offset="0%" stop-color="rgb(255,250,220)" stop-opacity="1"></stop><stop offset="50%" stop-color="rgb(255,251,224)" stop-opacity="0.5"></stop><stop offset="100%" stop-color="rgb(255,252,229)" stop-opacity="0"></stop></linearGradient><linearGradient id="__lottie_element_15" spreadMethod="pad" gradientUnits="userSpaceOnUse" x1="0.7080000042915344" y1="-72.5" x2="0.9169999957084656" y2="70.5"><stop offset="0%" stop-color="rgb(255,255,255)" stop-opacity="0.5"></stop><stop offset="50%" stop-color="rgb(255,255,255)" stop-opacity="0.25"></stop><stop offset="100%" stop-color="rgb(255,255,255)" stop-opacity="0"></stop></linearGradient><linearGradient id="__lottie_element_19" spreadMethod="pad" gradientUnits="userSpaceOnUse" x1="-7.111000061035156" y1="-7.998000144958496" x2="9.739999771118164" y2="12.17199993133545"><stop offset="0%" stop-color="rgb(66,0,0)"></stop><stop offset="38%" stop-color="rgb(118,40,0)"></stop><stop offset="100%" stop-color="rgb(170,80,0)"></stop></linearGradient><radialGradient id="__lottie_element_20" spreadMethod="pad" gradientUnits="userSpaceOnUse" cx="-0.17299999296665192" cy="-0.19599999487400055" r="9.42800010740757" fx="-0.17299999296665192" fy="-0.19599999487400055"><stop offset="0%" stop-color="rgb(246,175,0)" stop-opacity="1"></stop><stop offset="52%" stop-color="rgb(246,175,0)" stop-opacity="0.5"></stop><stop offset="100%" stop-color="rgb(246,175,0)" stop-opacity="0"></stop></radialGradient><linearGradient id="__lottie_element_21" spreadMethod="pad" gradientUnits="userSpaceOnUse" x1="-5.186999797821045" y1="-6.998000144958496" x2="7.514999866485596" y2="11.704000473022461"><stop offset="0%" stop-color="rgb(66,0,0)"></stop><stop offset="38%" stop-color="rgb(118,40,0)"></stop><stop offset="100%" stop-color="rgb(170,80,0)"></stop></linearGradient><radialGradient id="__lottie_element_22" spreadMethod="pad" gradientUnits="userSpaceOnUse" cx="-0.17900000512599945" cy="-0.21400000154972076" r="9.42799960076809" fx="-0.17900000512599945" fy="-0.21400000154972076"><stop offset="0%" stop-color="rgb(246,175,0)" stop-opacity="1"></stop><stop offset="52%" stop-color="rgb(246,175,0)" stop-opacity="0.5"></stop><stop offset="100%" stop-color="rgb(246,175,0)" stop-opacity="0"></stop></radialGradient><radialGradient id="__lottie_element_23" spreadMethod="pad" gradientUnits="userSpaceOnUse" cx="-0.902999997138977" cy="-0.5789999961853027" r="24.389000058174133" fx="-0.902999997138977" fy="-0.5789999961853027"><stop offset="10%" stop-color="rgb(219,110,0)" stop-opacity="1"></stop><stop offset="67%" stop-color="rgb(219,110,0)" stop-opacity="0.5"></stop><stop offset="100%" stop-color="rgb(219,110,0)" stop-opacity="0"></stop></radialGradient><radialGradient id="__lottie_element_24" spreadMethod="pad" gradientUnits="userSpaceOnUse" cx="-0.5289999842643738" cy="-0.1979999989271164" r="32.16899937391281" fx="-0.5289999842643738" fy="-0.1979999989271164"><stop offset="0%" stop-color="rgb(255,255,254)" stop-opacity="1"></stop><stop offset="63%" stop-color="rgb(255,255,254)" stop-opacity="0.5"></stop><stop offset="100%" stop-color="rgb(255,255,254)" stop-opacity="0"></stop></radialGradient><linearGradient id="__lottie_element_25" spreadMethod="pad" gradientUnits="userSpaceOnUse" x1="-0.5289999842643738" y1="14.770000457763672" x2="-0.5289999842643738" y2="-14.340999603271484"><stop offset="0%" stop-color="rgb(255,168,0)" stop-opacity="1"></stop><stop offset="66%" stop-color="rgb(255,168,0)" stop-opacity="0.5"></stop><stop offset="100%" stop-color="rgb(255,168,0)" stop-opacity="0"></stop></linearGradient><linearGradient id="__lottie_element_26" spreadMethod="pad" gradientUnits="userSpaceOnUse" x1="-0.5289999842643738" y1="9.281000137329102" x2="-0.5289999842643738" y2="-4.0289998054504395"><stop offset="0%" stop-color="rgb(88,11,14)" stop-opacity="0"></stop><stop offset="36%" stop-color="rgb(88,11,14)" stop-opacity="0.5"></stop><stop offset="80%" stop-color="rgb(88,11,14)" stop-opacity="1"></stop></linearGradient><radialGradient id="__lottie_element_27" spreadMethod="pad" gradientUnits="userSpaceOnUse" cx="-0.5289999842643738" cy="1.5759999752044678" r="52.9469992518425" fx="-0.5289999842643738" fy="1.5759999752044678"><stop offset="53%" stop-color="rgb(255,169,0)" stop-opacity="0"></stop><stop offset="73%" stop-color="rgb(255,169,0)" stop-opacity="0.5"></stop><stop offset="90%" stop-color="rgb(255,169,0)" stop-opacity="1"></stop></radialGradient><linearGradient id="__lottie_element_28" spreadMethod="pad" gradientUnits="userSpaceOnUse" x1="-0.5289999842643738" y1="4.866000175476074" x2="-0.5289999842643738" y2="-5.145999908447266"><stop offset="23%" stop-color="rgb(163,65,0)" stop-opacity="1"></stop><stop offset="64%" stop-color="rgb(163,65,0)" stop-opacity="0.6499999761581421"></stop><stop offset="97%" stop-color="rgb(163,65,0)" stop-opacity="0.30000001192092896"></stop></linearGradient><linearGradient id="__lottie_element_29" spreadMethod="pad" gradientUnits="userSpaceOnUse" x1="-0.9419999718666077" y1="-4.822000026702881" x2="-1.2289999723434448" y2="19.209999084472656"><stop offset="0%" stop-color="rgb(255,168,0)" stop-opacity="1"></stop><stop offset="66%" stop-color="rgb(255,168,0)" stop-opacity="0.5"></stop><stop offset="100%" stop-color="rgb(255,168,0)" stop-opacity="0"></stop></linearGradient><linearGradient id="__lottie_element_30" spreadMethod="pad" gradientUnits="userSpaceOnUse" x1="0.057999998331069946" y1="16.430999755859375" x2="-1.187000036239624" y2="-5.9730000495910645"><stop offset="11%" stop-color="rgb(219,110,0)" stop-opacity="1"></stop><stop offset="51%" stop-color="rgb(219,110,0)" stop-opacity="0.5"></stop><stop offset="80%" stop-color="rgb(219,110,0)" stop-opacity="0"></stop></linearGradient><radialGradient id="__lottie_element_31" spreadMethod="pad" gradientUnits="userSpaceOnUse" cx="-0.9419999718666077" cy="-6.882999897003174" r="26.38299995660782" fx="-0.9419999718666077" fy="-6.882999897003174"><stop offset="37%" stop-color="rgb(255,168,0)" stop-opacity="0"></stop><stop offset="75%" stop-color="rgb(255,168,0)" stop-opacity="0.5"></stop><stop offset="100%" stop-color="rgb(255,168,0)" stop-opacity="1"></stop></radialGradient><linearGradient id="__lottie_element_32" spreadMethod="pad" gradientUnits="userSpaceOnUse" x1="-0.9419999718666077" y1="-10.743000030517578" x2="-0.5590000152587891" y2="6.203999996185303"><stop offset="0%" stop-color="rgb(255,255,254)" stop-opacity="1"></stop><stop offset="50%" stop-color="rgb(255,255,254)" stop-opacity="0.5"></stop><stop offset="100%" stop-color="rgb(255,255,254)" stop-opacity="0"></stop></linearGradient><linearGradient id="__lottie_element_33" spreadMethod="pad" gradientUnits="userSpaceOnUse" x1="-0.9539999961853027" y1="-5.363999843597412" x2="-0.4749999940395355" y2="4.210999965667725"><stop offset="0%" stop-color="rgb(255,255,255)" stop-opacity="1"></stop><stop offset="58%" stop-color="rgb(255,255,255)" stop-opacity="0.5"></stop><stop offset="100%" stop-color="rgb(255,255,255)" stop-opacity="0"></stop></linearGradient><linearGradient id="__lottie_element_34" spreadMethod="pad" gradientUnits="userSpaceOnUse" x1="-0.878000020980835" y1="-5.363999843597412" x2="-0.734000027179718" y2="3.2049999237060547"><stop offset="0%" stop-color="rgb(255,255,255)" stop-opacity="1"></stop><stop offset="58%" stop-color="rgb(255,255,255)" stop-opacity="0.5"></stop><stop offset="100%" stop-color="rgb(255,255,255)" stop-opacity="0"></stop></linearGradient><linearGradient id="__lottie_element_38" spreadMethod="pad" gradientUnits="userSpaceOnUse" x1="-4.806000232696533" y1="-81.2040023803711" x2="-0.753000020980835" y2="-26.639999389648438"><stop offset="0%" stop-color="rgb(219,110,0)" stop-opacity="1"></stop><stop offset="39%" stop-color="rgb(219,110,0)" stop-opacity="0.5"></stop><stop offset="71%" stop-color="rgb(219,110,0)" stop-opacity="0"></stop></linearGradient><linearGradient id="__lottie_element_39" spreadMethod="pad" gradientUnits="userSpaceOnUse" x1="0.057999998331069946" y1="-75.2699966430664" x2="-2.494999885559082" y2="103.48500061035156"><stop offset="6%" stop-color="rgb(255,216,0)" stop-opacity="0"></stop><stop offset="15%" stop-color="rgb(255,216,0)" stop-opacity="0.5"></stop><stop offset="51%" stop-color="rgb(255,216,0)" stop-opacity="1"></stop><stop offset="89%" stop-color="rgb(255,216,0)" stop-opacity="0.5"></stop><stop offset="100%" stop-color="rgb(255,216,0)" stop-opacity="0"></stop></linearGradient><radialGradient id="__lottie_element_43" spreadMethod="pad" gradientUnits="userSpaceOnUse" cx="0" cy="0" r="166.8980906903243" fx="0" fy="0"><stop offset="94%" stop-color="rgb(188,192,187)"></stop><stop offset="97%" stop-color="rgb(180,180,176)"></stop><stop offset="100%" stop-color="rgb(172,168,165)"></stop></radialGradient><radialGradient id="__lottie_element_44" spreadMethod="pad" gradientUnits="userSpaceOnUse" cx="0" cy="0" r="146.81280598094978" fx="0" fy="0"><stop offset="74%" stop-color="rgb(26,26,29)"></stop><stop offset="87%" stop-color="rgb(43,44,45)"></stop><stop offset="100%" stop-color="rgb(61,61,61)"></stop></radialGradient><radialGradient id="__lottie_element_48" spreadMethod="pad" gradientUnits="userSpaceOnUse" cx="262" cy="329" r="197.9090700296477" fx="262" fy="329"><stop offset="19%" stop-color="rgb(121,120,119)"></stop><stop offset="59%" stop-color="rgb(164,162,159)"></stop><stop offset="100%" stop-color="rgb(208,204,200)"></stop></radialGradient><radialGradient id="__lottie_element_49" spreadMethod="pad" gradientUnits="userSpaceOnUse" cx="261" cy="345" r="206.92993983471797" fx="261" fy="345"><stop offset="38%" stop-color="rgb(42,41,42)"></stop><stop offset="69%" stop-color="rgb(102,102,101)"></stop><stop offset="100%" stop-color="rgb(162,163,161)"></stop></radialGradient><radialGradient id="__lottie_element_50" spreadMethod="pad" gradientUnits="userSpaceOnUse" cx="3" cy="-48" r="164.83021567661677" fx="3" fy="-48"><stop offset="31%" stop-color="rgb(224,222,220)"></stop><stop offset="66%" stop-color="rgb(188,186,185)"></stop><stop offset="100%" stop-color="rgb(151,151,150)"></stop></radialGradient><radialGradient id="__lottie_element_51" spreadMethod="pad" gradientUnits="userSpaceOnUse" cx="-0.6430000066757202" cy="-33.013999938964844" r="82.53355464282339" fx="-0.6430000066757202" fy="-33.013999938964844"><stop offset="0%" stop-color="rgb(105,105,105)"></stop><stop offset="50%" stop-color="rgb(105,105,105)"></stop><stop offset="100%" stop-color="rgb(105,105,105)"></stop></radialGradient><mask id="__lottie_element_53"><path fill="url(#__lottie_element_52)" d=" M0,-73.25 C40.426673889160156,-73.25 73.25,-40.426673889160156 73.25,0 C73.25,40.426673889160156 40.426673889160156,73.25 0,73.25 C-40.426673889160156,73.25 -73.25,40.426673889160156 -73.25,0 C-73.25,-40.426673889160156 -40.426673889160156,-73.25 0,-73.25z"></path></mask><radialGradient id="__lottie_element_52" spreadMethod="pad" gradientUnits="userSpaceOnUse" cx="-0.6430000066757202" cy="-33.013999938964844" r="82.53355464282339" fx="-0.6430000066757202" fy="-33.013999938964844"><stop stop-color="rgb(255,255,255)" offset="61%" stop-opacity="1"></stop><stop stop-color="rgb(255,255,255)" offset="80%" stop-opacity="0.5"></stop><stop stop-color="rgb(255,255,255)" offset="100%" stop-opacity="0"></stop></radialGradient><linearGradient id="__lottie_element_54" spreadMethod="pad" gradientUnits="userSpaceOnUse" x1="0" y1="-27" x2="1" y2="26"><stop offset="0%" stop-color="rgb(255,255,255)"></stop><stop offset="24%" stop-color="rgb(246,243,245)"></stop><stop offset="47%" stop-color="rgb(237,232,236)"></stop><stop offset="54%" stop-color="rgb(216,213,215)"></stop><stop offset="60%" stop-color="rgb(195,195,195)"></stop><stop offset="80%" stop-color="rgb(171,172,172)"></stop><stop offset="100%" stop-color="rgb(147,149,149)"></stop></linearGradient><linearGradient id="__lottie_element_55" spreadMethod="pad" gradientUnits="userSpaceOnUse" x1="-2" y1="19" x2="-2.5" y2="-15"><stop offset="0%" stop-color="rgb(66,68,68)"></stop><stop offset="50%" stop-color="rgb(58,59,59)"></stop><stop offset="100%" stop-color="rgb(50,50,50)"></stop></linearGradient><linearGradient id="__lottie_element_56" spreadMethod="pad" gradientUnits="userSpaceOnUse" x1="11" y1="-17" x2="11" y2="19"><stop offset="0%" stop-color="rgb(249,244,248)"></stop><stop offset="50%" stop-color="rgb(200,196,198)"></stop><stop offset="100%" stop-color="rgb(152,148,149)"></stop></linearGradient><linearGradient id="__lottie_element_57" spreadMethod="pad" gradientUnits="userSpaceOnUse" x1="-5" y1="-14" x2="-13.5" y2="8.5"><stop offset="0%" stop-color="rgb(57,119,203)"></stop><stop offset="50%" stop-color="rgb(36,103,190)"></stop><stop offset="100%" stop-color="rgb(15,86,177)"></stop></linearGradient><linearGradient id="__lottie_element_58" spreadMethod="pad" gradientUnits="userSpaceOnUse" x1="-88" y1="-5.5" x2="91.5" y2="-0.5"><stop offset="0%" stop-color="rgb(142,142,142)"></stop><stop offset="8%" stop-color="rgb(134,134,134)"></stop><stop offset="15%" stop-color="rgb(126,126,126)"></stop><stop offset="32%" stop-color="rgb(144,144,144)"></stop><stop offset="50%" stop-color="rgb(162,162,162)"></stop><stop offset="68%" stop-color="rgb(143,143,143)"></stop><stop offset="85%" stop-color="rgb(122,122,122)"></stop><stop offset="93%" stop-color="rgb(131,131,131)"></stop><stop offset="100%" stop-color="rgb(138,138,138)"></stop></linearGradient><linearGradient id="__lottie_element_59" spreadMethod="pad" gradientUnits="userSpaceOnUse" x1="-87" y1="-0.5" x2="90" y2="-0.5"><stop offset="9%" stop-color="rgb(170,170,170)"></stop><stop offset="10%" stop-color="rgb(120,120,120)"></stop><stop offset="10%" stop-color="rgb(71,71,71)"></stop><stop offset="30%" stop-color="rgb(52,52,52)"></stop><stop offset="50%" stop-color="rgb(33,33,33)"></stop><stop offset="69%" stop-color="rgb(52,52,52)"></stop><stop offset="89%" stop-color="rgb(71,71,71)"></stop><stop offset="90%" stop-color="rgb(120,120,120)"></stop><stop offset="91%" stop-color="rgb(170,170,170)"></stop></linearGradient></defs><g clip-path="url(#__lottie_element_2)"><g style="display: block;" transform="matrix(1,0,0,1,0,0)" opacity="1"><g opacity="1" transform="matrix(1,0,0,0.9539499878883362,0,21.39697265625)"><g opacity="1" transform="matrix(1,0,0,1,0,0)"><path fill="url(#__lottie_element_48)" fill-opacity="1" d=" M356.61,323.5 C356.61,323.5 165.34,323.5 165.34,323.5 C115.72,323.5 74.6,363.61 67.18,411.45 C73.54,422.28 82.07,451.71 101.64,462.68 C122.88,474.58 150.2,474.99 158.78,475.5 C158.78,475.5 362.51,475.5 362.51,475.5 C371.09,474.99 409,472.36 420.02,462.68 C437.34,447.47 448.33,421.46 454.63,410.57 C446.84,363.16 405.92,323.5 356.61,323.5z"></path><g opacity="1" transform="matrix(1,0,0,1,260.9010009765625,399.5)"></g></g><g opacity="1" transform="matrix(1,0,0,1,0,0)"><g opacity="1" transform="matrix(1,0,0,1,260.9010009765625,399.5)"><path stroke-linecap="round" stroke-linejoin="round" fill-opacity="0" stroke="rgb(102,102,102)" stroke-opacity="1" stroke-width="8" d=" M192.71299743652344,7.21999979019165 C184.30599975585938,-39.4370002746582 144.49200439453125,-76 95.70899963378906,-76 C95.70899963378906,-76 -95.56199645996094,-76 -95.56199645996094,-76 C-145.1820068359375,-76 -185.55299377441406,-38.606998443603516 -192.9759979248047,9.237000465393066"></path></g></g><g opacity="1" transform="matrix(1,0,0,1,1,0)"><path fill="url(#__lottie_element_49)" fill-opacity="1" d=" M356.61,341 C356.61,341 165.34,341 165.34,341 C120.26,341 81.39,373.34 69.23,414.74 C69.84,415.68 66.41,441.7 67.5,442.55 C76.69,449.75 85.63,454.8 101.64,462.68 C123.78,473.57 150.2,474.99 158.78,475.5 C158.78,475.5 362.51,475.5 362.51,475.5 C371.09,474.99 408,468.78 420.02,462.68 C440.69,452.18 449.31,446.48 453.88,442.45 C453.47,441.07 450.21,412.19 449.74,410.84 C436.09,371.79 399.93,341 356.61,341z"></path><g opacity="1" transform="matrix(1,0,0,1,260.8699951171875,408.25)"></g></g><g opacity="1" transform="matrix(1,0,0,1,0,0)"><g opacity="1" transform="matrix(1,0,0,1,260.8699951171875,408.25)"><path stroke-linecap="round" stroke-linejoin="round" fill-opacity="0" stroke="rgb(213,208,202)" stroke-opacity="1" stroke-width="8" d=" M194.19900512695312,31.038999557495117 C194.0540008544922,30.55699920654297 194.15499877929688,3.2149999141693115 194.0019989013672,2.7360000610351562 C181.16600036621094,-37.55400085449219 140.0330047607422,-67.25 95.73999786376953,-67.25 C95.73999786376953,-67.25 -95.53199768066406,-67.25 -95.53199768066406,-67.25 C-139.89199829101562,-67.25 -180.32899475097656,-37.46699905395508 -193.0989990234375,2.9189999103546143 C-193.30499267578125,3.571000099182129 -193.07899475097656,29.974000930786133 -193.27200317382812,30.631999969482422"></path></g></g></g><g opacity="1" transform="matrix(1,0,0,1,0,0.5)"><g opacity="1" transform="matrix(1,0,0,1,0,0)"><g opacity="1" transform="matrix(1,0,0,1,260.9630126953125,427.25)"><path fill="url(#__lottie_element_50)" fill-opacity="1" d=" M140.6529998779297,-22.75 C128.54100036621094,-37.361000061035156 112.28800201416016,-48.25 92.83100128173828,-48.25 C92.83100128173828,-48.25 0,-48.25 0,-48.25 C0,-48.25 -92.83100128173828,-48.25 -92.83100128173828,-48.25 C-112.28800201416016,-48.25 -128.54100036621094,-37.361000061035156 -140.6529998779297,-22.75 C-154.95199584960938,-5.5 -158.81199645996094,34.75 -158.81199645996094,34.75 C-158.81199645996094,34.75 -128.2209930419922,48.25 -98.44999694824219,48.25 C-98.44999694824219,48.25 0,48.25 0,48.25 C0,48.25 98.44999694824219,48.25 98.44999694824219,48.25 C128.2220001220703,48.25 159.18800354003906,34.75 159.18800354003906,34.75 C159.18800354003906,34.75 154.9530029296875,-5.5 140.6529998779297,-22.75z"></path></g></g><g opacity="1" transform="matrix(1.3988200426101685,0,0,0.2411700040102005,259.75,393.75)"><path fill="url(#__lottie_element_51)" mask="url(#__lottie_element_53)" fill-opacity="1" d="M0 0 M0,-73.25 C40.426673889160156,-73.25 73.25,-40.426673889160156 73.25,0 C73.25,40.426673889160156 40.426673889160156,73.25 0,73.25 C-40.426673889160156,73.25 -73.25,40.426673889160156 -73.25,0 C-73.25,-40.426673889160156 -40.426673889160156,-73.25 0,-73.25z"></path></g><g opacity="1" transform="matrix(1,0,0,1,0,0)"><g opacity="0.35000000000000003" transform="matrix(1,0,0,1,0,0)"><path fill="rgb(255,255,255)" fill-opacity="1" d=" M352.75,377.5 C338.25,377.25 261.75,377.5 261.75,377.5 C261.75,377.5 173.5,372.5 146,384.75 C118.5,397 108.5,421.75 108.5,421.75 C108.5,421.75 114.25,425.75 114.25,425.75 C114.25,425.75 129,406.25 147.25,393.75 C165.5,381.25 260.5,388.75 260.5,388.75 C260.5,388.75 336.75,388.25 336.75,388.25 C336.75,388.25 368.25,386 387.5,402.75 C406.75,419.5 417.43798828125,461.5 417.43798828125,461.5 C417.43798828125,461.5 422.18798828125,459.5 422.18798828125,459.5 C422.18798828125,459.5 409.75,417 400,399.75 C390.25,382.5 367.25,377.75 352.75,377.5z"></path></g><g opacity="1" transform="matrix(1,0,0,1,260.9630126953125,427.25)"><path stroke-linecap="round" stroke-linejoin="round" fill-opacity="0" stroke="rgb(102,102,102)" stroke-opacity="1" stroke-width="8" d=" M159.18800354003906,30.5 C159.18800354003906,30.5 154.9530029296875,-5.5 140.6529998779297,-22.75 C128.54100036621094,-37.361000061035156 112.28800201416016,-48.25 92.83100128173828,-48.25 C92.83100128173828,-48.25 0,-48.25 0,-48.25 C0,-48.25 -92.83100128173828,-48.25 -92.83100128173828,-48.25 C-112.28800201416016,-48.25 -128.54100036621094,-37.361000061035156 -140.6529998779297,-22.75 C-144.79400634765625,-17.753999710083008 -150.58299255371094,-6.184000015258789 -150.6479949951172,-7.2170000076293945 C-150.71299743652344,-8.25 -159,16.5 -159,16.5"></path></g></g><g opacity="1" transform="matrix(1,0,0,1,0,0)"><g opacity="1" transform="matrix(1,0,0,1,0,0)"><g opacity="1" transform="matrix(1,0,0,1,380.7200012207031,440.8630065917969)"><path stroke-linecap="round" stroke-linejoin="round" fill-opacity="0" stroke="rgb(102,102,102)" stroke-opacity="0.5" stroke-width="6" d=" M-22.746999740600586,32.637001037597656 C-22.746999740600586,32.637001037597656 -9.595000267028809,-15.11299991607666 22.246999740600586,-34.637001037597656"></path></g><g opacity="1" transform="matrix(0.8110600113868713,0,0,0.8110600113868713,389.7200012207031,446.3630065917969)"><path stroke-linecap="round" stroke-linejoin="round" fill-opacity="0" stroke="rgb(102,102,102)" stroke-opacity="0.35000000000000003" stroke-width="10" d=" M-22.621999740600586,31.136999130249023 C-22.621999740600586,31.136999130249023 -9.595000267028809,-15.11299991607666 22.246999740600586,-34.637001037597656"></path></g></g><g opacity="1" transform="matrix(1,0,0,1,0,0)"><g opacity="0.5" transform="matrix(1,0,0,1,141.20700073242188,440.8630065917969)"><path stroke-linecap="round" stroke-linejoin="round" fill-opacity="0" stroke="rgb(102,102,102)" stroke-opacity="1" stroke-width="6" d=" M23.121999740600586,32.512001037597656 C23.121999740600586,32.512001037597656 9.593999862670898,-15.11299991607666 -22.24799919128418,-34.637001037597656"></path></g><g opacity="0.35000000000000003" transform="matrix(0.8076500296592712,0,0,0.8076500296592712,132.45700073242188,445.3630065917969)"><path stroke-linecap="round" stroke-linejoin="round" fill-opacity="0" stroke="rgb(102,102,102)" stroke-opacity="1" stroke-width="10" d=" M23.361000061035156,32.61899948120117 C23.361000061035156,32.61899948120117 9.593999862670898,-15.11299991607666 -22.24799919128418,-34.637001037597656"></path></g></g></g><g opacity="1" transform="matrix(1,0,0,1,1.5,0)"><g opacity="1" transform="matrix(1,0,0,1,0,0)"><g opacity="1" transform="matrix(1,0,0,1,313.9989929199219,449.0419921875)"><path fill="url(#__lottie_element_54)" fill-opacity="1" d=" M25.086999893188477,26.45800018310547 C25.086999893188477,26.45800018310547 -24.961999893188477,26.45800018310547 -24.961999893188477,26.45800018310547 C-24.961999893188477,26.45800018310547 -24.961999893188477,-23.45800018310547 -24.961999893188477,-23.45800018310547 C-24.961999893188477,-25.114999771118164 -23.618999481201172,-26.45800018310547 -21.961999893188477,-26.45800018310547 C-21.961999893188477,-26.45800018310547 22.086999893188477,-26.45800018310547 22.086999893188477,-26.45800018310547 C23.743999481201172,-26.45800018310547 25.086999893188477,-25.114999771118164 25.086999893188477,-23.45800018310547 C25.086999893188477,-23.45800018310547 25.086999893188477,26.45800018310547 25.086999893188477,26.45800018310547z"></path></g></g><g opacity="1" transform="matrix(1,0,0,1,0,0)"><g opacity="1" transform="matrix(1,0,0,1,313.9989929199219,449.0419921875)"><path stroke-linecap="butt" stroke-linejoin="miter" fill-opacity="0" stroke-miterlimit="10" stroke="rgb(102,102,102)" stroke-opacity="1" stroke-width="8" d=" M-24.961999893188477,26.45800018310547 C-24.961999893188477,26.45800018310547 -24.961999893188477,-23.45800018310547 -24.961999893188477,-23.45800018310547 C-24.961999893188477,-25.114999771118164 -23.618999481201172,-26.45800018310547 -21.961999893188477,-26.45800018310547 C-21.961999893188477,-26.45800018310547 22.086999893188477,-26.45800018310547 22.086999893188477,-26.45800018310547 C23.743999481201172,-26.45800018310547 25.086999893188477,-25.114999771118164 25.086999893188477,-23.45800018310547 C25.086999893188477,-23.45800018310547 25.086999893188477,26.45800018310547 25.086999893188477,26.45800018310547"></path></g></g><g opacity="1" transform="matrix(1,0,0,1,0,0)"><g opacity="1" transform="matrix(1,0,0,1,313.9989929199219,449.0419921875)"><path stroke-linecap="round" stroke-linejoin="round" fill-opacity="0" stroke="rgb(150,150,150)" stroke-opacity="1" stroke-width="8" d=" M-25.048999786376953,1.7079999446868896 C-25.048999786376953,1.7079999446868896 -24.961999893188477,-23.45800018310547 -24.961999893188477,-23.45800018310547 C-24.961999893188477,-25.114999771118164 -23.618999481201172,-26.45800018310547 -21.961999893188477,-26.45800018310547 C-21.961999893188477,-26.45800018310547 22.086999893188477,-26.45800018310547 22.086999893188477,-26.45800018310547 C23.743999481201172,-26.45800018310547 25.086999893188477,-25.114999771118164 25.086999893188477,-23.45800018310547 C25.086999893188477,-23.45800018310547 25.097999572753906,1.4579999446868896 25.097999572753906,1.4579999446868896"></path></g></g><g opacity="1" transform="matrix(0.8133999705314636,0,0,0.8133999705314636,58.5924072265625,84.2469482421875)"><g opacity="1" transform="matrix(1,0,0,1,314,446.125)"><path fill="url(#__lottie_element_55)" fill-opacity="1" d=" M16.392000198364258,0 C16.392000198364258,9.182000160217285 9.052000045776367,16.625 -0.0010000000474974513,16.625 C-9.053000450134277,16.625 -16.392000198364258,9.182000160217285 -16.392000198364258,0 C-16.392000198364258,-9.182000160217285 -9.053000450134277,-16.625 -0.0010000000474974513,-16.625 C9.052000045776367,-16.625 16.392000198364258,-9.182000160217285 16.392000198364258,0z"></path><path stroke-linecap="butt" stroke-linejoin="miter" fill-opacity="0" stroke-miterlimit="10" stroke="rgb(48,48,48)" stroke-opacity="1" stroke-width="8" d=" M16.392000198364258,0 C16.392000198364258,9.182000160217285 9.052000045776367,16.625 -0.0010000000474974513,16.625 C-9.053000450134277,16.625 -16.392000198364258,9.182000160217285 -16.392000198364258,0 C-16.392000198364258,-9.182000160217285 -9.053000450134277,-16.625 -0.0010000000474974513,-16.625 C9.052000045776367,-16.625 16.392000198364258,-9.182000160217285 16.392000198364258,0z"></path></g></g></g><g opacity="1" transform="matrix(1,0,0,1,-0.5,-0.5)"><g opacity="1" transform="matrix(1,0,0,1,231.13800048828125,456.375)"><path fill="url(#__lottie_element_56)" fill-opacity="1" d=" M47.4370002746582,19 C47.4370002746582,19 -48.3120002746582,19.125 -48.3120002746582,19.125 C-48.3120002746582,19.125 -48.3120002746582,-19.125 -48.3120002746582,-19.125 C-48.3120002746582,-19.125 47.4370002746582,-19.25 47.4370002746582,-19.25 C47.4370002746582,-19.25 47.4370002746582,19 47.4370002746582,19z"></path></g><g opacity="1" transform="matrix(1,0,0,1,231.13800048828125,456.875)"><path stroke-linecap="butt" stroke-linejoin="round" fill-opacity="0" stroke="rgb(102,102,102)" stroke-opacity="1" stroke-width="8" d=" M-48.3120002746582,19.125 C-48.3120002746582,19.125 -48.3120002746582,-19.125 -48.3120002746582,-19.125 C-48.3120002746582,-19.125 47.4370002746582,-19.25 47.4370002746582,-19.25 C47.4370002746582,-19.25 47.4370002746582,19 47.4370002746582,19"></path></g><g opacity="1" transform="matrix(1,0,0,1,231.13800048828125,456.875)"><path stroke-linecap="round" stroke-linejoin="round" fill-opacity="0" stroke="rgb(151,151,151)" stroke-opacity="1" stroke-width="8" d=" M-48.374000549316406,-6.125 C-48.374000549316406,-6.125 -48.3120002746582,-19.125 -48.3120002746582,-19.125 C-48.3120002746582,-19.125 47.4370002746582,-19.25 47.4370002746582,-19.25 C47.4370002746582,-19.25 47.375,-6.25 47.375,-6.25"></path></g></g><g opacity="1" transform="matrix(1,0,0,1,0,0)"><g opacity="1" transform="matrix(1,0,0,1,117.93800354003906,445.3330078125)"><path fill="url(#__lottie_element_57)" fill-opacity="1" d=" M12.574000358581543,26.58300018310547 C12.574000358581543,26.58300018310547 14.706999778747559,16.577999114990234 15.937999725341797,12.416999816894531 C17.25,7.980000019073486 17.812000274658203,3.7920000553131104 14.87399959564209,-0.08299999684095383 C11.937000274658203,-3.9579999446868896 0.18700000643730164,-15.333000183105469 -3.687999963760376,-18.08300018310547 C-6.243000030517578,-19.895999908447266 -10.437000274658203,-21.58300018310547 -12.562000274658203,-17.08300018310547 C-14.687000274658203,-12.583000183105469 -17.625,15.166999816894531 -17.625,15.166999816894531 C-17.625,15.166999816894531 -6.843999862670898,21.27199935913086 -6.843999862670898,21.27199935913086 C-6.843999862670898,21.27199935913086 12.574000358581543,26.58300018310547 12.574000358581543,26.58300018310547z"></path></g><g opacity="1" transform="matrix(1,0,0,1,117.93800354003906,445.3330078125)"><path stroke-linecap="butt" stroke-linejoin="miter" fill-opacity="0" stroke-miterlimit="10" stroke="rgb(12,69,157)" stroke-opacity="1" stroke-width="8" d=" M12.574000358581543,26.58300018310547 C12.574000358581543,26.58300018310547 14.706999778747559,16.577999114990234 15.937999725341797,12.416999816894531 C17.25,7.980000019073486 17.812000274658203,3.7920000553131104 14.87399959564209,-0.08299999684095383 C11.937000274658203,-3.9579999446868896 0.18700000643730164,-15.333000183105469 -3.687999963760376,-18.08300018310547 C-6.243000030517578,-19.895999908447266 -10.437000274658203,-21.58300018310547 -12.562000274658203,-17.08300018310547 C-14.687000274658203,-12.583000183105469 -17.625,15.166999816894531 -17.625,15.166999816894531"></path></g></g></g><g opacity="1" transform="matrix(1,0,0,1,0,0)"><g opacity="1" transform="matrix(1,0,0,1,0,0)"><g opacity="1" transform="matrix(1,0,0,1,260.9630126953125,381.1669921875)"><path fill="url(#__lottie_element_58)" fill-opacity="1" d=" M-88.66600036621094,-16.08300018310547 C-88.66600036621094,-16.08300018310547 -88.66600036621094,0.25 -88.66600036621094,0.25 C-88.66600036621094,8.994999885559082 -48.96900177001953,16.08300018310547 0.0010000000474974513,16.08300018310547 C48.970001220703125,16.08300018310547 88.66699981689453,8.994999885559082 88.66699981689453,0.25 C88.66699981689453,0.25 88.66699981689453,-16.08300018310547 88.66699981689453,-16.08300018310547 C88.66699981689453,-16.08300018310547 -88.66600036621094,-16.08300018310547 -88.66600036621094,-16.08300018310547z"></path><path stroke-linecap="round" stroke-linejoin="round" fill-opacity="0" stroke="rgb(102,102,102)" stroke-opacity="1" stroke-width="8" d=" M-88.66600036621094,-16.08300018310547 C-88.66600036621094,-16.08300018310547 -88.66600036621094,0.25 -88.66600036621094,0.25 C-88.66600036621094,8.994999885559082 -48.96900177001953,16.08300018310547 0.0010000000474974513,16.08300018310547 C48.970001220703125,16.08300018310547 88.66699981689453,8.994999885559082 88.66699981689453,0.25 C88.66699981689453,0.25 88.66699981689453,-16.08300018310547 88.66699981689453,-16.08300018310547 C88.66699981689453,-16.08300018310547 -88.66600036621094,-16.08300018310547 -88.66600036621094,-16.08300018310547z"></path></g></g><g opacity="1" transform="matrix(1,0,0,1,0,0)"><g opacity="1" transform="matrix(1,0,0,1,260.9630126953125,365.0830078125)"><path fill="url(#__lottie_element_59)" fill-opacity="1" d=" M88.66699981689453,0 C88.66699981689453,8.744999885559082 48.96900177001953,15.833000183105469 -0.0010000000474974513,15.833000183105469 C-48.970001220703125,15.833000183105469 -88.66600036621094,8.744999885559082 -88.66600036621094,0 C-88.66600036621094,-8.744999885559082 -48.970001220703125,-15.833000183105469 -0.0010000000474974513,-15.833000183105469 C48.96900177001953,-15.833000183105469 88.66699981689453,-8.744999885559082 88.66699981689453,0z"></path><path stroke-linecap="butt" stroke-linejoin="miter" fill-opacity="0" stroke-miterlimit="10" stroke="rgb(40,40,40)" stroke-opacity="1" stroke-width="8" d=" M88.66699981689453,0 C88.66699981689453,8.744999885559082 48.96900177001953,15.833000183105469 -0.0010000000474974513,15.833000183105469 C-48.970001220703125,15.833000183105469 -88.66600036621094,8.744999885559082 -88.66600036621094,0 C-88.66600036621094,-8.744999885559082 -48.970001220703125,-15.833000183105469 -0.0010000000474974513,-15.833000183105469 C48.96900177001953,-15.833000183105469 88.66699981689453,-8.744999885559082 88.66699981689453,0z"></path></g></g><g opacity="1" transform="matrix(1,0,0,1,0,0)"></g></g></g><g style="display: block;" transform="matrix(1,0,0,1,0,0)" opacity="1"><g opacity="1" transform="matrix(0.9854099750518799,0,0,0.9854099750518799,3.827056884765625,3.027587890625)"><g opacity="1" transform="matrix(1,0,0,1,262.3070068359375,207.51100158691406)"><path fill="url(#__lottie_element_43)" fill-opacity="1" d=" M169.8070068359375,0 C169.8070068359375,94.61599731445312 93.78199768066406,171.3179931640625 0,171.3179931640625 C-93.78199768066406,171.3179931640625 -169.8070068359375,94.61599731445312 -169.8070068359375,0 C-169.8070068359375,-94.61599731445312 -93.78199768066406,-171.3179931640625 0,-171.3179931640625 C93.78199768066406,-171.3179931640625 169.8070068359375,-94.61599731445312 169.8070068359375,0z"></path><path stroke-linecap="butt" stroke-linejoin="miter" fill-opacity="0" stroke-miterlimit="10" stroke="rgb(102,102,102)" stroke-opacity="1" stroke-width="8" d=" M169.8070068359375,0 C169.8070068359375,94.61599731445312 93.78199768066406,171.3179931640625 0,171.3179931640625 C-93.78199768066406,171.3179931640625 -169.8070068359375,94.61599731445312 -169.8070068359375,0 C-169.8070068359375,-94.61599731445312 -93.78199768066406,-171.3179931640625 0,-171.3179931640625 C93.78199768066406,-171.3179931640625 169.8070068359375,-94.61599731445312 169.8070068359375,0z"></path></g><g opacity="1" transform="matrix(1,0,0,1,262.3070068359375,207.51100158691406)"><path stroke-linecap="round" stroke-linejoin="round" fill-opacity="0" stroke="rgb(40,40,40)" stroke-opacity="1" stroke-width="8" d=" M86.86799621582031,147.23399353027344 C61.452999114990234,162.52999877929688 31.743999481201172,171.3179931640625 0,171.3179931640625 C-31.375999450683594,171.3179931640625 -60.763999938964844,162.73199462890625 -85.98300170898438,147.76300048828125"></path></g></g><g opacity="1" transform="matrix(1,0,0,1,0,0)"><g opacity="1" transform="matrix(1,0,0,1,262.3059997558594,212.26699829101562)"><path fill="url(#__lottie_element_44)" fill-opacity="1" d=" M151.98199462890625,0 C151.98199462890625,84.68399810791016 83.93699645996094,153.33299255371094 0,153.33299255371094 C-83.93699645996094,153.33299255371094 -151.98199462890625,84.68399810791016 -151.98199462890625,0 C-151.98199462890625,-84.68399810791016 -83.93699645996094,-153.33299255371094 0,-153.33299255371094 C83.93699645996094,-153.33299255371094 151.98199462890625,-84.68399810791016 151.98199462890625,0z"></path><path stroke-linecap="butt" stroke-linejoin="miter" fill-opacity="0" stroke-miterlimit="10" stroke="rgb(101,101,101)" stroke-opacity="1" stroke-width="8" d=" M151.98199462890625,0 C151.98199462890625,84.68399810791016 83.93699645996094,153.33299255371094 0,153.33299255371094 C-83.93699645996094,153.33299255371094 -151.98199462890625,84.68399810791016 -151.98199462890625,0 C-151.98199462890625,-84.68399810791016 -83.93699645996094,-153.33299255371094 0,-153.33299255371094 C83.93699645996094,-153.33299255371094 151.98199462890625,-84.68399810791016 151.98199462890625,0z"></path></g></g></g><g style="display: block;" transform="matrix(1,0,0,1,9,2)" opacity="1"><g opacity="1" transform="matrix(1,0,0,1,251.30599975585938,222.70399475097656)"><path fill="rgb(255,168,0)" fill-opacity="1" d=" M108.3479995727539,16.783000946044922 C108.3479995727539,85.55799865722656 59.42300033569336,140.5540008544922 0.5429999828338623,140.5540008544922 C-58.3380012512207,140.5540008544922 -107.0770034790039,85.55799865722656 -107.0770034790039,16.783000946044922 C-117.91100311279297,-97.55000305175781 -57.58000183105469,-143.5540008544922 0.6359999775886536,-143.5540008544922 C57.32500076293945,-143.5540008544922 108.3479995727539,-125.61499786376953 108.3479995727539,16.783000946044922z"></path></g><g opacity="1" transform="matrix(1,0,0,1,251.30599975585938,222.70399475097656)"><path fill="url(#__lottie_element_38)" fill-opacity="1" d=" M108.3479995727539,16.783000946044922 C108.3479995727539,85.55799865722656 59.42300033569336,140.5540008544922 0.5429999828338623,140.5540008544922 C-58.3380012512207,140.5540008544922 -107.0770034790039,85.55799865722656 -107.0770034790039,16.783000946044922 C-117.91100311279297,-97.55000305175781 -57.58000183105469,-143.5540008544922 0.6359999775886536,-143.5540008544922 C57.32500076293945,-143.5540008544922 108.3479995727539,-125.61499786376953 108.3479995727539,16.783000946044922z"></path></g><g opacity="1" transform="matrix(1,0,0,1,251.30599975585938,222.70399475097656)"><path stroke-linecap="round" stroke-linejoin="round" fill-opacity="0" stroke="rgb(219,110,0)" stroke-opacity="1" stroke-width="8" d=" M108.3479995727539,16.783000946044922 C108.3479995727539,85.55799865722656 59.42300033569336,140.5540008544922 0.5429999828338623,140.5540008544922 C-58.3380012512207,140.5540008544922 -107.0770034790039,85.55799865722656 -107.0770034790039,16.783000946044922 C-117.91100311279297,-97.55000305175781 -57.58000183105469,-143.5540008544922 0.6359999775886536,-143.5540008544922 C57.32500076293945,-143.5540008544922 108.3479995727539,-125.61499786376953 108.3479995727539,16.783000946044922z"></path></g><g opacity="1" transform="matrix(1,0,0,1,251.94200134277344,246.77000427246094)"><g opacity="1" transform="matrix(1,0,0,1,0,0)"><path fill="url(#__lottie_element_39)" fill-opacity="1" d=" M0.33500000834465027,-55.970001220703125 C-84.94200134277344,-56.770999908447266 -97.81199645996094,-18.746000289916992 -97.81199645996094,-17.09000015258789 C-97.81199645996094,44.93299865722656 -53.56100082397461,96.48600006103516 -0.09300000220537186,96.48600006103516 C53.375,96.48600006103516 97.81199645996094,44.93299865722656 97.81199645996094,-17.09000015258789 C97.81199645996094,-22.551000595092773 85.61199951171875,-55.16899871826172 0.33500000834465027,-55.970001220703125z"></path></g></g></g><g style="display: block;" transform="matrix(1,0,0,1,8.749984741210938,1.75)" opacity="1"><g opacity="1" transform="matrix(1,0,0,1,0,0)"><g opacity="1" transform="matrix(1,0,0,1,0,0)"><g opacity="1" transform="matrix(1,0,0,1,305.0199890136719,185.29600524902344)"><path stroke-linecap="round" stroke-linejoin="round" fill-opacity="0" stroke="rgb(163,65,0)" stroke-opacity="1" stroke-width="13" d=" M-15.770000457763672,-1.2100000381469727 C-15.770000457763672,-1.2100000381469727 0.777999997138977,-5.0289998054504395 15.770000457763672,2.2160000801086426"></path></g><g opacity="1" transform="matrix(1,0,0,1,199.2779998779297,185.29600524902344)"><path stroke-linecap="round" stroke-linejoin="round" fill-opacity="0" stroke="rgb(163,65,0)" stroke-opacity="1" stroke-width="13" d=" M15.770000457763672,-1.2100000381469727 C15.770000457763672,-1.2100000381469727 -0.777999997138977,-5.0289998054504395 -15.770000457763672,2.2160000801086426"></path></g></g><g opacity="1" transform="matrix(1,0,0,1,0,0)"><g opacity="1" transform="matrix(1,0,0,1,0,0)"><g opacity="1" transform="matrix(1,0,0,1,304.406005859375,222.9980010986328)"><path fill="rgb(255,255,255)" fill-opacity="1" d=" M-28.073999404907227,13.859999656677246 C-28.073999404907227,13.859999656677246 -29.545000076293945,-3.056999921798706 -17.545000076293945,-14.050000190734863 C-7.236000061035156,-23.4950008392334 12.17300033569336,-22.56800079345703 21.899999618530273,-10.467000007629395 C29.820999145507812,-0.6140000224113464 27.934999465942383,10.87399959564209 27.934999465942383,10.87399959564209 C27.934999465942383,10.87399959564209 20.027000427246094,19.37700080871582 3.7960000038146973,20.30299949645996 C-16.854000091552734,21.48200035095215 -28.073999404907227,13.859999656677246 -28.073999404907227,13.859999656677246z"></path></g><g opacity="1" transform="matrix(1,0,0,1,303.1109924316406,222.9980010986328)"><path fill="url(#__lottie_element_19)" fill-opacity="1" d=" M17.68000030517578,0 C17.68000030517578,9.763999938964844 9.763999938964844,17.68000030517578 0,17.68000030517578 C-9.763999938964844,17.68000030517578 -17.68000030517578,9.763999938964844 -17.68000030517578,0 C-17.68000030517578,-9.763999938964844 -9.763999938964844,-17.68000030517578 0,-17.68000030517578 C9.763999938964844,-17.68000030517578 17.68000030517578,-9.763999938964844 17.68000030517578,0z"></path></g><g opacity="1" transform="matrix(1,0,0,1,312.1730041503906,232.21499633789062)"><g opacity="1" transform="matrix(1,0,0,1,0,0)"><path fill="url(#__lottie_element_20)" fill-opacity="1" d=" M-4.5329999923706055,7.6570000648498535 C-5.914999961853027,7.6570000648498535 -7.192999839782715,6.765999794006348 -7.622000217437744,5.375999927520752 C-8.14900016784668,3.6700000762939453 -7.191999912261963,1.8589999675750732 -5.485000133514404,1.3329999446868896 C-2.2200000286102295,0.32600000500679016 0.3790000081062317,-2.2109999656677246 1.4670000076293945,-5.452000141143799 C2.0360000133514404,-7.145999908447266 3.871999979019165,-8.055999755859375 5.560999870300293,-7.488999843597412 C7.255000114440918,-6.921000003814697 8.166000366210938,-5.086999893188477 7.5980000495910645,-3.3940000534057617 C5.848999977111816,1.815999984741211 1.6710000038146973,5.894000053405762 -3.5789999961853027,7.513000011444092 C-3.8959999084472656,7.611000061035156 -4.2179999351501465,7.6570000648498535 -4.5329999923706055,7.6570000648498535z"></path></g></g><g opacity="1" transform="matrix(1,0,0,1,303.1109924316406,222.9980010986328)"><path fill="rgb(24,19,9)" fill-opacity="1" d=" M11.173999786376953,0 C11.173999786376953,6.171000003814697 6.171000003814697,11.17300033569336 0,11.17300033569336 C-6.171000003814697,11.17300033569336 -11.173999786376953,6.171000003814697 -11.173999786376953,0 C-11.173999786376953,-6.171000003814697 -6.171000003814697,-11.17300033569336 0,-11.17300033569336 C6.171000003814697,-11.17300033569336 11.173999786376953,-6.171000003814697 11.173999786376953,0z"></path></g><g opacity="1" transform="matrix(1,0,0,1,304.4590148925781,218.9080047607422)"><path fill="rgb(175,57,0)" fill-opacity="1" d=" M-28.12700080871582,17.950000762939453 C-30.40999984741211,0.08699999749660492 -18.863000869750977,-18.216999053955078 0.367000013589859,-17.94700050354004 C17.656999588012695,-17.70400047302246 31.31100082397461,-2.378999948501587 27.881999969482422,14.96500015258789 C28.256000518798828,-1.1380000114440918 16.363000869750977,-14.869000434875488 -0.1469999998807907,-14.67199993133545 C-17.8799991607666,-14.460000038146973 -27.46299934387207,1.753000020980835 -28.12700080871582,17.950000762939453z"></path><path stroke-linecap="round" stroke-linejoin="round" fill-opacity="0" stroke="rgb(175,57,0)" stroke-opacity="1" stroke-width="2" d=" M-28.12700080871582,17.950000762939453 C-30.40999984741211,0.08699999749660492 -18.863000869750977,-18.216999053955078 0.367000013589859,-17.94700050354004 C17.656999588012695,-17.70400047302246 31.31100082397461,-2.378999948501587 27.881999969482422,14.96500015258789 C28.256000518798828,-1.1380000114440918 16.363000869750977,-14.869000434875488 -0.1469999998807907,-14.67199993133545 C-17.8799991607666,-14.460000038146973 -27.46299934387207,1.753000020980835 -28.12700080871582,17.950000762939453z"></path></g></g><g opacity="1" transform="matrix(1,0,0,1,0,0)"><g opacity="1" transform="matrix(1,0,0,1,199.89199829101562,222.9980010986328)"><path fill="rgb(255,255,255)" fill-opacity="1" d=" M28.073999404907227,13.859999656677246 C28.073999404907227,13.859999656677246 29.545000076293945,-3.056999921798706 17.545000076293945,-14.050000190734863 C7.236000061035156,-23.4950008392334 -12.17300033569336,-22.56800079345703 -21.899999618530273,-10.467000007629395 C-29.820999145507812,-0.6140000224113464 -27.934999465942383,10.87399959564209 -27.934999465942383,10.87399959564209 C-27.934999465942383,10.87399959564209 -20.027000427246094,19.37700080871582 -3.7960000038146973,20.30299949645996 C16.854000091552734,21.48200035095215 28.073999404907227,13.859999656677246 28.073999404907227,13.859999656677246z"></path></g><g opacity="1" transform="matrix(1,0,0,1,201.18699645996094,222.9980010986328)"><path fill="url(#__lottie_element_21)" fill-opacity="1" d=" M17.68000030517578,0 C17.68000030517578,9.763999938964844 9.763999938964844,17.68000030517578 0,17.68000030517578 C-9.763999938964844,17.68000030517578 -17.68000030517578,9.763999938964844 -17.68000030517578,0 C-17.68000030517578,-9.763999938964844 -9.763999938964844,-17.68000030517578 0,-17.68000030517578 C9.763999938964844,-17.68000030517578 17.68000030517578,-9.763999938964844 17.68000030517578,0z"></path></g><g opacity="1" transform="matrix(1,0,0,1,210.1790008544922,232.21499633789062)"><g opacity="1" transform="matrix(1,0,0,1,0,0)"><path fill="url(#__lottie_element_22)" fill-opacity="1" d=" M-4.5329999923706055,7.6570000648498535 C-5.914999961853027,7.6570000648498535 -7.192999839782715,6.765999794006348 -7.622000217437744,5.375999927520752 C-8.14900016784668,3.6700000762939453 -7.191999912261963,1.8589999675750732 -5.485000133514404,1.3329999446868896 C-2.2200000286102295,0.32600000500679016 0.3790000081062317,-2.2109999656677246 1.4670000076293945,-5.452000141143799 C2.0350000858306885,-7.145999908447266 3.871000051498413,-8.055999755859375 5.560999870300293,-7.488999843597412 C7.254000186920166,-6.921000003814697 8.166000366210938,-5.086999893188477 7.5980000495910645,-3.3940000534057617 C5.848999977111816,1.815999984741211 1.6710000038146973,5.894000053405762 -3.5789999961853027,7.513000011444092 C-3.8959999084472656,7.611000061035156 -4.2179999351501465,7.6570000648498535 -4.5329999923706055,7.6570000648498535z"></path></g></g><g opacity="1" transform="matrix(1,0,0,1,201.18699645996094,222.9980010986328)"><path fill="rgb(24,19,9)" fill-opacity="1" d=" M11.173999786376953,0 C11.173999786376953,6.171000003814697 6.171000003814697,11.17300033569336 0,11.17300033569336 C-6.171000003814697,11.17300033569336 -11.173999786376953,6.171000003814697 -11.173999786376953,0 C-11.173999786376953,-6.171000003814697 -6.171000003814697,-11.17300033569336 0,-11.17300033569336 C6.171000003814697,-11.17300033569336 11.173999786376953,-6.171000003814697 11.173999786376953,0z"></path></g><g opacity="1" transform="matrix(1,0,0,1,199.83900451660156,218.9080047607422)"><path fill="rgb(175,57,0)" fill-opacity="1" d=" M28.12700080871582,17.950000762939453 C30.40999984741211,0.08699999749660492 18.863000869750977,-18.216999053955078 -0.367000013589859,-17.94700050354004 C-17.656999588012695,-17.70400047302246 -31.31100082397461,-2.378999948501587 -27.881999969482422,14.96500015258789 C-28.256000518798828,-1.1380000114440918 -16.363000869750977,-14.869000434875488 0.1469999998807907,-14.67199993133545 C17.8799991607666,-14.460000038146973 27.46299934387207,1.753000020980835 28.12700080871582,17.950000762939453z"></path><path stroke-linecap="round" stroke-linejoin="round" fill-opacity="0" stroke="rgb(175,57,0)" stroke-opacity="1" stroke-width="2" d=" M28.12700080871582,17.950000762939453 C30.40999984741211,0.08699999749660492 18.863000869750977,-18.216999053955078 -0.367000013589859,-17.94700050354004 C-17.656999588012695,-17.70400047302246 -31.31100082397461,-2.378999948501587 -27.881999969482422,14.96500015258789 C-28.256000518798828,-1.1380000114440918 -16.363000869750977,-14.869000434875488 0.1469999998807907,-14.67199993133545 C17.8799991607666,-14.460000038146973 27.46299934387207,1.753000020980835 28.12700080871582,17.950000762939453z"></path></g></g></g><g opacity="1" transform="matrix(1,0,0,1,0,0)"><g opacity="0.5" transform="matrix(1,0,0,1,251.9029998779297,325.5840148925781)"><path fill="url(#__lottie_element_23)" fill-opacity="1" d=" M24.371999740600586,-4.915999889373779 C24.371999740600586,-0.6259999871253967 13.460000038146973,6.5929999351501465 0,6.5929999351501465 C-13.460000038146973,6.5929999351501465 -24.371999740600586,-0.6259999871253967 -24.371999740600586,-4.915999889373779 C-24.371999740600586,-9.206000328063965 -13.460000038146973,-3.9089999198913574 0,-3.9089999198913574 C13.460000038146973,-3.9089999198913574 24.371999740600586,-9.206000328063965 24.371999740600586,-4.915999889373779z"></path></g><g opacity="0.7000000000000001" transform="matrix(1,0,0,1,251.5290069580078,310.1960144042969)"><path fill="url(#__lottie_element_24)" fill-opacity="1" d=" M32.14799880981445,-5.36299991607666 C32.14799880981445,2.691999912261963 17.7549991607666,11.404000282287598 0,11.404000282287598 C-17.7549991607666,11.404000282287598 -32.14799880981445,2.691999912261963 -32.14799880981445,-5.36299991607666 C-32.14799880981445,-13.418000221252441 32.14799880981445,-13.418000221252441 32.14799880981445,-5.36299991607666z"></path></g><g opacity="1" transform="matrix(1,0,0,1,251.5290069580078,294.2300109863281)"><path fill="url(#__lottie_element_25)" fill-opacity="1" d=" M34.391998291015625,-14.13599967956543 C34.391998291015625,-14.13599967956543 -33.64099884033203,-14.13599967956543 -33.64099884033203,-14.13599967956543 C-46.237998962402344,-14.13599967956543 -59.66999816894531,-2.11299991607666 -59.66999816894531,11.678000450134277 C-59.66999816894531,13.005000114440918 -58.683998107910156,14.13599967956543 -57.28200149536133,14.13599967956543 C-57.28200149536133,14.13599967956543 57.28200149536133,14.13599967956543 57.28200149536133,14.13599967956543 C58.683998107910156,14.13599967956543 59.66999816894531,13.005000114440918 59.66999816894531,11.678000450134277 C59.66999816894531,-0.5889999866485596 46.98899841308594,-14.13599967956543 34.391998291015625,-14.13599967956543z"></path></g><g opacity="1" transform="matrix(1,0,0,1,251.5290069580078,307.718994140625)"><path fill="rgb(136,24,4)" fill-opacity="1" d=" M-28.01300048828125,-3.5339999198913574 C-28.01300048828125,-2.059999942779541 -27.408000946044922,-0.6520000100135803 -26.274999618530273,0.6460000276565552 C-22.336999893188477,5.255000114440918 -12.062999725341797,8.534000396728516 -0.006000000052154064,8.534000396728516 C12.062000274658203,8.534000396728516 22.336999893188477,5.255000114440918 26.274999618530273,0.6460000276565552 C27.408000946044922,-0.6520000100135803 28.01300048828125,-2.059999942779541 28.01300048828125,-3.5339999198913574 C28.01300048828125,-10.201000213623047 -28.01300048828125,-10.201000213623047 -28.01300048828125,-3.5339999198913574z"></path></g><g opacity="1" transform="matrix(1,0,0,1,251.5290069580078,307.718994140625)"><path fill="url(#__lottie_element_26)" fill-opacity="1" d=" M-28.01300048828125,-3.5339999198913574 C-28.01300048828125,-2.059999942779541 -27.408000946044922,-0.6520000100135803 -26.274999618530273,0.6460000276565552 C-22.336999893188477,5.255000114440918 -12.062999725341797,8.534000396728516 -0.006000000052154064,8.534000396728516 C12.062000274658203,8.534000396728516 22.336999893188477,5.255000114440918 26.274999618530273,0.6460000276565552 C27.408000946044922,-0.6520000100135803 28.01300048828125,-2.059999942779541 28.01300048828125,-3.5339999198913574 C28.01300048828125,-10.201000213623047 -28.01300048828125,-10.201000213623047 -28.01300048828125,-3.5339999198913574z"></path></g><g opacity="1" transform="matrix(1,0,0,1,251.5290069580078,293.6409912109375)"><path fill="rgb(255,206,1)" fill-opacity="1" d=" M30.30699920654297,-10.545000076293945 C30.30699920654297,-10.545000076293945 -30.30699920654297,-10.545000076293945 -30.30699920654297,-10.545000076293945 C-42.185001373291016,-10.545000076293945 -54.1609992980957,-2.2929999828338623 -55.3849983215332,8.29800033569336 C-55.52399826049805,9.503000259399414 -54.45600128173828,10.545000076293945 -53.13399887084961,10.545000076293945 C-53.13399887084961,10.545000076293945 53.132999420166016,10.545000076293945 53.132999420166016,10.545000076293945 C54.45500183105469,10.545000076293945 55.52399826049805,9.503000259399414 55.3849983215332,8.29800033569336 C54.1609992980957,-2.2929999828338623 42.185001373291016,-10.545000076293945 30.30699920654297,-10.545000076293945z"></path></g><g opacity="1" transform="matrix(1,0,0,1,251.5290069580078,293.6409912109375)"><path fill="url(#__lottie_element_27)" fill-opacity="1" d=" M30.30699920654297,-10.545000076293945 C30.30699920654297,-10.545000076293945 -30.30699920654297,-10.545000076293945 -30.30699920654297,-10.545000076293945 C-42.185001373291016,-10.545000076293945 -54.1609992980957,-2.2929999828338623 -55.3849983215332,8.29800033569336 C-55.52399826049805,9.503000259399414 -54.45600128173828,10.545000076293945 -53.13399887084961,10.545000076293945 C-53.13399887084961,10.545000076293945 53.132999420166016,10.545000076293945 53.132999420166016,10.545000076293945 C54.45500183105469,10.545000076293945 55.52399826049805,9.503000259399414 55.3849983215332,8.29800033569336 C54.1609992980957,-2.2929999828338623 42.185001373291016,-10.545000076293945 30.30699920654297,-10.545000076293945z"></path></g><g opacity="1" transform="matrix(1,0,0,1,251.5290069580078,298.1340026855469)"><path fill="url(#__lottie_element_28)" fill-opacity="1" d=" M55.382999420166016,3.805999994277954 C55.5260009765625,5.005000114440918 54.45899963378906,6.050000190734863 53.138999938964844,6.050000190734863 C53.138999938964844,6.050000190734863 -53.138999938964844,6.050000190734863 -53.138999938964844,6.050000190734863 C-54.45899963378906,6.050000190734863 -55.5260009765625,5.005000114440918 -55.382999420166016,3.805999994277954 C-54.96500015258789,0.16500000655651093 -53.270999908447266,-3.2009999752044678 -50.75199890136719,-6.050000190734863 C-51.51100158691406,-4.4770002365112305 -53.09700012207031,1.0219999551773071 -50.10200119018555,1.0449999570846558 C-50.10200119018555,1.0449999570846558 50.10300064086914,1.0449999570846558 50.10300064086914,1.0449999570846558 C53.64799880981445,1.0809999704360962 51.52199935913086,-4.4770002365112305 50.75199890136719,-6.050000190734863 C53.28200149536133,-3.2009999752044678 54.96500015258789,0.16500000655651093 55.382999420166016,3.805999994277954z"></path></g></g><g opacity="1" transform="matrix(1,0,0,1,0,0)"><g opacity="1" transform="matrix(1,0,0,1,251.94200134277344,277.8219909667969)"><path fill="url(#__lottie_element_29)" fill-opacity="1" d=" M21.90399932861328,-5.144999980926514 C21.90399932861328,4.556000232696533 13.312000274658203,12.420999526977539 0,12.420999526977539 C-13.312000274658203,12.420999526977539 -21.90399932861328,4.556000232696533 -21.90399932861328,-5.144999980926514 C-21.90399932861328,-14.845999717712402 21.90399932861328,-14.845999717712402 21.90399932861328,-5.144999980926514z"></path></g><g opacity="0.8" transform="matrix(1,0,0,1,251.94200134277344,269.5690002441406)"><path fill="rgb(255,168,0)" fill-opacity="1" d=" M22.363000869750977,-0.19200000166893005 C22.363000869750977,8.807999610900879 12.350000381469727,16.104999542236328 0,16.104999542236328 C-12.35099983215332,16.104999542236328 -22.363000869750977,8.807999610900879 -22.363000869750977,-0.19200000166893005 C-22.363000869750977,-9.192999839782715 -12.35099983215332,-16.104999542236328 0,-16.104999542236328 C12.350000381469727,-16.104999542236328 22.363000869750977,-9.192999839782715 22.363000869750977,-0.19200000166893005z"></path></g><g opacity="1" transform="matrix(1,0,0,1,251.94200134277344,269.5690002441406)"><path fill="url(#__lottie_element_30)" fill-opacity="1" d=" M22.363000869750977,-0.19200000166893005 C22.363000869750977,8.807999610900879 12.350000381469727,16.104999542236328 0,16.104999542236328 C-12.35099983215332,16.104999542236328 -22.363000869750977,8.807999610900879 -22.363000869750977,-0.19200000166893005 C-22.363000869750977,-9.192999839782715 -12.35099983215332,-16.104999542236328 0,-16.104999542236328 C12.350000381469727,-16.104999542236328 22.363000869750977,-9.192999839782715 22.363000869750977,-0.19200000166893005z"></path></g><g opacity="1" transform="matrix(1,0,0,1,251.94200134277344,265.6700134277344)"><path fill="rgb(255,216,0)" fill-opacity="1" d=" M20.351999282836914,-0.6000000238418579 C20.351999282836914,6.099999904632568 10.684000015258789,12.538999557495117 0,12.538999557495117 C-10.684000015258789,12.538999557495117 -20.351999282836914,6.099999904632568 -20.351999282836914,-0.6000000238418579 C-20.351999282836914,-7.300000190734863 -10.684000015258789,-12.538999557495117 0,-12.538999557495117 C10.684000015258789,-12.538999557495117 20.351999282836914,-7.300000190734863 20.351999282836914,-0.6000000238418579z"></path></g><g opacity="1" transform="matrix(1,0,0,1,251.94200134277344,265.6700134277344)"><path fill="url(#__lottie_element_31)" fill-opacity="1" d=" M20.351999282836914,-0.6000000238418579 C20.351999282836914,6.099999904632568 10.684000015258789,12.538999557495117 0,12.538999557495117 C-10.684000015258789,12.538999557495117 -20.351999282836914,6.099999904632568 -20.351999282836914,-0.6000000238418579 C-20.351999282836914,-7.300000190734863 -10.684000015258789,-12.538999557495117 0,-12.538999557495117 C10.684000015258789,-12.538999557495117 20.351999282836914,-7.300000190734863 20.351999282836914,-0.6000000238418579z"></path></g><g opacity="0.7000000000000001" transform="matrix(1,0,0,1,251.94200134277344,261.7430114746094)"><path fill="url(#__lottie_element_32)" fill-opacity="1" d=" M9.079999923706055,-0.9980000257492065 C9.079999923706055,3.5490000247955322 5.014999866485596,7.826000213623047 0,7.826000213623047 C-5.014999866485596,7.826000213623047 -9.079999923706055,3.5490000247955322 -9.079999923706055,-0.9980000257492065 C-9.079999923706055,-5.545000076293945 -5.014999866485596,-7.826000213623047 0,-7.826000213623047 C5.014999866485596,-7.826000213623047 9.079999923706055,-5.545000076293945 9.079999923706055,-0.9980000257492065z"></path></g></g></g><g opacity="1" transform="matrix(1,0,0,1,195.95399475097656,213.36399841308594)"><path fill="url(#__lottie_element_33)" fill-opacity="1" d=" M4.2820000648498535,0 C4.2820000648498535,2.50600004196167 2.365000009536743,4.5370001792907715 0,4.5370001792907715 C-2.365000009536743,4.5370001792907715 -4.2820000648498535,2.50600004196167 -4.2820000648498535,0 C-4.2820000648498535,-2.50600004196167 -2.365000009536743,-4.5370001792907715 0,-4.5370001792907715 C2.365000009536743,-4.5370001792907715 4.2820000648498535,-2.50600004196167 4.2820000648498535,0z"></path></g><g opacity="1" transform="matrix(1,0,0,1,297.87799072265625,213.36399841308594)"><path fill="url(#__lottie_element_34)" fill-opacity="1" d=" M4.2820000648498535,0 C4.2820000648498535,2.50600004196167 2.365000009536743,4.5370001792907715 0,4.5370001792907715 C-2.365000009536743,4.5370001792907715 -4.2820000648498535,2.50600004196167 -4.2820000648498535,0 C-4.2820000648498535,-2.50600004196167 -2.365000009536743,-4.5370001792907715 0,-4.5370001792907715 C2.365000009536743,-4.5370001792907715 4.2820000648498535,-2.50600004196167 4.2820000648498535,0z"></path></g></g><g style="display: block;" transform="matrix(1,0,0,1,0,0)" opacity="1"><g opacity="1" transform="matrix(1.012179970741272,0,0,1,-1.19488525390625,0)"><g opacity="1" transform="matrix(1,0,0,1,258.3550109863281,241.6790008544922)"><path fill="url(#__lottie_element_6)" fill-opacity="1" d=" M114.197998046875,-30.625 C114.197998046875,-30.625 120.4749984741211,-53.915000915527344 120.4749984741211,-72.33599853515625 C120.4749984741211,-90.75800323486328 61.334999084472656,-121.67900085449219 61.334999084472656,-121.67900085449219 C61.334999084472656,-121.67900085449219 -61.334999084472656,-121.67900085449219 -61.334999084472656,-121.67900085449219 C-61.334999084472656,-121.67900085449219 -120.4749984741211,-90.75800323486328 -120.4749984741211,-72.33599853515625 C-120.4749984741211,-53.915000915527344 -114.1969985961914,-30.625 -114.1969985961914,-30.625 C-114.1969985961914,-30.625 -123.11799621582031,-25.95400047302246 -123.11799621582031,-18.388999938964844 C-123.11799621582031,-10.822999954223633 -123.59600067138672,15.756999969482422 -119.96099853515625,29.243999481201172 C-116.3270034790039,42.73099899291992 -106.41500091552734,42.073001861572266 -106.41500091552734,42.073001861572266 C-106.41500091552734,42.073001861572266 -103.48100280761719,56.62900161743164 -87.375,78.09300231933594 C-84.84100341796875,81.46900177001953 -81.55699920654297,85.07099914550781 -78.30899810791016,88.37000274658203 C-79.75199890136719,86.74500274658203 -81.43399810791016,85.22000122070312 -82.56900024414062,83.25599670410156 C-106.50900268554688,41.82099914550781 -101.11799621582031,-13.145000457763672 -97.63899993896484,-32.4119987487793 C-94.16000366210938,-51.67900085449219 -81.85900115966797,-65.86299896240234 -62.928001403808594,-74.01200103759766 C-38.14799880981445,-84.67900085449219 0,-83.67900085449219 0,-83.67900085449219 C0,-83.67900085449219 38.14799880981445,-84.67900085449219 62.928001403808594,-74.01200103759766 C81.85900115966797,-65.86299896240234 95.302001953125,-51.14500045776367 99.61499786376953,-32.4119987487793 C103.9280014038086,-13.678999900817871 106.64399719238281,41.82099914550781 82.56900024414062,83.20899963378906 C81.42900085449219,85.16899871826172 79.75199890136719,86.697998046875 78.30899810791016,88.3239974975586 C81.55699920654297,85.02400207519531 84.84100341796875,81.4229965209961 87.375,78.0459976196289 C103.48200225830078,56.582000732421875 106.41500091552734,42.0260009765625 106.41500091552734,42.0260009765625 C106.41500091552734,42.0260009765625 116.3270034790039,42.683998107910156 119.96199798583984,29.19700050354004 C123.59600067138672,15.710000038146973 123.11799621582031,-10.822999954223633 123.11799621582031,-18.388999938964844 C123.11799621582031,-25.95400047302246 114.197998046875,-30.625 114.197998046875,-30.625z M-1.3930000066757202,121.67900085449219 C-1.3930000066757202,121.67900085449219 1.3930000066757202,121.67900085449219 1.3930000066757202,121.67900085449219 C0.4860000014305115,121.67900085449219 0,121.65399932861328 0,121.65399932861328 C0,121.65399932861328 -0.4860000014305115,121.67900085449219 -1.3930000066757202,121.67900085449219z"></path></g></g><g opacity="1" transform="matrix(1,0,0,1,0,0)"><g opacity="1" transform="matrix(1,0,0,1,262.4389953613281,138.8470001220703)"><path fill="rgb(19,15,11)" fill-opacity="1" d=" M0,-79.91300201416016 C-83.49600219726562,-79.91300201416016 -151.18299865722656,-11.262999534606934 -151.18299865722656,73.41999816894531 C-151.18299865722656,75.59600067138672 -151.1280059814453,77.75900268554688 -151.03900146484375,79.91300201416016 C-129.43800354003906,50.65299987792969 -65.11799621582031,12.913000106811523 -0.0020000000949949026,12.913000106811523 C65.11399841308594,12.913000106811523 133.56100463867188,56.90299987792969 151.03799438476562,79.91300201416016 C151.1269989013672,77.75900268554688 151.1840057373047,75.59600067138672 151.1840057373047,73.41999816894531 C151.1840057373047,-11.262999534606934 83.49600219726562,-79.91300201416016 0,-79.91300201416016z"></path></g></g><g opacity="1" transform="matrix(1,0,0,1,0,0)"><g opacity="1" transform="matrix(1,0,0,1,262.4389953613281,138.8470001220703)"><path fill="url(#__lottie_element_7)" fill-opacity="1" d=" M0,-79.91300201416016 C-83.49600219726562,-79.91300201416016 -151.18299865722656,-11.262999534606934 -151.18299865722656,73.41999816894531 C-151.18299865722656,75.59600067138672 -151.1280059814453,77.75900268554688 -151.03900146484375,79.91300201416016 C-121.78299713134766,25.829999923706055 -65.11599731445312,-10.836999893188477 0,-10.836999893188477 C65.11599731445312,-10.836999893188477 121.78199768066406,25.829999923706055 151.03799438476562,79.91300201416016 C151.1269989013672,77.75900268554688 151.1840057373047,75.59600067138672 151.1840057373047,73.41999816894531 C151.1840057373047,-11.262999534606934 83.49600219726562,-79.91300201416016 0,-79.91300201416016z"></path><path stroke-linecap="round" stroke-linejoin="round" fill-opacity="0" stroke="rgb(62,56,52)" stroke-opacity="1" stroke-width="8" d=" M0,-79.91300201416016 C-83.49600219726562,-79.91300201416016 -151.18299865722656,-11.262999534606934 -151.18299865722656,73.41999816894531 C-151.18299865722656,75.59600067138672 -151.1280059814453,77.75900268554688 -151.03900146484375,79.91300201416016 C-121.78299713134766,25.829999923706055 -65.11599731445312,-10.836999893188477 0,-10.836999893188477 C65.11599731445312,-10.836999893188477 121.78199768066406,25.829999923706055 151.03799438476562,79.91300201416016 C151.1269989013672,77.75900268554688 151.1840057373047,75.59600067138672 151.1840057373047,73.41999816894531 C151.1840057373047,-11.262999534606934 83.49600219726562,-79.91300201416016 0,-79.91300201416016z"></path></g></g><g opacity="1" transform="matrix(1,0,0,1,0,0)"><g opacity="1" transform="matrix(1,0,0,1,-3,0)"><g opacity="1" transform="matrix(1,0,0,1,432.62200927734375,209.63800048828125)"><path fill="url(#__lottie_element_8)" fill-opacity="1" d=" M17,-33.25 C15,-38 13.5,-40.5 10.5,-40.5 C10.5,-40.5 -1,-40.5 -1,-40.5 C-3.5,-40.5 -7,-39 -11.25,-35.75 C-15.5,-32.5 -19,-26 -19,-26 C-19,-26 -19,26 -19,26 C-19,26 -15.5,32.5 -11.25,35.75 C-7,39 -3.5,40.5 -1,40.5 C-1,40.5 10.5,40.5 10.5,40.5 C13.5,40.5 15,38 17,33.25 C19,28.5 19,25.33300018310547 19,0 C19,-25.33300018310547 19,-28.5 17,-33.25z"></path><path stroke-linecap="round" stroke-linejoin="round" fill-opacity="0" stroke="rgb(102,102,102)" stroke-opacity="1" stroke-width="8" d=" M17,-33.25 C15,-38 13.5,-40.5 10.5,-40.5 C10.5,-40.5 -1,-40.5 -1,-40.5 C-3.5,-40.5 -7,-39 -11.25,-35.75 C-15.5,-32.5 -19,-26 -19,-26 C-19,-26 -19,26 -19,26 C-19,26 -15.5,32.5 -11.25,35.75 C-7,39 -3.5,40.5 -1,40.5 C-1,40.5 10.5,40.5 10.5,40.5 C13.5,40.5 15,38 17,33.25 C19,28.5 19,25.33300018310547 19,0 C19,-25.33300018310547 19,-28.5 17,-33.25z"></path></g></g><g opacity="1" transform="matrix(1,0,0,1,-3,0)"><g opacity="1" transform="matrix(1,0,0,1,425.7879943847656,209.63800048828125)"><path fill="url(#__lottie_element_9)" fill-opacity="1" d=" M12.666999816894531,24.827999114990234 C12.666999816894531,24.827999114990234 -12.666999816894531,24.827999114990234 -12.666999816894531,24.827999114990234 C-12.666999816894531,24.827999114990234 -12.666999816894531,-24.827999114990234 -12.666999816894531,-24.827999114990234 C-12.666999816894531,-24.827999114990234 12.666999816894531,-24.827999114990234 12.666999816894531,-24.827999114990234 C12.666999816894531,-24.827999114990234 12.666999816894531,24.827999114990234 12.666999816894531,24.827999114990234z"></path><path stroke-linecap="round" stroke-linejoin="round" fill-opacity="0" stroke="rgb(41,41,41)" stroke-opacity="1" stroke-width="8" d=" M12.666999816894531,24.827999114990234 C12.666999816894531,24.827999114990234 -12.666999816894531,24.827999114990234 -12.666999816894531,24.827999114990234 C-12.666999816894531,24.827999114990234 -12.666999816894531,-24.827999114990234 -12.666999816894531,-24.827999114990234 C-12.666999816894531,-24.827999114990234 12.666999816894531,-24.827999114990234 12.666999816894531,-24.827999114990234 C12.666999816894531,-24.827999114990234 12.666999816894531,24.827999114990234 12.666999816894531,24.827999114990234z"></path></g></g></g><g opacity="1" transform="matrix(1,0,0,1,2.5,0)"><g opacity="1" transform="matrix(1,0,0,1,0,0)"><g opacity="1" transform="matrix(1,0,0,1,91.99199676513672,212.26699829101562)"><path fill="url(#__lottie_element_10)" fill-opacity="1" d=" M-17,-33.25 C-15,-38 -13.5,-40.5 -10.5,-40.5 C-10.5,-40.5 1,-40.5 1,-40.5 C3.5,-40.5 7,-39 11.25,-35.75 C15.5,-32.5 19,-26 19,-26 C19,-26 19,26 19,26 C19,26 15.5,32.5 11.25,35.75 C7,39 3.5,40.5 1,40.5 C1,40.5 -10.5,40.5 -10.5,40.5 C-13.5,40.5 -15,38 -17,33.25 C-19,28.5 -19,25.33300018310547 -19,0 C-19,-25.33300018310547 -19,-28.5 -17,-33.25z"></path><path stroke-linecap="round" stroke-linejoin="round" fill-opacity="0" stroke="rgb(102,102,102)" stroke-opacity="1" stroke-width="8" d=" M-17,-33.25 C-15,-38 -13.5,-40.5 -10.5,-40.5 C-10.5,-40.5 1,-40.5 1,-40.5 C3.5,-40.5 7,-39 11.25,-35.75 C15.5,-32.5 19,-26 19,-26 C19,-26 19,26 19,26 C19,26 15.5,32.5 11.25,35.75 C7,39 3.5,40.5 1,40.5 C1,40.5 -10.5,40.5 -10.5,40.5 C-13.5,40.5 -15,38 -17,33.25 C-19,28.5 -19,25.33300018310547 -19,0 C-19,-25.33300018310547 -19,-28.5 -17,-33.25z"></path></g></g><g opacity="1" transform="matrix(1,0,0,1,0.5,0)"><g opacity="1" transform="matrix(1,0,0,1,98.3239974975586,212.26699829101562)"><path fill="url(#__lottie_element_11)" fill-opacity="1" d=" M-12.666999816894531,24.827999114990234 C-12.666999816894531,24.827999114990234 12.666999816894531,24.827999114990234 12.666999816894531,24.827999114990234 C12.666999816894531,24.827999114990234 12.666999816894531,-24.827999114990234 12.666999816894531,-24.827999114990234 C12.666999816894531,-24.827999114990234 -12.666999816894531,-24.827999114990234 -12.666999816894531,-24.827999114990234 C-12.666999816894531,-24.827999114990234 -12.666999816894531,24.827999114990234 -12.666999816894531,24.827999114990234z"></path><path stroke-linecap="round" stroke-linejoin="round" fill-opacity="0" stroke="rgb(41,41,41)" stroke-opacity="1" stroke-width="8" d=" M-12.666999816894531,24.827999114990234 C-12.666999816894531,24.827999114990234 12.666999816894531,24.827999114990234 12.666999816894531,24.827999114990234 C12.666999816894531,24.827999114990234 12.666999816894531,-24.827999114990234 12.666999816894531,-24.827999114990234 C12.666999816894531,-24.827999114990234 -12.666999816894531,-24.827999114990234 -12.666999816894531,-24.827999114990234 C-12.666999816894531,-24.827999114990234 -12.666999816894531,24.827999114990234 -12.666999816894531,24.827999114990234z"></path></g></g></g><g opacity="1" transform="matrix(1,0,0,1,0,0)"><g opacity="1" transform="matrix(1,0,0,1,0,0)"><g opacity="1" transform="matrix(1,0,0,1,361.0090026855469,322.5)"><path fill="url(#__lottie_element_12)" fill-opacity="1" d=" M27.628999710083008,-25.25 C27.628999710083008,-25.25 -0.6200000047683716,-25.25 -0.6200000047683716,-25.25 C-0.6200000047683716,-25.25 -27.628999710083008,-0.5 -27.628999710083008,-0.5 C-27.628999710083008,-0.5 -25.150999069213867,25.25 -25.150999069213867,25.25 C-25.150999069213867,25.25 -13.008999824523926,18.5 2.3540000915527344,4.25 C17.716999053955078,-10 27.628999710083008,-25.25 27.628999710083008,-25.25z"></path><path stroke-linecap="round" stroke-linejoin="round" fill-opacity="0" stroke="rgb(101,101,101)" stroke-opacity="1" stroke-width="8" d=" M27.628999710083008,-25.25 C27.628999710083008,-25.25 -0.6200000047683716,-25.25 -0.6200000047683716,-25.25 C-0.6200000047683716,-25.25 -27.628999710083008,-0.5 -27.628999710083008,-0.5 C-27.628999710083008,-0.5 -25.150999069213867,25.25 -25.150999069213867,25.25 C-25.150999069213867,25.25 -13.008999824523926,18.5 2.3540000915527344,4.25 C17.716999053955078,-10 27.628999710083008,-25.25 27.628999710083008,-25.25z"></path></g></g><g opacity="1" transform="matrix(1,0,0,1,0,0)"><g opacity="1" transform="matrix(1,0,0,1,319.24700927734375,332.83099365234375)"><path fill="url(#__lottie_element_13)" fill-opacity="1" d=" M-27.599000930786133,12.508000373840332 C-28.018999099731445,12.508000373840332 -28.440000534057617,12.505999565124512 -28.86400032043457,12.501999855041504 C-31.601999282836914,12.47700023651123 -33.79999923706055,10.218000411987305 -33.775001525878906,7.455999851226807 C-33.749000549316406,4.695000171661377 -31.479999542236328,2.4820001125335693 -28.773000717163086,2.502000093460083 C5.054999828338623,2.811000108718872 25.163999557495117,-10.810999870300293 25.36199951171875,-10.947999954223633 C27.618000030517578,-12.508000373840332 30.698999404907227,-11.932999610900879 32.25,-9.663999557495117 C33.79999923706055,-7.39300012588501 33.24300003051758,-4.290999889373779 30.996999740600586,-2.7209999561309814 C30.097999572753906,-2.0929999351501465 8.788999557495117,12.508000373840332 -27.599000930786133,12.508000373840332z"></path><path stroke-linecap="butt" stroke-linejoin="miter" fill-opacity="0" stroke-miterlimit="4" stroke="rgb(40,40,40)" stroke-opacity="1" stroke-width="6" d=" M-27.599000930786133,12.508000373840332 C-28.018999099731445,12.508000373840332 -28.440000534057617,12.505999565124512 -28.86400032043457,12.501999855041504 C-31.601999282836914,12.47700023651123 -33.79999923706055,10.218000411987305 -33.775001525878906,7.455999851226807 C-33.749000549316406,4.695000171661377 -31.479999542236328,2.4820001125335693 -28.773000717163086,2.502000093460083 C5.054999828338623,2.811000108718872 25.163999557495117,-10.810999870300293 25.36199951171875,-10.947999954223633 C27.618000030517578,-12.508000373840332 30.698999404907227,-11.932999610900879 32.25,-9.663999557495117 C33.79999923706055,-7.39300012588501 33.24300003051758,-4.290999889373779 30.996999740600586,-2.7209999561309814 C30.097999572753906,-2.0929999351501465 8.788999557495117,12.508000373840332 -27.599000930786133,12.508000373840332z"></path></g></g></g><g opacity="1" transform="matrix(1,0,0,0.9498299956321716,333,249.73980712890625)"><g opacity="1" transform="matrix(1.0491100549697876,0,0,1.0891400575637817,-70,-96.25)"><path fill="url(#__lottie_element_14)" fill-opacity="1" d=" M0,-90.25 C61.85599899291992,-90.25 112,-44.2859992980957 112,5.558000087738037 C112,13.133000373840332 82.45099639892578,-34.7239990234375 0,-35.2239990234375 C-82.45099639892578,-35.7239990234375 -111.52300262451172,14.510000228881836 -112,5.558000087738037 C-112,-44.2859992980957 -61.85599899291992,-90.25 0,-90.25z"></path></g></g><g opacity="1" transform="matrix(1.051990032196045,0,0,1,256,256)"><g opacity="1" transform="matrix(0.9599999785423279,0,0,1,6.5,-39)"><path fill="url(#__lottie_element_15)" fill-opacity="1" d=" M0,-69 C75.61029815673828,-69 137,-38.08110046386719 137,0 C137,38.08110046386719 75.61029815673828,69 0,69 C-75.61029815673828,69 -137,38.08110046386719 -137,0 C-137,-38.08110046386719 -75.61029815673828,-69 0,-69z"></path></g></g></g></g></svg>