<svg xmlns="http://www.w3.org/2000/svg" xmlns:xlink="http://www.w3.org/1999/xlink" viewBox="0 0 512 512" width="512" height="512" style="width: 100%; height: 100%; transform: translate3d(0,0,0); content-visibility: visible;" preserveAspectRatio="xMidYMid meet"><defs><clipPath id="__lottie_element_2"><rect width="512" height="512" x="0" y="0"></rect></clipPath><linearGradient id="__lottie_element_7" spreadMethod="pad" gradientUnits="userSpaceOnUse" x1="-32.42599868774414" y1="-114.8030014038086" x2="-10.736000061035156" y2="-14.21500015258789"><stop offset="0%" stop-color="rgb(219,110,0)" stop-opacity="1"></stop><stop offset="38%" stop-color="rgb(219,110,0)" stop-opacity="0.5"></stop><stop offset="70%" stop-color="rgb(219,110,0)" stop-opacity="0"></stop></linearGradient><linearGradient id="__lottie_element_8" spreadMethod="pad" gradientUnits="userSpaceOnUse" x1="-3.9260001182556152" y1="-97.8550033569336" x2="-3.9260001182556152" y2="181.4320068359375"><stop offset="6%" stop-color="rgb(255,216,0)" stop-opacity="0"></stop><stop offset="15%" stop-color="rgb(255,216,0)" stop-opacity="0.5"></stop><stop offset="50%" stop-color="rgb(255,216,0)" stop-opacity="1"></stop><stop offset="89%" stop-color="rgb(255,216,0)" stop-opacity="0.5"></stop><stop offset="100%" stop-color="rgb(255,216,0)" stop-opacity="0"></stop></linearGradient><linearGradient id="__lottie_element_11" spreadMethod="pad" gradientUnits="userSpaceOnUse" x1="-5.926000118255615" y1="-123.3030014038086" x2="-5.926000118255615" y2="-25.253999710083008"><stop offset="10%" stop-color="rgb(255,169,0)" stop-opacity="0"></stop><stop offset="46%" stop-color="rgb(255,169,0)" stop-opacity="0.5"></stop><stop offset="100%" stop-color="rgb(255,169,0)" stop-opacity="1"></stop></linearGradient><linearGradient id="__lottie_element_12" spreadMethod="pad" gradientUnits="userSpaceOnUse" x1="-4.275000095367432" y1="8.949999809265137" x2="-4.275000095367432" y2="-199.22900390625"><stop offset="8%" stop-color="rgb(218,110,0)" stop-opacity="0.30000001192092896"></stop><stop offset="26%" stop-color="rgb(218,110,0)" stop-opacity="0.6499999761581421"></stop><stop offset="45%" stop-color="rgb(218,110,0)" stop-opacity="1"></stop><stop offset="58%" stop-color="rgb(218,110,0)" stop-opacity="0.5"></stop><stop offset="80%" stop-color="rgb(218,110,0)" stop-opacity="0"></stop></linearGradient><linearGradient id="__lottie_element_13" spreadMethod="pad" gradientUnits="userSpaceOnUse" x1="-157.92599487304688" y1="-130.30299377441406" x2="-141.74600219726562" y2="-87.10299682617188"><stop offset="0%" stop-color="rgb(255,255,255)" stop-opacity="1"></stop><stop offset="50%" stop-color="rgb(255,255,255)" stop-opacity="0.5"></stop><stop offset="100%" stop-color="rgb(255,255,255)" stop-opacity="0"></stop></linearGradient><linearGradient id="__lottie_element_14" spreadMethod="pad" gradientUnits="userSpaceOnUse" x1="-5.203999996185303" y1="-182.23800659179688" x2="1.7790000438690186" y2="-102.38700103759766"><stop offset="0%" stop-color="rgb(255,255,255)" stop-opacity="1"></stop><stop offset="50%" stop-color="rgb(255,255,255)" stop-opacity="0.5"></stop><stop offset="100%" stop-color="rgb(255,255,255)" stop-opacity="0"></stop></linearGradient><linearGradient id="__lottie_element_18" spreadMethod="pad" gradientUnits="userSpaceOnUse" x1="-3.9260001182556152" y1="89.5719985961914" x2="-3.9260001182556152" y2="111.40899658203125"><stop offset="0%" stop-color="rgb(255,168,0)" stop-opacity="1"></stop><stop offset="65%" stop-color="rgb(255,168,0)" stop-opacity="0.5"></stop><stop offset="100%" stop-color="rgb(255,168,0)" stop-opacity="0"></stop></linearGradient><linearGradient id="__lottie_element_19" spreadMethod="pad" gradientUnits="userSpaceOnUse" x1="-3.9260001182556152" y1="99.6969985961914" x2="-3.9260001182556152" y2="72.13500213623047"><stop offset="10%" stop-color="rgb(219,110,0)" stop-opacity="1"></stop><stop offset="51%" stop-color="rgb(219,110,0)" stop-opacity="0.5"></stop><stop offset="80%" stop-color="rgb(219,110,0)" stop-opacity="0"></stop></linearGradient><radialGradient id="__lottie_element_20" spreadMethod="pad" gradientUnits="userSpaceOnUse" cx="-4.926000118255615" cy="62.696998596191406" r="35.147000789642334" fx="-4.926000118255615" fy="62.696998596191406"><stop offset="40%" stop-color="rgb(255,168,0)" stop-opacity="0"></stop><stop offset="76%" stop-color="rgb(255,168,0)" stop-opacity="0.5"></stop><stop offset="100%" stop-color="rgb(255,168,0)" stop-opacity="1"></stop></radialGradient><linearGradient id="__lottie_element_21" spreadMethod="pad" gradientUnits="userSpaceOnUse" x1="-3.9260001182556152" y1="58.696998596191406" x2="-3.9260001182556152" y2="78.00800323486328"><stop offset="0%" stop-color="rgb(255,255,255)" stop-opacity="1"></stop><stop offset="50%" stop-color="rgb(255,255,255)" stop-opacity="0.5"></stop><stop offset="99%" stop-color="rgb(255,255,255)" stop-opacity="0"></stop></linearGradient><radialGradient id="__lottie_element_25" spreadMethod="pad" gradientUnits="userSpaceOnUse" cx="-4.926000118255615" cy="153.69700622558594" r="32.492000102996826" fx="-4.926000118255615" fy="153.69700622558594"><stop offset="10%" stop-color="rgb(219,110,0)" stop-opacity="1"></stop><stop offset="66%" stop-color="rgb(219,110,0)" stop-opacity="0.5"></stop><stop offset="100%" stop-color="rgb(219,110,0)" stop-opacity="0"></stop></radialGradient><radialGradient id="__lottie_element_26" spreadMethod="pad" gradientUnits="userSpaceOnUse" cx="-4.926000118255615" cy="133.69700622558594" r="43.7310004234314" fx="-4.926000118255615" fy="133.69700622558594"><stop offset="0%" stop-color="rgb(255,255,255)"></stop><stop offset="60%" stop-color="rgb(255,255,255)"></stop><stop offset="100%" stop-color="rgb(255,255,255)"></stop></radialGradient><mask id="__lottie_element_28"><path fill="url(#__lottie_element_27)" d=" M38.356998443603516,125.84500122070312 C38.356998443603516,136.5760040283203 19.18199920654297,148.1820068359375 -4.4710001945495605,148.1820068359375 C-28.124000549316406,148.1820068359375 -47.29800033569336,136.5760040283203 -47.29800033569336,125.84500122070312 C-47.29800033569336,115.11399841308594 38.356998443603516,115.11399841308594 38.356998443603516,125.84500122070312z"></path></mask><radialGradient id="__lottie_element_27" spreadMethod="pad" gradientUnits="userSpaceOnUse" cx="-4.926000118255615" cy="133.69700622558594" r="43.7310004234314" fx="-4.926000118255615" fy="133.69700622558594"><stop stop-color="rgb(255,255,255)" offset="0%" stop-opacity="1"></stop><stop stop-color="rgb(255,255,255)" offset="50%" stop-opacity="0.5"></stop><stop stop-color="rgb(255,255,255)" offset="100%" stop-opacity="0"></stop></radialGradient><linearGradient id="__lottie_element_29" spreadMethod="pad" gradientUnits="userSpaceOnUse" x1="-4.926000118255615" y1="129.69700622558594" x2="-4.926000118255615" y2="95.31999969482422"><stop offset="0%" stop-color="rgb(255,168,0)" stop-opacity="1"></stop><stop offset="65%" stop-color="rgb(255,168,0)" stop-opacity="0.5"></stop><stop offset="100%" stop-color="rgb(255,168,0)" stop-opacity="0"></stop></linearGradient><linearGradient id="__lottie_element_30" spreadMethod="pad" gradientUnits="userSpaceOnUse" x1="-4.926000118255615" y1="141.32200622558594" x2="-4.926000118255615" y2="126.96700286865234"><stop offset="0%" stop-color="rgb(88,11,14)" stop-opacity="0"></stop><stop offset="36%" stop-color="rgb(88,11,14)" stop-opacity="0.5"></stop><stop offset="80%" stop-color="rgb(88,11,14)" stop-opacity="1"></stop></linearGradient><radialGradient id="__lottie_element_31" spreadMethod="pad" gradientUnits="userSpaceOnUse" cx="-4.926000118255615" cy="116.6969985961914" r="70.53700017929077" fx="-4.926000118255615" fy="116.6969985961914"><stop offset="52%" stop-color="rgb(255,169,0)" stop-opacity="0"></stop><stop offset="71%" stop-color="rgb(255,169,0)" stop-opacity="0.5"></stop><stop offset="90%" stop-color="rgb(255,169,0)" stop-opacity="1"></stop></radialGradient><linearGradient id="__lottie_element_35" spreadMethod="pad" gradientUnits="userSpaceOnUse" x1="59.07400131225586" y1="10.696999549865723" x2="74.9020004272461" y2="35.19300079345703"><stop offset="0%" stop-color="rgb(66,0,0)"></stop><stop offset="37%" stop-color="rgb(118,40,0)"></stop><stop offset="100%" stop-color="rgb(170,80,0)"></stop></linearGradient><radialGradient id="__lottie_element_36" spreadMethod="pad" gradientUnits="userSpaceOnUse" cx="76.0739974975586" cy="29.69700050354004" r="12.561004638671875" fx="76.0739974975586" fy="29.69700050354004"><stop offset="0%" stop-color="rgb(246,175,0)" stop-opacity="1"></stop><stop offset="50%" stop-color="rgb(246,175,0)" stop-opacity="0.5"></stop><stop offset="100%" stop-color="rgb(246,175,0)" stop-opacity="0"></stop></radialGradient><linearGradient id="__lottie_element_37" spreadMethod="pad" gradientUnits="userSpaceOnUse" x1="57.07400131225586" y1="-1.3029999732971191" x2="57.07400131225586" y2="9.519000053405762"><stop offset="0%" stop-color="rgb(255,255,255)" stop-opacity="1"></stop><stop offset="60%" stop-color="rgb(255,255,255)" stop-opacity="0.5"></stop><stop offset="100%" stop-color="rgb(255,255,255)" stop-opacity="0"></stop></linearGradient><linearGradient id="__lottie_element_38" spreadMethod="pad" gradientUnits="userSpaceOnUse" x1="-77.0510025024414" y1="7.447000026702881" x2="-59.347999572753906" y2="35.94200134277344"><stop offset="0%" stop-color="rgb(66,0,0)"></stop><stop offset="37%" stop-color="rgb(118,40,0)"></stop><stop offset="100%" stop-color="rgb(170,80,0)"></stop></linearGradient><radialGradient id="__lottie_element_39" spreadMethod="pad" gradientUnits="userSpaceOnUse" cx="-59.92599868774414" cy="29.69700050354004" r="12.560997009277344" fx="-59.92599868774414" fy="29.69700050354004"><stop offset="0%" stop-color="rgb(246,175,0)" stop-opacity="1"></stop><stop offset="50%" stop-color="rgb(246,175,0)" stop-opacity="0.5"></stop><stop offset="100%" stop-color="rgb(246,175,0)" stop-opacity="0"></stop></radialGradient><linearGradient id="__lottie_element_40" spreadMethod="pad" gradientUnits="userSpaceOnUse" x1="-78.9260025024414" y1="-1.3029999732971191" x2="-78.9260025024414" y2="9.519000053405762"><stop offset="0%" stop-color="rgb(255,255,255)" stop-opacity="1"></stop><stop offset="60%" stop-color="rgb(255,255,255)" stop-opacity="0.5"></stop><stop offset="100%" stop-color="rgb(255,255,255)" stop-opacity="0"></stop></linearGradient><radialGradient id="__lottie_element_50" spreadMethod="pad" gradientUnits="userSpaceOnUse" cx="8.593999862670898" cy="145.31199645996094" r="55.735483183971425" fx="8.593999862670898" fy="145.31199645996094"><stop offset="0%" stop-color="rgb(0,150,172)"></stop><stop offset="70%" stop-color="rgb(0,123,141)"></stop><stop offset="100%" stop-color="rgb(0,96,110)"></stop></radialGradient><linearGradient id="__lottie_element_51" spreadMethod="pad" gradientUnits="userSpaceOnUse" x1="104.947998046875" y1="176.04200744628906" x2="95.31199645996094" y2="120.052001953125"><stop offset="0%" stop-color="rgb(207,204,204)"></stop><stop offset="70%" stop-color="rgb(222,220,220)"></stop><stop offset="100%" stop-color="rgb(237,235,235)"></stop></linearGradient><linearGradient id="__lottie_element_52" spreadMethod="pad" gradientUnits="userSpaceOnUse" x1="113.54199981689453" y1="88.802001953125" x2="116.66699981689453" y2="205.468994140625"><stop offset="0%" stop-color="rgb(255,255,255)" stop-opacity="1"></stop><stop offset="60%" stop-color="rgb(255,255,255)" stop-opacity="0.5"></stop><stop offset="100%" stop-color="rgb(255,255,255)" stop-opacity="0"></stop></linearGradient><linearGradient id="__lottie_element_53" spreadMethod="pad" gradientUnits="userSpaceOnUse" x1="107.03099822998047" y1="178.906005859375" x2="95.31199645996094" y2="120.052001953125"><stop offset="0%" stop-color="rgb(207,204,204)"></stop><stop offset="70%" stop-color="rgb(222,220,220)"></stop><stop offset="100%" stop-color="rgb(237,235,235)"></stop></linearGradient><linearGradient id="__lottie_element_54" spreadMethod="pad" gradientUnits="userSpaceOnUse" x1="113.54199981689453" y1="88.802001953125" x2="116.66699981689453" y2="205.468994140625"><stop offset="0%" stop-color="rgb(255,255,255)" stop-opacity="1"></stop><stop offset="60%" stop-color="rgb(255,255,255)" stop-opacity="0.5"></stop><stop offset="100%" stop-color="rgb(255,255,255)" stop-opacity="0"></stop></linearGradient><radialGradient id="__lottie_element_55" spreadMethod="pad" gradientUnits="userSpaceOnUse" cx="4.560999870300293" cy="164.96499633789062" r="56.844353943310395" fx="4.560999870300293" fy="164.96499633789062"><stop offset="20%" stop-color="rgb(255,168,0)" stop-opacity="1"></stop><stop offset="68%" stop-color="rgb(255,168,0)" stop-opacity="0.5"></stop><stop offset="100%" stop-color="rgb(255,168,0)" stop-opacity="0"></stop></radialGradient><linearGradient id="__lottie_element_56" spreadMethod="pad" gradientUnits="userSpaceOnUse" x1="49.66699981689453" y1="210.218994140625" x2="65.81300354003906" y2="112.01300048828125"><stop offset="0%" stop-color="rgb(255,255,255)"></stop><stop offset="60%" stop-color="rgb(231,230,230)"></stop><stop offset="100%" stop-color="rgb(207,205,205)"></stop></linearGradient><linearGradient id="__lottie_element_57" spreadMethod="pad" gradientUnits="userSpaceOnUse" x1="-25.33300018310547" y1="206.052001953125" x2="-44.604000091552734" y2="95.86699676513672"><stop offset="0%" stop-color="rgb(255,255,255)"></stop><stop offset="60%" stop-color="rgb(231,230,230)"></stop><stop offset="100%" stop-color="rgb(207,205,205)"></stop></linearGradient><radialGradient id="__lottie_element_58" spreadMethod="pad" gradientUnits="userSpaceOnUse" cx="-92.35800170898438" cy="193.31700134277344" r="28.48159831808073" fx="-92.35800170898438" fy="193.31700134277344"><stop offset="0%" stop-color="rgb(98,102,104)"></stop><stop offset="75%" stop-color="rgb(116,121,124)"></stop><stop offset="100%" stop-color="rgb(134,141,144)"></stop></radialGradient><radialGradient id="__lottie_element_59" spreadMethod="pad" gradientUnits="userSpaceOnUse" cx="-92.70800018310547" cy="183.593994140625" r="14.382311959140832" fx="-92.70800018310547" fy="183.593994140625"><stop offset="0%" stop-color="rgb(203,207,208)"></stop><stop offset="88%" stop-color="rgb(217,221,222)"></stop><stop offset="100%" stop-color="rgb(231,235,236)"></stop></radialGradient></defs><g clip-path="url(#__lottie_element_2)"><g style="display: block;" transform="matrix(0.9599999785423279,0,0,0.9599999785423279,247.7048797607422,281.97039794921875)" opacity="1"><g opacity="1" transform="matrix(1,0,0,1,0,-0.25)"><path fill="url(#__lottie_element_50)" fill-opacity="1" d=" M-40.01100158691406,199.4770050048828 C-40.01100158691406,199.4770050048828 -40.01100158691406,92.88400268554688 -40.01100158691406,92.88400268554688 C-27.135000228881836,90.68000030517578 -13.156999588012695,89.05699920654297 1.8480000495910645,88.16300201416016 C1.8480000495910645,88.16300201416016 17.43000030517578,88.45999908447266 17.43000030517578,88.45999908447266 C17.43000030517578,88.45999908447266 57.154998779296875,92.88500213623047 57.154998779296875,92.88500213623047 C57.154998779296875,92.88500213623047 57.154998779296875,199.47500610351562 57.154998779296875,199.47500610351562"></path></g><g opacity="1" transform="matrix(1,0,0,1,0,0)"><g opacity="1" transform="matrix(-1,0,0,1,17.26000213623047,0)"><g opacity="1" transform="matrix(1,0,0,1,0,0)"><path fill="url(#__lottie_element_51)" fill-opacity="1" d=" M170.39300537109375,190.91099548339844 C170.39300537109375,190.91099548339844 170.39300537109375,190.91099548339844 170.39300537109375,190.91099548339844 C170.39300537109375,190.91099548339844 167.2310028076172,194.4770050048828 157.04299926757812,197.00799560546875 C151.40199279785156,198.41299438476562 143.61099243164062,199.50799560546875 133.00900268554688,199.50799560546875 C133.00900268554688,199.50799560546875 55.98500061035156,199.50599670410156 55.98500061035156,199.50599670410156 C55.98500061035156,199.50599670410156 57.15700149536133,92.88500213623047 57.15700149536133,92.88500213623047 C105.49400329589844,101.1510009765625 138.30999755859375,117.61199951171875 151.74200439453125,134.39199829101562 C164.38900756835938,150.21099853515625 168.66700744628906,177.45799255371094 170.39300537109375,190.91099548339844z"></path></g><g opacity="0.7000000000000001" transform="matrix(1,0,0,1,0,0)"><path fill="url(#__lottie_element_52)" fill-opacity="1" d=" M170.39300537109375,190.91099548339844 C170.39300537109375,190.91099548339844 170.39300537109375,190.91099548339844 170.39300537109375,190.91099548339844 C170.39300537109375,190.91099548339844 167.2310028076172,194.4770050048828 157.04299926757812,197.00799560546875 C155.36900329589844,184.18499755859375 150.07899475097656,157.9499969482422 141.14100646972656,146.85299682617188 C117.46900177001953,117.44599914550781 57.15700149536133,111.07099914550781 57.15700149536133,111.07099914550781 C57.15700149536133,111.07099914550781 57.15700149536133,92.88500213623047 57.15700149536133,92.88500213623047 C105.49400329589844,101.1510009765625 138.30999755859375,117.61199951171875 151.74200439453125,134.39199829101562 C164.38900756835938,150.21099853515625 168.66700744628906,177.45799255371094 170.39300537109375,190.91099548339844z"></path></g><g opacity="1" transform="matrix(1,0,0,1,0,0)"><g opacity="1" transform="matrix(1,0,0,1,0,0)"><path fill="rgb(128,140,147)" fill-opacity="1" d=" M166.83599853515625,184.00599670410156 C166.83599853515625,184.00599670410156 167.58599853515625,189.08200073242188 168.0570068359375,192.697998046875 C168.0570068359375,192.697998046875 175.75399780273438,188.90699768066406 175.17799377441406,184.21299743652344 C175.17799377441406,184.21299743652344 166.83599853515625,184.00599670410156 166.83599853515625,184.00599670410156z"></path></g><g opacity="1" transform="matrix(1,0,0,1,0,0)"><path stroke-linecap="round" stroke-linejoin="round" fill-opacity="0" stroke="rgb(128,140,147)" stroke-opacity="1" stroke-width="8" d=" M171.06500244140625,184.58900451660156 C170.24899291992188,177.66000366210938 166.6820068359375,153.07400512695312 151.74099731445312,134.39199829101562 C138.3090057373047,117.61199951171875 105.49199676513672,101.1510009765625 57.154998779296875,92.88500213623047 C57.154998779296875,92.88500213623047 57.154998779296875,194.3419952392578 57.154998779296875,194.3419952392578"></path></g></g><g opacity="0.6" transform="matrix(1,0,0,1,2.865000009536743,0.25999999046325684)"><path stroke-linecap="round" stroke-linejoin="round" fill-opacity="0" stroke="rgb(232,230,230)" stroke-opacity="1" stroke-width="5" d=" M146.4010009765625,146.73300170898438 C146.4010009765625,146.73300170898438 146.24600219726562,159.28199768066406 133.6699981689453,196.41000366210938"></path></g><g opacity="0.6" transform="matrix(1,0,0,1,0,0)"><path stroke-linecap="round" stroke-linejoin="round" fill-opacity="0" stroke="rgb(128,140,147)" stroke-opacity="1" stroke-width="5" d=" M148.2239990234375,130.45700073242188 C148.2239990234375,130.45700073242188 146.24600219726562,159.28199768066406 133.6699981689453,196.41000366210938"></path></g></g><g opacity="1" transform="matrix(1,0,0,1,0,0)"><g opacity="1" transform="matrix(1,0,0,1,0,0)"><path fill="url(#__lottie_element_53)" fill-opacity="1" d=" M170.39300537109375,190.91099548339844 C170.39300537109375,190.91099548339844 170.39300537109375,190.91099548339844 170.39300537109375,190.91099548339844 C170.39300537109375,190.91099548339844 167.2310028076172,194.4770050048828 157.04299926757812,197.00799560546875 C151.40199279785156,198.41299438476562 143.61099243164062,199.50799560546875 133.00900268554688,199.50799560546875 C133.00900268554688,199.50799560546875 57.15700149536133,199.50799560546875 57.15700149536133,199.50799560546875 C57.15700149536133,199.50799560546875 57.15700149536133,92.88500213623047 57.15700149536133,92.88500213623047 C105.49400329589844,101.1510009765625 138.30999755859375,117.61199951171875 151.74200439453125,134.39199829101562 C164.38900756835938,150.21099853515625 168.66700744628906,177.45799255371094 170.39300537109375,190.91099548339844z"></path></g><g opacity="0.7000000000000001" transform="matrix(1,0,0,1,0,0)"><path fill="url(#__lottie_element_54)" fill-opacity="1" d=" M170.39300537109375,190.91099548339844 C170.39300537109375,190.91099548339844 170.39300537109375,190.91099548339844 170.39300537109375,190.91099548339844 C170.39300537109375,190.91099548339844 167.2310028076172,194.4770050048828 157.04299926757812,197.00799560546875 C155.36900329589844,184.18499755859375 150.07899475097656,157.9499969482422 141.14100646972656,146.85299682617188 C117.46900177001953,117.44599914550781 57.15700149536133,111.07099914550781 57.15700149536133,111.07099914550781 C57.15700149536133,111.07099914550781 57.15700149536133,92.88500213623047 57.15700149536133,92.88500213623047 C105.49400329589844,101.1510009765625 138.30999755859375,117.61199951171875 151.74200439453125,134.39199829101562 C164.38900756835938,150.21099853515625 168.66700744628906,177.45799255371094 170.39300537109375,190.91099548339844z"></path></g><g opacity="1" transform="matrix(1,0,0,1,0,0)"><g opacity="1" transform="matrix(1,0,0,1,0,0)"><path fill="rgb(128,140,147)" fill-opacity="1" d=" M166.83599853515625,184.00599670410156 C166.83599853515625,184.00599670410156 167.58599853515625,189.08200073242188 168.0570068359375,192.697998046875 C168.0570068359375,192.697998046875 175.75399780273438,188.90699768066406 175.17799377441406,184.21299743652344 C175.17799377441406,184.21299743652344 166.83599853515625,184.00599670410156 166.83599853515625,184.00599670410156z"></path></g><g opacity="1" transform="matrix(1,0,0,1,0,0)"><path stroke-linecap="round" stroke-linejoin="round" fill-opacity="0" stroke="rgb(128,140,147)" stroke-opacity="1" stroke-width="8" d=" M171.06500244140625,184.58900451660156 C170.24899291992188,177.66000366210938 166.6820068359375,153.07400512695312 151.74099731445312,134.39199829101562 C138.3090057373047,117.61199951171875 105.49199676513672,101.1510009765625 57.154998779296875,92.88500213623047 C57.154998779296875,92.88500213623047 57.154998779296875,194.3419952392578 57.154998779296875,194.3419952392578"></path></g></g><g opacity="0.6" transform="matrix(1,0,0,1,2.865000009536743,0.25999999046325684)"><path stroke-linecap="round" stroke-linejoin="round" fill-opacity="0" stroke="rgb(232,230,230)" stroke-opacity="1" stroke-width="5" d=" M146.4010009765625,146.73300170898438 C146.4010009765625,146.73300170898438 146.24600219726562,159.28199768066406 133.6699981689453,196.41000366210938"></path></g><g opacity="0.6" transform="matrix(1,0,0,1,0,0)"><path stroke-linecap="round" stroke-linejoin="round" fill-opacity="0" stroke="rgb(128,140,147)" stroke-opacity="1" stroke-width="5" d=" M148.2239990234375,130.45700073242188 C148.2239990234375,130.45700073242188 146.24600219726562,159.28199768066406 133.6699981689453,196.41000366210938"></path></g></g></g><g opacity="1" transform="matrix(1.0683799982070923,0,0,1,-212.7657470703125,27.99500274658203)"><g opacity="1" transform="matrix(1,0,0,1,203.906005859375,-43.48999786376953)"><g opacity="1" transform="matrix(1,0,0,1,0,0)"><path fill="rgb(181,102,6)" fill-opacity="1" d=" M-31.98200035095215,80.35700225830078 C-31.98200035095215,80.35700225830078 -40.81700134277344,119.4489974975586 -39.165000915527344,122.8280029296875 C-32.12099838256836,137.23300170898438 -4.6479997634887695,165.55999755859375 3.9200000762939453,165.55999755859375 C12.151000022888184,165.55999755859375 38.33599853515625,136.97500610351562 45.61800003051758,122.8280029296875 C47.27399826049805,119.61100006103516 37.35900115966797,79.31199645996094 37.35900115966797,79.31199645996094 C37.35900115966797,79.31199645996094 -31.98200035095215,80.35700225830078 -31.98200035095215,80.35700225830078z"></path></g><g opacity="1" transform="matrix(1,0,0,1,0,0)"><path stroke-linecap="round" stroke-linejoin="round" fill-opacity="0" stroke="rgb(153,71,4)" stroke-opacity="1" stroke-width="8" d=" M43.75199890136719,124.12200164794922 C44.02399826049805,121.47100067138672 38.56100082397461,75.12899780273438 38.56100082397461,74.10700225830078 C38.56100082397461,74.10700225830078 -33.15999984741211,74.10700225830078 -33.15999984741211,74.10700225830078 C-33.15999984741211,74.10700225830078 -37.01100158691406,121.84100341796875 -36.696998596191406,124.77100372314453"></path></g><g opacity="1" transform="matrix(1,0,0,0.7416300177574158,0,32.29624938964844)"><path fill="url(#__lottie_element_55)" fill-opacity="1" d=" M37.24300003051758,49.73699951171875 C37.24300003051758,49.73699951171875 -31.159000396728516,50.4109992980957 -31.159000396728516,50.4109992980957 C-31.159000396728516,50.4109992980957 -39.165000915527344,122.8280029296875 -39.165000915527344,122.8280029296875 C-39.165000915527344,122.8280029296875 -10.406000137329102,178.7169952392578 3.6700000762939453,178.70700073242188 C17.600000381469727,178.697998046875 45.61800003051758,122.8280029296875 45.61800003051758,122.8280029296875 C45.61800003051758,122.8280029296875 37.24300003051758,49.73699951171875 37.24300003051758,49.73699951171875z"></path></g></g></g><g opacity="1" transform="matrix(1,0,0,1,0,0)"><path stroke-linecap="round" stroke-linejoin="round" fill-opacity="0" stroke="rgb(0,84,104)" stroke-opacity="1" stroke-width="8" d=" M-33.51100158691406,76.5260009765625 C-33.51100158691406,76.5260009765625 -41.32699966430664,86.16899871826172 -41.32699966430664,86.16899871826172 C-41.32699966430664,89.46900177001953 -37.981998443603516,100.86699676513672 -36.0890007019043,104.73899841308594 C-28.016000747680664,121.2490005493164 -0.7689999938011169,149.29600524902344 9.050999641418457,149.29600524902344 C18.485000610351562,149.29600524902344 45.470001220703125,120.63800048828125 53.816001892089844,104.42400360107422 C55.7140007019043,100.73699951171875 56.808998107910156,89.93199920654297 56.808998107910156,86.7229995727539 C56.808998107910156,86.7229995727539 55.87300109863281,74.35700225830078 55.87300109863281,74.35700225830078 C55.87300109863281,74.35700225830078 -33.51100158691406,76.5260009765625 -33.51100158691406,76.5260009765625z"></path></g><g opacity="1" transform="matrix(1,0,0,1,0,0)"><path stroke-linecap="round" stroke-linejoin="round" fill-opacity="0" stroke="rgb(31,32,32)" stroke-opacity="1" stroke-width="8" d=" M59.176998138427734,81.49700164794922 C59.176998138427734,81.49700164794922 78.69300079345703,86.22899627685547 91.33499908447266,106.92900085449219"></path></g><g opacity="1" transform="matrix(1,0,0,1,0,0)"><g opacity="1" transform="matrix(1,0,0,1,0,0)"><path fill="url(#__lottie_element_56)" fill-opacity="1" d=" M28.288999557495117,199.50799560546875 C28.288999557495117,199.50799560546875 47.17499923706055,128.5330047607422 58.525001525878906,80.68900299072266 C58.525001525878906,80.68900299072266 65.39900207519531,89.71499633789062 65.39900207519531,89.71499633789062 C65.39900207519531,89.71499633789062 80.8550033569336,117.4800033569336 86.41999816894531,150.3300018310547 C86.41999816894531,150.3300018310547 64.36599731445312,156.4510040283203 64.36599731445312,156.4510040283203 C64.36599731445312,156.4510040283203 80.70500183105469,167.90199279785156 90.31400299072266,175.00399780273438 C90.31400299072266,175.00399780273438 82.40499877929688,199.50799560546875 82.40499877929688,199.50799560546875"></path></g><g opacity="1" transform="matrix(1,0,0,1,0,0)"><path stroke-linecap="round" stroke-linejoin="round" fill-opacity="0" stroke="rgb(146,159,165)" stroke-opacity="1" stroke-width="8" d=" M29.604000091552734,194.3419952392578 C29.604000091552734,194.3419952392578 47.17499923706055,128.5330047607422 58.525001525878906,80.68900299072266 C58.525001525878906,80.68900299072266 65.39900207519531,89.71499633789062 65.39900207519531,89.71499633789062 C65.39900207519531,89.71499633789062 80.8550033569336,117.4800033569336 86.41999816894531,150.3300018310547 C86.41999816894531,150.3300018310547 64.36599731445312,156.4510040283203 64.36599731445312,156.4510040283203 C64.36599731445312,156.4510040283203 80.70500183105469,167.90199279785156 90.31400299072266,175.00399780273438 C90.31400299072266,175.00399780273438 83.01399993896484,194.3419952392578 83.01399993896484,194.3419952392578"></path></g><g opacity="1" transform="matrix(1,0,0,1,0,0)"><path fill="rgb(146,159,165)" fill-opacity="1" d=" M26.110000610351562,191.3979949951172 C26.110000610351562,191.3979949951172 23.97599983215332,199.50999450683594 23.97599983215332,199.50999450683594 C23.97599983215332,199.50999450683594 32.494998931884766,199.50999450683594 32.494998931884766,199.50999450683594 C32.494998931884766,199.50999450683594 34.44499969482422,192.156005859375 34.44499969482422,192.156005859375 C34.44499969482422,192.156005859375 26.110000610351562,191.3979949951172 26.110000610351562,191.3979949951172z"></path></g><g opacity="1" transform="matrix(1,0,0,1,0,0)"><path fill="rgb(146,159,165)" fill-opacity="1" d=" M79.71199798583984,191.3979949951172 C79.71199798583984,191.3979949951172 76.56099700927734,199.50999450683594 76.56099700927734,199.50999450683594 C76.56099700927734,199.50999450683594 85.49099731445312,199.50999450683594 85.49099731445312,199.50999450683594 C85.49099731445312,199.50999450683594 88.2490005493164,192.156005859375 88.2490005493164,192.156005859375 C88.2490005493164,192.156005859375 79.71199798583984,191.3979949951172 79.71199798583984,191.3979949951172z"></path></g></g><g opacity="1" transform="matrix(1,0,0,1,0,0)"><g opacity="1" transform="matrix(1,0,0,1,0,0)"><path stroke-linecap="round" stroke-linejoin="round" fill-opacity="0" stroke="rgb(31,32,32)" stroke-opacity="1" stroke-width="8" d=" M88.24700164794922,193.41000366210938 C88.24700164794922,193.41000366210938 69.04299926757812,198.19000244140625 61.861000061035156,183.1739959716797 C54.68000030517578,168.1580047607422 64.30400085449219,121.74400329589844 70.3479995727539,114.4800033569336 C77.46099853515625,105.93000030517578 105.29299926757812,104.64299774169922 114.11000061035156,112.66500091552734 C125.0469970703125,122.61599731445312 135.58799743652344,171.6179962158203 130.0850067138672,183.82699584960938 C125.52300262451172,193.94900512695312 104.2969970703125,192.45399475097656 104.2969970703125,192.45399475097656"></path></g><g opacity="1" transform="matrix(1,0,0,1,0,0)"><path stroke-linecap="round" stroke-linejoin="round" fill-opacity="0" stroke="rgb(98,102,104)" stroke-opacity="1" stroke-width="8" d=" M123.54199981689453,130.45599365234375 C129.9759979248047,149.0279998779297 133.91400146484375,175.33299255371094 130.0850067138672,183.82699584960938 C125.52300262451172,193.94900512695312 104.2969970703125,192.45399475097656 104.2969970703125,192.45399475097656"></path></g><g opacity="1" transform="matrix(1,0,0,1,0,0)"><path stroke-linecap="round" stroke-linejoin="round" fill-opacity="0" stroke="rgb(191,193,195)" stroke-opacity="1" stroke-width="4" d=" M124.21099853515625,128.77200317382812 C130.64500427246094,147.343994140625 134.94700622558594,175.33299255371094 131.1179962158203,183.82699584960938 C129.5030059814453,187.41099548339844 125.79900360107422,190.08900451660156 121.68800354003906,191.3419952392578"></path></g><g opacity="1" transform="matrix(1,0,0,1,0,0)"><path stroke-linecap="round" stroke-linejoin="round" fill-opacity="0" stroke="rgb(98,102,104)" stroke-opacity="1" stroke-width="8" d=" M88.24700164794922,193.41000366210938 C88.24700164794922,193.41000366210938 69.04299926757812,198.19000244140625 61.861000061035156,183.1739959716797 C57.28900146484375,173.61300659179688 59.52899932861328,151.322998046875 63.32099914550781,134.51499938964844"></path></g><g opacity="1" transform="matrix(1,0,0,1,0,0)"><path stroke-linecap="round" stroke-linejoin="round" fill-opacity="0" stroke="rgb(191,193,195)" stroke-opacity="1" stroke-width="4" d=" M69.53500366210938,190.42100524902344 C66.9280014038086,188.75999450683594 64.58000183105469,186.69900512695312 62.89400100708008,183.1739959716797 C58.321998596191406,173.61300659179688 60.808998107910156,150.2449951171875 64.60099792480469,133.43699645996094"></path></g><g opacity="1" transform="matrix(1,0,0,1,0,0)"><path stroke-linecap="round" stroke-linejoin="round" fill-opacity="0" stroke="rgb(31,32,32)" stroke-opacity="1" stroke-width="12" d=" M109.63300323486328,192.4810028076172 C106.49700164794922,192.60899353027344 104.2969970703125,192.45399475097656 104.2969970703125,192.45399475097656"></path></g><g opacity="1" transform="matrix(1,0,0,1,0,0)"><path stroke-linecap="round" stroke-linejoin="round" fill-opacity="0" stroke="rgb(31,32,32)" stroke-opacity="1" stroke-width="12" d=" M88.24700164794922,193.41000366210938 C88.24700164794922,193.41000366210938 86.18900299072266,193.92300415039062 83.16899871826172,194.0850067138672"></path></g><g opacity="1" transform="matrix(1,0,0,1,0,0)"><path stroke-linecap="round" stroke-linejoin="round" fill-opacity="0" stroke="rgb(82,86,89)" stroke-opacity="1" stroke-width="4" d=" M104.48500061035156,189.92999267578125 C104.48500061035156,189.92999267578125 108.76699829101562,189.92999267578125 108.76699829101562,189.92999267578125"></path></g><g opacity="1" transform="matrix(1,0,0,1,0,0)"><path stroke-linecap="round" stroke-linejoin="round" fill-opacity="0" stroke="rgb(82,86,89)" stroke-opacity="1" stroke-width="4" d=" M83.0469970703125,191.36099243164062 C83.0469970703125,191.36099243164062 87.48200225830078,190.7899932861328 87.48200225830078,190.7899932861328"></path></g></g><g opacity="1" transform="matrix(1,0,0,1,0,0)"><path stroke-linecap="round" stroke-linejoin="round" fill-opacity="0" stroke="rgb(31,32,32)" stroke-opacity="1" stroke-width="8" d=" M-88.66200256347656,165.94500732421875 C-88.66200256347656,165.94500732421875 -82.50399780273438,104.71800231933594 -41.904998779296875,81.33999633789062"></path></g><g opacity="1" transform="matrix(1,0,0,1,0,0)"><g opacity="1" transform="matrix(1,0,0,1,0,0)"><path fill="url(#__lottie_element_57)" fill-opacity="1" d=" M-10.786999702453613,199.50799560546875 C-10.786999702453613,199.50799560546875 -29.67300033569336,128.5330047607422 -41.02299880981445,80.68900299072266 C-41.02299880981445,80.68900299072266 -47.89699935913086,89.71499633789062 -47.89699935913086,89.71499633789062 C-47.89699935913086,89.71499633789062 -63.354000091552734,117.4800033569336 -68.91899871826172,150.3300018310547 C-68.91899871826172,150.3300018310547 -46.86399841308594,156.4510040283203 -46.86399841308594,156.4510040283203 C-46.86399841308594,156.4510040283203 -63.202999114990234,167.90199279785156 -72.81199645996094,175.00399780273438 C-72.81199645996094,175.00399780273438 -64.90299987792969,199.50799560546875 -64.90299987792969,199.50799560546875"></path></g><g opacity="1" transform="matrix(1,0,0,1,0,0)"><path stroke-linecap="round" stroke-linejoin="round" fill-opacity="0" stroke="rgb(146,159,165)" stroke-opacity="1" stroke-width="8" d=" M-12.10200023651123,194.3419952392578 C-12.10200023651123,194.3419952392578 -29.67300033569336,128.5330047607422 -41.02299880981445,80.68900299072266 C-41.02299880981445,80.68900299072266 -47.89699935913086,89.71499633789062 -47.89699935913086,89.71499633789062 C-47.89699935913086,89.71499633789062 -63.354000091552734,117.4800033569336 -68.91899871826172,150.3300018310547 C-68.91899871826172,150.3300018310547 -46.86399841308594,156.4510040283203 -46.86399841308594,156.4510040283203 C-46.86399841308594,156.4510040283203 -63.202999114990234,167.90199279785156 -72.81199645996094,175.00399780273438 C-72.81199645996094,175.00399780273438 -65.51200103759766,194.3419952392578 -65.51200103759766,194.3419952392578"></path></g><g opacity="1" transform="matrix(1,0,0,1,0,0)"><path fill="rgb(146,159,165)" fill-opacity="1" d=" M-8.607999801635742,191.3979949951172 C-8.607999801635742,191.3979949951172 -6.473999977111816,199.50999450683594 -6.473999977111816,199.50999450683594 C-6.473999977111816,199.50999450683594 -14.993000030517578,199.50999450683594 -14.993000030517578,199.50999450683594 C-14.993000030517578,199.50999450683594 -16.94300079345703,192.156005859375 -16.94300079345703,192.156005859375 C-16.94300079345703,192.156005859375 -8.607999801635742,191.3979949951172 -8.607999801635742,191.3979949951172z"></path></g><g opacity="1" transform="matrix(1,0,0,1,0,0)"><path fill="rgb(146,159,165)" fill-opacity="1" d=" M-62.209999084472656,191.3979949951172 C-62.209999084472656,191.3979949951172 -59.058998107910156,199.50999450683594 -59.058998107910156,199.50999450683594 C-59.058998107910156,199.50999450683594 -67.98899841308594,199.50999450683594 -67.98899841308594,199.50999450683594 C-67.98899841308594,199.50999450683594 -70.74700164794922,192.156005859375 -70.74700164794922,192.156005859375 C-70.74700164794922,192.156005859375 -62.209999084472656,191.3979949951172 -62.209999084472656,191.3979949951172z"></path></g></g><g opacity="1" transform="matrix(1,0,0,1,0,0)"><g opacity="1" transform="matrix(1.2716599702835083,0,0,1.2716599702835083,24.405113220214844,-48.742584228515625)"><g opacity="1" transform="matrix(1,0,0,1,0,0)"><path fill="url(#__lottie_element_58)" fill-opacity="1" d=" M-74.36399841308594,179.4250030517578 C-74.36399841308594,187.9709930419922 -81.29100036621094,194.8990020751953 -89.83699798583984,194.8990020751953 C-98.38300323486328,194.8990020751953 -105.30999755859375,187.9709930419922 -105.30999755859375,179.4250030517578 C-105.30999755859375,170.87899780273438 -98.38300323486328,163.95199584960938 -89.83699798583984,163.95199584960938 C-81.29100036621094,163.95199584960938 -74.36399841308594,170.87899780273438 -74.36399841308594,179.4250030517578z"></path></g></g><g opacity="1" transform="matrix(1.0308500528335571,0,0,1.0308500528335571,2.7953262329101562,-5.6075897216796875)"><g opacity="1" transform="matrix(1,0,0,1,0.25999999046325684,2.3440001010894775)"><path fill="rgb(88,93,95)" fill-opacity="1" d=" M-77.97799682617188,179.4250030517578 C-77.97799682617188,186.5449981689453 -83.75,192.3179931640625 -90.87000274658203,192.3179931640625 C-97.98999786376953,192.3179931640625 -103.76300048828125,186.5449981689453 -103.76300048828125,179.4250030517578 C-103.76300048828125,172.30499267578125 -97.98999786376953,166.5330047607422 -90.87000274658203,166.5330047607422 C-83.75,166.5330047607422 -77.97799682617188,172.30499267578125 -77.97799682617188,179.4250030517578z"></path></g></g><g opacity="1" transform="matrix(1,0,0,1,0,0)"><path fill="url(#__lottie_element_59)" fill-opacity="1" d=" M-77.97799682617188,179.4250030517578 C-77.97799682617188,186.5449981689453 -83.75,192.3179931640625 -90.87000274658203,192.3179931640625 C-97.98999786376953,192.3179931640625 -103.76300048828125,186.5449981689453 -103.76300048828125,179.4250030517578 C-103.76300048828125,172.30499267578125 -97.98999786376953,166.5330047607422 -90.87000274658203,166.5330047607422 C-83.75,166.5330047607422 -77.97799682617188,172.30499267578125 -77.97799682617188,179.4250030517578z"></path></g></g></g><g style="display: block;" transform="matrix(0.7599999904632568,0,0,0.7599999904632568,258.3556823730469,215.44326782226562)" opacity="1"><g opacity="1" transform="matrix(1,0,0,1,0,0)"><path fill="rgb(255,168,0)" fill-opacity="1" d=" M-150.2259979248047,-0.6800000071525574 C-150.2259979248047,-0.6800000071525574 -164.0850067138672,-10.10099983215332 -171.37100219726562,2.5230000019073486 C-178.03599548339844,14.071000099182129 -165.3000030517578,73.76799774169922 -153.53399658203125,83.44999694824219 C-146.29600524902344,89.40599822998047 -138.4600067138672,82.05899810791016 -138.4600067138672,82.05899810791016 C-133.68699645996094,78.79299926757812 -141.43299865722656,11.295000076293945 -150.2259979248047,-0.6800000071525574z"></path><path stroke-linecap="round" stroke-linejoin="round" fill-opacity="0" stroke="rgb(219,110,0)" stroke-opacity="1" stroke-width="11" d=" M-150.2259979248047,-0.6800000071525574 C-150.2259979248047,-0.6800000071525574 -164.0850067138672,-10.10099983215332 -171.37100219726562,2.5230000019073486 C-178.03599548339844,14.071000099182129 -165.3000030517578,73.76799774169922 -153.53399658203125,83.44999694824219 C-146.29600524902344,89.40599822998047 -138.4600067138672,82.05899810791016 -138.4600067138672,82.05899810791016 C-133.68699645996094,78.79299926757812 -141.43299865722656,11.295000076293945 -150.2259979248047,-0.6800000071525574z"></path></g><g opacity="1" transform="matrix(1,0,0,1,0,0)"><path fill="rgb(255,168,0)" fill-opacity="1" d=" M141.28399658203125,-0.6800000071525574 C141.28399658203125,-0.6800000071525574 155.1439971923828,-10.10099983215332 162.42999267578125,2.5230000019073486 C169.09500122070312,14.071000099182129 156.35800170898438,73.76799774169922 144.5919952392578,83.44999694824219 C137.35400390625,89.40599822998047 129.51800537109375,82.05899810791016 129.51800537109375,82.05899810791016 C124.74500274658203,78.79299926757812 132.49099731445312,11.295000076293945 141.28399658203125,-0.6800000071525574z"></path><path stroke-linecap="round" stroke-linejoin="round" fill-opacity="0" stroke="rgb(219,110,0)" stroke-opacity="1" stroke-width="11" d=" M141.28399658203125,-0.6800000071525574 C141.28399658203125,-0.6800000071525574 155.1439971923828,-10.10099983215332 162.42999267578125,2.5230000019073486 C169.09500122070312,14.071000099182129 156.35800170898438,73.76799774169922 144.5919952392578,83.44999694824219 C137.35400390625,89.40599822998047 129.51800537109375,82.05899810791016 129.51800537109375,82.05899810791016 C124.74500274658203,78.79299926757812 132.49099731445312,11.295000076293945 141.28399658203125,-0.6800000071525574z"></path></g></g><g style="display: block;" transform="matrix(0.7599999904632568,0,0,0.7599999904632568,258.3556823730469,216.4434356689453)" opacity="1"><g opacity="1" transform="matrix(1,0,0,1,0,0)"><path fill="rgb(255,168,0)" fill-opacity="1" d=" M139.5749969482422,38.790000915527344 C139.5749969482422,130.41299438476562 74.5199966430664,207.6750030517578 -3.9210000038146973,207.6750030517578 C-82.36199951171875,207.6750030517578 -147.41700744628906,130.41299438476562 -147.41700744628906,38.790000915527344 C-161.85000610351562,-113.5260009765625 -81.47699737548828,-174.81399536132812 -3.9210000038146973,-174.81399536132812 C71.60099792480469,-174.81399536132812 139.5749969482422,-150.91400146484375 139.5749969482422,38.790000915527344z"></path></g><g opacity="1" transform="matrix(1,0,0,1,0,0)"><path fill="url(#__lottie_element_7)" fill-opacity="1" d=" M139.5749969482422,38.790000915527344 C139.5749969482422,130.41299438476562 74.5199966430664,207.6750030517578 -3.9210000038146973,207.6750030517578 C-82.36199951171875,207.6750030517578 -147.41700744628906,130.41299438476562 -147.41700744628906,38.790000915527344 C-161.85000610351562,-113.5260009765625 -81.47699737548828,-174.81399536132812 -3.9210000038146973,-174.81399536132812 C71.60099792480469,-174.81399536132812 139.5749969482422,-150.91400146484375 139.5749969482422,38.790000915527344z"></path></g><g opacity="1" transform="matrix(1,0,0,1,0,0)"><g opacity="1" transform="matrix(1,0,0,1,0,0)"><path fill="url(#__lottie_element_8)" fill-opacity="1" d=" M126.03700256347656,-11.361000061035156 C101.4280014038086,-36.35499954223633 101.21700286865234,-59.29499816894531 100.02799987792969,-66.03500366210938 C99.78700256347656,-67.4020004272461 98.46800231933594,-68.30599975585938 97.10700225830078,-68.03500366210938 C-10.142999649047852,-46.66400146484375 -82.04000091552734,-74.15399932861328 -94.93399810791016,-83.56300354003906 C-96.43000030517578,-84.65499877929688 -98.90699768066406,-83.79100036621094 -98.83699798583984,-81.94000244140625 C-97.66600036621094,-50.900001525878906 -132.54600524902344,-17.801000595092773 -134.1479949951172,-13.234999656677246 C-134.1719970703125,-11.425999641418457 -134.2270050048828,23.518999099731445 -134.2270050048828,25.725000381469727 C-134.2270050048828,108.35299682617188 -75.1520004272461,181.02999877929688 -3.9210000038146973,181.02999877929688 C67.30999755859375,181.02999877929688 126.38500213623047,108.35299682617188 126.38500213623047,25.725000381469727 C126.38500213623047,18.448999404907227 126.0719985961914,-10.156000137329102 126.03700256347656,-11.361000061035156z"></path></g></g><g opacity="1" transform="matrix(1,0,0,1,0,0)"><path stroke-linecap="round" stroke-linejoin="round" fill-opacity="0" stroke="rgb(219,110,0)" stroke-opacity="1" stroke-width="11" d=" M139.5749969482422,38.790000915527344 C139.5749969482422,130.41299438476562 74.5199966430664,207.6750030517578 -3.9210000038146973,207.6750030517578 C-82.36199951171875,207.6750030517578 -147.41700744628906,130.41299438476562 -147.41700744628906,38.790000915527344 C-161.85000610351562,-113.5260009765625 -81.47699737548828,-174.81399536132812 -3.9210000038146973,-174.81399536132812 C71.60099792480469,-174.81399536132812 139.5749969482422,-150.91400146484375 139.5749969482422,38.790000915527344z"></path></g></g><g style="display: block;" transform="matrix(0.7599999904632568,0,0,0.7599999904632568,258.3556823730469,215.44326782226562)" opacity="1"><g opacity="1" transform="matrix(1,0,0,1,0,0)"><path stroke-linecap="round" stroke-linejoin="round" fill-opacity="0" stroke="rgb(163,65,0)" stroke-opacity="1" stroke-width="16" d=" M45.78099822998047,-35.01499938964844 C45.78099822998047,-35.01499938964844 67.8270034790039,-40.10300064086914 87.80000305175781,-30.451000213623047"></path></g><g opacity="1" transform="matrix(1,0,0,1,0,0)"><path stroke-linecap="round" stroke-linejoin="round" fill-opacity="0" stroke="rgb(163,65,0)" stroke-opacity="1" stroke-width="16" d=" M-53.071998596191406,-35.01499938964844 C-53.071998596191406,-35.01499938964844 -75.11699676513672,-40.10300064086914 -95.08999633789062,-30.451000213623047"></path></g></g><g style="display: block;" transform="matrix(0.7599999904632568,0,0,0.7599999904632568,258.3556823730469,215.94412231445312)" opacity="1"><g opacity="1" transform="matrix(1,0,0,1,1.6449999809265137,0)"><g opacity="1" transform="matrix(1,0,0,1,0,0)"><path fill="rgb(255,255,255)" fill-opacity="1" d=" M28.57200050354004,35.28799819946289 C28.57200050354004,35.28799819946289 26.613000869750977,12.751999855041504 42.5989990234375,-1.8940000534057617 C56.33300018310547,-14.47700023651123 82.19000244140625,-13.241999626159668 95.14800262451172,2.878999948501587 C105.69999694824219,16.006000518798828 103.18800354003906,31.309999465942383 103.18800354003906,31.309999465942383 C103.18800354003906,31.309999465942383 92.65299987792969,42.63800048828125 71.02999877929688,43.87200164794922 C43.52000045776367,45.44200134277344 28.57200050354004,35.28799819946289 28.57200050354004,35.28799819946289z"></path></g><g opacity="1" transform="matrix(1,0,0,1,0.8220000267028809,-0.164000004529953)"><g opacity="1" transform="matrix(1,0,0,1,0,0)"><path fill="url(#__lottie_element_35)" fill-opacity="1" d=" M87.80000305175781,16.822999954223633 C87.80000305175781,29.83099937438965 77.25499725341797,40.375999450683594 64.24700164794922,40.375999450683594 C51.23899841308594,40.375999450683594 40.694000244140625,29.83099937438965 40.694000244140625,16.822999954223633 C40.694000244140625,3.815000057220459 51.23899841308594,-6.730000019073486 64.24700164794922,-6.730000019073486 C77.25499725341797,-6.730000019073486 87.80000305175781,3.815000057220459 87.80000305175781,16.822999954223633z"></path></g><g opacity="1" transform="matrix(1,0,0,1,0,0)"><g opacity="1" transform="matrix(1,0,0,1,0,0)"><path fill="url(#__lottie_element_36)" fill-opacity="1" d=" M70.28099822998047,39.303001403808594 C68.44000244140625,39.303001403808594 66.73600006103516,38.11399841308594 66.16500091552734,36.26300048828125 C65.46299743652344,33.9900016784668 66.73799896240234,31.577999114990234 69.01200103759766,30.87700080871582 C73.36100006103516,29.53499984741211 76.8239974975586,26.1560001373291 78.27300262451172,21.83799934387207 C79.02999877929688,19.58099937438965 81.47699737548828,18.368999481201172 83.72799682617188,19.125 C85.98400115966797,19.881999969482422 87.1989974975586,22.323999404907227 86.44200134277344,24.579999923706055 C84.11199951171875,31.520999908447266 78.5459976196289,36.952999114990234 71.5510025024414,39.11000061035156 C71.12799835205078,39.2400016784668 70.70099639892578,39.303001403808594 70.28099822998047,39.303001403808594z"></path></g></g><g opacity="1" transform="matrix(1,0,0,1,0,0)"><path fill="rgb(24,19,9)" fill-opacity="1" d=" M79.13200378417969,16.822999954223633 C79.13200378417969,25.04400062561035 72.46800231933594,31.708999633789062 64.24700164794922,31.708999633789062 C56.0260009765625,31.708999633789062 49.361000061035156,25.04400062561035 49.361000061035156,16.822999954223633 C49.361000061035156,8.60200023651123 56.0260009765625,1.937999963760376 64.24700164794922,1.937999963760376 C72.46800231933594,1.937999963760376 79.13200378417969,8.60200023651123 79.13200378417969,16.822999954223633z"></path></g><g opacity="1" transform="matrix(1,0,0,1,0,0)"><path fill="url(#__lottie_element_37)" fill-opacity="1" d=" M62.979000091552734,3.98799991607666 C62.979000091552734,7.326000213623047 60.42499923706055,10.032999992370605 57.275001525878906,10.032999992370605 C54.125,10.032999992370605 51.57099914550781,7.326000213623047 51.57099914550781,3.98799991607666 C51.57099914550781,0.6499999761581421 54.125,-2.055999994277954 57.275001525878906,-2.055999994277954 C60.42499923706055,-2.055999994277954 62.979000091552734,0.6499999761581421 62.979000091552734,3.98799991607666z"></path></g></g><g opacity="1" transform="matrix(1,0,0,1,0,0)"><path fill="rgb(163,65,0)" fill-opacity="1" d=" M28.57200050354004,35.28799819946289 C25.5310001373291,11.491000175476074 40.91299819946289,-12.895999908447266 66.53099822998047,-12.53600025177002 C89.56500244140625,-12.211999893188477 107.75700378417969,8.204000473022461 103.18800354003906,31.309999465942383 C103.68699645996094,9.857000350952148 87.84200286865234,-8.434000015258789 65.84700012207031,-8.170999526977539 C42.222999572753906,-7.888000011444092 29.457000732421875,13.711000442504883 28.57200050354004,35.28799819946289z"></path><path stroke-linecap="round" stroke-linejoin="round" fill-opacity="0" stroke="rgb(163,65,0)" stroke-opacity="1" stroke-width="2" d=" M28.57200050354004,35.28799819946289 C25.5310001373291,11.491000175476074 40.91299819946289,-12.895999908447266 66.53099822998047,-12.53600025177002 C89.56500244140625,-12.211999893188477 107.75700378417969,8.204000473022461 103.18800354003906,31.309999465942383 C103.68699645996094,9.857000350952148 87.84200286865234,-8.434000015258789 65.84700012207031,-8.170999526977539 C42.222999572753906,-7.888000011444092 29.457000732421875,13.711000442504883 28.57200050354004,35.28799819946289z"></path></g></g><g opacity="1" transform="matrix(1,0,0,1,0,0)"><g opacity="1" transform="matrix(1,0,0,1,0,0)"><path fill="rgb(255,255,255)" fill-opacity="1" d=" M-35.86199951171875,35.28799819946289 C-35.86199951171875,35.28799819946289 -33.90299987792969,12.751999855041504 -49.888999938964844,-1.8940000534057617 C-63.62300109863281,-14.47700023651123 -89.48100280761719,-13.241999626159668 -102.43900299072266,2.878999948501587 C-112.99099731445312,16.006000518798828 -110.47799682617188,31.309999465942383 -110.47799682617188,31.309999465942383 C-110.47799682617188,31.309999465942383 -99.94400024414062,42.63800048828125 -78.32099914550781,43.87200164794922 C-50.81100082397461,45.44200134277344 -35.86199951171875,35.28799819946289 -35.86199951171875,35.28799819946289z"></path></g><g opacity="1" transform="matrix(1,0,0,1,0.32899999618530273,0.164000004529953)"><g opacity="1" transform="matrix(1,0,0,1,0,0)"><path fill="url(#__lottie_element_38)" fill-opacity="1" d=" M-47.98400115966797,16.822999954223633 C-47.98400115966797,29.83099937438965 -58.52899932861328,40.375999450683594 -71.53700256347656,40.375999450683594 C-84.54499816894531,40.375999450683594 -95.08999633789062,29.83099937438965 -95.08999633789062,16.822999954223633 C-95.08999633789062,3.815000057220459 -84.54499816894531,-6.730000019073486 -71.53700256347656,-6.730000019073486 C-58.52899932861328,-6.730000019073486 -47.98400115966797,3.815000057220459 -47.98400115966797,16.822999954223633z"></path></g><g opacity="1" transform="matrix(1,0,0,1,0,0)"><g opacity="1" transform="matrix(1,0,0,1,0,0)"><path fill="url(#__lottie_element_39)" fill-opacity="1" d=" M-65.59600067138672,39.303001403808594 C-67.43699645996094,39.303001403808594 -69.14099884033203,38.11399841308594 -69.71199798583984,36.26300048828125 C-70.41400146484375,33.9900016784668 -69.13899993896484,31.577999114990234 -66.86499786376953,30.87700080871582 C-62.51599884033203,29.53499984741211 -59.053001403808594,26.1560001373291 -57.604000091552734,21.83799934387207 C-56.84700012207031,19.58099937438965 -54.400001525878906,18.368999481201172 -52.14899826049805,19.125 C-49.893001556396484,19.881999969482422 -48.67900085449219,22.323999404907227 -49.43600082397461,24.579999923706055 C-51.76599884033203,31.520999908447266 -57.33100128173828,36.952999114990234 -64.32599639892578,39.11000061035156 C-64.7490005493164,39.2400016784668 -65.1760025024414,39.303001403808594 -65.59600067138672,39.303001403808594z"></path></g></g><g opacity="1" transform="matrix(1,0,0,1,0,0)"><path fill="rgb(24,19,9)" fill-opacity="1" d=" M-56.652000427246094,16.822999954223633 C-56.652000427246094,25.04400062561035 -63.316001892089844,31.708999633789062 -71.53700256347656,31.708999633789062 C-79.75800323486328,31.708999633789062 -86.4229965209961,25.04400062561035 -86.4229965209961,16.822999954223633 C-86.4229965209961,8.60200023651123 -79.75800323486328,1.937999963760376 -71.53700256347656,1.937999963760376 C-63.316001892089844,1.937999963760376 -56.652000427246094,8.60200023651123 -56.652000427246094,16.822999954223633z"></path></g><g opacity="1" transform="matrix(1,0,0,1,0,0)"><path fill="url(#__lottie_element_40)" fill-opacity="1" d=" M-72.80500030517578,3.98799991607666 C-72.80500030517578,7.326000213623047 -75.35900115966797,10.032999992370605 -78.50900268554688,10.032999992370605 C-81.65899658203125,10.032999992370605 -84.21299743652344,7.326000213623047 -84.21299743652344,3.98799991607666 C-84.21299743652344,0.6499999761581421 -81.65899658203125,-2.055999994277954 -78.50900268554688,-2.055999994277954 C-75.35900115966797,-2.055999994277954 -72.80500030517578,0.6499999761581421 -72.80500030517578,3.98799991607666z"></path></g></g><g opacity="1" transform="matrix(1,0,0,1,0,0)"><path fill="rgb(163,65,0)" fill-opacity="1" d=" M-35.86199951171875,35.28799819946289 C-32.82099914550781,11.491000175476074 -48.20399856567383,-12.895999908447266 -73.8219985961914,-12.53600025177002 C-96.85700225830078,-12.211999893188477 -115.0469970703125,8.204000473022461 -110.47799682617188,31.309999465942383 C-110.97699737548828,9.857000350952148 -95.13200378417969,-8.434000015258789 -73.13700103759766,-8.170999526977539 C-49.51300048828125,-7.888000011444092 -36.74700164794922,13.711000442504883 -35.86199951171875,35.28799819946289z"></path><path stroke-linecap="round" stroke-linejoin="round" fill-opacity="0" stroke="rgb(163,65,0)" stroke-opacity="1" stroke-width="2" d=" M-35.86199951171875,35.28799819946289 C-32.82099914550781,11.491000175476074 -48.20399856567383,-12.895999908447266 -73.8219985961914,-12.53600025177002 C-96.85700225830078,-12.211999893188477 -115.0469970703125,8.204000473022461 -110.47799682617188,31.309999465942383 C-110.97699737548828,9.857000350952148 -95.13200378417969,-8.434000015258789 -73.13700103759766,-8.170999526977539 C-49.51300048828125,-7.888000011444092 -36.74700164794922,13.711000442504883 -35.86199951171875,35.28799819946289z"></path></g></g></g><g style="display: block;" transform="matrix(0.7599999904632568,0,0,0.7599999904632568,259.60589599609375,217.8182830810547)" opacity="1"><g opacity="1" transform="matrix(1,0,0,1,0,0)"><path fill="url(#__lottie_element_25)" fill-opacity="0.5" d=" M28.496000289916992,146.94000244140625 C28.496000289916992,152.656005859375 13.960000038146973,162.2729949951172 -3.9719998836517334,162.2729949951172 C-21.90399932861328,162.2729949951172 -36.439998626708984,152.656005859375 -36.439998626708984,146.94000244140625 C-36.439998626708984,141.2239990234375 -21.90399932861328,148.28199768066406 -3.9719998836517334,148.28199768066406 C13.960000038146973,148.28199768066406 28.496000289916992,141.2239990234375 28.496000289916992,146.94000244140625z"></path></g><g opacity="1" transform="matrix(1,0,0,1,0,0)"><path fill="url(#__lottie_element_26)" mask="url(#__lottie_element_28)" fill-opacity="0.7000000000000001" d="M0 0 M38.356998443603516,125.84500122070312 C38.356998443603516,136.5760040283203 19.18199920654297,148.1820068359375 -4.4710001945495605,148.1820068359375 C-28.124000549316406,148.1820068359375 -47.29800033569336,136.5760040283203 -47.29800033569336,125.84500122070312 C-47.29800033569336,115.11399841308594 38.356998443603516,115.11399841308594 38.356998443603516,125.84500122070312z"></path></g><g opacity="1" transform="matrix(1,0,0,1,0,0)"><path fill="url(#__lottie_element_29)" fill-opacity="1" d=" M41.34600067138672,92.88700103759766 C41.34600067138672,92.88700103759766 -49.28799819946289,92.88700103759766 -49.28799819946289,92.88700103759766 C-66.06999969482422,92.88700103759766 -83.96399688720703,108.90399932861328 -83.96399688720703,127.2770004272461 C-83.96399688720703,129.04400634765625 -82.6510009765625,130.552001953125 -80.78299713134766,130.552001953125 C-80.78299713134766,130.552001953125 71.84200286865234,130.552001953125 71.84200286865234,130.552001953125 C73.70999908447266,130.552001953125 75.02300262451172,129.04400634765625 75.02300262451172,127.2770004272461 C75.02300262451172,110.93499755859375 58.12799835205078,92.88700103759766 41.34600067138672,92.88700103759766z"></path></g><g opacity="1" transform="matrix(1,0,0,1,0,0)"><path fill="rgb(136,24,4)" fill-opacity="1" d=" M-41.790000915527344,124.98100280761719 C-41.790000915527344,126.94499969482422 -40.98400115966797,128.8209991455078 -39.474998474121094,130.5500030517578 C-34.22800064086914,136.6909942626953 -20.540000915527344,141.05799865722656 -4.478000164031982,141.05799865722656 C11.598999977111816,141.05799865722656 25.285999298095703,136.6909942626953 30.533000946044922,130.5500030517578 C32.042999267578125,128.8209991455078 32.8489990234375,126.94499969482422 32.8489990234375,124.98100280761719 C32.8489990234375,116.0999984741211 -41.790000915527344,116.0999984741211 -41.790000915527344,124.98100280761719z"></path></g><g opacity="1" transform="matrix(1,0,0,1,0,0)"><path fill="url(#__lottie_element_30)" fill-opacity="1" d=" M-41.790000915527344,124.98100280761719 C-41.790000915527344,126.94499969482422 -40.98400115966797,128.8209991455078 -39.474998474121094,130.5500030517578 C-34.22800064086914,136.6909942626953 -20.540000915527344,141.05799865722656 -4.478000164031982,141.05799865722656 C11.598999977111816,141.05799865722656 25.285999298095703,136.6909942626953 30.533000946044922,130.5500030517578 C32.042999267578125,128.8209991455078 32.8489990234375,126.94499969482422 32.8489990234375,124.98100280761719 C32.8489990234375,116.0999984741211 -41.790000915527344,116.0999984741211 -41.790000915527344,124.98100280761719z"></path></g><g opacity="1" transform="matrix(1,0,0,1,0,0)"><path fill="rgb(255,206,1)" fill-opacity="1" d=" M35.904998779296875,96.88700103759766 C35.904998779296875,96.88700103759766 -44.84600067138672,96.88700103759766 -44.84600067138672,96.88700103759766 C-60.67100143432617,96.88700103759766 -76.625,107.87999725341797 -78.25499725341797,121.98899841308594 C-78.44100189208984,123.59500122070312 -77.01799774169922,124.98300170898438 -75.25599670410156,124.98300170898438 C-75.25599670410156,124.98300170898438 66.31400299072266,124.98300170898438 66.31400299072266,124.98300170898438 C68.07599639892578,124.98300170898438 69.5,123.59500122070312 69.31400299072266,121.98899841308594 C67.68399810791016,107.87999725341797 51.729000091552734,96.88700103759766 35.904998779296875,96.88700103759766z"></path></g><g opacity="1" transform="matrix(1,0,0,1,0,0)"><path fill="url(#__lottie_element_31)" fill-opacity="1" d=" M35.904998779296875,96.88700103759766 C35.904998779296875,96.88700103759766 -44.84600067138672,96.88700103759766 -44.84600067138672,96.88700103759766 C-60.67100143432617,96.88700103759766 -76.625,107.87999725341797 -78.25499725341797,121.98899841308594 C-78.44100189208984,123.59500122070312 -77.01799774169922,124.98300170898438 -75.25599670410156,124.98300170898438 C-75.25599670410156,124.98300170898438 66.31400299072266,124.98300170898438 66.31400299072266,124.98300170898438 C68.07599639892578,124.98300170898438 69.5,123.59500122070312 69.31400299072266,121.98899841308594 C67.68399810791016,107.87999725341797 51.729000091552734,96.88700103759766 35.904998779296875,96.88700103759766z"></path></g><g opacity="1" transform="matrix(1,0,0,1,0,0)"><path fill="rgb(163,65,0)" fill-opacity="1" d=" M69.31099700927734,121.99099731445312 C69.50199890136719,123.58799743652344 68.08100128173828,124.98100280761719 66.3219985961914,124.98100280761719 C66.3219985961914,124.98100280761719 -75.26300048828125,124.98100280761719 -75.26300048828125,124.98100280761719 C-77.02200317382812,124.98100280761719 -78.44300079345703,123.58799743652344 -78.25299835205078,121.99099731445312 C-77.69599914550781,117.13999938964844 -75.43800354003906,112.65599822998047 -72.08200073242188,108.86000061035156 C-73.09300231933594,110.95600128173828 -75.20700073242188,118.28299713134766 -71.21700286865234,118.31300354003906 C-71.21700286865234,118.31300354003906 62.277000427246094,118.31300354003906 62.277000427246094,118.31300354003906 C66.9990005493164,118.36100006103516 64.16699981689453,110.95600128173828 63.14099884033203,108.86000061035156 C66.51100158691406,112.65599822998047 68.75399780273438,117.13999938964844 69.31099700927734,121.99099731445312z"></path></g></g><g style="display: block;" transform="matrix(0.7599999904632568,0,0,0.7599999904632568,259.48046875,217.1935577392578)" opacity="1"><g opacity="1" transform="matrix(1,0,0,1,0,0)"><path fill="url(#__lottie_element_18)" fill-opacity="1" d=" M25.260000228881836,83.00599670410156 C25.260000228881836,95.93000030517578 13.814000129699707,106.40799713134766 -3.9210000038146973,106.40799713134766 C-21.6560001373291,106.40799713134766 -33.10200119018555,95.93000030517578 -33.10200119018555,83.00599670410156 C-37.5,49.625 29.875,48.75 25.260000228881836,83.00599670410156z"></path></g><g opacity="1" transform="matrix(1,0,0,1,0,0)"><path fill="rgb(255,168,0)" fill-opacity="0.8" d=" M25.871000289916992,78.61000061035156 C25.871000289916992,90.5999984741211 12.532999992370605,100.31999969482422 -3.9210000038146973,100.31999969482422 C-20.375,100.31999969482422 -33.7130012512207,90.5999984741211 -33.7130012512207,78.61000061035156 C-33.7130012512207,66.62000274658203 -20.375,57.4109992980957 -3.9210000038146973,57.4109992980957 C12.532999992370605,57.4109992980957 25.871000289916992,66.62000274658203 25.871000289916992,78.61000061035156z"></path></g><g opacity="1" transform="matrix(1,0,0,1,0,0)"><path fill="url(#__lottie_element_19)" fill-opacity="1" d=" M25.871000289916992,78.61000061035156 C25.871000289916992,90.5999984741211 12.532999992370605,100.31999969482422 -3.9210000038146973,100.31999969482422 C-20.375,100.31999969482422 -33.7130012512207,90.5999984741211 -33.7130012512207,78.61000061035156 C-33.7130012512207,66.62000274658203 -20.375,57.4109992980957 -3.9210000038146973,57.4109992980957 C12.532999992370605,57.4109992980957 25.871000289916992,66.62000274658203 25.871000289916992,78.61000061035156z"></path></g><g opacity="1" transform="matrix(1,0,0,1,0,0)"><path fill="rgb(255,216,0)" fill-opacity="1" d=" M23.19300079345703,72.87200164794922 C23.19300079345703,81.7979965209961 10.312999725341797,90.3759994506836 -3.9210000038146973,90.3759994506836 C-18.155000686645508,90.3759994506836 -31.03499984741211,81.7979965209961 -31.03499984741211,72.87200164794922 C-31.03499984741211,63.94599914550781 -18.155000686645508,56.965999603271484 -3.9210000038146973,56.965999603271484 C10.312999725341797,56.965999603271484 23.19300079345703,63.94599914550781 23.19300079345703,72.87200164794922z"></path></g><g opacity="1" transform="matrix(1,0,0,1,0,0)"><path fill="url(#__lottie_element_20)" fill-opacity="1" d=" M23.19300079345703,72.87200164794922 C23.19300079345703,81.7979965209961 10.312999725341797,90.3759994506836 -3.9210000038146973,90.3759994506836 C-18.155000686645508,90.3759994506836 -31.03499984741211,81.7979965209961 -31.03499984741211,72.87200164794922 C-31.03499984741211,63.94599914550781 -18.155000686645508,56.965999603271484 -3.9210000038146973,56.965999603271484 C10.312999725341797,56.965999603271484 23.19300079345703,63.94599914550781 23.19300079345703,72.87200164794922z"></path></g><g opacity="1" transform="matrix(1,0,0,1,0,0)"><path fill="url(#__lottie_element_21)" fill-opacity="0.7000000000000001" d=" M8.175000190734863,67.11000061035156 C8.175000190734863,73.16699981689453 2.759000062942505,78.86599731445312 -3.9210000038146973,78.86599731445312 C-10.60099983215332,78.86599731445312 -16.017000198364258,73.16699981689453 -16.017000198364258,67.11000061035156 C-16.017000198364258,61.053001403808594 -10.60099983215332,58.013999938964844 -3.9210000038146973,58.013999938964844 C2.759000062942505,58.013999938964844 8.175000190734863,61.053001403808594 8.175000190734863,67.11000061035156z"></path></g></g><g style="display: block;" transform="matrix(0.7599999904632568,0,0,0.7599999904632568,258.3556823730469,214.443115234375)" opacity="1"><g opacity="1" transform="matrix(1,0,0,1,0,0)"><path fill="rgb(255,206,1)" fill-opacity="1" d=" M-112.01100158691406,-108.36399841308594 C-111.85600280761719,-109.69300079345703 -110.33699798583984,-110.40399932861328 -109.21499633789062,-109.64800262451172 C-99.7969970703125,-103.3030014038086 -63.29899978637695,-81.79199981689453 1.9859999418258667,-79.15299987792969 C65.76899719238281,-76.5739974975586 102.31099700927734,-84.375 111.00900268554688,-86.5270004272461 C112.06999969482422,-86.79000091552734 113.10900115966797,-86.072998046875 113.21900177001953,-85.00199890136719 C113.9260025024414,-78.13899993896484 117.2750015258789,-55.11800003051758 131.77499389648438,-31.107999801635742 C133.08399963378906,-28.94099998474121 133.74899291992188,-26.45400047302246 133.74899291992188,-23.933000564575195 C133.74899291992188,-23.933000564575195 133.74899291992188,34.57099914550781 133.74899291992188,34.57099914550781 C133.74899291992188,36.56999969482422 135.75599670410156,38.05699920654297 137.66400146484375,37.369998931884766 C141.46600341796875,36.00199890136719 147.0679931640625,30.801000595092773 149.90899658203125,12.793000221252441 C154.45399475097656,-16.020000457763672 164.5540008544922,-63.21500015258789 155.46400451660156,-104.94400024414062 C146.37399291992188,-146.6739959716797 114.7770004272461,-192.48199462890625 46.09700012207031,-203.6179962158203 C-28.68600082397461,-215.74400329589844 -106.11000061035156,-201.0019989013672 -134.91099548339844,-152.88600158691406 C-140.56399536132812,-149.65899658203125 -200.1490020751953,-105.7750015258789 -148.6199951171875,36.9109992980957 C-147.72500610351562,39.38999938964844 -142.74899291992188,40.43199920654297 -142.74899291992188,37.80099868774414 C-142.74899291992188,37.80099868774414 -143.49600219726562,-23.378000259399414 -143.49600219726562,-23.378000259399414 C-143.49600219726562,-26.511999130249023 -142.4340057373047,-29.54800033569336 -140.51100158691406,-32.04600143432617 C-133.63299560546875,-40.97999954223633 -116.88899993896484,-66.49600219726562 -112.01100158691406,-108.36399841308594z"></path></g><g opacity="1" transform="matrix(1,0,0,1,0,0)"><path fill="url(#__lottie_element_11)" fill-opacity="1" d=" M-112.01100158691406,-108.36399841308594 C-111.85600280761719,-109.69300079345703 -110.33699798583984,-110.40399932861328 -109.21499633789062,-109.64800262451172 C-99.7969970703125,-103.3030014038086 -63.29899978637695,-81.79199981689453 1.9859999418258667,-79.15299987792969 C65.76899719238281,-76.5739974975586 102.31099700927734,-84.375 111.00900268554688,-86.5270004272461 C112.06999969482422,-86.79000091552734 113.10900115966797,-86.072998046875 113.21900177001953,-85.00199890136719 C113.9260025024414,-78.13899993896484 117.2750015258789,-55.11800003051758 131.77499389648438,-31.107999801635742 C133.08399963378906,-28.94099998474121 133.74899291992188,-26.45400047302246 133.74899291992188,-23.933000564575195 C133.74899291992188,-23.933000564575195 133.74899291992188,34.57099914550781 133.74899291992188,34.57099914550781 C133.74899291992188,36.56999969482422 135.75599670410156,38.05699920654297 137.66400146484375,37.369998931884766 C141.46600341796875,36.00199890136719 147.0679931640625,30.801000595092773 149.90899658203125,12.793000221252441 C154.45399475097656,-16.020000457763672 164.5540008544922,-63.21500015258789 155.46400451660156,-104.94400024414062 C146.37399291992188,-146.6739959716797 114.7770004272461,-192.48199462890625 46.09700012207031,-203.6179962158203 C-28.68600082397461,-215.74400329589844 -106.11000061035156,-201.0019989013672 -134.91099548339844,-152.88600158691406 C-140.56399536132812,-149.65899658203125 -200.1490020751953,-105.7750015258789 -148.6199951171875,36.9109992980957 C-147.72500610351562,39.38999938964844 -142.74899291992188,40.43199920654297 -142.74899291992188,37.80099868774414 C-142.74899291992188,37.80099868774414 -143.49600219726562,-23.378000259399414 -143.49600219726562,-23.378000259399414 C-143.49600219726562,-26.511999130249023 -142.4340057373047,-29.54800033569336 -140.51100158691406,-32.04600143432617 C-133.63299560546875,-40.97999954223633 -116.88899993896484,-66.49600219726562 -112.01100158691406,-108.36399841308594z"></path></g><g opacity="1" transform="matrix(1,0,0,1,0,0)"><path fill="url(#__lottie_element_12)" fill-opacity="1" d=" M148.60299682617188,19.48200035095215 C145.56900024414062,32.145999908447266 137.06399536132812,42.119998931884766 137.06399536132812,40.12099838256836 C137.06399536132812,40.12099838256836 132.6300048828125,-26.80500030517578 132.6300048828125,-26.80500030517578 C115.2249984741211,-58.95199966430664 113.93000030517578,-74.26699829101562 113.2229995727539,-81.13500213623047 C113.1050033569336,-82.20700073242188 68.60700225830078,-71.3499984741211 4.828999996185303,-73.92900085449219 C-60.46500015258789,-76.58100128173828 -103.72000122070312,-98.14700317382812 -113.14600372314453,-104.49299621582031 C-114.26599884033203,-105.24600219726562 -108.06199645996094,-69.95899963378906 -140.51600646972656,-28.177000045776367 C-142.44400024414062,-25.69499969482422 -144.80099487304688,40.12099838256836 -144.80099487304688,40.12099838256836 C-152.80799865722656,37.81100082397461 -155.73199462890625,25.79800033569336 -158.69200134277344,12.03499984741211 C-148.97000122070312,43.6609992980957 -154.0540008544922,-25.160999298095703 -154.0540008544922,-25.160999298095703 C-155.1300048828125,-24.76799964904785 -157.5570068359375,-24.965999603271484 -157.5570068359375,-24.965999603271484 C-130.6320037841797,-58.090999603271484 -123.46399688720703,-94.81300354003906 -124.05599975585938,-111.9800033569336 C-124.51300048828125,-125.21800231933594 -126.40299987792969,-132.875 -131.33099365234375,-135.29200744628906 C-147.73399353027344,-143.33799743652344 -166.88099670410156,-87.01499938964844 -166.88099670410156,-87.01499938964844 C-168.10499572753906,-125.86599731445312 -141.81199645996094,-145.86399841308594 -133.81500244140625,-150.50100708007812 C-101.69100189208984,-195.76600646972656 -28.68400001525879,-215.74600219726562 46.09600067138672,-203.6179962158203 C114.77799987792969,-192.49000549316406 146.89500427246094,-162.38099670410156 157.8820037841797,-90.21700286865234 C153.13299560546875,-160.86700439453125 92.61499786376953,-195.5749969482422 1.5729999542236328,-195.43099975585938 C-70.05899810791016,-195.3179931640625 -99.95500183105469,-173.45899963378906 -111.68900299072266,-160.2449951171875 C-115.1989974975586,-156.29200744628906 -119.0469970703125,-146.48500061035156 -115.3759994506836,-139.55499267578125 C-103.98999786376953,-118.06600189208984 -63.983001708984375,-95.46199798583984 7.603000164031982,-91.36199951171875 C84.30599975585938,-86.96800231933594 141.0240020751953,-103.83499908447266 142.2169952392578,-104.1969985961914 C133.8800048828125,-96.75 126.56500244140625,-86.31900024414062 126.56500244140625,-86.31900024414062 C129.03599548339844,-50.814998626708984 149.51499938964844,-24.02199935913086 149.51499938964844,-24.02199935913086 C146.79600524902344,-23.358999252319336 144.5240020751953,-23.93000030517578 144.5240020751953,-23.93000030517578 C143.40699768066406,30.988000869750977 148.60299682617188,19.48200035095215 148.60299682617188,19.48200035095215z"></path></g><g opacity="1" transform="matrix(1,0,0,1,0,0)"><path fill="url(#__lottie_element_13)" fill-opacity="0.9" d=" M-124.37899780273438,-102.7490005493164 C-122.0719985961914,-128.75599670410156 -130.49000549316406,-138.3090057373047 -132.51100158691406,-138.29100036621094 C-135.69200134277344,-138.26300048828125 -142.67100524902344,-133.22900390625 -147.01499938964844,-127.58399963378906 C-161.8159942626953,-108.3489990234375 -164.4250030517578,-91.90599822998047 -164.01300048828125,-72.28800201416016 C-163.8520050048828,-64.65699768066406 -159.2570037841797,-75.95700073242188 -149.58999633789062,-92.96399688720703 C-140.0989990234375,-109.66300201416016 -124.96199798583984,-96.18000030517578 -124.37899780273438,-102.7490005493164z"></path></g><g opacity="1" transform="matrix(1,0,0,1,0,0)"><path fill="url(#__lottie_element_14)" fill-opacity="0.9" d=" M-2.135999917984009,-94.4749984741211 C-58.80400085449219,-94.4729995727539 -96.5979995727539,-113.46099853515625 -111.29000091552734,-134.08200073242188 C-114.08599853515625,-138.0070037841797 -120.15899658203125,-146.25399780273438 -118.18099975585938,-150.968994140625 C-109.60900115966797,-171.40199279785156 -63.54100036621094,-194.5240020751953 -0.6190000176429749,-195.34100341796875 C43.48099899291992,-195.91600036621094 82.99400329589844,-189.06900024414062 110.72699737548828,-163.0659942626953 C145.927001953125,-131.61599731445312 103.48100280761719,-94.47899627685547 -2.135999917984009,-94.4749984741211z"></path></g><g opacity="1" transform="matrix(1,0,0,1,0,0)"><path stroke-linecap="round" stroke-linejoin="round" fill-opacity="0" stroke="rgb(197,92,0)" stroke-opacity="1" stroke-width="11" d=" M-112.36499786376953,-107.26000213623047 C-58,-74.28299713134766 32.58100128173828,-68.95500183105469 114.51799774169922,-83.38999938964844 C114.51799774169922,-83.38999938964844 114.052001953125,-57.641998291015625 132.6300048828125,-26.80500030517578 C132.61099243164062,-18.243999481201172 133.94000244140625,36.01599884033203 133.94000244140625,36.01599884033203 C133.94000244140625,40.983001708984375 135.13400268554688,43.439998626708984 143.0449981689453,34.82500076293945 C153.9949951171875,22.899999618530273 164.302001953125,-51.71099853515625 157.8820037841797,-97.56300354003906 C150.9709930419922,-146.91900634765625 118.75,-207.6699981689453 -0.6129999756813049,-207.6750030517578 C-101.0469970703125,-207.6790008544922 -132.17599487304688,-159.80299377441406 -134.91099548339844,-152.88600158691406 C-169.3990020751953,-137.7469940185547 -180.7010040283203,-57.55400085449219 -155.05999755859375,28.60099983215332 C-149.43099975585938,46.35900115966797 -142.56199645996094,48.400001525878906 -142.406005859375,31.500999450683594 C-142.25,14.60200023651123 -141.6300048828125,-27.32900047302246 -141.6300048828125,-27.32900047302246 C-141.6300048828125,-27.32900047302246 -115.23300170898438,-61.266998291015625 -112.36499786376953,-107.26000213623047z"></path></g><g opacity="1" transform="matrix(1,0,0,1,0,0)"><path stroke-linecap="round" stroke-linejoin="round" fill-opacity="0" stroke="rgb(163,65,0)" stroke-opacity="1" stroke-width="11" d=" M-141.6300048828125,-27.32900047302246 C-141.6300048828125,-27.32900047302246 -115.23300170898438,-61.266998291015625 -112.36499786376953,-107.26000213623047 C-58,-74.28299713134766 32.58100128173828,-68.95500183105469 114.51799774169922,-83.38999938964844 C114.51799774169922,-83.38999938964844 114.052001953125,-57.641998291015625 132.6300048828125,-26.80500030517578"></path></g></g></g></svg>