<svg xmlns="http://www.w3.org/2000/svg" xmlns:xlink="http://www.w3.org/1999/xlink" viewBox="0 0 512 512" width="512" height="512" style="width: 100%; height: 100%; transform: translate3d(0,0,0); content-visibility: visible;" preserveAspectRatio="xMidYMid meet"><defs><clipPath id="__lottie_element_2"><rect width="512" height="512" x="0" y="0"></rect></clipPath><linearGradient id="__lottie_element_6" spreadMethod="pad" gradientUnits="userSpaceOnUse" x1="-5.926000118255615" y1="73.76399993896484" x2="-5.926000118255615" y2="106.6729965209961"><stop offset="0%" stop-color="rgb(255,168,0)" stop-opacity="1"></stop><stop offset="66%" stop-color="rgb(255,168,0)" stop-opacity="0.5"></stop><stop offset="100%" stop-color="rgb(255,168,0)" stop-opacity="0"></stop></linearGradient><linearGradient id="__lottie_element_7" spreadMethod="pad" gradientUnits="userSpaceOnUse" x1="-5.301000118255615" y1="83.63899993896484" x2="-5.676000118255615" y2="56.98899841308594"><stop offset="10%" stop-color="rgb(219,110,0)" stop-opacity="1"></stop><stop offset="51%" stop-color="rgb(219,110,0)" stop-opacity="0.5"></stop><stop offset="80%" stop-color="rgb(219,110,0)" stop-opacity="0"></stop></linearGradient><radialGradient id="__lottie_element_8" spreadMethod="pad" gradientUnits="userSpaceOnUse" cx="-5.926000118255615" cy="50.763999938964844" r="30.842000484466553" fx="-5.926000118255615" fy="50.763999938964844"><stop offset="36%" stop-color="rgb(255,168,0)" stop-opacity="0"></stop><stop offset="74%" stop-color="rgb(255,168,0)" stop-opacity="0.5"></stop><stop offset="100%" stop-color="rgb(255,168,0)" stop-opacity="1"></stop></radialGradient><linearGradient id="__lottie_element_9" spreadMethod="pad" gradientUnits="userSpaceOnUse" x1="-5.926000118255615" y1="47.763999938964844" x2="-5.926000118255615" y2="60.27199935913086"><stop offset="0%" stop-color="rgb(255,255,255)" stop-opacity="1"></stop><stop offset="50%" stop-color="rgb(255,255,255)" stop-opacity="0.5"></stop><stop offset="100%" stop-color="rgb(255,255,255)" stop-opacity="0"></stop></linearGradient><radialGradient id="__lottie_element_13" spreadMethod="pad" gradientUnits="userSpaceOnUse" cx="5.557000160217285" cy="142.42100524902344" r="53.46304710347579" fx="5.557000160217285" fy="142.42100524902344"><stop offset="0%" stop-color="rgb(255,255,255)" stop-opacity="1"></stop><stop offset="60%" stop-color="rgb(255,255,255)" stop-opacity="0.5"></stop><stop offset="100%" stop-color="rgb(255,255,255)" stop-opacity="0"></stop></radialGradient><linearGradient id="__lottie_element_14" spreadMethod="pad" gradientUnits="userSpaceOnUse" x1="-1.4429999589920044" y1="142.42100524902344" x2="-1.4429999589920044" y2="127.66999816894531"><stop offset="0%" stop-color="rgb(88,11,14)" stop-opacity="0"></stop><stop offset="34%" stop-color="rgb(88,11,14)" stop-opacity="0.5"></stop><stop offset="75%" stop-color="rgb(88,11,14)" stop-opacity="1"></stop></linearGradient><radialGradient id="__lottie_element_15" spreadMethod="pad" gradientUnits="userSpaceOnUse" cx="-0.19300000369548798" cy="165.67100524902344" r="30.53497488937068" fx="-0.19300000369548798" fy="165.67100524902344"><stop offset="10%" stop-color="rgb(219,110,0)" stop-opacity="1"></stop><stop offset="64%" stop-color="rgb(219,110,0)" stop-opacity="0.5049999952316284"></stop><stop offset="100%" stop-color="rgb(219,110,0)" stop-opacity="0.009999999776482582"></stop></radialGradient><linearGradient id="__lottie_element_16" spreadMethod="pad" gradientUnits="userSpaceOnUse" x1="-41.44300079345703" y1="104.6709976196289" x2="-58.56700134277344" y2="170.302001953125"><stop offset="0%" stop-color="rgb(255,168,0)" stop-opacity="1"></stop><stop offset="60%" stop-color="rgb(255,168,0)" stop-opacity="0.5"></stop><stop offset="100%" stop-color="rgb(255,168,0)" stop-opacity="0"></stop></linearGradient><linearGradient id="__lottie_element_17" spreadMethod="pad" gradientUnits="userSpaceOnUse" x1="-41.44300079345703" y1="104.6709976196289" x2="-58.56700134277344" y2="170.302001953125"><stop offset="0%" stop-color="rgb(255,168,0)" stop-opacity="1"></stop><stop offset="60%" stop-color="rgb(255,168,0)" stop-opacity="0.5"></stop><stop offset="100%" stop-color="rgb(255,168,0)" stop-opacity="0"></stop></linearGradient><radialGradient id="__lottie_element_24" spreadMethod="pad" gradientUnits="userSpaceOnUse" cx="-0.4429999887943268" cy="-133.57899475097656" r="70.56030030382892" fx="-0.4429999887943268" fy="-133.57899475097656"><stop offset="70%" stop-color="rgb(255,206,1)" stop-opacity="1"></stop><stop offset="85%" stop-color="rgb(255,206,1)" stop-opacity="0.5"></stop><stop offset="100%" stop-color="rgb(255,206,1)" stop-opacity="0"></stop></radialGradient><linearGradient id="__lottie_element_25" spreadMethod="pad" gradientUnits="userSpaceOnUse" x1="-114.44300079345703" y1="-50.57899856567383" x2="-133.74000549316406" y2="102.8219985961914"><stop offset="10%" stop-color="rgb(218,110,0)" stop-opacity="0"></stop><stop offset="55%" stop-color="rgb(218,110,0)" stop-opacity="0.5"></stop><stop offset="100%" stop-color="rgb(218,110,0)" stop-opacity="1"></stop></linearGradient><linearGradient id="__lottie_element_26" spreadMethod="pad" gradientUnits="userSpaceOnUse" x1="-125.44300079345703" y1="139.92100524902344" x2="-89.45800018310547" y2="-181.81199645996094"><stop offset="0%" stop-color="rgb(218,110,0)" stop-opacity="1"></stop><stop offset="40%" stop-color="rgb(218,110,0)" stop-opacity="0.5"></stop><stop offset="80%" stop-color="rgb(218,110,0)" stop-opacity="0"></stop></linearGradient><linearGradient id="__lottie_element_27" spreadMethod="pad" gradientUnits="userSpaceOnUse" x1="-85.44300079345703" y1="-151.57899475097656" x2="-75.9749984741211" y2="-73.47100067138672"><stop offset="0%" stop-color="rgb(255,255,255)" stop-opacity="1"></stop><stop offset="60%" stop-color="rgb(255,255,255)" stop-opacity="0.5"></stop><stop offset="100%" stop-color="rgb(255,255,255)" stop-opacity="0"></stop></linearGradient><linearGradient id="__lottie_element_28" spreadMethod="pad" gradientUnits="userSpaceOnUse" x1="-114.44300079345703" y1="-50.57899856567383" x2="-133.74000549316406" y2="102.8219985961914"><stop offset="10%" stop-color="rgb(218,110,0)" stop-opacity="0"></stop><stop offset="55%" stop-color="rgb(218,110,0)" stop-opacity="0.5"></stop><stop offset="100%" stop-color="rgb(218,110,0)" stop-opacity="1"></stop></linearGradient><linearGradient id="__lottie_element_29" spreadMethod="pad" gradientUnits="userSpaceOnUse" x1="-125.44300079345703" y1="139.92100524902344" x2="-89.45800018310547" y2="-181.81199645996094"><stop offset="0%" stop-color="rgb(218,110,0)" stop-opacity="1"></stop><stop offset="40%" stop-color="rgb(218,110,0)" stop-opacity="0.5"></stop><stop offset="80%" stop-color="rgb(218,110,0)" stop-opacity="0"></stop></linearGradient><linearGradient id="__lottie_element_30" spreadMethod="pad" gradientUnits="userSpaceOnUse" x1="-85.44300079345703" y1="-151.57899475097656" x2="-75.9749984741211" y2="-73.47100067138672"><stop offset="0%" stop-color="rgb(255,255,255)" stop-opacity="1"></stop><stop offset="60%" stop-color="rgb(255,255,255)" stop-opacity="0.5"></stop><stop offset="100%" stop-color="rgb(255,255,255)" stop-opacity="0"></stop></linearGradient><linearGradient id="__lottie_element_40" spreadMethod="pad" gradientUnits="userSpaceOnUse" x1="-85.9260025024414" y1="-18.986000061035156" x2="-65.16600036621094" y2="14.65999984741211"><stop offset="0%" stop-color="rgb(66,0,0)"></stop><stop offset="37%" stop-color="rgb(118,40,0)"></stop><stop offset="100%" stop-color="rgb(170,80,0)"></stop></linearGradient><radialGradient id="__lottie_element_41" spreadMethod="pad" gradientUnits="userSpaceOnUse" cx="-67.9260025024414" cy="6.763999938964844" r="14.795001983642578" fx="-67.9260025024414" fy="6.763999938964844"><stop offset="0%" stop-color="rgb(246,175,0)" stop-opacity="1"></stop><stop offset="50%" stop-color="rgb(246,175,0)" stop-opacity="0.5"></stop><stop offset="100%" stop-color="rgb(246,175,0)" stop-opacity="0"></stop></radialGradient><linearGradient id="__lottie_element_42" spreadMethod="pad" gradientUnits="userSpaceOnUse" x1="-87.48799896240234" y1="-28.673999786376953" x2="-87.30999755859375" y2="-16.361000061035156"><stop offset="0%" stop-color="rgb(255,255,255)" stop-opacity="1"></stop><stop offset="60%" stop-color="rgb(255,255,255)" stop-opacity="0.5"></stop><stop offset="100%" stop-color="rgb(255,255,255)" stop-opacity="0"></stop></linearGradient><linearGradient id="__lottie_element_43" spreadMethod="pad" gradientUnits="userSpaceOnUse" x1="-85.9260025024414" y1="-18.986000061035156" x2="-65.16600036621094" y2="14.65999984741211"><stop offset="0%" stop-color="rgb(66,0,0)"></stop><stop offset="37%" stop-color="rgb(118,40,0)"></stop><stop offset="100%" stop-color="rgb(170,80,0)"></stop></linearGradient><radialGradient id="__lottie_element_44" spreadMethod="pad" gradientUnits="userSpaceOnUse" cx="-67.9260025024414" cy="6.763999938964844" r="14.795001983642578" fx="-67.9260025024414" fy="6.763999938964844"><stop offset="0%" stop-color="rgb(246,175,0)" stop-opacity="1"></stop><stop offset="50%" stop-color="rgb(246,175,0)" stop-opacity="0.5"></stop><stop offset="100%" stop-color="rgb(246,175,0)" stop-opacity="0"></stop></radialGradient><linearGradient id="__lottie_element_45" spreadMethod="pad" gradientUnits="userSpaceOnUse" x1="-87.48799896240234" y1="-28.673999786376953" x2="-87.30999755859375" y2="-16.361000061035156"><stop offset="0%" stop-color="rgb(255,255,255)" stop-opacity="1"></stop><stop offset="60%" stop-color="rgb(255,255,255)" stop-opacity="0.5"></stop><stop offset="100%" stop-color="rgb(255,255,255)" stop-opacity="0"></stop></linearGradient><radialGradient id="__lottie_element_49" spreadMethod="pad" gradientUnits="userSpaceOnUse" cx="-2.443000078201294" cy="38.42100143432617" r="151.95200276374817" fx="-2.443000078201294" fy="38.42100143432617"><stop offset="70%" stop-color="rgb(255,216,0)" stop-opacity="1"></stop><stop offset="91%" stop-color="rgb(255,216,0)" stop-opacity="0.5"></stop><stop offset="100%" stop-color="rgb(255,216,0)" stop-opacity="0"></stop></radialGradient><linearGradient id="__lottie_element_50" spreadMethod="pad" gradientUnits="userSpaceOnUse" x1="56.30699920654297" y1="-34.95399856567383" x2="50.3129997253418" y2="-24.683000564575195"><stop offset="0%" stop-color="rgb(255,168,0)" stop-opacity="1"></stop><stop offset="50%" stop-color="rgb(255,168,0)" stop-opacity="0.5"></stop><stop offset="100%" stop-color="rgb(255,168,0)" stop-opacity="0"></stop></linearGradient><linearGradient id="__lottie_element_51" spreadMethod="pad" gradientUnits="userSpaceOnUse" x1="-60.19300079345703" y1="-35.32899856567383" x2="-54.4370002746582" y2="-24.683000564575195"><stop offset="0%" stop-color="rgb(255,168,0)" stop-opacity="1"></stop><stop offset="50%" stop-color="rgb(255,168,0)" stop-opacity="0.5"></stop><stop offset="100%" stop-color="rgb(255,168,0)" stop-opacity="0"></stop></linearGradient><radialGradient id="__lottie_element_52" spreadMethod="pad" gradientUnits="userSpaceOnUse" cx="-1.4429999589920044" cy="-28.57900047302246" r="44.35399925708771" fx="-1.4429999589920044" fy="-28.57900047302246"><stop offset="0%" stop-color="rgb(255,168,0)" stop-opacity="1"></stop><stop offset="50%" stop-color="rgb(255,168,0)" stop-opacity="0.5"></stop><stop offset="100%" stop-color="rgb(255,168,0)" stop-opacity="0"></stop></radialGradient><radialGradient id="__lottie_element_53" spreadMethod="pad" gradientUnits="userSpaceOnUse" cx="-1.4429999589920044" cy="-47.57899856567383" r="66.12699806690216" fx="-1.4429999589920044" fy="-47.57899856567383"><stop offset="0%" stop-color="rgb(255,168,0)" stop-opacity="1"></stop><stop offset="50%" stop-color="rgb(255,168,0)" stop-opacity="0.5"></stop><stop offset="100%" stop-color="rgb(255,168,0)" stop-opacity="0"></stop></radialGradient></defs><g clip-path="url(#__lottie_element_2)"><g style="display: block;" transform="matrix(1,0,0,1,256,256)" opacity="1"><g opacity="1" transform="matrix(1,0,0,1,0,0)"><path fill="rgb(255,168,0)" fill-opacity="1" d=" M-0.49799999594688416,-101.5469970703125 C-0.49799999594688416,-101.5469970703125 -196.72999572753906,-22.922000885009766 -148.76699829101562,117.14199829101562 C-129.18299865722656,174.33200073242188 -69.52999877929688,182.14999389648438 -64.6259994506836,185.9600067138672 C-44.5369987487793,201.56500244140625 -24.513999938964844,209.73199462890625 -0.49799999594688416,209.73199462890625 C23.492000579833984,209.73199462890625 43.823001861572266,201.072998046875 63.62900161743164,185.9600067138672 C68.56600189208984,182.1929931640625 128.18699645996094,174.33200073242188 147.77099609375,117.14199829101562 C195.73399353027344,-22.922000885009766 -0.49799999594688416,-101.5469970703125 -0.49799999594688416,-101.5469970703125z"></path><path stroke-linecap="round" stroke-linejoin="round" fill-opacity="0" stroke="rgb(219,110,0)" stroke-opacity="1" stroke-width="8" d=" M-0.49799999594688416,-101.5469970703125 C-0.49799999594688416,-101.5469970703125 -196.72999572753906,-22.922000885009766 -148.76699829101562,117.14199829101562 C-129.18299865722656,174.33200073242188 -69.52999877929688,182.14999389648438 -64.6259994506836,185.9600067138672 C-44.5369987487793,201.56500244140625 -24.513999938964844,209.73199462890625 -0.49799999594688416,209.73199462890625 C23.492000579833984,209.73199462890625 43.823001861572266,201.072998046875 63.62900161743164,185.9600067138672 C68.56600189208984,182.1929931640625 128.18699645996094,174.33200073242188 147.77099609375,117.14199829101562 C195.73399353027344,-22.922000885009766 -0.49799999594688416,-101.5469970703125 -0.49799999594688416,-101.5469970703125z"></path></g><g opacity="1" transform="matrix(1,0,0,1,0,0)"><path fill="url(#__lottie_element_49)" fill-opacity="1" d=" M92.91400146484375,-13.932000160217285 C62.994998931884766,-36.48699951171875 26.166000366210938,-47.2859992980957 0.06700000166893005,-67.86799621582031 C-33.3849983215332,-40.106998443603516 -65.03500366210938,-43.87099838256836 -94.71900177001953,-12.01200008392334 C-110.4729995727539,4.895999908447266 -136.95399475097656,46.224998474121094 -129.36900329589844,96.12999725341797 C-121.79499816894531,146.03500366210938 -81.69999694824219,158.36900329589844 -60.191001892089844,166.83700561523438 C-38.69300079345703,175.29299926757812 -30.54800033569336,190.57000732421875 -1.0640000104904175,190.56700134277344 C29.573999404907227,190.56399536132812 38.505001068115234,176.5229949951172 57.60499954223633,166.60699462890625 C75.0770034790039,157.53599548339844 116.79100036621094,150.7989959716797 127.7699966430664,101.02200317382812 C138.33700561523438,53.112998962402344 109.3499984741211,-1.5410000085830688 92.91400146484375,-13.932000160217285z"></path></g><g opacity="1" transform="matrix(1,0,0,1,0,-2)"><g opacity="1" transform="matrix(1,0,0,1,0,0)"><path fill="url(#__lottie_element_50)" fill-opacity="1" d=" M-0.49799999594688416,-103.5469970703125 C-0.49799999594688416,-103.5469970703125 -196.72999572753906,-24.922000885009766 -148.76699829101562,115.14199829101562 C-129.18299865722656,172.33200073242188 -69.52999877929688,180.14999389648438 -64.6259994506836,183.9600067138672 C-44.5369987487793,199.56500244140625 -24.513999938964844,207.73199462890625 -0.49799999594688416,207.73199462890625 C23.492000579833984,207.73199462890625 43.823001861572266,199.072998046875 63.62900161743164,183.9600067138672 C68.56600189208984,180.1929931640625 128.18699645996094,172.33200073242188 147.77099609375,115.14199829101562 C195.73399353027344,-24.922000885009766 -0.49799999594688416,-103.5469970703125 -0.49799999594688416,-103.5469970703125z"></path></g><g opacity="1" transform="matrix(1,0,0,1,0,0)"><path fill="url(#__lottie_element_51)" fill-opacity="1" d=" M-0.49799999594688416,-103.5469970703125 C-0.49799999594688416,-103.5469970703125 195.73399353027344,-24.922000885009766 147.77099609375,115.14199829101562 C128.18699645996094,172.33200073242188 68.53299713134766,180.14999389648438 63.62900161743164,183.9600067138672 C43.540000915527344,199.56500244140625 23.51799964904785,207.73199462890625 -0.49799999594688416,207.73199462890625 C-24.488000869750977,207.73199462890625 -44.81999969482422,199.072998046875 -64.6259994506836,183.9600067138672 C-69.56300354003906,180.1929931640625 -129.18299865722656,172.33200073242188 -148.76699829101562,115.14199829101562 C-196.72999572753906,-24.922000885009766 -0.49799999594688416,-103.5469970703125 -0.49799999594688416,-103.5469970703125z"></path></g></g><g opacity="1" transform="matrix(1,0,0,1,0,0)"><g opacity="1" transform="matrix(1,0,0,1,0,0)"><path fill="url(#__lottie_element_52)" fill-opacity="0.9" d=" M0.2800000011920929,-24.033000946044922 C-23.086000442504883,-24.033000946044922 -45.0629997253418,-28.604999542236328 -44.83000183105469,-30.80500030517578 C-44.59700012207031,-33.005001068115234 -22.67099952697754,-32.0359992980957 0.13500000536441803,-32.03099822998047 C11.692000389099121,-32.02799987792969 42.584999084472656,-32.99300003051758 42.810001373291016,-30.792999267578125 C43.03499984741211,-28.593000411987305 12.045999526977539,-24.033000946044922 0.2800000011920929,-24.033000946044922z"></path></g><g opacity="1" transform="matrix(1,0,0,1,0,0)"><path fill="url(#__lottie_element_53)" fill-opacity="0.9" d=" M0.7179999947547913,-42.28499984741211 C-30.586000442504883,-42.28499984741211 -60.104000091552734,-45.04499816894531 -59.71699905395508,-50.055999755859375 C-59.435001373291016,-53.70399856567383 -30.030000686645508,-50.2869987487793 0.5239999890327454,-50.28200149536133 C16.006999969482422,-50.27899932861328 57.696998596191406,-54.12099838256836 57.696998596191406,-50.04399871826172 C57.696998596191406,-44.284000396728516 16.481000900268555,-42.28499984741211 0.7179999947547913,-42.28499984741211z"></path></g></g></g><g style="display: block;" transform="matrix(1,0,0,1,256,256)" opacity="1"><g opacity="1" transform="matrix(1,0,0,1,0,0)"><g opacity="1" transform="matrix(1,0,0,1,0,0)"><path fill="rgb(255,255,255)" fill-opacity="1" d=" M-30.263999938964844,48.715999603271484 C-30.263999938964844,48.715999603271484 -36.36600112915039,8.258000373840332 -69.34100341796875,8.26099967956543 C-100.10800170898438,8.263999938964844 -113.64199829101562,37.54600143432617 -113.64199829101562,45.76599884033203 C-113.64199829101562,45.76599884033203 -101.26200103759766,67.1969985961914 -71.39199829101562,67.1709976196289 C-37.74100112915039,67.14099884033203 -30.263999938964844,48.715999603271484 -30.263999938964844,48.715999603271484z"></path></g><g opacity="1" transform="matrix(0.9136199951171875,0,0,0.9136199951171875,1.2163848876953125,44.602149963378906)"><g opacity="1" transform="matrix(1,0,0,1,0,0)"><path fill="url(#__lottie_element_40)" fill-opacity="1" d=" M-52.59600067138672,-7.182000160217285 C-52.59600067138672,8.140000343322754 -64.71399688720703,20.559999465942383 -79.66100311279297,20.559999465942383 C-94.60900115966797,20.559999465942383 -106.72599792480469,8.140000343322754 -106.72599792480469,-7.182000160217285 C-106.72599792480469,-22.503999710083008 -94.60900115966797,-34.92499923706055 -79.66100311279297,-34.92499923706055 C-64.71399688720703,-34.92499923706055 -52.59600067138672,-22.503999710083008 -52.59600067138672,-7.182000160217285z"></path></g><g opacity="1" transform="matrix(1,0,0,1,0,0)"><g opacity="1" transform="matrix(1,0,0,1,0,0)"><path fill="url(#__lottie_element_41)" fill-opacity="1" d=" M-72.83399963378906,19.295000076293945 C-74.9489974975586,19.295000076293945 -76.90799713134766,17.895000457763672 -77.56400299072266,15.71500015258789 C-78.37000274658203,13.036999702453613 -76.90499877929688,10.196000099182129 -74.29199981689453,9.369999885559082 C-69.29399871826172,7.789999961853027 -65.31500244140625,3.809999942779541 -63.650001525878906,-1.2760000228881836 C-62.779998779296875,-3.934000015258789 -59.96900177001953,-5.361999988555908 -57.38199996948242,-4.4720001220703125 C-54.790000915527344,-3.5810000896453857 -53.39400100708008,-0.703000009059906 -54.263999938964844,1.9539999961853027 C-56.941001892089844,10.130000114440918 -63.33599853515625,16.527000427246094 -71.3740005493164,19.06800079345703 C-71.86000061035156,19.222000122070312 -72.35199737548828,19.295000076293945 -72.83399963378906,19.295000076293945z"></path></g></g><g opacity="1" transform="matrix(1,0,0,1,0,0)"><path fill="rgb(24,19,9)" fill-opacity="1" d=" M-62.555999755859375,-7.182000160217285 C-62.555999755859375,2.500999927520752 -70.21399688720703,10.35099983215332 -79.66100311279297,10.35099983215332 C-89.10800170898438,10.35099983215332 -96.76599884033203,2.500999927520752 -96.76599884033203,-7.182000160217285 C-96.76599884033203,-16.864999771118164 -89.10800170898438,-24.71500015258789 -79.66100311279297,-24.71500015258789 C-70.21399688720703,-24.71500015258789 -62.555999755859375,-16.864999771118164 -62.555999755859375,-7.182000160217285z"></path></g><g opacity="1" transform="matrix(1,0,0,1,0,0)"><path fill="url(#__lottie_element_42)" fill-opacity="1" d=" M-87.6719970703125,-15.805000305175781 C-91.3489990234375,-15.805000305175781 -94.33100128173828,-18.71299934387207 -94.33100128173828,-22.299999237060547 C-94.33100128173828,-25.886999130249023 -91.3499984741211,-28.79599952697754 -87.6729965209961,-28.79599952697754 C-83.99600219726562,-28.79599952697754 -81.01399993896484,-25.886999130249023 -81.01399993896484,-22.299999237060547 C-81.01399993896484,-18.71299934387207 -83.99500274658203,-15.805000305175781 -87.6719970703125,-15.805000305175781z"></path></g></g><g opacity="1" transform="matrix(1,0,0,1,0,0)"><path fill="rgb(163,65,0)" fill-opacity="1" d=" M-30.590999603271484,43.02299880981445 C-30.590999603271484,43.02299880981445 -38.10499954223633,5.495999813079834 -70.4010009765625,5.834000110626221 C-102.697998046875,6.171999931335449 -112.34400177001953,36.6510009765625 -113.64199829101562,45.76599884033203 C-113.64199829101562,45.76599884033203 -107.20600128173828,9.097999572753906 -70.4010009765625,8.6850004196167 C-39.91999816894531,8.343000411987305 -30.590999603271484,43.02299880981445 -30.590999603271484,43.02299880981445z"></path><path stroke-linecap="round" stroke-linejoin="round" fill-opacity="0" stroke="rgb(163,65,0)" stroke-opacity="1" stroke-width="2" d=" M-30.590999603271484,43.02299880981445 C-30.590999603271484,43.02299880981445 -38.10499954223633,5.495999813079834 -70.4010009765625,5.834000110626221 C-102.697998046875,6.171999931335449 -112.34400177001953,36.6510009765625 -113.64199829101562,45.76599884033203 C-113.64199829101562,45.76599884033203 -107.20600128173828,9.097999572753906 -70.4010009765625,8.6850004196167 C-39.91999816894531,8.343000411987305 -30.590999603271484,43.02299880981445 -30.590999603271484,43.02299880981445z"></path></g></g><g opacity="1" transform="matrix(1,0,0,1,0,0)"><g opacity="1" transform="matrix(1,0,0,1,0,0)"><path fill="rgb(255,255,255)" fill-opacity="1" d=" M29.76799964904785,48.715999603271484 C29.76799964904785,48.715999603271484 35.86899948120117,8.258000373840332 68.84400177001953,8.26099967956543 C99.61100006103516,8.263999938964844 113.1449966430664,37.54600143432617 113.1449966430664,45.76599884033203 C113.1449966430664,45.76599884033203 100.76499938964844,67.1969985961914 70.8949966430664,67.1709976196289 C37.24399948120117,67.14099884033203 29.76799964904785,48.715999603271484 29.76799964904785,48.715999603271484z"></path></g><g opacity="1" transform="matrix(0.9136199951171875,0,0,0.9136199951171875,143.90438842773438,44.602149963378906)"><g opacity="1" transform="matrix(1,0,0,1,0,0)"><path fill="url(#__lottie_element_43)" fill-opacity="1" d=" M-52.59600067138672,-7.182000160217285 C-52.59600067138672,8.140000343322754 -64.71399688720703,20.559999465942383 -79.66100311279297,20.559999465942383 C-94.60900115966797,20.559999465942383 -106.72599792480469,8.140000343322754 -106.72599792480469,-7.182000160217285 C-106.72599792480469,-22.503999710083008 -94.60900115966797,-34.92499923706055 -79.66100311279297,-34.92499923706055 C-64.71399688720703,-34.92499923706055 -52.59600067138672,-22.503999710083008 -52.59600067138672,-7.182000160217285z"></path></g><g opacity="1" transform="matrix(1,0,0,1,0,0)"><g opacity="1" transform="matrix(1,0,0,1,0,0)"><path fill="url(#__lottie_element_44)" fill-opacity="1" d=" M-72.83399963378906,19.295000076293945 C-74.9489974975586,19.295000076293945 -76.90799713134766,17.895000457763672 -77.56400299072266,15.71500015258789 C-78.37000274658203,13.036999702453613 -76.90499877929688,10.196000099182129 -74.29199981689453,9.369999885559082 C-69.29399871826172,7.789999961853027 -65.31500244140625,3.809999942779541 -63.650001525878906,-1.2760000228881836 C-62.779998779296875,-3.934000015258789 -59.96900177001953,-5.361999988555908 -57.38199996948242,-4.4720001220703125 C-54.790000915527344,-3.5810000896453857 -53.39400100708008,-0.703000009059906 -54.263999938964844,1.9539999961853027 C-56.941001892089844,10.130000114440918 -63.33599853515625,16.527000427246094 -71.3740005493164,19.06800079345703 C-71.86000061035156,19.222000122070312 -72.35199737548828,19.295000076293945 -72.83399963378906,19.295000076293945z"></path></g></g><g opacity="1" transform="matrix(1,0,0,1,0,0)"><path fill="rgb(24,19,9)" fill-opacity="1" d=" M-62.555999755859375,-7.182000160217285 C-62.555999755859375,2.500999927520752 -70.21399688720703,10.35099983215332 -79.66100311279297,10.35099983215332 C-89.10800170898438,10.35099983215332 -96.76599884033203,2.500999927520752 -96.76599884033203,-7.182000160217285 C-96.76599884033203,-16.864999771118164 -89.10800170898438,-24.71500015258789 -79.66100311279297,-24.71500015258789 C-70.21399688720703,-24.71500015258789 -62.555999755859375,-16.864999771118164 -62.555999755859375,-7.182000160217285z"></path></g><g opacity="1" transform="matrix(1,0,0,1,0,0)"><path fill="url(#__lottie_element_45)" fill-opacity="1" d=" M-87.6719970703125,-15.805000305175781 C-91.3489990234375,-15.805000305175781 -94.33100128173828,-18.71299934387207 -94.33100128173828,-22.299999237060547 C-94.33100128173828,-25.886999130249023 -91.3499984741211,-28.79599952697754 -87.6729965209961,-28.79599952697754 C-83.99600219726562,-28.79599952697754 -81.01399993896484,-25.886999130249023 -81.01399993896484,-22.299999237060547 C-81.01399993896484,-18.71299934387207 -83.99500274658203,-15.805000305175781 -87.6719970703125,-15.805000305175781z"></path></g></g><g opacity="1" transform="matrix(1,0,0,1,0,0)"><path fill="rgb(163,65,0)" fill-opacity="1" d=" M30.094999313354492,43.02299880981445 C30.094999313354492,43.02299880981445 37.608001708984375,5.495999813079834 69.90499877929688,5.834000110626221 C102.20099639892578,6.171999931335449 111.84700012207031,36.6510009765625 113.1449966430664,45.76599884033203 C113.1449966430664,45.76599884033203 106.70999908447266,9.097999572753906 69.90499877929688,8.6850004196167 C39.42399978637695,8.343000411987305 30.094999313354492,43.02299880981445 30.094999313354492,43.02299880981445z"></path><path stroke-linecap="round" stroke-linejoin="round" fill-opacity="0" stroke="rgb(163,65,0)" stroke-opacity="1" stroke-width="2" d=" M30.094999313354492,43.02299880981445 C30.094999313354492,43.02299880981445 37.608001708984375,5.495999813079834 69.90499877929688,5.834000110626221 C102.20099639892578,6.171999931335449 111.84700012207031,36.6510009765625 113.1449966430664,45.76599884033203 C113.1449966430664,45.76599884033203 106.70999908447266,9.097999572753906 69.90499877929688,8.6850004196167 C39.42399978637695,8.343000411987305 30.094999313354492,43.02299880981445 30.094999313354492,43.02299880981445z"></path></g></g></g><g style="display: block;" transform="matrix(1,0,0,1,256,256)" opacity="1"><g opacity="1" transform="matrix(1,0,0,1,0,0)"><path fill="rgb(163,65,0)" fill-opacity="1" d=" M109.76499938964844,6.943999767303467 C110.66899871826172,7.896999835968018 111.53900146484375,5.7789998054504395 108.99800109863281,1.909999966621399 C104.18199920654297,-5.422999858856201 92.66300201416016,-14.321999549865723 82.33899688720703,-17.214000701904297 C61.85599899291992,-22.952999114990234 53.0099983215332,-14.350000381469727 54.3380012512207,-12.727999687194824 C54.952999114990234,-11.97700023651123 87.0260009765625,-17.0310001373291 109.76499938964844,6.943999767303467z"></path><path stroke-linecap="round" stroke-linejoin="round" fill-opacity="0" stroke="rgb(163,65,0)" stroke-opacity="1" stroke-width="2" d=" M109.76499938964844,6.943999767303467 C110.66899871826172,7.896999835968018 111.53900146484375,5.7789998054504395 108.99800109863281,1.909999966621399 C104.18199920654297,-5.422999858856201 92.66300201416016,-14.321999549865723 82.33899688720703,-17.214000701904297 C61.85599899291992,-22.952999114990234 53.0099983215332,-14.350000381469727 54.3380012512207,-12.727999687194824 C54.952999114990234,-11.97700023651123 87.0260009765625,-17.0310001373291 109.76499938964844,6.943999767303467z"></path></g><g opacity="1" transform="matrix(1,0,0,1,0,0)"><path fill="rgb(163,65,0)" fill-opacity="1" d=" M-110.89099884033203,6.943999767303467 C-111.79499816894531,7.896999835968018 -112.66500091552734,5.7789998054504395 -110.1240005493164,1.909999966621399 C-105.30799865722656,-5.422999858856201 -93.78900146484375,-14.321999549865723 -83.46499633789062,-17.214000701904297 C-62.981998443603516,-22.952999114990234 -54.13600158691406,-14.350000381469727 -55.4640007019043,-12.727999687194824 C-56.07899856567383,-11.97700023651123 -88.1520004272461,-17.0310001373291 -110.89099884033203,6.943999767303467z"></path><path stroke-linecap="round" stroke-linejoin="round" fill-opacity="0" stroke="rgb(163,65,0)" stroke-opacity="1" stroke-width="2" d=" M-110.89099884033203,6.943999767303467 C-111.79499816894531,7.896999835968018 -112.66500091552734,5.7789998054504395 -110.1240005493164,1.909999966621399 C-105.30799865722656,-5.422999858856201 -93.78900146484375,-14.321999549865723 -83.46499633789062,-17.214000701904297 C-62.981998443603516,-22.952999114990234 -54.13600158691406,-14.350000381469727 -55.4640007019043,-12.727999687194824 C-56.07899856567383,-11.97700023651123 -88.1520004272461,-17.0310001373291 -110.89099884033203,6.943999767303467z"></path></g></g><g style="display: block;" transform="matrix(1,0,0,1,256,255.99998474121094)" opacity="1"><g opacity="0.3" transform="matrix(1,0,0,1,0,0)"><g opacity="1" transform="matrix(1,0,0,1,0,0)"><path stroke-linecap="round" stroke-linejoin="round" fill-opacity="0" stroke="rgb(255,168,0)" stroke-opacity="1" stroke-width="9" d=" M-28.135000228881836,65.18000030517578 C-28.135000228881836,65.18000030517578 -2.0940001010894775,52.582000732421875 26.176000595092773,64.64800262451172"></path></g><g opacity="1" transform="matrix(1,0,0,1,0,0)"><path stroke-linecap="round" stroke-linejoin="round" fill-opacity="0" stroke="rgb(255,168,0)" stroke-opacity="1" stroke-width="9" d=" M-106.22100067138672,73.86199951171875 C-106.22100067138672,73.86199951171875 -114.97699737548828,72.78299713134766 -117.43199920654297,71.90799713134766 C-122.36699676513672,70.14800262451172 -139.12100219726562,54.814998626708984 -139.12100219726562,54.814998626708984"></path></g><g opacity="1" transform="matrix(1,0,0,1,0,0)"><path fill="rgb(255,168,0)" fill-opacity="1" d=" M-28.86199951171875,55.15700149536133 C-28.86199951171875,55.15700149536133 -28.25200080871582,66.68499755859375 -33.25699996948242,75.07499694824219 C-40.18600082397461,86.69100189208984 -59.625,102.5 -86.61699676513672,97.99099731445312 C-113.15899658203125,89.34600067138672 -102.29399871826172,68.83999633789062 -102.29399871826172,68.83999633789062 C-92.23899841308594,78.72599792480469 -48.0359992980957,77.4020004272461 -28.86199951171875,55.15700149536133z"></path></g><g opacity="1" transform="matrix(1,0,0,1,0,0)"><path fill="rgb(255,168,0)" fill-opacity="1" d=" M29.67799949645996,52.01900100708008 C29.67799949645996,52.01900100708008 26.743999481201172,63.13999938964844 30.844999313354492,71.5510025024414 C37.459999084472656,85.11699676513672 52.02000045776367,98.96399688720703 80.66899871826172,98.96399688720703 C111.25,95.625 102.0989990234375,64.18000030517578 102.0989990234375,64.18000030517578 C93.23200225830078,78.5770034790039 47.47600173950195,81.05799865722656 29.67799949645996,52.01900100708008z"></path></g><g opacity="1" transform="matrix(1,0,0,1,0,0)"><path stroke-linecap="round" stroke-linejoin="round" fill-opacity="0" stroke="rgb(255,168,0)" stroke-opacity="1" stroke-width="9" d=" M-108.24400329589844,73.86199951171875 C-108.24400329589844,73.86199951171875 -106.97799682617188,88.64099884033203 -89.12300109863281,93.39600372314453"></path></g><g opacity="1" transform="matrix(1,0,0,1,0,0)"><path stroke-linecap="round" stroke-linejoin="round" fill-opacity="0" stroke="rgb(255,168,0)" stroke-opacity="1" stroke-width="9" d=" M104.11199951171875,73.86199951171875 C104.11199951171875,73.86199951171875 113.1449966430664,72.8270034790039 115.322998046875,71.90799713134766 C120.90299987792969,69.55400085449219 137.01199340820312,54.814998626708984 137.01199340820312,54.814998626708984"></path></g><g opacity="1" transform="matrix(1,0,0,1,0,0)"><path stroke-linecap="round" stroke-linejoin="round" fill-opacity="0" stroke="rgb(255,168,0)" stroke-opacity="1" stroke-width="9" d=" M107.52200317382812,73.4260025024414 C107.52200317382812,73.4260025024414 109.00700378417969,85.73899841308594 88.45600128173828,92.12200164794922"></path></g></g><g opacity="0.4" transform="matrix(1,0,0,1,0,0)"><g opacity="1" transform="matrix(1,0,0,1,0,0)"><path stroke-linecap="round" stroke-linejoin="round" fill-opacity="0" stroke="rgb(255,168,0)" stroke-opacity="1" stroke-width="6" d=" M-28.135000228881836,63.18000030517578 C-28.135000228881836,63.18000030517578 -2.0940001010894775,50.582000732421875 26.176000595092773,62.64799880981445"></path></g><g opacity="1" transform="matrix(1,0,0,1,0,0)"><path stroke-linecap="round" stroke-linejoin="round" fill-opacity="0" stroke="rgb(255,168,0)" stroke-opacity="1" stroke-width="6" d=" M-106.22100067138672,71.86199951171875 C-106.22100067138672,71.86199951171875 -114.97699737548828,70.78299713134766 -117.43199920654297,69.90799713134766 C-122.36699676513672,68.14800262451172 -139.12100219726562,52.814998626708984 -139.12100219726562,52.814998626708984"></path></g><g opacity="1" transform="matrix(1,0,0,1,0,0)"><path fill="rgb(255,168,0)" fill-opacity="1" d=" M-28.86199951171875,54.15700149536133 C-28.86199951171875,54.15700149536133 -29.014999389648438,61.32600021362305 -34.02000045776367,69.71600341796875 C-40.94900131225586,81.33200073242188 -56.119998931884766,95.28600311279297 -83.56700134277344,95.78900146484375 C-110.10900115966797,87.14399719238281 -102.29399871826172,67.83999633789062 -102.29399871826172,67.83999633789062 C-93.39600372314453,82.28700256347656 -46.428001403808594,82.23899841308594 -28.86199951171875,54.15700149536133z"></path></g><g opacity="1" transform="matrix(1,0,0,1,0,0)"><path fill="rgb(255,168,0)" fill-opacity="1" d=" M28.16200065612793,54.15700149536133 C28.16200065612793,54.15700149536133 28.062999725341797,61.06999969482422 32.584999084472656,69.26200103759766 C39.15999984741211,81.1729965209961 54.21799850463867,95.78900146484375 82.86699676513672,95.78900146484375 C110.6729965209961,84.13600158691406 101.59500122070312,67.83999633789062 101.59500122070312,67.83999633789062 C92.72799682617188,82.23699951171875 45.959999084472656,83.19599914550781 28.16200065612793,54.15700149536133z"></path></g><g opacity="1" transform="matrix(1,0,0,1,0,0)"><path stroke-linecap="round" stroke-linejoin="round" fill-opacity="0" stroke="rgb(255,168,0)" stroke-opacity="1" stroke-width="6" d=" M-108.24400329589844,71.86199951171875 C-108.24400329589844,71.86199951171875 -105.50700378417969,89.37899780273438 -85.66999816894531,94.9229965209961"></path></g><g opacity="1" transform="matrix(1,0,0,1,0,0)"><path stroke-linecap="round" stroke-linejoin="round" fill-opacity="0" stroke="rgb(255,168,0)" stroke-opacity="1" stroke-width="6" d=" M104.11199951171875,71.86199951171875 C104.11199951171875,71.86199951171875 113.1449966430664,70.8270034790039 115.322998046875,69.90799713134766 C120.90299987792969,67.55400085449219 137.01199340820312,52.814998626708984 137.01199340820312,52.814998626708984"></path></g><g opacity="1" transform="matrix(1,0,0,1,0,0)"><path stroke-linecap="round" stroke-linejoin="round" fill-opacity="0" stroke="rgb(255,168,0)" stroke-opacity="1" stroke-width="6" d=" M107.52200317382812,71.4260025024414 C107.52200317382812,71.4260025024414 104.11199951171875,88.54000091552734 83.56099700927734,94.9229965209961"></path></g></g></g><g style="display: block;" transform="matrix(1,0,0,1,256,256)" opacity="1"><g opacity="1" transform="matrix(1,0,0,1,0,0)"><g opacity="1" transform="matrix(1,0,0,1,0,0)"><path fill="rgb(255,169,0)" fill-opacity="1" d=" M-0.41499999165534973,-209.73199462890625 C-27.628999710083008,-209.73199462890625 -60.48500061035156,-196.81399536132812 -68.48999786376953,-164.95700073242188 C-76.49500274658203,-133.10000610351562 -42.74599838256836,-109.65599822998047 -1.0110000371932983,-109.65599822998047 C40.7239990234375,-109.65599822998047 77.39600372314453,-131.77699279785156 66.72200012207031,-164.9550018310547 C56.04800033569336,-198.13299560546875 27.457000732421875,-209.73199462890625 -0.41499999165534973,-209.73199462890625z"></path><path stroke-linecap="round" stroke-linejoin="round" fill-opacity="0" stroke="rgb(197,92,0)" stroke-opacity="1" stroke-width="8" d=" M-0.41499999165534973,-209.73199462890625 C-27.628999710083008,-209.73199462890625 -60.48500061035156,-196.81399536132812 -68.48999786376953,-164.95700073242188 C-76.49500274658203,-133.10000610351562 -42.74599838256836,-109.65599822998047 -1.0110000371932983,-109.65599822998047 C40.7239990234375,-109.65599822998047 77.39600372314453,-131.77699279785156 66.72200012207031,-164.9550018310547 C56.04800033569336,-198.13299560546875 27.457000732421875,-209.73199462890625 -0.41499999165534973,-209.73199462890625z"></path></g><g opacity="1" transform="matrix(1,0,0,1,0,1.25)"><path fill="url(#__lottie_element_24)" fill-opacity="1" d=" M-0.9610000252723694,-197.968994140625 C-17.7450008392334,-197.968994140625 -32.374000549316406,-192.677001953125 -48.58000183105469,-181.61300659179688 C-80.93299865722656,-152.95399475097656 -57.33100128173828,-103.43000030517578 -0.08699999749660492,-103.43000030517578 C49.11000061035156,-103.43000030517578 82.95500183105469,-144.7050018310547 55.85900115966797,-176.25799560546875 C39.47999954223633,-191.31100463867188 17.368999481201172,-197.968994140625 -0.9610000252723694,-197.968994140625z"></path></g></g><g opacity="1" transform="matrix(1,0,0,1,0,0)"><g opacity="1" transform="matrix(1,0,0,1,0,0)"><path fill="rgb(255,206,1)" fill-opacity="1" d=" M-44.694000244140625,-64.55799865722656 C-87.49199676513672,-47.284000396728516 -179.6959991455078,2.1989998817443848 -148.73699951171875,117.14199829101562 C-214.88999938964844,124.51599884033203 -231.81300354003906,-13.187000274658203 -189.64500427246094,-49.70100021362305 C-172.86099243164062,-64.23500061035156 -170.4720001220703,-70.17500305175781 -149.66000366210938,-112.12300109863281 C-127.26599884033203,-157.26100158691406 -84.65799713134766,-170.97999572753906 -45.507999420166016,-162.66299438476562 C-6.357999801635742,-154.3459930419922 30.52199935913086,-94.91699981689453 -44.694000244140625,-64.55799865722656z"></path></g><g opacity="1" transform="matrix(1,0,0,1,0,0)"><path fill="url(#__lottie_element_25)" fill-opacity="1" d=" M-44.694000244140625,-64.55799865722656 C-87.49199676513672,-47.284000396728516 -179.6959991455078,2.1989998817443848 -148.73699951171875,117.14199829101562 C-214.88999938964844,124.51599884033203 -231.81300354003906,-13.187000274658203 -189.64500427246094,-49.70100021362305 C-172.86099243164062,-64.23500061035156 -170.4720001220703,-70.17500305175781 -149.66000366210938,-112.12300109863281 C-127.26599884033203,-157.26100158691406 -84.65799713134766,-170.97999572753906 -45.507999420166016,-162.66299438476562 C-6.357999801635742,-154.3459930419922 30.52199935913086,-94.91699981689453 -44.694000244140625,-64.55799865722656z"></path></g><g opacity="1" transform="matrix(1,0,0,1,0,0)"><path fill="url(#__lottie_element_26)" fill-opacity="1" d=" M-44.69200134277344,-64.55599975585938 C-81.02400207519531,-51.36399841308594 -177.5800018310547,2.5840001106262207 -148.73699951171875,117.14600372314453 C-191.81199645996094,128.13099670410156 -243.73599243164062,19.329999923706055 -189.64199829101562,-49.70600128173828 C-210.8040008544922,-3.8389999866485596 -208.46099853515625,54.15700149536133 -185.74099731445312,59.91999816894531 C-166.0489959716797,64.91500091552734 -159.1199951171875,-5.994999885559082 -111.76699829101562,-46.18600082397461 C-51.24800109863281,-97.5510025024414 9.567000389099121,-79.97899627685547 -10.501999855041504,-142.01600646972656 C-2.263000011444092,-130.35000610351562 24.530000686645508,-89.69000244140625 -44.69200134277344,-64.55599975585938z"></path></g><g opacity="1" transform="matrix(1,0,0,1,0,0)"><path fill="url(#__lottie_element_27)" fill-opacity="0.9" d=" M-81.12799835205078,-152.46800231933594 C-53.95600128173828,-157.41700744628906 -3.197000026702881,-144.53500366210938 -19.57900047302246,-105.73300170898438 C-33.24800109863281,-73.35700225830078 -147.50999450683594,-59.52799987792969 -141.82000732421875,-94.8550033569336 C-136.1300048828125,-130.1820068359375 -108.15499877929688,-147.54600524902344 -81.12799835205078,-152.46800231933594z"></path></g><g opacity="1" transform="matrix(1,0,0,1,0,0)"><path stroke-linecap="round" stroke-linejoin="round" fill-opacity="0" stroke="rgb(197,92,0)" stroke-opacity="1" stroke-width="8" d=" M-0.46799999475479126,-101.5469970703125 C-0.46799999475479126,-87.25800323486328 -8.91100025177002,-79.17900085449219 -44.694000244140625,-64.55799865722656 C-80.47699737548828,-49.9370002746582 -113.61699676513672,-36.090999603271484 -139.09100341796875,16.39900016784668 C-147.87600708007812,34.5 -160.16099548339844,74.24299621582031 -148.73699951171875,117.14199829101562 C-147.5229949951172,121.6989974975586 -172.13099670410156,122.98999786376953 -191.9530029296875,93.76899719238281 C-211.77499389648438,64.5479965209961 -229.3820037841797,3.2829999923706055 -189.64500427246094,-49.70100021362305 C-176.32400512695312,-67.46299743652344 -170.4720001220703,-70.17500305175781 -149.66000366210938,-112.12300109863281 C-127.26599884033203,-157.26100158691406 -84.65799713134766,-170.97999572753906 -45.507999420166016,-162.66299438476562 C-6.357999801635742,-154.3459930419922 -0.46799999475479126,-127.14700317382812 -0.46799999475479126,-101.5469970703125z"></path></g></g><g opacity="1" transform="matrix(-1,0,0,1,0,0)"><g opacity="1" transform="matrix(1,0,0,1,0,0)"><path fill="rgb(255,206,1)" fill-opacity="1" d=" M-44.694000244140625,-64.55799865722656 C-87.49199676513672,-47.284000396728516 -179.6959991455078,2.1989998817443848 -148.73699951171875,117.14199829101562 C-214.88999938964844,124.51599884033203 -231.81300354003906,-13.187000274658203 -189.64500427246094,-49.70100021362305 C-172.86099243164062,-64.23500061035156 -170.4720001220703,-70.17500305175781 -149.66000366210938,-112.12300109863281 C-127.26599884033203,-157.26100158691406 -84.65799713134766,-170.97999572753906 -45.507999420166016,-162.66299438476562 C-6.357999801635742,-154.3459930419922 30.52199935913086,-94.91699981689453 -44.694000244140625,-64.55799865722656z"></path></g><g opacity="1" transform="matrix(1,0,0,1,0,0)"><path fill="url(#__lottie_element_28)" fill-opacity="1" d=" M-44.694000244140625,-64.55799865722656 C-87.49199676513672,-47.284000396728516 -179.6959991455078,2.1989998817443848 -148.73699951171875,117.14199829101562 C-214.88999938964844,124.51599884033203 -231.81300354003906,-13.187000274658203 -189.64500427246094,-49.70100021362305 C-172.86099243164062,-64.23500061035156 -170.4720001220703,-70.17500305175781 -149.66000366210938,-112.12300109863281 C-127.26599884033203,-157.26100158691406 -84.65799713134766,-170.97999572753906 -45.507999420166016,-162.66299438476562 C-6.357999801635742,-154.3459930419922 30.52199935913086,-94.91699981689453 -44.694000244140625,-64.55799865722656z"></path></g><g opacity="1" transform="matrix(1,0,0,1,0,0)"><path fill="url(#__lottie_element_29)" fill-opacity="1" d=" M-44.69200134277344,-64.55599975585938 C-81.02400207519531,-51.36399841308594 -177.5800018310547,2.5840001106262207 -148.73699951171875,117.14600372314453 C-191.81199645996094,128.13099670410156 -243.73599243164062,19.329999923706055 -189.64199829101562,-49.70600128173828 C-210.8040008544922,-3.8389999866485596 -208.46099853515625,54.15700149536133 -185.74099731445312,59.91999816894531 C-166.0489959716797,64.91500091552734 -159.1199951171875,-5.994999885559082 -111.76699829101562,-46.18600082397461 C-51.24800109863281,-97.5510025024414 9.567000389099121,-79.97899627685547 -10.501999855041504,-142.01600646972656 C-2.263000011444092,-130.35000610351562 24.530000686645508,-89.69000244140625 -44.69200134277344,-64.55599975585938z"></path></g><g opacity="1" transform="matrix(1,0,0,1,0,0)"><path fill="url(#__lottie_element_30)" fill-opacity="0.9" d=" M-81.12799835205078,-152.46800231933594 C-53.95600128173828,-157.41700744628906 -3.197000026702881,-144.53500366210938 -19.57900047302246,-105.73300170898438 C-33.24800109863281,-73.35700225830078 -147.50999450683594,-59.52799987792969 -141.82000732421875,-94.8550033569336 C-136.1300048828125,-130.1820068359375 -108.15499877929688,-147.54600524902344 -81.12799835205078,-152.46800231933594z"></path></g><g opacity="1" transform="matrix(1,0,0,1,0,0)"><path stroke-linecap="round" stroke-linejoin="round" fill-opacity="0" stroke="rgb(197,92,0)" stroke-opacity="1" stroke-width="8" d=" M-0.46799999475479126,-101.5469970703125 C-0.46799999475479126,-87.25800323486328 -8.91100025177002,-79.17900085449219 -44.694000244140625,-64.55799865722656 C-80.47699737548828,-49.9370002746582 -113.61699676513672,-36.090999603271484 -139.09100341796875,16.39900016784668 C-147.87600708007812,34.5 -160.16099548339844,74.24299621582031 -148.73699951171875,117.14199829101562 C-147.5229949951172,121.6989974975586 -172.13099670410156,122.98999786376953 -191.9530029296875,93.76899719238281 C-211.77499389648438,64.5479965209961 -229.3820037841797,3.2829999923706055 -189.64500427246094,-49.70100021362305 C-176.32400512695312,-67.46299743652344 -170.4720001220703,-70.17500305175781 -149.66000366210938,-112.12300109863281 C-127.26599884033203,-157.26100158691406 -84.65799713134766,-170.97999572753906 -45.507999420166016,-162.66299438476562 C-6.357999801635742,-154.3459930419922 -0.46799999475479126,-127.14700317382812 -0.46799999475479126,-101.5469970703125z"></path></g></g><g opacity="1" transform="matrix(1,0,0,1,0,0)"><g opacity="1" transform="matrix(1,0,0,1,0,0)"><path stroke-linecap="round" stroke-linejoin="round" fill-opacity="0" stroke="rgb(163,65,0)" stroke-opacity="1" stroke-width="8" d=" M148.76699829101562,117.14199829101562 C160.1909942626953,74.24299621582031 147.906005859375,34.5 139.12100219726562,16.39900016784668 C113.64700317382812,-36.090999603271484 81.5739974975586,-52.88399887084961 44.724998474121094,-64.55799865722656 C7.421999931335449,-76.3759994506836 0.49799999594688416,-92.1729965209961 -0.49799999594688416,-101.5469970703125 C-0.49799999594688416,-87.25800323486328 -8.942000389099121,-79.17900085449219 -44.724998474121094,-64.55799865722656 C-80.50800323486328,-49.9370002746582 -113.64700317382812,-36.090999603271484 -139.12100219726562,16.39900016784668 C-147.906005859375,34.5 -160.1909942626953,74.24299621582031 -148.76699829101562,117.14199829101562"></path></g></g></g><g style="display: block;" transform="matrix(1,0,0,1,256,256)" opacity="1"><g opacity="1" transform="matrix(1,0,0,1,0,0)"><path stroke-linecap="round" stroke-linejoin="round" fill-opacity="0" stroke="rgb(124,107,94)" stroke-opacity="1" stroke-width="6" d=" M-27.035999298095703,59.91999816894531 C-27.035999298095703,59.91999816894531 -1.2610000371932983,44.369998931884766 26.520999908447266,59.91999816894531"></path></g><g opacity="1" transform="matrix(1,0,0,1,0,0)"><path stroke-linecap="round" stroke-linejoin="round" fill-opacity="0" stroke="rgb(124,107,94)" stroke-opacity="1" stroke-width="6" d=" M-104.68199920654297,60.755001068115234 C-104.68199920654297,60.755001068115234 -116.82499694824219,61.124000549316406 -118.91699981689453,60.755001068115234 C-121.58100128173828,60.28499984741211 -146.23500061035156,42.012001037597656 -146.23500061035156,42.012001037597656"></path></g><g opacity="1" transform="matrix(1,0,0,1,0,0)"><path stroke-linecap="round" stroke-linejoin="round" fill-opacity="0" stroke="rgb(124,107,94)" stroke-opacity="1" stroke-width="6" d=" M103.88400268554688,60.755001068115234 C103.88400268554688,60.755001068115234 116.02799987792969,61.124000549316406 118.12000274658203,60.755001068115234 C120.78399658203125,60.28499984741211 145.6959991455078,43.354000091552734 145.6959991455078,43.354000091552734"></path></g><g opacity="1" transform="matrix(1,0,0,1,0,0)"><g opacity="1" transform="matrix(1,0,0,1,0,0)"><path stroke-linecap="round" stroke-linejoin="round" fill-opacity="0" stroke="rgb(165,147,131)" stroke-opacity="1" stroke-width="6" d=" M-103.8010025024414,63.18000030517578 C-103.8010025024414,43.5260009765625 -87.11799621582031,27.71500015258789 -66.53800201416016,27.71500015258789 C-45.95800018310547,27.71500015258789 -28.135000228881836,43.5260009765625 -28.135000228881836,63.18000030517578"></path></g><g opacity="1" transform="matrix(1,0,0,1,0,0)"><path stroke-linecap="round" stroke-linejoin="round" fill-opacity="0" stroke="rgb(132,117,106)" stroke-opacity="1" stroke-width="6" d=" M-29.915000915527344,52.821998596191406 C-28.76099967956543,56.0260009765625 -28.135000228881836,59.494998931884766 -28.135000228881836,63.18000030517578 C-28.135000228881836,82.83399963378906 -45.95800018310547,99.98200225830078 -66.53800201416016,99.98200225830078 C-87.11799621582031,99.98200225830078 -103.8010025024414,82.83399963378906 -103.8010025024414,63.18000030517578 C-103.8010025024414,60.362998962402344 -103.45899963378906,57.672000885009766 -102.81099700927734,55.12900161743164"></path></g></g><g opacity="1" transform="matrix(1,0,0,1,0,0)"><g opacity="1" transform="matrix(1,0,0,1,0,0)"><path stroke-linecap="round" stroke-linejoin="round" fill-opacity="0" stroke="rgb(165,147,131)" stroke-opacity="1" stroke-width="6" d=" M102.96700286865234,63.18000030517578 C102.96700286865234,43.5260009765625 86.28299713134766,27.71500015258789 65.7030029296875,27.71500015258789 C45.12300109863281,27.71500015258789 27.299999237060547,43.5260009765625 27.299999237060547,63.18000030517578"></path></g><g opacity="1" transform="matrix(1,0,0,1,0,0)"><path stroke-linecap="round" stroke-linejoin="round" fill-opacity="0" stroke="rgb(132,117,106)" stroke-opacity="1" stroke-width="6" d=" M29.08099937438965,52.821998596191406 C27.927000045776367,56.0260009765625 27.299999237060547,59.494998931884766 27.299999237060547,63.18000030517578 C27.299999237060547,82.83399963378906 45.12300109863281,99.98200225830078 65.7030029296875,99.98200225830078 C86.28299713134766,99.98200225830078 102.96700286865234,82.83399963378906 102.96700286865234,63.18000030517578 C102.96700286865234,60.362998962402344 102.6240005493164,57.672000885009766 101.97599792480469,55.12900161743164"></path></g></g></g><g style="display: block;" transform="matrix(1,0,0,1,256,256)" opacity="1"><g opacity="1" transform="matrix(1,0,0,1,0,0)"><path fill="url(#__lottie_element_13)" fill-opacity="0.5" d=" M44.55099868774414,130.90699768066406 C46.393001556396484,122.82499694824219 22.225000381469727,127.14900207519531 -1.1349999904632568,127.21700286865234 C-24.4950008392334,127.28500366210938 -47.04800033569336,123.09600067138672 -45.516998291015625,130.90699768066406 C-46.185001373291016,134.27200317382812 -31.29800033569336,157.85299682617188 -0.4909999966621399,157.85299682617188 C29.792999267578125,157.85299682617188 45.018001556396484,134.45700073242188 44.55099868774414,130.90699768066406z"></path></g><g opacity="1" transform="matrix(1,0,0,1,0,0)"><path fill="rgb(136,24,4)" fill-opacity="1" d=" M43.395999908447266,127.49700164794922 C41.66699981689453,124.01899719238281 36.93899917602539,124.58200073242188 -0.4830000102519989,124.58200073242188 C-37.00299835205078,124.58200073242188 -42.42399978637695,124.13899993896484 -44.36199951171875,127.49700164794922 C-46.0629997253418,130.44400024414062 -31.29800033569336,151.7050018310547 -0.4909999966621399,151.7050018310547 C29.792999267578125,151.7050018310547 44.979000091552734,130.68099975585938 43.395999908447266,127.49700164794922z"></path></g><g opacity="1" transform="matrix(1,0,0,1,0,0)"><path fill="url(#__lottie_element_14)" fill-opacity="1" d=" M43.395999908447266,127.49700164794922 C41.66699981689453,124.01899719238281 36.93899917602539,124.58200073242188 -0.4830000102519989,124.58200073242188 C-37.00299835205078,124.58200073242188 -42.42399978637695,124.13899993896484 -44.36199951171875,127.49700164794922 C-46.0629997253418,130.44400024414062 -31.29800033569336,151.7050018310547 -0.4909999966621399,151.7050018310547 C29.792999267578125,151.7050018310547 44.979000091552734,130.68099975585938 43.395999908447266,127.49700164794922z"></path></g><g opacity="1" transform="matrix(1,0,0,1,0,0)"><path fill="url(#__lottie_element_15)" fill-opacity="0.4" d=" M29.562999725341797,159.6269989013672 C29.562999725341797,164.99899291992188 20.43000030517578,173.77699279785156 -0.4909999966621399,173.77699279785156 C-21.41200065612793,173.77699279785156 -30.54599952697754,164.99899291992188 -30.54599952697754,159.6269989013672 C-30.54599952697754,154.2550048828125 -21.41200065612793,160.6269989013672 -0.4909999966621399,160.6269989013672 C20.43000030517578,160.6269989013672 29.562999725341797,154.2550048828125 29.562999725341797,159.6269989013672z"></path></g><g opacity="1" transform="matrix(1,0,0,1,0,0)"><g opacity="1" transform="matrix(1,0,0,1,0,0)"><path fill="url(#__lottie_element_16)" fill-opacity="0.9" d=" M-50.624000549316406,134.16400146484375 C-43.077999114990234,119.62799835205078 -34.00600051879883,112.33100128173828 -36.915000915527344,110.3499984741211 C-39.82400131225586,108.36900329589844 -50.54399871826172,117.322998046875 -58.040000915527344,131.01400756835938 C-61.76900100708008,137.8249969482422 -70.46800231933594,160.16600036621094 -65.56300354003906,161.49200439453125 C-62.31399917602539,162.3699951171875 -57.50299835205078,147.41600036621094 -50.624000549316406,134.16400146484375z"></path></g><g opacity="1" transform="matrix(-1,0,0,1,-0.75,0)"><path fill="url(#__lottie_element_17)" fill-opacity="0.9" d=" M-50.624000549316406,134.16400146484375 C-43.077999114990234,119.62799835205078 -34.00600051879883,112.33100128173828 -36.915000915527344,110.3499984741211 C-39.82400131225586,108.36900329589844 -50.54399871826172,117.322998046875 -58.040000915527344,131.01400756835938 C-61.76900100708008,137.8249969482422 -70.46800231933594,160.16600036621094 -65.56300354003906,161.49200439453125 C-62.31399917602539,162.3699951171875 -57.50299835205078,147.41600036621094 -50.624000549316406,134.16400146484375z"></path></g></g></g><g style="display: block;" transform="matrix(0.7200000286102295,0,0,0.7200000286102295,260.10430908203125,296.2650146484375)" opacity="1"><g opacity="1" transform="matrix(1,0,0,1,0,0)"><path fill="url(#__lottie_element_6)" fill-opacity="0.7000000000000001" d=" M21.486000061035156,77.85600280761719 C21.486000061035156,88.90499877929688 8.708000183105469,98.72799682617188 -5.205999851226807,98.72799682617188 C-19.1200008392334,98.72799682617188 -31.89900016784668,88.90499877929688 -31.89900016784668,77.85600280761719 C-31.89900016784668,66.80799865722656 -19.1200008392334,56.678001403808594 -5.205999851226807,56.678001403808594 C8.708000183105469,56.678001403808594 21.486000061035156,66.80799865722656 21.486000061035156,77.85600280761719z"></path></g><g opacity="1" transform="matrix(1,0,0,1,0,0)"><path fill="rgb(255,168,0)" fill-opacity="0.8" d=" M21.486000061035156,65.87899780273438 C21.486000061035156,76.927001953125 9.53600025177002,85.10600280761719 -5.205999851226807,85.10600280761719 C-19.947999954223633,85.10600280761719 -31.89900016784668,76.927001953125 -31.89900016784668,65.87899780273438 C-31.89900016784668,54.83100128173828 -19.947999954223633,46.34600067138672 -5.205999851226807,46.34600067138672 C9.53600025177002,46.34600067138672 21.486000061035156,54.83100128173828 21.486000061035156,65.87899780273438z"></path></g><g opacity="1" transform="matrix(1,0,0,1,0,0)"><path fill="url(#__lottie_element_7)" fill-opacity="0.7000000000000001" d=" M21.486000061035156,65.87899780273438 C21.486000061035156,76.927001953125 9.53600025177002,85.10600280761719 -5.205999851226807,85.10600280761719 C-19.947999954223633,85.10600280761719 -31.89900016784668,76.927001953125 -31.89900016784668,65.87899780273438 C-31.89900016784668,54.83100128173828 -19.947999954223633,46.34600067138672 -5.205999851226807,46.34600067138672 C9.53600025177002,46.34600067138672 21.486000061035156,54.83100128173828 21.486000061035156,65.87899780273438z"></path></g><g opacity="1" transform="matrix(1,0,0,1,0,0)"><path fill="rgb(255,216,0)" fill-opacity="1" d=" M18.868000030517578,60.762001037597656 C18.868000030517578,68.98699951171875 10.666999816894531,76.85099792480469 -5.205999851226807,76.85099792480469 C-21.295000076293945,76.85099792480469 -29.280000686645508,68.98699951171875 -29.280000686645508,60.762001037597656 C-29.280000686645508,52.5369987487793 -17.958999633789062,46.02299880981445 -5.205999851226807,46.02299880981445 C7.546999931335449,46.02299880981445 18.868000030517578,52.5369987487793 18.868000030517578,60.762001037597656z"></path></g><g opacity="1" transform="matrix(1,0,0,1,0,0)"><path fill="url(#__lottie_element_8)" fill-opacity="1" d=" M18.868000030517578,60.762001037597656 C18.868000030517578,68.98699951171875 10.666999816894531,76.85099792480469 -5.205999851226807,76.85099792480469 C-21.295000076293945,76.85099792480469 -29.280000686645508,68.98699951171875 -29.280000686645508,60.762001037597656 C-29.280000686645508,52.5369987487793 -17.958999633789062,46.02299880981445 -5.205999851226807,46.02299880981445 C7.546999931335449,46.02299880981445 18.868000030517578,52.5369987487793 18.868000030517578,60.762001037597656z"></path></g><g opacity="1" transform="matrix(1,0,0,1,0,0)"><path fill="url(#__lottie_element_9)" fill-opacity="0.7000000000000001" d=" M8.605999946594238,54.4010009765625 C8.605999946594238,58.73099899291992 2.421999931335449,62.803001403808594 -5.205999851226807,62.803001403808594 C-12.833999633789062,62.803001403808594 -19.018999099731445,58.73099899291992 -19.018999099731445,54.4010009765625 C-19.018999099731445,50.07099914550781 -12.833999633789062,47.89899826049805 -5.205999851226807,47.89899826049805 C2.421999931335449,47.89899826049805 8.605999946594238,50.07099914550781 8.605999946594238,54.4010009765625z"></path></g></g></g></svg>