<svg xmlns="http://www.w3.org/2000/svg" xmlns:xlink="http://www.w3.org/1999/xlink" viewBox="0 0 512 512" width="512" height="512" style="width: 100%; height: 100%; transform: translate3d(0,0,0); content-visibility: visible;" preserveAspectRatio="xMidYMid meet"><defs><clipPath id="__lottie_element_2"><rect width="512" height="512" x="0" y="0"></rect></clipPath><linearGradient id="__lottie_element_6" spreadMethod="pad" gradientUnits="userSpaceOnUse" x1="-5.926000118255615" y1="119.76399993896484" x2="-5.926000118255615" y2="98.10199737548828"><stop offset="0%" stop-color="rgb(255,168,0)" stop-opacity="1"></stop><stop offset="65%" stop-color="rgb(255,168,0)" stop-opacity="0.5"></stop><stop offset="100%" stop-color="rgb(255,168,0)" stop-opacity="0"></stop></linearGradient><radialGradient id="__lottie_element_7" spreadMethod="pad" gradientUnits="userSpaceOnUse" cx="-4.926000118255615" cy="128.76400756835938" r="43.17099905014038" fx="-4.926000118255615" fy="128.76400756835938"><stop offset="10%" stop-color="rgb(219,110,0)" stop-opacity="1"></stop><stop offset="66%" stop-color="rgb(219,110,0)" stop-opacity="0.5"></stop><stop offset="100%" stop-color="rgb(219,110,0)" stop-opacity="0"></stop></radialGradient><linearGradient id="__lottie_element_8" spreadMethod="pad" gradientUnits="userSpaceOnUse" x1="-5.926000118255615" y1="126.76399993896484" x2="-5.926000118255615" y2="116.29299926757812"><stop offset="0%" stop-color="rgb(88,11,14)" stop-opacity="0"></stop><stop offset="34%" stop-color="rgb(88,11,14)" stop-opacity="0.5"></stop><stop offset="75%" stop-color="rgb(88,11,14)" stop-opacity="1"></stop></linearGradient><radialGradient id="__lottie_element_9" spreadMethod="pad" gradientUnits="userSpaceOnUse" cx="-4.926000118255615" cy="145.76400756835938" r="25.908999919891357" fx="-4.926000118255615" fy="145.76400756835938"><stop offset="10%" stop-color="rgb(219,110,0)" stop-opacity="1"></stop><stop offset="66%" stop-color="rgb(219,110,0)" stop-opacity="0.5"></stop><stop offset="100%" stop-color="rgb(219,110,0)" stop-opacity="0"></stop></radialGradient><radialGradient id="__lottie_element_10" spreadMethod="pad" gradientUnits="userSpaceOnUse" cx="-5.426000118255615" cy="61.263999938964844" r="86.86251407411062" fx="-5.426000118255615" fy="61.263999938964844"><stop offset="40%" stop-color="rgb(255,169,0)" stop-opacity="0"></stop><stop offset="70%" stop-color="rgb(255,169,0)" stop-opacity="0.5"></stop><stop offset="100%" stop-color="rgb(255,169,0)" stop-opacity="1"></stop></radialGradient><linearGradient id="__lottie_element_14" spreadMethod="pad" gradientUnits="userSpaceOnUse" x1="151.07400512695312" y1="-89.23600006103516" x2="151.07400512695312" y2="-41.63399887084961"><stop offset="0%" stop-color="rgb(255,169,0)" stop-opacity="0"></stop><stop offset="50%" stop-color="rgb(255,169,0)" stop-opacity="0.5"></stop><stop offset="100%" stop-color="rgb(255,169,0)" stop-opacity="1"></stop></linearGradient><linearGradient id="__lottie_element_15" spreadMethod="pad" gradientUnits="userSpaceOnUse" x1="-471.9259948730469" y1="18.763999938964844" x2="-471.9259948730469" y2="-139.9720001220703"><stop offset="12%" stop-color="rgb(218,110,0)" stop-opacity="1"></stop><stop offset="48%" stop-color="rgb(218,110,0)" stop-opacity="0.5"></stop><stop offset="84%" stop-color="rgb(218,110,0)" stop-opacity="0"></stop></linearGradient><linearGradient id="__lottie_element_16" spreadMethod="pad" gradientUnits="userSpaceOnUse" x1="171.32400512695312" y1="-104.48600006103516" x2="149.73800659179688" y2="-87.9739990234375"><stop offset="0%" stop-color="rgb(255,255,255)" stop-opacity="1"></stop><stop offset="50%" stop-color="rgb(255,255,255)" stop-opacity="0.5"></stop><stop offset="100%" stop-color="rgb(255,255,255)" stop-opacity="0"></stop></linearGradient><linearGradient id="__lottie_element_20" spreadMethod="pad" gradientUnits="userSpaceOnUse" x1="-161.92599487304688" y1="-89.23600006103516" x2="-161.92599487304688" y2="-41.63399887084961"><stop offset="0%" stop-color="rgb(255,169,0)" stop-opacity="0"></stop><stop offset="50%" stop-color="rgb(255,169,0)" stop-opacity="0.5"></stop><stop offset="100%" stop-color="rgb(255,169,0)" stop-opacity="1"></stop></linearGradient><linearGradient id="__lottie_element_21" spreadMethod="pad" gradientUnits="userSpaceOnUse" x1="-158.92599487304688" y1="18.763999938964844" x2="-158.92599487304688" y2="-139.9720001220703"><stop offset="12%" stop-color="rgb(218,110,0)" stop-opacity="1"></stop><stop offset="48%" stop-color="rgb(218,110,0)" stop-opacity="0.5"></stop><stop offset="84%" stop-color="rgb(218,110,0)" stop-opacity="0"></stop></linearGradient><linearGradient id="__lottie_element_22" spreadMethod="pad" gradientUnits="userSpaceOnUse" x1="-177.92599487304688" y1="-106.23600006103516" x2="-159.51199340820312" y2="-88.9739990234375"><stop offset="0%" stop-color="rgb(255,255,255)" stop-opacity="1"></stop><stop offset="50%" stop-color="rgb(255,255,255)" stop-opacity="0.5"></stop><stop offset="100%" stop-color="rgb(255,255,255)" stop-opacity="0"></stop></linearGradient><linearGradient id="__lottie_element_26" spreadMethod="pad" gradientUnits="userSpaceOnUse" x1="-5.676000118255615" y1="100.26399993896484" x2="-5.676000118255615" y2="177.8300018310547"><stop offset="0%" stop-color="rgb(255,168,0)" stop-opacity="1"></stop><stop offset="60%" stop-color="rgb(255,168,0)" stop-opacity="0.5"></stop><stop offset="100%" stop-color="rgb(255,168,0)" stop-opacity="0"></stop></linearGradient><linearGradient id="__lottie_element_27" spreadMethod="pad" gradientUnits="userSpaceOnUse" x1="-3.9260001182556152" y1="61.763999938964844" x2="-3.9260001182556152" y2="96.31300354003906"><stop offset="0%" stop-color="rgb(255,168,0)" stop-opacity="1"></stop><stop offset="60%" stop-color="rgb(255,168,0)" stop-opacity="0.5"></stop><stop offset="100%" stop-color="rgb(255,168,0)" stop-opacity="0"></stop></linearGradient><linearGradient id="__lottie_element_28" spreadMethod="pad" gradientUnits="userSpaceOnUse" x1="-3.9260001182556152" y1="61.763999938964844" x2="-3.9260001182556152" y2="95.81300354003906"><stop offset="0%" stop-color="rgb(255,168,0)" stop-opacity="1"></stop><stop offset="60%" stop-color="rgb(255,168,0)" stop-opacity="0.5"></stop><stop offset="100%" stop-color="rgb(255,168,0)" stop-opacity="0"></stop></linearGradient><linearGradient id="__lottie_element_29" spreadMethod="pad" gradientUnits="userSpaceOnUse" x1="31.573999404907227" y1="36.763999938964844" x2="101.29000091552734" y2="36.763999938964844"><stop offset="0%" stop-color="rgb(255,168,0)" stop-opacity="1"></stop><stop offset="50%" stop-color="rgb(255,168,0)" stop-opacity="0.5"></stop><stop offset="100%" stop-color="rgb(255,168,0)" stop-opacity="0"></stop></linearGradient><linearGradient id="__lottie_element_30" spreadMethod="pad" gradientUnits="userSpaceOnUse" x1="-40.80099868774414" y1="34.638999938964844" x2="-111.95999908447266" y2="35.513999938964844"><stop offset="0%" stop-color="rgb(255,168,0)" stop-opacity="1"></stop><stop offset="50%" stop-color="rgb(255,168,0)" stop-opacity="0.5"></stop><stop offset="100%" stop-color="rgb(255,168,0)" stop-opacity="0"></stop></linearGradient><radialGradient id="__lottie_element_34" spreadMethod="pad" gradientUnits="userSpaceOnUse" cx="-5.926000118255615" cy="-160.23599243164062" r="107.4029974937439" fx="-5.926000118255615" fy="-160.23599243164062"><stop offset="0%" stop-color="rgb(255,168,0)" stop-opacity="1"></stop><stop offset="50%" stop-color="rgb(255,168,0)" stop-opacity="0.5"></stop><stop offset="100%" stop-color="rgb(255,168,0)" stop-opacity="0"></stop></radialGradient><radialGradient id="__lottie_element_35" spreadMethod="pad" gradientUnits="userSpaceOnUse" cx="-5.926000118255615" cy="-113.23600006103516" r="104.97099828720093" fx="-5.926000118255615" fy="-113.23600006103516"><stop offset="0%" stop-color="rgb(255,168,0)" stop-opacity="1"></stop><stop offset="50%" stop-color="rgb(255,168,0)" stop-opacity="0.5"></stop><stop offset="100%" stop-color="rgb(255,168,0)" stop-opacity="0"></stop></radialGradient><radialGradient id="__lottie_element_36" spreadMethod="pad" gradientUnits="userSpaceOnUse" cx="-5.926000118255615" cy="-134.23599243164062" r="51.50399923324585" fx="-5.926000118255615" fy="-134.23599243164062"><stop offset="0%" stop-color="rgb(255,255,255)" stop-opacity="1"></stop><stop offset="50%" stop-color="rgb(255,255,255)" stop-opacity="0.5"></stop><stop offset="100%" stop-color="rgb(255,255,255)" stop-opacity="0"></stop></radialGradient><radialGradient id="__lottie_element_37" spreadMethod="pad" gradientUnits="userSpaceOnUse" cx="-5.926000118255615" cy="-137.23599243164062" r="107.4029974937439" fx="-5.926000118255615" fy="-137.23599243164062"><stop offset="0%" stop-color="rgb(255,168,0)" stop-opacity="1"></stop><stop offset="50%" stop-color="rgb(255,168,0)" stop-opacity="0.5"></stop><stop offset="100%" stop-color="rgb(255,168,0)" stop-opacity="0"></stop></radialGradient><linearGradient id="__lottie_element_41" spreadMethod="pad" gradientUnits="userSpaceOnUse" x1="63.57400131225586" y1="-19.236000061035156" x2="85.08399963378906" y2="14.15999984741211"><stop offset="0%" stop-color="rgb(66,0,0)"></stop><stop offset="37%" stop-color="rgb(118,40,0)"></stop><stop offset="100%" stop-color="rgb(170,80,0)"></stop></linearGradient><radialGradient id="__lottie_element_42" spreadMethod="pad" gradientUnits="userSpaceOnUse" cx="86.0739974975586" cy="6.763999938964844" r="14.795005798339844" fx="86.0739974975586" fy="6.763999938964844"><stop offset="0%" stop-color="rgb(246,175,0)" stop-opacity="1"></stop><stop offset="50%" stop-color="rgb(246,175,0)" stop-opacity="0.5"></stop><stop offset="100%" stop-color="rgb(246,175,0)" stop-opacity="0"></stop></radialGradient><linearGradient id="__lottie_element_43" spreadMethod="pad" gradientUnits="userSpaceOnUse" x1="62.44900131225586" y1="-28.236000061035156" x2="62.816001892089844" y2="-16.861000061035156"><stop offset="0%" stop-color="rgb(255,255,255)" stop-opacity="1"></stop><stop offset="60%" stop-color="rgb(255,255,255)" stop-opacity="0.5"></stop><stop offset="100%" stop-color="rgb(255,255,255)" stop-opacity="0"></stop></linearGradient><linearGradient id="__lottie_element_44" spreadMethod="pad" gradientUnits="userSpaceOnUse" x1="-85.9260025024414" y1="-18.986000061035156" x2="-65.16600036621094" y2="14.65999984741211"><stop offset="0%" stop-color="rgb(66,0,0)"></stop><stop offset="37%" stop-color="rgb(118,40,0)"></stop><stop offset="100%" stop-color="rgb(170,80,0)"></stop></linearGradient><radialGradient id="__lottie_element_45" spreadMethod="pad" gradientUnits="userSpaceOnUse" cx="-67.9260025024414" cy="6.763999938964844" r="14.795001983642578" fx="-67.9260025024414" fy="6.763999938964844"><stop offset="0%" stop-color="rgb(246,175,0)" stop-opacity="1"></stop><stop offset="50%" stop-color="rgb(246,175,0)" stop-opacity="0.5"></stop><stop offset="100%" stop-color="rgb(246,175,0)" stop-opacity="0"></stop></radialGradient><linearGradient id="__lottie_element_46" spreadMethod="pad" gradientUnits="userSpaceOnUse" x1="-87.48799896240234" y1="-28.673999786376953" x2="-87.30999755859375" y2="-16.361000061035156"><stop offset="0%" stop-color="rgb(255,255,255)" stop-opacity="1"></stop><stop offset="60%" stop-color="rgb(255,255,255)" stop-opacity="0.5"></stop><stop offset="100%" stop-color="rgb(255,255,255)" stop-opacity="0"></stop></linearGradient><linearGradient id="__lottie_element_53" spreadMethod="pad" gradientUnits="userSpaceOnUse" x1="-5.926000118255615" y1="73.76399993896484" x2="-5.926000118255615" y2="108.93000030517578"><stop offset="0%" stop-color="rgb(255,168,0)" stop-opacity="1"></stop><stop offset="66%" stop-color="rgb(255,168,0)" stop-opacity="0.5"></stop><stop offset="100%" stop-color="rgb(255,168,0)" stop-opacity="0"></stop></linearGradient><linearGradient id="__lottie_element_54" spreadMethod="pad" gradientUnits="userSpaceOnUse" x1="-5.301000118255615" y1="83.63899993896484" x2="-5.676000118255615" y2="56.98899841308594"><stop offset="10%" stop-color="rgb(219,110,0)" stop-opacity="1"></stop><stop offset="51%" stop-color="rgb(219,110,0)" stop-opacity="0.5"></stop><stop offset="80%" stop-color="rgb(219,110,0)" stop-opacity="0"></stop></linearGradient><radialGradient id="__lottie_element_55" spreadMethod="pad" gradientUnits="userSpaceOnUse" cx="-5.926000118255615" cy="50.763999938964844" r="30.842000484466553" fx="-5.926000118255615" fy="50.763999938964844"><stop offset="36%" stop-color="rgb(255,168,0)" stop-opacity="0"></stop><stop offset="74%" stop-color="rgb(255,168,0)" stop-opacity="0.5"></stop><stop offset="100%" stop-color="rgb(255,168,0)" stop-opacity="1"></stop></radialGradient><linearGradient id="__lottie_element_56" spreadMethod="pad" gradientUnits="userSpaceOnUse" x1="-5.926000118255615" y1="47.763999938964844" x2="-5.926000118255615" y2="60.27199935913086"><stop offset="0%" stop-color="rgb(255,255,255)" stop-opacity="1"></stop><stop offset="50%" stop-color="rgb(255,255,255)" stop-opacity="0.5"></stop><stop offset="100%" stop-color="rgb(255,255,255)" stop-opacity="0"></stop></linearGradient><linearGradient id="__lottie_element_60" spreadMethod="pad" gradientUnits="userSpaceOnUse" x1="-5.926000118255615" y1="-95.23600006103516" x2="-5.926000118255615" y2="160.9969940185547"><stop offset="0%" stop-color="rgb(255,216,0)" stop-opacity="1"></stop><stop offset="50%" stop-color="rgb(255,216,0)" stop-opacity="0.5"></stop><stop offset="100%" stop-color="rgb(255,216,0)" stop-opacity="0"></stop></linearGradient><linearGradient id="__lottie_element_61" spreadMethod="pad" gradientUnits="userSpaceOnUse" x1="-5.926000118255615" y1="-154.23599243164062" x2="-5.926000118255615" y2="195.0290069580078"><stop offset="0%" stop-color="rgb(255,216,0)" stop-opacity="0"></stop><stop offset="11%" stop-color="rgb(255,216,0)" stop-opacity="0.5"></stop><stop offset="45%" stop-color="rgb(255,216,0)" stop-opacity="1"></stop><stop offset="90%" stop-color="rgb(255,216,0)" stop-opacity="0.5"></stop><stop offset="100%" stop-color="rgb(255,216,0)" stop-opacity="0"></stop></linearGradient><linearGradient id="__lottie_element_62" spreadMethod="pad" gradientUnits="userSpaceOnUse" x1="-5.926000118255615" y1="-190.23599243164062" x2="-5.926000118255615" y2="-128.30099487304688"><stop offset="0%" stop-color="rgb(255,255,255)" stop-opacity="1"></stop><stop offset="50%" stop-color="rgb(255,255,255)" stop-opacity="0.5"></stop><stop offset="100%" stop-color="rgb(255,255,255)" stop-opacity="0"></stop></linearGradient></defs><g clip-path="url(#__lottie_element_2)"><g style="display: block;" transform="matrix(1,0,0,1,256,256)" opacity="1"><g opacity="1" transform="matrix(1,0,0,1,0,0)"><path fill="rgb(255,168,0)" fill-opacity="1" d=" M-163.2259979248047,-22.000999450683594 C-163.2259979248047,-22.000999450683594 -177.0850067138672,-31.422000885009766 -184.37100219726562,-18.79800033569336 C-191.03599548339844,-7.25 -180.3000030517578,52.446998596191406 -168.53399658203125,62.12900161743164 C-161.29600524902344,68.08499908447266 -153.4600067138672,60.737998962402344 -153.4600067138672,60.737998962402344 C-148.68699645996094,57.47200012207031 -154.43299865722656,-10.026000022888184 -163.2259979248047,-22.000999450683594z"></path><path stroke-linecap="round" stroke-linejoin="round" fill-opacity="0" stroke="rgb(219,110,0)" stroke-opacity="1" stroke-width="8" d=" M-163.2259979248047,-22.000999450683594 C-163.2259979248047,-22.000999450683594 -177.0850067138672,-31.422000885009766 -184.37100219726562,-18.79800033569336 C-191.03599548339844,-7.25 -180.3000030517578,52.446998596191406 -168.53399658203125,62.12900161743164 C-161.29600524902344,68.08499908447266 -153.4600067138672,60.737998962402344 -153.4600067138672,60.737998962402344 C-148.68699645996094,57.47200012207031 -154.43299865722656,-10.026000022888184 -163.2259979248047,-22.000999450683594z"></path></g><g opacity="1" transform="matrix(1,0,0,1,0,0)"><path fill="rgb(255,168,0)" fill-opacity="1" d=" M154.28399658203125,-22.000999450683594 C154.28399658203125,-22.000999450683594 168.1439971923828,-31.422000885009766 175.42999267578125,-18.79800033569336 C182.09500122070312,-7.25 171.35800170898438,52.446998596191406 159.5919952392578,62.12900161743164 C152.35400390625,68.08499908447266 144.51800537109375,60.737998962402344 144.51800537109375,60.737998962402344 C139.7449951171875,57.47200012207031 145.49099731445312,-10.026000022888184 154.28399658203125,-22.000999450683594z"></path><path stroke-linecap="round" stroke-linejoin="round" fill-opacity="0" stroke="rgb(219,110,0)" stroke-opacity="1" stroke-width="8" d=" M154.28399658203125,-22.000999450683594 C154.28399658203125,-22.000999450683594 168.1439971923828,-31.422000885009766 175.42999267578125,-18.79800033569336 C182.09500122070312,-7.25 171.35800170898438,52.446998596191406 159.5919952392578,62.12900161743164 C152.35400390625,68.08499908447266 144.51800537109375,60.737998962402344 144.51800537109375,60.737998962402344 C139.7449951171875,57.47200012207031 145.49099731445312,-10.026000022888184 154.28399658203125,-22.000999450683594z"></path></g></g><g style="display: block;" transform="matrix(1,0,0,1,256,256)" opacity="1"><g opacity="1" transform="matrix(1,0,0,1,0,0)"><path fill="rgb(255,168,0)" fill-opacity="1" d=" M-5.205999851226807,-206.38099670410156 C-158.88099670410156,-206.38099670410156 -174.9709930419922,-68.9280014038086 -163.56100463867188,37.90800094604492 C-151.2969970703125,152.74400329589844 -67.3219985961914,204.3209991455078 -5.205999851226807,204.3209991455078 C56.90999984741211,204.3209991455078 140.88499450683594,152.74400329589844 153.1490020751953,37.90800094604492 C164.55799865722656,-68.9280014038086 148.468994140625,-206.38099670410156 -5.205999851226807,-206.38099670410156z"></path></g><g opacity="1" transform="matrix(1,0,0,1,0,0)"><path fill="url(#__lottie_element_60)" fill-opacity="1" d=" M-5.205999851226807,-206.38099670410156 C-158.88099670410156,-206.38099670410156 -174.9709930419922,-68.9280014038086 -163.56100463867188,37.90800094604492 C-151.2969970703125,152.74400329589844 -67.3219985961914,204.3209991455078 -5.205999851226807,204.3209991455078 C56.90999984741211,204.3209991455078 140.88499450683594,152.74400329589844 153.1490020751953,37.90800094604492 C164.55799865722656,-68.9280014038086 148.468994140625,-206.38099670410156 -5.205999851226807,-206.38099670410156z"></path></g><g opacity="1" transform="matrix(1,0,0,1,0,0)"><path fill="url(#__lottie_element_61)" fill-opacity="1" d=" M-5.205999851226807,-192.10499572753906 C-71.33399963378906,-192.10499572753906 -116.60800170898438,-159.7740020751953 -130.47799682617188,-123.01599884033203 C-146.26699829101562,-81.1709976196289 -147.0070037841797,-16.613000869750977 -142.0399932861328,32.986000061035156 C-131.4429931640625,138.7969970703125 -58.880001068115234,186.1649932861328 -5.205999851226807,186.1649932861328 C48.46799850463867,186.1649932861328 121.02999877929688,138.7969970703125 131.6269989013672,32.986000061035156 C136.5469970703125,-16.141000747680664 135.86700439453125,-80.1709976196289 120.51100158691406,-121.81900024414062 C106.7249984741211,-159.20599365234375 61.60200119018555,-192.10499572753906 -5.205999851226807,-192.10499572753906z"></path></g><g opacity="1" transform="matrix(1,0,0,1,0,0)"><path stroke-linecap="round" stroke-linejoin="round" fill-opacity="0" stroke="rgb(219,110,0)" stroke-opacity="1" stroke-width="8" d=" M-5.205999851226807,-206.38099670410156 C-158.88099670410156,-206.38099670410156 -174.9709930419922,-68.9280014038086 -163.56100463867188,37.90800094604492 C-151.2969970703125,152.74400329589844 -67.3219985961914,204.3209991455078 -5.205999851226807,204.3209991455078 C56.90999984741211,204.3209991455078 140.88499450683594,152.74400329589844 153.1490020751953,37.90800094604492 C164.55799865722656,-68.9280014038086 148.468994140625,-206.38099670410156 -5.205999851226807,-206.38099670410156z"></path></g><g opacity="1" transform="matrix(1,0,0,1,0,0)"><path fill="url(#__lottie_element_62)" fill-opacity="0.7000000000000001" d=" M115.2959976196289,-135.14999389648438 C88.90899658203125,-178.88999938964844 29.104000091552734,-192.10499572753906 -5.197000026702881,-192.10499572753906 C-5.197000026702881,-192.10499572753906 -5.215000152587891,-192.06100463867188 -5.215000152587891,-192.06100463867188 C-5.215000152587891,-192.06100463867188 -5.215000152587891,-192.10499572753906 -5.215000152587891,-192.10499572753906 C-39.51599884033203,-192.10499572753906 -99.3219985961914,-178.88999938964844 -125.70899963378906,-135.14999389648438 C-152.0959930419922,-91.41000366210938 -41.89799880981445,-117.59100341796875 -5.205999851226807,-117.59100341796875 C31.486000061035156,-117.59100341796875 141.68299865722656,-91.41000366210938 115.2959976196289,-135.14999389648438z"></path></g></g><g style="display: block;" transform="matrix(1,0,0,1,256,256)" opacity="1"><g opacity="1" transform="matrix(1,0,0,1,0,0)"><path fill="url(#__lottie_element_53)" fill-opacity="0.7000000000000001" d=" M21.486000061035156,77.85600280761719 C21.486000061035156,88.90499877929688 8.708000183105469,98.72799682617188 -5.205999851226807,98.72799682617188 C-19.1200008392334,98.72799682617188 -31.89900016784668,88.90499877929688 -31.89900016784668,77.85600280761719 C-31.89900016784668,66.80799865722656 -19.1200008392334,56.678001403808594 -5.205999851226807,56.678001403808594 C8.708000183105469,56.678001403808594 21.486000061035156,66.80799865722656 21.486000061035156,77.85600280761719z"></path></g><g opacity="1" transform="matrix(1,0,0,1,0,0)"><path fill="rgb(255,168,0)" fill-opacity="0.8" d=" M21.486000061035156,65.87899780273438 C21.486000061035156,76.927001953125 9.53600025177002,85.10600280761719 -5.205999851226807,85.10600280761719 C-19.947999954223633,85.10600280761719 -31.89900016784668,76.927001953125 -31.89900016784668,65.87899780273438 C-31.89900016784668,54.83100128173828 -19.947999954223633,46.34600067138672 -5.205999851226807,46.34600067138672 C9.53600025177002,46.34600067138672 21.486000061035156,54.83100128173828 21.486000061035156,65.87899780273438z"></path></g><g opacity="1" transform="matrix(1,0,0,1,0,0)"><path fill="url(#__lottie_element_54)" fill-opacity="0.7000000000000001" d=" M21.486000061035156,65.87899780273438 C21.486000061035156,76.927001953125 9.53600025177002,85.10600280761719 -5.205999851226807,85.10600280761719 C-19.947999954223633,85.10600280761719 -31.89900016784668,76.927001953125 -31.89900016784668,65.87899780273438 C-31.89900016784668,54.83100128173828 -19.947999954223633,46.34600067138672 -5.205999851226807,46.34600067138672 C9.53600025177002,46.34600067138672 21.486000061035156,54.83100128173828 21.486000061035156,65.87899780273438z"></path></g><g opacity="1" transform="matrix(1,0,0,1,0,0)"><path fill="rgb(255,216,0)" fill-opacity="1" d=" M18.868000030517578,60.762001037597656 C18.868000030517578,68.98699951171875 10.666999816894531,76.85099792480469 -5.205999851226807,76.85099792480469 C-21.295000076293945,76.85099792480469 -29.280000686645508,68.98699951171875 -29.280000686645508,60.762001037597656 C-29.280000686645508,52.5369987487793 -17.958999633789062,46.02299880981445 -5.205999851226807,46.02299880981445 C7.546999931335449,46.02299880981445 18.868000030517578,52.5369987487793 18.868000030517578,60.762001037597656z"></path></g><g opacity="1" transform="matrix(1,0,0,1,0,0)"><path fill="url(#__lottie_element_55)" fill-opacity="1" d=" M18.868000030517578,60.762001037597656 C18.868000030517578,68.98699951171875 10.666999816894531,76.85099792480469 -5.205999851226807,76.85099792480469 C-21.295000076293945,76.85099792480469 -29.280000686645508,68.98699951171875 -29.280000686645508,60.762001037597656 C-29.280000686645508,52.5369987487793 -17.958999633789062,46.02299880981445 -5.205999851226807,46.02299880981445 C7.546999931335449,46.02299880981445 18.868000030517578,52.5369987487793 18.868000030517578,60.762001037597656z"></path></g><g opacity="1" transform="matrix(1,0,0,1,0,0)"><path fill="url(#__lottie_element_56)" fill-opacity="0.7000000000000001" d=" M8.605999946594238,54.4010009765625 C8.605999946594238,58.73099899291992 2.421999931335449,62.803001403808594 -5.205999851226807,62.803001403808594 C-12.833999633789062,62.803001403808594 -19.018999099731445,58.73099899291992 -19.018999099731445,54.4010009765625 C-19.018999099731445,50.07099914550781 -12.833999633789062,47.89899826049805 -5.205999851226807,47.89899826049805 C2.421999931335449,47.89899826049805 8.605999946594238,50.07099914550781 8.605999946594238,54.4010009765625z"></path></g></g><g style="display: block;" transform="matrix(1,0,0,1,256,256)" opacity="1"><g opacity="1" transform="matrix(1,0,0,1,0,0)"><path stroke-linecap="round" stroke-linejoin="round" fill-opacity="0" stroke="rgb(163,65,0)" stroke-opacity="1" stroke-width="18" d=" M47.1510009765625,-66.24199676513672 C47.1510009765625,-66.24199676513672 72.48500061035156,-72.23400115966797 95.43599700927734,-60.86600112915039"></path></g><g opacity="1" transform="matrix(1,0,0,1,0,0)"><path stroke-linecap="round" stroke-linejoin="round" fill-opacity="0" stroke="rgb(163,65,0)" stroke-opacity="1" stroke-width="18" d=" M-56.44200134277344,-66.24199676513672 C-56.44200134277344,-66.24199676513672 -81.7750015258789,-72.23400115966797 -104.72599792480469,-60.86600112915039"></path></g></g><g style="display: block;" transform="matrix(1,0,0,1,256,256)" opacity="1"><g opacity="1" transform="matrix(1,0,0,1,0,0)"><g opacity="1" transform="matrix(1,0,0,1,0,0)"><path fill="rgb(255,255,255)" fill-opacity="1" d=" M36.89099884033203,17.99799919128418 C32.73400115966797,16.17099952697754 30.12700080871582,11.954000473022461 30.44499969482422,7.425000190734863 C31.082000732421875,-1.659999966621399 34.07699966430664,-17.569000244140625 46.494998931884766,-29.229999542236328 C62.277000427246094,-44.05099868774414 91.98899841308594,-42.59600067138672 106.87999725341797,-23.60700035095215 C119.00499725341797,-8.145000457763672 116.11799621582031,9.880999565124512 116.11799621582031,9.880999565124512 C116.11799621582031,9.880999565124512 104.01300048828125,23.222999572753906 79.16500091552734,24.677000045776367 C58.902000427246094,25.863000869750977 44.56999969482422,21.374000549316406 36.89099884033203,17.99799919128418z"></path></g><g opacity="1" transform="matrix(1,0,0,1,0,0)"><g opacity="1" transform="matrix(1,0,0,1,0,0)"><path fill="url(#__lottie_element_41)" fill-opacity="1" d=" M97.43599700927734,-7.182000160217285 C97.43599700927734,8.140000343322754 85.31800079345703,20.559999465942383 70.37000274658203,20.559999465942383 C55.422000885009766,20.559999465942383 43.30500030517578,8.140000343322754 43.30500030517578,-7.182000160217285 C43.30500030517578,-22.503999710083008 55.422000885009766,-34.92499923706055 70.37000274658203,-34.92499923706055 C85.31800079345703,-34.92499923706055 97.43599700927734,-22.503999710083008 97.43599700927734,-7.182000160217285z"></path></g><g opacity="1" transform="matrix(1,0,0,1,0,0)"><g opacity="1" transform="matrix(1,0,0,1,0,0)"><path fill="url(#__lottie_element_42)" fill-opacity="1" d=" M77.30400085449219,19.295000076293945 C75.18900299072266,19.295000076293945 73.23100280761719,17.895000457763672 72.57499694824219,15.71500015258789 C71.76899719238281,13.036999702453613 73.23400115966797,10.196000099182129 75.84700012207031,9.369999885559082 C80.84500122070312,7.789999961853027 84.8239974975586,3.809999942779541 86.48899841308594,-1.2760000228881836 C87.35900115966797,-3.934000015258789 90.16999816894531,-5.361999988555908 92.75700378417969,-4.4720001220703125 C95.3489990234375,-3.5810000896453857 96.74500274658203,-0.703000009059906 95.875,1.9539999961853027 C93.197998046875,10.130000114440918 86.8010025024414,16.527000427246094 78.76399993896484,19.06800079345703 C78.27799987792969,19.222000122070312 77.78600311279297,19.295000076293945 77.30400085449219,19.295000076293945z"></path></g></g><g opacity="1" transform="matrix(1,0,0,1,0,0)"><path fill="rgb(24,19,9)" fill-opacity="1" d=" M87.47599792480469,-7.182000160217285 C87.47599792480469,2.500999927520752 79.81700134277344,10.35099983215332 70.37000274658203,10.35099983215332 C60.92300033569336,10.35099983215332 53.26499938964844,2.500999927520752 53.26499938964844,-7.182000160217285 C53.26499938964844,-16.864999771118164 60.92300033569336,-24.71500015258789 70.37000274658203,-24.71500015258789 C79.81700134277344,-24.71500015258789 87.47599792480469,-16.864999771118164 87.47599792480469,-7.182000160217285z"></path></g><g opacity="1" transform="matrix(1,0,0,1,0,0)"><path fill="url(#__lottie_element_43)" fill-opacity="1" d=" M62.35900115966797,-15.805000305175781 C58.68199920654297,-15.805000305175781 55.70100021362305,-18.71299934387207 55.70100021362305,-22.299999237060547 C55.70100021362305,-25.886999130249023 58.68199920654297,-28.79599952697754 62.35900115966797,-28.79599952697754 C66.03600311279297,-28.79599952697754 69.01699829101562,-25.886999130249023 69.01699829101562,-22.299999237060547 C69.01699829101562,-18.71299934387207 66.03600311279297,-15.805000305175781 62.35900115966797,-15.805000305175781z"></path></g></g><g opacity="1" transform="matrix(1,0,0,1,0,0)"><path fill="rgb(163,65,0)" fill-opacity="1" d=" M30.363000869750977,2.565999984741211 C33.020999908447266,-17.07900047302246 44.54499816894531,-42.1879997253418 73.98300170898438,-41.763999938964844 C100.4520034790039,-41.38199996948242 121.3550033569336,-17.333999633789062 116.1050033569336,9.880999565124512 C116.6780014038086,-15.387999534606934 98.47100067138672,-37.93299865722656 73.19599914550781,-37.62300109863281 C43.38100051879883,-37.257999420166016 34.3849983215332,-15.944999694824219 30.363000869750977,2.565999984741211z"></path><path stroke-linecap="round" stroke-linejoin="round" fill-opacity="0" stroke="rgb(163,65,0)" stroke-opacity="1" stroke-width="2" d=" M30.363000869750977,2.565999984741211 C33.020999908447266,-17.07900047302246 44.54499816894531,-42.1879997253418 73.98300170898438,-41.763999938964844 C100.4520034790039,-41.38199996948242 121.3550033569336,-17.333999633789062 116.1050033569336,9.880999565124512 C116.6780014038086,-15.387999534606934 98.47100067138672,-37.93299865722656 73.19599914550781,-37.62300109863281 C43.38100051879883,-37.257999420166016 34.3849983215332,-15.944999694824219 30.363000869750977,2.565999984741211z"></path></g></g><g opacity="1" transform="matrix(1,0,0,1,0,0)"><g opacity="1" transform="matrix(1,0,0,1,0,0)"><path fill="rgb(255,255,255)" fill-opacity="1" d=" M-46.18199920654297,17.99799919128418 C-42.025001525878906,16.17099952697754 -39.41699981689453,11.954000473022461 -39.73500061035156,7.425000190734863 C-40.37200164794922,-1.659999966621399 -43.367000579833984,-17.569000244140625 -55.78499984741211,-29.229999542236328 C-71.56700134277344,-44.05099868774414 -101.27999877929688,-42.59600067138672 -116.1709976196289,-23.60700035095215 C-128.29600524902344,-8.145000457763672 -125.40899658203125,9.880999565124512 -125.40899658203125,9.880999565124512 C-125.40899658203125,9.880999565124512 -113.30400085449219,23.222999572753906 -88.45600128173828,24.677000045776367 C-68.19300079345703,25.863000869750977 -53.861000061035156,21.374000549316406 -46.18199920654297,17.99799919128418z"></path></g><g opacity="1" transform="matrix(1,0,0,1,0,0)"><g opacity="1" transform="matrix(1,0,0,1,0,0)"><path fill="url(#__lottie_element_44)" fill-opacity="1" d=" M-52.59600067138672,-7.182000160217285 C-52.59600067138672,8.140000343322754 -64.71399688720703,20.559999465942383 -79.66100311279297,20.559999465942383 C-94.60900115966797,20.559999465942383 -106.72599792480469,8.140000343322754 -106.72599792480469,-7.182000160217285 C-106.72599792480469,-22.503999710083008 -94.60900115966797,-34.92499923706055 -79.66100311279297,-34.92499923706055 C-64.71399688720703,-34.92499923706055 -52.59600067138672,-22.503999710083008 -52.59600067138672,-7.182000160217285z"></path></g><g opacity="1" transform="matrix(1,0,0,1,0,0)"><g opacity="1" transform="matrix(1,0,0,1,0,0)"><path fill="url(#__lottie_element_45)" fill-opacity="1" d=" M-72.83399963378906,19.295000076293945 C-74.9489974975586,19.295000076293945 -76.90799713134766,17.895000457763672 -77.56400299072266,15.71500015258789 C-78.37000274658203,13.036999702453613 -76.90499877929688,10.196000099182129 -74.29199981689453,9.369999885559082 C-69.29399871826172,7.789999961853027 -65.31500244140625,3.809999942779541 -63.650001525878906,-1.2760000228881836 C-62.779998779296875,-3.934000015258789 -59.96900177001953,-5.361999988555908 -57.38199996948242,-4.4720001220703125 C-54.790000915527344,-3.5810000896453857 -53.39400100708008,-0.703000009059906 -54.263999938964844,1.9539999961853027 C-56.941001892089844,10.130000114440918 -63.33599853515625,16.527000427246094 -71.3740005493164,19.06800079345703 C-71.86000061035156,19.222000122070312 -72.35199737548828,19.295000076293945 -72.83399963378906,19.295000076293945z"></path></g></g><g opacity="1" transform="matrix(1,0,0,1,0,0)"><path fill="rgb(24,19,9)" fill-opacity="1" d=" M-62.555999755859375,-7.182000160217285 C-62.555999755859375,2.500999927520752 -70.21399688720703,10.35099983215332 -79.66100311279297,10.35099983215332 C-89.10800170898438,10.35099983215332 -96.76599884033203,2.500999927520752 -96.76599884033203,-7.182000160217285 C-96.76599884033203,-16.864999771118164 -89.10800170898438,-24.71500015258789 -79.66100311279297,-24.71500015258789 C-70.21399688720703,-24.71500015258789 -62.555999755859375,-16.864999771118164 -62.555999755859375,-7.182000160217285z"></path></g><g opacity="1" transform="matrix(1,0,0,1,0,0)"><path fill="url(#__lottie_element_46)" fill-opacity="1" d=" M-87.6719970703125,-15.805000305175781 C-91.3489990234375,-15.805000305175781 -94.33100128173828,-18.71299934387207 -94.33100128173828,-22.299999237060547 C-94.33100128173828,-25.886999130249023 -91.3499984741211,-28.79599952697754 -87.6729965209961,-28.79599952697754 C-83.99600219726562,-28.79599952697754 -81.01399993896484,-25.886999130249023 -81.01399993896484,-22.299999237060547 C-81.01399993896484,-18.71299934387207 -83.99500274658203,-15.805000305175781 -87.6719970703125,-15.805000305175781z"></path></g></g><g opacity="1" transform="matrix(1,0,0,1,0,0)"><path fill="rgb(163,65,0)" fill-opacity="1" d=" M-39.66699981689453,2.565999984741211 C-42.32500076293945,-17.07900047302246 -53.847999572753906,-42.1879997253418 -83.28600311279297,-41.763999938964844 C-109.75499725341797,-41.38199996948242 -130.65899658203125,-17.333999633789062 -125.40899658203125,9.880999565124512 C-125.98200225830078,-15.387999534606934 -107.7750015258789,-37.93299865722656 -82.5,-37.62300109863281 C-52.685001373291016,-37.257999420166016 -43.68899917602539,-15.944999694824219 -39.66699981689453,2.565999984741211z"></path><path stroke-linecap="round" stroke-linejoin="round" fill-opacity="0" stroke="rgb(163,65,0)" stroke-opacity="1" stroke-width="2" d=" M-39.66699981689453,2.565999984741211 C-42.32500076293945,-17.07900047302246 -53.847999572753906,-42.1879997253418 -83.28600311279297,-41.763999938964844 C-109.75499725341797,-41.38199996948242 -130.65899658203125,-17.333999633789062 -125.40899658203125,9.880999565124512 C-125.98200225830078,-15.387999534606934 -107.7750015258789,-37.93299865722656 -82.5,-37.62300109863281 C-52.685001373291016,-37.257999420166016 -43.68899917602539,-15.944999694824219 -39.66699981689453,2.565999984741211z"></path></g></g></g><g style="display: block;" transform="matrix(1,0,0,1,256,256)" opacity="1"><g opacity="1" transform="matrix(1,0,0,1,0,0)"><path fill="url(#__lottie_element_34)" fill-opacity="0.14" d=" M-5.205999851226807,-165.197998046875 C-82.7239990234375,-165.197998046875 -136.0709991455078,-129.3179931640625 -100.375,-141.28700256347656 C-72.89299774169922,-150.5019989013672 -31.10300064086914,-157.3679962158203 -5.205999851226807,-157.3679962158203 C20.69099998474121,-157.3679962158203 62.47999954223633,-150.5019989013672 89.96199798583984,-141.28700256347656 C125.65699768066406,-129.3179931640625 72.31199645996094,-165.197998046875 -5.205999851226807,-165.197998046875z"></path></g><g opacity="1" transform="matrix(1,0,0,1,0,0)"><path fill="url(#__lottie_element_35)" fill-opacity="0.6" d=" M-5.205999851226807,-123.91600036621094 C-82.7239990234375,-123.91600036621094 -136.0709991455078,-88.03600311279297 -100.375,-100.00499725341797 C-72.89299774169922,-109.22000122070312 -31.10300064086914,-116.08599853515625 -5.205999851226807,-116.08599853515625 C20.69099998474121,-116.08599853515625 62.47999954223633,-109.22000122070312 89.96199798583984,-100.00499725341797 C125.65699768066406,-88.03600311279297 72.31199645996094,-123.91600036621094 -5.205999851226807,-123.91600036621094z"></path></g><g opacity="1" transform="matrix(1,0,0,1,0,0)"><path fill="url(#__lottie_element_36)" fill-opacity="0.3" d=" M-5.205999851226807,-137.39199829101562 C-53.323001861572266,-137.39199829101562 -86.44499969482422,-120.99099731445312 -64.22799682617188,-126.04000091552734 C-47.183998107910156,-129.91400146484375 -21.267000198364258,-131.91900634765625 -5.205999851226807,-131.91900634765625 C10.854999542236328,-131.91900634765625 36.770999908447266,-129.91400146484375 53.814998626708984,-126.04000091552734 C75.99299621582031,-121 42.88999938964844,-137.39199829101562 -5.205999851226807,-137.39199829101562z"></path></g><g opacity="1" transform="matrix(1,0,0,1,0,0)"><path fill="url(#__lottie_element_37)" fill-opacity="0.6" d=" M-5.205999851226807,-145.197998046875 C-82.7239990234375,-145.197998046875 -136.0709991455078,-109.31800079345703 -100.375,-121.28700256347656 C-72.89299774169922,-130.5019989013672 -31.10300064086914,-137.3679962158203 -5.205999851226807,-137.3679962158203 C20.69099998474121,-137.3679962158203 62.47999954223633,-130.5019989013672 89.96199798583984,-121.28700256347656 C125.65699768066406,-109.31800079345703 72.31199645996094,-145.197998046875 -5.205999851226807,-145.197998046875z"></path></g></g><g style="display: block;" transform="matrix(1,0,0,1,256,256)" opacity="1"><g opacity="1" transform="matrix(1,0,0,1,0,0)"><path fill="url(#__lottie_element_26)" fill-opacity="0.5" d=" M64.8290023803711,110.25900268554688 C59.62699890136719,114.46499633789062 68.06199645996094,140.37899780273438 49.34299850463867,163.7550048828125 C30.909000396728516,186.7740020751953 4.166999816894531,186.22999572753906 -3.240999937057495,186.1649932861328 C-4.552000045776367,186.1529998779297 -5.861000061035156,186.1529998779297 -7.171999931335449,186.1649932861328 C-14.579999923706055,186.22999572753906 -41.32099914550781,186.7740020751953 -59.755001068115234,163.7550048828125 C-78.4739990234375,140.37899780273438 -70.04000091552734,114.46499633789062 -75.24199676513672,110.25900268554688 C-90.94300079345703,97.56600189208984 -105.87699890136719,204.3209991455078 -5.205999851226807,204.3209991455078 C95.46499633789062,204.3209991455078 80.52999877929688,97.56600189208984 64.8290023803711,110.25900268554688z"></path></g><g opacity="1" transform="matrix(1,0,0,1,0,0)"><path fill="url(#__lottie_element_27)" fill-opacity="0.5" d=" M-38.665000915527344,64.23799896240234 C-44.58599853515625,66.52200317382812 -50.7599983215332,76.44400024414062 -77.97200012207031,93.48799896240234 C-77.97200012207031,93.48799896240234 -71.15899658203125,93.64399719238281 -62.66899871826172,89.67900085449219 C-49.57400131225586,83.56400299072266 -39.486000061035156,74.33499908447266 -36.060001373291016,68.83899688720703 C-34.00400161743164,65.54199981689453 -36.30699920654297,63.327999114990234 -38.665000915527344,64.23799896240234z"></path></g><g opacity="1" transform="matrix(1,0,0,1,0,0)"><path fill="url(#__lottie_element_28)" fill-opacity="0.5" d=" M28.533000946044922,64.23799896240234 C34.45399856567383,66.52200317382812 40.62900161743164,76.44400024414062 67.84100341796875,93.48799896240234 C67.84100341796875,93.48799896240234 61.02799987792969,93.64399719238281 52.53799819946289,89.67900085449219 C39.44300079345703,83.56400299072266 29.354000091552734,74.33499908447266 25.92799949645996,68.83899688720703 C23.871999740600586,65.54199981689453 26.174999237060547,63.327999114990234 28.533000946044922,64.23799896240234z"></path></g><g opacity="1" transform="matrix(1,0,0,1,0,0)"><path fill="url(#__lottie_element_29)" fill-opacity="0.5" d=" M29.766000747680664,21.94700050354004 C37.3489990234375,21.929000854492188 42.5989990234375,40.500999450683594 80.3239974975586,43.867000579833984 C92.15299987792969,44.92300033569336 103.18000030517578,44.06999969482422 97.81700134277344,47.89899826049805 C89.9749984741211,53.49700164794922 64.96800231933594,54.12799835205078 48.85100173950195,47.89899826049805 C21.66699981689453,37.393001556396484 23.35300064086914,21.961999893188477 29.766000747680664,21.94700050354004z"></path></g><g opacity="1" transform="matrix(1,0,0,1,0,0)"><path fill="url(#__lottie_element_30)" fill-opacity="0.5" d=" M-40.22600173950195,21.94700050354004 C-47.808998107910156,21.929000854492188 -53.058998107910156,40.500999450683594 -90.78399658203125,43.867000579833984 C-102.61299896240234,44.92300033569336 -113.63999938964844,44.06999969482422 -108.2770004272461,47.89899826049805 C-100.43499755859375,53.49700164794922 -75.4280014038086,54.12799835205078 -59.31100082397461,47.89899826049805 C-32.12699890136719,37.393001556396484 -33.8129997253418,21.961999893188477 -40.22600173950195,21.94700050354004z"></path></g></g><g style="display: block;" transform="matrix(1,0,0,1,256,256)" opacity="1"><g opacity="1" transform="matrix(1,0,0,1,0,0)"><path fill="rgb(255,205,0)" fill-opacity="1" d=" M-141.3719940185547,-136.86000061035156 C-139.1750030517578,-131.66600036621094 -132.3040008544922,-104.48799896240234 -156.75799560546875,-61.17599868774414 C-156.75799560546875,-61.17599868774414 -158.9510040283203,18.992000579833984 -163.24000549316406,19.538999557495117 C-178.7779998779297,21.520000457763672 -190.29600524902344,-73.20800018310547 -181.78900146484375,-96.38800048828125 C-171.88900756835938,-123.36299896240234 -146.13800048828125,-148.12600708007812 -141.3719940185547,-136.86000061035156z"></path></g><g opacity="1" transform="matrix(1,0,0,1,0,0)"><path fill="url(#__lottie_element_20)" fill-opacity="1" d=" M-141.3719940185547,-136.86000061035156 C-139.1750030517578,-131.66600036621094 -132.3040008544922,-104.48799896240234 -156.75799560546875,-61.17599868774414 C-156.75799560546875,-61.17599868774414 -158.9510040283203,18.992000579833984 -163.24000549316406,19.538999557495117 C-178.7779998779297,21.520000457763672 -190.29600524902344,-73.20800018310547 -181.78900146484375,-96.38800048828125 C-171.88900756835938,-123.36299896240234 -146.13800048828125,-148.12600708007812 -141.3719940185547,-136.86000061035156z"></path></g><g opacity="1" transform="matrix(1,0,0,1,0,0)"><path fill="url(#__lottie_element_21)" fill-opacity="0.7000000000000001" d=" M-156.75599670410156,-61.17599868774414 C-156.75599670410156,-61.17599868774414 -158.95599365234375,18.993999481201172 -163.23599243164062,19.54400062561035 C-170.58599853515625,20.483999252319336 -181.3179931640625,0 -177.88600158691406,-24.715999603271484 C-165.86099243164062,10.35099983215332 -170.5260009765625,-58.2760009765625 -170.5260009765625,-58.2760009765625 C-161.73500061035156,-70.38600158691406 -153.38600158691406,-85.3759994506836 -149.4459991455078,-107.94599914550781 C-145.50599670410156,-130.51600646972656 -155.28599548339844,-131.05599975585938 -164.0959930419922,-121.99600219726562 C-153.95599365234375,-134.2259979248047 -144.2760009765625,-143.71600341796875 -141.37600708007812,-136.8560028076172 C-139.17599487304688,-131.66600036621094 -132.30599975585938,-104.48600006103516 -156.75599670410156,-61.17599868774414z"></path></g><g opacity="1" transform="matrix(1,0,0,1,0,0)"><path stroke-linecap="round" stroke-linejoin="round" fill-opacity="0" stroke="rgb(197,92,0)" stroke-opacity="1" stroke-width="8" d=" M-141.3719940185547,-136.86000061035156 C-139.1750030517578,-131.66600036621094 -132.3040008544922,-104.48799896240234 -156.75799560546875,-61.17599868774414 C-156.75799560546875,-61.17599868774414 -158.9510040283203,18.992000579833984 -163.24000549316406,19.538999557495117 C-178.7779998779297,21.520000457763672 -190.29600524902344,-73.20800018310547 -181.78900146484375,-96.38800048828125 C-171.88900756835938,-123.36299896240234 -146.13800048828125,-148.12600708007812 -141.3719940185547,-136.86000061035156z"></path></g><g opacity="1" transform="matrix(1,0,0,1,0,0)"><path stroke-linecap="round" stroke-linejoin="round" fill-opacity="0" stroke="rgb(163,65,0)" stroke-opacity="1" stroke-width="8" d=" M-141.97799682617188,-96.61499786376953 C-144.61099243164062,-86.46700286865234 -149.18099975585938,-74.59600067138672 -156.75799560546875,-61.17599868774414 C-156.75799560546875,-61.17599868774414 -158.9510040283203,18.992000579833984 -163.24000549316406,19.538999557495117"></path></g><g opacity="1" transform="matrix(1,0,0,1,0,0)"><path fill="url(#__lottie_element_22)" fill-opacity="0.9" d=" M-150.73500061035156,-124.18699645996094 C-147.6999969482422,-121.22899627685547 -146.00799560546875,-94.87699890136719 -170.5260009765625,-58.2760009765625 C-174.08900451660156,-52.957000732421875 -179.84100341796875,-76.72899627685547 -174.61399841308594,-92.23200225830078 C-168.6580047607422,-109.89700317382812 -152.6020050048828,-126.00599670410156 -150.73500061035156,-124.18699645996094z"></path></g></g><g style="display: block;" transform="matrix(1,0,0,1,256,256)" opacity="1"><g opacity="1" transform="matrix(1,0,0,1,0,0)"><path fill="rgb(255,205,0)" fill-opacity="1" d=" M131.10000610351562,-136.86000061035156 C128.9029998779297,-131.66600036621094 122.03199768066406,-104.48799896240234 146.48599243164062,-61.17599868774414 C146.48599243164062,-61.17599868774414 148.6790008544922,18.992000579833984 152.96800231933594,19.538999557495117 C168.50599670410156,21.520000457763672 180.0240020751953,-73.20800018310547 171.51699829101562,-96.38800048828125 C161.61700439453125,-123.36299896240234 135.86599731445312,-148.12600708007812 131.10000610351562,-136.86000061035156z"></path></g><g opacity="1" transform="matrix(1,0,0,1,0,0)"><path fill="url(#__lottie_element_14)" fill-opacity="1" d=" M131.10000610351562,-136.86000061035156 C128.9029998779297,-131.66600036621094 122.03199768066406,-104.48799896240234 146.48599243164062,-61.17599868774414 C146.48599243164062,-61.17599868774414 148.6790008544922,18.992000579833984 152.96800231933594,19.538999557495117 C168.50599670410156,21.520000457763672 180.0240020751953,-73.20800018310547 171.51699829101562,-96.38800048828125 C161.61700439453125,-123.36299896240234 135.86599731445312,-148.12600708007812 131.10000610351562,-136.86000061035156z"></path></g><g opacity="1" transform="matrix(1,0,0,1,0,0)"><path fill="url(#__lottie_element_15)" fill-opacity="0.7000000000000001" d=" M146.48399353027344,-61.17599868774414 C146.48399353027344,-61.17599868774414 148.6840057373047,18.993999481201172 152.96400451660156,19.54400062561035 C160.31399536132812,20.483999252319336 171.04600524902344,0 167.61399841308594,-24.715999603271484 C155.58900451660156,10.35099983215332 160.25399780273438,-58.2760009765625 160.25399780273438,-58.2760009765625 C151.46299743652344,-70.38600158691406 143.11399841308594,-85.3759994506836 139.1739959716797,-107.94599914550781 C135.23399353027344,-130.51600646972656 145.01400756835938,-131.05599975585938 153.82400512695312,-121.99600219726562 C143.6840057373047,-134.2259979248047 134.00399780273438,-143.71600341796875 131.10400390625,-136.8560028076172 C128.9040069580078,-131.66600036621094 122.03399658203125,-104.48600006103516 146.48399353027344,-61.17599868774414z"></path></g><g opacity="1" transform="matrix(1,0,0,1,0,0)"><path stroke-linecap="round" stroke-linejoin="round" fill-opacity="0" stroke="rgb(197,92,0)" stroke-opacity="1" stroke-width="8" d=" M131.10000610351562,-136.86000061035156 C128.9029998779297,-131.66600036621094 122.03199768066406,-104.48799896240234 146.48599243164062,-61.17599868774414 C146.48599243164062,-61.17599868774414 148.6790008544922,18.992000579833984 152.96800231933594,19.538999557495117 C168.50599670410156,21.520000457763672 180.0240020751953,-73.20800018310547 171.51699829101562,-96.38800048828125 C161.61700439453125,-123.36299896240234 135.86599731445312,-148.12600708007812 131.10000610351562,-136.86000061035156z"></path></g><g opacity="1" transform="matrix(1,0,0,1,0,0)"><path stroke-linecap="round" stroke-linejoin="round" fill-opacity="0" stroke="rgb(163,65,0)" stroke-opacity="1" stroke-width="8" d=" M131.70599365234375,-96.61499786376953 C134.33900451660156,-86.46700286865234 138.90899658203125,-74.59600067138672 146.48599243164062,-61.17599868774414 C146.48599243164062,-61.17599868774414 148.6790008544922,18.992000579833984 152.96800231933594,19.538999557495117"></path></g><g opacity="1" transform="matrix(1,0,0,1,0,0)"><path fill="url(#__lottie_element_16)" fill-opacity="0.9" d=" M140.46299743652344,-124.18699645996094 C137.42799377441406,-121.22899627685547 135.73599243164062,-94.87699890136719 160.25399780273438,-58.2760009765625 C163.81700134277344,-52.957000732421875 169.56900024414062,-76.72899627685547 164.3419952392578,-92.23200225830078 C158.38600158691406,-109.89700317382812 142.3300018310547,-126.00599670410156 140.46299743652344,-124.18699645996094z"></path></g></g><g style="display: block;" transform="matrix(1,0,0,1,256,255.99998474121094)" opacity="1"><g opacity="1" transform="matrix(1,0,0,1,0,0)"><path fill="url(#__lottie_element_6)" fill-opacity="0.5" d=" M-5.205999851226807,85.10600280761719 C-40.678001403808594,85.10600280761719 -92.26200103759766,96.60099792480469 -89.6969985961914,117.66500091552734 C-88.45999908447266,127.82599639892578 -81.7969970703125,124.7959976196289 -67.46600341796875,123.41899871826172 C-49.402000427246094,121.68399810791016 -23.808000564575195,122.25199890136719 -5.205999851226807,122.25199890136719 C13.395999908447266,122.25199890136719 38.96099853515625,122.07099914550781 57.05400085449219,123.41899871826172 C71.10099792480469,124.46600341796875 78.0469970703125,127.82599639892578 79.28399658203125,117.66500091552734 C81.8489990234375,96.60099792480469 30.266000747680664,85.10600280761719 -5.205999851226807,85.10600280761719z"></path></g><g opacity="1" transform="matrix(1,0,0,1,0,0)"><g opacity="1" transform="matrix(1,0,0,1,0,0)"><path fill="url(#__lottie_element_7)" fill-opacity="0.5" d=" M37.54199981689453,121.10700225830078 C36.55500030517578,115.48799896240234 30.33099937438965,117.33799743652344 -5.11899995803833,117.33799743652344 C-39.71500015258789,117.33799743652344 -46.196998596191406,115.13500213623047 -47.779998779296875,121.10700225830078 C-48.41299819946289,123.49500274658203 -34.31100082397461,140.94500732421875 -5.126999855041504,140.94500732421875 C23.562000274658203,140.94500732421875 37.98500061035156,123.62699890136719 37.54199981689453,121.10700225830078z"></path></g><g opacity="1" transform="matrix(1,0,0,1,0,0)"><path fill="rgb(136,24,4)" fill-opacity="1" d=" M36.448001861572266,116.55699920654297 C34.810001373291016,114.08799743652344 30.33099937438965,114.48799896240234 -5.11899995803833,114.48799896240234 C-39.71500015258789,114.48799896240234 -44.85200119018555,114.1729965209961 -46.6870002746582,116.55699920654297 C-48.29800033569336,118.64900207519531 -34.31100082397461,133.74099731445312 -5.126999855041504,133.74099731445312 C23.562000274658203,133.74099731445312 37.948001861572266,118.81700134277344 36.448001861572266,116.55699920654297z"></path></g><g opacity="1" transform="matrix(1,0,0,1,0,0)"><path fill="url(#__lottie_element_8)" fill-opacity="1" d=" M36.448001861572266,116.55699920654297 C34.810001373291016,114.08799743652344 30.33099937438965,114.48799896240234 -5.11899995803833,114.48799896240234 C-39.71500015258789,114.48799896240234 -44.85200119018555,114.1729965209961 -46.6870002746582,116.55699920654297 C-48.29800033569336,118.64900207519531 -34.31100082397461,133.74099731445312 -5.126999855041504,133.74099731445312 C23.562000274658203,133.74099731445312 37.948001861572266,118.81700134277344 36.448001861572266,116.55699920654297z"></path></g><g opacity="1" transform="matrix(1,0,0,1,0,0)"><path fill="url(#__lottie_element_9)" fill-opacity="0.5" d=" M20.268999099731445,140.94400024414062 C20.268999099731445,146.71400451660156 12.550999641418457,155.06700134277344 -5.126999855041504,155.06700134277344 C-22.80500030517578,155.06700134277344 -30.52400016784668,146.71400451660156 -30.52400016784668,140.94400024414062 C-30.52400016784668,135.1739959716797 -22.80500030517578,140.94400024414062 -5.126999855041504,140.94400024414062 C12.550999641418457,140.94400024414062 20.268999099731445,135.1739959716797 20.268999099731445,140.94400024414062z"></path></g></g><g opacity="1" transform="matrix(1,0,0,1,0,0)"><path fill="rgb(255,205,0)" fill-opacity="1" d=" M-5.205999851226807,82.03299713134766 C-40.676998138427734,82.03299713134766 -92.25900268554688,91.74700164794922 -89.69400024414062,111.38099670410156 C-88.45700073242188,120.85199737548828 -81.79399871826172,118.0270004272461 -67.46399688720703,116.74400329589844 C-49.4010009765625,115.1259994506836 -23.808000564575195,115.65599822998047 -5.205999851226807,115.65599822998047 C13.395999908447266,115.65599822998047 38.95899963378906,115.48699951171875 57.05099868774414,116.74400329589844 C71.0979995727539,117.72000122070312 78.04399871826172,120.85199737548828 79.28099822998047,111.38099670410156 C81.84600067138672,91.74700164794922 30.264999389648438,82.03299713134766 -5.205999851226807,82.03299713134766z"></path></g><g opacity="1" transform="matrix(1,0,0,1,0,0)"><path fill="url(#__lottie_element_10)" fill-opacity="1" d=" M-5.205999851226807,82.03299713134766 C-40.676998138427734,82.03299713134766 -92.25900268554688,91.74700164794922 -89.69400024414062,111.38099670410156 C-88.45700073242188,120.85199737548828 -81.79399871826172,118.0270004272461 -67.46399688720703,116.74400329589844 C-49.4010009765625,115.1259994506836 -23.808000564575195,115.65599822998047 -5.205999851226807,115.65599822998047 C13.395999908447266,115.65599822998047 38.95899963378906,115.48699951171875 57.05099868774414,116.74400329589844 C71.0979995727539,117.72000122070312 78.04399871826172,120.85199737548828 79.28099822998047,111.38099670410156 C81.84600067138672,91.74700164794922 30.264999389648438,82.03299713134766 -5.205999851226807,82.03299713134766z"></path></g><g opacity="1" transform="matrix(1,0,0,1,0,0)"><path fill="rgb(163,65,0)" fill-opacity="1" d=" M79.28399658203125,111.38400268554688 C78.04399871826172,120.85399627685547 71.09400177001953,117.7239990234375 57.05400085449219,116.74400329589844 C38.9640007019043,115.48400115966797 13.394000053405762,115.65399932861328 -5.205999851226807,115.65399932861328 C-23.805999755859375,115.65399932861328 -49.395999908447266,115.1240005493164 -67.46600341796875,116.74400329589844 C-81.7959976196289,118.02400207519531 -88.45600128173828,120.85399627685547 -89.69599914550781,111.38400268554688 C-90.03600311279297,108.80400085449219 -89.43599700927734,106.3740005493164 -88.05599975585938,104.11399841308594 C-88.1259994506836,104.85399627685547 -88.10600280761719,105.61399841308594 -88.00599670410156,106.38400268554688 C-86.78600311279297,115.85399627685547 -80.25599670410156,112.02400207519531 -66.21600341796875,110.74400329589844 C-48.51599884033203,109.1240005493164 -23.43600082397461,108.65399932861328 -5.205999851226807,108.65399932861328 C13.02400016784668,108.65399932861328 38.07400131225586,109.48400115966797 55.80400085449219,110.74400329589844 C69.5739974975586,111.7239990234375 76.3740005493164,115.85399627685547 77.59400177001953,106.38400268554688 C77.69400024414062,105.61399841308594 77.71399688720703,104.85399627685547 77.64399719238281,104.11399841308594 C79.02400207519531,106.3740005493164 79.6240005493164,108.80400085449219 79.28399658203125,111.38400268554688z"></path></g></g></g></svg>