<svg xmlns="http://www.w3.org/2000/svg" xmlns:xlink="http://www.w3.org/1999/xlink" viewBox="0 0 512 512" width="512" height="512" style="width: 100%; height: 100%; transform: translate3d(0,0,0); content-visibility: visible;" preserveAspectRatio="xMidYMid meet"><defs><clipPath id="__lottie_element_2"><rect width="512" height="512" x="0" y="0"></rect></clipPath><linearGradient id="__lottie_element_6" spreadMethod="pad" gradientUnits="userSpaceOnUse" x1="-5.926000118255615" y1="73.76399993896484" x2="-5.926000118255615" y2="108.93000030517578"><stop offset="0%" stop-color="rgb(255,168,0)" stop-opacity="1"></stop><stop offset="66%" stop-color="rgb(255,168,0)" stop-opacity="0.5"></stop><stop offset="100%" stop-color="rgb(255,168,0)" stop-opacity="0"></stop></linearGradient><linearGradient id="__lottie_element_7" spreadMethod="pad" gradientUnits="userSpaceOnUse" x1="-5.301000118255615" y1="83.63899993896484" x2="-5.676000118255615" y2="56.98899841308594"><stop offset="10%" stop-color="rgb(219,110,0)" stop-opacity="1"></stop><stop offset="51%" stop-color="rgb(219,110,0)" stop-opacity="0.5"></stop><stop offset="80%" stop-color="rgb(219,110,0)" stop-opacity="0"></stop></linearGradient><radialGradient id="__lottie_element_8" spreadMethod="pad" gradientUnits="userSpaceOnUse" cx="-5.926000118255615" cy="50.763999938964844" r="30.842000484466553" fx="-5.926000118255615" fy="50.763999938964844"><stop offset="36%" stop-color="rgb(255,168,0)" stop-opacity="0"></stop><stop offset="74%" stop-color="rgb(255,168,0)" stop-opacity="0.5"></stop><stop offset="100%" stop-color="rgb(255,168,0)" stop-opacity="1"></stop></radialGradient><linearGradient id="__lottie_element_9" spreadMethod="pad" gradientUnits="userSpaceOnUse" x1="-5.926000118255615" y1="47.763999938964844" x2="-5.926000118255615" y2="60.27199935913086"><stop offset="0%" stop-color="rgb(255,255,255)" stop-opacity="1"></stop><stop offset="50%" stop-color="rgb(255,255,255)" stop-opacity="0.5"></stop><stop offset="100%" stop-color="rgb(255,255,255)" stop-opacity="0"></stop></linearGradient><linearGradient id="__lottie_element_13" spreadMethod="pad" gradientUnits="userSpaceOnUse" x1="-1" y1="116" x2="-1" y2="129.86000061035156"><stop offset="0%" stop-color="rgb(255,168,0)" stop-opacity="1"></stop><stop offset="50%" stop-color="rgb(255,168,0)" stop-opacity="0.5"></stop><stop offset="100%" stop-color="rgb(255,168,0)" stop-opacity="0"></stop></linearGradient><radialGradient id="__lottie_element_14" spreadMethod="pad" gradientUnits="userSpaceOnUse" cx="-1" cy="123" r="52.40700149536133" fx="-1" fy="123"><stop offset="0%" stop-color="rgb(255,255,255)" stop-opacity="1"></stop><stop offset="60%" stop-color="rgb(255,255,255)" stop-opacity="0.5"></stop><stop offset="100%" stop-color="rgb(255,255,255)" stop-opacity="0"></stop></radialGradient><linearGradient id="__lottie_element_15" spreadMethod="pad" gradientUnits="userSpaceOnUse" x1="-1" y1="137" x2="-1" y2="121.71900177001953"><stop offset="0%" stop-color="rgb(88,11,14)" stop-opacity="0"></stop><stop offset="34%" stop-color="rgb(88,11,14)" stop-opacity="0.5"></stop><stop offset="75%" stop-color="rgb(88,11,14)" stop-opacity="1"></stop></linearGradient><linearGradient id="__lottie_element_22" spreadMethod="pad" gradientUnits="userSpaceOnUse" x1="-85.9260025024414" y1="-18.986000061035156" x2="-65.16600036621094" y2="14.65999984741211"><stop offset="0%" stop-color="rgb(66,0,0)"></stop><stop offset="37%" stop-color="rgb(118,40,0)"></stop><stop offset="100%" stop-color="rgb(170,80,0)"></stop></linearGradient><radialGradient id="__lottie_element_23" spreadMethod="pad" gradientUnits="userSpaceOnUse" cx="-67.9260025024414" cy="6.763999938964844" r="14.795001983642578" fx="-67.9260025024414" fy="6.763999938964844"><stop offset="0%" stop-color="rgb(246,175,0)" stop-opacity="1"></stop><stop offset="50%" stop-color="rgb(246,175,0)" stop-opacity="0.5"></stop><stop offset="100%" stop-color="rgb(246,175,0)" stop-opacity="0"></stop></radialGradient><linearGradient id="__lottie_element_24" spreadMethod="pad" gradientUnits="userSpaceOnUse" x1="-87.48799896240234" y1="-28.673999786376953" x2="-87.30999755859375" y2="-16.361000061035156"><stop offset="0%" stop-color="rgb(255,255,255)" stop-opacity="1"></stop><stop offset="60%" stop-color="rgb(255,255,255)" stop-opacity="0.5"></stop><stop offset="100%" stop-color="rgb(255,255,255)" stop-opacity="0"></stop></linearGradient><linearGradient id="__lottie_element_25" spreadMethod="pad" gradientUnits="userSpaceOnUse" x1="-85.9260025024414" y1="-18.986000061035156" x2="-65.16600036621094" y2="14.65999984741211"><stop offset="0%" stop-color="rgb(66,0,0)"></stop><stop offset="37%" stop-color="rgb(118,40,0)"></stop><stop offset="100%" stop-color="rgb(170,80,0)"></stop></linearGradient><radialGradient id="__lottie_element_26" spreadMethod="pad" gradientUnits="userSpaceOnUse" cx="-67.9260025024414" cy="6.763999938964844" r="14.795001983642578" fx="-67.9260025024414" fy="6.763999938964844"><stop offset="0%" stop-color="rgb(246,175,0)" stop-opacity="1"></stop><stop offset="50%" stop-color="rgb(246,175,0)" stop-opacity="0.5"></stop><stop offset="100%" stop-color="rgb(246,175,0)" stop-opacity="0"></stop></radialGradient><linearGradient id="__lottie_element_27" spreadMethod="pad" gradientUnits="userSpaceOnUse" x1="-87.48799896240234" y1="-28.673999786376953" x2="-87.30999755859375" y2="-16.361000061035156"><stop offset="0%" stop-color="rgb(255,255,255)" stop-opacity="1"></stop><stop offset="60%" stop-color="rgb(255,255,255)" stop-opacity="0.5"></stop><stop offset="100%" stop-color="rgb(255,255,255)" stop-opacity="0"></stop></linearGradient><radialGradient id="__lottie_element_31" spreadMethod="pad" gradientUnits="userSpaceOnUse" cx="26.25" cy="-139.75" r="71.9365259634963" fx="26.25" fy="-139.75"><stop offset="0%" stop-color="rgb(255,168,0)" stop-opacity="1"></stop><stop offset="67%" stop-color="rgb(255,168,0)" stop-opacity="0.5"></stop><stop offset="100%" stop-color="rgb(255,168,0)" stop-opacity="0"></stop></radialGradient><radialGradient id="__lottie_element_32" spreadMethod="pad" gradientUnits="userSpaceOnUse" cx="42" cy="-166" r="49.685997009277344" fx="42" fy="-166"><stop offset="0%" stop-color="rgb(255,205,0)" stop-opacity="1"></stop><stop offset="68%" stop-color="rgb(255,205,0)" stop-opacity="0.5"></stop><stop offset="100%" stop-color="rgb(255,205,0)" stop-opacity="0"></stop></radialGradient><linearGradient id="__lottie_element_33" spreadMethod="pad" gradientUnits="userSpaceOnUse" x1="45" y1="-200" x2="25.18199920654297" y2="-164.8679962158203"><stop offset="0%" stop-color="rgb(255,255,255)" stop-opacity="1"></stop><stop offset="50%" stop-color="rgb(255,255,255)" stop-opacity="0.5"></stop><stop offset="100%" stop-color="rgb(255,255,255)" stop-opacity="0"></stop></linearGradient><linearGradient id="__lottie_element_34" spreadMethod="pad" gradientUnits="userSpaceOnUse" x1="-24" y1="-139" x2="65.9280014038086" y2="-157.1999969482422"><stop offset="12%" stop-color="rgb(218,110,0)" stop-opacity="1"></stop><stop offset="48%" stop-color="rgb(218,110,0)" stop-opacity="0.5"></stop><stop offset="84%" stop-color="rgb(218,110,0)" stop-opacity="0"></stop></linearGradient><radialGradient id="__lottie_element_38" spreadMethod="pad" gradientUnits="userSpaceOnUse" cx="0.5" cy="15.5" r="167.44934372957724" fx="0.5" fy="15.5"><stop offset="77%" stop-color="rgb(255,216,0)" stop-opacity="1"></stop><stop offset="88%" stop-color="rgb(255,216,0)" stop-opacity="0.5"></stop><stop offset="100%" stop-color="rgb(255,216,0)" stop-opacity="0"></stop></radialGradient><radialGradient id="__lottie_element_42" spreadMethod="pad" gradientUnits="userSpaceOnUse" cx="-100.34100341796875" cy="32" r="84.35189794359857" fx="-100.34100341796875" fy="32"><stop offset="65%" stop-color="rgb(255,216,0)" stop-opacity="1"></stop><stop offset="95%" stop-color="rgb(255,216,0)" stop-opacity="0.5"></stop><stop offset="100%" stop-color="rgb(255,216,0)" stop-opacity="0"></stop></radialGradient><radialGradient id="__lottie_element_43" spreadMethod="pad" gradientUnits="userSpaceOnUse" cx="-100.34100341796875" cy="32" r="84.35189794359857" fx="-100.34100341796875" fy="32"><stop offset="65%" stop-color="rgb(255,216,0)" stop-opacity="1"></stop><stop offset="95%" stop-color="rgb(255,216,0)" stop-opacity="0.5"></stop><stop offset="100%" stop-color="rgb(255,216,0)" stop-opacity="0"></stop></radialGradient></defs><g clip-path="url(#__lottie_element_2)"><g style="display: block;" transform="matrix(1,0,0,1,255.99998474121094,256)" opacity="1"><g opacity="1" transform="matrix(1,0,0,1,0,0)"><g opacity="1" transform="matrix(1,0,0,1,0,0)"><path fill="rgb(255,168,0)" fill-opacity="1" d=" M-179.25,0.9549999833106995 C-166.8419952392578,-2.4609999656677246 -155.46299743652344,20.976999282836914 -151.30499267578125,41.40700149536133 C-147.19000244140625,61.624000549316406 -148.781005859375,89.93399810791016 -160.2830047607422,94.14600372314453 C-175.0500030517578,99.5530014038086 -187.5489959716797,77.71700286865234 -192.78700256347656,51.983001708984375 C-198.02499389648438,26.249000549316406 -193.8719940185547,4.980000019073486 -179.25,0.9549999833106995z"></path></g><g opacity="1" transform="matrix(1,0,0,1,0,0)"><path fill="url(#__lottie_element_42)" fill-opacity="1" d=" M-179.25,0.9549999833106995 C-166.8419952392578,-2.4609999656677246 -155.46299743652344,20.976999282836914 -151.30499267578125,41.40700149536133 C-147.19000244140625,61.624000549316406 -148.781005859375,89.93399810791016 -160.2830047607422,94.14600372314453 C-175.0500030517578,99.5530014038086 -187.5489959716797,77.71700286865234 -192.78700256347656,51.983001708984375 C-198.02499389648438,26.249000549316406 -193.8719940185547,4.980000019073486 -179.25,0.9549999833106995z"></path></g><g opacity="1" transform="matrix(1,0,0,1,0,0)"><path stroke-linecap="round" stroke-linejoin="round" fill-opacity="0" stroke="rgb(219,110,0)" stroke-opacity="1" stroke-width="8" d=" M-192.78700256347656,51.983001708984375 C-187.5489959716797,77.71700286865234 -175.57200622558594,97.82599639892578 -160.2830047607422,94.14600372314453 C-151.29600524902344,91.98300170898438 -146.06700134277344,67.14099884033203 -151.30499267578125,41.40700149536133 C-156.54299926757812,15.67300033569336 -167.5659942626953,0.003000000026077032 -179.25,0.9549999833106995 C-196.447998046875,2.3559999465942383 -198.02499389648438,26.249000549316406 -192.78700256347656,51.983001708984375z"></path></g></g><g opacity="1" transform="matrix(-1,0,0,1,0,0)"><g opacity="1" transform="matrix(1,0,0,1,0,0)"><path fill="rgb(255,168,0)" fill-opacity="1" d=" M-179.25,0.9549999833106995 C-166.8419952392578,-2.4609999656677246 -155.46299743652344,20.976999282836914 -151.30499267578125,41.40700149536133 C-147.19000244140625,61.624000549316406 -148.781005859375,89.93399810791016 -160.2830047607422,94.14600372314453 C-175.0500030517578,99.5530014038086 -187.5489959716797,77.71700286865234 -192.78700256347656,51.983001708984375 C-198.02499389648438,26.249000549316406 -193.8719940185547,4.980000019073486 -179.25,0.9549999833106995z"></path></g><g opacity="1" transform="matrix(1,0,0,1,0,0)"><path fill="url(#__lottie_element_43)" fill-opacity="1" d=" M-179.25,0.9549999833106995 C-166.8419952392578,-2.4609999656677246 -155.46299743652344,20.976999282836914 -151.30499267578125,41.40700149536133 C-147.19000244140625,61.624000549316406 -148.781005859375,89.93399810791016 -160.2830047607422,94.14600372314453 C-175.0500030517578,99.5530014038086 -187.5489959716797,77.71700286865234 -192.78700256347656,51.983001708984375 C-198.02499389648438,26.249000549316406 -193.8719940185547,4.980000019073486 -179.25,0.9549999833106995z"></path></g><g opacity="1" transform="matrix(1,0,0,1,0,0)"><path stroke-linecap="round" stroke-linejoin="round" fill-opacity="0" stroke="rgb(219,110,0)" stroke-opacity="1" stroke-width="8" d=" M-192.78700256347656,51.983001708984375 C-187.5489959716797,77.71700286865234 -175.57200622558594,97.82599639892578 -160.2830047607422,94.14600372314453 C-151.29600524902344,91.98300170898438 -146.06700134277344,67.14099884033203 -151.30499267578125,41.40700149536133 C-156.54299926757812,15.67300033569336 -167.5659942626953,0.003000000026077032 -179.25,0.9549999833106995 C-196.447998046875,2.3559999465942383 -198.02499389648438,26.249000549316406 -192.78700256347656,51.983001708984375z"></path></g></g></g><g style="display: block;" transform="matrix(1,0,0,1,256,256)" opacity="1"><g opacity="1" transform="matrix(1,0,0,1,0,0)"><path fill="rgb(255,168,0)" fill-opacity="1" d=" M165.38400268554688,8.055999755859375 C165.38400268554688,106.26300048828125 101.23100280761719,194.87600708007812 0.02800000086426735,194.87600708007812 C-102.56500244140625,194.87600708007812 -165.3280029296875,106.26300048828125 -165.3280029296875,8.055999755859375 C-165.3280029296875,-90.1510009765625 -91.2959976196289,-160.76300048828125 0.02800000086426735,-160.76300048828125 C91.35199737548828,-160.76300048828125 165.38400268554688,-90.1510009765625 165.38400268554688,8.055999755859375z"></path></g><g opacity="1" transform="matrix(1,0,0,1,0,0)"><path fill="url(#__lottie_element_38)" fill-opacity="1" d=" M150.38400268554688,3.069999933242798 C150.38400268554688,93.64600372314453 92.0510025024414,175.3730010986328 0.02800000086426735,175.3730010986328 C-93.25900268554688,175.3730010986328 -150.3280029296875,93.64600372314453 -150.3280029296875,3.069999933242798 C-150.3280029296875,-87.50599670410156 -83.01100158691406,-152.6320037841797 0.02800000086426735,-152.6320037841797 C83.06700134277344,-152.6320037841797 150.38400268554688,-87.50599670410156 150.38400268554688,3.069999933242798z"></path></g><g opacity="1" transform="matrix(1,0,0,1,0,0)"><path stroke-linecap="round" stroke-linejoin="round" fill-opacity="0" stroke="rgb(219,110,0)" stroke-opacity="1" stroke-width="8" d=" M165.38400268554688,8.055999755859375 C165.38400268554688,106.26300048828125 101.23100280761719,194.87600708007812 0.02800000086426735,194.87600708007812 C-102.56500244140625,194.87600708007812 -165.3280029296875,106.26300048828125 -165.3280029296875,8.055999755859375 C-165.3280029296875,-90.1510009765625 -91.2959976196289,-160.76300048828125 0.02800000086426735,-160.76300048828125 C91.35199737548828,-160.76300048828125 165.38400268554688,-90.1510009765625 165.38400268554688,8.055999755859375z"></path></g></g><g style="display: block;" transform="matrix(1,0,0,1,255.99998474121094,256)" opacity="1"><g opacity="1" transform="matrix(1,0,0,1,0,0)"><path fill="url(#__lottie_element_31)" fill-opacity="1" d=" M-26.93600082397461,-150.31100463867188 C-22.416000366210938,-172.6959991455078 41.14899826049805,-164.3719940185547 71.9489974975586,-135.63900756835938 C68.9530029296875,-97.8479995727539 25.799999237060547,-81.19300079345703 19.922000885009766,-85.08799743652344 C16.118000030517578,-87.60900115966797 18.43899917602539,-94.42500305175781 17.559999465942383,-95.31099700927734 C17.559999465942383,-95.31099700927734 4.1519999504089355,-92.50800323486328 1.6779999732971191,-97.8479995727539 C-3.5480000972747803,-109.12699890136719 23.917999267578125,-129.98399353027344 6.423999786376953,-146.25399780273438 C-1.4290000200271606,-153.5570068359375 -18.95599937438965,-152.10899353027344 -26.93600082397461,-150.31100463867188z"></path></g><g opacity="1" transform="matrix(1,0,0,1,0,0)"><path fill="rgb(255,168,0)" fill-opacity="1" d=" M-24.82200050354004,-158.5970001220703 C-24.82200050354004,-158.5970001220703 -25.57200050354004,-200.58999633789062 15.508999824523926,-202.7220001220703 C35.507999420166016,-203.75999450683594 56.71799850463867,-189.30599975585938 64.19200134277344,-173.3209991455078 C74.5459976196289,-151.1750030517578 67.92900085449219,-112.93399810791016 33.77799987792969,-97.8479995727539 C36.78799819946289,-105.11399841308594 36.722999572753906,-119.83399963378906 36.722999572753906,-119.83399963378906 C36.722999572753906,-119.83399963378906 33.25,-108.5 15.777000427246094,-104.04299926757812 C28.648000717163086,-112.97000122070312 34.159000396728516,-146.01100158691406 16.582000732421875,-157.91400146484375 C4.678999900817871,-163.86500549316406 -12.621000289916992,-160.26699829101562 -24.82200050354004,-158.5970001220703z"></path></g><g opacity="1" transform="matrix(1,0,0,1,0,0)"><path fill="url(#__lottie_element_32)" fill-opacity="1" d=" M-24.82200050354004,-158.5970001220703 C-24.82200050354004,-158.5970001220703 -25.57200050354004,-200.58999633789062 15.508999824523926,-202.7220001220703 C35.507999420166016,-203.75999450683594 56.71799850463867,-189.30599975585938 64.19200134277344,-173.3209991455078 C74.5459976196289,-151.1750030517578 67.92900085449219,-112.93399810791016 33.77799987792969,-97.8479995727539 C36.78799819946289,-105.11399841308594 36.722999572753906,-119.83399963378906 36.722999572753906,-119.83399963378906 C36.722999572753906,-119.83399963378906 32.125,-108.25 15.527000427246094,-104.66799926757812 C28.398000717163086,-113.59500122070312 34.159000396728516,-146.01100158691406 16.582000732421875,-157.91400146484375 C4.678999900817871,-163.86500549316406 -12.621000289916992,-160.26699829101562 -24.82200050354004,-158.5970001220703z"></path></g><g opacity="1" transform="matrix(1,0,0,1,0,0)"><path fill="url(#__lottie_element_33)" fill-opacity="0.9" d=" M57.07699966430664,-119.71499633789062 C78.83000183105469,-171.2030029296875 53.029998779296875,-196.24200439453125 32.86399841308594,-201.63600158691406 C16.86400032043457,-205.91600036621094 -6.863999843597412,-200.49099731445312 -19.756999969482422,-182.57699584960938 C2.763000011444092,-190.25399780273438 59.034000396728516,-174.18600463867188 57.07699966430664,-119.71499633789062z"></path></g><g opacity="1" transform="matrix(1,0,0,1,0,0)"><path fill="url(#__lottie_element_34)" fill-opacity="0.7000000000000001" d=" M45.61000061035156,-122.66100311279297 C41.944000244140625,-123.93000030517578 47.62300109863281,-135.0050048828125 45.4370002746582,-136.76800537109375 C44.45000076293945,-137.26199340820312 39.215999603271484,-124.3740005493164 36.47600173950195,-126.80999755859375 C35.25600051879883,-127.8949966430664 39.861000061035156,-164.4239959716797 21.922000885009766,-171.94900512695312 C3.9830000400543213,-179.4739990234375 -9.4399995803833,-172.15199279785156 -11.767999649047852,-192.47000122070312 C-26.729999542236328,-179.27999877929688 -24.82200050354004,-158.5970001220703 -24.82200050354004,-158.5970001220703 C-12.621000289916992,-160.26699829101562 4.678999900817871,-163.86500549316406 16.582000732421875,-157.91400146484375 C34.159000396728516,-146.01100158691406 28.785999298095703,-112.6050033569336 15.914999961853027,-103.6780014038086 C21.360000610351562,-104.30999755859375 29.902000427246094,-107.8219985961914 36.513999938964844,-118.93399810791016 C35.935001373291016,-111.33200073242188 34.957000732421875,-100.69400024414062 33.77799987792969,-97.8479995727539 C39.047000885009766,-100.17500305175781 72.072998046875,-120.06999969482422 66.13999938964844,-167.0019989013672 C65.69200134277344,-142.72900390625 48.85200119018555,-121.53900146484375 45.61000061035156,-122.66100311279297z"></path></g><g opacity="1" transform="matrix(1,0,0,1,0,0)"><path stroke-linecap="round" stroke-linejoin="round" fill-opacity="0" stroke="rgb(197,92,0)" stroke-opacity="1" stroke-width="8" d=" M-24.82200050354004,-158.5970001220703 C-24.82200050354004,-158.5970001220703 -29.149999618530273,-198.79100036621094 15.508999824523926,-202.7220001220703 C39.48699951171875,-204.83299255371094 57.340999603271484,-189.9550018310547 64.19200134277344,-173.3209991455078 C72.66200256347656,-152.7570037841797 66.34500122070312,-112 33.77799987792969,-97.8479995727539 C34.262001037597656,-106.08300018310547 37.25899887084961,-116.33799743652344 37.25899887084961,-116.33799743652344 C37.25899887084961,-116.33799743652344 31.2450008392334,-107.2300033569336 15.914999961853027,-103.6780014038086 C28.79599952697754,-119.71499633789062 33.08599853515625,-147.68600463867188 16.582000732421875,-157.91400146484375 C6.755000114440918,-164.00399780273438 -12.621000289916992,-160.26699829101562 -24.82200050354004,-158.5970001220703z"></path></g><g opacity="1" transform="matrix(1,0,0,1,0,0)"><path stroke-linecap="round" stroke-linejoin="round" fill-opacity="0" stroke="rgb(163,65,0)" stroke-opacity="1" stroke-width="8" d=" M67.01899719238281,-145.15899658203125 C64.60800170898438,-126.65599822998047 54.51499938964844,-106.85900115966797 33.77799987792969,-97.8479995727539 C34.262001037597656,-106.08300018310547 37.25899887084961,-116.33799743652344 37.25899887084961,-116.33799743652344 C37.25899887084961,-116.33799743652344 31.2450008392334,-107.2300033569336 15.914999961853027,-103.6780014038086 C28.79599952697754,-119.71499633789062 33.08599853515625,-147.68600463867188 16.582000732421875,-157.91400146484375 C6.755000114440918,-164.00399780273438 -12.621000289916992,-160.26699829101562 -24.82200050354004,-158.5970001220703"></path></g></g><g style="display: block;" transform="matrix(1,0,0,1,255.83099365234375,256)" opacity="1"><g opacity="1" transform="matrix(1,0,0,1,0,0)"><g opacity="1" transform="matrix(1,0,0,1,0,0)"><path fill="rgb(255,255,255)" fill-opacity="1" d=" M30.238000869750977,51.527000427246094 C30.238000869750977,51.527000427246094 32.430999755859375,7.081999778747559 68.48699951171875,5.061999797821045 C102.12899780273438,3.177000045776367 119.7239990234375,34.36399841308594 120.22899627685547,43.35200119018555 C120.22899627685547,43.35200119018555 106.20600128173828,68.13700103759766 75.31800079345703,68.45800018310547 C42.599998474121094,68.7979965209961 30.238000869750977,51.527000427246094 30.238000869750977,51.527000427246094z"></path></g><g opacity="1" transform="matrix(1,0,0,1,151,43.9379997253418)"><g opacity="1" transform="matrix(1,0,0,1,0,0)"><path fill="url(#__lottie_element_22)" fill-opacity="1" d=" M-52.59600067138672,-7.182000160217285 C-52.59600067138672,8.140000343322754 -64.71399688720703,20.559999465942383 -79.66100311279297,20.559999465942383 C-94.60900115966797,20.559999465942383 -106.72599792480469,8.140000343322754 -106.72599792480469,-7.182000160217285 C-106.72599792480469,-22.503999710083008 -94.60900115966797,-34.92499923706055 -79.66100311279297,-34.92499923706055 C-64.71399688720703,-34.92499923706055 -52.59600067138672,-22.503999710083008 -52.59600067138672,-7.182000160217285z"></path></g><g opacity="1" transform="matrix(1,0,0,1,0,0)"><g opacity="1" transform="matrix(1,0,0,1,0,0)"><path fill="url(#__lottie_element_23)" fill-opacity="1" d=" M-72.83399963378906,19.295000076293945 C-74.9489974975586,19.295000076293945 -76.90799713134766,17.895000457763672 -77.56400299072266,15.71500015258789 C-78.37000274658203,13.036999702453613 -76.90499877929688,10.196000099182129 -74.29199981689453,9.369999885559082 C-69.29399871826172,7.789999961853027 -65.31500244140625,3.809999942779541 -63.650001525878906,-1.2760000228881836 C-62.779998779296875,-3.934000015258789 -59.96900177001953,-5.361999988555908 -57.38199996948242,-4.4720001220703125 C-54.790000915527344,-3.5810000896453857 -53.39400100708008,-0.703000009059906 -54.263999938964844,1.9539999961853027 C-56.941001892089844,10.130000114440918 -63.33599853515625,16.527000427246094 -71.3740005493164,19.06800079345703 C-71.86000061035156,19.222000122070312 -72.35199737548828,19.295000076293945 -72.83399963378906,19.295000076293945z"></path></g></g><g opacity="1" transform="matrix(1,0,0,1,0,0)"><path fill="rgb(24,19,9)" fill-opacity="1" d=" M-62.555999755859375,-7.182000160217285 C-62.555999755859375,2.500999927520752 -70.21399688720703,10.35099983215332 -79.66100311279297,10.35099983215332 C-89.10800170898438,10.35099983215332 -96.76599884033203,2.500999927520752 -96.76599884033203,-7.182000160217285 C-96.76599884033203,-16.864999771118164 -89.10800170898438,-24.71500015258789 -79.66100311279297,-24.71500015258789 C-70.21399688720703,-24.71500015258789 -62.555999755859375,-16.864999771118164 -62.555999755859375,-7.182000160217285z"></path></g><g opacity="1" transform="matrix(1,0,0,1,0,0)"><path fill="url(#__lottie_element_24)" fill-opacity="1" d=" M-87.6719970703125,-15.805000305175781 C-91.3489990234375,-15.805000305175781 -94.33100128173828,-18.71299934387207 -94.33100128173828,-22.299999237060547 C-94.33100128173828,-25.886999130249023 -91.3499984741211,-28.79599952697754 -87.6729965209961,-28.79599952697754 C-83.99600219726562,-28.79599952697754 -81.01399993896484,-25.886999130249023 -81.01399993896484,-22.299999237060547 C-81.01399993896484,-18.71299934387207 -83.99500274658203,-15.805000305175781 -87.6719970703125,-15.805000305175781z"></path></g></g><g opacity="1" transform="matrix(1,0,0,1,0,0)"><path fill="rgb(163,65,0)" fill-opacity="1" d=" M31.246000289916992,45.28200149536133 C31.246000289916992,45.28200149536133 32.887001037597656,4.395999908447266 72.21099853515625,2.190999984741211 C107.52799987792969,0.210999995470047 118.2509994506836,33.46500015258789 120.22899627685547,43.35200119018555 C120.22899627685547,43.35200119018555 111.3010025024414,3.638000011444092 71.02899932861328,5.383999824523926 C34.6609992980957,6.960999965667725 31.246000289916992,45.28200149536133 31.246000289916992,45.28200149536133z"></path><path stroke-linecap="round" stroke-linejoin="round" fill-opacity="0" stroke="rgb(163,65,0)" stroke-opacity="1" stroke-width="2" d=" M31.246000289916992,45.28200149536133 C31.246000289916992,45.28200149536133 32.887001037597656,4.395999908447266 72.21099853515625,2.190999984741211 C107.52799987792969,0.210999995470047 118.2509994506836,33.46500015258789 120.22899627685547,43.35200119018555 C120.22899627685547,43.35200119018555 111.3010025024414,3.638000011444092 71.02899932861328,5.383999824523926 C34.6609992980957,6.960999965667725 31.246000289916992,45.28200149536133 31.246000289916992,45.28200149536133z"></path></g></g><g opacity="1" transform="matrix(1,0,0,1,0,0)"><g opacity="1" transform="matrix(1,0,0,1,0,0)"><path fill="rgb(255,255,255)" fill-opacity="1" d=" M-29.538000106811523,51.527000427246094 C-29.538000106811523,51.527000427246094 -31.73200035095215,7.081999778747559 -67.78800201416016,5.061999797821045 C-101.43000030517578,3.177000045776367 -119.0250015258789,34.36399841308594 -119.52999877929688,43.35200119018555 C-119.52999877929688,43.35200119018555 -105.50700378417969,68.13700103759766 -74.61900329589844,68.45800018310547 C-41.9010009765625,68.7979965209961 -29.538000106811523,51.527000427246094 -29.538000106811523,51.527000427246094z"></path></g><g opacity="1" transform="matrix(1,0,0,1,8.625,44)"><g opacity="1" transform="matrix(1,0,0,1,0,0)"><path fill="url(#__lottie_element_25)" fill-opacity="1" d=" M-52.59600067138672,-7.182000160217285 C-52.59600067138672,8.140000343322754 -64.71399688720703,20.559999465942383 -79.66100311279297,20.559999465942383 C-94.60900115966797,20.559999465942383 -106.72599792480469,8.140000343322754 -106.72599792480469,-7.182000160217285 C-106.72599792480469,-22.503999710083008 -94.60900115966797,-34.92499923706055 -79.66100311279297,-34.92499923706055 C-64.71399688720703,-34.92499923706055 -52.59600067138672,-22.503999710083008 -52.59600067138672,-7.182000160217285z"></path></g><g opacity="1" transform="matrix(1,0,0,1,0,0)"><g opacity="1" transform="matrix(1,0,0,1,0,0)"><path fill="url(#__lottie_element_26)" fill-opacity="1" d=" M-72.83399963378906,19.295000076293945 C-74.9489974975586,19.295000076293945 -76.90799713134766,17.895000457763672 -77.56400299072266,15.71500015258789 C-78.37000274658203,13.036999702453613 -76.90499877929688,10.196000099182129 -74.29199981689453,9.369999885559082 C-69.29399871826172,7.789999961853027 -65.31500244140625,3.809999942779541 -63.650001525878906,-1.2760000228881836 C-62.779998779296875,-3.934000015258789 -59.96900177001953,-5.361999988555908 -57.38199996948242,-4.4720001220703125 C-54.790000915527344,-3.5810000896453857 -53.39400100708008,-0.703000009059906 -54.263999938964844,1.9539999961853027 C-56.941001892089844,10.130000114440918 -63.33599853515625,16.527000427246094 -71.3740005493164,19.06800079345703 C-71.86000061035156,19.222000122070312 -72.35199737548828,19.295000076293945 -72.83399963378906,19.295000076293945z"></path></g></g><g opacity="1" transform="matrix(1,0,0,1,0,0)"><path fill="rgb(24,19,9)" fill-opacity="1" d=" M-62.555999755859375,-7.182000160217285 C-62.555999755859375,2.500999927520752 -70.21399688720703,10.35099983215332 -79.66100311279297,10.35099983215332 C-89.10800170898438,10.35099983215332 -96.76599884033203,2.500999927520752 -96.76599884033203,-7.182000160217285 C-96.76599884033203,-16.864999771118164 -89.10800170898438,-24.71500015258789 -79.66100311279297,-24.71500015258789 C-70.21399688720703,-24.71500015258789 -62.555999755859375,-16.864999771118164 -62.555999755859375,-7.182000160217285z"></path></g><g opacity="1" transform="matrix(1,0,0,1,0,0)"><path fill="url(#__lottie_element_27)" fill-opacity="1" d=" M-87.6719970703125,-15.805000305175781 C-91.3489990234375,-15.805000305175781 -94.33100128173828,-18.71299934387207 -94.33100128173828,-22.299999237060547 C-94.33100128173828,-25.886999130249023 -91.3499984741211,-28.79599952697754 -87.6729965209961,-28.79599952697754 C-83.99600219726562,-28.79599952697754 -81.01399993896484,-25.886999130249023 -81.01399993896484,-22.299999237060547 C-81.01399993896484,-18.71299934387207 -83.99500274658203,-15.805000305175781 -87.6719970703125,-15.805000305175781z"></path></g></g><g opacity="1" transform="matrix(1,0,0,1,0,0)"><path fill="rgb(163,65,0)" fill-opacity="1" d=" M-30.54599952697754,45.28200149536133 C-30.54599952697754,45.28200149536133 -32.1870002746582,4.395999908447266 -71.51100158691406,2.190999984741211 C-106.8280029296875,0.210999995470047 -117.552001953125,33.46500015258789 -119.52999877929688,43.35200119018555 C-119.52999877929688,43.35200119018555 -110.60199737548828,3.638000011444092 -70.33000183105469,5.383999824523926 C-33.96200180053711,6.960999965667725 -30.54599952697754,45.28200149536133 -30.54599952697754,45.28200149536133z"></path><path stroke-linecap="round" stroke-linejoin="round" fill-opacity="0" stroke="rgb(163,65,0)" stroke-opacity="1" stroke-width="2" d=" M-30.54599952697754,45.28200149536133 C-30.54599952697754,45.28200149536133 -32.1870002746582,4.395999908447266 -71.51100158691406,2.190999984741211 C-106.8280029296875,0.210999995470047 -117.552001953125,33.46500015258789 -119.52999877929688,43.35200119018555 C-119.52999877929688,43.35200119018555 -110.60199737548828,3.638000011444092 -70.33000183105469,5.383999824523926 C-33.96200180053711,6.960999965667725 -30.54599952697754,45.28200149536133 -30.54599952697754,45.28200149536133z"></path></g></g></g><g style="display: block;" transform="matrix(1,0,0,1,255.95599365234375,256)" opacity="1"><g opacity="1" transform="matrix(1,0,0,1,0,0)"><path fill="rgb(163,65,0)" fill-opacity="1" d=" M-93.19300079345703,-12.475000381469727 C-94.38300323486328,-15.565999984741211 -78.56800079345703,-23.308000564575195 -60.82400131225586,-21.26300048828125 C-46.2140007019043,-19.57900047302246 -44.821998596191406,-15.026000022888184 -45.84000015258789,-13.645999908447266 C-46.858001708984375,-12.265999794006348 -55.41600036621094,-17.003999710083008 -72.18699645996094,-16.040000915527344 C-89.3010025024414,-15.055999755859375 -92.61100006103516,-10.961999893188477 -93.19300079345703,-12.475000381469727z"></path><path stroke-linecap="round" stroke-linejoin="round" fill-opacity="0" stroke="rgb(163,65,0)" stroke-opacity="1" stroke-width="2" d=" M-93.19300079345703,-12.475000381469727 C-94.38300323486328,-15.565999984741211 -78.56800079345703,-23.308000564575195 -60.82400131225586,-21.26300048828125 C-46.2140007019043,-19.57900047302246 -44.821998596191406,-15.026000022888184 -45.84000015258789,-13.645999908447266 C-46.858001708984375,-12.265999794006348 -55.41600036621094,-17.003999710083008 -72.18699645996094,-16.040000915527344 C-89.3010025024414,-15.055999755859375 -92.61100006103516,-10.961999893188477 -93.19300079345703,-12.475000381469727z"></path></g><g opacity="1" transform="matrix(1,0,0,1,0,0)"><path fill="rgb(163,65,0)" fill-opacity="1" d=" M93.64299774169922,-12.475000381469727 C94.83300018310547,-15.565999984741211 79.01799774169922,-23.308000564575195 61.27399826049805,-21.26300048828125 C46.66400146484375,-19.57900047302246 45.27199935913086,-15.026000022888184 46.290000915527344,-13.645999908447266 C47.30799865722656,-12.265999794006348 55.86600112915039,-17.003999710083008 72.63700103759766,-16.040000915527344 C89.7509994506836,-15.055999755859375 93.06099700927734,-10.961999893188477 93.64299774169922,-12.475000381469727z"></path><path stroke-linecap="round" stroke-linejoin="round" fill-opacity="0" stroke="rgb(163,65,0)" stroke-opacity="1" stroke-width="2" d=" M93.64299774169922,-12.475000381469727 C94.83300018310547,-15.565999984741211 79.01799774169922,-23.308000564575195 61.27399826049805,-21.26300048828125 C46.66400146484375,-19.57900047302246 45.27199935913086,-15.026000022888184 46.290000915527344,-13.645999908447266 C47.30799865722656,-12.265999794006348 55.86600112915039,-17.003999710083008 72.63700103759766,-16.040000915527344 C89.7509994506836,-15.055999755859375 93.06099700927734,-10.961999893188477 93.64299774169922,-12.475000381469727z"></path></g></g><g style="display: block;" transform="matrix(1,0,0,1,256.45098876953125,256)" opacity="1"><g opacity="1" transform="matrix(1,0,0,1,0,0)"><path fill="url(#__lottie_element_13)" fill-opacity="1" d=" M49.891998291015625,116.16799926757812 C47.61199951171875,114.34600067138672 41.99599838256836,114.72100067138672 -0.14399999380111694,114.72100067138672 C-41.268001556396484,114.72100067138672 -47.52000045776367,114.38600158691406 -50.180999755859375,116.16799926757812 C-54.729000091552734,119.21299743652344 -53.275001525878906,147.1179962158203 -0.15399999916553497,147.1179962158203 C52.1150016784668,147.1179962158203 54.016998291015625,119.46299743652344 49.891998291015625,116.16799926757812z"></path></g><g opacity="1" transform="matrix(1,0,0,1,0,0)"><path fill="url(#__lottie_element_14)" fill-opacity="0.7000000000000001" d=" M50.566001892089844,125.64299774169922 C49.393001556396484,118.16500091552734 41.99599838256836,120.62699890136719 -0.14399999380111694,120.62699890136719 C-41.268001556396484,120.62699890136719 -48.9739990234375,117.69599914550781 -50.85499954223633,125.64299774169922 C-51.606998443603516,128.82200622558594 -34.845001220703125,154.04299926757812 -0.15399999916553497,154.04299926757812 C33.948001861572266,154.04299926757812 51.09199905395508,128.9969940185547 50.566001892089844,125.64299774169922z"></path></g><g opacity="1" transform="matrix(1,0,0,1,0,0)"><path fill="rgb(136,24,4)" fill-opacity="1" d=" M49.26599884033203,122.2490005493164 C47.319000244140625,118.96299743652344 41.99599838256836,119.49600219726562 -0.14399999380111694,119.49600219726562 C-41.268001556396484,119.49600219726562 -47.37300109863281,119.0770034790039 -49.55500030517578,122.2490005493164 C-51.470001220703125,125.03299713134766 -34.845001220703125,147.1179962158203 -0.15399999916553497,147.1179962158203 C33.948001861572266,147.1179962158203 51.04899978637695,125.25700378417969 49.26599884033203,122.2490005493164z"></path></g><g opacity="1" transform="matrix(1,0,0,1,0,0)"><path fill="url(#__lottie_element_15)" fill-opacity="1" d=" M49.26599884033203,121 C47.983001708984375,118.98500061035156 41.99599838256836,119.49600219726562 -0.14399999380111694,119.49600219726562 C-41.268001556396484,119.49600219726562 -47.124000549316406,117.74400329589844 -49.55500030517578,120.72899627685547 C-53.03300094604492,125 -34.845001220703125,147.1179962158203 -0.15399999916553497,147.1179962158203 C33.948001861572266,147.1179962158203 52.08700180053711,125.42900085449219 49.26599884033203,121z"></path></g></g><g style="display: block;" transform="matrix(0.6899999976158142,0,0,0.6899999976158142,259.77313232421875,297.1242370605469)" opacity="1"><g opacity="1" transform="matrix(1,0,0,1,0,0)"><path fill="url(#__lottie_element_6)" fill-opacity="0.7000000000000001" d=" M21.486000061035156,77.85600280761719 C21.486000061035156,88.90499877929688 8.708000183105469,98.72799682617188 -5.205999851226807,98.72799682617188 C-19.1200008392334,98.72799682617188 -31.89900016784668,88.90499877929688 -31.89900016784668,77.85600280761719 C-31.89900016784668,66.80799865722656 -19.1200008392334,56.678001403808594 -5.205999851226807,56.678001403808594 C8.708000183105469,56.678001403808594 21.486000061035156,66.80799865722656 21.486000061035156,77.85600280761719z"></path></g><g opacity="1" transform="matrix(1,0,0,1,0,0)"><path fill="rgb(255,168,0)" fill-opacity="0.8" d=" M21.486000061035156,65.87899780273438 C21.486000061035156,76.927001953125 9.53600025177002,85.10600280761719 -5.205999851226807,85.10600280761719 C-19.947999954223633,85.10600280761719 -31.89900016784668,76.927001953125 -31.89900016784668,65.87899780273438 C-31.89900016784668,54.83100128173828 -19.947999954223633,46.34600067138672 -5.205999851226807,46.34600067138672 C9.53600025177002,46.34600067138672 21.486000061035156,54.83100128173828 21.486000061035156,65.87899780273438z"></path></g><g opacity="1" transform="matrix(1,0,0,1,0,0)"><path fill="url(#__lottie_element_7)" fill-opacity="0.7000000000000001" d=" M21.486000061035156,65.87899780273438 C21.486000061035156,76.927001953125 9.53600025177002,85.10600280761719 -5.205999851226807,85.10600280761719 C-19.947999954223633,85.10600280761719 -31.89900016784668,76.927001953125 -31.89900016784668,65.87899780273438 C-31.89900016784668,54.83100128173828 -19.947999954223633,46.34600067138672 -5.205999851226807,46.34600067138672 C9.53600025177002,46.34600067138672 21.486000061035156,54.83100128173828 21.486000061035156,65.87899780273438z"></path></g><g opacity="1" transform="matrix(1,0,0,1,0,0)"><path fill="rgb(255,216,0)" fill-opacity="1" d=" M18.868000030517578,60.762001037597656 C18.868000030517578,68.98699951171875 10.666999816894531,76.85099792480469 -5.205999851226807,76.85099792480469 C-21.295000076293945,76.85099792480469 -29.280000686645508,68.98699951171875 -29.280000686645508,60.762001037597656 C-29.280000686645508,52.5369987487793 -17.958999633789062,46.02299880981445 -5.205999851226807,46.02299880981445 C7.546999931335449,46.02299880981445 18.868000030517578,52.5369987487793 18.868000030517578,60.762001037597656z"></path></g><g opacity="1" transform="matrix(1,0,0,1,0,0)"><path fill="url(#__lottie_element_8)" fill-opacity="1" d=" M18.868000030517578,60.762001037597656 C18.868000030517578,68.98699951171875 10.666999816894531,76.85099792480469 -5.205999851226807,76.85099792480469 C-21.295000076293945,76.85099792480469 -29.280000686645508,68.98699951171875 -29.280000686645508,60.762001037597656 C-29.280000686645508,52.5369987487793 -17.958999633789062,46.02299880981445 -5.205999851226807,46.02299880981445 C7.546999931335449,46.02299880981445 18.868000030517578,52.5369987487793 18.868000030517578,60.762001037597656z"></path></g><g opacity="1" transform="matrix(1,0,0,1,0,0)"><path fill="url(#__lottie_element_9)" fill-opacity="0.7000000000000001" d=" M8.605999946594238,54.4010009765625 C8.605999946594238,58.73099899291992 2.421999931335449,62.803001403808594 -5.205999851226807,62.803001403808594 C-12.833999633789062,62.803001403808594 -19.018999099731445,58.73099899291992 -19.018999099731445,54.4010009765625 C-19.018999099731445,50.07099914550781 -12.833999633789062,47.89899826049805 -5.205999851226807,47.89899826049805 C2.421999931335449,47.89899826049805 8.605999946594238,50.07099914550781 8.605999946594238,54.4010009765625z"></path></g></g></g></svg>