<svg xmlns="http://www.w3.org/2000/svg" xmlns:xlink="http://www.w3.org/1999/xlink" viewBox="0 0 512 512" width="512" height="512" style="width: 100%; height: 100%; transform: translate3d(0,0,0); content-visibility: visible;" preserveAspectRatio="xMidYMid meet"><defs><clipPath id="__lottie_element_2"><rect width="512" height="512" x="0" y="0"></rect></clipPath><radialGradient id="__lottie_element_6" spreadMethod="pad" gradientUnits="userSpaceOnUse" cx="-2.6760001182556152" cy="130.71099853515625" r="42.440736384479386" fx="-2.6760001182556152" fy="130.71099853515625"><stop offset="8%" stop-color="rgb(117,55,14)" stop-opacity="1"></stop><stop offset="54%" stop-color="rgb(117,55,14)" stop-opacity="0.5"></stop><stop offset="100%" stop-color="rgb(117,55,14)" stop-opacity="0"></stop></radialGradient><linearGradient id="__lottie_element_10" spreadMethod="pad" gradientUnits="userSpaceOnUse" x1="-3.1760001182556152" y1="85.71099853515625" x2="-2.3010001182556152" y2="116.6709976196289"><stop offset="0%" stop-color="rgb(255,168,0)" stop-opacity="1"></stop><stop offset="65%" stop-color="rgb(255,168,0)" stop-opacity="0.5"></stop><stop offset="100%" stop-color="rgb(255,168,0)" stop-opacity="0"></stop></linearGradient><linearGradient id="__lottie_element_11" spreadMethod="pad" gradientUnits="userSpaceOnUse" x1="-2.0510001182556152" y1="103.96099853515625" x2="-2.9260001182556152" y2="80.63999938964844"><stop offset="10%" stop-color="rgb(219,110,0)" stop-opacity="1"></stop><stop offset="49%" stop-color="rgb(219,110,0)" stop-opacity="0.5"></stop><stop offset="78%" stop-color="rgb(219,110,0)" stop-opacity="0"></stop></linearGradient><radialGradient id="__lottie_element_12" spreadMethod="pad" gradientUnits="userSpaceOnUse" cx="-3.9260001182556152" cy="73.96099853515625" r="22.90700101852417" fx="-3.9260001182556152" fy="73.96099853515625"><stop offset="40%" stop-color="rgb(255,168,0)" stop-opacity="0"></stop><stop offset="70%" stop-color="rgb(255,168,0)" stop-opacity="0.5"></stop><stop offset="100%" stop-color="rgb(255,168,0)" stop-opacity="1"></stop></radialGradient><linearGradient id="__lottie_element_13" spreadMethod="pad" gradientUnits="userSpaceOnUse" x1="-2.9260001182556152" y1="71.96099853515625" x2="-2.9260001182556152" y2="82.61699676513672"><stop offset="0%" stop-color="rgb(255,255,254)" stop-opacity="1"></stop><stop offset="50%" stop-color="rgb(255,255,254)" stop-opacity="0.5"></stop><stop offset="100%" stop-color="rgb(255,255,254)" stop-opacity="0"></stop></linearGradient><linearGradient id="__lottie_element_17" spreadMethod="pad" gradientUnits="userSpaceOnUse" x1="-80.73799896240234" y1="10.89900016784668" x2="-61.7130012512207" y2="39.979000091552734"><stop offset="0%" stop-color="rgb(66,0,0)"></stop><stop offset="37%" stop-color="rgb(118,40,0)"></stop><stop offset="100%" stop-color="rgb(170,80,0)"></stop></linearGradient><radialGradient id="__lottie_element_18" spreadMethod="pad" gradientUnits="userSpaceOnUse" cx="-63.92599868774414" cy="33.96099853515625" r="12.805999755859375" fx="-63.92599868774414" fy="33.96099853515625"><stop offset="0%" stop-color="rgb(246,175,0)" stop-opacity="1"></stop><stop offset="50%" stop-color="rgb(246,175,0)" stop-opacity="0.5"></stop><stop offset="100%" stop-color="rgb(246,175,0)" stop-opacity="0"></stop></radialGradient><linearGradient id="__lottie_element_19" spreadMethod="pad" gradientUnits="userSpaceOnUse" x1="-82.9260025024414" y1="0.9610000252723694" x2="-82.9260025024414" y2="11.782999992370605"><stop offset="0%" stop-color="rgb(255,255,255)" stop-opacity="1"></stop><stop offset="60%" stop-color="rgb(255,255,255)" stop-opacity="0.5"></stop><stop offset="100%" stop-color="rgb(255,255,255)" stop-opacity="0"></stop></linearGradient><linearGradient id="__lottie_element_20" spreadMethod="pad" gradientUnits="userSpaceOnUse" x1="-80.73799896240234" y1="10.89900016784668" x2="-61.7130012512207" y2="39.979000091552734"><stop offset="0%" stop-color="rgb(66,0,0)"></stop><stop offset="37%" stop-color="rgb(118,40,0)"></stop><stop offset="100%" stop-color="rgb(170,80,0)"></stop></linearGradient><radialGradient id="__lottie_element_21" spreadMethod="pad" gradientUnits="userSpaceOnUse" cx="-63.92599868774414" cy="33.96099853515625" r="12.805999755859375" fx="-63.92599868774414" fy="33.96099853515625"><stop offset="0%" stop-color="rgb(246,175,0)" stop-opacity="1"></stop><stop offset="50%" stop-color="rgb(246,175,0)" stop-opacity="0.5"></stop><stop offset="100%" stop-color="rgb(246,175,0)" stop-opacity="0"></stop></radialGradient><linearGradient id="__lottie_element_22" spreadMethod="pad" gradientUnits="userSpaceOnUse" x1="-82.9260025024414" y1="0.9610000252723694" x2="-82.9260025024414" y2="11.782999992370605"><stop offset="0%" stop-color="rgb(255,255,255)" stop-opacity="1"></stop><stop offset="60%" stop-color="rgb(255,255,255)" stop-opacity="0.5"></stop><stop offset="100%" stop-color="rgb(255,255,255)" stop-opacity="0"></stop></linearGradient><linearGradient id="__lottie_element_29" spreadMethod="pad" gradientUnits="userSpaceOnUse" x1="-135.80099487304688" y1="-195.31399536132812" x2="-78.72599792480469" y2="-125.70999908447266"><stop offset="10%" stop-color="rgb(169,140,72)" stop-opacity="0"></stop><stop offset="46%" stop-color="rgb(169,140,72)" stop-opacity="0.5"></stop><stop offset="100%" stop-color="rgb(169,140,72)" stop-opacity="1"></stop></linearGradient><radialGradient id="__lottie_element_30" spreadMethod="pad" gradientUnits="userSpaceOnUse" cx="-82.5510025024414" cy="-110.06400299072266" r="111.68040904570954" fx="-82.5510025024414" fy="-110.06400299072266"><stop offset="15%" stop-color="rgb(114,81,41)" stop-opacity="1"></stop><stop offset="49%" stop-color="rgb(114,81,41)" stop-opacity="0.5"></stop><stop offset="100%" stop-color="rgb(114,81,41)" stop-opacity="0"></stop></radialGradient><linearGradient id="__lottie_element_31" spreadMethod="pad" gradientUnits="userSpaceOnUse" x1="-18.801000595092773" y1="-220.31399536132812" x2="-26.357999801635742" y2="-200.84100341796875"><stop offset="0%" stop-color="rgb(255,246,172)" stop-opacity="1"></stop><stop offset="50%" stop-color="rgb(255,246,172)" stop-opacity="0.5"></stop><stop offset="100%" stop-color="rgb(255,246,172)" stop-opacity="0"></stop></linearGradient><linearGradient id="__lottie_element_32" spreadMethod="pad" gradientUnits="userSpaceOnUse" x1="14.199000358581543" y1="-90.31400299072266" x2="14.199000358581543" y2="66.76000213623047"><stop offset="30%" stop-color="rgb(193,157,76)" stop-opacity="0"></stop><stop offset="55%" stop-color="rgb(193,157,76)" stop-opacity="0.5"></stop><stop offset="100%" stop-color="rgb(193,157,76)" stop-opacity="1"></stop></linearGradient><linearGradient id="__lottie_element_33" spreadMethod="pad" gradientUnits="userSpaceOnUse" x1="54.19900131225586" y1="-137.31399536132812" x2="46.58300018310547" y2="-56.07899856567383"><stop offset="10%" stop-color="rgb(255,246,172)" stop-opacity="1"></stop><stop offset="55%" stop-color="rgb(255,246,172)" stop-opacity="0.5"></stop><stop offset="100%" stop-color="rgb(255,246,172)" stop-opacity="0"></stop></linearGradient><linearGradient id="__lottie_element_34" spreadMethod="pad" gradientUnits="userSpaceOnUse" x1="14.199000358581543" y1="-149.31399536132812" x2="5.598999977111816" y2="144.96200561523438"><stop offset="8%" stop-color="rgb(169,140,72)" stop-opacity="0"></stop><stop offset="22%" stop-color="rgb(169,140,72)" stop-opacity="0.5"></stop><stop offset="50%" stop-color="rgb(169,140,72)" stop-opacity="1"></stop><stop offset="94%" stop-color="rgb(169,140,72)" stop-opacity="0.6499999761581421"></stop><stop offset="100%" stop-color="rgb(169,140,72)" stop-opacity="0.30000001192092896"></stop></linearGradient><linearGradient id="__lottie_element_35" spreadMethod="pad" gradientUnits="userSpaceOnUse" x1="-102.8010025024414" y1="-119.31400299072266" x2="-111.5270004272461" y2="-26.23900032043457"><stop offset="0%" stop-color="rgb(255,246,172)" stop-opacity="1"></stop><stop offset="50%" stop-color="rgb(255,246,172)" stop-opacity="0.5"></stop><stop offset="100%" stop-color="rgb(255,246,172)" stop-opacity="0"></stop></linearGradient><linearGradient id="__lottie_element_36" spreadMethod="pad" gradientUnits="userSpaceOnUse" x1="-142.80099487304688" y1="-201.31399536132812" x2="-102.73699951171875" y2="-152.5399932861328"><stop offset="0%" stop-color="rgb(255,246,172)" stop-opacity="1"></stop><stop offset="50%" stop-color="rgb(255,246,172)" stop-opacity="0.5"></stop><stop offset="100%" stop-color="rgb(255,246,172)" stop-opacity="0"></stop></linearGradient><linearGradient id="__lottie_element_43" spreadMethod="pad" gradientUnits="userSpaceOnUse" x1="-13.800999641418457" y1="-108.31400299072266" x2="11.62399959564209" y2="21.993999481201172"><stop offset="0%" stop-color="rgb(219,110,0)" stop-opacity="1"></stop><stop offset="38%" stop-color="rgb(219,110,0)" stop-opacity="0.5"></stop><stop offset="71%" stop-color="rgb(219,110,0)" stop-opacity="0"></stop></linearGradient><linearGradient id="__lottie_element_44" spreadMethod="pad" gradientUnits="userSpaceOnUse" x1="12.199000358581543" y1="-53.31399917602539" x2="12.199000358581543" y2="182.68800354003906"><stop offset="6%" stop-color="rgb(255,216,0)" stop-opacity="0"></stop><stop offset="19%" stop-color="rgb(255,216,0)" stop-opacity="0.5"></stop><stop offset="50%" stop-color="rgb(255,216,0)" stop-opacity="1"></stop><stop offset="88%" stop-color="rgb(255,216,0)" stop-opacity="0.5"></stop><stop offset="100%" stop-color="rgb(255,216,0)" stop-opacity="0"></stop></linearGradient><linearGradient id="__lottie_element_48" spreadMethod="pad" gradientUnits="userSpaceOnUse" x1="-199.80099487304688" y1="164.68600463867188" x2="-114.35800170898438" y2="121.96399688720703"><stop offset="0%" stop-color="rgb(169,140,72)" stop-opacity="0"></stop><stop offset="32%" stop-color="rgb(169,140,72)" stop-opacity="0.5"></stop><stop offset="95%" stop-color="rgb(169,140,72)" stop-opacity="1"></stop></linearGradient><linearGradient id="__lottie_element_49" spreadMethod="pad" gradientUnits="userSpaceOnUse" x1="-190.80099487304688" y1="157.68600463867188" x2="-153.76699829101562" y2="127.07599639892578"><stop offset="0%" stop-color="rgb(255,246,172)" stop-opacity="1"></stop><stop offset="50%" stop-color="rgb(255,246,172)" stop-opacity="0.5"></stop><stop offset="100%" stop-color="rgb(255,246,172)" stop-opacity="0"></stop></linearGradient><linearGradient id="__lottie_element_50" spreadMethod="pad" gradientUnits="userSpaceOnUse" x1="-179.80099487304688" y1="204.68600463867188" x2="-110.78800201416016" y2="147.6439971923828"><stop offset="0%" stop-color="rgb(255,246,172)" stop-opacity="1"></stop><stop offset="50%" stop-color="rgb(255,246,172)" stop-opacity="0.5"></stop><stop offset="100%" stop-color="rgb(255,246,172)" stop-opacity="0"></stop></linearGradient><linearGradient id="__lottie_element_51" spreadMethod="pad" gradientUnits="userSpaceOnUse" x1="-104.8010025024414" y1="133.68600463867188" x2="-126.34200286865234" y2="153.95899963378906"><stop offset="0%" stop-color="rgb(114,81,41)" stop-opacity="1"></stop><stop offset="41%" stop-color="rgb(114,81,41)" stop-opacity="0.5"></stop><stop offset="100%" stop-color="rgb(114,81,41)" stop-opacity="0"></stop></linearGradient></defs><g clip-path="url(#__lottie_element_2)"><g style="display: block;" transform="matrix(1,0,0,1,256,256)" opacity="1"><g opacity="1" transform="matrix(1,0,0,1,0,0)"><path fill="rgb(221,195,114)" fill-opacity="1" d=" M-138.2010040283203,43.608001708984375 C-138.2010040283203,43.608001708984375 -132.71200561523438,136.40699768066406 -197.55999755859375,138.08399963378906 C-197.55999755859375,138.08399963378906 -190.8699951171875,149.9250030517578 -174.85400390625,150.87399291992188 C-174.85400390625,150.87399291992188 -180.5260009765625,162.83299255371094 -205.55099487304688,169.17300415039062 C-205.55099487304688,169.17300415039062 -166.23399353027344,203.7760009765625 -107.08899688720703,189.45399475097656 C-107.08899688720703,189.45399475097656 -108.91200256347656,195.76699829101562 -114.1510009765625,199.0760040283203 C-114.1510009765625,199.0760040283203 -68.81800079345703,203.04600524902344 -54.70399856567383,174.22999572753906 C-40.59000015258789,145.4149932861328 -138.2010040283203,43.608001708984375 -138.2010040283203,43.608001708984375z"></path></g><g opacity="1" transform="matrix(1,0,0,1,0,0)"><path fill="url(#__lottie_element_48)" fill-opacity="1" d=" M-138.2010040283203,43.608001708984375 C-138.2010040283203,43.608001708984375 -132.71200561523438,136.40699768066406 -197.55999755859375,138.08399963378906 C-197.55999755859375,138.08399963378906 -190.8699951171875,149.9250030517578 -174.85400390625,150.87399291992188 C-174.85400390625,150.87399291992188 -180.5260009765625,162.83299255371094 -205.55099487304688,169.17300415039062 C-205.55099487304688,169.17300415039062 -166.23399353027344,203.7760009765625 -107.08899688720703,189.45399475097656 C-107.08899688720703,189.45399475097656 -108.91200256347656,195.76699829101562 -114.1510009765625,199.0760040283203 C-114.1510009765625,199.0760040283203 -68.81800079345703,203.04600524902344 -54.70399856567383,174.22999572753906 C-40.59000015258789,145.4149932861328 -138.2010040283203,43.608001708984375 -138.2010040283203,43.608001708984375z"></path></g><g opacity="1" transform="matrix(1,0,0,1,0,0)"><path fill="url(#__lottie_element_49)" fill-opacity="0.8" d=" M-191.12100219726562,144.98899841308594 C-199.0760040283203,144.69400024414062 -169.72500610351562,168.33799743652344 -146.52099609375,130.4250030517578 C-129.42100524902344,102.48500061035156 -141.14700317382812,91.54499816894531 -143.6909942626953,109.947998046875 C-146.52099609375,130.4250030517578 -162.6439971923828,146.0449981689453 -191.12100219726562,144.98899841308594z"></path></g><g opacity="1" transform="matrix(1,0,0,1,0,0)"><path fill="url(#__lottie_element_50)" fill-opacity="0.8" d=" M-129.42999267578125,119.71600341796875 C-139.56500244140625,147.9459991455078 -164.92799377441406,167.39300537109375 -189.68899536132812,174.10899353027344 C-190.43299865722656,174.31100463867188 -190.28599548339844,175.37399291992188 -189.63600158691406,175.78900146484375 C-180.83200073242188,181.41200256347656 -131.48199462890625,202.06399536132812 -88.90899658203125,178.69200134277344 C-41.27899932861328,152.54400634765625 -110.14700317382812,66.00800323486328 -129.42999267578125,119.71600341796875z"></path></g><g opacity="1" transform="matrix(1,0,0,1,0,0)"><path fill="url(#__lottie_element_51)" fill-opacity="1" d=" M-174.8719940185547,132.8300018310547 C-141.38999938964844,135.47300720214844 -108.31999969482422,177.80299377441406 -114.1510009765625,199.0760040283203 C-114.1510009765625,199.0760040283203 -57.542999267578125,201.4739990234375 -49.81399917602539,167.39300537109375 C-42.084999084472656,133.31199645996094 -137.4040069580078,71.83499908447266 -137.4040069580078,71.83499908447266 C-137.4040069580078,71.83499908447266 -142.41099548339844,100.125 -153.53199768066406,113.12200164794922 C-164.6529998779297,126.11900329589844 -174.8719940185547,132.8300018310547 -174.8719940185547,132.8300018310547z"></path></g><g opacity="1" transform="matrix(1,0,0,1,0,0)"><path stroke-linecap="round" stroke-linejoin="round" fill-opacity="0" stroke="rgb(147,111,53)" stroke-opacity="1" stroke-width="8" d=" M-138.2010040283203,43.608001708984375 C-138.2010040283203,43.608001708984375 -132.71200561523438,136.40699768066406 -197.55999755859375,138.08399963378906 C-197.55999755859375,138.08399963378906 -190.8699951171875,149.9250030517578 -174.85400390625,150.87399291992188 C-174.85400390625,150.87399291992188 -180.5260009765625,162.83299255371094 -205.55099487304688,169.17300415039062 C-205.55099487304688,169.17300415039062 -166.23399353027344,203.7760009765625 -107.08899688720703,189.45399475097656 C-107.08899688720703,189.45399475097656 -108.91200256347656,195.76699829101562 -114.1510009765625,199.0760040283203 C-114.1510009765625,199.0760040283203 -68.81800079345703,203.04600524902344 -54.70399856567383,174.22999572753906 C-40.59000015258789,145.4149932861328 -138.2010040283203,43.608001708984375 -138.2010040283203,43.608001708984375z"></path></g><g opacity="1" transform="matrix(1,0,0,1,0,0)"><path stroke-linecap="round" stroke-linejoin="round" fill-opacity="0" stroke="rgb(114,81,41)" stroke-opacity="1" stroke-width="8" d=" M-107.08899688720703,189.45399475097656 C-107.08899688720703,189.45399475097656 -108.91200256347656,195.76699829101562 -114.1510009765625,199.0760040283203 C-114.1510009765625,199.0760040283203 -68.81800079345703,203.04600524902344 -54.70399856567383,174.22999572753906 C-40.59000015258789,145.4149932861328 -138.2010040283203,43.608001708984375 -138.2010040283203,43.608001708984375 C-138.2010040283203,43.608001708984375 -132.71200561523438,136.40699768066406 -197.55999755859375,138.08399963378906"></path></g></g><g style="display: block;" transform="matrix(1,0,0,1,256,256)" opacity="1"><g opacity="1" transform="matrix(1,0,0,1,0,0)"><path fill="rgb(255,168,0)" fill-opacity="1" d=" M156.47900390625,38.51599884033203 C155.968994140625,63.26599884033203 151.5989990234375,88.59600067138672 141.68899536132812,111.83599853515625 C140.7689971923828,114.01599884033203 139.78900146484375,116.18599700927734 138.75900268554688,118.32599639892578 C104.76899719238281,189.1959991455078 47.3489990234375,211.61599731445312 13.168999671936035,211.61599731445312 C-21.01099967956543,211.61599731445312 -78.44100189208984,189.1959991455078 -112.43099975585938,118.32599639892578 C-113.46099853515625,116.18599700927734 -114.43099975585938,114.0260009765625 -115.36100006103516,111.84600067138672 C-125.27100372314453,88.59600067138672 -129.64100646972656,63.26599884033203 -130.1510009765625,38.51599884033203 C-131.17100524902344,-11.223999977111816 -116.5510025024414,-58.61399841308594 -99.69100189208984,-82.03399658203125 C-75.57099914550781,-115.52400207519531 -36.45100021362305,-138.45399475097656 13.168999671936035,-138.45399475097656 C62.77899932861328,-138.45399475097656 101.89900207519531,-115.52400207519531 126.01899719238281,-82.03399658203125 C142.87899780273438,-58.61399841308594 157.49899291992188,-11.223999977111816 156.47900390625,38.51599884033203z"></path></g><g opacity="1" transform="matrix(1,0,0,1,0,0)"><path fill="url(#__lottie_element_43)" fill-opacity="1" d=" M156.47900390625,38.51599884033203 C155.968994140625,63.26599884033203 151.5989990234375,88.59600067138672 141.68899536132812,111.83599853515625 C140.7689971923828,114.01599884033203 139.78900146484375,116.18599700927734 138.75900268554688,118.32599639892578 C104.76899719238281,189.1959991455078 47.3489990234375,211.61599731445312 13.168999671936035,211.61599731445312 C-21.01099967956543,211.61599731445312 -78.44100189208984,189.1959991455078 -112.43099975585938,118.32599639892578 C-113.46099853515625,116.18599700927734 -114.43099975585938,114.0260009765625 -115.36100006103516,111.84600067138672 C-125.27100372314453,88.59600067138672 -129.64100646972656,63.26599884033203 -130.1510009765625,38.51599884033203 C-131.17100524902344,-11.223999977111816 -116.5510025024414,-58.61399841308594 -99.69100189208984,-82.03399658203125 C-75.57099914550781,-115.52400207519531 -36.45100021362305,-138.45399475097656 13.168999671936035,-138.45399475097656 C62.77899932861328,-138.45399475097656 101.89900207519531,-115.52400207519531 126.01899719238281,-82.03399658203125 C142.87899780273438,-58.61399841308594 157.49899291992188,-11.223999977111816 156.47900390625,38.51599884033203z"></path></g><g opacity="1" transform="matrix(1,0,0,1,0,0)"><path fill="url(#__lottie_element_44)" fill-opacity="1" d=" M1.2319999933242798,-9.633000373840332 C-31.538999557495117,-27.856000900268555 -47.310001373291016,-47.946998596191406 -47.310001373291016,-47.946998596191406 C-71.70999908447266,15.37399959564209 -115.71299743652344,34.12699890136719 -115.677001953125,40.18600082397461 C-115.54100036621094,62.974998474121094 -109.9209976196289,86.00399780273438 -99.86100006103516,106.68499755859375 C-69.27300262451172,169.56399536132812 -17.594999313354492,189.45399475097656 13.164999961853027,189.45399475097656 C43.92499923706055,189.45399475097656 95.60099792480469,169.56399536132812 126.19000244140625,106.68499755859375 C133.05099487304688,92.58200073242188 137.4409942626953,77.3759994506836 139.85899353027344,61.90999984741211 C139.85899353027344,61.90999984741211 131.12899780273438,40.172000885009766 82.1510009765625,22.79800033569336 C42.15399932861328,8.609999656677246 15.383000373840332,-1.7640000581741333 1.2319999933242798,-9.633000373840332z"></path></g><g opacity="1" transform="matrix(1,0,0,1,0,0)"><path stroke-linecap="round" stroke-linejoin="round" fill-opacity="0" stroke="rgb(219,110,0)" stroke-opacity="1" stroke-width="8" d=" M156.47900390625,38.51599884033203 C155.968994140625,63.26599884033203 151.5989990234375,88.59600067138672 141.68899536132812,111.83599853515625 C140.7689971923828,114.01599884033203 139.78900146484375,116.18599700927734 138.75900268554688,118.32599639892578 C104.76899719238281,189.1959991455078 47.3489990234375,211.61599731445312 13.168999671936035,211.61599731445312 C-21.01099967956543,211.61599731445312 -78.44100189208984,189.1959991455078 -112.43099975585938,118.32599639892578 C-113.46099853515625,116.18599700927734 -114.43099975585938,114.0260009765625 -115.36100006103516,111.84600067138672 C-125.27100372314453,88.59600067138672 -129.64100646972656,63.26599884033203 -130.1510009765625,38.51599884033203 C-131.17100524902344,-11.223999977111816 -116.5510025024414,-58.61399841308594 -99.69100189208984,-82.03399658203125 C-75.57099914550781,-115.52400207519531 -36.45100021362305,-138.45399475097656 13.168999671936035,-138.45399475097656 C62.77899932861328,-138.45399475097656 101.89900207519531,-115.52400207519531 126.01899719238281,-82.03399658203125 C142.87899780273438,-58.61399841308594 157.49899291992188,-11.223999977111816 156.47900390625,38.51599884033203z"></path></g></g><g style="display: block;" transform="matrix(1,0,0,1,256,256)" opacity="1"><g opacity="1" transform="matrix(1,0,0,1,0,0)"><path fill="rgb(163,65,0)" fill-opacity="1" d=" M-92.53900146484375,4.776000022888184 C-92.53900146484375,4.776000022888184 -77.75199890136719,-5.366000175476074 -60.20199966430664,-4.817999839782715 C-43.3849983215332,-4.293000221252441 -36.435001373291016,2.065000057220459 -36.435001373291016,2.065000057220459 C-36.435001373291016,2.065000057220459 -42.0369987487793,-10.145000457763672 -60.20199966430664,-9.616000175476074 C-80.21299743652344,-9.032999992370605 -92.53900146484375,4.776000022888184 -92.53900146484375,4.776000022888184z"></path><path stroke-linecap="round" stroke-linejoin="round" fill-opacity="0" stroke="rgb(163,65,0)" stroke-opacity="1" stroke-width="2" d=" M-92.53900146484375,4.776000022888184 C-92.53900146484375,4.776000022888184 -77.75199890136719,-5.366000175476074 -60.20199966430664,-4.817999839782715 C-43.3849983215332,-4.293000221252441 -36.435001373291016,2.065000057220459 -36.435001373291016,2.065000057220459 C-36.435001373291016,2.065000057220459 -42.0369987487793,-10.145000457763672 -60.20199966430664,-9.616000175476074 C-80.21299743652344,-9.032999992370605 -92.53900146484375,4.776000022888184 -92.53900146484375,4.776000022888184z"></path></g><g opacity="1" transform="matrix(1,0,0,1,0,0)"><path fill="rgb(163,65,0)" fill-opacity="1" d=" M118.75700378417969,4.776000022888184 C118.75700378417969,4.776000022888184 103.97000122070312,-5.366000175476074 86.41999816894531,-4.817999839782715 C69.60299682617188,-4.293000221252441 62.65399932861328,2.065000057220459 62.65399932861328,2.065000057220459 C62.65399932861328,2.065000057220459 68.25499725341797,-10.145000457763672 86.41999816894531,-9.616000175476074 C106.43099975585938,-9.032999992370605 118.75700378417969,4.776000022888184 118.75700378417969,4.776000022888184z"></path><path stroke-linecap="round" stroke-linejoin="round" fill-opacity="0" stroke="rgb(163,65,0)" stroke-opacity="1" stroke-width="2" d=" M118.75700378417969,4.776000022888184 C118.75700378417969,4.776000022888184 103.97000122070312,-5.366000175476074 86.41999816894531,-4.817999839782715 C69.60299682617188,-4.293000221252441 62.65399932861328,2.065000057220459 62.65399932861328,2.065000057220459 C62.65399932861328,2.065000057220459 68.25499725341797,-10.145000457763672 86.41999816894531,-9.616000175476074 C106.43099975585938,-9.032999992370605 118.75700378417969,4.776000022888184 118.75700378417969,4.776000022888184z"></path></g></g><g style="display: block;" transform="matrix(1,0,0,1,256,256)" opacity="1"><g opacity="1" transform="matrix(1,0,0,1,0,0)"><path fill="rgb(221,195,114)" fill-opacity="1" d=" M-10.097999572753906,-182.28199768066406 C-10.097999572753906,-182.28199768066406 -5.7870001792907715,-200.8000030517578 -19.45400047302246,-213.86500549316406 C-32.025001525878906,-225.88299560546875 -45.80099868774414,-224.8699951171875 -45.80099868774414,-224.8699951171875 C-45.80099868774414,-224.8699951171875 -36.14899826049805,-216.23699951171875 -34.4630012512207,-207.19500732421875 C-34.4630012512207,-207.19500732421875 -72.58100128173828,-236.7949981689453 -129.656005859375,-210.64199829101562 C-186.7310028076172,-184.48899841308594 -188.5989990234375,-131.1179962158203 -188.5989990234375,-131.1179962158203 C-188.5989990234375,-131.1179962158203 -180.8280029296875,-140.1719970703125 -172.68600463867188,-147.20399475097656 C-172.68600463867188,-147.20399475097656 -192.8560028076172,-91.1760025024414 -152.30499267578125,-52.3650016784668 C-117.802001953125,-19.341999053955078 -10.097999572753906,-182.28199768066406 -10.097999572753906,-182.28199768066406z"></path></g><g opacity="1" transform="matrix(1,0,0,1,0,0)"><path fill="url(#__lottie_element_29)" fill-opacity="1" d=" M-10.097999572753906,-182.28199768066406 C-10.097999572753906,-182.28199768066406 -5.7870001792907715,-200.8000030517578 -19.45400047302246,-213.86500549316406 C-32.025001525878906,-225.88299560546875 -45.80099868774414,-224.8699951171875 -45.80099868774414,-224.8699951171875 C-45.80099868774414,-224.8699951171875 -36.14899826049805,-216.23699951171875 -34.4630012512207,-207.19500732421875 C-34.4630012512207,-207.19500732421875 -72.58100128173828,-236.7949981689453 -129.656005859375,-210.64199829101562 C-186.7310028076172,-184.48899841308594 -188.5989990234375,-131.1179962158203 -188.5989990234375,-131.1179962158203 C-188.5989990234375,-131.1179962158203 -180.8280029296875,-140.1719970703125 -172.68600463867188,-147.20399475097656 C-172.68600463867188,-147.20399475097656 -192.8560028076172,-91.1760025024414 -152.30499267578125,-52.3650016784668 C-117.802001953125,-19.341999053955078 -10.097999572753906,-182.28199768066406 -10.097999572753906,-182.28199768066406z"></path></g><g opacity="1" transform="matrix(1,0,0,1,0,0)"><path fill="url(#__lottie_element_30)" fill-opacity="0.3" d=" M-10.097999572753906,-182.28199768066406 C-10.097999572753906,-182.28199768066406 -5.7870001792907715,-200.8000030517578 -19.45400047302246,-213.86500549316406 C-32.025001525878906,-225.88299560546875 -45.80099868774414,-224.8699951171875 -45.80099868774414,-224.8699951171875 C-45.80099868774414,-224.8699951171875 -36.14899826049805,-216.23699951171875 -34.4630012512207,-207.19500732421875 C-34.4630012512207,-207.19500732421875 -72.58100128173828,-236.7949981689453 -129.656005859375,-210.64199829101562 C-186.7310028076172,-184.48899841308594 -188.5989990234375,-131.1179962158203 -188.5989990234375,-131.1179962158203 C-188.5989990234375,-131.1179962158203 -180.8280029296875,-140.1719970703125 -172.68600463867188,-147.20399475097656 C-172.68600463867188,-147.20399475097656 -192.8560028076172,-91.1760025024414 -152.30499267578125,-52.3650016784668 C-117.802001953125,-19.341999053955078 -10.097999572753906,-182.28199768066406 -10.097999572753906,-182.28199768066406z"></path></g><g opacity="1" transform="matrix(1,0,0,1,0,0)"><path fill="url(#__lottie_element_31)" fill-opacity="0.8" d=" M-35.85200119018555,-219.69700622558594 C-36.64699935913086,-219.5749969482422 -27.648000717163086,-214.41000366210938 -24.542999267578125,-201.04800415039062 C-20.246999740600586,-182.56500244140625 -12.196000099182129,-188.62899780273438 -13.722999572753906,-197.84100341796875 C-16.777000427246094,-216.2689971923828 -36.36000061035156,-219.61900329589844 -35.85200119018555,-219.69700622558594z"></path></g><g opacity="1" transform="matrix(1,0,0,1,0,0)"><path stroke-linecap="round" stroke-linejoin="round" fill-opacity="0" stroke="rgb(147,111,53)" stroke-opacity="1" stroke-width="8" d=" M-10.097999572753906,-182.28199768066406 C-10.097999572753906,-182.28199768066406 -5.7870001792907715,-200.8000030517578 -19.45400047302246,-213.86500549316406 C-32.025001525878906,-225.88299560546875 -45.80099868774414,-224.8699951171875 -45.80099868774414,-224.8699951171875 C-45.80099868774414,-224.8699951171875 -36.14899826049805,-216.23699951171875 -34.4630012512207,-207.19500732421875 C-34.4630012512207,-207.19500732421875 -72.58100128173828,-236.7949981689453 -129.656005859375,-210.64199829101562 C-186.7310028076172,-184.48899841308594 -188.5989990234375,-131.1179962158203 -188.5989990234375,-131.1179962158203 C-188.5989990234375,-131.1179962158203 -180.8280029296875,-140.1719970703125 -172.68600463867188,-147.20399475097656 C-172.68600463867188,-147.20399475097656 -192.8560028076172,-91.1760025024414 -152.30499267578125,-52.3650016784668 C-117.802001953125,-19.341999053955078 -10.097999572753906,-182.28199768066406 -10.097999572753906,-182.28199768066406z"></path></g><g opacity="1" transform="matrix(1,0,0,1,0,0)"><path stroke-linecap="round" stroke-linejoin="round" fill-opacity="0" stroke="rgb(114,81,41)" stroke-opacity="1" stroke-width="8" d=" M-188.5989990234375,-131.1179962158203 C-188.5989990234375,-131.1179962158203 -180.8280029296875,-140.1719970703125 -172.68600463867188,-147.20399475097656 C-172.68600463867188,-147.20399475097656 -192.8560028076172,-91.1760025024414 -152.30499267578125,-52.3650016784668 C-117.802001953125,-19.341999053955078 -10.097999572753906,-182.28199768066406 -10.097999572753906,-182.28199768066406"></path></g><g opacity="1" transform="matrix(1,0,0,1,0,0)"><path fill="rgb(221,195,114)" fill-opacity="1" d=" M154.01100158691406,67.5999984741211 C146.65899658203125,25.84000015258789 89.44300079345703,10.394000053405762 31.35300064086914,-12.96500015258789 C-26.73699951171875,-36.32400131225586 -58.97100067138672,-88.55400085449219 -58.97100067138672,-88.55400085449219 C-58.97100067138672,-88.55400085449219 -48.34400177001953,-23.340999603271484 -135.2010040283203,37.10599899291992 C-135.2010040283203,37.10599899291992 -130.20199584960938,57.20000076293945 -130.20199584960938,57.20000076293945 C-130.20199584960938,57.20000076293945 -153.19000244140625,53.93299865722656 -157.46600341796875,0.5720000267028809 C-163.4530029296875,-74.14700317382812 -110.50199890136719,-143.99000549316406 -68.00599670410156,-143.92999267578125 C-68.00599670410156,-143.92999267578125 -19.62299919128418,-184.2220001220703 63.57899856567383,-154.9149932861328 C143.01800537109375,-126.93399810791016 179.26800537109375,-70.49600219726562 184.77000427246094,-4.474999904632568 C189.468994140625,51.91299819946289 171.6649932861328,105.75199890136719 133.71499633789062,128.18099975585938"></path></g><g opacity="1" transform="matrix(1,0,0,1,0,0)"><path fill="url(#__lottie_element_32)" fill-opacity="1" d=" M154.01100158691406,67.5999984741211 C146.65899658203125,25.84000015258789 89.44300079345703,10.394000053405762 31.35300064086914,-12.96500015258789 C-26.73699951171875,-36.32400131225586 -58.97100067138672,-88.55400085449219 -58.97100067138672,-88.55400085449219 C-58.97100067138672,-88.55400085449219 -48.34400177001953,-23.340999603271484 -135.2010040283203,37.10599899291992 C-135.2010040283203,37.10599899291992 -130.20199584960938,57.20000076293945 -130.20199584960938,57.20000076293945 C-130.20199584960938,57.20000076293945 -153.19000244140625,53.93299865722656 -157.46600341796875,0.5720000267028809 C-163.4530029296875,-74.14700317382812 -110.50199890136719,-143.99000549316406 -68.00599670410156,-143.92999267578125 C-68.00599670410156,-143.92999267578125 -19.62299919128418,-184.2220001220703 63.57899856567383,-154.9149932861328 C143.01800537109375,-126.93399810791016 179.26800537109375,-70.49600219726562 184.77000427246094,-4.474999904632568 C189.468994140625,51.91299819946289 171.6649932861328,105.75199890136719 133.71499633789062,128.18099975585938 C133.71499633789062,128.18099975585938 154.01100158691406,67.5999984741211 154.01100158691406,67.5999984741211z"></path></g><g opacity="1" transform="matrix(1,0,0,1,0,0)"><path fill="url(#__lottie_element_33)" fill-opacity="0.9" d=" M53.775001525878906,-42.691001892089844 C98.947998046875,-36.98400115966797 146.95799255371094,-34.29899978637695 156.5290069580078,-47.946998596191406 C166.2790069580078,-61.85100173950195 135.2100067138672,-111.66000366210938 84.35099792480469,-135.44400024414062 C9.435999870300293,-170.4770050048828 -51.481998443603516,-144.24600219726562 -58.46099853515625,-135.44400024414062 C-62.65999984741211,-130.1479949951172 -54.02299880981445,-56.31100082397461 53.775001525878906,-42.691001892089844z"></path></g><g opacity="1" transform="matrix(1,0,0,1,0,0)"><path fill="url(#__lottie_element_34)" fill-opacity="1" d=" M143.0489959716797,121.71600341796875 C143.0489959716797,121.71600341796875 136.3990020751953,120.16600036621094 136.3990020751953,120.16600036621094 C136.3990020751953,120.16600036621094 154.00900268554688,67.59600067138672 154.00900268554688,67.59600067138672 C146.65899658203125,25.836000442504883 89.43900299072266,10.395999908447266 31.349000930786133,-12.96399974822998 C-25.92099952697754,-35.99399948120117 -58.06100082397461,-87.08399963378906 -58.96099853515625,-88.52400207519531 C-58.73099899291992,-86.9739990234375 -49.70100021362305,-24.5939998626709 -131.25100708007812,34.305999755859375 C-131.25100708007812,34.305999755859375 -135.2010040283203,32.125999450683594 -135.2010040283203,32.125999450683594 C-135.2010040283203,32.125999450683594 -97.44100189208984,-1.3839999437332153 -81.74099731445312,-46.9739990234375 C-75.10099792480469,-66.24400329589844 -74.97100067138672,-87.56400299072266 -74.51100158691406,-102.7040023803711 C-73.88099670410156,-123.79399871826172 -70.89900207519531,-130.9199981689453 -75.20099639892578,-131.04400634765625 C-125.15399932861328,-132.48899841308594 -141.9510040283203,-70.8740005493164 -141.9510040283203,-70.8740005493164 C-141.9510040283203,-70.8740005493164 -143.52099609375,-76.83399963378906 -143.52099609375,-76.83399963378906 C-125.82099914550781,-116.15399932861328 -94.83100128173828,-143.9739990234375 -68.0009994506836,-143.9340057373047 C-68.0009994506836,-143.9340057373047 -19.621000289916992,-184.2239990234375 63.57899856567383,-154.91400146484375 C97.18900299072266,-143.07400512695312 123.06900024414062,-126.13400268554688 142.1490020751953,-105.53399658203125 C45.50899887084961,-180.94400024414062 -45.01300048828125,-149 -58.46099853515625,-135.44400024414062 C-60.71099853515625,-133.17599487304688 -58.1349983215332,-112.55599975585938 -49.51100158691406,-99.69400024414062 C-41.37099838256836,-87.55400085449219 -29.820999145507812,-71.81999969482422 -2.8610000610351562,-50.41400146484375 C40.678001403808594,-15.845999717712402 138.66900634765625,3.875999927520752 157.5290069580078,42.04600143432617 C176.38900756835938,80.20600128173828 143.0489959716797,121.71600341796875 143.0489959716797,121.71600341796875z"></path></g><g opacity="1" transform="matrix(1,0,0,1,0,0)"><path fill="rgb(52,49,43)" fill-opacity="1" d=" M4.598999977111816,-165.593994140625 C-24.041000366210938,-165.57400512695312 -44.89099884033203,-157.4040069580078 -56.71099853515625,-151.10400390625 C-56.71099853515625,-151.10400390625 -56.53099822998047,-164.24400329589844 -55.71099853515625,-166.4340057373047 C-54.89099884033203,-168.63400268554688 -38.361000061035156,-188.8939971923828 -7.690999984741211,-181.7740020751953 C-7.690999984741211,-181.7740020751953 1.5490000247955322,-174.8040008544922 4.598999977111816,-165.593994140625z"></path><path stroke-linecap="round" stroke-linejoin="round" fill-opacity="0" stroke="rgb(30,30,29)" stroke-opacity="1" stroke-width="8" d=" M4.598999977111816,-165.593994140625 C-24.041000366210938,-165.57400512695312 -44.89099884033203,-157.4040069580078 -56.71099853515625,-151.10400390625 C-56.71099853515625,-151.10400390625 -56.53099822998047,-164.24400329589844 -55.71099853515625,-166.4340057373047 C-54.89099884033203,-168.63400268554688 -38.361000061035156,-188.8939971923828 -7.690999984741211,-181.7740020751953 C-7.690999984741211,-181.7740020751953 1.5490000247955322,-174.8040008544922 4.598999977111816,-165.593994140625z"></path></g><g opacity="1" transform="matrix(1,0,0,1,0,0)"><path stroke-linecap="round" stroke-linejoin="round" fill-opacity="0" stroke="rgb(147,111,53)" stroke-opacity="1" stroke-width="8" d=" M154.01100158691406,67.5999984741211 C146.65899658203125,25.84000015258789 89.44300079345703,10.394000053405762 31.35300064086914,-12.96500015258789 C-26.73699951171875,-36.32400131225586 -58.97100067138672,-88.55400085449219 -58.97100067138672,-88.55400085449219 C-58.97100067138672,-88.55400085449219 -48.34400177001953,-23.340999603271484 -135.2010040283203,37.10599899291992 C-135.2010040283203,37.10599899291992 -130.20199584960938,57.20000076293945 -130.20199584960938,57.20000076293945 C-130.20199584960938,57.20000076293945 -153.19000244140625,53.93299865722656 -157.46600341796875,0.5720000267028809 C-163.4530029296875,-74.14700317382812 -110.50199890136719,-143.99000549316406 -68.00599670410156,-143.92999267578125 C-68.00599670410156,-143.92999267578125 -19.62299919128418,-184.2220001220703 63.57899856567383,-154.9149932861328 C143.01800537109375,-126.93399810791016 179.26800537109375,-70.49600219726562 184.77000427246094,-4.474999904632568 C189.468994140625,51.91299819946289 171.6649932861328,105.75199890136719 133.71499633789062,128.18099975585938"></path></g><g opacity="1" transform="matrix(1,0,0,1,0,0)"><path stroke-linecap="round" stroke-linejoin="round" fill-opacity="0" stroke="rgb(114,81,41)" stroke-opacity="1" stroke-width="8" d=" M154.01100158691406,67.5999984741211 C146.65899658203125,25.84000015258789 89.44300079345703,10.394000053405762 31.35300064086914,-12.96500015258789 C-26.73699951171875,-36.32400131225586 -58.97100067138672,-88.55400085449219 -58.97100067138672,-88.55400085449219 C-58.97100067138672,-88.55400085449219 -48.34400177001953,-23.340999603271484 -135.2010040283203,37.10599899291992 C-135.2010040283203,37.10599899291992 -130.20199584960938,57.20000076293945 -130.20199584960938,57.20000076293945"></path></g><g opacity="1" transform="matrix(1,0,0,1,0,0)"><path fill="url(#__lottie_element_35)" fill-opacity="1" d=" M-75.20099639892578,-131.04400634765625 C-86.74600219726562,-132.79800415039062 -135.16099548339844,-103.30500030517578 -140.9499969482422,-48.29600143432617 C-146.73899841308594,6.7129998207092285 -93.6050033569336,-8.88700008392334 -81.74099731445312,-46.9739990234375 C-75.2979965209961,-67.65799713134766 -74.9000015258789,-86.9260025024414 -74.51100158691406,-102.7040023803711 C-73.93800354003906,-125.95700073242188 -71.20500183105469,-130.43699645996094 -75.20099639892578,-131.04400634765625z"></path></g><g opacity="1" transform="matrix(1,0,0,1,0,0)"><path fill="url(#__lottie_element_36)" fill-opacity="1" d=" M-40.04199981689453,-199.2790069580078 C-46.79999923706055,-204.05999755859375 -82.98400115966797,-220.61900329589844 -127.75299835205078,-199.2790069580078 C-157.9320068359375,-184.8939971923828 -169.2449951171875,-160.10899353027344 -169.2449951171875,-155.4239959716797 C-169.2449951171875,-153.4459991455078 -165.69000244140625,-157.3350067138672 -160.14199829101562,-158.55299377441406 C-160.14199829101562,-158.55299377441406 -172.2449951171875,-131.1179962158203 -163.64599609375,-102.61100006103516 C-159.86900329589844,-90.08999633789062 -27.975000381469727,-190.7429962158203 -40.04199981689453,-199.2790069580078z"></path></g><g opacity="1" transform="matrix(1,0,0,1,0,0)"><path stroke-linecap="round" stroke-linejoin="round" fill-opacity="0" stroke="rgb(114,81,41)" stroke-opacity="1" stroke-width="8" d=" M153.97999572753906,67.84500122070312 C151.6699981689453,82.87999725341797 147.69900512695312,97.74199676513672 141.68899536132812,111.83599853515625 C140.7689971923828,114.01599884033203 139.78900146484375,116.18599700927734 138.75900268554688,118.32599639892578 C137.13099670410156,121.72200012207031 135.447998046875,125.00599670410156 133.7169952392578,128.1820068359375"></path></g></g><g style="display: block;" transform="matrix(1,0,0,1,256,256)" opacity="1"><g opacity="1" transform="matrix(1,0,0,1,0,0)"><path fill="rgb(255,168,0)" fill-opacity="1" d=" M-115.36100006103516,111.84600067138672 C-115.86100006103516,112.19599914550781 -116.38099670410156,112.46600341796875 -116.9209976196289,112.6259994506836 C-130.37100219726562,116.70600128173828 -137.8509979248047,94.78600311279297 -141.61099243164062,76.7959976196289 C-145.67100524902344,57.35599899291992 -144.99099731445312,35.42599868774414 -135.2010040283203,37.10599899291992 C-133.42100524902344,37.41600036621094 -131.7310028076172,37.88600158691406 -130.1510009765625,38.51599884033203 C-129.64100646972656,63.26599884033203 -125.27100372314453,88.59600067138672 -115.36100006103516,111.84600067138672z"></path><path stroke-linecap="round" stroke-linejoin="round" fill-opacity="0" stroke="rgb(219,110,0)" stroke-opacity="1" stroke-width="8" d=" M-115.36100006103516,111.84600067138672 C-115.86100006103516,112.19599914550781 -116.38099670410156,112.46600341796875 -116.9209976196289,112.6259994506836 C-130.37100219726562,116.70600128173828 -137.8509979248047,94.78600311279297 -141.61099243164062,76.7959976196289 C-145.67100524902344,57.35599899291992 -144.99099731445312,35.42599868774414 -135.2010040283203,37.10599899291992 C-133.42100524902344,37.41600036621094 -131.7310028076172,37.88600158691406 -130.1510009765625,38.51599884033203 C-129.64100646972656,63.26599884033203 -125.27100372314453,88.59600067138672 -115.36100006103516,111.84600067138672z"></path></g></g><g style="display: block;" transform="matrix(1,0,0,1,272.75,290.75)" opacity="1"><g opacity="1" transform="matrix(1,0,0,1,0,0)"><g opacity="1" transform="matrix(1,0,0,1,0,0)"><path fill="rgb(255,255,255)" fill-opacity="1" d=" M-33.71799850463867,37.624000549316406 C-33.71799850463867,37.624000549316406 -37.43199920654297,-6.709000110626221 -74.30799865722656,-10.413000106811523 C-108.17400360107422,-13.814000129699707 -119.28600311279297,25.458999633789062 -119.28600311279297,25.458999633789062 C-119.28600311279297,25.458999633789062 -110.1709976196289,49.233001708984375 -80.52400207519531,52.48400115966797 C-47.472999572753906,56.10900115966797 -33.71799850463867,37.624000549316406 -33.71799850463867,37.624000549316406z"></path></g><g opacity="1" transform="matrix(1,0,0,1,0,0)"><g opacity="1" transform="matrix(1,0,0,1,0,0)"><path fill="url(#__lottie_element_17)" fill-opacity="1" d=" M-51.20500183105469,19.68600082397461 C-51.20500183105469,33.59600067138672 -61.845001220703125,44.87200164794922 -74.97100067138672,44.87200164794922 C-88.09700012207031,44.87200164794922 -98.73799896240234,33.59600067138672 -98.73799896240234,19.68600082397461 C-98.73799896240234,5.776000022888184 -88.09700012207031,-5.5 -74.97100067138672,-5.5 C-61.845001220703125,-5.5 -51.20500183105469,5.776000022888184 -51.20500183105469,19.68600082397461z"></path></g><g opacity="1" transform="matrix(1,0,0,1,0,0)"><g opacity="1" transform="matrix(1,0,0,1,0,0)"><path fill="url(#__lottie_element_18)" fill-opacity="1" d=" M-69.46700286865234,43.790000915527344 C-71.34400177001953,43.790000915527344 -73.08100128173828,42.577999114990234 -73.66300201416016,40.691001892089844 C-74.37799835205078,38.37300109863281 -73.0780029296875,35.91400146484375 -70.76000213623047,35.19900131225586 C-66.32599639892578,33.83100128173828 -62.79600143432617,30.38599967956543 -61.31800079345703,25.983999252319336 C-60.54600143432617,23.683000564575195 -58.051998138427734,22.447999954223633 -55.75699996948242,23.218000411987305 C-53.457000732421875,23.989999771118164 -52.21900177001953,26.479999542236328 -52.99100112915039,28.780000686645508 C-55.36600112915039,35.856998443603516 -61.04100036621094,41.39500045776367 -68.1719970703125,43.59400177001953 C-68.60299682617188,43.72700119018555 -69.03900146484375,43.790000915527344 -69.46700286865234,43.790000915527344z"></path></g></g><g opacity="1" transform="matrix(1,0,0,1,0,0)"><path fill="rgb(24,19,9)" fill-opacity="1" d=" M-59.95100021362305,19.68600082397461 C-59.95100021362305,28.476999282836914 -66.67500305175781,35.604000091552734 -74.97100067138672,35.604000091552734 C-83.26699829101562,35.604000091552734 -89.99199676513672,28.476999282836914 -89.99199676513672,19.68600082397461 C-89.99199676513672,10.895000457763672 -83.26699829101562,3.7690000534057617 -74.97100067138672,3.7690000534057617 C-66.67500305175781,3.7690000534057617 -59.95100021362305,10.895000457763672 -59.95100021362305,19.68600082397461z"></path></g><g opacity="1" transform="matrix(1,0,0,1,0,0)"><path fill="url(#__lottie_element_19)" fill-opacity="1" d=" M-76.302001953125,5.961999893188477 C-76.302001953125,9.300000190734863 -78.85600280761719,12.005999565124512 -82.00599670410156,12.005999565124512 C-85.15599822998047,12.005999565124512 -87.70999908447266,9.300000190734863 -87.70999908447266,5.961999893188477 C-87.70999908447266,2.624000072479248 -85.15599822998047,-0.08299999684095383 -82.00599670410156,-0.08299999684095383 C-78.85600280761719,-0.08299999684095383 -76.302001953125,2.624000072479248 -76.302001953125,5.961999893188477z"></path></g></g><g opacity="1" transform="matrix(1,0,0,1,0,0)"><path fill="rgb(163,65,0)" fill-opacity="1" d=" M-33.71799850463867,37.624000549316406 C-33.71799850463867,37.624000549316406 -35.4900016784668,-7.86299991607666 -76.50199890136719,-11.777000427246094 C-93.33999633789062,-13.383999824523926 -107.60199737548828,-4.119999885559082 -113.76799774169922,6.861000061035156 C-118.95999908447266,16.107999801635742 -119.28600311279297,25.458999633789062 -119.28600311279297,25.458999633789062 C-119.28600311279297,25.458999633789062 -115.41500091552734,-9.817000389099121 -77.822998046875,-8.013999938964844 C-37.59400177001953,-6.084000110626221 -33.71799850463867,37.624000549316406 -33.71799850463867,37.624000549316406z"></path><path stroke-linecap="round" stroke-linejoin="round" fill-opacity="0" stroke="rgb(163,65,0)" stroke-opacity="1" stroke-width="2" d=" M-33.71799850463867,37.624000549316406 C-33.71799850463867,37.624000549316406 -35.4900016784668,-7.86299991607666 -76.50199890136719,-11.777000427246094 C-93.33999633789062,-13.383999824523926 -107.60199737548828,-4.119999885559082 -113.76799774169922,6.861000061035156 C-118.95999908447266,16.107999801635742 -119.28600311279297,25.458999633789062 -119.28600311279297,25.458999633789062 C-119.28600311279297,25.458999633789062 -115.41500091552734,-9.817000389099121 -77.822998046875,-8.013999938964844 C-37.59400177001953,-6.084000110626221 -33.71799850463867,37.624000549316406 -33.71799850463867,37.624000549316406z"></path></g></g><g opacity="1" transform="matrix(-1,0,0,1,-4.125,0)"><g opacity="1" transform="matrix(1,0,0,1,0,0)"><path fill="rgb(255,255,255)" fill-opacity="1" d=" M-33.71799850463867,37.624000549316406 C-33.71799850463867,37.624000549316406 -37.43199920654297,-6.709000110626221 -74.30799865722656,-10.413000106811523 C-108.17400360107422,-13.814000129699707 -119.28600311279297,25.458999633789062 -119.28600311279297,25.458999633789062 C-119.28600311279297,25.458999633789062 -110.1709976196289,49.233001708984375 -80.52400207519531,52.48400115966797 C-47.472999572753906,56.10900115966797 -33.71799850463867,37.624000549316406 -33.71799850463867,37.624000549316406z"></path></g><g opacity="1" transform="matrix(-1,0,0,1,-149.94200134277344,0)"><g opacity="1" transform="matrix(1,0,0,1,0,0)"><g opacity="1" transform="matrix(1,0,0,1,0,0)"><path fill="url(#__lottie_element_20)" fill-opacity="1" d=" M-51.20500183105469,19.68600082397461 C-51.20500183105469,33.59600067138672 -61.845001220703125,44.87200164794922 -74.97100067138672,44.87200164794922 C-88.09700012207031,44.87200164794922 -98.73799896240234,33.59600067138672 -98.73799896240234,19.68600082397461 C-98.73799896240234,5.776000022888184 -88.09700012207031,-5.5 -74.97100067138672,-5.5 C-61.845001220703125,-5.5 -51.20500183105469,5.776000022888184 -51.20500183105469,19.68600082397461z"></path></g><g opacity="1" transform="matrix(1,0,0,1,0,0)"><g opacity="1" transform="matrix(1,0,0,1,0,0)"><path fill="url(#__lottie_element_21)" fill-opacity="1" d=" M-69.46700286865234,43.790000915527344 C-71.34400177001953,43.790000915527344 -73.08100128173828,42.577999114990234 -73.66300201416016,40.691001892089844 C-74.37799835205078,38.37300109863281 -73.0780029296875,35.91400146484375 -70.76000213623047,35.19900131225586 C-66.32599639892578,33.83100128173828 -62.79600143432617,30.38599967956543 -61.31800079345703,25.983999252319336 C-60.54600143432617,23.683000564575195 -58.051998138427734,22.447999954223633 -55.75699996948242,23.218000411987305 C-53.457000732421875,23.989999771118164 -52.21900177001953,26.479999542236328 -52.99100112915039,28.780000686645508 C-55.36600112915039,35.856998443603516 -61.04100036621094,41.39500045776367 -68.1719970703125,43.59400177001953 C-68.60299682617188,43.72700119018555 -69.03900146484375,43.790000915527344 -69.46700286865234,43.790000915527344z"></path></g></g><g opacity="1" transform="matrix(1,0,0,1,0,0)"><path fill="rgb(24,19,9)" fill-opacity="1" d=" M-59.95100021362305,19.68600082397461 C-59.95100021362305,28.476999282836914 -66.67500305175781,35.604000091552734 -74.97100067138672,35.604000091552734 C-83.26699829101562,35.604000091552734 -89.99199676513672,28.476999282836914 -89.99199676513672,19.68600082397461 C-89.99199676513672,10.895000457763672 -83.26699829101562,3.7690000534057617 -74.97100067138672,3.7690000534057617 C-66.67500305175781,3.7690000534057617 -59.95100021362305,10.895000457763672 -59.95100021362305,19.68600082397461z"></path></g><g opacity="1" transform="matrix(1,0,0,1,0,0)"><path fill="url(#__lottie_element_22)" fill-opacity="1" d=" M-76.302001953125,5.961999893188477 C-76.302001953125,9.300000190734863 -78.85600280761719,12.005999565124512 -82.00599670410156,12.005999565124512 C-85.15599822998047,12.005999565124512 -87.70999908447266,9.300000190734863 -87.70999908447266,5.961999893188477 C-87.70999908447266,2.624000072479248 -85.15599822998047,-0.08299999684095383 -82.00599670410156,-0.08299999684095383 C-78.85600280761719,-0.08299999684095383 -76.302001953125,2.624000072479248 -76.302001953125,5.961999893188477z"></path></g></g></g><g opacity="1" transform="matrix(1,0,0,1,0,0)"><path fill="rgb(163,65,0)" fill-opacity="1" d=" M-33.71799850463867,37.624000549316406 C-33.71799850463867,37.624000549316406 -35.4900016784668,-7.86299991607666 -76.50199890136719,-11.777000427246094 C-93.33999633789062,-13.383999824523926 -107.60199737548828,-4.119999885559082 -113.76799774169922,6.861000061035156 C-118.95999908447266,16.107999801635742 -119.28600311279297,25.458999633789062 -119.28600311279297,25.458999633789062 C-119.28600311279297,25.458999633789062 -115.41500091552734,-9.817000389099121 -77.822998046875,-8.013999938964844 C-37.59400177001953,-6.084000110626221 -33.71799850463867,37.624000549316406 -33.71799850463867,37.624000549316406z"></path><path stroke-linecap="round" stroke-linejoin="round" fill-opacity="0" stroke="rgb(163,65,0)" stroke-opacity="1" stroke-width="2" d=" M-33.71799850463867,37.624000549316406 C-33.71799850463867,37.624000549316406 -35.4900016784668,-7.86299991607666 -76.50199890136719,-11.777000427246094 C-93.33999633789062,-13.383999824523926 -107.60199737548828,-4.119999885559082 -113.76799774169922,6.861000061035156 C-118.95999908447266,16.107999801635742 -119.28600311279297,25.458999633789062 -119.28600311279297,25.458999633789062 C-119.28600311279297,25.458999633789062 -115.41500091552734,-9.817000389099121 -77.822998046875,-8.013999938964844 C-37.59400177001953,-6.084000110626221 -33.71799850463867,37.624000549316406 -33.71799850463867,37.624000549316406z"></path></g></g></g><g style="display: block;" transform="matrix(1,0,0,1,273.125,290.625)" opacity="1"><g opacity="1" transform="matrix(1,0,0,1,0,0)"><path fill="url(#__lottie_element_10)" fill-opacity="1" d=" M18.190000534057617,94.09300231933594 C18.190000534057617,102.9260025024414 8.125,110.77799987792969 -2.8350000381469727,110.77799987792969 C-13.795000076293945,110.77799987792969 -23.861000061035156,102.9260025024414 -23.861000061035156,94.09300231933594 C-23.861000061035156,85.26100158691406 -13.795000076293945,77.16200256347656 -2.8350000381469727,77.16200256347656 C8.125,77.16200256347656 18.190000534057617,85.26100158691406 18.190000534057617,94.09300231933594z"></path></g><g opacity="1" transform="matrix(1,0,0,1,0,0)"><path fill="rgb(255,168,0)" fill-opacity="0.8" d=" M18.190000534057617,85.64399719238281 C18.190000534057617,94.10600280761719 8.777000427246094,100.96600341796875 -2.8350000381469727,100.96600341796875 C-14.446999549865723,100.96600341796875 -23.860000610351562,94.10600280761719 -23.860000610351562,85.64399719238281 C-23.860000610351562,77.18199920654297 -14.446999549865723,70.68299865722656 -2.8350000381469727,70.68299865722656 C8.777000427246094,70.68299865722656 18.190000534057617,77.18199920654297 18.190000534057617,85.64399719238281z"></path></g><g opacity="1" transform="matrix(1,0,0,1,0,0)"><path fill="url(#__lottie_element_11)" fill-opacity="1" d=" M18.190000534057617,85.64399719238281 C18.190000534057617,94.10600280761719 8.777000427246094,100.96600341796875 -2.8350000381469727,100.96600341796875 C-14.446999549865723,100.96600341796875 -23.860000610351562,94.10600280761719 -23.860000610351562,85.64399719238281 C-23.860000610351562,77.18199920654297 -14.446999549865723,70.68299865722656 -2.8350000381469727,70.68299865722656 C8.777000427246094,70.68299865722656 18.190000534057617,77.18199920654297 18.190000534057617,85.64399719238281z"></path></g><g opacity="1" transform="matrix(1,0,0,1,0,0)"><path fill="rgb(255,216,0)" fill-opacity="1" d=" M15.352999687194824,80.80799865722656 C15.352999687194824,87.10800170898438 7.210000038146973,92.21499633789062 -2.8350000381469727,92.21499633789062 C-12.880000114440918,92.21499633789062 -21.02400016784668,87.10800170898438 -21.02400016784668,80.80799865722656 C-21.02400016784668,74.50800323486328 -12.880000114440918,70.43599700927734 -2.8350000381469727,70.43599700927734 C7.210000038146973,70.43599700927734 15.352999687194824,74.50800323486328 15.352999687194824,80.80799865722656z"></path></g><g opacity="1" transform="matrix(1,0,0,1,0,0)"><path fill="url(#__lottie_element_12)" fill-opacity="1" d=" M15.352999687194824,80.80799865722656 C15.352999687194824,87.10800170898438 7.210000038146973,92.21499633789062 -2.8350000381469727,92.21499633789062 C-12.880000114440918,92.21499633789062 -21.02400016784668,87.10800170898438 -21.02400016784668,80.80799865722656 C-21.02400016784668,74.50800323486328 -12.880000114440918,70.43599700927734 -2.8350000381469727,70.43599700927734 C7.210000038146973,70.43599700927734 15.352999687194824,74.50800323486328 15.352999687194824,80.80799865722656z"></path></g><g opacity="1" transform="matrix(1,0,0,1,0,0)"><path fill="url(#__lottie_element_13)" fill-opacity="0.7000000000000001" d=" M6.535999774932861,76.23300170898438 C6.535999774932861,79.60600280761719 2.3399999141693115,82.77799987792969 -2.8350000381469727,82.77799987792969 C-8.010000228881836,82.77799987792969 -12.206000328063965,79.60600280761719 -12.206000328063965,76.23300170898438 C-12.206000328063965,72.86000061035156 -8.010000228881836,71.16799926757812 -2.8350000381469727,71.16799926757812 C2.3399999141693115,71.16799926757812 6.535999774932861,72.86000061035156 6.535999774932861,76.23300170898438z"></path></g></g><g style="display: block;" transform="matrix(1,0,0,1,272.125,290.625)" opacity="1"><g opacity="1" transform="matrix(1,0,0,1,0,0)"><path fill="rgb(75,37,2)" fill-opacity="1" d=" M43.34299850463867,120.85099792480469 C40.119998931884766,119.03800201416016 25.618000030517578,121.85800170898438 14.940999984741211,118.03099822998047 C4.264999866485596,114.2040023803711 1.8489999771118164,119.62100219726562 -1.9789999723434448,119.62100219726562 C-5.806000232696533,119.62100219726562 -8.222999572753906,114.2040023803711 -18.899999618530273,118.03099822998047 C-29.576000213623047,121.85800170898438 -44.07899856567383,119.03800201416016 -47.301998138427734,120.85099792480469 C-50.525001525878906,122.66400146484375 -28.535999298095703,143.5919952392578 -1.9789999723434448,143.5919952392578 C24.26799964904785,143.5919952392578 46.566001892089844,122.66400146484375 43.34299850463867,120.85099792480469z"></path></g><g opacity="1" transform="matrix(1,0,0,1,0,0)"><path fill="url(#__lottie_element_6)" fill-opacity="1" d=" M43.34299850463867,120.85099792480469 C40.119998931884766,119.03800201416016 25.618000030517578,121.85800170898438 14.940999984741211,118.03099822998047 C4.264999866485596,114.2040023803711 1.8489999771118164,119.62100219726562 -1.9789999723434448,119.62100219726562 C-5.806000232696533,119.62100219726562 -8.222999572753906,114.2040023803711 -18.899999618530273,118.03099822998047 C-29.576000213623047,121.85800170898438 -44.07899856567383,119.03800201416016 -47.301998138427734,120.85099792480469 C-50.525001525878906,122.66400146484375 -28.535999298095703,143.5919952392578 -1.9789999723434448,143.5919952392578 C24.26799964904785,143.5919952392578 46.566001892089844,122.66400146484375 43.34299850463867,120.85099792480469z"></path></g><g opacity="1" transform="matrix(1,0,0,1,0,0)"><path fill="rgb(23,19,11)" fill-opacity="1" d=" M-39.88199996948242,124.6240005493164 C-39.88199996948242,124.6240005493164 -28.322999954223633,127.36900329589844 -20.43899917602539,127.36900329589844 C-15.086999893188477,127.36900329589844 -7.00600004196167,130.20700073242188 -1.9789999723434448,130.20700073242188 C2.8519999980926514,130.20700073242188 9.390000343322754,127.43000030517578 14.458999633789062,127.43000030517578 C24.839000701904297,127.43000030517578 35.196998596191406,124.6240005493164 35.196998596191406,124.6240005493164 C35.196998596191406,124.6240005493164 26.56399917602539,127.21399688720703 13.963000297546387,129.86099243164062 C9.489999771118164,130.80099487304688 3.2860000133514404,133.1820068359375 -1.9789999723434448,133.1820068359375 C-8.236000061035156,133.1820068359375 -15.381999969482422,130.53799438476562 -20.562000274658203,129.3000030517578 C-32.020999908447266,126.56099700927734 -39.88199996948242,124.6240005493164 -39.88199996948242,124.6240005493164z"></path><path stroke-linecap="round" stroke-linejoin="round" fill-opacity="0" stroke="rgb(23,19,11)" stroke-opacity="1" stroke-width="1" d=" M-39.88199996948242,124.6240005493164 C-39.88199996948242,124.6240005493164 -28.322999954223633,127.36900329589844 -20.43899917602539,127.36900329589844 C-15.086999893188477,127.36900329589844 -7.00600004196167,130.20700073242188 -1.9789999723434448,130.20700073242188 C2.8519999980926514,130.20700073242188 9.390000343322754,127.43000030517578 14.458999633789062,127.43000030517578 C24.839000701904297,127.43000030517578 35.196998596191406,124.6240005493164 35.196998596191406,124.6240005493164 C35.196998596191406,124.6240005493164 26.56399917602539,127.21399688720703 13.963000297546387,129.86099243164062 C9.489999771118164,130.80099487304688 3.2860000133514404,133.1820068359375 -1.9789999723434448,133.1820068359375 C-8.236000061035156,133.1820068359375 -15.381999969482422,130.53799438476562 -20.562000274658203,129.3000030517578 C-32.020999908447266,126.56099700927734 -39.88199996948242,124.6240005493164 -39.88199996948242,124.6240005493164z"></path></g></g></g></svg>