<svg xmlns="http://www.w3.org/2000/svg" xmlns:xlink="http://www.w3.org/1999/xlink" viewBox="0 0 512 512" width="512" height="512" style="width: 100%; height: 100%; transform: translate3d(0,0,0); content-visibility: visible;" preserveAspectRatio="xMidYMid meet"><defs><clipPath id="__lottie_element_2"><rect width="512" height="512" x="0" y="0"></rect></clipPath><linearGradient id="__lottie_element_6" spreadMethod="pad" gradientUnits="userSpaceOnUse" x1="0.19900000095367432" y1="-206.6199951171875" x2="0.19900000095367432" y2="-104.2760009765625"><stop offset="0%" stop-color="rgb(255,238,152)"></stop><stop offset="35%" stop-color="rgb(247,217,103)"></stop><stop offset="70%" stop-color="rgb(239,196,54)"></stop><stop offset="91%" stop-color="rgb(226,180,27)"></stop><stop offset="100%" stop-color="rgb(213,163,0)"></stop></linearGradient><linearGradient id="__lottie_element_7" spreadMethod="pad" gradientUnits="userSpaceOnUse" x1="-0.8009999990463257" y1="-110.62000274658203" x2="-0.8009999990463257" y2="-160.93699645996094"><stop offset="0%" stop-color="rgb(167,127,24)" stop-opacity="1"></stop><stop offset="37%" stop-color="rgb(203,161,39)" stop-opacity="0.5099999904632568"></stop><stop offset="100%" stop-color="rgb(239,196,54)" stop-opacity="0.019999999552965164"></stop></linearGradient><linearGradient id="__lottie_element_8" spreadMethod="pad" gradientUnits="userSpaceOnUse" x1="28.198999404907227" y1="-155.6199951171875" x2="50.617000579833984" y2="-155.6199951171875"><stop offset="0%" stop-color="rgb(213,142,0)" stop-opacity="0"></stop><stop offset="25%" stop-color="rgb(213,142,0)" stop-opacity="0.5"></stop><stop offset="50%" stop-color="rgb(213,142,0)" stop-opacity="1"></stop><stop offset="75%" stop-color="rgb(213,142,0)" stop-opacity="0.5"></stop><stop offset="100%" stop-color="rgb(213,142,0)" stop-opacity="0"></stop></linearGradient><linearGradient id="__lottie_element_9" spreadMethod="pad" gradientUnits="userSpaceOnUse" x1="-51.80099868774414" y1="-155.6199951171875" x2="-29.382999420166016" y2="-155.6199951171875"><stop offset="0%" stop-color="rgb(213,142,0)" stop-opacity="0"></stop><stop offset="25%" stop-color="rgb(213,142,0)" stop-opacity="0.5"></stop><stop offset="50%" stop-color="rgb(213,142,0)" stop-opacity="1"></stop><stop offset="75%" stop-color="rgb(213,142,0)" stop-opacity="0.5"></stop><stop offset="100%" stop-color="rgb(213,142,0)" stop-opacity="0"></stop></linearGradient><radialGradient id="__lottie_element_10" spreadMethod="pad" gradientUnits="userSpaceOnUse" cx="1.1990000009536743" cy="-192.6199951171875" r="113.3560003042221" fx="1.1990000009536743" fy="-192.6199951171875"><stop offset="0%" stop-color="rgb(255,255,255)" stop-opacity="1"></stop><stop offset="50%" stop-color="rgb(255,255,255)" stop-opacity="0.5"></stop><stop offset="100%" stop-color="rgb(255,255,255)" stop-opacity="0"></stop></radialGradient><radialGradient id="__lottie_element_11" spreadMethod="pad" gradientUnits="userSpaceOnUse" cx="0.19900000095367432" cy="-79.62000274658203" r="129.85800683498383" fx="0.19900000095367432" fy="-79.62000274658203"><stop offset="0%" stop-color="rgb(255,223,28)"></stop><stop offset="60%" stop-color="rgb(252,231,96)"></stop><stop offset="100%" stop-color="rgb(250,239,164)"></stop></radialGradient><linearGradient id="__lottie_element_15" spreadMethod="pad" gradientUnits="userSpaceOnUse" x1="-109.8010025024414" y1="-63.619998931884766" x2="-109.8010025024414" y2="-38.02199935913086"><stop offset="10%" stop-color="rgb(255,169,0)" stop-opacity="0"></stop><stop offset="55%" stop-color="rgb(255,169,0)" stop-opacity="0.5"></stop><stop offset="100%" stop-color="rgb(255,169,0)" stop-opacity="1"></stop></linearGradient><linearGradient id="__lottie_element_16" spreadMethod="pad" gradientUnits="userSpaceOnUse" x1="109.1989974975586" y1="-61.619998931884766" x2="109.1989974975586" y2="-31.235000610351562"><stop offset="10%" stop-color="rgb(255,169,0)" stop-opacity="0"></stop><stop offset="55%" stop-color="rgb(255,169,0)" stop-opacity="0.5"></stop><stop offset="100%" stop-color="rgb(255,169,0)" stop-opacity="1"></stop></linearGradient><linearGradient id="__lottie_element_17" spreadMethod="pad" gradientUnits="userSpaceOnUse" x1="-107.8010025024414" y1="-26.6200008392334" x2="-107.8010025024414" y2="-166.04800415039062"><stop offset="0%" stop-color="rgb(218,110,0)" stop-opacity="1"></stop><stop offset="60%" stop-color="rgb(218,110,0)" stop-opacity="0.5"></stop><stop offset="100%" stop-color="rgb(218,110,0)" stop-opacity="0"></stop></linearGradient><linearGradient id="__lottie_element_18" spreadMethod="pad" gradientUnits="userSpaceOnUse" x1="108.1989974975586" y1="-26.6200008392334" x2="108.1989974975586" y2="-166.04800415039062"><stop offset="0%" stop-color="rgb(218,110,0)" stop-opacity="1"></stop><stop offset="60%" stop-color="rgb(218,110,0)" stop-opacity="0.5"></stop><stop offset="100%" stop-color="rgb(218,110,0)" stop-opacity="0"></stop></linearGradient><linearGradient id="__lottie_element_25" spreadMethod="pad" gradientUnits="userSpaceOnUse" x1="-51.362998962402344" y1="-35.957000732421875" x2="-37.691001892089844" y2="-15.142000198364258"><stop offset="0%" stop-color="rgb(66,0,0)"></stop><stop offset="37%" stop-color="rgb(118,40,0)"></stop><stop offset="100%" stop-color="rgb(170,80,0)"></stop></linearGradient><radialGradient id="__lottie_element_26" spreadMethod="pad" gradientUnits="userSpaceOnUse" cx="-39.32500076293945" cy="-19.8439998626709" r="8.891000747680664" fx="-39.32500076293945" fy="-19.8439998626709"><stop offset="0%" stop-color="rgb(246,175,0)" stop-opacity="1"></stop><stop offset="50%" stop-color="rgb(246,175,0)" stop-opacity="0.5"></stop><stop offset="100%" stop-color="rgb(246,175,0)" stop-opacity="0"></stop></radialGradient><linearGradient id="__lottie_element_27" spreadMethod="pad" gradientUnits="userSpaceOnUse" x1="-53.32500076293945" y1="-40.84400177001953" x2="-53.14099884033203" y2="-33.672000885009766"><stop offset="0%" stop-color="rgb(255,255,255)" stop-opacity="1"></stop><stop offset="60%" stop-color="rgb(255,255,255)" stop-opacity="0.5"></stop><stop offset="100%" stop-color="rgb(255,255,255)" stop-opacity="0"></stop></linearGradient><linearGradient id="__lottie_element_28" spreadMethod="pad" gradientUnits="userSpaceOnUse" x1="50.137001037597656" y1="-35.707000732421875" x2="64.30899810791016" y2="-16.142000198364258"><stop offset="0%" stop-color="rgb(66,0,0)"></stop><stop offset="37%" stop-color="rgb(118,40,0)"></stop><stop offset="100%" stop-color="rgb(170,80,0)"></stop></linearGradient><radialGradient id="__lottie_element_29" spreadMethod="pad" gradientUnits="userSpaceOnUse" cx="62.67499923706055" cy="-19.8439998626709" r="8.891002655029297" fx="62.67499923706055" fy="-19.8439998626709"><stop offset="0%" stop-color="rgb(246,175,0)" stop-opacity="1"></stop><stop offset="50%" stop-color="rgb(246,175,0)" stop-opacity="0.5"></stop><stop offset="100%" stop-color="rgb(246,175,0)" stop-opacity="0"></stop></radialGradient><linearGradient id="__lottie_element_30" spreadMethod="pad" gradientUnits="userSpaceOnUse" x1="48.67499923706055" y1="-40.84400177001953" x2="48.814998626708984" y2="-32.869998931884766"><stop offset="0%" stop-color="rgb(255,255,255)" stop-opacity="1"></stop><stop offset="60%" stop-color="rgb(255,255,255)" stop-opacity="0.5"></stop><stop offset="100%" stop-color="rgb(255,255,255)" stop-opacity="0"></stop></linearGradient><linearGradient id="__lottie_element_34" spreadMethod="pad" gradientUnits="userSpaceOnUse" x1="-1.8009999990463257" y1="132.04299926757812" x2="-1.9259999990463257" y2="143.00799560546875"><stop offset="0%" stop-color="rgb(255,168,0)" stop-opacity="1"></stop><stop offset="50%" stop-color="rgb(255,168,0)" stop-opacity="0.5"></stop><stop offset="100%" stop-color="rgb(255,168,0)" stop-opacity="0"></stop></linearGradient><radialGradient id="__lottie_element_35" spreadMethod="pad" gradientUnits="userSpaceOnUse" cx="-1.9259999990463257" cy="148.41799926757812" r="39.79100167751312" fx="-1.9259999990463257" fy="148.41799926757812"><stop offset="0%" stop-color="rgb(255,255,255)" stop-opacity="1"></stop><stop offset="62%" stop-color="rgb(255,255,255)" stop-opacity="0.5"></stop><stop offset="100%" stop-color="rgb(255,255,255)" stop-opacity="0"></stop></radialGradient><linearGradient id="__lottie_element_36" spreadMethod="pad" gradientUnits="userSpaceOnUse" x1="-1.9259999990463257" y1="148.41799926757812" x2="-1.9259999990463257" y2="138.76699829101562"><stop offset="0%" stop-color="rgb(88,11,14)" stop-opacity="0"></stop><stop offset="34%" stop-color="rgb(88,11,14)" stop-opacity="0.5"></stop><stop offset="75%" stop-color="rgb(88,11,14)" stop-opacity="1"></stop></linearGradient><radialGradient id="__lottie_element_37" spreadMethod="pad" gradientUnits="userSpaceOnUse" cx="-1.9259999990463257" cy="164.41799926757812" r="23.880000472068787" fx="-1.9259999990463257" fy="164.41799926757812"><stop offset="10%" stop-color="rgb(219,110,0)" stop-opacity="1"></stop><stop offset="66%" stop-color="rgb(219,110,0)" stop-opacity="0.5"></stop><stop offset="100%" stop-color="rgb(219,110,0)" stop-opacity="0"></stop></radialGradient><linearGradient id="__lottie_element_41" spreadMethod="pad" gradientUnits="userSpaceOnUse" x1="-1.4259999990463257" y1="102.91799926757812" x2="-1.1759999990463257" y2="125.28099822998047"><stop offset="0%" stop-color="rgb(255,168,0)" stop-opacity="1"></stop><stop offset="66%" stop-color="rgb(255,168,0)" stop-opacity="0.5"></stop><stop offset="100%" stop-color="rgb(255,168,0)" stop-opacity="0"></stop></linearGradient><linearGradient id="__lottie_element_42" spreadMethod="pad" gradientUnits="userSpaceOnUse" x1="-1.9259999990463257" y1="108.41799926757812" x2="-1.9259999990463257" y2="88.71299743652344"><stop offset="10%" stop-color="rgb(219,110,0)" stop-opacity="1"></stop><stop offset="51%" stop-color="rgb(219,110,0)" stop-opacity="0.5"></stop><stop offset="80%" stop-color="rgb(219,110,0)" stop-opacity="0"></stop></linearGradient><radialGradient id="__lottie_element_43" spreadMethod="pad" gradientUnits="userSpaceOnUse" cx="-2.9260001182556152" cy="84.41799926757812" r="24.002000331878662" fx="-2.9260001182556152" fy="84.41799926757812"><stop offset="36%" stop-color="rgb(255,168,0)" stop-opacity="0"></stop><stop offset="74%" stop-color="rgb(255,168,0)" stop-opacity="0.5"></stop><stop offset="100%" stop-color="rgb(255,168,0)" stop-opacity="1"></stop></radialGradient><linearGradient id="__lottie_element_44" spreadMethod="pad" gradientUnits="userSpaceOnUse" x1="-1.9259999990463257" y1="80.41799926757812" x2="-1.9259999990463257" y2="90.41799926757812"><stop offset="0%" stop-color="rgb(255,255,255)" stop-opacity="1"></stop><stop offset="50%" stop-color="rgb(255,255,255)" stop-opacity="0.5"></stop><stop offset="100%" stop-color="rgb(255,255,255)" stop-opacity="0"></stop></linearGradient><linearGradient id="__lottie_element_48" spreadMethod="pad" gradientUnits="userSpaceOnUse" x1="-1.6759999990463257" y1="-65.08200073242188" x2="3.0739998817443848" y2="77.33100128173828"><stop offset="0%" stop-color="rgb(255,216,0)" stop-opacity="0"></stop><stop offset="11%" stop-color="rgb(255,216,0)" stop-opacity="0.5"></stop><stop offset="45%" stop-color="rgb(255,216,0)" stop-opacity="1"></stop><stop offset="90%" stop-color="rgb(255,216,0)" stop-opacity="0.5"></stop><stop offset="100%" stop-color="rgb(255,216,0)" stop-opacity="0"></stop></linearGradient><linearGradient id="__lottie_element_49" spreadMethod="pad" gradientUnits="userSpaceOnUse" x1="-2.9130001068115234" y1="-93.68900299072266" x2="-2.9130001068115234" y2="-22.81599998474121"><stop offset="15%" stop-color="rgb(219,110,0)" stop-opacity="1"></stop><stop offset="45%" stop-color="rgb(219,110,0)" stop-opacity="0.5"></stop><stop offset="70%" stop-color="rgb(219,110,0)" stop-opacity="0"></stop></linearGradient><linearGradient id="__lottie_element_59" spreadMethod="pad" gradientUnits="userSpaceOnUse" x1="0.19900000095367432" y1="132.3800048828125" x2="0.19900000095367432" y2="212.2259979248047"><stop offset="0%" stop-color="rgb(148,207,255)"></stop><stop offset="65%" stop-color="rgb(117,189,255)"></stop><stop offset="100%" stop-color="rgb(86,171,255)"></stop></linearGradient><linearGradient id="__lottie_element_60" spreadMethod="pad" gradientUnits="userSpaceOnUse" x1="99.6989974975586" y1="125.87999725341797" x2="89.70099639892578" y2="172.16200256347656"><stop offset="0%" stop-color="rgb(215,109,48)"></stop><stop offset="36%" stop-color="rgb(235,133,48)"></stop><stop offset="100%" stop-color="rgb(255,157,49)"></stop></linearGradient><linearGradient id="__lottie_element_61" spreadMethod="pad" gradientUnits="userSpaceOnUse" x1="101.6989974975586" y1="115.87999725341797" x2="93.48100280761719" y2="165.93899536132812"><stop offset="0%" stop-color="rgb(232,218,51)"></stop><stop offset="60%" stop-color="rgb(243,236,51)"></stop><stop offset="100%" stop-color="rgb(253,255,51)"></stop></linearGradient><linearGradient id="__lottie_element_62" spreadMethod="pad" gradientUnits="userSpaceOnUse" x1="99.6989974975586" y1="125.87999725341797" x2="89.70099639892578" y2="172.16200256347656"><stop offset="0%" stop-color="rgb(215,109,48)"></stop><stop offset="36%" stop-color="rgb(235,133,48)"></stop><stop offset="100%" stop-color="rgb(255,157,49)"></stop></linearGradient><linearGradient id="__lottie_element_63" spreadMethod="pad" gradientUnits="userSpaceOnUse" x1="101.6989974975586" y1="115.87999725341797" x2="93.48100280761719" y2="165.93899536132812"><stop offset="0%" stop-color="rgb(232,218,51)"></stop><stop offset="60%" stop-color="rgb(243,236,51)"></stop><stop offset="100%" stop-color="rgb(253,255,51)"></stop></linearGradient><radialGradient id="__lottie_element_67" spreadMethod="pad" gradientUnits="userSpaceOnUse" cx="-0.8009999990463257" cy="141.3800048828125" r="49.888001799583435" fx="-0.8009999990463257" fy="141.3800048828125"><stop offset="20%" stop-color="rgb(255,168,0)" stop-opacity="1"></stop><stop offset="68%" stop-color="rgb(255,168,0)" stop-opacity="0.5"></stop><stop offset="100%" stop-color="rgb(255,168,0)" stop-opacity="0"></stop></radialGradient></defs><g clip-path="url(#__lottie_element_2)"><g style="display: block;" transform="matrix(1,0,0,1,257,256)" opacity="1"><g opacity="1" transform="matrix(1,0,0,1,0,0)"><path fill="rgb(181,102,6)" fill-opacity="1" d=" M38.58599853515625,78.58499908447266 C38.58599853515625,78.58499908447266 -1.4900000095367432,81.62799835205078 -1.4900000095367432,81.62799835205078 C-1.4900000095367432,81.62799835205078 -41.566001892089844,78.58499908447266 -41.566001892089844,78.58499908447266 C-41.566001892089844,78.58499908447266 -42.551998138427734,123.38999938964844 -42.551998138427734,123.38999938964844 C-42.551998138427734,123.38999938964844 -23.69499969482422,139.18499755859375 -0.49000000953674316,139.18499755859375 C22.71500015258789,139.18499755859375 39.571998596191406,123.38999938964844 39.571998596191406,123.38999938964844 C39.571998596191406,123.38999938964844 38.58599853515625,78.58499908447266 38.58599853515625,78.58499908447266z"></path></g><g opacity="1" transform="matrix(1,0,0,1,0,0)"><path fill="url(#__lottie_element_67)" fill-opacity="1" d=" M39.58599853515625,78.58499908447266 C39.58599853515625,78.58499908447266 -0.49000000953674316,81.62799835205078 -0.49000000953674316,81.62799835205078 C-0.49000000953674316,81.62799835205078 -40.566001892089844,78.58499908447266 -40.566001892089844,78.58499908447266 C-40.566001892089844,78.58499908447266 -41.551998138427734,123.38999938964844 -41.551998138427734,123.38999938964844 C-41.551998138427734,123.38999938964844 -23.69499969482422,139.18499755859375 -0.49000000953674316,139.18499755859375 C22.71500015258789,139.18499755859375 40.571998596191406,123.38999938964844 40.571998596191406,123.38999938964844 C40.571998596191406,123.38999938964844 39.58599853515625,78.58499908447266 39.58599853515625,78.58499908447266z"></path></g><g opacity="1" transform="matrix(1,0,0,1,0,0)"><path stroke-linecap="round" stroke-linejoin="round" fill-opacity="0" stroke="rgb(153,71,4)" stroke-opacity="1" stroke-width="8" d=" M39.571998596191406,120.38999938964844 C39.571998596191406,120.38999938964844 38.58599853515625,78.58499908447266 38.58599853515625,78.58499908447266 C38.58599853515625,78.58499908447266 -1.4900000095367432,81.62799835205078 -1.4900000095367432,81.62799835205078 C-1.4900000095367432,81.62799835205078 -41.566001892089844,78.58499908447266 -41.566001892089844,78.58499908447266 C-41.566001892089844,78.58499908447266 -42.551998138427734,120.38999938964844 -42.551998138427734,120.38999938964844"></path></g></g><g style="display: block;" transform="matrix(1,0,0,1,256,256)" opacity="1"><g opacity="1" transform="matrix(1,0,0,1,0,0)"><g opacity="1" transform="matrix(1,0,0,1,0,0)"><path fill="url(#__lottie_element_59)" fill-opacity="1" d=" M130.17799377441406,144.37399291992188 C130.17799377441406,144.37399291992188 80.98200225830078,111.83599853515625 48.02199935913086,104.38500213623047 C48.02199935913086,104.38500213623047 46.724998474121094,138.43699645996094 -0.49000000953674316,138.43699645996094 C-47.70500183105469,138.43699645996094 -49.000999450683594,104.38500213623047 -49.000999450683594,104.38500213623047 C-81.96199798583984,111.83599853515625 -131.15699768066406,144.37399291992188 -131.15699768066406,144.37399291992188 C-149.13499450683594,173.26400756835938 -150.39199829101562,215.55799865722656 -150.39199829101562,215.55799865722656 C-150.39199829101562,215.55799865722656 -0.49000000953674316,215.55799865722656 -0.49000000953674316,215.55799865722656 C-0.49000000953674316,215.55799865722656 149.41299438476562,215.55799865722656 149.41299438476562,215.55799865722656 C149.41299438476562,215.55799865722656 148.156005859375,173.26400756835938 130.17799377441406,144.37399291992188z"></path></g><g opacity="1" transform="matrix(1,0,0,1,0,0)"><path fill="rgb(59,71,83)" fill-opacity="1" d=" M-53.249000549316406,106.02999877929688 C-53.249000549316406,106.02999877929688 -41.39699935913086,159.33799743652344 -22.768999099731445,215.56100463867188 C-22.768999099731445,215.56100463867188 -50.400001525878906,215.56100463867188 -50.400001525878906,215.56100463867188 C-50.400001525878906,215.56100463867188 -69.98500061035156,110.41799926757812 -69.98500061035156,110.41799926757812 C-69.98500061035156,110.41799926757812 -53.249000549316406,106.02999877929688 -53.249000549316406,106.02999877929688z"></path></g><g opacity="1" transform="matrix(1,0,0,1,0,0)"><path fill="rgb(59,71,83)" fill-opacity="1" d=" M52.305999755859375,106.02999877929688 C52.305999755859375,106.02999877929688 40.45399856567383,159.33799743652344 21.826000213623047,215.56100463867188 C21.826000213623047,215.56100463867188 49.457000732421875,215.56100463867188 49.457000732421875,215.56100463867188 C49.457000732421875,215.56100463867188 69.04199981689453,110.41799926757812 69.04199981689453,110.41799926757812 C69.04199981689453,110.41799926757812 52.305999755859375,106.02999877929688 52.305999755859375,106.02999877929688z"></path></g><g opacity="1" transform="matrix(1,0,0,1,0,0)"><path fill="rgb(11,113,182)" fill-opacity="0.4" d=" M149.6820068359375,215.55799865722656 C149.6820068359375,215.55799865722656 127.90799713134766,215.56100463867188 127.90799713134766,215.56100463867188 C127.90799713134766,215.56100463867188 129.61700439453125,148.03799438476562 129.61700439453125,148.03799438476562 C129.61700439453125,148.03799438476562 133.9429931640625,148.49400329589844 133.9429931640625,148.49400329589844 C133.9429931640625,148.49400329589844 149.51199340820312,181.9980010986328 149.6820068359375,215.55799865722656z"></path></g><g opacity="1" transform="matrix(1,0,0,1,0,0)"><path fill="rgb(11,113,182)" fill-opacity="0.4" d=" M-150.39199829101562,215.55799865722656 C-150.39199829101562,215.55799865722656 -128.61900329589844,215.56100463867188 -128.61900329589844,215.56100463867188 C-128.61900329589844,215.56100463867188 -130.32699584960938,148.03799438476562 -130.32699584960938,148.03799438476562 C-130.32699584960938,148.03799438476562 -134.6540069580078,148.49400329589844 -134.6540069580078,148.49400329589844 C-134.6540069580078,148.49400329589844 -150.2220001220703,181.9980010986328 -150.39199829101562,215.55799865722656z"></path></g><g opacity="1" transform="matrix(1,0,0,1,0,0)"><path fill="rgb(59,71,83)" fill-opacity="1" d=" M-139.4499969482422,152.87399291992188 C-139.4499969482422,152.87399291992188 -142.0019989013672,183.1490020751953 -139.39999389648438,215.62600708007812 C-139.39999389648438,215.62600708007812 -121.96499633789062,215.6230010986328 -121.96499633789062,215.6230010986328 C-121.96499633789062,215.6230010986328 -133.177001953125,154.23399353027344 -133.177001953125,154.23399353027344 C-133.177001953125,154.23399353027344 -139.4499969482422,152.87399291992188 -139.4499969482422,152.87399291992188z"></path></g><g opacity="1" transform="matrix(1,0,0,1,0,0)"><path fill="rgb(59,71,83)" fill-opacity="1" d=" M138.6750030517578,152.80999755859375 C138.6750030517578,152.80999755859375 141.22799682617188,183.08399963378906 138.62600708007812,215.56100463867188 C138.62600708007812,215.56100463867188 121.19100189208984,215.55799865722656 121.19100189208984,215.55799865722656 C121.19100189208984,215.55799865722656 132.4029998779297,154.16900634765625 132.4029998779297,154.16900634765625 C132.4029998779297,154.16900634765625 138.6750030517578,152.80999755859375 138.6750030517578,152.80999755859375z"></path></g><g opacity="1" transform="matrix(1,0,0,1,0,0)"><path stroke-linecap="round" stroke-linejoin="round" fill-opacity="0" stroke="rgb(55,132,195)" stroke-opacity="1" stroke-width="8" d=" M149.41299438476562,211.55799865722656 C149.41299438476562,211.55799865722656 148.156005859375,173.26400756835938 130.17799377441406,144.37399291992188 C130.17799377441406,144.37399291992188 80.98200225830078,111.83599853515625 48.02199935913086,104.38500213623047 C48.02199935913086,104.38500213623047 46.724998474121094,138.43699645996094 -0.49000000953674316,138.43699645996094 C-47.70500183105469,138.43699645996094 -49.000999450683594,104.38500213623047 -49.000999450683594,104.38500213623047 C-81.96199798583984,111.83599853515625 -131.15699768066406,144.37399291992188 -131.15699768066406,144.37399291992188 C-149.13499450683594,173.26400756835938 -150.39199829101562,211.55799865722656 -150.39199829101562,211.55799865722656"></path></g><g opacity="1" transform="matrix(1,0,0,1,0,0)"><path stroke-linecap="round" stroke-linejoin="round" fill-opacity="0" stroke="rgb(11,113,182)" stroke-opacity="1" stroke-width="8" d=" M-131.15699768066406,144.37399291992188 C-149.13499450683594,173.26400756835938 -150.39199829101562,211.55799865722656 -150.39199829101562,211.55799865722656"></path></g><g opacity="1" transform="matrix(1,0,0,1,0,0)"><path stroke-linecap="round" stroke-linejoin="round" fill-opacity="0" stroke="rgb(11,113,182)" stroke-opacity="1" stroke-width="8" d=" M149.41299438476562,211.55799865722656 C149.41299438476562,211.55799865722656 148.156005859375,173.26400756835938 130.17799377441406,144.37399291992188"></path></g></g><g opacity="1" transform="matrix(-1,0,0,1,-1.00799560546875,0)"><g opacity="1" transform="matrix(1,0,0,1,0,0)"><path fill="url(#__lottie_element_60)" fill-opacity="1" d=" M37.49800109863281,215.55799865722656 C37.49800109863281,215.55799865722656 51.28900146484375,166.36599731445312 64.53500366210938,107.11900329589844 C64.53500366210938,107.11900329589844 102.83899688720703,117.60600280761719 130.04600524902344,139.0850067138672 C130.04600524902344,139.0850067138672 131.1199951171875,169.10499572753906 128.25599670410156,215.55799865722656"></path></g><g opacity="1" transform="matrix(1,0,0,1,0,0)"><path fill="url(#__lottie_element_61)" fill-opacity="1" d=" M89.03800201416016,115.0270004272461 C89.03800201416016,115.0270004272461 82.27100372314453,159.6020050048828 69.0479965209961,215.55799865722656 C69.0479965209961,215.55799865722656 99.93800354003906,215.55799865722656 99.93800354003906,215.55799865722656 C99.93800354003906,215.55799865722656 107.74400329589844,175.36700439453125 111.77899932861328,125.82599639892578 C111.77899932861328,125.82599639892578 89.03800201416016,115.0270004272461 89.03800201416016,115.0270004272461z"></path></g><g opacity="1" transform="matrix(1,0,0,1,0,0)"><path stroke-linecap="round" stroke-linejoin="round" fill-opacity="0" stroke="rgb(255,255,255)" stroke-opacity="0.3" stroke-width="8" d=" M130.052001953125,146.33799743652344 C130.052001953125,146.33799743652344 101.04399871826172,122.3479995727539 62.90800094604492,114.31500244140625"></path></g><g opacity="1" transform="matrix(1,0,0,1,0,0)"><path stroke-linecap="round" stroke-linejoin="round" fill-opacity="0" stroke="rgb(201,82,0)" stroke-opacity="1" stroke-width="8" d=" M37.49800109863281,211.55799865722656 C37.49800109863281,211.55799865722656 51.28900146484375,166.36599731445312 64.53500366210938,107.11900329589844 C64.53500366210938,107.11900329589844 102.83899688720703,117.60600280761719 130.04600524902344,139.0850067138672 C130.04600524902344,139.0850067138672 131.1199951171875,165.10499572753906 128.25599670410156,211.55799865722656"></path></g><g opacity="1" transform="matrix(1,0,0,1,0,0)"><path stroke-linecap="round" stroke-linejoin="round" fill-opacity="0" stroke="rgb(180,70,0)" stroke-opacity="1" stroke-width="8" d=" M64.53500366210938,107.11900329589844 C64.53500366210938,107.11900329589844 102.83899688720703,117.60600280761719 130.04600524902344,139.0850067138672"></path></g><g opacity="1" transform="matrix(1,0,0,1,0,0)"><path stroke-linecap="butt" stroke-linejoin="round" fill-opacity="0" stroke="rgb(215,180,0)" stroke-opacity="1" stroke-width="8" d=" M89.63200378417969,116.10399627685547 C96.47599792480469,118.99299621582031 104.10399627685547,122.58399963378906 111.69200134277344,126.88700103759766 C111.69200134277344,126.88700103759766 113.37100219726562,127.85199737548828 113.37100219726562,127.85199737548828"></path></g></g><g opacity="1" transform="matrix(1,0,0,1,0,0)"><g opacity="1" transform="matrix(1,0,0,1,0,0)"><path fill="url(#__lottie_element_62)" fill-opacity="1" d=" M37.49800109863281,215.55799865722656 C37.49800109863281,215.55799865722656 51.28900146484375,166.36599731445312 64.53500366210938,107.11900329589844 C64.53500366210938,107.11900329589844 102.83899688720703,117.60600280761719 130.04600524902344,139.0850067138672 C130.04600524902344,139.0850067138672 131.1199951171875,169.10499572753906 128.25599670410156,215.55799865722656"></path></g><g opacity="1" transform="matrix(1,0,0,1,0,0)"><path fill="url(#__lottie_element_63)" fill-opacity="1" d=" M89.03800201416016,115.0270004272461 C89.03800201416016,115.0270004272461 82.27100372314453,159.6020050048828 69.0479965209961,215.55799865722656 C69.0479965209961,215.55799865722656 99.93800354003906,215.55799865722656 99.93800354003906,215.55799865722656 C99.93800354003906,215.55799865722656 107.74400329589844,175.36700439453125 111.77899932861328,125.82599639892578 C111.77899932861328,125.82599639892578 89.03800201416016,115.0270004272461 89.03800201416016,115.0270004272461z"></path></g><g opacity="1" transform="matrix(1,0,0,1,0,0)"><path stroke-linecap="round" stroke-linejoin="round" fill-opacity="0" stroke="rgb(255,255,255)" stroke-opacity="0.3" stroke-width="8" d=" M130.052001953125,146.33799743652344 C130.052001953125,146.33799743652344 101.04399871826172,122.3479995727539 62.90800094604492,114.31500244140625"></path></g><g opacity="1" transform="matrix(1,0,0,1,0,0)"><path stroke-linecap="round" stroke-linejoin="round" fill-opacity="0" stroke="rgb(201,82,0)" stroke-opacity="1" stroke-width="8" d=" M37.49800109863281,211.55799865722656 C37.49800109863281,211.55799865722656 51.28900146484375,166.36599731445312 64.53500366210938,107.11900329589844 C64.53500366210938,107.11900329589844 102.83899688720703,117.60600280761719 130.04600524902344,139.0850067138672 C130.04600524902344,139.0850067138672 131.1199951171875,165.10499572753906 128.25599670410156,211.55799865722656"></path></g><g opacity="1" transform="matrix(1,0,0,1,0,0)"><path stroke-linecap="round" stroke-linejoin="round" fill-opacity="0" stroke="rgb(180,70,0)" stroke-opacity="1" stroke-width="8" d=" M64.53500366210938,107.11900329589844 C64.53500366210938,107.11900329589844 102.83899688720703,117.60600280761719 130.04600524902344,139.0850067138672"></path></g><g opacity="1" transform="matrix(1,0,0,1,0,0)"><path stroke-linecap="butt" stroke-linejoin="round" fill-opacity="0" stroke="rgb(215,180,0)" stroke-opacity="1" stroke-width="8" d=" M89.63200378417969,116.10399627685547 C96.47599792480469,118.99299621582031 104.10399627685547,122.58399963378906 111.69200134277344,126.88700103759766 C111.69200134277344,126.88700103759766 113.37100219726562,127.85199737548828 113.37100219726562,127.85199737548828"></path></g></g></g><g style="display: block;" transform="matrix(1.0299999713897705,0,0,1.0299999713897705,252.65170288085938,253.51556396484375)" opacity="1"><g opacity="1" transform="matrix(1,0,0,1,0,0)"><path fill="rgb(218,110,0)" fill-opacity="1" d=" M103.20600128173828,13.46399974822998 C103.20600128173828,13.46399974822998 101.1969985961914,33.42399978637695 106.78800201416016,48.87900161743164 C106.78800201416016,48.87900161743164 100.76699829101562,48.89500045776367 93.88600158691406,45.34600067138672 C93.88600158691406,45.34600067138672 93.74299621582031,51.87900161743164 96.322998046875,57.415000915527344 C96.322998046875,57.415000915527344 89.06300354003906,56.358001708984375 84.99800109863281,52.44599914550781 C84.99800109863281,52.44599914550781 83.802001953125,56.79600143432617 84.13700103759766,61.73099899291992 C84.13700103759766,61.73099899291992 79.55400085449219,61.03900146484375 72.24299621582031,51.77399826049805 C64.93199920654297,42.50899887084961 83.27899932861328,11.390999794006348 103.20600128173828,13.46399974822998z"></path><path stroke-linecap="round" stroke-linejoin="round" fill-opacity="0" stroke="rgb(163,65,0)" stroke-opacity="1" stroke-width="8" d=" M103.20600128173828,13.46399974822998 C103.20600128173828,13.46399974822998 101.1969985961914,33.42399978637695 106.78800201416016,48.87900161743164 C106.78800201416016,48.87900161743164 100.76699829101562,48.89500045776367 93.88600158691406,45.34600067138672 C93.88600158691406,45.34600067138672 93.74299621582031,51.87900161743164 96.322998046875,57.415000915527344 C96.322998046875,57.415000915527344 89.06300354003906,56.358001708984375 84.99800109863281,52.44599914550781 C84.99800109863281,52.44599914550781 83.802001953125,56.79600143432617 84.13700103759766,61.73099899291992 C84.13700103759766,61.73099899291992 79.55400085449219,61.03900146484375 72.24299621582031,51.77399826049805 C64.93199920654297,42.50899887084961 83.27899932861328,11.390999794006348 103.20600128173828,13.46399974822998z"></path></g><g opacity="1" transform="matrix(1,0,0,1,0,0)"><path fill="rgb(218,110,0)" fill-opacity="1" d=" M-97.76699829101562,16.663000106811523 C-97.76699829101562,16.663000106811523 -95.70600128173828,31.954999923706055 -102.50199890136719,47.87900161743164 C-102.50199890136719,47.87900161743164 -97.44100189208984,46.7400016784668 -90.97899627685547,45.31800079345703 C-90.97899627685547,45.31800079345703 -92.41500091552734,51.80500030517578 -93.85099792480469,55.387001037597656 C-93.85099792480469,55.387001037597656 -86.56199645996094,55.516998291015625 -81.50199890136719,52.62799835205078 C-81.50199890136719,52.62799835205078 -80.99600219726562,56.24100112915039 -81.50199890136719,61.10200119018555 C-81.50199890136719,61.10200119018555 -71.9530029296875,58.30500030517578 -65.31199645996094,48.025001525878906 C-58.67100143432617,37.744998931884766 -81.5790023803711,8.270000457763672 -97.76699829101562,16.663000106811523z"></path><path stroke-linecap="round" stroke-linejoin="round" fill-opacity="0" stroke="rgb(163,65,0)" stroke-opacity="1" stroke-width="8" d=" M-97.76699829101562,16.663000106811523 C-97.76699829101562,16.663000106811523 -95.70600128173828,31.954999923706055 -102.50199890136719,47.87900161743164 C-102.50199890136719,47.87900161743164 -97.44100189208984,46.7400016784668 -90.97899627685547,45.31800079345703 C-90.97899627685547,45.31800079345703 -92.41500091552734,51.80500030517578 -93.85099792480469,55.387001037597656 C-93.85099792480469,55.387001037597656 -86.56199645996094,55.516998291015625 -81.50199890136719,52.62799835205078 C-81.50199890136719,52.62799835205078 -80.99600219726562,56.24100112915039 -81.50199890136719,61.10200119018555 C-81.50199890136719,61.10200119018555 -71.9530029296875,58.30500030517578 -65.31199645996094,48.025001525878906 C-58.67100143432617,37.744998931884766 -81.5790023803711,8.270000457763672 -97.76699829101562,16.663000106811523z"></path></g></g><g style="display: block;" transform="matrix(1.0299999713897705,0,0,1.0299999713897705,252.65184020996094,253.5159912109375)" opacity="1"><g opacity="1" transform="matrix(1,0,0,1,0,0)"><path fill="rgb(255,168,0)" fill-opacity="1" d=" M-103.625,-39.03499984741211 C-110.68800354003906,-40.25199890136719 -111.18299865722656,-24.41699981689453 -108.2509994506836,-10.387999534606934 C-105.53700256347656,2.5999999046325684 -100.13700103759766,18.422000885009766 -90.43099975585938,15.477999687194824 C-80.7249984741211,12.534000396728516 -79.41899871826172,-34.862998962402344 -103.625,-39.03499984741211z"></path><path stroke-linecap="round" stroke-linejoin="round" fill-opacity="0" stroke="rgb(219,110,0)" stroke-opacity="1" stroke-width="8" d=" M-103.625,-39.03499984741211 C-110.68800354003906,-40.25199890136719 -111.18299865722656,-24.41699981689453 -108.2509994506836,-10.387999534606934 C-105.53700256347656,2.5999999046325684 -100.13700103759766,18.422000885009766 -90.43099975585938,15.477999687194824 C-80.7249984741211,12.534000396728516 -79.41899871826172,-34.862998962402344 -103.625,-39.03499984741211z"></path></g><g opacity="1" transform="matrix(1,0,0,1,0,0)"><path fill="rgb(255,168,0)" fill-opacity="1" d=" M110.56999969482422,-39.03499984741211 C117.63300323486328,-40.25199890136719 118.12799835205078,-24.41699981689453 115.19599914550781,-10.387999534606934 C112.48200225830078,2.5999999046325684 107.08100128173828,18.422000885009766 97.375,15.477999687194824 C87.66899871826172,12.534000396728516 86.36399841308594,-34.862998962402344 110.56999969482422,-39.03499984741211z"></path><path stroke-linecap="round" stroke-linejoin="round" fill-opacity="0" stroke="rgb(219,110,0)" stroke-opacity="1" stroke-width="8" d=" M110.56999969482422,-39.03499984741211 C117.63300323486328,-40.25199890136719 118.12799835205078,-24.41699981689453 115.19599914550781,-10.387999534606934 C112.48200225830078,2.5999999046325684 107.08100128173828,18.422000885009766 97.375,15.477999687194824 C87.66899871826172,12.534000396728516 86.36399841308594,-34.862998962402344 110.56999969482422,-39.03499984741211z"></path></g></g><g style="display: block;" transform="matrix(1.0299999713897705,0,0,1.0299999713897705,252.65121459960938,253.51577758789062)" opacity="1"><g opacity="1" transform="matrix(1,0,0,1,0,0)"><g opacity="1" transform="matrix(1,0,0,1,0,0)"><path fill="rgb(255,168,0)" fill-opacity="1" d=" M81.25199890136719,-118.45700073242188 C38.930999755859375,-176.10800170898438 -50.875,-149.40899658203125 -73.13200378417969,-118.45700073242188 C-94.11900329589844,-89.27200317382812 -106.9209976196289,-15.88599967956543 -83.46399688720703,33.38100051879883 C-60.00699996948242,82.64800262451172 -19.52899932861328,96.52200317382812 4.059999942779541,96.52200317382812 C27.64900016784668,96.52200317382812 68.12699890136719,82.64800262451172 91.58399963378906,33.38100051879883 C115.04100036621094,-15.88599967956543 103.20099639892578,-88.55699920654297 81.25199890136719,-118.45700073242188z"></path><path stroke-linecap="round" stroke-linejoin="round" fill-opacity="0" stroke="rgb(219,110,0)" stroke-opacity="1" stroke-width="8" d=" M81.25199890136719,-118.45700073242188 C38.930999755859375,-176.10800170898438 -50.875,-149.40899658203125 -73.13200378417969,-118.45700073242188 C-94.11900329589844,-89.27200317382812 -106.9209976196289,-15.88599967956543 -83.46399688720703,33.38100051879883 C-60.00699996948242,82.64800262451172 -19.52899932861328,96.52200317382812 4.059999942779541,96.52200317382812 C27.64900016784668,96.52200317382812 68.12699890136719,82.64800262451172 91.58399963378906,33.38100051879883 C115.04100036621094,-15.88599967956543 103.20099639892578,-88.55699920654297 81.25199890136719,-118.45700073242188z"></path></g><g opacity="1" transform="matrix(1,0,0,1,0,0)"><path fill="url(#__lottie_element_48)" fill-opacity="1" d=" M2.48799991607666,79.40299987792969 C-41.939998626708984,78.37799835205078 -91.05799865722656,32.768001556396484 -83.05899810791016,-46.24800109863281 C-83.05899810791016,-46.24800109863281 -75.24199676513672,-55.29600143432617 -70.85700225830078,-66.66200256347656 C-70.85700225830078,-66.66200256347656 -60.310001373291016,-60.09700012207031 -61.43299865722656,-77.46600341796875 C-61.43299865722656,-77.46600341796875 -58.172000885009766,-94.36799621582031 -56.41400146484375,-107.63600158691406 C-56.41400146484375,-107.63600158691406 62.45199966430664,-61.534000396728516 63.887001037597656,-67.20899963378906 C63.887001037597656,-67.20899963378906 75.38700103759766,-50.73400115966797 77.64299774169922,-57.99700164794922 C77.64299774169922,-57.99700164794922 87.89299774169922,-42.89099884033203 90.41999816894531,-32.180999755859375 C93.94400024414062,-17.249000549316406 89.15399932861328,9.732999801635742 76.72000122070312,32.28799819946289 C61.202999114990234,60.435001373291016 34.76599884033203,80.14800262451172 2.48799991607666,79.40299987792969z"></path></g><g opacity="1" transform="matrix(1,0,0,1,0,0)"><path fill="url(#__lottie_element_49)" fill-opacity="1" d=" M81.25199890136719,-118.45700073242188 C38.930999755859375,-176.10800170898438 -50.875,-149.40899658203125 -73.13200378417969,-118.45700073242188 C-94.11900329589844,-89.27200317382812 -106.9209976196289,-15.88599967956543 -83.46399688720703,33.38100051879883 C-60.00699996948242,82.64800262451172 -19.52899932861328,96.52200317382812 4.059999942779541,96.52200317382812 C27.64900016784668,96.52200317382812 68.12699890136719,82.64800262451172 91.58399963378906,33.38100051879883 C115.04100036621094,-15.88599967956543 103.20099639892578,-88.55699920654297 81.25199890136719,-118.45700073242188z"></path></g></g></g><g style="display: block;" transform="matrix(0.7519000172615051,0,0,0.7519000172615051,257.5016784667969,197.57257080078125)" opacity="1"><g opacity="1" transform="matrix(1,0,0,1,0,0)"><path fill="url(#__lottie_element_41)" fill-opacity="1" d=" M20.55699920654297,103.68299865722656 C20.55699920654297,112.51599884033203 9.977999687194824,120.36799621582031 -1.5410000085830688,120.36799621582031 C-13.0600004196167,120.36799621582031 -23.638999938964844,112.51599884033203 -23.638999938964844,103.68299865722656 C-23.638999938964844,94.85099792480469 -13.0600004196167,86.75199890136719 -1.5410000085830688,86.75199890136719 C9.977999687194824,86.75199890136719 20.55699920654297,94.85099792480469 20.55699920654297,103.68299865722656z"></path></g><g opacity="1" transform="matrix(1,0,0,1,0,0)"><path fill="rgb(255,168,0)" fill-opacity="0.8" d=" M20.55699920654297,94.10800170898438 C20.55699920654297,102.94100189208984 10.663000106811523,109.47899627685547 -1.5410000085830688,109.47899627685547 C-13.746000289916992,109.47899627685547 -23.638999938964844,102.94100189208984 -23.638999938964844,94.10800170898438 C-23.638999938964844,85.2760009765625 -13.746000289916992,78.49199676513672 -1.5410000085830688,78.49199676513672 C10.663000106811523,78.49199676513672 20.55699920654297,85.2760009765625 20.55699920654297,94.10800170898438z"></path></g><g opacity="1" transform="matrix(1,0,0,1,0,0)"><path fill="url(#__lottie_element_42)" fill-opacity="1" d=" M20.55699920654297,94.10800170898438 C20.55699920654297,102.94100189208984 10.663000106811523,109.47899627685547 -1.5410000085830688,109.47899627685547 C-13.746000289916992,109.47899627685547 -23.638999938964844,102.94100189208984 -23.638999938964844,94.10800170898438 C-23.638999938964844,85.2760009765625 -13.746000289916992,78.49199676513672 -1.5410000085830688,78.49199676513672 C10.663000106811523,78.49199676513672 20.55699920654297,85.2760009765625 20.55699920654297,94.10800170898438z"></path></g><g opacity="1" transform="matrix(1,0,0,1,0,0)"><path fill="rgb(255,216,0)" fill-opacity="1" d=" M18.388999938964844,90.01699829101562 C18.388999938964844,96.59200286865234 11.600000381469727,102.87899780273438 -1.5410000085830688,102.87899780273438 C-14.861000061035156,102.87899780273438 -21.472000122070312,96.59200286865234 -21.472000122070312,90.01699829101562 C-21.472000122070312,83.44200134277344 -12.098999977111816,78.23400115966797 -1.5410000085830688,78.23400115966797 C9.017000198364258,78.23400115966797 18.388999938964844,83.44200134277344 18.388999938964844,90.01699829101562z"></path></g><g opacity="1" transform="matrix(1,0,0,1,0,0)"><path fill="url(#__lottie_element_43)" fill-opacity="1" d=" M18.388999938964844,90.01699829101562 C18.388999938964844,96.59200286865234 11.600000381469727,102.87899780273438 -1.5410000085830688,102.87899780273438 C-14.861000061035156,102.87899780273438 -21.472000122070312,96.59200286865234 -21.472000122070312,90.01699829101562 C-21.472000122070312,83.44200134277344 -12.098999977111816,78.23400115966797 -1.5410000085830688,78.23400115966797 C9.017000198364258,78.23400115966797 18.388999938964844,83.44200134277344 18.388999938964844,90.01699829101562z"></path></g><g opacity="1" transform="matrix(1,0,0,1,0,0)"><path fill="url(#__lottie_element_44)" fill-opacity="0.7000000000000001" d=" M9.892999649047852,84.93199920654297 C9.892999649047852,88.39299774169922 4.77400016784668,91.64900207519531 -1.5410000085830688,91.64900207519531 C-7.855999946594238,91.64900207519531 -12.97599983215332,88.39299774169922 -12.97599983215332,84.93199920654297 C-12.97599983215332,81.47100067138672 -7.855999946594238,79.73400115966797 -1.5410000085830688,79.73400115966797 C4.77400016784668,79.73400115966797 9.892999649047852,81.47100067138672 9.892999649047852,84.93199920654297z"></path></g></g><g style="display: block;" transform="matrix(0.7312999963760376,0,0,0.7312999963760376,257.75115966796875,200.15322875976562)" opacity="1"><g opacity="1" transform="matrix(1,0,0,1,0,0)"><path fill="url(#__lottie_element_34)" fill-opacity="1" d=" M39.138999938964844,134.47799682617188 C36.43299865722656,131.96200561523438 32.07500076293945,131.3979949951172 -1.3819999694824219,131.3979949951172 C-34.03300094604492,131.3979949951172 -38.7599983215332,131.96200561523438 -41.90299987792969,134.47799682617188 C-44.38600158691406,136.46600341796875 -43.564998626708984,153.8350067138672 -1.3890000581741333,153.8350067138672 C40.11000061035156,153.8350067138672 41.32099914550781,136.50599670410156 39.138999938964844,134.47799682617188z"></path></g><g opacity="1" transform="matrix(1,0,0,1,0,0)"><path fill="url(#__lottie_element_35)" fill-opacity="0.7000000000000001" d=" M38.880001068115234,140.3470001220703 C37.948001861572266,135.16799926757812 -40.1510009765625,134.84300231933594 -41.64400100708008,140.3470001220703 C-42.24100112915039,142.54800415039062 -28.93199920654297,158.6320037841797 -1.3890000581741333,158.6320037841797 C25.687000274658203,158.6320037841797 39.29800033569336,142.6699981689453 38.880001068115234,140.3470001220703z"></path></g><g opacity="1" transform="matrix(1,0,0,1,0,0)"><path fill="rgb(136,24,4)" fill-opacity="1" d=" M37.847999572753906,137.9969940185547 C36.301998138427734,135.7209930419922 32.07500076293945,136.08999633789062 -1.3819999694824219,136.08999633789062 C-34.03300094604492,136.08999633789062 -38.880001068115234,135.8000030517578 -40.61199951171875,137.9969940185547 C-42.132999420166016,139.9250030517578 -28.93199920654297,153.8350067138672 -1.3890000581741333,153.8350067138672 C25.687000274658203,153.8350067138672 39.26300048828125,140.08099365234375 37.847999572753906,137.9969940185547z"></path></g><g opacity="1" transform="matrix(1,0,0,1,0,0)"><path fill="url(#__lottie_element_36)" fill-opacity="1" d=" M37.847999572753906,137.9969940185547 C36.301998138427734,135.7209930419922 32.07500076293945,136.08999633789062 -1.3819999694824219,136.08999633789062 C-34.03300094604492,136.08999633789062 -38.880001068115234,135.8000030517578 -40.61199951171875,137.9969940185547 C-42.132999420166016,139.9250030517578 -28.93199920654297,153.8350067138672 -1.3890000581741333,153.8350067138672 C25.687000274658203,153.8350067138672 39.26300048828125,140.08099365234375 37.847999572753906,137.9969940185547z"></path></g><g opacity="1" transform="matrix(1,0,0,1,0,0)"><path fill="url(#__lottie_element_37)" fill-opacity="0.5" d=" M22.57900047302246,158.6320037841797 C22.57900047302246,163.9499969482422 15.295000076293945,171.6490020751953 -1.3890000581741333,171.6490020751953 C-18.072999954223633,171.6490020751953 -25.357999801635742,163.9499969482422 -25.357999801635742,158.6320037841797 C-25.357999801635742,153.31399536132812 -18.072999954223633,158.6320037841797 -1.3890000581741333,158.6320037841797 C15.295000076293945,158.6320037841797 22.57900047302246,153.31399536132812 22.57900047302246,158.6320037841797z"></path></g></g><g style="display: block;" transform="matrix(1.0299999713897705,0,0,1.0299999713897705,252.65155029296875,253.51641845703125)" opacity="1"><g opacity="1" transform="matrix(1,0,0,1,0,0)"><g opacity="1" transform="matrix(1,0,0,1,0,0)"><path fill="rgb(255,255,255)" fill-opacity="1" d=" M-18.996000289916992,-21.55299949645996 C-18.996000289916992,-21.55299949645996 -23.17300033569336,-49.244998931884766 -45.74300003051758,-49.24300003051758 C-66.802001953125,-49.24100112915039 -76.06600189208984,-29.198999404907227 -76.06600189208984,-23.57200050354004 C-76.06600189208984,-23.57200050354004 -67.59200286865234,-8.902999877929688 -47.14699935913086,-8.920999526977539 C-24.11400032043457,-8.940999984741211 -18.996000289916992,-21.55299949645996 -18.996000289916992,-21.55299949645996z"></path></g><g opacity="1" transform="matrix(1,0,0,1,0,0)"><g opacity="1" transform="matrix(1,0,0,1,0,0)"><path fill="url(#__lottie_element_25)" fill-opacity="1" d=" M-30.139999389648438,-29.082000732421875 C-30.139999389648438,-19.634000778198242 -37.834999084472656,-11.975000381469727 -47.32699966430664,-11.975000381469727 C-56.819000244140625,-11.975000381469727 -64.51300048828125,-19.634000778198242 -64.51300048828125,-29.082000732421875 C-64.51300048828125,-38.529998779296875 -56.819000244140625,-46.18899917602539 -47.32699966430664,-46.18899917602539 C-37.834999084472656,-46.18899917602539 -30.139999389648438,-38.529998779296875 -30.139999389648438,-29.082000732421875z"></path></g><g opacity="1" transform="matrix(1,0,0,1,0,0)"><g opacity="1" transform="matrix(1,0,0,1,0,0)"><path fill="url(#__lottie_element_26)" fill-opacity="1" d=" M-42.75,-12.925000190734863 C-44.053001403808594,-12.925000190734863 -45.25899887084961,-13.767000198364258 -45.66299819946289,-15.07699966430664 C-46.15999984741211,-16.68600082397461 -45.257999420166016,-18.39299964904785 -43.64799880981445,-18.888999938964844 C-40.56999969482422,-19.839000701904297 -38.11899948120117,-22.229999542236328 -37.09299850463867,-25.28700065612793 C-36.55699920654297,-26.884000778198242 -34.82500076293945,-27.743000030517578 -33.231998443603516,-27.20800018310547 C-31.635000228881836,-26.672000885009766 -30.774999618530273,-24.94300079345703 -31.31100082397461,-23.34600067138672 C-32.959999084472656,-18.433000564575195 -36.900001525878906,-14.588000297546387 -41.85100173950195,-13.060999870300293 C-42.150001525878906,-12.968999862670898 -42.452999114990234,-12.925000190734863 -42.75,-12.925000190734863z"></path></g></g><g opacity="1" transform="matrix(1,0,0,1,0,0)"><path fill="rgb(23,19,10)" fill-opacity="1" d=" M-36.46500015258789,-29.082000732421875 C-36.46500015258789,-23.111000061035156 -41.327999114990234,-18.270000457763672 -47.32699966430664,-18.270000457763672 C-53.32600021362305,-18.270000457763672 -58.1879997253418,-23.111000061035156 -58.1879997253418,-29.082000732421875 C-58.1879997253418,-35.053001403808594 -53.32600021362305,-39.89400100708008 -47.32699966430664,-39.89400100708008 C-41.327999114990234,-39.89400100708008 -36.46500015258789,-35.053001403808594 -36.46500015258789,-29.082000732421875z"></path></g><g opacity="1" transform="matrix(1,0,0,1,0,0)"><path fill="url(#__lottie_element_27)" fill-opacity="1" d=" M-48.28900146484375,-37.56100082397461 C-48.28900146484375,-35.292999267578125 -50.13600158691406,-33.45500183105469 -52.41400146484375,-33.45500183105469 C-54.69200134277344,-33.45500183105469 -56.53799819946289,-35.292999267578125 -56.53799819946289,-37.56100082397461 C-56.53799819946289,-39.82899856567383 -54.69200134277344,-41.66699981689453 -52.41400146484375,-41.66699981689453 C-50.13600158691406,-41.66699981689453 -48.28900146484375,-39.82899856567383 -48.28900146484375,-37.56100082397461z"></path></g></g><g opacity="1" transform="matrix(1,0,0,1,0,0)"><path fill="rgb(163,65,0)" fill-opacity="1" d=" M-19.219999313354492,-25.450000762939453 C-19.219999313354492,-25.450000762939453 -26.06100082397461,-51.1349983215332 -48.16699981689453,-50.90399932861328 C-70.27300262451172,-50.672000885009766 -75.1780014038086,-29.81100082397461 -76.06600189208984,-23.57200050354004 C-76.06600189208984,-23.57200050354004 -72.51000213623047,-48.672000885009766 -47.31800079345703,-48.95399856567383 C-26.454999923706055,-49.1879997253418 -19.219999313354492,-25.450000762939453 -19.219999313354492,-25.450000762939453z"></path><path stroke-linecap="round" stroke-linejoin="round" fill-opacity="0" stroke="rgb(163,65,0)" stroke-opacity="1" stroke-width="2" d=" M-19.219999313354492,-25.450000762939453 C-19.219999313354492,-25.450000762939453 -26.06100082397461,-51.1349983215332 -48.16699981689453,-50.90399932861328 C-70.27300262451172,-50.672000885009766 -75.1780014038086,-29.81100082397461 -76.06600189208984,-23.57200050354004 C-76.06600189208984,-23.57200050354004 -72.51000213623047,-48.672000885009766 -47.31800079345703,-48.95399856567383 C-26.454999923706055,-49.1879997253418 -19.219999313354492,-25.450000762939453 -19.219999313354492,-25.450000762939453z"></path></g></g><g opacity="1" transform="matrix(1,0,0,1,0,0)"><g opacity="1" transform="matrix(1,0,0,1,0,0)"><path fill="rgb(255,255,255)" fill-opacity="1" d=" M25.559999465942383,-21.55299949645996 C25.559999465942383,-21.55299949645996 29.73699951171875,-49.244998931884766 52.30699920654297,-49.24300003051758 C73.36599731445312,-49.24100112915039 82.62999725341797,-29.198999404907227 82.62999725341797,-23.57200050354004 C82.62999725341797,-23.57200050354004 74.15499877929688,-8.902999877929688 53.709999084472656,-8.920999526977539 C30.677000045776367,-8.940999984741211 25.559999465942383,-21.55299949645996 25.559999465942383,-21.55299949645996z"></path></g><g opacity="1" transform="matrix(1,0,0,1,0,0)"><g opacity="1" transform="matrix(1,0,0,1,0,0)"><path fill="url(#__lottie_element_28)" fill-opacity="1" d=" M71.07599639892578,-29.082000732421875 C71.07599639892578,-19.634000778198242 63.38199996948242,-11.975000381469727 53.88999938964844,-11.975000381469727 C44.39799880981445,-11.975000381469727 36.702999114990234,-19.634000778198242 36.702999114990234,-29.082000732421875 C36.702999114990234,-38.529998779296875 44.39799880981445,-46.18899917602539 53.88999938964844,-46.18899917602539 C63.38199996948242,-46.18899917602539 71.07599639892578,-38.529998779296875 71.07599639892578,-29.082000732421875z"></path></g><g opacity="1" transform="matrix(1,0,0,1,0,0)"><g opacity="1" transform="matrix(1,0,0,1,0,0)"><path fill="url(#__lottie_element_29)" fill-opacity="1" d=" M58.51300048828125,-12.925000190734863 C57.209999084472656,-12.925000190734863 56.00299835205078,-13.767000198364258 55.5989990234375,-15.07699966430664 C55.10200119018555,-16.68600082397461 56.005001068115234,-18.39299964904785 57.6150016784668,-18.888999938964844 C60.69300079345703,-19.839000701904297 63.14400100708008,-22.229999542236328 64.16999816894531,-25.28700065612793 C64.70600128173828,-26.884000778198242 66.43800354003906,-27.743000030517578 68.03099822998047,-27.20800018310547 C69.62799835205078,-26.672000885009766 70.48799896240234,-24.94300079345703 69.9520034790039,-23.34600067138672 C68.3030014038086,-18.433000564575195 64.36299896240234,-14.588000297546387 59.4119987487793,-13.060999870300293 C59.112998962402344,-12.968999862670898 58.810001373291016,-12.925000190734863 58.51300048828125,-12.925000190734863z"></path></g></g><g opacity="1" transform="matrix(1,0,0,1,0,0)"><path fill="rgb(23,19,10)" fill-opacity="1" d=" M64.75199890136719,-29.082000732421875 C64.75199890136719,-23.111000061035156 59.888999938964844,-18.270000457763672 53.88999938964844,-18.270000457763672 C47.89099884033203,-18.270000457763672 43.02799987792969,-23.111000061035156 43.02799987792969,-29.082000732421875 C43.02799987792969,-35.053001403808594 47.89099884033203,-39.89400100708008 53.88999938964844,-39.89400100708008 C59.888999938964844,-39.89400100708008 64.75199890136719,-35.053001403808594 64.75199890136719,-29.082000732421875z"></path></g><g opacity="1" transform="matrix(1,0,0,1,0,0)"><path fill="url(#__lottie_element_30)" fill-opacity="1" d=" M52.926998138427734,-37.56100082397461 C52.926998138427734,-35.292999267578125 51.08100128173828,-33.45500183105469 48.803001403808594,-33.45500183105469 C46.525001525878906,-33.45500183105469 44.678001403808594,-35.292999267578125 44.678001403808594,-37.56100082397461 C44.678001403808594,-39.82899856567383 46.525001525878906,-41.66699981689453 48.803001403808594,-41.66699981689453 C51.08100128173828,-41.66699981689453 52.926998138427734,-39.82899856567383 52.926998138427734,-37.56100082397461z"></path></g></g><g opacity="1" transform="matrix(1,0,0,1,0,0)"><path fill="rgb(163,65,0)" fill-opacity="1" d=" M25.784000396728516,-25.450000762939453 C25.784000396728516,-25.450000762939453 32.625,-51.1349983215332 54.73099899291992,-50.90399932861328 C76.83699798583984,-50.672000885009766 81.74199676513672,-29.81100082397461 82.62999725341797,-23.57200050354004 C82.62999725341797,-23.57200050354004 79.0739974975586,-48.672000885009766 53.88199996948242,-48.95399856567383 C33.01900100708008,-49.1879997253418 25.784000396728516,-25.450000762939453 25.784000396728516,-25.450000762939453z"></path><path stroke-linecap="round" stroke-linejoin="round" fill-opacity="0" stroke="rgb(163,65,0)" stroke-opacity="1" stroke-width="2" d=" M25.784000396728516,-25.450000762939453 C25.784000396728516,-25.450000762939453 32.625,-51.1349983215332 54.73099899291992,-50.90399932861328 C76.83699798583984,-50.672000885009766 81.74199676513672,-29.81100082397461 82.62999725341797,-23.57200050354004 C82.62999725341797,-23.57200050354004 79.0739974975586,-48.672000885009766 53.88199996948242,-48.95399856567383 C33.01900100708008,-49.1879997253418 25.784000396728516,-25.450000762939453 25.784000396728516,-25.450000762939453z"></path></g></g></g><g style="display: block;" transform="matrix(1.0299999713897705,0,0,1.0299999713897705,252.65150451660156,253.5167236328125)" opacity="1"><g opacity="1" transform="matrix(1,0,0,1,0,0)"><path fill="rgb(163,65,0)" fill-opacity="1" d=" M-71.38300323486328,-58.23699951171875 C-72.73999786376953,-60.70100021362305 -60.32600021362305,-69.03500366210938 -45.16299819946289,-69.35800170898438 C-32.678001403808594,-69.6240005493164 -30.98200035095215,-65.95500183105469 -31.68000030517578,-64.6760025024414 C-32.37699890136719,-63.39699935913086 -40.12300109863281,-66.39900207519531 -54.12099838256836,-63.65599822998047 C-68.40499877929688,-60.856998443603516 -70.71900177001953,-57.03099822998047 -71.38300323486328,-58.23699951171875z"></path><path stroke-linecap="round" stroke-linejoin="round" fill-opacity="0" stroke="rgb(163,65,0)" stroke-opacity="1" stroke-width="2" d=" M-71.38300323486328,-58.23699951171875 C-72.73999786376953,-60.70100021362305 -60.32600021362305,-69.03500366210938 -45.16299819946289,-69.35800170898438 C-32.678001403808594,-69.6240005493164 -30.98200035095215,-65.95500183105469 -31.68000030517578,-64.6760025024414 C-32.37699890136719,-63.39699935913086 -40.12300109863281,-66.39900207519531 -54.12099838256836,-63.65599822998047 C-68.40499877929688,-60.856998443603516 -70.71900177001953,-57.03099822998047 -71.38300323486328,-58.23699951171875z"></path></g><g opacity="1" transform="matrix(1,0,0,1,0,0)"><path fill="rgb(163,65,0)" fill-opacity="1" d=" M74.55000305175781,-58.23699951171875 C75.90699768066406,-60.70100021362305 63.49300003051758,-69.03500366210938 48.33000183105469,-69.35800170898438 C35.845001220703125,-69.6240005493164 34.150001525878906,-65.95500183105469 34.84700012207031,-64.6760025024414 C35.54399871826172,-63.39699935913086 43.290000915527344,-66.39900207519531 57.28799819946289,-63.65599822998047 C71.5719985961914,-60.856998443603516 73.88600158691406,-57.03099822998047 74.55000305175781,-58.23699951171875z"></path><path stroke-linecap="round" stroke-linejoin="round" fill-opacity="0" stroke="rgb(163,65,0)" stroke-opacity="1" stroke-width="2" d=" M74.55000305175781,-58.23699951171875 C75.90699768066406,-60.70100021362305 63.49300003051758,-69.03500366210938 48.33000183105469,-69.35800170898438 C35.845001220703125,-69.6240005493164 34.150001525878906,-65.95500183105469 34.84700012207031,-64.6760025024414 C35.54399871826172,-63.39699935913086 43.290000915527344,-66.39900207519531 57.28799819946289,-63.65599822998047 C71.5719985961914,-60.856998443603516 73.88600158691406,-57.03099822998047 74.55000305175781,-58.23699951171875z"></path></g></g><g style="display: block;" transform="matrix(0.9700000286102295,0,0,1,257.2864685058594,256)" opacity="1"><g opacity="1" transform="matrix(1,0,0,1,0,0)"><g opacity="1" transform="matrix(1,0,0,1,0,0)"><path fill="rgb(255,205,0)" fill-opacity="1" d=" M-127.53099822998047,-78 C-127.53099822998047,-78 -92.93099975585938,-78 -92.93099975585938,-78 C-98.76100158691406,-65.26000213623047 -108.69100189208984,-53.2599983215332 -108.69100189208984,-53.2599983215332 C-108.6510009765625,-38.779998779296875 -110.97100067138672,-28.700000762939453 -110.97100067138672,-28.700000762939453 C-114.5510025024414,-38.77000045776367 -118.34100341796875,-43.959999084472656 -118.34100341796875,-43.959999084472656 C-122.89099884033203,-47.880001068115234 -126.4209976196289,-61.27000045776367 -127.53099822998047,-78z"></path></g><g opacity="1" transform="matrix(1,0,0,1,0,0)"><path fill="rgb(255,205,0)" fill-opacity="1" d=" M75.72899627685547,-78 C75.72899627685547,-78 77.61900329589844,-78 77.61900329589844,-78 C77.18900299072266,-77.04000091552734 76.8489990234375,-76.54000091552734 76.8489990234375,-76.54000091552734 C76.8489990234375,-76.54000091552734 75.72899627685547,-78 75.72899627685547,-78z"></path></g><g opacity="1" transform="matrix(1,0,0,1,0,0)"><path fill="rgb(255,205,0)" fill-opacity="1" d=" M128.32899475097656,-78 C127.13899993896484,-57.02000045776367 122.02899932861328,-40.709999084472656 113.78900146484375,-43.310001373291016 C112.8290023803711,-37.959999084472656 106.02899932861328,-19.479999542236328 106.02899932861328,-19.479999542236328 C108.23899841308594,-36.52000045776367 97.22899627685547,-61.470001220703125 88.52899932861328,-78 C88.52899932861328,-78 128.32899475097656,-78 128.32899475097656,-78z"></path></g><g opacity="1" transform="matrix(1,0,0,1,0,0)"><path fill="url(#__lottie_element_15)" fill-opacity="1" d=" M-127.53099822998047,-78 C-127.53099822998047,-78 -92.93099975585938,-78 -92.93099975585938,-78 C-98.76100158691406,-65.26000213623047 -108.69100189208984,-53.2599983215332 -108.69100189208984,-53.2599983215332 C-108.6510009765625,-38.779998779296875 -110.97100067138672,-28.700000762939453 -110.97100067138672,-28.700000762939453 C-114.5510025024414,-38.77000045776367 -118.34100341796875,-43.959999084472656 -118.34100341796875,-43.959999084472656 C-122.89099884033203,-47.880001068115234 -126.4209976196289,-61.27000045776367 -127.53099822998047,-78z"></path></g><g opacity="1" transform="matrix(1,0,0,1,0,0)"><path fill="url(#__lottie_element_16)" fill-opacity="1" d=" M128.32899475097656,-78 C127.13899993896484,-57.02000045776367 122.02899932861328,-40.709999084472656 113.78900146484375,-43.310001373291016 C112.8290023803711,-37.959999084472656 106.02899932861328,-19.479999542236328 106.02899932861328,-19.479999542236328 C108.23899841308594,-36.52000045776367 97.22899627685547,-61.470001220703125 88.52899932861328,-78 C88.52899932861328,-78 128.32899475097656,-78 128.32899475097656,-78z"></path></g><g opacity="1" transform="matrix(1,0,0,1,0,0)"><path fill="url(#__lottie_element_17)" fill-opacity="1" d=" M-105.72100067138672,-78 C-105.72100067138672,-78 -92.93099975585938,-78 -92.93099975585938,-78 C-98.76100158691406,-65.26000213623047 -108.69100189208984,-53.2599983215332 -108.69100189208984,-53.2599983215332 C-108.6510009765625,-38.779998779296875 -110.96099853515625,-28.700000762939453 -110.96099853515625,-28.700000762939453 C-114.5510025024414,-38.77000045776367 -120.20099639892578,-48.779998779296875 -120.20099639892578,-48.779998779296875 C-127.53099822998047,-66.39700317382812 -127.55599975585938,-74.06600189208984 -105.72100067138672,-78z"></path></g><g opacity="1" transform="matrix(1,0,0,1,0,0)"><path fill="url(#__lottie_element_18)" fill-opacity="1" d=" M129.98899841308594,-78 C128.57899475097656,-61.31999969482422 123.43900299072266,-46.90999984741211 113.78900146484375,-43.310001373291016 C112.36900329589844,-37.959999084472656 106.02899932861328,-19.479999542236328 106.02899932861328,-19.479999542236328 C104.45899963378906,-30.799999237060547 99.3290023803711,-59.7599983215332 84.55899810791016,-78 C84.55899810791016,-78 97.52899932861328,-78 97.52899932861328,-78 C102.88899993896484,-70.6500015258789 109.48400115966797,-77.34400177001953 111.96399688720703,-75.93399810791016 C116.67400360107422,-73.26399993896484 122.40899658203125,-78 122.40899658203125,-78 C122.40899658203125,-78 129.98899841308594,-78 129.98899841308594,-78z"></path></g><g opacity="1" transform="matrix(1,0,0,1,0,0)"><path stroke-linecap="round" stroke-linejoin="round" fill-opacity="0" stroke="rgb(163,65,0)" stroke-opacity="1" stroke-width="8" d=" M-127.55599975585938,-85.85900115966797 C-126.74700164794922,-72.83799743652344 -123.90799713134766,-58.77199935913086 -118.34600067138672,-43.957000732421875 C-118.34600067138672,-43.957000732421875 -114.552001953125,-38.77399826049805 -110.96700286865234,-28.697999954223633 C-110.96700286865234,-28.697999954223633 -108.6500015258789,-38.78099822998047 -108.68699645996094,-53.26300048828125 C-108.68699645996094,-53.26300048828125 -90.77899932861328,-74.89900207519531 -88.9520034790039,-90.927001953125"></path></g><g opacity="1" transform="matrix(1,0,0,1,0,0)"><path stroke-linecap="round" stroke-linejoin="round" fill-opacity="0" stroke="rgb(163,65,0)" stroke-opacity="1" stroke-width="8" d=" M78.69499969482422,-95.13800048828125 C91.6969985961914,-61.79499816894531 102.30599975585938,-64.33499908447266 106.02899932861328,-19.485000610351562 C106.02899932861328,-19.485000610351562 110.83599853515625,-24.635000228881836 113.79000091552734,-43.308998107910156 C113.79000091552734,-43.308998107910156 124.9520034790039,-35.678001403808594 127.66899871826172,-71.49500274658203 C128.08900451660156,-77.03399658203125 128.24099731445312,-82.38500213623047 128.13900756835938,-87.552001953125"></path></g></g></g><g style="display: block;" transform="matrix(0.9900000095367432,0,0,0.9900000095367432,256.9922180175781,255.10816955566406)" opacity="1"><g opacity="1" transform="matrix(1,0,0,1,0,0)"><path fill="url(#__lottie_element_6)" fill-opacity="1" d=" M38.75699996948242,-210.8820037841797 C38.75699996948242,-210.8820037841797 27.895999908447266,-221.5050048828125 -0.6269999742507935,-221.5050048828125 C-29.149999618530273,-221.5050048828125 -41.012001037597656,-210.8820037841797 -41.012001037597656,-210.8820037841797 C-60.02399826049805,-211.38699340820312 -104.9260025024414,-169.94900512695312 -104.9260025024414,-153.08700561523438 C-104.9260025024414,-136.22500610351562 -104.9260025024414,-99.02100372314453 -104.9260025024414,-99.02100372314453 C-104.9260025024414,-99.02100372314453 -0.6269999742507935,-89.73300170898438 -0.6269999742507935,-89.73300170898438 C-0.6269999742507935,-89.73300170898438 103.6709976196289,-99.02100372314453 103.6709976196289,-99.02100372314453 C103.6709976196289,-99.02100372314453 103.6709976196289,-136.22500610351562 103.6709976196289,-153.08700561523438 C103.6709976196289,-169.94900512695312 57.76900100708008,-211.38699340820312 38.75699996948242,-210.8820037841797z"></path></g><g opacity="1" transform="matrix(1,0,0,1,0,0)"><path fill="url(#__lottie_element_7)" fill-opacity="0.3" d=" M38.75699996948242,-100.7699966430664 C38.75699996948242,-100.7699966430664 -41.012001037597656,-100.7699966430664 -41.012001037597656,-100.7699966430664 C-41.012001037597656,-100.7699966430664 -41.012001037597656,-165.6300048828125 -41.012001037597656,-165.6300048828125 C-41.012001037597656,-165.6300048828125 38.75699996948242,-165.6300048828125 38.75699996948242,-165.6300048828125 C38.75699996948242,-165.6300048828125 38.75699996948242,-100.7699966430664 38.75699996948242,-100.7699966430664z"></path></g><g opacity="1" transform="matrix(1,0,0,1,0,0)"><path fill="url(#__lottie_element_8)" fill-opacity="0.3" d=" M49.965999603271484,-97.55899810791016 C49.965999603271484,-97.55899810791016 27.54800033569336,-97.55899810791016 27.54800033569336,-97.55899810791016 C27.54800033569336,-97.55899810791016 27.54800033569336,-214.6790008544922 27.54800033569336,-214.6790008544922 C27.54800033569336,-214.6790008544922 49.965999603271484,-210.6790008544922 49.965999603271484,-210.6790008544922 C49.965999603271484,-210.6790008544922 49.965999603271484,-97.55899810791016 49.965999603271484,-97.55899810791016z"></path></g><g opacity="1" transform="matrix(1,0,0,1,0,0)"><path fill="url(#__lottie_element_9)" fill-opacity="0.3" d=" M-52.22100067138672,-97.55899810791016 C-52.22100067138672,-97.55899810791016 -29.802000045776367,-97.55899810791016 -29.802000045776367,-97.55899810791016 C-29.802000045776367,-97.55899810791016 -29.802000045776367,-214.6790008544922 -29.802000045776367,-214.6790008544922 C-29.802000045776367,-214.6790008544922 -52.22100067138672,-210.6790008544922 -52.22100067138672,-210.6790008544922 C-52.22100067138672,-210.6790008544922 -52.22100067138672,-97.55899810791016 -52.22100067138672,-97.55899810791016z"></path></g><g opacity="0.7000000000000001" transform="matrix(1,0,0,1,0,0)"><path stroke-linecap="round" stroke-linejoin="round" fill-opacity="0" stroke="rgb(255,233,94)" stroke-opacity="1" stroke-width="6" d=" M-41.012001037597656,-210.8820037841797 C-41.012001037597656,-210.8820037841797 -41.012001037597656,-101.10600280761719 -41.012001037597656,-101.10600280761719"></path></g><g opacity="0.7000000000000001" transform="matrix(1,0,0,1,0,0)"><path stroke-linecap="round" stroke-linejoin="round" fill-opacity="0" stroke="rgb(255,233,94)" stroke-opacity="1" stroke-width="6" d=" M38.75699996948242,-210.8820037841797 C38.75699996948242,-210.8820037841797 38.75699996948242,-101.10600280761719 38.75699996948242,-101.10600280761719"></path></g><g opacity="1" transform="matrix(1,0,0,1,0,0)"><path fill="url(#__lottie_element_10)" fill-opacity="0.5" d=" M103.66899871826172,-153.08999633789062 C103.66899871826172,-136.22000122070312 103.66899871826172,-99.0199966430664 103.66899871826172,-99.0199966430664 C103.66899871826172,-99.0199966430664 100.88899993896484,-98.7699966430664 100.88899993896484,-98.7699966430664 C100.88899993896484,-98.7699966430664 100.88899993896484,-137.08999633789062 100.88899993896484,-137.08999633789062 C100.88899993896484,-153.9499969482422 56.20899963378906,-195.38999938964844 37.70899963378906,-194.8800048828125 C37.70899963378906,-194.8800048828125 27.138999938964844,-205.5 -0.6309999823570251,-205.5 C-28.391000747680664,-205.5 -39.930999755859375,-194.8800048828125 -39.930999755859375,-194.8800048828125 C-58.441001892089844,-195.38999938964844 -102.14099884033203,-153.9499969482422 -102.14099884033203,-137.08999633789062 C-102.14099884033203,-137.08999633789062 -102.14099884033203,-98.7699966430664 -102.14099884033203,-98.7699966430664 C-102.14099884033203,-98.7699966430664 -104.9209976196289,-99.0199966430664 -104.9209976196289,-99.0199966430664 C-104.9209976196289,-99.0199966430664 -104.9209976196289,-136.22000122070312 -104.9209976196289,-153.08999633789062 C-104.9209976196289,-169.9499969482422 -60.020999908447266,-211.38999938964844 -41.01100158691406,-210.8800048828125 C-41.01100158691406,-210.8800048828125 -29.150999069213867,-221.5 -0.6309999823570251,-221.5 C27.89900016784668,-221.5 38.75899887084961,-210.8800048828125 38.75899887084961,-210.8800048828125 C57.76900100708008,-211.38999938964844 103.66899871826172,-169.9499969482422 103.66899871826172,-153.08999633789062z"></path></g><g opacity="1" transform="matrix(1,0,0,1,0,0)"><path stroke-linecap="round" stroke-linejoin="round" fill-opacity="0" stroke="rgb(194,142,0)" stroke-opacity="1" stroke-width="8" d=" M38.75699996948242,-210.8820037841797 C38.75699996948242,-210.8820037841797 27.895999908447266,-221.5050048828125 -0.6269999742507935,-221.5050048828125 C-29.149999618530273,-221.5050048828125 -41.012001037597656,-210.8820037841797 -41.012001037597656,-210.8820037841797 C-60.02399826049805,-211.38699340820312 -104.9260025024414,-169.94900512695312 -104.9260025024414,-153.08700561523438 C-104.9260025024414,-136.22500610351562 -104.9260025024414,-99.02100372314453 -104.9260025024414,-99.02100372314453 C-104.9260025024414,-99.02100372314453 -0.6269999742507935,-89.73300170898438 -0.6269999742507935,-89.73300170898438 C-0.6269999742507935,-89.73300170898438 103.6709976196289,-99.02100372314453 103.6709976196289,-99.02100372314453 C103.6709976196289,-99.02100372314453 103.6709976196289,-136.22500610351562 103.6709976196289,-153.08700561523438 C103.6709976196289,-169.94900512695312 57.76900100708008,-211.38699340820312 38.75699996948242,-210.8820037841797z"></path></g><g opacity="1" transform="matrix(1,0,0,1,0,0)"><g opacity="1" transform="matrix(1,0,0,1,0,0)"><path fill="rgb(183,141,32)" fill-opacity="1" d=" M119.28299713134766,-96.74400329589844 C119.28299713134766,-96.74400329589844 119.28299713134766,-122.33699798583984 119.28299713134766,-122.33699798583984 C119.28299713134766,-122.33699798583984 105.61499786376953,-137.07899475097656 105.61499786376953,-137.07899475097656 C105.61499786376953,-137.07899475097656 96.16500091552734,-137.07899475097656 96.16500091552734,-137.07899475097656 C96.16500091552734,-137.07899475097656 96.16500091552734,-99.62999725341797 96.16500091552734,-99.62999725341797 C96.16500091552734,-99.62999725341797 106.90699768066406,-91.75399780273438 106.90699768066406,-91.75399780273438 C106.90699768066406,-91.75399780273438 119.28299713134766,-96.74400329589844 119.28299713134766,-96.74400329589844z"></path></g><g opacity="1" transform="matrix(1,0,0,1,0,0)"><path fill="rgb(233,178,23)" fill-opacity="1" d=" M94.16100311279297,-137.0800018310547 C94.16100311279297,-137.0800018310547 107.94100189208984,-120.11000061035156 107.94100189208984,-120.11000061035156 C107.94100189208984,-120.11000061035156 107.94100189208984,-98.25 107.94100189208984,-98.25 C107.94100189208984,-98.25 114.14099884033203,-94.66999816894531 114.14099884033203,-94.66999816894531 C114.14099884033203,-94.66999816894531 119.28099822998047,-96.73999786376953 119.28099822998047,-96.73999786376953 C119.28099822998047,-96.73999786376953 119.28099822998047,-120.33999633789062 119.28099822998047,-120.33999633789062 C119.28099822998047,-120.33999633789062 105.61100006103516,-137.0800018310547 105.61100006103516,-137.0800018310547 C105.61100006103516,-137.0800018310547 94.16100311279297,-137.0800018310547 94.16100311279297,-137.0800018310547z"></path></g><g opacity="1" transform="matrix(1,0,0,1,0,0)"><path fill="rgb(249,237,149)" fill-opacity="1" d=" M107.94100189208984,-120.11000061035156 C107.94100189208984,-120.11000061035156 121.10199737548828,-120.11000061035156 121.10199737548828,-120.11000061035156 C121.10199737548828,-120.11000061035156 105.61499786376953,-138.60400390625 105.61499786376953,-138.60400390625 C105.61499786376953,-138.60400390625 94.16500091552734,-137.07899475097656 94.16500091552734,-137.07899475097656 C94.16500091552734,-137.07899475097656 107.94100189208984,-120.11000061035156 107.94100189208984,-120.11000061035156z"></path></g><g opacity="1" transform="matrix(1,0,0,1,0,0)"><path stroke-linecap="round" stroke-linejoin="round" fill-opacity="0" stroke="rgb(158,119,0)" stroke-opacity="1" stroke-width="8" d=" M119.28299713134766,-96.74400329589844 C119.28299713134766,-96.74400329589844 119.28299713134766,-122.33699798583984 119.28299713134766,-122.33699798583984 C119.28299713134766,-122.33699798583984 105.61499786376953,-137.07899475097656 105.61499786376953,-137.07899475097656 C105.61499786376953,-137.07899475097656 93.16500091552734,-137.07899475097656 93.16500091552734,-137.07899475097656 C93.16500091552734,-137.07899475097656 93.16500091552734,-99.62999725341797 93.16500091552734,-99.62999725341797 C93.16500091552734,-99.62999725341797 106.90699768066406,-91.75399780273438 106.90699768066406,-91.75399780273438 C106.90699768066406,-91.75399780273438 119.28299713134766,-96.74400329589844 119.28299713134766,-96.74400329589844z"></path></g><g opacity="1" transform="matrix(1,0,0,1,0,0)"><path stroke-linecap="round" stroke-linejoin="round" fill-opacity="0" stroke="rgb(194,142,0)" stroke-opacity="1" stroke-width="8" d=" M119.28299713134766,-96.74400329589844 C119.28299713134766,-96.74400329589844 119.28299713134766,-122.33699798583984 119.28299713134766,-122.33699798583984 C119.28299713134766,-122.33699798583984 105.61499786376953,-137.07899475097656 105.61499786376953,-137.07899475097656 C105.61499786376953,-137.07899475097656 93.16500091552734,-137.07899475097656 93.16500091552734,-137.07899475097656"></path></g></g><g opacity="1" transform="matrix(-1,0,0,1,-1.75,0)"><g opacity="1" transform="matrix(1,0,0,1,0,0)"><path fill="rgb(183,141,32)" fill-opacity="1" d=" M119.28299713134766,-96.74400329589844 C119.28299713134766,-96.74400329589844 119.28299713134766,-122.33699798583984 119.28299713134766,-122.33699798583984 C119.28299713134766,-122.33699798583984 105.61499786376953,-137.07899475097656 105.61499786376953,-137.07899475097656 C105.61499786376953,-137.07899475097656 96.16500091552734,-137.07899475097656 96.16500091552734,-137.07899475097656 C96.16500091552734,-137.07899475097656 96.16500091552734,-99.62999725341797 96.16500091552734,-99.62999725341797 C96.16500091552734,-99.62999725341797 106.90699768066406,-91.75399780273438 106.90699768066406,-91.75399780273438 C106.90699768066406,-91.75399780273438 119.28299713134766,-96.74400329589844 119.28299713134766,-96.74400329589844z"></path></g><g opacity="1" transform="matrix(1,0,0,1,0,0)"><path fill="rgb(233,178,23)" fill-opacity="1" d=" M94.16100311279297,-137.0800018310547 C94.16100311279297,-137.0800018310547 107.94100189208984,-120.11000061035156 107.94100189208984,-120.11000061035156 C107.94100189208984,-120.11000061035156 107.94100189208984,-98.25 107.94100189208984,-98.25 C107.94100189208984,-98.25 114.14099884033203,-94.66999816894531 114.14099884033203,-94.66999816894531 C114.14099884033203,-94.66999816894531 119.28099822998047,-96.73999786376953 119.28099822998047,-96.73999786376953 C119.28099822998047,-96.73999786376953 119.28099822998047,-120.33999633789062 119.28099822998047,-120.33999633789062 C119.28099822998047,-120.33999633789062 105.61100006103516,-137.0800018310547 105.61100006103516,-137.0800018310547 C105.61100006103516,-137.0800018310547 94.16100311279297,-137.0800018310547 94.16100311279297,-137.0800018310547z"></path></g><g opacity="1" transform="matrix(1,0,0,1,0,0)"><path fill="rgb(249,237,149)" fill-opacity="1" d=" M107.94100189208984,-120.11000061035156 C107.94100189208984,-120.11000061035156 121.10199737548828,-120.11000061035156 121.10199737548828,-120.11000061035156 C121.10199737548828,-120.11000061035156 105.61499786376953,-138.60400390625 105.61499786376953,-138.60400390625 C105.61499786376953,-138.60400390625 94.16500091552734,-137.07899475097656 94.16500091552734,-137.07899475097656 C94.16500091552734,-137.07899475097656 107.94100189208984,-120.11000061035156 107.94100189208984,-120.11000061035156z"></path></g><g opacity="1" transform="matrix(1,0,0,1,0,0)"><path stroke-linecap="round" stroke-linejoin="round" fill-opacity="0" stroke="rgb(158,119,0)" stroke-opacity="1" stroke-width="8" d=" M119.28299713134766,-96.74400329589844 C119.28299713134766,-96.74400329589844 119.28299713134766,-122.33699798583984 119.28299713134766,-122.33699798583984 C119.28299713134766,-122.33699798583984 105.61499786376953,-137.07899475097656 105.61499786376953,-137.07899475097656 C105.61499786376953,-137.07899475097656 93.16500091552734,-137.07899475097656 93.16500091552734,-137.07899475097656 C93.16500091552734,-137.07899475097656 93.16500091552734,-99.62999725341797 93.16500091552734,-99.62999725341797 C93.16500091552734,-99.62999725341797 106.90699768066406,-91.75399780273438 106.90699768066406,-91.75399780273438 C106.90699768066406,-91.75399780273438 119.28299713134766,-96.74400329589844 119.28299713134766,-96.74400329589844z"></path></g><g opacity="1" transform="matrix(1,0,0,1,0,0)"><path stroke-linecap="round" stroke-linejoin="round" fill-opacity="0" stroke="rgb(194,142,0)" stroke-opacity="1" stroke-width="8" d=" M119.28299713134766,-96.74400329589844 C119.28299713134766,-96.74400329589844 119.28299713134766,-122.33699798583984 119.28299713134766,-122.33699798583984 C119.28299713134766,-122.33699798583984 105.61499786376953,-137.07899475097656 105.61499786376953,-137.07899475097656 C105.61499786376953,-137.07899475097656 93.16500091552734,-137.07899475097656 93.16500091552734,-137.07899475097656"></path></g></g><g opacity="1" transform="matrix(1,0,0,1,0,0)"><g opacity="1" transform="matrix(1,0,0,1,0,0)"><path fill="url(#__lottie_element_11)" fill-opacity="1" d=" M115.51899719238281,-97.23600006103516 C85.81900024414062,-102.38800048828125 36.62699890136719,-101.91000366210938 36.62699890136719,-101.91000366210938 C36.62699890136719,-101.91000366210938 36.62699890136719,-98.54199981689453 36.62699890136719,-98.54199981689453 C36.62699890136719,-98.54199981689453 -0.7799999713897705,-98.54199981689453 -0.7799999713897705,-98.54199981689453 C-0.7799999713897705,-98.54199981689453 -38.1870002746582,-98.54199981689453 -38.1870002746582,-98.54199981689453 C-38.1870002746582,-98.54199981689453 -38.1870002746582,-101.91000366210938 -38.1870002746582,-101.91000366210938 C-38.1870002746582,-101.91000366210938 -87.37899780273438,-102.38800048828125 -117.0790023803711,-97.23600006103516 C-146.7790069580078,-92.08399963378906 -144.343994140625,-78.95700073242188 -142.71600341796875,-73.91200256347656 C-138.9709930419922,-62.310001373291016 -123.30400085449219,-56.861000061035156 -123.30400085449219,-56.861000061035156 C-123.30400085449219,-56.861000061035156 -133.61900329589844,-65.01599884033203 -126.21900177001953,-71.79900360107422 C-118.81900024414062,-78.58200073242188 -27.69300079345703,-74.97699737548828 -0.7799999713897705,-74.97699737548828 C26.132999420166016,-74.97699737548828 117.25900268554688,-78.58200073242188 124.65899658203125,-71.79900360107422 C132.0590057373047,-65.01599884033203 126.21900177001953,-56.861000061035156 126.21900177001953,-56.861000061035156 C126.21900177001953,-56.861000061035156 137.41099548339844,-62.310001373291016 141.156005859375,-73.91200256347656 C142.78399658203125,-78.95700073242188 145.218994140625,-92.08399963378906 115.51899719238281,-97.23600006103516z"></path></g><g opacity="1" transform="matrix(1,0,0,1,0,0)"><path fill="rgb(255,247,205)" fill-opacity="0.7000000000000001" d=" M-50.861000061035156,-102.0999984741211 C-65.8010025024414,-102.0250015258789 -87.41100311279297,-100.3010025024414 -102.94100189208984,-97.23200225830078 C-129.031005859375,-92.08499908447266 -126.89099884033203,-78.95500183105469 -125.46099853515625,-73.91500091552734 C-125.33100128173828,-73.44599914550781 -125.18099975585938,-72.97799682617188 -125.0009994506836,-72.52999877929688 C-125.52100372314453,-72.30599975585938 -125.93099975585938,-72.06099700927734 -126.22100067138672,-71.79499816894531 C-133.4510040283203,-65.1780014038086 -123.77100372314453,-57.23899841308594 -123.32099914550781,-56.875999450683594 C-123.91100311279297,-57.077999114990234 -139.04100036621094,-62.534000396728516 -142.71099853515625,-73.91500091552734 C-144.34100341796875,-78.95500183105469 -146.781005859375,-92.08499908447266 -117.08100128173828,-97.23200225830078 C-96.81099700927734,-100.7490005493164 -67.45099639892578,-102.17500305175781 -50.861000061035156,-102.0999984741211z"></path></g><g opacity="1" transform="matrix(1,0,0,1,0,0)"><path fill="rgb(255,247,205)" fill-opacity="0.7000000000000001" d=" M141.15899658203125,-73.91500091552734 C137.40899658203125,-62.310001373291016 126.21900177001953,-56.8650016784668 126.21900177001953,-56.8650016784668 C126.21900177001953,-56.8650016784668 132.0590057373047,-65.01799774169922 124.65899658203125,-71.79499816894531 C124.37899780273438,-72.0510025024414 123.97899627685547,-72.29499816894531 123.46900177001953,-72.51899719238281 C123.62899780273438,-72.97699737548828 123.76899719238281,-73.43499755859375 123.90899658203125,-73.91500091552734 C125.33899688720703,-78.95500183105469 127.47899627685547,-92.08499908447266 101.38899993896484,-97.23200225830078 C85.89900207519531,-100.29000091552734 64.37899780273438,-101.01499938964844 49.43899917602539,-101.0999984741211 C66.04900360107422,-101.17500305175781 95.29900360107422,-100.73799896240234 115.51899719238281,-97.23200225830078 C145.218994140625,-92.08499908447266 142.78900146484375,-78.95500183105469 141.15899658203125,-73.91500091552734z"></path></g><g opacity="1" transform="matrix(1,0,0,1,0,0)"><path fill="rgb(222,155,0)" fill-opacity="0.7000000000000001" d=" M45.54800033569336,-85.29000091552734 C45.54800033569336,-85.29000091552734 -1.4900000095367432,-85.29000091552734 -1.4900000095367432,-85.29000091552734 C-1.4900000095367432,-85.29000091552734 -48.527000427246094,-85.29000091552734 -48.527000427246094,-85.29000091552734 C-146.40499877929688,-91.13999938964844 -145.80099487304688,-75.46399688720703 -138.14300537109375,-66.39800262451172 C-138.14300537109375,-66.39800262451172 -127.55599975585938,-58.73099899291992 -127.55599975585938,-58.73099899291992 C-127.55599975585938,-58.73099899291992 -138.14300537109375,-66.39800262451172 -126.21900177001953,-71.79900360107422 C-114.29499816894531,-77.19999694824219 -1.4900000095367432,-74.97699737548828 -1.4900000095367432,-74.97699737548828 C-1.4900000095367432,-74.97699737548828 111.31500244140625,-77.19999694824219 123.23899841308594,-71.79900360107422 C135.16299438476562,-66.39800262451172 124.57599639892578,-58.73099899291992 124.57599639892578,-58.73099899291992 C124.57599639892578,-58.73099899291992 135.16299438476562,-66.39800262451172 135.16299438476562,-66.39800262451172 C144.4080047607422,-75.93499755859375 141.156005859375,-91.13999938964844 45.54800033569336,-85.29000091552734z"></path></g><g opacity="1" transform="matrix(1,0,0,1,0,0)"><path stroke-linecap="round" stroke-linejoin="round" fill-opacity="0" stroke="rgb(194,142,0)" stroke-opacity="1" stroke-width="8" d=" M115.51899719238281,-98.23600006103516 C85.81900024414062,-103.38800048828125 36.62699890136719,-101.91000366210938 36.62699890136719,-101.91000366210938 C36.62699890136719,-101.91000366210938 36.62699890136719,-98.54199981689453 36.62699890136719,-98.54199981689453 C36.62699890136719,-98.54199981689453 -0.7799999713897705,-98.54199981689453 -0.7799999713897705,-98.54199981689453 C-0.7799999713897705,-98.54199981689453 -38.1870002746582,-98.54199981689453 -38.1870002746582,-98.54199981689453 C-38.1870002746582,-98.54199981689453 -38.1870002746582,-101.91000366210938 -38.1870002746582,-101.91000366210938 C-38.1870002746582,-101.91000366210938 -87.37899780273438,-103.38800048828125 -117.0790023803711,-98.23600006103516 C-146.7790069580078,-93.08399963378906 -144.343994140625,-78.95700073242188 -142.71600341796875,-73.91200256347656 C-138.9709930419922,-62.310001373291016 -123.30400085449219,-56.861000061035156 -123.30400085449219,-56.861000061035156 C-123.30400085449219,-56.861000061035156 -133.61900329589844,-65.01599884033203 -126.21900177001953,-71.79900360107422 C-118.81900024414062,-78.58200073242188 -27.69300079345703,-74.97699737548828 -0.7799999713897705,-74.97699737548828 C26.132999420166016,-74.97699737548828 117.25900268554688,-78.58200073242188 124.65899658203125,-71.79900360107422 C132.0590057373047,-65.01599884033203 126.21900177001953,-56.861000061035156 126.21900177001953,-56.861000061035156 C126.21900177001953,-56.861000061035156 137.41099548339844,-62.310001373291016 141.156005859375,-73.91200256347656 C142.78399658203125,-78.95700073242188 145.218994140625,-93.08399963378906 115.51899719238281,-98.23600006103516z"></path></g><g opacity="1" transform="matrix(1,0,0,1,0,0)"><path stroke-linecap="round" stroke-linejoin="round" fill-opacity="0" stroke="rgb(193,142,0)" stroke-opacity="0.4" stroke-width="6" d=" M-38.1870002746582,-98.54199981689453 C-38.1870002746582,-98.54199981689453 -55.082000732421875,-75.78299713134766 -55.082000732421875,-75.78299713134766"></path></g><g opacity="1" transform="matrix(1,0,0,1,0,0)"><path stroke-linecap="round" stroke-linejoin="round" fill-opacity="0" stroke="rgb(193,142,0)" stroke-opacity="0.4" stroke-width="6" d=" M36.62699890136719,-98.54199981689453 C36.62699890136719,-98.54199981689453 52.9739990234375,-76.48799896240234 52.9739990234375,-76.48799896240234"></path></g><g opacity="1" transform="matrix(1,0,0,1,0,0)"><path stroke-linecap="round" stroke-linejoin="round" fill-opacity="0" stroke="rgb(158,119,0)" stroke-opacity="1" stroke-width="8" d=" M36.62699890136719,-101.91000366210938 C36.62699890136719,-101.91000366210938 36.62699890136719,-98.54199981689453 36.62699890136719,-98.54199981689453 C36.62699890136719,-98.54199981689453 -0.7799999713897705,-98.54199981689453 -0.7799999713897705,-98.54199981689453 C-0.7799999713897705,-98.54199981689453 -38.1870002746582,-98.54199981689453 -38.1870002746582,-98.54199981689453 C-38.1870002746582,-98.54199981689453 -38.1870002746582,-101.91000366210938 -38.1870002746582,-101.91000366210938"></path></g><g opacity="1" transform="matrix(1,0,0,1,0,0)"><path stroke-linecap="round" stroke-linejoin="round" fill-opacity="0" stroke="rgb(153,88,0)" stroke-opacity="1" stroke-width="8" d=" M-123.30400085449219,-56.861000061035156 C-123.30400085449219,-56.861000061035156 -133.61900329589844,-65.01599884033203 -126.21900177001953,-71.79900360107422 C-118.81900024414062,-78.58200073242188 -27.69300079345703,-74.97699737548828 -0.7799999713897705,-74.97699737548828 C26.132999420166016,-74.97699737548828 117.25900268554688,-78.58200073242188 124.65899658203125,-71.79900360107422 C132.0590057373047,-65.01599884033203 126.21900177001953,-56.861000061035156 126.21900177001953,-56.861000061035156"></path></g></g></g></g></svg>