<svg xmlns="http://www.w3.org/2000/svg" xmlns:xlink="http://www.w3.org/1999/xlink" viewBox="0 0 512 512" width="512" height="512" style="width: 100%; height: 100%; transform: translate3d(0,0,0); content-visibility: visible;" preserveAspectRatio="xMidYMid meet"><defs><clipPath id="__lottie_element_2"><rect width="512" height="512" x="0" y="0"></rect></clipPath><linearGradient id="__lottie_element_6" spreadMethod="pad" gradientUnits="userSpaceOnUse" x1="-3.9260001182556152" y1="89.5719985961914" x2="-3.9260001182556152" y2="111.40899658203125"><stop offset="0%" stop-color="rgb(255,168,0)" stop-opacity="1"></stop><stop offset="65%" stop-color="rgb(255,168,0)" stop-opacity="0.5"></stop><stop offset="100%" stop-color="rgb(255,168,0)" stop-opacity="0"></stop></linearGradient><linearGradient id="__lottie_element_7" spreadMethod="pad" gradientUnits="userSpaceOnUse" x1="-3.9260001182556152" y1="99.6969985961914" x2="-3.9260001182556152" y2="72.13500213623047"><stop offset="10%" stop-color="rgb(219,110,0)" stop-opacity="1"></stop><stop offset="51%" stop-color="rgb(219,110,0)" stop-opacity="0.5"></stop><stop offset="80%" stop-color="rgb(219,110,0)" stop-opacity="0"></stop></linearGradient><radialGradient id="__lottie_element_8" spreadMethod="pad" gradientUnits="userSpaceOnUse" cx="-4.926000118255615" cy="62.696998596191406" r="35.147000789642334" fx="-4.926000118255615" fy="62.696998596191406"><stop offset="40%" stop-color="rgb(255,168,0)" stop-opacity="0"></stop><stop offset="76%" stop-color="rgb(255,168,0)" stop-opacity="0.5"></stop><stop offset="100%" stop-color="rgb(255,168,0)" stop-opacity="1"></stop></radialGradient><linearGradient id="__lottie_element_9" spreadMethod="pad" gradientUnits="userSpaceOnUse" x1="-3.9260001182556152" y1="58.696998596191406" x2="-3.9260001182556152" y2="78.00800323486328"><stop offset="0%" stop-color="rgb(255,255,255)" stop-opacity="1"></stop><stop offset="50%" stop-color="rgb(255,255,255)" stop-opacity="0.5"></stop><stop offset="99%" stop-color="rgb(255,255,255)" stop-opacity="0"></stop></linearGradient><linearGradient id="__lottie_element_16" spreadMethod="pad" gradientUnits="userSpaceOnUse" x1="-77.0510025024414" y1="7.447000026702881" x2="-59.347999572753906" y2="35.94200134277344"><stop offset="0%" stop-color="rgb(66,0,0)"></stop><stop offset="37%" stop-color="rgb(118,40,0)"></stop><stop offset="100%" stop-color="rgb(170,80,0)"></stop></linearGradient><radialGradient id="__lottie_element_17" spreadMethod="pad" gradientUnits="userSpaceOnUse" cx="-59.92599868774414" cy="29.69700050354004" r="12.560997009277344" fx="-59.92599868774414" fy="29.69700050354004"><stop offset="0%" stop-color="rgb(246,175,0)" stop-opacity="1"></stop><stop offset="50%" stop-color="rgb(246,175,0)" stop-opacity="0.5"></stop><stop offset="100%" stop-color="rgb(246,175,0)" stop-opacity="0"></stop></radialGradient><linearGradient id="__lottie_element_18" spreadMethod="pad" gradientUnits="userSpaceOnUse" x1="-78.9260025024414" y1="-1.3029999732971191" x2="-78.9260025024414" y2="9.519000053405762"><stop offset="0%" stop-color="rgb(255,255,255)" stop-opacity="1"></stop><stop offset="60%" stop-color="rgb(255,255,255)" stop-opacity="0.5"></stop><stop offset="100%" stop-color="rgb(255,255,255)" stop-opacity="0"></stop></linearGradient><linearGradient id="__lottie_element_19" spreadMethod="pad" gradientUnits="userSpaceOnUse" x1="-77.0510025024414" y1="7.447000026702881" x2="-59.347999572753906" y2="35.94200134277344"><stop offset="0%" stop-color="rgb(66,0,0)"></stop><stop offset="37%" stop-color="rgb(118,40,0)"></stop><stop offset="100%" stop-color="rgb(170,80,0)"></stop></linearGradient><radialGradient id="__lottie_element_20" spreadMethod="pad" gradientUnits="userSpaceOnUse" cx="-59.92599868774414" cy="29.69700050354004" r="12.560997009277344" fx="-59.92599868774414" fy="29.69700050354004"><stop offset="0%" stop-color="rgb(246,175,0)" stop-opacity="1"></stop><stop offset="50%" stop-color="rgb(246,175,0)" stop-opacity="0.5"></stop><stop offset="100%" stop-color="rgb(246,175,0)" stop-opacity="0"></stop></radialGradient><linearGradient id="__lottie_element_21" spreadMethod="pad" gradientUnits="userSpaceOnUse" x1="-78.9260025024414" y1="-1.3029999732971191" x2="-78.9260025024414" y2="9.519000053405762"><stop offset="0%" stop-color="rgb(255,255,255)" stop-opacity="1"></stop><stop offset="60%" stop-color="rgb(255,255,255)" stop-opacity="0.5"></stop><stop offset="100%" stop-color="rgb(255,255,255)" stop-opacity="0"></stop></linearGradient><linearGradient id="__lottie_element_25" spreadMethod="pad" gradientUnits="userSpaceOnUse" x1="-164.45199584960938" y1="-70.57099914550781" x2="148.99899291992188" y2="-70.57099914550781"><stop offset="6%" stop-color="rgb(99,45,36)"></stop><stop offset="10%" stop-color="rgb(76,28,27)"></stop><stop offset="26%" stop-color="rgb(53,11,17)"></stop><stop offset="33%" stop-color="rgb(91,28,25)"></stop><stop offset="53%" stop-color="rgb(129,45,33)"></stop><stop offset="60%" stop-color="rgb(97,32,24)"></stop><stop offset="66%" stop-color="rgb(65,20,15)"></stop><stop offset="73%" stop-color="rgb(76,25,18)"></stop><stop offset="77%" stop-color="rgb(87,30,21)"></stop><stop offset="82%" stop-color="rgb(71,20,19)"></stop><stop offset="86%" stop-color="rgb(55,11,18)"></stop></linearGradient><linearGradient id="__lottie_element_26" spreadMethod="pad" gradientUnits="userSpaceOnUse" x1="-7.452000141143799" y1="-121.57099914550781" x2="-7.452000141143799" y2="-55.02899932861328"><stop offset="0%" stop-color="rgb(255,96,65)" stop-opacity="1"></stop><stop offset="53%" stop-color="rgb(255,96,65)" stop-opacity="0.5"></stop><stop offset="100%" stop-color="rgb(255,96,65)" stop-opacity="0"></stop></linearGradient><linearGradient id="__lottie_element_27" spreadMethod="pad" gradientUnits="userSpaceOnUse" x1="-6.452000141143799" y1="-107.57099914550781" x2="-6.452000141143799" y2="-68.05799865722656"><stop offset="0%" stop-color="rgb(236,206,77)"></stop><stop offset="46%" stop-color="rgb(236,198,78)"></stop><stop offset="100%" stop-color="rgb(236,191,78)"></stop></linearGradient><radialGradient id="__lottie_element_31" spreadMethod="pad" gradientUnits="userSpaceOnUse" cx="-4.452000141143799" cy="-134.5709991455078" r="142.3840069770813" fx="-4.452000141143799" fy="-134.5709991455078"><stop offset="3%" stop-color="rgb(136,48,30)"></stop><stop offset="31%" stop-color="rgb(171,60,38)"></stop><stop offset="59%" stop-color="rgb(205,73,46)"></stop><stop offset="77%" stop-color="rgb(156,54,33)"></stop><stop offset="96%" stop-color="rgb(107,35,21)"></stop></radialGradient><linearGradient id="__lottie_element_32" spreadMethod="pad" gradientUnits="userSpaceOnUse" x1="4.547999858856201" y1="-193.5709991455078" x2="4.547999858856201" y2="-122.95800018310547"><stop offset="3%" stop-color="rgb(144,171,122)"></stop><stop offset="17%" stop-color="rgb(172,203,148)"></stop><stop offset="43%" stop-color="rgb(201,235,174)"></stop><stop offset="67%" stop-color="rgb(147,175,128)"></stop><stop offset="96%" stop-color="rgb(92,115,81)"></stop></linearGradient><radialGradient id="__lottie_element_33" spreadMethod="pad" gradientUnits="userSpaceOnUse" cx="0.4429999887943268" cy="-130.0709991455078" r="53.177350718489805" fx="0.4429999887943268" fy="-130.0709991455078"><stop offset="17%" stop-color="rgb(81,103,57)" stop-opacity="1"></stop><stop offset="58%" stop-color="rgb(86,103,57)" stop-opacity="0.5"></stop><stop offset="100%" stop-color="rgb(92,103,57)" stop-opacity="0"></stop></radialGradient><linearGradient id="__lottie_element_34" spreadMethod="pad" gradientUnits="userSpaceOnUse" x1="-4.452000141143799" y1="-109.57099914550781" x2="-4.452000141143799" y2="-194.54400634765625"><stop offset="0%" stop-color="rgb(255,255,255)" stop-opacity="0"></stop><stop offset="46%" stop-color="rgb(255,255,255)" stop-opacity="0.5"></stop><stop offset="100%" stop-color="rgb(255,255,255)" stop-opacity="1"></stop></linearGradient><linearGradient id="__lottie_element_38" spreadMethod="pad" gradientUnits="userSpaceOnUse" x1="-4.452000141143799" y1="132.4290008544922" x2="-4.452000141143799" y2="142.01300048828125"><stop offset="0%" stop-color="rgb(255,168,0)" stop-opacity="1"></stop><stop offset="50%" stop-color="rgb(255,168,0)" stop-opacity="0.5"></stop><stop offset="100%" stop-color="rgb(255,168,0)" stop-opacity="0"></stop></linearGradient><radialGradient id="__lottie_element_39" spreadMethod="pad" gradientUnits="userSpaceOnUse" cx="-3.4519999027252197" cy="148.4290008544922" r="39.76900124549866" fx="-3.4519999027252197" fy="148.4290008544922"><stop offset="0%" stop-color="rgb(255,255,255)"></stop><stop offset="60%" stop-color="rgb(255,255,255)"></stop><stop offset="100%" stop-color="rgb(255,255,255)"></stop></radialGradient><mask id="__lottie_element_41"><path fill="url(#__lottie_element_40)" d=" M35.85499954223633,141.2480010986328 C34.92399978637695,136.07200622558594 29.05299949645996,137.7760009765625 -4.386000156402588,137.7760009765625 C-37.02000045776367,137.7760009765625 -43.13399887084961,135.7469940185547 -44.62699890136719,141.2480010986328 C-45.2239990234375,143.447998046875 -31.922000885009766,159.5229949951172 -4.39300012588501,159.5229949951172 C22.667999267578125,159.5229949951172 36.27199935913086,143.57000732421875 35.85499954223633,141.2480010986328z"></path></mask><radialGradient id="__lottie_element_40" spreadMethod="pad" gradientUnits="userSpaceOnUse" cx="-3.4519999027252197" cy="148.4290008544922" r="39.76900124549866" fx="-3.4519999027252197" fy="148.4290008544922"><stop stop-color="rgb(255,255,255)" offset="0%" stop-opacity="1"></stop><stop stop-color="rgb(255,255,255)" offset="50%" stop-opacity="0.5"></stop><stop stop-color="rgb(255,255,255)" offset="100%" stop-opacity="0"></stop></radialGradient><linearGradient id="__lottie_element_42" spreadMethod="pad" gradientUnits="userSpaceOnUse" x1="-3.4519999027252197" y1="148.4290008544922" x2="-3.4519999027252197" y2="138.7830047607422"><stop offset="0%" stop-color="rgb(88,11,14)" stop-opacity="0"></stop><stop offset="36%" stop-color="rgb(88,11,14)" stop-opacity="0.5"></stop><stop offset="80%" stop-color="rgb(88,11,14)" stop-opacity="1"></stop></linearGradient><radialGradient id="__lottie_element_43" spreadMethod="pad" gradientUnits="userSpaceOnUse" cx="-3.4519999027252197" cy="164.4290008544922" r="23.867000818252563" fx="-3.4519999027252197" fy="164.4290008544922"><stop offset="10%" stop-color="rgb(219,110,0)" stop-opacity="1"></stop><stop offset="66%" stop-color="rgb(219,110,0)" stop-opacity="0.5"></stop><stop offset="100%" stop-color="rgb(219,110,0)" stop-opacity="0"></stop></radialGradient><radialGradient id="__lottie_element_47" spreadMethod="pad" gradientUnits="userSpaceOnUse" cx="0.5479999780654907" cy="10.428999900817871" r="187.38199269771576" fx="0.5479999780654907" fy="10.428999900817871"><stop offset="0%" stop-color="rgb(255,169,0)" stop-opacity="0"></stop><stop offset="62%" stop-color="rgb(255,169,0)" stop-opacity="0.5"></stop><stop offset="90%" stop-color="rgb(255,169,0)" stop-opacity="1"></stop></radialGradient><linearGradient id="__lottie_element_48" spreadMethod="pad" gradientUnits="userSpaceOnUse" x1="-5.452000141143799" y1="66.42900085449219" x2="-5.452000141143799" y2="-70.99400329589844"><stop offset="7%" stop-color="rgb(142,67,0)" stop-opacity="0.30000001192092896"></stop><stop offset="26%" stop-color="rgb(142,67,0)" stop-opacity="0.6499999761581421"></stop><stop offset="64%" stop-color="rgb(142,67,0)" stop-opacity="1"></stop><stop offset="82%" stop-color="rgb(142,67,0)" stop-opacity="0.5"></stop><stop offset="100%" stop-color="rgb(142,67,0)" stop-opacity="0"></stop></linearGradient><linearGradient id="__lottie_element_49" spreadMethod="pad" gradientUnits="userSpaceOnUse" x1="124.2979965209961" y1="-50.07099914550781" x2="114.49600219726562" y2="-8.072999954223633"><stop offset="0%" stop-color="rgb(142,67,0)" stop-opacity="1"></stop><stop offset="38%" stop-color="rgb(142,67,0)" stop-opacity="0.5"></stop><stop offset="71%" stop-color="rgb(142,67,0)" stop-opacity="0"></stop></linearGradient><linearGradient id="__lottie_element_50" spreadMethod="pad" gradientUnits="userSpaceOnUse" x1="-128.45199584960938" y1="-47.57099914550781" x2="-117.93000030517578" y2="-10.199000358581543"><stop offset="0%" stop-color="rgb(142,67,0)" stop-opacity="1"></stop><stop offset="38%" stop-color="rgb(142,67,0)" stop-opacity="0.5"></stop><stop offset="71%" stop-color="rgb(142,67,0)" stop-opacity="0"></stop></linearGradient><linearGradient id="__lottie_element_54" spreadMethod="pad" gradientUnits="userSpaceOnUse" x1="-5.452000141143799" y1="-126.57099914550781" x2="-5.452000141143799" y2="71.43599700927734"><stop offset="0%" stop-color="rgb(219,110,0)" stop-opacity="1"></stop><stop offset="38%" stop-color="rgb(219,110,0)" stop-opacity="0.5"></stop><stop offset="71%" stop-color="rgb(219,110,0)" stop-opacity="0"></stop></linearGradient><linearGradient id="__lottie_element_55" spreadMethod="pad" gradientUnits="userSpaceOnUse" x1="-5.452000141143799" y1="-51.57099914550781" x2="-5.452000141143799" y2="186.41900634765625"><stop offset="4%" stop-color="rgb(255,216,0)" stop-opacity="0"></stop><stop offset="13%" stop-color="rgb(255,216,0)" stop-opacity="0.5"></stop><stop offset="50%" stop-color="rgb(255,216,0)" stop-opacity="1"></stop><stop offset="89%" stop-color="rgb(255,216,0)" stop-opacity="0.5"></stop><stop offset="100%" stop-color="rgb(255,216,0)" stop-opacity="0"></stop></linearGradient></defs><g clip-path="url(#__lottie_element_2)"><g style="display: block;" transform="matrix(1,0,0,1,256,256)" opacity="1"><g opacity="1" transform="matrix(1,0,0,1,0,0)"><path fill="rgb(60,6,17)" fill-opacity="1" d=" M-164.61900329589844,-15.307000160217285 C-164.61900329589844,-0.1770000010728836 -143.9409942626953,18.701000213623047 -96.62899780273438,18.701000213623047 C-49.31700134277344,18.701000213623047 -130.62399291992188,-65.072998046875 -130.62399291992188,-65.072998046875 C-130.62399291992188,-65.072998046875 -164.61900329589844,-51.70600128173828 -164.61900329589844,-15.307000160217285z"></path><path stroke-linecap="round" stroke-linejoin="round" fill-opacity="0" stroke="rgb(26,11,9)" stroke-opacity="1" stroke-width="8" d=" M-164.61900329589844,-15.307000160217285 C-164.61900329589844,-0.1770000010728836 -143.9409942626953,18.701000213623047 -96.62899780273438,18.701000213623047 C-49.31700134277344,18.701000213623047 -130.62399291992188,-65.072998046875 -130.62399291992188,-65.072998046875 C-130.62399291992188,-65.072998046875 -164.61900329589844,-51.70600128173828 -164.61900329589844,-15.307000160217285z"></path></g><g opacity="1" transform="matrix(1,0,0,1,0,0)"><path fill="rgb(60,6,17)" fill-opacity="1" d=" M148.83200073242188,-15.307000160217285 C148.83200073242188,-0.1770000010728836 128.1540069580078,18.701000213623047 80.84200286865234,18.701000213623047 C33.529998779296875,18.701000213623047 114.83699798583984,-65.072998046875 114.83699798583984,-65.072998046875 C114.83699798583984,-65.072998046875 148.83200073242188,-51.70600128173828 148.83200073242188,-15.307000160217285z"></path><path stroke-linecap="round" stroke-linejoin="round" fill-opacity="0" stroke="rgb(26,11,9)" stroke-opacity="1" stroke-width="8" d=" M148.83200073242188,-15.307000160217285 C148.83200073242188,-0.1770000010728836 128.1540069580078,18.701000213623047 80.84200286865234,18.701000213623047 C33.529998779296875,18.701000213623047 114.83699798583984,-65.072998046875 114.83699798583984,-65.072998046875 C114.83699798583984,-65.072998046875 148.83200073242188,-51.70600128173828 148.83200073242188,-15.307000160217285z"></path></g></g><g style="display: block;" transform="matrix(1,0,0,1,256,256)" opacity="1"><g opacity="1" transform="matrix(1,0,0,1,0,0)"><g opacity="1" transform="matrix(1,0,0,1,0,0)"><path fill="rgb(255,168,0)" fill-opacity="1" d=" M-130.69700622558594,32.54399871826172 C-130.69700622558594,32.54399871826172 -142.65499877929688,24.416000366210938 -148.9409942626953,35.30799865722656 C-154.6909942626953,45.27199935913086 -143.7030029296875,96.77899932861328 -133.55099487304688,105.13200378417969 C-127.30599975585938,110.27100372314453 -120.5459976196289,103.93199920654297 -120.5459976196289,103.93199920654297 C-116.427001953125,101.11399841308594 -123.11000061035156,42.875999450683594 -130.69700622558594,32.54399871826172z"></path><path stroke-linecap="round" stroke-linejoin="round" fill-opacity="0" stroke="rgb(219,110,0)" stroke-opacity="1" stroke-width="8" d=" M-130.69700622558594,32.54399871826172 C-130.69700622558594,32.54399871826172 -142.65499877929688,24.416000366210938 -148.9409942626953,35.30799865722656 C-154.6909942626953,45.27199935913086 -143.7030029296875,96.77899932861328 -133.55099487304688,105.13200378417969 C-127.30599975585938,110.27100372314453 -120.5459976196289,103.93199920654297 -120.5459976196289,103.93199920654297 C-116.427001953125,101.11399841308594 -123.11000061035156,42.875999450683594 -130.69700622558594,32.54399871826172z"></path></g><g opacity="1" transform="matrix(1,0,0,1,0,0)"><path fill="rgb(255,168,0)" fill-opacity="1" d=" M120.81700134277344,32.54399871826172 C120.81700134277344,32.54399871826172 132.77499389648438,24.416000366210938 139.06100463867188,35.30799865722656 C144.81100463867188,45.27199935913086 133.822998046875,96.77899932861328 123.6709976196289,105.13200378417969 C117.4260025024414,110.27100372314453 110.66500091552734,103.93199920654297 110.66500091552734,103.93199920654297 C106.5469970703125,101.11399841308594 113.2300033569336,42.875999450683594 120.81700134277344,32.54399871826172z"></path><path stroke-linecap="round" stroke-linejoin="round" fill-opacity="0" stroke="rgb(219,110,0)" stroke-opacity="1" stroke-width="8" d=" M120.81700134277344,32.54399871826172 C120.81700134277344,32.54399871826172 132.77499389648438,24.416000366210938 139.06100463867188,35.30799865722656 C144.81100463867188,45.27199935913086 133.822998046875,96.77899932861328 123.6709976196289,105.13200378417969 C117.4260025024414,110.27100372314453 110.66500091552734,103.93199920654297 110.66500091552734,103.93199920654297 C106.5469970703125,101.11399841308594 113.2300033569336,42.875999450683594 120.81700134277344,32.54399871826172z"></path></g></g><g opacity="1" transform="matrix(1,0,0,1,0,0)"><g opacity="1" transform="matrix(1,0,0,1,0,0)"><path fill="rgb(255,168,0)" fill-opacity="1" d=" M113.71499633789062,109.4010009765625 C98.87999725341797,168.56399536132812 50.52299880981445,212.31300354003906 -4.466000080108643,212.31300354003906 C-58.472999572753906,212.31300354003906 -104.87300109863281,169.7899932861328 -121.76899719238281,112.54399871826172 C-132.86199951171875,74.95899963378906 -136.03799438476562,18.87299919128418 -131.343994140625,-25.788000106811523 C-125.61900329589844,-80.25700378417969 -97.66699981689453,-133.22799682617188 -4.466000080108643,-133.22799682617188 C83.64800262451172,-133.22799682617188 110.98400115966797,-84.16799926757812 117.98500061035156,-30.972000122070312 C125.02400207519531,22.514999389648438 122.88500213623047,72.83200073242188 113.71499633789062,109.4010009765625z"></path></g><g opacity="1" transform="matrix(1,0,0,1,0,0)"><path fill="url(#__lottie_element_54)" fill-opacity="1" d=" M113.71499633789062,109.4010009765625 C98.87999725341797,168.56399536132812 50.52299880981445,212.31300354003906 -4.466000080108643,212.31300354003906 C-58.472999572753906,212.31300354003906 -104.87300109863281,169.7899932861328 -121.76899719238281,112.54399871826172 C-132.86199951171875,74.95899963378906 -136.03799438476562,18.87299919128418 -131.343994140625,-25.788000106811523 C-125.61900329589844,-80.25700378417969 -97.66699981689453,-133.22799682617188 -4.466000080108643,-133.22799682617188 C83.64800262451172,-133.22799682617188 110.98400115966797,-84.16799926757812 117.98500061035156,-30.972000122070312 C125.02400207519531,22.514999389648438 122.88500213623047,72.83200073242188 113.71499633789062,109.4010009765625z"></path></g><g opacity="1" transform="matrix(1,0,0,1,0,0)"><path fill="url(#__lottie_element_55)" fill-opacity="1" d=" M101.802001953125,98.3949966430664 C88.447998046875,150.66900634765625 44.91699981689453,189.322998046875 -4.583000183105469,189.322998046875 C-53.19900131225586,189.322998046875 -94.96800231933594,151.7530059814453 -110.1780014038086,101.1719970703125 C-120.16400146484375,67.96399688720703 -123.02200317382812,18.406999588012695 -118.7969970703125,-21.054000854492188 C-118.7969970703125,-21.054000854492188 -90.48100280761719,-39.433998107910156 -6.583000183105469,-39.433998107910156 C72.73600006103516,-39.433998107910156 105.64600372314453,-25.634000778198242 105.64600372314453,-25.634000778198242 C111.98200225830078,21.625 110.05599975585938,66.08399963378906 101.802001953125,98.3949966430664z"></path></g><g opacity="1" transform="matrix(1,0,0,1,0,0)"><path stroke-linecap="round" stroke-linejoin="round" fill-opacity="0" stroke="rgb(219,110,0)" stroke-opacity="1" stroke-width="8" d=" M113.71499633789062,109.4010009765625 C98.87999725341797,168.56399536132812 50.52299880981445,212.31300354003906 -4.466000080108643,212.31300354003906 C-58.472999572753906,212.31300354003906 -104.87300109863281,169.7899932861328 -121.76899719238281,112.54399871826172 C-132.86199951171875,74.95899963378906 -136.03799438476562,18.87299919128418 -131.343994140625,-25.788000106811523 C-125.61900329589844,-80.25700378417969 -97.66699981689453,-133.22799682617188 -4.466000080108643,-133.22799682617188 C83.64800262451172,-133.22799682617188 110.98400115966797,-84.16799926757812 117.98500061035156,-30.972000122070312 C125.02400207519531,22.514999389648438 122.88500213623047,72.83200073242188 113.71499633789062,109.4010009765625z"></path></g></g></g><g style="display: block;" transform="matrix(1,0,0,1,256,256)" opacity="1"><g opacity="1" transform="matrix(1,0,0,1,0,0)"><path fill="rgb(159,84,2)" fill-opacity="1" d=" M-128.81399536132812,66.56400299072266 C-125.54299926757812,64.6259994506836 -125.85600280761719,37.862998962402344 -124.3290023803711,1.2549999952316284 C-124.3290023803711,1.2549999952316284 -124.3290023803711,1.2549999952316284 -124.3290023803711,1.2549999952316284 C-124.3290023803711,1.2549999952316284 -109.04499816894531,-19.954999923706055 -101.19300079345703,-58.25899887084961 C-101.19300079345703,-58.25899887084961 96.58599853515625,-58.25899887084961 96.58599853515625,-58.25899887084961 C96.58599853515625,-58.25899887084961 99.39800262451172,-28.76099967956543 117.3740005493164,1.093999981880188 C117.3740005493164,1.093999981880188 111.75599670410156,56.358001708984375 117.3740005493164,64.625 C122.99199676513672,72.89199829101562 140.95899963378906,6.326000213623047 136.72799682617188,-43.15700149536133 C132.63999938964844,-90.95800018310547 105.00299835205078,-156.7429962158203 -7.175000190734863,-156.7429962158203 C-121.19499969482422,-156.7429962158203 -146.4080047607422,-77.59100341796875 -149.91600036621094,-40.36399841308594 C-153.41600036621094,-3.2239999771118164 -141.04100036621094,73.80899810791016 -128.81399536132812,66.56400299072266z"></path></g><g opacity="1" transform="matrix(1,0,0,1,0,0)"><path fill="url(#__lottie_element_47)" fill-opacity="1" d=" M-128.81399536132812,66.56400299072266 C-125.54299926757812,64.6259994506836 -125.85600280761719,37.862998962402344 -124.3290023803711,1.2549999952316284 C-124.3290023803711,1.2549999952316284 -124.3290023803711,1.2549999952316284 -124.3290023803711,1.2549999952316284 C-124.3290023803711,1.2549999952316284 -109.04499816894531,-19.954999923706055 -101.19300079345703,-58.25899887084961 C-101.19300079345703,-58.25899887084961 96.58599853515625,-58.25899887084961 96.58599853515625,-58.25899887084961 C96.58599853515625,-58.25899887084961 99.39800262451172,-28.76099967956543 117.3740005493164,1.093999981880188 C117.3740005493164,1.093999981880188 111.75599670410156,56.358001708984375 117.3740005493164,64.625 C122.99199676513672,72.89199829101562 140.95899963378906,6.326000213623047 136.72799682617188,-43.15700149536133 C132.63999938964844,-90.95800018310547 105.00299835205078,-156.7429962158203 -7.175000190734863,-156.7429962158203 C-121.19499969482422,-156.7429962158203 -146.4080047607422,-77.59100341796875 -149.91600036621094,-40.36399841308594 C-153.41600036621094,-3.2239999771118164 -141.04100036621094,73.80899810791016 -128.81399536132812,66.56400299072266z"></path></g><g opacity="1" transform="matrix(1,0,0,1,0,0)"><path fill="url(#__lottie_element_48)" fill-opacity="0.5" d=" M134.78900146484375,-15.678999900817871 C132.68600463867188,27.61400032043457 121.99700164794922,71.42400360107422 117.37899780273438,64.62899780273438 C111.75499725341797,56.36000061035156 117.37899780273438,1.0959999561309814 117.37899780273438,1.0959999561309814 C99.39700317382812,-28.763999938964844 96.58499908447266,-58.263999938964844 96.58499908447266,-58.263999938964844 C96.58499908447266,-58.263999938964844 -101.19499969482422,-58.263999938964844 -101.19499969482422,-58.263999938964844 C-105.12699890136719,-39.1150016784668 -110.91300201416016,-24.229999542236328 -115.71399688720703,-14.137999534606934 C-120.51499938964844,-4.046000003814697 -124.33300018310547,1.253000020980835 -124.33300018310547,1.253000020980835 C-125.85299682617188,37.862998962402344 -125.54399871826172,64.62899780273438 -128.81399536132812,66.56400299072266 C-137.7760009765625,71.875 -143.3780059814453,31.93400001525879 -146.20199584960938,-4.406000137329102 C-144.49899291992188,1.6579999923706055 -140.5919952392578,4.951000213623047 -135.15899658203125,-2.796999931335449 C-114.23100280761719,-32.641998291015625 -115.58799743652344,-70.38099670410156 -115.58799743652344,-70.38099670410156 C-115.58799743652344,-70.38099670410156 106.8499984741211,-70.38099670410156 106.8499984741211,-70.38099670410156 C106.8499984741211,-70.38099670410156 107.50199890136719,-44.94300079345703 119.52799987792969,-19.47100067138672 C131.54299926757812,6.01200008392334 133.46299743652344,-15.994000434875488 133.46299743652344,-15.994000434875488 C133.46299743652344,-15.994000434875488 134.78900146484375,-15.678999900817871 134.78900146484375,-15.678999900817871z"></path></g><g opacity="1" transform="matrix(1,0,0,1,0,0)"><path fill="url(#__lottie_element_49)" fill-opacity="1" d=" M102.51300048828125,-25.992000579833984 C102.51300048828125,-25.992000579833984 118.9469985961914,-23.18600082397461 139.60299682617188,-11.35200023651123 C139.60299682617188,-11.35200023651123 142.0399932861328,-44.85100173950195 142.0399932861328,-44.85100173950195 C142.0399932861328,-44.85100173950195 92.70700073242188,-58.25899887084961 92.70700073242188,-58.25899887084961 C92.70700073242188,-58.25899887084961 102.51300048828125,-25.992000579833984 102.51300048828125,-25.992000579833984z"></path></g><g opacity="1" transform="matrix(1,0,0,1,0,0)"><path fill="url(#__lottie_element_50)" fill-opacity="1" d=" M-111,-24.992000579833984 C-111,-24.992000579833984 -131.48199462890625,-20.695999145507812 -150.08900451660156,-11.35200023651123 C-150.08900451660156,-11.35200023651123 -150.52699279785156,-44.85100173950195 -150.52699279785156,-44.85100173950195 C-150.52699279785156,-44.85100173950195 -101.19300079345703,-58.25899887084961 -101.19300079345703,-58.25899887084961 C-101.19300079345703,-58.25899887084961 -111,-24.992000579833984 -111,-24.992000579833984z"></path></g><g opacity="1" transform="matrix(1,0,0,1,0,0)"><path stroke-linecap="round" stroke-linejoin="round" fill-opacity="0" stroke="rgb(170,93,9)" stroke-opacity="1" stroke-width="8" d=" M-128.81399536132812,66.56400299072266 C-125.54299926757812,64.6259994506836 -125.85600280761719,37.862998962402344 -124.3290023803711,1.2549999952316284 C-124.3290023803711,1.2549999952316284 -124.3290023803711,1.2549999952316284 -124.3290023803711,1.2549999952316284 C-124.3290023803711,1.2549999952316284 -109.04499816894531,-19.954999923706055 -101.19300079345703,-58.25899887084961 C-101.19300079345703,-58.25899887084961 96.58599853515625,-58.25899887084961 96.58599853515625,-58.25899887084961 C96.58599853515625,-58.25899887084961 99.39800262451172,-28.76099967956543 117.3740005493164,1.093999981880188 C117.3740005493164,1.093999981880188 111.75599670410156,56.358001708984375 117.3740005493164,64.625 C122.99199676513672,72.89199829101562 140.95899963378906,6.326000213623047 136.72799682617188,-43.15700149536133 C132.63999938964844,-90.95800018310547 105.00299835205078,-156.7429962158203 -7.175000190734863,-156.7429962158203 C-121.19499969482422,-156.7429962158203 -146.4080047607422,-77.59100341796875 -149.91600036621094,-40.36399841308594 C-153.41600036621094,-3.2239999771118164 -141.04100036621094,73.80899810791016 -128.81399536132812,66.56400299072266z"></path></g><g opacity="1" transform="matrix(1,0,0,1,0,0)"><path stroke-linecap="round" stroke-linejoin="round" fill-opacity="0" stroke="rgb(142,67,0)" stroke-opacity="1" stroke-width="8" d=" M-128.81399536132812,66.56400299072266 C-125.54299926757812,64.6259994506836 -125.85600280761719,37.862998962402344 -124.3290023803711,1.2549999952316284 C-124.3290023803711,1.2549999952316284 -124.3290023803711,1.2549999952316284 -124.3290023803711,1.2549999952316284 C-124.3290023803711,1.2549999952316284 -109.04499816894531,-19.954999923706055 -101.19300079345703,-58.25899887084961 C-101.19300079345703,-58.25899887084961 96.58599853515625,-58.25899887084961 96.58599853515625,-58.25899887084961 C96.58599853515625,-58.25899887084961 99.39800262451172,-28.76099967956543 117.3740005493164,1.093999981880188 C117.3740005493164,1.093999981880188 111.75599670410156,56.358001708984375 117.3740005493164,64.625"></path></g></g><g style="display: block;" transform="matrix(1,0,0,1,256,256)" opacity="1"><g opacity="1" transform="matrix(1,0,0,1,0,0)"><path fill="url(#__lottie_element_38)" fill-opacity="1" d=" M36.11399841308594,135.3820037841797 C33.409000396728516,132.86700439453125 29.05299949645996,132.30299377441406 -4.386000156402588,132.30299377441406 C-37.02000045776367,132.30299377441406 -41.74399948120117,132.86700439453125 -44.8849983215332,135.3820037841797 C-47.367000579833984,137.36900329589844 -46.547000885009766,154.72900390625 -4.39300012588501,154.72900390625 C37.08399963378906,154.72900390625 38.29399871826172,137.40899658203125 36.11399841308594,135.3820037841797z"></path></g><g opacity="1" transform="matrix(1,0,0,1,0,0)"><path fill="url(#__lottie_element_39)" mask="url(#__lottie_element_41)" fill-opacity="0.7000000000000001" d="M0 0 M35.85499954223633,141.2480010986328 C34.92399978637695,136.07200622558594 29.05299949645996,137.7760009765625 -4.386000156402588,137.7760009765625 C-37.02000045776367,137.7760009765625 -43.13399887084961,135.7469940185547 -44.62699890136719,141.2480010986328 C-45.2239990234375,143.447998046875 -31.922000885009766,159.5229949951172 -4.39300012588501,159.5229949951172 C22.667999267578125,159.5229949951172 36.27199935913086,143.57000732421875 35.85499954223633,141.2480010986328z"></path></g><g opacity="1" transform="matrix(1,0,0,1,0,0)"><path fill="rgb(136,24,4)" fill-opacity="1" d=" M34.82400131225586,138.8990020751953 C33.27899932861328,136.62399291992188 29.05299949645996,136.9929962158203 -4.386000156402588,136.9929962158203 C-37.02000045776367,136.9929962158203 -41.86399841308594,136.7030029296875 -43.595001220703125,138.8990020751953 C-45.1150016784668,140.8260040283203 -31.922000885009766,154.72900390625 -4.39300012588501,154.72900390625 C22.667999267578125,154.72900390625 36.23899841308594,140.98199462890625 34.82400131225586,138.8990020751953z"></path></g><g opacity="1" transform="matrix(1,0,0,1,0,0)"><path fill="url(#__lottie_element_42)" fill-opacity="1" d=" M34.82400131225586,138.8990020751953 C33.27899932861328,136.62399291992188 29.05299949645996,136.9929962158203 -4.386000156402588,136.9929962158203 C-37.02000045776367,136.9929962158203 -41.86399841308594,136.7030029296875 -43.595001220703125,138.8990020751953 C-45.1150016784668,140.8260040283203 -31.922000885009766,154.72900390625 -4.39300012588501,154.72900390625 C22.667999267578125,154.72900390625 36.23899841308594,140.98199462890625 34.82400131225586,138.8990020751953z"></path></g><g opacity="1" transform="matrix(1,0,0,1,0,0)"><path fill="url(#__lottie_element_43)" fill-opacity="0.5" d=" M19.562999725341797,159.5229949951172 C19.562999725341797,164.83799743652344 12.282999992370605,172.5330047607422 -4.39300012588501,172.5330047607422 C-21.069000244140625,172.5330047607422 -28.349000930786133,164.83799743652344 -28.349000930786133,159.5229949951172 C-28.349000930786133,154.20799255371094 -21.069000244140625,159.5229949951172 -4.39300012588501,159.5229949951172 C12.282999992370605,159.5229949951172 19.562999725341797,154.20799255371094 19.562999725341797,159.5229949951172z"></path></g></g><g style="display: block;" transform="matrix(1,0,0,1,256,256)" opacity="1"><g opacity="1" transform="matrix(1,0,0,1,0,0)"><path fill="rgb(180,67,40)" fill-opacity="1" d=" M3.1589999198913574,-194.4219970703125 C3.1589999198913574,-188.69000244140625 -0.781000018119812,-184.04400634765625 -5.639999866485596,-184.04400634765625 C-10.49899959564209,-184.04400634765625 -14.439000129699707,-188.69000244140625 -14.439000129699707,-194.4219970703125 C-14.439000129699707,-200.1540069580078 -10.49899959564209,-204.8000030517578 -5.639999866485596,-204.8000030517578 C-0.781000018119812,-204.8000030517578 3.1589999198913574,-200.1540069580078 3.1589999198913574,-194.4219970703125z"></path><path stroke-linecap="round" stroke-linejoin="round" fill-opacity="0" stroke="rgb(137,48,30)" stroke-opacity="1" stroke-width="8" d=" M3.1589999198913574,-194.4219970703125 C3.1589999198913574,-188.69000244140625 -0.781000018119812,-184.04400634765625 -5.639999866485596,-184.04400634765625 C-10.49899959564209,-184.04400634765625 -14.439000129699707,-188.69000244140625 -14.439000129699707,-194.4219970703125 C-14.439000129699707,-200.1540069580078 -10.49899959564209,-204.8000030517578 -5.639999866485596,-204.8000030517578 C-0.781000018119812,-204.8000030517578 3.1589999198913574,-200.1540069580078 3.1589999198913574,-194.4219970703125z"></path></g><g opacity="1" transform="matrix(1,0,0,1,0,0)"><path fill="url(#__lottie_element_31)" fill-opacity="1" d=" M-4.466000080108643,-194.427001953125 C-95.8270034790039,-194.427001953125 -141.7480010986328,-140.43699645996094 -141.7480010986328,-89.9000015258789 C-141.7480010986328,-89.9000015258789 -4.466000080108643,-97.26000213623047 -4.466000080108643,-97.26000213623047 C-4.466000080108643,-97.26000213623047 132.8159942626953,-89.9000015258789 132.8159942626953,-89.9000015258789 C132.8159942626953,-140.43699645996094 86.89600372314453,-194.427001953125 -4.466000080108643,-194.427001953125z"></path></g><g opacity="1" transform="matrix(1,0,0,1,0,0)"><path fill="url(#__lottie_element_32)" fill-opacity="1" d=" M-46.87300109863281,-190.07699584960938 C-46.87300109863281,-190.07699584960938 -68.89900207519531,-182.51199340820312 -66.9219970703125,-119.47000122070312 C-66.9219970703125,-119.47000122070312 74.66999816894531,-114.89299774169922 74.66999816894531,-114.89299774169922 C74.66999816894531,-114.89299774169922 76.8949966430664,-171.76199340820312 45.7400016784668,-188.18099975585938 C45.7400016784668,-188.18099975585938 -4.466000080108643,-194.427001953125 -4.466000080108643,-194.427001953125 C-4.466000080108643,-194.427001953125 -46.87300109863281,-190.07699584960938 -46.87300109863281,-190.07699584960938z"></path></g><g opacity="1" transform="matrix(1.2882599830627441,0,0,1,-1.75,2.5)"><path fill="url(#__lottie_element_33)" fill-opacity="1" d=" M-35.46500015258789,-190.07699584960938 C-35.46500015258789,-190.07699584960938 -52.55099868774414,-182.51199340820312 -51.016998291015625,-119.47000122070312 C-51.016998291015625,-119.47000122070312 58.82099914550781,-114.89299774169922 58.82099914550781,-114.89299774169922 C58.82099914550781,-114.89299774169922 60.547000885009766,-171.76199340820312 36.37900161743164,-188.18099975585938 C36.37900161743164,-188.18099975585938 -2.568000078201294,-194.427001953125 -2.568000078201294,-194.427001953125 C-2.568000078201294,-194.427001953125 -35.46500015258789,-190.07699584960938 -35.46500015258789,-190.07699584960938z"></path></g><g opacity="1" transform="matrix(1,0,0,1,0,0)"><path fill="url(#__lottie_element_34)" fill-opacity="0.4" d=" M132.8179931640625,-89.9020004272461 C132.8179931640625,-89.9020004272461 123.66799926757812,-90.60099792480469 123.66799926757812,-90.60099792480469 C121.35700225830078,-137.68800354003906 76.0989990234375,-183.04100036621094 -4.461999893188477,-183.04100036621094 C-85.03399658203125,-183.04100036621094 -130.27000427246094,-137.68800354003906 -132.5919952392578,-90.61100006103516 C-132.5919952392578,-90.61100006103516 -141.7519989013672,-89.9020004272461 -141.7519989013672,-89.9020004272461 C-141.7519989013672,-140.44200134277344 -95.83200073242188,-194.43099975585938 -4.461999893188477,-194.43099975585938 C86.89800262451172,-194.43099975585938 132.8179931640625,-140.44200134277344 132.8179931640625,-89.9020004272461z"></path></g><g opacity="1" transform="matrix(1,0,0,1,0,0)"><path stroke-linecap="round" stroke-linejoin="round" fill-opacity="0" stroke="rgb(114,24,12)" stroke-opacity="1" stroke-width="8" d=" M-4.466000080108643,-194.427001953125 C-95.8270034790039,-194.427001953125 -141.7480010986328,-140.43699645996094 -141.7480010986328,-89.9000015258789 C-141.7480010986328,-89.9000015258789 -4.466000080108643,-97.26000213623047 -4.466000080108643,-97.26000213623047 C-4.466000080108643,-97.26000213623047 132.8159942626953,-89.9000015258789 132.8159942626953,-89.9000015258789 C132.8159942626953,-140.43699645996094 86.89600372314453,-194.427001953125 -4.466000080108643,-194.427001953125z"></path></g><g opacity="1" transform="matrix(1,0,0,1,0,0)"><path stroke-linecap="round" stroke-linejoin="round" fill-opacity="0" stroke="rgb(100,109,67)" stroke-opacity="1" stroke-width="8" d=" M52.551998138427734,-186.1820068359375 C36.07400131225586,-191.42799377441406 17.06599998474121,-194.427001953125 -4.466000080108643,-194.427001953125 C-21.128999710083008,-194.427001953125 -36.279998779296875,-192.63099670410156 -49.91699981689453,-189.38800048828125 C-49.91699981689453,-189.38800048828125 -51.823001861572266,-188.92300415039062 -51.823001861572266,-188.92300415039062"></path></g></g><g style="display: block;" transform="matrix(1,0,0,1,256,256)" opacity="1"><g opacity="1" transform="matrix(1,0,0,1,0,0)"><path fill="url(#__lottie_element_25)" fill-opacity="1" d=" M-7.894000053405762,-124.6050033569336 C-122.0739974975586,-124.6050033569336 -159.61199951171875,-83.69300079345703 -161.61900329589844,-72.5199966430664 C-163.61900329589844,-61.382999420166016 -164.61900329589844,-15.307000160217285 -164.61900329589844,-15.307000160217285 C-164.61900329589844,-34.39899826049805 -105.79399871826172,-57.459999084472656 -7.894000053405762,-57.459999084472656 C90.00599670410156,-57.459999084472656 148.83200073242188,-34.39899826049805 148.83200073242188,-15.307000160217285 C148.83200073242188,-15.307000160217285 147.83200073242188,-60.720001220703125 145.83200073242188,-72.5199966430664 C143.93499755859375,-83.71299743652344 106.28600311279297,-124.6050033569336 -7.894000053405762,-124.6050033569336z"></path></g><g opacity="1" transform="matrix(1,0,0,1,0,0)"><path fill="url(#__lottie_element_26)" fill-opacity="0.2" d=" M148.8179931640625,-15.831000328063965 C148.5780029296875,-20.01099967956543 145.55799865722656,-24.371999740600586 139.93800354003906,-28.631999969482422 C139.45799255371094,-41.422000885009766 138.7480010986328,-59.64099884033203 137.80799865722656,-65.52100372314453 C136.00799560546875,-76.71099853515625 100.3280029296875,-112.60099792480469 -7.892000198364258,-112.60099792480469 C-116.11199951171875,-112.60099792480469 -151.69200134277344,-76.69100189208984 -153.5919952392578,-65.52100372314453 C-154.54200744628906,-59.930999755859375 -155.2519989013672,-41.571998596191406 -155.7220001220703,-28.631999969482422 C-161.3419952392578,-24.371999740600586 -164.3719940185547,-20.01099967956543 -164.61199951171875,-15.831000328063965 C-164.49200439453125,-20.930999755859375 -163.49200439453125,-62.08100128173828 -161.6219940185547,-72.52100372314453 C-159.61199951171875,-83.69100189208984 -122.0719985961914,-124.60099792480469 -7.892000198364258,-124.60099792480469 C106.28800201416016,-124.60099792480469 143.93800354003906,-83.71099853515625 145.8280029296875,-72.52100372314453 C147.697998046875,-61.46099853515625 148.697998046875,-20.900999069213867 148.8179931640625,-15.831000328063965z"></path></g><g opacity="1" transform="matrix(1,0,0,1,0,0)"><path stroke-linecap="round" stroke-linejoin="round" fill-opacity="0" stroke="rgb(71,20,11)" stroke-opacity="1" stroke-width="8" d=" M-7.894000053405762,-124.6050033569336 C-122.0739974975586,-124.6050033569336 -159.61199951171875,-83.69300079345703 -161.61900329589844,-72.5199966430664 C-163.61900329589844,-61.382999420166016 -164.61900329589844,-15.307000160217285 -164.61900329589844,-15.307000160217285 C-164.61900329589844,-34.39899826049805 -105.79399871826172,-57.459999084472656 -7.894000053405762,-57.459999084472656 C90.00599670410156,-57.459999084472656 148.83200073242188,-34.39899826049805 148.83200073242188,-15.307000160217285 C148.83200073242188,-15.307000160217285 147.83200073242188,-60.720001220703125 145.83200073242188,-72.5199966430664 C143.93499755859375,-83.71299743652344 106.28600311279297,-124.6050033569336 -7.894000053405762,-124.6050033569336z"></path></g><g opacity="1" transform="matrix(1,0,0,1,0,0)"><path fill="url(#__lottie_element_27)" fill-opacity="1" d=" M24.135000228881836,-90.68000030517578 C24.135000228881836,-75.3030014038086 10.243000030517578,-62.83700180053711 -6.894000053405762,-62.83700180053711 C-24.0310001373291,-62.83700180053711 -37.92300033569336,-75.3030014038086 -37.92300033569336,-90.68000030517578 C-37.92300033569336,-106.05699920654297 -24.0310001373291,-118.52300262451172 -6.894000053405762,-118.52300262451172 C10.243000030517578,-118.52300262451172 24.135000228881836,-106.05699920654297 24.135000228881836,-90.68000030517578z"></path></g><g opacity="1" transform="matrix(1,0,0,1,0,0)"><path fill="rgb(255,249,176)" fill-opacity="0.4" d=" M-6.892000198364258,-118.52100372314453 C-24.031999588012695,-118.52100372314453 -37.922000885009766,-106.06099700927734 -37.922000885009766,-90.68099975585938 C-37.922000885009766,-75.3010025024414 -24.031999588012695,-62.840999603271484 -6.892000198364258,-62.840999603271484 C10.248000144958496,-62.840999603271484 24.13800048828125,-75.3010025024414 24.13800048828125,-90.68099975585938 C24.13800048828125,-106.06099700927734 10.248000144958496,-118.52100372314453 -6.892000198364258,-118.52100372314453z M-6.892000198364258,-63.840999603271484 C-21.742000579833984,-63.840999603271484 -33.79199981689453,-74.18099975585938 -33.79199981689453,-86.93099975585938 C-33.79199981689453,-99.69100189208984 -21.742000579833984,-109.03099822998047 -6.892000198364258,-109.03099822998047 C7.958000183105469,-109.03099822998047 19.99799919128418,-99.69100189208984 19.99799919128418,-86.93099975585938 C19.99799919128418,-74.18099975585938 7.958000183105469,-63.840999603271484 -6.892000198364258,-63.840999603271484z"></path></g><g opacity="1" transform="matrix(1,0,0,1,0,0)"><path stroke-linecap="round" stroke-linejoin="round" fill-opacity="0" stroke="rgb(26,11,9)" stroke-opacity="1" stroke-width="8" d=" M-164.61900329589844,-15.307000160217285 C-164.61900329589844,-34.39899826049805 -105.79399871826172,-57.459999084472656 -7.894000053405762,-57.459999084472656 C90.00599670410156,-57.459999084472656 148.83200073242188,-34.39899826049805 148.83200073242188,-15.307000160217285"></path></g><g opacity="1" transform="matrix(1,0,0,1,0,0)"><path stroke-linecap="round" stroke-linejoin="round" fill-opacity="0" stroke="rgb(142,91,30)" stroke-opacity="1" stroke-width="8" d=" M24.135000228881836,-90.68000030517578 C24.135000228881836,-75.3030014038086 10.243000030517578,-62.83700180053711 -6.894000053405762,-62.83700180053711 C-24.0310001373291,-62.83700180053711 -37.92300033569336,-75.3030014038086 -37.92300033569336,-90.68000030517578 C-37.92300033569336,-106.05699920654297 -24.0310001373291,-118.52300262451172 -6.894000053405762,-118.52300262451172 C10.243000030517578,-118.52300262451172 24.135000228881836,-106.05699920654297 24.135000228881836,-90.68000030517578z"></path></g></g><g style="display: block;" transform="matrix(1,0,0,1,256,256)" opacity="1"><g opacity="1" transform="matrix(1,0,0,1,0,0)"><g opacity="1" transform="matrix(1,0,0,1,0,0)"><path fill="rgb(255,255,255)" fill-opacity="1" d=" M28.802000045776367,67.37799835205078 C25.31599998474121,65.92500305175781 23.174999237060547,62.388999938964844 23.503000259399414,58.62699890136719 C24.097999572753906,51.8129997253418 26.531999588012695,40.57600021362305 35.60900115966797,32.2599983215332 C47.56999969482422,21.302000045776367 70.08899688720703,22.37700080871582 81.3740005493164,36.41699981689453 C86.76000213623047,43.11800003051758 88.23799896240234,50.470001220703125 88.53800201416016,55.40800094604492 C88.76799774169922,59.18299865722656 86.94200134277344,62.755001068115234 83.7770004272461,64.82599639892578 C79.30000305175781,67.75499725341797 71.53099822998047,71.4800033569336 60.36899948120117,72.11699676513672 C45.41699981689453,72.97000122070312 34.72700119018555,69.84700012207031 28.802000045776367,67.37799835205078z"></path></g><g opacity="1" transform="matrix(0.900879979133606,0,0,0.900879979133606,119.71247863769531,33.66025924682617)"><g opacity="1" transform="matrix(1,0,0,1,0,0)"><path fill="url(#__lottie_element_16)" fill-opacity="1" d=" M-47.98400115966797,16.822999954223633 C-47.98400115966797,29.83099937438965 -58.52899932861328,40.375999450683594 -71.53700256347656,40.375999450683594 C-84.54499816894531,40.375999450683594 -95.08999633789062,29.83099937438965 -95.08999633789062,16.822999954223633 C-95.08999633789062,3.815000057220459 -84.54499816894531,-6.730000019073486 -71.53700256347656,-6.730000019073486 C-58.52899932861328,-6.730000019073486 -47.98400115966797,3.815000057220459 -47.98400115966797,16.822999954223633z"></path></g><g opacity="1" transform="matrix(1,0,0,1,0,0)"><g opacity="1" transform="matrix(1,0,0,1,0,0)"><path fill="url(#__lottie_element_17)" fill-opacity="1" d=" M-65.59600067138672,39.303001403808594 C-67.43699645996094,39.303001403808594 -69.14099884033203,38.11399841308594 -69.71199798583984,36.26300048828125 C-70.41400146484375,33.9900016784668 -69.13899993896484,31.577999114990234 -66.86499786376953,30.87700080871582 C-62.51599884033203,29.53499984741211 -59.053001403808594,26.1560001373291 -57.604000091552734,21.83799934387207 C-56.84700012207031,19.58099937438965 -54.400001525878906,18.368999481201172 -52.14899826049805,19.125 C-49.893001556396484,19.881999969482422 -48.67900085449219,22.323999404907227 -49.43600082397461,24.579999923706055 C-51.76599884033203,31.520999908447266 -57.33100128173828,36.952999114990234 -64.32599639892578,39.11000061035156 C-64.7490005493164,39.2400016784668 -65.1760025024414,39.303001403808594 -65.59600067138672,39.303001403808594z"></path></g></g><g opacity="1" transform="matrix(1,0,0,1,0,0)"><path fill="rgb(24,19,9)" fill-opacity="1" d=" M-56.652000427246094,16.822999954223633 C-56.652000427246094,25.04400062561035 -63.316001892089844,31.708999633789062 -71.53700256347656,31.708999633789062 C-79.75800323486328,31.708999633789062 -86.4229965209961,25.04400062561035 -86.4229965209961,16.822999954223633 C-86.4229965209961,8.60200023651123 -79.75800323486328,1.937999963760376 -71.53700256347656,1.937999963760376 C-63.316001892089844,1.937999963760376 -56.652000427246094,8.60200023651123 -56.652000427246094,16.822999954223633z"></path></g><g opacity="1" transform="matrix(1,0,0,1,0,0)"><path fill="url(#__lottie_element_18)" fill-opacity="1" d=" M-72.80500030517578,3.98799991607666 C-72.80500030517578,7.326000213623047 -75.35900115966797,10.032999992370605 -78.50900268554688,10.032999992370605 C-81.65899658203125,10.032999992370605 -84.21299743652344,7.326000213623047 -84.21299743652344,3.98799991607666 C-84.21299743652344,0.6499999761581421 -81.65899658203125,-2.055999994277954 -78.50900268554688,-2.055999994277954 C-75.35900115966797,-2.055999994277954 -72.80500030517578,0.6499999761581421 -72.80500030517578,3.98799991607666z"></path></g></g><g opacity="1" transform="matrix(1,0,0,1,0,0)"><path fill="rgb(163,65,0)" fill-opacity="1" d=" M23.878999710083008,53.78099822998047 C25.604000091552734,37.683998107910156 35.242000579833984,22.018999099731445 55.566001892089844,22.014999389648438 C72.66999816894531,22.011999130249023 85.34400177001953,34.560001373291016 87.59500122070312,46.96799850463867 C83.54299926757812,34.319000244140625 71.72899627685547,23.624000549316406 54.85499954223633,24.263999938964844 C34.29399871826172,25.04400062561035 27.03700065612793,38.387001037597656 23.878999710083008,53.78099822998047z"></path><path stroke-linecap="round" stroke-linejoin="round" fill-opacity="0" stroke="rgb(163,65,0)" stroke-opacity="1" stroke-width="2" d=" M23.878999710083008,53.78099822998047 C25.604000091552734,37.683998107910156 35.242000579833984,22.018999099731445 55.566001892089844,22.014999389648438 C72.66999816894531,22.011999130249023 85.34400177001953,34.560001373291016 87.59500122070312,46.96799850463867 C83.54299926757812,34.319000244140625 71.72899627685547,23.624000549316406 54.85499954223633,24.263999938964844 C34.29399871826172,25.04400062561035 27.03700065612793,38.387001037597656 23.878999710083008,53.78099822998047z"></path></g></g><g opacity="1" transform="matrix(1,0,0,1,0,0)"><g opacity="1" transform="matrix(1,0,0,1,0,0)"><g opacity="1" transform="matrix(1,0,0,1,0,0)"><path fill="rgb(255,255,255)" fill-opacity="1" d=" M-36.94900131225586,67.37799835205078 C-33.4630012512207,65.92500305175781 -31.322999954223633,62.388999938964844 -31.650999069213867,58.62699890136719 C-32.244998931884766,51.8129997253418 -34.68000030517578,40.57600021362305 -43.75699996948242,32.2599983215332 C-55.71799850463867,21.302000045776367 -78.23600006103516,22.37700080871582 -89.52100372314453,36.41699981689453 C-94.90699768066406,43.11800003051758 -96.38500213623047,50.470001220703125 -96.68499755859375,55.40800094604492 C-96.91500091552734,59.18299865722656 -95.08899688720703,62.755001068115234 -91.92400360107422,64.82599639892578 C-87.4469985961914,67.75499725341797 -79.67900085449219,71.4800033569336 -68.51699829101562,72.11699676513672 C-53.564998626708984,72.97000122070312 -42.874000549316406,69.84700012207031 -36.94900131225586,67.37799835205078z"></path></g><g opacity="1" transform="matrix(0.900879979133606,0,0,0.900879979133606,1.1504783630371094,33.66025924682617)"><g opacity="1" transform="matrix(1,0,0,1,0,0)"><path fill="url(#__lottie_element_19)" fill-opacity="1" d=" M-47.98400115966797,16.822999954223633 C-47.98400115966797,29.83099937438965 -58.52899932861328,40.375999450683594 -71.53700256347656,40.375999450683594 C-84.54499816894531,40.375999450683594 -95.08999633789062,29.83099937438965 -95.08999633789062,16.822999954223633 C-95.08999633789062,3.815000057220459 -84.54499816894531,-6.730000019073486 -71.53700256347656,-6.730000019073486 C-58.52899932861328,-6.730000019073486 -47.98400115966797,3.815000057220459 -47.98400115966797,16.822999954223633z"></path></g><g opacity="1" transform="matrix(1,0,0,1,0,0)"><g opacity="1" transform="matrix(1,0,0,1,0,0)"><path fill="url(#__lottie_element_20)" fill-opacity="1" d=" M-65.59600067138672,39.303001403808594 C-67.43699645996094,39.303001403808594 -69.14099884033203,38.11399841308594 -69.71199798583984,36.26300048828125 C-70.41400146484375,33.9900016784668 -69.13899993896484,31.577999114990234 -66.86499786376953,30.87700080871582 C-62.51599884033203,29.53499984741211 -59.053001403808594,26.1560001373291 -57.604000091552734,21.83799934387207 C-56.84700012207031,19.58099937438965 -54.400001525878906,18.368999481201172 -52.14899826049805,19.125 C-49.893001556396484,19.881999969482422 -48.67900085449219,22.323999404907227 -49.43600082397461,24.579999923706055 C-51.76599884033203,31.520999908447266 -57.33100128173828,36.952999114990234 -64.32599639892578,39.11000061035156 C-64.7490005493164,39.2400016784668 -65.1760025024414,39.303001403808594 -65.59600067138672,39.303001403808594z"></path></g></g><g opacity="1" transform="matrix(1,0,0,1,0,0)"><path fill="rgb(24,19,9)" fill-opacity="1" d=" M-56.652000427246094,16.822999954223633 C-56.652000427246094,25.04400062561035 -63.316001892089844,31.708999633789062 -71.53700256347656,31.708999633789062 C-79.75800323486328,31.708999633789062 -86.4229965209961,25.04400062561035 -86.4229965209961,16.822999954223633 C-86.4229965209961,8.60200023651123 -79.75800323486328,1.937999963760376 -71.53700256347656,1.937999963760376 C-63.316001892089844,1.937999963760376 -56.652000427246094,8.60200023651123 -56.652000427246094,16.822999954223633z"></path></g><g opacity="1" transform="matrix(1,0,0,1,0,0)"><path fill="url(#__lottie_element_21)" fill-opacity="1" d=" M-72.80500030517578,3.98799991607666 C-72.80500030517578,7.326000213623047 -75.35900115966797,10.032999992370605 -78.50900268554688,10.032999992370605 C-81.65899658203125,10.032999992370605 -84.21299743652344,7.326000213623047 -84.21299743652344,3.98799991607666 C-84.21299743652344,0.6499999761581421 -81.65899658203125,-2.055999994277954 -78.50900268554688,-2.055999994277954 C-75.35900115966797,-2.055999994277954 -72.80500030517578,0.6499999761581421 -72.80500030517578,3.98799991607666z"></path></g></g><g opacity="1" transform="matrix(1,0,0,1,0,0)"><path fill="rgb(163,65,0)" fill-opacity="1" d=" M-32.027000427246094,53.78099822998047 C-33.75199890136719,37.683998107910156 -43.38999938964844,22.018999099731445 -63.7140007019043,22.014999389648438 C-80.81800079345703,22.011999130249023 -93.49199676513672,34.560001373291016 -95.74299621582031,46.96799850463867 C-91.69100189208984,34.319000244140625 -79.87699890136719,23.624000549316406 -63.00299835205078,24.263999938964844 C-42.44200134277344,25.04400062561035 -35.185001373291016,38.387001037597656 -32.027000427246094,53.78099822998047z"></path><path stroke-linecap="round" stroke-linejoin="round" fill-opacity="0" stroke="rgb(163,65,0)" stroke-opacity="1" stroke-width="2" d=" M-32.027000427246094,53.78099822998047 C-33.75199890136719,37.683998107910156 -43.38999938964844,22.018999099731445 -63.7140007019043,22.014999389648438 C-80.81800079345703,22.011999130249023 -93.49199676513672,34.560001373291016 -95.74299621582031,46.96799850463867 C-91.69100189208984,34.319000244140625 -79.87699890136719,23.624000549316406 -63.00299835205078,24.263999938964844 C-42.44200134277344,25.04400062561035 -35.185001373291016,38.387001037597656 -32.027000427246094,53.78099822998047z"></path></g></g></g></g><g style="display: block;" transform="matrix(1,0,0,1,256,256)" opacity="0.7000000000000001"><g opacity="1" transform="matrix(1,0,0,1,0,0)"><path stroke-linecap="round" stroke-linejoin="round" fill-opacity="0" stroke="rgb(163,65,0)" stroke-opacity="1" stroke-width="15" d=" M38.41699981689453,2.9200000762939453 C38.41699981689453,2.9200000762939453 57.4370002746582,-1.468999981880188 74.66999816894531,6.857999801635742"></path></g><g opacity="1" transform="matrix(1,0,0,1,0,0)"><path stroke-linecap="round" stroke-linejoin="round" fill-opacity="0" stroke="rgb(163,65,0)" stroke-opacity="1" stroke-width="15" d=" M-46.87300109863281,2.9200000762939453 C-46.87300109863281,2.9200000762939453 -65.89399719238281,-1.468999981880188 -83.12699890136719,6.857999801635742"></path></g></g><g style="display: block;" transform="matrix(0.8600000143051147,0,0,0.8600000143051147,254.9510498046875,289.5611877441406)" opacity="1"><g opacity="1" transform="matrix(1,0,0,1,0,0)"><path fill="url(#__lottie_element_6)" fill-opacity="1" d=" M25.260000228881836,83.00599670410156 C25.260000228881836,95.93000030517578 13.814000129699707,106.40799713134766 -3.9210000038146973,106.40799713134766 C-21.6560001373291,106.40799713134766 -33.10200119018555,95.93000030517578 -33.10200119018555,83.00599670410156 C-37.5,49.625 29.875,48.75 25.260000228881836,83.00599670410156z"></path></g><g opacity="1" transform="matrix(1,0,0,1,0,0)"><path fill="rgb(255,168,0)" fill-opacity="0.8" d=" M25.871000289916992,78.61000061035156 C25.871000289916992,90.5999984741211 12.532999992370605,100.31999969482422 -3.9210000038146973,100.31999969482422 C-20.375,100.31999969482422 -33.7130012512207,90.5999984741211 -33.7130012512207,78.61000061035156 C-33.7130012512207,66.62000274658203 -20.375,57.4109992980957 -3.9210000038146973,57.4109992980957 C12.532999992370605,57.4109992980957 25.871000289916992,66.62000274658203 25.871000289916992,78.61000061035156z"></path></g><g opacity="1" transform="matrix(1,0,0,1,0,0)"><path fill="url(#__lottie_element_7)" fill-opacity="1" d=" M25.871000289916992,78.61000061035156 C25.871000289916992,90.5999984741211 12.532999992370605,100.31999969482422 -3.9210000038146973,100.31999969482422 C-20.375,100.31999969482422 -33.7130012512207,90.5999984741211 -33.7130012512207,78.61000061035156 C-33.7130012512207,66.62000274658203 -20.375,57.4109992980957 -3.9210000038146973,57.4109992980957 C12.532999992370605,57.4109992980957 25.871000289916992,66.62000274658203 25.871000289916992,78.61000061035156z"></path></g><g opacity="1" transform="matrix(1,0,0,1,0,0)"><path fill="rgb(255,216,0)" fill-opacity="1" d=" M23.19300079345703,72.87200164794922 C23.19300079345703,81.7979965209961 10.312999725341797,90.3759994506836 -3.9210000038146973,90.3759994506836 C-18.155000686645508,90.3759994506836 -31.03499984741211,81.7979965209961 -31.03499984741211,72.87200164794922 C-31.03499984741211,63.94599914550781 -18.155000686645508,56.965999603271484 -3.9210000038146973,56.965999603271484 C10.312999725341797,56.965999603271484 23.19300079345703,63.94599914550781 23.19300079345703,72.87200164794922z"></path></g><g opacity="1" transform="matrix(1,0,0,1,0,0)"><path fill="url(#__lottie_element_8)" fill-opacity="1" d=" M23.19300079345703,72.87200164794922 C23.19300079345703,81.7979965209961 10.312999725341797,90.3759994506836 -3.9210000038146973,90.3759994506836 C-18.155000686645508,90.3759994506836 -31.03499984741211,81.7979965209961 -31.03499984741211,72.87200164794922 C-31.03499984741211,63.94599914550781 -18.155000686645508,56.965999603271484 -3.9210000038146973,56.965999603271484 C10.312999725341797,56.965999603271484 23.19300079345703,63.94599914550781 23.19300079345703,72.87200164794922z"></path></g><g opacity="1" transform="matrix(1,0,0,1,0,0)"><path fill="url(#__lottie_element_9)" fill-opacity="0.7000000000000001" d=" M8.175000190734863,67.11000061035156 C8.175000190734863,73.16699981689453 2.759000062942505,78.86599731445312 -3.9210000038146973,78.86599731445312 C-10.60099983215332,78.86599731445312 -16.017000198364258,73.16699981689453 -16.017000198364258,67.11000061035156 C-16.017000198364258,61.053001403808594 -10.60099983215332,58.013999938964844 -3.9210000038146973,58.013999938964844 C2.759000062942505,58.013999938964844 8.175000190734863,61.053001403808594 8.175000190734863,67.11000061035156z"></path></g></g></g></svg>