<svg xmlns="http://www.w3.org/2000/svg" xmlns:xlink="http://www.w3.org/1999/xlink" viewBox="0 0 512 512" width="512" height="512" style="width: 100%; height: 100%; transform: translate3d(0,0,0); content-visibility: visible;" preserveAspectRatio="xMidYMid meet"><defs><clipPath id="__lottie_element_2"><rect width="512" height="512" x="0" y="0"></rect></clipPath><radialGradient id="__lottie_element_6" spreadMethod="pad" gradientUnits="userSpaceOnUse" cx="26.25" cy="-139.75" r="71.9365259634963" fx="26.25" fy="-139.75"><stop offset="0%" stop-color="rgb(255,168,0)" stop-opacity="1"></stop><stop offset="67%" stop-color="rgb(255,168,0)" stop-opacity="0.5"></stop><stop offset="100%" stop-color="rgb(255,168,0)" stop-opacity="0"></stop></radialGradient><radialGradient id="__lottie_element_7" spreadMethod="pad" gradientUnits="userSpaceOnUse" cx="42" cy="-166" r="49.685997009277344" fx="42" fy="-166"><stop offset="0%" stop-color="rgb(255,205,0)" stop-opacity="1"></stop><stop offset="68%" stop-color="rgb(255,205,0)" stop-opacity="0.5"></stop><stop offset="100%" stop-color="rgb(255,205,0)" stop-opacity="0"></stop></radialGradient><linearGradient id="__lottie_element_8" spreadMethod="pad" gradientUnits="userSpaceOnUse" x1="45" y1="-200" x2="25.18199920654297" y2="-164.8679962158203"><stop offset="0%" stop-color="rgb(255,255,255)" stop-opacity="1"></stop><stop offset="50%" stop-color="rgb(255,255,255)" stop-opacity="0.5"></stop><stop offset="100%" stop-color="rgb(255,255,255)" stop-opacity="0"></stop></linearGradient><linearGradient id="__lottie_element_9" spreadMethod="pad" gradientUnits="userSpaceOnUse" x1="-24" y1="-139" x2="65.9280014038086" y2="-157.1999969482422"><stop offset="12%" stop-color="rgb(218,110,0)" stop-opacity="1"></stop><stop offset="48%" stop-color="rgb(218,110,0)" stop-opacity="0.5"></stop><stop offset="84%" stop-color="rgb(218,110,0)" stop-opacity="0"></stop></linearGradient><linearGradient id="__lottie_element_16" spreadMethod="pad" gradientUnits="userSpaceOnUse" x1="-85.9260025024414" y1="-18.986000061035156" x2="-65.16600036621094" y2="14.65999984741211"><stop offset="0%" stop-color="rgb(66,0,0)"></stop><stop offset="37%" stop-color="rgb(118,40,0)"></stop><stop offset="100%" stop-color="rgb(170,80,0)"></stop></linearGradient><radialGradient id="__lottie_element_17" spreadMethod="pad" gradientUnits="userSpaceOnUse" cx="-67.9260025024414" cy="6.763999938964844" r="14.795001983642578" fx="-67.9260025024414" fy="6.763999938964844"><stop offset="0%" stop-color="rgb(246,175,0)" stop-opacity="1"></stop><stop offset="50%" stop-color="rgb(246,175,0)" stop-opacity="0.5"></stop><stop offset="100%" stop-color="rgb(246,175,0)" stop-opacity="0"></stop></radialGradient><linearGradient id="__lottie_element_18" spreadMethod="pad" gradientUnits="userSpaceOnUse" x1="-87.48799896240234" y1="-28.673999786376953" x2="-87.30999755859375" y2="-16.361000061035156"><stop offset="0%" stop-color="rgb(255,255,255)" stop-opacity="1"></stop><stop offset="60%" stop-color="rgb(255,255,255)" stop-opacity="0.5"></stop><stop offset="100%" stop-color="rgb(255,255,255)" stop-opacity="0"></stop></linearGradient><linearGradient id="__lottie_element_19" spreadMethod="pad" gradientUnits="userSpaceOnUse" x1="-85.9260025024414" y1="-18.986000061035156" x2="-65.16600036621094" y2="14.65999984741211"><stop offset="0%" stop-color="rgb(66,0,0)"></stop><stop offset="37%" stop-color="rgb(118,40,0)"></stop><stop offset="100%" stop-color="rgb(170,80,0)"></stop></linearGradient><radialGradient id="__lottie_element_20" spreadMethod="pad" gradientUnits="userSpaceOnUse" cx="-67.9260025024414" cy="6.763999938964844" r="14.795001983642578" fx="-67.9260025024414" fy="6.763999938964844"><stop offset="0%" stop-color="rgb(246,175,0)" stop-opacity="1"></stop><stop offset="50%" stop-color="rgb(246,175,0)" stop-opacity="0.5"></stop><stop offset="100%" stop-color="rgb(246,175,0)" stop-opacity="0"></stop></radialGradient><linearGradient id="__lottie_element_21" spreadMethod="pad" gradientUnits="userSpaceOnUse" x1="-87.48799896240234" y1="-28.673999786376953" x2="-87.30999755859375" y2="-16.361000061035156"><stop offset="0%" stop-color="rgb(255,255,255)" stop-opacity="1"></stop><stop offset="60%" stop-color="rgb(255,255,255)" stop-opacity="0.5"></stop><stop offset="100%" stop-color="rgb(255,255,255)" stop-opacity="0"></stop></linearGradient><linearGradient id="__lottie_element_25" spreadMethod="pad" gradientUnits="userSpaceOnUse" x1="-1" y1="116" x2="-1" y2="129.86000061035156"><stop offset="0%" stop-color="rgb(255,168,0)" stop-opacity="1"></stop><stop offset="50%" stop-color="rgb(255,168,0)" stop-opacity="0.5"></stop><stop offset="100%" stop-color="rgb(255,168,0)" stop-opacity="0"></stop></linearGradient><radialGradient id="__lottie_element_26" spreadMethod="pad" gradientUnits="userSpaceOnUse" cx="-1" cy="123" r="52.40700149536133" fx="-1" fy="123"><stop offset="0%" stop-color="rgb(255,255,255)" stop-opacity="1"></stop><stop offset="60%" stop-color="rgb(255,255,255)" stop-opacity="0.5"></stop><stop offset="100%" stop-color="rgb(255,255,255)" stop-opacity="0"></stop></radialGradient><linearGradient id="__lottie_element_27" spreadMethod="pad" gradientUnits="userSpaceOnUse" x1="-1" y1="137" x2="-1" y2="121.71900177001953"><stop offset="0%" stop-color="rgb(88,11,14)" stop-opacity="0"></stop><stop offset="34%" stop-color="rgb(88,11,14)" stop-opacity="0.5"></stop><stop offset="75%" stop-color="rgb(88,11,14)" stop-opacity="1"></stop></linearGradient><linearGradient id="__lottie_element_31" spreadMethod="pad" gradientUnits="userSpaceOnUse" x1="-5.926000118255615" y1="73.76399993896484" x2="-5.926000118255615" y2="108.93000030517578"><stop offset="0%" stop-color="rgb(255,168,0)" stop-opacity="1"></stop><stop offset="66%" stop-color="rgb(255,168,0)" stop-opacity="0.5"></stop><stop offset="100%" stop-color="rgb(255,168,0)" stop-opacity="0"></stop></linearGradient><linearGradient id="__lottie_element_32" spreadMethod="pad" gradientUnits="userSpaceOnUse" x1="-5.301000118255615" y1="83.63899993896484" x2="-5.676000118255615" y2="56.98899841308594"><stop offset="10%" stop-color="rgb(219,110,0)" stop-opacity="1"></stop><stop offset="51%" stop-color="rgb(219,110,0)" stop-opacity="0.5"></stop><stop offset="80%" stop-color="rgb(219,110,0)" stop-opacity="0"></stop></linearGradient><radialGradient id="__lottie_element_33" spreadMethod="pad" gradientUnits="userSpaceOnUse" cx="-5.926000118255615" cy="50.763999938964844" r="30.842000484466553" fx="-5.926000118255615" fy="50.763999938964844"><stop offset="36%" stop-color="rgb(255,168,0)" stop-opacity="0"></stop><stop offset="74%" stop-color="rgb(255,168,0)" stop-opacity="0.5"></stop><stop offset="100%" stop-color="rgb(255,168,0)" stop-opacity="1"></stop></radialGradient><linearGradient id="__lottie_element_34" spreadMethod="pad" gradientUnits="userSpaceOnUse" x1="-5.926000118255615" y1="47.763999938964844" x2="-5.926000118255615" y2="60.27199935913086"><stop offset="0%" stop-color="rgb(255,255,255)" stop-opacity="1"></stop><stop offset="50%" stop-color="rgb(255,255,255)" stop-opacity="0.5"></stop><stop offset="100%" stop-color="rgb(255,255,255)" stop-opacity="0"></stop></linearGradient><linearGradient id="__lottie_element_38" spreadMethod="pad" gradientUnits="userSpaceOnUse" x1="0.6439999938011169" y1="-101.2760009765625" x2="0.6439999938011169" y2="103.7490005493164"><stop offset="0%" stop-color="rgb(255,216,0)" stop-opacity="1"></stop><stop offset="52%" stop-color="rgb(255,216,0)" stop-opacity="0.5"></stop><stop offset="100%" stop-color="rgb(255,216,0)" stop-opacity="0"></stop></linearGradient><linearGradient id="__lottie_element_39" spreadMethod="pad" gradientUnits="userSpaceOnUse" x1="0.6439999938011169" y1="-113.2760009765625" x2="0.6439999938011169" y2="170.67999267578125"><stop offset="0%" stop-color="rgb(255,216,0)" stop-opacity="0"></stop><stop offset="11%" stop-color="rgb(255,216,0)" stop-opacity="0.5"></stop><stop offset="45%" stop-color="rgb(255,216,0)" stop-opacity="1"></stop><stop offset="90%" stop-color="rgb(255,216,0)" stop-opacity="0.5"></stop><stop offset="100%" stop-color="rgb(255,216,0)" stop-opacity="0"></stop></linearGradient><linearGradient id="__lottie_element_40" spreadMethod="pad" gradientUnits="userSpaceOnUse" x1="0.6439999938011169" y1="-115.2760009765625" x2="0.6439999938011169" y2="-49.02299880981445"><stop offset="0%" stop-color="rgb(255,255,255)" stop-opacity="1"></stop><stop offset="50%" stop-color="rgb(255,255,255)" stop-opacity="0.5"></stop><stop offset="100%" stop-color="rgb(255,255,255)" stop-opacity="0"></stop></linearGradient><linearGradient id="__lottie_element_44" spreadMethod="pad" gradientUnits="userSpaceOnUse" x1="-88.35600280761719" y1="184.7239990234375" x2="-64.16200256347656" y2="196.31700134277344"><stop offset="13%" stop-color="rgb(163,163,163)"></stop><stop offset="54%" stop-color="rgb(158,159,159)"></stop><stop offset="100%" stop-color="rgb(153,154,155)"></stop></linearGradient><linearGradient id="__lottie_element_45" spreadMethod="pad" gradientUnits="userSpaceOnUse" x1="-112.35600280761719" y1="178.7239990234375" x2="-88.12100219726562" y2="189.78799438476562"><stop offset="14%" stop-color="rgb(173,173,173)"></stop><stop offset="54%" stop-color="rgb(157,157,157)"></stop><stop offset="100%" stop-color="rgb(141,141,141)"></stop></linearGradient><linearGradient id="__lottie_element_46" spreadMethod="pad" gradientUnits="userSpaceOnUse" x1="-140.3560028076172" y1="170.7239990234375" x2="-119.95800018310547" y2="188.20799255371094"><stop offset="0%" stop-color="rgb(190,190,190)"></stop><stop offset="47%" stop-color="rgb(175,175,175)"></stop><stop offset="100%" stop-color="rgb(160,160,160)"></stop></linearGradient><linearGradient id="__lottie_element_47" spreadMethod="pad" gradientUnits="userSpaceOnUse" x1="-159.3560028076172" y1="150.7239990234375" x2="-138.95799255371094" y2="177.61199951171875"><stop offset="18%" stop-color="rgb(211,211,211)"></stop><stop offset="56%" stop-color="rgb(179,179,179)"></stop><stop offset="100%" stop-color="rgb(147,147,147)"></stop></linearGradient><linearGradient id="__lottie_element_48" spreadMethod="pad" gradientUnits="userSpaceOnUse" x1="-170.3560028076172" y1="133.7239990234375" x2="-153.26499938964844" y2="159.36099243164062"><stop offset="0%" stop-color="rgb(214,214,214)"></stop><stop offset="47%" stop-color="rgb(176,176,176)"></stop><stop offset="100%" stop-color="rgb(139,139,139)"></stop></linearGradient><linearGradient id="__lottie_element_49" spreadMethod="pad" gradientUnits="userSpaceOnUse" x1="-176.3560028076172" y1="110.7239990234375" x2="-168.4340057373047" y2="136.60400390625"><stop offset="0%" stop-color="rgb(241,241,241)"></stop><stop offset="47%" stop-color="rgb(194,194,194)"></stop><stop offset="100%" stop-color="rgb(147,147,147)"></stop></linearGradient><linearGradient id="__lottie_element_50" spreadMethod="pad" gradientUnits="userSpaceOnUse" x1="-116.35600280761719" y1="143.7239990234375" x2="-89.4229965209961" y2="149.75999450683594"><stop offset="0%" stop-color="rgb(211,211,211)"></stop><stop offset="47%" stop-color="rgb(179,179,179)"></stop><stop offset="100%" stop-color="rgb(147,147,147)"></stop></linearGradient><linearGradient id="__lottie_element_51" spreadMethod="pad" gradientUnits="userSpaceOnUse" x1="-125.35600280761719" y1="136.7239990234375" x2="-101.5" y2="136.7239990234375"><stop offset="0%" stop-color="rgb(211,211,211)"></stop><stop offset="37%" stop-color="rgb(179,179,179)"></stop><stop offset="78%" stop-color="rgb(147,147,147)"></stop></linearGradient><linearGradient id="__lottie_element_52" spreadMethod="pad" gradientUnits="userSpaceOnUse" x1="-136.3560028076172" y1="122.7239990234375" x2="-111.87000274658203" y2="122.7239990234375"><stop offset="15%" stop-color="rgb(211,211,211)"></stop><stop offset="55%" stop-color="rgb(179,179,179)"></stop><stop offset="100%" stop-color="rgb(147,147,147)"></stop></linearGradient><linearGradient id="__lottie_element_53" spreadMethod="pad" gradientUnits="userSpaceOnUse" x1="-148.3560028076172" y1="104.7239990234375" x2="-125.39900207519531" y2="104.7239990234375"><stop offset="30%" stop-color="rgb(211,211,211)"></stop><stop offset="63%" stop-color="rgb(179,179,179)"></stop><stop offset="100%" stop-color="rgb(147,147,147)"></stop></linearGradient><linearGradient id="__lottie_element_57" spreadMethod="pad" gradientUnits="userSpaceOnUse" x1="-88.35600280761719" y1="184.7239990234375" x2="-64.16200256347656" y2="196.31700134277344"><stop offset="13%" stop-color="rgb(163,163,163)"></stop><stop offset="54%" stop-color="rgb(158,159,159)"></stop><stop offset="100%" stop-color="rgb(153,154,155)"></stop></linearGradient><linearGradient id="__lottie_element_58" spreadMethod="pad" gradientUnits="userSpaceOnUse" x1="-112.35600280761719" y1="178.7239990234375" x2="-88.12100219726562" y2="189.78799438476562"><stop offset="14%" stop-color="rgb(173,173,173)"></stop><stop offset="54%" stop-color="rgb(157,157,157)"></stop><stop offset="100%" stop-color="rgb(141,141,141)"></stop></linearGradient><linearGradient id="__lottie_element_59" spreadMethod="pad" gradientUnits="userSpaceOnUse" x1="-140.3560028076172" y1="170.7239990234375" x2="-119.95800018310547" y2="188.20799255371094"><stop offset="0%" stop-color="rgb(190,190,190)"></stop><stop offset="47%" stop-color="rgb(175,175,175)"></stop><stop offset="100%" stop-color="rgb(160,160,160)"></stop></linearGradient><linearGradient id="__lottie_element_60" spreadMethod="pad" gradientUnits="userSpaceOnUse" x1="-159.3560028076172" y1="150.7239990234375" x2="-138.95799255371094" y2="177.61199951171875"><stop offset="18%" stop-color="rgb(211,211,211)"></stop><stop offset="56%" stop-color="rgb(179,179,179)"></stop><stop offset="100%" stop-color="rgb(147,147,147)"></stop></linearGradient><linearGradient id="__lottie_element_61" spreadMethod="pad" gradientUnits="userSpaceOnUse" x1="-170.3560028076172" y1="133.7239990234375" x2="-153.26499938964844" y2="159.36099243164062"><stop offset="0%" stop-color="rgb(214,214,214)"></stop><stop offset="47%" stop-color="rgb(176,176,176)"></stop><stop offset="100%" stop-color="rgb(139,139,139)"></stop></linearGradient><linearGradient id="__lottie_element_62" spreadMethod="pad" gradientUnits="userSpaceOnUse" x1="-176.3560028076172" y1="110.7239990234375" x2="-168.4340057373047" y2="136.60400390625"><stop offset="0%" stop-color="rgb(241,241,241)"></stop><stop offset="47%" stop-color="rgb(194,194,194)"></stop><stop offset="100%" stop-color="rgb(147,147,147)"></stop></linearGradient><linearGradient id="__lottie_element_63" spreadMethod="pad" gradientUnits="userSpaceOnUse" x1="-116.35600280761719" y1="143.7239990234375" x2="-89.4229965209961" y2="149.75999450683594"><stop offset="0%" stop-color="rgb(211,211,211)"></stop><stop offset="47%" stop-color="rgb(179,179,179)"></stop><stop offset="100%" stop-color="rgb(147,147,147)"></stop></linearGradient><linearGradient id="__lottie_element_64" spreadMethod="pad" gradientUnits="userSpaceOnUse" x1="-125.35600280761719" y1="136.7239990234375" x2="-101.5" y2="136.7239990234375"><stop offset="0%" stop-color="rgb(211,211,211)"></stop><stop offset="37%" stop-color="rgb(179,179,179)"></stop><stop offset="78%" stop-color="rgb(147,147,147)"></stop></linearGradient><linearGradient id="__lottie_element_65" spreadMethod="pad" gradientUnits="userSpaceOnUse" x1="-136.3560028076172" y1="122.7239990234375" x2="-111.87000274658203" y2="122.7239990234375"><stop offset="15%" stop-color="rgb(211,211,211)"></stop><stop offset="55%" stop-color="rgb(179,179,179)"></stop><stop offset="100%" stop-color="rgb(147,147,147)"></stop></linearGradient><linearGradient id="__lottie_element_66" spreadMethod="pad" gradientUnits="userSpaceOnUse" x1="-148.3560028076172" y1="104.7239990234375" x2="-125.39900207519531" y2="104.7239990234375"><stop offset="30%" stop-color="rgb(211,211,211)"></stop><stop offset="63%" stop-color="rgb(179,179,179)"></stop><stop offset="100%" stop-color="rgb(147,147,147)"></stop></linearGradient><linearGradient id="__lottie_element_70" spreadMethod="pad" gradientUnits="userSpaceOnUse" x1="0.6439999938011169" y1="-190.2760009765625" x2="0.6439999938011169" y2="-130.9530029296875"><stop offset="17%" stop-color="rgb(250,233,106)"></stop><stop offset="46%" stop-color="rgb(246,211,84)"></stop><stop offset="75%" stop-color="rgb(241,189,63)"></stop></linearGradient></defs><g clip-path="url(#__lottie_element_2)"><g style="display: block;" transform="matrix(1,0,0,1,255.99998474121094,256)" opacity="1"><g opacity="1" transform="matrix(1,0,0,1,0,0)"><path fill="url(#__lottie_element_70)" fill-opacity="1" d=" M0.8889999985694885,-128.03500366210938 C70.99600219726562,-128.1840057373047 134.5659942626953,-134.95799255371094 134.5659942626953,-157.05999755859375 C134.5659942626953,-177.46800231933594 94.24800109863281,-193.5330047607422 0.9750000238418579,-194.1529998779297 C0.9750000238418579,-194.1529998779297 0.9750000238418579,-194.1529998779297 0.9750000238418579,-194.1529998779297 C0.9729999899864197,-194.1529998779297 0.9700000286102295,-194.1529998779297 0.9679999947547913,-194.1529998779297 C0.9660000205039978,-194.1529998779297 0.9639999866485596,-194.1529998779297 0.9620000123977661,-194.1529998779297 C0.9620000123977661,-194.1529998779297 0.9620000123977661,-194.1529998779297 0.9620000123977661,-194.1529998779297 C-92.30999755859375,-193.5330047607422 -132.6300048828125,-177.46800231933594 -132.6300048828125,-157.05999755859375 C-132.6300048828125,-134.70799255371094 -70.20800018310547,-128.03500366210938 0.8889999985694885,-128.03500366210938 C0.8889999985694885,-128.03500366210938 0.8889999985694885,-139.98599243164062 0.8889999985694885,-139.98599243164062 C-53.069000244140625,-139.98599243164062 -116.24299621582031,-147.9250030517578 -116.24299621582031,-158.03199768066406 C-116.24299621582031,-168.13900756835938 -62.90700149536133,-177.6909942626953 0.9679999947547913,-177.6909942626953 C64.84300231933594,-177.6909942626953 118.17900085449219,-168.13900756835938 118.17900085449219,-158.03199768066406 C118.17900085449219,-148.03500366210938 54.45199966430664,-140.15699768066406 0.8889999985694885,-139.98599243164062 C0.8889999985694885,-139.98599243164062 0.8889999985694885,-128.03500366210938 0.8889999985694885,-128.03500366210938z"></path></g><g opacity="1" transform="matrix(1,0,0,1,0,0)"><path stroke-linecap="round" stroke-linejoin="round" fill-opacity="0" stroke="rgb(239,188,46)" stroke-opacity="1" stroke-width="8" d=" M0.9750000238418579,-194.1529998779297 C0.9750000238418579,-194.1529998779297 0.9750000238418579,-194.1529998779297 0.9750000238418579,-194.1529998779297 C0.9729999899864197,-194.1529998779297 0.9700000286102295,-194.1529998779297 0.9679999947547913,-194.1529998779297 C0.9660000205039978,-194.1529998779297 0.9639999866485596,-194.1529998779297 0.9620000123977661,-194.1529998779297 C0.9620000123977661,-194.1529998779297 0.9620000123977661,-194.1529998779297 0.9620000123977661,-194.1529998779297 C-92.30999755859375,-193.5330047607422 -132.6300048828125,-177.46800231933594 -132.6300048828125,-157.05999755859375 C-132.6300048828125,-134.70799255371094 -70.20800018310547,-128.03500366210938 0.8889999985694885,-128.03500366210938 C71.98600006103516,-128.03500366210938 134.5659942626953,-134.70799255371094 134.5659942626953,-157.05999755859375 C134.5659942626953,-177.46800231933594 94.24800109863281,-193.5330047607422 0.9750000238418579,-194.1529998779297z"></path></g><g opacity="1" transform="matrix(1,0,0,1,0,0)"><path stroke-linecap="round" stroke-linejoin="round" fill-opacity="0" stroke="rgb(239,188,46)" stroke-opacity="1" stroke-width="8" d=" M0.8889999985694885,-139.98599243164062 C-53.069000244140625,-139.98599243164062 -116.24299621582031,-147.9250030517578 -116.24299621582031,-158.03199768066406 C-116.24299621582031,-168.13900756835938 -62.90700149536133,-177.6909942626953 0.9679999947547913,-177.6909942626953 C64.84300231933594,-177.6909942626953 118.17900085449219,-168.13900756835938 118.17900085449219,-158.03199768066406 C118.17900085449219,-147.9250030517578 54.84700012207031,-139.98599243164062 0.8889999985694885,-139.98599243164062z"></path></g><g opacity="1" transform="matrix(1,0,0,1,0,0)"><path stroke-linecap="round" stroke-linejoin="round" fill-opacity="0" stroke="rgb(221,166,29)" stroke-opacity="1" stroke-width="8" d=" M0.8889999985694885,-139.98599243164062 C-53.069000244140625,-139.98599243164062 -116.24299621582031,-147.9250030517578 -116.24299621582031,-158.03199768066406 C-116.24299621582031,-168.13900756835938 -62.90700149536133,-177.6909942626953 0.9679999947547913,-177.6909942626953 C64.84300231933594,-177.6909942626953 118.17900085449219,-168.13900756835938 118.17900085449219,-158.03199768066406 C118.17900085449219,-147.9250030517578 54.84700012207031,-139.98599243164062 0.8889999985694885,-139.98599243164062z"></path></g><g opacity="1" transform="matrix(1,0,0,1,0,0)"><path stroke-linecap="round" stroke-linejoin="round" fill-opacity="0" stroke="rgb(216,138,14)" stroke-opacity="1" stroke-width="8" d=" M-124.56800079345703,-144.76699829101562 C-105.49299621582031,-132.156005859375 -54.97999954223633,-128.03500366210938 0.8889999985694885,-128.03500366210938 C56.731998443603516,-128.03500366210938 107.3219985961914,-132.15199279785156 126.45899963378906,-144.75"></path></g><g opacity="1" transform="matrix(1,0,0,1,0,0)"><path stroke-linecap="round" stroke-linejoin="round" fill-opacity="0" stroke="rgb(216,138,14)" stroke-opacity="1" stroke-width="8" d=" M126.5770034790039,-144.83700561523438"></path></g><g opacity="1" transform="matrix(1,0,0,1,0,0)"><path stroke-linecap="round" stroke-linejoin="round" fill-opacity="0" stroke="rgb(216,138,14)" stroke-opacity="1" stroke-width="8" d=" M-124.66100311279297,-144.83700561523438"></path></g><g opacity="1" transform="matrix(1,0,0,1,0,0)"><path stroke-linecap="round" stroke-linejoin="round" fill-opacity="0" stroke="rgb(224,160,32)" stroke-opacity="1" stroke-width="8" d=" M-124.66100311279297,-144.83700561523438 C-132.10800170898438,-153.66099548339844 -114.01899719238281,-162.13600158691406 -109.93499755859375,-164.07699584960938 C-94.02100372314453,-171.64100646972656 -49.862998962402344,-177.6909942626953 0.9679999947547913,-177.6909942626953 C48.874000549316406,-177.6909942626953 90.85199737548828,-172.31700134277344 108.84700012207031,-165.36700439453125 C114.84500122070312,-163.0500030517578 133.90699768066406,-153.23899841308594 126.5770034790039,-144.83700561523438"></path></g></g><g style="display: block;" transform="matrix(1,0,0,1,256,255.99998474121094)" opacity="1"><g opacity="1" transform="matrix(1,0,0,1,0,0)"><path fill="url(#__lottie_element_57)" fill-opacity="1" d=" M-90.73699951171875,156.56300354003906 C-90.73699951171875,156.56300354003906 -99.68699645996094,192.74099731445312 -97.19200134277344,216.49400329589844 C-97.19200134277344,216.49400329589844 -59.388999938964844,202.47000122070312 -68.88700103759766,158.42999267578125"></path></g><g opacity="1" transform="matrix(1,0,0,1,0,0)"><path stroke-linecap="round" stroke-linejoin="round" fill-opacity="0" stroke="rgb(109,109,109)" stroke-opacity="1" stroke-width="8" d=" M-90.73699951171875,156.56300354003906 C-90.73699951171875,156.56300354003906 -101.56300354003906,192.85299682617188 -97.19200134277344,216.49400329589844 C-97.19200134277344,216.49400329589844 -65.0770034790039,207.7429962158203 -68.88700103759766,158.42999267578125"></path></g><g opacity="1" transform="matrix(1,0,0,1,0,0)"><path fill="url(#__lottie_element_58)" fill-opacity="1" d=" M-82.55400085449219,154.13800048828125 C-82.55400085449219,154.13800048828125 -90.94000244140625,206.7310028076172 -132.6300048828125,211.27200317382812 C-132.6300048828125,211.27200317382812 -134.13400268554688,200.01699829101562 -127.322998046875,182.98899841308594 C-120.51200103759766,165.96099853515625 -101.56199645996094,143.38800048828125 -101.56199645996094,143.38800048828125"></path></g><g opacity="1" transform="matrix(1,0,0,1,0,0)"><path stroke-linecap="round" stroke-linejoin="round" fill-opacity="0" stroke="rgb(127,127,126)" stroke-opacity="1" stroke-width="8" d=" M-82.55400085449219,154.13800048828125 C-82.55400085449219,154.13800048828125 -90.94000244140625,206.7310028076172 -132.6300048828125,211.27200317382812 C-132.6300048828125,211.27200317382812 -134.13400268554688,200.01699829101562 -127.322998046875,182.98899841308594 C-120.51200103759766,165.96099853515625 -101.56199645996094,143.38800048828125 -101.56199645996094,143.38800048828125"></path></g><g opacity="1" transform="matrix(1,0,0,1,0,0)"><path stroke-linecap="round" stroke-linejoin="round" fill-opacity="0" stroke="rgb(109,109,109)" stroke-opacity="1" stroke-width="8" d=" M-82.55400085449219,154.13800048828125 C-82.55400085449219,154.13800048828125 -90.94000244140625,206.7310028076172 -132.6300048828125,211.27200317382812"></path></g><g opacity="1" transform="matrix(1,0,0,1,0,0)"><path fill="url(#__lottie_element_59)" fill-opacity="1" d=" M-123.85700225830078,140.88900756835938 C-123.85700225830078,140.88900756835938 -151.71099853515625,165.63099670410156 -167.4409942626953,199.33700561523438 C-167.4409942626953,199.33700561523438 -148.17599487304688,201.78799438476562 -135.9810028076172,193.8209991455078 C-126.11499786376953,187.375 -106.9739990234375,164.14199829101562 -106.56500244140625,148.13499450683594"></path></g><g opacity="1" transform="matrix(1,0,0,1,0,0)"><path fill="rgb(255,255,255)" fill-opacity="0.2" d=" M-164.25100708007812,199.6929931640625 C-164.25100708007812,199.6929931640625 -131.10699462890625,162.5240020751953 -111.9530029296875,148.13499450683594 C-111.9530029296875,148.13499450683594 -126.27100372314453,149.9550018310547 -126.27100372314453,149.9550018310547 C-126.27100372314453,149.9550018310547 -160.16700744628906,173.7449951171875 -164.25100708007812,199.6929931640625z"></path></g><g opacity="1" transform="matrix(1,0,0,1,0,0)"><path stroke-linecap="round" stroke-linejoin="round" fill-opacity="0" stroke="rgb(127,127,126)" stroke-opacity="1" stroke-width="8" d=" M-123.85700225830078,140.88900756835938 C-123.85700225830078,140.88900756835938 -161.08900451660156,173.91400146484375 -167.4409942626953,199.33700561523438 C-167.4409942626953,199.33700561523438 -148.17599487304688,201.78799438476562 -135.9810028076172,193.8209991455078 C-126.11499786376953,187.375 -106.9739990234375,164.14199829101562 -106.56500244140625,148.13499450683594"></path></g><g opacity="1" transform="matrix(1,0,0,1,0,0)"><path fill="url(#__lottie_element_60)" fill-opacity="1" d=" M-132.6300048828125,126.16500091552734 C-132.6300048828125,126.16500091552734 -183.01300048828125,149.97999572753906 -193.81500244140625,180.66900634765625 C-193.81500244140625,180.66900634765625 -172.70199584960938,185.08799743652344 -159.93499755859375,178.45899963378906 C-147.16799926757812,171.8300018310547 -123.01100158691406,150.47300720214844 -115.27200317382812,133.7949981689453"></path></g><g opacity="1" transform="matrix(1,0,0,1,0,0)"><path fill="rgb(255,255,255)" fill-opacity="0.3" d=" M-188.6479949951172,178.4720001220703 C-188.6479949951172,178.4720001220703 -158.41299438476562,152.44700622558594 -125.41899871826172,134.47000122070312 C-125.41899871826172,134.47000122070312 -138.51400756835938,132.0959930419922 -138.51400756835938,132.0959930419922 C-138.51400756835938,132.0959930419922 -183.83700561523438,153.28399658203125 -188.6479949951172,178.4720001220703z"></path></g><g opacity="1" transform="matrix(1,0,0,1,0,0)"><path stroke-linecap="round" stroke-linejoin="round" fill-opacity="0" stroke="rgb(143,143,143)" stroke-opacity="1" stroke-width="8" d=" M-132.6300048828125,126.16500091552734 C-132.6300048828125,126.16500091552734 -183.01300048828125,149.97999572753906 -193.81500244140625,180.66900634765625 C-193.81500244140625,180.66900634765625 -172.70199584960938,185.08799743652344 -159.93499755859375,178.45899963378906 C-147.16799926757812,171.8300018310547 -123.01100158691406,150.47300720214844 -115.27200317382812,133.7949981689453"></path></g><g opacity="1" transform="matrix(1,0,0,1,0,0)"><path stroke-linecap="round" stroke-linejoin="round" fill-opacity="0" stroke="rgb(127,127,126)" stroke-opacity="1" stroke-width="8" d=" M-193.81500244140625,180.66900634765625 C-193.81500244140625,180.66900634765625 -172.70199584960938,185.08799743652344 -159.93499755859375,178.45899963378906 C-147.16799926757812,171.8300018310547 -123.01100158691406,150.47300720214844 -115.27200317382812,133.7949981689453"></path></g><g opacity="1" transform="matrix(1,0,0,1,0,0)"><path fill="url(#__lottie_element_61)" fill-opacity="1" d=" M-145.56300354003906,113.447998046875 C-155.50599670410156,115.43800354003906 -194.2949981689453,126.7699966430664 -211.0749969482422,151.39500427246094 C-211.0749969482422,151.39500427246094 -198.6540069580078,162.06700134277344 -179.69500732421875,157.42999267578125 C-160.73599243164062,152.79299926757812 -126.27100372314453,121.76000213623047 -126.27100372314453,121.76000213623047"></path></g><g opacity="1" transform="matrix(1,0,0,1,0,0)"><path fill="rgb(255,255,255)" fill-opacity="0.3" d=" M-211.0749969482422,153.39500427246094 C-211.0749969482422,153.39500427246094 -184.55499267578125,139.88900756835938 -134.2550048828125,121.20600128173828 C-134.2550048828125,121.20600128173828 -138.15199279785156,112.19300079345703 -159.60899353027344,117.2750015258789 C-181.0659942626953,122.35700225830078 -211.0749969482422,153.39500427246094 -211.0749969482422,153.39500427246094z"></path></g><g opacity="1" transform="matrix(1,0,0,1,0,0)"><path stroke-linecap="round" stroke-linejoin="round" fill-opacity="0" stroke="rgb(143,143,143)" stroke-opacity="1" stroke-width="8" d=" M-145.56300354003906,113.447998046875 C-155.50599670410156,115.43800354003906 -194.2949981689453,126.7699966430664 -211.0749969482422,151.39500427246094 C-211.0749969482422,151.39500427246094 -198.6540069580078,162.06700134277344 -179.69500732421875,157.42999267578125 C-160.73599243164062,152.79299926757812 -126.27100372314453,121.76000213623047 -126.27100372314453,121.76000213623047"></path></g><g opacity="1" transform="matrix(1,0,0,1,0,0)"><path fill="url(#__lottie_element_62)" fill-opacity="1" d=" M-140.90499877929688,95.74400329589844 C-140.90499877929688,95.74400329589844 -182.8730010986328,97.37100219726562 -214.95599365234375,121.76000213623047 C-214.95599365234375,121.76000213623047 -207.17599487304688,133.76300048828125 -189.98699951171875,133.10699462890625 C-172.79800415039062,132.4510040283203 -145.9739990234375,119.38700103759766 -134.2550048828125,110.53199768066406"></path></g><g opacity="1" transform="matrix(1,0,0,1,0,0)"><path fill="rgb(255,255,255)" fill-opacity="0.5" d=" M-214.95599365234375,124.76000213623047 C-214.95599365234375,124.76000213623047 -165.14300537109375,107.39299774169922 -137.0030059814453,104.53299713134766 C-137.0030059814453,104.53299713134766 -147.17599487304688,95.74400329589844 -147.17599487304688,95.74400329589844 C-147.17599487304688,95.74400329589844 -190.12600708007812,105.28800201416016 -214.95599365234375,124.76000213623047z"></path></g><g opacity="1" transform="matrix(1,0,0,1,0,0)"><path stroke-linecap="round" stroke-linejoin="round" fill-opacity="0" stroke="rgb(143,143,143)" stroke-opacity="1" stroke-width="8" d=" M-140.90499877929688,95.74400329589844 C-140.90499877929688,95.74400329589844 -189.2429962158203,97.96900177001953 -214.95599365234375,121.76000213623047 C-214.95599365234375,121.76000213623047 -207.17599487304688,133.76300048828125 -189.98699951171875,133.10699462890625 C-172.79800415039062,132.4510040283203 -145.9739990234375,119.38700103759766 -134.2550048828125,110.53199768066406"></path></g><g opacity="1" transform="matrix(1,0,0,1,0,0)"><g opacity="1" transform="matrix(1,0,0,1,0,0)"><path fill="url(#__lottie_element_63)" fill-opacity="1" d=" M-102.78800201416016,135.47000122070312 C-102.78800201416016,135.47000122070312 -116.62799835205078,148.39100646972656 -105.87699890136719,157.33299255371094 C-96.05000305175781,165.5070037841797 -86.41600036621094,147.1439971923828 -86.41600036621094,147.1439971923828 C-86.41600036621094,147.1439971923828 -102.78800201416016,135.47000122070312 -102.78800201416016,135.47000122070312z"></path></g><g opacity="1" transform="matrix(1,0,0,1,0,0)"><path stroke-linecap="round" stroke-linejoin="round" fill-opacity="0" stroke="rgb(109,109,109)" stroke-opacity="1" stroke-width="8" d=" M-102.78800201416016,135.47000122070312 C-102.78800201416016,135.47000122070312 -116.62799835205078,148.39100646972656 -105.87699890136719,157.33299255371094 C-96.05000305175781,165.5070037841797 -86.41600036621094,147.1439971923828 -86.41600036621094,147.1439971923828 C-86.41600036621094,147.1439971923828 -102.78800201416016,135.47000122070312 -102.78800201416016,135.47000122070312z"></path></g><g opacity="1" transform="matrix(1,0,0,1,0,0)"><path fill="url(#__lottie_element_64)" fill-opacity="1" d=" M-117.9739990234375,124.9000015258789 C-117.9739990234375,124.9000015258789 -132.61300659179688,135.572998046875 -123.34300231933594,146.04200744628906 C-114.87000274658203,155.61199951171875 -102.56199645996094,139.92300415039062 -102.56199645996094,139.92300415039062 C-102.56199645996094,139.92300415039062 -117.9739990234375,124.9000015258789 -117.9739990234375,124.9000015258789z"></path></g><g opacity="1" transform="matrix(1,0,0,1,0,0)"><path stroke-linecap="round" stroke-linejoin="round" fill-opacity="0" stroke="rgb(127,127,126)" stroke-opacity="1" stroke-width="8" d=" M-117.9739990234375,124.9000015258789 C-117.9739990234375,124.9000015258789 -132.61300659179688,135.572998046875 -123.34300231933594,146.04200744628906 C-114.87000274658203,155.61199951171875 -102.56199645996094,139.92300415039062 -102.56199645996094,139.92300415039062 C-102.56199645996094,139.92300415039062 -117.9739990234375,124.9000015258789 -117.9739990234375,124.9000015258789z"></path></g><g opacity="1" transform="matrix(1,0,0,1,0,0)"><path stroke-linecap="round" stroke-linejoin="round" fill-opacity="0" stroke="rgb(109,109,109)" stroke-opacity="1" stroke-width="8" d=" M-123.34300231933594,146.04200744628906 C-114.87000274658203,155.61199951171875 -102.56199645996094,139.92300415039062 -102.56199645996094,139.92300415039062"></path></g><g opacity="1" transform="matrix(1,0,0,1,0,0)"><path fill="url(#__lottie_element_65)" fill-opacity="1" d=" M-128.1999969482422,110.41300201416016 C-128.1999969482422,110.41300201416016 -144.72000122070312,118.59100341796875 -137.83599853515625,130.76300048828125 C-130.5189971923828,143.70199584960938 -116.0530014038086,128.98599243164062 -115.02799987792969,128.1320037841797 C-115.02799987792969,128.1320037841797 -128.1999969482422,110.41300201416016 -128.1999969482422,110.41300201416016z"></path></g><g opacity="1" transform="matrix(1,0,0,1,0,0)"><path stroke-linecap="round" stroke-linejoin="round" fill-opacity="0" stroke="rgb(127,127,126)" stroke-opacity="1" stroke-width="8" d=" M-128.1999969482422,110.41300201416016 C-128.1999969482422,110.41300201416016 -144.72000122070312,118.59100341796875 -137.83599853515625,130.76300048828125 C-130.5189971923828,143.70199584960938 -116.0530014038086,128.98599243164062 -115.02799987792969,128.1320037841797 C-115.02799987792969,128.1320037841797 -128.1999969482422,110.41300201416016 -128.1999969482422,110.41300201416016z"></path></g><g opacity="1" transform="matrix(1,0,0,1,0,0)"><path fill="url(#__lottie_element_66)" fill-opacity="1" d=" M-135.2989959716797,93.83799743652344 C-135.2989959716797,93.83799743652344 -153.552001953125,98.86599731445312 -148.17599487304688,111.7750015258789 C-143.26199340820312,123.5739974975586 -126.20999908447266,112.7750015258789 -126.20999908447266,112.7750015258789 C-126.20999908447266,112.7750015258789 -135.2989959716797,93.83799743652344 -135.2989959716797,93.83799743652344z"></path></g><g opacity="1" transform="matrix(1,0,0,1,0,0)"><path stroke-linecap="round" stroke-linejoin="round" fill-opacity="0" stroke="rgb(143,143,143)" stroke-opacity="1" stroke-width="8" d=" M-135.2989959716797,93.83799743652344 C-135.2989959716797,93.83799743652344 -153.552001953125,98.86599731445312 -148.17599487304688,111.7750015258789 C-142.38299560546875,125.68399810791016 -127.08899688720703,113.33200073242188 -126.20999908447266,112.7750015258789 C-126.20999908447266,112.7750015258789 -135.2989959716797,93.83799743652344 -135.2989959716797,93.83799743652344z"></path></g><g opacity="1" transform="matrix(1,0,0,1,0,0)"><path stroke-linecap="round" stroke-linejoin="round" fill-opacity="0" stroke="rgb(127,127,126)" stroke-opacity="1" stroke-width="8" d=" M-148.17599487304688,111.7750015258789 C-142.38299560546875,125.68399810791016 -127.08899688720703,113.33200073242188 -126.20999908447266,112.7750015258789"></path></g></g></g><g style="display: block;" transform="matrix(-1,0,0,1,257.68798828125,255.99998474121094)" opacity="1"><g opacity="1" transform="matrix(1,0,0,1,0,0)"><path fill="url(#__lottie_element_44)" fill-opacity="1" d=" M-90.73699951171875,156.56300354003906 C-90.73699951171875,156.56300354003906 -99.68699645996094,192.74099731445312 -97.19200134277344,216.49400329589844 C-97.19200134277344,216.49400329589844 -59.388999938964844,202.47000122070312 -68.88700103759766,158.42999267578125"></path></g><g opacity="1" transform="matrix(1,0,0,1,0,0)"><path stroke-linecap="round" stroke-linejoin="round" fill-opacity="0" stroke="rgb(109,109,109)" stroke-opacity="1" stroke-width="8" d=" M-90.73699951171875,156.56300354003906 C-90.73699951171875,156.56300354003906 -101.56300354003906,192.85299682617188 -97.19200134277344,216.49400329589844 C-97.19200134277344,216.49400329589844 -65.0770034790039,207.7429962158203 -68.88700103759766,158.42999267578125"></path></g><g opacity="1" transform="matrix(1,0,0,1,0,0)"><path fill="url(#__lottie_element_45)" fill-opacity="1" d=" M-82.55400085449219,154.13800048828125 C-82.55400085449219,154.13800048828125 -90.94000244140625,206.7310028076172 -132.6300048828125,211.27200317382812 C-132.6300048828125,211.27200317382812 -134.13400268554688,200.01699829101562 -127.322998046875,182.98899841308594 C-120.51200103759766,165.96099853515625 -101.56199645996094,143.38800048828125 -101.56199645996094,143.38800048828125"></path></g><g opacity="1" transform="matrix(1,0,0,1,0,0)"><path stroke-linecap="round" stroke-linejoin="round" fill-opacity="0" stroke="rgb(127,127,126)" stroke-opacity="1" stroke-width="8" d=" M-82.55400085449219,154.13800048828125 C-82.55400085449219,154.13800048828125 -90.94000244140625,206.7310028076172 -132.6300048828125,211.27200317382812 C-132.6300048828125,211.27200317382812 -134.13400268554688,200.01699829101562 -127.322998046875,182.98899841308594 C-120.51200103759766,165.96099853515625 -101.56199645996094,143.38800048828125 -101.56199645996094,143.38800048828125"></path></g><g opacity="1" transform="matrix(1,0,0,1,0,0)"><path stroke-linecap="round" stroke-linejoin="round" fill-opacity="0" stroke="rgb(109,109,109)" stroke-opacity="1" stroke-width="8" d=" M-82.55400085449219,154.13800048828125 C-82.55400085449219,154.13800048828125 -90.94000244140625,206.7310028076172 -132.6300048828125,211.27200317382812"></path></g><g opacity="1" transform="matrix(1,0,0,1,0,0)"><path fill="url(#__lottie_element_46)" fill-opacity="1" d=" M-123.85700225830078,140.88900756835938 C-123.85700225830078,140.88900756835938 -151.71099853515625,165.63099670410156 -167.4409942626953,199.33700561523438 C-167.4409942626953,199.33700561523438 -148.17599487304688,201.78799438476562 -135.9810028076172,193.8209991455078 C-126.11499786376953,187.375 -106.9739990234375,164.14199829101562 -106.56500244140625,148.13499450683594"></path></g><g opacity="1" transform="matrix(1,0,0,1,0,0)"><path fill="rgb(255,255,255)" fill-opacity="0.2" d=" M-164.25100708007812,199.6929931640625 C-164.25100708007812,199.6929931640625 -131.10699462890625,162.5240020751953 -111.9530029296875,148.13499450683594 C-111.9530029296875,148.13499450683594 -126.27100372314453,149.9550018310547 -126.27100372314453,149.9550018310547 C-126.27100372314453,149.9550018310547 -160.16700744628906,173.7449951171875 -164.25100708007812,199.6929931640625z"></path></g><g opacity="1" transform="matrix(1,0,0,1,0,0)"><path stroke-linecap="round" stroke-linejoin="round" fill-opacity="0" stroke="rgb(127,127,126)" stroke-opacity="1" stroke-width="8" d=" M-123.85700225830078,140.88900756835938 C-123.85700225830078,140.88900756835938 -161.08900451660156,173.91400146484375 -167.4409942626953,199.33700561523438 C-167.4409942626953,199.33700561523438 -148.17599487304688,201.78799438476562 -135.9810028076172,193.8209991455078 C-126.11499786376953,187.375 -106.9739990234375,164.14199829101562 -106.56500244140625,148.13499450683594"></path></g><g opacity="1" transform="matrix(1,0,0,1,0,0)"><path fill="url(#__lottie_element_47)" fill-opacity="1" d=" M-132.6300048828125,126.16500091552734 C-132.6300048828125,126.16500091552734 -183.01300048828125,149.97999572753906 -193.81500244140625,180.66900634765625 C-193.81500244140625,180.66900634765625 -172.70199584960938,185.08799743652344 -159.93499755859375,178.45899963378906 C-147.16799926757812,171.8300018310547 -123.01100158691406,150.47300720214844 -115.27200317382812,133.7949981689453"></path></g><g opacity="1" transform="matrix(1,0,0,1,0,0)"><path fill="rgb(255,255,255)" fill-opacity="0.3" d=" M-188.6479949951172,178.4720001220703 C-188.6479949951172,178.4720001220703 -158.41299438476562,152.44700622558594 -125.41899871826172,134.47000122070312 C-125.41899871826172,134.47000122070312 -138.51400756835938,132.0959930419922 -138.51400756835938,132.0959930419922 C-138.51400756835938,132.0959930419922 -183.83700561523438,153.28399658203125 -188.6479949951172,178.4720001220703z"></path></g><g opacity="1" transform="matrix(1,0,0,1,0,0)"><path stroke-linecap="round" stroke-linejoin="round" fill-opacity="0" stroke="rgb(143,143,143)" stroke-opacity="1" stroke-width="8" d=" M-132.6300048828125,126.16500091552734 C-132.6300048828125,126.16500091552734 -183.01300048828125,149.97999572753906 -193.81500244140625,180.66900634765625 C-193.81500244140625,180.66900634765625 -172.70199584960938,185.08799743652344 -159.93499755859375,178.45899963378906 C-147.16799926757812,171.8300018310547 -123.01100158691406,150.47300720214844 -115.27200317382812,133.7949981689453"></path></g><g opacity="1" transform="matrix(1,0,0,1,0,0)"><path stroke-linecap="round" stroke-linejoin="round" fill-opacity="0" stroke="rgb(127,127,126)" stroke-opacity="1" stroke-width="8" d=" M-193.81500244140625,180.66900634765625 C-193.81500244140625,180.66900634765625 -172.70199584960938,185.08799743652344 -159.93499755859375,178.45899963378906 C-147.16799926757812,171.8300018310547 -123.01100158691406,150.47300720214844 -115.27200317382812,133.7949981689453"></path></g><g opacity="1" transform="matrix(1,0,0,1,0,0)"><path fill="url(#__lottie_element_48)" fill-opacity="1" d=" M-145.56300354003906,113.447998046875 C-155.50599670410156,115.43800354003906 -194.2949981689453,126.7699966430664 -211.0749969482422,151.39500427246094 C-211.0749969482422,151.39500427246094 -198.6540069580078,162.06700134277344 -179.69500732421875,157.42999267578125 C-160.73599243164062,152.79299926757812 -126.27100372314453,121.76000213623047 -126.27100372314453,121.76000213623047"></path></g><g opacity="1" transform="matrix(1,0,0,1,0,0)"><path fill="rgb(255,255,255)" fill-opacity="0.3" d=" M-211.0749969482422,153.39500427246094 C-211.0749969482422,153.39500427246094 -184.55499267578125,139.88900756835938 -134.2550048828125,121.20600128173828 C-134.2550048828125,121.20600128173828 -138.15199279785156,112.19300079345703 -159.60899353027344,117.2750015258789 C-181.0659942626953,122.35700225830078 -211.0749969482422,153.39500427246094 -211.0749969482422,153.39500427246094z"></path></g><g opacity="1" transform="matrix(1,0,0,1,0,0)"><path stroke-linecap="round" stroke-linejoin="round" fill-opacity="0" stroke="rgb(143,143,143)" stroke-opacity="1" stroke-width="8" d=" M-145.56300354003906,113.447998046875 C-155.50599670410156,115.43800354003906 -194.2949981689453,126.7699966430664 -211.0749969482422,151.39500427246094 C-211.0749969482422,151.39500427246094 -198.6540069580078,162.06700134277344 -179.69500732421875,157.42999267578125 C-160.73599243164062,152.79299926757812 -126.27100372314453,121.76000213623047 -126.27100372314453,121.76000213623047"></path></g><g opacity="1" transform="matrix(1,0,0,1,0,0)"><path fill="url(#__lottie_element_49)" fill-opacity="1" d=" M-140.90499877929688,95.74400329589844 C-140.90499877929688,95.74400329589844 -182.8730010986328,97.37100219726562 -214.95599365234375,121.76000213623047 C-214.95599365234375,121.76000213623047 -207.17599487304688,133.76300048828125 -189.98699951171875,133.10699462890625 C-172.79800415039062,132.4510040283203 -145.9739990234375,119.38700103759766 -134.2550048828125,110.53199768066406"></path></g><g opacity="1" transform="matrix(1,0,0,1,0,0)"><path fill="rgb(255,255,255)" fill-opacity="0.5" d=" M-214.95599365234375,124.76000213623047 C-214.95599365234375,124.76000213623047 -165.14300537109375,107.39299774169922 -137.0030059814453,104.53299713134766 C-137.0030059814453,104.53299713134766 -147.17599487304688,95.74400329589844 -147.17599487304688,95.74400329589844 C-147.17599487304688,95.74400329589844 -190.12600708007812,105.28800201416016 -214.95599365234375,124.76000213623047z"></path></g><g opacity="1" transform="matrix(1,0,0,1,0,0)"><path stroke-linecap="round" stroke-linejoin="round" fill-opacity="0" stroke="rgb(143,143,143)" stroke-opacity="1" stroke-width="8" d=" M-140.90499877929688,95.74400329589844 C-140.90499877929688,95.74400329589844 -189.2429962158203,97.96900177001953 -214.95599365234375,121.76000213623047 C-214.95599365234375,121.76000213623047 -207.17599487304688,133.76300048828125 -189.98699951171875,133.10699462890625 C-172.79800415039062,132.4510040283203 -145.9739990234375,119.38700103759766 -134.2550048828125,110.53199768066406"></path></g><g opacity="1" transform="matrix(1,0,0,1,0,0)"><g opacity="1" transform="matrix(1,0,0,1,0,0)"><path fill="url(#__lottie_element_50)" fill-opacity="1" d=" M-102.78800201416016,135.47000122070312 C-102.78800201416016,135.47000122070312 -116.62799835205078,148.39100646972656 -105.87699890136719,157.33299255371094 C-96.05000305175781,165.5070037841797 -86.41600036621094,147.1439971923828 -86.41600036621094,147.1439971923828 C-86.41600036621094,147.1439971923828 -102.78800201416016,135.47000122070312 -102.78800201416016,135.47000122070312z"></path></g><g opacity="1" transform="matrix(1,0,0,1,0,0)"><path stroke-linecap="round" stroke-linejoin="round" fill-opacity="0" stroke="rgb(109,109,109)" stroke-opacity="1" stroke-width="8" d=" M-102.78800201416016,135.47000122070312 C-102.78800201416016,135.47000122070312 -116.62799835205078,148.39100646972656 -105.87699890136719,157.33299255371094 C-96.05000305175781,165.5070037841797 -86.41600036621094,147.1439971923828 -86.41600036621094,147.1439971923828 C-86.41600036621094,147.1439971923828 -102.78800201416016,135.47000122070312 -102.78800201416016,135.47000122070312z"></path></g><g opacity="1" transform="matrix(1,0,0,1,0,0)"><path fill="url(#__lottie_element_51)" fill-opacity="1" d=" M-117.9739990234375,124.9000015258789 C-117.9739990234375,124.9000015258789 -132.61300659179688,135.572998046875 -123.34300231933594,146.04200744628906 C-114.87000274658203,155.61199951171875 -102.56199645996094,139.92300415039062 -102.56199645996094,139.92300415039062 C-102.56199645996094,139.92300415039062 -117.9739990234375,124.9000015258789 -117.9739990234375,124.9000015258789z"></path></g><g opacity="1" transform="matrix(1,0,0,1,0,0)"><path stroke-linecap="round" stroke-linejoin="round" fill-opacity="0" stroke="rgb(127,127,126)" stroke-opacity="1" stroke-width="8" d=" M-117.9739990234375,124.9000015258789 C-117.9739990234375,124.9000015258789 -132.61300659179688,135.572998046875 -123.34300231933594,146.04200744628906 C-114.87000274658203,155.61199951171875 -102.56199645996094,139.92300415039062 -102.56199645996094,139.92300415039062 C-102.56199645996094,139.92300415039062 -117.9739990234375,124.9000015258789 -117.9739990234375,124.9000015258789z"></path></g><g opacity="1" transform="matrix(1,0,0,1,0,0)"><path stroke-linecap="round" stroke-linejoin="round" fill-opacity="0" stroke="rgb(109,109,109)" stroke-opacity="1" stroke-width="8" d=" M-123.34300231933594,146.04200744628906 C-114.87000274658203,155.61199951171875 -102.56199645996094,139.92300415039062 -102.56199645996094,139.92300415039062"></path></g><g opacity="1" transform="matrix(1,0,0,1,0,0)"><path fill="url(#__lottie_element_52)" fill-opacity="1" d=" M-128.1999969482422,110.41300201416016 C-128.1999969482422,110.41300201416016 -144.72000122070312,118.59100341796875 -137.83599853515625,130.76300048828125 C-130.5189971923828,143.70199584960938 -116.0530014038086,128.98599243164062 -115.02799987792969,128.1320037841797 C-115.02799987792969,128.1320037841797 -128.1999969482422,110.41300201416016 -128.1999969482422,110.41300201416016z"></path></g><g opacity="1" transform="matrix(1,0,0,1,0,0)"><path stroke-linecap="round" stroke-linejoin="round" fill-opacity="0" stroke="rgb(127,127,126)" stroke-opacity="1" stroke-width="8" d=" M-128.1999969482422,110.41300201416016 C-128.1999969482422,110.41300201416016 -144.72000122070312,118.59100341796875 -137.83599853515625,130.76300048828125 C-130.5189971923828,143.70199584960938 -116.0530014038086,128.98599243164062 -115.02799987792969,128.1320037841797 C-115.02799987792969,128.1320037841797 -128.1999969482422,110.41300201416016 -128.1999969482422,110.41300201416016z"></path></g><g opacity="1" transform="matrix(1,0,0,1,0,0)"><path fill="url(#__lottie_element_53)" fill-opacity="1" d=" M-135.2989959716797,93.83799743652344 C-135.2989959716797,93.83799743652344 -153.552001953125,98.86599731445312 -148.17599487304688,111.7750015258789 C-143.26199340820312,123.5739974975586 -126.20999908447266,112.7750015258789 -126.20999908447266,112.7750015258789 C-126.20999908447266,112.7750015258789 -135.2989959716797,93.83799743652344 -135.2989959716797,93.83799743652344z"></path></g><g opacity="1" transform="matrix(1,0,0,1,0,0)"><path stroke-linecap="round" stroke-linejoin="round" fill-opacity="0" stroke="rgb(143,143,143)" stroke-opacity="1" stroke-width="8" d=" M-135.2989959716797,93.83799743652344 C-135.2989959716797,93.83799743652344 -153.552001953125,98.86599731445312 -148.17599487304688,111.7750015258789 C-142.38299560546875,125.68399810791016 -127.08899688720703,113.33200073242188 -126.20999908447266,112.7750015258789 C-126.20999908447266,112.7750015258789 -135.2989959716797,93.83799743652344 -135.2989959716797,93.83799743652344z"></path></g><g opacity="1" transform="matrix(1,0,0,1,0,0)"><path stroke-linecap="round" stroke-linejoin="round" fill-opacity="0" stroke="rgb(127,127,126)" stroke-opacity="1" stroke-width="8" d=" M-148.17599487304688,111.7750015258789 C-142.38299560546875,125.68399810791016 -127.08899688720703,113.33200073242188 -126.20999908447266,112.7750015258789"></path></g></g></g><g style="display: block;" transform="matrix(1,0,0,1,256,255.99998474121094)" opacity="1"><g opacity="1" transform="matrix(1,0,0,1,0,0)"><path fill="rgb(255,168,0)" fill-opacity="1" d=" M-160.1580047607422,13.538000106811523 C-170.41200256347656,15.954999923706055 -172.26699829101562,35.027000427246094 -167.95700073242188,55.650001525878906 C-163.9669952392578,74.74299621582031 -154.31399536132812,92.49800109863281 -140.04600524902344,88.16999816894531 C-125.77799987792969,83.84100341796875 -131.1719970703125,6.705999851226807 -160.1580047607422,13.538000106811523z"></path><path stroke-linecap="round" stroke-linejoin="round" fill-opacity="0" stroke="rgb(219,110,0)" stroke-opacity="1" stroke-width="8" d=" M-160.1580047607422,13.538000106811523 C-170.41200256347656,15.954999923706055 -172.26699829101562,35.027000427246094 -167.95700073242188,55.650001525878906 C-163.9669952392578,74.74299621582031 -154.31399536132812,92.49800109863281 -140.04600524902344,88.16999816894531 C-125.77799987792969,83.84100341796875 -131.1719970703125,6.705999851226807 -160.1580047607422,13.538000106811523z"></path></g><g opacity="1" transform="matrix(1,0,0,1,0,0)"><path fill="rgb(255,168,0)" fill-opacity="1" d=" M163.03199768066406,13.538000106811523 C173.28599548339844,15.954999923706055 175.14199829101562,35.027000427246094 170.83200073242188,55.650001525878906 C166.8419952392578,74.74299621582031 157.18899536132812,92.49800109863281 142.92100524902344,88.16999816894531 C128.6529998779297,83.84100341796875 134.04600524902344,6.705999851226807 163.03199768066406,13.538000106811523z"></path><path stroke-linecap="round" stroke-linejoin="round" fill-opacity="0" stroke="rgb(219,110,0)" stroke-opacity="1" stroke-width="8" d=" M163.03199768066406,13.538000106811523 C173.28599548339844,15.954999923706055 175.14199829101562,35.027000427246094 170.83200073242188,55.650001525878906 C166.8419952392578,74.74299621582031 157.18899536132812,92.49800109863281 142.92100524902344,88.16999816894531 C128.6529998779297,83.84100341796875 134.04600524902344,6.705999851226807 163.03199768066406,13.538000106811523z"></path></g><g opacity="1" transform="matrix(1,0,0,1,0,0)"><path fill="rgb(255,168,0)" fill-opacity="1" d=" M149.6529998779297,7.560999870300293 C145.30299377441406,-71.86199951171875 81.24700164794922,-134.2469940185547 0.8960000276565552,-134.2469940185547 C-79.4540023803711,-134.2469940185547 -143.50999450683594,-71.86199951171875 -147.86000061035156,7.560999870300293 C-149.33999633789062,34.58399963378906 -145.69400024414062,64.46299743652344 -135.2989959716797,92.83799743652344 C-116.86399841308594,143.15899658203125 -72.25700378417969,184.72799682617188 0.8960000276565552,184.72799682617188 C74.04900360107422,184.72799682617188 118.65699768066406,143.15899658203125 137.0919952392578,92.83799743652344 C147.48699951171875,64.46299743652344 151.13299560546875,34.58399963378906 149.6529998779297,7.560999870300293z"></path></g><g opacity="1" transform="matrix(1,0,0,1,0,0)"><path fill="url(#__lottie_element_38)" fill-opacity="1" d=" M149.6529998779297,7.560999870300293 C145.30299377441406,-71.86199951171875 81.24700164794922,-134.2469940185547 0.8960000276565552,-134.2469940185547 C-79.4540023803711,-134.2469940185547 -143.50999450683594,-71.86199951171875 -147.86000061035156,7.560999870300293 C-149.33999633789062,34.58399963378906 -145.69400024414062,64.46299743652344 -135.2989959716797,92.83799743652344 C-116.86399841308594,143.15899658203125 -72.25700378417969,184.72799682617188 0.8960000276565552,184.72799682617188 C74.04900360107422,184.72799682617188 118.65699768066406,143.15899658203125 137.0919952392578,92.83799743652344 C147.48699951171875,64.46299743652344 151.13299560546875,34.58399963378906 149.6529998779297,7.560999870300293z"></path></g><g opacity="1" transform="matrix(1,0,0,1,0,0)"><path fill="url(#__lottie_element_39)" fill-opacity="1" d=" M134.13999938964844,9.404999732971191 C130.24400329589844,-61.73500061035156 72.86699676513672,-117.61499786376953 0.8960000276565552,-117.61499786376953 C-71.07499694824219,-117.61499786376953 -128.4510040283203,-61.73500061035156 -132.3470001220703,9.404999732971191 C-133.67300415039062,33.61000061035156 -130.40699768066406,60.37200164794922 -121.09600067138672,85.78800201416016 C-104.58300018310547,130.86199951171875 -64.62799835205078,168.0959930419922 0.8960000276565552,168.0959930419922 C66.41999816894531,168.0959930419922 106.3759994506836,130.86199951171875 122.88899993896484,85.78800201416016 C132.1999969482422,60.37200164794922 135.46600341796875,33.61000061035156 134.13999938964844,9.404999732971191z"></path></g><g opacity="1" transform="matrix(1,0,0,1,0,0)"><path stroke-linecap="round" stroke-linejoin="round" fill-opacity="0" stroke="rgb(218,110,0)" stroke-opacity="1" stroke-width="8" d=" M149.6529998779297,7.560999870300293 C145.30299377441406,-71.86199951171875 81.24700164794922,-134.2469940185547 0.8960000276565552,-134.2469940185547 C-79.4540023803711,-134.2469940185547 -143.50999450683594,-71.86199951171875 -147.86000061035156,7.560999870300293 C-149.33999633789062,34.58399963378906 -145.69400024414062,64.46299743652344 -135.2989959716797,92.83799743652344 C-116.86399841308594,143.15899658203125 -72.25700378417969,184.72799682617188 0.8960000276565552,184.72799682617188 C74.04900360107422,184.72799682617188 118.65699768066406,143.15899658203125 137.0919952392578,92.83799743652344 C147.48699951171875,64.46299743652344 151.13299560546875,34.58399963378906 149.6529998779297,7.560999870300293z"></path></g><g opacity="1" transform="matrix(1,0,0,1,0,0)"><path fill="url(#__lottie_element_40)" fill-opacity="0.7000000000000001" d=" M108.93099975585938,-56.534000396728516 C84.2770004272461,-109.47000122070312 32.98899841308594,-117.03500366210938 0.906000018119812,-117.03500366210938 C0.906000018119812,-117.03500366210938 0.8889999985694885,-116.98899841308594 0.8889999985694885,-116.98899841308594 C0.8889999985694885,-116.98899841308594 0.8889999985694885,-117.03500366210938 0.8889999985694885,-117.03500366210938 C-31.194000244140625,-117.03500366210938 -83.10399627685547,-108.11399841308594 -107.13600158691406,-56.534000396728516 C-129.48300170898438,-8.571000099182129 -33.422000885009766,-37.88199996948242 0.8970000147819519,-37.88199996948242 C35.215999603271484,-37.88199996948242 131.27099609375,-8.567000389099121 108.93099975585938,-56.534000396728516z"></path></g></g><g style="display: block;" transform="matrix(0.6248000264167786,0,0,0.6248000264167786,260.1647033691406,297.83709716796875)" opacity="1"><g opacity="1" transform="matrix(1,0,0,1,0,0)"><path fill="url(#__lottie_element_31)" fill-opacity="0.7000000000000001" d=" M21.486000061035156,77.85600280761719 C21.486000061035156,88.90499877929688 9.508000373840332,98.72799682617188 -4.406000137329102,98.72799682617188 C-18.31999969482422,98.72799682617188 -31.89900016784668,88.90499877929688 -31.89900016784668,77.85600280761719 C-31.89900016784668,66.80799865722656 -19.1200008392334,56.678001403808594 -5.205999851226807,56.678001403808594 C8.708000183105469,56.678001403808594 21.486000061035156,66.80799865722656 21.486000061035156,77.85600280761719z"></path></g><g opacity="1" transform="matrix(1,0,0,1,0,0)"><path fill="rgb(255,168,0)" fill-opacity="0.8" d=" M21.486000061035156,65.87899780273438 C21.486000061035156,76.927001953125 9.53600025177002,85.10600280761719 -5.205999851226807,85.10600280761719 C-19.947999954223633,85.10600280761719 -31.89900016784668,76.927001953125 -31.89900016784668,65.87899780273438 C-31.89900016784668,54.83100128173828 -19.947999954223633,46.34600067138672 -5.205999851226807,46.34600067138672 C9.53600025177002,46.34600067138672 21.486000061035156,54.83100128173828 21.486000061035156,65.87899780273438z"></path></g><g opacity="1" transform="matrix(1,0,0,1,0,0)"><path fill="url(#__lottie_element_32)" fill-opacity="0.7000000000000001" d=" M21.486000061035156,65.87899780273438 C21.486000061035156,76.927001953125 9.53600025177002,85.10600280761719 -5.205999851226807,85.10600280761719 C-19.947999954223633,85.10600280761719 -31.89900016784668,76.927001953125 -31.89900016784668,65.87899780273438 C-31.89900016784668,54.83100128173828 -19.947999954223633,46.34600067138672 -5.205999851226807,46.34600067138672 C9.53600025177002,46.34600067138672 21.486000061035156,54.83100128173828 21.486000061035156,65.87899780273438z"></path></g><g opacity="1" transform="matrix(1,0,0,1,0,0)"><path fill="rgb(255,216,0)" fill-opacity="1" d=" M18.868000030517578,60.762001037597656 C18.868000030517578,68.98699951171875 10.666999816894531,76.85099792480469 -5.205999851226807,76.85099792480469 C-21.295000076293945,76.85099792480469 -29.280000686645508,68.98699951171875 -29.280000686645508,60.762001037597656 C-29.280000686645508,52.5369987487793 -17.958999633789062,46.02299880981445 -5.205999851226807,46.02299880981445 C7.546999931335449,46.02299880981445 18.868000030517578,52.5369987487793 18.868000030517578,60.762001037597656z"></path></g><g opacity="1" transform="matrix(1,0,0,1,0,0)"><path fill="url(#__lottie_element_33)" fill-opacity="1" d=" M18.868000030517578,60.762001037597656 C18.868000030517578,68.98699951171875 10.666999816894531,76.85099792480469 -5.205999851226807,76.85099792480469 C-21.295000076293945,76.85099792480469 -29.280000686645508,68.98699951171875 -29.280000686645508,60.762001037597656 C-29.280000686645508,52.5369987487793 -17.958999633789062,46.02299880981445 -5.205999851226807,46.02299880981445 C7.546999931335449,46.02299880981445 18.868000030517578,52.5369987487793 18.868000030517578,60.762001037597656z"></path></g><g opacity="1" transform="matrix(1,0,0,1,0,0)"><path fill="url(#__lottie_element_34)" fill-opacity="0.7000000000000001" d=" M8.605999946594238,54.4010009765625 C8.605999946594238,58.73099899291992 2.421999931335449,62.803001403808594 -5.205999851226807,62.803001403808594 C-12.833999633789062,62.803001403808594 -19.018999099731445,58.73099899291992 -19.018999099731445,54.4010009765625 C-19.018999099731445,50.07099914550781 -12.833999633789062,47.89899826049805 -5.205999851226807,47.89899826049805 C2.421999931335449,47.89899826049805 8.605999946594238,50.07099914550781 8.605999946594238,54.4010009765625z"></path></g></g><g style="display: block;" transform="matrix(0.8799999952316284,0,0,0.8799999952316284,257.89959716796875,263.79693603515625)" opacity="1"><g opacity="1" transform="matrix(1,0,0,1,0,0)"><path fill="url(#__lottie_element_25)" fill-opacity="1" d=" M49.891998291015625,116.16799926757812 C47.61199951171875,114.34600067138672 41.99599838256836,114.72100067138672 -0.14399999380111694,114.72100067138672 C-41.268001556396484,114.72100067138672 -47.52000045776367,114.38600158691406 -50.180999755859375,116.16799926757812 C-54.729000091552734,119.21299743652344 -53.275001525878906,147.1179962158203 -0.15399999916553497,147.1179962158203 C52.1150016784668,147.1179962158203 54.016998291015625,119.46299743652344 49.891998291015625,116.16799926757812z"></path></g><g opacity="1" transform="matrix(1,0,0,1,0,0)"><path fill="url(#__lottie_element_26)" fill-opacity="0.7000000000000001" d=" M50.566001892089844,125.64299774169922 C49.393001556396484,118.16500091552734 41.99599838256836,120.62699890136719 -0.14399999380111694,120.62699890136719 C-41.268001556396484,120.62699890136719 -48.9739990234375,117.69599914550781 -50.85499954223633,125.64299774169922 C-51.606998443603516,128.82200622558594 -34.845001220703125,154.04299926757812 -0.15399999916553497,154.04299926757812 C33.948001861572266,154.04299926757812 51.09199905395508,128.9969940185547 50.566001892089844,125.64299774169922z"></path></g><g opacity="1" transform="matrix(1,0,0,1,0,0)"><path fill="rgb(136,24,4)" fill-opacity="1" d=" M49.26599884033203,122.2490005493164 C47.319000244140625,118.96299743652344 41.99599838256836,119.49600219726562 -0.14399999380111694,119.49600219726562 C-41.268001556396484,119.49600219726562 -47.37300109863281,119.0770034790039 -49.55500030517578,122.2490005493164 C-51.470001220703125,125.03299713134766 -34.845001220703125,147.1179962158203 -0.15399999916553497,147.1179962158203 C33.948001861572266,147.1179962158203 51.04899978637695,125.25700378417969 49.26599884033203,122.2490005493164z"></path></g><g opacity="1" transform="matrix(1,0,0,1,0,0)"><path fill="url(#__lottie_element_27)" fill-opacity="1" d=" M49.26599884033203,121 C47.983001708984375,118.98500061035156 41.99599838256836,119.49600219726562 -0.14399999380111694,119.49600219726562 C-41.268001556396484,119.49600219726562 -47.124000549316406,117.74400329589844 -49.55500030517578,120.72899627685547 C-53.03300094604492,125 -34.845001220703125,147.1179962158203 -0.15399999916553497,147.1179962158203 C33.948001861572266,147.1179962158203 52.08700180053711,125.42900085449219 49.26599884033203,121z"></path></g></g><g style="display: block;" transform="matrix(0.8888000249862671,0,0,0.8888000249862671,257.6009216308594,264.0426025390625)" opacity="1"><g opacity="1" transform="matrix(1,0,0,1,-0.5680000185966492,0)"><g opacity="1" transform="matrix(1,0,0,1,0,0)"><path fill="rgb(255,255,255)" fill-opacity="1" d=" M30.238000869750977,51.527000427246094 C30.238000869750977,51.527000427246094 32.430999755859375,7.081999778747559 68.48699951171875,5.061999797821045 C102.12899780273438,3.177000045776367 119.7239990234375,34.36399841308594 120.22899627685547,43.35200119018555 C120.22899627685547,43.35200119018555 106.20600128173828,68.13700103759766 75.31800079345703,68.45800018310547 C42.599998474121094,68.7979965209961 30.238000869750977,51.527000427246094 30.238000869750977,51.527000427246094z"></path></g><g opacity="1" transform="matrix(1.0099999904632568,0,0,1.0099999904632568,151.79039001464844,44.00831985473633)"><g opacity="1" transform="matrix(1,0,0,1,0,0)"><path fill="url(#__lottie_element_16)" fill-opacity="1" d=" M-52.59600067138672,-7.182000160217285 C-52.59600067138672,8.140000343322754 -64.71399688720703,20.559999465942383 -79.66100311279297,20.559999465942383 C-94.60900115966797,20.559999465942383 -106.72599792480469,8.140000343322754 -106.72599792480469,-7.182000160217285 C-106.72599792480469,-22.503999710083008 -94.60900115966797,-34.92499923706055 -79.66100311279297,-34.92499923706055 C-64.71399688720703,-34.92499923706055 -52.59600067138672,-22.503999710083008 -52.59600067138672,-7.182000160217285z"></path></g><g opacity="1" transform="matrix(1,0,0,1,0,0)"><g opacity="1" transform="matrix(1,0,0,1,0,0)"><path fill="url(#__lottie_element_17)" fill-opacity="1" d=" M-72.83399963378906,19.295000076293945 C-74.9489974975586,19.295000076293945 -76.90799713134766,17.895000457763672 -77.56400299072266,15.71500015258789 C-78.37000274658203,13.036999702453613 -76.90499877929688,10.196000099182129 -74.29199981689453,9.369999885559082 C-69.29399871826172,7.789999961853027 -65.31500244140625,3.809999942779541 -63.650001525878906,-1.2760000228881836 C-62.779998779296875,-3.934000015258789 -59.96900177001953,-5.361999988555908 -57.38199996948242,-4.4720001220703125 C-54.790000915527344,-3.5810000896453857 -53.39400100708008,-0.703000009059906 -54.263999938964844,1.9539999961853027 C-56.941001892089844,10.130000114440918 -63.33599853515625,16.527000427246094 -71.3740005493164,19.06800079345703 C-71.86000061035156,19.222000122070312 -72.35199737548828,19.295000076293945 -72.83399963378906,19.295000076293945z"></path></g></g><g opacity="1" transform="matrix(1,0,0,1,0,0)"><path fill="rgb(24,19,9)" fill-opacity="1" d=" M-62.555999755859375,-7.182000160217285 C-62.555999755859375,2.500999927520752 -70.21399688720703,10.35099983215332 -79.66100311279297,10.35099983215332 C-89.10800170898438,10.35099983215332 -96.76599884033203,2.500999927520752 -96.76599884033203,-7.182000160217285 C-96.76599884033203,-16.864999771118164 -89.10800170898438,-24.71500015258789 -79.66100311279297,-24.71500015258789 C-70.21399688720703,-24.71500015258789 -62.555999755859375,-16.864999771118164 -62.555999755859375,-7.182000160217285z"></path></g><g opacity="1" transform="matrix(1,0,0,1,0,0)"><path fill="url(#__lottie_element_18)" fill-opacity="1" d=" M-87.6719970703125,-15.805000305175781 C-91.3489990234375,-15.805000305175781 -94.33100128173828,-18.71299934387207 -94.33100128173828,-22.299999237060547 C-94.33100128173828,-25.886999130249023 -91.3499984741211,-28.79599952697754 -87.6729965209961,-28.79599952697754 C-83.99600219726562,-28.79599952697754 -81.01399993896484,-25.886999130249023 -81.01399993896484,-22.299999237060547 C-81.01399993896484,-18.71299934387207 -83.99500274658203,-15.805000305175781 -87.6719970703125,-15.805000305175781z"></path></g></g><g opacity="1" transform="matrix(1,0,0,1,0,0)"><path fill="rgb(163,65,0)" fill-opacity="1" d=" M31.246000289916992,45.28200149536133 C31.246000289916992,45.28200149536133 32.887001037597656,4.395999908447266 72.21099853515625,2.190999984741211 C107.52799987792969,0.210999995470047 118.2509994506836,33.46500015258789 120.22899627685547,43.35200119018555 C120.22899627685547,43.35200119018555 111.3010025024414,3.638000011444092 71.02899932861328,5.383999824523926 C34.6609992980957,6.960999965667725 31.246000289916992,45.28200149536133 31.246000289916992,45.28200149536133z"></path><path stroke-linecap="round" stroke-linejoin="round" fill-opacity="0" stroke="rgb(163,65,0)" stroke-opacity="1" stroke-width="2" d=" M31.246000289916992,45.28200149536133 C31.246000289916992,45.28200149536133 32.887001037597656,4.395999908447266 72.21099853515625,2.190999984741211 C107.52799987792969,0.210999995470047 118.2509994506836,33.46500015258789 120.22899627685547,43.35200119018555 C120.22899627685547,43.35200119018555 111.3010025024414,3.638000011444092 71.02899932861328,5.383999824523926 C34.6609992980957,6.960999965667725 31.246000289916992,45.28200149536133 31.246000289916992,45.28200149536133z"></path></g></g><g opacity="1" transform="matrix(1,0,0,1,-1.1360000371932983,0)"><g opacity="1" transform="matrix(1,0,0,1,0,0)"><path fill="rgb(255,255,255)" fill-opacity="1" d=" M-29.538000106811523,51.527000427246094 C-29.538000106811523,51.527000427246094 -31.73200035095215,7.081999778747559 -67.78800201416016,5.061999797821045 C-101.43000030517578,3.177000045776367 -119.0250015258789,34.36399841308594 -119.52999877929688,43.35200119018555 C-119.52999877929688,43.35200119018555 -105.50700378417969,68.13700103759766 -74.61900329589844,68.45800018310547 C-41.9010009765625,68.7979965209961 -29.538000106811523,51.527000427246094 -29.538000106811523,51.527000427246094z"></path></g><g opacity="1" transform="matrix(1.0099999904632568,0,0,1.0099999904632568,9.418197631835938,44.07032012939453)"><g opacity="1" transform="matrix(1,0,0,1,0,0)"><path fill="url(#__lottie_element_19)" fill-opacity="1" d=" M-52.59600067138672,-7.182000160217285 C-52.59600067138672,8.140000343322754 -64.71399688720703,20.559999465942383 -79.66100311279297,20.559999465942383 C-94.60900115966797,20.559999465942383 -106.72599792480469,8.140000343322754 -106.72599792480469,-7.182000160217285 C-106.72599792480469,-22.503999710083008 -94.60900115966797,-34.92499923706055 -79.66100311279297,-34.92499923706055 C-64.71399688720703,-34.92499923706055 -52.59600067138672,-22.503999710083008 -52.59600067138672,-7.182000160217285z"></path></g><g opacity="1" transform="matrix(1,0,0,1,0,0)"><g opacity="1" transform="matrix(1,0,0,1,0,0)"><path fill="url(#__lottie_element_20)" fill-opacity="1" d=" M-72.83399963378906,19.295000076293945 C-74.9489974975586,19.295000076293945 -76.90799713134766,17.895000457763672 -77.56400299072266,15.71500015258789 C-78.37000274658203,13.036999702453613 -76.90499877929688,10.196000099182129 -74.29199981689453,9.369999885559082 C-69.29399871826172,7.789999961853027 -65.31500244140625,3.809999942779541 -63.650001525878906,-1.2760000228881836 C-62.779998779296875,-3.934000015258789 -59.96900177001953,-5.361999988555908 -57.38199996948242,-4.4720001220703125 C-54.790000915527344,-3.5810000896453857 -53.39400100708008,-0.703000009059906 -54.263999938964844,1.9539999961853027 C-56.941001892089844,10.130000114440918 -63.33599853515625,16.527000427246094 -71.3740005493164,19.06800079345703 C-71.86000061035156,19.222000122070312 -72.35199737548828,19.295000076293945 -72.83399963378906,19.295000076293945z"></path></g></g><g opacity="1" transform="matrix(1,0,0,1,0,0)"><path fill="rgb(24,19,9)" fill-opacity="1" d=" M-62.555999755859375,-7.182000160217285 C-62.555999755859375,2.500999927520752 -70.21399688720703,10.35099983215332 -79.66100311279297,10.35099983215332 C-89.10800170898438,10.35099983215332 -96.76599884033203,2.500999927520752 -96.76599884033203,-7.182000160217285 C-96.76599884033203,-16.864999771118164 -89.10800170898438,-24.71500015258789 -79.66100311279297,-24.71500015258789 C-70.21399688720703,-24.71500015258789 -62.555999755859375,-16.864999771118164 -62.555999755859375,-7.182000160217285z"></path></g><g opacity="1" transform="matrix(1,0,0,1,0,0)"><path fill="url(#__lottie_element_21)" fill-opacity="1" d=" M-87.6719970703125,-15.805000305175781 C-91.3489990234375,-15.805000305175781 -94.33100128173828,-18.71299934387207 -94.33100128173828,-22.299999237060547 C-94.33100128173828,-25.886999130249023 -91.3499984741211,-28.79599952697754 -87.6729965209961,-28.79599952697754 C-83.99600219726562,-28.79599952697754 -81.01399993896484,-25.886999130249023 -81.01399993896484,-22.299999237060547 C-81.01399993896484,-18.71299934387207 -83.99500274658203,-15.805000305175781 -87.6719970703125,-15.805000305175781z"></path></g></g><g opacity="1" transform="matrix(1,0,0,1,0,0)"><path fill="rgb(163,65,0)" fill-opacity="1" d=" M-30.54599952697754,45.28200149536133 C-30.54599952697754,45.28200149536133 -32.1870002746582,4.395999908447266 -71.51100158691406,2.190999984741211 C-106.8280029296875,0.210999995470047 -117.552001953125,33.46500015258789 -119.52999877929688,43.35200119018555 C-119.52999877929688,43.35200119018555 -110.60199737548828,3.638000011444092 -70.33000183105469,5.383999824523926 C-33.96200180053711,6.960999965667725 -30.54599952697754,45.28200149536133 -30.54599952697754,45.28200149536133z"></path><path stroke-linecap="round" stroke-linejoin="round" fill-opacity="0" stroke="rgb(163,65,0)" stroke-opacity="1" stroke-width="2" d=" M-30.54599952697754,45.28200149536133 C-30.54599952697754,45.28200149536133 -32.1870002746582,4.395999908447266 -71.51100158691406,2.190999984741211 C-106.8280029296875,0.210999995470047 -117.552001953125,33.46500015258789 -119.52999877929688,43.35200119018555 C-119.52999877929688,43.35200119018555 -110.60199737548828,3.638000011444092 -70.33000183105469,5.383999824523926 C-33.96200180053711,6.960999965667725 -30.54599952697754,45.28200149536133 -30.54599952697754,45.28200149536133z"></path></g></g></g><g style="display: block;" transform="matrix(0.9064000248908997,0,0,0.9064000248908997,258.2080383300781,264.7427062988281)" opacity="0.7000000000000001"><g opacity="1" transform="matrix(1,0,0,1,-1.4199999570846558,0)"><path fill="rgb(163,65,0)" fill-opacity="1" d=" M-94.87100219726562,-9.258000373840332 C-96.34200286865234,-12.23900032043457 -80.77799987792969,-21.281999588012695 -62.441001892089844,-20.731000900268555 C-47.34199905395508,-20.277999877929688 -45.54600143432617,-15.857000350952148 -46.47600173950195,-14.395999908447266 C-47.40599822998047,-12.9350004196167 -56.61600112915039,-16.527000427246094 -73.71099853515625,-14.159000396728516 C-91.15499877929688,-11.743000030517578 -94.1510009765625,-7.798999786376953 -94.87100219726562,-9.258000373840332z"></path><path stroke-linecap="round" stroke-linejoin="round" fill-opacity="0" stroke="rgb(163,65,0)" stroke-opacity="1" stroke-width="2" d=" M-94.87100219726562,-9.258000373840332 C-96.34200286865234,-12.23900032043457 -80.77799987792969,-21.281999588012695 -62.441001892089844,-20.731000900268555 C-47.34199905395508,-20.277999877929688 -45.54600143432617,-15.857000350952148 -46.47600173950195,-14.395999908447266 C-47.40599822998047,-12.9350004196167 -56.61600112915039,-16.527000427246094 -73.71099853515625,-14.159000396728516 C-91.15499877929688,-11.743000030517578 -94.1510009765625,-7.798999786376953 -94.87100219726562,-9.258000373840332z"></path></g><g opacity="1" transform="matrix(1,0,0,1,-0.2840000092983246,0)"><path fill="rgb(163,65,0)" fill-opacity="1" d=" M94.80899810791016,-9.95199966430664 C96.22899627685547,-12.961000442504883 80.38899993896484,-21.702999114990234 61.95100021362305,-20.801000595092773 C46.77000045776367,-20.058000564575195 45.05099868774414,-15.602999687194824 46.01599884033203,-14.15999984741211 C46.98099899291992,-12.717000007629395 56.047000885009766,-16.483999252319336 73.29399871826172,-14.444999694824219 C90.89299774169922,-12.36400032043457 94.11399841308594,-8.479999542236328 94.80899810791016,-9.95199966430664z"></path><path stroke-linecap="round" stroke-linejoin="round" fill-opacity="0" stroke="rgb(163,65,0)" stroke-opacity="1" stroke-width="2" d=" M94.80899810791016,-9.95199966430664 C96.22899627685547,-12.961000442504883 80.38899993896484,-21.702999114990234 61.95100021362305,-20.801000595092773 C46.77000045776367,-20.058000564575195 45.05099868774414,-15.602999687194824 46.01599884033203,-14.15999984741211 C46.98099899291992,-12.717000007629395 56.047000885009766,-16.483999252319336 73.29399871826172,-14.444999694824219 C90.89299774169922,-12.36400032043457 94.11399841308594,-8.479999542236328 94.80899810791016,-9.95199966430664z"></path></g></g><g style="display: block;" transform="matrix(0.8618746399879456,0.030097326263785362,-0.028942851349711418,0.8288148045539856,254.49940490722656,255.76077270507812)" opacity="1"><g opacity="1" transform="matrix(1,0,0,1,0,0)"><path fill="url(#__lottie_element_6)" fill-opacity="1" d=" M-26.93600082397461,-150.31100463867188 C-22.416000366210938,-172.6959991455078 41.14899826049805,-164.3719940185547 71.9489974975586,-135.63900756835938 C68.9530029296875,-97.8479995727539 25.799999237060547,-81.19300079345703 19.922000885009766,-85.08799743652344 C16.118000030517578,-87.60900115966797 18.43899917602539,-94.42500305175781 17.559999465942383,-95.31099700927734 C17.559999465942383,-95.31099700927734 4.1519999504089355,-92.50800323486328 1.6779999732971191,-97.8479995727539 C-3.5480000972747803,-109.12699890136719 23.917999267578125,-129.98399353027344 6.423999786376953,-146.25399780273438 C-1.4290000200271606,-153.5570068359375 -18.95599937438965,-152.10899353027344 -26.93600082397461,-150.31100463867188z"></path></g><g opacity="1" transform="matrix(1,0,0,1,0,0)"><path fill="rgb(255,168,0)" fill-opacity="1" d=" M-24.82200050354004,-158.5970001220703 C-24.82200050354004,-158.5970001220703 -25.57200050354004,-200.58999633789062 15.508999824523926,-202.7220001220703 C35.507999420166016,-203.75999450683594 56.71799850463867,-189.30599975585938 64.19200134277344,-173.3209991455078 C74.5459976196289,-151.1750030517578 67.92900085449219,-112.93399810791016 33.77799987792969,-97.8479995727539 C36.78799819946289,-105.11399841308594 35.441001892089844,-117.39900207519531 35.441001892089844,-117.39900207519531 C35.441001892089844,-117.39900207519531 33.25,-108.5 15.777000427246094,-104.04299926757812 C28.648000717163086,-112.97000122070312 34.159000396728516,-146.01100158691406 16.582000732421875,-157.91400146484375 C4.678999900817871,-163.86500549316406 -12.621000289916992,-160.26699829101562 -24.82200050354004,-158.5970001220703z"></path></g><g opacity="1" transform="matrix(1,0,0,1,0,0)"><path fill="url(#__lottie_element_7)" fill-opacity="1" d=" M-24.82200050354004,-158.5970001220703 C-24.82200050354004,-158.5970001220703 -25.57200050354004,-200.58999633789062 15.508999824523926,-202.7220001220703 C35.507999420166016,-203.75999450683594 56.71799850463867,-189.30599975585938 64.19200134277344,-173.3209991455078 C74.5459976196289,-151.1750030517578 67.92900085449219,-112.93399810791016 33.77799987792969,-97.8479995727539 C36.78799819946289,-105.11399841308594 35.441001892089844,-117.39900207519531 35.441001892089844,-117.39900207519531 C35.441001892089844,-117.39900207519531 32.125,-108.25 15.527000427246094,-104.66799926757812 C28.398000717163086,-113.59500122070312 34.159000396728516,-146.01100158691406 16.582000732421875,-157.91400146484375 C4.678999900817871,-163.86500549316406 -12.621000289916992,-160.26699829101562 -24.82200050354004,-158.5970001220703z"></path></g><g opacity="1" transform="matrix(1,0,0,1,0,0)"><path fill="url(#__lottie_element_8)" fill-opacity="0.9" d=" M57.07699966430664,-119.71499633789062 C78.83000183105469,-171.2030029296875 53.029998779296875,-196.24200439453125 32.86399841308594,-201.63600158691406 C16.86400032043457,-205.91600036621094 -6.863999843597412,-200.49099731445312 -19.756999969482422,-182.57699584960938 C2.763000011444092,-190.25399780273438 59.034000396728516,-174.18600463867188 57.07699966430664,-119.71499633789062z"></path></g><g opacity="1" transform="matrix(1,0,0,1,0,0)"><path fill="url(#__lottie_element_9)" fill-opacity="0.7000000000000001" d=" M45.61000061035156,-122.66100311279297 C41.944000244140625,-123.93000030517578 47.62300109863281,-135.0050048828125 45.4370002746582,-136.76800537109375 C44.45000076293945,-137.26199340820312 39.215999603271484,-124.3740005493164 36.47600173950195,-126.80999755859375 C35.25600051879883,-127.8949966430664 39.861000061035156,-164.4239959716797 21.922000885009766,-171.94900512695312 C3.9830000400543213,-179.4739990234375 -9.4399995803833,-172.15199279785156 -11.767999649047852,-192.47000122070312 C-26.729999542236328,-179.27999877929688 -24.82200050354004,-158.5970001220703 -24.82200050354004,-158.5970001220703 C-12.621000289916992,-160.26699829101562 4.678999900817871,-163.86500549316406 16.582000732421875,-157.91400146484375 C27.573999404907227,-150.4709930419922 29.590999603271484,-134.61700439453125 26.41200065612793,-121.5999984741211 C24.506999969482422,-113.802001953125 20.73699951171875,-107.02200317382812 15.914999961853027,-103.6780014038086 C21.360000610351562,-104.30999755859375 28.867000579833984,-106.26399993896484 35.231998443603516,-116.4990005493164 C34.65299987792969,-108.89700317382812 34.957000732421875,-100.69400024414062 33.77799987792969,-97.8479995727539 C39.047000885009766,-100.17500305175781 72.072998046875,-120.06999969482422 66.13999938964844,-167.0019989013672 C65.69200134277344,-142.72900390625 48.85200119018555,-121.53900146484375 45.61000061035156,-122.66100311279297z"></path></g><g opacity="1" transform="matrix(1,0,0,1,0,0)"><path stroke-linecap="round" stroke-linejoin="round" fill-opacity="0" stroke="rgb(197,92,0)" stroke-opacity="1" stroke-width="8" d=" M-24.82200050354004,-158.5970001220703 C-24.82200050354004,-158.5970001220703 -28.68600082397461,-197.74899291992188 15.508999824523926,-202.7220001220703 C39.42900085449219,-205.41400146484375 57.340999603271484,-189.9550018310547 64.19200134277344,-173.3209991455078 C72.66200256347656,-152.7570037841797 66.34500122070312,-112 33.77799987792969,-97.8479995727539 C34.262001037597656,-106.08300018310547 35.97700119018555,-113.90299987792969 35.97700119018555,-113.90299987792969 C35.97700119018555,-113.90299987792969 31.2450008392334,-107.2300033569336 15.914999961853027,-103.6780014038086 C28.79599952697754,-119.71499633789062 33.08599853515625,-147.68600463867188 16.582000732421875,-157.91400146484375 C6.755000114440918,-164.00399780273438 -12.621000289916992,-160.26699829101562 -24.82200050354004,-158.5970001220703z"></path></g><g opacity="1" transform="matrix(1,0,0,1,0,0)"><path stroke-linecap="round" stroke-linejoin="round" fill-opacity="0" stroke="rgb(163,65,0)" stroke-opacity="1" stroke-width="8" d=" M25.98200035095215,-124.52100372314453 C29.16200065612793,-137.74000549316406 27.073999404907227,-151.41200256347656 16.582000732421875,-157.91400146484375 C6.755000114440918,-164.00399780273438 -12.621000289916992,-160.26699829101562 -24.82200050354004,-158.5970001220703"></path></g></g></g></svg>