<svg xmlns="http://www.w3.org/2000/svg" xmlns:xlink="http://www.w3.org/1999/xlink" viewBox="0 0 512 512" width="512" height="512" style="width: 100%; height: 100%; transform: translate3d(0,0,0); content-visibility: visible;" preserveAspectRatio="xMidYMid meet"><defs><clipPath id="__lottie_element_2"><rect width="512" height="512" x="0" y="0"></rect></clipPath><radialGradient id="__lottie_element_6" spreadMethod="pad" gradientUnits="userSpaceOnUse" cx="67.1989974975586" cy="-54.599998474121094" r="118.54505317437433" fx="67.1989974975586" fy="-54.599998474121094"><stop offset="38%" stop-color="rgb(229,229,229)"></stop><stop offset="67%" stop-color="rgb(171,167,165)"></stop><stop offset="86%" stop-color="rgb(112,105,102)"></stop></radialGradient><linearGradient id="__lottie_element_7" spreadMethod="pad" gradientUnits="userSpaceOnUse" x1="167.19900512695312" y1="-33.599998474121094" x2="141.75" y2="-37.18899917602539"><stop offset="8%" stop-color="rgb(255,255,255)" stop-opacity="1"></stop><stop offset="72%" stop-color="rgb(255,255,255)" stop-opacity="0.5"></stop><stop offset="100%" stop-color="rgb(255,255,255)" stop-opacity="0"></stop></linearGradient><radialGradient id="__lottie_element_8" spreadMethod="pad" gradientUnits="userSpaceOnUse" cx="79.1989974975586" cy="-61.099998474121094" r="85.9255732946356" fx="79.1989974975586" fy="-61.099998474121094"><stop offset="0%" stop-color="rgb(255,255,255)" stop-opacity="1"></stop><stop offset="48%" stop-color="rgb(255,255,255)" stop-opacity="0.5"></stop><stop offset="100%" stop-color="rgb(255,255,255)" stop-opacity="0"></stop></radialGradient><linearGradient id="__lottie_element_9" spreadMethod="pad" gradientUnits="userSpaceOnUse" x1="89.1989974975586" y1="-86.5999984741211" x2="92.52200317382812" y2="-62.862998962402344"><stop offset="0%" stop-color="rgb(77,77,77)" stop-opacity="1"></stop><stop offset="71%" stop-color="rgb(77,77,77)" stop-opacity="0.5"></stop><stop offset="100%" stop-color="rgb(77,77,77)" stop-opacity="0"></stop></linearGradient><linearGradient id="__lottie_element_10" spreadMethod="pad" gradientUnits="userSpaceOnUse" x1="158.19900512695312" y1="-12.600000381469727" x2="112.79299926757812" y2="-36.69300079345703"><stop offset="0%" stop-color="rgb(77,77,77)" stop-opacity="0"></stop><stop offset="44%" stop-color="rgb(77,77,77)" stop-opacity="0.5"></stop><stop offset="100%" stop-color="rgb(77,77,77)" stop-opacity="1"></stop></linearGradient><linearGradient id="__lottie_element_11" spreadMethod="pad" gradientUnits="userSpaceOnUse" x1="136.19900512695312" y1="-67.5999984741211" x2="106.80799865722656" y2="-80.59300231933594"><stop offset="0%" stop-color="rgb(77,77,77)" stop-opacity="0"></stop><stop offset="44%" stop-color="rgb(77,77,77)" stop-opacity="0.5"></stop><stop offset="100%" stop-color="rgb(77,77,77)" stop-opacity="1"></stop></linearGradient><radialGradient id="__lottie_element_12" spreadMethod="pad" gradientUnits="userSpaceOnUse" cx="-11.800999641418457" cy="-98.5999984741211" r="153.89474372389535" fx="-11.800999641418457" fy="-98.5999984741211"><stop offset="50%" stop-color="rgb(240,240,240)"></stop><stop offset="75%" stop-color="rgb(198,195,194)"></stop><stop offset="88%" stop-color="rgb(156,150,148)"></stop></radialGradient><linearGradient id="__lottie_element_13" spreadMethod="pad" gradientUnits="userSpaceOnUse" x1="165.19900512695312" y1="-134.60000610351562" x2="75.68199920654297" y2="-105.66100311279297"><stop offset="0%" stop-color="rgb(255,255,255)" stop-opacity="1"></stop><stop offset="50%" stop-color="rgb(255,255,255)" stop-opacity="0.5"></stop><stop offset="100%" stop-color="rgb(255,255,255)" stop-opacity="0"></stop></linearGradient><linearGradient id="__lottie_element_14" spreadMethod="pad" gradientUnits="userSpaceOnUse" x1="145.19900512695312" y1="-155.60000610351562" x2="103.2979965209961" y2="-152.51199340820312"><stop offset="0%" stop-color="rgb(255,255,255)" stop-opacity="1"></stop><stop offset="50%" stop-color="rgb(255,255,255)" stop-opacity="0.5"></stop><stop offset="100%" stop-color="rgb(255,255,255)" stop-opacity="0"></stop></linearGradient><linearGradient id="__lottie_element_15" spreadMethod="pad" gradientUnits="userSpaceOnUse" x1="30.198999404907227" y1="-187.60000610351562" x2="125.58300018310547" y2="-177.5"><stop offset="0%" stop-color="rgb(255,255,255)" stop-opacity="1"></stop><stop offset="50%" stop-color="rgb(255,255,255)" stop-opacity="0.5"></stop><stop offset="100%" stop-color="rgb(255,255,255)" stop-opacity="0"></stop></linearGradient><linearGradient id="__lottie_element_16" spreadMethod="pad" gradientUnits="userSpaceOnUse" x1="-31.801000595092773" y1="-211.60000610351562" x2="12.321999549865723" y2="-20.922000885009766"><stop offset="17%" stop-color="rgb(255,255,255)" stop-opacity="1"></stop><stop offset="58%" stop-color="rgb(255,255,255)" stop-opacity="0.5"></stop><stop offset="100%" stop-color="rgb(255,255,255)" stop-opacity="0"></stop></linearGradient><radialGradient id="__lottie_element_17" spreadMethod="pad" gradientUnits="userSpaceOnUse" cx="-80.8010025024414" cy="-161.60000610351562" r="97.485375931744" fx="-80.8010025024414" fy="-161.60000610351562"><stop offset="53%" stop-color="rgb(77,77,77)" stop-opacity="0"></stop><stop offset="76%" stop-color="rgb(77,77,77)" stop-opacity="0.5"></stop><stop offset="100%" stop-color="rgb(77,77,77)" stop-opacity="1"></stop></radialGradient><linearGradient id="__lottie_element_18" spreadMethod="pad" gradientUnits="userSpaceOnUse" x1="98.1989974975586" y1="-151.60000610351562" x2="143.2740020751953" y2="-146.968994140625"><stop offset="0%" stop-color="rgb(77,77,77)" stop-opacity="0"></stop><stop offset="50%" stop-color="rgb(77,77,77)" stop-opacity="0.5"></stop><stop offset="100%" stop-color="rgb(77,77,77)" stop-opacity="1"></stop></linearGradient><linearGradient id="__lottie_element_19" spreadMethod="pad" gradientUnits="userSpaceOnUse" x1="62.19900131225586" y1="-106.5999984741211" x2="155.00999450683594" y2="-122.37799835205078"><stop offset="0%" stop-color="rgb(77,77,77)" stop-opacity="0"></stop><stop offset="50%" stop-color="rgb(77,77,77)" stop-opacity="0.5"></stop><stop offset="100%" stop-color="rgb(77,77,77)" stop-opacity="1"></stop></linearGradient><radialGradient id="__lottie_element_20" spreadMethod="pad" gradientUnits="userSpaceOnUse" cx="-31.801000595092773" cy="-117.5999984741211" r="154.28800010681152" fx="-31.801000595092773" fy="-117.5999984741211"><stop offset="40%" stop-color="rgb(77,77,77)" stop-opacity="0"></stop><stop offset="74%" stop-color="rgb(77,77,77)" stop-opacity="0.5"></stop><stop offset="100%" stop-color="rgb(77,77,77)" stop-opacity="1"></stop></radialGradient><linearGradient id="__lottie_element_21" spreadMethod="pad" gradientUnits="userSpaceOnUse" x1="-65.8010025024414" y1="-192.60000610351562" x2="91.28099822998047" y2="-175.9669952392578"><stop offset="0%" stop-color="rgb(255,255,255)" stop-opacity="1"></stop><stop offset="50%" stop-color="rgb(255,255,255)" stop-opacity="0.5"></stop><stop offset="100%" stop-color="rgb(255,255,255)" stop-opacity="0"></stop></linearGradient><linearGradient id="__lottie_element_22" spreadMethod="pad" gradientUnits="userSpaceOnUse" x1="-0.8009999990463257" y1="-138.60000610351562" x2="-157.26400756835938" y2="-36.000999450683594"><stop offset="0%" stop-color="rgb(77,77,77)" stop-opacity="0"></stop><stop offset="50%" stop-color="rgb(77,77,77)" stop-opacity="0.5"></stop><stop offset="100%" stop-color="rgb(77,77,77)" stop-opacity="1"></stop></linearGradient><linearGradient id="__lottie_element_23" spreadMethod="pad" gradientUnits="userSpaceOnUse" x1="93.1989974975586" y1="-189.60000610351562" x2="-23.393999099731445" y2="-166.18899536132812"><stop offset="0%" stop-color="rgb(77,77,77)" stop-opacity="1"></stop><stop offset="50%" stop-color="rgb(77,77,77)" stop-opacity="0.5"></stop><stop offset="100%" stop-color="rgb(77,77,77)" stop-opacity="0"></stop></linearGradient><linearGradient id="__lottie_element_24" spreadMethod="pad" gradientUnits="userSpaceOnUse" x1="-133.80099487304688" y1="-77.5999984741211" x2="-164.7220001220703" y2="-50.9739990234375"><stop offset="0%" stop-color="rgb(77,77,77)" stop-opacity="1"></stop><stop offset="65%" stop-color="rgb(77,77,77)" stop-opacity="0.5"></stop><stop offset="100%" stop-color="rgb(77,77,77)" stop-opacity="0"></stop></linearGradient><linearGradient id="__lottie_element_25" spreadMethod="pad" gradientUnits="userSpaceOnUse" x1="-86.8010025024414" y1="-74.5999984741211" x2="-148.8179931640625" y2="-16.860000610351562"><stop offset="0%" stop-color="rgb(77,77,77)" stop-opacity="1"></stop><stop offset="50%" stop-color="rgb(77,77,77)" stop-opacity="0.5"></stop><stop offset="100%" stop-color="rgb(77,77,77)" stop-opacity="0"></stop></linearGradient><linearGradient id="__lottie_element_26" spreadMethod="pad" gradientUnits="userSpaceOnUse" x1="113.1989974975586" y1="-97.5999984741211" x2="163.5989990234375" y2="-103.74600219726562"><stop offset="0%" stop-color="rgb(77,77,77)" stop-opacity="1"></stop><stop offset="50%" stop-color="rgb(77,77,77)" stop-opacity="0.5049999952316284"></stop><stop offset="100%" stop-color="rgb(77,77,77)" stop-opacity="0.009999999776482582"></stop></linearGradient><radialGradient id="__lottie_element_27" spreadMethod="pad" gradientUnits="userSpaceOnUse" cx="29.198999404907227" cy="-114.5999984741211" r="76.1720027923584" fx="29.198999404907227" fy="-114.5999984741211"><stop offset="0%" stop-color="rgb(77,77,77)" stop-opacity="1"></stop><stop offset="50%" stop-color="rgb(77,77,77)" stop-opacity="0.5"></stop><stop offset="100%" stop-color="rgb(77,77,77)" stop-opacity="0"></stop></radialGradient><radialGradient id="__lottie_element_28" spreadMethod="pad" gradientUnits="userSpaceOnUse" cx="-15.800999641418457" cy="-135.60000610351562" r="100.4390001296997" fx="-15.800999641418457" fy="-135.60000610351562"><stop offset="0%" stop-color="rgb(77,77,77)" stop-opacity="1"></stop><stop offset="50%" stop-color="rgb(77,77,77)" stop-opacity="0.5"></stop><stop offset="100%" stop-color="rgb(77,77,77)" stop-opacity="0"></stop></radialGradient><linearGradient id="__lottie_element_32" spreadMethod="pad" gradientUnits="userSpaceOnUse" x1="57.32400131225586" y1="22.94700050354004" x2="78.0270004272461" y2="53.06700134277344"><stop offset="0%" stop-color="rgb(66,0,0)"></stop><stop offset="37%" stop-color="rgb(118,40,0)"></stop><stop offset="100%" stop-color="rgb(170,80,0)"></stop></linearGradient><radialGradient id="__lottie_element_33" spreadMethod="pad" gradientUnits="userSpaceOnUse" cx="75.8239974975586" cy="47.571998596191406" r="15.440559063877824" fx="75.8239974975586" fy="47.571998596191406"><stop offset="0%" stop-color="rgb(246,175,0)" stop-opacity="1"></stop><stop offset="50%" stop-color="rgb(246,175,0)" stop-opacity="0.5"></stop><stop offset="100%" stop-color="rgb(246,175,0)" stop-opacity="0"></stop></radialGradient><linearGradient id="__lottie_element_34" spreadMethod="pad" gradientUnits="userSpaceOnUse" x1="56.57400131225586" y1="17.82200050354004" x2="57.57400131225586" y2="27.893999099731445"><stop offset="0%" stop-color="rgb(255,255,255)" stop-opacity="1"></stop><stop offset="60%" stop-color="rgb(255,255,255)" stop-opacity="0.5"></stop><stop offset="100%" stop-color="rgb(255,255,255)" stop-opacity="0"></stop></linearGradient><linearGradient id="__lottie_element_35" spreadMethod="pad" gradientUnits="userSpaceOnUse" x1="-68.4260025024414" y1="23.32200050354004" x2="-47.347999572753906" y2="52.69200134277344"><stop offset="0%" stop-color="rgb(66,0,0)"></stop><stop offset="37%" stop-color="rgb(118,40,0)"></stop><stop offset="100%" stop-color="rgb(170,80,0)"></stop></linearGradient><radialGradient id="__lottie_element_36" spreadMethod="pad" gradientUnits="userSpaceOnUse" cx="-51.30099868774414" cy="47.446998596191406" r="15.563005105786557" fx="-51.30099868774414" fy="47.446998596191406"><stop offset="0%" stop-color="rgb(246,175,0)" stop-opacity="1"></stop><stop offset="50%" stop-color="rgb(246,175,0)" stop-opacity="0.5"></stop><stop offset="100%" stop-color="rgb(246,175,0)" stop-opacity="0"></stop></radialGradient><linearGradient id="__lottie_element_37" spreadMethod="pad" gradientUnits="userSpaceOnUse" x1="-69.8010025024414" y1="17.69700050354004" x2="-69.5510025024414" y2="27.893999099731445"><stop offset="0%" stop-color="rgb(255,255,255)" stop-opacity="1"></stop><stop offset="60%" stop-color="rgb(255,255,255)" stop-opacity="0.5"></stop><stop offset="100%" stop-color="rgb(255,255,255)" stop-opacity="0"></stop></linearGradient><linearGradient id="__lottie_element_44" spreadMethod="pad" gradientUnits="userSpaceOnUse" x1="-3.2290000915527344" y1="111.68399810791016" x2="-3.546999931335449" y2="86.1989974975586"><stop offset="0%" stop-color="rgb(142,67,0)" stop-opacity="1"></stop><stop offset="50%" stop-color="rgb(142,67,0)" stop-opacity="0.5"></stop><stop offset="100%" stop-color="rgb(142,67,0)" stop-opacity="0"></stop></linearGradient><linearGradient id="__lottie_element_45" spreadMethod="pad" gradientUnits="userSpaceOnUse" x1="-3.9260001182556152" y1="99.6969985961914" x2="-3.9260001182556152" y2="72.13500213623047"><stop offset="10%" stop-color="rgb(219,110,0)" stop-opacity="1"></stop><stop offset="51%" stop-color="rgb(219,110,0)" stop-opacity="0.5"></stop><stop offset="80%" stop-color="rgb(219,110,0)" stop-opacity="0"></stop></linearGradient><radialGradient id="__lottie_element_46" spreadMethod="pad" gradientUnits="userSpaceOnUse" cx="-4.926000118255615" cy="62.696998596191406" r="35.147000789642334" fx="-4.926000118255615" fy="62.696998596191406"><stop offset="40%" stop-color="rgb(255,168,0)" stop-opacity="0"></stop><stop offset="76%" stop-color="rgb(255,168,0)" stop-opacity="0.5"></stop><stop offset="100%" stop-color="rgb(255,168,0)" stop-opacity="1"></stop></radialGradient><linearGradient id="__lottie_element_47" spreadMethod="pad" gradientUnits="userSpaceOnUse" x1="-3.9260001182556152" y1="58.696998596191406" x2="-3.9260001182556152" y2="78.00800323486328"><stop offset="0%" stop-color="rgb(255,255,255)" stop-opacity="1"></stop><stop offset="50%" stop-color="rgb(255,255,255)" stop-opacity="0.5"></stop><stop offset="99%" stop-color="rgb(255,255,255)" stop-opacity="0"></stop></linearGradient><radialGradient id="__lottie_element_51" spreadMethod="pad" gradientUnits="userSpaceOnUse" cx="-0.2849999964237213" cy="146.96099853515625" r="184.13565966158336" fx="-0.2849999964237213" fy="146.96099853515625"><stop offset="0%" stop-color="rgb(255,169,0)" stop-opacity="1"></stop><stop offset="53%" stop-color="rgb(255,169,0)" stop-opacity="0.5"></stop><stop offset="92%" stop-color="rgb(255,169,0)" stop-opacity="0"></stop></radialGradient><radialGradient id="__lottie_element_55" spreadMethod="pad" gradientUnits="userSpaceOnUse" cx="-4.926000118255615" cy="153.69700622558594" r="32.492000102996826" fx="-4.926000118255615" fy="153.69700622558594"><stop offset="10%" stop-color="rgb(219,110,0)" stop-opacity="1"></stop><stop offset="66%" stop-color="rgb(219,110,0)" stop-opacity="0.5"></stop><stop offset="100%" stop-color="rgb(219,110,0)" stop-opacity="0"></stop></radialGradient><radialGradient id="__lottie_element_56" spreadMethod="pad" gradientUnits="userSpaceOnUse" cx="-4.926000118255615" cy="133.69700622558594" r="43.7310004234314" fx="-4.926000118255615" fy="133.69700622558594"><stop offset="0%" stop-color="rgb(255,255,255)"></stop><stop offset="60%" stop-color="rgb(255,255,255)"></stop><stop offset="100%" stop-color="rgb(255,255,255)"></stop></radialGradient><mask id="__lottie_element_58"><path fill="url(#__lottie_element_57)" d=" M38.356998443603516,125.84500122070312 C38.356998443603516,136.5760040283203 19.18199920654297,148.1820068359375 -4.4710001945495605,148.1820068359375 C-28.124000549316406,148.1820068359375 -47.29800033569336,136.5760040283203 -47.29800033569336,125.84500122070312 C-47.29800033569336,115.11399841308594 38.356998443603516,115.11399841308594 38.356998443603516,125.84500122070312z"></path></mask><radialGradient id="__lottie_element_57" spreadMethod="pad" gradientUnits="userSpaceOnUse" cx="-4.926000118255615" cy="133.69700622558594" r="43.7310004234314" fx="-4.926000118255615" fy="133.69700622558594"><stop stop-color="rgb(255,255,255)" offset="0%" stop-opacity="1"></stop><stop stop-color="rgb(255,255,255)" offset="50%" stop-opacity="0.5"></stop><stop stop-color="rgb(255,255,255)" offset="100%" stop-opacity="0"></stop></radialGradient><linearGradient id="__lottie_element_59" spreadMethod="pad" gradientUnits="userSpaceOnUse" x1="-4.926000118255615" y1="141.32200622558594" x2="-4.926000118255615" y2="126.96700286865234"><stop offset="0%" stop-color="rgb(88,11,14)" stop-opacity="0"></stop><stop offset="36%" stop-color="rgb(88,11,14)" stop-opacity="0.5"></stop><stop offset="80%" stop-color="rgb(88,11,14)" stop-opacity="1"></stop></linearGradient><linearGradient id="__lottie_element_63" spreadMethod="pad" gradientUnits="userSpaceOnUse" x1="-31.135000228881836" y1="-105.38800048828125" x2="-7.334000110626221" y2="18.832000732421875"><stop offset="0%" stop-color="rgb(219,110,0)" stop-opacity="1"></stop><stop offset="38%" stop-color="rgb(219,110,0)" stop-opacity="0.5"></stop><stop offset="70%" stop-color="rgb(219,110,0)" stop-opacity="0"></stop></linearGradient><linearGradient id="__lottie_element_64" spreadMethod="pad" gradientUnits="userSpaceOnUse" x1="-6.001999855041504" y1="-56.69200134277344" x2="-1.9470000267028809" y2="193.9739990234375"><stop offset="6%" stop-color="rgb(255,216,0)" stop-opacity="0"></stop><stop offset="15%" stop-color="rgb(255,216,0)" stop-opacity="0.5"></stop><stop offset="50%" stop-color="rgb(255,216,0)" stop-opacity="1"></stop><stop offset="89%" stop-color="rgb(255,216,0)" stop-opacity="0.5"></stop><stop offset="100%" stop-color="rgb(255,216,0)" stop-opacity="0"></stop></linearGradient></defs><g clip-path="url(#__lottie_element_2)"><g style="display: block;" transform="matrix(1,0,0,1,256,255.99998474121094)" opacity="1"><g opacity="1" transform="matrix(1,0,0,1,0,0)"><path fill="rgb(255,168,0)" fill-opacity="1" d=" M-143.00100708007812,17.708999633789062 C-150.12100219726562,5.117000102996826 -167.9949951171875,1.190999984741211 -173.84100341796875,16.256000518798828 C-179.68699645996094,31.320999145507812 -165.73399353027344,69.21900177001953 -156.42100524902344,79.78700256347656 C-147.10800170898438,90.3550033569336 -135.49200439453125,86.06099700927734 -134.14300537109375,74.43000030517578 C-132.79400634765625,62.79899978637695 -143.00100708007812,17.708999633789062 -143.00100708007812,17.708999633789062z"></path><path stroke-linecap="round" stroke-linejoin="round" fill-opacity="0" stroke="rgb(219,110,0)" stroke-opacity="1" stroke-width="8" d=" M-143.00100708007812,17.708999633789062 C-150.12100219726562,5.117000102996826 -167.9949951171875,1.190999984741211 -173.84100341796875,16.256000518798828 C-179.68699645996094,31.320999145507812 -165.73399353027344,69.21900177001953 -156.42100524902344,79.78700256347656 C-147.10800170898438,90.3550033569336 -135.49200439453125,86.06099700927734 -134.14300537109375,74.43000030517578 C-132.79400634765625,62.79899978637695 -143.00100708007812,17.708999633789062 -143.00100708007812,17.708999633789062z"></path></g><g opacity="1" transform="matrix(1,0,0,1,0,0)"><path fill="rgb(255,168,0)" fill-opacity="1" d=" M142.3179931640625,17.708999633789062 C149.43800354003906,5.117000102996826 167.31199645996094,1.190999984741211 173.1580047607422,16.256000518798828 C179.00399780273438,31.320999145507812 165.05099487304688,69.21900177001953 155.73800659179688,79.78700256347656 C146.4250030517578,90.3550033569336 134.8090057373047,86.06099700927734 133.4600067138672,74.43000030517578 C132.11099243164062,62.79899978637695 142.3179931640625,17.708999633789062 142.3179931640625,17.708999633789062z"></path><path stroke-linecap="round" stroke-linejoin="round" fill-opacity="0" stroke="rgb(219,110,0)" stroke-opacity="1" stroke-width="8" d=" M142.3179931640625,17.708999633789062 C149.43800354003906,5.117000102996826 167.31199645996094,1.190999984741211 173.1580047607422,16.256000518798828 C179.00399780273438,31.320999145507812 165.05099487304688,69.21900177001953 155.73800659179688,79.78700256347656 C146.4250030517578,90.3550033569336 134.8090057373047,86.06099700927734 133.4600067138672,74.43000030517578 C132.11099243164062,62.79899978637695 142.3179931640625,17.708999633789062 142.3179931640625,17.708999633789062z"></path></g></g><g style="display: block;" transform="matrix(1,0,0,1,256,255.99998474121094)" opacity="1"><g opacity="1" transform="matrix(1,0,0,1,0,0)"><path fill="rgb(255,168,0)" fill-opacity="1" d=" M135.65199279785156,56.27799987792969 C135.65199279785156,140.2760009765625 74.2239990234375,215.74899291992188 0.15600000321865082,215.74899291992188 C-73.91200256347656,215.74899291992188 -135.33999633789062,140.2760009765625 -135.33999633789062,56.27799987792969 C-148.96800231933594,-87.5469970703125 -73.07599639892578,-145.41700744628906 0.15600000321865082,-145.41700744628906 C71.46800231933594,-145.41700744628906 135.65199279785156,-122.85099792480469 135.65199279785156,56.27799987792969z"></path></g><g opacity="1" transform="matrix(1,0,0,1,0,0)"><path fill="url(#__lottie_element_63)" fill-opacity="1" d=" M135.65199279785156,56.27799987792969 C135.65199279785156,140.2760009765625 74.2239990234375,215.74899291992188 0.15600000321865082,215.74899291992188 C-73.91200256347656,215.74899291992188 -135.33999633789062,140.2760009765625 -135.33999633789062,56.27799987792969 C-148.96800231933594,-87.5469970703125 -73.07599639892578,-145.41700744628906 0.15600000321865082,-145.41700744628906 C71.46800231933594,-145.41700744628906 135.65199279785156,-122.85099792480469 135.65199279785156,56.27799987792969z"></path></g><g opacity="1" transform="matrix(1,0,0,1,0,0)"><path stroke-linecap="round" stroke-linejoin="round" fill-opacity="0" stroke="rgb(219,110,0)" stroke-opacity="1" stroke-width="8" d=" M135.65199279785156,56.27799987792969 C135.65199279785156,140.2760009765625 74.2239990234375,215.74899291992188 0.15600000321865082,215.74899291992188 C-73.91200256347656,215.74899291992188 -135.33999633789062,140.2760009765625 -135.33999633789062,56.27799987792969 C-148.96800231933594,-87.5469970703125 -73.07599639892578,-145.41700744628906 0.15600000321865082,-145.41700744628906 C71.46800231933594,-145.41700744628906 135.65199279785156,-122.85099792480469 135.65199279785156,56.27799987792969z"></path></g><g opacity="1" transform="matrix(1,0,0,1,0,0)"><g opacity="1" transform="matrix(1,0,0,1,0,0)"><path fill="url(#__lottie_element_64)" fill-opacity="1" d=" M116.49299621582031,15.253000259399414 C73.82499694824219,-23.507999420166016 15.125,-38.3380012512207 2.950000047683716,-47.222999572753906 C1.5369999408721924,-48.25400161743164 -72.54499816894531,-27.9689998626709 -116.00700378417969,-1.2890000343322754 C-116.02899932861328,0.4189999997615814 -116.08200073242188,60.99800109863281 -116.08200073242188,63.08100128173828 C-116.08200073242188,141.10299682617188 -67.10399627685547,190.58900451660156 0.15600000321865082,190.58900451660156 C67.41600036621094,190.58900451660156 115.87799835205078,141.10299682617188 115.87799835205078,63.08100128173828 C115.87799835205078,56.21099853515625 116.5260009765625,16.391000747680664 116.49299621582031,15.253000259399414z"></path></g></g></g><g style="display: block;" transform="matrix(0.9800000190734863,0,0,0.9800000190734863,260.91058349609375,269.05157470703125)" opacity="1"><g opacity="1" transform="matrix(1,0,0,1,0,0)"><path fill="url(#__lottie_element_55)" fill-opacity="0.5" d=" M28.496000289916992,146.94000244140625 C28.496000289916992,152.656005859375 13.960000038146973,162.2729949951172 -3.9719998836517334,162.2729949951172 C-21.90399932861328,162.2729949951172 -36.439998626708984,152.656005859375 -36.439998626708984,146.94000244140625 C-36.439998626708984,141.2239990234375 -21.90399932861328,148.28199768066406 -3.9719998836517334,148.28199768066406 C13.960000038146973,148.28199768066406 28.496000289916992,141.2239990234375 28.496000289916992,146.94000244140625z"></path></g><g opacity="1" transform="matrix(1,0,0,1,0,0)"><path fill="url(#__lottie_element_56)" mask="url(#__lottie_element_58)" fill-opacity="0.7000000000000001" d="M0 0 M38.356998443603516,125.84500122070312 C38.356998443603516,136.5760040283203 19.18199920654297,148.1820068359375 -4.4710001945495605,148.1820068359375 C-28.124000549316406,148.1820068359375 -47.29800033569336,136.5760040283203 -47.29800033569336,125.84500122070312 C-47.29800033569336,115.11399841308594 38.356998443603516,115.11399841308594 38.356998443603516,125.84500122070312z"></path></g><g opacity="1" transform="matrix(1,0,0,1,0,0)"><path fill="rgb(136,24,4)" fill-opacity="1" d=" M-41.790000915527344,124.98100280761719 C-41.790000915527344,126.94499969482422 -40.98400115966797,128.8209991455078 -39.474998474121094,130.5500030517578 C-34.22800064086914,136.6909942626953 -20.540000915527344,141.05799865722656 -4.478000164031982,141.05799865722656 C11.598999977111816,141.05799865722656 25.285999298095703,136.6909942626953 30.533000946044922,130.5500030517578 C32.042999267578125,128.8209991455078 32.8489990234375,126.94499969482422 32.8489990234375,124.98100280761719 C32.8489990234375,116.0999984741211 -41.790000915527344,116.0999984741211 -41.790000915527344,124.98100280761719z"></path></g><g opacity="1" transform="matrix(1,0,0,1,0,0)"><path fill="url(#__lottie_element_59)" fill-opacity="1" d=" M-41.790000915527344,124.98100280761719 C-41.790000915527344,126.94499969482422 -40.98400115966797,128.8209991455078 -39.474998474121094,130.5500030517578 C-34.22800064086914,136.6909942626953 -20.540000915527344,141.05799865722656 -4.478000164031982,141.05799865722656 C11.598999977111816,141.05799865722656 25.285999298095703,136.6909942626953 30.533000946044922,130.5500030517578 C32.042999267578125,128.8209991455078 32.8489990234375,126.94499969482422 32.8489990234375,124.98100280761719 C32.8489990234375,116.0999984741211 -41.790000915527344,116.0999984741211 -41.790000915527344,124.98100280761719z"></path></g></g><g style="display: block;" transform="matrix(1,0,0,1,256,256)" opacity="1"><g opacity="1" transform="matrix(1,0,0,1,0,0)"><path fill="rgb(159,84,2)" fill-opacity="1" d=" M0.5989999771118164,216.63099670410156 C23.33799934387207,216.63099670410156 75.18699645996094,208.38099670410156 108.54299926757812,165.70399475097656 C142.66099548339844,122.052001953125 143.99899291992188,77.68199920654297 143.99899291992188,65.6760025024414 C143.99899291992188,53.66999816894531 145.9980010986328,-8.258999824523926 145.9980010986328,-8.258999824523926 C145.9980010986328,-8.258999824523926 146.00900268554688,-8.180999755859375 146.00900268554688,-8.180999755859375 C146.00900268554688,-8.180999755859375 138.27999877929688,-24.36400032043457 138.27999877929688,-24.36400032043457 C138.27999877929688,-24.36400032043457 130.30999755859375,56.555999755859375 130.30999755859375,62.323001861572266 C130.30999755859375,74.697998046875 113.99800109863281,113.86599731445312 94.76599884033203,127.56700134277344 C75.53700256347656,141.26600646972656 67.66200256347656,137.1269989013672 60.77399826049805,130.81700134277344 C53.895999908447266,124.51699829101562 47.720001220703125,116.2249984741211 42.56700134277344,116.2249984741211 C36.29100036621094,116.2249984741211 0.1469999998807907,116.2249984741211 0.1469999998807907,116.2249984741211 C0.1469999998807907,116.2249984741211 -8.88599967956543,116.2249984741211 -18.711000442504883,116.2249984741211 C-18.711000442504883,116.2249984741211 -42.27199935913086,116.2249984741211 -42.27199935913086,116.2249984741211 C-47.42499923706055,116.2249984741211 -53.61000061035156,124.50499725341797 -60.48899841308594,130.81700134277344 C-67.36699676513672,137.1280059814453 -75.07499694824219,142.01400756835938 -94.31600189208984,128.31700134277344 C-113.5459976196289,114.62799835205078 -130.8699951171875,73.197998046875 -130.8699951171875,60.823001861572266 C-130.8699951171875,55.055999755859375 -137.8699951171875,-26.233999252319336 -137.8699951171875,-26.233999252319336 C-137.8699951171875,-26.233999252319336 -145.99600219726562,-5.070000171661377 -145.99600219726562,-5.070000171661377 C-145.99600219726562,-5.070000171661377 -145.84500122070312,-4.98799991607666 -145.84500122070312,-4.98799991607666 C-145.84500122070312,-4.98799991607666 -145.8090057373047,53.66999816894531 -145.8090057373047,65.6760025024414 C-145.8090057373047,77.68199920654297 -142.9770050048828,122.05699920654297 -108.85399627685547,165.70399475097656 C-74.73600006103516,209.34500122070312 -21.347999572753906,216.98899841308594 0.5989999771118164,216.6199951171875 C0.5989999771118164,216.6199951171875 0.04500000178813934,160.7899932861328 0.04500000178813934,160.7899932861328 C0.04500000178813934,160.7899932861328 -10.456999778747559,160.7899932861328 -10.456999778747559,160.7899932861328 C-14.571999549865723,160.7899932861328 -19.64299964904785,173.6540069580078 -31.325000762939453,173.6540069580078 C-42.99800109863281,173.6540069580078 -47.07099914550781,152.7100067138672 -45.17300033569336,148.92999267578125 C-43.270999908447266,145.14300537109375 -33.22700119018555,135.5489959716797 -28.332000732421875,135.5489959716797 C-23.44700050354004,135.5489959716797 0.04500000178813934,135.5489959716797 0.04500000178813934,135.5489959716797 C0.04500000178813934,135.5489959716797 5.915999889373779,135.5489959716797 12.401000022888184,135.5489959716797 C12.401000022888184,135.5489959716797 28.42300033569336,135.5489959716797 28.42300033569336,135.5489959716797 C33.31800079345703,135.5489959716797 43.35900115966797,145.14500427246094 45.263999938964844,148.92999267578125 C47.165000915527344,152.70799255371094 43.0890007019043,173.6540069580078 31.416000366210938,173.6540069580078 C19.733999252319336,173.6540069580078 14.663000106811523,160.7899932861328 10.54800033569336,160.7899932861328 C6.422999858856201,160.7899932861328 0.04500000178813934,160.7899932861328 0.04500000178813934,160.7899932861328 C0.04500000178813934,160.7899932861328 0.5989999771118164,216.63099670410156 0.5989999771118164,216.63099670410156z"></path></g><g opacity="1" transform="matrix(1,0,0,1,0,0)"><path fill="url(#__lottie_element_51)" fill-opacity="1" d=" M0.5989999771118164,216.63099670410156 C23.33799934387207,216.63099670410156 75.18699645996094,208.38099670410156 108.54299926757812,165.70399475097656 C142.66099548339844,122.052001953125 143.99899291992188,77.68199920654297 143.99899291992188,65.6760025024414 C143.99899291992188,53.66999816894531 145.9980010986328,-8.258999824523926 145.9980010986328,-8.258999824523926 C145.9980010986328,-8.258999824523926 146.00900268554688,-8.180999755859375 146.00900268554688,-8.180999755859375 C146.00900268554688,-8.180999755859375 138.10499572753906,-24.299999237060547 138.10499572753906,-24.299999237060547 C138.10499572753906,-24.299999237060547 129.30799865722656,56.555999755859375 129.30799865722656,62.323001861572266 C129.30799865722656,74.697998046875 113.99800109863281,113.86599731445312 94.76599884033203,127.56700134277344 C75.53700256347656,141.26600646972656 67.66200256347656,137.1269989013672 60.77399826049805,130.81700134277344 C53.895999908447266,124.51699829101562 47.720001220703125,116.2249984741211 42.56700134277344,116.2249984741211 C36.29100036621094,116.2249984741211 0.1469999998807907,116.2249984741211 0.1469999998807907,116.2249984741211 C0.1469999998807907,116.2249984741211 -8.88599967956543,116.2249984741211 -18.711000442504883,116.2249984741211 C-18.711000442504883,116.2249984741211 -42.27199935913086,116.2249984741211 -42.27199935913086,116.2249984741211 C-47.42499923706055,116.2249984741211 -53.61000061035156,124.50499725341797 -60.48899841308594,130.81700134277344 C-67.36699676513672,137.1280059814453 -75.07499694824219,142.01400756835938 -94.31600189208984,128.31700134277344 C-113.5459976196289,114.62799835205078 -129.8679962158203,73.197998046875 -129.8679962158203,60.823001861572266 C-129.8679962158203,55.055999755859375 -137.8699951171875,-26.233999252319336 -137.8699951171875,-26.233999252319336 C-137.8699951171875,-26.233999252319336 -145.99600219726562,-5.070000171661377 -145.99600219726562,-5.070000171661377 C-145.99600219726562,-5.070000171661377 -145.84500122070312,-4.98799991607666 -145.84500122070312,-4.98799991607666 C-145.84500122070312,-4.98799991607666 -145.8090057373047,53.66999816894531 -145.8090057373047,65.6760025024414 C-145.8090057373047,77.68199920654297 -142.9770050048828,122.05699920654297 -108.85399627685547,165.70399475097656 C-74.73600006103516,209.34500122070312 -21.347999572753906,217 0.5989999771118164,216.63099670410156 C0.5989999771118164,216.63099670410156 0.04500000178813934,160.7899932861328 0.04500000178813934,160.7899932861328 C0.04500000178813934,160.7899932861328 -10.456999778747559,160.7899932861328 -10.456999778747559,160.7899932861328 C-14.571999549865723,160.7899932861328 -19.64299964904785,173.6540069580078 -31.325000762939453,173.6540069580078 C-42.99800109863281,173.6540069580078 -47.07099914550781,152.7100067138672 -45.17300033569336,148.92999267578125 C-43.270999908447266,145.14300537109375 -33.22700119018555,135.5489959716797 -28.332000732421875,135.5489959716797 C-23.44700050354004,135.5489959716797 0.04500000178813934,135.5489959716797 0.04500000178813934,135.5489959716797 C0.04500000178813934,135.5489959716797 5.915999889373779,135.5489959716797 12.401000022888184,135.5489959716797 C12.401000022888184,135.5489959716797 28.42300033569336,135.5489959716797 28.42300033569336,135.5489959716797 C33.31800079345703,135.5489959716797 43.35900115966797,145.14500427246094 45.263999938964844,148.92999267578125 C47.165000915527344,152.70799255371094 43.0890007019043,173.6540069580078 31.416000366210938,173.6540069580078 C19.733999252319336,173.6540069580078 14.663000106811523,160.7899932861328 10.54800033569336,160.7899932861328 C6.422999858856201,160.7899932861328 0.04500000178813934,160.7899932861328 0.04500000178813934,160.7899932861328 C0.04500000178813934,160.7899932861328 0.5989999771118164,216.63099670410156 0.5989999771118164,216.63099670410156z"></path></g><g opacity="1" transform="matrix(1,0,0,1,0,0)"><path stroke-linecap="round" stroke-linejoin="round" fill-opacity="0" stroke="rgb(181,102,8)" stroke-opacity="1" stroke-width="8" d=" M146.01300048828125,-8.180999755859375 C146.01300048828125,-8.180999755859375 137.79600524902344,-24.55500030517578 137.79600524902344,-24.55500030517578 C137.79600524902344,-24.55500030517578 129.30999755859375,52.446998596191406 129.30999755859375,58.22200012207031 C129.30999755859375,75.50399780273438 114.00299835205078,113.8759994506836 94.7699966430664,127.56900024414062 C75.53700256347656,141.26199340820312 67.65899658203125,137.12399291992188 60.77799987792969,130.81900024414062 C53.89699935913086,124.51399993896484 45.71699905395508,116.22599792480469 40.55799865722656,116.22599792480469 C34.28200149536133,116.22599792480469 0.15000000596046448,116.22599792480469 0.1469999998807907,116.22599792480469 C0.1469999998807907,116.22599792480469 0.1469999998807907,116.22599792480469 0.1469999998807907,116.22599792480469 C0.14399999380111694,116.22599792480469 -33.987998962402344,116.22599792480469 -40.263999938964844,116.22599792480469 C-45.42300033569336,116.22599792480469 -53.604000091552734,124.51399993896484 -60.48500061035156,130.81900024414062 C-67.36599731445312,137.12399291992188 -75.0790023803711,142.01199340820312 -94.31199645996094,128.31900024414062 C-113.54499816894531,114.6259994506836 -129.8719940185547,74.00399780273438 -129.8719940185547,56.72200012207031 C-129.8719940185547,50.946998596191406 -135.86900329589844,-26.23200035095215 -135.86900329589844,-26.23200035095215 C-135.86900329589844,-26.23200035095215 -146,-5.070000171661377 -146,-5.070000171661377 C-146,-5.070000171661377 -145.84800720214844,-4.984000205993652 -145.84800720214844,-4.984000205993652 C-145.84800720214844,-4.984000205993652 -145.81199645996094,53.672000885009766 -145.81199645996094,65.67500305175781 C-145.81199645996094,77.6780014038086 -142.968994140625,122.0530014038086 -108.85199737548828,165.6999969482422 C-74.73500061035156,209.3470001220703 -22.850000381469727,216.98599243164062 -0.906000018119812,216.6219940185547 C-0.906000018119812,216.6219940185547 -0.906000018119812,216.62100219726562 -0.906000018119812,216.62100219726562 C-0.906000018119812,216.62100219726562 -0.906000018119812,216.6219940185547 -0.906000018119812,216.6219940185547 C21.038000106811523,216.98599243164062 74.4229965209961,209.3470001220703 108.54000091552734,165.6999969482422 C142.65699768066406,122.0530014038086 144,77.6780014038086 144,65.67500305175781 C144,53.672000885009766 145.99899291992188,-8.253999710083008 145.99899291992188,-8.253999710083008 C145.99899291992188,-8.253999710083008 146.01300048828125,-8.180999755859375 146.01300048828125,-8.180999755859375z"></path></g><g opacity="1" transform="matrix(1,0,0,1,0,0)"><path stroke-linecap="round" stroke-linejoin="round" fill-opacity="0" stroke="rgb(160,87,8)" stroke-opacity="1" stroke-width="8" d=" M108.54000091552734,165.6999969482422 C142.65699768066406,122.0530014038086 144,77.6780014038086 144,65.67500305175781 C144,53.672000885009766 145.99899291992188,-8.253999710083008 145.99899291992188,-8.253999710083008 C145.99899291992188,-8.253999710083008 146.01300048828125,-8.180999755859375 146.01300048828125,-8.180999755859375 C146.01300048828125,-8.180999755859375 146.01300048828125,-8.180999755859375 146.01300048828125,-8.180999755859375 C146.01300048828125,-8.180999755859375 137.79600524902344,-24.55500030517578 137.79600524902344,-24.55500030517578 C137.79600524902344,-24.55500030517578 129.30999755859375,52.446998596191406 129.30999755859375,58.22200012207031 C129.30999755859375,75.50399780273438 114.00299835205078,113.8759994506836 94.7699966430664,127.56900024414062 C75.53700256347656,141.26199340820312 67.65899658203125,137.12399291992188 60.77799987792969,130.81900024414062 C53.89699935913086,124.51399993896484 45.71699905395508,116.22599792480469 40.55799865722656,116.22599792480469 C34.28200149536133,116.22599792480469 0.15000000596046448,116.22599792480469 0.1469999998807907,116.22599792480469 C0.1469999998807907,116.22599792480469 0.1469999998807907,116.22599792480469 0.1469999998807907,116.22599792480469 C0.14399999380111694,116.22599792480469 -33.987998962402344,116.22599792480469 -40.263999938964844,116.22599792480469 C-45.42300033569336,116.22599792480469 -53.604000091552734,124.51399993896484 -60.48500061035156,130.81900024414062 C-67.36599731445312,137.12399291992188 -75.0790023803711,142.01199340820312 -94.31199645996094,128.31900024414062 C-113.54499816894531,114.6259994506836 -129.8719940185547,74.00399780273438 -129.8719940185547,56.72200012207031 C-129.8719940185547,50.946998596191406 -135.86900329589844,-26.23200035095215 -135.86900329589844,-26.23200035095215 C-135.86900329589844,-26.23200035095215 -146,-5.070000171661377 -146,-5.070000171661377 C-146,-5.070000171661377 -145.84800720214844,-4.984000205993652 -145.84800720214844,-4.984000205993652 C-145.84800720214844,-4.984000205993652 -145.81199645996094,53.672000885009766 -145.81199645996094,65.67500305175781 C-145.81199645996094,77.65499877929688 -142.97999572753906,121.88200378417969 -109.04900360107422,165.447998046875"></path></g><g opacity="1" transform="matrix(1,0,0,1,0,0)"><path stroke-linecap="round" stroke-linejoin="round" fill-opacity="0" stroke="rgb(160,87,8)" stroke-opacity="1" stroke-width="8" d=" M36.29199981689453,170.93600463867188 C23.562999725341797,174.75 14.663000106811523,160.7899932861328 10.54800033569336,160.7899932861328 C6.422999858856201,160.7899932861328 -10.456999778747559,160.7899932861328 -10.456999778747559,160.7899932861328 C-14.571999549865723,160.7899932861328 -23.88599967956543,174.3090057373047 -36.20100021362305,170.93600463867188 C-49,167.43099975585938 -46.095001220703125,152.7100067138672 -44.196998596191406,148.92999267578125 C-42.29499816894531,145.14300537109375 -34.61800003051758,135.5489959716797 -28.332000732421875,135.5489959716797 C-23.44700050354004,135.5489959716797 28.42300033569336,135.5489959716797 28.42300033569336,135.5489959716797 C35.012001037597656,135.5489959716797 42.38399887084961,145.14500427246094 44.28900146484375,148.92999267578125 C46.191001892089844,152.70799255371094 47.992000579833984,167.43099975585938 36.29199981689453,170.93600463867188z"></path></g><g opacity="1" transform="matrix(1,0,0,1,0,0)"><path stroke-linecap="round" stroke-linejoin="round" fill-opacity="0" stroke="rgb(160,87,8)" stroke-opacity="1" stroke-width="8" d=" M146.01300048828125,-8.180999755859375 C146.01300048828125,-8.180999755859375 137.79600524902344,-24.55500030517578 137.79600524902344,-24.55500030517578 C137.79600524902344,-24.55500030517578 129.30999755859375,52.446998596191406 129.30999755859375,58.22200012207031 C129.30999755859375,75.50399780273438 114.00299835205078,113.8759994506836 94.7699966430664,127.56900024414062 C75.53700256347656,141.26199340820312 67.65899658203125,137.12399291992188 60.77799987792969,130.81900024414062 C53.89699935913086,124.51399993896484 45.71699905395508,116.22599792480469 40.55799865722656,116.22599792480469 C34.28200149536133,116.22599792480469 0.1469999998807907,116.22599792480469 0.1469999998807907,116.22599792480469 C0.14399999380111694,116.22599792480469 -33.987998962402344,116.22599792480469 -40.263999938964844,116.22599792480469 C-45.42300033569336,116.22599792480469 -53.604000091552734,124.51399993896484 -60.48500061035156,130.81900024414062 C-67.36599731445312,137.12399291992188 -75.0790023803711,142.01199340820312 -94.31199645996094,128.31900024414062 C-113.54499816894531,114.6259994506836 -129.8719940185547,74.00399780273438 -129.8719940185547,56.72200012207031 C-129.8719940185547,50.946998596191406 -135.86900329589844,-26.23200035095215 -135.86900329589844,-26.23200035095215"></path></g></g><g style="display: block;" transform="matrix(0.9700000286102295,0,0,0.9700000286102295,260.13238525390625,274.20062255859375)" opacity="1"><g opacity="1" transform="matrix(1,0,0,1,0,0)"><path fill="url(#__lottie_element_44)" fill-opacity="1" d=" M23.749000549316406,83.00599670410156 C23.749000549316406,95.93000030517578 13.10099983215332,111.34500122070312 -3.7130000591278076,111.34500122070312 C-20.527000427246094,111.34500122070312 -31.579999923706055,95.93000030517578 -31.579999923706055,83.00599670410156 C-35.75,49.625 28.125,48.75 23.749000549316406,83.00599670410156z"></path></g><g opacity="1" transform="matrix(1,0,0,1,0,0)"><path fill="rgb(255,168,0)" fill-opacity="0.8" d=" M25.871000289916992,78.61000061035156 C25.871000289916992,90.5999984741211 12.532999992370605,100.31999969482422 -3.9210000038146973,100.31999969482422 C-20.375,100.31999969482422 -33.7130012512207,90.5999984741211 -33.7130012512207,78.61000061035156 C-33.7130012512207,66.62000274658203 -20.375,57.4109992980957 -3.9210000038146973,57.4109992980957 C12.532999992370605,57.4109992980957 25.871000289916992,66.62000274658203 25.871000289916992,78.61000061035156z"></path></g><g opacity="1" transform="matrix(1,0,0,1,0,0)"><path fill="url(#__lottie_element_45)" fill-opacity="1" d=" M25.871000289916992,78.61000061035156 C25.871000289916992,90.5999984741211 12.532999992370605,100.31999969482422 -3.9210000038146973,100.31999969482422 C-20.375,100.31999969482422 -33.7130012512207,90.5999984741211 -33.7130012512207,78.61000061035156 C-33.7130012512207,66.62000274658203 -20.375,57.4109992980957 -3.9210000038146973,57.4109992980957 C12.532999992370605,57.4109992980957 25.871000289916992,66.62000274658203 25.871000289916992,78.61000061035156z"></path></g><g opacity="1" transform="matrix(1,0,0,1,0,0)"><path fill="rgb(255,216,0)" fill-opacity="1" d=" M23.19300079345703,72.87200164794922 C23.19300079345703,81.7979965209961 10.312999725341797,90.3759994506836 -3.9210000038146973,90.3759994506836 C-18.155000686645508,90.3759994506836 -31.03499984741211,81.7979965209961 -31.03499984741211,72.87200164794922 C-31.03499984741211,63.94599914550781 -18.155000686645508,56.965999603271484 -3.9210000038146973,56.965999603271484 C10.312999725341797,56.965999603271484 23.19300079345703,63.94599914550781 23.19300079345703,72.87200164794922z"></path></g><g opacity="1" transform="matrix(1,0,0,1,0,0)"><path fill="url(#__lottie_element_46)" fill-opacity="1" d=" M23.19300079345703,72.87200164794922 C23.19300079345703,81.7979965209961 10.312999725341797,90.3759994506836 -3.9210000038146973,90.3759994506836 C-18.155000686645508,90.3759994506836 -31.03499984741211,81.7979965209961 -31.03499984741211,72.87200164794922 C-31.03499984741211,63.94599914550781 -18.155000686645508,56.965999603271484 -3.9210000038146973,56.965999603271484 C10.312999725341797,56.965999603271484 23.19300079345703,63.94599914550781 23.19300079345703,72.87200164794922z"></path></g><g opacity="1" transform="matrix(1,0,0,1,0,0)"><path fill="url(#__lottie_element_47)" fill-opacity="0.7000000000000001" d=" M8.175000190734863,67.11000061035156 C8.175000190734863,73.16699981689453 2.759000062942505,78.86599731445312 -3.9210000038146973,78.86599731445312 C-10.60099983215332,78.86599731445312 -16.017000198364258,73.16699981689453 -16.017000198364258,67.11000061035156 C-16.017000198364258,61.053001403808594 -10.60099983215332,58.013999938964844 -3.9210000038146973,58.013999938964844 C2.759000062942505,58.013999938964844 8.175000190734863,61.053001403808594 8.175000190734863,67.11000061035156z"></path></g></g><g style="display: block;" transform="matrix(1,0,0,1,255.99998474121094,256)" opacity="0.7000000000000001"><g opacity="1" transform="matrix(1,0,0,1,0,0)"><path stroke-linecap="round" stroke-linejoin="round" fill-opacity="0" stroke="rgb(163,65,0)" stroke-opacity="1" stroke-width="15" d=" M47.08700180053711,-13.413000106811523 C47.08700180053711,-13.413000106811523 67.90399932861328,-18.215999603271484 86.76399993896484,-9.102999687194824"></path></g><g opacity="1" transform="matrix(1,0,0,1,0,0)"><path stroke-linecap="round" stroke-linejoin="round" fill-opacity="0" stroke="rgb(163,65,0)" stroke-opacity="1" stroke-width="15" d=" M-46.255001068115234,-13.413000106811523 C-46.255001068115234,-13.413000106811523 -67.07099914550781,-18.215999603271484 -85.93099975585938,-9.102999687194824"></path></g></g><g style="display: block;" transform="matrix(1,0,0,1,256,256)" opacity="1"><g opacity="1" transform="matrix(1,0,0,1,0,0)"><g opacity="1" transform="matrix(1,0,0,1,0,0)"><path fill="rgb(255,255,255)" fill-opacity="1" d=" M36.42100143432617,55.93899917602539 C32.641998291015625,54.36399841308594 30.31999969482422,50.529998779296875 30.676000595092773,46.45100021362305 C31.320999145507812,39.0629997253418 33.95899963378906,26.878999710083008 43.80099868774414,17.86199951171875 C56.77000045776367,5.980999946594238 81.18499755859375,7.145999908447266 93.4209976196289,22.368999481201172 C99.26100158691406,29.634000778198242 100.86299896240234,37.60599899291992 101.18900299072266,42.959999084472656 C101.43800354003906,47.053001403808594 99.45899963378906,50.926998138427734 96.0270004272461,53.172000885009766 C91.1729965209961,56.34700012207031 82.75,60.38600158691406 70.64800262451172,61.07699966430664 C54.4370002746582,62.00199890136719 42.845001220703125,58.61600112915039 36.42100143432617,55.93899917602539z"></path></g><g opacity="1" transform="matrix(1,0,0,1,0,0)"><path fill="url(#__lottie_element_32)" fill-opacity="1" d=" M88.0469970703125,34.61800003051758 C88.0469970703125,47.959999084472656 77.2300033569336,58.7760009765625 63.88800048828125,58.7760009765625 C50.54600143432617,58.7760009765625 39.72999954223633,47.959999084472656 39.72999954223633,34.61800003051758 C39.72999954223633,21.275999069213867 50.54600143432617,10.458999633789062 63.88800048828125,10.458999633789062 C77.2300033569336,10.458999633789062 88.0469970703125,21.275999069213867 88.0469970703125,34.61800003051758z"></path></g><g opacity="1" transform="matrix(1,0,0,1,0,0)"><g opacity="1" transform="matrix(1,0,0,1,0,0)"><path fill="url(#__lottie_element_33)" fill-opacity="1" d=" M69.98200225830078,57.67499923706055 C68.09400177001953,57.67499923706055 66.34600067138672,56.45600128173828 65.76000213623047,54.55699920654297 C65.04000091552734,52.224998474121094 66.3479995727539,49.750999450683594 68.68000030517578,49.03200149536133 C73.14099884033203,47.65599822998047 76.69300079345703,44.191001892089844 78.18000030517578,39.762001037597656 C78.95700073242188,37.446998596191406 81.46600341796875,36.20399856567383 83.7750015258789,36.979000091552734 C86.08899688720703,37.755001068115234 87.33499908447266,40.2599983215332 86.55799865722656,42.57400131225586 C84.16799926757812,49.694000244140625 78.45899963378906,55.263999938964844 71.28500366210938,57.47700119018555 C70.85099792480469,57.611000061035156 70.41200256347656,57.67499923706055 69.98200225830078,57.67499923706055z"></path></g></g><g opacity="1" transform="matrix(1,0,0,1,0,0)"><path fill="rgb(24,19,9)" fill-opacity="1" d=" M79.15599822998047,34.61800003051758 C79.15599822998047,43.04999923706055 72.31999969482422,49.88600158691406 63.88800048828125,49.88600158691406 C55.45600128173828,49.88600158691406 48.619998931884766,43.04999923706055 48.619998931884766,34.61800003051758 C48.619998931884766,26.18600082397461 55.45600128173828,19.350000381469727 63.88800048828125,19.350000381469727 C72.31999969482422,19.350000381469727 79.15599822998047,26.18600082397461 79.15599822998047,34.61800003051758z"></path></g><g opacity="1" transform="matrix(1,0,0,1,0,0)"><path fill="url(#__lottie_element_34)" fill-opacity="1" d=" M62.5880012512207,21.452999114990234 C62.5880012512207,24.87700080871582 59.96799850463867,27.652999877929688 56.73699951171875,27.652999877929688 C53.50600051879883,27.652999877929688 50.887001037597656,24.87700080871582 50.887001037597656,21.452999114990234 C50.887001037597656,18.02899932861328 53.50600051879883,15.253000259399414 56.73699951171875,15.253000259399414 C59.96799850463867,15.253000259399414 62.5880012512207,18.02899932861328 62.5880012512207,21.452999114990234z"></path></g><g opacity="1" transform="matrix(1,0,0,1,0,0)"><path fill="rgb(163,65,0)" fill-opacity="1" d=" M31.083999633789062,41.19599914550781 C32.95500183105469,23.742000579833984 43.40399932861328,6.757999897003174 65.44000244140625,6.754000186920166 C83.98500061035156,6.75 97.72699737548828,20.354999542236328 100.16699981689453,33.808998107910156 C95.77300262451172,20.094999313354492 82.96499633789062,8.498000144958496 64.66899871826172,9.192000389099121 C42.375999450683594,10.036999702453613 34.507999420166016,24.5049991607666 31.083999633789062,41.19599914550781z"></path><path stroke-linecap="round" stroke-linejoin="round" fill-opacity="0" stroke="rgb(163,65,0)" stroke-opacity="1" stroke-width="2" d=" M31.083999633789062,41.19599914550781 C32.95500183105469,23.742000579833984 43.40399932861328,6.757999897003174 65.44000244140625,6.754000186920166 C83.98500061035156,6.75 97.72699737548828,20.354999542236328 100.16699981689453,33.808998107910156 C95.77300262451172,20.094999313354492 82.96499633789062,8.498000144958496 64.66899871826172,9.192000389099121 C42.375999450683594,10.036999702453613 34.507999420166016,24.5049991607666 31.083999633789062,41.19599914550781z"></path></g></g><g opacity="1" transform="matrix(1,0,0,1,0,0)"><g opacity="1" transform="matrix(1,0,0,1,0,0)"><path fill="rgb(255,255,255)" fill-opacity="1" d=" M-34.86899948120117,55.93899917602539 C-31.09000015258789,54.36399841308594 -28.768999099731445,50.529998779296875 -29.125,46.45100021362305 C-29.770000457763672,39.0629997253418 -32.40800094604492,26.878999710083008 -42.25,17.86199951171875 C-55.21900177001953,5.980999946594238 -79.63400268554688,7.145999908447266 -91.87000274658203,22.368999481201172 C-97.70999908447266,29.634000778198242 -99.31199645996094,37.60599899291992 -99.63800048828125,42.959999084472656 C-99.88700103759766,47.053001403808594 -97.90799713134766,50.926998138427734 -94.47599792480469,53.172000885009766 C-89.62200164794922,56.34700012207031 -81.197998046875,60.38600158691406 -69.09600067138672,61.07699966430664 C-52.8849983215332,62.00199890136719 -41.292999267578125,58.61600112915039 -34.86899948120117,55.93899917602539z"></path></g><g opacity="1" transform="matrix(1,0,0,1,0,0)"><path fill="url(#__lottie_element_35)" fill-opacity="1" d=" M-38.178001403808594,34.61800003051758 C-38.178001403808594,47.959999084472656 -48.994998931884766,58.7760009765625 -62.33700180053711,58.7760009765625 C-75.67900085449219,58.7760009765625 -86.49500274658203,47.959999084472656 -86.49500274658203,34.61800003051758 C-86.49500274658203,21.275999069213867 -75.67900085449219,10.458999633789062 -62.33700180053711,10.458999633789062 C-48.994998931884766,10.458999633789062 -38.178001403808594,21.275999069213867 -38.178001403808594,34.61800003051758z"></path></g><g opacity="1" transform="matrix(1,0,0,1,0,0)"><g opacity="1" transform="matrix(1,0,0,1,0,0)"><path fill="url(#__lottie_element_36)" fill-opacity="1" d=" M-56.24300003051758,57.67499923706055 C-58.13100051879883,57.67499923706055 -59.87900161743164,56.45600128173828 -60.46500015258789,54.55699920654297 C-61.185001373291016,52.224998474121094 -59.875999450683594,49.750999450683594 -57.54399871826172,49.03200149536133 C-53.08300018310547,47.65599822998047 -49.53200149536133,44.191001892089844 -48.04499816894531,39.762001037597656 C-47.268001556396484,37.446998596191406 -44.75899887084961,36.20399856567383 -42.45000076293945,36.979000091552734 C-40.13600158691406,37.755001068115234 -38.88999938964844,40.2599983215332 -39.66699981689453,42.57400131225586 C-42.05699920654297,49.694000244140625 -47.76599884033203,55.263999938964844 -54.939998626708984,57.47700119018555 C-55.374000549316406,57.611000061035156 -55.8129997253418,57.67499923706055 -56.24300003051758,57.67499923706055z"></path></g></g><g opacity="1" transform="matrix(1,0,0,1,0,0)"><path fill="rgb(24,19,9)" fill-opacity="1" d=" M-47.069000244140625,34.61800003051758 C-47.069000244140625,43.04999923706055 -53.904998779296875,49.88600158691406 -62.33700180053711,49.88600158691406 C-70.76899719238281,49.88600158691406 -77.6050033569336,43.04999923706055 -77.6050033569336,34.61800003051758 C-77.6050033569336,26.18600082397461 -70.76899719238281,19.350000381469727 -62.33700180053711,19.350000381469727 C-53.904998779296875,19.350000381469727 -47.069000244140625,26.18600082397461 -47.069000244140625,34.61800003051758z"></path></g><g opacity="1" transform="matrix(1,0,0,1,0,0)"><path fill="rgb(163,65,0)" fill-opacity="1" d=" M-29.531999588012695,41.19599914550781 C-31.402999877929688,23.742000579833984 -41.85200119018555,6.757999897003174 -63.88800048828125,6.754000186920166 C-82.43299865722656,6.75 -96.1760025024414,20.354999542236328 -98.61599731445312,33.808998107910156 C-94.2229995727539,20.094999313354492 -81.41400146484375,8.498000144958496 -63.11800003051758,9.192000389099121 C-40.82500076293945,10.036999702453613 -32.95600128173828,24.5049991607666 -29.531999588012695,41.19599914550781z"></path><path stroke-linecap="round" stroke-linejoin="round" fill-opacity="0" stroke="rgb(163,65,0)" stroke-opacity="1" stroke-width="2" d=" M-29.531999588012695,41.19599914550781 C-31.402999877929688,23.742000579833984 -41.85200119018555,6.757999897003174 -63.88800048828125,6.754000186920166 C-82.43299865722656,6.75 -96.1760025024414,20.354999542236328 -98.61599731445312,33.808998107910156 C-94.2229995727539,20.094999313354492 -81.41400146484375,8.498000144958496 -63.11800003051758,9.192000389099121 C-40.82500076293945,10.036999702453613 -32.95600128173828,24.5049991607666 -29.531999588012695,41.19599914550781z"></path></g></g><g opacity="1" transform="matrix(1,0,0,1,0,0)"><path fill="url(#__lottie_element_37)" fill-opacity="1" d=" M-63.637001037597656,21.452999114990234 C-63.637001037597656,24.87700080871582 -66.25700378417969,27.652999877929688 -69.48799896240234,27.652999877929688 C-72.71900177001953,27.652999877929688 -75.33799743652344,24.87700080871582 -75.33799743652344,21.452999114990234 C-75.33799743652344,18.02899932861328 -72.71900177001953,15.253000259399414 -69.48799896240234,15.253000259399414 C-66.25700378417969,15.253000259399414 -63.637001037597656,18.02899932861328 -63.637001037597656,21.452999114990234z"></path></g></g><g style="display: block;" transform="matrix(1,0,0,1,255.99998474121094,256)" opacity="1"><g opacity="1" transform="matrix(1,0,0,1,0,0)"><path fill="url(#__lottie_element_6)" fill-opacity="1" d=" M1.9500000476837158,-62.749000549316406 C1.9500000476837158,-62.749000549316406 87.00700378417969,-38.40700149536133 145.197998046875,23.975000381469727 C145.197998046875,23.975000381469727 153.9409942626953,16.406999588012695 153.9409942626953,0 C153.9409942626953,0 171.29800415039062,-19.43400001525879 169.76300048828125,-61.275001525878906 C169.76300048828125,-61.275001525878906 174.3679962158203,-77.62100219726562 167.62600708007812,-94.0770034790039"></path></g><g opacity="1" transform="matrix(1,0,0,1,0,0)"><path fill="url(#__lottie_element_7)" fill-opacity="0.3" d=" M148.8470001220703,-91.54100036621094 C148.8470001220703,-91.54100036621094 158.2480010986328,-78.31600189208984 158.2480010986328,-78.31600189208984 C158.2480010986328,-78.31600189208984 165.93099975585938,-35.05099868774414 145.093994140625,-9.102999687194824 C145.093994140625,-9.102999687194824 151.08099365234375,8.619999885559082 146.44900512695312,23.30299949645996 C146.44900512695312,23.30299949645996 142.1820068359375,23.729999542236328 146.44900512695312,23.30299949645996 C150.71600341796875,22.875999450683594 153.9409942626953,0 153.9409942626953,0 C153.9409942626953,0 173.05299377441406,-27.03700065612793 169.76300048828125,-63.869998931884766 C169.76300048828125,-63.869998931884766 175.0800018310547,-86.20600128173828 166.23399353027344,-92.56099700927734 C166.23399353027344,-92.56099700927734 147.41799926757812,-91.33999633789062 147.41799926757812,-91.33999633789062"></path></g><g opacity="1" transform="matrix(1,0,0,1,0,0)"><path fill="url(#__lottie_element_8)" fill-opacity="0.5" d=" M11.668000221252441,-87.29299926757812 C61.12799835205078,-86.09400177001953 109.51699829101562,-67.4489974975586 150.77200317382812,-40.8380012512207 C152.4969940185547,-39.34199905395508 163.94700622558594,-33.60100173950195 157.572998046875,-32.972999572753906 C153.3159942626953,-34.99399948120117 148.5989990234375,-37.35100173950195 144.3800048828125,-39.50400161743164 C116.91000366210938,-53.01599884033203 88.16400146484375,-64.85099792480469 58.737998962402344,-73.35900115966797 C56.444000244140625,-74.04900360107422 51.72999954223633,-75.3740005493164 49.40700149536133,-75.9800033569336 C36.9379997253418,-79.2959976196289 24.256999969482422,-82.24700164794922 11.532999992370605,-84.21199798583984 C9.694000244140625,-84.36299896240234 9.76099967956543,-87.31300354003906 11.668000221252441,-87.29299926757812z"></path></g><g opacity="1" transform="matrix(1,0,0,1,0,0)"><path fill="url(#__lottie_element_9)" fill-opacity="0.4" d=" M25.757999420166016,-54.2869987487793 C25.757999420166016,-54.2869987487793 137.20599365234375,-83.875 171.031005859375,-68.8740005493164 C171.031005859375,-68.8740005493164 171.6490020751953,-87.14600372314453 166.23399353027344,-92.56099700927734 C160.81900024414062,-97.97599792480469 10.482999801635742,-64.91500091552734 10.482999801635742,-64.91500091552734 C10.482999801635742,-64.91500091552734 25.757999420166016,-54.2869987487793 25.757999420166016,-54.2869987487793z"></path></g><g opacity="0.2" transform="matrix(1,0,0,1,0,0)"><g opacity="1" transform="matrix(1,0,0,1,0,0)"><path fill="url(#__lottie_element_10)" fill-opacity="1" d=" M112.26200103759766,-42.000999450683594 C130.38099670410156,-34.400001525878906 148.22900390625,-25.44300079345703 162.677001953125,-11.819999694824219 C166.63299560546875,-8.045999526977539 160.27999877929688,-2.130000114440918 156.80499267578125,-6.38700008392334 C144.34300231933594,-20.5310001373291 127.76399993896484,-30.82699966430664 111.23100280761719,-39.67499923706055 C109.7969970703125,-40.340999603271484 110.79000091552734,-42.62300109863281 112.26200103759766,-42.000999450683594z"></path></g><g opacity="1" transform="matrix(1,0,0,1,0,0)"><path fill="url(#__lottie_element_11)" fill-opacity="1" d=" M95.2969970703125,-87.0780029296875 C114.6709976196289,-84.11299896240234 134.3679962158203,-77.1500015258789 148.62399291992188,-63.29399871826172 C149.2830047607422,-62.66999816894531 148.33999633789062,-61.59299850463867 147.63800048828125,-62.20600128173828 C134.53700256347656,-72.4520034790039 117.96800231933594,-76.99099731445312 101.66400146484375,-78.6719970703125 C97.86499786376953,-79.45899963378906 91.04000091552734,-77.5199966430664 90.7959976196289,-83.13800048828125 C90.802001953125,-85.51399993896484 92.94400024414062,-87.38300323486328 95.2969970703125,-87.0780029296875z"></path></g></g><g opacity="1" transform="matrix(1,0,0,1,0,0)"><path stroke-linecap="round" stroke-linejoin="round" fill-opacity="0" stroke="rgb(99,94,90)" stroke-opacity="1" stroke-width="8" d=" M169.76300048828125,-61.275001525878906 C169.76300048828125,-61.275001525878906 168.13699340820312,-76.4229965209961 140.3979949951172,-90.34200286865234"></path></g><g opacity="1" transform="matrix(1,0,0,1,0,0)"><path stroke-linecap="round" stroke-linejoin="round" fill-opacity="0" stroke="rgb(119,114,112)" stroke-opacity="0.5" stroke-width="8" d=" M153.9409942626953,0 C153.9409942626953,0 133.1909942626953,-22.37299919128418 53.75899887084961,-42.79399871826172"></path></g><g opacity="1" transform="matrix(1,0,0,1,0,0)"><path stroke-linecap="round" stroke-linejoin="round" fill-opacity="0" stroke="rgb(132,129,126)" stroke-opacity="1" stroke-width="8" d=" M1.9500000476837158,-62.749000549316406 C1.9500000476837158,-62.749000549316406 90.00700378417969,-38.40700149536133 148.197998046875,23.975000381469727 C148.197998046875,23.975000381469727 153.9409942626953,16.406999588012695 153.9409942626953,0 C153.9409942626953,0 171.29800415039062,-19.43400001525879 169.76300048828125,-61.275001525878906 C169.76300048828125,-61.275001525878906 174.3679962158203,-77.62100219726562 167.62600708007812,-94.0770034790039"></path></g><g opacity="1" transform="matrix(1,0,0,1,0,0)"><path stroke-linecap="round" stroke-linejoin="round" fill-opacity="0" stroke="rgb(99,94,90)" stroke-opacity="1" stroke-width="8" d=" M167.62600708007812,-94.0770034790039 C174.3679962158203,-77.62100219726562 169.76300048828125,-61.275001525878906 169.76300048828125,-61.275001525878906 C171.29800415039062,-19.43400001525879 153.9409942626953,0 153.9409942626953,0 C153.9409942626953,16.406999588012695 148.197998046875,23.975000381469727 148.197998046875,23.975000381469727 C148.197998046875,23.975000381469727 128.49099731445312,2.3580000400543213 101.20999908447266,-15.61400032043457"></path></g><g opacity="1" transform="matrix(1.1285099983215332,0,0,1,0,0)"><path fill="url(#__lottie_element_12)" fill-opacity="1" d=" M-129.52099609375,12.467000007629395 C-129.52099609375,12.467000007629395 -103.06999969482422,-57.361000061035156 149.79800415039062,-94.0770034790039 C149.79800415039062,-94.0770034790039 150.875,-127.17500305175781 135.00799560546875,-145.41700744628906 C135.00799560546875,-145.41700744628906 116.90799713134766,-194.21400451660156 60.04399871826172,-206.1300048828125 C60.04399871826172,-206.1300048828125 26.209999084472656,-218.31900024414062 -14.847999572753906,-210.92599487304688 C-14.847999572753906,-210.92599487304688 -32.22700119018555,-210.53900146484375 -48.965999603271484,-205.94900512695312 C-65.40699768066406,-201.4409942626953 -76.1969985961914,-194.28900146484375 -76.1969985961914,-194.28900146484375 C-140.33299255371094,-165.2989959716797 -140.33200073242188,-111.0770034790039 -140.33200073242188,-111.0770034790039 C-140.33200073242188,-111.0770034790039 -149.81500244140625,-91.45999908447266 -149.82200622558594,-62.749000549316406 C-149.82699584960938,-43.10200119018555 -149.82200622558594,-11.890999794006348 -129.52099609375,12.467000007629395z"></path></g><g opacity="1" transform="matrix(1,0,0,1,0,0)"><path fill="url(#__lottie_element_13)" fill-opacity="0.4" d=" M58.43600082397461,-104.47100067138672 C58.43600082397461,-104.47100067138672 112.73699951171875,-131.1999969482422 159.48699951171875,-133.31900024414062 C159.48699951171875,-133.31900024414062 161.468994140625,-125.76100158691406 161.468994140625,-125.76100158691406 C161.468994140625,-125.76100158691406 121.61499786376953,-128.38400268554688 58.43600082397461,-104.47100067138672z"></path></g><g opacity="1" transform="matrix(1,0,0,1,0,0)"><path fill="url(#__lottie_element_14)" fill-opacity="0.5" d=" M97.44999694824219,-153.63900756835938 C97.44999694824219,-153.63900756835938 124.20099639892578,-161.39999389648438 145.4459991455078,-156.55599975585938 C145.4459991455078,-156.55599975585938 146.34500122070312,-150.5970001220703 145.197998046875,-150.85699462890625 C125.62300109863281,-155.29100036621094 97.44999694824219,-153.63900756835938 97.44999694824219,-153.63900756835938z"></path></g><g opacity="1" transform="matrix(1,0,0,1,0,0)"><path fill="url(#__lottie_element_15)" fill-opacity="0.5" d=" M28.697999954223633,-180.39999389648438 C28.697999954223633,-180.39999389648438 72.44100189208984,-191.8459930419922 114.55899810791016,-183.30999755859375 C114.55899810791016,-183.30999755859375 128.48699951171875,-171.48899841308594 128.48699951171875,-171.48899841308594 C128.48699951171875,-171.48899841308594 100.16699981689453,-186.4720001220703 28.697999954223633,-180.39999389648438z"></path></g><g opacity="1" transform="matrix(1,0,0,1,0,0)"><path fill="url(#__lottie_element_16)" fill-opacity="0.6" d=" M167.62899780273438,-94.08000183105469 C163.7989959716797,-93.58000183105469 167.00900268554688,-93.08000183105469 163.2790069580078,-92.56999969482422 C162.75900268554688,-102.23999786376953 152.16900634765625,-126.38999938964844 139.9290008544922,-138.97999572753906 C139.9290008544922,-138.97999572753906 124.20099639892578,-178.42100524902344 66.63899993896484,-193.67999267578125 C59.64099884033203,-195.53500366210938 40.808998107910156,-198.4409942626953 27.79199981689453,-199.0989990234375 C6.943999767303467,-200.1540069580078 -11.571000099182129,-197.14999389648438 -11.571000099182129,-197.14999389648438 C-43.874000549316406,-198.78500366210938 -75.73899841308594,-186.5959930419922 -93.00299835205078,-176.42100524902344 C-118.50399780273438,-161.39100646972656 -141.93600463867188,-135.79299926757812 -148.61099243164062,-102.91000366210938 C-148.61099243164062,-102.91000366210938 -156.34300231933594,-79.93800354003906 -157.52099609375,-56.779998779296875 C-158.36700439453125,-40.14099884033203 -158.80599975585938,-23.506999969482422 -146.83299255371094,7.745999813079834 C-150.22300720214844,11.815999984741211 -145.05099487304688,12.470000267028809 -145.05099487304688,12.470000267028809 C-167.781005859375,-11.890000343322754 -167.781005859375,-43.099998474121094 -167.781005859375,-62.75 C-167.77099609375,-91.45999908447266 -157.1510009765625,-111.08000183105469 -157.1510009765625,-111.08000183105469 C-157.1510009765625,-111.08000183105469 -157.1510009765625,-165.3000030517578 -85.36100006103516,-194.2899932861328 C-85.36100006103516,-194.2899932861328 -73.28099822998047,-201.44000244140625 -54.88100051879883,-205.9499969482422 C-36.14099884033203,-210.5399932861328 -16.680999755859375,-210.92999267578125 -16.680999755859375,-210.92999267578125 C29.27899932861328,-218.32000732421875 67.14900207519531,-206.1300048828125 67.14900207519531,-206.1300048828125 C130.8090057373047,-194.2100067138672 151.06900024414062,-145.4199981689453 151.06900024414062,-145.4199981689453 C168.82899475097656,-127.18000030517578 167.62899780273438,-94.08000183105469 167.62899780273438,-94.08000183105469z"></path></g><g opacity="1" transform="matrix(1,0,0,1,0,0)"><path fill="url(#__lottie_element_17)" fill-opacity="0.3" d=" M66.92900085449219,-206.1300048828125 C-14.611000061035156,-197.08999633789062 -129.63099670410156,-163.66000366210938 -168.531005859375,-62.75 C-168.531005859375,-91.45999908447266 -157.89100646972656,-111.08000183105469 -157.89100646972656,-111.08000183105469 C-157.89100646972656,-111.08000183105469 -157.89100646972656,-165.3000030517578 -85.93099975585938,-194.2899932861328 C-85.93099975585938,-194.2899932861328 -73.82099914550781,-201.44000244140625 -55.38100051879883,-205.9499969482422 C-36.60100173950195,-210.5399932861328 -17.10099983215332,-210.92999267578125 -17.10099983215332,-210.92999267578125 C28.9689998626709,-218.32000732421875 66.92900085449219,-206.1300048828125 66.92900085449219,-206.1300048828125z"></path></g><g opacity="1" transform="matrix(1,0,0,1,0,0)"><path stroke-linecap="round" stroke-linejoin="round" fill-opacity="0" stroke="rgb(165,163,162)" stroke-opacity="1" stroke-width="8" d=" M-157.15499877929688,-111.0770034790039 C-157.15499877929688,-111.0770034790039 -94.66300201416016,-207.5800018310547 -16.68400001525879,-210.92599487304688"></path></g><g opacity="1" transform="matrix(1,0,0,1,0,0)"><path fill="url(#__lottie_element_18)" fill-opacity="0.6" d=" M149.63999938964844,-141.66700744628906 C134.42100524902344,-146.9429931640625 118.10199737548828,-148.47999572753906 102.08599853515625,-149.51100158691406 C102.08599853515625,-149.51100158691406 95.06500244140625,-149.8000030517578 95.06500244140625,-149.8000030517578 C92.69499969482422,-149.80299377441406 92.6510009765625,-153.52699279785156 95.03600311279297,-153.5659942626953 C114.18399810791016,-154.18099975585938 133.80499267578125,-154.1739959716797 152.44500732421875,-149.16099548339844 C157.59500122070312,-147.53199768066406 154.61700439453125,-139.50399780273438 149.63999938964844,-141.66700744628906z"></path></g><g opacity="1" transform="matrix(1,0,0,1,0,0)"><path fill="url(#__lottie_element_19)" fill-opacity="0.6" d=" M163.15499877929688,-117.61199951171875 C126.26799774169922,-121.40799713134766 89.33100128173828,-110.31500244140625 54.152000427246094,-100.16000366210938 C52.520999908447266,-99.69499969482422 51.742000579833984,-102.08300018310547 53.33399963378906,-102.6709976196289 C84.5199966430664,-113.76000213623047 116.63200378417969,-123.80899810791016 149.8419952392578,-125.89800262451172 C154.91900634765625,-126.052001953125 159.71299743652344,-126.21700286865234 164.83900451660156,-125.43299865722656 C170.24099731445312,-124.30400085449219 168.5449981689453,-116.427001953125 163.15499877929688,-117.61199951171875z"></path></g><g opacity="1" transform="matrix(1,0,0,1,0,0)"><path fill="url(#__lottie_element_20)" fill-opacity="0.4" d=" M114.55899810791016,-186.94000244140625 C114.55899810791016,-186.94000244140625 113.96600341796875,-183.21099853515625 113.01899719238281,-183.39999389648438 C90.7969970703125,-187.83399963378906 45.917999267578125,-192.1719970703125 -35.12099838256836,-161.5 C-105.62200164794922,-134.8159942626953 -141.67300415039062,-79.93800354003906 -164.1009979248047,-39.323001861572266 C-164.46099853515625,-45.362998962402344 -167.781005859375,-57.86000061035156 -167.781005859375,-62.75 C-167.781005859375,-63.29999923706055 -167.781005859375,-63.849998474121094 -167.77099609375,-64.38999938964844 C-151.50100708007812,-101.5199966430664 -119.20099639892578,-149.8000030517578 -56.9010009765625,-173.63999938964844 C-9.741000175476074,-191.69000244140625 30.909000396728516,-201.86000061035156 61.87900161743164,-207.5800018310547 C65.27899932861328,-206.72999572753906 67.14900207519531,-206.1300048828125 67.14900207519531,-206.1300048828125 C86.89900207519531,-202.42999267578125 102.47899627685547,-195.17999267578125 114.55899810791016,-186.94000244140625z"></path></g><g opacity="1" transform="matrix(1,0,0,1,0,0)"><path fill="url(#__lottie_element_21)" fill-opacity="0.7000000000000001" d=" M-70.23100280761719,-162.39300537109375 C-70.23100280761719,-162.39300537109375 31.08300018310547,-201.04100036621094 98.76699829101562,-191.76199340820312 C98.76699829101562,-191.76199340820312 58.0629997253418,-208.25399780273438 58.0629997253418,-208.25399780273438 C58.0629997253418,-208.25399780273438 -16.083999633789062,-195.25999450683594 -70.23100280761719,-162.39300537109375z"></path></g><g opacity="0.3" transform="matrix(1,0,0,1,0,0)"><g opacity="1" transform="matrix(1,0,0,1,0,0)"><path fill="url(#__lottie_element_22)" fill-opacity="1" d=" M-166.49200439453125,-21.94099998474121 C-137.74400329589844,-75.47699737548828 -73.18800354003906,-109.38700103759766 -18.742000579833984,-131.77000427246094 C14.145000457763672,-144.6999969482422 16.834999084472656,-142.35299682617188 -17.327999114990234,-128.4340057373047 C-60.56800079345703,-108.375 -103.38899993896484,-84.08499908447266 -136.60000610351562,-49.512001037597656 C-142.26100158691406,-43.39899826049805 -148.10800170898438,-36.470001220703125 -152.8459930419922,-29.58300018310547 C-154.9550018310547,-26.367000579833984 -157.13400268554688,-22.948999404907227 -158.8209991455078,-19.49799919128418 C-160.7010040283203,-13.869999885559082 -168.4550018310547,-16.466999053955078 -166.49200439453125,-21.94099998474121z"></path></g><g opacity="1" transform="matrix(1,0,0,1,0,0)"><path fill="url(#__lottie_element_23)" fill-opacity="1" d=" M-36.08399963378906,-163.82899475097656 C11.418000221252441,-182.23399353027344 63.33599853515625,-199.7899932861328 114.81800079345703,-191.1929931640625 C120.06300354003906,-189.91799926757812 118.30500030517578,-182.24099731445312 113.01699829101562,-183.39700317382812 C63.172000885009766,-193.3350067138672 11.812999725341797,-177.7449951171875 -35.12099838256836,-161.49899291992188 C-36.62799835205078,-160.90499877929688 -37.61199951171875,-163.156005859375 -36.08399963378906,-163.82899475097656z"></path></g><g opacity="1" transform="matrix(1,0,0,1,0,0)"><path fill="url(#__lottie_element_24)" fill-opacity="1" d=" M-170.447998046875,-43.43000030517578 C-170.3209991455078,-46.222999572753906 -135.9239959716797,-92.9219970703125 -137.5540008544922,-81.92900085449219 C-146.8090057373047,-69.69400024414062 -152.94000244140625,-59.69499969482422 -162.01199340820312,-42.87099838256836 C-165.89300537109375,-35.67399978637695 -172.64599609375,-36.74800109863281 -170.447998046875,-43.43000030517578z"></path></g><g opacity="1" transform="matrix(1,0,0,1,0,0)"><path fill="url(#__lottie_element_25)" fill-opacity="1" d=" M-160.39599609375,-7.6539998054504395 C-139.25100708007812,-39.05500030517578 -107.45099639892578,-61.74700164794922 -74.78500366210938,-79.93800354003906 C-69.13300323486328,-79.73100280761719 -84.572998046875,-72.12699890136719 -85.56800079345703,-70.85199737548828 C-104.54299926757812,-57.97200012207031 -122.54299926757812,-42.992000579833984 -137.55999755859375,-25.634000778198242 C-143.3820037841797,-18.816999435424805 -149.07000732421875,-11.559000015258789 -153.42300415039062,-3.7290000915527344 C-156.08900451660156,0.9959999918937683 -163.05299377441406,-2.924999952316284 -160.39599609375,-7.6539998054504395z"></path></g><g opacity="1" transform="matrix(1,0,0,1,0,0)"><path fill="url(#__lottie_element_26)" fill-opacity="1" d=" M163.54400634765625,-99.45700073242188 C148.67599487304688,-105.30000305175781 125.71700286865234,-99.83200073242188 108.53700256347656,-96.63800048828125 C102.18900299072266,-99.0459976196289 136.7030029296875,-106.00499725341797 139.29200744628906,-106.66600036621094 C181.5709991455078,-115.06300354003906 172.16799926757812,-90.6510009765625 163.54400634765625,-99.45700073242188z"></path></g></g><g opacity="1" transform="matrix(1,0,0,1,0,0)"><path stroke-linecap="round" stroke-linejoin="round" fill-opacity="0" stroke="rgb(150,146,143)" stroke-opacity="1" stroke-width="8" d=" M67.1520004272461,-206.1300048828125 C-14.201000213623047,-197.08799743652344 -128.9669952392578,-163.66299438476562 -167.7790069580078,-62.749000549316406"></path></g><g opacity="1" transform="matrix(1,0,0,1,0,0)"><path stroke-linecap="round" stroke-linejoin="round" fill-opacity="0" stroke="rgb(132,129,126)" stroke-opacity="1" stroke-width="8" d=" M-148.05299377441406,12.467000007629395 C-148.05299377441406,12.467000007629395 -115.44200134277344,-57.361000061035156 167.62600708007812,-94.0770034790039 C167.62600708007812,-94.0770034790039 168.83200073242188,-127.17500305175781 151.07000732421875,-145.41700744628906 C151.07000732421875,-145.41700744628906 130.8070068359375,-194.21400451660156 67.1520004272461,-206.1300048828125 C67.1520004272461,-206.1300048828125 29.277000427246094,-218.31900024414062 -16.68400001525879,-210.92599487304688 C-16.68400001525879,-210.92599487304688 -36.13800048828125,-210.53900146484375 -54.87699890136719,-205.94900512695312 C-73.28199768066406,-201.4409942626953 -78.09100341796875,-198.80099487304688 -85.36000061035156,-195.28900146484375 C-156.57000732421875,-160.88900756835938 -157.15499877929688,-111.0770034790039 -157.15499877929688,-111.0770034790039 C-157.15499877929688,-111.0770034790039 -167.77099609375,-91.45999908447266 -167.7790069580078,-62.749000549316406 C-167.78399658203125,-43.10200119018555 -170.7790069580078,-11.890999794006348 -148.05299377441406,12.467000007629395z"></path></g><g opacity="1" transform="matrix(1,0,0,1,0,0)"><path stroke-linecap="round" stroke-linejoin="round" fill-opacity="0" stroke="rgb(114,110,107)" stroke-opacity="1" stroke-width="8" d=" M147.50999450683594,-152.2239990234375 C148.91099548339844,-149.92999267578125 151.07000732421875,-145.41700744628906 151.07000732421875,-145.41700744628906 C168.83200073242188,-127.17500305175781 167.62600708007812,-94.0770034790039 167.62600708007812,-94.0770034790039 C-115.44200134277344,-57.361000061035156 -148.05299377441406,12.467000007629395 -148.05299377441406,12.467000007629395 C-170.7790069580078,-11.890999794006348 -167.78399658203125,-43.10200119018555 -167.7790069580078,-62.749000549316406 C-167.7790069580078,-62.749000549316406 -168.531005859375,-87.25399780273438 -157.15499877929688,-111.0770034790039 C-157.15499877929688,-111.0770034790039 -157.00799560546875,-117.33000183105469 -153.63800048828125,-127.46299743652344"></path></g><g opacity="1" transform="matrix(1,0,0,1,0,0)"><path fill="url(#__lottie_element_27)" fill-opacity="0.1" d=" M-47.07099914550781,-95.38500213623047 C-41.60599899291992,-99.27799987792969 -35.85900115966797,-102.46600341796875 -30.01099967956543,-105.56700134277344 C-27.06399917602539,-107.0530014038086 -24.114999771118164,-108.5469970703125 -21.107999801635742,-109.90799713134766 C-19.614999771118164,-110.61399841308594 -18.10300064086914,-111.27899932861328 -16.599000930786133,-111.96299743652344 C-16.599000930786133,-111.96299743652344 -12.029000282287598,-113.86699676513672 -12.029000282287598,-113.86699676513672 C-12.029000282287598,-113.86699676513672 -7.454999923706055,-115.77200317382812 -7.454999923706055,-115.77200317382812 C-7.454999923706055,-115.77200317382812 -2.808000087738037,-117.47799682617188 -2.808000087738037,-117.47799682617188 C0.289000004529953,-118.62100219726562 3.384000062942505,-119.7760009765625 6.531000137329102,-120.77100372314453 C6.531000137329102,-120.77100372314453 11.24899959564209,-122.27799987792969 11.24899959564209,-122.27799987792969 C12.822999954223633,-122.7760009765625 14.390999794006348,-123.29199981689453 15.986000061035156,-123.71499633789062 C15.986000061035156,-123.71499633789062 25.52400016784668,-126.37200164794922 25.52400016784668,-126.37200164794922 C28.719999313354492,-127.19300079345703 31.951000213623047,-127.87200164794922 35.1619987487793,-128.6280059814453 C35.1619987487793,-128.6280059814453 39.98500061035156,-129.73399353027344 39.98500061035156,-129.73399353027344 C41.60100173950195,-130.06399536132812 43.224998474121094,-130.35400390625 44.8489990234375,-130.63999938964844 C44.8489990234375,-130.63999938964844 54.58599853515625,-132.37600708007812 54.58599853515625,-132.37600708007812 C57.847999572753906,-132.85299682617188 61.12200164794922,-133.2530059814453 64.38999938964844,-133.66799926757812 C64.38999938964844,-133.66799926757812 69.29000091552734,-134.28900146484375 69.29000091552734,-134.28900146484375 C70.9219970703125,-134.50399780273438 72.57099914550781,-134.5919952392578 74.21199798583984,-134.72300720214844 C74.21199798583984,-134.72300720214844 84.05799865722656,-135.447998046875 84.05799865722656,-135.447998046875 C84.05799865722656,-135.447998046875 86.51899719238281,-135.60400390625 86.51899719238281,-135.60400390625 C86.51899719238281,-135.60400390625 88.98799896240234,-135.6580047607422 88.98799896240234,-135.6580047607422 C88.98799896240234,-135.6580047607422 93.9229965209961,-135.74600219726562 93.9229965209961,-135.74600219726562 C97.21099853515625,-135.79600524902344 100.49700164794922,-135.802001953125 103.77799987792969,-135.78199768066406 C104.52100372314453,-135.77699279785156 105.12100219726562,-135.17100524902344 105.11599731445312,-134.42799377441406 C105.11199951171875,-133.75900268554688 104.62000274658203,-133.20700073242188 103.97899627685547,-133.10699462890625 C103.97899627685547,-133.10699462890625 103.9219970703125,-133.09800720214844 103.9219970703125,-133.09800720214844 C100.69100189208984,-132.59100341796875 97.46499633789062,-132.11099243164062 94.23999786376953,-131.6739959716797 C94.23999786376953,-131.6739959716797 89.40499877929688,-131.031005859375 89.40499877929688,-131.031005859375 C89.40499877929688,-131.031005859375 86.98899841308594,-130.718994140625 86.98899841308594,-130.718994140625 C86.98899841308594,-130.718994140625 84.58499908447266,-130.30599975585938 84.58499908447266,-130.30599975585938 C84.58499908447266,-130.30599975585938 74.97200012207031,-128.7570037841797 74.97200012207031,-128.7570037841797 C73.3740005493164,-128.47799682617188 71.76499938964844,-128.28700256347656 70.1729965209961,-127.98400115966797 C70.1729965209961,-127.98400115966797 65.39700317382812,-127.0770034790039 65.39700317382812,-127.0770034790039 C62.21500015258789,-126.47000122070312 59.03499984741211,-125.86399841308594 55.8489990234375,-125.30500030517578 C55.8489990234375,-125.30500030517578 46.367000579833984,-123.23699951171875 46.367000579833984,-123.23699951171875 C46.367000579833984,-123.23699951171875 41.624000549316406,-122.22599792480469 41.624000549316406,-122.22599792480469 C41.624000549316406,-122.22599792480469 36.915000915527344,-121.0739974975586 36.915000915527344,-121.0739974975586 C33.779998779296875,-120.28800201416016 30.625999450683594,-119.58000183105469 27.509000778198242,-118.73100280761719 C27.509000778198242,-118.73100280761719 18.155000686645508,-116.19599914550781 18.155000686645508,-116.19599914550781 C15.031000137329102,-115.37100219726562 11.972999572753906,-114.3239974975586 8.871000289916992,-113.4229965209961 C5.756999969482422,-112.55500030517578 2.694999933242798,-111.52899932861328 -0.3720000088214874,-110.51499938964844 C-0.3720000088214874,-110.51499938964844 -4.97599983215332,-109.0009994506836 -4.97599983215332,-109.0009994506836 C-4.97599983215332,-109.0009994506836 -9.548999786376953,-107.4000015258789 -9.548999786376953,-107.4000015258789 C-21.70800018310547,-103.08200073242188 -33.83399963378906,-98.34300231933594 -45.43899917602539,-92.76799774169922 C-45.43899917602539,-92.76799774169922 -45.50600051879883,-92.73600006103516 -45.50600051879883,-92.73600006103516 C-46.27399826049805,-92.36699676513672 -47.196998596191406,-92.69000244140625 -47.566001892089844,-93.45899963378906 C-47.895999908447266,-94.14700317382812 -47.672000885009766,-94.95700073242188 -47.07099914550781,-95.38500213623047z"></path></g><g opacity="1" transform="matrix(1,0,0,1,0,0)"><path fill="url(#__lottie_element_28)" fill-opacity="0.1" d=" M-113.21199798583984,-103.68000030517578 C-106.8239974975586,-109.69000244140625 -99.93000030517578,-114.89099884033203 -92.8489990234375,-119.91799926757812 C-85.73799896240234,-124.87999725341797 -78.37799835205078,-129.48800659179688 -70.81099700927734,-133.73599243164062 C-63.266998291015625,-138.0279998779297 -55.47700119018555,-141.88299560546875 -47.569000244140625,-145.47500610351562 C-39.63100051879883,-149.0050048828125 -31.525999069213867,-152.1540069580078 -23.325000762939453,-155.02999877929688 C-15.093000411987305,-157.822998046875 -6.723999977111816,-160.20199584960938 1.7130000591278076,-162.281005859375 C5.956999778747559,-163.2239990234375 10.187999725341797,-164.20700073242188 14.468999862670898,-164.9600067138672 C18.722999572753906,-165.8419952392578 23.034000396728516,-166.41600036621094 27.327999114990234,-167.0489959716797 C44.5369987487793,-169.36000061035156 61.979000091552734,-169.89300537109375 79.19200134277344,-168.4149932861328 C79.85099792480469,-168.35800170898438 80.33899688720703,-167.7790069580078 80.28199768066406,-167.1199951171875 C80.2300033569336,-166.50999450683594 79.72799682617188,-166.0449981689453 79.13099670410156,-166.02499389648438 C79.13099670410156,-166.02499389648438 79.12000274658203,-166.02499389648438 79.12000274658203,-166.02499389648438 C62.00400161743164,-165.4290008544922 45.034000396728516,-163.7949981689453 28.316999435424805,-160.781005859375 C11.618000030517578,-157.6929931640625 -4.835999965667725,-153.427001953125 -20.850000381469727,-147.83299255371094 C-36.88399887084961,-142.30999755859375 -52.500999450683594,-135.5659942626953 -67.61199951171875,-127.7979965209961 C-75.15399932861328,-123.89099884033203 -82.61100006103516,-119.78900146484375 -89.87100219726562,-115.35199737548828 C-97.13800048828125,-110.95700073242188 -104.32499694824219,-106.27400207519531 -111.11799621582031,-101.27200317382812 C-111.11799621582031,-101.27200317382812 -111.1709976196289,-101.23200225830078 -111.1709976196289,-101.23200225830078 C-111.88099670410156,-100.70899963378906 -112.87999725341797,-100.86100006103516 -113.40299987792969,-101.57099914550781 C-113.88700103759766,-102.22899627685547 -113.79299926757812,-103.13500213623047 -113.21199798583984,-103.68000030517578z"></path></g></g></g></svg>