<svg xmlns="http://www.w3.org/2000/svg" xmlns:xlink="http://www.w3.org/1999/xlink" viewBox="0 0 512 512" width="512" height="512" style="width: 100%; height: 100%; transform: translate3d(0,0,0); content-visibility: visible;" preserveAspectRatio="xMidYMid meet"><defs><clipPath id="__lottie_element_2"><rect width="512" height="512" x="0" y="0"></rect></clipPath><linearGradient id="__lottie_element_6" spreadMethod="pad" gradientUnits="userSpaceOnUse" x1="0.19900000095367432" y1="-206.6199951171875" x2="0.19900000095367432" y2="-104.2760009765625"><stop offset="0%" stop-color="rgb(255,238,152)"></stop><stop offset="35%" stop-color="rgb(247,217,103)"></stop><stop offset="70%" stop-color="rgb(239,196,54)"></stop><stop offset="91%" stop-color="rgb(226,180,27)"></stop><stop offset="100%" stop-color="rgb(213,163,0)"></stop></linearGradient><linearGradient id="__lottie_element_7" spreadMethod="pad" gradientUnits="userSpaceOnUse" x1="-0.8009999990463257" y1="-110.62000274658203" x2="-0.8009999990463257" y2="-160.93699645996094"><stop offset="0%" stop-color="rgb(167,127,24)" stop-opacity="1"></stop><stop offset="37%" stop-color="rgb(203,161,39)" stop-opacity="0.5099999904632568"></stop><stop offset="100%" stop-color="rgb(239,196,54)" stop-opacity="0.019999999552965164"></stop></linearGradient><linearGradient id="__lottie_element_8" spreadMethod="pad" gradientUnits="userSpaceOnUse" x1="28.198999404907227" y1="-155.6199951171875" x2="50.617000579833984" y2="-155.6199951171875"><stop offset="0%" stop-color="rgb(213,142,0)" stop-opacity="0"></stop><stop offset="25%" stop-color="rgb(213,142,0)" stop-opacity="0.5"></stop><stop offset="50%" stop-color="rgb(213,142,0)" stop-opacity="1"></stop><stop offset="75%" stop-color="rgb(213,142,0)" stop-opacity="0.5"></stop><stop offset="100%" stop-color="rgb(213,142,0)" stop-opacity="0"></stop></linearGradient><linearGradient id="__lottie_element_9" spreadMethod="pad" gradientUnits="userSpaceOnUse" x1="-51.80099868774414" y1="-155.6199951171875" x2="-29.382999420166016" y2="-155.6199951171875"><stop offset="0%" stop-color="rgb(213,142,0)" stop-opacity="0"></stop><stop offset="25%" stop-color="rgb(213,142,0)" stop-opacity="0.5"></stop><stop offset="50%" stop-color="rgb(213,142,0)" stop-opacity="1"></stop><stop offset="75%" stop-color="rgb(213,142,0)" stop-opacity="0.5"></stop><stop offset="100%" stop-color="rgb(213,142,0)" stop-opacity="0"></stop></linearGradient><radialGradient id="__lottie_element_10" spreadMethod="pad" gradientUnits="userSpaceOnUse" cx="1.1990000009536743" cy="-192.6199951171875" r="113.3560003042221" fx="1.1990000009536743" fy="-192.6199951171875"><stop offset="0%" stop-color="rgb(255,255,255)" stop-opacity="1"></stop><stop offset="50%" stop-color="rgb(255,255,255)" stop-opacity="0.5"></stop><stop offset="100%" stop-color="rgb(255,255,255)" stop-opacity="0"></stop></radialGradient><radialGradient id="__lottie_element_11" spreadMethod="pad" gradientUnits="userSpaceOnUse" cx="0.19900000095367432" cy="-79.62000274658203" r="129.85800683498383" fx="0.19900000095367432" fy="-79.62000274658203"><stop offset="0%" stop-color="rgb(255,223,28)"></stop><stop offset="60%" stop-color="rgb(252,231,96)"></stop><stop offset="100%" stop-color="rgb(250,239,164)"></stop></radialGradient><linearGradient id="__lottie_element_16" spreadMethod="pad" gradientUnits="userSpaceOnUse" x1="-2.190999984741211" y1="-83.52400207519531" x2="3.0739998817443848" y2="90.91999816894531"><stop offset="0%" stop-color="rgb(255,216,0)" stop-opacity="0"></stop><stop offset="11%" stop-color="rgb(255,216,0)" stop-opacity="0.5"></stop><stop offset="45%" stop-color="rgb(255,216,0)" stop-opacity="1"></stop><stop offset="90%" stop-color="rgb(255,216,0)" stop-opacity="0.5"></stop><stop offset="100%" stop-color="rgb(255,216,0)" stop-opacity="0"></stop></linearGradient><linearGradient id="__lottie_element_17" spreadMethod="pad" gradientUnits="userSpaceOnUse" x1="-2.9130001068115234" y1="-95.7509994506836" x2="-2.9130001068115234" y2="-24.6200008392334"><stop offset="15%" stop-color="rgb(219,110,0)" stop-opacity="1"></stop><stop offset="45%" stop-color="rgb(219,110,0)" stop-opacity="0.5"></stop><stop offset="70%" stop-color="rgb(219,110,0)" stop-opacity="0"></stop></linearGradient><linearGradient id="__lottie_element_20" spreadMethod="pad" gradientUnits="userSpaceOnUse" x1="1.9249999523162842" y1="-25.549999237060547" x2="2.424999952316284" y2="-138.3730010986328"><stop offset="0%" stop-color="rgb(218,110,0)" stop-opacity="1"></stop><stop offset="60%" stop-color="rgb(218,110,0)" stop-opacity="0.5"></stop><stop offset="100%" stop-color="rgb(218,110,0)" stop-opacity="0"></stop></linearGradient><radialGradient id="__lottie_element_24" spreadMethod="pad" gradientUnits="userSpaceOnUse" cx="4.328000068664551" cy="71.38300323486328" r="37.656771264474465" fx="4.328000068664551" fy="71.38300323486328"><stop offset="8%" stop-color="rgb(117,55,14)" stop-opacity="1"></stop><stop offset="54%" stop-color="rgb(117,55,14)" stop-opacity="0.5"></stop><stop offset="100%" stop-color="rgb(117,55,14)" stop-opacity="0"></stop></radialGradient><linearGradient id="__lottie_element_28" spreadMethod="pad" gradientUnits="userSpaceOnUse" x1="-1.4259999990463257" y1="99.6240005493164" x2="-1.1759999990463257" y2="122.68000030517578"><stop offset="0%" stop-color="rgb(255,168,0)" stop-opacity="1"></stop><stop offset="66%" stop-color="rgb(255,168,0)" stop-opacity="0.5"></stop><stop offset="100%" stop-color="rgb(255,168,0)" stop-opacity="0"></stop></linearGradient><linearGradient id="__lottie_element_29" spreadMethod="pad" gradientUnits="userSpaceOnUse" x1="-1.9259999990463257" y1="113.0989990234375" x2="-1.9259999990463257" y2="88.71299743652344"><stop offset="10%" stop-color="rgb(219,110,0)" stop-opacity="1"></stop><stop offset="51%" stop-color="rgb(219,110,0)" stop-opacity="0.5"></stop><stop offset="80%" stop-color="rgb(219,110,0)" stop-opacity="0"></stop></linearGradient><radialGradient id="__lottie_element_30" spreadMethod="pad" gradientUnits="userSpaceOnUse" cx="-2.9260001182556152" cy="84.41799926757812" r="24.002000331878662" fx="-2.9260001182556152" fy="84.41799926757812"><stop offset="36%" stop-color="rgb(255,168,0)" stop-opacity="0"></stop><stop offset="74%" stop-color="rgb(255,168,0)" stop-opacity="0.5"></stop><stop offset="100%" stop-color="rgb(255,168,0)" stop-opacity="1"></stop></radialGradient><linearGradient id="__lottie_element_31" spreadMethod="pad" gradientUnits="userSpaceOnUse" x1="-1.9259999990463257" y1="80.41799926757812" x2="-1.9259999990463257" y2="90.41799926757812"><stop offset="0%" stop-color="rgb(255,255,255)" stop-opacity="1"></stop><stop offset="50%" stop-color="rgb(255,255,255)" stop-opacity="0.5"></stop><stop offset="100%" stop-color="rgb(255,255,255)" stop-opacity="0"></stop></linearGradient><linearGradient id="__lottie_element_35" spreadMethod="pad" gradientUnits="userSpaceOnUse" x1="50.137001037597656" y1="-35.707000732421875" x2="64.30899810791016" y2="-16.142000198364258"><stop offset="0%" stop-color="rgb(66,0,0)"></stop><stop offset="37%" stop-color="rgb(118,40,0)"></stop><stop offset="100%" stop-color="rgb(170,80,0)"></stop></linearGradient><radialGradient id="__lottie_element_36" spreadMethod="pad" gradientUnits="userSpaceOnUse" cx="62.67499923706055" cy="-19.8439998626709" r="8.891002655029297" fx="62.67499923706055" fy="-19.8439998626709"><stop offset="0%" stop-color="rgb(246,175,0)" stop-opacity="1"></stop><stop offset="50%" stop-color="rgb(246,175,0)" stop-opacity="0.5"></stop><stop offset="100%" stop-color="rgb(246,175,0)" stop-opacity="0"></stop></radialGradient><linearGradient id="__lottie_element_37" spreadMethod="pad" gradientUnits="userSpaceOnUse" x1="48.67499923706055" y1="-40.84400177001953" x2="48.814998626708984" y2="-32.869998931884766"><stop offset="0%" stop-color="rgb(255,255,255)" stop-opacity="1"></stop><stop offset="60%" stop-color="rgb(255,255,255)" stop-opacity="0.5"></stop><stop offset="100%" stop-color="rgb(255,255,255)" stop-opacity="0"></stop></linearGradient><linearGradient id="__lottie_element_41" spreadMethod="pad" gradientUnits="userSpaceOnUse" x1="50.137001037597656" y1="-35.707000732421875" x2="64.30899810791016" y2="-16.142000198364258"><stop offset="0%" stop-color="rgb(66,0,0)"></stop><stop offset="37%" stop-color="rgb(118,40,0)"></stop><stop offset="100%" stop-color="rgb(170,80,0)"></stop></linearGradient><radialGradient id="__lottie_element_42" spreadMethod="pad" gradientUnits="userSpaceOnUse" cx="62.67499923706055" cy="-19.8439998626709" r="8.891002655029297" fx="62.67499923706055" fy="-19.8439998626709"><stop offset="0%" stop-color="rgb(246,175,0)" stop-opacity="1"></stop><stop offset="50%" stop-color="rgb(246,175,0)" stop-opacity="0.5"></stop><stop offset="100%" stop-color="rgb(246,175,0)" stop-opacity="0"></stop></radialGradient><linearGradient id="__lottie_element_43" spreadMethod="pad" gradientUnits="userSpaceOnUse" x1="48.67499923706055" y1="-40.84400177001953" x2="48.814998626708984" y2="-32.869998931884766"><stop offset="0%" stop-color="rgb(255,255,255)" stop-opacity="1"></stop><stop offset="60%" stop-color="rgb(255,255,255)" stop-opacity="0.5"></stop><stop offset="100%" stop-color="rgb(255,255,255)" stop-opacity="0"></stop></linearGradient><radialGradient id="__lottie_element_53" spreadMethod="pad" gradientUnits="userSpaceOnUse" cx="195.07400512695312" cy="89.37999725341797" r="37.96407529956729" fx="195.07400512695312" fy="89.37999725341797"><stop offset="0%" stop-color="rgb(255,169,0)" stop-opacity="1"></stop><stop offset="50%" stop-color="rgb(255,169,0)" stop-opacity="0.5"></stop><stop offset="100%" stop-color="rgb(255,169,0)" stop-opacity="0"></stop></radialGradient><radialGradient id="__lottie_element_54" spreadMethod="pad" gradientUnits="userSpaceOnUse" cx="387.5740051269531" cy="89.37999725341797" r="39.52468798422866" fx="387.5740051269531" fy="89.37999725341797"><stop offset="0%" stop-color="rgb(255,169,0)" stop-opacity="1"></stop><stop offset="50%" stop-color="rgb(255,169,0)" stop-opacity="0.5"></stop><stop offset="100%" stop-color="rgb(255,169,0)" stop-opacity="0"></stop></radialGradient><linearGradient id="__lottie_element_55" spreadMethod="pad" gradientUnits="userSpaceOnUse" x1="403.8240051269531" y1="58.130001068115234" x2="384.43499755859375" y2="16.118000030517578"><stop offset="15%" stop-color="rgb(255,169,0)" stop-opacity="0"></stop><stop offset="50%" stop-color="rgb(255,169,0)" stop-opacity="0.5"></stop><stop offset="74%" stop-color="rgb(255,169,0)" stop-opacity="1"></stop></linearGradient><linearGradient id="__lottie_element_56" spreadMethod="pad" gradientUnits="userSpaceOnUse" x1="403.8240051269531" y1="58.130001068115234" x2="384.43499755859375" y2="16.118000030517578"><stop offset="15%" stop-color="rgb(255,169,0)" stop-opacity="0"></stop><stop offset="50%" stop-color="rgb(255,169,0)" stop-opacity="0.5"></stop><stop offset="74%" stop-color="rgb(255,169,0)" stop-opacity="1"></stop></linearGradient><linearGradient id="__lottie_element_60" spreadMethod="pad" gradientUnits="userSpaceOnUse" x1="0.19900000095367432" y1="132.3800048828125" x2="0.19900000095367432" y2="212.2259979248047"><stop offset="0%" stop-color="rgb(148,207,255)"></stop><stop offset="65%" stop-color="rgb(117,189,255)"></stop><stop offset="100%" stop-color="rgb(86,171,255)"></stop></linearGradient><linearGradient id="__lottie_element_61" spreadMethod="pad" gradientUnits="userSpaceOnUse" x1="99.6989974975586" y1="125.87999725341797" x2="89.70099639892578" y2="172.16200256347656"><stop offset="0%" stop-color="rgb(215,109,48)"></stop><stop offset="36%" stop-color="rgb(235,133,48)"></stop><stop offset="100%" stop-color="rgb(255,157,49)"></stop></linearGradient><linearGradient id="__lottie_element_62" spreadMethod="pad" gradientUnits="userSpaceOnUse" x1="101.6989974975586" y1="115.87999725341797" x2="93.48100280761719" y2="165.93899536132812"><stop offset="0%" stop-color="rgb(232,218,51)"></stop><stop offset="60%" stop-color="rgb(243,236,51)"></stop><stop offset="100%" stop-color="rgb(253,255,51)"></stop></linearGradient><linearGradient id="__lottie_element_63" spreadMethod="pad" gradientUnits="userSpaceOnUse" x1="99.6989974975586" y1="125.87999725341797" x2="89.70099639892578" y2="172.16200256347656"><stop offset="0%" stop-color="rgb(215,109,48)"></stop><stop offset="36%" stop-color="rgb(235,133,48)"></stop><stop offset="100%" stop-color="rgb(255,157,49)"></stop></linearGradient><linearGradient id="__lottie_element_64" spreadMethod="pad" gradientUnits="userSpaceOnUse" x1="101.6989974975586" y1="115.87999725341797" x2="93.48100280761719" y2="165.93899536132812"><stop offset="0%" stop-color="rgb(232,218,51)"></stop><stop offset="60%" stop-color="rgb(243,236,51)"></stop><stop offset="100%" stop-color="rgb(253,255,51)"></stop></linearGradient><radialGradient id="__lottie_element_68" spreadMethod="pad" gradientUnits="userSpaceOnUse" cx="-1.0509999990463257" cy="151.8800048828125" r="48.38864761652768" fx="-1.0509999990463257" fy="151.8800048828125"><stop offset="20%" stop-color="rgb(255,168,0)" stop-opacity="1"></stop><stop offset="68%" stop-color="rgb(255,168,0)" stop-opacity="0.5"></stop><stop offset="100%" stop-color="rgb(255,168,0)" stop-opacity="0"></stop></radialGradient></defs><g clip-path="url(#__lottie_element_2)"><g style="display: block;" transform="matrix(1,0,0,1,257,256)" opacity="1"><g opacity="1" transform="matrix(1,0,0,1,0,0)"><path fill="rgb(181,102,6)" fill-opacity="1" d=" M38.58599853515625,78.58499908447266 C38.58599853515625,78.58499908447266 -1.4900000095367432,81.62799835205078 -1.4900000095367432,81.62799835205078 C-1.4900000095367432,81.62799835205078 -41.566001892089844,78.58499908447266 -41.566001892089844,78.58499908447266 C-41.566001892089844,78.58499908447266 -42.551998138427734,123.38999938964844 -42.551998138427734,123.38999938964844 C-42.551998138427734,123.38999938964844 -23.69499969482422,139.18499755859375 -0.49000000953674316,139.18499755859375 C22.71500015258789,139.18499755859375 39.571998596191406,123.38999938964844 39.571998596191406,123.38999938964844 C39.571998596191406,123.38999938964844 38.58599853515625,78.58499908447266 38.58599853515625,78.58499908447266z"></path></g><g opacity="1" transform="matrix(1,0,0,1,0,0)"><path fill="url(#__lottie_element_68)" fill-opacity="1" d=" M39.58599853515625,78.58499908447266 C39.58599853515625,78.58499908447266 -0.49000000953674316,81.62799835205078 -0.49000000953674316,81.62799835205078 C-0.49000000953674316,81.62799835205078 -40.566001892089844,78.58499908447266 -40.566001892089844,78.58499908447266 C-40.566001892089844,78.58499908447266 -41.551998138427734,123.38999938964844 -41.551998138427734,123.38999938964844 C-41.551998138427734,123.38999938964844 -23.69499969482422,139.18499755859375 -0.49000000953674316,139.18499755859375 C22.71500015258789,139.18499755859375 40.571998596191406,123.38999938964844 40.571998596191406,123.38999938964844 C40.571998596191406,123.38999938964844 39.58599853515625,78.58499908447266 39.58599853515625,78.58499908447266z"></path></g><g opacity="1" transform="matrix(1,0,0,1,0,0)"><path stroke-linecap="round" stroke-linejoin="round" fill-opacity="0" stroke="rgb(153,71,4)" stroke-opacity="1" stroke-width="8" d=" M39.571998596191406,120.38999938964844 C39.571998596191406,120.38999938964844 38.58599853515625,78.58499908447266 38.58599853515625,78.58499908447266 C38.58599853515625,78.58499908447266 -1.4900000095367432,81.62799835205078 -1.4900000095367432,81.62799835205078 C-1.4900000095367432,81.62799835205078 -41.566001892089844,78.58499908447266 -41.566001892089844,78.58499908447266 C-41.566001892089844,78.58499908447266 -42.551998138427734,120.38999938964844 -42.551998138427734,120.38999938964844"></path></g></g><g style="display: block;" transform="matrix(1,0,0,1,256,256)" opacity="1"><g opacity="1" transform="matrix(1,0,0,1,0,0)"><g opacity="1" transform="matrix(1,0,0,1,0,0)"><path fill="url(#__lottie_element_60)" fill-opacity="1" d=" M130.17799377441406,144.37399291992188 C130.17799377441406,144.37399291992188 80.98200225830078,111.83599853515625 48.02199935913086,104.38500213623047 C48.02199935913086,104.38500213623047 46.724998474121094,138.43699645996094 -0.49000000953674316,138.43699645996094 C-47.70500183105469,138.43699645996094 -49.000999450683594,104.38500213623047 -49.000999450683594,104.38500213623047 C-81.96199798583984,111.83599853515625 -131.15699768066406,144.37399291992188 -131.15699768066406,144.37399291992188 C-149.13499450683594,173.26400756835938 -150.39199829101562,215.55799865722656 -150.39199829101562,215.55799865722656 C-150.39199829101562,215.55799865722656 -0.49000000953674316,215.55799865722656 -0.49000000953674316,215.55799865722656 C-0.49000000953674316,215.55799865722656 149.41299438476562,215.55799865722656 149.41299438476562,215.55799865722656 C149.41299438476562,215.55799865722656 148.156005859375,173.26400756835938 130.17799377441406,144.37399291992188z"></path></g><g opacity="1" transform="matrix(1,0,0,1,0,0)"><path fill="rgb(59,71,83)" fill-opacity="1" d=" M-53.249000549316406,106.02999877929688 C-53.249000549316406,106.02999877929688 -41.39699935913086,159.33799743652344 -22.768999099731445,215.56100463867188 C-22.768999099731445,215.56100463867188 -50.400001525878906,215.56100463867188 -50.400001525878906,215.56100463867188 C-50.400001525878906,215.56100463867188 -69.98500061035156,110.41799926757812 -69.98500061035156,110.41799926757812 C-69.98500061035156,110.41799926757812 -53.249000549316406,106.02999877929688 -53.249000549316406,106.02999877929688z"></path></g><g opacity="1" transform="matrix(1,0,0,1,0,0)"><path fill="rgb(59,71,83)" fill-opacity="1" d=" M52.305999755859375,106.02999877929688 C52.305999755859375,106.02999877929688 40.45399856567383,159.33799743652344 21.826000213623047,215.56100463867188 C21.826000213623047,215.56100463867188 49.457000732421875,215.56100463867188 49.457000732421875,215.56100463867188 C49.457000732421875,215.56100463867188 69.04199981689453,110.41799926757812 69.04199981689453,110.41799926757812 C69.04199981689453,110.41799926757812 52.305999755859375,106.02999877929688 52.305999755859375,106.02999877929688z"></path></g><g opacity="1" transform="matrix(1,0,0,1,0,0)"><path fill="rgb(11,113,182)" fill-opacity="0.4" d=" M149.6820068359375,215.55799865722656 C149.6820068359375,215.55799865722656 127.90799713134766,215.56100463867188 127.90799713134766,215.56100463867188 C127.90799713134766,215.56100463867188 129.61700439453125,148.03799438476562 129.61700439453125,148.03799438476562 C129.61700439453125,148.03799438476562 133.9429931640625,148.49400329589844 133.9429931640625,148.49400329589844 C133.9429931640625,148.49400329589844 149.51199340820312,181.9980010986328 149.6820068359375,215.55799865722656z"></path></g><g opacity="1" transform="matrix(1,0,0,1,0,0)"><path fill="rgb(11,113,182)" fill-opacity="0.4" d=" M-150.39199829101562,215.55799865722656 C-150.39199829101562,215.55799865722656 -128.61900329589844,215.56100463867188 -128.61900329589844,215.56100463867188 C-128.61900329589844,215.56100463867188 -130.32699584960938,148.03799438476562 -130.32699584960938,148.03799438476562 C-130.32699584960938,148.03799438476562 -134.6540069580078,148.49400329589844 -134.6540069580078,148.49400329589844 C-134.6540069580078,148.49400329589844 -150.2220001220703,181.9980010986328 -150.39199829101562,215.55799865722656z"></path></g><g opacity="1" transform="matrix(1,0,0,1,0,0)"><path fill="rgb(59,71,83)" fill-opacity="1" d=" M-139.4499969482422,152.87399291992188 C-139.4499969482422,152.87399291992188 -142.0019989013672,183.1490020751953 -139.39999389648438,215.62600708007812 C-139.39999389648438,215.62600708007812 -121.96499633789062,215.6230010986328 -121.96499633789062,215.6230010986328 C-121.96499633789062,215.6230010986328 -133.177001953125,154.23399353027344 -133.177001953125,154.23399353027344 C-133.177001953125,154.23399353027344 -139.4499969482422,152.87399291992188 -139.4499969482422,152.87399291992188z"></path></g><g opacity="1" transform="matrix(1,0,0,1,0,0)"><path fill="rgb(59,71,83)" fill-opacity="1" d=" M138.6750030517578,152.80999755859375 C138.6750030517578,152.80999755859375 141.22799682617188,183.08399963378906 138.62600708007812,215.56100463867188 C138.62600708007812,215.56100463867188 121.19100189208984,215.55799865722656 121.19100189208984,215.55799865722656 C121.19100189208984,215.55799865722656 132.4029998779297,154.16900634765625 132.4029998779297,154.16900634765625 C132.4029998779297,154.16900634765625 138.6750030517578,152.80999755859375 138.6750030517578,152.80999755859375z"></path></g><g opacity="1" transform="matrix(1,0,0,1,0,0)"><path stroke-linecap="round" stroke-linejoin="round" fill-opacity="0" stroke="rgb(55,132,195)" stroke-opacity="1" stroke-width="8" d=" M149.41299438476562,211.55799865722656 C149.41299438476562,211.55799865722656 148.156005859375,173.26400756835938 130.17799377441406,144.37399291992188 C130.17799377441406,144.37399291992188 80.98200225830078,111.83599853515625 48.02199935913086,104.38500213623047 C48.02199935913086,104.38500213623047 46.724998474121094,138.43699645996094 -0.49000000953674316,138.43699645996094 C-47.70500183105469,138.43699645996094 -49.000999450683594,104.38500213623047 -49.000999450683594,104.38500213623047 C-81.96199798583984,111.83599853515625 -131.15699768066406,144.37399291992188 -131.15699768066406,144.37399291992188 C-149.13499450683594,173.26400756835938 -150.39199829101562,211.55799865722656 -150.39199829101562,211.55799865722656"></path></g><g opacity="1" transform="matrix(1,0,0,1,0,0)"><path stroke-linecap="round" stroke-linejoin="round" fill-opacity="0" stroke="rgb(11,113,182)" stroke-opacity="1" stroke-width="8" d=" M-131.15699768066406,144.37399291992188 C-149.13499450683594,173.26400756835938 -150.39199829101562,211.55799865722656 -150.39199829101562,211.55799865722656"></path></g><g opacity="1" transform="matrix(1,0,0,1,0,0)"><path stroke-linecap="round" stroke-linejoin="round" fill-opacity="0" stroke="rgb(11,113,182)" stroke-opacity="1" stroke-width="8" d=" M149.41299438476562,211.55799865722656 C149.41299438476562,211.55799865722656 148.156005859375,173.26400756835938 130.17799377441406,144.37399291992188"></path></g></g><g opacity="1" transform="matrix(-1,0,0,1,-1.00799560546875,0)"><g opacity="1" transform="matrix(1,0,0,1,0,0)"><path fill="url(#__lottie_element_61)" fill-opacity="1" d=" M37.49800109863281,215.55799865722656 C37.49800109863281,215.55799865722656 51.28900146484375,166.36599731445312 64.53500366210938,107.11900329589844 C64.53500366210938,107.11900329589844 102.83899688720703,117.60600280761719 130.04600524902344,139.0850067138672 C130.04600524902344,139.0850067138672 131.1199951171875,169.10499572753906 128.25599670410156,215.55799865722656"></path></g><g opacity="1" transform="matrix(1,0,0,1,0,0)"><path fill="url(#__lottie_element_62)" fill-opacity="1" d=" M89.03800201416016,115.0270004272461 C89.03800201416016,115.0270004272461 82.27100372314453,159.6020050048828 69.0479965209961,215.55799865722656 C69.0479965209961,215.55799865722656 99.93800354003906,215.55799865722656 99.93800354003906,215.55799865722656 C99.93800354003906,215.55799865722656 107.74400329589844,175.36700439453125 111.77899932861328,125.82599639892578 C111.77899932861328,125.82599639892578 89.03800201416016,115.0270004272461 89.03800201416016,115.0270004272461z"></path></g><g opacity="1" transform="matrix(1,0,0,1,0,0)"><path stroke-linecap="round" stroke-linejoin="round" fill-opacity="0" stroke="rgb(255,255,255)" stroke-opacity="0.3" stroke-width="8" d=" M130.052001953125,146.33799743652344 C130.052001953125,146.33799743652344 101.04399871826172,122.3479995727539 62.90800094604492,114.31500244140625"></path></g><g opacity="1" transform="matrix(1,0,0,1,0,0)"><path stroke-linecap="round" stroke-linejoin="round" fill-opacity="0" stroke="rgb(201,82,0)" stroke-opacity="1" stroke-width="8" d=" M37.49800109863281,211.55799865722656 C37.49800109863281,211.55799865722656 51.28900146484375,166.36599731445312 64.53500366210938,107.11900329589844 C64.53500366210938,107.11900329589844 102.83899688720703,117.60600280761719 130.04600524902344,139.0850067138672 C130.04600524902344,139.0850067138672 131.1199951171875,165.10499572753906 128.25599670410156,211.55799865722656"></path></g><g opacity="1" transform="matrix(1,0,0,1,0,0)"><path stroke-linecap="round" stroke-linejoin="round" fill-opacity="0" stroke="rgb(180,70,0)" stroke-opacity="1" stroke-width="8" d=" M64.53500366210938,107.11900329589844 C64.53500366210938,107.11900329589844 102.83899688720703,117.60600280761719 130.04600524902344,139.0850067138672"></path></g><g opacity="1" transform="matrix(1,0,0,1,0,0)"><path stroke-linecap="butt" stroke-linejoin="round" fill-opacity="0" stroke="rgb(215,180,0)" stroke-opacity="1" stroke-width="8" d=" M89.63200378417969,116.10399627685547 C96.47599792480469,118.99299621582031 104.10399627685547,122.58399963378906 111.69200134277344,126.88700103759766 C111.69200134277344,126.88700103759766 113.37100219726562,127.85199737548828 113.37100219726562,127.85199737548828"></path></g></g><g opacity="1" transform="matrix(1,0,0,1,0,0)"><g opacity="1" transform="matrix(1,0,0,1,0,0)"><path fill="url(#__lottie_element_63)" fill-opacity="1" d=" M37.49800109863281,215.55799865722656 C37.49800109863281,215.55799865722656 51.28900146484375,166.36599731445312 64.53500366210938,107.11900329589844 C64.53500366210938,107.11900329589844 102.83899688720703,117.60600280761719 130.04600524902344,139.0850067138672 C130.04600524902344,139.0850067138672 131.1199951171875,169.10499572753906 128.25599670410156,215.55799865722656"></path></g><g opacity="1" transform="matrix(1,0,0,1,0,0)"><path fill="url(#__lottie_element_64)" fill-opacity="1" d=" M89.03800201416016,115.0270004272461 C89.03800201416016,115.0270004272461 82.27100372314453,159.6020050048828 69.0479965209961,215.55799865722656 C69.0479965209961,215.55799865722656 99.93800354003906,215.55799865722656 99.93800354003906,215.55799865722656 C99.93800354003906,215.55799865722656 107.74400329589844,175.36700439453125 111.77899932861328,125.82599639892578 C111.77899932861328,125.82599639892578 89.03800201416016,115.0270004272461 89.03800201416016,115.0270004272461z"></path></g><g opacity="1" transform="matrix(1,0,0,1,0,0)"><path stroke-linecap="round" stroke-linejoin="round" fill-opacity="0" stroke="rgb(255,255,255)" stroke-opacity="0.3" stroke-width="8" d=" M130.052001953125,146.33799743652344 C130.052001953125,146.33799743652344 101.04399871826172,122.3479995727539 62.90800094604492,114.31500244140625"></path></g><g opacity="1" transform="matrix(1,0,0,1,0,0)"><path stroke-linecap="round" stroke-linejoin="round" fill-opacity="0" stroke="rgb(201,82,0)" stroke-opacity="1" stroke-width="8" d=" M37.49800109863281,211.55799865722656 C37.49800109863281,211.55799865722656 51.28900146484375,166.36599731445312 64.53500366210938,107.11900329589844 C64.53500366210938,107.11900329589844 102.83899688720703,117.60600280761719 130.04600524902344,139.0850067138672 C130.04600524902344,139.0850067138672 131.1199951171875,165.10499572753906 128.25599670410156,211.55799865722656"></path></g><g opacity="1" transform="matrix(1,0,0,1,0,0)"><path stroke-linecap="round" stroke-linejoin="round" fill-opacity="0" stroke="rgb(180,70,0)" stroke-opacity="1" stroke-width="8" d=" M64.53500366210938,107.11900329589844 C64.53500366210938,107.11900329589844 102.83899688720703,117.60600280761719 130.04600524902344,139.0850067138672"></path></g><g opacity="1" transform="matrix(1,0,0,1,0,0)"><path stroke-linecap="butt" stroke-linejoin="round" fill-opacity="0" stroke="rgb(215,180,0)" stroke-opacity="1" stroke-width="8" d=" M89.63200378417969,116.10399627685547 C96.47599792480469,118.99299621582031 104.10399627685547,122.58399963378906 111.69200134277344,126.88700103759766 C111.69200134277344,126.88700103759766 113.37100219726562,127.85199737548828 113.37100219726562,127.85199737548828"></path></g></g></g><g style="display: block;" transform="matrix(1,0,0,1,-32.876007080078125,268)" opacity="1"><g opacity="1" transform="matrix(1,0,0,1,0,0)"><g opacity="1" transform="matrix(1,0,0,1,0,0)"><path fill="rgb(159,84,2)" fill-opacity="1" d=" M371.32501220703125,-25.389999389648438 C345.22100830078125,-29.867000579833984 232.531005859375,-29.867000579833984 206.427001953125,-25.389999389648438 C197.47799682617188,11.052000045776367 188.69700622558594,65.37000274658203 148.83900451660156,70.70600128173828 C175.47300720214844,101.79900360107422 251.94200134277344,64.5989990234375 288.8760070800781,62.974998474121094 C325.80999755859375,64.5989990234375 402.2799987792969,101.79900360107422 428.91400146484375,70.70600128173828 C389.0559997558594,65.37000274658203 380.27398681640625,11.052000045776367 371.32501220703125,-25.389999389648438z"></path></g><g opacity="1" transform="matrix(1,0,0,1,0,0)"><path fill="url(#__lottie_element_53)" fill-opacity="1" d=" M148.83900451660156,70.70600128173828 C170.2449951171875,100.177001953125 265.7669982910156,64.2509994506836 290.9119873046875,63.0099983215332 C291.3080139160156,50.1349983215332 239.91900634765625,-28.878000259399414 206.427001953125,-25.389999389648438 C200.5290069580078,5.583000183105469 187.44400024414062,63.20399856567383 148.83900451660156,70.70600128173828z"></path></g><g opacity="1" transform="matrix(1,0,0,1,0,0)"><path fill="url(#__lottie_element_54)" fill-opacity="1" d=" M428.91400146484375,70.70600128173828 C407.50799560546875,100.177001953125 311.9849853515625,64.2509994506836 286.8399963378906,63.0099983215332 C286.4440002441406,50.1349983215332 337.8330078125,-28.878000259399414 371.32501220703125,-25.389999389648438 C377.2229919433594,5.583000183105469 390.3089904785156,63.20399856567383 428.91400146484375,70.70600128173828z"></path></g><g opacity="1" transform="matrix(1,0,0,1,0,0)"><path stroke-linecap="round" stroke-linejoin="round" fill-opacity="0" stroke="rgb(163,65,0)" stroke-opacity="1" stroke-width="8" d=" M429.0880126953125,70.18000030517578 C391.52899169921875,62.645999908447266 377.2229919433594,11.861000061035156 371.32501220703125,-25.389999389648438 C344.39801025390625,-34.39500045776367 233.35400390625,-34.39500045776367 206.427001953125,-25.389999389648438 C200.5290069580078,11.861000061035156 186.22300720214844,62.645999908447266 148.66400146484375,70.18000030517578 C182.14300537109375,102.06700134277344 242.95399475097656,65.57099914550781 288.8760070800781,63.09600067138672 C334.7980041503906,65.57099914550781 395.6090087890625,102.06700134277344 429.0880126953125,70.18000030517578z"></path></g></g><g opacity="1" transform="matrix(1,0,0,1,0,0)"><g opacity="1" transform="matrix(1,0,0,1,0,0)"><path fill="rgb(255,205,0)" fill-opacity="1" d=" M397.1260070800781,-18.274999618530273 C397.1260070800781,-18.274999618530273 385.6260070800781,32.375 418.48199462890625,50.319000244140625 C414.7510070800781,57.5 404.7749938964844,53.683998107910156 401.7409973144531,50.02299880981445 C401.7409973144531,50.02299880981445 409.3590087890625,66.27400207519531 429.0880126953125,70.18000030517578 C413.9020080566406,83.64299774169922 379.885009765625,62.92399978637695 377.2239990234375,11.861000061035156 C377.2239990234375,11.861000061035156 397.1260070800781,-18.274999618530273 397.1260070800781,-18.274999618530273z"></path></g><g opacity="1" transform="matrix(1,0,0,1,0,0)"><path fill="url(#__lottie_element_55)" fill-opacity="1" d=" M397.1260070800781,-18.274999618530273 C397.1260070800781,-18.274999618530273 388.5010070800781,35.125 418.48199462890625,50.319000244140625 C414.2510070800781,57.5 404.7749938964844,53.683998107910156 401.7409973144531,50.02299880981445 C401.7409973144531,50.02299880981445 409.3590087890625,66.27400207519531 429.0880126953125,70.18000030517578 C413.9020080566406,83.64299774169922 379.885009765625,62.92399978637695 377.2239990234375,11.861000061035156 C377.2239990234375,11.861000061035156 397.1260070800781,-18.274999618530273 397.1260070800781,-18.274999618530273z"></path></g><g opacity="1" transform="matrix(1,0,0,1,0,0)"><path stroke-linecap="round" stroke-linejoin="round" fill-opacity="0" stroke="rgb(197,92,0)" stroke-opacity="1" stroke-width="8" d=" M397.1260070800781,-18.274999618530273 C397.1260070800781,-18.274999618530273 390.1260070800781,36.5 418.48199462890625,50.319000244140625 C411.3760070800781,58.375 404.7749938964844,53.683998107910156 401.7409973144531,50.02299880981445 C401.7409973144531,50.02299880981445 409.3590087890625,66.27400207519531 429.0880126953125,70.18000030517578 C409.3760070800781,88.625 379.885009765625,62.92399978637695 377.2239990234375,11.861000061035156 C377.2239990234375,11.861000061035156 397.1260070800781,-18.274999618530273 397.1260070800781,-18.274999618530273z"></path></g><g opacity="1" transform="matrix(1,0,0,1,0,0)"><path stroke-linecap="round" stroke-linejoin="round" fill-opacity="0" stroke="rgb(163,65,0)" stroke-opacity="1" stroke-width="8" d=" M429.0880126953125,70.18000030517578 C409.5010070800781,88.875 379.885009765625,62.92499923706055 377.2239990234375,11.861000061035156"></path></g></g><g opacity="1" transform="matrix(-1,0,0,1,577.75,0)"><g opacity="1" transform="matrix(1,0,0,1,0,0)"><path fill="rgb(255,205,0)" fill-opacity="1" d=" M397.1260070800781,-18.274999618530273 C397.1260070800781,-18.274999618530273 385.6260070800781,32.375 418.48199462890625,50.319000244140625 C414.7510070800781,57.5 404.7749938964844,53.683998107910156 401.7409973144531,50.02299880981445 C401.7409973144531,50.02299880981445 409.3590087890625,66.27400207519531 429.0880126953125,70.18000030517578 C413.9020080566406,83.64299774169922 379.885009765625,62.92399978637695 377.2239990234375,11.861000061035156 C377.2239990234375,11.861000061035156 397.1260070800781,-18.274999618530273 397.1260070800781,-18.274999618530273z"></path></g><g opacity="1" transform="matrix(1,0,0,1,0,0)"><path fill="url(#__lottie_element_56)" fill-opacity="1" d=" M397.1260070800781,-18.274999618530273 C397.1260070800781,-18.274999618530273 388.5010070800781,35.125 418.48199462890625,50.319000244140625 C414.2510070800781,57.5 404.7749938964844,53.683998107910156 401.7409973144531,50.02299880981445 C401.7409973144531,50.02299880981445 409.3590087890625,66.27400207519531 429.0880126953125,70.18000030517578 C413.9020080566406,83.64299774169922 379.885009765625,62.92399978637695 377.2239990234375,11.861000061035156 C377.2239990234375,11.861000061035156 397.1260070800781,-18.274999618530273 397.1260070800781,-18.274999618530273z"></path></g><g opacity="1" transform="matrix(1,0,0,1,0,0)"><path stroke-linecap="round" stroke-linejoin="round" fill-opacity="0" stroke="rgb(197,92,0)" stroke-opacity="1" stroke-width="8" d=" M397.1260070800781,-18.274999618530273 C397.1260070800781,-18.274999618530273 390.1260070800781,36.5 418.48199462890625,50.319000244140625 C411.3760070800781,58.375 404.7749938964844,53.683998107910156 401.7409973144531,50.02299880981445 C401.7409973144531,50.02299880981445 409.3590087890625,66.27400207519531 429.0880126953125,70.18000030517578 C409.3760070800781,88.625 379.885009765625,62.92399978637695 377.2239990234375,11.861000061035156 C377.2239990234375,11.861000061035156 397.1260070800781,-18.274999618530273 397.1260070800781,-18.274999618530273z"></path></g><g opacity="1" transform="matrix(1,0,0,1,0,0)"><path stroke-linecap="round" stroke-linejoin="round" fill-opacity="0" stroke="rgb(163,65,0)" stroke-opacity="1" stroke-width="8" d=" M429.0880126953125,70.18000030517578 C409.5010070800781,88.875 379.885009765625,62.92499923706055 377.2239990234375,11.861000061035156"></path></g></g></g><g style="display: block;" transform="matrix(0.9624437093734741,0,0,0.9624437093734741,253.2885284423828,250.37364196777344)" opacity="1"><g opacity="1" transform="matrix(1,0,0,1,0,0)"><path fill="rgb(255,168,0)" fill-opacity="1" d=" M-111.76699829101562,-40.81399917602539 C-111.76699829101562,-40.81399917602539 -123.31199645996094,-40.88199996948242 -125.0739974975586,-25.385000228881836 C-126.44200134277344,-13.348999977111816 -118.99199676513672,25.340999603271484 -103.51300048828125,22.10300064086914 C-82.83899688720703,17.77899932861328 -100.07499694824219,-43.775001525878906 -111.76699829101562,-40.81399917602539z"></path><path stroke-linecap="round" stroke-linejoin="round" fill-opacity="0" stroke="rgb(219,110,0)" stroke-opacity="1" stroke-width="8" d=" M-111.76699829101562,-40.81399917602539 C-111.76699829101562,-40.81399917602539 -123.31199645996094,-40.88199996948242 -125.0739974975586,-25.385000228881836 C-126.44200134277344,-13.348999977111816 -118.99199676513672,25.340999603271484 -103.51300048828125,22.10300064086914 C-82.83899688720703,17.77899932861328 -100.07499694824219,-43.775001525878906 -111.76699829101562,-40.81399917602539z"></path></g><g opacity="1" transform="matrix(1,0,0,1,0,0)"><path fill="rgb(255,168,0)" fill-opacity="1" d=" M118.69300079345703,-40.79899978637695 C118.69300079345703,-40.79899978637695 130.23800659179688,-40.86600112915039 132,-25.368999481201172 C133.3679962158203,-13.333000183105469 126.0199966430664,24.823999404907227 110.43900299072266,22.118999481201172 C91.26899719238281,18.790000915527344 105.34100341796875,-41.678001403808594 118.69300079345703,-40.79899978637695z"></path><path stroke-linecap="round" stroke-linejoin="round" fill-opacity="0" stroke="rgb(219,110,0)" stroke-opacity="1" stroke-width="8" d=" M118.69300079345703,-40.79899978637695 C118.69300079345703,-40.79899978637695 130.23800659179688,-40.86600112915039 132,-25.368999481201172 C133.3679962158203,-13.333000183105469 126.0199966430664,24.823999404907227 110.43900299072266,22.118999481201172 C91.26899719238281,18.790000915527344 105.34100341796875,-41.678001403808594 118.69300079345703,-40.79899978637695z"></path></g></g><g style="display: block;" transform="matrix(0.9700000286102295,0,0,0.9700000286102295,253.52134704589844,249.40997314453125)" opacity="1"><g opacity="1" transform="matrix(1,0,0,1,0,0)"><path fill="rgb(255,168,0)" fill-opacity="1" d=" M94.2020034790039,-122.3010025024414 C73.04199981689453,-151.68899536132812 -66.4530029296875,-151.68899536132812 -87.61199951171875,-122.3010025024414 C-108.77200317382812,-92.91300201416016 -126.40399932861328,-24.381000518798828 -98.77899932861328,33.220001220703125 C-71.15499877929688,90.82099914550781 -24.485000610351562,109.04000091552734 3.2950000762939453,109.04000091552734 C31.075000762939453,109.04000091552734 77.74400329589844,90.82099914550781 105.36900329589844,33.220001220703125 C132.9929962158203,-24.381000518798828 115.36100006103516,-92.91300201416016 94.2020034790039,-122.3010025024414z"></path></g><g opacity="1" transform="matrix(1,0,0,1,0,0)"><path fill="url(#__lottie_element_16)" fill-opacity="1" d=" M90.0479965209961,-62.39899826049805 C81.99600219726562,-71.97699737548828 50.84199905395508,-89.69300079345703 -2.2009999752044678,-89.73400115966797 C-47.000999450683594,-89.76899719238281 -74.26499938964844,-68.22200012207031 -82.61499786376953,-59.064998626708984 C-98.4469985961914,-41.70199966430664 -101.28500366210938,3.552999973297119 -78.7969970703125,40.887001037597656 C-56.310001373291016,78.22100067138672 -19.319000244140625,91.02899932861328 3.2950000762939453,91.02899932861328 C25.909000396728516,91.02899932861328 62.89899826049805,78.22100067138672 85.38700103759766,40.887001037597656 C107.8740005493164,3.552999973297119 106.71900177001953,-42.56800079345703 90.0479965209961,-62.39899826049805z"></path></g><g opacity="1" transform="matrix(1,0,0,1,0,0)"><path stroke-linecap="round" stroke-linejoin="round" fill-opacity="0" stroke="rgb(219,110,0)" stroke-opacity="1" stroke-width="8" d=" M-109.58200073242188,1.1490000486373901 C-107.30000305175781,12 -103.78199768066406,22.788999557495117 -98.77899932861328,33.220001220703125 C-71.15499877929688,90.82099914550781 -24.485000610351562,109.04000091552734 3.2950000762939453,109.04000091552734 C31.075000762939453,109.04000091552734 77.74400329589844,90.82099914550781 105.36900329589844,33.220001220703125 C132.9929962158203,-24.381000518798828 115.36100006103516,-92.91300201416016 94.2020034790039,-122.3010025024414 C94.2020034790039,-122.3010025024414 94.2020034790039,-122.3010025024414 94.2020034790039,-122.3010025024414 C73.04199981689453,-151.68899536132812 -66.4530029296875,-151.68899536132812 -87.61199951171875,-122.3010025024414 C-104.94000244140625,-98.23500061035156 -119.9020004272461,-47.917999267578125 -109.58200073242188,1.1490000486373901"></path></g><g opacity="1" transform="matrix(1,0,0,1,0,0)"><path fill="url(#__lottie_element_17)" fill-opacity="1" d=" M94.2020034790039,-122.3010025024414 C73.04199981689453,-151.68899536132812 -66.4530029296875,-151.68899536132812 -87.61199951171875,-122.3010025024414 C-108.77200317382812,-92.91300201416016 -126.40399932861328,-24.381000518798828 -98.77899932861328,33.220001220703125 C-71.15499877929688,90.82099914550781 -24.485000610351562,109.04000091552734 3.2950000762939453,109.04000091552734 C31.075000762939453,109.04000091552734 77.74400329589844,90.82099914550781 105.36900329589844,33.220001220703125 C132.9929962158203,-24.381000518798828 115.36100006103516,-92.91300201416016 94.2020034790039,-122.3010025024414z"></path></g></g><g style="display: block;" transform="matrix(0.9700000286102295,0,0,0.9700000286102295,254.42247009277344,252.84861755371094)" opacity="1"><g opacity="1" transform="matrix(1,0,0,1,0,0)"><path fill="rgb(163,65,0)" fill-opacity="1" d=" M-82.61499786376953,-59.064998626708984 C-82.61499786376953,-59.064998626708984 -70.59700012207031,-67.30799865722656 -56.33300018310547,-66.86299896240234 C-42.665000915527344,-66.43599700927734 -37.016998291015625,-61.26900100708008 -37.016998291015625,-61.26900100708008 C-37.016998291015625,-61.26900100708008 -41.569000244140625,-71.19200134277344 -56.33300018310547,-70.76200103759766 C-72.59700012207031,-70.28800201416016 -82.61499786376953,-59.064998626708984 -82.61499786376953,-59.064998626708984z"></path><path stroke-linecap="round" stroke-linejoin="round" fill-opacity="0" stroke="rgb(163,65,0)" stroke-opacity="1" stroke-width="2" d=" M-82.61499786376953,-59.064998626708984 C-82.61499786376953,-59.064998626708984 -70.59700012207031,-67.30799865722656 -56.33300018310547,-66.86299896240234 C-42.665000915527344,-66.43599700927734 -37.016998291015625,-61.26900100708008 -37.016998291015625,-61.26900100708008 C-37.016998291015625,-61.26900100708008 -41.569000244140625,-71.19200134277344 -56.33300018310547,-70.76200103759766 C-72.59700012207031,-70.28800201416016 -82.61499786376953,-59.064998626708984 -82.61499786376953,-59.064998626708984z"></path></g><g opacity="1" transform="matrix(1,0,0,1,0,0)"><path fill="rgb(163,65,0)" fill-opacity="1" d=" M89.11399841308594,-59.064998626708984 C89.11399841308594,-59.064998626708984 77.09600067138672,-67.30799865722656 62.832000732421875,-66.86299896240234 C49.16400146484375,-66.43599700927734 43.51599884033203,-61.26900100708008 43.51599884033203,-61.26900100708008 C43.51599884033203,-61.26900100708008 48.06800079345703,-71.19200134277344 62.832000732421875,-70.76200103759766 C79.09600067138672,-70.28800201416016 89.11399841308594,-59.064998626708984 89.11399841308594,-59.064998626708984z"></path><path stroke-linecap="round" stroke-linejoin="round" fill-opacity="0" stroke="rgb(163,65,0)" stroke-opacity="1" stroke-width="2" d=" M89.11399841308594,-59.064998626708984 C89.11399841308594,-59.064998626708984 77.09600067138672,-67.30799865722656 62.832000732421875,-66.86299896240234 C49.16400146484375,-66.43599700927734 43.51599884033203,-61.26900100708008 43.51599884033203,-61.26900100708008 C43.51599884033203,-61.26900100708008 48.06800079345703,-71.19200134277344 62.832000732421875,-70.76200103759766 C79.09600067138672,-70.28800201416016 89.11399841308594,-59.064998626708984 89.11399841308594,-59.064998626708984z"></path></g></g><g style="display: block;" transform="matrix(0.9700000286102295,0,0,0.9700000286102295,253.1284942626953,250.2965545654297)" opacity="1"><g opacity="1" transform="matrix(1,0,0,1,0,0)"><path fill="rgb(255,255,255)" fill-opacity="1" d=" M-21.80500030517578,-4.564000129699707 C-21.80500030517578,-4.564000129699707 -24.847000122070312,-40.37200164794922 -54.79399871826172,-43.60499954223633 C-85.95099639892578,-46.96900177001953 -91.3489990234375,-14.451000213623047 -91.3489990234375,-14.451000213623047 C-91.3489990234375,-14.451000213623047 -83.94100189208984,4.870999813079834 -59.84600067138672,7.513000011444092 C-32.98400115966797,10.458999633789062 -21.80500030517578,-4.564000129699707 -21.80500030517578,-4.564000129699707z"></path></g><g opacity="1" transform="matrix(1.159999966621399,0,0,1.203760027885437,-130.38043212890625,4.304893493652344)"><g opacity="1" transform="matrix(1,0,0,1,10.819000244140625,9.58899974822998)"><g opacity="1" transform="matrix(1,0,0,1,0,0)"><path fill="url(#__lottie_element_41)" fill-opacity="1" d=" M71.07599639892578,-29.082000732421875 C71.07599639892578,-19.634000778198242 63.38199996948242,-11.975000381469727 53.88999938964844,-11.975000381469727 C44.39799880981445,-11.975000381469727 36.702999114990234,-19.634000778198242 36.702999114990234,-29.082000732421875 C36.702999114990234,-38.529998779296875 44.39799880981445,-46.18899917602539 53.88999938964844,-46.18899917602539 C63.38199996948242,-46.18899917602539 71.07599639892578,-38.529998779296875 71.07599639892578,-29.082000732421875z"></path></g><g opacity="1" transform="matrix(1,0,0,1,0,0)"><g opacity="1" transform="matrix(1,0,0,1,0,0)"><path fill="url(#__lottie_element_42)" fill-opacity="1" d=" M58.51300048828125,-12.925000190734863 C57.209999084472656,-12.925000190734863 56.00299835205078,-13.767000198364258 55.5989990234375,-15.07699966430664 C55.10200119018555,-16.68600082397461 56.005001068115234,-18.39299964904785 57.6150016784668,-18.888999938964844 C60.69300079345703,-19.839000701904297 63.14400100708008,-22.229999542236328 64.16999816894531,-25.28700065612793 C64.70600128173828,-26.884000778198242 66.43800354003906,-27.743000030517578 68.03099822998047,-27.20800018310547 C69.62799835205078,-26.672000885009766 70.48799896240234,-24.94300079345703 69.9520034790039,-23.34600067138672 C68.3030014038086,-18.433000564575195 64.36299896240234,-14.588000297546387 59.4119987487793,-13.060999870300293 C59.112998962402344,-12.968999862670898 58.810001373291016,-12.925000190734863 58.51300048828125,-12.925000190734863z"></path></g></g><g opacity="1" transform="matrix(1,0,0,1,0,0)"><path fill="rgb(23,19,10)" fill-opacity="1" d=" M64.75199890136719,-29.082000732421875 C64.75199890136719,-23.111000061035156 59.888999938964844,-18.270000457763672 53.88999938964844,-18.270000457763672 C47.89099884033203,-18.270000457763672 43.02799987792969,-23.111000061035156 43.02799987792969,-29.082000732421875 C43.02799987792969,-35.053001403808594 47.89099884033203,-39.89400100708008 53.88999938964844,-39.89400100708008 C59.888999938964844,-39.89400100708008 64.75199890136719,-35.053001403808594 64.75199890136719,-29.082000732421875z"></path></g><g opacity="1" transform="matrix(1,0,0,1,0,0)"><path fill="url(#__lottie_element_43)" fill-opacity="1" d=" M52.926998138427734,-37.56100082397461 C52.926998138427734,-35.292999267578125 51.08100128173828,-33.45500183105469 48.803001403808594,-33.45500183105469 C46.525001525878906,-33.45500183105469 44.678001403808594,-35.292999267578125 44.678001403808594,-37.56100082397461 C44.678001403808594,-39.82899856567383 46.525001525878906,-41.66699981689453 48.803001403808594,-41.66699981689453 C51.08100128173828,-41.66699981689453 52.926998138427734,-39.82899856567383 52.926998138427734,-37.56100082397461z"></path></g></g></g><g opacity="1" transform="matrix(1,0,0,1,0,0)"><path fill="rgb(163,65,0)" fill-opacity="1" d=" M-21.80500030517578,-4.564000129699707 C-21.80500030517578,-4.564000129699707 -23.2450008392334,-41.53300094604492 -56.57699966430664,-44.7140007019043 C-70.26200103759766,-46.02000045776367 -81.85299682617188,-38.49100112915039 -86.86499786376953,-29.56599998474121 C-91.08499908447266,-22.051000595092773 -91.3489990234375,-14.451000213623047 -91.3489990234375,-14.451000213623047 C-91.3489990234375,-14.451000213623047 -88.2030029296875,-43.12200164794922 -57.650001525878906,-41.65599822998047 C-24.954999923706055,-40.08700180053711 -21.80500030517578,-4.564000129699707 -21.80500030517578,-4.564000129699707z"></path><path stroke-linecap="round" stroke-linejoin="round" fill-opacity="0" stroke="rgb(163,65,0)" stroke-opacity="1" stroke-width="2" d=" M-21.80500030517578,-4.564000129699707 C-21.80500030517578,-4.564000129699707 -23.2450008392334,-41.53300094604492 -56.57699966430664,-44.7140007019043 C-70.26200103759766,-46.02000045776367 -81.85299682617188,-38.49100112915039 -86.86499786376953,-29.56599998474121 C-91.08499908447266,-22.051000595092773 -91.3489990234375,-14.451000213623047 -91.3489990234375,-14.451000213623047 C-91.3489990234375,-14.451000213623047 -88.2030029296875,-43.12200164794922 -57.650001525878906,-41.65599822998047 C-24.954999923706055,-40.08700180053711 -21.80500030517578,-4.564000129699707 -21.80500030517578,-4.564000129699707z"></path></g></g><g style="display: block;" transform="matrix(0.9700000286102295,0,0,0.9700000286102295,253.12850952148438,250.2965545654297)" opacity="1"><g opacity="1" transform="matrix(1,0,0,1,0,0)"><path fill="rgb(255,255,255)" fill-opacity="1" d=" M29.624000549316406,-4.564000129699707 C29.624000549316406,-4.564000129699707 32.70600128173828,-40.01900100708008 62.612998962402344,-43.60499954223633 C93.79900360107422,-47.34400177001953 99.16899871826172,-14.451000213623047 99.16899871826172,-14.451000213623047 C99.16899871826172,-14.451000213623047 91.76100158691406,4.870999813079834 67.66600036621094,7.513000011444092 C40.80400085449219,10.458999633789062 29.624000549316406,-4.564000129699707 29.624000549316406,-4.564000129699707z"></path></g><g opacity="1" transform="matrix(1.159999966621399,0,0,1.203760027885437,-10.556442260742188,4.304893493652344)"><g opacity="1" transform="matrix(1,0,0,1,10.819000244140625,9.58899974822998)"><g opacity="1" transform="matrix(1,0,0,1,0,0)"><path fill="url(#__lottie_element_35)" fill-opacity="1" d=" M71.07599639892578,-29.082000732421875 C71.07599639892578,-19.634000778198242 63.38199996948242,-11.975000381469727 53.88999938964844,-11.975000381469727 C44.39799880981445,-11.975000381469727 36.702999114990234,-19.634000778198242 36.702999114990234,-29.082000732421875 C36.702999114990234,-38.529998779296875 44.39799880981445,-46.18899917602539 53.88999938964844,-46.18899917602539 C63.38199996948242,-46.18899917602539 71.07599639892578,-38.529998779296875 71.07599639892578,-29.082000732421875z"></path></g><g opacity="1" transform="matrix(1,0,0,1,0,0)"><g opacity="1" transform="matrix(1,0,0,1,0,0)"><path fill="url(#__lottie_element_36)" fill-opacity="1" d=" M58.51300048828125,-12.925000190734863 C57.209999084472656,-12.925000190734863 56.00299835205078,-13.767000198364258 55.5989990234375,-15.07699966430664 C55.10200119018555,-16.68600082397461 56.005001068115234,-18.39299964904785 57.6150016784668,-18.888999938964844 C60.69300079345703,-19.839000701904297 63.14400100708008,-22.229999542236328 64.16999816894531,-25.28700065612793 C64.70600128173828,-26.884000778198242 66.43800354003906,-27.743000030517578 68.03099822998047,-27.20800018310547 C69.62799835205078,-26.672000885009766 70.48799896240234,-24.94300079345703 69.9520034790039,-23.34600067138672 C68.3030014038086,-18.433000564575195 64.36299896240234,-14.588000297546387 59.4119987487793,-13.060999870300293 C59.112998962402344,-12.968999862670898 58.810001373291016,-12.925000190734863 58.51300048828125,-12.925000190734863z"></path></g></g><g opacity="1" transform="matrix(1,0,0,1,0,0)"><path fill="rgb(23,19,10)" fill-opacity="1" d=" M64.75199890136719,-29.082000732421875 C64.75199890136719,-23.111000061035156 59.888999938964844,-18.270000457763672 53.88999938964844,-18.270000457763672 C47.89099884033203,-18.270000457763672 43.02799987792969,-23.111000061035156 43.02799987792969,-29.082000732421875 C43.02799987792969,-35.053001403808594 47.89099884033203,-39.89400100708008 53.88999938964844,-39.89400100708008 C59.888999938964844,-39.89400100708008 64.75199890136719,-35.053001403808594 64.75199890136719,-29.082000732421875z"></path></g><g opacity="1" transform="matrix(1,0,0,1,0,0)"><path fill="url(#__lottie_element_37)" fill-opacity="1" d=" M52.926998138427734,-37.56100082397461 C52.926998138427734,-35.292999267578125 51.08100128173828,-33.45500183105469 48.803001403808594,-33.45500183105469 C46.525001525878906,-33.45500183105469 44.678001403808594,-35.292999267578125 44.678001403808594,-37.56100082397461 C44.678001403808594,-39.82899856567383 46.525001525878906,-41.66699981689453 48.803001403808594,-41.66699981689453 C51.08100128173828,-41.66699981689453 52.926998138427734,-39.82899856567383 52.926998138427734,-37.56100082397461z"></path></g></g></g><g opacity="1" transform="matrix(1,0,0,1,0,0)"><path fill="rgb(163,65,0)" fill-opacity="1" d=" M29.624000549316406,-4.564000129699707 C29.624000549316406,-4.564000129699707 31.065000534057617,-41.53300094604492 64.39700317382812,-44.7140007019043 C78.08200073242188,-46.02000045776367 89.67400360107422,-38.49100112915039 94.68499755859375,-29.56599998474121 C98.90499877929688,-22.051000595092773 99.16899871826172,-14.451000213623047 99.16899871826172,-14.451000213623047 C99.16899871826172,-14.451000213623047 96.02200317382812,-43.12200164794922 65.47000122070312,-41.65599822998047 C32.775001525878906,-40.08700180053711 29.624000549316406,-4.564000129699707 29.624000549316406,-4.564000129699707z"></path><path stroke-linecap="round" stroke-linejoin="round" fill-opacity="0" stroke="rgb(163,65,0)" stroke-opacity="1" stroke-width="2" d=" M29.624000549316406,-4.564000129699707 C29.624000549316406,-4.564000129699707 31.065000534057617,-41.53300094604492 64.39700317382812,-44.7140007019043 C78.08200073242188,-46.02000045776367 89.67400360107422,-38.49100112915039 94.68499755859375,-29.56599998474121 C98.90499877929688,-22.051000595092773 99.16899871826172,-14.451000213623047 99.16899871826172,-14.451000213623047 C99.16899871826172,-14.451000213623047 96.02200317382812,-43.12200164794922 65.47000122070312,-41.65599822998047 C32.775001525878906,-40.08700180053711 29.624000549316406,-4.564000129699707 29.624000549316406,-4.564000129699707z"></path></g></g><g style="display: block;" transform="matrix(0.7566776275634766,0,0,0.7451152205467224,258.2909240722656,213.10862731933594)" opacity="1"><g opacity="1" transform="matrix(1,0,0,1,0,0)"><path fill="url(#__lottie_element_28)" fill-opacity="1" d=" M20.55699920654297,103.68299865722656 C20.55699920654297,112.51599884033203 9.977999687194824,120.36799621582031 -1.5410000085830688,120.36799621582031 C-13.0600004196167,120.36799621582031 -23.638999938964844,112.51599884033203 -23.638999938964844,103.68299865722656 C-23.638999938964844,94.85099792480469 -13.0600004196167,86.75199890136719 -1.5410000085830688,86.75199890136719 C9.977999687194824,86.75199890136719 20.55699920654297,94.85099792480469 20.55699920654297,103.68299865722656z"></path></g><g opacity="1" transform="matrix(1,0,0,1,0,0)"><path fill="rgb(255,168,0)" fill-opacity="0.8" d=" M20.55699920654297,94.10800170898438 C20.55699920654297,102.94100189208984 10.663000106811523,109.47899627685547 -1.5410000085830688,109.47899627685547 C-13.746000289916992,109.47899627685547 -23.638999938964844,102.94100189208984 -23.638999938964844,94.10800170898438 C-23.638999938964844,85.2760009765625 -13.746000289916992,78.49199676513672 -1.5410000085830688,78.49199676513672 C10.663000106811523,78.49199676513672 20.55699920654297,85.2760009765625 20.55699920654297,94.10800170898438z"></path></g><g opacity="1" transform="matrix(1,0,0,1,0,0)"><path fill="url(#__lottie_element_29)" fill-opacity="1" d=" M20.55699920654297,94.10800170898438 C20.55699920654297,102.94100189208984 10.663000106811523,109.47899627685547 -1.5410000085830688,109.47899627685547 C-13.746000289916992,109.47899627685547 -23.638999938964844,102.94100189208984 -23.638999938964844,94.10800170898438 C-23.638999938964844,85.2760009765625 -13.746000289916992,78.49199676513672 -1.5410000085830688,78.49199676513672 C10.663000106811523,78.49199676513672 20.55699920654297,85.2760009765625 20.55699920654297,94.10800170898438z"></path></g><g opacity="1" transform="matrix(1,0,0,1,0,0)"><path fill="rgb(255,216,0)" fill-opacity="1" d=" M18.388999938964844,90.01699829101562 C18.388999938964844,96.59200286865234 11.600000381469727,102.87899780273438 -1.5410000085830688,102.87899780273438 C-14.861000061035156,102.87899780273438 -21.472000122070312,96.59200286865234 -21.472000122070312,90.01699829101562 C-21.472000122070312,83.44200134277344 -12.098999977111816,78.23400115966797 -1.5410000085830688,78.23400115966797 C9.017000198364258,78.23400115966797 18.388999938964844,83.44200134277344 18.388999938964844,90.01699829101562z"></path></g><g opacity="1" transform="matrix(1,0,0,1,0,0)"><path fill="url(#__lottie_element_30)" fill-opacity="1" d=" M18.388999938964844,90.01699829101562 C18.388999938964844,96.59200286865234 11.600000381469727,102.87899780273438 -1.5410000085830688,102.87899780273438 C-14.861000061035156,102.87899780273438 -21.472000122070312,96.59200286865234 -21.472000122070312,90.01699829101562 C-21.472000122070312,83.44200134277344 -12.098999977111816,78.23400115966797 -1.5410000085830688,78.23400115966797 C9.017000198364258,78.23400115966797 18.388999938964844,83.44200134277344 18.388999938964844,90.01699829101562z"></path></g><g opacity="1" transform="matrix(1,0,0,1,0,0)"><path fill="url(#__lottie_element_31)" fill-opacity="0.7000000000000001" d=" M9.892999649047852,84.93199920654297 C9.892999649047852,88.39299774169922 4.77400016784668,91.64900207519531 -1.5410000085830688,91.64900207519531 C-7.855999946594238,91.64900207519531 -12.97599983215332,88.39299774169922 -12.97599983215332,84.93199920654297 C-12.97599983215332,81.47100067138672 -7.855999946594238,79.73400115966797 -1.5410000085830688,79.73400115966797 C4.77400016784668,79.73400115966797 9.892999649047852,81.47100067138672 9.892999649047852,84.93199920654297z"></path></g></g><g style="display: block;" transform="matrix(0.9700000286102295,0,0,0.9700000286102295,253.37875366210938,250.2965545654297)" opacity="1"><g opacity="1" transform="matrix(1,0,0,1,0,0)"><path fill="rgb(75,37,2)" fill-opacity="1" d=" M40.82600021362305,63.077999114990234 C38.207000732421875,61.60499954223633 26.41900062561035,63.89699935913086 17.742000579833984,60.7859992980957 C9.0649995803833,57.67499923706055 7.10099983215332,62.077999114990234 3.990000009536743,62.077999114990234 C0.8799999952316284,62.077999114990234 -1.0839999914169312,57.67499923706055 -9.76099967956543,60.7859992980957 C-18.437999725341797,63.89699935913086 -30.225000381469727,61.60499954223633 -32.845001220703125,63.077999114990234 C-35.4640007019043,64.5510025024414 -17.5939998626709,81.55999755859375 3.990000009536743,81.55999755859375 C25.32200050354004,81.55999755859375 43.44599914550781,64.5510025024414 40.82600021362305,63.077999114990234z"></path></g><g opacity="1" transform="matrix(1,0,0,1,0,0)"><path fill="url(#__lottie_element_24)" fill-opacity="1" d=" M40.82600021362305,63.077999114990234 C38.207000732421875,61.60499954223633 26.41900062561035,63.89699935913086 17.742000579833984,60.7859992980957 C9.0649995803833,57.67499923706055 7.10099983215332,62.077999114990234 3.990000009536743,62.077999114990234 C0.8799999952316284,62.077999114990234 -1.0839999914169312,57.67499923706055 -9.76099967956543,60.7859992980957 C-18.437999725341797,63.89699935913086 -30.225000381469727,61.60499954223633 -32.845001220703125,63.077999114990234 C-35.4640007019043,64.5510025024414 -17.5939998626709,81.55999755859375 3.990000009536743,81.55999755859375 C25.32200050354004,81.55999755859375 43.44599914550781,64.5510025024414 40.82600021362305,63.077999114990234z"></path></g><g opacity="1" transform="matrix(1,0,0,1,0,0)"><path fill="rgb(23,19,11)" fill-opacity="1" d=" M-26.81399917602539,66.14399719238281 C-26.81399917602539,66.14399719238281 -17.420000076293945,68.375 -11.01200008392334,68.375 C-6.6620001792907715,68.375 -0.09399999678134918,70.68099975585938 3.990999937057495,70.68099975585938 C7.918000221252441,70.68099975585938 13.229999542236328,68.42400360107422 17.350000381469727,68.42400360107422 C25.785999298095703,68.42400360107422 34.20500183105469,66.14399719238281 34.20500183105469,66.14399719238281 C34.20500183105469,66.14399719238281 27.18899917602539,68.2490005493164 16.947999954223633,70.4000015258789 C13.312000274658203,71.16400146484375 8.270000457763672,73.0999984741211 3.990999937057495,73.0999984741211 C-1.093999981880188,73.0999984741211 -6.9019999504089355,70.95099639892578 -11.112000465393066,69.94499969482422 C-20.424999237060547,67.71900177001953 -26.81399917602539,66.14399719238281 -26.81399917602539,66.14399719238281z"></path><path stroke-linecap="round" stroke-linejoin="round" fill-opacity="0" stroke="rgb(23,19,11)" stroke-opacity="1" stroke-width="1" d=" M-26.81399917602539,66.14399719238281 C-26.81399917602539,66.14399719238281 -17.420000076293945,68.375 -11.01200008392334,68.375 C-6.6620001792907715,68.375 -0.09399999678134918,70.68099975585938 3.990999937057495,70.68099975585938 C7.918000221252441,70.68099975585938 13.229999542236328,68.42400360107422 17.350000381469727,68.42400360107422 C25.785999298095703,68.42400360107422 34.20500183105469,66.14399719238281 34.20500183105469,66.14399719238281 C34.20500183105469,66.14399719238281 27.18899917602539,68.2490005493164 16.947999954223633,70.4000015258789 C13.312000274658203,71.16400146484375 8.270000457763672,73.0999984741211 3.990999937057495,73.0999984741211 C-1.093999981880188,73.0999984741211 -6.9019999504089355,70.95099639892578 -11.112000465393066,69.94499969482422 C-20.424999237060547,67.71900177001953 -26.81399917602539,66.14399719238281 -26.81399917602539,66.14399719238281z"></path></g></g><g style="display: block;" transform="matrix(0.9748499989509583,0,0,0.9700000286102295,253.50527954101562,251.73797607421875)" opacity="1"><g opacity="1" transform="matrix(1,0,0,1,0,0)"><path fill="rgb(255,205,0)" fill-opacity="1" d=" M124.59600067138672,-104.1760025024414 C133.86300659179688,-61.055999755859375 121.5469970703125,-28.040000915527344 121.5469970703125,-28.040000915527344 C104.89600372314453,-117.88899993896484 6.626999855041504,-85.87300109863281 6.626999855041504,-85.87300109863281 C6.626999855041504,-85.87300109863281 0,-85.87300109863281 0,-85.87300109863281 C0,-85.87300109863281 -98.26899719238281,-117.88899993896484 -114.91999816894531,-28.040000915527344 C-114.91999816894531,-28.040000915527344 -127.23500061035156,-61.055999755859375 -117.96800231933594,-104.1760025024414 C-107.24500274658203,-154.0749969482422 113.87300109863281,-154.0749969482422 124.59600067138672,-104.1760025024414z"></path></g><g opacity="1" transform="matrix(1,0,0,1,0,0)"><path fill="url(#__lottie_element_20)" fill-opacity="1" d=" M124.59600067138672,-104.1760025024414 C133.86300659179688,-61.055999755859375 121.5469970703125,-28.040000915527344 121.5469970703125,-28.040000915527344 C104.89600372314453,-117.88899993896484 6.626999855041504,-85.87300109863281 6.626999855041504,-85.87300109863281 C6.626999855041504,-85.87300109863281 0,-85.87300109863281 0,-85.87300109863281 C0,-85.87300109863281 -98.26899719238281,-117.88899993896484 -114.91999816894531,-28.040000915527344 C-114.91999816894531,-28.040000915527344 -127.23500061035156,-61.055999755859375 -117.96800231933594,-104.1760025024414 C-107.24500274658203,-154.0749969482422 113.87300109863281,-154.0749969482422 124.59600067138672,-104.1760025024414z"></path></g><g opacity="1" transform="matrix(1,0,0,1,0,0)"><path stroke-linecap="round" stroke-linejoin="round" fill-opacity="0" stroke="rgb(163,65,0)" stroke-opacity="1" stroke-width="8" d=" M124.59600067138672,-104.1760025024414 C133.86300659179688,-61.055999755859375 121.5469970703125,-28.040000915527344 121.5469970703125,-28.040000915527344 C104.89600372314453,-117.88899993896484 6.626999855041504,-85.87300109863281 6.626999855041504,-85.87300109863281 C6.626999855041504,-85.87300109863281 0,-85.87300109863281 0,-85.87300109863281 C0,-85.87300109863281 -98.26899719238281,-117.88899993896484 -114.91999816894531,-28.040000915527344 C-114.91999816894531,-28.040000915527344 -127.23500061035156,-61.055999755859375 -117.96800231933594,-104.1760025024414 C-107.24500274658203,-154.0749969482422 113.87300109863281,-154.0749969482422 124.59600067138672,-104.1760025024414z"></path></g></g><g style="display: block;" transform="matrix(0.9900000095367432,0,0,0.9900000095367432,256.9922180175781,254.60816955566406)" opacity="1"><g opacity="1" transform="matrix(1,0,0,1,0,0)"><path fill="url(#__lottie_element_6)" fill-opacity="1" d=" M38.75699996948242,-210.8820037841797 C38.75699996948242,-210.8820037841797 27.895999908447266,-221.5050048828125 -0.6269999742507935,-221.5050048828125 C-29.149999618530273,-221.5050048828125 -41.012001037597656,-210.8820037841797 -41.012001037597656,-210.8820037841797 C-60.02399826049805,-211.38699340820312 -104.9260025024414,-169.94900512695312 -104.9260025024414,-153.08700561523438 C-104.9260025024414,-136.22500610351562 -104.9260025024414,-99.02100372314453 -104.9260025024414,-99.02100372314453 C-104.9260025024414,-99.02100372314453 -0.6269999742507935,-89.73300170898438 -0.6269999742507935,-89.73300170898438 C-0.6269999742507935,-89.73300170898438 103.6709976196289,-99.02100372314453 103.6709976196289,-99.02100372314453 C103.6709976196289,-99.02100372314453 103.6709976196289,-136.22500610351562 103.6709976196289,-153.08700561523438 C103.6709976196289,-169.94900512695312 57.76900100708008,-211.38699340820312 38.75699996948242,-210.8820037841797z"></path></g><g opacity="1" transform="matrix(1,0,0,1,0,0)"><path fill="url(#__lottie_element_7)" fill-opacity="0.3" d=" M38.75699996948242,-100.7699966430664 C38.75699996948242,-100.7699966430664 -41.012001037597656,-100.7699966430664 -41.012001037597656,-100.7699966430664 C-41.012001037597656,-100.7699966430664 -41.012001037597656,-165.6300048828125 -41.012001037597656,-165.6300048828125 C-41.012001037597656,-165.6300048828125 38.75699996948242,-165.6300048828125 38.75699996948242,-165.6300048828125 C38.75699996948242,-165.6300048828125 38.75699996948242,-100.7699966430664 38.75699996948242,-100.7699966430664z"></path></g><g opacity="1" transform="matrix(1,0,0,1,0,0)"><path fill="url(#__lottie_element_8)" fill-opacity="0.3" d=" M49.965999603271484,-97.55899810791016 C49.965999603271484,-97.55899810791016 27.54800033569336,-97.55899810791016 27.54800033569336,-97.55899810791016 C27.54800033569336,-97.55899810791016 27.54800033569336,-214.6790008544922 27.54800033569336,-214.6790008544922 C27.54800033569336,-214.6790008544922 49.965999603271484,-210.6790008544922 49.965999603271484,-210.6790008544922 C49.965999603271484,-210.6790008544922 49.965999603271484,-97.55899810791016 49.965999603271484,-97.55899810791016z"></path></g><g opacity="1" transform="matrix(1,0,0,1,0,0)"><path fill="url(#__lottie_element_9)" fill-opacity="0.3" d=" M-52.22100067138672,-97.55899810791016 C-52.22100067138672,-97.55899810791016 -29.802000045776367,-97.55899810791016 -29.802000045776367,-97.55899810791016 C-29.802000045776367,-97.55899810791016 -29.802000045776367,-214.6790008544922 -29.802000045776367,-214.6790008544922 C-29.802000045776367,-214.6790008544922 -52.22100067138672,-210.6790008544922 -52.22100067138672,-210.6790008544922 C-52.22100067138672,-210.6790008544922 -52.22100067138672,-97.55899810791016 -52.22100067138672,-97.55899810791016z"></path></g><g opacity="0.7000000000000001" transform="matrix(1,0,0,1,0,0)"><path stroke-linecap="round" stroke-linejoin="round" fill-opacity="0" stroke="rgb(255,233,94)" stroke-opacity="1" stroke-width="6" d=" M-41.012001037597656,-210.8820037841797 C-41.012001037597656,-210.8820037841797 -41.012001037597656,-101.10600280761719 -41.012001037597656,-101.10600280761719"></path></g><g opacity="0.7000000000000001" transform="matrix(1,0,0,1,0,0)"><path stroke-linecap="round" stroke-linejoin="round" fill-opacity="0" stroke="rgb(255,233,94)" stroke-opacity="1" stroke-width="6" d=" M38.75699996948242,-210.8820037841797 C38.75699996948242,-210.8820037841797 38.75699996948242,-101.10600280761719 38.75699996948242,-101.10600280761719"></path></g><g opacity="1" transform="matrix(1,0,0,1,0,0)"><path fill="url(#__lottie_element_10)" fill-opacity="0.5" d=" M103.66899871826172,-153.08999633789062 C103.66899871826172,-136.22000122070312 103.66899871826172,-99.0199966430664 103.66899871826172,-99.0199966430664 C103.66899871826172,-99.0199966430664 100.88899993896484,-98.7699966430664 100.88899993896484,-98.7699966430664 C100.88899993896484,-98.7699966430664 100.88899993896484,-137.08999633789062 100.88899993896484,-137.08999633789062 C100.88899993896484,-153.9499969482422 56.20899963378906,-195.38999938964844 37.70899963378906,-194.8800048828125 C37.70899963378906,-194.8800048828125 27.138999938964844,-205.5 -0.6309999823570251,-205.5 C-28.391000747680664,-205.5 -39.930999755859375,-194.8800048828125 -39.930999755859375,-194.8800048828125 C-58.441001892089844,-195.38999938964844 -102.14099884033203,-153.9499969482422 -102.14099884033203,-137.08999633789062 C-102.14099884033203,-137.08999633789062 -102.14099884033203,-98.7699966430664 -102.14099884033203,-98.7699966430664 C-102.14099884033203,-98.7699966430664 -104.9209976196289,-99.0199966430664 -104.9209976196289,-99.0199966430664 C-104.9209976196289,-99.0199966430664 -104.9209976196289,-136.22000122070312 -104.9209976196289,-153.08999633789062 C-104.9209976196289,-169.9499969482422 -60.020999908447266,-211.38999938964844 -41.01100158691406,-210.8800048828125 C-41.01100158691406,-210.8800048828125 -29.150999069213867,-221.5 -0.6309999823570251,-221.5 C27.89900016784668,-221.5 38.75899887084961,-210.8800048828125 38.75899887084961,-210.8800048828125 C57.76900100708008,-211.38999938964844 103.66899871826172,-169.9499969482422 103.66899871826172,-153.08999633789062z"></path></g><g opacity="1" transform="matrix(1,0,0,1,0,0)"><path stroke-linecap="round" stroke-linejoin="round" fill-opacity="0" stroke="rgb(194,142,0)" stroke-opacity="1" stroke-width="8" d=" M38.75699996948242,-210.8820037841797 C38.75699996948242,-210.8820037841797 27.895999908447266,-221.5050048828125 -0.6269999742507935,-221.5050048828125 C-29.149999618530273,-221.5050048828125 -41.012001037597656,-210.8820037841797 -41.012001037597656,-210.8820037841797 C-60.02399826049805,-211.38699340820312 -104.9260025024414,-169.94900512695312 -104.9260025024414,-153.08700561523438 C-104.9260025024414,-136.22500610351562 -104.9260025024414,-99.02100372314453 -104.9260025024414,-99.02100372314453 C-104.9260025024414,-99.02100372314453 -0.6269999742507935,-89.73300170898438 -0.6269999742507935,-89.73300170898438 C-0.6269999742507935,-89.73300170898438 103.6709976196289,-99.02100372314453 103.6709976196289,-99.02100372314453 C103.6709976196289,-99.02100372314453 103.6709976196289,-136.22500610351562 103.6709976196289,-153.08700561523438 C103.6709976196289,-169.94900512695312 57.76900100708008,-211.38699340820312 38.75699996948242,-210.8820037841797z"></path></g><g opacity="1" transform="matrix(1,0,0,1,0,0)"><g opacity="1" transform="matrix(1,0,0,1,0,0)"><path fill="rgb(183,141,32)" fill-opacity="1" d=" M119.28299713134766,-96.74400329589844 C119.28299713134766,-96.74400329589844 119.28299713134766,-122.33699798583984 119.28299713134766,-122.33699798583984 C119.28299713134766,-122.33699798583984 105.61499786376953,-137.07899475097656 105.61499786376953,-137.07899475097656 C105.61499786376953,-137.07899475097656 96.16500091552734,-137.07899475097656 96.16500091552734,-137.07899475097656 C96.16500091552734,-137.07899475097656 96.16500091552734,-99.62999725341797 96.16500091552734,-99.62999725341797 C96.16500091552734,-99.62999725341797 106.90699768066406,-91.75399780273438 106.90699768066406,-91.75399780273438 C106.90699768066406,-91.75399780273438 119.28299713134766,-96.74400329589844 119.28299713134766,-96.74400329589844z"></path></g><g opacity="1" transform="matrix(1,0,0,1,0,0)"><path fill="rgb(233,178,23)" fill-opacity="1" d=" M94.16100311279297,-137.0800018310547 C94.16100311279297,-137.0800018310547 107.94100189208984,-120.11000061035156 107.94100189208984,-120.11000061035156 C107.94100189208984,-120.11000061035156 107.94100189208984,-98.25 107.94100189208984,-98.25 C107.94100189208984,-98.25 114.14099884033203,-94.66999816894531 114.14099884033203,-94.66999816894531 C114.14099884033203,-94.66999816894531 119.28099822998047,-96.73999786376953 119.28099822998047,-96.73999786376953 C119.28099822998047,-96.73999786376953 119.28099822998047,-120.33999633789062 119.28099822998047,-120.33999633789062 C119.28099822998047,-120.33999633789062 105.61100006103516,-137.0800018310547 105.61100006103516,-137.0800018310547 C105.61100006103516,-137.0800018310547 94.16100311279297,-137.0800018310547 94.16100311279297,-137.0800018310547z"></path></g><g opacity="1" transform="matrix(1,0,0,1,0,0)"><path fill="rgb(249,237,149)" fill-opacity="1" d=" M107.94100189208984,-120.11000061035156 C107.94100189208984,-120.11000061035156 121.10199737548828,-120.11000061035156 121.10199737548828,-120.11000061035156 C121.10199737548828,-120.11000061035156 105.61499786376953,-138.60400390625 105.61499786376953,-138.60400390625 C105.61499786376953,-138.60400390625 94.16500091552734,-137.07899475097656 94.16500091552734,-137.07899475097656 C94.16500091552734,-137.07899475097656 107.94100189208984,-120.11000061035156 107.94100189208984,-120.11000061035156z"></path></g><g opacity="1" transform="matrix(1,0,0,1,0,0)"><path stroke-linecap="round" stroke-linejoin="round" fill-opacity="0" stroke="rgb(158,119,0)" stroke-opacity="1" stroke-width="8" d=" M119.28299713134766,-96.74400329589844 C119.28299713134766,-96.74400329589844 119.28299713134766,-122.33699798583984 119.28299713134766,-122.33699798583984 C119.28299713134766,-122.33699798583984 105.61499786376953,-137.07899475097656 105.61499786376953,-137.07899475097656 C105.61499786376953,-137.07899475097656 93.16500091552734,-137.07899475097656 93.16500091552734,-137.07899475097656 C93.16500091552734,-137.07899475097656 93.16500091552734,-99.62999725341797 93.16500091552734,-99.62999725341797 C93.16500091552734,-99.62999725341797 106.90699768066406,-91.75399780273438 106.90699768066406,-91.75399780273438 C106.90699768066406,-91.75399780273438 119.28299713134766,-96.74400329589844 119.28299713134766,-96.74400329589844z"></path></g><g opacity="1" transform="matrix(1,0,0,1,0,0)"><path stroke-linecap="round" stroke-linejoin="round" fill-opacity="0" stroke="rgb(194,142,0)" stroke-opacity="1" stroke-width="8" d=" M119.28299713134766,-96.74400329589844 C119.28299713134766,-96.74400329589844 119.28299713134766,-122.33699798583984 119.28299713134766,-122.33699798583984 C119.28299713134766,-122.33699798583984 105.61499786376953,-137.07899475097656 105.61499786376953,-137.07899475097656 C105.61499786376953,-137.07899475097656 93.16500091552734,-137.07899475097656 93.16500091552734,-137.07899475097656"></path></g></g><g opacity="1" transform="matrix(-1,0,0,1,-1.75,0)"><g opacity="1" transform="matrix(1,0,0,1,0,0)"><path fill="rgb(183,141,32)" fill-opacity="1" d=" M119.28299713134766,-96.74400329589844 C119.28299713134766,-96.74400329589844 119.28299713134766,-122.33699798583984 119.28299713134766,-122.33699798583984 C119.28299713134766,-122.33699798583984 105.61499786376953,-137.07899475097656 105.61499786376953,-137.07899475097656 C105.61499786376953,-137.07899475097656 96.16500091552734,-137.07899475097656 96.16500091552734,-137.07899475097656 C96.16500091552734,-137.07899475097656 96.16500091552734,-99.62999725341797 96.16500091552734,-99.62999725341797 C96.16500091552734,-99.62999725341797 106.90699768066406,-91.75399780273438 106.90699768066406,-91.75399780273438 C106.90699768066406,-91.75399780273438 119.28299713134766,-96.74400329589844 119.28299713134766,-96.74400329589844z"></path></g><g opacity="1" transform="matrix(1,0,0,1,0,0)"><path fill="rgb(233,178,23)" fill-opacity="1" d=" M94.16100311279297,-137.0800018310547 C94.16100311279297,-137.0800018310547 107.94100189208984,-120.11000061035156 107.94100189208984,-120.11000061035156 C107.94100189208984,-120.11000061035156 107.94100189208984,-98.25 107.94100189208984,-98.25 C107.94100189208984,-98.25 114.14099884033203,-94.66999816894531 114.14099884033203,-94.66999816894531 C114.14099884033203,-94.66999816894531 119.28099822998047,-96.73999786376953 119.28099822998047,-96.73999786376953 C119.28099822998047,-96.73999786376953 119.28099822998047,-120.33999633789062 119.28099822998047,-120.33999633789062 C119.28099822998047,-120.33999633789062 105.61100006103516,-137.0800018310547 105.61100006103516,-137.0800018310547 C105.61100006103516,-137.0800018310547 94.16100311279297,-137.0800018310547 94.16100311279297,-137.0800018310547z"></path></g><g opacity="1" transform="matrix(1,0,0,1,0,0)"><path fill="rgb(249,237,149)" fill-opacity="1" d=" M107.94100189208984,-120.11000061035156 C107.94100189208984,-120.11000061035156 121.10199737548828,-120.11000061035156 121.10199737548828,-120.11000061035156 C121.10199737548828,-120.11000061035156 105.61499786376953,-138.60400390625 105.61499786376953,-138.60400390625 C105.61499786376953,-138.60400390625 94.16500091552734,-137.07899475097656 94.16500091552734,-137.07899475097656 C94.16500091552734,-137.07899475097656 107.94100189208984,-120.11000061035156 107.94100189208984,-120.11000061035156z"></path></g><g opacity="1" transform="matrix(1,0,0,1,0,0)"><path stroke-linecap="round" stroke-linejoin="round" fill-opacity="0" stroke="rgb(158,119,0)" stroke-opacity="1" stroke-width="8" d=" M119.28299713134766,-96.74400329589844 C119.28299713134766,-96.74400329589844 119.28299713134766,-122.33699798583984 119.28299713134766,-122.33699798583984 C119.28299713134766,-122.33699798583984 105.61499786376953,-137.07899475097656 105.61499786376953,-137.07899475097656 C105.61499786376953,-137.07899475097656 93.16500091552734,-137.07899475097656 93.16500091552734,-137.07899475097656 C93.16500091552734,-137.07899475097656 93.16500091552734,-99.62999725341797 93.16500091552734,-99.62999725341797 C93.16500091552734,-99.62999725341797 106.90699768066406,-91.75399780273438 106.90699768066406,-91.75399780273438 C106.90699768066406,-91.75399780273438 119.28299713134766,-96.74400329589844 119.28299713134766,-96.74400329589844z"></path></g><g opacity="1" transform="matrix(1,0,0,1,0,0)"><path stroke-linecap="round" stroke-linejoin="round" fill-opacity="0" stroke="rgb(194,142,0)" stroke-opacity="1" stroke-width="8" d=" M119.28299713134766,-96.74400329589844 C119.28299713134766,-96.74400329589844 119.28299713134766,-122.33699798583984 119.28299713134766,-122.33699798583984 C119.28299713134766,-122.33699798583984 105.61499786376953,-137.07899475097656 105.61499786376953,-137.07899475097656 C105.61499786376953,-137.07899475097656 93.16500091552734,-137.07899475097656 93.16500091552734,-137.07899475097656"></path></g></g><g opacity="1" transform="matrix(1,0,0,1,0,0)"><g opacity="1" transform="matrix(1,0,0,1,0,0)"><path fill="url(#__lottie_element_11)" fill-opacity="1" d=" M115.51899719238281,-97.23600006103516 C85.81900024414062,-102.38800048828125 36.62699890136719,-101.91000366210938 36.62699890136719,-101.91000366210938 C36.62699890136719,-101.91000366210938 36.62699890136719,-98.54199981689453 36.62699890136719,-98.54199981689453 C36.62699890136719,-98.54199981689453 -0.7799999713897705,-98.54199981689453 -0.7799999713897705,-98.54199981689453 C-0.7799999713897705,-98.54199981689453 -38.1870002746582,-98.54199981689453 -38.1870002746582,-98.54199981689453 C-38.1870002746582,-98.54199981689453 -38.1870002746582,-101.91000366210938 -38.1870002746582,-101.91000366210938 C-38.1870002746582,-101.91000366210938 -87.37899780273438,-102.38800048828125 -117.0790023803711,-97.23600006103516 C-146.7790069580078,-92.08399963378906 -144.343994140625,-78.95700073242188 -142.71600341796875,-73.91200256347656 C-138.9709930419922,-62.310001373291016 -124.44100189208984,-56.60900115966797 -124.44100189208984,-56.60900115966797 C-124.44100189208984,-56.60900115966797 -133.61900329589844,-65.01599884033203 -126.21900177001953,-71.79900360107422 C-118.81900024414062,-78.58200073242188 -27.69300079345703,-74.97699737548828 -0.7799999713897705,-74.97699737548828 C26.132999420166016,-74.97699737548828 117.25900268554688,-78.58200073242188 124.65899658203125,-71.79900360107422 C132.0590057373047,-65.01599884033203 126.21900177001953,-56.861000061035156 126.21900177001953,-56.861000061035156 C126.21900177001953,-56.861000061035156 137.41099548339844,-62.310001373291016 141.156005859375,-73.91200256347656 C142.78399658203125,-78.95700073242188 145.218994140625,-92.08399963378906 115.51899719238281,-97.23600006103516z"></path></g><g opacity="1" transform="matrix(1,0,0,1,0,0)"><path fill="rgb(255,247,205)" fill-opacity="0.7000000000000001" d=" M-50.861000061035156,-102.0999984741211 C-65.8010025024414,-102.0250015258789 -87.41100311279297,-100.3010025024414 -102.94100189208984,-97.23200225830078 C-129.031005859375,-92.08499908447266 -126.89099884033203,-78.95500183105469 -125.46099853515625,-73.91500091552734 C-125.33100128173828,-73.44599914550781 -125.18099975585938,-72.97799682617188 -125.0009994506836,-72.52999877929688 C-125.52100372314453,-72.30599975585938 -125.93099975585938,-72.06099700927734 -126.22100067138672,-71.79499816894531 C-133.4510040283203,-65.1780014038086 -124.90799713134766,-56.986000061035156 -124.45800018310547,-56.62300109863281 C-125.0479965209961,-56.82500076293945 -139.04100036621094,-62.534000396728516 -142.71099853515625,-73.91500091552734 C-144.34100341796875,-78.95500183105469 -146.781005859375,-92.08499908447266 -117.08100128173828,-97.23200225830078 C-96.81099700927734,-100.7490005493164 -67.45099639892578,-102.17500305175781 -50.861000061035156,-102.0999984741211z"></path></g><g opacity="1" transform="matrix(1,0,0,1,0,0)"><path fill="rgb(255,247,205)" fill-opacity="0.7000000000000001" d=" M141.15899658203125,-73.91500091552734 C137.40899658203125,-62.310001373291016 126.21900177001953,-56.8650016784668 126.21900177001953,-56.8650016784668 C126.21900177001953,-56.8650016784668 132.0590057373047,-65.01799774169922 124.65899658203125,-71.79499816894531 C124.37899780273438,-72.0510025024414 123.97899627685547,-72.29499816894531 123.46900177001953,-72.51899719238281 C123.62899780273438,-72.97699737548828 123.76899719238281,-73.43499755859375 123.90899658203125,-73.91500091552734 C125.33899688720703,-78.95500183105469 127.47899627685547,-92.08499908447266 101.38899993896484,-97.23200225830078 C85.89900207519531,-100.29000091552734 64.37899780273438,-101.01499938964844 49.43899917602539,-101.0999984741211 C66.04900360107422,-101.17500305175781 95.29900360107422,-100.73799896240234 115.51899719238281,-97.23200225830078 C145.218994140625,-92.08499908447266 142.78900146484375,-78.95500183105469 141.15899658203125,-73.91500091552734z"></path></g><g opacity="1" transform="matrix(1,0,0,1,0,0)"><path fill="rgb(222,155,0)" fill-opacity="0.7000000000000001" d=" M45.54800033569336,-85.29000091552734 C45.54800033569336,-85.29000091552734 -1.4900000095367432,-85.29000091552734 -1.4900000095367432,-85.29000091552734 C-1.4900000095367432,-85.29000091552734 -48.527000427246094,-85.29000091552734 -48.527000427246094,-85.29000091552734 C-146.40499877929688,-91.13999938964844 -145.80099487304688,-75.46399688720703 -138.14300537109375,-66.39800262451172 C-138.14300537109375,-66.39800262451172 -128.69200134277344,-58.47800064086914 -128.69200134277344,-58.47800064086914 C-128.69200134277344,-58.47800064086914 -138.14300537109375,-66.39800262451172 -126.21900177001953,-71.79900360107422 C-114.29499816894531,-77.19999694824219 -1.4900000095367432,-74.97699737548828 -1.4900000095367432,-74.97699737548828 C-1.4900000095367432,-74.97699737548828 111.31500244140625,-77.19999694824219 123.23899841308594,-71.79900360107422 C135.16299438476562,-66.39800262451172 124.57599639892578,-58.73099899291992 124.57599639892578,-58.73099899291992 C124.57599639892578,-58.73099899291992 135.16299438476562,-66.39800262451172 135.16299438476562,-66.39800262451172 C144.4080047607422,-75.93499755859375 141.156005859375,-91.13999938964844 45.54800033569336,-85.29000091552734z"></path></g><g opacity="1" transform="matrix(1,0,0,1,0,0)"><path stroke-linecap="round" stroke-linejoin="round" fill-opacity="0" stroke="rgb(194,142,0)" stroke-opacity="1" stroke-width="8" d=" M115.51899719238281,-98.23600006103516 C85.81900024414062,-103.38800048828125 36.62699890136719,-101.91000366210938 36.62699890136719,-101.91000366210938 C36.62699890136719,-101.91000366210938 36.62699890136719,-98.54199981689453 36.62699890136719,-98.54199981689453 C36.62699890136719,-98.54199981689453 -0.7799999713897705,-98.54199981689453 -0.7799999713897705,-98.54199981689453 C-0.7799999713897705,-98.54199981689453 -38.1870002746582,-98.54199981689453 -38.1870002746582,-98.54199981689453 C-38.1870002746582,-98.54199981689453 -38.1870002746582,-101.91000366210938 -38.1870002746582,-101.91000366210938 C-38.1870002746582,-101.91000366210938 -87.37899780273438,-103.38800048828125 -117.0790023803711,-98.23600006103516 C-146.7790069580078,-93.08399963378906 -144.343994140625,-78.95700073242188 -142.71600341796875,-73.91200256347656 C-138.9709930419922,-62.310001373291016 -124.44100189208984,-56.60900115966797 -124.44100189208984,-56.60900115966797 C-124.44100189208984,-56.60900115966797 -133.61900329589844,-65.01599884033203 -126.21900177001953,-71.79900360107422 C-118.81900024414062,-78.58200073242188 -27.69300079345703,-74.97699737548828 -0.7799999713897705,-74.97699737548828 C26.132999420166016,-74.97699737548828 117.25900268554688,-78.58200073242188 124.65899658203125,-71.79900360107422 C132.0590057373047,-65.01599884033203 126.21900177001953,-56.861000061035156 126.21900177001953,-56.861000061035156 C126.21900177001953,-56.861000061035156 137.41099548339844,-62.310001373291016 141.156005859375,-73.91200256347656 C142.78399658203125,-78.95700073242188 145.218994140625,-93.08399963378906 115.51899719238281,-98.23600006103516z"></path></g><g opacity="1" transform="matrix(1,0,0,1,0,0)"><path stroke-linecap="round" stroke-linejoin="round" fill-opacity="0" stroke="rgb(193,142,0)" stroke-opacity="0.4" stroke-width="6" d=" M-38.1870002746582,-98.54199981689453 C-38.1870002746582,-98.54199981689453 -55.082000732421875,-75.78299713134766 -55.082000732421875,-75.78299713134766"></path></g><g opacity="1" transform="matrix(1,0,0,1,0,0)"><path stroke-linecap="round" stroke-linejoin="round" fill-opacity="0" stroke="rgb(193,142,0)" stroke-opacity="0.4" stroke-width="6" d=" M36.62699890136719,-98.54199981689453 C36.62699890136719,-98.54199981689453 52.9739990234375,-76.48799896240234 52.9739990234375,-76.48799896240234"></path></g><g opacity="1" transform="matrix(1,0,0,1,0,0)"><path stroke-linecap="round" stroke-linejoin="round" fill-opacity="0" stroke="rgb(158,119,0)" stroke-opacity="1" stroke-width="8" d=" M36.62699890136719,-101.91000366210938 C36.62699890136719,-101.91000366210938 36.62699890136719,-98.54199981689453 36.62699890136719,-98.54199981689453 C36.62699890136719,-98.54199981689453 -0.7799999713897705,-98.54199981689453 -0.7799999713897705,-98.54199981689453 C-0.7799999713897705,-98.54199981689453 -38.1870002746582,-98.54199981689453 -38.1870002746582,-98.54199981689453 C-38.1870002746582,-98.54199981689453 -38.1870002746582,-101.91000366210938 -38.1870002746582,-101.91000366210938"></path></g><g opacity="1" transform="matrix(1,0,0,1,0,0)"><path stroke-linecap="round" stroke-linejoin="round" fill-opacity="0" stroke="rgb(153,88,0)" stroke-opacity="1" stroke-width="8" d=" M-124.44100189208984,-56.60900115966797 C-124.44100189208984,-56.60900115966797 -130.927001953125,-66.6500015258789 -126.21900177001953,-71.79900360107422 C-118.81900024414062,-78.58200073242188 -27.69300079345703,-74.97699737548828 -0.7799999713897705,-74.97699737548828 C26.132999420166016,-74.97699737548828 117.0719985961914,-78.37200164794922 124.65899658203125,-71.79900360107422 C130.31100463867188,-66.9020004272461 124.4520034790039,-56.60900115966797 124.4520034790039,-56.60900115966797"></path></g></g></g></g></svg>