<svg xmlns="http://www.w3.org/2000/svg" xmlns:xlink="http://www.w3.org/1999/xlink" viewBox="0 0 512 512" width="512" height="512" style="width: 100%; height: 100%; transform: translate3d(0,0,0); content-visibility: visible;" preserveAspectRatio="xMidYMid meet"><defs><clipPath id="__lottie_element_2"><rect width="512" height="512" x="0" y="0"></rect></clipPath><linearGradient id="__lottie_element_6" spreadMethod="pad" gradientUnits="userSpaceOnUse" x1="57.308998107910156" y1="-84.4990005493164" x2="86.01399993896484" y2="151.63900756835938"><stop offset="0%" stop-color="rgb(56,55,56)"></stop><stop offset="50%" stop-color="rgb(28,28,28)"></stop><stop offset="100%" stop-color="rgb(0,0,0)"></stop></linearGradient><linearGradient id="__lottie_element_10" spreadMethod="pad" gradientUnits="userSpaceOnUse" x1="-78.69100189208984" y1="-84.4990005493164" x2="-49.986000061035156" y2="151.63900756835938"><stop offset="0%" stop-color="rgb(56,55,56)"></stop><stop offset="50%" stop-color="rgb(28,28,28)"></stop><stop offset="100%" stop-color="rgb(0,0,0)"></stop></linearGradient><linearGradient id="__lottie_element_14" spreadMethod="pad" gradientUnits="userSpaceOnUse" x1="1.309000015258789" y1="-155.49899291992188" x2="1.309000015258789" y2="177.36300659179688"><stop offset="0%" stop-color="rgb(56,55,56)"></stop><stop offset="50%" stop-color="rgb(28,28,28)"></stop><stop offset="100%" stop-color="rgb(0,0,0)"></stop></linearGradient><linearGradient id="__lottie_element_15" spreadMethod="pad" gradientUnits="userSpaceOnUse" x1="1.309000015258789" y1="-87.4990005493164" x2="1.309000015258789" y2="93.13600158691406"><stop offset="0%" stop-color="rgb(172,124,227)"></stop><stop offset="50%" stop-color="rgb(142,97,203)"></stop><stop offset="100%" stop-color="rgb(112,71,179)"></stop></linearGradient><linearGradient id="__lottie_element_16" spreadMethod="pad" gradientUnits="userSpaceOnUse" x1="-167.6909942626953" y1="-155.49899291992188" x2="-167.6909942626953" y2="177.36199951171875"><stop offset="0%" stop-color="rgb(56,55,56)"></stop><stop offset="50%" stop-color="rgb(28,28,28)"></stop><stop offset="100%" stop-color="rgb(0,0,0)"></stop></linearGradient><linearGradient id="__lottie_element_17" spreadMethod="pad" gradientUnits="userSpaceOnUse" x1="170.3090057373047" y1="-155.49899291992188" x2="170.3090057373047" y2="177.36199951171875"><stop offset="0%" stop-color="rgb(56,55,56)"></stop><stop offset="50%" stop-color="rgb(28,28,28)"></stop><stop offset="100%" stop-color="rgb(0,0,0)"></stop></linearGradient><linearGradient id="__lottie_element_21" spreadMethod="pad" gradientUnits="userSpaceOnUse" x1="137.3090057373047" y1="-155.49899291992188" x2="137.3090057373047" y2="177.36099243164062"><stop offset="0%" stop-color="rgb(56,55,56)"></stop><stop offset="50%" stop-color="rgb(28,28,28)"></stop><stop offset="100%" stop-color="rgb(0,0,0)"></stop></linearGradient><linearGradient id="__lottie_element_22" spreadMethod="pad" gradientUnits="userSpaceOnUse" x1="137.3090057373047" y1="-87.4990005493164" x2="137.3090057373047" y2="93.13600158691406"><stop offset="0%" stop-color="rgb(172,124,227)"></stop><stop offset="50%" stop-color="rgb(142,97,203)"></stop><stop offset="100%" stop-color="rgb(112,71,179)"></stop></linearGradient><linearGradient id="__lottie_element_26" spreadMethod="pad" gradientUnits="userSpaceOnUse" x1="125.30899810791016" y1="-155.49899291992188" x2="125.30899810791016" y2="177.36199951171875"><stop offset="0%" stop-color="rgb(56,55,56)"></stop><stop offset="50%" stop-color="rgb(28,28,28)"></stop><stop offset="100%" stop-color="rgb(0,0,0)"></stop></linearGradient><linearGradient id="__lottie_element_27" spreadMethod="pad" gradientUnits="userSpaceOnUse" x1="125.30899810791016" y1="-87.4990005493164" x2="125.30899810791016" y2="93.13500213623047"><stop offset="0%" stop-color="rgb(172,124,227)"></stop><stop offset="50%" stop-color="rgb(142,97,203)"></stop><stop offset="100%" stop-color="rgb(112,71,179)"></stop></linearGradient><linearGradient id="__lottie_element_31" spreadMethod="pad" gradientUnits="userSpaceOnUse" x1="125.30899810791016" y1="-155.49899291992188" x2="125.30899810791016" y2="177.36199951171875"><stop offset="0%" stop-color="rgb(56,55,56)"></stop><stop offset="50%" stop-color="rgb(28,28,28)"></stop><stop offset="100%" stop-color="rgb(0,0,0)"></stop></linearGradient><linearGradient id="__lottie_element_32" spreadMethod="pad" gradientUnits="userSpaceOnUse" x1="125.30899810791016" y1="-87.4990005493164" x2="125.30899810791016" y2="93.13600158691406"><stop offset="0%" stop-color="rgb(172,124,227)"></stop><stop offset="50%" stop-color="rgb(142,97,203)"></stop><stop offset="100%" stop-color="rgb(112,71,179)"></stop></linearGradient><linearGradient id="__lottie_element_36" spreadMethod="pad" gradientUnits="userSpaceOnUse" x1="-191.6909942626953" y1="-155.49899291992188" x2="-191.6909942626953" y2="177.36199951171875"><stop offset="0%" stop-color="rgb(56,55,56)"></stop><stop offset="50%" stop-color="rgb(28,28,28)"></stop><stop offset="100%" stop-color="rgb(0,0,0)"></stop></linearGradient><linearGradient id="__lottie_element_37" spreadMethod="pad" gradientUnits="userSpaceOnUse" x1="-195.97300720214844" y1="-180.4409942626953" x2="-191.6909942626953" y2="93.13600158691406"><stop offset="0%" stop-color="rgb(172,124,227)"></stop><stop offset="50%" stop-color="rgb(142,97,203)"></stop><stop offset="100%" stop-color="rgb(112,71,179)"></stop></linearGradient><linearGradient id="__lottie_element_41" spreadMethod="pad" gradientUnits="userSpaceOnUse" x1="-191.6909942626953" y1="-155.49899291992188" x2="-191.6909942626953" y2="177.36199951171875"><stop offset="0%" stop-color="rgb(56,55,56)"></stop><stop offset="50%" stop-color="rgb(28,28,28)"></stop><stop offset="100%" stop-color="rgb(0,0,0)"></stop></linearGradient><linearGradient id="__lottie_element_42" spreadMethod="pad" gradientUnits="userSpaceOnUse" x1="-195.97300720214844" y1="-180.4409942626953" x2="-191.6909942626953" y2="93.13600158691406"><stop offset="0%" stop-color="rgb(172,124,227)"></stop><stop offset="50%" stop-color="rgb(142,97,203)"></stop><stop offset="100%" stop-color="rgb(112,71,179)"></stop></linearGradient><linearGradient id="__lottie_element_46" spreadMethod="pad" gradientUnits="userSpaceOnUse" x1="137.3090057373047" y1="-155.49899291992188" x2="137.3090057373047" y2="177.36099243164062"><stop offset="0%" stop-color="rgb(56,55,56)"></stop><stop offset="50%" stop-color="rgb(28,28,28)"></stop><stop offset="100%" stop-color="rgb(0,0,0)"></stop></linearGradient><linearGradient id="__lottie_element_47" spreadMethod="pad" gradientUnits="userSpaceOnUse" x1="-134.6909942626953" y1="-87.4990005493164" x2="-134.6909942626953" y2="93.13600158691406"><stop offset="0%" stop-color="rgb(172,124,227)"></stop><stop offset="50%" stop-color="rgb(142,97,203)"></stop><stop offset="100%" stop-color="rgb(112,71,179)"></stop></linearGradient><linearGradient id="__lottie_element_51" spreadMethod="pad" gradientUnits="userSpaceOnUse" x1="-123.69100189208984" y1="-155.49899291992188" x2="-123.69100189208984" y2="177.36199951171875"><stop offset="0%" stop-color="rgb(56,55,56)"></stop><stop offset="50%" stop-color="rgb(28,28,28)"></stop><stop offset="100%" stop-color="rgb(0,0,0)"></stop></linearGradient><linearGradient id="__lottie_element_52" spreadMethod="pad" gradientUnits="userSpaceOnUse" x1="-123.69100189208984" y1="-87.4990005493164" x2="-123.69100189208984" y2="93.13600158691406"><stop offset="0%" stop-color="rgb(172,124,227)"></stop><stop offset="50%" stop-color="rgb(142,97,203)"></stop><stop offset="100%" stop-color="rgb(112,71,179)"></stop></linearGradient><linearGradient id="__lottie_element_56" spreadMethod="pad" gradientUnits="userSpaceOnUse" x1="-123.69100189208984" y1="-155.49899291992188" x2="-123.69100189208984" y2="177.36199951171875"><stop offset="0%" stop-color="rgb(56,55,56)"></stop><stop offset="50%" stop-color="rgb(28,28,28)"></stop><stop offset="100%" stop-color="rgb(0,0,0)"></stop></linearGradient><linearGradient id="__lottie_element_57" spreadMethod="pad" gradientUnits="userSpaceOnUse" x1="-123.69100189208984" y1="-87.4990005493164" x2="-123.69100189208984" y2="93.13500213623047"><stop offset="0%" stop-color="rgb(172,124,227)"></stop><stop offset="50%" stop-color="rgb(142,97,203)"></stop><stop offset="100%" stop-color="rgb(112,71,179)"></stop></linearGradient><linearGradient id="__lottie_element_61" spreadMethod="pad" gradientUnits="userSpaceOnUse"><stop></stop><stop></stop><stop></stop></linearGradient></defs><g clip-path="url(#__lottie_element_2)"><g style="display: none;"><g><path fill="url(#__lottie_element_61)"></path></g></g><g style="display: block;" transform="matrix(0.8799999952316284,0,0,0.8799999952316284,256.3121337890625,252.87832641601562)" opacity="1"><g opacity="1" transform="matrix(1,0,0,1,0,0)"><g opacity="1" transform="matrix(1,0,0,1,0,0)"><g opacity="1" transform="matrix(1,0,0,1,0,0)"><path fill="url(#__lottie_element_56)" fill-opacity="1" d=" M-89.5260009765625,203.66099548339844 C-89.5260009765625,203.66099548339844 -158.1510009765625,203.66099548339844 -158.1510009765625,203.66099548339844 C-158.1510009765625,203.66099548339844 -158.1510009765625,135.03599548339844 -158.1510009765625,135.03599548339844 C-158.1510009765625,135.03599548339844 -89.5260009765625,135.03599548339844 -89.5260009765625,135.03599548339844 C-89.5260009765625,135.03599548339844 -89.5260009765625,203.66099548339844 -89.5260009765625,203.66099548339844z"></path></g></g><g opacity="1" transform="matrix(1,0,0,1,0,0)"><path fill="url(#__lottie_element_57)" fill-opacity="1" d=" M-135.1510009765625,180.66099548339844 C-135.1510009765625,180.66099548339844 -112.5260009765625,180.66099548339844 -112.5260009765625,180.66099548339844 C-112.5260009765625,180.66099548339844 -112.5260009765625,158.03599548339844 -112.5260009765625,158.03599548339844 C-112.5260009765625,158.03599548339844 -135.1510009765625,158.03599548339844 -135.1510009765625,158.03599548339844 C-135.1510009765625,158.03599548339844 -135.1510009765625,180.66099548339844 -135.1510009765625,180.66099548339844z"></path></g></g></g><g style="display: block;" transform="matrix(0.8799999952316284,0,0,0.8799999952316284,256.31231689453125,252.879150390625)" opacity="1"><g opacity="1" transform="matrix(1,0,0,1,0,0)"><g opacity="1" transform="matrix(1,0,0,1,0,0)"><g opacity="1" transform="matrix(1,0,0,1,0,0)"><path fill="url(#__lottie_element_51)" fill-opacity="1" d=" M-89.5260009765625,-113.09400177001953 C-89.5260009765625,-113.09400177001953 -158.1510009765625,-113.09400177001953 -158.1510009765625,-113.09400177001953 C-158.1510009765625,-113.09400177001953 -158.1510009765625,-181.718994140625 -158.1510009765625,-181.718994140625 C-158.1510009765625,-181.718994140625 -89.5260009765625,-181.718994140625 -89.5260009765625,-181.718994140625 C-89.5260009765625,-181.718994140625 -89.5260009765625,-113.09400177001953 -89.5260009765625,-113.09400177001953z"></path></g></g><g opacity="1" transform="matrix(1,0,0,1,0,0)"><path fill="url(#__lottie_element_52)" fill-opacity="1" d=" M-112.5260009765625,-158.718994140625 C-112.5260009765625,-158.718994140625 -135.1510009765625,-158.718994140625 -135.1510009765625,-158.718994140625 C-135.1510009765625,-158.718994140625 -135.1510009765625,-136.093994140625 -135.1510009765625,-136.093994140625 C-135.1510009765625,-136.093994140625 -112.5260009765625,-136.093994140625 -112.5260009765625,-136.093994140625 C-112.5260009765625,-136.093994140625 -112.5260009765625,-158.718994140625 -112.5260009765625,-158.718994140625z"></path></g><g opacity="0.3" transform="matrix(1,0,0,1,0,0)"><path stroke-linecap="butt" stroke-linejoin="miter" fill-opacity="0" stroke-miterlimit="10" stroke="rgb(255,255,255)" stroke-opacity="1" stroke-width="8" d=" M-135.1510009765625,-154.7449951171875 C-135.1510009765625,-154.7449951171875 -112.5260009765625,-154.7449951171875 -112.5260009765625,-154.7449951171875"></path></g></g></g><g style="display: block;" transform="matrix(0.8799999952316284,0,0,0.8799999952316284,256.3118896484375,252.87884521484375)" opacity="1"><g opacity="1" transform="matrix(1,0,0,1,0,0)"><g opacity="1" transform="matrix(-1,0,0,1,0,0)"><g opacity="1" transform="matrix(1,0,0,1,0,0)"><path fill="url(#__lottie_element_46)" fill-opacity="1" d=" M181.97900390625,-45.21799850463867 C181.97900390625,-45.21799850463867 113.35299682617188,-45.21799850463867 113.35299682617188,-45.21799850463867 C113.35299682617188,-45.21799850463867 113.35299682617188,-67.84300231933594 113.35299682617188,-67.84300231933594 C113.35299682617188,-67.84300231933594 90.72799682617188,-67.84300231933594 90.72799682617188,-67.84300231933594 C90.72799682617188,-67.84300231933594 90.72799682617188,-136.46800231933594 90.72799682617188,-136.46800231933594 C90.72799682617188,-136.46800231933594 181.97900390625,-136.46800231933594 181.97900390625,-136.46800231933594 C181.97900390625,-136.46800231933594 181.97900390625,-45.21799850463867 181.97900390625,-45.21799850463867z"></path></g></g><g opacity="1" transform="matrix(1,0,0,1,0,0)"><path fill="url(#__lottie_element_47)" fill-opacity="1" d=" M-135.1510009765625,-90.84300231933594 C-135.1510009765625,-90.84300231933594 -112.5260009765625,-90.84300231933594 -112.5260009765625,-90.84300231933594 C-112.5260009765625,-90.84300231933594 -112.5260009765625,-113.46900177001953 -112.5260009765625,-113.46900177001953 C-112.5260009765625,-113.46900177001953 -135.1510009765625,-113.46900177001953 -135.1510009765625,-113.46900177001953 C-135.1510009765625,-113.46900177001953 -157.77699279785156,-113.46900177001953 -157.77699279785156,-113.46900177001953 C-157.77699279785156,-113.46900177001953 -157.77699279785156,-90.84300231933594 -157.77699279785156,-90.84300231933594 C-157.77699279785156,-90.84300231933594 -157.77699279785156,-68.21800231933594 -157.77699279785156,-68.21800231933594 C-157.77699279785156,-68.21800231933594 -135.1510009765625,-68.21800231933594 -135.1510009765625,-68.21800231933594 C-135.1510009765625,-68.21800231933594 -135.1510009765625,-90.84300231933594 -135.1510009765625,-90.84300231933594z"></path></g><g opacity="0.3" transform="matrix(1,0,0,1,0,0)"><path stroke-linecap="butt" stroke-linejoin="miter" fill-opacity="0" stroke-miterlimit="10" stroke="rgb(255,255,255)" stroke-opacity="1" stroke-width="8" d=" M-157.77699279785156,-109.47599792480469 C-157.77699279785156,-109.47599792480469 -112.5260009765625,-109.47599792480469 -112.5260009765625,-109.47599792480469"></path></g></g></g><g style="display: block;" transform="matrix(0.8799999952316284,0,0,0.8799999952316284,256.31219482421875,252.8789520263672)" opacity="1"><g opacity="1" transform="matrix(1,0,0,1,0,0)"><g opacity="1" transform="matrix(1,0,0,1,0,0)"><g opacity="1" transform="matrix(1,0,0,1,0,0)"><path fill="url(#__lottie_element_41)" fill-opacity="1" d=" M-157.40199279785156,45.284000396728516 C-157.40199279785156,45.284000396728516 -226.02699279785156,45.284000396728516 -226.02699279785156,45.284000396728516 C-226.02699279785156,45.284000396728516 -226.02699279785156,-91.21800231933594 -226.02699279785156,-91.21800231933594 C-226.02699279785156,-91.21800231933594 -157.40199279785156,-91.21800231933594 -157.40199279785156,-91.21800231933594 C-157.40199279785156,-91.21800231933594 -157.40199279785156,45.284000396728516 -157.40199279785156,45.284000396728516z"></path></g></g><g opacity="1" transform="matrix(1,0,0,1,0,0)"><path fill="url(#__lottie_element_42)" fill-opacity="1" d=" M-180.40199279785156,-22.966999053955078 C-180.40199279785156,-22.966999053955078 -180.40199279785156,-45.59199905395508 -180.40199279785156,-45.59199905395508 C-180.40199279785156,-45.59199905395508 -180.40199279785156,-68.21800231933594 -180.40199279785156,-68.21800231933594 C-180.40199279785156,-68.21800231933594 -203.02699279785156,-68.21800231933594 -203.02699279785156,-68.21800231933594 C-203.02699279785156,-68.21800231933594 -203.02699279785156,-45.59199905395508 -203.02699279785156,-45.59199905395508 C-203.02699279785156,-45.59199905395508 -203.02699279785156,-22.966999053955078 -203.02699279785156,-22.966999053955078 C-203.02699279785156,-22.966999053955078 -203.02699279785156,-0.34200000762939453 -203.02699279785156,-0.34200000762939453 C-203.02699279785156,-0.34200000762939453 -203.02699279785156,22.284000396728516 -203.02699279785156,22.284000396728516 C-203.02699279785156,22.284000396728516 -180.40199279785156,22.284000396728516 -180.40199279785156,22.284000396728516 C-180.40199279785156,22.284000396728516 -180.40199279785156,-0.34200000762939453 -180.40199279785156,-0.34200000762939453 C-180.40199279785156,-0.34200000762939453 -180.40199279785156,-22.966999053955078 -180.40199279785156,-22.966999053955078z"></path></g><g opacity="0.3" transform="matrix(1,0,0,1,0,0)"><path stroke-linecap="butt" stroke-linejoin="miter" fill-opacity="0" stroke-miterlimit="10" stroke="rgb(255,255,255)" stroke-opacity="1" stroke-width="8" d=" M-203.02699279785156,-64.21399688720703 C-203.02699279785156,-64.21399688720703 -180.40199279785156,-64.21399688720703 -180.40199279785156,-64.21399688720703"></path></g></g></g><g style="display: block;" transform="matrix(0.8799999952316284,0,0,0.8799999952316284,256.3120422363281,252.8789520263672)" opacity="1"><g opacity="1" transform="matrix(1,0,0,1,0,0)"><g opacity="1" transform="matrix(1,0,0,1,0,0)"><g opacity="1" transform="matrix(1,0,0,1,0,0)"><path fill="url(#__lottie_element_36)" fill-opacity="1" d=" M227.22999572753906,45.284000396728516 C227.22999572753906,45.284000396728516 158.60400390625,45.284000396728516 158.60400390625,45.284000396728516 C158.60400390625,45.284000396728516 158.60400390625,-91.21800231933594 158.60400390625,-91.21800231933594 C158.60400390625,-91.21800231933594 227.22999572753906,-91.21800231933594 227.22999572753906,-91.21800231933594 C227.22999572753906,-91.21800231933594 227.22999572753906,45.284000396728516 227.22999572753906,45.284000396728516z"></path></g></g><g opacity="1" transform="matrix(1,0,0,1,0,0)"><path fill="url(#__lottie_element_37)" fill-opacity="1" d=" M181.60400390625,-68.21800231933594 C181.60400390625,-68.21800231933594 181.60400390625,-45.59199905395508 181.60400390625,-45.59199905395508 C181.60400390625,-45.59199905395508 181.60400390625,-22.966999053955078 181.60400390625,-22.966999053955078 C181.60400390625,-22.966999053955078 181.60400390625,-0.34200000762939453 181.60400390625,-0.34200000762939453 C181.60400390625,-0.34200000762939453 181.60400390625,22.284000396728516 181.60400390625,22.284000396728516 C181.60400390625,22.284000396728516 204.22900390625,22.284000396728516 204.22900390625,22.284000396728516 C204.22900390625,22.284000396728516 204.22900390625,-0.34200000762939453 204.22900390625,-0.34200000762939453 C204.22900390625,-0.34200000762939453 204.22900390625,-22.966999053955078 204.22900390625,-22.966999053955078 C204.22900390625,-22.966999053955078 204.22900390625,-45.59199905395508 204.22900390625,-45.59199905395508 C204.22900390625,-45.59199905395508 204.22900390625,-68.21800231933594 204.22900390625,-68.21800231933594 C204.22900390625,-68.21800231933594 181.60400390625,-68.21800231933594 181.60400390625,-68.21800231933594z"></path></g><g opacity="0.3" transform="matrix(1,0,0,1,0,0)"><path stroke-linecap="butt" stroke-linejoin="miter" fill-opacity="0" stroke-miterlimit="10" stroke="rgb(255,255,255)" stroke-opacity="1" stroke-width="8" d=" M204.22900390625,-64.21399688720703 C204.22900390625,-64.21399688720703 181.60400390625,-64.21399688720703 181.60400390625,-64.21399688720703"></path></g></g></g><g style="display: block;" transform="matrix(0.8799999952316284,0,0,0.8799999952316284,256.31280517578125,252.879150390625)" opacity="1"><g opacity="1" transform="matrix(1,0,0,1,0,0)"><g opacity="1" transform="matrix(1,0,0,1,0,0)"><g opacity="1" transform="matrix(1,0,0,1,0,0)"><path fill="url(#__lottie_element_31)" fill-opacity="1" d=" M159.35299682617188,-113.09400177001953 C159.35299682617188,-113.09400177001953 90.72799682617188,-113.09400177001953 90.72799682617188,-113.09400177001953 C90.72799682617188,-113.09400177001953 90.72799682617188,-181.718994140625 90.72799682617188,-181.718994140625 C90.72799682617188,-181.718994140625 159.35299682617188,-181.718994140625 159.35299682617188,-181.718994140625 C159.35299682617188,-181.718994140625 159.35299682617188,-113.09400177001953 159.35299682617188,-113.09400177001953z"></path></g></g><g opacity="1" transform="matrix(1,0,0,1,0,0)"><path fill="url(#__lottie_element_32)" fill-opacity="1" d=" M136.35299682617188,-158.718994140625 C136.35299682617188,-158.718994140625 113.72799682617188,-158.718994140625 113.72799682617188,-158.718994140625 C113.72799682617188,-158.718994140625 113.72799682617188,-136.093994140625 113.72799682617188,-136.093994140625 C113.72799682617188,-136.093994140625 136.35299682617188,-136.093994140625 136.35299682617188,-136.093994140625 C136.35299682617188,-136.093994140625 136.35299682617188,-158.718994140625 136.35299682617188,-158.718994140625z"></path></g><g opacity="0.3" transform="matrix(1,0,0,1,0,0)"><path stroke-linecap="butt" stroke-linejoin="miter" fill-opacity="0" stroke-miterlimit="10" stroke="rgb(255,255,255)" stroke-opacity="1" stroke-width="8" d=" M136.35299682617188,-154.7449951171875 C136.35299682617188,-154.7449951171875 113.72799682617188,-154.7449951171875 113.72799682617188,-154.7449951171875"></path></g></g></g><g style="display: block;" transform="matrix(0.8799999952316284,0,0,0.8799999952316284,256.31280517578125,252.87875366210938)" opacity="1"><g opacity="1" transform="matrix(1,0,0,1,0,0)"><g opacity="1" transform="matrix(1,0,0,1,0,0)"><g opacity="1" transform="matrix(1,0,0,1,0,0)"><path fill="url(#__lottie_element_26)" fill-opacity="1" d=" M159.35299682617188,203.66099548339844 C159.35299682617188,203.66099548339844 90.72799682617188,203.66099548339844 90.72799682617188,203.66099548339844 C90.72799682617188,203.66099548339844 90.72799682617188,135.03599548339844 90.72799682617188,135.03599548339844 C90.72799682617188,135.03599548339844 159.35299682617188,135.03599548339844 159.35299682617188,135.03599548339844 C159.35299682617188,135.03599548339844 159.35299682617188,203.66099548339844 159.35299682617188,203.66099548339844z"></path></g></g><g opacity="1" transform="matrix(1,0,0,1,0,0)"><path fill="url(#__lottie_element_27)" fill-opacity="1" d=" M113.72799682617188,180.66099548339844 C113.72799682617188,180.66099548339844 136.35299682617188,180.66099548339844 136.35299682617188,180.66099548339844 C136.35299682617188,180.66099548339844 136.35299682617188,158.03599548339844 136.35299682617188,158.03599548339844 C136.35299682617188,158.03599548339844 113.72799682617188,158.03599548339844 113.72799682617188,158.03599548339844 C113.72799682617188,158.03599548339844 113.72799682617188,180.66099548339844 113.72799682617188,180.66099548339844z"></path></g></g></g><g style="display: block;" transform="matrix(0.8799999952316284,0,0,0.8799999952316284,256.3123779296875,252.87884521484375)" opacity="1"><g opacity="1" transform="matrix(1,0,0,1,0,0)"><g opacity="1" transform="matrix(1,0,0,1,0,0)"><g opacity="1" transform="matrix(1,0,0,1,0,0)"><path fill="url(#__lottie_element_21)" fill-opacity="1" d=" M181.97900390625,-45.21799850463867 C181.97900390625,-45.21799850463867 113.35299682617188,-45.21799850463867 113.35299682617188,-45.21799850463867 C113.35299682617188,-45.21799850463867 113.35299682617188,-67.84300231933594 113.35299682617188,-67.84300231933594 C113.35299682617188,-67.84300231933594 90.72799682617188,-67.84300231933594 90.72799682617188,-67.84300231933594 C90.72799682617188,-67.84300231933594 90.72799682617188,-136.46800231933594 90.72799682617188,-136.46800231933594 C90.72799682617188,-136.46800231933594 181.97900390625,-136.46800231933594 181.97900390625,-136.46800231933594 C181.97900390625,-136.46800231933594 181.97900390625,-45.21799850463867 181.97900390625,-45.21799850463867z"></path></g></g><g opacity="1" transform="matrix(1,0,0,1,0,0)"><path fill="url(#__lottie_element_22)" fill-opacity="1" d=" M136.35299682617188,-68.21800231933594 C136.35299682617188,-68.21800231933594 158.97900390625,-68.21800231933594 158.97900390625,-68.21800231933594 C158.97900390625,-68.21800231933594 158.97900390625,-90.84300231933594 158.97900390625,-90.84300231933594 C158.97900390625,-90.84300231933594 158.97900390625,-113.46900177001953 158.97900390625,-113.46900177001953 C158.97900390625,-113.46900177001953 136.35299682617188,-113.46900177001953 136.35299682617188,-113.46900177001953 C136.35299682617188,-113.46900177001953 113.72799682617188,-113.46900177001953 113.72799682617188,-113.46900177001953 C113.72799682617188,-113.46900177001953 113.72799682617188,-90.84300231933594 113.72799682617188,-90.84300231933594 C113.72799682617188,-90.84300231933594 136.35299682617188,-90.84300231933594 136.35299682617188,-90.84300231933594 C136.35299682617188,-90.84300231933594 136.35299682617188,-68.21800231933594 136.35299682617188,-68.21800231933594z"></path></g><g opacity="0.3" transform="matrix(1,0,0,1,0,0)"><path stroke-linecap="butt" stroke-linejoin="miter" fill-opacity="0" stroke-miterlimit="10" stroke="rgb(255,255,255)" stroke-opacity="1" stroke-width="8" d=" M158.97900390625,-109.47599792480469 C158.97900390625,-109.47599792480469 113.72799682617188,-109.47599792480469 113.72799682617188,-109.47599792480469"></path></g></g></g><g style="display: block;" transform="matrix(0.8799999952316284,0,0,0.8799999952316284,256.3121337890625,252.87832641601562)" opacity="1"><g opacity="1" transform="matrix(1,0,0,1,0,0)"><g opacity="1" transform="matrix(1,0,0,1,0,0)"><g opacity="1" transform="matrix(1,0,0,1,0,0)"><path fill="url(#__lottie_element_14)" fill-opacity="1" d=" M114.10199737548828,158.41099548339844 C114.10199737548828,158.41099548339844 22.851999282836914,158.41099548339844 22.851999282836914,158.41099548339844 C22.851999282836914,158.41099548339844 22.851999282836914,113.16000366210938 22.851999282836914,113.16000366210938 C22.851999282836914,113.16000366210938 -21.64900016784668,113.16000366210938 -21.64900016784668,113.16000366210938 C-21.64900016784668,113.16000366210938 -21.64900016784668,158.41099548339844 -21.64900016784668,158.41099548339844 C-21.64900016784668,158.41099548339844 -112.9000015258789,158.41099548339844 -112.9000015258789,158.41099548339844 C-112.9000015258789,158.41099548339844 -112.9000015258789,113.16000366210938 -112.9000015258789,113.16000366210938 C-112.9000015258789,113.16000366210938 -158.1510009765625,113.16000366210938 -158.1510009765625,113.16000366210938 C-158.1510009765625,113.16000366210938 -158.1510009765625,67.90899658203125 -158.1510009765625,67.90899658203125 C-158.1510009765625,67.90899658203125 -203.40199279785156,67.90899658203125 -203.40199279785156,67.90899658203125 C-203.40199279785156,67.90899658203125 -203.40199279785156,-0.7160000205039978 -203.40199279785156,-0.7160000205039978 C-203.40199279785156,-0.7160000205039978 -158.1510009765625,-0.7160000205039978 -158.1510009765625,-0.7160000205039978 C-158.1510009765625,-0.7160000205039978 -158.1510009765625,-68.59200286865234 -158.1510009765625,-68.59200286865234 C-158.1510009765625,-68.59200286865234 -135.5260009765625,-68.59200286865234 -135.5260009765625,-68.59200286865234 C-135.5260009765625,-68.59200286865234 -135.5260009765625,-91.21800231933594 -135.5260009765625,-91.21800231933594 C-135.5260009765625,-91.21800231933594 -112.9000015258789,-91.21800231933594 -112.9000015258789,-91.21800231933594 C-112.9000015258789,-91.21800231933594 -112.9000015258789,-113.84300231933594 -112.9000015258789,-113.84300231933594 C-112.9000015258789,-113.84300231933594 -90.2750015258789,-113.84300231933594 -90.2750015258789,-113.84300231933594 C-90.2750015258789,-113.84300231933594 -90.2750015258789,-159.093994140625 -90.2750015258789,-159.093994140625 C-90.2750015258789,-159.093994140625 -21.64900016784668,-159.093994140625 -21.64900016784668,-159.093994140625 C-21.64900016784668,-159.093994140625 -21.64900016784668,-113.84300231933594 -21.64900016784668,-113.84300231933594 C-21.64900016784668,-113.84300231933594 22.851999282836914,-113.84300231933594 22.851999282836914,-113.84300231933594 C22.851999282836914,-113.84300231933594 22.851999282836914,-159.093994140625 22.851999282836914,-159.093994140625 C22.851999282836914,-159.093994140625 91.47699737548828,-159.093994140625 91.47699737548828,-159.093994140625 C91.47699737548828,-159.093994140625 91.47699737548828,-113.84300231933594 91.47699737548828,-113.84300231933594 C91.47699737548828,-113.84300231933594 114.10199737548828,-113.84300231933594 114.10199737548828,-113.84300231933594 C114.10199737548828,-113.84300231933594 114.10199737548828,-91.21800231933594 114.10199737548828,-91.21800231933594 C114.10199737548828,-91.21800231933594 136.72799682617188,-91.21800231933594 136.72799682617188,-91.21800231933594 C136.72799682617188,-91.21800231933594 136.72799682617188,-68.59200286865234 136.72799682617188,-68.59200286865234 C136.72799682617188,-68.59200286865234 159.35299682617188,-68.59200286865234 159.35299682617188,-68.59200286865234 C159.35299682617188,-68.59200286865234 159.35299682617188,-0.7160000205039978 159.35299682617188,-0.7160000205039978 C159.35299682617188,-0.7160000205039978 204.60400390625,-0.7160000205039978 204.60400390625,-0.7160000205039978 C204.60400390625,-0.7160000205039978 204.60400390625,67.90899658203125 204.60400390625,67.90899658203125 C204.60400390625,67.90899658203125 159.35299682617188,67.90899658203125 159.35299682617188,67.90899658203125 C159.35299682617188,67.90899658203125 159.35299682617188,113.16000366210938 159.35299682617188,113.16000366210938 C159.35299682617188,113.16000366210938 114.10199737548828,113.16000366210938 114.10199737548828,113.16000366210938 C114.10199737548828,113.16000366210938 114.10199737548828,158.41099548339844 114.10199737548828,158.41099548339844z"></path></g></g><g opacity="1" transform="matrix(1,0,0,1,0,0)"><path fill="url(#__lottie_element_15)" fill-opacity="1" d=" M136.35299682617188,22.284000396728516 C136.35299682617188,22.284000396728516 136.35299682617188,-0.34200000762939453 136.35299682617188,-0.34200000762939453 C136.35299682617188,-0.34200000762939453 136.35299682617188,-22.966999053955078 136.35299682617188,-22.966999053955078 C136.35299682617188,-22.966999053955078 136.35299682617188,-45.59199905395508 136.35299682617188,-45.59199905395508 C136.35299682617188,-45.59199905395508 113.72799682617188,-45.59199905395508 113.72799682617188,-45.59199905395508 C113.72799682617188,-45.59199905395508 113.72799682617188,-68.21800231933594 113.72799682617188,-68.21800231933594 C113.72799682617188,-68.21800231933594 91.10199737548828,-68.21800231933594 91.10199737548828,-68.21800231933594 C91.10199737548828,-68.21800231933594 91.10199737548828,-90.84300231933594 91.10199737548828,-90.84300231933594 C91.10199737548828,-90.84300231933594 68.47699737548828,-90.84300231933594 68.47699737548828,-90.84300231933594 C68.47699737548828,-90.84300231933594 68.47699737548828,-113.46900177001953 68.47699737548828,-113.46900177001953 C68.47699737548828,-113.46900177001953 68.47699737548828,-136.093994140625 68.47699737548828,-136.093994140625 C68.47699737548828,-136.093994140625 45.85200119018555,-136.093994140625 45.85200119018555,-136.093994140625 C45.85200119018555,-136.093994140625 45.85200119018555,-113.46900177001953 45.85200119018555,-113.46900177001953 C45.85200119018555,-113.46900177001953 45.85200119018555,-90.84300231933594 45.85200119018555,-90.84300231933594 C45.85200119018555,-90.84300231933594 23.22599983215332,-90.84300231933594 23.22599983215332,-90.84300231933594 C23.22599983215332,-90.84300231933594 0.6010000109672546,-90.84300231933594 0.6010000109672546,-90.84300231933594 C0.6010000109672546,-90.84300231933594 -22.02400016784668,-90.84300231933594 -22.02400016784668,-90.84300231933594 C-22.02400016784668,-90.84300231933594 -44.650001525878906,-90.84300231933594 -44.650001525878906,-90.84300231933594 C-44.650001525878906,-90.84300231933594 -44.650001525878906,-113.46900177001953 -44.650001525878906,-113.46900177001953 C-44.650001525878906,-113.46900177001953 -44.650001525878906,-136.093994140625 -44.650001525878906,-136.093994140625 C-44.650001525878906,-136.093994140625 -67.2750015258789,-136.093994140625 -67.2750015258789,-136.093994140625 C-67.2750015258789,-136.093994140625 -67.2750015258789,-113.46900177001953 -67.2750015258789,-113.46900177001953 C-67.2750015258789,-113.46900177001953 -67.2750015258789,-90.84300231933594 -67.2750015258789,-90.84300231933594 C-67.2750015258789,-90.84300231933594 -89.9000015258789,-90.84300231933594 -89.9000015258789,-90.84300231933594 C-89.9000015258789,-90.84300231933594 -89.9000015258789,-68.21800231933594 -89.9000015258789,-68.21800231933594 C-89.9000015258789,-68.21800231933594 -112.5260009765625,-68.21800231933594 -112.5260009765625,-68.21800231933594 C-112.5260009765625,-68.21800231933594 -112.5260009765625,-45.59199905395508 -112.5260009765625,-45.59199905395508 C-112.5260009765625,-45.59199905395508 -135.1510009765625,-45.59199905395508 -135.1510009765625,-45.59199905395508 C-135.1510009765625,-45.59199905395508 -135.1510009765625,-22.966999053955078 -135.1510009765625,-22.966999053955078 C-135.1510009765625,-22.966999053955078 -135.1510009765625,-0.34200000762939453 -135.1510009765625,-0.34200000762939453 C-135.1510009765625,-0.34200000762939453 -135.1510009765625,22.284000396728516 -135.1510009765625,22.284000396728516 C-135.1510009765625,22.284000396728516 -157.77699279785156,22.284000396728516 -157.77699279785156,22.284000396728516 C-157.77699279785156,22.284000396728516 -180.40199279785156,22.284000396728516 -180.40199279785156,22.284000396728516 C-180.40199279785156,22.284000396728516 -180.40199279785156,44.909000396728516 -180.40199279785156,44.909000396728516 C-180.40199279785156,44.909000396728516 -157.77699279785156,44.909000396728516 -157.77699279785156,44.909000396728516 C-157.77699279785156,44.909000396728516 -135.1510009765625,44.909000396728516 -135.1510009765625,44.909000396728516 C-135.1510009765625,44.909000396728516 -135.1510009765625,67.53399658203125 -135.1510009765625,67.53399658203125 C-135.1510009765625,67.53399658203125 -135.1510009765625,90.16000366210938 -135.1510009765625,90.16000366210938 C-135.1510009765625,90.16000366210938 -112.5260009765625,90.16000366210938 -112.5260009765625,90.16000366210938 C-112.5260009765625,90.16000366210938 -89.9000015258789,90.16000366210938 -89.9000015258789,90.16000366210938 C-89.9000015258789,90.16000366210938 -89.9000015258789,112.78500366210938 -89.9000015258789,112.78500366210938 C-89.9000015258789,112.78500366210938 -89.9000015258789,135.41000366210938 -89.9000015258789,135.41000366210938 C-89.9000015258789,135.41000366210938 -67.2750015258789,135.41000366210938 -67.2750015258789,135.41000366210938 C-67.2750015258789,135.41000366210938 -44.650001525878906,135.41000366210938 -44.650001525878906,135.41000366210938 C-44.650001525878906,135.41000366210938 -44.650001525878906,112.78500366210938 -44.650001525878906,112.78500366210938 C-44.650001525878906,112.78500366210938 -44.650001525878906,90.16000366210938 -44.650001525878906,90.16000366210938 C-44.650001525878906,90.16000366210938 -22.02400016784668,90.16000366210938 -22.02400016784668,90.16000366210938 C-22.02400016784668,90.16000366210938 0.6010000109672546,90.16000366210938 0.6010000109672546,90.16000366210938 C0.6010000109672546,90.16000366210938 23.22599983215332,90.16000366210938 23.22599983215332,90.16000366210938 C23.22599983215332,90.16000366210938 45.85200119018555,90.16000366210938 45.85200119018555,90.16000366210938 C45.85200119018555,90.16000366210938 45.85200119018555,112.78500366210938 45.85200119018555,112.78500366210938 C45.85200119018555,112.78500366210938 45.85200119018555,135.41000366210938 45.85200119018555,135.41000366210938 C45.85200119018555,135.41000366210938 68.47699737548828,135.41000366210938 68.47699737548828,135.41000366210938 C68.47699737548828,135.41000366210938 91.10199737548828,135.41000366210938 91.10199737548828,135.41000366210938 C91.10199737548828,135.41000366210938 91.10199737548828,112.78500366210938 91.10199737548828,112.78500366210938 C91.10199737548828,112.78500366210938 91.10199737548828,90.16000366210938 91.10199737548828,90.16000366210938 C91.10199737548828,90.16000366210938 113.72799682617188,90.16000366210938 113.72799682617188,90.16000366210938 C113.72799682617188,90.16000366210938 136.35299682617188,90.16000366210938 136.35299682617188,90.16000366210938 C136.35299682617188,90.16000366210938 136.35299682617188,67.53399658203125 136.35299682617188,67.53399658203125 C136.35299682617188,67.53399658203125 136.35299682617188,44.909000396728516 136.35299682617188,44.909000396728516 C136.35299682617188,44.909000396728516 158.97900390625,44.909000396728516 158.97900390625,44.909000396728516 C158.97900390625,44.909000396728516 181.60400390625,44.909000396728516 181.60400390625,44.909000396728516 C181.60400390625,44.909000396728516 181.60400390625,22.284000396728516 181.60400390625,22.284000396728516 C181.60400390625,22.284000396728516 158.97900390625,22.284000396728516 158.97900390625,22.284000396728516 C158.97900390625,22.284000396728516 136.35299682617188,22.284000396728516 136.35299682617188,22.284000396728516z"></path></g><g opacity="0.3" transform="matrix(1,0,0,1,0,0)"><path stroke-linecap="butt" stroke-linejoin="miter" fill-opacity="0" stroke-miterlimit="10" stroke="rgb(255,255,255)" stroke-opacity="1" stroke-width="8" d=" M68.47100067138672,-132.0959930419922 C68.47100067138672,-132.0959930419922 45.84600067138672,-132.0959930419922 45.84600067138672,-132.0959930419922"></path></g><g opacity="0.3" transform="matrix(1,0,0,1,0,0)"><path stroke-linecap="butt" stroke-linejoin="miter" fill-opacity="0" stroke-miterlimit="10" stroke="rgb(255,255,255)" stroke-opacity="1" stroke-width="8" d=" M-44.650001525878906,-86.80799865722656 C-44.650001525878906,-86.80799865722656 45.84600067138672,-86.80799865722656 45.84600067138672,-86.80799865722656"></path></g><g opacity="1" transform="matrix(1,0,0,1,0,0)"><path fill="url(#__lottie_element_16)" fill-opacity="1" d=" M-179.3470001220703,67.90899658203125 C-179.3470001220703,67.90899658203125 -179.3470001220703,90.53399658203125 -179.3470001220703,90.53399658203125 C-179.3470001220703,90.53399658203125 -179.3470001220703,113.16000366210938 -179.3470001220703,113.16000366210938 C-179.3470001220703,113.16000366210938 -156.7209930419922,113.16000366210938 -156.7209930419922,113.16000366210938 C-156.7209930419922,113.16000366210938 -156.7209930419922,90.53399658203125 -156.7209930419922,90.53399658203125 C-156.7209930419922,90.53399658203125 -156.7209930419922,67.90899658203125 -156.7209930419922,67.90899658203125 C-156.7209930419922,67.90899658203125 -179.3470001220703,67.90899658203125 -179.3470001220703,67.90899658203125z"></path></g><g opacity="1" transform="matrix(1,0,0,1,0,0)"><path fill="url(#__lottie_element_17)" fill-opacity="1" d=" M158.97900390625,67.90899658203125 C158.97900390625,67.90899658203125 158.97900390625,90.53399658203125 158.97900390625,90.53399658203125 C158.97900390625,90.53399658203125 158.97900390625,113.16000366210938 158.97900390625,113.16000366210938 C158.97900390625,113.16000366210938 181.60400390625,113.16000366210938 181.60400390625,113.16000366210938 C181.60400390625,113.16000366210938 181.60400390625,90.53399658203125 181.60400390625,90.53399658203125 C181.60400390625,90.53399658203125 181.60400390625,67.90899658203125 181.60400390625,67.90899658203125 C181.60400390625,67.90899658203125 158.97900390625,67.90899658203125 158.97900390625,67.90899658203125z"></path></g><g opacity="0.3" transform="matrix(1,0,0,1,0,0)"><path stroke-linecap="butt" stroke-linejoin="miter" fill-opacity="0" stroke-miterlimit="10" stroke="rgb(255,255,255)" stroke-opacity="1" stroke-width="8" d=" M-67.2699966430664,-132.0959930419922 C-67.2699966430664,-132.0959930419922 -44.64400100708008,-132.0959930419922 -44.64400100708008,-132.0959930419922"></path></g></g></g><g style="display: block;" transform="matrix(0.8799999952316284,0,0,0.8799999952316284,256.31201171875,252.87850952148438)" opacity="1"><g opacity="1" transform="matrix(1,0,0,1,0,0)"><path fill="url(#__lottie_element_10)" fill-opacity="1" d=" M-44.650001525878906,44.909000396728516 C-44.650001525878906,44.909000396728516 -89.9000015258789,44.909000396728516 -89.9000015258789,44.909000396728516 C-89.9000015258789,44.909000396728516 -89.9000015258789,-22.966999053955078 -89.9000015258789,-22.966999053955078 C-89.9000015258789,-22.966999053955078 -44.650001525878906,-22.966999053955078 -44.650001525878906,-22.966999053955078 C-44.650001525878906,-22.966999053955078 -44.650001525878906,44.909000396728516 -44.650001525878906,44.909000396728516z"></path></g></g><g style="display: block;" transform="matrix(0.8799999952316284,0,0,0.8799999952316284,256.3122253417969,252.87850952148438)" opacity="1"><g opacity="1" transform="matrix(1,0,0,1,0,0)"><path fill="url(#__lottie_element_6)" fill-opacity="1" d=" M91.10199737548828,44.909000396728516 C91.10199737548828,44.909000396728516 45.85200119018555,44.909000396728516 45.85200119018555,44.909000396728516 C45.85200119018555,44.909000396728516 45.85200119018555,-22.966999053955078 45.85200119018555,-22.966999053955078 C45.85200119018555,-22.966999053955078 91.10199737548828,-22.966999053955078 91.10199737548828,-22.966999053955078 C91.10199737548828,-22.966999053955078 91.10199737548828,44.909000396728516 91.10199737548828,44.909000396728516z"></path></g></g></g></svg>