<svg xmlns="http://www.w3.org/2000/svg" xmlns:xlink="http://www.w3.org/1999/xlink" viewBox="0 0 512 512" width="512" height="512" style="width: 100%; height: 100%; transform: translate3d(0,0,0); content-visibility: visible;" preserveAspectRatio="xMidYMid meet"><defs><clipPath id="__lottie_element_2"><rect width="512" height="512" x="0" y="0"></rect></clipPath><linearGradient id="__lottie_element_6" spreadMethod="pad" gradientUnits="userSpaceOnUse" x1="0.19900000095367432" y1="-206.6199951171875" x2="0.19900000095367432" y2="-104.2760009765625"><stop offset="0%" stop-color="rgb(255,238,152)"></stop><stop offset="35%" stop-color="rgb(247,217,103)"></stop><stop offset="70%" stop-color="rgb(239,196,54)"></stop><stop offset="91%" stop-color="rgb(226,180,27)"></stop><stop offset="100%" stop-color="rgb(213,163,0)"></stop></linearGradient><linearGradient id="__lottie_element_7" spreadMethod="pad" gradientUnits="userSpaceOnUse" x1="-0.8009999990463257" y1="-110.62000274658203" x2="-0.8009999990463257" y2="-160.93699645996094"><stop offset="0%" stop-color="rgb(167,127,24)" stop-opacity="1"></stop><stop offset="37%" stop-color="rgb(203,161,39)" stop-opacity="0.5099999904632568"></stop><stop offset="100%" stop-color="rgb(239,196,54)" stop-opacity="0.019999999552965164"></stop></linearGradient><linearGradient id="__lottie_element_8" spreadMethod="pad" gradientUnits="userSpaceOnUse" x1="28.198999404907227" y1="-155.6199951171875" x2="50.617000579833984" y2="-155.6199951171875"><stop offset="0%" stop-color="rgb(213,142,0)" stop-opacity="0"></stop><stop offset="25%" stop-color="rgb(213,142,0)" stop-opacity="0.5"></stop><stop offset="50%" stop-color="rgb(213,142,0)" stop-opacity="1"></stop><stop offset="75%" stop-color="rgb(213,142,0)" stop-opacity="0.5"></stop><stop offset="100%" stop-color="rgb(213,142,0)" stop-opacity="0"></stop></linearGradient><linearGradient id="__lottie_element_9" spreadMethod="pad" gradientUnits="userSpaceOnUse" x1="-51.80099868774414" y1="-155.6199951171875" x2="-29.382999420166016" y2="-155.6199951171875"><stop offset="0%" stop-color="rgb(213,142,0)" stop-opacity="0"></stop><stop offset="25%" stop-color="rgb(213,142,0)" stop-opacity="0.5"></stop><stop offset="50%" stop-color="rgb(213,142,0)" stop-opacity="1"></stop><stop offset="75%" stop-color="rgb(213,142,0)" stop-opacity="0.5"></stop><stop offset="100%" stop-color="rgb(213,142,0)" stop-opacity="0"></stop></linearGradient><radialGradient id="__lottie_element_10" spreadMethod="pad" gradientUnits="userSpaceOnUse" cx="1.1990000009536743" cy="-192.6199951171875" r="113.3560003042221" fx="1.1990000009536743" fy="-192.6199951171875"><stop offset="0%" stop-color="rgb(255,255,255)" stop-opacity="1"></stop><stop offset="50%" stop-color="rgb(255,255,255)" stop-opacity="0.5"></stop><stop offset="100%" stop-color="rgb(255,255,255)" stop-opacity="0"></stop></radialGradient><radialGradient id="__lottie_element_11" spreadMethod="pad" gradientUnits="userSpaceOnUse" cx="0.19900000095367432" cy="-79.62000274658203" r="129.85800683498383" fx="0.19900000095367432" fy="-79.62000274658203"><stop offset="0%" stop-color="rgb(255,223,28)"></stop><stop offset="60%" stop-color="rgb(252,231,96)"></stop><stop offset="100%" stop-color="rgb(250,239,164)"></stop></radialGradient><linearGradient id="__lottie_element_16" spreadMethod="pad" gradientUnits="userSpaceOnUse" x1="-3.9260001182556152" y1="-61.61399841308594" x2="-3.9260001182556152" y2="181.4320068359375"><stop offset="6%" stop-color="rgb(255,216,0)" stop-opacity="0"></stop><stop offset="15%" stop-color="rgb(255,216,0)" stop-opacity="0.5"></stop><stop offset="50%" stop-color="rgb(255,216,0)" stop-opacity="1"></stop><stop offset="89%" stop-color="rgb(255,216,0)" stop-opacity="0.5"></stop><stop offset="100%" stop-color="rgb(255,216,0)" stop-opacity="0"></stop></linearGradient><linearGradient id="__lottie_element_17" spreadMethod="pad" gradientUnits="userSpaceOnUse" x1="-2.9130001068115234" y1="-70.53500366210938" x2="-2.9130001068115234" y2="12.755000114440918"><stop offset="15%" stop-color="rgb(219,110,0)" stop-opacity="1"></stop><stop offset="45%" stop-color="rgb(219,110,0)" stop-opacity="0.5"></stop><stop offset="70%" stop-color="rgb(219,110,0)" stop-opacity="0"></stop></linearGradient><linearGradient id="__lottie_element_20" spreadMethod="pad" gradientUnits="userSpaceOnUse" x1="-3.6080000400543213" y1="39.78499984741211" x2="-4.60099983215332" y2="-140.69000244140625"><stop offset="0%" stop-color="rgb(218,110,0)" stop-opacity="1"></stop><stop offset="60%" stop-color="rgb(218,110,0)" stop-opacity="0.5"></stop><stop offset="100%" stop-color="rgb(218,110,0)" stop-opacity="0"></stop></linearGradient><linearGradient id="__lottie_element_27" spreadMethod="pad" gradientUnits="userSpaceOnUse" x1="59.07400131225586" y1="10.696999549865723" x2="74.9020004272461" y2="35.19300079345703"><stop offset="0%" stop-color="rgb(66,0,0)"></stop><stop offset="37%" stop-color="rgb(118,40,0)"></stop><stop offset="100%" stop-color="rgb(170,80,0)"></stop></linearGradient><radialGradient id="__lottie_element_28" spreadMethod="pad" gradientUnits="userSpaceOnUse" cx="76.0739974975586" cy="29.69700050354004" r="12.561004638671875" fx="76.0739974975586" fy="29.69700050354004"><stop offset="0%" stop-color="rgb(246,175,0)" stop-opacity="1"></stop><stop offset="50%" stop-color="rgb(246,175,0)" stop-opacity="0.5"></stop><stop offset="100%" stop-color="rgb(246,175,0)" stop-opacity="0"></stop></radialGradient><linearGradient id="__lottie_element_29" spreadMethod="pad" gradientUnits="userSpaceOnUse" x1="57.07400131225586" y1="-1.3029999732971191" x2="57.07400131225586" y2="9.519000053405762"><stop offset="0%" stop-color="rgb(255,255,255)" stop-opacity="1"></stop><stop offset="60%" stop-color="rgb(255,255,255)" stop-opacity="0.5"></stop><stop offset="100%" stop-color="rgb(255,255,255)" stop-opacity="0"></stop></linearGradient><linearGradient id="__lottie_element_30" spreadMethod="pad" gradientUnits="userSpaceOnUse" x1="-77.0510025024414" y1="7.447000026702881" x2="-59.347999572753906" y2="35.94200134277344"><stop offset="0%" stop-color="rgb(66,0,0)"></stop><stop offset="37%" stop-color="rgb(118,40,0)"></stop><stop offset="100%" stop-color="rgb(170,80,0)"></stop></linearGradient><radialGradient id="__lottie_element_31" spreadMethod="pad" gradientUnits="userSpaceOnUse" cx="-59.92599868774414" cy="29.69700050354004" r="12.560997009277344" fx="-59.92599868774414" fy="29.69700050354004"><stop offset="0%" stop-color="rgb(246,175,0)" stop-opacity="1"></stop><stop offset="50%" stop-color="rgb(246,175,0)" stop-opacity="0.5"></stop><stop offset="100%" stop-color="rgb(246,175,0)" stop-opacity="0"></stop></radialGradient><linearGradient id="__lottie_element_32" spreadMethod="pad" gradientUnits="userSpaceOnUse" x1="-78.9260025024414" y1="-1.3029999732971191" x2="-78.9260025024414" y2="9.519000053405762"><stop offset="0%" stop-color="rgb(255,255,255)" stop-opacity="1"></stop><stop offset="60%" stop-color="rgb(255,255,255)" stop-opacity="0.5"></stop><stop offset="100%" stop-color="rgb(255,255,255)" stop-opacity="0"></stop></linearGradient><linearGradient id="__lottie_element_36" spreadMethod="pad" gradientUnits="userSpaceOnUse" x1="-1.8009999990463257" y1="132.04299926757812" x2="-1.9259999990463257" y2="143.00799560546875"><stop offset="0%" stop-color="rgb(255,168,0)" stop-opacity="1"></stop><stop offset="50%" stop-color="rgb(255,168,0)" stop-opacity="0.5"></stop><stop offset="100%" stop-color="rgb(255,168,0)" stop-opacity="0"></stop></linearGradient><radialGradient id="__lottie_element_37" spreadMethod="pad" gradientUnits="userSpaceOnUse" cx="-1.9259999990463257" cy="148.41799926757812" r="39.79100167751312" fx="-1.9259999990463257" fy="148.41799926757812"><stop offset="0%" stop-color="rgb(255,255,255)" stop-opacity="1"></stop><stop offset="62%" stop-color="rgb(255,255,255)" stop-opacity="0.5"></stop><stop offset="100%" stop-color="rgb(255,255,255)" stop-opacity="0"></stop></radialGradient><linearGradient id="__lottie_element_38" spreadMethod="pad" gradientUnits="userSpaceOnUse" x1="-1.9259999990463257" y1="148.41799926757812" x2="-1.9259999990463257" y2="138.76699829101562"><stop offset="0%" stop-color="rgb(88,11,14)" stop-opacity="0"></stop><stop offset="34%" stop-color="rgb(88,11,14)" stop-opacity="0.5"></stop><stop offset="75%" stop-color="rgb(88,11,14)" stop-opacity="1"></stop></linearGradient><radialGradient id="__lottie_element_39" spreadMethod="pad" gradientUnits="userSpaceOnUse" cx="-1.284999966621399" cy="164.41799926757812" r="25.964000821113586" fx="-1.284999966621399" fy="164.41799926757812"><stop offset="10%" stop-color="rgb(219,110,0)" stop-opacity="1"></stop><stop offset="66%" stop-color="rgb(219,110,0)" stop-opacity="0.5"></stop><stop offset="100%" stop-color="rgb(219,110,0)" stop-opacity="0"></stop></radialGradient><linearGradient id="__lottie_element_43" spreadMethod="pad" gradientUnits="userSpaceOnUse" x1="-3.9260001182556152" y1="89.5719985961914" x2="-3.9260001182556152" y2="111.40899658203125"><stop offset="0%" stop-color="rgb(255,168,0)" stop-opacity="1"></stop><stop offset="65%" stop-color="rgb(255,168,0)" stop-opacity="0.5"></stop><stop offset="100%" stop-color="rgb(255,168,0)" stop-opacity="0"></stop></linearGradient><linearGradient id="__lottie_element_44" spreadMethod="pad" gradientUnits="userSpaceOnUse" x1="-3.9260001182556152" y1="99.6969985961914" x2="-3.9260001182556152" y2="72.13500213623047"><stop offset="10%" stop-color="rgb(219,110,0)" stop-opacity="1"></stop><stop offset="51%" stop-color="rgb(219,110,0)" stop-opacity="0.5"></stop><stop offset="80%" stop-color="rgb(219,110,0)" stop-opacity="0"></stop></linearGradient><radialGradient id="__lottie_element_45" spreadMethod="pad" gradientUnits="userSpaceOnUse" cx="-4.926000118255615" cy="62.696998596191406" r="35.147000789642334" fx="-4.926000118255615" fy="62.696998596191406"><stop offset="40%" stop-color="rgb(255,168,0)" stop-opacity="0"></stop><stop offset="76%" stop-color="rgb(255,168,0)" stop-opacity="0.5"></stop><stop offset="100%" stop-color="rgb(255,168,0)" stop-opacity="1"></stop></radialGradient><linearGradient id="__lottie_element_46" spreadMethod="pad" gradientUnits="userSpaceOnUse" x1="-3.9260001182556152" y1="58.696998596191406" x2="-3.9260001182556152" y2="78.00800323486328"><stop offset="0%" stop-color="rgb(255,255,255)" stop-opacity="1"></stop><stop offset="50%" stop-color="rgb(255,255,255)" stop-opacity="0.5"></stop><stop offset="99%" stop-color="rgb(255,255,255)" stop-opacity="0"></stop></linearGradient><linearGradient id="__lottie_element_53" spreadMethod="pad" gradientUnits="userSpaceOnUse" x1="-1.6759999990463257" y1="-65.08200073242188" x2="3.0739998817443848" y2="77.33100128173828"><stop offset="0%" stop-color="rgb(255,216,0)" stop-opacity="0"></stop><stop offset="11%" stop-color="rgb(255,216,0)" stop-opacity="0.5"></stop><stop offset="45%" stop-color="rgb(255,216,0)" stop-opacity="1"></stop><stop offset="90%" stop-color="rgb(255,216,0)" stop-opacity="0.5"></stop><stop offset="100%" stop-color="rgb(255,216,0)" stop-opacity="0"></stop></linearGradient><linearGradient id="__lottie_element_54" spreadMethod="pad" gradientUnits="userSpaceOnUse" x1="-2.9130001068115234" y1="-93.68900299072266" x2="-2.9130001068115234" y2="-22.81599998474121"><stop offset="15%" stop-color="rgb(219,110,0)" stop-opacity="1"></stop><stop offset="45%" stop-color="rgb(219,110,0)" stop-opacity="0.5"></stop><stop offset="70%" stop-color="rgb(219,110,0)" stop-opacity="0"></stop></linearGradient><linearGradient id="__lottie_element_58" spreadMethod="pad" gradientUnits="userSpaceOnUse" x1="0.19900000095367432" y1="132.3800048828125" x2="0.19900000095367432" y2="212.2259979248047"><stop offset="0%" stop-color="rgb(148,207,255)"></stop><stop offset="65%" stop-color="rgb(117,189,255)"></stop><stop offset="100%" stop-color="rgb(86,171,255)"></stop></linearGradient><linearGradient id="__lottie_element_59" spreadMethod="pad" gradientUnits="userSpaceOnUse" x1="99.6989974975586" y1="125.87999725341797" x2="89.70099639892578" y2="172.16200256347656"><stop offset="0%" stop-color="rgb(215,109,48)"></stop><stop offset="36%" stop-color="rgb(235,133,48)"></stop><stop offset="100%" stop-color="rgb(255,157,49)"></stop></linearGradient><linearGradient id="__lottie_element_60" spreadMethod="pad" gradientUnits="userSpaceOnUse" x1="101.6989974975586" y1="115.87999725341797" x2="93.48100280761719" y2="165.93899536132812"><stop offset="0%" stop-color="rgb(232,218,51)"></stop><stop offset="60%" stop-color="rgb(243,236,51)"></stop><stop offset="100%" stop-color="rgb(253,255,51)"></stop></linearGradient><linearGradient id="__lottie_element_61" spreadMethod="pad" gradientUnits="userSpaceOnUse" x1="99.6989974975586" y1="125.87999725341797" x2="89.70099639892578" y2="172.16200256347656"><stop offset="0%" stop-color="rgb(215,109,48)"></stop><stop offset="36%" stop-color="rgb(235,133,48)"></stop><stop offset="100%" stop-color="rgb(255,157,49)"></stop></linearGradient><linearGradient id="__lottie_element_62" spreadMethod="pad" gradientUnits="userSpaceOnUse" x1="101.6989974975586" y1="115.87999725341797" x2="93.48100280761719" y2="165.93899536132812"><stop offset="0%" stop-color="rgb(232,218,51)"></stop><stop offset="60%" stop-color="rgb(243,236,51)"></stop><stop offset="100%" stop-color="rgb(253,255,51)"></stop></linearGradient><radialGradient id="__lottie_element_66" spreadMethod="pad" gradientUnits="userSpaceOnUse" cx="-1.0509999990463257" cy="151.8800048828125" r="48.38864761652768" fx="-1.0509999990463257" fy="151.8800048828125"><stop offset="20%" stop-color="rgb(255,168,0)" stop-opacity="1"></stop><stop offset="68%" stop-color="rgb(255,168,0)" stop-opacity="0.5"></stop><stop offset="100%" stop-color="rgb(255,168,0)" stop-opacity="0"></stop></radialGradient></defs><g clip-path="url(#__lottie_element_2)"><g style="display: block;" transform="matrix(1,0,0,1,257,256)" opacity="1"><g opacity="1" transform="matrix(1,0,0,1,0,0)"><path fill="rgb(181,102,6)" fill-opacity="1" d=" M38.58599853515625,78.58499908447266 C38.58599853515625,78.58499908447266 -1.4900000095367432,81.62799835205078 -1.4900000095367432,81.62799835205078 C-1.4900000095367432,81.62799835205078 -41.566001892089844,78.58499908447266 -41.566001892089844,78.58499908447266 C-41.566001892089844,78.58499908447266 -42.551998138427734,123.38999938964844 -42.551998138427734,123.38999938964844 C-42.551998138427734,123.38999938964844 -23.69499969482422,139.18499755859375 -0.49000000953674316,139.18499755859375 C22.71500015258789,139.18499755859375 39.571998596191406,123.38999938964844 39.571998596191406,123.38999938964844 C39.571998596191406,123.38999938964844 38.58599853515625,78.58499908447266 38.58599853515625,78.58499908447266z"></path></g><g opacity="1" transform="matrix(1,0,0,1,0,0)"><path fill="url(#__lottie_element_66)" fill-opacity="1" d=" M39.58599853515625,78.58499908447266 C39.58599853515625,78.58499908447266 -0.49000000953674316,81.62799835205078 -0.49000000953674316,81.62799835205078 C-0.49000000953674316,81.62799835205078 -40.566001892089844,78.58499908447266 -40.566001892089844,78.58499908447266 C-40.566001892089844,78.58499908447266 -41.551998138427734,123.38999938964844 -41.551998138427734,123.38999938964844 C-41.551998138427734,123.38999938964844 -23.69499969482422,139.18499755859375 -0.49000000953674316,139.18499755859375 C22.71500015258789,139.18499755859375 40.571998596191406,123.38999938964844 40.571998596191406,123.38999938964844 C40.571998596191406,123.38999938964844 39.58599853515625,78.58499908447266 39.58599853515625,78.58499908447266z"></path></g><g opacity="1" transform="matrix(1,0,0,1,0,0)"><path stroke-linecap="round" stroke-linejoin="round" fill-opacity="0" stroke="rgb(153,71,4)" stroke-opacity="1" stroke-width="8" d=" M39.571998596191406,120.38999938964844 C39.571998596191406,120.38999938964844 38.58599853515625,78.58499908447266 38.58599853515625,78.58499908447266 C38.58599853515625,78.58499908447266 -1.4900000095367432,81.62799835205078 -1.4900000095367432,81.62799835205078 C-1.4900000095367432,81.62799835205078 -41.566001892089844,78.58499908447266 -41.566001892089844,78.58499908447266 C-41.566001892089844,78.58499908447266 -42.551998138427734,120.38999938964844 -42.551998138427734,120.38999938964844"></path></g></g><g style="display: block;" transform="matrix(1,0,0,1,256,256)" opacity="1"><g opacity="1" transform="matrix(1,0,0,1,0,0)"><g opacity="1" transform="matrix(1,0,0,1,0,0)"><path fill="url(#__lottie_element_58)" fill-opacity="1" d=" M130.17799377441406,144.37399291992188 C130.17799377441406,144.37399291992188 80.98200225830078,111.83599853515625 48.02199935913086,104.38500213623047 C48.02199935913086,104.38500213623047 46.724998474121094,138.43699645996094 -0.49000000953674316,138.43699645996094 C-47.70500183105469,138.43699645996094 -49.000999450683594,104.38500213623047 -49.000999450683594,104.38500213623047 C-81.96199798583984,111.83599853515625 -131.15699768066406,144.37399291992188 -131.15699768066406,144.37399291992188 C-149.13499450683594,173.26400756835938 -150.39199829101562,215.55799865722656 -150.39199829101562,215.55799865722656 C-150.39199829101562,215.55799865722656 -0.49000000953674316,215.55799865722656 -0.49000000953674316,215.55799865722656 C-0.49000000953674316,215.55799865722656 149.41299438476562,215.55799865722656 149.41299438476562,215.55799865722656 C149.41299438476562,215.55799865722656 148.156005859375,173.26400756835938 130.17799377441406,144.37399291992188z"></path></g><g opacity="1" transform="matrix(1,0,0,1,0,0)"><path fill="rgb(59,71,83)" fill-opacity="1" d=" M-53.249000549316406,106.02999877929688 C-53.249000549316406,106.02999877929688 -41.39699935913086,159.33799743652344 -22.768999099731445,215.56100463867188 C-22.768999099731445,215.56100463867188 -50.400001525878906,215.56100463867188 -50.400001525878906,215.56100463867188 C-50.400001525878906,215.56100463867188 -69.98500061035156,110.41799926757812 -69.98500061035156,110.41799926757812 C-69.98500061035156,110.41799926757812 -53.249000549316406,106.02999877929688 -53.249000549316406,106.02999877929688z"></path></g><g opacity="1" transform="matrix(1,0,0,1,0,0)"><path fill="rgb(59,71,83)" fill-opacity="1" d=" M52.305999755859375,106.02999877929688 C52.305999755859375,106.02999877929688 40.45399856567383,159.33799743652344 21.826000213623047,215.56100463867188 C21.826000213623047,215.56100463867188 49.457000732421875,215.56100463867188 49.457000732421875,215.56100463867188 C49.457000732421875,215.56100463867188 69.04199981689453,110.41799926757812 69.04199981689453,110.41799926757812 C69.04199981689453,110.41799926757812 52.305999755859375,106.02999877929688 52.305999755859375,106.02999877929688z"></path></g><g opacity="1" transform="matrix(1,0,0,1,0,0)"><path fill="rgb(11,113,182)" fill-opacity="0.4" d=" M149.6820068359375,215.55799865722656 C149.6820068359375,215.55799865722656 127.90799713134766,215.56100463867188 127.90799713134766,215.56100463867188 C127.90799713134766,215.56100463867188 129.61700439453125,148.03799438476562 129.61700439453125,148.03799438476562 C129.61700439453125,148.03799438476562 133.9429931640625,148.49400329589844 133.9429931640625,148.49400329589844 C133.9429931640625,148.49400329589844 149.51199340820312,181.9980010986328 149.6820068359375,215.55799865722656z"></path></g><g opacity="1" transform="matrix(1,0,0,1,0,0)"><path fill="rgb(11,113,182)" fill-opacity="0.4" d=" M-150.39199829101562,215.55799865722656 C-150.39199829101562,215.55799865722656 -128.61900329589844,215.56100463867188 -128.61900329589844,215.56100463867188 C-128.61900329589844,215.56100463867188 -130.32699584960938,148.03799438476562 -130.32699584960938,148.03799438476562 C-130.32699584960938,148.03799438476562 -134.6540069580078,148.49400329589844 -134.6540069580078,148.49400329589844 C-134.6540069580078,148.49400329589844 -150.2220001220703,181.9980010986328 -150.39199829101562,215.55799865722656z"></path></g><g opacity="1" transform="matrix(1,0,0,1,0,0)"><path fill="rgb(59,71,83)" fill-opacity="1" d=" M-139.4499969482422,152.87399291992188 C-139.4499969482422,152.87399291992188 -142.0019989013672,183.1490020751953 -139.39999389648438,215.62600708007812 C-139.39999389648438,215.62600708007812 -121.96499633789062,215.6230010986328 -121.96499633789062,215.6230010986328 C-121.96499633789062,215.6230010986328 -133.177001953125,154.23399353027344 -133.177001953125,154.23399353027344 C-133.177001953125,154.23399353027344 -139.4499969482422,152.87399291992188 -139.4499969482422,152.87399291992188z"></path></g><g opacity="1" transform="matrix(1,0,0,1,0,0)"><path fill="rgb(59,71,83)" fill-opacity="1" d=" M138.6750030517578,152.80999755859375 C138.6750030517578,152.80999755859375 141.22799682617188,183.08399963378906 138.62600708007812,215.56100463867188 C138.62600708007812,215.56100463867188 121.19100189208984,215.55799865722656 121.19100189208984,215.55799865722656 C121.19100189208984,215.55799865722656 132.4029998779297,154.16900634765625 132.4029998779297,154.16900634765625 C132.4029998779297,154.16900634765625 138.6750030517578,152.80999755859375 138.6750030517578,152.80999755859375z"></path></g><g opacity="1" transform="matrix(1,0,0,1,0,0)"><path stroke-linecap="round" stroke-linejoin="round" fill-opacity="0" stroke="rgb(55,132,195)" stroke-opacity="1" stroke-width="8" d=" M149.41299438476562,211.55799865722656 C149.41299438476562,211.55799865722656 148.156005859375,173.26400756835938 130.17799377441406,144.37399291992188 C130.17799377441406,144.37399291992188 80.98200225830078,111.83599853515625 48.02199935913086,104.38500213623047 C48.02199935913086,104.38500213623047 46.724998474121094,138.43699645996094 -0.49000000953674316,138.43699645996094 C-47.70500183105469,138.43699645996094 -49.000999450683594,104.38500213623047 -49.000999450683594,104.38500213623047 C-81.96199798583984,111.83599853515625 -131.15699768066406,144.37399291992188 -131.15699768066406,144.37399291992188 C-149.13499450683594,173.26400756835938 -150.39199829101562,211.55799865722656 -150.39199829101562,211.55799865722656"></path></g><g opacity="1" transform="matrix(1,0,0,1,0,0)"><path stroke-linecap="round" stroke-linejoin="round" fill-opacity="0" stroke="rgb(11,113,182)" stroke-opacity="1" stroke-width="8" d=" M-131.15699768066406,144.37399291992188 C-149.13499450683594,173.26400756835938 -150.39199829101562,211.55799865722656 -150.39199829101562,211.55799865722656"></path></g><g opacity="1" transform="matrix(1,0,0,1,0,0)"><path stroke-linecap="round" stroke-linejoin="round" fill-opacity="0" stroke="rgb(11,113,182)" stroke-opacity="1" stroke-width="8" d=" M149.41299438476562,211.55799865722656 C149.41299438476562,211.55799865722656 148.156005859375,173.26400756835938 130.17799377441406,144.37399291992188"></path></g></g><g opacity="1" transform="matrix(-1,0,0,1,-1.00799560546875,0)"><g opacity="1" transform="matrix(1,0,0,1,0,0)"><path fill="url(#__lottie_element_59)" fill-opacity="1" d=" M37.49800109863281,215.55799865722656 C37.49800109863281,215.55799865722656 51.28900146484375,166.36599731445312 64.53500366210938,107.11900329589844 C64.53500366210938,107.11900329589844 102.83899688720703,117.60600280761719 130.04600524902344,139.0850067138672 C130.04600524902344,139.0850067138672 131.1199951171875,169.10499572753906 128.25599670410156,215.55799865722656"></path></g><g opacity="1" transform="matrix(1,0,0,1,0,0)"><path fill="url(#__lottie_element_60)" fill-opacity="1" d=" M89.03800201416016,115.0270004272461 C89.03800201416016,115.0270004272461 82.27100372314453,159.6020050048828 69.0479965209961,215.55799865722656 C69.0479965209961,215.55799865722656 99.93800354003906,215.55799865722656 99.93800354003906,215.55799865722656 C99.93800354003906,215.55799865722656 107.74400329589844,175.36700439453125 111.77899932861328,125.82599639892578 C111.77899932861328,125.82599639892578 89.03800201416016,115.0270004272461 89.03800201416016,115.0270004272461z"></path></g><g opacity="1" transform="matrix(1,0,0,1,0,0)"><path stroke-linecap="round" stroke-linejoin="round" fill-opacity="0" stroke="rgb(255,255,255)" stroke-opacity="0.3" stroke-width="8" d=" M130.052001953125,146.33799743652344 C130.052001953125,146.33799743652344 101.04399871826172,122.3479995727539 62.90800094604492,114.31500244140625"></path></g><g opacity="1" transform="matrix(1,0,0,1,0,0)"><path stroke-linecap="round" stroke-linejoin="round" fill-opacity="0" stroke="rgb(201,82,0)" stroke-opacity="1" stroke-width="8" d=" M37.49800109863281,211.55799865722656 C37.49800109863281,211.55799865722656 51.28900146484375,166.36599731445312 64.53500366210938,107.11900329589844 C64.53500366210938,107.11900329589844 102.83899688720703,117.60600280761719 130.04600524902344,139.0850067138672 C130.04600524902344,139.0850067138672 131.1199951171875,165.10499572753906 128.25599670410156,211.55799865722656"></path></g><g opacity="1" transform="matrix(1,0,0,1,0,0)"><path stroke-linecap="round" stroke-linejoin="round" fill-opacity="0" stroke="rgb(180,70,0)" stroke-opacity="1" stroke-width="8" d=" M64.53500366210938,107.11900329589844 C64.53500366210938,107.11900329589844 102.83899688720703,117.60600280761719 130.04600524902344,139.0850067138672"></path></g><g opacity="1" transform="matrix(1,0,0,1,0,0)"><path stroke-linecap="butt" stroke-linejoin="round" fill-opacity="0" stroke="rgb(215,180,0)" stroke-opacity="1" stroke-width="8" d=" M89.63200378417969,116.10399627685547 C96.47599792480469,118.99299621582031 104.10399627685547,122.58399963378906 111.69200134277344,126.88700103759766 C111.69200134277344,126.88700103759766 113.37100219726562,127.85199737548828 113.37100219726562,127.85199737548828"></path></g></g><g opacity="1" transform="matrix(1,0,0,1,0,0)"><g opacity="1" transform="matrix(1,0,0,1,0,0)"><path fill="url(#__lottie_element_61)" fill-opacity="1" d=" M37.49800109863281,215.55799865722656 C37.49800109863281,215.55799865722656 51.28900146484375,166.36599731445312 64.53500366210938,107.11900329589844 C64.53500366210938,107.11900329589844 102.83899688720703,117.60600280761719 130.04600524902344,139.0850067138672 C130.04600524902344,139.0850067138672 131.1199951171875,169.10499572753906 128.25599670410156,215.55799865722656"></path></g><g opacity="1" transform="matrix(1,0,0,1,0,0)"><path fill="url(#__lottie_element_62)" fill-opacity="1" d=" M89.03800201416016,115.0270004272461 C89.03800201416016,115.0270004272461 82.27100372314453,159.6020050048828 69.0479965209961,215.55799865722656 C69.0479965209961,215.55799865722656 99.93800354003906,215.55799865722656 99.93800354003906,215.55799865722656 C99.93800354003906,215.55799865722656 107.74400329589844,175.36700439453125 111.77899932861328,125.82599639892578 C111.77899932861328,125.82599639892578 89.03800201416016,115.0270004272461 89.03800201416016,115.0270004272461z"></path></g><g opacity="1" transform="matrix(1,0,0,1,0,0)"><path stroke-linecap="round" stroke-linejoin="round" fill-opacity="0" stroke="rgb(255,255,255)" stroke-opacity="0.3" stroke-width="8" d=" M130.052001953125,146.33799743652344 C130.052001953125,146.33799743652344 101.04399871826172,122.3479995727539 62.90800094604492,114.31500244140625"></path></g><g opacity="1" transform="matrix(1,0,0,1,0,0)"><path stroke-linecap="round" stroke-linejoin="round" fill-opacity="0" stroke="rgb(201,82,0)" stroke-opacity="1" stroke-width="8" d=" M37.49800109863281,211.55799865722656 C37.49800109863281,211.55799865722656 51.28900146484375,166.36599731445312 64.53500366210938,107.11900329589844 C64.53500366210938,107.11900329589844 102.83899688720703,117.60600280761719 130.04600524902344,139.0850067138672 C130.04600524902344,139.0850067138672 131.1199951171875,165.10499572753906 128.25599670410156,211.55799865722656"></path></g><g opacity="1" transform="matrix(1,0,0,1,0,0)"><path stroke-linecap="round" stroke-linejoin="round" fill-opacity="0" stroke="rgb(180,70,0)" stroke-opacity="1" stroke-width="8" d=" M64.53500366210938,107.11900329589844 C64.53500366210938,107.11900329589844 102.83899688720703,117.60600280761719 130.04600524902344,139.0850067138672"></path></g><g opacity="1" transform="matrix(1,0,0,1,0,0)"><path stroke-linecap="butt" stroke-linejoin="round" fill-opacity="0" stroke="rgb(215,180,0)" stroke-opacity="1" stroke-width="8" d=" M89.63200378417969,116.10399627685547 C96.47599792480469,118.99299621582031 104.10399627685547,122.58399963378906 111.69200134277344,126.88700103759766 C111.69200134277344,126.88700103759766 113.37100219726562,127.85199737548828 113.37100219726562,127.85199737548828"></path></g></g></g><g style="display: block;" transform="matrix(1.0299999713897705,0,0,1.0299999713897705,252.65121459960938,253.51577758789062)" opacity="1"><g opacity="1" transform="matrix(1,0,0,1,0,0)"><g opacity="1" transform="matrix(1,0,0,1,0,0)"><path fill="rgb(255,168,0)" fill-opacity="1" d=" M81.25199890136719,-118.45700073242188 C38.930999755859375,-176.10800170898438 -50.875,-149.40899658203125 -73.13200378417969,-118.45700073242188 C-94.11900329589844,-89.27200317382812 -106.9209976196289,-15.88599967956543 -83.46399688720703,33.38100051879883 C-60.00699996948242,82.64800262451172 -19.52899932861328,96.52200317382812 4.059999942779541,96.52200317382812 C27.64900016784668,96.52200317382812 68.12699890136719,82.64800262451172 91.58399963378906,33.38100051879883 C115.04100036621094,-15.88599967956543 103.20099639892578,-88.55699920654297 81.25199890136719,-118.45700073242188z"></path><path stroke-linecap="round" stroke-linejoin="round" fill-opacity="0" stroke="rgb(219,110,0)" stroke-opacity="1" stroke-width="8" d=" M81.25199890136719,-118.45700073242188 C38.930999755859375,-176.10800170898438 -50.875,-149.40899658203125 -73.13200378417969,-118.45700073242188 C-94.11900329589844,-89.27200317382812 -106.9209976196289,-15.88599967956543 -83.46399688720703,33.38100051879883 C-60.00699996948242,82.64800262451172 -19.52899932861328,96.52200317382812 4.059999942779541,96.52200317382812 C27.64900016784668,96.52200317382812 68.12699890136719,82.64800262451172 91.58399963378906,33.38100051879883 C115.04100036621094,-15.88599967956543 103.20099639892578,-88.55699920654297 81.25199890136719,-118.45700073242188z"></path></g><g opacity="1" transform="matrix(1,0,0,1,0,0)"><path fill="url(#__lottie_element_53)" fill-opacity="1" d=" M2.48799991607666,79.40299987792969 C-41.939998626708984,78.37799835205078 -91.05799865722656,32.768001556396484 -83.05899810791016,-46.24800109863281 C-83.05899810791016,-46.24800109863281 -75.24199676513672,-55.29600143432617 -70.85700225830078,-66.66200256347656 C-70.85700225830078,-66.66200256347656 -60.310001373291016,-60.09700012207031 -61.43299865722656,-77.46600341796875 C-61.43299865722656,-77.46600341796875 -58.172000885009766,-94.36799621582031 -56.41400146484375,-107.63600158691406 C-56.41400146484375,-107.63600158691406 62.45199966430664,-61.534000396728516 63.887001037597656,-67.20899963378906 C63.887001037597656,-67.20899963378906 75.38700103759766,-50.73400115966797 77.64299774169922,-57.99700164794922 C77.64299774169922,-57.99700164794922 87.89299774169922,-42.89099884033203 90.41999816894531,-32.180999755859375 C93.94400024414062,-17.249000549316406 89.15399932861328,9.732999801635742 76.72000122070312,32.28799819946289 C61.202999114990234,60.435001373291016 34.76599884033203,80.14800262451172 2.48799991607666,79.40299987792969z"></path></g><g opacity="1" transform="matrix(1,0,0,1,0,0)"><path fill="url(#__lottie_element_54)" fill-opacity="1" d=" M81.25199890136719,-118.45700073242188 C38.930999755859375,-176.10800170898438 -50.875,-149.40899658203125 -73.13200378417969,-118.45700073242188 C-94.11900329589844,-89.27200317382812 -106.9209976196289,-15.88599967956543 -83.46399688720703,33.38100051879883 C-60.00699996948242,82.64800262451172 -19.52899932861328,96.52200317382812 4.059999942779541,96.52200317382812 C27.64900016784668,96.52200317382812 68.12699890136719,82.64800262451172 91.58399963378906,33.38100051879883 C115.04100036621094,-15.88599967956543 103.20099639892578,-88.55699920654297 81.25199890136719,-118.45700073242188z"></path></g></g></g><g style="display: block;" transform="matrix(0.75,0,0,0.7400000095367432,259.8079833984375,211.7982177734375)" opacity="1"><g opacity="1" transform="matrix(1,0,0,1,0,0)"><path fill="rgb(255,168,0)" fill-opacity="1" d=" M-150.2259979248047,-0.6800000071525574 C-150.2259979248047,-0.6800000071525574 -164.0850067138672,-10.10099983215332 -171.37100219726562,2.5230000019073486 C-178.03599548339844,14.071000099182129 -165.3000030517578,73.76799774169922 -153.53399658203125,83.44999694824219 C-146.29600524902344,89.40599822998047 -138.4600067138672,82.05899810791016 -138.4600067138672,82.05899810791016 C-133.68699645996094,78.79299926757812 -141.43299865722656,11.295000076293945 -150.2259979248047,-0.6800000071525574z"></path><path stroke-linecap="round" stroke-linejoin="round" fill-opacity="0" stroke="rgb(219,110,0)" stroke-opacity="1" stroke-width="11" d=" M-150.2259979248047,-0.6800000071525574 C-150.2259979248047,-0.6800000071525574 -164.0850067138672,-10.10099983215332 -171.37100219726562,2.5230000019073486 C-178.03599548339844,14.071000099182129 -165.3000030517578,73.76799774169922 -153.53399658203125,83.44999694824219 C-146.29600524902344,89.40599822998047 -138.4600067138672,82.05899810791016 -138.4600067138672,82.05899810791016 C-133.68699645996094,78.79299926757812 -141.43299865722656,11.295000076293945 -150.2259979248047,-0.6800000071525574z"></path></g><g opacity="1" transform="matrix(1,0,0,1,0,0)"><path fill="rgb(255,168,0)" fill-opacity="1" d=" M141.28399658203125,-0.6800000071525574 C141.28399658203125,-0.6800000071525574 155.1439971923828,-10.10099983215332 162.42999267578125,2.5230000019073486 C169.09500122070312,14.071000099182129 156.35800170898438,73.76799774169922 144.5919952392578,83.44999694824219 C137.35400390625,89.40599822998047 129.51800537109375,82.05899810791016 129.51800537109375,82.05899810791016 C124.74500274658203,78.79299926757812 132.49099731445312,11.295000076293945 141.28399658203125,-0.6800000071525574z"></path><path stroke-linecap="round" stroke-linejoin="round" fill-opacity="0" stroke="rgb(219,110,0)" stroke-opacity="1" stroke-width="11" d=" M141.28399658203125,-0.6800000071525574 C141.28399658203125,-0.6800000071525574 155.1439971923828,-10.10099983215332 162.42999267578125,2.5230000019073486 C169.09500122070312,14.071000099182129 156.35800170898438,73.76799774169922 144.5919952392578,83.44999694824219 C137.35400390625,89.40599822998047 129.51800537109375,82.05899810791016 129.51800537109375,82.05899810791016 C124.74500274658203,78.79299926757812 132.49099731445312,11.295000076293945 141.28399658203125,-0.6800000071525574z"></path></g></g><g style="display: block;" transform="matrix(0.75,0,0,0.7400000095367432,259.8079833984375,212.77206420898438)" opacity="1"><g opacity="1" transform="matrix(1,0,0,1,0,0)"><path fill="rgb(255,168,0)" fill-opacity="1" d=" M139.5749969482422,38.790000915527344 C139.5749969482422,130.41299438476562 74.5199966430664,207.6750030517578 -3.9210000038146973,207.6750030517578 C-82.36199951171875,207.6750030517578 -147.41700744628906,130.41299438476562 -147.41700744628906,38.790000915527344 C-161.85000610351562,-113.5260009765625 -81.47699737548828,-174.81399536132812 -3.9210000038146973,-174.81399536132812 C71.60099792480469,-174.81399536132812 139.5749969482422,-150.91400146484375 139.5749969482422,38.790000915527344z"></path></g><g opacity="1" transform="matrix(1,0,0,1,0,0)"><g opacity="1" transform="matrix(1,0,0,1,0,0)"><path fill="url(#__lottie_element_16)" fill-opacity="1" d=" M126.03700256347656,-11.361000061035156 C101.4280014038086,-36.35499954223633 101.21700286865234,-59.29499816894531 100.02799987792969,-66.03500366210938 C99.78700256347656,-67.4020004272461 98.46800231933594,-68.30599975585938 97.10700225830078,-68.03500366210938 C-10.142999649047852,-46.66400146484375 -82.04000091552734,-74.15399932861328 -94.93399810791016,-83.56300354003906 C-96.43000030517578,-84.65499877929688 -98.90699768066406,-83.79100036621094 -98.83699798583984,-81.94000244140625 C-97.66600036621094,-50.900001525878906 -132.54600524902344,-17.801000595092773 -134.1479949951172,-13.234999656677246 C-134.1719970703125,-11.425999641418457 -134.2270050048828,23.518999099731445 -134.2270050048828,25.725000381469727 C-134.2270050048828,108.35299682617188 -75.1520004272461,181.02999877929688 -3.9210000038146973,181.02999877929688 C67.30999755859375,181.02999877929688 126.38500213623047,108.35299682617188 126.38500213623047,25.725000381469727 C126.38500213623047,18.448999404907227 126.0719985961914,-10.156000137329102 126.03700256347656,-11.361000061035156z"></path></g><g opacity="1" transform="matrix(1,0,0,1,0,0)"><path fill="url(#__lottie_element_17)" fill-opacity="1" d=" M139.5749969482422,38.790000915527344 C139.5749969482422,130.41299438476562 74.5199966430664,207.6750030517578 -3.9210000038146973,207.6750030517578 C-82.36199951171875,207.6750030517578 -147.41700744628906,130.41299438476562 -147.41700744628906,38.790000915527344 C-161.85000610351562,-113.5260009765625 -81.47699737548828,-174.81399536132812 -3.9210000038146973,-174.81399536132812 C71.60099792480469,-174.81399536132812 139.5749969482422,-150.91400146484375 139.5749969482422,38.790000915527344z"></path></g></g><g opacity="1" transform="matrix(1,0,0,1,0,0)"><path stroke-linecap="round" stroke-linejoin="round" fill-opacity="0" stroke="rgb(219,110,0)" stroke-opacity="1" stroke-width="11" d=" M139.5749969482422,38.790000915527344 C139.5749969482422,130.41299438476562 74.5199966430664,207.6750030517578 -3.9210000038146973,207.6750030517578 C-82.36199951171875,207.6750030517578 -147.41700744628906,130.41299438476562 -147.41700744628906,38.790000915527344 C-161.85000610351562,-113.5260009765625 -81.47699737548828,-174.81399536132812 -3.9210000038146973,-174.81399536132812 C71.60099792480469,-174.81399536132812 139.5749969482422,-150.91400146484375 139.5749969482422,38.790000915527344z"></path></g></g><g style="display: block;" transform="matrix(0.75,0,0,0.7400000095367432,260.91796875,213.50245666503906)" opacity="1"><g opacity="1" transform="matrix(1,0,0,1,0,0)"><path fill="url(#__lottie_element_43)" fill-opacity="1" d=" M25.260000228881836,83.00599670410156 C25.260000228881836,95.93000030517578 13.814000129699707,106.40799713134766 -3.9210000038146973,106.40799713134766 C-21.6560001373291,106.40799713134766 -33.10200119018555,95.93000030517578 -33.10200119018555,83.00599670410156 C-37.5,49.625 29.875,48.75 25.260000228881836,83.00599670410156z"></path></g><g opacity="1" transform="matrix(1,0,0,1,0,0)"><path fill="rgb(255,168,0)" fill-opacity="0.8" d=" M25.871000289916992,78.61000061035156 C25.871000289916992,90.5999984741211 12.532999992370605,100.31999969482422 -3.9210000038146973,100.31999969482422 C-20.375,100.31999969482422 -33.7130012512207,90.5999984741211 -33.7130012512207,78.61000061035156 C-33.7130012512207,66.62000274658203 -20.375,57.4109992980957 -3.9210000038146973,57.4109992980957 C12.532999992370605,57.4109992980957 25.871000289916992,66.62000274658203 25.871000289916992,78.61000061035156z"></path></g><g opacity="1" transform="matrix(1,0,0,1,0,0)"><path fill="url(#__lottie_element_44)" fill-opacity="1" d=" M25.871000289916992,78.61000061035156 C25.871000289916992,90.5999984741211 12.532999992370605,100.31999969482422 -3.9210000038146973,100.31999969482422 C-20.375,100.31999969482422 -33.7130012512207,90.5999984741211 -33.7130012512207,78.61000061035156 C-33.7130012512207,66.62000274658203 -20.375,57.4109992980957 -3.9210000038146973,57.4109992980957 C12.532999992370605,57.4109992980957 25.871000289916992,66.62000274658203 25.871000289916992,78.61000061035156z"></path></g><g opacity="1" transform="matrix(1,0,0,1,0,0)"><path fill="rgb(255,216,0)" fill-opacity="1" d=" M23.19300079345703,72.87200164794922 C23.19300079345703,81.7979965209961 10.312999725341797,90.3759994506836 -3.9210000038146973,90.3759994506836 C-18.155000686645508,90.3759994506836 -31.03499984741211,81.7979965209961 -31.03499984741211,72.87200164794922 C-31.03499984741211,63.94599914550781 -18.155000686645508,56.965999603271484 -3.9210000038146973,56.965999603271484 C10.312999725341797,56.965999603271484 23.19300079345703,63.94599914550781 23.19300079345703,72.87200164794922z"></path></g><g opacity="1" transform="matrix(1,0,0,1,0,0)"><path fill="url(#__lottie_element_45)" fill-opacity="1" d=" M23.19300079345703,72.87200164794922 C23.19300079345703,81.7979965209961 10.312999725341797,90.3759994506836 -3.9210000038146973,90.3759994506836 C-18.155000686645508,90.3759994506836 -31.03499984741211,81.7979965209961 -31.03499984741211,72.87200164794922 C-31.03499984741211,63.94599914550781 -18.155000686645508,56.965999603271484 -3.9210000038146973,56.965999603271484 C10.312999725341797,56.965999603271484 23.19300079345703,63.94599914550781 23.19300079345703,72.87200164794922z"></path></g><g opacity="1" transform="matrix(1,0,0,1,0,0)"><path fill="url(#__lottie_element_46)" fill-opacity="0.7000000000000001" d=" M8.175000190734863,67.11000061035156 C8.175000190734863,73.16699981689453 2.759000062942505,78.86599731445312 -3.9210000038146973,78.86599731445312 C-10.60099983215332,78.86599731445312 -16.017000198364258,73.16699981689453 -16.017000198364258,67.11000061035156 C-16.017000198364258,61.053001403808594 -10.60099983215332,58.013999938964844 -3.9210000038146973,58.013999938964844 C2.759000062942505,58.013999938964844 8.175000190734863,61.053001403808594 8.175000190734863,67.11000061035156z"></path></g></g><g style="display: block;" transform="matrix(0.7799999713897705,0,0,0.7799999713897705,259.4473571777344,199.39907836914062)" opacity="1"><g opacity="1" transform="matrix(1,0,0,1,0,0)"><path fill="url(#__lottie_element_36)" fill-opacity="1" d=" M39.138999938964844,133.83799743652344 C36.43299865722656,131.2270050048828 32.07500076293945,130.64199829101562 -1.3819999694824219,130.64199829101562 C-34.03300094604492,130.64199829101562 -38.7599983215332,131.2270050048828 -41.90299987792969,133.83799743652344 C-44.38600158691406,135.9010009765625 -43.564998626708984,153.9219970703125 -1.3890000581741333,153.9219970703125 C40.11000061035156,153.9219970703125 41.31999969482422,135.9429931640625 39.138999938964844,133.83799743652344z"></path></g><g opacity="1" transform="matrix(1,0,0,1,0,0)"><path fill="url(#__lottie_element_37)" fill-opacity="0.7000000000000001" d=" M38.880001068115234,139.927001953125 C37.948001861572266,134.55299377441406 -40.1510009765625,134.21600341796875 -41.64400100708008,139.927001953125 C-42.24100112915039,142.21099853515625 -28.93199920654297,158.8990020751953 -1.3890000581741333,158.8990020751953 C25.687000274658203,158.8990020751953 39.29800033569336,142.33700561523438 38.880001068115234,139.927001953125z"></path></g><g opacity="1" transform="matrix(1,0,0,1,0,0)"><path fill="rgb(136,24,4)" fill-opacity="1" d=" M37.847999572753906,137.48899841308594 C36.301998138427734,135.1280059814453 32.07500076293945,135.50999450683594 -1.3819999694824219,135.50999450683594 C-34.03300094604492,135.50999450683594 -38.880001068115234,135.2100067138672 -40.61199951171875,137.48899841308594 C-42.132999420166016,139.49000549316406 -28.93199920654297,153.9219970703125 -1.3890000581741333,153.9219970703125 C25.687000274658203,153.9219970703125 39.26300048828125,139.6510009765625 37.847999572753906,137.48899841308594z"></path></g><g opacity="1" transform="matrix(1,0,0,1,0,0)"><path fill="url(#__lottie_element_38)" fill-opacity="1" d=" M37.847999572753906,137.48899841308594 C36.301998138427734,135.1280059814453 32.07500076293945,135.50999450683594 -1.3819999694824219,135.50999450683594 C-34.03300094604492,135.50999450683594 -38.880001068115234,135.2100067138672 -40.61199951171875,137.48899841308594 C-42.132999420166016,139.49000549316406 -28.93199920654297,153.9219970703125 -1.3890000581741333,153.9219970703125 C25.687000274658203,153.9219970703125 39.26300048828125,139.6510009765625 37.847999572753906,137.48899841308594z"></path></g><g opacity="1" transform="matrix(1,0,0,1,0,0)"><path fill="url(#__lottie_element_39)" fill-opacity="0.5" d=" M25.22800064086914,158.3800048828125 C25.22800064086914,163.8979949951172 15.295000076293945,172.40499877929688 -1.3890000581741333,172.40499877929688 C-18.072999954223633,172.40499877929688 -28.006999969482422,163.8979949951172 -28.006999969482422,158.3800048828125 C-28.006999969482422,152.86199951171875 -18.072999954223633,158.8979949951172 -1.3890000581741333,158.8979949951172 C15.295000076293945,158.8979949951172 25.22800064086914,152.86199951171875 25.22800064086914,158.3800048828125z"></path></g></g><g style="display: block;" transform="matrix(0.75,0,0,0.7400000095367432,259.8079833984375,212.285888671875)" opacity="1"><g opacity="1" transform="matrix(1,0,0,1,1.6449999809265137,0)"><g opacity="1" transform="matrix(1,0,0,1,0,0)"><path fill="rgb(255,255,255)" fill-opacity="1" d=" M28.57200050354004,35.28799819946289 C28.57200050354004,35.28799819946289 26.613000869750977,12.751999855041504 42.5989990234375,-1.8940000534057617 C56.33300018310547,-14.47700023651123 82.19000244140625,-13.241999626159668 95.14800262451172,2.878999948501587 C105.69999694824219,16.006000518798828 103.18800354003906,31.309999465942383 103.18800354003906,31.309999465942383 C103.18800354003906,31.309999465942383 92.65299987792969,42.63800048828125 71.02999877929688,43.87200164794922 C43.52000045776367,45.44200134277344 28.57200050354004,35.28799819946289 28.57200050354004,35.28799819946289z"></path></g><g opacity="1" transform="matrix(1,0,0,1,0.8220000267028809,0.5070000290870667)"><g opacity="1" transform="matrix(1,0,0,1,0,0)"><path fill="url(#__lottie_element_27)" fill-opacity="1" d=" M87.80000305175781,16.822999954223633 C87.80000305175781,29.83099937438965 77.25499725341797,40.375999450683594 64.24700164794922,40.375999450683594 C51.23899841308594,40.375999450683594 40.694000244140625,29.83099937438965 40.694000244140625,16.822999954223633 C40.694000244140625,3.815000057220459 51.23899841308594,-6.730000019073486 64.24700164794922,-6.730000019073486 C77.25499725341797,-6.730000019073486 87.80000305175781,3.815000057220459 87.80000305175781,16.822999954223633z"></path></g><g opacity="1" transform="matrix(1,0,0,1,0,0)"><g opacity="1" transform="matrix(1,0,0,1,0,0)"><path fill="url(#__lottie_element_28)" fill-opacity="1" d=" M70.28099822998047,39.303001403808594 C68.44000244140625,39.303001403808594 66.73600006103516,38.11399841308594 66.16500091552734,36.26300048828125 C65.46299743652344,33.9900016784668 66.73799896240234,31.577999114990234 69.01200103759766,30.87700080871582 C73.36100006103516,29.53499984741211 76.8239974975586,26.1560001373291 78.27300262451172,21.83799934387207 C79.02999877929688,19.58099937438965 81.47699737548828,18.368999481201172 83.72799682617188,19.125 C85.98400115966797,19.881999969482422 87.1989974975586,22.323999404907227 86.44200134277344,24.579999923706055 C84.11199951171875,31.520999908447266 78.5459976196289,36.952999114990234 71.5510025024414,39.11000061035156 C71.12799835205078,39.2400016784668 70.70099639892578,39.303001403808594 70.28099822998047,39.303001403808594z"></path></g></g><g opacity="1" transform="matrix(1,0,0,1,0,0)"><path fill="rgb(24,19,9)" fill-opacity="1" d=" M79.13200378417969,16.822999954223633 C79.13200378417969,25.04400062561035 72.46800231933594,31.708999633789062 64.24700164794922,31.708999633789062 C56.0260009765625,31.708999633789062 49.361000061035156,25.04400062561035 49.361000061035156,16.822999954223633 C49.361000061035156,8.60200023651123 56.0260009765625,1.937999963760376 64.24700164794922,1.937999963760376 C72.46800231933594,1.937999963760376 79.13200378417969,8.60200023651123 79.13200378417969,16.822999954223633z"></path></g><g opacity="1" transform="matrix(1,0,0,1,0,0)"><path fill="url(#__lottie_element_29)" fill-opacity="1" d=" M62.979000091552734,3.98799991607666 C62.979000091552734,7.326000213623047 60.42499923706055,10.032999992370605 57.275001525878906,10.032999992370605 C54.125,10.032999992370605 51.57099914550781,7.326000213623047 51.57099914550781,3.98799991607666 C51.57099914550781,0.6499999761581421 54.125,-2.055999994277954 57.275001525878906,-2.055999994277954 C60.42499923706055,-2.055999994277954 62.979000091552734,0.6499999761581421 62.979000091552734,3.98799991607666z"></path></g></g><g opacity="1" transform="matrix(1,0,0,1,0,0)"><path fill="rgb(163,65,0)" fill-opacity="1" d=" M28.57200050354004,35.28799819946289 C25.5310001373291,11.491000175476074 40.91299819946289,-12.895999908447266 66.53099822998047,-12.53600025177002 C89.56500244140625,-12.211999893188477 107.75700378417969,8.204000473022461 103.18800354003906,31.309999465942383 C103.68699645996094,9.857000350952148 87.84200286865234,-8.434000015258789 65.84700012207031,-8.170999526977539 C42.222999572753906,-7.888000011444092 29.457000732421875,13.711000442504883 28.57200050354004,35.28799819946289z"></path><path stroke-linecap="round" stroke-linejoin="round" fill-opacity="0" stroke="rgb(163,65,0)" stroke-opacity="1" stroke-width="2" d=" M28.57200050354004,35.28799819946289 C25.5310001373291,11.491000175476074 40.91299819946289,-12.895999908447266 66.53099822998047,-12.53600025177002 C89.56500244140625,-12.211999893188477 107.75700378417969,8.204000473022461 103.18800354003906,31.309999465942383 C103.68699645996094,9.857000350952148 87.84200286865234,-8.434000015258789 65.84700012207031,-8.170999526977539 C42.222999572753906,-7.888000011444092 29.457000732421875,13.711000442504883 28.57200050354004,35.28799819946289z"></path></g></g><g opacity="1" transform="matrix(1,0,0,1,0,0)"><g opacity="1" transform="matrix(1,0,0,1,0,0)"><path fill="rgb(255,255,255)" fill-opacity="1" d=" M-35.86199951171875,35.28799819946289 C-35.86199951171875,35.28799819946289 -33.90299987792969,12.751999855041504 -49.888999938964844,-1.8940000534057617 C-63.62300109863281,-14.47700023651123 -89.48100280761719,-13.241999626159668 -102.43900299072266,2.878999948501587 C-112.99099731445312,16.006000518798828 -110.47799682617188,31.309999465942383 -110.47799682617188,31.309999465942383 C-110.47799682617188,31.309999465942383 -99.94400024414062,42.63800048828125 -78.32099914550781,43.87200164794922 C-50.81100082397461,45.44200134277344 -35.86199951171875,35.28799819946289 -35.86199951171875,35.28799819946289z"></path></g><g opacity="1" transform="matrix(1,0,0,1,0.32899999618530273,0.8360000252723694)"><g opacity="1" transform="matrix(1,0,0,1,0,0)"><path fill="url(#__lottie_element_30)" fill-opacity="1" d=" M-47.98400115966797,16.822999954223633 C-47.98400115966797,29.83099937438965 -58.52899932861328,40.375999450683594 -71.53700256347656,40.375999450683594 C-84.54499816894531,40.375999450683594 -95.08999633789062,29.83099937438965 -95.08999633789062,16.822999954223633 C-95.08999633789062,3.815000057220459 -84.54499816894531,-6.730000019073486 -71.53700256347656,-6.730000019073486 C-58.52899932861328,-6.730000019073486 -47.98400115966797,3.815000057220459 -47.98400115966797,16.822999954223633z"></path></g><g opacity="1" transform="matrix(1,0,0,1,0,0)"><g opacity="1" transform="matrix(1,0,0,1,0,0)"><path fill="url(#__lottie_element_31)" fill-opacity="1" d=" M-65.59600067138672,39.303001403808594 C-67.43699645996094,39.303001403808594 -69.14099884033203,38.11399841308594 -69.71199798583984,36.26300048828125 C-70.41400146484375,33.9900016784668 -69.13899993896484,31.577999114990234 -66.86499786376953,30.87700080871582 C-62.51599884033203,29.53499984741211 -59.053001403808594,26.1560001373291 -57.604000091552734,21.83799934387207 C-56.84700012207031,19.58099937438965 -54.400001525878906,18.368999481201172 -52.14899826049805,19.125 C-49.893001556396484,19.881999969482422 -48.67900085449219,22.323999404907227 -49.43600082397461,24.579999923706055 C-51.76599884033203,31.520999908447266 -57.33100128173828,36.952999114990234 -64.32599639892578,39.11000061035156 C-64.7490005493164,39.2400016784668 -65.1760025024414,39.303001403808594 -65.59600067138672,39.303001403808594z"></path></g></g><g opacity="1" transform="matrix(1,0,0,1,0,0)"><path fill="rgb(24,19,9)" fill-opacity="1" d=" M-56.652000427246094,16.822999954223633 C-56.652000427246094,25.04400062561035 -63.316001892089844,31.708999633789062 -71.53700256347656,31.708999633789062 C-79.75800323486328,31.708999633789062 -86.4229965209961,25.04400062561035 -86.4229965209961,16.822999954223633 C-86.4229965209961,8.60200023651123 -79.75800323486328,1.937999963760376 -71.53700256347656,1.937999963760376 C-63.316001892089844,1.937999963760376 -56.652000427246094,8.60200023651123 -56.652000427246094,16.822999954223633z"></path></g><g opacity="1" transform="matrix(1,0,0,1,0,0)"><path fill="url(#__lottie_element_32)" fill-opacity="1" d=" M-72.80500030517578,3.98799991607666 C-72.80500030517578,7.326000213623047 -75.35900115966797,10.032999992370605 -78.50900268554688,10.032999992370605 C-81.65899658203125,10.032999992370605 -84.21299743652344,7.326000213623047 -84.21299743652344,3.98799991607666 C-84.21299743652344,0.6499999761581421 -81.65899658203125,-2.055999994277954 -78.50900268554688,-2.055999994277954 C-75.35900115966797,-2.055999994277954 -72.80500030517578,0.6499999761581421 -72.80500030517578,3.98799991607666z"></path></g></g><g opacity="1" transform="matrix(1,0,0,1,0,0)"><path fill="rgb(163,65,0)" fill-opacity="1" d=" M-35.86199951171875,35.28799819946289 C-32.82099914550781,11.491000175476074 -48.20399856567383,-12.895999908447266 -73.8219985961914,-12.53600025177002 C-96.85700225830078,-12.211999893188477 -115.0469970703125,8.204000473022461 -110.47799682617188,31.309999465942383 C-110.97699737548828,9.857000350952148 -95.13200378417969,-8.434000015258789 -73.13700103759766,-8.170999526977539 C-49.51300048828125,-7.888000011444092 -36.74700164794922,13.711000442504883 -35.86199951171875,35.28799819946289z"></path><path stroke-linecap="round" stroke-linejoin="round" fill-opacity="0" stroke="rgb(163,65,0)" stroke-opacity="1" stroke-width="2" d=" M-35.86199951171875,35.28799819946289 C-32.82099914550781,11.491000175476074 -48.20399856567383,-12.895999908447266 -73.8219985961914,-12.53600025177002 C-96.85700225830078,-12.211999893188477 -115.0469970703125,8.204000473022461 -110.47799682617188,31.309999465942383 C-110.97699737548828,9.857000350952148 -95.13200378417969,-8.434000015258789 -73.13700103759766,-8.170999526977539 C-49.51300048828125,-7.888000011444092 -36.74700164794922,13.711000442504883 -35.86199951171875,35.28799819946289z"></path></g></g></g><g style="display: block;" transform="matrix(0.75,0,0,0.7400000095367432,259.8079833984375,211.7982177734375)" opacity="1"><g opacity="1" transform="matrix(1,0,0,1,0,0)"><path stroke-linecap="round" stroke-linejoin="round" fill-opacity="0" stroke="rgb(163,65,0)" stroke-opacity="1" stroke-width="16" d=" M45.78099822998047,-35.01499938964844 C45.78099822998047,-35.01499938964844 67.8270034790039,-40.10300064086914 87.80000305175781,-30.451000213623047"></path></g><g opacity="1" transform="matrix(1,0,0,1,0,0)"><path stroke-linecap="round" stroke-linejoin="round" fill-opacity="0" stroke="rgb(163,65,0)" stroke-opacity="1" stroke-width="16" d=" M-53.071998596191406,-35.01499938964844 C-53.071998596191406,-35.01499938964844 -75.11699676513672,-40.10300064086914 -95.08999633789062,-30.451000213623047"></path></g></g><g style="display: block;" transform="matrix(0.75,0,0,0.7400000095367432,259.8079833984375,210.8243865966797)" opacity="1"><g opacity="1" transform="matrix(1,0,0,1,0,0)"><path fill="rgb(255,206,1)" fill-opacity="1" d=" M-112.01100158691406,-108.36399841308594 C-111.85600280761719,-109.69300079345703 -110.33699798583984,-110.40399932861328 -109.21499633789062,-109.64800262451172 C-99.7969970703125,-103.3030014038086 -63.29899978637695,-81.79199981689453 1.9859999418258667,-79.15299987792969 C65.76899719238281,-76.5739974975586 102.31099700927734,-84.375 111.00900268554688,-86.5270004272461 C112.06999969482422,-86.79000091552734 113.10900115966797,-86.072998046875 113.21900177001953,-85.00199890136719 C113.9260025024414,-78.13899993896484 117.2750015258789,-55.11800003051758 131.77499389648438,-31.107999801635742 C133.08399963378906,-28.94099998474121 133.74899291992188,-26.45400047302246 133.74899291992188,-23.933000564575195 C133.74899291992188,-23.933000564575195 133.74899291992188,34.57099914550781 133.74899291992188,34.57099914550781 C133.74899291992188,36.56999969482422 135.75599670410156,38.05699920654297 137.66400146484375,37.369998931884766 C141.46600341796875,36.00199890136719 147.0679931640625,30.801000595092773 149.90899658203125,12.793000221252441 C154.45399475097656,-16.020000457763672 161.2429962158203,-48.28300094604492 152.1529998779297,-90.01200103759766 C143.06300354003906,-131.74200439453125 -85.24700164794922,-194.62600708007812 -114.0479965209961,-146.50999450683594 C-119.70099639892578,-143.2830047607422 -200.1490020751953,-105.7750015258789 -148.6199951171875,36.9109992980957 C-147.72500610351562,39.38999938964844 -142.74899291992188,40.43199920654297 -142.74899291992188,37.80099868774414 C-142.74899291992188,37.80099868774414 -143.49600219726562,-23.378000259399414 -143.49600219726562,-23.378000259399414 C-143.49600219726562,-26.511999130249023 -142.4340057373047,-29.54800033569336 -140.51100158691406,-32.04600143432617 C-133.63299560546875,-40.97999954223633 -116.88899993896484,-66.49600219726562 -112.01100158691406,-108.36399841308594z"></path></g><g opacity="1" transform="matrix(1,0,0,1,0,0)"><path fill="url(#__lottie_element_20)" fill-opacity="1" d=" M-112.01100158691406,-108.36399841308594 C-111.85600280761719,-109.69300079345703 -110.33699798583984,-110.40399932861328 -109.21499633789062,-109.64800262451172 C-99.7969970703125,-103.3030014038086 -63.29899978637695,-81.79199981689453 1.9859999418258667,-79.15299987792969 C65.76899719238281,-76.5739974975586 102.31099700927734,-84.375 111.00900268554688,-86.5270004272461 C112.06999969482422,-86.79000091552734 113.10900115966797,-86.072998046875 113.21900177001953,-85.00199890136719 C113.9260025024414,-78.13899993896484 117.2750015258789,-55.11800003051758 131.77499389648438,-31.107999801635742 C133.08399963378906,-28.94099998474121 133.74899291992188,-26.45400047302246 133.74899291992188,-23.933000564575195 C133.74899291992188,-23.933000564575195 133.74899291992188,34.57099914550781 133.74899291992188,34.57099914550781 C133.74899291992188,36.56999969482422 135.75599670410156,38.05699920654297 137.66400146484375,37.369998931884766 C141.46600341796875,36.00199890136719 147.0679931640625,30.801000595092773 149.90899658203125,12.793000221252441 C154.45399475097656,-16.020000457763672 161.2429962158203,-48.28300094604492 152.1529998779297,-90.01200103759766 C143.06300354003906,-131.74200439453125 -85.24700164794922,-194.62600708007812 -114.0479965209961,-146.50999450683594 C-119.70099639892578,-143.2830047607422 -200.1490020751953,-105.7750015258789 -148.6199951171875,36.9109992980957 C-147.72500610351562,39.38999938964844 -142.74899291992188,40.43199920654297 -142.74899291992188,37.80099868774414 C-142.74899291992188,37.80099868774414 -143.49600219726562,-23.378000259399414 -143.49600219726562,-23.378000259399414 C-143.49600219726562,-26.511999130249023 -142.4340057373047,-29.54800033569336 -140.51100158691406,-32.04600143432617 C-133.63299560546875,-40.97999954223633 -116.88899993896484,-66.49600219726562 -112.01100158691406,-108.36399841308594z"></path></g><g opacity="1" transform="matrix(1,0,0,1,0,0)"><path stroke-linecap="round" stroke-linejoin="round" fill-opacity="0" stroke="rgb(163,65,0)" stroke-opacity="1" stroke-width="11" d=" M-112.36499786376953,-107.26000213623047 C-58,-74.28299713134766 32.58100128173828,-68.95500183105469 114.51799774169922,-83.38999938964844 C114.51799774169922,-83.38999938964844 114.052001953125,-57.641998291015625 132.6300048828125,-26.80500030517578 C132.61099243164062,-18.243999481201172 133.94000244140625,36.01599884033203 133.94000244140625,36.01599884033203 C133.94000244140625,40.983001708984375 135.13400268554688,43.439998626708984 143.0449981689453,34.82500076293945 C150.72999572753906,26.45599937438965 158.09800720214844,-12.788999557495117 159.58999633789062,-51.29899978637695 C160.2239990234375,-67.66100311279297 147.21200561523438,-72.48100280761719 145.29800415039062,-86.15399932861328 C138.38699340820312,-135.50999450683594 -111.31300354003906,-153.427001953125 -114.0479965209961,-146.50999450683594 C-136.56100463867188,-136.6280059814453 -151.77699279785156,-70.44200134277344 -168.98399353027344,-56.512001037597656 C-168.41299438476562,-30.509000778198242 -163.96299743652344,-1.312999963760376 -155.05999755859375,28.60099983215332 C-149.43099975585938,46.35900115966797 -142.56199645996094,48.400001525878906 -142.406005859375,31.500999450683594 C-142.25,14.60200023651123 -141.6300048828125,-27.32900047302246 -141.6300048828125,-27.32900047302246 C-141.6300048828125,-27.32900047302246 -115.23300170898438,-61.266998291015625 -112.36499786376953,-107.26000213623047z"></path></g></g><g style="display: block;" transform="matrix(0.9900000095367432,0,0,0.9900000095367432,256.9922180175781,254.60816955566406)" opacity="1"><g opacity="1" transform="matrix(1,0,0,1,0,0)"><path fill="url(#__lottie_element_6)" fill-opacity="1" d=" M38.75699996948242,-210.8820037841797 C38.75699996948242,-210.8820037841797 27.895999908447266,-221.5050048828125 -0.6269999742507935,-221.5050048828125 C-29.149999618530273,-221.5050048828125 -41.012001037597656,-210.8820037841797 -41.012001037597656,-210.8820037841797 C-60.02399826049805,-211.38699340820312 -104.9260025024414,-169.94900512695312 -104.9260025024414,-153.08700561523438 C-104.9260025024414,-136.22500610351562 -104.9260025024414,-99.02100372314453 -104.9260025024414,-99.02100372314453 C-104.9260025024414,-99.02100372314453 -0.6269999742507935,-89.73300170898438 -0.6269999742507935,-89.73300170898438 C-0.6269999742507935,-89.73300170898438 103.6709976196289,-99.02100372314453 103.6709976196289,-99.02100372314453 C103.6709976196289,-99.02100372314453 103.6709976196289,-136.22500610351562 103.6709976196289,-153.08700561523438 C103.6709976196289,-169.94900512695312 57.76900100708008,-211.38699340820312 38.75699996948242,-210.8820037841797z"></path></g><g opacity="1" transform="matrix(1,0,0,1,0,0)"><path fill="url(#__lottie_element_7)" fill-opacity="0.3" d=" M38.75699996948242,-100.7699966430664 C38.75699996948242,-100.7699966430664 -41.012001037597656,-100.7699966430664 -41.012001037597656,-100.7699966430664 C-41.012001037597656,-100.7699966430664 -41.012001037597656,-165.6300048828125 -41.012001037597656,-165.6300048828125 C-41.012001037597656,-165.6300048828125 38.75699996948242,-165.6300048828125 38.75699996948242,-165.6300048828125 C38.75699996948242,-165.6300048828125 38.75699996948242,-100.7699966430664 38.75699996948242,-100.7699966430664z"></path></g><g opacity="1" transform="matrix(1,0,0,1,0,0)"><path fill="url(#__lottie_element_8)" fill-opacity="0.3" d=" M49.965999603271484,-97.55899810791016 C49.965999603271484,-97.55899810791016 27.54800033569336,-97.55899810791016 27.54800033569336,-97.55899810791016 C27.54800033569336,-97.55899810791016 27.54800033569336,-214.6790008544922 27.54800033569336,-214.6790008544922 C27.54800033569336,-214.6790008544922 49.965999603271484,-210.6790008544922 49.965999603271484,-210.6790008544922 C49.965999603271484,-210.6790008544922 49.965999603271484,-97.55899810791016 49.965999603271484,-97.55899810791016z"></path></g><g opacity="1" transform="matrix(1,0,0,1,0,0)"><path fill="url(#__lottie_element_9)" fill-opacity="0.3" d=" M-52.22100067138672,-97.55899810791016 C-52.22100067138672,-97.55899810791016 -29.802000045776367,-97.55899810791016 -29.802000045776367,-97.55899810791016 C-29.802000045776367,-97.55899810791016 -29.802000045776367,-214.6790008544922 -29.802000045776367,-214.6790008544922 C-29.802000045776367,-214.6790008544922 -52.22100067138672,-210.6790008544922 -52.22100067138672,-210.6790008544922 C-52.22100067138672,-210.6790008544922 -52.22100067138672,-97.55899810791016 -52.22100067138672,-97.55899810791016z"></path></g><g opacity="0.7000000000000001" transform="matrix(1,0,0,1,0,0)"><path stroke-linecap="round" stroke-linejoin="round" fill-opacity="0" stroke="rgb(255,233,94)" stroke-opacity="1" stroke-width="6" d=" M-41.012001037597656,-210.8820037841797 C-41.012001037597656,-210.8820037841797 -41.012001037597656,-101.10600280761719 -41.012001037597656,-101.10600280761719"></path></g><g opacity="0.7000000000000001" transform="matrix(1,0,0,1,0,0)"><path stroke-linecap="round" stroke-linejoin="round" fill-opacity="0" stroke="rgb(255,233,94)" stroke-opacity="1" stroke-width="6" d=" M38.75699996948242,-210.8820037841797 C38.75699996948242,-210.8820037841797 38.75699996948242,-101.10600280761719 38.75699996948242,-101.10600280761719"></path></g><g opacity="1" transform="matrix(1,0,0,1,0,0)"><path fill="url(#__lottie_element_10)" fill-opacity="0.5" d=" M103.66899871826172,-153.08999633789062 C103.66899871826172,-136.22000122070312 103.66899871826172,-99.0199966430664 103.66899871826172,-99.0199966430664 C103.66899871826172,-99.0199966430664 100.88899993896484,-98.7699966430664 100.88899993896484,-98.7699966430664 C100.88899993896484,-98.7699966430664 100.88899993896484,-137.08999633789062 100.88899993896484,-137.08999633789062 C100.88899993896484,-153.9499969482422 56.20899963378906,-195.38999938964844 37.70899963378906,-194.8800048828125 C37.70899963378906,-194.8800048828125 27.138999938964844,-205.5 -0.6309999823570251,-205.5 C-28.391000747680664,-205.5 -39.930999755859375,-194.8800048828125 -39.930999755859375,-194.8800048828125 C-58.441001892089844,-195.38999938964844 -102.14099884033203,-153.9499969482422 -102.14099884033203,-137.08999633789062 C-102.14099884033203,-137.08999633789062 -102.14099884033203,-98.7699966430664 -102.14099884033203,-98.7699966430664 C-102.14099884033203,-98.7699966430664 -104.9209976196289,-99.0199966430664 -104.9209976196289,-99.0199966430664 C-104.9209976196289,-99.0199966430664 -104.9209976196289,-136.22000122070312 -104.9209976196289,-153.08999633789062 C-104.9209976196289,-169.9499969482422 -60.020999908447266,-211.38999938964844 -41.01100158691406,-210.8800048828125 C-41.01100158691406,-210.8800048828125 -29.150999069213867,-221.5 -0.6309999823570251,-221.5 C27.89900016784668,-221.5 38.75899887084961,-210.8800048828125 38.75899887084961,-210.8800048828125 C57.76900100708008,-211.38999938964844 103.66899871826172,-169.9499969482422 103.66899871826172,-153.08999633789062z"></path></g><g opacity="1" transform="matrix(1,0,0,1,0,0)"><path stroke-linecap="round" stroke-linejoin="round" fill-opacity="0" stroke="rgb(194,142,0)" stroke-opacity="1" stroke-width="8" d=" M38.75699996948242,-210.8820037841797 C38.75699996948242,-210.8820037841797 27.895999908447266,-221.5050048828125 -0.6269999742507935,-221.5050048828125 C-29.149999618530273,-221.5050048828125 -41.012001037597656,-210.8820037841797 -41.012001037597656,-210.8820037841797 C-60.02399826049805,-211.38699340820312 -104.9260025024414,-169.94900512695312 -104.9260025024414,-153.08700561523438 C-104.9260025024414,-136.22500610351562 -104.9260025024414,-99.02100372314453 -104.9260025024414,-99.02100372314453 C-104.9260025024414,-99.02100372314453 -0.6269999742507935,-89.73300170898438 -0.6269999742507935,-89.73300170898438 C-0.6269999742507935,-89.73300170898438 103.6709976196289,-99.02100372314453 103.6709976196289,-99.02100372314453 C103.6709976196289,-99.02100372314453 103.6709976196289,-136.22500610351562 103.6709976196289,-153.08700561523438 C103.6709976196289,-169.94900512695312 57.76900100708008,-211.38699340820312 38.75699996948242,-210.8820037841797z"></path></g><g opacity="1" transform="matrix(1,0,0,1,0,0)"><g opacity="1" transform="matrix(1,0,0,1,0,0)"><path fill="rgb(183,141,32)" fill-opacity="1" d=" M119.28299713134766,-96.74400329589844 C119.28299713134766,-96.74400329589844 119.28299713134766,-122.33699798583984 119.28299713134766,-122.33699798583984 C119.28299713134766,-122.33699798583984 105.61499786376953,-137.07899475097656 105.61499786376953,-137.07899475097656 C105.61499786376953,-137.07899475097656 96.16500091552734,-137.07899475097656 96.16500091552734,-137.07899475097656 C96.16500091552734,-137.07899475097656 96.16500091552734,-99.62999725341797 96.16500091552734,-99.62999725341797 C96.16500091552734,-99.62999725341797 106.90699768066406,-91.75399780273438 106.90699768066406,-91.75399780273438 C106.90699768066406,-91.75399780273438 119.28299713134766,-96.74400329589844 119.28299713134766,-96.74400329589844z"></path></g><g opacity="1" transform="matrix(1,0,0,1,0,0)"><path fill="rgb(233,178,23)" fill-opacity="1" d=" M94.16100311279297,-137.0800018310547 C94.16100311279297,-137.0800018310547 107.94100189208984,-120.11000061035156 107.94100189208984,-120.11000061035156 C107.94100189208984,-120.11000061035156 107.94100189208984,-98.25 107.94100189208984,-98.25 C107.94100189208984,-98.25 114.14099884033203,-94.66999816894531 114.14099884033203,-94.66999816894531 C114.14099884033203,-94.66999816894531 119.28099822998047,-96.73999786376953 119.28099822998047,-96.73999786376953 C119.28099822998047,-96.73999786376953 119.28099822998047,-120.33999633789062 119.28099822998047,-120.33999633789062 C119.28099822998047,-120.33999633789062 105.61100006103516,-137.0800018310547 105.61100006103516,-137.0800018310547 C105.61100006103516,-137.0800018310547 94.16100311279297,-137.0800018310547 94.16100311279297,-137.0800018310547z"></path></g><g opacity="1" transform="matrix(1,0,0,1,0,0)"><path fill="rgb(249,237,149)" fill-opacity="1" d=" M107.94100189208984,-120.11000061035156 C107.94100189208984,-120.11000061035156 121.10199737548828,-120.11000061035156 121.10199737548828,-120.11000061035156 C121.10199737548828,-120.11000061035156 105.61499786376953,-138.60400390625 105.61499786376953,-138.60400390625 C105.61499786376953,-138.60400390625 94.16500091552734,-137.07899475097656 94.16500091552734,-137.07899475097656 C94.16500091552734,-137.07899475097656 107.94100189208984,-120.11000061035156 107.94100189208984,-120.11000061035156z"></path></g><g opacity="1" transform="matrix(1,0,0,1,0,0)"><path stroke-linecap="round" stroke-linejoin="round" fill-opacity="0" stroke="rgb(158,119,0)" stroke-opacity="1" stroke-width="8" d=" M119.28299713134766,-96.74400329589844 C119.28299713134766,-96.74400329589844 119.28299713134766,-122.33699798583984 119.28299713134766,-122.33699798583984 C119.28299713134766,-122.33699798583984 105.61499786376953,-137.07899475097656 105.61499786376953,-137.07899475097656 C105.61499786376953,-137.07899475097656 93.16500091552734,-137.07899475097656 93.16500091552734,-137.07899475097656 C93.16500091552734,-137.07899475097656 93.16500091552734,-99.62999725341797 93.16500091552734,-99.62999725341797 C93.16500091552734,-99.62999725341797 106.90699768066406,-91.75399780273438 106.90699768066406,-91.75399780273438 C106.90699768066406,-91.75399780273438 119.28299713134766,-96.74400329589844 119.28299713134766,-96.74400329589844z"></path></g><g opacity="1" transform="matrix(1,0,0,1,0,0)"><path stroke-linecap="round" stroke-linejoin="round" fill-opacity="0" stroke="rgb(194,142,0)" stroke-opacity="1" stroke-width="8" d=" M119.28299713134766,-96.74400329589844 C119.28299713134766,-96.74400329589844 119.28299713134766,-122.33699798583984 119.28299713134766,-122.33699798583984 C119.28299713134766,-122.33699798583984 105.61499786376953,-137.07899475097656 105.61499786376953,-137.07899475097656 C105.61499786376953,-137.07899475097656 93.16500091552734,-137.07899475097656 93.16500091552734,-137.07899475097656"></path></g></g><g opacity="1" transform="matrix(-1,0,0,1,-1.75,0)"><g opacity="1" transform="matrix(1,0,0,1,0,0)"><path fill="rgb(183,141,32)" fill-opacity="1" d=" M119.28299713134766,-96.74400329589844 C119.28299713134766,-96.74400329589844 119.28299713134766,-122.33699798583984 119.28299713134766,-122.33699798583984 C119.28299713134766,-122.33699798583984 105.61499786376953,-137.07899475097656 105.61499786376953,-137.07899475097656 C105.61499786376953,-137.07899475097656 96.16500091552734,-137.07899475097656 96.16500091552734,-137.07899475097656 C96.16500091552734,-137.07899475097656 96.16500091552734,-99.62999725341797 96.16500091552734,-99.62999725341797 C96.16500091552734,-99.62999725341797 106.90699768066406,-91.75399780273438 106.90699768066406,-91.75399780273438 C106.90699768066406,-91.75399780273438 119.28299713134766,-96.74400329589844 119.28299713134766,-96.74400329589844z"></path></g><g opacity="1" transform="matrix(1,0,0,1,0,0)"><path fill="rgb(233,178,23)" fill-opacity="1" d=" M94.16100311279297,-137.0800018310547 C94.16100311279297,-137.0800018310547 107.94100189208984,-120.11000061035156 107.94100189208984,-120.11000061035156 C107.94100189208984,-120.11000061035156 107.94100189208984,-98.25 107.94100189208984,-98.25 C107.94100189208984,-98.25 114.14099884033203,-94.66999816894531 114.14099884033203,-94.66999816894531 C114.14099884033203,-94.66999816894531 119.28099822998047,-96.73999786376953 119.28099822998047,-96.73999786376953 C119.28099822998047,-96.73999786376953 119.28099822998047,-120.33999633789062 119.28099822998047,-120.33999633789062 C119.28099822998047,-120.33999633789062 105.61100006103516,-137.0800018310547 105.61100006103516,-137.0800018310547 C105.61100006103516,-137.0800018310547 94.16100311279297,-137.0800018310547 94.16100311279297,-137.0800018310547z"></path></g><g opacity="1" transform="matrix(1,0,0,1,0,0)"><path fill="rgb(249,237,149)" fill-opacity="1" d=" M107.94100189208984,-120.11000061035156 C107.94100189208984,-120.11000061035156 121.10199737548828,-120.11000061035156 121.10199737548828,-120.11000061035156 C121.10199737548828,-120.11000061035156 105.61499786376953,-138.60400390625 105.61499786376953,-138.60400390625 C105.61499786376953,-138.60400390625 94.16500091552734,-137.07899475097656 94.16500091552734,-137.07899475097656 C94.16500091552734,-137.07899475097656 107.94100189208984,-120.11000061035156 107.94100189208984,-120.11000061035156z"></path></g><g opacity="1" transform="matrix(1,0,0,1,0,0)"><path stroke-linecap="round" stroke-linejoin="round" fill-opacity="0" stroke="rgb(158,119,0)" stroke-opacity="1" stroke-width="8" d=" M119.28299713134766,-96.74400329589844 C119.28299713134766,-96.74400329589844 119.28299713134766,-122.33699798583984 119.28299713134766,-122.33699798583984 C119.28299713134766,-122.33699798583984 105.61499786376953,-137.07899475097656 105.61499786376953,-137.07899475097656 C105.61499786376953,-137.07899475097656 93.16500091552734,-137.07899475097656 93.16500091552734,-137.07899475097656 C93.16500091552734,-137.07899475097656 93.16500091552734,-99.62999725341797 93.16500091552734,-99.62999725341797 C93.16500091552734,-99.62999725341797 106.90699768066406,-91.75399780273438 106.90699768066406,-91.75399780273438 C106.90699768066406,-91.75399780273438 119.28299713134766,-96.74400329589844 119.28299713134766,-96.74400329589844z"></path></g><g opacity="1" transform="matrix(1,0,0,1,0,0)"><path stroke-linecap="round" stroke-linejoin="round" fill-opacity="0" stroke="rgb(194,142,0)" stroke-opacity="1" stroke-width="8" d=" M119.28299713134766,-96.74400329589844 C119.28299713134766,-96.74400329589844 119.28299713134766,-122.33699798583984 119.28299713134766,-122.33699798583984 C119.28299713134766,-122.33699798583984 105.61499786376953,-137.07899475097656 105.61499786376953,-137.07899475097656 C105.61499786376953,-137.07899475097656 93.16500091552734,-137.07899475097656 93.16500091552734,-137.07899475097656"></path></g></g><g opacity="1" transform="matrix(1,0,0,1,0,0)"><g opacity="1" transform="matrix(1,0,0,1,0,0)"><path fill="url(#__lottie_element_11)" fill-opacity="1" d=" M115.51899719238281,-97.23600006103516 C85.81900024414062,-102.38800048828125 36.62699890136719,-101.91000366210938 36.62699890136719,-101.91000366210938 C36.62699890136719,-101.91000366210938 36.62699890136719,-98.54199981689453 36.62699890136719,-98.54199981689453 C36.62699890136719,-98.54199981689453 -0.7799999713897705,-98.54199981689453 -0.7799999713897705,-98.54199981689453 C-0.7799999713897705,-98.54199981689453 -38.1870002746582,-98.54199981689453 -38.1870002746582,-98.54199981689453 C-38.1870002746582,-98.54199981689453 -38.1870002746582,-101.91000366210938 -38.1870002746582,-101.91000366210938 C-38.1870002746582,-101.91000366210938 -87.37899780273438,-102.38800048828125 -117.0790023803711,-97.23600006103516 C-146.7790069580078,-92.08399963378906 -144.343994140625,-78.95700073242188 -142.71600341796875,-73.91200256347656 C-138.9709930419922,-62.310001373291016 -124.44100189208984,-56.60900115966797 -124.44100189208984,-56.60900115966797 C-124.44100189208984,-56.60900115966797 -133.61900329589844,-65.01599884033203 -126.21900177001953,-71.79900360107422 C-118.81900024414062,-78.58200073242188 -27.69300079345703,-74.97699737548828 -0.7799999713897705,-74.97699737548828 C26.132999420166016,-74.97699737548828 117.25900268554688,-78.58200073242188 124.65899658203125,-71.79900360107422 C132.0590057373047,-65.01599884033203 126.21900177001953,-56.861000061035156 126.21900177001953,-56.861000061035156 C126.21900177001953,-56.861000061035156 137.41099548339844,-62.310001373291016 141.156005859375,-73.91200256347656 C142.78399658203125,-78.95700073242188 145.218994140625,-92.08399963378906 115.51899719238281,-97.23600006103516z"></path></g><g opacity="1" transform="matrix(1,0,0,1,0,0)"><path fill="rgb(255,247,205)" fill-opacity="0.7000000000000001" d=" M-50.861000061035156,-102.0999984741211 C-65.8010025024414,-102.0250015258789 -87.41100311279297,-100.3010025024414 -102.94100189208984,-97.23200225830078 C-129.031005859375,-92.08499908447266 -126.89099884033203,-78.95500183105469 -125.46099853515625,-73.91500091552734 C-125.33100128173828,-73.44599914550781 -125.18099975585938,-72.97799682617188 -125.0009994506836,-72.52999877929688 C-125.52100372314453,-72.30599975585938 -125.93099975585938,-72.06099700927734 -126.22100067138672,-71.79499816894531 C-133.4510040283203,-65.1780014038086 -124.90799713134766,-56.986000061035156 -124.45800018310547,-56.62300109863281 C-125.0479965209961,-56.82500076293945 -139.04100036621094,-62.534000396728516 -142.71099853515625,-73.91500091552734 C-144.34100341796875,-78.95500183105469 -146.781005859375,-92.08499908447266 -117.08100128173828,-97.23200225830078 C-96.81099700927734,-100.7490005493164 -67.45099639892578,-102.17500305175781 -50.861000061035156,-102.0999984741211z"></path></g><g opacity="1" transform="matrix(1,0,0,1,0,0)"><path fill="rgb(255,247,205)" fill-opacity="0.7000000000000001" d=" M141.15899658203125,-73.91500091552734 C137.40899658203125,-62.310001373291016 126.21900177001953,-56.8650016784668 126.21900177001953,-56.8650016784668 C126.21900177001953,-56.8650016784668 132.0590057373047,-65.01799774169922 124.65899658203125,-71.79499816894531 C124.37899780273438,-72.0510025024414 123.97899627685547,-72.29499816894531 123.46900177001953,-72.51899719238281 C123.62899780273438,-72.97699737548828 123.76899719238281,-73.43499755859375 123.90899658203125,-73.91500091552734 C125.33899688720703,-78.95500183105469 127.47899627685547,-92.08499908447266 101.38899993896484,-97.23200225830078 C85.89900207519531,-100.29000091552734 64.37899780273438,-101.01499938964844 49.43899917602539,-101.0999984741211 C66.04900360107422,-101.17500305175781 95.29900360107422,-100.73799896240234 115.51899719238281,-97.23200225830078 C145.218994140625,-92.08499908447266 142.78900146484375,-78.95500183105469 141.15899658203125,-73.91500091552734z"></path></g><g opacity="1" transform="matrix(1,0,0,1,0,0)"><path fill="rgb(222,155,0)" fill-opacity="0.7000000000000001" d=" M45.54800033569336,-85.29000091552734 C45.54800033569336,-85.29000091552734 -1.4900000095367432,-85.29000091552734 -1.4900000095367432,-85.29000091552734 C-1.4900000095367432,-85.29000091552734 -48.527000427246094,-85.29000091552734 -48.527000427246094,-85.29000091552734 C-146.40499877929688,-91.13999938964844 -145.80099487304688,-75.46399688720703 -138.14300537109375,-66.39800262451172 C-138.14300537109375,-66.39800262451172 -128.69200134277344,-58.47800064086914 -128.69200134277344,-58.47800064086914 C-128.69200134277344,-58.47800064086914 -138.14300537109375,-66.39800262451172 -126.21900177001953,-71.79900360107422 C-114.29499816894531,-77.19999694824219 -1.4900000095367432,-74.97699737548828 -1.4900000095367432,-74.97699737548828 C-1.4900000095367432,-74.97699737548828 111.31500244140625,-77.19999694824219 123.23899841308594,-71.79900360107422 C135.16299438476562,-66.39800262451172 124.57599639892578,-58.73099899291992 124.57599639892578,-58.73099899291992 C124.57599639892578,-58.73099899291992 135.16299438476562,-66.39800262451172 135.16299438476562,-66.39800262451172 C144.4080047607422,-75.93499755859375 141.156005859375,-91.13999938964844 45.54800033569336,-85.29000091552734z"></path></g><g opacity="1" transform="matrix(1,0,0,1,0,0)"><path stroke-linecap="round" stroke-linejoin="round" fill-opacity="0" stroke="rgb(194,142,0)" stroke-opacity="1" stroke-width="8" d=" M115.51899719238281,-98.23600006103516 C85.81900024414062,-103.38800048828125 36.62699890136719,-101.91000366210938 36.62699890136719,-101.91000366210938 C36.62699890136719,-101.91000366210938 36.62699890136719,-98.54199981689453 36.62699890136719,-98.54199981689453 C36.62699890136719,-98.54199981689453 -0.7799999713897705,-98.54199981689453 -0.7799999713897705,-98.54199981689453 C-0.7799999713897705,-98.54199981689453 -38.1870002746582,-98.54199981689453 -38.1870002746582,-98.54199981689453 C-38.1870002746582,-98.54199981689453 -38.1870002746582,-101.91000366210938 -38.1870002746582,-101.91000366210938 C-38.1870002746582,-101.91000366210938 -87.37899780273438,-103.38800048828125 -117.0790023803711,-98.23600006103516 C-146.7790069580078,-93.08399963378906 -144.343994140625,-78.95700073242188 -142.71600341796875,-73.91200256347656 C-138.9709930419922,-62.310001373291016 -124.44100189208984,-56.60900115966797 -124.44100189208984,-56.60900115966797 C-124.44100189208984,-56.60900115966797 -133.61900329589844,-65.01599884033203 -126.21900177001953,-71.79900360107422 C-118.81900024414062,-78.58200073242188 -27.69300079345703,-74.97699737548828 -0.7799999713897705,-74.97699737548828 C26.132999420166016,-74.97699737548828 117.25900268554688,-78.58200073242188 124.65899658203125,-71.79900360107422 C132.0590057373047,-65.01599884033203 126.21900177001953,-56.861000061035156 126.21900177001953,-56.861000061035156 C126.21900177001953,-56.861000061035156 137.41099548339844,-62.310001373291016 141.156005859375,-73.91200256347656 C142.78399658203125,-78.95700073242188 145.218994140625,-93.08399963378906 115.51899719238281,-98.23600006103516z"></path></g><g opacity="1" transform="matrix(1,0,0,1,0,0)"><path stroke-linecap="round" stroke-linejoin="round" fill-opacity="0" stroke="rgb(193,142,0)" stroke-opacity="0.4" stroke-width="6" d=" M-38.1870002746582,-98.54199981689453 C-38.1870002746582,-98.54199981689453 -55.082000732421875,-75.78299713134766 -55.082000732421875,-75.78299713134766"></path></g><g opacity="1" transform="matrix(1,0,0,1,0,0)"><path stroke-linecap="round" stroke-linejoin="round" fill-opacity="0" stroke="rgb(193,142,0)" stroke-opacity="0.4" stroke-width="6" d=" M36.62699890136719,-98.54199981689453 C36.62699890136719,-98.54199981689453 52.9739990234375,-76.48799896240234 52.9739990234375,-76.48799896240234"></path></g><g opacity="1" transform="matrix(1,0,0,1,0,0)"><path stroke-linecap="round" stroke-linejoin="round" fill-opacity="0" stroke="rgb(158,119,0)" stroke-opacity="1" stroke-width="8" d=" M36.62699890136719,-101.91000366210938 C36.62699890136719,-101.91000366210938 36.62699890136719,-98.54199981689453 36.62699890136719,-98.54199981689453 C36.62699890136719,-98.54199981689453 -0.7799999713897705,-98.54199981689453 -0.7799999713897705,-98.54199981689453 C-0.7799999713897705,-98.54199981689453 -38.1870002746582,-98.54199981689453 -38.1870002746582,-98.54199981689453 C-38.1870002746582,-98.54199981689453 -38.1870002746582,-101.91000366210938 -38.1870002746582,-101.91000366210938"></path></g><g opacity="1" transform="matrix(1,0,0,1,0,0)"><path stroke-linecap="round" stroke-linejoin="round" fill-opacity="0" stroke="rgb(153,88,0)" stroke-opacity="1" stroke-width="8" d=" M-124.44100189208984,-56.60900115966797 C-124.44100189208984,-56.60900115966797 -130.927001953125,-66.6500015258789 -126.21900177001953,-71.79900360107422 C-118.81900024414062,-78.58200073242188 -27.69300079345703,-74.97699737548828 -0.7799999713897705,-74.97699737548828 C26.132999420166016,-74.97699737548828 117.0719985961914,-78.37200164794922 124.65899658203125,-71.79900360107422 C130.31100463867188,-66.9020004272461 124.4520034790039,-56.60900115966797 124.4520034790039,-56.60900115966797"></path></g></g></g></g></svg>