<svg xmlns="http://www.w3.org/2000/svg" xmlns:xlink="http://www.w3.org/1999/xlink" viewBox="0 0 512 512" width="512" height="512" style="width: 100%; height: 100%; transform: translate3d(0,0,0); content-visibility: visible;" preserveAspectRatio="xMidYMid meet"><defs><clipPath id="__lottie_element_2"><rect width="512" height="512" x="0" y="0"></rect></clipPath><linearGradient id="__lottie_element_6" spreadMethod="pad" gradientUnits="userSpaceOnUse" x1="80.51200103759766" y1="40.75" x2="167.197998046875" y2="25.958999633789062"><stop offset="0%" stop-color="rgb(219,110,0)" stop-opacity="0"></stop><stop offset="42%" stop-color="rgb(219,110,0)" stop-opacity="0.5"></stop><stop offset="100%" stop-color="rgb(219,110,0)" stop-opacity="1"></stop></linearGradient><radialGradient id="__lottie_element_7" spreadMethod="pad" gradientUnits="userSpaceOnUse" cx="142.01199340820312" cy="-43" r="95.63346525107171" fx="142.01199340820312" fy="-43"><stop offset="73%" stop-color="rgb(255,216,0)" stop-opacity="1"></stop><stop offset="96%" stop-color="rgb(255,216,0)" stop-opacity="0.5"></stop><stop offset="100%" stop-color="rgb(255,216,0)" stop-opacity="0"></stop></radialGradient><linearGradient id="__lottie_element_11" spreadMethod="pad" gradientUnits="userSpaceOnUse" x1="142.76199340820312" y1="143" x2="66.68800354003906" y2="145.6529998779297"><stop offset="0%" stop-color="rgb(96,100,102)"></stop><stop offset="26%" stop-color="rgb(143,147,150)"></stop><stop offset="64%" stop-color="rgb(190,194,198)"></stop><stop offset="88%" stop-color="rgb(143,147,150)"></stop><stop offset="100%" stop-color="rgb(96,100,102)"></stop></linearGradient><linearGradient id="__lottie_element_16" spreadMethod="pad" gradientUnits="userSpaceOnUse" x1="-15.458000183105469" y1="-148" x2="-5.818999767303467" y2="-52.891998291015625"><stop offset="0%" stop-color="rgb(219,110,0)" stop-opacity="1"></stop><stop offset="38%" stop-color="rgb(219,110,0)" stop-opacity="0.5"></stop><stop offset="70%" stop-color="rgb(219,110,0)" stop-opacity="0"></stop></linearGradient><linearGradient id="__lottie_element_17" spreadMethod="pad" gradientUnits="userSpaceOnUse" x1="-3.4579999446868896" y1="-92" x2="-3.4579999446868896" y2="82.24700164794922"><stop offset="0%" stop-color="rgb(255,216,0)" stop-opacity="0"></stop><stop offset="11%" stop-color="rgb(255,216,0)" stop-opacity="0.5"></stop><stop offset="45%" stop-color="rgb(255,216,0)" stop-opacity="1"></stop><stop offset="90%" stop-color="rgb(255,216,0)" stop-opacity="0.5"></stop><stop offset="100%" stop-color="rgb(255,216,0)" stop-opacity="0"></stop></linearGradient><linearGradient id="__lottie_element_20" spreadMethod="pad" gradientUnits="userSpaceOnUse" x1="-1.8009999990463257" y1="132.04299926757812" x2="-1.9259999990463257" y2="143.00799560546875"><stop offset="0%" stop-color="rgb(255,168,0)" stop-opacity="1"></stop><stop offset="50%" stop-color="rgb(255,168,0)" stop-opacity="0.5"></stop><stop offset="100%" stop-color="rgb(255,168,0)" stop-opacity="0"></stop></linearGradient><radialGradient id="__lottie_element_21" spreadMethod="pad" gradientUnits="userSpaceOnUse" cx="-1.9259999990463257" cy="148.41799926757812" r="39.79100167751312" fx="-1.9259999990463257" fy="148.41799926757812"><stop offset="0%" stop-color="rgb(255,255,255)" stop-opacity="1"></stop><stop offset="62%" stop-color="rgb(255,255,255)" stop-opacity="0.5"></stop><stop offset="100%" stop-color="rgb(255,255,255)" stop-opacity="0"></stop></radialGradient><linearGradient id="__lottie_element_22" spreadMethod="pad" gradientUnits="userSpaceOnUse" x1="-1.9259999990463257" y1="148.41799926757812" x2="-1.9259999990463257" y2="138.76699829101562"><stop offset="0%" stop-color="rgb(88,11,14)" stop-opacity="0"></stop><stop offset="34%" stop-color="rgb(88,11,14)" stop-opacity="0.5"></stop><stop offset="75%" stop-color="rgb(88,11,14)" stop-opacity="1"></stop></linearGradient><radialGradient id="__lottie_element_23" spreadMethod="pad" gradientUnits="userSpaceOnUse" cx="-1.9259999990463257" cy="164.41799926757812" r="23.880000472068787" fx="-1.9259999990463257" fy="164.41799926757812"><stop offset="10%" stop-color="rgb(219,110,0)" stop-opacity="1"></stop><stop offset="66%" stop-color="rgb(219,110,0)" stop-opacity="0.5"></stop><stop offset="100%" stop-color="rgb(219,110,0)" stop-opacity="0"></stop></radialGradient><linearGradient id="__lottie_element_27" spreadMethod="pad" gradientUnits="userSpaceOnUse" x1="-35.112998962402344" y1="10.5" x2="-19.799999237060547" y2="32.56700134277344"><stop offset="0%" stop-color="rgb(66,0,0)"></stop><stop offset="37%" stop-color="rgb(118,40,0)"></stop><stop offset="100%" stop-color="rgb(170,80,0)"></stop></linearGradient><radialGradient id="__lottie_element_28" spreadMethod="pad" gradientUnits="userSpaceOnUse" cx="-21.238000869750977" cy="29" r="9.703001022338867" fx="-21.238000869750977" fy="29"><stop offset="0%" stop-color="rgb(246,175,0)" stop-opacity="1"></stop><stop offset="50%" stop-color="rgb(246,175,0)" stop-opacity="0.5"></stop><stop offset="100%" stop-color="rgb(246,175,0)" stop-opacity="0"></stop></radialGradient><linearGradient id="__lottie_element_29" spreadMethod="pad" gradientUnits="userSpaceOnUse" x1="-35.83100128173828" y1="5.75" x2="-35.67499923706055" y2="13.157999992370605"><stop offset="0%" stop-color="rgb(255,255,255)" stop-opacity="1"></stop><stop offset="60%" stop-color="rgb(255,255,255)" stop-opacity="0.5"></stop><stop offset="100%" stop-color="rgb(255,255,255)" stop-opacity="0"></stop></linearGradient><linearGradient id="__lottie_element_30" spreadMethod="pad" gradientUnits="userSpaceOnUse" x1="75.63700103759766" y1="10.5" x2="90.44999694824219" y2="32.69200134277344"><stop offset="0%" stop-color="rgb(66,0,0)"></stop><stop offset="37%" stop-color="rgb(118,40,0)"></stop><stop offset="100%" stop-color="rgb(170,80,0)"></stop></linearGradient><radialGradient id="__lottie_element_31" spreadMethod="pad" gradientUnits="userSpaceOnUse" cx="89.76200103759766" cy="29" r="9.702995300292969" fx="89.76200103759766" fy="29"><stop offset="0%" stop-color="rgb(246,175,0)" stop-opacity="1"></stop><stop offset="50%" stop-color="rgb(246,175,0)" stop-opacity="0.5"></stop><stop offset="100%" stop-color="rgb(246,175,0)" stop-opacity="0"></stop></radialGradient><linearGradient id="__lottie_element_32" spreadMethod="pad" gradientUnits="userSpaceOnUse" x1="74.51200103759766" y1="6" x2="74.82499694824219" y2="13.282999992370605"><stop offset="0%" stop-color="rgb(255,255,255)" stop-opacity="1"></stop><stop offset="60%" stop-color="rgb(255,255,255)" stop-opacity="0.5"></stop><stop offset="100%" stop-color="rgb(255,255,255)" stop-opacity="0"></stop></linearGradient><linearGradient id="__lottie_element_39" spreadMethod="pad" gradientUnits="userSpaceOnUse" x1="-2.4579999446868896" y1="-147" x2="-2.4579999446868896" y2="-50.361000061035156"><stop offset="10%" stop-color="rgb(255,169,0)" stop-opacity="0"></stop><stop offset="55%" stop-color="rgb(255,169,0)" stop-opacity="0.5"></stop><stop offset="100%" stop-color="rgb(255,169,0)" stop-opacity="1"></stop></linearGradient><linearGradient id="__lottie_element_40" spreadMethod="pad" gradientUnits="userSpaceOnUse" x1="1.5420000553131104" y1="-52" x2="1.5420000553131104" y2="-155.29400634765625"><stop offset="8%" stop-color="rgb(218,110,0)" stop-opacity="0.30000001192092896"></stop><stop offset="26%" stop-color="rgb(218,110,0)" stop-opacity="0.6499999761581421"></stop><stop offset="64%" stop-color="rgb(218,110,0)" stop-opacity="1"></stop><stop offset="82%" stop-color="rgb(218,110,0)" stop-opacity="0.5"></stop><stop offset="100%" stop-color="rgb(218,110,0)" stop-opacity="0"></stop></linearGradient><linearGradient id="__lottie_element_41" spreadMethod="pad" gradientUnits="userSpaceOnUse" x1="14.041999816894531" y1="-181.5" x2="15.305999755859375" y2="-125.36699676513672"><stop offset="0%" stop-color="rgb(255,255,255)" stop-opacity="1"></stop><stop offset="50%" stop-color="rgb(255,255,255)" stop-opacity="0.5"></stop><stop offset="100%" stop-color="rgb(255,255,255)" stop-opacity="0"></stop></linearGradient><linearGradient id="__lottie_element_42" spreadMethod="pad" gradientUnits="userSpaceOnUse" x1="-110.45800018310547" y1="-148" x2="-98.88099670410156" y2="-113.64299774169922"><stop offset="0%" stop-color="rgb(255,255,255)" stop-opacity="1"></stop><stop offset="50%" stop-color="rgb(255,255,255)" stop-opacity="0.5"></stop><stop offset="100%" stop-color="rgb(255,255,255)" stop-opacity="0"></stop></linearGradient><linearGradient id="__lottie_element_46" spreadMethod="pad" gradientUnits="userSpaceOnUse" x1="-3.249000072479248" y1="27" x2="-3.249000072479248" y2="47.76300048828125"><stop offset="0%" stop-color="rgb(255,168,0)" stop-opacity="1"></stop><stop offset="66%" stop-color="rgb(255,168,0)" stop-opacity="0.5099999904632568"></stop><stop offset="100%" stop-color="rgb(255,168,0)" stop-opacity="0.019999999552965164"></stop></linearGradient><linearGradient id="__lottie_element_47" spreadMethod="pad" gradientUnits="userSpaceOnUse" x1="-3.249000072479248" y1="39" x2="-3.249000072479248" y2="22.46299934387207"><stop offset="10%" stop-color="rgb(219,110,0)" stop-opacity="1"></stop><stop offset="49%" stop-color="rgb(219,110,0)" stop-opacity="0.5"></stop><stop offset="77%" stop-color="rgb(219,110,0)" stop-opacity="0"></stop></linearGradient><radialGradient id="__lottie_element_48" spreadMethod="pad" gradientUnits="userSpaceOnUse" cx="-4.249000072479248" cy="18" r="16.986000537872314" fx="-4.249000072479248" fy="18"><stop offset="40%" stop-color="rgb(255,168,0)" stop-opacity="0.009999999776482582"></stop><stop offset="70%" stop-color="rgb(255,168,0)" stop-opacity="0.5049999952316284"></stop><stop offset="100%" stop-color="rgb(255,168,0)" stop-opacity="1"></stop></radialGradient><linearGradient id="__lottie_element_49" spreadMethod="pad" gradientUnits="userSpaceOnUse" x1="-3.249000072479248" y1="17" x2="-3.249000072479248" y2="25.16900062561035"><stop offset="0%" stop-color="rgb(255,255,255)" stop-opacity="1"></stop><stop offset="50%" stop-color="rgb(255,255,255)" stop-opacity="0.5"></stop><stop offset="100%" stop-color="rgb(255,255,255)" stop-opacity="0"></stop></linearGradient><radialGradient id="__lottie_element_59" spreadMethod="pad" gradientUnits="userSpaceOnUse" cx="-51.987998962402344" cy="118" r="50.124998927116394" fx="-51.987998962402344" fy="118"><stop offset="20%" stop-color="rgb(255,168,0)" stop-opacity="1"></stop><stop offset="66%" stop-color="rgb(255,168,0)" stop-opacity="0.5"></stop><stop offset="100%" stop-color="rgb(255,168,0)" stop-opacity="0"></stop></radialGradient><radialGradient id="__lottie_element_63" spreadMethod="pad" gradientUnits="userSpaceOnUse" cx="-89.73799896240234" cy="186" r="168.41200256347656" fx="-89.73799896240234" fy="186"><stop offset="17%" stop-color="rgb(190,194,198)"></stop><stop offset="83%" stop-color="rgb(143,147,150)"></stop><stop offset="100%" stop-color="rgb(96,100,102)"></stop></radialGradient><linearGradient id="__lottie_element_64" spreadMethod="pad" gradientUnits="userSpaceOnUse" x1="11.01200008392334" y1="145.25" x2="146.47000122070312" y2="136.41299438476562"><stop offset="0%" stop-color="rgb(96,100,102)" stop-opacity="0"></stop><stop offset="60%" stop-color="rgb(96,100,102)" stop-opacity="0.5"></stop><stop offset="100%" stop-color="rgb(96,100,102)" stop-opacity="1"></stop></linearGradient><linearGradient id="__lottie_element_65" spreadMethod="pad" gradientUnits="userSpaceOnUse" x1="-70.23799896240234" y1="58" x2="-59.67300033569336" y2="139.43499755859375"><stop offset="0%" stop-color="rgb(255,255,255)" stop-opacity="1"></stop><stop offset="50%" stop-color="rgb(255,255,255)" stop-opacity="0.5"></stop><stop offset="100%" stop-color="rgb(255,255,255)" stop-opacity="0"></stop></linearGradient><radialGradient id="__lottie_element_66" spreadMethod="pad" gradientUnits="userSpaceOnUse" cx="-151.23800659179688" cy="215" r="35.3139769028135" fx="-151.23800659179688" fy="215"><stop offset="0%" stop-color="rgb(96,100,102)" stop-opacity="1"></stop><stop offset="50%" stop-color="rgb(96,100,102)" stop-opacity="0.5"></stop><stop offset="100%" stop-color="rgb(96,100,102)" stop-opacity="0"></stop></radialGradient><radialGradient id="__lottie_element_67" spreadMethod="pad" gradientUnits="userSpaceOnUse" cx="-52.237998962402344" cy="58" r="92.85959549819572" fx="-52.237998962402344" fy="58"><stop offset="0%" stop-color="rgb(96,100,102)" stop-opacity="1"></stop><stop offset="50%" stop-color="rgb(96,100,102)" stop-opacity="0.5"></stop><stop offset="100%" stop-color="rgb(96,100,102)" stop-opacity="0"></stop></radialGradient></defs><g clip-path="url(#__lottie_element_2)"><g style="display: block;" transform="matrix(1,0,0,1,256,256)" opacity="1"><g opacity="1" transform="matrix(1,0,0,1,0,0)"><g opacity="1" transform="matrix(1,0,0,1,0,0)"><path fill="url(#__lottie_element_63)" fill-opacity="1" d=" M78.58000183105469,216.5189971923828 C78.58000183105469,216.5189971923828 -186.05799865722656,216.5189971923828 -186.05799865722656,216.5189971923828 C-199.39599609375,216.3800048828125 -212.4409942626953,215.0330047607422 -218.06500244140625,207.7519989013672 C-218.06500244140625,207.7519989013672 -204.20700073242188,144.79600524902344 -204.20700073242188,144.79600524902344 C-201.56199645996094,124.93299865722656 -192.13499450683594,112.01599884033203 -176.9010009765625,105.0459976196289 C-176.9010009765625,105.0459976196289 -102.2979965209961,75.74299621582031 -102.2979965209961,75.74299621582031 C-102.2979965209961,75.74299621582031 -95.24800109863281,104.71399688720703 -50.154998779296875,104.71399688720703 C-5.214000225067139,104.71399688720703 -0.16699999570846558,77.90699768066406 -0.16699999570846558,77.90699768066406 C-0.16699999570846558,77.90699768066406 69.83599853515625,103.05599975585938 69.83599853515625,103.05599975585938 C88.96099853515625,108.89600372314453 103.09700012207031,123.40599822998047 106.43900299072266,141.7480010986328 C106.43900299072266,141.7480010986328 118.50599670410156,210.79200744628906 118.50599670410156,210.79200744628906 C104.86499786376953,215.8990020751953 91.39700317382812,216.5240020751953 78.58000183105469,216.5189971923828z"></path></g><g opacity="1" transform="matrix(1,0,0,1,0,0)"><path fill="url(#__lottie_element_64)" fill-opacity="1" d=" M12.710000038146973,216.5189971923828 C16.85099983215332,216.61399841308594 88.39099884033203,217.9219970703125 118.61599731445312,212.91400146484375 C118.61599731445312,212.91400146484375 107.5530014038086,145.718994140625 107.5530014038086,145.718994140625 C101.6449966430664,123.48500061035156 90.01599884033203,109.41500091552734 73.35199737548828,102.53099822998047 C73.35199737548828,102.53099822998047 5.644999980926514,76.66600036621094 5.644999980926514,76.66600036621094 C5.644999980926514,76.66600036621094 12.710000038146973,216.5189971923828 12.710000038146973,216.5189971923828z"></path></g><g opacity="1" transform="matrix(1,0,0,1,0,0)"><path fill="url(#__lottie_element_65)" fill-opacity="0.2" d=" M96.7020034790039,194.63099670410156 C96.7020034790039,194.63099670410156 90.197998046875,165.13499450683594 90.18299865722656,165.0489959716797 C85.33000183105469,138.1060028076172 76.072998046875,117.96299743652344 58.14699935913086,109.98500061035156 C58.14699935913086,109.98500061035156 -7.218999862670898,88.30899810791016 -7.218999862670898,88.30899810791016 C-7.218999862670898,88.30899810791016 -97.71199798583984,88.32499694824219 -97.71199798583984,88.32499694824219 C-97.71199798583984,88.32499694824219 -167,114.27100372314453 -167,114.27100372314453 C-185.45899963378906,123.19499969482422 -190.9720001220703,138.10499572753906 -195.8249969482422,165.0489959716797 C-195.83999633789062,165.13499450683594 -201.27200317382812,194.63099670410156 -201.27200317382812,194.63099670410156 C-201.91400146484375,197.54200744628906 -212.2989959716797,194.5679931640625 -211.65699768066406,191.65699768066406 C-211.65699768066406,191.65699768066406 -205.2169952392578,162.45899963378906 -205.2169952392578,162.45899963378906 C-199.66000366210938,131.7550048828125 -195.9149932861328,116.11900329589844 -169.8820037841797,103.95700073242188 C-169.84500122070312,103.94000244140625 -99.76499938964844,77.65499877929688 -99.76499938964844,77.65499877929688 C-99.3280029296875,77.46800231933594 -5.61299991607666,76.37899780273438 -5.177000045776367,76.56400299072266 C-5.177000045776367,76.56400299072266 60.98699951171875,99.6510009765625 61.0260009765625,99.66899871826172 C87.05799865722656,111.83100128173828 95.08999633789062,131.75599670410156 100.64700317382812,162.45899963378906 C100.64700317382812,162.45899963378906 107.08699798583984,191.65699768066406 107.08699798583984,191.65699768066406 C107.72899627685547,194.5679931640625 97.23400115966797,197.0449981689453 96.7020034790039,194.63099670410156z"></path></g></g><g opacity="1" transform="matrix(1,0,0,1,0,0)"><path stroke-linecap="round" stroke-linejoin="round" fill-opacity="0" stroke="rgb(111,115,117)" stroke-opacity="1" stroke-width="8" d=" M-213.7779998779297,206.68099975585938 C-213.7779998779297,206.68099975585938 -204.20700073242188,144.79600524902344 -204.20700073242188,144.79600524902344 C-198.70700073242188,120.16000366210938 -186.38800048828125,107.4010009765625 -161.29400634765625,97.94200134277344 C-161.29400634765625,97.94200134277344 -102.2979965209961,75.74299621582031 -102.2979965209961,75.74299621582031"></path></g><g opacity="1" transform="matrix(1,0,0,1.4518400430679321,0,-97.93634033203125)"><path fill="url(#__lottie_element_66)" fill-opacity="0.6" d=" M-120.70999908447266,216.5189971923828 C-120.70999908447266,216.5189971923828 -180.4759979248047,216.5189971923828 -180.4759979248047,216.5189971923828 C-180.4759979248047,199.19700622558594 -174.572998046875,174.56199645996094 -151.00100708007812,174.56199645996094 C-128.68499755859375,174.56199645996094 -119.81300354003906,212.03799438476562 -120.70999908447266,216.5189971923828z"></path></g><g opacity="1" transform="matrix(1,0,0,1,0,0)"><path stroke-linecap="round" stroke-linejoin="round" fill-opacity="0" stroke="rgb(111,115,117)" stroke-opacity="0.6" stroke-width="8" d=" M-150.91099548339844,191.4340057373047 C-150.91099548339844,191.4340057373047 -150.91099548339844,212.13800048828125 -150.91099548339844,212.13800048828125"></path></g><g opacity="1" transform="matrix(1,0,0,1,0,0)"><path stroke-linecap="round" stroke-linejoin="round" fill-opacity="0" stroke="rgb(72,75,76)" stroke-opacity="1" stroke-width="8" d=" M114.51599884033203,207.7519989013672 C114.51599884033203,207.7519989013672 103.87300109863281,144.79600524902344 103.87300109863281,144.79600524902344 C98.37300109863281,120.16000366210938 86.05500030517578,107.4010009765625 60.96099853515625,97.94200134277344 C60.96099853515625,97.94200134277344 1.9639999866485596,75.74299621582031 1.9639999866485596,75.74299621582031"></path></g><g opacity="1" transform="matrix(1,0,0,1,0,0)"><path fill="url(#__lottie_element_67)" fill-opacity="1" d=" M18.448999404907227,84.51899719238281 C30.864999771118164,110.875 -2.806999921798706,149.45700073242188 -52.643001556396484,151.468994140625 C-105.91400146484375,153.6199951171875 -130.66900634765625,102.66000366210938 -120.5719985961914,84.5459976196289 C-116.96499633789062,80.0979995727539 -91.24199676513672,70.2239990234375 -51.845001220703125,70.2239990234375 C-12.447999954223633,70.2239990234375 15.28499984741211,79.70099639892578 18.448999404907227,84.51899719238281z"></path></g><g opacity="1" transform="matrix(1,0,0,1,0,0)"><path stroke-linecap="round" stroke-linejoin="round" fill-opacity="0" stroke="rgb(190,194,198)" stroke-opacity="0.3" stroke-width="8" d=" M-0.5450000166893005,79.77899932861328 C7.320000171661377,91.5250015258789 -23.29400062561035,108.7699966430664 -52.334999084472656,108.7699966430664 C-81.3759994506836,108.7699966430664 -109.92400360107422,91.04000091552734 -102.2979965209961,80.10099792480469 C-99.91200256347656,76.6780014038086 -81.41999816894531,74.27999877929688 -52.37900161743164,74.27999877929688 C-23.33799934387207,74.27999877929688 -2.877000093460083,76.2959976196289 -0.5450000166893005,79.77899932861328z"></path></g></g><g style="display: block;" transform="matrix(1,0,0,1,256,256)" opacity="1"><g opacity="1" transform="matrix(1,0,0,1,0,0)"><path fill="rgb(181,102,6)" fill-opacity="1" d=" M-0.33899998664855957,75.7229995727539 C7.394000053405762,87.46900177001953 -22.70800018310547,104.71399688720703 -51.26300048828125,104.71399688720703 C-79.81800079345703,104.71399688720703 -111.23100280761719,87.46900177001953 -101.10099792480469,75.74299621582031 C-98.39199829101562,72.60700225830078 -79.86100006103516,70.2239990234375 -51.305999755859375,70.2239990234375 C-22.750999450683594,70.2239990234375 -2.631999969482422,72.23999786376953 -0.33899998664855957,75.7229995727539z"></path><path stroke-linecap="round" stroke-linejoin="round" fill-opacity="0" stroke="rgb(72,75,76)" stroke-opacity="1" stroke-width="8" d=" M-0.33899998664855957,75.7229995727539 C7.394000053405762,87.46900177001953 -22.70800018310547,104.71399688720703 -51.26300048828125,104.71399688720703 C-79.81800079345703,104.71399688720703 -111.23100280761719,87.46900177001953 -101.10099792480469,75.74299621582031 C-98.39199829101562,72.60700225830078 -79.86100006103516,70.2239990234375 -51.305999755859375,70.2239990234375 C-22.750999450683594,70.2239990234375 -2.631999969482422,72.23999786376953 -0.33899998664855957,75.7229995727539z"></path></g><g opacity="1" transform="matrix(1,0,0,1,0,0)"><g opacity="1" transform="matrix(1,0,0,1,0,0)"><path fill="rgb(181,102,6)" fill-opacity="1" d=" M-94.96600341796875,79.70500183105469 C-94.96600341796875,79.70500183105469 -91.83000183105469,60.064998626708984 -91.83000183105469,60.064998626708984 C-91.83000183105469,60.064998626708984 -11.16100025177002,60.064998626708984 -11.16100025177002,60.064998626708984 C-11.16100025177002,60.064998626708984 -7.36299991607666,79.70500183105469 -7.36299991607666,79.70500183105469"></path><path stroke-linecap="round" stroke-linejoin="round" fill-opacity="0" stroke="rgb(153,71,4)" stroke-opacity="1" stroke-width="8" d=" M-94.96600341796875,79.70500183105469 C-94.96600341796875,79.70500183105469 -91.83000183105469,60.064998626708984 -91.83000183105469,60.064998626708984 C-91.83000183105469,60.064998626708984 -11.16100025177002,60.064998626708984 -11.16100025177002,60.064998626708984 C-11.16100025177002,60.064998626708984 -7.36299991607666,79.70500183105469 -7.36299991607666,79.70500183105469"></path></g><g opacity="1" transform="matrix(1,0,0,1,0,0)"><path fill="url(#__lottie_element_59)" fill-opacity="1" d=" M-91.97899627685547,63.303001403808594 C-91.97899627685547,63.303001403808594 -98.4800033569336,82.58599853515625 -98.4800033569336,82.58599853515625 C-77.51499938964844,106.19100189208984 -25.922000885009766,105.75499725341797 -4.931000232696533,83.13500213623047 C-4.931000232696533,83.13500213623047 -10.79800033569336,60.00699996948242 -10.79800033569336,60.00699996948242 C-10.79800033569336,60.00699996948242 -91.97899627685547,63.303001403808594 -91.97899627685547,63.303001403808594z"></path></g></g></g><g style="display: block;" transform="matrix(0.9399999976158142,0,0,0.9399999976158142,207.9142303466797,231.12844848632812)" opacity="1"><g opacity="1" transform="matrix(1,0,0,1,0,0)"><path fill="rgb(218,110,0)" fill-opacity="1" d=" M101.80000305175781,19.256000518798828 C101.80000305175781,19.256000518798828 99.68000030517578,40.45600128173828 105.58200073242188,56.87200164794922 C105.58200073242188,56.87200164794922 99.22599792480469,56.888999938964844 91.96199798583984,53.119998931884766 C91.96199798583984,53.119998931884766 91.80999755859375,60.05699920654297 94.53399658203125,65.93800354003906 C94.53399658203125,65.93800354003906 86.87100219726562,64.81700134277344 82.5790023803711,60.6609992980957 C82.5790023803711,60.6609992980957 81.31700134277344,65.28199768066406 81.6709976196289,70.52300262451172 C81.6709976196289,70.52300262451172 76.83200073242188,69.78800201416016 69.11399841308594,59.946998596191406 C61.395999908447266,50.10599899291992 80.76499938964844,17.054000854492188 101.80000305175781,19.256000518798828z"></path><path stroke-linecap="round" stroke-linejoin="round" fill-opacity="0" stroke="rgb(163,65,0)" stroke-opacity="1" stroke-width="8" d=" M101.80000305175781,19.256000518798828 C101.80000305175781,19.256000518798828 99.68000030517578,40.45600128173828 105.58200073242188,56.87200164794922 C105.58200073242188,56.87200164794922 99.22599792480469,56.888999938964844 91.96199798583984,53.119998931884766 C91.96199798583984,53.119998931884766 91.80999755859375,60.05699920654297 94.53399658203125,65.93800354003906 C94.53399658203125,65.93800354003906 86.87100219726562,64.81700134277344 82.5790023803711,60.6609992980957 C82.5790023803711,60.6609992980957 81.31700134277344,65.28199768066406 81.6709976196289,70.52300262451172 C81.6709976196289,70.52300262451172 76.83200073242188,69.78800201416016 69.11399841308594,59.946998596191406 C61.395999908447266,50.10599899291992 80.76499938964844,17.054000854492188 101.80000305175781,19.256000518798828z"></path></g><g opacity="1" transform="matrix(1,0,0,1,0,0)"><path fill="rgb(218,110,0)" fill-opacity="1" d=" M-110.3550033569336,22.652999877929688 C-110.3550033569336,22.652999877929688 -108.18000030517578,38.895999908447266 -115.35399627685547,55.810001373291016 C-115.35399627685547,55.810001373291016 -110.01100158691406,54.599998474121094 -103.19000244140625,53.09000015258789 C-103.19000244140625,53.09000015258789 -104.70600128173828,59.97999954223633 -106.22200012207031,63.78499984741211 C-106.22200012207031,63.78499984741211 -98.5270004272461,63.92300033569336 -93.18499755859375,60.854000091552734 C-93.18499755859375,60.854000091552734 -92.6510009765625,64.69200134277344 -93.18499755859375,69.8550033569336 C-93.18499755859375,69.8550033569336 -83.10600280761719,66.88400268554688 -76.09500122070312,55.96500015258789 C-69.08399963378906,45.04600143432617 -93.26599884033203,13.73900032043457 -110.3550033569336,22.652999877929688z"></path><path stroke-linecap="round" stroke-linejoin="round" fill-opacity="0" stroke="rgb(163,65,0)" stroke-opacity="1" stroke-width="8" d=" M-110.3550033569336,22.652999877929688 C-110.3550033569336,22.652999877929688 -108.18000030517578,38.895999908447266 -115.35399627685547,55.810001373291016 C-115.35399627685547,55.810001373291016 -110.01100158691406,54.599998474121094 -103.19000244140625,53.09000015258789 C-103.19000244140625,53.09000015258789 -104.70600128173828,59.97999954223633 -106.22200012207031,63.78499984741211 C-106.22200012207031,63.78499984741211 -98.5270004272461,63.92300033569336 -93.18499755859375,60.854000091552734 C-93.18499755859375,60.854000091552734 -92.6510009765625,64.69200134277344 -93.18499755859375,69.8550033569336 C-93.18499755859375,69.8550033569336 -83.10600280761719,66.88400268554688 -76.09500122070312,55.96500015258789 C-69.08399963378906,45.04600143432617 -93.26599884033203,13.73900032043457 -110.3550033569336,22.652999877929688z"></path></g></g><g style="display: block;" transform="matrix(0.9399999976158142,0,0,0.9399999976158142,207.9142303466797,231.12844848632812)" opacity="1"><g opacity="1" transform="matrix(1,0,0,1,0,0)"><path fill="rgb(255,168,0)" fill-opacity="1" d=" M-116.54000091552734,-35.49100112915039 C-123.99600219726562,-36.784000396728516 -124.51799774169922,-19.964000701904297 -121.4229965209961,-5.063000202178955 C-118.55799865722656,8.732000350952148 -112.85700225830078,25.53700065612793 -102.61100006103516,22.40999984741211 C-92.36499786376953,19.281999588012695 -90.98699951171875,-31.059999465942383 -116.54000091552734,-35.49100112915039z"></path><path stroke-linecap="round" stroke-linejoin="round" fill-opacity="0" stroke="rgb(219,110,0)" stroke-opacity="1" stroke-width="8" d=" M-116.54000091552734,-35.49100112915039 C-123.99600219726562,-36.784000396728516 -124.51799774169922,-19.964000701904297 -121.4229965209961,-5.063000202178955 C-118.55799865722656,8.732000350952148 -112.85700225830078,25.53700065612793 -102.61100006103516,22.40999984741211 C-92.36499786376953,19.281999588012695 -90.98699951171875,-31.059999465942383 -116.54000091552734,-35.49100112915039z"></path></g><g opacity="1" transform="matrix(1,0,0,1,0,0)"><path fill="rgb(255,168,0)" fill-opacity="1" d=" M109.5739974975586,-35.49100112915039 C117.02999877929688,-36.784000396728516 117.552001953125,-19.964000701904297 114.45700073242188,-5.063000202178955 C111.59200286865234,8.732000350952148 105.89099884033203,25.53700065612793 95.6449966430664,22.40999984741211 C85.39900207519531,19.281999588012695 84.02100372314453,-31.059999465942383 109.5739974975586,-35.49100112915039z"></path><path stroke-linecap="round" stroke-linejoin="round" fill-opacity="0" stroke="rgb(219,110,0)" stroke-opacity="1" stroke-width="8" d=" M109.5739974975586,-35.49100112915039 C117.02999877929688,-36.784000396728516 117.552001953125,-19.964000701904297 114.45700073242188,-5.063000202178955 C111.59200286865234,8.732000350952148 105.89099884033203,25.53700065612793 95.6449966430664,22.40999984741211 C85.39900207519531,19.281999588012695 84.02100372314453,-31.059999465942383 109.5739974975586,-35.49100112915039z"></path></g></g><g style="display: block;" transform="matrix(0.9399999976158142,0,0,0.9399999976158142,207.9142303466797,231.12844848632812)" opacity="1"><g opacity="1" transform="matrix(1,0,0,1,0,0)"><g opacity="1" transform="matrix(1,0,0,1,0,0)"><path fill="rgb(255,168,0)" fill-opacity="1" d=" M78.625,-120.15599822998047 C59.16999816894531,-146.30099487304688 34.68299865722656,-162.2480010986328 -2.86299991607666,-162.2480010986328 C-40.409000396728516,-162.2480010986328 -64.27999877929688,-145.8260040283203 -84.3499984741211,-120.15599822998047 C-107.70800018310547,-90.28199768066406 -120.0199966430664,-12 -95.25700378417969,39.95100021362305 C-70.49500274658203,91.9010009765625 -27.763999938964844,106.52999877929688 -2.86299991607666,106.52999877929688 C22.038000106811523,106.52999877929688 64.76799774169922,91.9010009765625 89.53099822998047,39.95100021362305 C114.29299926757812,-12 101.98200225830078,-88.76599884033203 78.625,-120.15599822998047z"></path></g><g opacity="1" transform="matrix(1,0,0,1,0,0)"><path fill="url(#__lottie_element_16)" fill-opacity="1" d=" M78.625,-120.15599822998047 C59.16999816894531,-146.30099487304688 34.68299865722656,-162.2480010986328 -2.86299991607666,-162.2480010986328 C-40.409000396728516,-162.2480010986328 -64.27999877929688,-145.8260040283203 -84.3499984741211,-120.15599822998047 C-107.70800018310547,-90.28199768066406 -120.0199966430664,-12 -95.25700378417969,39.95100021362305 C-70.49500274658203,91.9010009765625 -27.763999938964844,106.52999877929688 -2.86299991607666,106.52999877929688 C22.038000106811523,106.52999877929688 64.76799774169922,91.9010009765625 89.53099822998047,39.95100021362305 C114.29299926757812,-12 101.98200225830078,-88.76599884033203 78.625,-120.15599822998047z"></path></g><g opacity="1" transform="matrix(1,0,0,1,0,0)"><path stroke-linecap="round" stroke-linejoin="round" fill-opacity="0" stroke="rgb(219,110,0)" stroke-opacity="1" stroke-width="8" d=" M78.625,-120.15599822998047 C59.16999816894531,-146.30099487304688 34.68299865722656,-162.2480010986328 -2.86299991607666,-162.2480010986328 C-40.409000396728516,-162.2480010986328 -64.27999877929688,-145.8260040283203 -84.3499984741211,-120.15599822998047 C-107.70800018310547,-90.28199768066406 -120.0199966430664,-12 -95.25700378417969,39.95100021362305 C-70.49500274658203,91.9010009765625 -27.763999938964844,106.52999877929688 -2.86299991607666,106.52999877929688 C22.038000106811523,106.52999877929688 64.76799774169922,91.9010009765625 89.53099822998047,39.95100021362305 C114.29299926757812,-12 101.98200225830078,-88.76599884033203 78.625,-120.15599822998047z"></path></g><g opacity="1" transform="matrix(1,0,0,1,0,0)"><path fill="url(#__lottie_element_17)" fill-opacity="1" d=" M-4.521999835968018,88.47899627685547 C-51.422000885009766,87.39800262451172 -103.27300262451172,39.30400085449219 -94.8290023803711,-44.01499938964844 C-94.8290023803711,-44.01499938964844 -86.5770034790039,-53.555999755859375 -81.947998046875,-65.54100036621094 C-81.947998046875,-65.54100036621094 -70.81300354003906,-58.61800003051758 -71.9990005493164,-76.93299865722656 C-71.9990005493164,-76.93299865722656 -61.8129997253418,-70.16500091552734 -63.59600067138672,-79.29100036621094 C-64.37100219726562,-83.25599670410156 -68.55699920654297,-94.75599670410156 -66.70099639892578,-108.74600219726562 C-66.70099639892578,-108.74600219726562 -45.74599838256836,-83.92900085449219 -4.656000137329102,-80.78600311279297 C32.57899856567383,-77.93800354003906 41.22999954223633,-74.98400115966797 51.75699996948242,-63.499000549316406 C54.74800109863281,-60.236000061035156 58.77899932861328,-58.21799850463867 60.29399871826172,-64.2020034790039 C60.29399871826172,-64.2020034790039 72.43299865722656,-46.83000183105469 74.81500244140625,-54.48899841308594 C74.81500244140625,-54.48899841308594 85.63500213623047,-40.474998474121094 88.3030014038086,-29.18199920654297 C92.02300262451172,-13.435999870300293 86.96600341796875,15.015999794006348 73.83999633789062,38.79899978637695 C57.459999084472656,68.47899627685547 29.552000045776367,89.26399993896484 -4.521999835968018,88.47899627685547z"></path></g></g></g><g style="display: block;" transform="matrix(0.9399999976158142,0,0,0.9399999976158142,207.62283325195312,227.09490966796875)" opacity="1"><g opacity="1" transform="matrix(1,0,0,1,0,0)"><path fill="url(#__lottie_element_46)" fill-opacity="1" d=" M12.954999923706055,31.781999588012695 C12.954999923706055,38.553001403808594 5.238999843597412,44.573001861572266 -3.1630001068115234,44.573001861572266 C-11.5649995803833,44.573001861572266 -19.2810001373291,38.553001403808594 -19.2810001373291,31.781999588012695 C-19.2810001373291,25.01099967956543 -11.5649995803833,18.80299949645996 -3.1630001068115234,18.80299949645996 C5.238999843597412,18.80299949645996 12.954999923706055,25.01099967956543 12.954999923706055,31.781999588012695z"></path></g><g opacity="1" transform="matrix(1,0,0,1,0,0)"><path fill="rgb(255,168,0)" fill-opacity="0.8" d=" M12.954999923706055,27.375 C12.954999923706055,33.86199951171875 5.738999843597412,39.12099838256836 -3.1630001068115234,39.12099838256836 C-12.0649995803833,39.12099838256836 -19.2810001373291,33.86199951171875 -19.2810001373291,27.375 C-19.2810001373291,20.88800048828125 -12.0649995803833,15.906000137329102 -3.1630001068115234,15.906000137329102 C5.738999843597412,15.906000137329102 12.954999923706055,20.88800048828125 12.954999923706055,27.375z"></path></g><g opacity="1" transform="matrix(1,0,0,1,0,0)"><path fill="url(#__lottie_element_47)" fill-opacity="0.7000000000000001" d=" M12.954999923706055,27.375 C12.954999923706055,33.86199951171875 5.738999843597412,39.12099838256836 -3.1630001068115234,39.12099838256836 C-12.0649995803833,39.12099838256836 -19.2810001373291,33.86199951171875 -19.2810001373291,27.375 C-19.2810001373291,20.88800048828125 -12.0649995803833,15.906000137329102 -3.1630001068115234,15.906000137329102 C5.738999843597412,15.906000137329102 12.954999923706055,20.88800048828125 12.954999923706055,27.375z"></path></g><g opacity="1" transform="matrix(1,0,0,1,0,0)"><path fill="rgb(255,216,0)" fill-opacity="1" d=" M10.779999732971191,23.667999267578125 C10.779999732971191,28.496999740600586 4.538000106811523,32.4119987487793 -3.1630001068115234,32.4119987487793 C-10.86400032043457,32.4119987487793 -17.106000900268555,28.496999740600586 -17.106000900268555,23.667999267578125 C-17.106000900268555,18.839000701904297 -10.86400032043457,15.715999603271484 -3.1630001068115234,15.715999603271484 C4.538000106811523,15.715999603271484 10.779999732971191,18.839000701904297 10.779999732971191,23.667999267578125z"></path></g><g opacity="1" transform="matrix(1,0,0,1,0,0)"><path fill="url(#__lottie_element_48)" fill-opacity="1" d=" M10.779999732971191,23.667999267578125 C10.779999732971191,28.496999740600586 4.538000106811523,32.4119987487793 -3.1630001068115234,32.4119987487793 C-10.86400032043457,32.4119987487793 -17.106000900268555,28.496999740600586 -17.106000900268555,23.667999267578125 C-17.106000900268555,18.839000701904297 -10.86400032043457,15.715999603271484 -3.1630001068115234,15.715999603271484 C4.538000106811523,15.715999603271484 10.779999732971191,18.839000701904297 10.779999732971191,23.667999267578125z"></path></g><g opacity="1" transform="matrix(1,0,0,1,0,0)"><path fill="url(#__lottie_element_49)" fill-opacity="0.7000000000000001" d=" M4.019999980926514,20.160999298095703 C4.019999980926514,22.746000289916992 0.8040000200271606,25.17799949645996 -3.1630001068115234,25.17799949645996 C-7.13100004196167,25.17799949645996 -10.347000122070312,22.746000289916992 -10.347000122070312,20.160999298095703 C-10.347000122070312,17.575000762939453 -7.13100004196167,16.277999877929688 -3.1630001068115234,16.277999877929688 C0.8040000200271606,16.277999877929688 4.019999980926514,17.575000762939453 4.019999980926514,20.160999298095703z"></path></g></g><g style="display: block;" transform="matrix(0.9399999976158142,0,0,0.9399999976158142,207.9142303466797,231.12844848632812)" opacity="1"><g opacity="1" transform="matrix(1,0,0,1,0,0)"><path fill="rgb(255,205,0)" fill-opacity="1" d=" M-72.93299865722656,-137.5570068359375 C-72.93299865722656,-137.5570068359375 -60.85300064086914,-103.63300323486328 -14.270000457763672,-95.11399841308594 C15.390999794006348,-89.69000244140625 43.23099899291992,-91.94100189208984 54.40700149536133,-76.947998046875 C54.40700149536133,-76.947998046875 53.84000015258789,-84.90299987792969 52.59199905395508,-95.84700012207031 C52.59199905395508,-95.84700012207031 73.22200012207031,-68.68099975585938 73.22200012207031,-68.68099975585938 C73.22200012207031,-68.68099975585938 77.81300354003906,-75.56600189208984 75.0459976196289,-87.17500305175781 C75.0459976196289,-87.17500305175781 105.58200073242188,-39.30099868774414 102.05899810791016,-11.949999809265137 C102.05899810791016,-11.949999809265137 108.77400207519531,-30.325000762939453 109.72799682617188,-35.638999938964844 C126.4990005493164,-30.325000762939453 130.16700744628906,-104.7760009765625 113.91300201416016,-135.23199462890625 C106.79900360107422,-148.56199645996094 86.34300231933594,-178.29400634765625 33.51100158691406,-192.41099548339844 C-16.284000396728516,-205.7169952392578 -71.4000015258789,-195.33799743652344 -82.20999908447266,-163.7270050048828 C-138.33900451660156,-163.7270050048828 -134.4720001220703,-49.11399841308594 -119.68000030517578,-36.28300094604492 C-119.68000030517578,-36.28300094604492 -115.93000030517578,-31.1299991607666 -112.38700103759766,-21.111000061035156 C-112.38700103759766,-21.111000061035156 -110.09700012207031,-31.136999130249023 -110.13400268554688,-45.5369987487793 C-110.13400268554688,-45.5369987487793 -92.43800354003906,-67.0510025024414 -90.63200378417969,-82.98799896240234 C-90.63200378417969,-82.98799896240234 -85.9209976196289,-76.2239990234375 -79.5719985961914,-73.4219970703125 C-79.5719985961914,-73.4219970703125 -79.68599700927734,-81.33200073242188 -77.92900085449219,-93.71700286865234 C-77.92900085449219,-93.71700286865234 -75.30000305175781,-87.82499694824219 -67.74400329589844,-84.87899780273438 C-67.74400329589844,-84.87899780273438 -70.3479995727539,-122.73500061035156 -72.93299865722656,-137.5570068359375z"></path></g><g opacity="1" transform="matrix(1,0,0,1,0,0)"><path fill="url(#__lottie_element_39)" fill-opacity="1" d=" M-72.93299865722656,-137.5570068359375 C-72.93299865722656,-137.5570068359375 -60.85300064086914,-103.63300323486328 -14.270000457763672,-95.11399841308594 C15.390999794006348,-89.69000244140625 43.23099899291992,-91.94100189208984 54.40700149536133,-76.947998046875 C54.40700149536133,-76.947998046875 53.84000015258789,-84.90299987792969 52.59199905395508,-95.84700012207031 C52.59199905395508,-95.84700012207031 73.22200012207031,-68.68099975585938 73.22200012207031,-68.68099975585938 C73.22200012207031,-68.68099975585938 77.81300354003906,-75.56600189208984 75.0459976196289,-87.17500305175781 C75.0459976196289,-87.17500305175781 105.58200073242188,-39.30099868774414 102.05899810791016,-11.949999809265137 C102.05899810791016,-11.949999809265137 108.77400207519531,-30.325000762939453 109.72799682617188,-35.638999938964844 C126.4990005493164,-30.325000762939453 130.16700744628906,-104.7760009765625 113.91300201416016,-135.23199462890625 C106.79900360107422,-148.56199645996094 86.34300231933594,-178.29400634765625 33.51100158691406,-192.41099548339844 C-16.284000396728516,-205.7169952392578 -71.4000015258789,-195.33799743652344 -82.20999908447266,-163.7270050048828 C-138.33900451660156,-163.7270050048828 -134.4720001220703,-49.11399841308594 -119.68000030517578,-36.28300094604492 C-119.68000030517578,-36.28300094604492 -115.93000030517578,-31.1299991607666 -112.38700103759766,-21.111000061035156 C-112.38700103759766,-21.111000061035156 -110.09700012207031,-31.136999130249023 -110.13400268554688,-45.5369987487793 C-110.13400268554688,-45.5369987487793 -92.43800354003906,-67.0510025024414 -90.63200378417969,-82.98799896240234 C-90.63200378417969,-82.98799896240234 -85.9209976196289,-76.2239990234375 -79.5719985961914,-73.4219970703125 C-79.5719985961914,-73.4219970703125 -79.68599700927734,-81.33200073242188 -77.92900085449219,-93.71700286865234 C-77.92900085449219,-93.71700286865234 -75.30000305175781,-87.82499694824219 -67.74400329589844,-84.87899780273438 C-67.74400329589844,-84.87899780273438 -70.3479995727539,-122.73500061035156 -72.93299865722656,-137.5570068359375z"></path></g><g opacity="1" transform="matrix(1,0,0,1,0,0)"><path fill="url(#__lottie_element_40)" fill-opacity="1" d=" M113.77300262451172,-127.93699645996094 C128.28399658203125,-85.91999816894531 115.76899719238281,-48.959999084472656 105.62899780273438,-54.757999420166016 C100.677001953125,-57.5890007019043 88.47000122070312,-81.87699890136719 74.94499969482422,-89.63899993896484 C74.94499969482422,-89.63899993896484 80.18199920654297,-73.51499938964844 71.01300048828125,-86.51000213623047 C59.2859992980957,-106.5780029296875 39.32699966430664,-111.68499755859375 39.32699966430664,-111.68499755859375 C42.47700119018555,-103.76699829101562 43.22800064086914,-94.13999938964844 43.22800064086914,-94.13999938964844 C43.22800064086914,-94.13999938964844 43.23400115966797,-94.13300323486328 43.23400115966797,-94.13300323486328 C32.53200149536133,-100.61100006103516 13.376999855041504,-101.91400146484375 -10.817999839782715,-106.90299987792969 C-54.54600143432617,-115.91899871826172 -81.25299835205078,-154.302001953125 -62.80799865722656,-175.33700561523438 C-38.5890007019043,-202.95700073242188 21.924999237060547,-195.11199951171875 61.55699920654297,-178.77699279785156 C-0.09799999743700027,-217.3159942626953 -77.64399719238281,-192.49099731445312 -82.21299743652344,-163.7270050048828 C-105.70099639892578,-161.2830047607422 -116.66100311279297,-143.34800720214844 -122.36499786376953,-118.91400146484375 C-111.3479995727539,-151.94900512695312 -92.55500030517578,-161.53900146484375 -86.2959976196289,-153.29400634765625 C-79.35099792480469,-144.14700317382812 -78.13099670410156,-96.84300231933594 -85.39700317382812,-107.33799743652344 C-85.11199951171875,-104.7770004272461 -85.23600006103516,-98.58200073242188 -87.18800354003906,-93.63099670410156 C-89.02799987792969,-88.96399688720703 -96.72599792480469,-103.0530014038086 -96.72599792480469,-103.0530014038086 C-102.78299713134766,-61.176998138427734 -120.14600372314453,-62.573001861572266 -121.51100158691406,-41.07699966430664 C-121.51100158691406,-41.07699966430664 -115.93299865722656,-31.125999450683594 -112.38300323486328,-21.114999771118164 C-112.38300323486328,-21.114999771118164 -110.0989990234375,-31.135000228881836 -110.13500213623047,-45.53499984741211 C-110.13500213623047,-45.53499984741211 -92.43399810791016,-67.05400085449219 -90.63200378417969,-82.98600006103516 C-90.63200378417969,-82.98600006103516 -85.91799926757812,-76.22100067138672 -79.5739974975586,-73.41899871826172 C-79.5739974975586,-73.41899871826172 -79.68299865722656,-81.33499908447266 -77.9260025024414,-93.71299743652344 C-77.9260025024414,-93.71299743652344 -75.30500030517578,-87.8280029296875 -67.74199676513672,-84.88099670410156 C-67.74199676513672,-84.88099670410156 -70.34500122070312,-122.7300033569336 -72.9209976196289,-137.5290069580078 C-72.5479965209961,-136.50399780273438 -60.0099983215332,-104.10700225830078 -14.272000312805176,-95.11000061035156 C47.887001037597656,-82.88300323486328 59.047000885009766,-87.34500122070312 69.50599670410156,-72.4219970703125 C69.50599670410156,-72.42400360107422 69.50599670410156,-72.4260025024414 69.50599670410156,-72.427001953125 C71.4280014038086,-70.52300262451172 75.2300033569336,-76.9020004272461 80.24199676513672,-70.88500213623047 C95.29399871826172,-52.81399917602539 100.48500061035156,-23.36400032043457 102.05999755859375,-11.946999549865723 C102.05999755859375,-11.946999549865723 108.31999969482422,-30.325000762939453 109.73200225830078,-35.641998291015625 C131.78700256347656,-43.92399978637695 130.04200744628906,-109.75900268554688 113.77300262451172,-127.93699645996094z"></path></g><g opacity="1" transform="matrix(1,0,0,1,0,0)"><path fill="url(#__lottie_element_41)" fill-opacity="0.9" d=" M-0.09700000286102295,-108.1449966430664 C-38.4370002746582,-111.33799743652344 -52.11600112915039,-124.0459976196289 -64.3479995727539,-143.75999450683594 C-70.2300033569336,-153.24000549316406 -71.96600341796875,-163.28900146484375 -70.552001953125,-165.90499877929688 C-61.7599983215332,-182.16700744628906 -26.16200065612793,-193.4040069580078 14.70300006866455,-187.74600219726562 C41.29499816894531,-184.06399536132812 66.86000061035156,-172.78599548339844 89.56800079345703,-150.48599243164062 C130.52999877929688,-106.5199966430664 63.96699905395508,-102.80999755859375 -0.09700000286102295,-108.1449966430664z"></path></g><g opacity="1" transform="matrix(1,0,0,1,0,0)"><path fill="url(#__lottie_element_42)" fill-opacity="0.9" d=" M-87.46900177001953,-154.0540008544922 C-100.85399627685547,-154.10800170898438 -119.73899841308594,-128.3249969482422 -120.01499938964844,-108.1449966430664 C-120.31400299072266,-86.3479995727539 -105.2760009765625,-113.66300201416016 -96.72599792480469,-114.29299926757812 C-87.70999908447266,-114.95700073242188 -83.24600219726562,-125.38700103759766 -82.64800262451172,-135.25999450683594 C-82.13500213623047,-143.73599243164062 -85.54000091552734,-154.04600524902344 -87.46900177001953,-154.0540008544922z"></path></g><g opacity="1" transform="matrix(1,0,0,1,0,0)"><path stroke-linecap="round" stroke-linejoin="round" fill-opacity="0" stroke="rgb(197,92,0)" stroke-opacity="1" stroke-width="8" d=" M-72.93299865722656,-137.5570068359375 C-72.93299865722656,-137.5570068359375 -60.85300064086914,-103.63300323486328 -14.270000457763672,-95.11399841308594 C15.390999794006348,-89.69000244140625 43.23099899291992,-91.94100189208984 54.40700149536133,-76.947998046875 C54.40700149536133,-76.947998046875 56.73699951171875,-83.54299926757812 52.59199905395508,-95.84700012207031 C52.59199905395508,-95.84700012207031 73.22200012207031,-68.68099975585938 73.22200012207031,-68.68099975585938 C73.22200012207031,-68.68099975585938 77.81300354003906,-75.56600189208984 75.0459976196289,-87.17500305175781 C87.8949966430664,-54.020999908447266 98.37999725341797,-56.54600143432617 102.05899810791016,-11.949999809265137 C102.05899810791016,-11.949999809265137 106.80899810791016,-17.070999145507812 109.72799682617188,-35.638999938964844 C109.72799682617188,-35.638999938964844 120.76000213623047,-28.049999237060547 123.44499969482422,-63.665000915527344 C129.0449981689453,-137.95199584960938 86.34300231933594,-178.29400634765625 33.51100158691406,-192.41099548339844 C-16.284000396728516,-205.7169952392578 -77.64399719238281,-192.48899841308594 -82.20999908447266,-163.7270050048828 C-101.72899627685547,-172.2310028076172 -148.9969940185547,-114.85099792480469 -119.68000030517578,-36.28300094604492 C-119.68000030517578,-36.28300094604492 -115.93000030517578,-31.1299991607666 -112.38700103759766,-21.111000061035156 C-112.38700103759766,-21.111000061035156 -110.09700012207031,-31.136999130249023 -110.13400268554688,-45.5369987487793 C-110.13400268554688,-45.5369987487793 -92.43800354003906,-67.0510025024414 -90.63200378417969,-82.98799896240234 C-90.63200378417969,-82.98799896240234 -85.9209976196289,-76.2239990234375 -79.5719985961914,-73.4219970703125 C-79.5719985961914,-73.4219970703125 -79.68599700927734,-81.33200073242188 -77.92900085449219,-93.71700286865234 C-77.92900085449219,-93.71700286865234 -75.30000305175781,-87.82499694824219 -67.74400329589844,-84.87899780273438 C-67.74400329589844,-84.87899780273438 -72.83399963378906,-107.46800231933594 -72.93299865722656,-137.5570068359375z"></path></g><g opacity="1" transform="matrix(1,0,0,1,0,0)"><path stroke-linecap="round" stroke-linejoin="round" fill-opacity="0" stroke="rgb(163,65,0)" stroke-opacity="1" stroke-width="8" d=" M-110.13400268554688,-45.5369987487793 C-110.13400268554688,-45.5369987487793 -92.43800354003906,-67.0510025024414 -90.63200378417969,-82.98799896240234 C-90.63200378417969,-82.98799896240234 -85.9209976196289,-76.2239990234375 -79.5719985961914,-73.4219970703125 C-79.5719985961914,-73.4219970703125 -79.68599700927734,-81.33200073242188 -77.92900085449219,-93.71700286865234 C-77.92900085449219,-93.71700286865234 -75.30000305175781,-87.82499694824219 -67.74400329589844,-84.87899780273438 C-67.74400329589844,-84.87899780273438 -72.83399963378906,-107.46800231933594 -72.93299865722656,-137.5570068359375 C-72.93299865722656,-137.5570068359375 -60.85300064086914,-103.63300323486328 -14.270000457763672,-95.11399841308594 C15.390999794006348,-89.69000244140625 43.23099899291992,-91.94100189208984 54.40700149536133,-76.947998046875 C54.40700149536133,-76.947998046875 56.73699951171875,-83.54299926757812 52.59199905395508,-95.84700012207031 C52.59199905395508,-95.84700012207031 73.22200012207031,-68.68099975585938 73.22200012207031,-68.68099975585938 C73.22200012207031,-68.68099975585938 77.81300354003906,-75.56600189208984 75.0459976196289,-87.17500305175781 C87.8949966430664,-54.020999908447266 98.37999725341797,-56.54600143432617 102.05899810791016,-11.949999809265137"></path></g></g><g style="display: block;" transform="matrix(0.9170734286308289,0,0,0.9170734286308289,181.17330932617188,191.0100555419922)" opacity="1"><g opacity="1" transform="matrix(1,0,0,1,0,0)"><path fill="rgb(163,65,0)" fill-opacity="1" d=" M-56.49300003051758,-13.406999588012695 C-57.9739990234375,-16.09600067138672 -44.426998138427734,-25.19099998474121 -27.8799991607666,-25.542999267578125 C-14.255000114440918,-25.83300018310547 -12.404999732971191,-21.827999114990234 -13.166000366210938,-20.433000564575195 C-13.927000045776367,-19.038000106811523 -22.3799991607666,-22.312999725341797 -37.65599822998047,-19.31999969482422 C-53.24399948120117,-16.266000747680664 -55.768001556396484,-12.090999603271484 -56.49300003051758,-13.406999588012695z"></path><path stroke-linecap="round" stroke-linejoin="round" fill-opacity="0" stroke="rgb(163,65,0)" stroke-opacity="1" stroke-width="2" d=" M-56.49300003051758,-13.406999588012695 C-57.9739990234375,-16.09600067138672 -44.426998138427734,-25.19099998474121 -27.8799991607666,-25.542999267578125 C-14.255000114440918,-25.83300018310547 -12.404999732971191,-21.827999114990234 -13.166000366210938,-20.433000564575195 C-13.927000045776367,-19.038000106811523 -22.3799991607666,-22.312999725341797 -37.65599822998047,-19.31999969482422 C-53.24399948120117,-16.266000747680664 -55.768001556396484,-12.090999603271484 -56.49300003051758,-13.406999588012695z"></path></g><g opacity="1" transform="matrix(1,0,0,1,0,0)"><path fill="rgb(163,65,0)" fill-opacity="1" d=" M102.75800323486328,-13.406999588012695 C104.23899841308594,-16.09600067138672 90.69200134277344,-25.19099998474121 74.1449966430664,-25.542999267578125 C60.52000045776367,-25.83300018310547 58.67100143432617,-21.827999114990234 59.43199920654297,-20.433000564575195 C60.19300079345703,-19.038000106811523 68.6449966430664,-22.312999725341797 83.9209976196289,-19.31999969482422 C99.50900268554688,-16.266000747680664 102.03299713134766,-12.090999603271484 102.75800323486328,-13.406999588012695z"></path><path stroke-linecap="round" stroke-linejoin="round" fill-opacity="0" stroke="rgb(163,65,0)" stroke-opacity="1" stroke-width="2" d=" M102.75800323486328,-13.406999588012695 C104.23899841308594,-16.09600067138672 90.69200134277344,-25.19099998474121 74.1449966430664,-25.542999267578125 C60.52000045776367,-25.83300018310547 58.67100143432617,-21.827999114990234 59.43199920654297,-20.433000564575195 C60.19300079345703,-19.038000106811523 68.6449966430664,-22.312999725341797 83.9209976196289,-19.31999969482422 C99.50900268554688,-16.266000747680664 102.03299713134766,-12.090999603271484 102.75800323486328,-13.406999588012695z"></path></g></g><g style="display: block;" transform="matrix(0.9170734286308289,0,0,0.9170734286308289,181.17349243164062,191.01007080078125)" opacity="1"><g opacity="1" transform="matrix(1,0,0,1,0,0)"><g opacity="1" transform="matrix(1,0,0,1,0,0)"><path fill="rgb(255,255,255)" fill-opacity="1" d=" M0.6740000247955322,26.625 C0.6740000247955322,26.625 -3.882999897003174,-3.5940001010894775 -28.51300048828125,-3.5920000076293945 C-51.49399948120117,-3.5899999141693115 -61.604000091552734,18.281999588012695 -61.604000091552734,24.422000885009766 C-61.604000091552734,24.422000885009766 -52.35599899291992,40.43000030517578 -30.045000076293945,40.40999984741211 C-4.909999847412109,40.38800048828125 0.6740000247955322,26.625 0.6740000247955322,26.625z"></path></g><g opacity="1" transform="matrix(1,0,0,1,0,0)"><g opacity="1" transform="matrix(1,0,0,1,0,0)"><path fill="url(#__lottie_element_27)" fill-opacity="1" d=" M-11.486000061035156,18.409000396728516 C-11.486000061035156,28.7189998626709 -19.882999420166016,37.07699966430664 -30.240999221801758,37.07699966430664 C-40.5989990234375,37.07699966430664 -48.99599838256836,28.7189998626709 -48.99599838256836,18.409000396728516 C-48.99599838256836,8.098999977111816 -40.5989990234375,-0.2590000033378601 -30.240999221801758,-0.2590000033378601 C-19.882999420166016,-0.2590000033378601 -11.486000061035156,8.098999977111816 -11.486000061035156,18.409000396728516z"></path></g><g opacity="1" transform="matrix(1,0,0,1,0,0)"><g opacity="1" transform="matrix(1,0,0,1,0,0)"><path fill="url(#__lottie_element_28)" fill-opacity="1" d=" M-25.246999740600586,36.04100036621094 C-26.66900062561035,36.04100036621094 -27.985000610351562,35.12300109863281 -28.426000595092773,33.69300079345703 C-28.968000411987305,31.937000274658203 -27.983999252319336,30.072999954223633 -26.226999282836914,29.531999588012695 C-22.868000030517578,28.496000289916992 -20.19300079345703,25.885000228881836 -19.072999954223633,22.549999237060547 C-18.488000869750977,20.80699920654297 -16.599000930786133,19.871000289916992 -14.859999656677246,20.454999923706055 C-13.116999626159668,21.040000915527344 -12.178999900817871,22.926000595092773 -12.763999938964844,24.667999267578125 C-14.564000129699707,30.030000686645508 -18.863000869750977,34.22600173950195 -24.266000747680664,35.891998291015625 C-24.593000411987305,35.99300003051758 -24.92300033569336,36.04100036621094 -25.246999740600586,36.04100036621094z"></path></g></g><g opacity="1" transform="matrix(1,0,0,1,0,0)"><path fill="rgb(23,19,10)" fill-opacity="1" d=" M-18.38800048828125,18.409000396728516 C-18.38800048828125,24.924999237060547 -23.69499969482422,30.207000732421875 -30.240999221801758,30.207000732421875 C-36.7869987487793,30.207000732421875 -42.09400177001953,24.924999237060547 -42.09400177001953,18.409000396728516 C-42.09400177001953,11.892999649047852 -36.7869987487793,6.611000061035156 -30.240999221801758,6.611000061035156 C-23.69499969482422,6.611000061035156 -18.38800048828125,11.892999649047852 -18.38800048828125,18.409000396728516z"></path></g></g><g opacity="1" transform="matrix(1,0,0,1,0,0)"><path fill="rgb(163,65,0)" fill-opacity="1" d=" M0.4300000071525574,22.37299919128418 C0.4300000071525574,22.37299919128418 -7.034999847412109,-5.6579999923706055 -31.159000396728516,-5.40500020980835 C-55.28300094604492,-5.1519999504089355 -60.6349983215332,17.613000869750977 -61.604000091552734,24.422000885009766 C-61.604000091552734,24.422000885009766 -57.722999572753906,-2.9679999351501465 -30.23200035095215,-3.2760000228881836 C-7.464000225067139,-3.5309998989105225 0.4300000071525574,22.37299919128418 0.4300000071525574,22.37299919128418z"></path><path stroke-linecap="round" stroke-linejoin="round" fill-opacity="0" stroke="rgb(163,65,0)" stroke-opacity="1" stroke-width="2" d=" M0.4300000071525574,22.37299919128418 C0.4300000071525574,22.37299919128418 -7.034999847412109,-5.6579999923706055 -31.159000396728516,-5.40500020980835 C-55.28300094604492,-5.1519999504089355 -60.6349983215332,17.613000869750977 -61.604000091552734,24.422000885009766 C-61.604000091552734,24.422000885009766 -57.722999572753906,-2.9679999351501465 -30.23200035095215,-3.2760000228881836 C-7.464000225067139,-3.5309998989105225 0.4300000071525574,22.37299919128418 0.4300000071525574,22.37299919128418z"></path></g><g opacity="1" transform="matrix(1,0,0,1,0,0)"><path fill="url(#__lottie_element_29)" fill-opacity="1" d=" M-31.55900001525879,9.156000137329102 C-31.55900001525879,11.633999824523926 -33.45399856567383,13.644000053405762 -35.792999267578125,13.644000053405762 C-38.13199996948242,13.644000053405762 -40.027000427246094,11.633999824523926 -40.027000427246094,9.156000137329102 C-40.027000427246094,6.677999973297119 -38.13199996948242,4.669000148773193 -35.792999267578125,4.669000148773193 C-33.45399856567383,4.669000148773193 -31.55900001525879,6.677999973297119 -31.55900001525879,9.156000137329102z"></path></g></g><g opacity="1" transform="matrix(1,0,0,1,0,0)"><g opacity="1" transform="matrix(1,0,0,1,0,0)"><path fill="rgb(255,255,255)" fill-opacity="1" d=" M49.297000885009766,26.625 C49.297000885009766,26.625 53.85499954223633,-3.5940001010894775 78.48500061035156,-3.5920000076293945 C101.46600341796875,-3.5899999141693115 111.57499694824219,18.281999588012695 111.57499694824219,24.422000885009766 C111.57499694824219,24.422000885009766 102.3280029296875,40.43000030517578 80.01699829101562,40.40999984741211 C54.88199996948242,40.38800048828125 49.297000885009766,26.625 49.297000885009766,26.625z"></path></g><g opacity="1" transform="matrix(1,0,0,1,0,0)"><g opacity="1" transform="matrix(1,0,0,1,0,0)"><path fill="url(#__lottie_element_30)" fill-opacity="1" d=" M98.96800231933594,18.409000396728516 C98.96800231933594,28.7189998626709 90.57099914550781,37.07699966430664 80.21299743652344,37.07699966430664 C69.8550033569336,37.07699966430664 61.45800018310547,28.7189998626709 61.45800018310547,18.409000396728516 C61.45800018310547,8.098999977111816 69.8550033569336,-0.2590000033378601 80.21299743652344,-0.2590000033378601 C90.57099914550781,-0.2590000033378601 98.96800231933594,8.098999977111816 98.96800231933594,18.409000396728516z"></path></g><g opacity="1" transform="matrix(1,0,0,1,0,0)"><g opacity="1" transform="matrix(1,0,0,1,0,0)"><path fill="url(#__lottie_element_31)" fill-opacity="1" d=" M85.25700378417969,36.04100036621094 C83.83499908447266,36.04100036621094 82.51899719238281,35.12300109863281 82.0780029296875,33.69300079345703 C81.53600311279297,31.937000274658203 82.52100372314453,30.072999954223633 84.27799987792969,29.531999588012695 C87.63700103759766,28.496000289916992 90.31099700927734,25.885000228881836 91.43099975585938,22.549999237060547 C92.01599884033203,20.80699920654297 93.90499877929688,19.871000289916992 95.64399719238281,20.454999923706055 C97.38700103759766,21.040000915527344 98.32499694824219,22.926000595092773 97.73999786376953,24.667999267578125 C95.94000244140625,30.030000686645508 91.64199829101562,34.22600173950195 86.23899841308594,35.891998291015625 C85.91200256347656,35.99300003051758 85.58100128173828,36.04100036621094 85.25700378417969,36.04100036621094z"></path></g></g><g opacity="1" transform="matrix(1,0,0,1,0,0)"><path fill="rgb(23,19,10)" fill-opacity="1" d=" M92.06600189208984,18.409000396728516 C92.06600189208984,24.924999237060547 86.75900268554688,30.207000732421875 80.21299743652344,30.207000732421875 C73.66699981689453,30.207000732421875 68.36000061035156,24.924999237060547 68.36000061035156,18.409000396728516 C68.36000061035156,11.892999649047852 73.66699981689453,6.611000061035156 80.21299743652344,6.611000061035156 C86.75900268554688,6.611000061035156 92.06600189208984,11.892999649047852 92.06600189208984,18.409000396728516z"></path></g></g><g opacity="1" transform="matrix(1,0,0,1,0,0)"><path fill="rgb(163,65,0)" fill-opacity="1" d=" M49.54100036621094,22.37299919128418 C49.54100036621094,22.37299919128418 57.00600051879883,-5.6579999923706055 81.12999725341797,-5.40500020980835 C105.25399780273438,-5.1519999504089355 110.60600280761719,17.613000869750977 111.57499694824219,24.422000885009766 C111.57499694824219,24.422000885009766 107.69499969482422,-2.9679999351501465 80.2040023803711,-3.2760000228881836 C57.43600082397461,-3.5309998989105225 49.54100036621094,22.37299919128418 49.54100036621094,22.37299919128418z"></path><path stroke-linecap="round" stroke-linejoin="round" fill-opacity="0" stroke="rgb(163,65,0)" stroke-opacity="1" stroke-width="2" d=" M49.54100036621094,22.37299919128418 C49.54100036621094,22.37299919128418 57.00600051879883,-5.6579999923706055 81.12999725341797,-5.40500020980835 C105.25399780273438,-5.1519999504089355 110.60600280761719,17.613000869750977 111.57499694824219,24.422000885009766 C111.57499694824219,24.422000885009766 107.69499969482422,-2.9679999351501465 80.2040023803711,-3.2760000228881836 C57.43600082397461,-3.5309998989105225 49.54100036621094,22.37299919128418 49.54100036621094,22.37299919128418z"></path></g><g opacity="1" transform="matrix(1,0,0,1,0,0)"><path fill="url(#__lottie_element_32)" fill-opacity="1" d=" M78.8949966430664,9.156000137329102 C78.8949966430664,11.633999824523926 77,13.644000053405762 74.66100311279297,13.644000053405762 C72.3219985961914,13.644000053405762 70.427001953125,11.633999824523926 70.427001953125,9.156000137329102 C70.427001953125,6.677999973297119 72.3219985961914,4.669000148773193 74.66100311279297,4.669000148773193 C77,4.669000148773193 78.8949966430664,6.677999973297119 78.8949966430664,9.156000137329102z"></path></g></g></g><g style="display: block;" transform="matrix(0.6878074407577515,0,0,0.6878074407577515,205.5997314453125,187.69114685058594)" opacity="1"><g opacity="1" transform="matrix(1,0,0,1,0,0)"><path fill="url(#__lottie_element_20)" fill-opacity="1" d=" M39.138999938964844,134.47799682617188 C36.43299865722656,131.96200561523438 32.07500076293945,131.3979949951172 -1.3819999694824219,131.3979949951172 C-34.03300094604492,131.3979949951172 -38.7599983215332,131.96200561523438 -41.90299987792969,134.47799682617188 C-44.38600158691406,136.46600341796875 -43.564998626708984,153.8350067138672 -1.3890000581741333,153.8350067138672 C40.11000061035156,153.8350067138672 41.32099914550781,136.50599670410156 39.138999938964844,134.47799682617188z"></path></g><g opacity="1" transform="matrix(1,0,0,1,0,0)"><path fill="url(#__lottie_element_21)" fill-opacity="0.7000000000000001" d=" M38.880001068115234,140.3470001220703 C37.948001861572266,135.16799926757812 32.07500076293945,136.8730010986328 -1.3819999694824219,136.8730010986328 C-34.03300094604492,136.8730010986328 -40.1510009765625,134.84300231933594 -41.64400100708008,140.3470001220703 C-42.24100112915039,142.54800415039062 -28.93199920654297,158.6320037841797 -1.3890000581741333,158.6320037841797 C25.687000274658203,158.6320037841797 39.29800033569336,142.6699981689453 38.880001068115234,140.3470001220703z"></path></g><g opacity="1" transform="matrix(1,0,0,1,0,0)"><path fill="rgb(136,24,4)" fill-opacity="1" d=" M37.847999572753906,137.9969940185547 C36.301998138427734,135.7209930419922 32.07500076293945,136.08999633789062 -1.3819999694824219,136.08999633789062 C-34.03300094604492,136.08999633789062 -38.880001068115234,135.8000030517578 -40.61199951171875,137.9969940185547 C-42.132999420166016,139.9250030517578 -28.93199920654297,153.8350067138672 -1.3890000581741333,153.8350067138672 C25.687000274658203,153.8350067138672 39.26300048828125,140.08099365234375 37.847999572753906,137.9969940185547z"></path></g><g opacity="1" transform="matrix(1,0,0,1,0,0)"><path fill="url(#__lottie_element_22)" fill-opacity="1" d=" M37.847999572753906,137.9969940185547 C36.301998138427734,135.7209930419922 32.07500076293945,136.08999633789062 -1.3819999694824219,136.08999633789062 C-34.03300094604492,136.08999633789062 -38.880001068115234,135.8000030517578 -40.61199951171875,137.9969940185547 C-42.132999420166016,139.9250030517578 -28.93199920654297,153.8350067138672 -1.3890000581741333,153.8350067138672 C25.687000274658203,153.8350067138672 39.26300048828125,140.08099365234375 37.847999572753906,137.9969940185547z"></path></g><g opacity="1" transform="matrix(1.2294299602508545,0,0,1,0,0)"><path fill="url(#__lottie_element_23)" fill-opacity="0.5" d=" M22.57900047302246,158.6320037841797 C22.57900047302246,163.9499969482422 15.295000076293945,171.6490020751953 -1.3890000581741333,171.6490020751953 C-18.072999954223633,171.6490020751953 -25.357999801635742,163.9499969482422 -25.357999801635742,158.6320037841797 C-25.357999801635742,153.31399536132812 -18.072999954223633,158.6320037841797 -1.3890000581741333,158.6320037841797 C15.295000076293945,158.6320037841797 22.57900047302246,153.31399536132812 22.57900047302246,158.6320037841797z"></path></g></g><g style="display: block;" transform="matrix(1,0,0,1,256,256)" opacity="1"><g opacity="1" transform="matrix(1,0,0,1,0,0)"><path fill="url(#__lottie_element_11)" fill-opacity="1" d=" M69.63800048828125,81.29000091552734 C68.38300323486328,88.28700256347656 68.08499908447266,171.2480010986328 71.1259994506836,216.52499389648438 C71.1259994506836,216.52499389648438 101.7969970703125,216.13400268554688 101.7969970703125,216.13400268554688 C133.06199645996094,216.13400268554688 144.3260040283203,206.67799377441406 144.3260040283203,205.29800415039062 C144.3260040283203,172.61099243164062 137.86700439453125,125.24600219726562 134.76600646972656,93.1510009765625 C133.06100463867188,81.36399841308594 131.7729949951172,74.0459976196289 120.11000061035156,74.0459976196289 C108.7249984741211,78.40299987792969 95.31099700927734,78.04100036621094 79.28900146484375,71.61199951171875 C74.36900329589844,71.61199951171875 70.66200256347656,75.58300018310547 69.63800048828125,81.29000091552734z"></path></g><g opacity="1" transform="matrix(1,0,0,1,0,0)"><path stroke-linecap="round" stroke-linejoin="round" fill-opacity="0" stroke="rgb(190,194,198)" stroke-opacity="1" stroke-width="8" d=" M72.85800170898438,74.81600189208984 C77.72000122070312,83.87899780273438 107.83699798583984,92.88899993896484 130.88400268554688,78.86000061035156"></path></g><g opacity="1" transform="matrix(1,0,0,1,0,0)"><path stroke-linecap="round" stroke-linejoin="round" fill-opacity="0" stroke="rgb(111,115,117)" stroke-opacity="1" stroke-width="8" d=" M140.52699279785156,203.41900634765625 C140.96099853515625,167.30299377441406 138.60299682617188,132.86900329589844 134.76600646972656,93.1510009765625 C133.06100463867188,81.36399841308594 131.7729949951172,74.0459976196289 120.11000061035156,74.0459976196289 C106.69400024414062,78.74700164794922 93.06700134277344,77.39399719238281 79.28900146484375,71.61199951171875 C74.36900329589844,71.61199951171875 70.66200256347656,75.58300018310547 69.63800048828125,81.29000091552734 C68.38300323486328,88.28700256347656 68.00499725341797,166.30499267578125 71.0459976196289,211.58200073242188"></path></g></g><g style="display: block;" transform="matrix(1,0,0,1,255.99998474121094,256)" opacity="1"><g opacity="1" transform="matrix(1,0,0,1,0,0)"><path fill="rgb(255,216,0)" fill-opacity="1" d=" M79.95600128173828,31.429000854492188 C84.91500091552734,19.05500030517578 88.5459976196289,12.291000366210938 106.4739990234375,5.922999858856201 C119.40499877929688,1.3300000429153442 144.39300537109375,-17.48900032043457 145.54800415039062,-2.805000066757202 C146.29800415039062,6.729000091552734 127.1520004272461,14.1899995803833 127.1520004272461,14.1899995803833 C127.1520004272461,14.1899995803833 159.63499450683594,12.814000129699707 179.8090057373047,-0.5789999961853027 C186.63400268554688,-5.734000205993652 194.66700744628906,-4.014999866485596 194.48300170898438,0.9869999885559082 C200.99200439453125,-3.6019999980926514 214.21800231933594,-5.114999771118164 210.2310028076172,7.314000129699707 C217.27000427246094,10.833999633789062 211.72500610351562,17.895000457763672 205.69900512695312,21.006999969482422 C210.2310028076172,23.691999435424805 208.69500732421875,28.589000701904297 204.84100341796875,32.64500045776367 C187.10499572753906,51.310001373291016 144.30999755859375,61.402000427246094 121.87200164794922,60.742000579833984 C123.20099639892578,66.37899780273438 123.63200378417969,73.08000183105469 123.63200378417969,73.08000183105469 C123.63200378417969,73.08000183105469 91.07499694824219,84.97799682617188 82.2760009765625,73.08000183105469 C83.10099792480469,54.03200149536133 75.7760009765625,41.856998443603516 79.95600128173828,31.429000854492188z"></path></g><g opacity="1" transform="matrix(1,0,0,1,0,0)"><g opacity="1" transform="matrix(1,0,0,1,0,0)"><path fill="url(#__lottie_element_6)" fill-opacity="0.8" d=" M210.2310028076172,7.314000129699707 C214.21800231933594,-5.114999771118164 200.99200439453125,-3.6019999980926514 194.48300170898438,0.9869999885559082 C194.66700744628906,-4.014999866485596 186.63299560546875,-5.734000205993652 179.8090057373047,-0.5789999961853027 C159.63499450683594,12.814000129699707 127.1520004272461,14.1899995803833 127.1520004272461,14.1899995803833 C127.1520004272461,14.1899995803833 146.29800415039062,6.729000091552734 145.54800415039062,-2.805000066757202 C144.39300537109375,-17.48900032043457 119.27899932861328,0.9890000224113464 106.4739990234375,5.922999858856201 C104.00800323486328,6.873000144958496 95.4219970703125,17.554000854492188 94.14399719238281,25.700000762939453 C93.66799926757812,28.738000869750977 90.43599700927734,48.57500076293945 103.89600372314453,58.89899826049805 C120.72100067138672,70.85299682617188 147.35499572753906,61.608001708984375 174.1649932861328,51.04499816894531 C194.9239959716797,42.86600112915039 208.5970001220703,27.136999130249023 208.2830047607422,26.951000213623047 C214.3090057373047,23.839000701904297 217.27000427246094,10.833999633789062 210.2310028076172,7.314000129699707z"></path></g></g><g opacity="1" transform="matrix(1,0,0,1,0,0)"><g opacity="1" transform="matrix(1,0,0,1,0,0)"><path fill="url(#__lottie_element_7)" fill-opacity="1" d=" M210.2310028076172,7.314000129699707 C214.21800231933594,-5.114999771118164 200.99200439453125,-3.6019999980926514 194.48300170898438,0.9869999885559082 C194.66700744628906,-4.014999866485596 186.63299560546875,-5.734000205993652 179.8090057373047,-0.5789999961853027 C159.63499450683594,12.814000129699707 127.1520004272461,14.1899995803833 127.1520004272461,14.1899995803833 C127.1520004272461,14.1899995803833 146.29800415039062,6.729000091552734 145.54800415039062,-2.805000066757202 C144.39300537109375,-17.48900032043457 119.40499877929688,1.3300000429153442 106.4739990234375,5.922999858856201 C93.02799987792969,10.699000358581543 83.2959976196289,20.601999282836914 85.63500213623047,29.29400062561035 C86.43399810791016,32.263999938964844 92.4530029296875,40.4010009765625 97.48899841308594,43.678001403808594 C111.52300262451172,54.05099868774414 152.2760009765625,49.395999908447266 171.5229949951172,43.6609992980957 C192.906005859375,37.28900146484375 208.1790008544922,26.417999267578125 207.86500549316406,26.23200035095215 C213.89100646972656,23.1200008392334 217.27000427246094,10.833999633789062 210.2310028076172,7.314000129699707z"></path></g></g><g opacity="1" transform="matrix(1,0,0,1,0,0)"><path stroke-linecap="round" stroke-linejoin="round" fill-opacity="0" stroke="rgb(218,110,0)" stroke-opacity="1" stroke-width="8" d=" M81.40499877929688,31.415000915527344 C83.49400329589844,21.243999481201172 88.95800018310547,12.871000289916992 105.53900146484375,3.5460000038146973 C112.54199981689453,-0.3919999897480011 125.55500030517578,-4.4079999923706055 133.74000549316406,-8.725000381469727 C139.58999633789062,-11.810999870300293 145.06900024414062,-8.892000198364258 145.54800415039062,-2.805000066757202 C146.29800415039062,6.729000091552734 127.71099853515625,8.428000450134277 127.1520004272461,14.1899995803833 C135.17599487304688,13.741000175476074 160.19000244140625,11.5600004196167 179.8090057373047,-0.5789999961853027 C186.63299560546875,-5.734000205993652 194.66700744628906,-4.014999866485596 194.48300170898438,0.9869999885559082 C200.99200439453125,-3.6019999980926514 214.21800231933594,-5.114999771118164 210.2310028076172,7.314000129699707 C217.27000427246094,10.833999633789062 211.72500610351562,17.895000457763672 205.69900512695312,21.006999969482422 C210.2310028076172,23.691999435424805 208.718994140625,29.820999145507812 204.84100341796875,32.64500045776367 C195.8470001220703,39.19499969482422 185.01600646972656,47.25400161743164 171.47799682617188,52.051998138427734 C165.87600708007812,54.03799819946289 143.85299682617188,59.5620002746582 123.25700378417969,60.777000427246094 C124.19300079345703,65.73400115966797 124.85099792480469,72.7030029296875 124.85099792480469,72.7030029296875 C124.85099792480469,72.7030029296875 91.07499694824219,84.97799682617188 82.2760009765625,73.08000183105469 C80.697998046875,57.97800064086914 79.1449966430664,42.41999816894531 81.40499877929688,31.415000915527344z"></path></g><g opacity="0.5" transform="matrix(1,0,0,1,0,0)"><g opacity="1" transform="matrix(1,0,0,1,0,0)"><path stroke-linecap="round" stroke-linejoin="round" fill-opacity="0" stroke="rgb(218,110,0)" stroke-opacity="1" stroke-width="4" d=" M156.9040069580078,18.889999389648438 C156.9040069580078,18.889999389648438 176.2989959716797,16.503999710083008 195.71200561523438,1.1269999742507935"></path></g><g opacity="1" transform="matrix(1,0,0,1,0,0)"><path stroke-linecap="round" stroke-linejoin="round" fill-opacity="0" stroke="rgb(218,110,0)" stroke-opacity="1" stroke-width="4" d=" M164.9340057373047,24.885000228881836 C164.9340057373047,24.885000228881836 182.4499969482422,22.8799991607666 201.86300659179688,7.502999782562256 C201.86300659179688,7.502999782562256 206.87600708007812,4.867000102996826 210.2310028076172,7.314000129699707"></path></g><g opacity="1" transform="matrix(1,0,0,1,0,0)"><path stroke-linecap="round" stroke-linejoin="round" fill-opacity="0" stroke="rgb(218,110,0)" stroke-opacity="1" stroke-width="4" d=" M168.91000366210938,33.71699905395508 C168.91000366210938,33.71699905395508 179.79600524902344,32.39099884033203 196.55499267578125,21.722000122070312 C196.55499267578125,21.722000122070312 201.47300720214844,18.808000564575195 205.69900512695312,21.006999969482422"></path></g></g><g opacity="1" transform="matrix(1,0,0,1,0,0)"><path fill="rgb(96,100,102)" fill-opacity="1" d=" M78.2750015258789,67.05999755859375 C84.82499694824219,76.58100128173828 111.95500183105469,78.89800262451172 125.49600219726562,70.13099670410156 C128.2429962158203,72.50700378417969 130.24099731445312,75.91200256347656 126.75900268554688,77.96099853515625 C108.90299987792969,86.93900299072266 81.56999969482422,82.9540023803711 76.99600219726562,74.60700225830078 C75.23600006103516,71.75399780273438 77.40699768066406,67.80799865722656 78.2750015258789,67.05999755859375z"></path><path stroke-linecap="round" stroke-linejoin="round" fill-opacity="0" stroke="rgb(72,75,76)" stroke-opacity="1" stroke-width="8" d=" M78.2750015258789,67.05999755859375 C84.82499694824219,76.58100128173828 111.95500183105469,78.89800262451172 125.49600219726562,70.13099670410156 C128.2429962158203,72.50700378417969 130.24099731445312,75.91200256347656 126.75900268554688,77.96099853515625 C108.90299987792969,86.93900299072266 81.56999969482422,82.9540023803711 76.99600219726562,74.60700225830078 C75.23600006103516,71.75399780273438 77.40699768066406,67.80799865722656 78.2750015258789,67.05999755859375z"></path></g></g></g></svg>