<svg xmlns="http://www.w3.org/2000/svg" xmlns:xlink="http://www.w3.org/1999/xlink" viewBox="0 0 512 512" width="512" height="512" style="width: 100%; height: 100%; transform: translate3d(0,0,0); content-visibility: visible;" preserveAspectRatio="xMidYMid meet"><defs><clipPath id="__lottie_element_2"><rect width="512" height="512" x="0" y="0"></rect></clipPath><linearGradient id="__lottie_element_6" spreadMethod="pad" gradientUnits="userSpaceOnUse" x1="80.51200103759766" y1="40.75" x2="167.197998046875" y2="25.958999633789062"><stop offset="0%" stop-color="rgb(219,110,0)" stop-opacity="0"></stop><stop offset="42%" stop-color="rgb(219,110,0)" stop-opacity="0.5"></stop><stop offset="100%" stop-color="rgb(219,110,0)" stop-opacity="1"></stop></linearGradient><radialGradient id="__lottie_element_7" spreadMethod="pad" gradientUnits="userSpaceOnUse" cx="142.01199340820312" cy="-43" r="95.63346525107171" fx="142.01199340820312" fy="-43"><stop offset="73%" stop-color="rgb(255,216,0)" stop-opacity="1"></stop><stop offset="96%" stop-color="rgb(255,216,0)" stop-opacity="0.5"></stop><stop offset="100%" stop-color="rgb(255,216,0)" stop-opacity="0"></stop></radialGradient><linearGradient id="__lottie_element_11" spreadMethod="pad" gradientUnits="userSpaceOnUse" x1="142.76199340820312" y1="143" x2="66.68800354003906" y2="145.6529998779297"><stop offset="0%" stop-color="rgb(66,0,72)"></stop><stop offset="26%" stop-color="rgb(107,9,110)"></stop><stop offset="64%" stop-color="rgb(147,18,149)"></stop><stop offset="88%" stop-color="rgb(107,9,110)"></stop><stop offset="100%" stop-color="rgb(66,0,72)"></stop></linearGradient><linearGradient id="__lottie_element_16" spreadMethod="pad" gradientUnits="userSpaceOnUse" x1="21.761999130249023" y1="-63" x2="21.761999130249023" y2="125.70800018310547"><stop offset="0%" stop-color="rgb(255,216,0)" stop-opacity="0"></stop><stop offset="14%" stop-color="rgb(255,216,0)" stop-opacity="0.5"></stop><stop offset="45%" stop-color="rgb(255,216,0)" stop-opacity="1"></stop><stop offset="90%" stop-color="rgb(255,216,0)" stop-opacity="0.5"></stop><stop offset="100%" stop-color="rgb(255,216,0)" stop-opacity="0"></stop></linearGradient><linearGradient id="__lottie_element_17" spreadMethod="pad" gradientUnits="userSpaceOnUse" x1="21.091999053955078" y1="-104.1259994506836" x2="22.709999084472656" y2="5.666999816894531"><stop offset="0%" stop-color="rgb(219,110,0)" stop-opacity="1"></stop><stop offset="38%" stop-color="rgb(219,110,0)" stop-opacity="0.5"></stop><stop offset="70%" stop-color="rgb(219,110,0)" stop-opacity="0"></stop></linearGradient><linearGradient id="__lottie_element_20" spreadMethod="pad" gradientUnits="userSpaceOnUse" x1="31.761999130249023" y1="-94" x2="28.23200035095215" y2="19.55500030517578"><stop offset="14%" stop-color="rgb(255,169,0)" stop-opacity="0"></stop><stop offset="40%" stop-color="rgb(255,169,0)" stop-opacity="0.5"></stop><stop offset="66%" stop-color="rgb(255,169,0)" stop-opacity="1"></stop></linearGradient><linearGradient id="__lottie_element_21" spreadMethod="pad" gradientUnits="userSpaceOnUse" x1="15.76200008392334" y1="40" x2="6.752999782562256" y2="-144.2760009765625"><stop offset="7%" stop-color="rgb(218,110,0)" stop-opacity="0.30000001192092896"></stop><stop offset="28%" stop-color="rgb(218,110,0)" stop-opacity="0.6499999761581421"></stop><stop offset="70%" stop-color="rgb(218,110,0)" stop-opacity="1"></stop><stop offset="80%" stop-color="rgb(218,110,0)" stop-opacity="0.5"></stop><stop offset="100%" stop-color="rgb(218,110,0)" stop-opacity="0"></stop></linearGradient><linearGradient id="__lottie_element_22" spreadMethod="pad" gradientUnits="userSpaceOnUse" x1="-81.23799896240234" y1="-105" x2="-67.69300079345703" y2="-73.41899871826172"><stop offset="0%" stop-color="rgb(255,255,255)" stop-opacity="1"></stop><stop offset="50%" stop-color="rgb(255,255,255)" stop-opacity="0.5"></stop><stop offset="100%" stop-color="rgb(255,255,255)" stop-opacity="0"></stop></linearGradient><linearGradient id="__lottie_element_23" spreadMethod="pad" gradientUnits="userSpaceOnUse" x1="58.762001037597656" y1="-132" x2="48.46099853515625" y2="-64.56999969482422"><stop offset="0%" stop-color="rgb(255,255,255)" stop-opacity="1"></stop><stop offset="50%" stop-color="rgb(255,255,255)" stop-opacity="0.5"></stop><stop offset="100%" stop-color="rgb(255,255,255)" stop-opacity="0"></stop></linearGradient><linearGradient id="__lottie_element_30" spreadMethod="pad" gradientUnits="userSpaceOnUse" x1="0.13699999451637268" y1="-51.25" x2="14.734999656677246" y2="-28.141000747680664"><stop offset="0%" stop-color="rgb(66,0,0)"></stop><stop offset="37%" stop-color="rgb(118,40,0)"></stop><stop offset="100%" stop-color="rgb(170,80,0)"></stop></linearGradient><radialGradient id="__lottie_element_31" spreadMethod="pad" gradientUnits="userSpaceOnUse" cx="12.76200008392334" cy="-32" r="9.497000694274902" fx="12.76200008392334" fy="-32"><stop offset="0%" stop-color="rgb(246,175,0)" stop-opacity="1"></stop><stop offset="50%" stop-color="rgb(246,175,0)" stop-opacity="0.5"></stop><stop offset="100%" stop-color="rgb(246,175,0)" stop-opacity="0"></stop></radialGradient><linearGradient id="__lottie_element_32" spreadMethod="pad" gradientUnits="userSpaceOnUse" x1="-1.2380000352859497" y1="-55" x2="-1.0160000324249268" y2="-48.02000045776367"><stop offset="0%" stop-color="rgb(255,255,255)" stop-opacity="1"></stop><stop offset="60%" stop-color="rgb(255,255,255)" stop-opacity="0.5"></stop><stop offset="100%" stop-color="rgb(255,255,255)" stop-opacity="0"></stop></linearGradient><linearGradient id="__lottie_element_33" spreadMethod="pad" gradientUnits="userSpaceOnUse" x1="-109.36299896240234" y1="-51.25" x2="-94.26499938964844" y2="-28.141000747680664"><stop offset="0%" stop-color="rgb(66,0,0)"></stop><stop offset="37%" stop-color="rgb(118,40,0)"></stop><stop offset="100%" stop-color="rgb(170,80,0)"></stop></linearGradient><radialGradient id="__lottie_element_34" spreadMethod="pad" gradientUnits="userSpaceOnUse" cx="-97.23799896240234" cy="-32" r="9.497001647949219" fx="-97.23799896240234" fy="-32"><stop offset="0%" stop-color="rgb(246,175,0)" stop-opacity="1"></stop><stop offset="50%" stop-color="rgb(246,175,0)" stop-opacity="0.5"></stop><stop offset="100%" stop-color="rgb(246,175,0)" stop-opacity="0"></stop></radialGradient><linearGradient id="__lottie_element_35" spreadMethod="pad" gradientUnits="userSpaceOnUse" x1="-110.36299896240234" y1="-55.0620002746582" x2="-110.0250015258789" y2="-48.31399917602539"><stop offset="0%" stop-color="rgb(255,255,255)" stop-opacity="1"></stop><stop offset="60%" stop-color="rgb(255,255,255)" stop-opacity="0.5"></stop><stop offset="100%" stop-color="rgb(255,255,255)" stop-opacity="0"></stop></linearGradient><linearGradient id="__lottie_element_39" spreadMethod="pad" gradientUnits="userSpaceOnUse" x1="23.761999130249023" y1="73.625" x2="24.136999130249023" y2="93.21399688720703"><stop offset="0%" stop-color="rgb(255,168,0)" stop-opacity="1"></stop><stop offset="66%" stop-color="rgb(255,168,0)" stop-opacity="0.5"></stop><stop offset="100%" stop-color="rgb(255,168,0)" stop-opacity="0"></stop></linearGradient><linearGradient id="__lottie_element_40" spreadMethod="pad" gradientUnits="userSpaceOnUse" x1="23.886999130249023" y1="84" x2="23.761999130249023" y2="66.55699920654297"><stop offset="10%" stop-color="rgb(219,110,0)" stop-opacity="1"></stop><stop offset="49%" stop-color="rgb(219,110,0)" stop-opacity="0.5"></stop><stop offset="77%" stop-color="rgb(219,110,0)" stop-opacity="0"></stop></linearGradient><radialGradient id="__lottie_element_41" spreadMethod="pad" gradientUnits="userSpaceOnUse" cx="23.761999130249023" cy="63" r="17.660001754760742" fx="23.761999130249023" fy="63"><stop offset="40%" stop-color="rgb(255,168,0)" stop-opacity="0"></stop><stop offset="70%" stop-color="rgb(255,168,0)" stop-opacity="0.5"></stop><stop offset="100%" stop-color="rgb(255,168,0)" stop-opacity="1"></stop></radialGradient><linearGradient id="__lottie_element_42" spreadMethod="pad" gradientUnits="userSpaceOnUse" x1="23.761999130249023" y1="62" x2="23.761999130249023" y2="70.49299621582031"><stop offset="0%" stop-color="rgb(255,255,255)" stop-opacity="1"></stop><stop offset="50%" stop-color="rgb(255,255,255)" stop-opacity="0.5"></stop><stop offset="100%" stop-color="rgb(255,255,255)" stop-opacity="0"></stop></linearGradient><radialGradient id="__lottie_element_46" spreadMethod="pad" gradientUnits="userSpaceOnUse" cx="-51.237998962402344" cy="40" r="41.257999420166016" fx="-51.237998962402344" fy="40"><stop offset="8%" stop-color="rgb(117,55,14)" stop-opacity="1"></stop><stop offset="54%" stop-color="rgb(117,55,14)" stop-opacity="0.5"></stop><stop offset="100%" stop-color="rgb(117,55,14)" stop-opacity="0"></stop></radialGradient><linearGradient id="__lottie_element_47" spreadMethod="pad" gradientUnits="userSpaceOnUse" x1="-69.86299896240234" y1="35" x2="-30.635000228881836" y2="34.474998474121094"><stop offset="0%" stop-color="rgb(198,196,196)"></stop><stop offset="8%" stop-color="rgb(226,225,225)"></stop><stop offset="50%" stop-color="rgb(255,255,255)"></stop><stop offset="93%" stop-color="rgb(226,225,225)"></stop><stop offset="100%" stop-color="rgb(198,196,196)"></stop></linearGradient><radialGradient id="__lottie_element_51" spreadMethod="pad" gradientUnits="userSpaceOnUse" cx="-50.987998962402344" cy="121" r="48.708773332648605" fx="-50.987998962402344" fy="121"><stop offset="20%" stop-color="rgb(255,168,0)" stop-opacity="1"></stop><stop offset="66%" stop-color="rgb(255,168,0)" stop-opacity="0.5"></stop><stop offset="100%" stop-color="rgb(255,168,0)" stop-opacity="0"></stop></radialGradient><radialGradient id="__lottie_element_55" spreadMethod="pad" gradientUnits="userSpaceOnUse" cx="-85.73799896240234" cy="186" r="164.41200256347656" fx="-85.73799896240234" fy="186"><stop offset="17%" stop-color="rgb(147,18,149)"></stop><stop offset="83%" stop-color="rgb(107,9,110)"></stop><stop offset="100%" stop-color="rgb(66,0,72)"></stop></radialGradient><linearGradient id="__lottie_element_56" spreadMethod="pad" gradientUnits="userSpaceOnUse" x1="11.01200008392334" y1="145.25" x2="146.47000122070312" y2="136.41299438476562"><stop offset="0%" stop-color="rgb(66,0,72)" stop-opacity="0"></stop><stop offset="60%" stop-color="rgb(66,0,72)" stop-opacity="0.5"></stop><stop offset="100%" stop-color="rgb(66,0,72)" stop-opacity="1"></stop></linearGradient><linearGradient id="__lottie_element_57" spreadMethod="pad" gradientUnits="userSpaceOnUse" x1="-70.23799896240234" y1="58" x2="-59.67300033569336" y2="139.43499755859375"><stop offset="0%" stop-color="rgb(255,255,255)" stop-opacity="1"></stop><stop offset="50%" stop-color="rgb(255,255,255)" stop-opacity="0.5"></stop><stop offset="100%" stop-color="rgb(255,255,255)" stop-opacity="0"></stop></linearGradient><radialGradient id="__lottie_element_58" spreadMethod="pad" gradientUnits="userSpaceOnUse" cx="-151.23800659179688" cy="215" r="35.3139769028135" fx="-151.23800659179688" fy="215"><stop offset="0%" stop-color="rgb(66,0,72)" stop-opacity="1"></stop><stop offset="50%" stop-color="rgb(66,0,72)" stop-opacity="0.5"></stop><stop offset="100%" stop-color="rgb(66,0,72)" stop-opacity="0"></stop></radialGradient><radialGradient id="__lottie_element_59" spreadMethod="pad" gradientUnits="userSpaceOnUse" cx="-52.237998962402344" cy="58" r="90.3596674570242" fx="-52.237998962402344" fy="58"><stop offset="0%" stop-color="rgb(66,0,72)" stop-opacity="1"></stop><stop offset="50%" stop-color="rgb(66,0,72)" stop-opacity="0.5"></stop><stop offset="100%" stop-color="rgb(66,0,72)" stop-opacity="0"></stop></radialGradient><radialGradient id="__lottie_element_63" spreadMethod="pad" gradientUnits="userSpaceOnUse" cx="-109.23799896240234" cy="129" r="83.45608316672758" fx="-109.23799896240234" fy="129"><stop offset="0%" stop-color="rgb(255,169,0)" stop-opacity="1"></stop><stop offset="50%" stop-color="rgb(255,169,0)" stop-opacity="0.5"></stop><stop offset="100%" stop-color="rgb(255,169,0)" stop-opacity="0"></stop></radialGradient><radialGradient id="__lottie_element_64" spreadMethod="pad" gradientUnits="userSpaceOnUse" cx="163.76199340820312" cy="126.75" r="81.33188698998822" fx="163.76199340820312" fy="126.75"><stop offset="0%" stop-color="rgb(255,169,0)" stop-opacity="1"></stop><stop offset="50%" stop-color="rgb(255,169,0)" stop-opacity="0.5"></stop><stop offset="100%" stop-color="rgb(255,169,0)" stop-opacity="0"></stop></radialGradient></defs><g clip-path="url(#__lottie_element_2)"><g style="display: block;" transform="matrix(0.9599999785423279,0,0,0.9599999785423279,180.19271850585938,189.9059600830078)" opacity="1"><g opacity="1" transform="matrix(1,0,0,1,0,0)"><path fill="rgb(159,84,2)" fill-opacity="1" d=" M137.64999389648438,-68.46800231933594 C101.04299926757812,-125.83000183105469 24.545000076293945,-124.3270034790039 24.545000076293945,-124.3270034790039 C24.545000076293945,-124.3270034790039 -51.95399856567383,-125.83000183105469 -88.56099700927734,-68.46800231933594 C-125.16699981689453,-11.107000350952148 -142.82000732421875,96.78399658203125 -134.46299743652344,136.32400512695312 C-126.97599792480469,171.74899291992188 -23.076000213623047,169.15199279785156 24.545000076293945,169.15199279785156 C72.16600036621094,169.15199279785156 192.11000061035156,164.04299926757812 190.83599853515625,136.34100341796875 C187.6580047607422,67.21299743652344 174.25599670410156,-11.107000350952148 137.64999389648438,-68.46800231933594z"></path></g><g opacity="1" transform="matrix(1,0,0,1,0,0)"><path fill="url(#__lottie_element_63)" fill-opacity="1" d=" M-36.465999603271484,168.89500427246094 C-50.10100173950195,167.3800048828125 -61.76100158691406,164.5500030517578 -71.28700256347656,163.4720001220703 C-126.95099639892578,157.1719970703125 -131.6929931640625,146.7469940185547 -135.91400146484375,127.41100311279297 C-137.82200622558594,118.6449966430664 -139.34300231933594,107.56900024414062 -139.47000122070312,94.77899932861328 C-135.98899841308594,70.3550033569336 -123.88099670410156,10.682999610900879 -90.91100311279297,25.820999145507812 C-66.52200317382812,37.00400161743164 -67.93299865722656,58.98699951171875 -29.573999404907227,101.12799835205078 C4.1020002365112305,138.1219940185547 -8.098999977111816,168.62899780273438 -36.465999603271484,168.89500427246094z"></path></g><g opacity="1" transform="matrix(1,0,0,1,0,0)"><path fill="url(#__lottie_element_64)" fill-opacity="1" d=" M91.0739974975586,168.89500427246094 C104.70800018310547,167.3800048828125 116.36900329589844,164.5500030517578 125.8949966430664,163.4720001220703 C181.5590057373047,157.1719970703125 187.35400390625,146.76300048828125 191.5749969482422,127.427001953125 C193.48300170898438,118.66100311279297 191.55999755859375,107.56900024414062 191.68699645996094,94.77899932861328 C188.20599365234375,70.3550033569336 178.48899841308594,10.682999610900879 145.5189971923828,25.820999145507812 C121.12999725341797,37.00400161743164 122.54100036621094,58.98699951171875 84.18199920654297,101.12799835205078 C50.50699996948242,138.1219940185547 62.707000732421875,168.62899780273438 91.0739974975586,168.89500427246094z"></path></g><g opacity="1" transform="matrix(1,0,0,1,0,0)"><path stroke-linecap="round" stroke-linejoin="round" fill-opacity="0" stroke="rgb(163,65,0)" stroke-opacity="1" stroke-width="8" d=" M137.64999389648438,-68.46800231933594 C101.04299926757812,-125.83000183105469 -49.38100051879883,-124.10399627685547 -88.56099700927734,-68.46800231933594 C-132.7989959716797,-5.650000095367432 -143.08999633789062,96.84200286865234 -134.46299743652344,136.32400512695312 C-131.552001953125,149.64700317382812 -115.58100128173828,155.46200561523438 -90.08300018310547,161.17100524902344 C-42.56100082397461,171.81199645996094 97.89099884033203,171.81199645996094 145.4029998779297,161.17100524902344 C168.45799255371094,156.00799560546875 190.20399475097656,149.96400451660156 190.83599853515625,136.34100341796875 C194.04299926757812,67.21399688720703 174.25599670410156,-11.107000350952148 137.64999389648438,-68.46800231933594z"></path></g></g><g style="display: block;" transform="matrix(1,0,0,1,256,256)" opacity="1"><g opacity="1" transform="matrix(1,0,0,1,0,0)"><g opacity="1" transform="matrix(1,0,0,1,0,0)"><path fill="url(#__lottie_element_55)" fill-opacity="1" d=" M78.58000183105469,216.5189971923828 C78.58000183105469,216.5189971923828 -186.05799865722656,216.5189971923828 -186.05799865722656,216.5189971923828 C-199.39599609375,216.3800048828125 -212.4409942626953,215.0330047607422 -218.06500244140625,207.7519989013672 C-218.06500244140625,207.7519989013672 -204.20700073242188,144.79600524902344 -204.20700073242188,144.79600524902344 C-201.56199645996094,124.93299865722656 -192.13499450683594,112.01599884033203 -176.9010009765625,105.0459976196289 C-176.9010009765625,105.0459976196289 -96.6729965209961,74.24299621582031 -96.6729965209961,74.24299621582031 C-96.6729965209961,74.24299621582031 -95.49299621582031,103.11599731445312 -50.404998779296875,102.46399688720703 C-9.625,101.875 -1.6670000553131104,77.28199768066406 -1.6670000553131104,77.28199768066406 C-1.6670000553131104,77.28199768066406 69.83599853515625,103.05599975585938 69.83599853515625,103.05599975585938 C88.96099853515625,108.89600372314453 103.09700012207031,123.40599822998047 106.43900299072266,141.7480010986328 C106.43900299072266,141.7480010986328 118.50599670410156,210.79200744628906 118.50599670410156,210.79200744628906 C104.86499786376953,215.8990020751953 91.39700317382812,216.5240020751953 78.58000183105469,216.5189971923828z"></path></g><g opacity="1" transform="matrix(1,0,0,1,0,0)"><path fill="url(#__lottie_element_56)" fill-opacity="1" d=" M12.710000038146973,216.5189971923828 C16.85099983215332,216.61399841308594 88.39099884033203,217.9219970703125 118.61599731445312,212.91400146484375 C118.61599731445312,212.91400146484375 107.5530014038086,145.718994140625 107.5530014038086,145.718994140625 C101.6449966430664,123.48500061035156 90.01599884033203,109.41500091552734 73.35199737548828,102.53099822998047 C73.35199737548828,102.53099822998047 5.644999980926514,76.66600036621094 5.644999980926514,76.66600036621094 C5.644999980926514,76.66600036621094 12.710000038146973,216.5189971923828 12.710000038146973,216.5189971923828z"></path></g><g opacity="1" transform="matrix(1,0,0,1,0,0)"><path fill="url(#__lottie_element_57)" fill-opacity="0.2" d=" M96.7020034790039,194.63099670410156 C96.7020034790039,194.63099670410156 90.197998046875,165.13499450683594 90.18299865722656,165.0489959716797 C85.33000183105469,138.1060028076172 76.072998046875,117.96299743652344 58.14699935913086,109.98500061035156 C58.14699935913086,109.98500061035156 -7.218999862670898,88.30899810791016 -7.218999862670898,88.30899810791016 C-7.218999862670898,88.30899810791016 -97.71199798583984,88.32499694824219 -97.71199798583984,88.32499694824219 C-97.71199798583984,88.32499694824219 -167,114.27100372314453 -167,114.27100372314453 C-185.45899963378906,123.19499969482422 -190.9720001220703,138.10499572753906 -195.8249969482422,165.0489959716797 C-195.83999633789062,165.13499450683594 -201.27200317382812,194.63099670410156 -201.27200317382812,194.63099670410156 C-201.91400146484375,197.54200744628906 -212.2989959716797,194.5679931640625 -211.65699768066406,191.65699768066406 C-211.65699768066406,191.65699768066406 -205.2169952392578,162.45899963378906 -205.2169952392578,162.45899963378906 C-199.66000366210938,131.7550048828125 -195.9149932861328,116.11900329589844 -169.8820037841797,103.95700073242188 C-169.84500122070312,103.94000244140625 -99.76499938964844,77.65499877929688 -99.76499938964844,77.65499877929688 C-99.3280029296875,77.46800231933594 -5.61299991607666,76.37899780273438 -5.177000045776367,76.56400299072266 C-5.177000045776367,76.56400299072266 60.98699951171875,99.6510009765625 61.0260009765625,99.66899871826172 C87.05799865722656,111.83100128173828 95.08999633789062,131.75599670410156 100.64700317382812,162.45899963378906 C100.64700317382812,162.45899963378906 107.08699798583984,191.65699768066406 107.08699798583984,191.65699768066406 C107.72899627685547,194.5679931640625 97.23400115966797,197.0449981689453 96.7020034790039,194.63099670410156z"></path></g></g><g opacity="1" transform="matrix(1,0,0,1,0,0)"><path stroke-linecap="round" stroke-linejoin="round" fill-opacity="0" stroke="rgb(82,1,86)" stroke-opacity="1" stroke-width="8" d=" M-213.7779998779297,206.68099975585938 C-213.7779998779297,206.68099975585938 -204.20700073242188,144.79600524902344 -204.20700073242188,144.79600524902344 C-198.70700073242188,120.16000366210938 -186.38800048828125,107.4010009765625 -161.29400634765625,97.94200134277344 C-161.29400634765625,97.94200134277344 -96.6729965209961,74.24299621582031 -96.6729965209961,74.24299621582031"></path></g><g opacity="1" transform="matrix(1,0,0,1.4518400430679321,0,-97.93634033203125)"><path fill="url(#__lottie_element_58)" fill-opacity="0.6" d=" M-120.70999908447266,216.5189971923828 C-120.70999908447266,216.5189971923828 -180.4759979248047,216.5189971923828 -180.4759979248047,216.5189971923828 C-180.4759979248047,199.19700622558594 -174.572998046875,174.56199645996094 -151.00100708007812,174.56199645996094 C-128.68499755859375,174.56199645996094 -119.81300354003906,212.03799438476562 -120.70999908447266,216.5189971923828z"></path></g><g opacity="1" transform="matrix(1,0,0,1,0,0)"><path stroke-linecap="round" stroke-linejoin="round" fill-opacity="0" stroke="rgb(82,1,86)" stroke-opacity="0.6" stroke-width="8" d=" M-150.91099548339844,191.4340057373047 C-150.91099548339844,191.4340057373047 -150.91099548339844,212.13800048828125 -150.91099548339844,212.13800048828125"></path></g><g opacity="1" transform="matrix(1,0,0,1,0,0)"><path stroke-linecap="round" stroke-linejoin="round" fill-opacity="0" stroke="rgb(44,0,48)" stroke-opacity="1" stroke-width="8" d=" M114.51599884033203,207.7519989013672 C114.51599884033203,207.7519989013672 103.87300109863281,144.79600524902344 103.87300109863281,144.79600524902344 C98.37300109863281,120.16000366210938 86.05500030517578,107.4010009765625 60.96099853515625,97.94200134277344 C60.96099853515625,97.94200134277344 -4.160999774932861,74.61799621582031 -4.160999774932861,74.61799621582031"></path></g><g opacity="1" transform="matrix(1,0,0,1,0,0)"><path fill="url(#__lottie_element_59)" fill-opacity="1" d=" M21.198999404907227,84.53700256347656 C27.75,114.5 -2.806999921798706,149.45700073242188 -52.643001556396484,151.468994140625 C-105.91400146484375,153.6199951171875 -134.16900634765625,102.70500183105469 -124.0719985961914,84.59100341796875 C-120.46499633789062,80.14299774169922 -91.24199676513672,70.2239990234375 -51.845001220703125,70.2239990234375 C-12.447999954223633,70.2239990234375 18.03499984741211,79.71900177001953 21.198999404907227,84.53700256347656z"></path></g><g opacity="1" transform="matrix(1,0,0,1,0,0)"><path stroke-linecap="round" stroke-linejoin="round" fill-opacity="0" stroke="rgb(147,18,149)" stroke-opacity="0.3" stroke-width="8" d=" M-4.934999942779541,79.22799682617188 C2.25,89.7959976196289 -25.716999053955078,105.31199645996094 -52.24599838256836,105.31199645996094 C-78.7750015258789,105.31199645996094 -104.85299682617188,89.36100006103516 -97.88700103759766,79.51799774169922 C-95.70700073242188,76.43800354003906 -78.81400299072266,74.27999877929688 -52.28499984741211,74.27999877929688 C-25.756000518798828,74.27999877929688 -7.065999984741211,76.09400177001953 -4.934999942779541,79.22799682617188z"></path></g></g><g style="display: block;" transform="matrix(1,0,0,1,256,256)" opacity="1"><g opacity="1" transform="matrix(1,0,0,1,0,0)"><path fill="rgb(181,102,6)" fill-opacity="1" d=" M-4.794000148773193,75.1449966430664 C2.259999990463257,85.65499877929688 -25.197999954223633,101.08499908447266 -51.24599838256836,101.08499908447266 C-77.29399871826172,101.08499908447266 -105.9489974975586,85.65399932861328 -96.70800018310547,75.16200256347656 C-94.23600006103516,72.35600280761719 -77.33300018310547,70.2239990234375 -51.28499984741211,70.2239990234375 C-25.23699951171875,70.2239990234375 -6.886000156402588,72.02799987792969 -4.794000148773193,75.1449966430664z"></path><path stroke-linecap="round" stroke-linejoin="round" fill-opacity="0" stroke="rgb(44,0,48)" stroke-opacity="1" stroke-width="8" d=" M-4.794000148773193,75.1449966430664 C2.259999990463257,85.65499877929688 -25.197999954223633,101.08499908447266 -51.24599838256836,101.08499908447266 C-77.29399871826172,101.08499908447266 -105.9489974975586,85.65399932861328 -96.70800018310547,75.16200256347656 C-94.23600006103516,72.35600280761719 -77.33300018310547,70.2239990234375 -51.28499984741211,70.2239990234375 C-25.23699951171875,70.2239990234375 -6.886000156402588,72.02799987792969 -4.794000148773193,75.1449966430664z"></path></g><g opacity="1" transform="matrix(1,0,0,1,0,0)"><g opacity="1" transform="matrix(1,0,0,1,0,0)"><path fill="rgb(181,102,6)" fill-opacity="1" d=" M-89.70600128173828,77.74600219726562 C-89.70600128173828,77.74600219726562 -86.9469985961914,59.28799819946289 -86.9469985961914,59.28799819946289 C-86.9469985961914,59.28799819946289 -15.982999801635742,59.28799819946289 -15.982999801635742,59.28799819946289 C-15.982999801635742,59.28799819946289 -12.642999649047852,77.74600219726562 -12.642999649047852,77.74600219726562"></path><path stroke-linecap="round" stroke-linejoin="round" fill-opacity="0" stroke="rgb(153,71,4)" stroke-opacity="1" stroke-width="8" d=" M-89.70600128173828,77.74600219726562 C-89.70600128173828,77.74600219726562 -86.9469985961914,59.28799819946289 -86.9469985961914,59.28799819946289 C-86.9469985961914,59.28799819946289 -15.982999801635742,59.28799819946289 -15.982999801635742,59.28799819946289 C-15.982999801635742,59.28799819946289 -12.642999649047852,77.74600219726562 -12.642999649047852,77.74600219726562"></path></g><g opacity="1" transform="matrix(1,0,0,1,0,0)"><path fill="url(#__lottie_element_51)" fill-opacity="1" d=" M-87.0790023803711,63.073001861572266 C-87.0790023803711,63.073001861572266 -92.7969970703125,81.01399993896484 -92.7969970703125,81.01399993896484 C-74.35399627685547,102.97599792480469 -28.9689998626709,102.57099914550781 -10.503000259399414,81.5250015258789 C-10.503000259399414,81.5250015258789 -15.663999557495117,60.00699996948242 -15.663999557495117,60.00699996948242 C-15.663999557495117,60.00699996948242 -87.0790023803711,63.073001861572266 -87.0790023803711,63.073001861572266z"></path></g></g></g><g style="display: block;" transform="matrix(0.9599999785423279,0,0,0.9599999785423279,182.2144775390625,189.9059600830078)" opacity="1"><g opacity="1" transform="matrix(1,0,0,1,0,0)"><path fill="rgb(255,168,0)" fill-opacity="1" d=" M113.18699645996094,-80.4020004272461 C92.43599700927734,-109.22200012207031 65.11299896240234,-126.16999816894531 24.035999298095703,-126.16999816894531 C-17.040000915527344,-126.16999816894531 -44.36399841308594,-109.22200012207031 -65.11399841308594,-80.4020004272461 C-85.86499786376953,-51.582000732421875 -103.15699768066406,15.625 -76.06600189208984,72.11299896240234 C-48.974998474121094,128.6009979248047 -3.2070000171661377,146.46800231933594 24.035999298095703,146.46800231933594 C51.27899932861328,146.46800231933594 97.0479965209961,128.6009979248047 124.13899993896484,72.11299896240234 C151.22999572753906,15.625 133.93699645996094,-51.582000732421875 113.18699645996094,-80.4020004272461z"></path></g><g opacity="1" transform="matrix(1,0,0,1,0,0)"><path fill="url(#__lottie_element_16)" fill-opacity="1" d=" M104.23600006103516,0.6880000233650208 C104.23600006103516,0.6880000233650208 64.30000305175781,-12.215999603271484 39.8129997253418,-24.131000518798828 C9.538999557495117,-38.86199951171875 -14.163999557495117,-56.3380012512207 -27.305999755859375,-66.95999908447266 C-27.305999755859375,-66.95999908447266 -37.70000076293945,-36.0260009765625 -54.41899871826172,-18.239999771118164 C-80.79900360107422,9.822999954223633 -78.52300262451172,43.02000045776367 -56.470001220703125,79.63200378417969 C-34.41699981689453,116.24400329589844 1.8589999675750732,128.80599975585938 24.035999298095703,128.80599975585938 C46.2130012512207,128.80599975585938 82.48899841308594,116.24400329589844 104.54199981689453,79.63200378417969 C126.59500122070312,43.02000045776367 121.12699890136719,19.368000030517578 104.23600006103516,0.6880000233650208z"></path></g><g opacity="1" transform="matrix(1,0,0,1,0,0)"><path fill="url(#__lottie_element_17)" fill-opacity="1" d=" M113.33699798583984,-80.4020004272461 C92.58599853515625,-109.22200012207031 65.26399993896484,-126.16999816894531 24.187000274658203,-126.16999816894531 C-16.888999938964844,-126.16999816894531 -44.2130012512207,-109.22200012207031 -64.96299743652344,-80.4020004272461 C-85.71399688720703,-51.582000732421875 -103.00599670410156,15.625 -75.91500091552734,72.11299896240234 C-48.82400131225586,128.6009979248047 -3.055999994277954,146.46800231933594 24.187000274658203,146.46800231933594 C51.43000030517578,146.46800231933594 97.197998046875,128.6009979248047 124.28900146484375,72.11299896240234 C151.3800048828125,15.625 134.08700561523438,-51.582000732421875 113.33699798583984,-80.4020004272461z"></path></g><g opacity="1" transform="matrix(1,0,0,1,0,0)"><path stroke-linecap="round" stroke-linejoin="round" fill-opacity="0" stroke="rgb(219,110,0)" stroke-opacity="1" stroke-width="8" d=" M113.18699645996094,-80.4020004272461 C92.43599700927734,-109.22200012207031 65.11299896240234,-126.16999816894531 24.035999298095703,-126.16999816894531 C-17.040000915527344,-126.16999816894531 -44.36399841308594,-109.22200012207031 -65.11399841308594,-80.4020004272461 C-85.86499786376953,-51.582000732421875 -103.15699768066406,15.625 -76.06600189208984,72.11299896240234 C-48.974998474121094,128.6009979248047 -3.2070000171661377,146.46800231933594 24.035999298095703,146.46800231933594 C51.27899932861328,146.46800231933594 97.0479965209961,128.6009979248047 124.13899993896484,72.11299896240234 C151.22999572753906,15.625 133.93699645996094,-51.582000732421875 113.18699645996094,-80.4020004272461z"></path></g></g><g style="display: block;" transform="matrix(1.0105247497558594,0,0,1.0105247497558594,256.5329895019531,253.05628967285156)" opacity="1"><g opacity="1" transform="matrix(1,0,0,1,0,0)"><path fill="rgb(75,37,2)" fill-opacity="1" d=" M-11.496999740600586,29.408000946044922 C-10.444000244140625,26.378000259399414 -28.847999572753906,27.360000610351562 -39.59299850463867,25.97100067138672 C-48.54499816894531,24.81399917602539 -49.23899841308594,27.927000045776367 -51.064998626708984,27.933000564575195 C-53.34700012207031,27.94099998474121 -53.595001220703125,24.908000946044922 -62.59199905395508,25.951000213623047 C-72.66600036621094,27.118999481201172 -91.94300079345703,26.839000701904297 -90.63500213623047,29.408000946044922 C-87.80400085449219,34.96900177001953 -74.83599853515625,53.04100036621094 -51.066001892089844,53.04100036621094 C-26.20199966430664,53.04100036621094 -13.093000411987305,33.999000549316406 -11.496999740600586,29.408000946044922z"></path></g><g opacity="1" transform="matrix(1,0,0,1,0,0)"><path fill="url(#__lottie_element_46)" fill-opacity="1" d=" M-11.496999740600586,29.408000946044922 C-10.444000244140625,26.378000259399414 -28.847999572753906,27.360000610351562 -39.59299850463867,25.97100067138672 C-48.54499816894531,24.81399917602539 -49.23899841308594,27.927000045776367 -51.064998626708984,27.933000564575195 C-53.34700012207031,27.94099998474121 -53.595001220703125,24.908000946044922 -62.59199905395508,25.951000213623047 C-72.66600036621094,27.118999481201172 -91.94300079345703,26.839000701904297 -90.63500213623047,29.408000946044922 C-87.80400085449219,34.96900177001953 -74.83599853515625,53.04100036621094 -51.066001892089844,53.04100036621094 C-26.20199966430664,53.04100036621094 -13.093000411987305,33.999000549316406 -11.496999740600586,29.408000946044922z"></path></g><g opacity="1" transform="matrix(1,0,0,1,0,0)"><path fill="rgb(23,19,11)" fill-opacity="1" d=" M-83.94599914550781,30.97599983215332 C-61.93000030517578,33.13100051879883 -39.742000579833984,33.0989990234375 -17.388999938964844,30.97599983215332 C-17.388999938964844,30.97599983215332 -25.35700035095215,45.047000885009766 -51.16699981689453,45.047000885009766 C-76.36599731445312,45.047000885009766 -83.94599914550781,30.97599983215332 -83.94599914550781,30.97599983215332z"></path></g><g opacity="1" transform="matrix(1,0,0,1,0,0)"><path fill="url(#__lottie_element_47)" fill-opacity="1" d=" M-79.85600280761719,31.405000686645508 C-60.694000244140625,32.75299835205078 -41.11899948120117,32.66600036621094 -21.20800018310547,31.405000686645508 C-21.20800018310547,31.405000686645508 -28.11400032043457,38.457000732421875 -50.53200149536133,38.457000732421875 C-74.36599731445312,38.457000732421875 -79.85600280761719,31.405000686645508 -79.85600280761719,31.405000686645508z"></path></g></g><g style="display: block;" transform="matrix(0.9599999785423279,0,0,0.9599999785423279,181.57896423339844,188.42276000976562)" opacity="1"><g opacity="1" transform="matrix(1,0,0,1,0,0)"><path fill="url(#__lottie_element_39)" fill-opacity="1" d=" M40.79399871826172,77.40399932861328 C40.79399871826172,84.79499816894531 32.770999908447266,91.36499786376953 24.035999298095703,91.36499786376953 C15.300999641418457,91.36499786376953 7.2779998779296875,84.79499816894531 7.2779998779296875,77.40399932861328 C7.2779998779296875,70.01300048828125 15.300999641418457,63.23699951171875 24.035999298095703,63.23699951171875 C32.770999908447266,63.23699951171875 40.79399871826172,70.01300048828125 40.79399871826172,77.40399932861328z"></path></g><g opacity="1" transform="matrix(1,0,0,1,0,0)"><path fill="rgb(255,168,0)" fill-opacity="0.8" d=" M40.79399871826172,72.33300018310547 C40.79399871826172,79.0780029296875 33.29100036621094,84.54499816894531 24.035999298095703,84.54499816894531 C14.781000137329102,84.54499816894531 7.2789998054504395,79.0780029296875 7.2789998054504395,72.33300018310547 C7.2789998054504395,65.58799743652344 14.781000137329102,60.40800094604492 24.035999298095703,60.40800094604492 C33.29100036621094,60.40800094604492 40.79399871826172,65.58799743652344 40.79399871826172,72.33300018310547z"></path></g><g opacity="1" transform="matrix(1,0,0,1,0,0)"><path fill="url(#__lottie_element_40)" fill-opacity="0.7000000000000001" d=" M40.79399871826172,72.33300018310547 C40.79399871826172,79.0780029296875 33.29100036621094,84.54499816894531 24.035999298095703,84.54499816894531 C14.781000137329102,84.54499816894531 7.2789998054504395,79.0780029296875 7.2789998054504395,72.33300018310547 C7.2789998054504395,65.58799743652344 14.781000137329102,60.40800094604492 24.035999298095703,60.40800094604492 C33.29100036621094,60.40800094604492 40.79399871826172,65.58799743652344 40.79399871826172,72.33300018310547z"></path></g><g opacity="1" transform="matrix(1,0,0,1,0,0)"><path fill="rgb(255,216,0)" fill-opacity="1" d=" M38.53300094604492,68.47799682617188 C38.53300094604492,73.4990005493164 32.04199981689453,77.56999969482422 24.035999298095703,77.56999969482422 C16.030000686645508,77.56999969482422 9.539999961853027,73.4990005493164 9.539999961853027,68.47799682617188 C9.539999961853027,63.457000732421875 16.030000686645508,60.21099853515625 24.035999298095703,60.21099853515625 C32.04199981689453,60.21099853515625 38.53300094604492,63.457000732421875 38.53300094604492,68.47799682617188z"></path></g><g opacity="1" transform="matrix(1,0,0,1,0,0)"><path fill="url(#__lottie_element_41)" fill-opacity="1" d=" M38.53300094604492,68.47799682617188 C38.53300094604492,73.4990005493164 32.04199981689453,77.56999969482422 24.035999298095703,77.56999969482422 C16.030000686645508,77.56999969482422 9.539999961853027,73.4990005493164 9.539999961853027,68.47799682617188 C9.539999961853027,63.457000732421875 16.030000686645508,60.21099853515625 24.035999298095703,60.21099853515625 C32.04199981689453,60.21099853515625 38.53300094604492,63.457000732421875 38.53300094604492,68.47799682617188z"></path></g><g opacity="1" transform="matrix(1,0,0,1,0,0)"><path fill="url(#__lottie_element_42)" fill-opacity="0.7000000000000001" d=" M31.5049991607666,64.83200073242188 C31.5049991607666,67.5199966430664 28.160999298095703,70.04900360107422 24.035999298095703,70.04900360107422 C19.910999298095703,70.04900360107422 16.566999435424805,67.5199966430664 16.566999435424805,64.83200073242188 C16.566999435424805,62.14400100708008 19.910999298095703,60.79499816894531 24.035999298095703,60.79499816894531 C28.160999298095703,60.79499816894531 31.5049991607666,62.14400100708008 31.5049991607666,64.83200073242188z"></path></g></g><g style="display: block;" transform="matrix(1.0105247497558594,0,0,1.0105247497558594,256.53350830078125,253.56130981445312)" opacity="1"><g opacity="1" transform="matrix(1,0,0,1,0,0)"><g opacity="1" transform="matrix(1,0,0,1,0,0)"><path fill="rgb(255,255,255)" fill-opacity="1" d=" M-27.4950008392334,-30.447999954223633 C-27.4950008392334,-30.447999954223633 -25.58099937438965,-61.06399917602539 1.7649999856948853,-63.81100082397461 C26.878999710083008,-66.33300018310547 35.959999084472656,-40.183998107910156 35.959999084472656,-40.183998107910156 C35.959999084472656,-40.183998107910156 29.200000762939453,-26.25 7.215000152587891,-23.839000701904297 C-17.295000076293945,-21.150999069213867 -27.4950008392334,-30.447999954223633 -27.4950008392334,-30.447999954223633z"></path></g><g opacity="1" transform="matrix(1.0299999713897705,0,0,1,-0.1335897445678711,0)"><g opacity="1" transform="matrix(1,0,0,1,0,0)"><path fill="url(#__lottie_element_30)" fill-opacity="1" d=" M21.85700035095215,-42.51599884033203 C21.85700035095215,-32.20100021362305 13.965999603271484,-23.839000701904297 4.23199987411499,-23.839000701904297 C-5.501999855041504,-23.839000701904297 -13.392000198364258,-32.20100021362305 -13.392000198364258,-42.51599884033203 C-13.392000198364258,-52.83100128173828 -5.501999855041504,-61.19300079345703 4.23199987411499,-61.19300079345703 C13.965999603271484,-61.19300079345703 21.85700035095215,-52.83100128173828 21.85700035095215,-42.51599884033203z"></path></g><g opacity="1" transform="matrix(1,0,0,1,0,0)"><g opacity="1" transform="matrix(1,0,0,1,0,0)"><path fill="url(#__lottie_element_31)" fill-opacity="1" d=" M8.345000267028809,-24.642000198364258 C6.953000068664551,-24.642000198364258 5.664999961853027,-25.540000915527344 5.232999801635742,-26.940000534057617 C4.703000068664551,-28.659000396728516 5.666999816894531,-30.48200035095215 7.386000156402588,-31.011999130249023 C10.673999786376953,-32.0260009765625 13.291999816894531,-34.58100128173828 14.387999534606934,-37.84600067138672 C14.961000442504883,-39.551998138427734 16.809999465942383,-40.46799850463867 18.511999130249023,-39.89699935913086 C20.218000411987305,-39.32500076293945 21.13599967956543,-37.47800064086914 20.562999725341797,-35.77299880981445 C18.802000045776367,-30.524999618530273 14.593000411987305,-26.417999267578125 9.305000305175781,-24.78700065612793 C8.984999656677246,-24.687999725341797 8.661999702453613,-24.642000198364258 8.345000267028809,-24.642000198364258z"></path></g></g><g opacity="1" transform="matrix(1,0,0,1,0.5,0)"><path fill="rgb(23,19,10)" fill-opacity="1" d=" M15.371000289916992,-42.51599884033203 C15.371000289916992,-35.99700164794922 10.383999824523926,-30.711999893188477 4.23199987411499,-30.711999893188477 C-1.9199999570846558,-30.711999893188477 -6.906000137329102,-35.99700164794922 -6.906000137329102,-42.51599884033203 C-6.906000137329102,-49.03499984741211 -1.9199999570846558,-54.31999969482422 4.23199987411499,-54.31999969482422 C10.383999824523926,-54.31999969482422 15.371000289916992,-49.03499984741211 15.371000289916992,-42.51599884033203z"></path></g><g opacity="1" transform="matrix(1,0,0,1,0,0)"><path fill="url(#__lottie_element_32)" fill-opacity="1" d=" M3.244999885559082,-52.694000244140625 C3.244999885559082,-50.21799850463867 1.3509999513626099,-48.21200180053711 -0.9850000143051147,-48.21200180053711 C-3.321000099182129,-48.21200180053711 -5.215000152587891,-50.21799850463867 -5.215000152587891,-52.694000244140625 C-5.215000152587891,-55.16999816894531 -3.321000099182129,-57.176998138427734 -0.9850000143051147,-57.176998138427734 C1.3509999513626099,-57.176998138427734 3.244999885559082,-55.16999816894531 3.244999885559082,-52.694000244140625z"></path></g></g><g opacity="1" transform="matrix(1,0,0,1,0,0)"><path fill="rgb(163,65,0)" fill-opacity="1" d=" M-27.4950008392334,-30.447999954223633 C-27.4950008392334,-30.447999954223633 -26.02899932861328,-59.3650016784668 1.7649999856948853,-63.81100082397461 C13.607999801635742,-65.70600128173828 22.718000411987305,-61.54999923706055 28.976999282836914,-54.19599914550781 C35.70199966430664,-46.29499816894531 35.959999084472656,-40.183998107910156 35.959999084472656,-40.183998107910156 C35.959999084472656,-40.183998107910156 30.143999099731445,-65.48799896240234 2.4670000076293945,-61.89500045776367 C-24.430999755859375,-58.40299987792969 -27.4950008392334,-30.447999954223633 -27.4950008392334,-30.447999954223633z"></path><path stroke-linecap="round" stroke-linejoin="round" fill-opacity="0" stroke="rgb(163,65,0)" stroke-opacity="1" stroke-width="2" d=" M-27.4950008392334,-30.447999954223633 C-27.4950008392334,-30.447999954223633 -26.02899932861328,-59.3650016784668 1.7649999856948853,-63.81100082397461 C13.607999801635742,-65.70600128173828 22.718000411987305,-61.54999923706055 28.976999282836914,-54.19599914550781 C35.70199966430664,-46.29499816894531 35.959999084472656,-40.183998107910156 35.959999084472656,-40.183998107910156 C35.959999084472656,-40.183998107910156 30.143999099731445,-65.48799896240234 2.4670000076293945,-61.89500045776367 C-24.430999755859375,-58.40299987792969 -27.4950008392334,-30.447999954223633 -27.4950008392334,-30.447999954223633z"></path></g></g><g opacity="1" transform="matrix(1,0,0,1,0,0)"><g opacity="1" transform="matrix(1,0,0,1,0,0)"><path fill="rgb(255,255,255)" fill-opacity="1" d=" M-74.94200134277344,-30.447999954223633 C-74.94200134277344,-30.447999954223633 -76.85700225830078,-61.06399917602539 -104.2030029296875,-63.81100082397461 C-129.31700134277344,-66.33300018310547 -138.39700317382812,-40.183998107910156 -138.39700317382812,-40.183998107910156 C-138.39700317382812,-40.183998107910156 -131.63800048828125,-26.25 -109.65299987792969,-23.839000701904297 C-85.14299774169922,-21.150999069213867 -74.94200134277344,-30.447999954223633 -74.94200134277344,-30.447999954223633z"></path></g><g opacity="1" transform="matrix(1,0,0,1,0,0)"><g opacity="1" transform="matrix(1.0299999713897705,0,0,1,3.139434814453125,0)"><g opacity="1" transform="matrix(1,0,0,1,0,0)"><path fill="url(#__lottie_element_33)" fill-opacity="1" d=" M-87.38899993896484,-42.51599884033203 C-87.38899993896484,-32.20100021362305 -95.27899932861328,-23.839000701904297 -105.01300048828125,-23.839000701904297 C-114.74700164794922,-23.839000701904297 -122.63800048828125,-32.20100021362305 -122.63800048828125,-42.51599884033203 C-122.63800048828125,-52.83100128173828 -114.74700164794922,-61.19300079345703 -105.01300048828125,-61.19300079345703 C-95.27899932861328,-61.19300079345703 -87.38899993896484,-52.83100128173828 -87.38899993896484,-42.51599884033203z"></path></g><g opacity="1" transform="matrix(1,0,0,1,0,0)"><g opacity="1" transform="matrix(1,0,0,1,0,0)"><path fill="url(#__lottie_element_34)" fill-opacity="1" d=" M-100.93099975585938,-24.642000198364258 C-102.322998046875,-24.642000198364258 -103.61100006103516,-25.540000915527344 -104.04299926757812,-26.940000534057617 C-104.572998046875,-28.659000396728516 -103.60900115966797,-30.48200035095215 -101.88999938964844,-31.011999130249023 C-98.60199737548828,-32.0260009765625 -95.98400115966797,-34.58100128173828 -94.88800048828125,-37.84600067138672 C-94.31500244140625,-39.551998138427734 -92.46700286865234,-40.46799850463867 -90.76499938964844,-39.89699935913086 C-89.05899810791016,-39.32500076293945 -88.13999938964844,-37.47800064086914 -88.71299743652344,-35.77299880981445 C-90.4739990234375,-30.524999618530273 -94.68299865722656,-26.417999267578125 -99.97100067138672,-24.78700065612793 C-100.29100036621094,-24.687999725341797 -100.61399841308594,-24.642000198364258 -100.93099975585938,-24.642000198364258z"></path></g></g><g opacity="1" transform="matrix(1,0,0,1,0.5,0)"><path fill="rgb(23,19,10)" fill-opacity="1" d=" M-93.8740005493164,-42.51599884033203 C-93.8740005493164,-35.99700164794922 -98.86100006103516,-30.711999893188477 -105.01300048828125,-30.711999893188477 C-111.16500091552734,-30.711999893188477 -116.1520004272461,-35.99700164794922 -116.1520004272461,-42.51599884033203 C-116.1520004272461,-49.03499984741211 -111.16500091552734,-54.31999969482422 -105.01300048828125,-54.31999969482422 C-98.86100006103516,-54.31999969482422 -93.8740005493164,-49.03499984741211 -93.8740005493164,-42.51599884033203z"></path></g><g opacity="1" transform="matrix(1,0,0,1,0,0)"><path fill="url(#__lottie_element_35)" fill-opacity="1" d=" M-106,-52.694000244140625 C-106,-50.21799850463867 -107.89399719238281,-48.21200180053711 -110.2300033569336,-48.21200180053711 C-112.56600189208984,-48.21200180053711 -114.45999908447266,-50.21799850463867 -114.45999908447266,-52.694000244140625 C-114.45999908447266,-55.16999816894531 -112.56600189208984,-57.176998138427734 -110.2300033569336,-57.176998138427734 C-107.89399719238281,-57.176998138427734 -106,-55.16999816894531 -106,-52.694000244140625z"></path></g></g></g><g opacity="1" transform="matrix(1,0,0,1,0,0)"><path fill="rgb(163,65,0)" fill-opacity="1" d=" M-74.94200134277344,-30.447999954223633 C-74.94200134277344,-30.447999954223633 -76.40899658203125,-59.3650016784668 -104.2030029296875,-63.81100082397461 C-116.0459976196289,-65.70600128173828 -125.15499877929688,-61.54999923706055 -131.41400146484375,-54.19599914550781 C-138.13900756835938,-46.29499816894531 -138.39700317382812,-40.183998107910156 -138.39700317382812,-40.183998107910156 C-138.39700317382812,-40.183998107910156 -132.58200073242188,-65.48799896240234 -104.90499877929688,-61.89500045776367 C-78.00700378417969,-58.40299987792969 -74.94200134277344,-30.447999954223633 -74.94200134277344,-30.447999954223633z"></path><path stroke-linecap="round" stroke-linejoin="round" fill-opacity="0" stroke="rgb(163,65,0)" stroke-opacity="1" stroke-width="2" d=" M-74.94200134277344,-30.447999954223633 C-74.94200134277344,-30.447999954223633 -76.40899658203125,-59.3650016784668 -104.2030029296875,-63.81100082397461 C-116.0459976196289,-65.70600128173828 -125.15499877929688,-61.54999923706055 -131.41400146484375,-54.19599914550781 C-138.13900756835938,-46.29499816894531 -138.39700317382812,-40.183998107910156 -138.39700317382812,-40.183998107910156 C-138.39700317382812,-40.183998107910156 -132.58200073242188,-65.48799896240234 -104.90499877929688,-61.89500045776367 C-78.00700378417969,-58.40299987792969 -74.94200134277344,-30.447999954223633 -74.94200134277344,-30.447999954223633z"></path></g></g></g><g style="display: block;" transform="matrix(1.0105247497558594,0,0,1.0105247497558594,256.5331115722656,253.56161499023438)" opacity="1"><g opacity="1" transform="matrix(1,0,0,1,0,0)"><path fill="rgb(163,65,0)" fill-opacity="1" d=" M-131.68800354003906,-79.28099822998047 C-131.68800354003906,-79.28099822998047 -120.44000244140625,-86.99600219726562 -107.08999633789062,-86.5790023803711 C-94.2979965209961,-86.18000030517578 -89.01200103759766,-81.34300231933594 -89.01200103759766,-81.34300231933594 C-89.01200103759766,-81.34300231933594 -93.27200317382812,-90.63099670410156 -107.08999633789062,-90.22799682617188 C-122.31199645996094,-89.78399658203125 -131.68800354003906,-79.28099822998047 -131.68800354003906,-79.28099822998047z"></path><path stroke-linecap="round" stroke-linejoin="round" fill-opacity="0" stroke="rgb(163,65,0)" stroke-opacity="1" stroke-width="2" d=" M-131.68800354003906,-79.28099822998047 C-131.68800354003906,-79.28099822998047 -120.44000244140625,-86.99600219726562 -107.08999633789062,-86.5790023803711 C-94.2979965209961,-86.18000030517578 -89.01200103759766,-81.34300231933594 -89.01200103759766,-81.34300231933594 C-89.01200103759766,-81.34300231933594 -93.27200317382812,-90.63099670410156 -107.08999633789062,-90.22799682617188 C-122.31199645996094,-89.78399658203125 -131.68800354003906,-79.28099822998047 -131.68800354003906,-79.28099822998047z"></path></g><g opacity="1" transform="matrix(1,0,0,1,0,0)"><path fill="rgb(163,65,0)" fill-opacity="1" d=" M29.038000106811523,-79.28099822998047 C29.038000106811523,-79.28099822998047 17.790000915527344,-86.99600219726562 4.440000057220459,-86.5790023803711 C-8.35200023651123,-86.18000030517578 -13.637999534606934,-81.34300231933594 -13.637999534606934,-81.34300231933594 C-13.637999534606934,-81.34300231933594 -9.378000259399414,-90.63099670410156 4.440000057220459,-90.22799682617188 C19.66200065612793,-89.78399658203125 29.038000106811523,-79.28099822998047 29.038000106811523,-79.28099822998047z"></path><path stroke-linecap="round" stroke-linejoin="round" fill-opacity="0" stroke="rgb(163,65,0)" stroke-opacity="1" stroke-width="2" d=" M29.038000106811523,-79.28099822998047 C29.038000106811523,-79.28099822998047 17.790000915527344,-86.99600219726562 4.440000057220459,-86.5790023803711 C-8.35200023651123,-86.18000030517578 -13.637999534606934,-81.34300231933594 -13.637999534606934,-81.34300231933594 C-13.637999534606934,-81.34300231933594 -9.378000259399414,-90.63099670410156 4.440000057220459,-90.22799682617188 C19.66200065612793,-89.78399658203125 29.038000106811523,-79.28099822998047 29.038000106811523,-79.28099822998047z"></path></g></g><g style="display: block;" transform="matrix(0.9599999785423279,0,0,0.9599999785423279,180.69863891601562,189.4010009765625)" opacity="1"><g opacity="1" transform="matrix(1,0,0,1,0,0)"><path fill="rgb(255,205,0)" fill-opacity="1" d=" M-35.90399932861328,-98.69100189208984 C-42.275001525878906,-47.02000045776367 -68.37999725341797,-13.022000312805176 -111.58499908447266,5.6620001792907715 C-111.58499908447266,5.6620001792907715 -144.427001953125,46.57600021362305 -134.99000549316406,131.5469970703125 C-134.99000549316406,131.5469970703125 -147.0469970703125,63.391998291015625 -119.5999984741211,-36.722999572753906 C-94.15399932861328,-129.5399932861328 -52.28300094604492,-143.88699340820312 -42.56100082397461,-140.08200073242188 C-42.56100082397461,-140.08200073242188 -28.875,-166.08099365234375 38.92499923706055,-157.2030029296875 C106.7249984741211,-148.3249969482422 149.61900329589844,-98.23100280761719 168.8249969482422,-39.893001556396484 C188.031005859375,18.44499969482422 193.51100158691406,87.79299926757812 190.30999755859375,131.5469970703125 C190.30999755859375,131.5469970703125 198.73800659179688,24.599000930786133 126.62200164794922,-10.081999778747559 C126.62200164794922,-10.081999778747559 24.545000076293945,-31.624000549316406 -35.90399932861328,-98.69100189208984z"></path></g><g opacity="1" transform="matrix(1,0,0,1,0,0)"><path fill="url(#__lottie_element_20)" fill-opacity="1" d=" M-35.90399932861328,-98.69100189208984 C-42.275001525878906,-47.02000045776367 -68.37999725341797,-13.022000312805176 -111.58499908447266,5.6620001792907715 C-111.58499908447266,5.6620001792907715 -144.427001953125,46.57600021362305 -134.99000549316406,131.5469970703125 C-134.99000549316406,131.5469970703125 -147.0469970703125,63.391998291015625 -119.5999984741211,-36.722999572753906 C-94.15399932861328,-129.5399932861328 -52.28300094604492,-143.88699340820312 -42.56100082397461,-140.08200073242188 C-42.56100082397461,-140.08200073242188 -28.875,-166.08099365234375 38.92499923706055,-157.2030029296875 C106.7249984741211,-148.3249969482422 149.61900329589844,-98.23100280761719 168.8249969482422,-39.893001556396484 C188.031005859375,18.44499969482422 193.51100158691406,87.79299926757812 190.30999755859375,131.5469970703125 C190.30999755859375,131.5469970703125 198.73800659179688,24.599000930786133 126.62200164794922,-10.081999778747559 C126.62200164794922,-10.081999778747559 24.545000076293945,-31.624000549316406 -35.90399932861328,-98.69100189208984z"></path></g><g opacity="1" transform="matrix(1,0,0,1,0,0)"><path fill="url(#__lottie_element_21)" fill-opacity="1" d=" M165.36199951171875,-5.605999946594238 C165.36199951171875,-5.605999946594238 147.3159942626953,-9.663000106811523 126.6240005493164,-10.07699966430664 C126.6240005493164,-10.07699966430664 24.54599952697754,-31.621999740600586 -35.904998779296875,-98.69499969482422 C-35.904998779296875,-98.69499969482422 -38.220001220703125,-52.98400115966797 -67.53099822998047,-25.985000610351562 C-95.22699737548828,-0.46000000834465027 -111.58100128173828,5.6579999923706055 -111.58100128173828,5.6579999923706055 C-111.58100128173828,5.6579999923706055 -132.33099365234375,35.757999420166016 -134.4040069580078,62.29600143432617 C-134.4040069580078,62.29600143432617 -136.2570037841797,5.738999843597412 -117.1449966430664,-2.561000108718872 C-117.1449966430664,-2.561000108718872 -85.53299713134766,-19.80500030517578 -68.50399780273438,-41.93199920654297 C-46.68299865722656,-70.28600311279297 -48.3120002746582,-107.76799774169922 -51.2760009765625,-117.97599792480469 C-55.59199905395508,-132.83700561523438 -88.56099700927734,-116.33000183105469 -108.61399841308594,-69.91400146484375 C-83.5250015258789,-133.05599975585938 -50.98400115966797,-143.375 -42.558998107910156,-140.0800018310547 C-42.558998107910156,-140.0800018310547 -28.871000289916992,-166.07699584960938 38.92499923706055,-157.2030029296875 C73.22699737548828,-152.71299743652344 101.16600036621094,-137.66200256347656 122.87899780273438,-116.3290023803711 C122.87899780273438,-116.3290023803711 79.44599914550781,-156.78399658203125 8.961000442504883,-149.02200317382812 C-38.5369987487793,-143.79100036621094 -31.83799934387207,-120.71600341796875 -26.555999755859375,-111.91500091552734 C-19.065000534057617,-99.43299865722656 19.308000564575195,-60.18899917602539 73.91699981689453,-39.6870002746582 C120.64199829101562,-22.145000457763672 147.38400268554688,-17.53499984741211 165.36199951171875,-5.605999946594238z"></path></g><g opacity="1" transform="matrix(1,0,0,1,0,0)"><path stroke-linecap="round" stroke-linejoin="round" fill-opacity="0" stroke="rgb(197,92,0)" stroke-opacity="1" stroke-width="8" d=" M-35.90399932861328,-98.69100189208984 C-32.16600036621094,-53.03799819946289 -66.33399963378906,-13.515000343322754 -111.58499908447266,5.6620001792907715 C-111.58499908447266,5.6620001792907715 -145.50399780273438,45.03900146484375 -136.06700134277344,130.00999450683594 C-136.06700134277344,130.00999450683594 -147.0469970703125,63.391998291015625 -119.5999984741211,-36.722999572753906 C-94.15399932861328,-129.5399932861328 -52.28300094604492,-143.88699340820312 -42.56100082397461,-140.08200073242188 C-42.56100082397461,-140.08200073242188 -28.875,-166.08099365234375 38.92499923706055,-157.2030029296875 C106.7249984741211,-148.3249969482422 149.61900329589844,-98.23100280761719 168.8249969482422,-39.893001556396484 C188.031005859375,18.44499969482422 193.5989990234375,86.375 190.3979949951172,130.12899780273438 C190.3979949951172,130.12899780273438 198.53399658203125,23.60099983215332 126.62200164794922,-10.081999778747559 C126.62200164794922,-10.081999778747559 24.545000076293945,-31.624000549316406 -35.90399932861328,-98.69100189208984z"></path></g><g opacity="1" transform="matrix(1,0,0,1,0,0)"><path fill="url(#__lottie_element_22)" fill-opacity="0.9" d=" M-49.70800018310547,-106.19599914550781 C-49.185001373291016,-126.46800231933594 -46.99599838256836,-130.99600219726562 -51.6510009765625,-129.8419952392578 C-66.45600128173828,-126.16999816894531 -90.5739974975586,-104.375 -103.2249984741211,-64.01599884033203 C-102.5989990234375,-49.236000061035156 -84.27899932861328,-59.4010009765625 -75.5469970703125,-59.834999084472656 C-53.18899917602539,-60.94599914550781 -50.17100143432617,-88.23899841308594 -49.70800018310547,-106.19599914550781z"></path></g><g opacity="1" transform="matrix(1,0,0,1,0,0)"><path fill="url(#__lottie_element_23)" fill-opacity="0.9" d=" M39.722999572753906,-61.18299865722656 C4.3979997634887695,-73.32499694824219 -21.31800079345703,-104.31400299072266 -27.062999725341797,-113.81199645996094 C-33.83399963378906,-125.00700378417969 -35.84000015258789,-135.1840057373047 -33.992000579833984,-137.2830047607422 C-26.03700065612793,-146.32200622558594 3.8510000705718994,-154.76699829101562 45.696998596191406,-146.49000549316406 C84.45099639892578,-138.82400512695312 123.76799774169922,-109.60199737548828 142.84800720214844,-73.6969985961914 C153.49000549316406,-53.67100143432617 97.72599792480469,-41.24700164794922 39.722999572753906,-61.18299865722656z"></path></g><g opacity="1" transform="matrix(1,0,0,1,0,0)"><path stroke-linecap="round" stroke-linejoin="round" fill-opacity="0" stroke="rgb(163,65,0)" stroke-opacity="1" stroke-width="8" d=" M190.3979949951172,130.12899780273438 C190.3979949951172,130.12899780273438 198.53399658203125,23.60099983215332 126.62200164794922,-10.081999778747559 C126.62200164794922,-10.081999778747559 24.545000076293945,-31.624000549316406 -35.90399932861328,-98.69100189208984 C-32.16600036621094,-53.03799819946289 -66.33399963378906,-13.515000343322754 -111.58499908447266,5.6620001792907715 C-111.58499908447266,5.6620001792907715 -145.50399780273438,45.03900146484375 -136.06700134277344,130.00999450683594"></path></g></g><g style="display: block;" transform="matrix(1,0,0,1,256,256)" opacity="1"><g opacity="1" transform="matrix(1,0,0,1,0,0)"><path fill="url(#__lottie_element_11)" fill-opacity="1" d=" M69.63800048828125,81.29000091552734 C68.38300323486328,88.28700256347656 68.08499908447266,171.2480010986328 71.1259994506836,216.52499389648438 C71.1259994506836,216.52499389648438 101.7969970703125,216.13400268554688 101.7969970703125,216.13400268554688 C133.06199645996094,216.13400268554688 144.3260040283203,206.67799377441406 144.3260040283203,205.29800415039062 C144.3260040283203,172.61099243164062 137.86700439453125,125.24600219726562 134.76600646972656,93.1510009765625 C133.06100463867188,81.36399841308594 131.7729949951172,74.0459976196289 120.11000061035156,74.0459976196289 C108.7249984741211,78.40299987792969 95.31099700927734,78.04100036621094 79.28900146484375,71.61199951171875 C74.36900329589844,71.61199951171875 70.66200256347656,75.58300018310547 69.63800048828125,81.29000091552734z"></path></g><g opacity="1" transform="matrix(1,0,0,1,0,0)"><path stroke-linecap="round" stroke-linejoin="round" fill-opacity="0" stroke="rgb(147,18,149)" stroke-opacity="1" stroke-width="8" d=" M72.85800170898438,74.81600189208984 C77.72000122070312,83.87899780273438 107.83699798583984,92.88899993896484 130.88400268554688,78.86000061035156"></path></g><g opacity="1" transform="matrix(1,0,0,1,0,0)"><path stroke-linecap="round" stroke-linejoin="round" fill-opacity="0" stroke="rgb(82,1,86)" stroke-opacity="1" stroke-width="8" d=" M140.52699279785156,203.41900634765625 C140.96099853515625,167.30299377441406 138.60299682617188,132.86900329589844 134.76600646972656,93.1510009765625 C133.06100463867188,81.36399841308594 131.7729949951172,74.0459976196289 120.11000061035156,74.0459976196289 C106.69400024414062,78.74700164794922 93.06700134277344,77.39399719238281 79.28900146484375,71.61199951171875 C74.36900329589844,71.61199951171875 70.66200256347656,75.58300018310547 69.63800048828125,81.29000091552734 C68.38300323486328,88.28700256347656 68.00499725341797,166.30499267578125 71.0459976196289,211.58200073242188"></path></g></g><g style="display: block;" transform="matrix(1,0,0,1,255.99998474121094,256)" opacity="1"><g opacity="1" transform="matrix(1,0,0,1,0,0)"><path fill="rgb(255,216,0)" fill-opacity="1" d=" M79.95600128173828,31.429000854492188 C84.91500091552734,19.05500030517578 88.5459976196289,12.291000366210938 106.4739990234375,5.922999858856201 C119.40499877929688,1.3300000429153442 144.39300537109375,-17.48900032043457 145.54800415039062,-2.805000066757202 C146.29800415039062,6.729000091552734 127.1520004272461,14.1899995803833 127.1520004272461,14.1899995803833 C127.1520004272461,14.1899995803833 159.63499450683594,12.814000129699707 179.8090057373047,-0.5789999961853027 C186.63400268554688,-5.734000205993652 194.66700744628906,-4.014999866485596 194.48300170898438,0.9869999885559082 C200.99200439453125,-3.6019999980926514 214.21800231933594,-5.114999771118164 210.2310028076172,7.314000129699707 C217.27000427246094,10.833999633789062 211.72500610351562,17.895000457763672 205.69900512695312,21.006999969482422 C210.2310028076172,23.691999435424805 208.69500732421875,28.589000701904297 204.84100341796875,32.64500045776367 C187.10499572753906,51.310001373291016 144.30999755859375,61.402000427246094 121.87200164794922,60.742000579833984 C123.20099639892578,66.37899780273438 123.63200378417969,73.08000183105469 123.63200378417969,73.08000183105469 C123.63200378417969,73.08000183105469 91.07499694824219,84.97799682617188 82.2760009765625,73.08000183105469 C83.10099792480469,54.03200149536133 75.7760009765625,41.856998443603516 79.95600128173828,31.429000854492188z"></path></g><g opacity="1" transform="matrix(1,0,0,1,0,0)"><g opacity="1" transform="matrix(1,0,0,1,0,0)"><path fill="url(#__lottie_element_6)" fill-opacity="0.8" d=" M210.2310028076172,7.314000129699707 C214.21800231933594,-5.114999771118164 200.99200439453125,-3.6019999980926514 194.48300170898438,0.9869999885559082 C194.66700744628906,-4.014999866485596 186.63299560546875,-5.734000205993652 179.8090057373047,-0.5789999961853027 C159.63499450683594,12.814000129699707 127.1520004272461,14.1899995803833 127.1520004272461,14.1899995803833 C127.1520004272461,14.1899995803833 146.29800415039062,6.729000091552734 145.54800415039062,-2.805000066757202 C144.39300537109375,-17.48900032043457 119.27899932861328,0.9890000224113464 106.4739990234375,5.922999858856201 C104.00800323486328,6.873000144958496 95.4219970703125,17.554000854492188 94.14399719238281,25.700000762939453 C93.66799926757812,28.738000869750977 90.43599700927734,48.57500076293945 103.89600372314453,58.89899826049805 C120.72100067138672,70.85299682617188 147.35499572753906,61.608001708984375 174.1649932861328,51.04499816894531 C194.9239959716797,42.86600112915039 208.5970001220703,27.136999130249023 208.2830047607422,26.951000213623047 C214.3090057373047,23.839000701904297 217.27000427246094,10.833999633789062 210.2310028076172,7.314000129699707z"></path></g></g><g opacity="1" transform="matrix(1,0,0,1,0,0)"><g opacity="1" transform="matrix(1,0,0,1,0,0)"><path fill="url(#__lottie_element_7)" fill-opacity="1" d=" M210.2310028076172,7.314000129699707 C214.21800231933594,-5.114999771118164 200.99200439453125,-3.6019999980926514 194.48300170898438,0.9869999885559082 C194.66700744628906,-4.014999866485596 186.63299560546875,-5.734000205993652 179.8090057373047,-0.5789999961853027 C159.63499450683594,12.814000129699707 127.1520004272461,14.1899995803833 127.1520004272461,14.1899995803833 C127.1520004272461,14.1899995803833 146.29800415039062,6.729000091552734 145.54800415039062,-2.805000066757202 C144.39300537109375,-17.48900032043457 119.40499877929688,1.3300000429153442 106.4739990234375,5.922999858856201 C93.02799987792969,10.699000358581543 83.2959976196289,20.601999282836914 85.63500213623047,29.29400062561035 C86.43399810791016,32.263999938964844 92.4530029296875,40.4010009765625 97.48899841308594,43.678001403808594 C111.52300262451172,54.05099868774414 152.2760009765625,49.395999908447266 171.5229949951172,43.6609992980957 C192.906005859375,37.28900146484375 208.1790008544922,26.417999267578125 207.86500549316406,26.23200035095215 C213.89100646972656,23.1200008392334 217.27000427246094,10.833999633789062 210.2310028076172,7.314000129699707z"></path></g></g><g opacity="1" transform="matrix(1,0,0,1,0,0)"><path stroke-linecap="round" stroke-linejoin="round" fill-opacity="0" stroke="rgb(218,110,0)" stroke-opacity="1" stroke-width="8" d=" M81.40499877929688,31.415000915527344 C83.49400329589844,21.243999481201172 88.95800018310547,12.871000289916992 105.53900146484375,3.5460000038146973 C112.54199981689453,-0.3919999897480011 125.55500030517578,-4.4079999923706055 133.74000549316406,-8.725000381469727 C139.58999633789062,-11.810999870300293 145.06900024414062,-8.892000198364258 145.54800415039062,-2.805000066757202 C146.29800415039062,6.729000091552734 127.71099853515625,8.428000450134277 127.1520004272461,14.1899995803833 C135.17599487304688,13.741000175476074 160.19000244140625,11.5600004196167 179.8090057373047,-0.5789999961853027 C186.63299560546875,-5.734000205993652 194.66700744628906,-4.014999866485596 194.48300170898438,0.9869999885559082 C200.99200439453125,-3.6019999980926514 214.21800231933594,-5.114999771118164 210.2310028076172,7.314000129699707 C217.27000427246094,10.833999633789062 211.72500610351562,17.895000457763672 205.69900512695312,21.006999969482422 C210.2310028076172,23.691999435424805 208.718994140625,29.820999145507812 204.84100341796875,32.64500045776367 C195.8470001220703,39.19499969482422 185.01600646972656,47.25400161743164 171.47799682617188,52.051998138427734 C165.87600708007812,54.03799819946289 143.85299682617188,59.5620002746582 123.25700378417969,60.777000427246094 C124.19300079345703,65.73400115966797 124.85099792480469,72.7030029296875 124.85099792480469,72.7030029296875 C124.85099792480469,72.7030029296875 91.07499694824219,84.97799682617188 82.2760009765625,73.08000183105469 C80.697998046875,57.97800064086914 79.1449966430664,42.41999816894531 81.40499877929688,31.415000915527344z"></path></g><g opacity="0.5" transform="matrix(1,0,0,1,0,0)"><g opacity="1" transform="matrix(1,0,0,1,0,0)"><path stroke-linecap="round" stroke-linejoin="round" fill-opacity="0" stroke="rgb(218,110,0)" stroke-opacity="1" stroke-width="4" d=" M156.9040069580078,18.889999389648438 C156.9040069580078,18.889999389648438 176.2989959716797,16.503999710083008 195.71200561523438,1.1269999742507935"></path></g><g opacity="1" transform="matrix(1,0,0,1,0,0)"><path stroke-linecap="round" stroke-linejoin="round" fill-opacity="0" stroke="rgb(218,110,0)" stroke-opacity="1" stroke-width="4" d=" M164.9340057373047,24.885000228881836 C164.9340057373047,24.885000228881836 182.4499969482422,22.8799991607666 201.86300659179688,7.502999782562256 C201.86300659179688,7.502999782562256 206.87600708007812,4.867000102996826 210.2310028076172,7.314000129699707"></path></g><g opacity="1" transform="matrix(1,0,0,1,0,0)"><path stroke-linecap="round" stroke-linejoin="round" fill-opacity="0" stroke="rgb(218,110,0)" stroke-opacity="1" stroke-width="4" d=" M168.91000366210938,33.71699905395508 C168.91000366210938,33.71699905395508 179.79600524902344,32.39099884033203 196.55499267578125,21.722000122070312 C196.55499267578125,21.722000122070312 201.47300720214844,18.808000564575195 205.69900512695312,21.006999969482422"></path></g></g><g opacity="1" transform="matrix(1,0,0,1,0,0)"><path fill="rgb(66,0,72)" fill-opacity="1" d=" M78.2750015258789,67.05999755859375 C84.82499694824219,76.58100128173828 111.95500183105469,78.89800262451172 125.49600219726562,70.13099670410156 C128.2429962158203,72.50700378417969 130.24099731445312,75.91200256347656 126.75900268554688,77.96099853515625 C108.90299987792969,86.93900299072266 81.56999969482422,82.9540023803711 76.99600219726562,74.60700225830078 C75.23600006103516,71.75399780273438 77.40699768066406,67.80799865722656 78.2750015258789,67.05999755859375z"></path><path stroke-linecap="round" stroke-linejoin="round" fill-opacity="0" stroke="rgb(44,0,48)" stroke-opacity="1" stroke-width="8" d=" M78.2750015258789,67.05999755859375 C84.82499694824219,76.58100128173828 111.95500183105469,78.89800262451172 125.49600219726562,70.13099670410156 C128.2429962158203,72.50700378417969 130.24099731445312,75.91200256347656 126.75900268554688,77.96099853515625 C108.90299987792969,86.93900299072266 81.56999969482422,82.9540023803711 76.99600219726562,74.60700225830078 C75.23600006103516,71.75399780273438 77.40699768066406,67.80799865722656 78.2750015258789,67.05999755859375z"></path></g></g></g></svg>