<svg xmlns="http://www.w3.org/2000/svg" xmlns:xlink="http://www.w3.org/1999/xlink" viewBox="0 0 512 512" width="512" height="512" style="width: 100%; height: 100%; transform: translate3d(0,0,0); content-visibility: visible;" preserveAspectRatio="xMidYMid meet"><defs><clipPath id="__lottie_element_2"><rect width="512" height="512" x="0" y="0"></rect></clipPath><linearGradient id="__lottie_element_9" spreadMethod="pad" gradientUnits="userSpaceOnUse" x1="-1.0399999618530273" y1="-176.5" x2="0.9599999785423279" y2="188.88900756835938"><stop offset="0%" stop-color="rgb(253,207,24)"></stop><stop offset="47%" stop-color="rgb(245,171,12)"></stop><stop offset="93%" stop-color="rgb(237,135,0)"></stop></linearGradient><radialGradient id="__lottie_element_10" spreadMethod="pad" gradientUnits="userSpaceOnUse" cx="-6.039999961853027" cy="-160.1230010986328" r="342.6724710471032" fx="-6.039999961853027" fy="-160.1230010986328"><stop offset="7%" stop-color="rgb(254,254,226)"></stop><stop offset="28%" stop-color="rgb(253,238,140)"></stop><stop offset="49%" stop-color="rgb(252,222,54)"></stop><stop offset="82%" stop-color="rgb(245,184,32)"></stop><stop offset="100%" stop-color="rgb(238,145,10)"></stop></radialGradient></defs><g clip-path="url(#__lottie_element_2)"><g style="display: block;" transform="matrix(0.9999300241470337,0,0,1.0000699758529663,39.93409729003906,39.05029296875)" opacity="1"><g opacity="1" transform="matrix(1,0,0,1,215.6439971923828,215.64500427246094)"><path fill="url(#__lottie_element_9)" fill-opacity="1" d=" M194.9969940185547,0 C194.9969940185547,107.69400024414062 107.69300079345703,194.9969940185547 0,194.9969940185547 C-107.69400024414062,194.9969940185547 -194.9969940185547,107.69400024414062 -194.9969940185547,0 C-194.9969940185547,-107.69400024414062 -107.69400024414062,-194.9969940185547 0,-194.9969940185547 C107.69300079345703,-194.9969940185547 194.9969940185547,-107.69400024414062 194.9969940185547,0z"></path></g><g opacity="1" transform="matrix(1,0,0,1,215.70199584960938,213.7169952392578)"><path fill="url(#__lottie_element_10)" fill-opacity="1" d=" M173.80799865722656,2.6630001068115234 C172.3040008544922,100.77200317382812 93.26899719238281,179.11199951171875 -2.7230000495910645,177.63999938964844 C-98.71399688720703,176.16799926757812 -175.31199645996094,95.44499969482422 -173.80799865722656,-2.6640000343322754 C-172.3040008544922,-100.77300262451172 -93.26899719238281,-179.11199951171875 2.7230000495910645,-177.64100646972656 C98.71399688720703,-176.16900634765625 175.31199645996094,-95.44499969482422 173.80799865722656,2.6630001068115234z"></path></g><g opacity="1" transform="matrix(1,0,0,1,215.6439971923828,215.64500427246094)"><path stroke-linecap="butt" stroke-linejoin="miter" fill-opacity="0" stroke-miterlimit="10" stroke="rgb(231,105,0)" stroke-opacity="1" stroke-width="8.259" d=" M194.9969940185547,0 C194.9969940185547,107.69400024414062 107.69300079345703,194.9969940185547 0,194.9969940185547 C-107.69400024414062,194.9969940185547 -194.9969940185547,107.69400024414062 -194.9969940185547,0 C-194.9969940185547,-107.69400024414062 -107.69400024414062,-194.9969940185547 0,-194.9969940185547 C107.69300079345703,-194.9969940185547 194.9969940185547,-107.69400024414062 194.9969940185547,0z"></path></g></g><g style="display: block;" transform="matrix(0.9999300241470337,0,0,1.0000699758529663,114.81886291503906,260.1287841796875)" opacity="1"><g opacity="1" transform="matrix(1,0,0,1,140.6959991455078,71.60299682617188)"><path fill="rgb(234,172,31)" fill-opacity="1" d=" M0.057999998331069946,71.37300109863281 C-75.4990005493164,71.37300109863281 -140.44200134277344,-24.780000686645508 -138.6649932861328,-51.44499969482422 C-137.34100341796875,-71.30000305175781 -111.08399963378906,-40.534000396728516 0.054999999701976776,-38.13600158691406 C111.18800354003906,-40.53300094604492 137.12899780273438,-71.2760009765625 138.77999877929688,-51.44499969482422 C140.44500732421875,-31.427000045776367 75.61499786376953,71.37300109863281 0.057999998331069946,71.37300109863281z"></path></g><g opacity="1" transform="matrix(1,0,0,1,140.7519989013672,81.91100311279297)"><path fill="rgb(254,221,120)" fill-opacity="1" d=" M-0.0010000000474974513,-40.314998626708984 C-117.75800323486328,-42.9640007019043 -138.76600646972656,-76.80500030517578 -138.76600646972656,-51.65399932861328 C-138.76600646972656,18.59600067138672 -77.85199737548828,76.86699676513672 0.0020000000949949026,76.86699676513672 C77.85600280761719,76.86699676513672 138.76800537109375,18.594999313354492 138.76800537109375,-51.654998779296875 C138.76800537109375,-76.80599975585938 117.75599670410156,-42.9640007019043 -0.0010000000474974513,-40.314998626708984z"></path></g><g opacity="1" transform="matrix(1,0,0,1,140.7519989013672,78.8270034790039)"><path fill="rgb(151,72,0)" fill-opacity="1" d=" M137.06199645996094,-49.63199996948242 C137.06199645996094,16.014999389648438 74.625,71.37000274658203 0.0020000000949949026,71.37000274658203 C-74.62200164794922,71.37000274658203 -137.0590057373047,16.014999389648438 -137.0590057373047,-49.63199996948242 C-137.0590057373047,-50.28200149536133 -137.03900146484375,-50.87900161743164 -137.00799560546875,-51.446998596191406 C-135.7689971923828,-71.30699920654297 -109.76599884033203,-40.54199981689453 -0.0010000000474974513,-38.13800048828125 C109.76200103759766,-40.54199981689453 135.77200317382812,-71.30699920654297 137.00999450683594,-51.446998596191406 C137.04100036621094,-50.87900161743164 137.06199645996094,-50.28200149536133 137.06199645996094,-49.63199996948242z"></path></g><g opacity="1" transform="matrix(1,0,0,1,0,0)"><g opacity="1" transform="matrix(1,0,0,1,0,0)"><g opacity="1" transform="matrix(1,0,0,1,140.8560028076172,58.994998931884766)"><path fill="rgb(99,41,0)" fill-opacity="1" d=" M116.70700073242188,8.406000137329102 C111.93000030517578,17.709999084472656 66.00499725341797,36.880001068115234 1.0759999752044678,36.880001068115234 C-64.44400024414062,36.880001068115234 -112.40499877929688,17.979999542236328 -116.53500366210938,8.83899974822998 C-121.01699829101562,-2.0380001068115234 -124.70600128173828,-17.979999542236328 -124.68499755859375,-18.509000778198242 C-123.58000183105469,-36.90299987792969 -96.64700317382812,-4.2270002365112305 1.0889999866485596,-1.99399995803833 C98.83699798583984,-4.2270002365112305 123.58499908447266,-35.81999969482422 124.68800354003906,-17.426000595092773 C124.70899963378906,-16.89699935913086 120.97100067138672,-1.878999948501587 116.70700073242188,8.406000137329102z"></path></g><g opacity="1" transform="matrix(1,0,0,1,140.8560028076172,55.33399963378906)"><path fill="rgb(244,244,244)" fill-opacity="1" d=" M124.73100280761719,-13.595000267028809 C123.7699966430664,-4.99399995803833 120.97000122070312,3.6500000953674316 116.70700073242188,12.065999984741211 C106.78600311279297,15.98799991607666 64.85199737548828,30.902000427246094 -0.0949999988079071,30.902000427246094 C-65.62300109863281,30.902000427246094 -105.58200073242188,16.88800048828125 -116.53500366210938,12.49899959564209 C-121.01699829101562,3.5989999771118164 -123.86000061035156,-5.51200008392334 -124.72699737548828,-14.482000350952148 C-124.77899932861328,-14.97599983215332 -124.70600128173828,-15.430999755859375 -124.68499755859375,-15.86400032043457 C-123.58200073242188,-30.916000366210938 -97.83599853515625,-4.3979997634887695 -0.0989999994635582,-2.571000099182129 C97.64700317382812,-4.396999835968018 123.58499908447266,-30.02899932861328 124.68900299072266,-14.97700023651123 C124.70999908447266,-14.543000221252441 124.78199768066406,-14.08899974822998 124.73100280761719,-13.595000267028809z"></path></g><g opacity="1" transform="matrix(1,0,0,1,140.46299743652344,50.775001525878906)"><path fill="rgb(200,213,214)" fill-opacity="1" d=" M123.65899658203125,-15.258999824523926 C119.19999694824219,-22.461000442504883 97.70600128173828,-0.6330000162124634 0.33899998664855957,-0.625 C-97.02999877929688,-0.6349999904632568 -119.1989974975586,-23.079999923706055 -123.65699768066406,-15.873000144958496 C-128.23899841308594,-8.479000091552734 -119.26699829101562,11.895000457763672 -116.53099822998047,17.058000564575195 C-112.22000122070312,18.767000198364258 -106.48999786376953,20.854999542236328 -98.5009994506836,23.089000701904297 C-103.75199890136719,19.011999130249023 -111.04399871826172,2.869999885559082 -101.84400177001953,-1.1239999532699585 C-87.72000122070312,-6.2179999351501465 -63.040000915527344,3.2130000591278076 0.2840000092983246,3.2130000591278076 C63.608001708984375,3.2130000591278076 89.48699951171875,-6.313000202178955 103.61100006103516,-1.2170000076293945 C114.35299682617188,2.990000009536743 105.98600006103516,18.402000427246094 102.46199798583984,21.624000549316406 C110.3759994506836,19.270000457763672 112.79100036621094,18.339000701904297 117.10199737548828,16.625 C119.83300018310547,11.458000183105469 128.24200439453125,-7.855999946594238 123.65899658203125,-15.258999824523926z"></path></g></g></g><g opacity="1" transform="matrix(1,0,0,1,140.74899291992188,55.04999923706055)"><path fill="rgb(99,41,0)" fill-opacity="1" d=" M108.1989974975586,47.54899978637695 C118.64700317382812,29.937000274658203 124.64199829101562,9.656000137329102 124.64199829101562,-11.699999809265137 C124.64199829101562,-12.35099983215332 124.63099670410156,-12.949000358581543 124.5999984741211,-13.515999794006348 C123.4749984741211,-33.375999450683594 99.81999969482422,-4.498000144958496 -0.0010000000474974513,-2.0929999351501465 C-99.81300354003906,-4.498000144958496 -123.46299743652344,-33.375999450683594 -124.58799743652344,-13.515999794006348 C-124.61900329589844,-12.949000358581543 -124.63899993896484,-12.35099983215332 -124.63899993896484,-11.699999809265137 C-124.63899993896484,9.666000366210938 -118.62100219726562,29.945999145507812 -108.1709976196289,47.57400131225586 C-126.22200012207031,27.066999435424805 -137.0590057373047,1.496000051498413 -137.0590057373047,-25.854999542236328 C-137.0590057373047,-26.5049991607666 -137.03900146484375,-27.10300064086914 -137.00799560546875,-27.67099952697754 C-135.7689971923828,-47.53099822998047 -109.7699966430664,-16.749000549316406 -0.008999999612569809,-14.357999801635742 C109.75,-16.749000549316406 135.77099609375,-47.53099822998047 137.00999450683594,-27.67099952697754 C137.04100036621094,-27.10300064086914 137.06199645996094,-26.5049991607666 137.06199645996094,-25.854999542236328 C137.06199645996094,1.4850000143051147 126.2300033569336,27.048999786376953 108.1989974975586,47.54899978637695z"></path></g><g opacity="0" transform="matrix(0.7699999809265137,0,0,0.7699999809265137,-57.120452880859375,-195.04063415527344)"><g opacity="1" transform="matrix(1,0,0,1,256.45098876953125,374.59600830078125)"><path fill="rgb(99,41,0)" fill-opacity="1" d=" M0.18700000643730164,67.67500305175781 C63.89400100708008,67.67500305175781 115.02200317382812,16.461000442504883 138.49200439453125,-9.01200008392334 C106.72100067138672,30.39299964904785 52.404998779296875,70.19400024414062 1.6749999523162842,70.19400024414062 C-53.91400146484375,70.19400024414062 -107.21900177001953,30.33799934387207 -138.14199829101562,-8.45199966430664 C-106.5719985961914,20.50200080871582 -64.46399688720703,67.67500305175781 0.18700000643730164,67.67500305175781z"></path></g><g opacity="1" transform="matrix(1,0,0,1,255.9980010986328,365.23199462890625)"><path fill="rgb(245,245,245)" fill-opacity="1" d=" M0.18700000643730164,67.67500305175781 C63.89400100708008,67.67500305175781 115.02200317382812,16.461000442504883 138.49200439453125,-9.01200008392334 C106.72100067138672,30.39299964904785 52.404998779296875,70.19400024414062 1.6749999523162842,70.19400024414062 C-53.91400146484375,70.19400024414062 -107.21900177001953,30.33799934387207 -138.14199829101562,-8.45199966430664 C-106.5719985961914,20.50200080871582 -64.46399688720703,67.67500305175781 0.18700000643730164,67.67500305175781z"></path></g><g opacity="1" transform="matrix(1,0,0,1,255.9980010986328,365.23199462890625)"><path fill="rgb(199,209,209)" fill-opacity="1" d=" M132.90499877929688,-3.493000030517578 C127.90599822998047,0.5199999809265137 125.91999816894531,8.187999725341797 119.39099884033203,9.621999740600586 C119.39099884033203,9.621999740600586 119.39099884033203,9.6899995803833 119.39099884033203,9.6899995803833 C119.39099884033203,9.6899995803833 119.40399932861328,10.196000099182129 119.40399932861328,10.196000099182129 C119.40399932861328,10.196000099182129 77.51399993896484,69.26000213623047 0.23800000548362732,69.26000213623047 C-76.89399719238281,69.26000213623047 -118.35299682617188,10.420000076293945 -118.35299682617188,10.420000076293945 C-118.35299682617188,10.420000076293945 -118.35299682617188,10.406999588012695 -118.35299682617188,10.406999588012695 C-127.7979965209961,8.329999923706055 -132.85400390625,-3.746000051498413 -138.14199829101562,-8.45199966430664 C-107.49299621582031,29.996999740600586 -54.832000732421875,69.71499633789062 0.23800000548362732,70.18000030517578 C0.25200000405311584,70.18000030517578 0.25099998712539673,70.18000030517578 0.26499998569488525,70.18000030517578 C0.7300000190734863,70.19400024414062 1.2100000381469727,70.19400024414062 1.6749999523162842,70.19400024414062 C52.404998779296875,70.19400024414062 106.72100067138672,30.39299964904785 138.49200439453125,-9.01200008392334 C136.34300231933594,-8.383999824523926 134.97900390625,-5.1579999923706055 132.90499877929688,-3.493000030517578z"></path></g></g></g><g style="display: block;" transform="matrix(0.9999300241470337,0,0,1.0000699758529663,0.01788330078125,-1.030487060546875)" opacity="1"><g opacity="1" transform="matrix(0.8640000224113464,0,0,0.8640000224113464,19.567184448242188,115.565185546875)"><g opacity="1" transform="matrix(1,0,0,1,188.8800048828125,201.77099609375)"><path fill="rgb(255,226,166)" fill-opacity="1" d=" M20.06999969482422,-104.37799835205078 C-13.223999977111816,-104.43499755859375 -18.052000045776367,-67.7750015258789 -15.873000144958496,-36.38199996948242 C-6.572000026702881,-15.770000457763672 -6.10099983215332,-62.88999938964844 18.47599983215332,-62.77799987792969 C44.465999603271484,-62.659000396728516 43.76499938964844,-16.200000762939453 53.95500183105469,-36.35599899291992 C60.80699920654297,-60.49599838256836 52.17300033569336,-104.322998046875 20.06999969482422,-104.37799835205078z"></path></g><g opacity="1" transform="matrix(1,0,0,1,188.8800048828125,189.71099853515625)"><path fill="rgb(234,172,31)" fill-opacity="1" d=" M19.339000701904297,-108.83899688720703 C-16.937999725341797,-108.76100158691406 -23.05500030517578,-67.26399993896484 -17.243000030517578,-42.874000549316406 C-11.772000312805176,-19.913999557495117 -2.200000047683716,-69.26300048828125 18.70199966430664,-69.26300048828125 C39.60599899291992,-69.26300048828125 49.90800094604492,-19.62299919128418 55.32600021362305,-42.59700012207031 C60.74399948120117,-65.57099914550781 56.551998138427734,-108.91899871826172 19.339000701904297,-108.83899688720703z"></path></g><g opacity="1" transform="matrix(1,0,0,1,188.87899780273438,195.73199462890625)"><path fill="rgb(151,72,0)" fill-opacity="1" d=" M19.516000747680664,-100.4469985961914 C-13.633999824523926,-100.45899963378906 -24.14900016784668,-63.03300094604492 -16.57900047302246,-38.152000427246094 C-8.951000213623047,-13.081000328063965 -10.710000038146973,-62.215999603271484 18.850000381469727,-62.38800048828125 C48.44599914550781,-62.56100082397461 45.590999603271484,-17.266000747680664 53.95500183105469,-36.19499969482422 C62.34400177001953,-55.18199920654297 53.14500045776367,-100.43499755859375 19.516000747680664,-100.4469985961914z"></path></g><g opacity="1" transform="matrix(1,0,0,1,188.88099670410156,182.07400512695312)"><path fill="rgb(99,41,0)" fill-opacity="1" d=" M19.5,-94.38300323486328 C-15.928999900817871,-93.98200225830078 -21.531999588012695,-48.077999114990234 -17.841999053955078,-34.525001525878906 C-17.349000930786133,-32.7140007019043 -16.85099983215332,-30.920000076293945 -16.301000595092773,-29.18400001525879 C-20.007999420166016,-53.91999816894531 -6.710999965667725,-84.43000030517578 19.378999710083008,-84.39299774169922 C45.79800033569336,-84.3550033569336 57.57400131225586,-50.65999984741211 54.084999084472656,-27.03499984741211 C55.08100128173828,-29.055999755859375 56.4900016784668,-32.3380012512207 57.06700134277344,-40.34400177001953 C57.64400100708008,-48.349998474121094 53.22700119018555,-94.76499938964844 19.5,-94.38300323486328z"></path></g></g><g opacity="1" transform="matrix(0.8640000224113464,0,0,0.8640000224113464,132.0671844482422,115.565185546875)"><g opacity="1" transform="matrix(-1,0,0,1,415.8599853515625,0)"><g opacity="1" transform="matrix(1,0,0,1,188.8800048828125,201.77099609375)"><path fill="rgb(255,226,166)" fill-opacity="1" d=" M20.06999969482422,-104.37799835205078 C-13.223999977111816,-104.43499755859375 -18.052000045776367,-67.7750015258789 -15.873000144958496,-36.38199996948242 C-6.572000026702881,-15.770000457763672 -6.10099983215332,-62.88999938964844 18.47599983215332,-62.77799987792969 C44.465999603271484,-62.659000396728516 43.76499938964844,-16.200000762939453 53.95500183105469,-36.35599899291992 C60.80699920654297,-60.49599838256836 52.17300033569336,-104.322998046875 20.06999969482422,-104.37799835205078z"></path></g><g opacity="1" transform="matrix(1,0,0,1,188.8800048828125,189.71099853515625)"><path fill="rgb(234,172,31)" fill-opacity="1" d=" M19.339000701904297,-108.83899688720703 C-16.937999725341797,-108.76100158691406 -23.05500030517578,-67.26399993896484 -17.243000030517578,-42.874000549316406 C-11.772000312805176,-19.913999557495117 -2.200000047683716,-69.26300048828125 18.70199966430664,-69.26300048828125 C39.60599899291992,-69.26300048828125 49.90800094604492,-19.62299919128418 55.32600021362305,-42.59700012207031 C60.74399948120117,-65.57099914550781 56.551998138427734,-108.91899871826172 19.339000701904297,-108.83899688720703z"></path></g><g opacity="1" transform="matrix(1,0,0,1,188.87899780273438,195.73199462890625)"><path fill="rgb(151,72,0)" fill-opacity="1" d=" M19.516000747680664,-100.4469985961914 C-13.633999824523926,-100.45899963378906 -24.14900016784668,-63.03300094604492 -16.57900047302246,-38.152000427246094 C-8.951000213623047,-13.081000328063965 -10.710000038146973,-62.215999603271484 18.850000381469727,-62.38800048828125 C48.44599914550781,-62.56100082397461 45.590999603271484,-17.266000747680664 53.95500183105469,-36.19499969482422 C62.34400177001953,-55.18199920654297 53.14500045776367,-100.43499755859375 19.516000747680664,-100.4469985961914z"></path></g><g opacity="1" transform="matrix(1,0,0,1,188.88099670410156,182.07400512695312)"><path fill="rgb(99,41,0)" fill-opacity="1" d=" M19.5,-94.38300323486328 C-15.928999900817871,-93.98200225830078 -21.531999588012695,-48.077999114990234 -17.841999053955078,-34.525001525878906 C-17.349000930786133,-32.7140007019043 -16.85099983215332,-30.920000076293945 -16.301000595092773,-29.18400001525879 C-20.007999420166016,-53.91999816894531 -6.710999965667725,-84.43000030517578 19.378999710083008,-84.39299774169922 C45.79800033569336,-84.3550033569336 57.57400131225586,-50.65999984741211 54.084999084472656,-27.03499984741211 C55.08100128173828,-29.055999755859375 56.4900016784668,-32.3380012512207 57.06700134277344,-40.34400177001953 C57.64400100708008,-48.349998474121094 53.22700119018555,-94.76499938964844 19.5,-94.38300323486328z"></path></g></g></g></g></g></svg>