<svg xmlns="http://www.w3.org/2000/svg" xmlns:xlink="http://www.w3.org/1999/xlink" viewBox="0 0 512 512" width="512" height="512" style="width: 100%; height: 100%; transform: translate3d(0,0,0); content-visibility: visible;" preserveAspectRatio="xMidYMid meet"><defs><clipPath id="__lottie_element_2"><rect width="512" height="512" x="0" y="0"></rect></clipPath><linearGradient id="__lottie_element_15" spreadMethod="pad" gradientUnits="userSpaceOnUse" x1="-12.585000038146973" y1="-194.57899475097656" x2="-3.5820000171661377" y2="160.69700622558594"><stop offset="0%" stop-color="rgb(253,207,24)"></stop><stop offset="48%" stop-color="rgb(245,171,12)"></stop><stop offset="100%" stop-color="rgb(237,135,0)"></stop></linearGradient><linearGradient id="__lottie_element_22" spreadMethod="pad" gradientUnits="userSpaceOnUse" x1="-1.0399999618530273" y1="-176.5" x2="0.9599999785423279" y2="188.88900756835938"><stop offset="0%" stop-color="rgb(253,207,24)"></stop><stop offset="47%" stop-color="rgb(245,171,12)"></stop><stop offset="93%" stop-color="rgb(237,135,0)"></stop></linearGradient><radialGradient id="__lottie_element_23" spreadMethod="pad" gradientUnits="userSpaceOnUse" cx="-6.039999961853027" cy="-160.1230010986328" r="342.6724710471032" fx="-6.039999961853027" fy="-160.1230010986328"><stop offset="7%" stop-color="rgb(254,254,226)"></stop><stop offset="28%" stop-color="rgb(253,238,140)"></stop><stop offset="49%" stop-color="rgb(252,222,54)"></stop><stop offset="82%" stop-color="rgb(245,184,32)"></stop><stop offset="100%" stop-color="rgb(238,145,10)"></stop></radialGradient></defs><g clip-path="url(#__lottie_element_2)"><g style="display: block;" transform="matrix(1.0329999923706055,0,0,1.0329999923706055,240.50497436523438,267.0660095214844)" opacity="1"><g opacity="1" transform="matrix(0.9700000286102295,0,0,0.9700000286102295,-193.74868774414062,-220.0076904296875)"><g opacity="1" transform="matrix(1,0,0,1,215.6439971923828,215.64500427246094)"><path fill="url(#__lottie_element_22)" fill-opacity="1" d=" M194.9969940185547,0 C194.9969940185547,107.69400024414062 107.69300079345703,194.9969940185547 0,194.9969940185547 C-107.69400024414062,194.9969940185547 -194.9969940185547,107.69400024414062 -194.9969940185547,0 C-194.9969940185547,-107.69400024414062 -107.69400024414062,-194.9969940185547 0,-194.9969940185547 C107.69300079345703,-194.9969940185547 194.9969940185547,-107.69400024414062 194.9969940185547,0z"></path></g><g opacity="1" transform="matrix(1,0,0,1,215.70199584960938,213.7169952392578)"><path fill="url(#__lottie_element_23)" fill-opacity="1" d=" M173.80799865722656,2.6630001068115234 C172.3040008544922,100.77200317382812 93.26899719238281,179.11199951171875 -2.7230000495910645,177.63999938964844 C-98.71399688720703,176.16799926757812 -175.31199645996094,95.44499969482422 -173.80799865722656,-2.6640000343322754 C-172.3040008544922,-100.77300262451172 -93.26899719238281,-179.11199951171875 2.7230000495910645,-177.64100646972656 C98.71399688720703,-176.16900634765625 175.31199645996094,-95.44499969482422 173.80799865722656,2.6630001068115234z"></path></g><g opacity="1" transform="matrix(1,0,0,1,215.6439971923828,215.64500427246094)"><path stroke-linecap="butt" stroke-linejoin="miter" fill-opacity="0" stroke-miterlimit="10" stroke="rgb(231,105,0)" stroke-opacity="1" stroke-width="8.259" d=" M194.9969940185547,0 C194.9969940185547,107.69400024414062 107.69300079345703,194.9969940185547 0,194.9969940185547 C-107.69400024414062,194.9969940185547 -194.9969940185547,107.69400024414062 -194.9969940185547,0 C-194.9969940185547,-107.69400024414062 -107.69400024414062,-194.9969940185547 0,-194.9969940185547 C107.69300079345703,-194.9969940185547 194.9969940185547,-107.69400024414062 194.9969940185547,0z"></path></g></g></g><g style="display: block;" transform="matrix(1.0329999923706055,0,0,1.0329999923706055,240.50497436523438,267.0660705566406)" opacity="1"><g opacity="1" transform="matrix(1,0,0,1,0,0)"><path fill="rgb(254,221,120)" fill-opacity="1" d=" M60.21099853515625,100.46600341796875 C48.88600158691406,88.29199981689453 -17.885000228881836,88.29199981689453 -29.209999084472656,100.46600341796875 C-39.49599838256836,111.52300262451172 -40.29100036621094,121.75199890136719 -36.948001861572266,123.03800201416016 C-32.75,124.65299987792969 -14.418000221252441,105.90299987792969 15.479999542236328,105.58100128173828 C45.37799835205078,105.90299987792969 63.71099853515625,124.65299987792969 67.90899658203125,123.03800201416016 C71.25199890136719,121.75199890136719 70.49700164794922,111.52300262451172 60.21099853515625,100.46600341796875z"></path></g><g opacity="1" transform="matrix(1,0,0,1,0,0)"><path fill="rgb(234,172,31)" fill-opacity="1" d=" M57.13800048828125,90.38099670410156 C45.8129997253418,78.20700073242188 30.190000534057617,68.49500274658203 15.479999542236328,68.49500274658203 C0.746999979019165,68.49500274658203 -14.85200023651123,78.20700073242188 -26.177000045776367,90.38099670410156 C-36.4630012512207,101.43800354003906 -40.29100036621094,117.76499938964844 -36.948001861572266,119.0510025024414 C-32.75,120.66600036621094 -14.418000221252441,96.81700134277344 15.479999542236328,96.49500274658203 C45.37799835205078,96.81700134277344 63.71099853515625,120.66600036621094 67.90899658203125,119.0510025024414 C71.25199890136719,117.76499938964844 67.42400360107422,101.43800354003906 57.13800048828125,90.38099670410156z"></path></g><g opacity="1" transform="matrix(1,0,0,1,0,0)"><path fill="rgb(151,72,0)" fill-opacity="1" d=" M57.13800048828125,96.38099670410156 C45.8129997253418,84.20700073242188 30.190000534057617,74.49500274658203 15.479999542236328,74.49500274658203 C0.746999979019165,74.49500274658203 -14.85200023651123,84.20700073242188 -26.177000045776367,96.38099670410156 C-36.4630012512207,107.43800354003906 -40.29100036621094,117.66600036621094 -36.948001861572266,118.9520034790039 C-32.75,120.56700134277344 -14.418000221252441,101.81700134277344 15.479999542236328,101.49500274658203 C45.37799835205078,101.81700134277344 63.71099853515625,120.56700134277344 67.90899658203125,118.9520034790039 C71.25199890136719,117.66600036621094 67.42400360107422,107.43800354003906 57.13800048828125,96.38099670410156z"></path></g><g opacity="1" transform="matrix(1,0,0,1,0,0)"><path fill="rgb(99,41,0)" fill-opacity="1" d=" M68.29299926757812,118.73600006103516 C66.75299835205078,114.47599792480469 62.99300003051758,108.45600128173828 57.132999420166016,102.16600036621094 C45.8129997253418,89.99600219726562 30.19300079345703,81.2760009765625 15.482999801635742,81.2760009765625 C0.7429999709129333,81.2760009765625 -14.847000122070312,89.99600219726562 -26.177000045776367,102.16600036621094 C-32.027000427246094,108.45600128173828 -35.7869987487793,114.47599792480469 -37.32699966430664,118.73600006103516 C-39.957000732421875,116.80599975585938 -36.0369987487793,106.97599792480469 -26.177000045776367,96.3759994506836 C-14.847000122070312,84.20600128173828 0.7429999709129333,74.49600219726562 15.482999801635742,74.49600219726562 C30.19300079345703,74.49600219726562 45.8129997253418,84.20600128173828 57.132999420166016,96.3759994506836 C66.99299621582031,106.97599792480469 70.9229965209961,116.80599975585938 68.29299926757812,118.73600006103516z"></path></g></g><g style="display: block;" transform="matrix(1.0329999923706055,0,0,1.0329999923706055,240.50502014160156,267.0660095214844)" opacity="0.8"><g opacity="1" transform="matrix(1,0,0,1,20,10)"><path fill="url(#__lottie_element_15)" fill-opacity="1" d=" M-171.6820068359375,-82.322998046875 C-170.5,-42.5 -137,-31 -101.5,-34.04100036621094 C-70.97000122070312,-36.65599822998047 -48.069000244140625,-61.10200119018555 -49.21799850463867,-91.7229995727539 C-51,-139.22500610351562 -85.41600036621094,-183.16700744628906 -85.41600036621094,-183.16700744628906 C-85.41600036621094,-183.16700744628906 -173.32899475097656,-137.83599853515625 -171.6820068359375,-82.322998046875z"></path></g></g><g style="display: block;" transform="matrix(1.0329999923706055,0,0,1.0329999923706055,240.50514221191406,267.0668029785156)" opacity="1"><g opacity="1" transform="matrix(0.9975640773773193,-0.06975647062063217,0.06975647062063217,0.9975640773773193,-0.6970901489257812,-4.123748779296875)"><g opacity="1" transform="matrix(1,0,0,1,0,0)"><path fill="rgb(234,172,31)" fill-opacity="1" d=" M-17.17799949645996,9.600000381469727 C-17.17799949645996,24.4950008392334 -47.8489990234375,-5.605000019073486 -59.24700164794922,-5.605000019073486 C-70.6449966430664,-5.605000019073486 -100,19.59000015258789 -103.40499877929688,12.449000358581543 C-109.64900207519531,-0.6420000195503235 -77.73300170898438,-19.055999755859375 -59.6609992980957,-19.104000091552734 C-37.60100173950195,-19.16200065612793 -17.17799949645996,-5.295000076293945 -17.17799949645996,9.600000381469727z"></path></g><g opacity="1" transform="matrix(1,0,0,1,-0.004000000189989805,-0.9639999866485596)"><path fill="rgb(255,222,156)" fill-opacity="1" d=" M-13.553000450134277,13.843000411987305 C-11.196999549865723,27.76300048828125 -31.132999420166016,1.934999942779541 -59.694000244140625,2.3510000705718994 C-85.89399719238281,2.7330000400543213 -106.18599700927734,29.375 -104.97000122070312,17.684999465942383 C-103.43199920654297,2.8929998874664307 -87.24400329589844,-18.041000366210938 -58.92599868774414,-18.698999404907227 C-32.88600158691406,-19.304000854492188 -16.02899932861328,-0.7829999923706055 -13.553000450134277,13.843000411987305z"></path></g><g opacity="1" transform="matrix(1,0,0,1,0,0)"><path fill="rgb(151,72,0)" fill-opacity="1" d=" M-13.081999778747559,12.248000144958496 C-13.217000007629395,17.979000091552734 -30.291000366210938,-3.7019999027252197 -59.49700164794922,-3.3340001106262207 C-88.92500305175781,-2.9630000591278076 -103.25299835205078,21.829999923706055 -104.71700286865234,14.35099983215332 C-107.572998046875,-0.23999999463558197 -82.90399932861328,-20.099000930786133 -59.03099822998047,-19.676000595092773 C-38.03300094604492,-19.304000854492188 -12.732000350952148,-2.6419999599456787 -13.081999778747559,12.248000144958496z"></path></g><g opacity="1" transform="matrix(1,0,0,1,0,0)"><path fill="rgb(99,41,0)" fill-opacity="1" d=" M-13.079000473022461,12.645999908447266 C-17.45599937438965,0.7590000033378601 -35.40700149536133,-13.482000350952148 -58.81999969482422,-14.180999755859375 C-71.0270004272461,-14.545000076293945 -100.76499938964844,-3.825000047683716 -104.66300201416016,14.878000259399414 C-108.34600067138672,-8.734999656677246 -76.01000213623047,-21.992000579833984 -57.979000091552734,-21.902999877929688 C-42.33599853515625,-21.826000213623047 -11.258999824523926,-9.149999618530273 -13.079000473022461,12.645999908447266z"></path></g></g><g opacity="1" transform="matrix(0.9975640773773193,0.06975647062063217,-0.06975647062063217,0.9975640773773193,1.2881088256835938,-6.332900047302246)"><g opacity="1" transform="matrix(1,0,0,1,0,0)"><path fill="rgb(234,172,31)" fill-opacity="1" d=" M133.52200317382812,9.972000122070312 C131.02200317382812,17.173999786376953 98.10900115966797,-10.932000160217285 86.53500366210938,-10.932000160217285 C74.96099853515625,-10.932000160217285 46.3390007019043,15.4399995803833 47.132999420166016,7.247000217437744 C48.569000244140625,-7.560999870300293 77.63300323486328,-19.47599983215332 89.20700073242188,-19.47599983215332 C100.78099822998047,-19.47599983215332 138.33999633789062,-3.9100000858306885 133.52200317382812,9.972000122070312z"></path></g><g opacity="1" transform="matrix(1,0,0,1,-0.004000000189989805,-0.9639999866485596)"><path fill="rgb(255,222,156)" fill-opacity="1" d=" M136.3300018310547,16.195999145507812 C136.3300018310547,31.090999603271484 120.12200164794922,2.9619998931884766 89.83000183105469,2.4769999980926514 C60.41899871826172,2.00600004196167 41.13600158691406,28.19300079345703 43.104000091552734,13.592000007629395 C45.0890007019043,-1.1360000371932983 76.45999908447266,-11.762999534606934 88.03399658203125,-11.762999534606934 C99.60800170898438,-11.762999534606934 136.3300018310547,1.3009999990463257 136.3300018310547,16.195999145507812z"></path></g><g opacity="1" transform="matrix(1,0,0,1,0,0)"><path fill="rgb(151,72,0)" fill-opacity="1" d=" M135.4709930419922,14.973999977111816 C133.8800048828125,20.5049991607666 122.78099822998047,-2.8519999980926514 89.11900329589844,-3.453000068664551 C58.04999923706055,-4.007999897003174 45.10599899291992,19.152999877929688 43.691001892089844,11.62600040435791 C40.95000076293945,-2.9489998817443848 67.9219970703125,-20.87299919128418 86.43399810791016,-20.542999267578125 C110.75700378417969,-20.108999252319336 140.4669952392578,-2.3959999084472656 135.4709930419922,14.973999977111816z"></path></g><g opacity="1" transform="matrix(1,0,0,1,0,0)"><path fill="rgb(99,41,0)" fill-opacity="1" d=" M135.30999755859375,15.12600040435791 C134.0780029296875,1.8700000047683716 108.83300018310547,-15.593999862670898 85.26200103759766,-13.8100004196167 C71.93499755859375,-12.802000045776367 49.75899887084961,-3.2720000743865967 44.07899856567383,12.524999618530273 C40.52000045776367,-2.2730000019073486 63.617000579833984,-21.80699920654297 88.2490005493164,-21.7810001373291 C109.69999694824219,-21.757999420166016 139.302001953125,-6.341000080108643 135.30999755859375,15.12600040435791z"></path></g></g></g><g style="display: block;" transform="matrix(1.0329999923706055,0,0,1.0329999923706055,240.50497436523438,267.0660095214844)" opacity="1"><g opacity="1" transform="matrix(1,0,0,1,0,0)"><g opacity="1" transform="matrix(1,0,0,1,0,-0.9679999947547913)"><path fill="rgb(234,172,31)" fill-opacity="1" d=" M40.619998931884766,16.80299949645996 C39.07699966430664,12.003000259399414 48.590999603271484,-5.482999801635742 71.1050033569336,-13.083000183105469 C102.18900299072266,-23.576000213623047 140.4530029296875,-5.7829999923706055 143.4770050048828,16.076000213623047 C145.79100036621094,32.803001403808594 127.2770004272461,8.65999984741211 91.45600128173828,8.946000099182129 C53.185001373291016,9.251999855041504 43.34400177001953,25.277000427246094 40.619998931884766,16.80299949645996z"></path></g><g opacity="1" transform="matrix(1,0,0,1,0,-0.9679999947547913)"><path fill="rgb(254,222,155)" fill-opacity="1" d=" M40.619998931884766,16.80299949645996 C39.07699966430664,12.003000259399414 48.590999603271484,-5.482999801635742 71.1050033569336,-13.083000183105469 C102.18900299072266,-23.576000213623047 140.4530029296875,-5.7829999923706055 143.4770050048828,16.076000213623047 C145.79100036621094,32.803001403808594 127.2770004272461,8.65999984741211 91.45600128173828,8.946000099182129 C53.185001373291016,9.251999855041504 43.34400177001953,25.277000427246094 40.619998931884766,16.80299949645996z"></path></g><g opacity="1" transform="matrix(1,0,0,1,0,0)"><path fill="rgb(151,72,0)" fill-opacity="1" d=" M40.619998931884766,11.003000259399414 C39.07699966430664,6.203000068664551 48.590999603271484,-11.282999992370605 71.1050033569336,-18.882999420166016 C102.18900299072266,-29.375999450683594 140.4530029296875,-11.583000183105469 143.4770050048828,10.276000022888184 C145.79100036621094,27.003000259399414 127.2770004272461,2.859999895095825 91.45600128173828,3.1459999084472656 C53.185001373291016,3.4519999027252197 43.34400177001953,19.476999282836914 40.619998931884766,11.003000259399414z"></path></g><g opacity="1" transform="matrix(1,0,0,1,0,0)"><path fill="rgb(99,41,0)" fill-opacity="1" d=" M142.91400146484375,15.522000312805176 C137.2740020751953,-5.058000087738037 100.89399719238281,-20.97800064086914 71.10399627685547,-10.928000450134277 C54.534000396728516,-5.3379998207092285 45.00400161743164,5.623000144958496 41.75400161743164,12.92300033569336 C41.284000396728516,12.52299976348877 40.91400146484375,11.902999877929688 40.624000549316406,11.003000259399414 C39.07400131225586,6.203000068664551 48.59400177001953,-11.286999702453613 71.10399627685547,-18.886999130249023 C102.19400024414062,-29.37700080871582 140.45399475097656,-11.588000297546387 143.4739990234375,10.272000312805176 C143.86399841308594,13.052000045776367 143.6739959716797,14.70199966430664 142.91400146484375,15.522000312805176z"></path></g></g><g opacity="1" transform="matrix(1,0,0,1,0,0)"><g opacity="1" transform="matrix(1,0,0,1,0,-0.9679999947547913)"><path fill="rgb(234,172,31)" fill-opacity="1" d=" M-9.64900016784668,16.80299949645996 C-8.105999946594238,12.003000259399414 -17.621000289916992,-5.482999801635742 -40.1349983215332,-13.083000183105469 C-71.21900177001953,-23.576000213623047 -109.48200225830078,-5.7829999923706055 -112.50599670410156,16.076000213623047 C-114.81999969482422,32.803001403808594 -96.30599975585938,8.65999984741211 -60.48500061035156,8.946000099182129 C-22.214000701904297,9.251999855041504 -12.373000144958496,25.277000427246094 -9.64900016784668,16.80299949645996z"></path></g><g opacity="1" transform="matrix(1,0,0,1,0,-0.9679999947547913)"><path fill="rgb(254,222,155)" fill-opacity="1" d=" M-9.64900016784668,16.80299949645996 C-8.105999946594238,12.003000259399414 -17.621000289916992,-5.482999801635742 -40.1349983215332,-13.083000183105469 C-71.21900177001953,-23.576000213623047 -109.48200225830078,-5.7829999923706055 -112.50599670410156,16.076000213623047 C-114.81999969482422,32.803001403808594 -96.30599975585938,8.65999984741211 -60.48500061035156,8.946000099182129 C-22.214000701904297,9.251999855041504 -12.373000144958496,25.277000427246094 -9.64900016784668,16.80299949645996z"></path></g><g opacity="1" transform="matrix(1,0,0,1,0,0)"><path fill="rgb(151,72,0)" fill-opacity="1" d=" M-9.64900016784668,11.003000259399414 C-8.105999946594238,6.203000068664551 -17.621000289916992,-11.282999992370605 -40.1349983215332,-18.882999420166016 C-71.21900177001953,-29.375999450683594 -109.48200225830078,-11.583000183105469 -112.50599670410156,10.276000022888184 C-114.81999969482422,27.003000259399414 -96.30599975585938,2.859999895095825 -60.48500061035156,3.1459999084472656 C-22.214000701904297,3.4519999027252197 -12.373000144958496,19.476999282836914 -9.64900016784668,11.003000259399414z"></path></g><g opacity="1" transform="matrix(1,0,0,1,0,0)"><path fill="rgb(99,41,0)" fill-opacity="1" d=" M-9.645999908447266,11.003000259399414 C-9.935999870300293,11.902999877929688 -10.305999755859375,12.52299976348877 -10.776000022888184,12.92300033569336 C-14.03600025177002,5.61299991607666 -23.56599998474121,-5.3379998207092285 -40.13600158691406,-10.928000450134277 C-69.91600036621094,-20.97800064086914 -106.30599975585938,-5.058000087738037 -111.94599914550781,15.522000312805176 C-112.69599914550781,14.70199966430664 -112.88600158691406,13.052000045776367 -112.50599670410156,10.272000312805176 C-109.48600006103516,-11.588000297546387 -71.21600341796875,-29.37700080871582 -40.13600158691406,-18.886999130249023 C-17.615999221801758,-11.286999702453613 -8.105999946594238,6.203000068664551 -9.645999908447266,11.003000259399414z"></path></g></g></g><g style="display: block;" transform="matrix(1.0329999923706055,0,0,1.0329999923706055,240.50502014160156,267.0660095214844)" opacity="1"><g opacity="1" transform="matrix(1,0,0,1,0,0)"><path fill="rgb(58,162,222)" fill-opacity="1" d=" M-157.1820068359375,-89.322998046875 C-159.0749969482422,-58.73899841308594 -132.14199829101562,-33.93000030517578 -101.5,-34.04100036621094 C-70.85800170898438,-34.152000427246094 -45.069000244140625,-59.10200119018555 -46.21799850463867,-89.7229995727539 C-48,-137.22500610351562 -101.91600036621094,-218.66700744628906 -101.91600036621094,-218.66700744628906 C-101.91600036621094,-218.66700744628906 -153.75,-144.75399780273438 -157.1820068359375,-89.322998046875z"></path></g><g opacity="0.61" transform="matrix(1,0,0,1,0,0)"><g opacity="0.3" transform="matrix(1,0,0,1,0,0)"><path fill="rgb(144,243,253)" fill-opacity="1" d=" M-68.90499877929688,-44.36399841308594 C-56.0880012512207,-53.20399856567383 -55.99300003051758,-62.48899841308594 -56.0890007019043,-68.23899841308594 C-56.61600112915039,-98.1050033569336 -78.47100067138672,-121.93499755859375 -104.91699981689453,-121.46600341796875 C-122.1719970703125,-121.16300201416016 -154.69500732421875,-98.70999908447266 -146.43699645996094,-59.29499816894531 C-146.42100524902344,-59.29100036621094 -146.4250030517578,-59.2760009765625 -146.4290008544922,-59.2599983215332 C-118.06600189208984,-22.518999099731445 -81.72200012207031,-35.52399826049805 -68.90499877929688,-44.36399841308594z"></path></g><g opacity="0.4" transform="matrix(1,0,0,1,0,0)"><path fill="rgb(144,243,253)" fill-opacity="1" d=" M-62.74100112915039,-66.12100219726562 C-64.45500183105469,-91.06800079345703 -81.4729995727539,-111.06800079345703 -103.59200286865234,-110.6760025024414 C-125.72699737548828,-110.28800201416016 -142.86300659179688,-89.70600128173828 -142.86300659179688,-64.71499633789062 C-142.86300659179688,-27.83799934387207 -59.97200012207031,-25.801000595092773 -62.74100112915039,-66.12100219726562z"></path></g><g opacity="0.4" transform="matrix(1,0,0,1,0,0)"><path fill="rgb(144,243,253)" fill-opacity="1" d=" M-103.85299682617188,-100.68900299072266 C-121.86399841308594,-100.37200164794922 -135.81500244140625,-83.62799835205078 -135.8179931640625,-63.28200149536133 C-135.8249969482422,-23.25 -67.48400115966797,-20.229999542236328 -70.59300231933594,-64.42900085449219 C-72.02100372314453,-84.7239990234375 -85.84200286865234,-101.00599670410156 -103.85299682617188,-100.68900299072266z"></path></g><g opacity="0.4" transform="matrix(1,0,0,1,0,0)"><path fill="rgb(144,243,253)" fill-opacity="1" d=" M-102.9209976196289,-87.58300018310547 C-116.25199890136719,-87.3489990234375 -126.84500122070312,-74.9530029296875 -126.58000183105469,-59.89699935913086 C-126.31500244140625,-44.840999603271484 -115.4739990234375,-40.90800094604492 -102.14299774169922,-41.141998291015625 C-88.81199645996094,-41.375999450683594 -78.03800201416016,-45.6879997253418 -78.3030014038086,-60.744998931884766 C-78.56800079345703,-75.8010025024414 -89.58999633789062,-87.81700134277344 -102.9209976196289,-87.58300018310547z"></path></g></g><g opacity="0.55" transform="matrix(1,0,0,1,0,0)"><path fill="rgb(255,255,255)" fill-opacity="1" d=" M-134.65899658203125,-111.34500122070312 C-134.5959930419922,-93.94100189208984 -119.0719985961914,-79.88200378417969 -101.66799926757812,-79.94499969482422 C-84.26300048828125,-80.00800323486328 -68.84200286865234,-94.16899871826172 -68.90499877929688,-111.572998046875 C-68.95800018310547,-126.34300231933594 -92.76200103759766,-189.41000366210938 -99.96700286865234,-208.1649932861328 C-100.68399810791016,-210.03199768066406 -103.31999969482422,-210.02699279785156 -104.02899932861328,-208.15699768066406 C-111.15699768066406,-189.35899353027344 -134.71200561523438,-126.11599731445312 -134.65899658203125,-111.34500122070312z"></path></g><g opacity="1" transform="matrix(1,0,0,1,0,0)"><path stroke-linecap="round" stroke-linejoin="round" fill-opacity="0" stroke="rgb(0,109,196)" stroke-opacity="1" stroke-width="8" d=" M-157.1820068359375,-89.322998046875 C-157.1820068359375,-58.680999755859375 -132.14199829101562,-33.93000030517578 -101.5,-34.04100036621094 C-70.85800170898438,-34.152000427246094 -46.21799850463867,-59.08100128173828 -46.21799850463867,-89.7229995727539 C-46.21799850463867,-125.23799896240234 -84.75800323486328,-193.19400024414062 -97.82599639892578,-215.21600341796875 C-99.7750015258789,-218.50100708007812 -104.50700378417969,-218.5469970703125 -106.51200103759766,-215.29600524902344 C-119.58000183105469,-194.10800170898438 -157.1820068359375,-129.63999938964844 -157.1820068359375,-89.322998046875z"></path></g><g opacity="1" transform="matrix(1,0,0,1,0,0)"><g opacity="1" transform="matrix(1,0,0,1,0,0)"><path stroke-linecap="round" stroke-linejoin="round" fill-opacity="0" stroke="rgb(255,255,255)" stroke-opacity="1" stroke-width="6" d=" M-76.1449966430664,-137.22500610351562 C-76.1449966430664,-137.22500610351562 -75.62200164794922,-135.66400146484375 -75.62200164794922,-135.66400146484375"></path></g><g opacity="1" transform="matrix(1,0,0,1,0,0)"><path stroke-linecap="round" stroke-linejoin="round" fill-opacity="0" stroke="rgb(255,255,255)" stroke-opacity="1" stroke-width="6" d=" M-82.45600128173828,-156.0989990234375 C-82.45600128173828,-156.0989990234375 -79.81199645996094,-148.19200134277344 -79.81199645996094,-148.19200134277344"></path></g></g></g></g></svg>