<svg xmlns="http://www.w3.org/2000/svg" xmlns:xlink="http://www.w3.org/1999/xlink" viewBox="0 0 512 512" width="512" height="512" style="width: 100%; height: 100%; transform: translate3d(0,0,0); content-visibility: visible;" preserveAspectRatio="xMidYMid meet"><defs><clipPath id="__lottie_element_2"><rect width="512" height="512" x="0" y="0"></rect></clipPath><linearGradient id="__lottie_element_6" spreadMethod="pad" gradientUnits="userSpaceOnUse" x1="-42.584999084472656" y1="-187.49600219726562" x2="-30.570999145507812" y2="-149.2030029296875"><stop offset="0%" stop-color="rgb(219,110,0)" stop-opacity="0"></stop><stop offset="42%" stop-color="rgb(219,110,0)" stop-opacity="0.5"></stop><stop offset="100%" stop-color="rgb(219,110,0)" stop-opacity="1"></stop></linearGradient><linearGradient id="__lottie_element_7" spreadMethod="pad" gradientUnits="userSpaceOnUse" x1="35.915000915527344" y1="-186.24600219726562" x2="23.506000518798828" y2="-155.99899291992188"><stop offset="0%" stop-color="rgb(219,110,0)" stop-opacity="0"></stop><stop offset="42%" stop-color="rgb(219,110,0)" stop-opacity="0.5"></stop><stop offset="100%" stop-color="rgb(219,110,0)" stop-opacity="1"></stop></linearGradient><radialGradient id="__lottie_element_8" spreadMethod="pad" gradientUnits="userSpaceOnUse" cx="-1.5850000381469727" cy="111.48500061035156" r="169.22496594931124" fx="-1.5850000381469727" fy="111.48500061035156"><stop offset="17%" stop-color="rgb(51,142,218)"></stop><stop offset="83%" stop-color="rgb(26,104,177)"></stop><stop offset="100%" stop-color="rgb(0,66,137)"></stop></radialGradient><radialGradient id="__lottie_element_9" spreadMethod="pad" gradientUnits="userSpaceOnUse" cx="-177.322998046875" cy="-155.0279998779297" r="121.91702891577746" fx="-177.322998046875" fy="-155.0279998779297"><stop offset="33%" stop-color="rgb(51,142,218)" stop-opacity="1"></stop><stop offset="83%" stop-color="rgb(51,142,218)" stop-opacity="0.5"></stop><stop offset="100%" stop-color="rgb(51,142,218)" stop-opacity="0"></stop></radialGradient><radialGradient id="__lottie_element_10" spreadMethod="pad" gradientUnits="userSpaceOnUse" cx="-177.322998046875" cy="-155.0279998779297" r="121.91702891577746" fx="-177.322998046875" fy="-155.0279998779297"><stop offset="33%" stop-color="rgb(51,142,218)" stop-opacity="1"></stop><stop offset="83%" stop-color="rgb(51,142,218)" stop-opacity="0.5"></stop><stop offset="100%" stop-color="rgb(51,142,218)" stop-opacity="0"></stop></radialGradient><radialGradient id="__lottie_element_11" spreadMethod="pad" gradientUnits="userSpaceOnUse" cx="1.319000005722046" cy="112.22699737548828" r="114.88180504052212" fx="1.319000005722046" fy="112.22699737548828"><stop offset="15%" stop-color="rgb(0,66,137)" stop-opacity="1"></stop><stop offset="60%" stop-color="rgb(0,66,137)" stop-opacity="0.5"></stop><stop offset="90%" stop-color="rgb(0,66,137)" stop-opacity="0"></stop></radialGradient><linearGradient id="__lottie_element_12" spreadMethod="pad" gradientUnits="userSpaceOnUse" x1="205.9149932861328" y1="-155.24600219726562" x2="130.43600463867188" y2="-25.600000381469727"><stop offset="0%" stop-color="rgb(255,255,255)" stop-opacity="1"></stop><stop offset="50%" stop-color="rgb(255,255,255)" stop-opacity="0.5"></stop><stop offset="100%" stop-color="rgb(255,255,255)" stop-opacity="0"></stop></linearGradient><linearGradient id="__lottie_element_13" spreadMethod="pad" gradientUnits="userSpaceOnUse" x1="-204.0850067138672" y1="-152.24600219726562" x2="-126.45500183105469" y2="-26.485000610351562"><stop offset="0%" stop-color="rgb(255,255,255)" stop-opacity="1"></stop><stop offset="50%" stop-color="rgb(255,255,255)" stop-opacity="0.5"></stop><stop offset="100%" stop-color="rgb(255,255,255)" stop-opacity="0"></stop></linearGradient><linearGradient id="__lottie_element_18" spreadMethod="pad" gradientUnits="userSpaceOnUse" x1="-32.42599868774414" y1="-114.8030014038086" x2="-10.736000061035156" y2="-14.21500015258789"><stop offset="0%" stop-color="rgb(219,110,0)" stop-opacity="1"></stop><stop offset="38%" stop-color="rgb(219,110,0)" stop-opacity="0.5"></stop><stop offset="70%" stop-color="rgb(219,110,0)" stop-opacity="0"></stop></linearGradient><linearGradient id="__lottie_element_19" spreadMethod="pad" gradientUnits="userSpaceOnUse" x1="-3.9260001182556152" y1="-97.8550033569336" x2="-3.9260001182556152" y2="181.4320068359375"><stop offset="6%" stop-color="rgb(255,216,0)" stop-opacity="0"></stop><stop offset="15%" stop-color="rgb(255,216,0)" stop-opacity="0.5"></stop><stop offset="50%" stop-color="rgb(255,216,0)" stop-opacity="1"></stop><stop offset="89%" stop-color="rgb(255,216,0)" stop-opacity="0.5"></stop><stop offset="100%" stop-color="rgb(255,216,0)" stop-opacity="0"></stop></linearGradient><linearGradient id="__lottie_element_22" spreadMethod="pad" gradientUnits="userSpaceOnUse" x1="-77.88200378417969" y1="5.453999996185303" x2="-58.01900100708008" y2="35.27799987792969"><stop offset="0%" stop-color="rgb(66,0,0)"></stop><stop offset="37%" stop-color="rgb(118,40,0)"></stop><stop offset="100%" stop-color="rgb(170,80,0)"></stop></linearGradient><radialGradient id="__lottie_element_23" spreadMethod="pad" gradientUnits="userSpaceOnUse" cx="-59.92599868774414" cy="29.69700050354004" r="12.560997009277344" fx="-59.92599868774414" fy="29.69700050354004"><stop offset="0%" stop-color="rgb(246,175,0)" stop-opacity="1"></stop><stop offset="50%" stop-color="rgb(246,175,0)" stop-opacity="0.5"></stop><stop offset="100%" stop-color="rgb(246,175,0)" stop-opacity="0"></stop></radialGradient><linearGradient id="__lottie_element_24" spreadMethod="pad" gradientUnits="userSpaceOnUse" x1="-78.9260025024414" y1="-1.3029999732971191" x2="-78.9260025024414" y2="9.519000053405762"><stop offset="0%" stop-color="rgb(255,255,255)" stop-opacity="1"></stop><stop offset="60%" stop-color="rgb(255,255,255)" stop-opacity="0.5"></stop><stop offset="100%" stop-color="rgb(255,255,255)" stop-opacity="0"></stop></linearGradient><linearGradient id="__lottie_element_25" spreadMethod="pad" gradientUnits="userSpaceOnUse" x1="-77.54900360107422" y1="5.120999813079834" x2="-57.35499954223633" y2="35.11199951171875"><stop offset="0%" stop-color="rgb(66,0,0)"></stop><stop offset="37%" stop-color="rgb(118,40,0)"></stop><stop offset="100%" stop-color="rgb(170,80,0)"></stop></linearGradient><radialGradient id="__lottie_element_26" spreadMethod="pad" gradientUnits="userSpaceOnUse" cx="-59.92599868774414" cy="29.69700050354004" r="12.560997009277344" fx="-59.92599868774414" fy="29.69700050354004"><stop offset="0%" stop-color="rgb(246,175,0)" stop-opacity="1"></stop><stop offset="50%" stop-color="rgb(246,175,0)" stop-opacity="0.5"></stop><stop offset="100%" stop-color="rgb(246,175,0)" stop-opacity="0"></stop></radialGradient><linearGradient id="__lottie_element_27" spreadMethod="pad" gradientUnits="userSpaceOnUse" x1="-78.9260025024414" y1="-1.3029999732971191" x2="-78.9260025024414" y2="9.519000053405762"><stop offset="0%" stop-color="rgb(255,255,255)" stop-opacity="1"></stop><stop offset="60%" stop-color="rgb(255,255,255)" stop-opacity="0.5"></stop><stop offset="100%" stop-color="rgb(255,255,255)" stop-opacity="0"></stop></linearGradient><linearGradient id="__lottie_element_31" spreadMethod="pad" gradientUnits="userSpaceOnUse" x1="-3.9260001182556152" y1="89.5719985961914" x2="-3.9260001182556152" y2="111.40899658203125"><stop offset="0%" stop-color="rgb(255,168,0)" stop-opacity="1"></stop><stop offset="65%" stop-color="rgb(255,168,0)" stop-opacity="0.5"></stop><stop offset="100%" stop-color="rgb(255,168,0)" stop-opacity="0"></stop></linearGradient><linearGradient id="__lottie_element_32" spreadMethod="pad" gradientUnits="userSpaceOnUse" x1="-3.9260001182556152" y1="99.6969985961914" x2="-3.9260001182556152" y2="72.13500213623047"><stop offset="10%" stop-color="rgb(219,110,0)" stop-opacity="1"></stop><stop offset="51%" stop-color="rgb(219,110,0)" stop-opacity="0.5"></stop><stop offset="80%" stop-color="rgb(219,110,0)" stop-opacity="0"></stop></linearGradient><radialGradient id="__lottie_element_33" spreadMethod="pad" gradientUnits="userSpaceOnUse" cx="-4.926000118255615" cy="62.696998596191406" r="35.147000789642334" fx="-4.926000118255615" fy="62.696998596191406"><stop offset="40%" stop-color="rgb(255,168,0)" stop-opacity="0"></stop><stop offset="76%" stop-color="rgb(255,168,0)" stop-opacity="0.5"></stop><stop offset="100%" stop-color="rgb(255,168,0)" stop-opacity="1"></stop></radialGradient><linearGradient id="__lottie_element_34" spreadMethod="pad" gradientUnits="userSpaceOnUse" x1="-3.9260001182556152" y1="58.696998596191406" x2="-3.9260001182556152" y2="78.00800323486328"><stop offset="0%" stop-color="rgb(255,255,255)" stop-opacity="1"></stop><stop offset="50%" stop-color="rgb(255,255,255)" stop-opacity="0.5"></stop><stop offset="99%" stop-color="rgb(255,255,255)" stop-opacity="0"></stop></linearGradient><linearGradient id="__lottie_element_38" spreadMethod="pad" gradientUnits="userSpaceOnUse" x1="227.9149932861328" y1="-24.059999465942383" x2="227.9149932861328" y2="-9.739999771118164"><stop offset="0%" stop-color="rgb(255,168,0)" stop-opacity="1"></stop><stop offset="50%" stop-color="rgb(255,168,0)" stop-opacity="0.5"></stop><stop offset="100%" stop-color="rgb(255,168,0)" stop-opacity="0"></stop></linearGradient><radialGradient id="__lottie_element_39" spreadMethod="pad" gradientUnits="userSpaceOnUse" cx="230.1649932861328" cy="-5.059999942779541" r="58.31599426269531" fx="230.1649932861328" fy="-5.059999942779541"><stop offset="0%" stop-color="rgb(255,255,255)"></stop><stop offset="60%" stop-color="rgb(255,255,255)"></stop><stop offset="100%" stop-color="rgb(255,255,255)"></stop></radialGradient><mask id="__lottie_element_41"><path fill="url(#__lottie_element_40)" d=" M285.7179870605469,-12.189000129699707 C284.39898681640625,-19.92300033569336 276.0849914550781,-17.375999450683594 228.72900390625,-17.375999450683594 C182.51300048828125,-17.375999450683594 173.85400390625,-20.408000946044922 171.74000549316406,-12.189000129699707 C170.89500427246094,-8.902000427246094 189.73300170898438,15.116000175476074 228.718994140625,15.116000175476074 C267.0429992675781,15.116000175476074 286.3089904785156,-8.720000267028809 285.7179870605469,-12.189000129699707z"></path></mask><radialGradient id="__lottie_element_40" spreadMethod="pad" gradientUnits="userSpaceOnUse" cx="230.1649932861328" cy="-5.059999942779541" r="58.31599426269531" fx="230.1649932861328" fy="-5.059999942779541"><stop stop-color="rgb(255,255,255)" offset="0%" stop-opacity="1"></stop><stop stop-color="rgb(255,255,255)" offset="50%" stop-opacity="0.5"></stop><stop stop-color="rgb(255,255,255)" offset="100%" stop-opacity="0"></stop></radialGradient><linearGradient id="__lottie_element_42" spreadMethod="pad" gradientUnits="userSpaceOnUse" x1="227.9149932861328" y1="-4.059999942779541" x2="227.9149932861328" y2="-16.049999237060547"><stop offset="0%" stop-color="rgb(88,11,14)" stop-opacity="0"></stop><stop offset="36%" stop-color="rgb(88,11,14)" stop-opacity="0.5"></stop><stop offset="80%" stop-color="rgb(88,11,14)" stop-opacity="1"></stop></linearGradient><radialGradient id="__lottie_element_43" spreadMethod="pad" gradientUnits="userSpaceOnUse" cx="229.4149932861328" cy="23.190000534057617" r="39.75816427426128" fx="229.4149932861328" fy="23.190000534057617"><stop offset="10%" stop-color="rgb(219,110,0)" stop-opacity="1"></stop><stop offset="66%" stop-color="rgb(219,110,0)" stop-opacity="0.5"></stop><stop offset="100%" stop-color="rgb(219,110,0)" stop-opacity="0"></stop></radialGradient><linearGradient id="__lottie_element_47" spreadMethod="pad" gradientUnits="userSpaceOnUse" x1="-5.926000118255615" y1="-123.3030014038086" x2="-5.926000118255615" y2="-25.253999710083008"><stop offset="10%" stop-color="rgb(255,169,0)" stop-opacity="0"></stop><stop offset="46%" stop-color="rgb(255,169,0)" stop-opacity="0.5"></stop><stop offset="100%" stop-color="rgb(255,169,0)" stop-opacity="1"></stop></linearGradient><linearGradient id="__lottie_element_48" spreadMethod="pad" gradientUnits="userSpaceOnUse" x1="-4.275000095367432" y1="8.949999809265137" x2="-4.275000095367432" y2="-199.22900390625"><stop offset="8%" stop-color="rgb(218,110,0)" stop-opacity="0.30000001192092896"></stop><stop offset="26%" stop-color="rgb(218,110,0)" stop-opacity="0.6499999761581421"></stop><stop offset="45%" stop-color="rgb(218,110,0)" stop-opacity="1"></stop><stop offset="58%" stop-color="rgb(218,110,0)" stop-opacity="0.5"></stop><stop offset="80%" stop-color="rgb(218,110,0)" stop-opacity="0"></stop></linearGradient><linearGradient id="__lottie_element_49" spreadMethod="pad" gradientUnits="userSpaceOnUse" x1="-157.92599487304688" y1="-130.30299377441406" x2="-141.74600219726562" y2="-87.10299682617188"><stop offset="0%" stop-color="rgb(255,255,255)" stop-opacity="1"></stop><stop offset="50%" stop-color="rgb(255,255,255)" stop-opacity="0.5"></stop><stop offset="100%" stop-color="rgb(255,255,255)" stop-opacity="0"></stop></linearGradient><linearGradient id="__lottie_element_50" spreadMethod="pad" gradientUnits="userSpaceOnUse" x1="-5.203999996185303" y1="-182.23800659179688" x2="1.7790000438690186" y2="-102.38700103759766"><stop offset="0%" stop-color="rgb(255,255,255)" stop-opacity="1"></stop><stop offset="50%" stop-color="rgb(255,255,255)" stop-opacity="0.5"></stop><stop offset="100%" stop-color="rgb(255,255,255)" stop-opacity="0"></stop></linearGradient><radialGradient id="__lottie_element_60" spreadMethod="pad" gradientUnits="userSpaceOnUse" cx="-0.08500000089406967" cy="190.25399780273438" r="46.173333550323015" fx="-0.08500000089406967" fy="190.25399780273438"><stop offset="19%" stop-color="rgb(255,168,0)" stop-opacity="1"></stop><stop offset="66%" stop-color="rgb(255,168,0)" stop-opacity="0.5"></stop><stop offset="100%" stop-color="rgb(255,168,0)" stop-opacity="0"></stop></radialGradient></defs><g clip-path="url(#__lottie_element_2)"><g style="display: block;" transform="matrix(1,0,0,1,256,256)" opacity="1"><g opacity="1" transform="matrix(1,0,0,1,0,0)"><path fill="rgb(181,102,6)" fill-opacity="1" d=" M37.07899856567383,130.62600708007812 C37.07899856567383,130.62600708007812 -0.11100000143051147,133.66900634765625 -0.11100000143051147,133.66900634765625 C-0.11100000143051147,133.66900634765625 -37.30099868774414,130.62600708007812 -37.30099868774414,130.62600708007812 C-37.30099868774414,130.62600708007812 -38.215999603271484,175.42999267578125 -38.215999603271484,175.42999267578125 C-38.215999603271484,175.42999267578125 -21.643999099731445,182.22500610351562 -0.11100000143051147,182.22500610351562 C21.42300033569336,182.22500610351562 37.99399948120117,175.42999267578125 37.99399948120117,175.42999267578125 C37.99399948120117,175.42999267578125 37.07899856567383,130.62600708007812 37.07899856567383,130.62600708007812z"></path></g><g opacity="1" transform="matrix(1,0,0,1,0,0)"><path fill="url(#__lottie_element_60)" fill-opacity="1" d=" M37.07899856567383,130.62600708007812 C37.07899856567383,130.62600708007812 -0.11100000143051147,133.66900634765625 -0.11100000143051147,133.66900634765625 C-0.11100000143051147,133.66900634765625 -37.30099868774414,130.62600708007812 -37.30099868774414,130.62600708007812 C-37.30099868774414,130.62600708007812 -38.215999603271484,175.42999267578125 -38.215999603271484,175.42999267578125 C-38.215999603271484,175.42999267578125 -21.643999099731445,182.22500610351562 -0.11100000143051147,182.22500610351562 C21.42300033569336,182.22500610351562 37.99399948120117,175.42999267578125 37.99399948120117,175.42999267578125 C37.99399948120117,175.42999267578125 37.07899856567383,130.62600708007812 37.07899856567383,130.62600708007812z"></path></g><g opacity="1" transform="matrix(1,0,0,1,0,0)"><path stroke-linecap="round" stroke-linejoin="round" fill-opacity="0" stroke="rgb(153,71,4)" stroke-opacity="1" stroke-width="8" d=" M37.99399948120117,172.42999267578125 C37.99399948120117,172.42999267578125 37.07899856567383,130.62600708007812 37.07899856567383,130.62600708007812 C37.07899856567383,130.62600708007812 -0.11100000143051147,133.66900634765625 -0.11100000143051147,133.66900634765625 C-0.11100000143051147,133.66900634765625 -37.30099868774414,130.62600708007812 -37.30099868774414,130.62600708007812 C-37.30099868774414,130.62600708007812 -38.215999603271484,172.42999267578125 -38.215999603271484,172.42999267578125"></path></g></g><g style="display: block;" transform="matrix(0.6899999976158142,0,0,0.6899999976158142,258.77191162109375,260.362548828125)" opacity="1"><g opacity="1" transform="matrix(1,0,0,1,0,0)"><path fill="rgb(255,168,0)" fill-opacity="1" d=" M-150.2259979248047,-0.6800000071525574 C-150.2259979248047,-0.6800000071525574 -164.0850067138672,-10.10099983215332 -171.37100219726562,2.5230000019073486 C-178.03599548339844,14.071000099182129 -165.3000030517578,73.76799774169922 -153.53399658203125,83.44999694824219 C-146.29600524902344,89.40599822998047 -138.4600067138672,82.05899810791016 -138.4600067138672,82.05899810791016 C-133.68699645996094,78.79299926757812 -141.43299865722656,11.295000076293945 -150.2259979248047,-0.6800000071525574z"></path><path stroke-linecap="round" stroke-linejoin="round" fill-opacity="0" stroke="rgb(219,110,0)" stroke-opacity="1" stroke-width="11" d=" M-150.2259979248047,-0.6800000071525574 C-150.2259979248047,-0.6800000071525574 -164.0850067138672,-10.10099983215332 -171.37100219726562,2.5230000019073486 C-178.03599548339844,14.071000099182129 -165.3000030517578,73.76799774169922 -153.53399658203125,83.44999694824219 C-146.29600524902344,89.40599822998047 -138.4600067138672,82.05899810791016 -138.4600067138672,82.05899810791016 C-133.68699645996094,78.79299926757812 -141.43299865722656,11.295000076293945 -150.2259979248047,-0.6800000071525574z"></path></g><g opacity="1" transform="matrix(1,0,0,1,0,0)"><path fill="rgb(255,168,0)" fill-opacity="1" d=" M141.28399658203125,-0.6800000071525574 C141.28399658203125,-0.6800000071525574 155.1439971923828,-10.10099983215332 162.42999267578125,2.5230000019073486 C169.09500122070312,14.071000099182129 156.35800170898438,73.76799774169922 144.5919952392578,83.44999694824219 C137.35400390625,89.40599822998047 129.51800537109375,82.05899810791016 129.51800537109375,82.05899810791016 C124.74500274658203,78.79299926757812 132.49099731445312,11.295000076293945 141.28399658203125,-0.6800000071525574z"></path><path stroke-linecap="round" stroke-linejoin="round" fill-opacity="0" stroke="rgb(219,110,0)" stroke-opacity="1" stroke-width="11" d=" M141.28399658203125,-0.6800000071525574 C141.28399658203125,-0.6800000071525574 155.1439971923828,-10.10099983215332 162.42999267578125,2.5230000019073486 C169.09500122070312,14.071000099182129 156.35800170898438,73.76799774169922 144.5919952392578,83.44999694824219 C137.35400390625,89.40599822998047 129.51800537109375,82.05899810791016 129.51800537109375,82.05899810791016 C124.74500274658203,78.79299926757812 132.49099731445312,11.295000076293945 141.28399658203125,-0.6800000071525574z"></path></g></g><g style="display: block;" transform="matrix(0.6899999976158142,0,0,0.6899999976158142,258.77191162109375,261.2705993652344)" opacity="1"><g opacity="1" transform="matrix(1,0,0,1,0,0)"><path fill="rgb(255,168,0)" fill-opacity="1" d=" M139.5749969482422,38.790000915527344 C139.5749969482422,130.41299438476562 74.5199966430664,207.6750030517578 -3.9210000038146973,207.6750030517578 C-82.36199951171875,207.6750030517578 -147.41700744628906,130.41299438476562 -147.41700744628906,38.790000915527344 C-161.85000610351562,-113.5260009765625 -81.47699737548828,-174.81399536132812 -3.9210000038146973,-174.81399536132812 C71.60099792480469,-174.81399536132812 139.5749969482422,-150.91400146484375 139.5749969482422,38.790000915527344z"></path></g><g opacity="1" transform="matrix(1,0,0,1,0,0)"><path fill="url(#__lottie_element_18)" fill-opacity="1" d=" M139.5749969482422,38.790000915527344 C139.5749969482422,130.41299438476562 74.5199966430664,207.6750030517578 -3.9210000038146973,207.6750030517578 C-82.36199951171875,207.6750030517578 -147.41700744628906,130.41299438476562 -147.41700744628906,38.790000915527344 C-161.85000610351562,-113.5260009765625 -81.47699737548828,-174.81399536132812 -3.9210000038146973,-174.81399536132812 C71.60099792480469,-174.81399536132812 139.5749969482422,-150.91400146484375 139.5749969482422,38.790000915527344z"></path></g><g opacity="1" transform="matrix(1,0,0,1,0,0)"><g opacity="1" transform="matrix(1,0,0,1,0,0)"><path fill="url(#__lottie_element_19)" fill-opacity="1" d=" M126.03700256347656,-11.361000061035156 C101.4280014038086,-36.35499954223633 101.21700286865234,-59.29499816894531 100.02799987792969,-66.03500366210938 C99.78700256347656,-67.4020004272461 98.46800231933594,-68.30599975585938 97.10700225830078,-68.03500366210938 C-10.142999649047852,-46.66400146484375 -82.04000091552734,-74.15399932861328 -94.93399810791016,-83.56300354003906 C-96.43000030517578,-84.65499877929688 -98.90699768066406,-83.79100036621094 -98.83699798583984,-81.94000244140625 C-97.66600036621094,-50.900001525878906 -132.54600524902344,-17.801000595092773 -134.1479949951172,-13.234999656677246 C-134.1719970703125,-11.425999641418457 -134.2270050048828,23.518999099731445 -134.2270050048828,25.725000381469727 C-134.2270050048828,108.35299682617188 -75.1520004272461,181.02999877929688 -3.9210000038146973,181.02999877929688 C67.30999755859375,181.02999877929688 126.38500213623047,108.35299682617188 126.38500213623047,25.725000381469727 C126.38500213623047,18.448999404907227 126.0719985961914,-10.156000137329102 126.03700256347656,-11.361000061035156z"></path></g></g><g opacity="1" transform="matrix(1,0,0,1,0,0)"><path stroke-linecap="round" stroke-linejoin="round" fill-opacity="0" stroke="rgb(219,110,0)" stroke-opacity="1" stroke-width="11" d=" M139.5749969482422,38.790000915527344 C139.5749969482422,130.41299438476562 74.5199966430664,207.6750030517578 -3.9210000038146973,207.6750030517578 C-82.36199951171875,207.6750030517578 -147.41700744628906,130.41299438476562 -147.41700744628906,38.790000915527344 C-161.85000610351562,-113.5260009765625 -81.47699737548828,-174.81399536132812 -3.9210000038146973,-174.81399536132812 C71.60099792480469,-174.81399536132812 139.5749969482422,-150.91400146484375 139.5749969482422,38.790000915527344z"></path></g></g><g style="display: block;" transform="matrix(0.6899999976158142,0,0,0.6899999976158142,258.77191162109375,259.1122741699219)" opacity="1"><g opacity="1" transform="matrix(1,0,0,1,0,0)"><path stroke-linecap="round" stroke-linejoin="round" fill-opacity="0" stroke="rgb(163,65,0)" stroke-opacity="1" stroke-width="16" d=" M45.78099822998047,-35.01499938964844 C45.78099822998047,-35.01499938964844 67.8270034790039,-40.10300064086914 87.80000305175781,-30.451000213623047"></path></g><g opacity="1" transform="matrix(1,0,0,1,0,0)"><path stroke-linecap="round" stroke-linejoin="round" fill-opacity="0" stroke="rgb(163,65,0)" stroke-opacity="1" stroke-width="16" d=" M-53.071998596191406,-35.01499938964844 C-53.071998596191406,-35.01499938964844 -75.11699676513672,-40.10300064086914 -95.08999633789062,-30.451000213623047"></path></g></g><g style="display: block;" transform="matrix(0.6899999976158142,0,0,0.6899999976158142,258.77191162109375,259.45452880859375)" opacity="1"><g opacity="1" transform="matrix(1,0,0,1,0,0)"><path fill="rgb(255,206,1)" fill-opacity="1" d=" M-112.01100158691406,-108.36399841308594 C-111.85600280761719,-109.69300079345703 -110.33699798583984,-110.40399932861328 -109.21499633789062,-109.64800262451172 C-99.7969970703125,-103.3030014038086 -63.29899978637695,-81.79199981689453 1.9859999418258667,-79.15299987792969 C65.76899719238281,-76.5739974975586 102.31099700927734,-84.375 111.00900268554688,-86.5270004272461 C112.06999969482422,-86.79000091552734 113.10900115966797,-86.072998046875 113.21900177001953,-85.00199890136719 C113.9260025024414,-78.13899993896484 117.2750015258789,-55.11800003051758 131.77499389648438,-31.107999801635742 C133.08399963378906,-28.94099998474121 133.74899291992188,-26.45400047302246 133.74899291992188,-23.933000564575195 C133.74899291992188,-23.933000564575195 133.74899291992188,34.57099914550781 133.74899291992188,34.57099914550781 C133.74899291992188,36.56999969482422 135.75599670410156,38.05699920654297 137.66400146484375,37.369998931884766 C141.46600341796875,36.00199890136719 147.0679931640625,30.801000595092773 149.90899658203125,12.793000221252441 C154.45399475097656,-16.020000457763672 164.5540008544922,-63.21500015258789 155.46400451660156,-104.94400024414062 C146.37399291992188,-146.6739959716797 114.7770004272461,-192.48199462890625 46.09700012207031,-203.6179962158203 C-28.68600082397461,-215.74400329589844 -106.11000061035156,-201.0019989013672 -134.91099548339844,-152.88600158691406 C-140.56399536132812,-149.65899658203125 -200.1490020751953,-105.7750015258789 -148.6199951171875,36.9109992980957 C-147.72500610351562,39.38999938964844 -142.74899291992188,40.43199920654297 -142.74899291992188,37.80099868774414 C-142.74899291992188,37.80099868774414 -143.49600219726562,-23.378000259399414 -143.49600219726562,-23.378000259399414 C-143.49600219726562,-26.511999130249023 -142.4340057373047,-29.54800033569336 -140.51100158691406,-32.04600143432617 C-133.63299560546875,-40.97999954223633 -116.88899993896484,-66.49600219726562 -112.01100158691406,-108.36399841308594z"></path></g><g opacity="1" transform="matrix(1,0,0,1,0,0)"><path fill="url(#__lottie_element_47)" fill-opacity="1" d=" M-112.01100158691406,-108.36399841308594 C-111.85600280761719,-109.69300079345703 -110.33699798583984,-110.40399932861328 -109.21499633789062,-109.64800262451172 C-99.7969970703125,-103.3030014038086 -63.29899978637695,-81.79199981689453 1.9859999418258667,-79.15299987792969 C65.76899719238281,-76.5739974975586 102.31099700927734,-84.375 111.00900268554688,-86.5270004272461 C112.06999969482422,-86.79000091552734 113.10900115966797,-86.072998046875 113.21900177001953,-85.00199890136719 C113.9260025024414,-78.13899993896484 117.2750015258789,-55.11800003051758 131.77499389648438,-31.107999801635742 C133.08399963378906,-28.94099998474121 133.74899291992188,-26.45400047302246 133.74899291992188,-23.933000564575195 C133.74899291992188,-23.933000564575195 133.74899291992188,34.57099914550781 133.74899291992188,34.57099914550781 C133.74899291992188,36.56999969482422 135.75599670410156,38.05699920654297 137.66400146484375,37.369998931884766 C141.46600341796875,36.00199890136719 147.0679931640625,30.801000595092773 149.90899658203125,12.793000221252441 C154.45399475097656,-16.020000457763672 164.5540008544922,-63.21500015258789 155.46400451660156,-104.94400024414062 C146.37399291992188,-146.6739959716797 114.7770004272461,-192.48199462890625 46.09700012207031,-203.6179962158203 C-28.68600082397461,-215.74400329589844 -106.11000061035156,-201.0019989013672 -134.91099548339844,-152.88600158691406 C-140.56399536132812,-149.65899658203125 -200.1490020751953,-105.7750015258789 -148.6199951171875,36.9109992980957 C-147.72500610351562,39.38999938964844 -142.74899291992188,40.43199920654297 -142.74899291992188,37.80099868774414 C-142.74899291992188,37.80099868774414 -143.49600219726562,-23.378000259399414 -143.49600219726562,-23.378000259399414 C-143.49600219726562,-26.511999130249023 -142.4340057373047,-29.54800033569336 -140.51100158691406,-32.04600143432617 C-133.63299560546875,-40.97999954223633 -116.88899993896484,-66.49600219726562 -112.01100158691406,-108.36399841308594z"></path></g><g opacity="1" transform="matrix(1,0,0,1,0,0)"><path fill="url(#__lottie_element_48)" fill-opacity="1" d=" M148.60299682617188,19.48200035095215 C145.56900024414062,32.145999908447266 137.06399536132812,42.119998931884766 137.06399536132812,40.12099838256836 C137.06399536132812,40.12099838256836 132.6300048828125,-26.80500030517578 132.6300048828125,-26.80500030517578 C115.2249984741211,-58.95199966430664 113.93000030517578,-74.26699829101562 113.2229995727539,-81.13500213623047 C113.1050033569336,-82.20700073242188 68.60700225830078,-71.3499984741211 4.828999996185303,-73.92900085449219 C-60.46500015258789,-76.58100128173828 -103.72000122070312,-98.14700317382812 -113.14600372314453,-104.49299621582031 C-114.26599884033203,-105.24600219726562 -108.06199645996094,-69.95899963378906 -140.51600646972656,-28.177000045776367 C-142.44400024414062,-25.69499969482422 -144.80099487304688,40.12099838256836 -144.80099487304688,40.12099838256836 C-152.80799865722656,37.81100082397461 -155.73199462890625,25.79800033569336 -158.69200134277344,12.03499984741211 C-148.97000122070312,43.6609992980957 -154.0540008544922,-25.160999298095703 -154.0540008544922,-25.160999298095703 C-155.1300048828125,-24.76799964904785 -157.5570068359375,-24.965999603271484 -157.5570068359375,-24.965999603271484 C-130.6320037841797,-58.090999603271484 -123.46399688720703,-94.81300354003906 -124.05599975585938,-111.9800033569336 C-124.51300048828125,-125.21800231933594 -126.40299987792969,-132.875 -131.33099365234375,-135.29200744628906 C-147.73399353027344,-143.33799743652344 -166.88099670410156,-87.01499938964844 -166.88099670410156,-87.01499938964844 C-168.10499572753906,-125.86599731445312 -141.81199645996094,-145.86399841308594 -133.81500244140625,-150.50100708007812 C-101.69100189208984,-195.76600646972656 -28.68400001525879,-215.74600219726562 46.09600067138672,-203.6179962158203 C114.77799987792969,-192.49000549316406 146.89500427246094,-162.38099670410156 157.8820037841797,-90.21700286865234 C153.13299560546875,-160.86700439453125 92.61499786376953,-195.5749969482422 1.5729999542236328,-195.43099975585938 C-70.05899810791016,-195.3179931640625 -99.95500183105469,-173.45899963378906 -111.68900299072266,-160.2449951171875 C-115.1989974975586,-156.29200744628906 -119.0469970703125,-146.48500061035156 -115.3759994506836,-139.55499267578125 C-103.98999786376953,-118.06600189208984 -63.983001708984375,-95.46199798583984 7.603000164031982,-91.36199951171875 C84.30599975585938,-86.96800231933594 141.0240020751953,-103.83499908447266 142.2169952392578,-104.1969985961914 C133.8800048828125,-96.75 126.56500244140625,-86.31900024414062 126.56500244140625,-86.31900024414062 C129.03599548339844,-50.814998626708984 149.51499938964844,-24.02199935913086 149.51499938964844,-24.02199935913086 C146.79600524902344,-23.358999252319336 144.5240020751953,-23.93000030517578 144.5240020751953,-23.93000030517578 C143.40699768066406,30.988000869750977 148.60299682617188,19.48200035095215 148.60299682617188,19.48200035095215z"></path></g><g opacity="1" transform="matrix(1,0,0,1,0,0)"><path fill="url(#__lottie_element_49)" fill-opacity="0.9" d=" M-124.37899780273438,-102.7490005493164 C-122.0719985961914,-128.75599670410156 -130.49000549316406,-138.3090057373047 -132.51100158691406,-138.29100036621094 C-135.69200134277344,-138.26300048828125 -142.67100524902344,-133.22900390625 -147.01499938964844,-127.58399963378906 C-161.8159942626953,-108.3489990234375 -164.4250030517578,-91.90599822998047 -164.01300048828125,-72.28800201416016 C-163.8520050048828,-64.65699768066406 -159.2570037841797,-75.95700073242188 -149.58999633789062,-92.96399688720703 C-140.0989990234375,-109.66300201416016 -124.96199798583984,-96.18000030517578 -124.37899780273438,-102.7490005493164z"></path></g><g opacity="1" transform="matrix(1,0,0,1,0,0)"><path fill="url(#__lottie_element_50)" fill-opacity="0.9" d=" M-2.135999917984009,-94.4749984741211 C-58.80400085449219,-94.4729995727539 -96.5979995727539,-113.46099853515625 -111.29000091552734,-134.08200073242188 C-114.08599853515625,-138.0070037841797 -120.15899658203125,-146.25399780273438 -118.18099975585938,-150.968994140625 C-109.60900115966797,-171.40199279785156 -63.54100036621094,-194.5240020751953 -0.6190000176429749,-195.34100341796875 C43.48099899291992,-195.91600036621094 82.99400329589844,-189.06900024414062 110.72699737548828,-163.0659942626953 C145.927001953125,-131.61599731445312 103.48100280761719,-94.47899627685547 -2.135999917984009,-94.4749984741211z"></path></g><g opacity="1" transform="matrix(1,0,0,1,0,0)"><path stroke-linecap="round" stroke-linejoin="round" fill-opacity="0" stroke="rgb(197,92,0)" stroke-opacity="1" stroke-width="11" d=" M-112.36499786376953,-107.26000213623047 C-58,-74.28299713134766 32.58100128173828,-68.95500183105469 114.51799774169922,-83.38999938964844 C114.51799774169922,-83.38999938964844 114.052001953125,-57.641998291015625 132.6300048828125,-26.80500030517578 C132.61099243164062,-18.243999481201172 133.94000244140625,36.01599884033203 133.94000244140625,36.01599884033203 C133.94000244140625,40.983001708984375 135.13400268554688,43.439998626708984 143.0449981689453,34.82500076293945 C153.9949951171875,22.899999618530273 164.302001953125,-51.71099853515625 157.8820037841797,-97.56300354003906 C150.9709930419922,-146.91900634765625 118.75,-207.6699981689453 -0.6129999756813049,-207.6750030517578 C-101.0469970703125,-207.6790008544922 -132.17599487304688,-159.80299377441406 -134.91099548339844,-152.88600158691406 C-169.3990020751953,-137.7469940185547 -180.7010040283203,-57.55400085449219 -155.05999755859375,28.60099983215332 C-149.43099975585938,46.35900115966797 -142.56199645996094,48.400001525878906 -142.406005859375,31.500999450683594 C-142.25,14.60200023651123 -141.6300048828125,-27.32900047302246 -141.6300048828125,-27.32900047302246 C-141.6300048828125,-27.32900047302246 -115.23300170898438,-61.266998291015625 -112.36499786376953,-107.26000213623047z"></path></g><g opacity="1" transform="matrix(1,0,0,1,0,0)"><path stroke-linecap="round" stroke-linejoin="round" fill-opacity="0" stroke="rgb(163,65,0)" stroke-opacity="1" stroke-width="11" d=" M-141.6300048828125,-27.32900047302246 C-141.6300048828125,-27.32900047302246 -115.23300170898438,-61.266998291015625 -112.36499786376953,-107.26000213623047 C-58,-74.28299713134766 32.58100128173828,-68.95500183105469 114.51799774169922,-83.38999938964844 C114.51799774169922,-83.38999938964844 114.052001953125,-57.641998291015625 132.6300048828125,-26.80500030517578"></path></g></g><g style="display: block;" transform="matrix(0.5400009155273438,0,0,0.5599970817565918,133.16282653808594,355.1611022949219)" opacity="1"><g opacity="1" transform="matrix(1,0,0,1,0,0)"><path fill="url(#__lottie_element_38)" fill-opacity="1" d=" M286.0849914550781,-20.952999114990234 C282.2539978027344,-24.711000442504883 276.0849914550781,-25.55299949645996 228.72900390625,-25.55299949645996 C182.51300048828125,-25.55299949645996 175.822998046875,-24.711000442504883 171.37399291992188,-20.952999114990234 C167.86000061035156,-17.983999252319336 169.02099609375,7.953000068664551 228.718994140625,7.953000068664551 C287.4590148925781,7.953000068664551 289.1730041503906,-17.923999786376953 286.0849914550781,-20.952999114990234z"></path></g><g opacity="1" transform="matrix(1,0,0,1,0,0)"><path fill="url(#__lottie_element_39)" mask="url(#__lottie_element_41)" fill-opacity="0.7000000000000001" d="M0 0 M285.7179870605469,-12.189000129699707 C284.39898681640625,-19.92300033569336 276.0849914550781,-17.375999450683594 228.72900390625,-17.375999450683594 C182.51300048828125,-17.375999450683594 173.85400390625,-20.408000946044922 171.74000549316406,-12.189000129699707 C170.89500427246094,-8.902000427246094 189.73300170898438,15.116000175476074 228.718994140625,15.116000175476074 C267.0429992675781,15.116000175476074 286.3089904785156,-8.720000267028809 285.7179870605469,-12.189000129699707z"></path></g><g opacity="1" transform="matrix(1,0,0,1,0,0)"><path fill="rgb(136,24,4)" fill-opacity="1" d=" M284.2569885253906,-15.697999954223633 C282.0690002441406,-19.09600067138672 276.0849914550781,-18.54599952697754 228.72900390625,-18.54599952697754 C182.51300048828125,-18.54599952697754 175.6529998779297,-18.979000091552734 173.2010040283203,-15.697999954223633 C171.0489959716797,-12.817999839782715 189.73300170898438,7.953000068664551 228.718994140625,7.953000068664551 C267.0429992675781,7.953000068664551 286.260986328125,-12.586999893188477 284.2569885253906,-15.697999954223633z"></path></g><g opacity="1" transform="matrix(1,0,0,1,0,0)"><path fill="url(#__lottie_element_42)" fill-opacity="1" d=" M284.2569885253906,-15.697999954223633 C282.0690002441406,-19.09600067138672 276.0849914550781,-18.54599952697754 228.72900390625,-18.54599952697754 C182.51300048828125,-18.54599952697754 175.6529998779297,-18.979000091552734 173.2010040283203,-15.697999954223633 C171.0489959716797,-12.817999839782715 189.73300170898438,7.953000068664551 228.718994140625,7.953000068664551 C267.0429992675781,7.953000068664551 286.260986328125,-12.586999893188477 284.2569885253906,-15.697999954223633z"></path></g><g opacity="1" transform="matrix(1,0,0,1,0,0)"><path fill="url(#__lottie_element_43)" fill-opacity="0.5" d=" M267.3609924316406,13.654000282287598 C267.3609924316406,19.76300048828125 255.61399841308594,32.25400161743164 228.70799255371094,32.25400161743164 C201.802001953125,32.25400161743164 190.05499267578125,19.76300048828125 190.05499267578125,13.654000282287598 C190.05499267578125,7.545000076293945 201.802001953125,15.342000007629395 228.70799255371094,15.342000007629395 C255.61399841308594,15.342000007629395 267.3609924316406,7.545000076293945 267.3609924316406,13.654000282287598z"></path></g></g><g style="display: block;" transform="matrix(0.6899999976158142,0,0,0.6899999976158142,259.16796875,262.0765380859375)" opacity="1"><g opacity="1" transform="matrix(1,0,0,1,0,0)"><path fill="url(#__lottie_element_31)" fill-opacity="1" d=" M25.260000228881836,83.00599670410156 C25.260000228881836,95.93000030517578 13.814000129699707,106.40799713134766 -3.9210000038146973,106.40799713134766 C-21.6560001373291,106.40799713134766 -33.10200119018555,95.93000030517578 -33.10200119018555,83.00599670410156 C-37.5,49.625 29.875,48.75 25.260000228881836,83.00599670410156z"></path></g><g opacity="1" transform="matrix(1,0,0,1,0,0)"><path fill="rgb(255,168,0)" fill-opacity="0.8" d=" M25.871000289916992,78.61000061035156 C25.871000289916992,90.5999984741211 12.532999992370605,100.31999969482422 -3.9210000038146973,100.31999969482422 C-20.375,100.31999969482422 -33.7130012512207,90.5999984741211 -33.7130012512207,78.61000061035156 C-33.7130012512207,66.62000274658203 -20.375,57.4109992980957 -3.9210000038146973,57.4109992980957 C12.532999992370605,57.4109992980957 25.871000289916992,66.62000274658203 25.871000289916992,78.61000061035156z"></path></g><g opacity="1" transform="matrix(1,0,0,1,0,0)"><path fill="url(#__lottie_element_32)" fill-opacity="1" d=" M25.871000289916992,78.61000061035156 C25.871000289916992,90.5999984741211 12.532999992370605,100.31999969482422 -3.9210000038146973,100.31999969482422 C-20.375,100.31999969482422 -33.7130012512207,90.5999984741211 -33.7130012512207,78.61000061035156 C-33.7130012512207,66.62000274658203 -20.375,57.4109992980957 -3.9210000038146973,57.4109992980957 C12.532999992370605,57.4109992980957 25.871000289916992,66.62000274658203 25.871000289916992,78.61000061035156z"></path></g><g opacity="1" transform="matrix(1,0,0,1,0,0)"><path fill="rgb(255,216,0)" fill-opacity="1" d=" M23.19300079345703,72.87200164794922 C23.19300079345703,81.7979965209961 10.312999725341797,90.3759994506836 -3.9210000038146973,90.3759994506836 C-18.155000686645508,90.3759994506836 -31.03499984741211,81.7979965209961 -31.03499984741211,72.87200164794922 C-31.03499984741211,63.94599914550781 -18.155000686645508,56.965999603271484 -3.9210000038146973,56.965999603271484 C10.312999725341797,56.965999603271484 23.19300079345703,63.94599914550781 23.19300079345703,72.87200164794922z"></path></g><g opacity="1" transform="matrix(1,0,0,1,0,0)"><path fill="url(#__lottie_element_33)" fill-opacity="1" d=" M23.19300079345703,72.87200164794922 C23.19300079345703,81.7979965209961 10.312999725341797,90.3759994506836 -3.9210000038146973,90.3759994506836 C-18.155000686645508,90.3759994506836 -31.03499984741211,81.7979965209961 -31.03499984741211,72.87200164794922 C-31.03499984741211,63.94599914550781 -18.155000686645508,56.965999603271484 -3.9210000038146973,56.965999603271484 C10.312999725341797,56.965999603271484 23.19300079345703,63.94599914550781 23.19300079345703,72.87200164794922z"></path></g><g opacity="1" transform="matrix(1,0,0,1,0,0)"><path fill="url(#__lottie_element_34)" fill-opacity="0.7000000000000001" d=" M8.175000190734863,67.11000061035156 C8.175000190734863,73.16699981689453 2.759000062942505,78.86599731445312 -3.9210000038146973,78.86599731445312 C-10.60099983215332,78.86599731445312 -16.017000198364258,73.16699981689453 -16.017000198364258,67.11000061035156 C-16.017000198364258,61.053001403808594 -10.60099983215332,58.013999938964844 -3.9210000038146973,58.013999938964844 C2.759000062942505,58.013999938964844 8.175000190734863,61.053001403808594 8.175000190734863,67.11000061035156z"></path></g></g><g style="display: block;" transform="matrix(1.0000032186508179,0,0,1.0000032186508179,255.50015258789062,255.99896240234375)" opacity="1"><g opacity="1" transform="matrix(1,0,0,1,0,0)"><g opacity="1" transform="matrix(1,0,0,1,0,0)"><path fill="rgb(255,255,255)" fill-opacity="1" d=" M27.88800048828125,32.80500030517578 C24.989999771118164,31.597999572753906 23.211000442504883,28.659000396728516 23.483999252319336,25.531999588012695 C23.97800064086914,19.868000030517578 26.000999450683594,10.527000427246094 33.54600143432617,3.615000009536743 C43.487998962402344,-5.493000030517578 62.20600128173828,-4.599999904632568 71.58599853515625,7.070000171661377 C76.06300354003906,12.640000343322754 77.29100036621094,18.750999450683594 77.54100036621094,22.854999542236328 C77.73200225830078,25.993000030517578 76.21499633789062,28.96299934387207 73.58399963378906,30.68400001525879 C69.86299896240234,33.11800003051758 63.40599822998047,36.2140007019043 54.12799835205078,36.74399948120117 C41.70000076293945,37.452999114990234 32.8129997253418,34.856998443603516 27.88800048828125,32.80500030517578z"></path></g><g opacity="1" transform="matrix(0.7523999810218811,0,0,0.7523999810218811,103.66790771484375,4.728748321533203)"><g opacity="1" transform="matrix(1,0,0,1,0,0)"><path fill="url(#__lottie_element_22)" fill-opacity="1" d=" M-47.98400115966797,16.822999954223633 C-47.98400115966797,29.83099937438965 -58.52899932861328,40.375999450683594 -71.53700256347656,40.375999450683594 C-84.54499816894531,40.375999450683594 -95.08999633789062,29.83099937438965 -95.08999633789062,16.822999954223633 C-95.08999633789062,3.815000057220459 -84.54499816894531,-6.730000019073486 -71.53700256347656,-6.730000019073486 C-58.52899932861328,-6.730000019073486 -47.98400115966797,3.815000057220459 -47.98400115966797,16.822999954223633z"></path></g><g opacity="1" transform="matrix(1,0,0,1,0,0)"><g opacity="1" transform="matrix(1,0,0,1,0,0)"><path fill="url(#__lottie_element_23)" fill-opacity="1" d=" M-65.59600067138672,39.303001403808594 C-67.43699645996094,39.303001403808594 -69.14099884033203,38.11399841308594 -69.71199798583984,36.26300048828125 C-70.41400146484375,33.9900016784668 -69.13899993896484,31.577999114990234 -66.86499786376953,30.87700080871582 C-62.51599884033203,29.53499984741211 -59.053001403808594,26.1560001373291 -57.604000091552734,21.83799934387207 C-56.84700012207031,19.58099937438965 -54.400001525878906,18.368999481201172 -52.14899826049805,19.125 C-49.893001556396484,19.881999969482422 -48.67900085449219,22.323999404907227 -49.43600082397461,24.579999923706055 C-51.76599884033203,31.520999908447266 -57.33100128173828,36.952999114990234 -64.32599639892578,39.11000061035156 C-64.7490005493164,39.2400016784668 -65.1760025024414,39.303001403808594 -65.59600067138672,39.303001403808594z"></path></g></g><g opacity="1" transform="matrix(1,0,0,1,0,0)"><path fill="rgb(24,19,9)" fill-opacity="1" d=" M-56.652000427246094,16.822999954223633 C-56.652000427246094,25.04400062561035 -63.316001892089844,31.708999633789062 -71.53700256347656,31.708999633789062 C-79.75800323486328,31.708999633789062 -86.4229965209961,25.04400062561035 -86.4229965209961,16.822999954223633 C-86.4229965209961,8.60200023651123 -79.75800323486328,1.937999963760376 -71.53700256347656,1.937999963760376 C-63.316001892089844,1.937999963760376 -56.652000427246094,8.60200023651123 -56.652000427246094,16.822999954223633z"></path></g><g opacity="1" transform="matrix(1,0,0,1,0,0)"><path fill="url(#__lottie_element_24)" fill-opacity="1" d=" M-72.80500030517578,3.98799991607666 C-72.80500030517578,7.326000213623047 -75.35900115966797,10.032999992370605 -78.50900268554688,10.032999992370605 C-81.65899658203125,10.032999992370605 -84.21299743652344,7.326000213623047 -84.21299743652344,3.98799991607666 C-84.21299743652344,0.6499999761581421 -81.65899658203125,-2.055999994277954 -78.50900268554688,-2.055999994277954 C-75.35900115966797,-2.055999994277954 -72.80500030517578,0.6499999761581421 -72.80500030517578,3.98799991607666z"></path></g></g><g opacity="1" transform="matrix(1,0,0,1,0,0)"><path fill="rgb(163,65,0)" fill-opacity="1" d=" M23.797000885009766,21.503000259399414 C25.231000900268555,8.123000144958496 33.24100112915039,-4.8979997634887695 50.1349983215332,-4.901000022888184 C64.35199737548828,-4.9039998054504395 74.88700103759766,5.526000022888184 76.75800323486328,15.84000015258789 C73.38999938964844,5.326000213623047 63.56999969482422,-3.563999891281128 49.54399871826172,-3.0320000648498535 C32.45399856567383,-2.384000062942505 26.422000885009766,8.706999778747559 23.797000885009766,21.503000259399414z"></path><path stroke-linecap="round" stroke-linejoin="round" fill-opacity="0" stroke="rgb(163,65,0)" stroke-opacity="1" stroke-width="2" d=" M23.797000885009766,21.503000259399414 C25.231000900268555,8.123000144958496 33.24100112915039,-4.8979997634887695 50.1349983215332,-4.901000022888184 C64.35199737548828,-4.9039998054504395 74.88700103759766,5.526000022888184 76.75800323486328,15.84000015258789 C73.38999938964844,5.326000213623047 63.56999969482422,-3.563999891281128 49.54399871826172,-3.0320000648498535 C32.45399856567383,-2.384000062942505 26.422000885009766,8.706999778747559 23.797000885009766,21.503000259399414z"></path></g></g><g opacity="1" transform="matrix(1,0,0,1,0,0)"><g opacity="1" transform="matrix(1,0,0,1,0,0)"><path fill="rgb(255,255,255)" fill-opacity="1" d=" M-26.763999938964844,32.80500030517578 C-23.865999221801758,31.597999572753906 -22.08799934387207,28.659000396728516 -22.361000061035156,25.531999588012695 C-22.854999542236328,19.868000030517578 -24.878000259399414,10.527000427246094 -32.42300033569336,3.615000009536743 C-42.3650016784668,-5.493000030517578 -61.082000732421875,-4.599999904632568 -70.46199798583984,7.070000171661377 C-74.93900299072266,12.640000343322754 -76.16699981689453,18.750999450683594 -76.41699981689453,22.854999542236328 C-76.60800170898438,25.993000030517578 -75.09100341796875,28.96299934387207 -72.45999908447266,30.68400001525879 C-68.73899841308594,33.11800003051758 -62.28200149536133,36.2140007019043 -53.00400161743164,36.74399948120117 C-40.57600021362305,37.452999114990234 -31.68899917602539,34.856998443603516 -26.763999938964844,32.80500030517578z"></path></g><g opacity="1" transform="matrix(0.7523999810218811,0,0,0.7523999810218811,5.074913024902344,4.728748321533203)"><g opacity="1" transform="matrix(1,0,0,1,0,0)"><path fill="url(#__lottie_element_25)" fill-opacity="1" d=" M-47.98400115966797,16.822999954223633 C-47.98400115966797,29.83099937438965 -58.52899932861328,40.375999450683594 -71.53700256347656,40.375999450683594 C-84.54499816894531,40.375999450683594 -95.08999633789062,29.83099937438965 -95.08999633789062,16.822999954223633 C-95.08999633789062,3.815000057220459 -84.54499816894531,-6.730000019073486 -71.53700256347656,-6.730000019073486 C-58.52899932861328,-6.730000019073486 -47.98400115966797,3.815000057220459 -47.98400115966797,16.822999954223633z"></path></g><g opacity="1" transform="matrix(1,0,0,1,0,0)"><g opacity="1" transform="matrix(1,0,0,1,0,0)"><path fill="url(#__lottie_element_26)" fill-opacity="1" d=" M-65.59600067138672,39.303001403808594 C-67.43699645996094,39.303001403808594 -69.14099884033203,38.11399841308594 -69.71199798583984,36.26300048828125 C-70.41400146484375,33.9900016784668 -69.13899993896484,31.577999114990234 -66.86499786376953,30.87700080871582 C-62.51599884033203,29.53499984741211 -59.053001403808594,26.1560001373291 -57.604000091552734,21.83799934387207 C-56.84700012207031,19.58099937438965 -54.400001525878906,18.368999481201172 -52.14899826049805,19.125 C-49.893001556396484,19.881999969482422 -48.67900085449219,22.323999404907227 -49.43600082397461,24.579999923706055 C-51.76599884033203,31.520999908447266 -57.33100128173828,36.952999114990234 -64.32599639892578,39.11000061035156 C-64.7490005493164,39.2400016784668 -65.1760025024414,39.303001403808594 -65.59600067138672,39.303001403808594z"></path></g></g><g opacity="1" transform="matrix(1,0,0,1,0,0)"><path fill="rgb(24,19,9)" fill-opacity="1" d=" M-56.652000427246094,16.822999954223633 C-56.652000427246094,25.04400062561035 -63.316001892089844,31.708999633789062 -71.53700256347656,31.708999633789062 C-79.75800323486328,31.708999633789062 -86.4229965209961,25.04400062561035 -86.4229965209961,16.822999954223633 C-86.4229965209961,8.60200023651123 -79.75800323486328,1.937999963760376 -71.53700256347656,1.937999963760376 C-63.316001892089844,1.937999963760376 -56.652000427246094,8.60200023651123 -56.652000427246094,16.822999954223633z"></path></g><g opacity="1" transform="matrix(1,0,0,1,0,0)"><path fill="url(#__lottie_element_27)" fill-opacity="1" d=" M-72.80500030517578,3.98799991607666 C-72.80500030517578,7.326000213623047 -75.35900115966797,10.032999992370605 -78.50900268554688,10.032999992370605 C-81.65899658203125,10.032999992370605 -84.21299743652344,7.326000213623047 -84.21299743652344,3.98799991607666 C-84.21299743652344,0.6499999761581421 -81.65899658203125,-2.055999994277954 -78.50900268554688,-2.055999994277954 C-75.35900115966797,-2.055999994277954 -72.80500030517578,0.6499999761581421 -72.80500030517578,3.98799991607666z"></path></g></g><g opacity="1" transform="matrix(1,0,0,1,0,0)"><path fill="rgb(163,65,0)" fill-opacity="1" d=" M-22.67300033569336,21.503000259399414 C-24.10700035095215,8.123000144958496 -32.117000579833984,-4.8979997634887695 -49.01100158691406,-4.901000022888184 C-63.22800064086914,-4.9039998054504395 -73.76300048828125,5.526000022888184 -75.63400268554688,15.84000015258789 C-72.26599884033203,5.326000213623047 -62.44599914550781,-3.563999891281128 -48.41999816894531,-3.0320000648498535 C-31.329999923706055,-2.384000062942505 -25.29800033569336,8.706999778747559 -22.67300033569336,21.503000259399414z"></path><path stroke-linecap="round" stroke-linejoin="round" fill-opacity="0" stroke="rgb(163,65,0)" stroke-opacity="1" stroke-width="2" d=" M-22.67300033569336,21.503000259399414 C-24.10700035095215,8.123000144958496 -32.117000579833984,-4.8979997634887695 -49.01100158691406,-4.901000022888184 C-63.22800064086914,-4.9039998054504395 -73.76300048828125,5.526000022888184 -75.63400268554688,15.84000015258789 C-72.26599884033203,5.326000213623047 -62.44599914550781,-3.563999891281128 -48.41999816894531,-3.0320000648498535 C-31.329999923706055,-2.384000062942505 -25.29800033569336,8.706999778747559 -22.67300033569336,21.503000259399414z"></path></g></g></g><g style="display: block;" transform="matrix(1,0,0,1,256,256)" opacity="1"><g opacity="1" transform="matrix(1,0,0,1,0,0)"><g opacity="1" transform="matrix(1,0,0,1,0,0)"><g opacity="1" transform="matrix(1,0,0,1,0,0)"><path fill="rgb(255,216,0)" fill-opacity="1" d=" M3.5409998893737793,-186.7030029296875 C-6.900000095367432,-184.47900390625 -22.777000427246094,-177.9669952392578 -26.35300064086914,-175.4499969482422 C-29.929000854492188,-172.93299865722656 -49.25299835205078,-149.03900146484375 -61.7859992980957,-150.45599365234375 C-70.53700256347656,-151.44500732421875 -94.01599884033203,-176.12600708007812 -88.35900115966797,-179.218994140625 C-88.35900115966797,-179.218994140625 -59.21500015258789,-196.99099731445312 -39.62200164794922,-201.88099670410156 C-18.03499984741211,-207.2689971923828 6.849999904632568,-202.45199584960938 5.258999824523926,-196.55799865722656 C5.258999824523926,-196.55799865722656 10.461999893188477,-195.5019989013672 9.947999954223633,-190.8699951171875 C9.491999626159668,-186.75999450683594 6.74399995803833,-187.38499450683594 3.5409998893737793,-186.7030029296875z"></path></g><g opacity="1" transform="matrix(1,0,0,1,0,0)"><path fill="url(#__lottie_element_6)" fill-opacity="1" d=" M3.5409998893737793,-186.7030029296875 C-6.900000095367432,-184.47900390625 -22.777000427246094,-177.9669952392578 -26.35300064086914,-175.4499969482422 C-29.929000854492188,-172.93299865722656 -49.25299835205078,-149.03900146484375 -61.7859992980957,-150.45599365234375 C-70.53700256347656,-151.44500732421875 -94.01599884033203,-176.12600708007812 -88.35900115966797,-179.218994140625 C-88.35900115966797,-179.218994140625 -59.21500015258789,-196.99099731445312 -39.62200164794922,-201.88099670410156 C-18.03499984741211,-207.2689971923828 6.849999904632568,-202.45199584960938 5.258999824523926,-196.55799865722656 C5.258999824523926,-196.55799865722656 10.461999893188477,-195.5019989013672 9.947999954223633,-190.8699951171875 C9.491999626159668,-186.75999450683594 6.74399995803833,-187.38499450683594 3.5409998893737793,-186.7030029296875z"></path></g><g opacity="1" transform="matrix(1,0,0,1,0,0)"><path stroke-linecap="round" stroke-linejoin="round" fill-opacity="0" stroke="rgb(218,110,0)" stroke-opacity="0.5" stroke-width="4" d=" M5.4670000076293945,-194.77000427246094 C5.4670000076293945,-194.77000427246094 -7.107999801635742,-198.27699279785156 -32.35200119018555,-189.83200073242188"></path></g><g opacity="1" transform="matrix(1,0,0,1,0,0)"><path stroke-linecap="round" stroke-linejoin="round" fill-opacity="0" stroke="rgb(218,110,0)" stroke-opacity="1" stroke-width="8" d=" M3.430999994277954,-185.70899963378906 C-7.010000228881836,-183.48500061035156 -22.777000427246094,-177.9669952392578 -26.35300064086914,-175.4499969482422 C-29.929000854492188,-172.93299865722656 -49.25299835205078,-149.03900146484375 -61.7859992980957,-150.45599365234375 C-70.53700256347656,-151.44500732421875 -94.01599884033203,-176.12600708007812 -88.35900115966797,-179.218994140625 C-88.35900115966797,-179.218994140625 -59.21500015258789,-196.99099731445312 -39.62200164794922,-201.88099670410156 C-18.03499984741211,-207.2689971923828 6.849999904632568,-202.45199584960938 5.258999824523926,-196.55799865722656 C5.258999824523926,-196.55799865722656 9.772000312805176,-195.0500030517578 9.595999717712402,-190.6490020751953 C9.461000442504883,-187.2530059814453 6.633999824523926,-186.39100646972656 3.430999994277954,-185.70899963378906z"></path></g></g><g opacity="1" transform="matrix(1,0,0,1,0,0)"><path fill="rgb(0,66,137)" fill-opacity="1" d=" M-102.8550033569336,-171.2480010986328 C-102.8550033569336,-171.2480010986328 -92.5530014038086,-181.68299865722656 -89.28900146484375,-181.68299865722656 C-86.0250015258789,-181.68299865722656 -63.691001892089844,-175.60800170898438 -53.60200119018555,-153.4149932861328 C-51.277000427246094,-148.30099487304688 -65.53700256347656,-135.17100524902344 -65.53700256347656,-135.17100524902344 C-65.53700256347656,-135.17100524902344 -102.8550033569336,-171.2480010986328 -102.8550033569336,-171.2480010986328z"></path><path stroke-linecap="round" stroke-linejoin="round" fill-opacity="0" stroke="rgb(0,40,79)" stroke-opacity="1" stroke-width="8" d=" M-102.8550033569336,-171.2480010986328 C-102.8550033569336,-171.2480010986328 -92.5530014038086,-181.68299865722656 -89.28900146484375,-181.68299865722656 C-86.0250015258789,-181.68299865722656 -63.691001892089844,-175.60800170898438 -53.60200119018555,-153.4149932861328 C-51.277000427246094,-148.30099487304688 -65.53700256347656,-135.17100524902344 -65.53700256347656,-135.17100524902344 C-65.53700256347656,-135.17100524902344 -102.8550033569336,-171.2480010986328 -102.8550033569336,-171.2480010986328z"></path></g><g opacity="1" transform="matrix(1,0,0,1,0,0)"><g opacity="1" transform="matrix(1,0,0,1,0,0)"><path fill="rgb(255,216,0)" fill-opacity="1" d=" M-6.578999996185303,-192.5 C3.552999973297119,-189.13699340820312 18.614999771118164,-180.91200256347656 21.891000747680664,-178.01499938964844 C25.16699981689453,-175.11900329589844 41.84400177001953,-150.2310028076172 54.457000732421875,-150.25599670410156 C63.263999938964844,-150.2729949951172 89.32499694824219,-172.21099853515625 84.04399871826172,-175.91000366210938 C84.04399871826172,-175.91000366210938 60.70199966430664,-194.01400756835938 41.76900100708008,-201.03799438476562 C21.964000701904297,-208.38499450683594 -8.484000205993652,-212.53700256347656 -7.086999893188477,-203.47799682617188 C-7.086999893188477,-203.47799682617188 -12.37600040435791,-203.0030059814453 -12.37600040435791,-198.34300231933594 C-12.37600040435791,-194.20799255371094 -9.687000274658203,-193.53199768066406 -6.578999996185303,-192.5z"></path></g><g opacity="1" transform="matrix(1,0,0,1,0,0)"><path fill="url(#__lottie_element_7)" fill-opacity="1" d=" M-6.578999996185303,-191.5 C3.552999973297119,-188.13699340820312 18.614999771118164,-180.91200256347656 21.891000747680664,-178.01499938964844 C25.16699981689453,-175.11900329589844 41.84400177001953,-150.2310028076172 54.457000732421875,-150.25599670410156 C63.263999938964844,-150.2729949951172 89.32499694824219,-172.21099853515625 84.04399871826172,-175.91000366210938 C84.04399871826172,-175.91000366210938 60.70199966430664,-194.01400756835938 41.76900100708008,-201.03799438476562 C21.964000701904297,-208.38499450683594 -8.484000205993652,-212.53700256347656 -7.086999893188477,-203.47799682617188 C-7.086999893188477,-203.47799682617188 -12.37600040435791,-203.0030059814453 -12.37600040435791,-198.34300231933594 C-12.37600040435791,-194.20799255371094 -9.687000274658203,-192.53199768066406 -6.578999996185303,-191.5z"></path></g><g opacity="1" transform="matrix(1,0,0,1,0,0)"><path stroke-linecap="round" stroke-linejoin="round" fill-opacity="0" stroke="rgb(218,110,0)" stroke-opacity="0.5" stroke-width="4" d=" M-7.491000175476074,-201.72500610351562 C-7.491000175476074,-201.72500610351562 7.394000053405762,-202.822998046875 31.551000595092773,-191.64199829101562"></path></g><g opacity="1" transform="matrix(1,0,0,1,0,0)"><path stroke-linecap="round" stroke-linejoin="round" fill-opacity="0" stroke="rgb(218,110,0)" stroke-opacity="1" stroke-width="8" d=" M-6.578999996185303,-190.5 C3.5409998893737793,-186.7030029296875 18.614999771118164,-180.91200256347656 21.891000747680664,-178.01499938964844 C25.16699981689453,-175.11900329589844 41.84400177001953,-150.2310028076172 54.457000732421875,-150.25599670410156 C63.263999938964844,-150.2729949951172 89.32499694824219,-172.21099853515625 84.04399871826172,-175.91000366210938 C84.04399871826172,-175.91000366210938 60.70199966430664,-194.01400756835938 41.76900100708008,-201.03799438476562 C21.964000701904297,-208.38499450683594 -8.484000205993652,-212.53700256347656 -7.086999893188477,-203.47799682617188 C-7.086999893188477,-203.47799682617188 -11.73900032043457,-202.47900390625 -12.050000190734863,-198.0850067138672 C-12.289999961853027,-194.69500732421875 -9.645000457763672,-191.64999389648438 -6.578999996185303,-190.5z"></path></g></g><g opacity="1" transform="matrix(1,0,0,1,0,0)"><path fill="rgb(0,66,137)" fill-opacity="1" d=" M109.84600067138672,-161.02000427246094 C109.84600067138672,-161.02000427246094 101.97200012207031,-173.69000244140625 92.91000366210938,-175.94000244140625 C88.49500274658203,-177.03599548339844 65.61900329589844,-166.03900146484375 55.487998962402344,-148.1999969482422 C53.4379997253418,-144.59100341796875 59.16600036621094,-136.36099243164062 66.6719970703125,-130.4290008544922"></path><path stroke-linecap="round" stroke-linejoin="round" fill-opacity="0" stroke="rgb(0,40,79)" stroke-opacity="1" stroke-width="8" d=" M109.84600067138672,-161.02000427246094 C109.84600067138672,-161.02000427246094 101.97200012207031,-173.69000244140625 92.91000366210938,-175.94000244140625 C88.49500274658203,-177.03599548339844 65.61900329589844,-166.03900146484375 55.487998962402344,-148.1999969482422 C53.4379997253418,-144.59100341796875 59.16600036621094,-136.36099243164062 66.6719970703125,-130.4290008544922"></path></g></g><g opacity="1" transform="matrix(0.9701099991798401,0,0,1.065500020980835,0,-14.966751098632812)"><path fill="url(#__lottie_element_8)" fill-opacity="1" d=" M221.61700439453125,10.753999710083008 C216.02200317382812,-18.922000885009766 173.73300170898438,-99.74299621582031 134.82400512695312,-133.66600036621094 C124.43499755859375,-142.7239990234375 102.76799774169922,-142.3090057373047 81.51300048828125,-128.28799438476562 C63.676998138427734,-116.52200317382812 60.6879997253418,-108.01100158691406 73.68099975585938,-93.08699798583984 C86.67400360107422,-78.16300201416016 131.3159942626953,-14.437999725341797 129.92100524902344,24.09600067138672 C128.5260009765625,62.630001068115234 110.56500244140625,114.41100311279297 40.22200012207031,158.50999450683594 C40.22200012207031,158.50999450683594 26.382999420166016,185.5070037841797 -1.065999984741211,184.3679962158203 C-28.33799934387207,183.23599243164062 -41.441001892089844,158.50999450683594 -41.441001892089844,158.50999450683594 C-41.441001892089844,158.50999450683594 -104.01699829101562,119.91899871826172 -122.98699951171875,68.0780029296875 C-141.95700073242188,16.23699951171875 -121.2030029296875,-21.524999618530273 -104.34100341796875,-51.60599899291992 C-87.47899627685547,-81.68699645996094 -63.86899948120117,-101.02400207519531 -65.25499725341797,-112.38999938964844 C-66.64099884033203,-123.75599670410156 -89.64600372314453,-146.91000366210938 -110.44200134277344,-146.91000366210938 C-131.23800659179688,-146.91000366210938 -170.60800170898438,-96.27899932861328 -188.13400268554688,-66.90399932861328 C-205.66000366210938,-37.52899932861328 -219.76199340820312,-8.70199966430664 -223.21400451660156,24.09600067138672 C-226.26100158691406,53.05400085449219 -223.25100708007812,77.37999725341797 -202.8040008544922,120.72699737548828 C-192.8350067138672,141.86099243164062 -180.05299377441406,163.6009979248047 -170.47300720214844,189.05099487304688 C-169.03599548339844,192.8679962158203 -166.60299682617188,209.9219970703125 -166.60299682617188,209.9219970703125 C-155.79800415039062,222.08200073242188 -136.35299682617188,229.70199584960938 -119.69300079345703,229.70199584960938 C-119.69300079345703,229.70199584960938 121.2760009765625,229.70199584960938 121.2760009765625,229.70199584960938 C137.9739990234375,229.70199584960938 157.4429931640625,222.0500030517578 168.1219940185547,209.8090057373047 C168.1219940185547,209.8090057373047 169.29800415039062,201.2899932861328 170.68899536132812,197.74400329589844 C177.68899536132812,179.89199829101562 187.7689971923828,158.1300048828125 199.7030029296875,133.61599731445312 C229.26199340820312,72.89600372314453 226.68299865722656,37.625999450683594 221.61700439453125,10.753999710083008z"></path></g><g opacity="1" transform="matrix(-0.8240481019020081,0.14085713028907776,0.22586169838905334,1.321345329284668,54,70.5)"><path fill="url(#__lottie_element_9)" fill-opacity="1" d=" M311.3080139160156,-72.56600189208984 C293.489013671875,-119.94300079345703 210.072998046875,-153.11700439453125 172.16600036621094,-189.3990020751953 C162.04400634765625,-199.08700561523438 130.32400512695312,-197.50799560546875 109.61599731445312,-182.51199340820312 C92.23899841308594,-169.92799377441406 97.44400024414062,-166.61399841308594 110.10299682617188,-150.65199279785156 C122.76200103759766,-134.6909942626953 200.28599548339844,-100.41600036621094 199.7760009765625,-41.91999816894531 C199.29600524902344,13.1899995803833 104.62200164794922,68.50900268554688 36.0890007019043,115.6729965209961 C36.0890007019043,115.6729965209961 24.281999588012695,116.98899841308594 -5.586999893188477,120.4000015258789 C-32.01300048828125,123.41799926757812 -39.79999923706055,120.19999694824219 -39.79999923706055,120.19999694824219 C-39.79999923706055,120.19999694824219 -30.201000213623047,57.58700180053711 -67.08200073242188,12.24899959564209 C-89.8759994506836,-15.772000312805176 -113.03399658203125,-39.52299880981445 -96.60600280761719,-71.69499969482422 C-80.1780014038086,-103.86699676513672 -53.891998291015625,-133.60299682617188 -55.24300003051758,-145.75900268554688 C-56.59400177001953,-157.9149932861328 -102.19499969482422,-165.44900512695312 -122.45500183105469,-165.44900512695312 C-142.71600341796875,-165.44900512695312 -174.22999572753906,-117.32499694824219 -191.30499267578125,-85.90799713134766 C-208.3800048828125,-54.49100112915039 -203.8719940185547,-55.505001068115234 -207.23500061035156,-20.427000045776367 C-210.20399475097656,10.543999671936035 -167.2270050048828,42.86199951171875 -137.43800354003906,77.96199798583984 C-121.5199966430664,96.71900177001953 -107.8239974975586,86.91400146484375 -98.49099731445312,114.13300323486328 C-97.08300018310547,118.23799896240234 -99.802001953125,115.6449966430664 -99.802001953125,115.6449966430664 C-89.26499938964844,128.61599731445312 -75.3740005493164,122.89800262451172 -59.59000015258789,121.36000061035156 C-59.59000015258789,121.36000061035156 169.052001953125,99.08699798583984 169.052001953125,99.08699798583984 C184.6179962158203,97.57099914550781 204.64999389648438,94.91600036621094 217.98500061035156,92.48500061035156 C221.58299255371094,91.8290023803711 219.83999633789062,91.57099914550781 222.24400329589844,90.9749984741211 C233.54400634765625,88.1719970703125 274.37200927734375,81.69499969482422 285.9989929199219,55.47600173950195 C314.7969970703125,-9.46500015258789 321.5740051269531,-45.27199935913086 311.3080139160156,-72.56600189208984z"></path></g><g opacity="1" transform="matrix(0.8239619135856628,0.1413012593984604,-0.22657658159732819,1.3212230205535889,-52.5,70.5)"><path fill="url(#__lottie_element_10)" fill-opacity="1" d=" M311.3080139160156,-72.56600189208984 C293.489013671875,-119.94300079345703 210.072998046875,-153.11700439453125 172.16600036621094,-189.3990020751953 C162.04400634765625,-199.08700561523438 130.32400512695312,-197.50799560546875 109.61599731445312,-182.51199340820312 C92.23899841308594,-169.92799377441406 97.44400024414062,-166.61399841308594 110.10299682617188,-150.65199279785156 C122.76200103759766,-134.6909942626953 202.4600067138672,-100.35600280761719 199.7760009765625,-41.91999816894531 C197.45599365234375,8.59000015258789 104.62200164794922,68.50900268554688 36.0890007019043,115.6729965209961 C36.0890007019043,115.6729965209961 24.281999588012695,116.98899841308594 -5.586999893188477,120.4000015258789 C-32.01300048828125,123.41799926757812 -39.79999923706055,120.19999694824219 -39.79999923706055,120.19999694824219 C-39.79999923706055,120.19999694824219 -69.13300323486328,101.27799987792969 -87.61499786376953,45.83300018310547 C-106.09700012207031,-9.612000465393066 -116.30999755859375,-37.09400177001953 -99.88200378417969,-69.26599884033203 C-83.4540023803711,-101.43800354003906 -52.5359992980957,-135.26499938964844 -53.887001037597656,-147.42100524902344 C-55.237998962402344,-159.57699584960938 -94.41500091552734,-171.38400268554688 -114.6760025024414,-171.38400268554688 C-134.93699645996094,-171.38400268554688 -173.35400390625,-125.17400360107422 -190.4290008544922,-93.75700378417969 C-207.50399780273438,-62.34000015258789 -205.93600463867188,-55.28499984741211 -209.2989959716797,-20.207000732421875 C-212.26800537109375,10.763999938964844 -167.2270050048828,42.86199951171875 -137.43800354003906,77.96199798583984 C-121.5199966430664,96.71900177001953 -107.8239974975586,86.91400146484375 -98.49099731445312,114.13300323486328 C-97.08300018310547,118.23799896240234 -99.802001953125,115.6449966430664 -99.802001953125,115.6449966430664 C-89.26499938964844,128.61599731445312 -75.3740005493164,122.89800262451172 -59.59000015258789,121.36000061035156 C-59.59000015258789,121.36000061035156 169.052001953125,99.08699798583984 169.052001953125,99.08699798583984 C184.6179962158203,97.57099914550781 204.64999389648438,94.91600036621094 217.98500061035156,92.48500061035156 C221.58299255371094,91.8290023803711 219.83999633789062,91.57099914550781 222.24400329589844,90.9749984741211 C233.54400634765625,88.1719970703125 274.37200927734375,81.69499969482422 285.9989929199219,55.47600173950195 C314.7969970703125,-9.46500015258789 321.5740051269531,-45.27199935913086 311.3080139160156,-72.56600189208984z"></path></g><g opacity="1" transform="matrix(1,0,0,1,0,0)"><path fill="url(#__lottie_element_11)" fill-opacity="1" d=" M70.55599975585938,128.3000030517578 C159.1020050048828,20.69300079345703 208.47000122070312,227.9669952392578 -0.20900000631809235,227.9669952392578 C-201.21600341796875,227.9669952392578 -149.24400329589844,35.064998626708984 -66.64800262451172,132.16000366210938 C-64.83399963378906,130.08399963378906 -42.569000244140625,150.7550048828125 -42.569000244140625,150.7550048828125 C-42.569000244140625,150.7550048828125 -27.562000274658203,179.25999450683594 -1,181.2169952392578 C30.64900016784668,183.5489959716797 39.224998474121094,153.55999755859375 39.224998474121094,153.55999755859375 C39.224998474121094,153.55999755859375 68.89700317382812,125.95500183105469 70.55599975585938,128.3000030517578z"></path></g><g opacity="1" transform="matrix(1,0,0,1,0,0)"><path fill="url(#__lottie_element_12)" fill-opacity="0.2" d=" M217.3179931640625,52.52399826049805 C216.9720001220703,-21.361000061035156 133.53799438476562,-146.13099670410156 119.55799865722656,-150.39599609375 C102.90799713134766,-155.46600341796875 72.06900024414062,-140.94500732421875 67.58799743652344,-121.57599639892578 C67.58799743652344,-121.57599639892578 67.5780029296875,-121.57599639892578 67.5780029296875,-121.57599639892578 C60.20800018310547,-133.9759979248047 64.39800262451172,-142.26600646972656 79.45800018310547,-153.17599487304688 C100.15799713134766,-168.16600036621094 121.26799774169922,-168.61599731445312 131.38800048828125,-158.92599487304688 C169.29600524902344,-122.6449966430664 210.4969940185547,-36.20800018310547 215.947998046875,-4.466000080108643 C218.60800170898438,10.984000205993652 220.55799865722656,29.04400062561035 217.3179931640625,52.52399826049805z"></path></g><g opacity="1" transform="matrix(1,0,0,1,0,0)"><path fill="url(#__lottie_element_13)" fill-opacity="0.2" d=" M-69.41200256347656,-120.66600036621094 C-67.60199737548828,-131.43600463867188 -82.54000091552734,-152.41000366210938 -101.85199737548828,-158.42599487304688 C-114.20099639892578,-162.2729949951172 -206.96800231933594,-67.84600067138672 -218.0019989013672,40.194000244140625 C-218.0019989013672,40.2140007019043 -218.0019989013672,40.23400115966797 -218.01199340820312,40.25400161743164 C-218.76199340820312,30.034000396728516 -218.4320068359375,20.194000244140625 -217.4320068359375,9.803999900817871 C-214.07200622558594,-25.275999069213867 -200.33200073242188,-56.10599899291992 -183.2519989013672,-87.5260009765625 C-166.1820068359375,-118.93599700927734 -127.8219985961914,-173.08599853515625 -107.56199645996094,-173.08599853515625 C-87.302001953125,-173.08599853515625 -64.89199829101562,-148.3260040283203 -63.54199981689453,-136.17599487304688 C-63.082000732421875,-132.03599548339844 -65.44200134277344,-126.90599822998047 -69.41200256347656,-120.66600036621094z"></path></g><g opacity="1" transform="matrix(1,0,0,1,0,0)"><g opacity="1" transform="matrix(1,0,0,1,0,0)"><path stroke-linecap="round" stroke-linejoin="round" fill-opacity="0" stroke="rgb(51,142,218)" stroke-opacity="0.3" stroke-width="8" d=" M-48.58700180053711,147.4669952392578 C-48.58700180053711,147.4669952392578 -32.21200180053711,188.2169952392578 1.5,188.2169952392578 C31.94499969482422,188.2169952392578 46.9900016784668,148.0229949951172 46.9900016784668,148.0229949951172"></path></g><g opacity="1" transform="matrix(1,0,0,1,0,0)"><path stroke-linecap="round" stroke-linejoin="round" fill-opacity="0" stroke="rgb(2,77,140)" stroke-opacity="1" stroke-width="8" d=" M-40.334999084472656,153.55999755859375 C-40.334999084472656,153.55999755859375 -101.3010025024414,112.28700256347656 -119.78299713134766,56.84199905395508 C-138.26499938964844,1.3969999551773071 -118.04499816894531,-38.98899841308594 -101.61699676513672,-71.16100311279297 C-85.18900299072266,-103.33300018310547 -62.18600082397461,-124.01499938964844 -63.5369987487793,-136.17100524902344 C-64.88800048828125,-148.32699584960938 -87.30000305175781,-173.09100341796875 -107.56099700927734,-173.09100341796875 C-127.8219985961914,-173.09100341796875 -166.17799377441406,-118.94000244140625 -183.2530059814453,-87.52300262451172 C-200.3280029296875,-56.10599899291992 -214.0679931640625,-25.274999618530273 -217.43099975585938,9.803000450134277 C-220.39999389648438,40.77399826049805 -217.4669952392578,66.79100036621094 -197.54600524902344,113.1510009765625 C-183.12899780273438,146.70199584960938 -164.21800231933594,182.38499450683594 -159.02699279785156,206.21099853515625"></path></g><g opacity="1" transform="matrix(1,0,0,1,0,0)"><path stroke-linecap="round" stroke-linejoin="round" fill-opacity="0" stroke="rgb(0,40,79)" stroke-opacity="1" stroke-width="8" d=" M-119.78299713134766,56.84199905395508 C-138.26499938964844,1.3969999551773071 -118.04499816894531,-38.98899841308594 -101.61699676513672,-71.16100311279297 C-85.18900299072266,-103.33300018310547 -62.18600082397461,-124.01499938964844 -63.5369987487793,-136.17100524902344 C-64.75499725341797,-147.1300048828125 -83.08899688720703,-168.3350067138672 -101.53299713134766,-172.406005859375"></path></g><g opacity="1" transform="matrix(1,0,0,1,0,0)"><path stroke-linecap="round" stroke-linejoin="round" fill-opacity="0" stroke="rgb(0,40,79)" stroke-opacity="1" stroke-width="8" d=" M-218.41400146484375,29.982999801635742 C-218.25900268554688,53.33399963378906 -213.04299926757812,77.08699798583984 -197.54600524902344,113.1510009765625 C-183.12899780273438,146.70199584960938 -164.21800231933594,182.38499450683594 -159.02699279785156,206.21099853515625"></path></g><g opacity="1" transform="matrix(1,0,0,1,0,0)"><path stroke-linecap="round" stroke-linejoin="round" fill-opacity="0" stroke="rgb(2,77,140)" stroke-opacity="1" stroke-width="8" d=" M160.47500610351562,206.25799560546875 C160.47500610351562,206.25799560546875 171.26600646972656,179.55799865722656 194.6009979248047,126.93599700927734 C223.3990020751953,61.994998931884766 220.88800048828125,24.273000717163086 215.95199584960938,-4.4670000076293945 C210.50100708007812,-36.20600128173828 169.2989959716797,-122.64399719238281 131.39199829101562,-158.92599487304688 C121.2699966430664,-168.61399841308594 100.16200256347656,-168.1699981689453 79.4540023803711,-153.1739959716797 C62.07699966430664,-140.58999633789062 59.16400146484375,-131.48800659179688 71.822998046875,-115.5260009765625 C84.48200225830078,-99.56400299072266 127.9749984741211,-31.409000396728516 126.61599731445312,9.803000450134277 C125.25700378417969,51.01499938964844 107.75800323486328,106.39600372314453 39.224998474121094,153.55999755859375"></path></g><g opacity="1" transform="matrix(1,0,0,1,0,0)"><path stroke-linecap="round" stroke-linejoin="round" fill-opacity="0" stroke="rgb(0,40,79)" stroke-opacity="1" stroke-width="8" d=" M119.69599914550781,51.42900085449219 C124.23300170898438,36.64099884033203 126.19599914550781,22.545000076293945 126.61599731445312,9.803000450134277 C127.9749984741211,-31.409000396728516 84.48200225830078,-99.56400299072266 71.822998046875,-115.5260009765625 C66.54900360107422,-122.17500305175781 63.97800064086914,-127.63500213623047 64.02899932861328,-132.6510009765625 C64.0469970703125,-134.40699768066406 64.40399932861328,-136.10299682617188 65.04399871826172,-137.78900146484375 C67.63999938964844,-144.62899780273438 83.37100219726562,-160.95899963378906 107.2300033569336,-165.06500244140625"></path></g><g opacity="1" transform="matrix(1,0,0,1,0,0)"><path stroke-linecap="round" stroke-linejoin="round" fill-opacity="0" stroke="rgb(0,40,79)" stroke-opacity="1" stroke-width="8" d=" M160.47500610351562,206.25799560546875 C160.47500610351562,206.25799560546875 171.26600646972656,179.55799865722656 194.6009979248047,126.93599700927734 C211.1439971923828,89.63200378417969 217.35499572753906,61.310001373291016 218.7100067138672,38.512001037597656"></path></g><g opacity="1" transform="matrix(1,0,0,1,0,0)"><path stroke-linecap="round" stroke-linejoin="round" fill-opacity="0" stroke="rgb(0,40,79)" stroke-opacity="1" stroke-width="10" d=" M-40.334999084472656,153.55999755859375 C-40.334999084472656,153.55999755859375 -24.277000427246094,181.2169952392578 1.5,181.2169952392578 C26.086999893188477,181.2169952392578 39.224998474121094,153.55999755859375 39.224998474121094,153.55999755859375"></path></g></g></g></g></svg>