<svg xmlns="http://www.w3.org/2000/svg" xmlns:xlink="http://www.w3.org/1999/xlink" viewBox="0 0 512 512" width="512" height="512" style="width: 100%; height: 100%; transform: translate3d(0,0,0); content-visibility: visible;" preserveAspectRatio="xMidYMid meet"><defs><clipPath id="__lottie_element_2"><rect width="512" height="512" x="0" y="0"></rect></clipPath><radialGradient id="__lottie_element_6" spreadMethod="pad" gradientUnits="userSpaceOnUse" cx="-114.23799896240234" cy="-164.2760009765625" r="29.608001708984375" fx="-114.23799896240234" fy="-164.2760009765625"><stop offset="0%" stop-color="rgb(182,182,180)"></stop><stop offset="47%" stop-color="rgb(172,172,170)"></stop><stop offset="100%" stop-color="rgb(163,163,160)"></stop></radialGradient><radialGradient id="__lottie_element_7" spreadMethod="pad" gradientUnits="userSpaceOnUse" cx="-40.737998962402344" cy="-193.7760009765625" r="28.263821424943195" fx="-40.737998962402344" fy="-193.7760009765625"><stop offset="0%" stop-color="rgb(182,182,180)"></stop><stop offset="47%" stop-color="rgb(172,172,170)"></stop><stop offset="100%" stop-color="rgb(163,163,160)"></stop></radialGradient><radialGradient id="__lottie_element_8" spreadMethod="pad" gradientUnits="userSpaceOnUse" cx="43.262001037597656" cy="-188.2760009765625" r="28.81932941810718" fx="43.262001037597656" fy="-188.2760009765625"><stop offset="0%" stop-color="rgb(182,182,180)"></stop><stop offset="47%" stop-color="rgb(172,172,170)"></stop><stop offset="100%" stop-color="rgb(163,163,160)"></stop></radialGradient><radialGradient id="__lottie_element_9" spreadMethod="pad" gradientUnits="userSpaceOnUse" cx="124.75299835205078" cy="-168.0800018310547" r="30.60625667878526" fx="124.75299835205078" fy="-168.0800018310547"><stop offset="0%" stop-color="rgb(182,182,180)"></stop><stop offset="47%" stop-color="rgb(172,172,170)"></stop><stop offset="100%" stop-color="rgb(163,163,160)"></stop></radialGradient><linearGradient id="__lottie_element_13" spreadMethod="pad" gradientUnits="userSpaceOnUse" x1="-1.0850000381469727" y1="-104.2760009765625" x2="-1.0850000381469727" y2="0.12200000137090683"><stop offset="19%" stop-color="rgb(255,169,0)" stop-opacity="0"></stop><stop offset="70%" stop-color="rgb(255,169,0)" stop-opacity="0.5"></stop><stop offset="100%" stop-color="rgb(255,169,0)" stop-opacity="1"></stop></linearGradient><linearGradient id="__lottie_element_14" spreadMethod="pad" gradientUnits="userSpaceOnUse" x1="-29.584999084472656" y1="-132.7760009765625" x2="-30.334999084472656" y2="40.12699890136719"><stop offset="20%" stop-color="rgb(218,110,0)" stop-opacity="0"></stop><stop offset="41%" stop-color="rgb(218,110,0)" stop-opacity="0.5"></stop><stop offset="54%" stop-color="rgb(218,110,0)" stop-opacity="1"></stop><stop offset="73%" stop-color="rgb(218,110,0)" stop-opacity="0.6499999761581421"></stop><stop offset="92%" stop-color="rgb(218,110,0)" stop-opacity="0.30000001192092896"></stop></linearGradient><linearGradient id="__lottie_element_15" spreadMethod="pad" gradientUnits="userSpaceOnUse" x1="-5.085000038146973" y1="-133.2760009765625" x2="1.63100004196167" y2="-49.68600082397461"><stop offset="0%" stop-color="rgb(255,255,255)" stop-opacity="1"></stop><stop offset="50%" stop-color="rgb(255,255,255)" stop-opacity="0.5299999713897705"></stop><stop offset="100%" stop-color="rgb(255,255,255)" stop-opacity="0.05999999865889549"></stop></linearGradient><linearGradient id="__lottie_element_16" spreadMethod="pad" gradientUnits="userSpaceOnUse" x1="-104.08499908447266" y1="-86.2760009765625" x2="-99.96099853515625" y2="-36.7869987487793"><stop offset="0%" stop-color="rgb(255,255,255)" stop-opacity="1"></stop><stop offset="50%" stop-color="rgb(255,255,255)" stop-opacity="0.5"></stop><stop offset="100%" stop-color="rgb(255,255,255)" stop-opacity="0"></stop></linearGradient><linearGradient id="__lottie_element_20" spreadMethod="pad" gradientUnits="userSpaceOnUse" x1="-48.362998962402344" y1="67.7239990234375" x2="-33.70199966430664" y2="87.7040023803711"><stop offset="0%" stop-color="rgb(66,0,0)"></stop><stop offset="50%" stop-color="rgb(118,40,0)"></stop><stop offset="100%" stop-color="rgb(170,80,0)"></stop></linearGradient><radialGradient id="__lottie_element_21" spreadMethod="pad" gradientUnits="userSpaceOnUse" cx="-35.862998962402344" cy="83.7239990234375" r="11.49599838256836" fx="-35.862998962402344" fy="83.7239990234375"><stop offset="0%" stop-color="rgb(246,175,0)" stop-opacity="1"></stop><stop offset="50%" stop-color="rgb(246,175,0)" stop-opacity="0.5"></stop><stop offset="100%" stop-color="rgb(246,175,0)" stop-opacity="0"></stop></radialGradient><linearGradient id="__lottie_element_22" spreadMethod="pad" gradientUnits="userSpaceOnUse" x1="-45.612998962402344" y1="62.8489990234375" x2="-45.237998962402344" y2="72.31400299072266"><stop offset="0%" stop-color="rgb(255,255,255)" stop-opacity="1"></stop><stop offset="60%" stop-color="rgb(255,255,255)" stop-opacity="0.5"></stop><stop offset="100%" stop-color="rgb(255,255,255)" stop-opacity="0"></stop></linearGradient><linearGradient id="__lottie_element_23" spreadMethod="pad" gradientUnits="userSpaceOnUse" x1="-48.362998962402344" y1="67.7239990234375" x2="-33.70199966430664" y2="87.7040023803711"><stop offset="0%" stop-color="rgb(66,0,0)"></stop><stop offset="50%" stop-color="rgb(118,40,0)"></stop><stop offset="100%" stop-color="rgb(170,80,0)"></stop></linearGradient><radialGradient id="__lottie_element_24" spreadMethod="pad" gradientUnits="userSpaceOnUse" cx="-35.862998962402344" cy="83.7239990234375" r="11.49599838256836" fx="-35.862998962402344" fy="83.7239990234375"><stop offset="0%" stop-color="rgb(246,175,0)" stop-opacity="1"></stop><stop offset="50%" stop-color="rgb(246,175,0)" stop-opacity="0.5"></stop><stop offset="100%" stop-color="rgb(246,175,0)" stop-opacity="0"></stop></radialGradient><linearGradient id="__lottie_element_25" spreadMethod="pad" gradientUnits="userSpaceOnUse" x1="-45.612998962402344" y1="62.8489990234375" x2="-45.237998962402344" y2="72.31400299072266"><stop offset="0%" stop-color="rgb(255,255,255)" stop-opacity="1"></stop><stop offset="60%" stop-color="rgb(255,255,255)" stop-opacity="0.5"></stop><stop offset="100%" stop-color="rgb(255,255,255)" stop-opacity="0"></stop></linearGradient><linearGradient id="__lottie_element_29" spreadMethod="pad" gradientUnits="userSpaceOnUse" x1="0.7620000243186951" y1="118.7239990234375" x2="0.7620000243186951" y2="141.08799743652344"><stop offset="0%" stop-color="rgb(219,110,0)" stop-opacity="1"></stop><stop offset="66%" stop-color="rgb(219,110,0)" stop-opacity="0.5"></stop><stop offset="100%" stop-color="rgb(219,110,0)" stop-opacity="0"></stop></linearGradient><linearGradient id="__lottie_element_30" spreadMethod="pad" gradientUnits="userSpaceOnUse" x1="0.7620000243186951" y1="131.7239990234375" x2="0.7620000243186951" y2="110.48699951171875"><stop offset="11%" stop-color="rgb(219,110,0)" stop-opacity="1"></stop><stop offset="49%" stop-color="rgb(219,110,0)" stop-opacity="0.5"></stop><stop offset="77%" stop-color="rgb(219,110,0)" stop-opacity="0"></stop></linearGradient><radialGradient id="__lottie_element_31" spreadMethod="pad" gradientUnits="userSpaceOnUse" cx="0.574999988079071" cy="107.53600311279297" r="17.077476700991213" fx="0.574999988079071" fy="107.53600311279297"><stop offset="40%" stop-color="rgb(255,168,0)" stop-opacity="0.05000000074505806"></stop><stop offset="70%" stop-color="rgb(255,168,0)" stop-opacity="0.5249999761581421"></stop><stop offset="100%" stop-color="rgb(255,168,0)" stop-opacity="1"></stop></radialGradient><linearGradient id="__lottie_element_32" spreadMethod="pad" gradientUnits="userSpaceOnUse" x1="0.7620000243186951" y1="104.7239990234375" x2="0.7620000243186951" y2="115.35800170898438"><stop offset="0%" stop-color="rgb(255,255,255)" stop-opacity="1"></stop><stop offset="50%" stop-color="rgb(255,255,255)" stop-opacity="0.5"></stop><stop offset="100%" stop-color="rgb(255,255,255)" stop-opacity="0"></stop></linearGradient><linearGradient id="__lottie_element_39" spreadMethod="pad" gradientUnits="userSpaceOnUse" x1="-0.23800000548362732" y1="-27.275999069213867" x2="0.7620000243186951" y2="54.37900161743164"><stop offset="0%" stop-color="rgb(219,110,0)" stop-opacity="1"></stop><stop offset="38%" stop-color="rgb(219,110,0)" stop-opacity="0.5"></stop><stop offset="71%" stop-color="rgb(219,110,0)" stop-opacity="0"></stop></linearGradient><linearGradient id="__lottie_element_40" spreadMethod="pad" gradientUnits="userSpaceOnUse" x1="-0.23800000548362732" y1="18.724000930786133" x2="-0.23800000548362732" y2="122.99500274658203"><stop offset="0%" stop-color="rgb(255,216,0)" stop-opacity="0"></stop><stop offset="14%" stop-color="rgb(255,216,0)" stop-opacity="0.5"></stop><stop offset="45%" stop-color="rgb(255,216,0)" stop-opacity="1"></stop><stop offset="77%" stop-color="rgb(255,216,0)" stop-opacity="0.5"></stop><stop offset="100%" stop-color="rgb(255,216,0)" stop-opacity="0"></stop></linearGradient><linearGradient id="__lottie_element_44" spreadMethod="pad" gradientUnits="userSpaceOnUse" x1="54.512001037597656" y1="155.7239990234375" x2="69.0530014038086" y2="218.74899291992188"><stop offset="12%" stop-color="rgb(219,110,0)" stop-opacity="1"></stop><stop offset="34%" stop-color="rgb(219,110,0)" stop-opacity="0.5"></stop><stop offset="58%" stop-color="rgb(219,110,0)" stop-opacity="0"></stop></linearGradient><radialGradient id="__lottie_element_45" spreadMethod="pad" gradientUnits="userSpaceOnUse" cx="156.26199340820312" cy="104.7239990234375" r="98.65739603658173" fx="156.26199340820312" fy="104.7239990234375"><stop offset="38%" stop-color="rgb(190,194,198)"></stop><stop offset="79%" stop-color="rgb(143,147,150)"></stop><stop offset="100%" stop-color="rgb(96,100,102)"></stop></radialGradient><linearGradient id="__lottie_element_46" spreadMethod="pad" gradientUnits="userSpaceOnUse" x1="154.26199340820312" y1="116.7239990234375" x2="99.95600128173828" y2="6.599999904632568"><stop offset="0%" stop-color="rgb(72,75,76)" stop-opacity="0.6000000238418579"></stop><stop offset="77%" stop-color="rgb(72,75,76)" stop-opacity="0.30000001192092896"></stop><stop offset="98%" stop-color="rgb(72,75,76)" stop-opacity="0"></stop></linearGradient><linearGradient id="__lottie_element_47" spreadMethod="pad" gradientUnits="userSpaceOnUse" x1="106.76200103759766" y1="95.7239990234375" x2="165.281005859375" y2="64.5770034790039"><stop offset="0%" stop-color="rgb(72,75,76)" stop-opacity="0.6000000238418579"></stop><stop offset="64%" stop-color="rgb(72,75,76)" stop-opacity="0.30000001192092896"></stop><stop offset="98%" stop-color="rgb(72,75,76)" stop-opacity="0"></stop></linearGradient><linearGradient id="__lottie_element_48" spreadMethod="pad" gradientUnits="userSpaceOnUse" x1="226.76199340820312" y1="142.7239990234375" x2="104.44200134277344" y2="22.118999481201172"><stop offset="0%" stop-color="rgb(255,255,255)" stop-opacity="1"></stop><stop offset="57%" stop-color="rgb(255,255,255)" stop-opacity="0.5"></stop><stop offset="95%" stop-color="rgb(255,255,255)" stop-opacity="0"></stop></linearGradient><radialGradient id="__lottie_element_49" spreadMethod="pad" gradientUnits="userSpaceOnUse" cx="148.4770050048828" cy="146.1219940185547" r="26.393466281140523" fx="148.4770050048828" fy="146.1219940185547"><stop offset="27%" stop-color="rgb(255,255,255)" stop-opacity="1"></stop><stop offset="76%" stop-color="rgb(255,255,255)" stop-opacity="0.5"></stop><stop offset="100%" stop-color="rgb(255,255,255)" stop-opacity="0"></stop></radialGradient><linearGradient id="__lottie_element_50" spreadMethod="pad" gradientUnits="userSpaceOnUse" x1="68.26200103759766" y1="99.2239990234375" x2="149.16600036621094" y2="175.56100463867188"><stop offset="18%" stop-color="rgb(255,255,255)" stop-opacity="1"></stop><stop offset="72%" stop-color="rgb(255,255,255)" stop-opacity="0.5"></stop><stop offset="95%" stop-color="rgb(255,255,255)" stop-opacity="0"></stop></linearGradient><linearGradient id="__lottie_element_54" spreadMethod="pad" gradientUnits="userSpaceOnUse" x1="54.512001037597656" y1="155.7239990234375" x2="69.0530014038086" y2="218.74899291992188"><stop offset="12%" stop-color="rgb(219,110,0)" stop-opacity="1"></stop><stop offset="34%" stop-color="rgb(219,110,0)" stop-opacity="0.5"></stop><stop offset="58%" stop-color="rgb(219,110,0)" stop-opacity="0"></stop></linearGradient><radialGradient id="__lottie_element_55" spreadMethod="pad" gradientUnits="userSpaceOnUse" cx="156.26199340820312" cy="104.7239990234375" r="98.65739603658173" fx="156.26199340820312" fy="104.7239990234375"><stop offset="38%" stop-color="rgb(190,194,198)"></stop><stop offset="79%" stop-color="rgb(143,147,150)"></stop><stop offset="100%" stop-color="rgb(96,100,102)"></stop></radialGradient><linearGradient id="__lottie_element_56" spreadMethod="pad" gradientUnits="userSpaceOnUse" x1="154.26199340820312" y1="116.7239990234375" x2="99.95600128173828" y2="6.599999904632568"><stop offset="0%" stop-color="rgb(72,75,76)" stop-opacity="0.6000000238418579"></stop><stop offset="77%" stop-color="rgb(72,75,76)" stop-opacity="0.30000001192092896"></stop><stop offset="98%" stop-color="rgb(72,75,76)" stop-opacity="0"></stop></linearGradient><linearGradient id="__lottie_element_57" spreadMethod="pad" gradientUnits="userSpaceOnUse" x1="106.76200103759766" y1="95.7239990234375" x2="165.281005859375" y2="64.5770034790039"><stop offset="0%" stop-color="rgb(72,75,76)" stop-opacity="0.6000000238418579"></stop><stop offset="64%" stop-color="rgb(72,75,76)" stop-opacity="0.30000001192092896"></stop><stop offset="98%" stop-color="rgb(72,75,76)" stop-opacity="0"></stop></linearGradient><linearGradient id="__lottie_element_58" spreadMethod="pad" gradientUnits="userSpaceOnUse" x1="226.76199340820312" y1="142.7239990234375" x2="104.44200134277344" y2="22.118999481201172"><stop offset="0%" stop-color="rgb(255,255,255)" stop-opacity="1"></stop><stop offset="57%" stop-color="rgb(255,255,255)" stop-opacity="0.5"></stop><stop offset="95%" stop-color="rgb(255,255,255)" stop-opacity="0"></stop></linearGradient><radialGradient id="__lottie_element_59" spreadMethod="pad" gradientUnits="userSpaceOnUse" cx="148.4770050048828" cy="146.1219940185547" r="26.393466281140523" fx="148.4770050048828" fy="146.1219940185547"><stop offset="27%" stop-color="rgb(255,255,255)" stop-opacity="1"></stop><stop offset="76%" stop-color="rgb(255,255,255)" stop-opacity="0.5"></stop><stop offset="100%" stop-color="rgb(255,255,255)" stop-opacity="0"></stop></radialGradient><linearGradient id="__lottie_element_60" spreadMethod="pad" gradientUnits="userSpaceOnUse" x1="68.26200103759766" y1="99.2239990234375" x2="149.16600036621094" y2="175.56100463867188"><stop offset="18%" stop-color="rgb(255,255,255)" stop-opacity="1"></stop><stop offset="72%" stop-color="rgb(255,255,255)" stop-opacity="0.5"></stop><stop offset="95%" stop-color="rgb(255,255,255)" stop-opacity="0"></stop></linearGradient></defs><g clip-path="url(#__lottie_element_2)"><g style="display: block;" transform="matrix(1,0,0,1,255.99998474121094,256)" opacity="1"><g opacity="1" transform="matrix(1,0,0,1,0,0)"><path fill="rgb(2,2,2)" fill-opacity="1" d=" M2.6500000953674316,30.95599937438965 C2.6500000953674316,30.95599937438965 -163.51100158691406,83.35399627685547 -160.63600158691406,144.49400329589844 C-157.76100158691406,205.63400268554688 154.8040008544922,218.4980010986328 162.84100341796875,144.49400329589844 C170.8780059814453,70.48999786376953 2.6500000953674316,30.95599937438965 2.6500000953674316,30.95599937438965z"></path></g></g><g style="display: block;" transform="matrix(1,0,0,1,256,256)" opacity="1"><g opacity="1" transform="matrix(1,0,0,1,0,0)"><g opacity="1" transform="matrix(1,0,0,1,0,0)"><path fill="rgb(255,216,0)" fill-opacity="1" d=" M89.05500030517578,163.46099853515625 C89.05500030517578,163.46099853515625 71.20600128173828,161.9429931640625 40.24300003051758,174.45899963378906 C30.57200050354004,178.36900329589844 2.3420000076293945,190.4320068359375 5.21999979019165,195.28700256347656 C8.097999572753906,200.14199829101562 11.277999877929688,200.26499938964844 22.569000244140625,196.0570068359375 C22.569000244140625,196.0570068359375 13.706000328063965,199.20700073242188 19.176000595092773,204.9199981689453 C21.35300064086914,207.19400024414062 24.80900001525879,208.20599365234375 28.277999877929688,207.2209930419922 C28.277999877929688,207.2209930419922 27.066999435424805,208.29299926757812 30.735000610351562,213.38499450683594 C34.512001037597656,218.6280059814453 48.5629997253418,208.20700073242188 48.5629997253418,208.20700073242188 C48.5629997253418,208.20700073242188 44.20000076293945,218.27200317382812 51.83100128173828,218.21099853515625 C56.667999267578125,218.17300415039062 70.48200225830078,208.18099975585938 74.53299713134766,207.20700073242188 C74.53299713134766,207.20700073242188 91.17900085449219,210.14300537109375 105.56199645996094,198.6739959716797 C105.56199645996094,198.6739959716797 111.79499816894531,173.76400756835938 111.79499816894531,173.76400756835938 C111.79499816894531,173.76400756835938 89.05500030517578,163.46099853515625 89.05500030517578,163.46099853515625z"></path></g><g opacity="1" transform="matrix(1,0,0,1,0,0)"><path fill="url(#__lottie_element_54)" fill-opacity="1" d=" M89.05500030517578,163.46099853515625 C89.05500030517578,163.46099853515625 64.02999877929688,162.6959991455078 38.24300003051758,175.45899963378906 C28.893999099731445,180.08599853515625 2.3420000076293945,190.4320068359375 5.21999979019165,195.28700256347656 C8.097999572753906,200.14199829101562 11.277999877929688,200.26499938964844 22.569000244140625,196.0570068359375 C22.569000244140625,196.0570068359375 13.706000328063965,199.20700073242188 19.176000595092773,204.9199981689453 C21.35300064086914,207.19400024414062 26.569000244140625,207.19000244140625 28.277999877929688,207.2209930419922 C28.277999877929688,207.2209930419922 27.066999435424805,208.29299926757812 30.735000610351562,213.38499450683594 C34.512001037597656,218.6280059814453 48.5629997253418,208.20700073242188 48.5629997253418,208.20700073242188 C48.5629997253418,208.20700073242188 44.20000076293945,218.27200317382812 51.83100128173828,218.21099853515625 C56.667999267578125,218.17300415039062 70.48200225830078,208.18099975585938 74.53299713134766,207.20700073242188 C74.53299713134766,207.20700073242188 91.17900085449219,210.14300537109375 105.56199645996094,198.6739959716797 C105.56199645996094,198.6739959716797 111.79499816894531,173.76400756835938 111.79499816894531,173.76400756835938 C111.79499816894531,173.76400756835938 89.05500030517578,163.46099853515625 89.05500030517578,163.46099853515625z"></path></g><g opacity="1" transform="matrix(1,0,0,1,0,0)"><path stroke-linecap="round" stroke-linejoin="round" fill-opacity="0" stroke="rgb(218,110,0)" stroke-opacity="1" stroke-width="4" d=" M49.5629997253418,208.20700073242188 C54.75199890136719,203.52000427246094 58.1150016784668,200.927001953125 61.66400146484375,198.2550048828125"></path></g><g opacity="1" transform="matrix(1,0,0,1,0,0)"><path stroke-linecap="round" stroke-linejoin="round" fill-opacity="0" stroke="rgb(218,110,0)" stroke-opacity="1" stroke-width="4" d=" M52.38999938964844,190.91000366210938 C52.38999938964844,190.91000366210938 28.277999877929688,207.2209930419922 28.277999877929688,207.2209930419922"></path></g><g opacity="1" transform="matrix(1,0,0,1,0,0)"><path stroke-linecap="round" stroke-linejoin="round" fill-opacity="0" stroke="rgb(197,92,0)" stroke-opacity="1" stroke-width="8" d=" M89.59700012207031,161.31399536132812 C66.97200012207031,161.31399536132812 48.40800094604492,170.76800537109375 38.24300003051758,174.45899963378906 C28.437999725341797,178.0189971923828 2.3420000076293945,190.4320068359375 5.21999979019165,195.28700256347656 C8.097999572753906,200.14199829101562 31.190000534057617,188.89599609375 42.48099899291992,184.68800354003906 C42.48099899291992,184.68800354003906 36.07899856567383,188.54600524902344 29.9060001373291,192.3679962158203 C23.13599967956543,196.55999755859375 16.642000198364258,200.91099548339844 19.176000595092773,204.9199981689453 C20.857999801635742,207.58099365234375 23.027000427246094,208.20599365234375 28.277999877929688,207.2209930419922 C28.277999877929688,207.2209930419922 27.159000396728516,211.1199951171875 30.735000610351562,213.38499450683594 C36.194000244140625,216.8419952392578 48.5629997253418,209.20700073242188 48.5629997253418,209.20700073242188 C48.5629997253418,209.20700073242188 46.73400115966797,214.62600708007812 53.83100128173828,216.21099853515625 C58.551998138427734,217.26499938964844 68.47000122070312,207.1840057373047 72.53299713134766,206.20700073242188 C72.53299713134766,206.20700073242188 96.61499786376953,208.20700073242188 105.56199645996094,200.6739959716797"></path></g></g><g opacity="1" transform="matrix(1,0,0,1,0,0)"><path fill="url(#__lottie_element_55)" fill-opacity="1" d=" M123.7760009765625,125.82499694824219 C64.18199920654297,62.459999084472656 71.20600128173828,11.805000305175781 99.53199768066406,5.823999881744385 C134.79800415039062,-1.621999979019165 153.9459991455078,38.94499969482422 170.5070037841797,70.48899841308594 C187.0679931640625,102.03299713134766 198.10800170898438,128.8470001220703 197.31900024414062,158.02499389648438 C196.52999877929688,187.2030029296875 154.3800048828125,212.125 124.76699829101562,201.3979949951172 C124.76699829101562,201.3979949951172 113.16999816894531,205.01600646972656 103.90499877929688,204.59800720214844 C103.90499877929688,204.59800720214844 111.50900268554688,183.4709930419922 99.53199768066406,170.93699645996094 C87.55500030517578,158.4029998779297 71.20600128173828,159.94200134277344 71.20600128173828,159.94200134277344 C71.20600128173828,159.94200134277344 74.47599792480469,151.3179931640625 90.82499694824219,150.7729949951172 C90.82499694824219,150.7729949951172 86.9010009765625,123.39099884033203 171.4720001220703,121.18900299072266 C171.4720001220703,121.18900299072266 123.7760009765625,125.82499694824219 123.7760009765625,125.82499694824219z"></path></g><g opacity="1" transform="matrix(1,0,0,1,0,0)"><path fill="url(#__lottie_element_56)" fill-opacity="0.9" d=" M196.8470001220703,144.49400329589844 C196.8470001220703,144.49400329589844 190.14199829101562,119.36599731445312 155.67999267578125,122.7239990234375 C155.67999267578125,122.7239990234375 123.7760009765625,127.68800354003906 123.7760009765625,127.68800354003906 C123.7760009765625,127.68800354003906 94.03399658203125,96.53700256347656 84.76499938964844,68.01699829101562 C75.49600219726562,39.49700164794922 74.08399963378906,4.328000068664551 110.54299926757812,5.0289998054504395 C147.0019989013672,5.730000019073486 187.5,98.13600158691406 196.8470001220703,144.49400329589844z"></path></g><g opacity="1" transform="matrix(1,0,0,1,0,0)"><path fill="url(#__lottie_element_57)" fill-opacity="1" d=" M196.8470001220703,144.49400329589844 C196.8470001220703,144.49400329589844 190.14199829101562,119.36599731445312 155.67999267578125,122.7239990234375 C155.67999267578125,122.7239990234375 123.7760009765625,127.68800354003906 123.7760009765625,127.68800354003906 C123.7760009765625,127.68800354003906 94.03399658203125,96.53700256347656 84.76499938964844,68.01699829101562 C75.49600219726562,39.49700164794922 74.08399963378906,4.328000068664551 110.54299926757812,5.0289998054504395 C147.0019989013672,5.730000019073486 187.5,98.13600158691406 196.8470001220703,144.49400329589844z"></path></g><g opacity="1" transform="matrix(1,0,0,1,0,0)"><path stroke-linecap="round" stroke-linejoin="round" fill-opacity="0" stroke="rgb(72,75,76)" stroke-opacity="1" stroke-width="8" d=" M180.73899841308594,125.81400299072266 C160.21400451660156,120.39800262451172 139.29400634765625,123.28900146484375 128.38999938964844,125.55599975585938 C88.40299987792969,133.86900329589844 90.82499694824219,150.7729949951172 90.82499694824219,150.7729949951172 C74.47599792480469,151.3179931640625 71.20600128173828,158.94200134277344 71.20600128173828,158.94200134277344 C71.20600128173828,158.94200134277344 88.4469985961914,157.60800170898438 99.53199768066406,170.93699645996094 C112.66400146484375,186.7270050048828 103.90499877929688,204.59800720214844 103.90499877929688,204.59800720214844 C113.16999816894531,205.01600646972656 124.76699829101562,201.3979949951172 124.76699829101562,201.3979949951172 C154.3800048828125,212.125 196.52999877929688,187.2030029296875 197.31900024414062,158.02499389648438 C198.10800170898438,128.8470001220703 187.0679931640625,102.03299713134766 170.5070037841797,70.48899841308594 C153.9459991455078,38.94499969482422 134.79800415039062,-1.621999979019165 99.53199768066406,5.823999881744385 C71.20600128173828,11.805000305175781 64.18199920654297,62.459999084472656 123.7760009765625,125.82499694824219"></path></g><g opacity="1" transform="matrix(1,0,0,1,0,0)"><path fill="url(#__lottie_element_58)" fill-opacity="0.15" d=" M90.63800048828125,9.642999649047852 C90.63800048828125,9.642999649047852 90.63800048828125,9.652999877929688 90.63800048828125,9.652999877929688 C105.95800018310547,4.9730000495910645 151.78700256347656,25.37299919128418 198.34800720214844,153.85299682617188 C198.03799438476562,126.26300048828125 186.2779998779297,100.52400207519531 170.50799560546875,70.49400329589844 C153.947998046875,38.944000244140625 134.79800415039062,-1.6260000467300415 99.52799987792969,5.823999881744385 C96.25800323486328,6.513999938964844 93.26799774169922,7.802999973297119 90.63800048828125,9.642999649047852z"></path></g><g opacity="1" transform="matrix(1.6705553531646729,-0.24177247285842896,0.143233522772789,0.9896889328956604,-122.33663940429688,39.477134704589844)"><path fill="url(#__lottie_element_59)" fill-opacity="0.2" d=" M169.8509979248047,127.97599792480469 C179.18299865722656,136.4149932861328 183.8159942626953,164.7830047607422 161.28399658203125,174.468994140625 C131.94700622558594,187.0800018310547 142.98199462890625,169.21400451660156 132.01600646972656,149.6020050048828 C125.27200317382812,137.54100036621094 106.36799621582031,143.5709991455078 128.55599975585938,127.99299621582031 C152.13999938964844,111.43499755859375 169.8509979248047,127.97599792480469 169.8509979248047,127.97599792480469z"></path></g><g opacity="1" transform="matrix(1,0,0,1,0,0)"><path fill="url(#__lottie_element_60)" fill-opacity="0.3" d=" M179.58599853515625,128.66600036621094 C182.01400756835938,128.93800354003906 99.53199768066406,131.71200561523438 90.5009994506836,154.39199829101562 C90.5009994506836,154.39199829101562 121.62699890136719,153.73500061035156 120.76699829101562,201.3979949951172 C120.76699829101562,201.3979949951172 103.90499877929688,204.59800720214844 103.90499877929688,204.59800720214844 C103.90499877929688,204.59800720214844 110.62300109863281,179.4669952392578 99.53199768066406,170.93699645996094 C88.44100189208984,162.40699768066406 79.93099975585938,157.35899353027344 71.20600128173828,159.94200134277344 C71.20600128173828,159.94200134277344 73.83100128173828,151.57000732421875 90.82499694824219,150.7729949951172 C90.82499694824219,150.7729949951172 110.58499908447266,106.16200256347656 179.58599853515625,128.66600036621094z"></path></g><g opacity="1" transform="matrix(1,0,0,1,0,0)"><path stroke-linecap="round" stroke-linejoin="round" fill-opacity="0" stroke="rgb(111,115,117)" stroke-opacity="1" stroke-width="8" d=" M180.73899841308594,125.81400299072266 C160.21400451660156,120.39800262451172 139.29400634765625,123.28900146484375 128.38999938964844,125.55599975585938 C88.40299987792969,133.86900329589844 90.82499694824219,150.7729949951172 90.82499694824219,150.7729949951172 C74.47599792480469,151.3179931640625 71.20600128173828,158.94200134277344 71.20600128173828,158.94200134277344 C71.20600128173828,158.94200134277344 88.4469985961914,157.60800170898438 99.53199768066406,170.93699645996094 C112.66400146484375,186.7270050048828 103.90499877929688,204.59800720214844 103.90499877929688,204.59800720214844 C113.16999816894531,205.01600646972656 124.76699829101562,201.3979949951172 124.76699829101562,201.3979949951172 C154.3800048828125,212.125 196.52999877929688,187.2030029296875 197.31900024414062,158.02499389648438 C198.10800170898438,128.8470001220703 187.0679931640625,102.03299713134766 170.5070037841797,70.48899841308594 C153.9459991455078,38.94499969482422 134.79800415039062,-1.621999979019165 99.53199768066406,5.823999881744385"></path></g><g opacity="1" transform="matrix(1,0,0,1,0,0)"><path stroke-linecap="round" stroke-linejoin="round" fill-opacity="0" stroke="rgb(72,75,76)" stroke-opacity="1" stroke-width="8" d=" M103.90499877929688,204.59800720214844 C113.16999816894531,205.01600646972656 124.76699829101562,201.3979949951172 124.76699829101562,201.3979949951172 C154.3800048828125,212.125 196.52999877929688,187.2030029296875 197.31900024414062,158.02499389648438 C198.10800170898438,128.8470001220703 187.0679931640625,102.03299713134766 170.5070037841797,70.48899841308594 C153.9459991455078,38.94499969482422 134.79800415039062,-1.621999979019165 99.53199768066406,5.823999881744385"></path></g><g opacity="1" transform="matrix(1,0,0,1,0,0)"><path stroke-linecap="round" stroke-linejoin="round" fill-opacity="0" stroke="rgb(72,75,76)" stroke-opacity="1" stroke-width="8" d=" M71.20600128173828,158.94200134277344 C71.20600128173828,158.94200134277344 88.4469985961914,157.60800170898438 99.53199768066406,170.93699645996094 C112.66400146484375,186.7270050048828 103.90499877929688,204.59800720214844 103.90499877929688,204.59800720214844"></path></g></g><g style="display: block;" transform="matrix(-1,0,0,1,258.2229919433594,256)" opacity="1"><g opacity="1" transform="matrix(1,0,0,1,0,0)"><g opacity="1" transform="matrix(1,0,0,1,0,0)"><path fill="rgb(255,216,0)" fill-opacity="1" d=" M89.05500030517578,163.46099853515625 C89.05500030517578,163.46099853515625 71.20600128173828,161.9429931640625 40.24300003051758,174.45899963378906 C30.57200050354004,178.36900329589844 2.3420000076293945,190.4320068359375 5.21999979019165,195.28700256347656 C8.097999572753906,200.14199829101562 11.277999877929688,200.26499938964844 22.569000244140625,196.0570068359375 C22.569000244140625,196.0570068359375 13.706000328063965,199.20700073242188 19.176000595092773,204.9199981689453 C21.35300064086914,207.19400024414062 24.80900001525879,208.20599365234375 28.277999877929688,207.2209930419922 C28.277999877929688,207.2209930419922 27.066999435424805,208.29299926757812 30.735000610351562,213.38499450683594 C34.512001037597656,218.6280059814453 48.5629997253418,208.20700073242188 48.5629997253418,208.20700073242188 C48.5629997253418,208.20700073242188 44.20000076293945,218.27200317382812 51.83100128173828,218.21099853515625 C56.667999267578125,218.17300415039062 70.48200225830078,208.18099975585938 74.53299713134766,207.20700073242188 C74.53299713134766,207.20700073242188 91.17900085449219,210.14300537109375 105.56199645996094,198.6739959716797 C105.56199645996094,198.6739959716797 111.79499816894531,173.76400756835938 111.79499816894531,173.76400756835938 C111.79499816894531,173.76400756835938 89.05500030517578,163.46099853515625 89.05500030517578,163.46099853515625z"></path></g><g opacity="1" transform="matrix(1,0,0,1,0,0)"><path fill="url(#__lottie_element_44)" fill-opacity="1" d=" M89.05500030517578,163.46099853515625 C89.05500030517578,163.46099853515625 64.02999877929688,162.6959991455078 38.24300003051758,175.45899963378906 C28.893999099731445,180.08599853515625 2.3420000076293945,190.4320068359375 5.21999979019165,195.28700256347656 C8.097999572753906,200.14199829101562 11.277999877929688,200.26499938964844 22.569000244140625,196.0570068359375 C22.569000244140625,196.0570068359375 13.706000328063965,199.20700073242188 19.176000595092773,204.9199981689453 C21.35300064086914,207.19400024414062 26.569000244140625,207.19000244140625 28.277999877929688,207.2209930419922 C28.277999877929688,207.2209930419922 27.066999435424805,208.29299926757812 30.735000610351562,213.38499450683594 C34.512001037597656,218.6280059814453 48.5629997253418,208.20700073242188 48.5629997253418,208.20700073242188 C48.5629997253418,208.20700073242188 44.20000076293945,218.27200317382812 51.83100128173828,218.21099853515625 C56.667999267578125,218.17300415039062 70.48200225830078,208.18099975585938 74.53299713134766,207.20700073242188 C74.53299713134766,207.20700073242188 91.17900085449219,210.14300537109375 105.56199645996094,198.6739959716797 C105.56199645996094,198.6739959716797 111.79499816894531,173.76400756835938 111.79499816894531,173.76400756835938 C111.79499816894531,173.76400756835938 89.05500030517578,163.46099853515625 89.05500030517578,163.46099853515625z"></path></g><g opacity="1" transform="matrix(1,0,0,1,0,0)"><path stroke-linecap="round" stroke-linejoin="round" fill-opacity="0" stroke="rgb(218,110,0)" stroke-opacity="1" stroke-width="4" d=" M49.5629997253418,208.20700073242188 C54.75199890136719,203.52000427246094 58.1150016784668,200.927001953125 61.66400146484375,198.2550048828125"></path></g><g opacity="1" transform="matrix(1,0,0,1,0,0)"><path stroke-linecap="round" stroke-linejoin="round" fill-opacity="0" stroke="rgb(218,110,0)" stroke-opacity="1" stroke-width="4" d=" M52.38999938964844,190.91000366210938 C52.38999938964844,190.91000366210938 28.277999877929688,207.2209930419922 28.277999877929688,207.2209930419922"></path></g><g opacity="1" transform="matrix(1,0,0,1,0,0)"><path stroke-linecap="round" stroke-linejoin="round" fill-opacity="0" stroke="rgb(197,92,0)" stroke-opacity="1" stroke-width="8" d=" M89.59700012207031,161.31399536132812 C66.97200012207031,161.31399536132812 48.40800094604492,170.76800537109375 38.24300003051758,174.45899963378906 C28.437999725341797,178.0189971923828 2.3420000076293945,190.4320068359375 5.21999979019165,195.28700256347656 C8.097999572753906,200.14199829101562 31.190000534057617,188.89599609375 42.48099899291992,184.68800354003906 C42.48099899291992,184.68800354003906 36.07899856567383,188.54600524902344 29.9060001373291,192.3679962158203 C23.13599967956543,196.55999755859375 16.642000198364258,200.91099548339844 19.176000595092773,204.9199981689453 C20.857999801635742,207.58099365234375 23.027000427246094,208.20599365234375 28.277999877929688,207.2209930419922 C28.277999877929688,207.2209930419922 27.159000396728516,211.1199951171875 30.735000610351562,213.38499450683594 C36.194000244140625,216.8419952392578 48.5629997253418,209.20700073242188 48.5629997253418,209.20700073242188 C48.5629997253418,209.20700073242188 46.73400115966797,214.62600708007812 53.83100128173828,216.21099853515625 C58.551998138427734,217.26499938964844 68.47000122070312,207.1840057373047 72.53299713134766,206.20700073242188 C72.53299713134766,206.20700073242188 96.61499786376953,208.20700073242188 105.56199645996094,200.6739959716797"></path></g></g><g opacity="1" transform="matrix(1,0,0,1,0,0)"><path fill="url(#__lottie_element_45)" fill-opacity="1" d=" M123.7760009765625,125.82499694824219 C64.18199920654297,62.459999084472656 71.20600128173828,11.805000305175781 99.53199768066406,5.823999881744385 C134.79800415039062,-1.621999979019165 153.9459991455078,38.94499969482422 170.5070037841797,70.48899841308594 C187.0679931640625,102.03299713134766 198.10800170898438,128.8470001220703 197.31900024414062,158.02499389648438 C196.52999877929688,187.2030029296875 154.3800048828125,212.125 124.76699829101562,201.3979949951172 C124.76699829101562,201.3979949951172 113.16999816894531,205.01600646972656 103.90499877929688,204.59800720214844 C103.90499877929688,204.59800720214844 111.50900268554688,183.4709930419922 99.53199768066406,170.93699645996094 C87.55500030517578,158.4029998779297 71.20600128173828,159.94200134277344 71.20600128173828,159.94200134277344 C71.20600128173828,159.94200134277344 74.47599792480469,151.3179931640625 90.82499694824219,150.7729949951172 C90.82499694824219,150.7729949951172 86.9010009765625,123.39099884033203 171.4720001220703,121.18900299072266 C171.4720001220703,121.18900299072266 123.7760009765625,125.82499694824219 123.7760009765625,125.82499694824219z"></path></g><g opacity="1" transform="matrix(1,0,0,1,0,0)"><path fill="url(#__lottie_element_46)" fill-opacity="0.9" d=" M196.8470001220703,144.49400329589844 C196.8470001220703,144.49400329589844 190.14199829101562,119.36599731445312 155.67999267578125,122.7239990234375 C155.67999267578125,122.7239990234375 123.7760009765625,127.68800354003906 123.7760009765625,127.68800354003906 C123.7760009765625,127.68800354003906 94.03399658203125,96.53700256347656 84.76499938964844,68.01699829101562 C75.49600219726562,39.49700164794922 74.08399963378906,4.328000068664551 110.54299926757812,5.0289998054504395 C147.0019989013672,5.730000019073486 187.5,98.13600158691406 196.8470001220703,144.49400329589844z"></path></g><g opacity="1" transform="matrix(1,0,0,1,0,0)"><path fill="url(#__lottie_element_47)" fill-opacity="1" d=" M196.8470001220703,144.49400329589844 C196.8470001220703,144.49400329589844 190.14199829101562,119.36599731445312 155.67999267578125,122.7239990234375 C155.67999267578125,122.7239990234375 123.7760009765625,127.68800354003906 123.7760009765625,127.68800354003906 C123.7760009765625,127.68800354003906 94.03399658203125,96.53700256347656 84.76499938964844,68.01699829101562 C75.49600219726562,39.49700164794922 74.08399963378906,4.328000068664551 110.54299926757812,5.0289998054504395 C147.0019989013672,5.730000019073486 187.5,98.13600158691406 196.8470001220703,144.49400329589844z"></path></g><g opacity="1" transform="matrix(1,0,0,1,0,0)"><path stroke-linecap="round" stroke-linejoin="round" fill-opacity="0" stroke="rgb(72,75,76)" stroke-opacity="1" stroke-width="8" d=" M180.73899841308594,125.81400299072266 C160.21400451660156,120.39800262451172 139.29400634765625,123.28900146484375 128.38999938964844,125.55599975585938 C88.40299987792969,133.86900329589844 90.82499694824219,150.7729949951172 90.82499694824219,150.7729949951172 C74.47599792480469,151.3179931640625 71.20600128173828,158.94200134277344 71.20600128173828,158.94200134277344 C71.20600128173828,158.94200134277344 88.4469985961914,157.60800170898438 99.53199768066406,170.93699645996094 C112.66400146484375,186.7270050048828 103.90499877929688,204.59800720214844 103.90499877929688,204.59800720214844 C113.16999816894531,205.01600646972656 124.76699829101562,201.3979949951172 124.76699829101562,201.3979949951172 C154.3800048828125,212.125 196.52999877929688,187.2030029296875 197.31900024414062,158.02499389648438 C198.10800170898438,128.8470001220703 187.0679931640625,102.03299713134766 170.5070037841797,70.48899841308594 C153.9459991455078,38.94499969482422 134.79800415039062,-1.621999979019165 99.53199768066406,5.823999881744385 C71.20600128173828,11.805000305175781 64.18199920654297,62.459999084472656 123.7760009765625,125.82499694824219"></path></g><g opacity="1" transform="matrix(1,0,0,1,0,0)"><path fill="url(#__lottie_element_48)" fill-opacity="0.15" d=" M90.63800048828125,9.642999649047852 C90.63800048828125,9.642999649047852 90.63800048828125,9.652999877929688 90.63800048828125,9.652999877929688 C105.95800018310547,4.9730000495910645 151.78700256347656,25.37299919128418 198.34800720214844,153.85299682617188 C198.03799438476562,126.26300048828125 186.2779998779297,100.52400207519531 170.50799560546875,70.49400329589844 C153.947998046875,38.944000244140625 134.79800415039062,-1.6260000467300415 99.52799987792969,5.823999881744385 C96.25800323486328,6.513999938964844 93.26799774169922,7.802999973297119 90.63800048828125,9.642999649047852z"></path></g><g opacity="1" transform="matrix(1.6705553531646729,-0.24177247285842896,0.143233522772789,0.9896889328956604,-122.33663940429688,39.477134704589844)"><path fill="url(#__lottie_element_49)" fill-opacity="0.2" d=" M169.8509979248047,127.97599792480469 C179.18299865722656,136.4149932861328 183.8159942626953,164.7830047607422 161.28399658203125,174.468994140625 C131.94700622558594,187.0800018310547 142.98199462890625,169.21400451660156 132.01600646972656,149.6020050048828 C125.27200317382812,137.54100036621094 106.36799621582031,143.5709991455078 128.55599975585938,127.99299621582031 C152.13999938964844,111.43499755859375 169.8509979248047,127.97599792480469 169.8509979248047,127.97599792480469z"></path></g><g opacity="1" transform="matrix(1,0,0,1,0,0)"><path fill="url(#__lottie_element_50)" fill-opacity="0.3" d=" M179.58599853515625,128.66600036621094 C182.01400756835938,128.93800354003906 99.53199768066406,131.71200561523438 90.5009994506836,154.39199829101562 C90.5009994506836,154.39199829101562 121.62699890136719,153.73500061035156 120.76699829101562,201.3979949951172 C120.76699829101562,201.3979949951172 103.90499877929688,204.59800720214844 103.90499877929688,204.59800720214844 C103.90499877929688,204.59800720214844 110.62300109863281,179.4669952392578 99.53199768066406,170.93699645996094 C88.44100189208984,162.40699768066406 79.93099975585938,157.35899353027344 71.20600128173828,159.94200134277344 C71.20600128173828,159.94200134277344 73.83100128173828,151.57000732421875 90.82499694824219,150.7729949951172 C90.82499694824219,150.7729949951172 110.58499908447266,106.16200256347656 179.58599853515625,128.66600036621094z"></path></g><g opacity="1" transform="matrix(1,0,0,1,0,0)"><path stroke-linecap="round" stroke-linejoin="round" fill-opacity="0" stroke="rgb(111,115,117)" stroke-opacity="1" stroke-width="8" d=" M180.73899841308594,125.81400299072266 C160.21400451660156,120.39800262451172 139.29400634765625,123.28900146484375 128.38999938964844,125.55599975585938 C88.40299987792969,133.86900329589844 90.82499694824219,150.7729949951172 90.82499694824219,150.7729949951172 C74.47599792480469,151.3179931640625 71.20600128173828,158.94200134277344 71.20600128173828,158.94200134277344 C71.20600128173828,158.94200134277344 88.4469985961914,157.60800170898438 99.53199768066406,170.93699645996094 C112.66400146484375,186.7270050048828 103.90499877929688,204.59800720214844 103.90499877929688,204.59800720214844 C113.16999816894531,205.01600646972656 124.76699829101562,201.3979949951172 124.76699829101562,201.3979949951172 C154.3800048828125,212.125 196.52999877929688,187.2030029296875 197.31900024414062,158.02499389648438 C198.10800170898438,128.8470001220703 187.0679931640625,102.03299713134766 170.5070037841797,70.48899841308594 C153.9459991455078,38.94499969482422 134.79800415039062,-1.621999979019165 99.53199768066406,5.823999881744385"></path></g><g opacity="1" transform="matrix(1,0,0,1,0,0)"><path stroke-linecap="round" stroke-linejoin="round" fill-opacity="0" stroke="rgb(72,75,76)" stroke-opacity="1" stroke-width="8" d=" M103.90499877929688,204.59800720214844 C113.16999816894531,205.01600646972656 124.76699829101562,201.3979949951172 124.76699829101562,201.3979949951172 C154.3800048828125,212.125 196.52999877929688,187.2030029296875 197.31900024414062,158.02499389648438 C198.10800170898438,128.8470001220703 187.0679931640625,102.03299713134766 170.5070037841797,70.48899841308594 C153.9459991455078,38.94499969482422 134.79800415039062,-1.621999979019165 99.53199768066406,5.823999881744385"></path></g><g opacity="1" transform="matrix(1,0,0,1,0,0)"><path stroke-linecap="round" stroke-linejoin="round" fill-opacity="0" stroke="rgb(72,75,76)" stroke-opacity="1" stroke-width="8" d=" M71.20600128173828,158.94200134277344 C71.20600128173828,158.94200134277344 88.4469985961914,157.60800170898438 99.53199768066406,170.93699645996094 C112.66400146484375,186.7270050048828 103.90499877929688,204.59800720214844 103.90499877929688,204.59800720214844"></path></g></g><g style="display: block;" transform="matrix(1,0,0,1,256,256)" opacity="1"><g opacity="1" transform="matrix(1,0,0,1,0,0)"><g opacity="1" transform="matrix(1,0,0,1,0,0)"><path fill="rgb(255,168,0)" fill-opacity="1" d=" M-104.072998046875,26.163000106811523 C-104.072998046875,26.163000106811523 -118.97100067138672,20.56399917602539 -123.4749984741211,36.87799835205078 C-127.63700103759766,51.95500183105469 -113.06999969482422,84.75499725341797 -94.86299896240234,77.26799774169922 C-76.93499755859375,69.89600372314453 -104.072998046875,26.163000106811523 -104.072998046875,26.163000106811523z"></path><path stroke-linecap="round" stroke-linejoin="round" fill-opacity="0" stroke="rgb(218,110,0)" stroke-opacity="1" stroke-width="8" d=" M-104.072998046875,26.163000106811523 C-104.072998046875,26.163000106811523 -118.97100067138672,20.56399917602539 -123.4749984741211,36.87799835205078 C-127.63700103759766,51.95500183105469 -113.06999969482422,84.75499725341797 -94.86299896240234,77.26799774169922 C-76.93499755859375,69.89600372314453 -104.072998046875,26.163000106811523 -104.072998046875,26.163000106811523z"></path></g><g opacity="1" transform="matrix(1,0,0,1,0,0)"><path fill="rgb(255,168,0)" fill-opacity="1" d=" M106.072998046875,26.163000106811523 C106.072998046875,26.163000106811523 120.97100067138672,20.56399917602539 125.4749984741211,36.87799835205078 C129.63699340820312,51.95500183105469 115.06999969482422,84.75499725341797 96.86299896240234,77.26799774169922 C78.93499755859375,69.89600372314453 106.072998046875,26.163000106811523 106.072998046875,26.163000106811523z"></path><path stroke-linecap="round" stroke-linejoin="round" fill-opacity="0" stroke="rgb(218,110,0)" stroke-opacity="1" stroke-width="8" d=" M106.072998046875,26.163000106811523 C106.072998046875,26.163000106811523 120.97100067138672,20.56399917602539 125.4749984741211,36.87799835205078 C129.63699340820312,51.95500183105469 115.06999969482422,84.75499725341797 96.86299896240234,77.26799774169922 C78.93499755859375,69.89600372314453 106.072998046875,26.163000106811523 106.072998046875,26.163000106811523z"></path></g></g><g opacity="1" transform="matrix(1,0,0,1,0,0)"><path fill="rgb(255,168,0)" fill-opacity="1" d=" M1.2230000495910645,-70.72100067138672 C1.2230000495910645,-70.72100067138672 -109.2249984741211,-121.73300170898438 -109.2249984741211,30.95599937438965 C-109.2249984741211,74.75599670410156 -80.37699890136719,143.49400329589844 1.2230000495910645,143.49400329589844 C82.822998046875,143.49400329589844 111.6709976196289,74.75599670410156 111.6709976196289,30.95599937438965 C111.6709976196289,-121.73300170898438 1.2230000495910645,-70.72100067138672 1.2230000495910645,-70.72100067138672z"></path></g><g opacity="1" transform="matrix(1,0,0,1,0,0)"><path fill="url(#__lottie_element_39)" fill-opacity="1" d=" M1.2230000495910645,-70.72100067138672 C1.2230000495910645,-70.72100067138672 -109.2249984741211,-121.73300170898438 -109.2249984741211,30.95599937438965 C-109.2249984741211,74.75599670410156 -80.37699890136719,142.49400329589844 1.2230000495910645,142.49400329589844 C82.822998046875,142.49400329589844 111.6709976196289,74.75599670410156 111.6709976196289,30.95599937438965 C111.6709976196289,-121.73300170898438 1.2230000495910645,-70.72100067138672 1.2230000495910645,-70.72100067138672z"></path></g><g opacity="1" transform="matrix(1,0,0,1,0,0)"><path fill="url(#__lottie_element_40)" fill-opacity="1" d=" M70.18299865722656,47.50899887084961 C41.65599822998047,27.719999313354492 11.838000297546387,51.54399871826172 -31.420000076293945,30.35700035095215 C-47.86399841308594,22.30299949645996 -65.51000213623047,7.386000156402588 -65.51000213623047,7.386000156402588 C-66.26899719238281,21.843000411987305 -95.22899627685547,39.32400131225586 -94.63099670410156,47.88800048828125 C-92.08000183105469,84.43199920654297 -60.30699920654297,129.37600708007812 1.2230000495910645,129.37600708007812 C50.805999755859375,129.37600708007812 82.3550033569336,98.74700164794922 89.7699966430664,70.36100006103516 C92.3030014038086,60.665000915527344 91.73799896240234,46.94599914550781 87.94400024414062,44.053001403808594 C82.47699737548828,39.88399887084961 78.44100189208984,53.237998962402344 70.18299865722656,47.50899887084961z"></path></g><g opacity="1" transform="matrix(1,0,0,1,0,0)"><path stroke-linecap="round" stroke-linejoin="round" fill-opacity="0" stroke="rgb(219,110,0)" stroke-opacity="1" stroke-width="8" d=" M1.2230000495910645,-70.72100067138672 C1.2230000495910645,-70.72100067138672 -109.2249984741211,-121.73300170898438 -109.2249984741211,30.95599937438965 C-109.2249984741211,74.75599670410156 -80.37699890136719,141.49400329589844 1.2230000495910645,141.49400329589844 C82.822998046875,141.49400329589844 111.6709976196289,74.75599670410156 111.6709976196289,30.95599937438965 C111.6709976196289,-121.73300170898438 1.2230000495910645,-70.72100067138672 1.2230000495910645,-70.72100067138672z"></path></g></g><g style="display: block;" transform="matrix(1,0,0,1,256,256)" opacity="1"><g opacity="1" transform="matrix(1,0,0,1,0,0)"><path fill="rgb(163,65,0)" fill-opacity="1" d=" M-68.58599853515625,47.50899887084961 C-69.91500091552734,45.04399871826172 -57.757999420166016,36.70500183105469 -42.90700149536133,36.38199996948242 C-30.679000854492188,36.11600112915039 -29.018999099731445,39.78799819946289 -29.70199966430664,41.06700134277344 C-30.385000228881836,42.34600067138672 -37.970001220703125,39.34400177001953 -51.68000030517578,42.0880012512207 C-65.66999816894531,44.888999938964844 -67.93599700927734,48.71500015258789 -68.58599853515625,47.50899887084961z"></path><path stroke-linecap="round" stroke-linejoin="round" fill-opacity="0" stroke="rgb(163,65,0)" stroke-opacity="1" stroke-width="2" d=" M-68.58599853515625,47.50899887084961 C-69.91500091552734,45.04399871826172 -57.757999420166016,36.70500183105469 -42.90700149536133,36.38199996948242 C-30.679000854492188,36.11600112915039 -29.018999099731445,39.78799819946289 -29.70199966430664,41.06700134277344 C-30.385000228881836,42.34600067138672 -37.970001220703125,39.34400177001953 -51.68000030517578,42.0880012512207 C-65.66999816894531,44.888999938964844 -67.93599700927734,48.71500015258789 -68.58599853515625,47.50899887084961z"></path></g><g opacity="1" transform="matrix(1,0,0,1,0,0)"><path fill="rgb(163,65,0)" fill-opacity="1" d=" M70.18299865722656,47.50899887084961 C71.51200103759766,45.04399871826172 59.354000091552734,36.70500183105469 44.50299835205078,36.38199996948242 C32.275001525878906,36.11600112915039 30.614999771118164,39.78799819946289 31.29800033569336,41.06700134277344 C31.981000900268555,42.34600067138672 39.56700134277344,39.34400177001953 53.277000427246094,42.0880012512207 C67.26699829101562,44.888999938964844 69.53299713134766,48.71500015258789 70.18299865722656,47.50899887084961z"></path><path stroke-linecap="round" stroke-linejoin="round" fill-opacity="0" stroke="rgb(163,65,0)" stroke-opacity="1" stroke-width="2" d=" M70.18299865722656,47.50899887084961 C71.51200103759766,45.04399871826172 59.354000091552734,36.70500183105469 44.50299835205078,36.38199996948242 C32.275001525878906,36.11600112915039 30.614999771118164,39.78799819946289 31.29800033569336,41.06700134277344 C31.981000900268555,42.34600067138672 39.56700134277344,39.34400177001953 53.277000427246094,42.0880012512207 C67.26699829101562,44.888999938964844 69.53299713134766,48.71500015258789 70.18299865722656,47.50899887084961z"></path></g></g><g style="display: block;" transform="matrix(1,0,0,1,256,256)" opacity="1"><g opacity="1" transform="matrix(1,0,0,1,0,0)"><path fill="url(#__lottie_element_29)" fill-opacity="0.3" d=" M16.31100082397461,121.22599792480469 C16.31100082397461,128.5189971923828 9.121999740600586,135.0030059814453 1.2929999828338623,135.0030059814453 C-6.535999774932861,135.0030059814453 -13.725000381469727,128.5189971923828 -13.725000381469727,121.22599792480469 C-13.725000381469727,113.93299865722656 -6.535999774932861,107.24600219726562 1.2929999828338623,107.24600219726562 C9.121999740600586,107.24600219726562 16.31100082397461,113.93299865722656 16.31100082397461,121.22599792480469z"></path></g><g opacity="1" transform="matrix(1,0,0,1,0,0)"><path fill="rgb(255,168,0)" fill-opacity="0.8" d=" M16.31100082397461,116.25 C16.31100082397461,123.23699951171875 9.586999893188477,130.90199279785156 1.2929999828338623,130.90199279785156 C-7.000999927520752,130.90199279785156 -13.725000381469727,123.23699951171875 -13.725000381469727,116.25 C-13.725000381469727,109.26300048828125 -7.000999927520752,103.89700317382812 1.2929999828338623,103.89700317382812 C9.586999893188477,103.89700317382812 16.31100082397461,109.26300048828125 16.31100082397461,116.25z"></path></g><g opacity="1" transform="matrix(1,0,0,1,0,0)"><path fill="url(#__lottie_element_30)" fill-opacity="1" d=" M16.31100082397461,116.25 C16.31100082397461,123.23699951171875 9.586999893188477,130.90199279785156 1.2929999828338623,130.90199279785156 C-7.000999927520752,130.90199279785156 -13.725000381469727,123.23699951171875 -13.725000381469727,116.25 C-13.725000381469727,109.26300048828125 -7.000999927520752,103.89700317382812 1.2929999828338623,103.89700317382812 C9.586999893188477,103.89700317382812 16.31100082397461,109.26300048828125 16.31100082397461,116.25z"></path></g><g opacity="1" transform="matrix(1,0,0,1,0,0)"><path fill="rgb(255,216,0)" fill-opacity="1" d=" M14.28499984741211,112.25700378417969 C14.28499984741211,117.45899963378906 8.468000411987305,123.67500305175781 1.2929999828338623,123.67500305175781 C-5.881999969482422,123.67500305175781 -11.699000358581543,117.45899963378906 -11.699000358581543,112.25700378417969 C-11.699000358581543,107.05500030517578 -5.881999969482422,103.69200134277344 1.2929999828338623,103.69200134277344 C8.468000411987305,103.69200134277344 14.28499984741211,107.05500030517578 14.28499984741211,112.25700378417969z"></path></g><g opacity="1" transform="matrix(1,0,0,1,0,0)"><path fill="url(#__lottie_element_31)" fill-opacity="1" d=" M14.28499984741211,112.25700378417969 C14.28499984741211,117.45899963378906 8.468000411987305,123.67500305175781 1.2929999828338623,123.67500305175781 C-5.881999969482422,123.67500305175781 -11.699000358581543,117.45899963378906 -11.699000358581543,112.25700378417969 C-11.699000358581543,107.05500030517578 -5.881999969482422,103.69200134277344 1.2929999828338623,103.69200134277344 C8.468000411987305,103.69200134277344 14.28499984741211,107.05500030517578 14.28499984741211,112.25700378417969z"></path></g><g opacity="1" transform="matrix(1,0,0,1,0,0)"><path fill="url(#__lottie_element_32)" fill-opacity="0.7000000000000001" d=" M7.986999988555908,109.47899627685547 C7.986999988555908,112.26399993896484 4.989999771118164,116.88400268554688 1.2929999828338623,116.88400268554688 C-2.4040000438690186,116.88400268554688 -5.401000022888184,112.26399993896484 -5.401000022888184,109.47899627685547 C-5.401000022888184,106.69400024414062 -2.4040000438690186,105.2969970703125 1.2929999828338623,105.2969970703125 C4.989999771118164,105.2969970703125 7.986999988555908,106.69400024414062 7.986999988555908,109.47899627685547z"></path></g></g><g style="display: block;" transform="matrix(1,0,0,1,256,256)" opacity="1"><g opacity="1" transform="matrix(1,0,0,1,0,0)"><g opacity="1" transform="matrix(1,0,0,1,0,0)"><path fill="rgb(255,255,255)" fill-opacity="1" d=" M19.48200035095215,87.90599822998047 C19.48200035095215,87.90599822998047 20.424999237060547,61.83100128173828 46.500999450683594,58.06100082397461 C72.5770034790039,54.29100036621094 79.802001953125,78.69000244140625 79.802001953125,78.69000244140625 C79.802001953125,78.69000244140625 75.9800033569336,94.46399688720703 51.520999908447266,98.23400115966797 C28.363000869750977,101.8030014038086 18.180999755859375,85.48600006103516 19.48200035095215,87.90599822998047z"></path></g><g opacity="1" transform="matrix(1,0,0,1,94.09400177001953,0)"><g opacity="1" transform="matrix(1,0,0,1,0,0)"><path fill="url(#__lottie_element_20)" fill-opacity="1" d=" M-26.558000564575195,74.41699981689453 C-26.558000564575195,85.02799987792969 -35.159000396728516,93.62999725341797 -45.77000045776367,93.62999725341797 C-56.38100051879883,93.62999725341797 -64.98200225830078,85.02799987792969 -64.98200225830078,74.41699981689453 C-64.98200225830078,63.805999755859375 -56.13100051879883,55.766998291015625 -45.52000045776367,55.766998291015625 C-34.909000396728516,55.766998291015625 -26.558000564575195,63.805999755859375 -26.558000564575195,74.41699981689453z"></path></g><g opacity="1" transform="matrix(1,0,0,1,0,0)"><g opacity="1" transform="matrix(1,0,0,1,0,0)"><path fill="url(#__lottie_element_21)" fill-opacity="1" d=" M-40.92399978637695,92.75399780273438 C-42.42499923706055,92.75399780273438 -43.814998626708984,91.78399658203125 -44.28099822998047,90.27400207519531 C-44.85300064086914,88.41999816894531 -43.81399917602539,86.4530029296875 -41.95899963378906,85.88099670410156 C-38.4109992980957,84.78700256347656 -35.58599853515625,82.02999877929688 -34.40399932861328,78.50800323486328 C-33.7859992980957,76.66699981689453 -31.791000366210938,75.67900085449219 -29.954999923706055,76.29499816894531 C-28.114999771118164,76.91200256347656 -27.124000549316406,78.90499877929688 -27.742000579833984,80.74500274658203 C-29.642000198364258,86.40699768066406 -34.18299865722656,90.83699798583984 -39.88800048828125,92.59700012207031 C-40.233001708984375,92.7030029296875 -40.582000732421875,92.75399780273438 -40.92399978637695,92.75399780273438z"></path></g></g><g opacity="1" transform="matrix(1,0,0,1,0,0)"><path fill="rgb(24,19,9)" fill-opacity="1" d=" M-33.62799835205078,74.41699981689453 C-33.62799835205078,81.12300109863281 -39.06399917602539,86.55999755859375 -45.77000045776367,86.55999755859375 C-52.47600173950195,86.55999755859375 -57.9119987487793,81.12300109863281 -57.9119987487793,74.41699981689453 C-57.9119987487793,67.71099853515625 -52.47600173950195,62.275001525878906 -45.77000045776367,62.275001525878906 C-39.06399917602539,62.275001525878906 -33.62799835205078,67.71099853515625 -33.62799835205078,74.41699981689453z"></path></g><g opacity="1" transform="matrix(1,0,0,1,0,0)"><path fill="url(#__lottie_element_22)" fill-opacity="1" d=" M-50.8120002746582,67.40499877929688 C-50.8120002746582,70.20899963378906 -48.481998443603516,72.48300170898438 -45.608001708984375,72.48300170898438 C-42.73400115966797,72.48300170898438 -40.40399932861328,70.20899963378906 -40.40399932861328,67.40499877929688 C-40.40399932861328,64.60099792480469 -42.73400115966797,62.327999114990234 -45.608001708984375,62.327999114990234 C-48.481998443603516,62.327999114990234 -50.8120002746582,64.60099792480469 -50.8120002746582,67.40499877929688z"></path></g></g><g opacity="1" transform="matrix(1,0,0,1,0,0)"><path fill="rgb(163,65,0)" fill-opacity="1" d=" M79.802001953125,78.69000244140625 C79.802001953125,78.69000244140625 72.5770034790039,54.29100036621094 46.500999450683594,58.06100082397461 C20.424999237060547,61.83100128173828 19.48200035095215,87.90599822998047 19.48200035095215,87.90599822998047 C19.48200035095215,87.90599822998047 19.57699966430664,60.439998626708984 46.43199920654297,56.10599899291992 C71.89900207519531,51.99599838256836 79.802001953125,78.69000244140625 79.802001953125,78.69000244140625z"></path><path stroke-linecap="round" stroke-linejoin="round" fill-opacity="0" stroke="rgb(163,65,0)" stroke-opacity="1" stroke-width="2" d=" M79.802001953125,78.69000244140625 C79.802001953125,78.69000244140625 72.5770034790039,54.29100036621094 46.500999450683594,58.06100082397461 C20.424999237060547,61.83100128173828 19.48200035095215,87.90599822998047 19.48200035095215,87.90599822998047 C19.48200035095215,87.90599822998047 19.57699966430664,60.439998626708984 46.43199920654297,56.10599899291992 C71.89900207519531,51.99599838256836 79.802001953125,78.69000244140625 79.802001953125,78.69000244140625z"></path></g></g><g opacity="1" transform="matrix(1,0,0,1,0,0)"><g opacity="1" transform="matrix(1,0,0,1,0,0)"><path fill="rgb(255,255,255)" fill-opacity="1" d=" M-16.933000564575195,87.90599822998047 C-16.933000564575195,87.90599822998047 -17.875,61.83100128173828 -43.95100021362305,58.06100082397461 C-70.0270004272461,54.29100036621094 -77.25299835205078,78.69000244140625 -77.25299835205078,78.69000244140625 C-77.25299835205078,78.69000244140625 -73.43099975585938,94.46399688720703 -48.97200012207031,98.23400115966797 C-25.81399917602539,101.8030014038086 -15.631999969482422,85.48600006103516 -16.933000564575195,87.90599822998047z"></path></g><g opacity="1" transform="matrix(1,0,0,1,0,0)"><g opacity="1" transform="matrix(1,0,0,1,0,0)"><path fill="url(#__lottie_element_23)" fill-opacity="1" d=" M-26.558000564575195,74.41699981689453 C-26.558000564575195,85.02799987792969 -35.159000396728516,93.62999725341797 -45.77000045776367,93.62999725341797 C-56.38100051879883,93.62999725341797 -64.98200225830078,85.02799987792969 -64.98200225830078,74.41699981689453 C-64.98200225830078,63.805999755859375 -57.0629997253418,56 -45.77000045776367,55.70500183105469 C-35.16299819946289,55.428001403808594 -26.558000564575195,63.805999755859375 -26.558000564575195,74.41699981689453z"></path></g><g opacity="1" transform="matrix(1,0,0,1,0,0)"><g opacity="1" transform="matrix(1,0,0,1,0,0)"><path fill="url(#__lottie_element_24)" fill-opacity="1" d=" M-40.92399978637695,92.75399780273438 C-42.42499923706055,92.75399780273438 -43.814998626708984,91.78399658203125 -44.28099822998047,90.27400207519531 C-44.85300064086914,88.41999816894531 -43.81399917602539,86.4530029296875 -41.95899963378906,85.88099670410156 C-38.4109992980957,84.78700256347656 -35.58599853515625,82.02999877929688 -34.40399932861328,78.50800323486328 C-33.7859992980957,76.66699981689453 -31.791000366210938,75.67900085449219 -29.954999923706055,76.29499816894531 C-28.114999771118164,76.91200256347656 -27.124000549316406,78.90499877929688 -27.742000579833984,80.74500274658203 C-29.642000198364258,86.40699768066406 -34.18299865722656,90.83699798583984 -39.88800048828125,92.59700012207031 C-40.233001708984375,92.7030029296875 -40.582000732421875,92.75399780273438 -40.92399978637695,92.75399780273438z"></path></g></g><g opacity="1" transform="matrix(1,0,0,1,0,0)"><path fill="rgb(24,19,9)" fill-opacity="1" d=" M-33.62799835205078,74.41699981689453 C-33.62799835205078,81.12300109863281 -39.06399917602539,86.55999755859375 -45.77000045776367,86.55999755859375 C-52.47600173950195,86.55999755859375 -57.9119987487793,81.12300109863281 -57.9119987487793,74.41699981689453 C-57.9119987487793,67.71099853515625 -52.47600173950195,62.275001525878906 -45.77000045776367,62.275001525878906 C-39.06399917602539,62.275001525878906 -33.62799835205078,67.71099853515625 -33.62799835205078,74.41699981689453z"></path></g><g opacity="1" transform="matrix(1,0,0,1,0,0)"><path fill="url(#__lottie_element_25)" fill-opacity="1" d=" M-50.8120002746582,67.40499877929688 C-50.8120002746582,70.20899963378906 -48.481998443603516,72.48300170898438 -45.608001708984375,72.48300170898438 C-42.73400115966797,72.48300170898438 -40.40399932861328,70.20899963378906 -40.40399932861328,67.40499877929688 C-40.40399932861328,64.60099792480469 -42.73400115966797,62.327999114990234 -45.608001708984375,62.327999114990234 C-48.481998443603516,62.327999114990234 -50.8120002746582,64.60099792480469 -50.8120002746582,67.40499877929688z"></path></g></g><g opacity="1" transform="matrix(1,0,0,1,0,0)"><path fill="rgb(163,65,0)" fill-opacity="1" d=" M-77.25299835205078,78.69000244140625 C-77.25299835205078,78.69000244140625 -70.0270004272461,54.29100036621094 -43.95100021362305,58.06100082397461 C-17.875,61.83100128173828 -16.933000564575195,87.90599822998047 -16.933000564575195,87.90599822998047 C-16.933000564575195,87.90599822998047 -17.027999877929688,60.439998626708984 -43.882999420166016,56.10599899291992 C-69.3499984741211,51.99599838256836 -77.25299835205078,78.69000244140625 -77.25299835205078,78.69000244140625z"></path><path stroke-linecap="round" stroke-linejoin="round" fill-opacity="0" stroke="rgb(163,65,0)" stroke-opacity="1" stroke-width="2" d=" M-77.25299835205078,78.69000244140625 C-77.25299835205078,78.69000244140625 -70.0270004272461,54.29100036621094 -43.95100021362305,58.06100082397461 C-17.875,61.83100128173828 -16.933000564575195,87.90599822998047 -16.933000564575195,87.90599822998047 C-16.933000564575195,87.90599822998047 -17.027999877929688,60.439998626708984 -43.882999420166016,56.10599899291992 C-69.3499984741211,51.99599838256836 -77.25299835205078,78.69000244140625 -77.25299835205078,78.69000244140625z"></path></g></g></g><g style="display: block;" transform="matrix(1,0,0,1,256,256)" opacity="1"><g opacity="1" transform="matrix(1,0,0,1,0,0)"><path fill="rgb(255,206,1)" fill-opacity="1" d=" M-76.62000274658203,-19.354999542236328 C-76.62000274658203,-19.354999542236328 -40.15800094604492,25.165000915527344 -7.460999965667725,30.95599937438965 C25.236000061035156,36.74700164794922 51.12799835205078,21.707000732421875 71.20600128173828,37.4010009765625 C71.20600128173828,37.4010009765625 76.44100189208984,31.704999923706055 76.75599670410156,22.249000549316406 C76.75599670410156,22.249000549316406 84.95099639892578,30.95599937438965 84.95099639892578,30.95599937438965 C84.95099639892578,30.95599937438965 87.15699768066406,22.56399917602539 87.15699768066406,22.56399917602539 C87.15699768066406,22.56399917602539 94.3280029296875,33.5 97.55899810791016,38.95399856567383 C100.79000091552734,44.40800094604492 98.54299926757812,65.625 100.70999908447266,66.40499877929688 C104.37899780273438,67.72699737548828 114.51200103759766,45.23099899291992 117.54900360107422,1.159000039100647 C120.58599853515625,-42.91299819946289 101.6709976196289,-132.54299926757812 1.2929999828338623,-132.54299926757812 C-58.59400177001953,-132.54299926757812 -84.91899871826172,-106.2040023803711 -84.91899871826172,-91.52300262451172 C-84.91899871826172,-91.52300262451172 -107.7239990234375,-89.49800109863281 -116.83599853515625,-54.56800079345703 C-125.947998046875,-19.63800048828125 -112.83200073242188,53.558998107910156 -106.46499633789062,55.64400100708008 C-103.89900207519531,56.48400115966797 -103.46600341796875,30.645999908447266 -101.86499786376953,29.179000854492188 C-100.26399993896484,27.711999893188477 -95.4749984741211,23.659000396728516 -92.56999969482422,14.944999694824219 C-92.56999969482422,14.944999694824219 -85.98400115966797,17.687999725341797 -85.98400115966797,17.687999725341797 C-85.98400115966797,17.687999725341797 -84.72699737548828,4.927999973297119 -84.72699737548828,4.927999973297119 C-84.72699737548828,4.927999973297119 -77.25299835205078,10.588000297546387 -77.25299835205078,10.588000297546387 C-77.25299835205078,10.588000297546387 -74.322998046875,-0.49799999594688416 -76.62000274658203,-19.354999542236328z"></path></g><g opacity="1" transform="matrix(1,0,0,1,0,0)"><path fill="url(#__lottie_element_13)" fill-opacity="1" d=" M-76.62000274658203,-19.354999542236328 C-76.62000274658203,-19.354999542236328 -40.15800094604492,25.165000915527344 -7.460999965667725,30.95599937438965 C25.236000061035156,36.74700164794922 51.12799835205078,21.707000732421875 71.20600128173828,37.4010009765625 C71.20600128173828,37.4010009765625 76.44100189208984,31.704999923706055 76.75599670410156,22.249000549316406 C76.75599670410156,22.249000549316406 84.95099639892578,30.95599937438965 84.95099639892578,30.95599937438965 C84.95099639892578,30.95599937438965 87.15699768066406,22.56399917602539 87.15699768066406,22.56399917602539 C87.15699768066406,22.56399917602539 94.3280029296875,33.5 97.55899810791016,38.95399856567383 C100.79000091552734,44.40800094604492 98.54299926757812,65.625 100.70999908447266,66.40499877929688 C104.37899780273438,67.72699737548828 114.51200103759766,45.23099899291992 117.54900360107422,1.159000039100647 C120.58599853515625,-42.91299819946289 101.6709976196289,-132.54299926757812 1.2929999828338623,-132.54299926757812 C-58.59400177001953,-132.54299926757812 -84.91899871826172,-106.2040023803711 -84.91899871826172,-91.52300262451172 C-84.91899871826172,-91.52300262451172 -107.7239990234375,-89.49800109863281 -116.83599853515625,-54.56800079345703 C-125.947998046875,-19.63800048828125 -112.83200073242188,53.558998107910156 -106.46499633789062,55.64400100708008 C-103.89900207519531,56.48400115966797 -103.46600341796875,30.645999908447266 -101.86499786376953,29.179000854492188 C-100.26399993896484,27.711999893188477 -95.4749984741211,23.659000396728516 -92.56999969482422,14.944999694824219 C-92.56999969482422,14.944999694824219 -85.98400115966797,17.687999725341797 -85.98400115966797,17.687999725341797 C-85.98400115966797,17.687999725341797 -84.72699737548828,4.927999973297119 -84.72699737548828,4.927999973297119 C-84.72699737548828,4.927999973297119 -77.25299835205078,10.588000297546387 -77.25299835205078,10.588000297546387 C-77.25299835205078,10.588000297546387 -74.322998046875,-0.49799999594688416 -76.62000274658203,-19.354999542236328z"></path></g><g opacity="1" transform="matrix(1,0,0,1,0,0)"><path fill="url(#__lottie_element_14)" fill-opacity="1" d=" M-72.36499786376953,-96.87699890136719 C-80.63700103759766,-88.42900085449219 -79.87200164794922,-62.04499816894531 -73.25499725341797,-40.305999755859375 C-62.124000549316406,-3.7360000610351562 -19.530000686645508,36.367000579833984 28.274999618530273,28.58300018310547 C28.274999618530273,28.58300018310547 26.19499969482422,31.423999786376953 26.19499969482422,31.423999786376953 C15.885000228881836,32.38399887084961 4.675000190734863,33.104000091552734 -7.465000152587891,30.95400047302246 C-40.154998779296875,25.163999557495117 -76.625,-19.35700035095215 -76.625,-19.35700035095215 C-74.32499694824219,-0.4970000088214874 -77.25499725341797,10.583000183105469 -77.25499725341797,10.583000183105469 C-77.25499725341797,10.583000183105469 -80.32499694824219,11.329999923706055 -80.25499725341797,10.583000183105469 C-78.50800323486328,-8.121000289916992 -85.20500183105469,-26.736000061035156 -88.05500030517578,-48.215999603271484 C-90.90499877929688,-69.69599914550781 -90.29499816894531,-77.68599700927734 -91.42500305175781,-78.90599822998047 C-92.55500030517578,-80.11599731445312 -116.8550033569336,-62.707000732421875 -119.90499877929688,-19.586999893188477 C-120.15499877929688,-32.617000579833984 -119.32499694824219,-45.01599884033203 -116.83499908447266,-54.566001892089844 C-107.7249984741211,-89.49600219726562 -86.91500091552734,-91.5260009765625 -86.91500091552734,-91.5260009765625 C-86.91500091552734,-106.20600128173828 -58.595001220703125,-132.54600524902344 1.2949999570846558,-132.54600524902344 C26.954999923706055,-132.54600524902344 47.28499984741211,-126.69599914550781 63.29499816894531,-117.24600219726562 C63.29499816894531,-117.24600219726562 63.28499984741211,-117.23600006103516 63.28499984741211,-117.23600006103516 C63.28499984741211,-117.23600006103516 -24.493999481201172,-145.76699829101562 -72.36499786376953,-96.87699890136719z"></path></g><g opacity="1" transform="matrix(1,0,0,1,0,0)"><path stroke-linecap="round" stroke-linejoin="round" fill-opacity="0" stroke="rgb(197,92,0)" stroke-opacity="1" stroke-width="8" d=" M-76.62000274658203,-19.354999542236328 C-76.62000274658203,-19.354999542236328 -40.15800094604492,21.165000915527344 -7.460999965667725,26.95599937438965 C25.236000061035156,32.74700164794922 51.12799835205078,19.707000732421875 71.20600128173828,35.4010009765625 C71.20600128173828,35.4010009765625 76.44100189208984,31.704999923706055 76.75599670410156,22.249000549316406 C76.75599670410156,22.249000549316406 84.95099639892578,30.95599937438965 84.95099639892578,30.95599937438965 C84.95099639892578,30.95599937438965 87.15699768066406,22.56399917602539 87.15699768066406,22.56399917602539 C87.15699768066406,22.56399917602539 94.3280029296875,33.5 97.55899810791016,38.95399856567383 C100.79000091552734,44.40800094604492 98.54299926757812,65.625 100.70999908447266,66.40499877929688 C104.37899780273438,67.72699737548828 114.51200103759766,45.23099899291992 117.54900360107422,1.159000039100647 C120.58599853515625,-42.91299819946289 101.6709976196289,-132.54299926757812 1.2929999828338623,-132.54299926757812 C-58.59400177001953,-132.54299926757812 -86.91899871826172,-106.2040023803711 -86.91899871826172,-91.52300262451172 C-86.91899871826172,-91.52300262451172 -107.7239990234375,-89.49800109863281 -116.83599853515625,-54.56800079345703 C-125.947998046875,-19.63800048828125 -112.83200073242188,53.558998107910156 -106.46499633789062,55.64400100708008 C-103.89900207519531,56.48400115966797 -103.46600341796875,30.645999908447266 -101.86499786376953,29.179000854492188 C-100.26399993896484,27.711999893188477 -95.4749984741211,23.659000396728516 -92.56999969482422,14.944999694824219 C-92.56999969482422,14.944999694824219 -85.98400115966797,17.687999725341797 -85.98400115966797,17.687999725341797 C-85.98400115966797,17.687999725341797 -84.72699737548828,4.927999973297119 -84.72699737548828,4.927999973297119 C-84.72699737548828,4.927999973297119 -77.25299835205078,10.588000297546387 -77.25299835205078,10.588000297546387 C-77.25299835205078,10.588000297546387 -74.322998046875,-0.49799999594688416 -76.62000274658203,-19.354999542236328z"></path></g><g opacity="1" transform="matrix(1,0,0,1,0,0)"><path stroke-linecap="round" stroke-linejoin="round" fill-opacity="0" stroke="rgb(163,65,0)" stroke-opacity="1" stroke-width="8" d=" M-106.46499633789062,55.64400100708008 C-103.89900207519531,56.48400115966797 -103.46600341796875,30.645999908447266 -101.86499786376953,29.179000854492188 C-100.26399993896484,27.711999893188477 -95.4749984741211,23.659000396728516 -92.56999969482422,14.944999694824219 C-92.56999969482422,14.944999694824219 -85.98400115966797,17.687999725341797 -85.98400115966797,17.687999725341797 C-85.98400115966797,17.687999725341797 -84.72699737548828,4.927999973297119 -84.72699737548828,4.927999973297119 C-84.72699737548828,4.927999973297119 -77.25299835205078,10.588000297546387 -77.25299835205078,10.588000297546387 C-77.25299835205078,10.588000297546387 -74.322998046875,-0.49799999594688416 -76.62000274658203,-19.354999542236328 C-76.62000274658203,-19.354999542236328 -40.15800094604492,21.165000915527344 -7.460999965667725,26.95599937438965 C25.236000061035156,32.74700164794922 51.12799835205078,19.707000732421875 71.20600128173828,35.4010009765625 C71.20600128173828,35.4010009765625 76.44100189208984,31.704999923706055 76.75599670410156,22.249000549316406 C76.75599670410156,22.249000549316406 84.95099639892578,30.95599937438965 84.95099639892578,30.95599937438965 C84.95099639892578,30.95599937438965 87.15699768066406,22.56399917602539 87.15699768066406,22.56399917602539 C87.15699768066406,22.56399917602539 94.3280029296875,33.5 97.55899810791016,38.95399856567383 C100.79000091552734,44.40800094604492 98.54299926757812,65.625 100.70999908447266,66.40499877929688"></path></g><g opacity="1" transform="matrix(1,0,0,1,0,0)"><path fill="url(#__lottie_element_15)" fill-opacity="0.9" d=" M-74.13400268554688,-94.07499694824219 C-64.21199798583984,-109.8499984741211 -9.628000259399414,-134.62899780273438 49.58700180053711,-111.15299987792969 C101.9209976196289,-90.40499877929688 89.09500122070312,-46.26499938964844 -22.298999786376953,-37.90999984741211 C-95.29399871826172,-32.435001373291016 -77.58599853515625,-88.58599853515625 -74.13400268554688,-94.07499694824219z"></path></g><g opacity="1" transform="matrix(1,0,0,1,0,0)"><path fill="url(#__lottie_element_16)" fill-opacity="1" d=" M-91.42500305175781,-78.90599822998047 C-94.73799896240234,-82.72699737548828 -113.56999969482422,-57.15999984741211 -113.572998046875,-42.41699981689453 C-113.57599639892578,-27.673999786376953 -85.23300170898438,-21.885000228881836 -87.1969985961914,-40.78900146484375 C-89.5260009765625,-63.202999114990234 -89.28099822998047,-76.43299865722656 -91.42500305175781,-78.90599822998047z"></path></g></g><g style="display: block;" transform="matrix(1,0,0,1,255.99998474121094,256)" opacity="1"><g opacity="1" transform="matrix(1,0,0,1,0,0)"><g opacity="1" transform="matrix(1,0,0,1,0,0)"><path fill="url(#__lottie_element_6)" fill-opacity="1" d=" M-88.052001953125,-132.54299926757812 C-88.052001953125,-132.54299926757812 -104.02899932861328,-195.3249969482422 -104.02899932861328,-195.3249969482422 C-104.02899932861328,-195.3249969482422 -139.09500122070312,-170.947998046875 -139.09500122070312,-170.947998046875 C-139.09500122070312,-170.947998046875 -88.052001953125,-132.54299926757812 -88.052001953125,-132.54299926757812z"></path></g><g opacity="1" transform="matrix(1,0,0,1,0,0)"><path stroke-linecap="round" stroke-linejoin="round" fill-opacity="0" stroke="rgb(140,140,133)" stroke-opacity="1" stroke-width="6" d=" M-88.052001953125,-132.54299926757812 C-88.052001953125,-132.54299926757812 -104.02899932861328,-195.3249969482422 -104.02899932861328,-195.3249969482422 C-104.02899932861328,-195.3249969482422 -139.09500122070312,-170.947998046875 -139.09500122070312,-170.947998046875 C-139.09500122070312,-170.947998046875 -88.052001953125,-132.54299926757812 -88.052001953125,-132.54299926757812z"></path></g></g><g opacity="1" transform="matrix(1,0,0,1,0,0)"><g opacity="1" transform="matrix(1,0,0,1,0,0)"><path fill="url(#__lottie_element_7)" fill-opacity="1" d=" M-28.95199966430664,-151.79600524902344 C-28.95199966430664,-151.79600524902344 -19.5310001373291,-215.89100646972656 -19.5310001373291,-215.89100646972656 C-19.5310001373291,-215.89100646972656 -61.27799987792969,-206.89100646972656 -61.27799987792969,-206.89100646972656 C-61.27799987792969,-206.89100646972656 -28.95199966430664,-151.79600524902344 -28.95199966430664,-151.79600524902344z"></path></g><g opacity="1" transform="matrix(1,0,0,1,0,0)"><path stroke-linecap="round" stroke-linejoin="round" fill-opacity="0" stroke="rgb(140,140,133)" stroke-opacity="1" stroke-width="6" d=" M-28.95199966430664,-151.79600524902344 C-28.95199966430664,-151.79600524902344 -19.5310001373291,-215.89100646972656 -19.5310001373291,-215.89100646972656 C-19.5310001373291,-215.89100646972656 -61.27799987792969,-206.89100646972656 -61.27799987792969,-206.89100646972656 C-61.27799987792969,-206.89100646972656 -28.95199966430664,-151.79600524902344 -28.95199966430664,-151.79600524902344z"></path></g></g><g opacity="1" transform="matrix(1,0,0,1,0,0)"><g opacity="1" transform="matrix(1,0,0,1,0,0)"><path fill="url(#__lottie_element_8)" fill-opacity="1" d=" M38.95399856567383,-151.8769989013672 C38.95399856567383,-151.8769989013672 71.03800201416016,-208.15699768066406 71.03800201416016,-208.15699768066406 C71.03800201416016,-208.15699768066406 28.875999450683594,-214.9550018310547 28.875999450683594,-214.9550018310547 C28.875999450683594,-214.9550018310547 38.95399856567383,-151.8769989013672 38.95399856567383,-151.8769989013672z"></path></g><g opacity="1" transform="matrix(1,0,0,1,0,0)"><path stroke-linecap="round" stroke-linejoin="round" fill-opacity="0" stroke="rgb(140,140,133)" stroke-opacity="1" stroke-width="6" d=" M38.95399856567383,-151.8769989013672 C38.95399856567383,-151.8769989013672 71.03800201416016,-208.15699768066406 71.03800201416016,-208.15699768066406 C71.03800201416016,-208.15699768066406 28.875999450683594,-214.9550018310547 28.875999450683594,-214.9550018310547 C28.875999450683594,-214.9550018310547 38.95399856567383,-151.8769989013672 38.95399856567383,-151.8769989013672z"></path></g></g><g opacity="1" transform="matrix(1,0,0,1,0,0)"><g opacity="1" transform="matrix(1,0,0,1,0,0)"><path fill="url(#__lottie_element_9)" fill-opacity="1" d=" M101.6709976196289,-132.89700317382812 C101.6709976196289,-132.89700317382812 156.16099548339844,-167.93699645996094 156.16099548339844,-167.93699645996094 C156.16099548339844,-167.93699645996094 121.93299865722656,-193.4770050048828 121.93299865722656,-193.4770050048828 C121.93299865722656,-193.4770050048828 101.6709976196289,-132.89700317382812 101.6709976196289,-132.89700317382812z"></path></g><g opacity="1" transform="matrix(1,0,0,1,0,0)"><path stroke-linecap="round" stroke-linejoin="round" fill-opacity="0" stroke="rgb(140,140,133)" stroke-opacity="1" stroke-width="6" d=" M101.6709976196289,-132.89700317382812 C101.6709976196289,-132.89700317382812 156.16099548339844,-167.93699645996094 156.16099548339844,-167.93699645996094 C156.16099548339844,-167.93699645996094 121.93299865722656,-193.4770050048828 121.93299865722656,-193.4770050048828 C121.93299865722656,-193.4770050048828 101.6709976196289,-132.89700317382812 101.6709976196289,-132.89700317382812z"></path></g></g></g></g></svg>