<svg xmlns="http://www.w3.org/2000/svg" xmlns:xlink="http://www.w3.org/1999/xlink" viewBox="0 0 512 512" width="512" height="512" style="width: 100%; height: 100%; transform: translate3d(0,0,0); content-visibility: visible;" preserveAspectRatio="xMidYMid meet"><defs><clipPath id="__lottie_element_2"><rect width="512" height="512" x="0" y="0"></rect></clipPath><radialGradient id="__lottie_element_6" spreadMethod="pad" gradientUnits="userSpaceOnUse" cx="2.76200008392334" cy="229.9429931640625" r="68.64399814605713" fx="2.76200008392334" fy="229.9429931640625"><stop offset="0%" stop-color="rgb(147,18,149)"></stop><stop offset="50%" stop-color="rgb(107,9,110)"></stop><stop offset="100%" stop-color="rgb(66,0,72)"></stop></radialGradient><radialGradient id="__lottie_element_7" spreadMethod="pad" gradientUnits="userSpaceOnUse" cx="119.76200103759766" cy="89.94300079345703" r="114.14744882538446" fx="119.76200103759766" fy="89.94300079345703"><stop offset="17%" stop-color="rgb(147,18,149)"></stop><stop offset="83%" stop-color="rgb(107,9,110)"></stop><stop offset="100%" stop-color="rgb(66,0,72)"></stop></radialGradient><linearGradient id="__lottie_element_8" spreadMethod="pad" gradientUnits="userSpaceOnUse" x1="-135.23800659179688" y1="-35.055999755859375" x2="-166.38299560546875" y2="-3.9110000133514404"><stop offset="41%" stop-color="rgb(219,110,0)" stop-opacity="0"></stop><stop offset="65%" stop-color="rgb(219,110,0)" stop-opacity="0.5"></stop><stop offset="88%" stop-color="rgb(219,110,0)" stop-opacity="1"></stop></linearGradient><radialGradient id="__lottie_element_9" spreadMethod="pad" gradientUnits="userSpaceOnUse" cx="63.03099822998047" cy="74.56199645996094" r="91.89071358258252" fx="63.03099822998047" fy="74.56199645996094"><stop offset="19%" stop-color="rgb(147,18,149)"></stop><stop offset="86%" stop-color="rgb(107,9,110)"></stop><stop offset="100%" stop-color="rgb(66,0,72)"></stop></radialGradient><linearGradient id="__lottie_element_10" spreadMethod="pad" gradientUnits="userSpaceOnUse" x1="-95.23799896240234" y1="48.444000244140625" x2="-137.51100158691406" y2="211.65499877929688"><stop offset="23%" stop-color="rgb(255,255,255)" stop-opacity="1"></stop><stop offset="62%" stop-color="rgb(255,255,255)" stop-opacity="0.5"></stop><stop offset="100%" stop-color="rgb(255,255,255)" stop-opacity="0"></stop></linearGradient><linearGradient id="__lottie_element_11" spreadMethod="pad" gradientUnits="userSpaceOnUse" x1="-27.738000869750977" y1="24.444000244140625" x2="14.387999534606934" y2="98.51799774169922"><stop offset="23%" stop-color="rgb(255,255,255)" stop-opacity="1"></stop><stop offset="62%" stop-color="rgb(255,255,255)" stop-opacity="0.5"></stop><stop offset="100%" stop-color="rgb(255,255,255)" stop-opacity="0"></stop></linearGradient><linearGradient id="__lottie_element_12" spreadMethod="pad" gradientUnits="userSpaceOnUse" x1="-41.237998962402344" y1="126.94300079345703" x2="-64.31300354003906" y2="148.0959930419922"><stop offset="0%" stop-color="rgb(44,0,48)" stop-opacity="1"></stop><stop offset="44%" stop-color="rgb(44,0,48)" stop-opacity="0.5099999904632568"></stop><stop offset="100%" stop-color="rgb(44,0,48)" stop-opacity="0.019999999552965164"></stop></linearGradient><linearGradient id="__lottie_element_13" spreadMethod="pad" gradientUnits="userSpaceOnUse" x1="-135.23800659179688" y1="-35.055999755859375" x2="-166.38299560546875" y2="-3.9110000133514404"><stop offset="41%" stop-color="rgb(219,110,0)" stop-opacity="0"></stop><stop offset="65%" stop-color="rgb(219,110,0)" stop-opacity="0.5"></stop><stop offset="88%" stop-color="rgb(219,110,0)" stop-opacity="1"></stop></linearGradient><radialGradient id="__lottie_element_14" spreadMethod="pad" gradientUnits="userSpaceOnUse" cx="65.76200103759766" cy="71.94300079345703" r="90.88167857986576" fx="65.76200103759766" fy="71.94300079345703"><stop offset="19%" stop-color="rgb(147,18,149)"></stop><stop offset="86%" stop-color="rgb(107,9,110)"></stop><stop offset="100%" stop-color="rgb(66,0,72)"></stop></radialGradient><linearGradient id="__lottie_element_15" spreadMethod="pad" gradientUnits="userSpaceOnUse" x1="121.51200103759766" y1="63.94300079345703" x2="161.46200561523438" y2="199.43499755859375"><stop offset="23%" stop-color="rgb(255,255,255)" stop-opacity="1"></stop><stop offset="62%" stop-color="rgb(255,255,255)" stop-opacity="0.5"></stop><stop offset="100%" stop-color="rgb(255,255,255)" stop-opacity="0"></stop></linearGradient><linearGradient id="__lottie_element_16" spreadMethod="pad" gradientUnits="userSpaceOnUse" x1="29.761999130249023" y1="31.944000244140625" x2="1.8880000114440918" y2="99.51799774169922"><stop offset="23%" stop-color="rgb(255,255,255)" stop-opacity="1"></stop><stop offset="62%" stop-color="rgb(255,255,255)" stop-opacity="0.5"></stop><stop offset="100%" stop-color="rgb(255,255,255)" stop-opacity="0"></stop></linearGradient><linearGradient id="__lottie_element_21" spreadMethod="pad" gradientUnits="userSpaceOnUse" x1="-3.6760001182556152" y1="-115.78900146484375" x2="-0.9259999990463257" y2="16.527000427246094"><stop offset="0%" stop-color="rgb(219,110,0)" stop-opacity="1"></stop><stop offset="38%" stop-color="rgb(219,110,0)" stop-opacity="0.5"></stop><stop offset="70%" stop-color="rgb(219,110,0)" stop-opacity="0"></stop></linearGradient><linearGradient id="__lottie_element_22" spreadMethod="pad" gradientUnits="userSpaceOnUse" x1="-8.925999641418457" y1="-86.53900146484375" x2="-4.426000118255615" y2="151.72300720214844"><stop offset="0%" stop-color="rgb(255,216,0)" stop-opacity="0"></stop><stop offset="14%" stop-color="rgb(255,216,0)" stop-opacity="0.5"></stop><stop offset="45%" stop-color="rgb(255,216,0)" stop-opacity="1"></stop><stop offset="90%" stop-color="rgb(255,216,0)" stop-opacity="0.5"></stop><stop offset="100%" stop-color="rgb(255,216,0)" stop-opacity="0"></stop></linearGradient><linearGradient id="__lottie_element_25" spreadMethod="pad" gradientUnits="userSpaceOnUse" x1="9.074000358581543" y1="-118.53900146484375" x2="2.6449999809265137" y2="92.43299865722656"><stop offset="15%" stop-color="rgb(255,169,0)" stop-opacity="0"></stop><stop offset="41%" stop-color="rgb(255,169,0)" stop-opacity="0.5"></stop><stop offset="67%" stop-color="rgb(255,169,0)" stop-opacity="1"></stop></linearGradient><linearGradient id="__lottie_element_26" spreadMethod="pad" gradientUnits="userSpaceOnUse" x1="-12.925999641418457" y1="43.96099853515625" x2="-24.229000091552734" y2="-187.24200439453125"><stop offset="8%" stop-color="rgb(218,110,0)" stop-opacity="0.30000001192092896"></stop><stop offset="28%" stop-color="rgb(218,110,0)" stop-opacity="0.6499999761581421"></stop><stop offset="70%" stop-color="rgb(218,110,0)" stop-opacity="1"></stop><stop offset="80%" stop-color="rgb(218,110,0)" stop-opacity="0.5"></stop><stop offset="100%" stop-color="rgb(218,110,0)" stop-opacity="0"></stop></linearGradient><linearGradient id="__lottie_element_27" spreadMethod="pad" gradientUnits="userSpaceOnUse" x1="-134.92599487304688" y1="-139.03900146484375" x2="-117.93199920654297" y2="-99.41600036621094"><stop offset="0%" stop-color="rgb(255,255,255)" stop-opacity="1"></stop><stop offset="50%" stop-color="rgb(255,255,255)" stop-opacity="0.5"></stop><stop offset="100%" stop-color="rgb(255,255,255)" stop-opacity="0"></stop></linearGradient><linearGradient id="__lottie_element_28" spreadMethod="pad" gradientUnits="userSpaceOnUse" x1="41.07400131225586" y1="-172.03900146484375" x2="28.14900016784668" y2="-87.43800354003906"><stop offset="0%" stop-color="rgb(255,255,255)" stop-opacity="1"></stop><stop offset="50%" stop-color="rgb(255,255,255)" stop-opacity="0.5"></stop><stop offset="100%" stop-color="rgb(255,255,255)" stop-opacity="0"></stop></linearGradient><radialGradient id="__lottie_element_32" spreadMethod="pad" gradientUnits="userSpaceOnUse" cx="-2.6760001182556152" cy="130.71099853515625" r="42.440736384479386" fx="-2.6760001182556152" fy="130.71099853515625"><stop offset="8%" stop-color="rgb(117,55,14)" stop-opacity="1"></stop><stop offset="54%" stop-color="rgb(117,55,14)" stop-opacity="0.5"></stop><stop offset="100%" stop-color="rgb(117,55,14)" stop-opacity="0"></stop></radialGradient><linearGradient id="__lottie_element_39" spreadMethod="pad" gradientUnits="userSpaceOnUse" x1="-3.1760001182556152" y1="85.71099853515625" x2="-2.3010001182556152" y2="116.6709976196289"><stop offset="0%" stop-color="rgb(255,168,0)" stop-opacity="1"></stop><stop offset="65%" stop-color="rgb(255,168,0)" stop-opacity="0.5"></stop><stop offset="100%" stop-color="rgb(255,168,0)" stop-opacity="0"></stop></linearGradient><linearGradient id="__lottie_element_40" spreadMethod="pad" gradientUnits="userSpaceOnUse" x1="-2.0510001182556152" y1="105.29399871826172" x2="-2.9260001182556152" y2="80.63999938964844"><stop offset="10%" stop-color="rgb(219,110,0)" stop-opacity="1"></stop><stop offset="49%" stop-color="rgb(219,110,0)" stop-opacity="0.5"></stop><stop offset="78%" stop-color="rgb(219,110,0)" stop-opacity="0"></stop></linearGradient><radialGradient id="__lottie_element_41" spreadMethod="pad" gradientUnits="userSpaceOnUse" cx="-3.9260001182556152" cy="73.96099853515625" r="22.90700101852417" fx="-3.9260001182556152" fy="73.96099853515625"><stop offset="40%" stop-color="rgb(255,168,0)" stop-opacity="0"></stop><stop offset="70%" stop-color="rgb(255,168,0)" stop-opacity="0.5"></stop><stop offset="100%" stop-color="rgb(255,168,0)" stop-opacity="1"></stop></radialGradient><linearGradient id="__lottie_element_42" spreadMethod="pad" gradientUnits="userSpaceOnUse" x1="-2.9260001182556152" y1="71.96099853515625" x2="-2.9260001182556152" y2="82.61699676513672"><stop offset="0%" stop-color="rgb(255,255,254)" stop-opacity="1"></stop><stop offset="50%" stop-color="rgb(255,255,254)" stop-opacity="0.5"></stop><stop offset="100%" stop-color="rgb(255,255,254)" stop-opacity="0"></stop></linearGradient><linearGradient id="__lottie_element_46" spreadMethod="pad" gradientUnits="userSpaceOnUse" x1="-80.73799896240234" y1="10.89900016784668" x2="-61.7130012512207" y2="39.979000091552734"><stop offset="0%" stop-color="rgb(66,0,0)"></stop><stop offset="37%" stop-color="rgb(118,40,0)"></stop><stop offset="100%" stop-color="rgb(170,80,0)"></stop></linearGradient><radialGradient id="__lottie_element_47" spreadMethod="pad" gradientUnits="userSpaceOnUse" cx="-63.92599868774414" cy="33.96099853515625" r="12.805999755859375" fx="-63.92599868774414" fy="33.96099853515625"><stop offset="0%" stop-color="rgb(246,175,0)" stop-opacity="1"></stop><stop offset="50%" stop-color="rgb(246,175,0)" stop-opacity="0.5"></stop><stop offset="100%" stop-color="rgb(246,175,0)" stop-opacity="0"></stop></radialGradient><linearGradient id="__lottie_element_48" spreadMethod="pad" gradientUnits="userSpaceOnUse" x1="-82.9260025024414" y1="0.9610000252723694" x2="-82.9260025024414" y2="11.782999992370605"><stop offset="0%" stop-color="rgb(255,255,255)" stop-opacity="1"></stop><stop offset="60%" stop-color="rgb(255,255,255)" stop-opacity="0.5"></stop><stop offset="100%" stop-color="rgb(255,255,255)" stop-opacity="0"></stop></linearGradient><linearGradient id="__lottie_element_49" spreadMethod="pad" gradientUnits="userSpaceOnUse" x1="-80.73799896240234" y1="10.89900016784668" x2="-61.7130012512207" y2="39.979000091552734"><stop offset="0%" stop-color="rgb(66,0,0)"></stop><stop offset="37%" stop-color="rgb(118,40,0)"></stop><stop offset="100%" stop-color="rgb(170,80,0)"></stop></linearGradient><radialGradient id="__lottie_element_50" spreadMethod="pad" gradientUnits="userSpaceOnUse" cx="-63.92599868774414" cy="33.96099853515625" r="12.805999755859375" fx="-63.92599868774414" fy="33.96099853515625"><stop offset="0%" stop-color="rgb(246,175,0)" stop-opacity="1"></stop><stop offset="50%" stop-color="rgb(246,175,0)" stop-opacity="0.5"></stop><stop offset="100%" stop-color="rgb(246,175,0)" stop-opacity="0"></stop></radialGradient><linearGradient id="__lottie_element_51" spreadMethod="pad" gradientUnits="userSpaceOnUse" x1="-82.9260025024414" y1="0.9610000252723694" x2="-82.9260025024414" y2="11.782999992370605"><stop offset="0%" stop-color="rgb(255,255,255)" stop-opacity="1"></stop><stop offset="60%" stop-color="rgb(255,255,255)" stop-opacity="0.5"></stop><stop offset="100%" stop-color="rgb(255,255,255)" stop-opacity="0"></stop></linearGradient><radialGradient id="__lottie_element_55" spreadMethod="pad" gradientUnits="userSpaceOnUse" cx="173.32400512695312" cy="154.46099853515625" r="110.61927924526688" fx="173.32400512695312" fy="154.46099853515625"><stop offset="0%" stop-color="rgb(255,169,0)" stop-opacity="1"></stop><stop offset="50%" stop-color="rgb(255,169,0)" stop-opacity="0.5"></stop><stop offset="100%" stop-color="rgb(255,169,0)" stop-opacity="0"></stop></radialGradient><radialGradient id="__lottie_element_56" spreadMethod="pad" gradientUnits="userSpaceOnUse" cx="172.07400512695312" cy="153.71099853515625" r="109.16335891331488" fx="172.07400512695312" fy="153.71099853515625"><stop offset="0%" stop-color="rgb(255,169,0)" stop-opacity="1"></stop><stop offset="50%" stop-color="rgb(255,169,0)" stop-opacity="0.5"></stop><stop offset="100%" stop-color="rgb(255,169,0)" stop-opacity="0"></stop></radialGradient></defs><g clip-path="url(#__lottie_element_2)"><g style="display: block;" transform="matrix(0.75,0,0,0.75,256.81451416015625,201.59349060058594)" opacity="1"><g opacity="1" transform="matrix(1,0,0,1,0,0)"><path fill="rgb(159,84,2)" fill-opacity="1" d=" M139.7100067138672,-92.26699829101562 C93.78099822998047,-164.23599243164062 -2.197999954223633,-162.35000610351562 -2.197999954223633,-162.35000610351562 C-2.197999954223633,-162.35000610351562 -98.1760025024414,-164.23599243164062 -144.10499572753906,-92.26699829101562 C-190.0330047607422,-20.29800033569336 -212.84300231933594,115.05699920654297 -202.35800170898438,164.66600036621094 C-192.96400451660156,209.11199951171875 -61.94499969482422,205.86399841308594 -2.197000026702881,205.86399841308594 C57.55099868774414,205.86399841308594 207.3780059814453,199.4219970703125 205.77999877929688,164.66600036621094 C201.79200744628906,77.93399810791016 185.63800048828125,-20.29800033569336 139.7100067138672,-92.26699829101562z"></path></g><g opacity="1" transform="matrix(-1,0,0,1,0,0)"><path fill="url(#__lottie_element_55)" fill-opacity="1" d=" M81.27400207519531,205.54200744628906 C98.38099670410156,203.64100646972656 113.01000213623047,200.08999633789062 124.96199798583984,198.73699951171875 C194.80099487304688,190.83299255371094 201.41099548339844,177.74200439453125 206.70700073242188,153.48300170898438 C209.1009979248047,142.48500061035156 207.34800720214844,128.5989990234375 207.50799560546875,112.552001953125 C203.14100646972656,81.90799713134766 190.9499969482422,7.039999961853027 149.58399963378906,26.033000946044922 C118.98400115966797,40.0629997253418 120.75399780273438,67.64600372314453 72.62699890136719,120.51799774169922 C30.375999450683594,166.93299865722656 45.68299865722656,205.20799255371094 81.27400207519531,205.54200744628906z"></path></g><g opacity="1" transform="matrix(1,0,0,1,0,0)"><path fill="url(#__lottie_element_56)" fill-opacity="1" d=" M81.27400207519531,205.54200744628906 C98.38099670410156,203.64100646972656 113.01000213623047,200.08999633789062 124.96199798583984,198.73699951171875 C194.80099487304688,190.83299255371094 201.41099548339844,177.74200439453125 206.70700073242188,153.48300170898438 C209.1009979248047,142.48500061035156 207.34800720214844,128.5989990234375 207.50799560546875,112.552001953125 C203.14100646972656,81.90799713134766 190.9499969482422,7.039999961853027 149.58399963378906,26.033000946044922 C118.98400115966797,40.0629997253418 120.75399780273438,67.64600372314453 72.62699890136719,120.51799774169922 C30.375999450683594,166.93299865722656 45.68299865722656,205.20799255371094 81.27400207519531,205.54200744628906z"></path></g><g opacity="1" transform="matrix(1,0,0,1,0,0)"><path stroke-linecap="round" stroke-linejoin="round" fill-opacity="0" stroke="rgb(163,65,0)" stroke-opacity="1" stroke-width="10" d=" M139.7100067138672,-92.26699829101562 C93.78099822998047,-164.23599243164062 -94.947998046875,-162.0709991455078 -144.10499572753906,-92.26699829101562 C-199.60899353027344,-13.45199966430664 -213.1820068359375,115.12999725341797 -202.35800170898438,164.66600036621094 C-198.70599365234375,181.38099670410156 -178.0070037841797,188.68800354003906 -146.01600646972656,195.8509979248047 C-86.39299774169922,209.2010040283203 89.8270034790039,209.2010040283203 149.43800354003906,195.8509979248047 C178.36399841308594,189.3730010986328 204.98699951171875,181.75799560546875 205.77999877929688,164.66600036621094 C209.80299377441406,77.93599700927734 185.63800048828125,-20.29800033569336 139.7100067138672,-92.26699829101562z"></path></g></g><g style="display: block;" transform="matrix(0.75,0,0,0.75,257.78875732421875,202.7064971923828)" opacity="1"><g opacity="1" transform="matrix(1,0,0,1,0,0)"><path fill="rgb(255,168,0)" fill-opacity="1" d=" M109.01799774169922,-107.23999786376953 C82.98300170898438,-143.39999389648438 48.70199966430664,-164.66299438476562 -2.8350000381469727,-164.66299438476562 C-54.37200164794922,-164.66299438476562 -88.65399932861328,-143.39999389648438 -114.68800354003906,-107.23999786376953 C-140.72300720214844,-71.08100128173828 -162.41900634765625,13.241999626159668 -128.4290008544922,84.11399841308594 C-94.44000244140625,154.98599243164062 -37.01599884033203,177.4040069580078 -2.8350000381469727,177.4040069580078 C31.34600067138672,177.4040069580078 88.76799774169922,154.98599243164062 122.75800323486328,84.11399841308594 C156.7480010986328,13.241999626159668 135.05299377441406,-71.08100128173828 109.01799774169922,-107.23999786376953z"></path></g><g opacity="1" transform="matrix(1,0,0,1,0,0)"><path fill="url(#__lottie_element_21)" fill-opacity="1" d=" M109.20700073242188,-107.23999786376953 C83.1719970703125,-143.39999389648438 48.88999938964844,-164.66299438476562 -2.6470000743865967,-164.66299438476562 C-54.183998107910156,-164.66299438476562 -88.46499633789062,-143.39999389648438 -114.4990005493164,-107.23999786376953 C-140.53399658203125,-71.08100128173828 -162.22999572753906,13.241999626159668 -128.24000549316406,84.11399841308594 C-94.2509994506836,154.98599243164062 -36.827999114990234,177.4040069580078 -2.6470000743865967,177.4040069580078 C31.534000396728516,177.4040069580078 88.95700073242188,154.98599243164062 122.9469985961914,84.11399841308594 C156.93699645996094,13.241999626159668 135.24200439453125,-71.08100128173828 109.20700073242188,-107.23999786376953z"></path></g><g opacity="1" transform="matrix(1,0,0,1,0,0)"><path fill="url(#__lottie_element_22)" fill-opacity="1" d=" M97.78700256347656,-5.5 C97.78700256347656,-5.5 47.68199920654297,-21.690000534057617 16.958999633789062,-36.638999938964844 C-21.02400016784668,-55.12099838256836 -50.76300048828125,-77.0469970703125 -67.25199890136719,-90.3740005493164 C-67.25199890136719,-90.3740005493164 -80.29399871826172,-51.5629997253418 -101.2699966430664,-29.24799919128418 C-134.3679962158203,5.960999965667725 -131.51100158691406,47.611000061035156 -103.84200286865234,93.5469970703125 C-76.1729965209961,139.48300170898438 -30.659000396728516,155.2429962158203 -2.8350000381469727,155.2429962158203 C24.98900032043457,155.2429962158203 70.50299835205078,139.48300170898438 98.1719970703125,93.5469970703125 C125.84100341796875,47.611000061035156 118.9800033569336,17.937000274658203 97.78700256347656,-5.5z"></path></g><g opacity="1" transform="matrix(1,0,0,1,0,0)"><path stroke-linecap="round" stroke-linejoin="round" fill-opacity="0" stroke="rgb(219,110,0)" stroke-opacity="1" stroke-width="10" d=" M109.01799774169922,-107.23999786376953 C82.98300170898438,-143.39999389648438 48.70199966430664,-164.66299438476562 -2.8350000381469727,-164.66299438476562 C-54.37200164794922,-164.66299438476562 -88.65399932861328,-143.39999389648438 -114.68800354003906,-107.23999786376953 C-140.72300720214844,-71.08100128173828 -162.41900634765625,13.241999626159668 -128.4290008544922,84.11399841308594 C-94.44000244140625,154.98599243164062 -37.01599884033203,177.4040069580078 -2.8350000381469727,177.4040069580078 C31.34600067138672,177.4040069580078 88.76799774169922,154.98599243164062 122.75800323486328,84.11399841308594 C156.7480010986328,13.241999626159668 135.05299377441406,-71.08100128173828 109.01799774169922,-107.23999786376953z"></path></g></g><g style="display: block;" transform="matrix(0.75,0,0,0.75,257.78875732421875,205.2062530517578)" opacity="1"><g opacity="1" transform="matrix(1,0,0,1,0,0)"><g opacity="1" transform="matrix(1,0,0,1,0,0)"><path fill="rgb(255,255,255)" fill-opacity="1" d=" M-33.71799850463867,37.624000549316406 C-33.71799850463867,37.624000549316406 -37.43199920654297,-6.709000110626221 -74.30799865722656,-10.413000106811523 C-108.17400360107422,-13.814000129699707 -119.28600311279297,25.458999633789062 -119.28600311279297,25.458999633789062 C-119.28600311279297,25.458999633789062 -110.1709976196289,49.233001708984375 -80.52400207519531,52.48400115966797 C-47.472999572753906,56.10900115966797 -33.71799850463867,37.624000549316406 -33.71799850463867,37.624000549316406z"></path></g><g opacity="1" transform="matrix(1,0,0,1,0,0)"><g opacity="1" transform="matrix(1,0,0,1,0,0)"><path fill="url(#__lottie_element_46)" fill-opacity="1" d=" M-51.20500183105469,19.68600082397461 C-51.20500183105469,33.59600067138672 -61.845001220703125,44.87200164794922 -74.97100067138672,44.87200164794922 C-88.09700012207031,44.87200164794922 -98.73799896240234,33.59600067138672 -98.73799896240234,19.68600082397461 C-98.73799896240234,5.776000022888184 -88.09700012207031,-5.5 -74.97100067138672,-5.5 C-61.845001220703125,-5.5 -51.20500183105469,5.776000022888184 -51.20500183105469,19.68600082397461z"></path></g><g opacity="1" transform="matrix(1,0,0,1,0,0)"><g opacity="1" transform="matrix(1,0,0,1,0,0)"><path fill="url(#__lottie_element_47)" fill-opacity="1" d=" M-69.46700286865234,43.790000915527344 C-71.34400177001953,43.790000915527344 -73.08100128173828,42.577999114990234 -73.66300201416016,40.691001892089844 C-74.37799835205078,38.37300109863281 -73.0780029296875,35.91400146484375 -70.76000213623047,35.19900131225586 C-66.32599639892578,33.83100128173828 -62.79600143432617,30.38599967956543 -61.31800079345703,25.983999252319336 C-60.54600143432617,23.683000564575195 -58.051998138427734,22.447999954223633 -55.75699996948242,23.218000411987305 C-53.457000732421875,23.989999771118164 -52.21900177001953,26.479999542236328 -52.99100112915039,28.780000686645508 C-55.36600112915039,35.856998443603516 -61.04100036621094,41.39500045776367 -68.1719970703125,43.59400177001953 C-68.60299682617188,43.72700119018555 -69.03900146484375,43.790000915527344 -69.46700286865234,43.790000915527344z"></path></g></g><g opacity="1" transform="matrix(1,0,0,1,0,0)"><path fill="rgb(24,19,9)" fill-opacity="1" d=" M-59.95100021362305,19.68600082397461 C-59.95100021362305,28.476999282836914 -66.67500305175781,35.604000091552734 -74.97100067138672,35.604000091552734 C-83.26699829101562,35.604000091552734 -89.99199676513672,28.476999282836914 -89.99199676513672,19.68600082397461 C-89.99199676513672,10.895000457763672 -83.26699829101562,3.7690000534057617 -74.97100067138672,3.7690000534057617 C-66.67500305175781,3.7690000534057617 -59.95100021362305,10.895000457763672 -59.95100021362305,19.68600082397461z"></path></g><g opacity="1" transform="matrix(1,0,0,1,0,0)"><path fill="url(#__lottie_element_48)" fill-opacity="1" d=" M-76.302001953125,5.961999893188477 C-76.302001953125,9.300000190734863 -78.85600280761719,12.005999565124512 -82.00599670410156,12.005999565124512 C-85.15599822998047,12.005999565124512 -87.70999908447266,9.300000190734863 -87.70999908447266,5.961999893188477 C-87.70999908447266,2.624000072479248 -85.15599822998047,-0.08299999684095383 -82.00599670410156,-0.08299999684095383 C-78.85600280761719,-0.08299999684095383 -76.302001953125,2.624000072479248 -76.302001953125,5.961999893188477z"></path></g></g><g opacity="1" transform="matrix(1,0,0,1,0,0)"><path fill="rgb(163,65,0)" fill-opacity="1" d=" M-33.71799850463867,37.624000549316406 C-33.71799850463867,37.624000549316406 -35.4900016784668,-7.86299991607666 -76.50199890136719,-11.777000427246094 C-93.33999633789062,-13.383999824523926 -107.60199737548828,-4.119999885559082 -113.76799774169922,6.861000061035156 C-118.95999908447266,16.107999801635742 -119.28600311279297,25.458999633789062 -119.28600311279297,25.458999633789062 C-119.28600311279297,25.458999633789062 -115.41500091552734,-9.817000389099121 -77.822998046875,-8.013999938964844 C-37.59400177001953,-6.084000110626221 -33.71799850463867,37.624000549316406 -33.71799850463867,37.624000549316406z"></path><path stroke-linecap="round" stroke-linejoin="round" fill-opacity="0" stroke="rgb(163,65,0)" stroke-opacity="1" stroke-width="3" d=" M-33.71799850463867,37.624000549316406 C-33.71799850463867,37.624000549316406 -35.4900016784668,-7.86299991607666 -76.50199890136719,-11.777000427246094 C-93.33999633789062,-13.383999824523926 -107.60199737548828,-4.119999885559082 -113.76799774169922,6.861000061035156 C-118.95999908447266,16.107999801635742 -119.28600311279297,25.458999633789062 -119.28600311279297,25.458999633789062 C-119.28600311279297,25.458999633789062 -115.41500091552734,-9.817000389099121 -77.822998046875,-8.013999938964844 C-37.59400177001953,-6.084000110626221 -33.71799850463867,37.624000549316406 -33.71799850463867,37.624000549316406z"></path></g></g><g opacity="1" transform="matrix(-1,0,0,1,-4.125,0)"><g opacity="1" transform="matrix(1,0,0,1,0,0)"><path fill="rgb(255,255,255)" fill-opacity="1" d=" M-33.71799850463867,37.624000549316406 C-33.71799850463867,37.624000549316406 -37.43199920654297,-6.709000110626221 -74.30799865722656,-10.413000106811523 C-108.17400360107422,-13.814000129699707 -119.28600311279297,25.458999633789062 -119.28600311279297,25.458999633789062 C-119.28600311279297,25.458999633789062 -110.1709976196289,49.233001708984375 -80.52400207519531,52.48400115966797 C-47.472999572753906,56.10900115966797 -33.71799850463867,37.624000549316406 -33.71799850463867,37.624000549316406z"></path></g><g opacity="1" transform="matrix(-1,0,0,1,-149.94200134277344,0)"><g opacity="1" transform="matrix(1,0,0,1,0,0)"><g opacity="1" transform="matrix(1,0,0,1,0,0)"><path fill="url(#__lottie_element_49)" fill-opacity="1" d=" M-51.20500183105469,19.68600082397461 C-51.20500183105469,33.59600067138672 -61.845001220703125,44.87200164794922 -74.97100067138672,44.87200164794922 C-88.09700012207031,44.87200164794922 -98.73799896240234,33.59600067138672 -98.73799896240234,19.68600082397461 C-98.73799896240234,5.776000022888184 -88.09700012207031,-5.5 -74.97100067138672,-5.5 C-61.845001220703125,-5.5 -51.20500183105469,5.776000022888184 -51.20500183105469,19.68600082397461z"></path></g><g opacity="1" transform="matrix(1,0,0,1,0,0)"><g opacity="1" transform="matrix(1,0,0,1,0,0)"><path fill="url(#__lottie_element_50)" fill-opacity="1" d=" M-69.46700286865234,43.790000915527344 C-71.34400177001953,43.790000915527344 -73.08100128173828,42.577999114990234 -73.66300201416016,40.691001892089844 C-74.37799835205078,38.37300109863281 -73.0780029296875,35.91400146484375 -70.76000213623047,35.19900131225586 C-66.32599639892578,33.83100128173828 -62.79600143432617,30.38599967956543 -61.31800079345703,25.983999252319336 C-60.54600143432617,23.683000564575195 -58.051998138427734,22.447999954223633 -55.75699996948242,23.218000411987305 C-53.457000732421875,23.989999771118164 -52.21900177001953,26.479999542236328 -52.99100112915039,28.780000686645508 C-55.36600112915039,35.856998443603516 -61.04100036621094,41.39500045776367 -68.1719970703125,43.59400177001953 C-68.60299682617188,43.72700119018555 -69.03900146484375,43.790000915527344 -69.46700286865234,43.790000915527344z"></path></g></g><g opacity="1" transform="matrix(1,0,0,1,0,0)"><path fill="rgb(24,19,9)" fill-opacity="1" d=" M-59.95100021362305,19.68600082397461 C-59.95100021362305,28.476999282836914 -66.67500305175781,35.604000091552734 -74.97100067138672,35.604000091552734 C-83.26699829101562,35.604000091552734 -89.99199676513672,28.476999282836914 -89.99199676513672,19.68600082397461 C-89.99199676513672,10.895000457763672 -83.26699829101562,3.7690000534057617 -74.97100067138672,3.7690000534057617 C-66.67500305175781,3.7690000534057617 -59.95100021362305,10.895000457763672 -59.95100021362305,19.68600082397461z"></path></g><g opacity="1" transform="matrix(1,0,0,1,0,0)"><path fill="url(#__lottie_element_51)" fill-opacity="1" d=" M-76.302001953125,5.961999893188477 C-76.302001953125,9.300000190734863 -78.85600280761719,12.005999565124512 -82.00599670410156,12.005999565124512 C-85.15599822998047,12.005999565124512 -87.70999908447266,9.300000190734863 -87.70999908447266,5.961999893188477 C-87.70999908447266,2.624000072479248 -85.15599822998047,-0.08299999684095383 -82.00599670410156,-0.08299999684095383 C-78.85600280761719,-0.08299999684095383 -76.302001953125,2.624000072479248 -76.302001953125,5.961999893188477z"></path></g></g></g><g opacity="1" transform="matrix(1,0,0,1,0,0)"><path fill="rgb(163,65,0)" fill-opacity="1" d=" M-33.71799850463867,37.624000549316406 C-33.71799850463867,37.624000549316406 -35.4900016784668,-7.86299991607666 -76.50199890136719,-11.777000427246094 C-93.33999633789062,-13.383999824523926 -107.60199737548828,-4.119999885559082 -113.76799774169922,6.861000061035156 C-118.95999908447266,16.107999801635742 -119.28600311279297,25.458999633789062 -119.28600311279297,25.458999633789062 C-119.28600311279297,25.458999633789062 -115.41500091552734,-9.817000389099121 -77.822998046875,-8.013999938964844 C-37.59400177001953,-6.084000110626221 -33.71799850463867,37.624000549316406 -33.71799850463867,37.624000549316406z"></path><path stroke-linecap="round" stroke-linejoin="round" fill-opacity="0" stroke="rgb(163,65,0)" stroke-opacity="1" stroke-width="3" d=" M-33.71799850463867,37.624000549316406 C-33.71799850463867,37.624000549316406 -35.4900016784668,-7.86299991607666 -76.50199890136719,-11.777000427246094 C-93.33999633789062,-13.383999824523926 -107.60199737548828,-4.119999885559082 -113.76799774169922,6.861000061035156 C-118.95999908447266,16.107999801635742 -119.28600311279297,25.458999633789062 -119.28600311279297,25.458999633789062 C-119.28600311279297,25.458999633789062 -115.41500091552734,-9.817000389099121 -77.822998046875,-8.013999938964844 C-37.59400177001953,-6.084000110626221 -33.71799850463867,37.624000549316406 -33.71799850463867,37.624000549316406z"></path></g></g></g><g style="display: block;" transform="matrix(0.75,0,0,0.75,258.16375732421875,204.2064971923828)" opacity="1"><g opacity="1" transform="matrix(1,0,0,1,0,0)"><path fill="url(#__lottie_element_39)" fill-opacity="1" d=" M18.190000534057617,94.09300231933594 C18.190000534057617,102.9260025024414 8.125,110.77799987792969 -2.8350000381469727,110.77799987792969 C-13.795000076293945,110.77799987792969 -23.861000061035156,102.9260025024414 -23.861000061035156,94.09300231933594 C-23.861000061035156,85.26100158691406 -13.795000076293945,77.16200256347656 -2.8350000381469727,77.16200256347656 C8.125,77.16200256347656 18.190000534057617,85.26100158691406 18.190000534057617,94.09300231933594z"></path></g><g opacity="1" transform="matrix(1,0,0,1,0,0)"><path fill="rgb(255,168,0)" fill-opacity="0.8" d=" M18.190000534057617,85.64399719238281 C18.190000534057617,94.10600280761719 8.777000427246094,100.96600341796875 -2.8350000381469727,100.96600341796875 C-14.446999549865723,100.96600341796875 -23.860000610351562,94.10600280761719 -23.860000610351562,85.64399719238281 C-23.860000610351562,77.18199920654297 -14.446999549865723,70.68299865722656 -2.8350000381469727,70.68299865722656 C8.777000427246094,70.68299865722656 18.190000534057617,77.18199920654297 18.190000534057617,85.64399719238281z"></path></g><g opacity="1" transform="matrix(1,0,0,1,0,0)"><path fill="url(#__lottie_element_40)" fill-opacity="1" d=" M18.190000534057617,85.64399719238281 C18.190000534057617,94.10600280761719 8.777000427246094,100.96600341796875 -2.8350000381469727,100.96600341796875 C-14.446999549865723,100.96600341796875 -23.860000610351562,94.10600280761719 -23.860000610351562,85.64399719238281 C-23.860000610351562,77.18199920654297 -14.446999549865723,70.68299865722656 -2.8350000381469727,70.68299865722656 C8.777000427246094,70.68299865722656 18.190000534057617,77.18199920654297 18.190000534057617,85.64399719238281z"></path></g><g opacity="1" transform="matrix(1,0,0,1,0,0)"><path fill="rgb(255,216,0)" fill-opacity="1" d=" M15.352999687194824,80.80799865722656 C15.352999687194824,87.10800170898438 7.210000038146973,92.21499633789062 -2.8350000381469727,92.21499633789062 C-12.880000114440918,92.21499633789062 -21.02400016784668,87.10800170898438 -21.02400016784668,80.80799865722656 C-21.02400016784668,74.50800323486328 -12.880000114440918,70.43599700927734 -2.8350000381469727,70.43599700927734 C7.210000038146973,70.43599700927734 15.352999687194824,74.50800323486328 15.352999687194824,80.80799865722656z"></path></g><g opacity="1" transform="matrix(1,0,0,1,0,0)"><path fill="url(#__lottie_element_41)" fill-opacity="1" d=" M15.352999687194824,80.80799865722656 C15.352999687194824,87.10800170898438 7.210000038146973,92.21499633789062 -2.8350000381469727,92.21499633789062 C-12.880000114440918,92.21499633789062 -21.02400016784668,87.10800170898438 -21.02400016784668,80.80799865722656 C-21.02400016784668,74.50800323486328 -12.880000114440918,70.43599700927734 -2.8350000381469727,70.43599700927734 C7.210000038146973,70.43599700927734 15.352999687194824,74.50800323486328 15.352999687194824,80.80799865722656z"></path></g><g opacity="1" transform="matrix(1,0,0,1,0,0)"><path fill="url(#__lottie_element_42)" fill-opacity="0.7000000000000001" d=" M6.535999774932861,76.23300170898438 C6.535999774932861,79.60600280761719 2.3399999141693115,82.77799987792969 -2.8350000381469727,82.77799987792969 C-8.010000228881836,82.77799987792969 -12.206000328063965,79.60600280761719 -12.206000328063965,76.23300170898438 C-12.206000328063965,72.86000061035156 -8.010000228881836,71.16799926757812 -2.8350000381469727,71.16799926757812 C2.3399999141693115,71.16799926757812 6.535999774932861,72.86000061035156 6.535999774932861,76.23300170898438z"></path></g></g><g style="display: block;" transform="matrix(0.75,0,0,0.75,258.28900146484375,205.58200073242188)" opacity="1"><g opacity="1" transform="matrix(1,0,0,1,1,-0.6669999957084656)"><path fill="rgb(163,65,0)" fill-opacity="1" d=" M-108.53900146484375,-29.43400001525879 C-108.53900146484375,-29.43400001525879 -93.75199890136719,-39.57699966430664 -76.2020034790039,-39.02899932861328 C-59.3849983215332,-38.50400161743164 -52.435001373291016,-32.145999908447266 -52.435001373291016,-32.145999908447266 C-52.435001373291016,-32.145999908447266 -58.0369987487793,-44.35599899291992 -76.2020034790039,-43.82699966430664 C-96.21299743652344,-43.24399948120117 -108.53900146484375,-29.43400001525879 -108.53900146484375,-29.43400001525879z"></path><path stroke-linecap="round" stroke-linejoin="round" fill-opacity="0" stroke="rgb(163,65,0)" stroke-opacity="1" stroke-width="3" d=" M-108.53900146484375,-29.43400001525879 C-108.53900146484375,-29.43400001525879 -93.75199890136719,-39.57699966430664 -76.2020034790039,-39.02899932861328 C-59.3849983215332,-38.50400161743164 -52.435001373291016,-32.145999908447266 -52.435001373291016,-32.145999908447266 C-52.435001373291016,-32.145999908447266 -58.0369987487793,-44.35599899291992 -76.2020034790039,-43.82699966430664 C-96.21299743652344,-43.24399948120117 -108.53900146484375,-29.43400001525879 -108.53900146484375,-29.43400001525879z"></path></g><g opacity="1" transform="matrix(1,0,0,1,0,0)"><path fill="rgb(163,65,0)" fill-opacity="1" d=" M102.75700378417969,-29.43400001525879 C102.75700378417969,-29.43400001525879 87.97000122070312,-39.57699966430664 70.41999816894531,-39.02899932861328 C53.60300064086914,-38.50400161743164 46.65299987792969,-32.145999908447266 46.65299987792969,-32.145999908447266 C46.65299987792969,-32.145999908447266 52.255001068115234,-44.35599899291992 70.41999816894531,-43.82699966430664 C90.43099975585938,-43.24399948120117 102.75700378417969,-29.43400001525879 102.75700378417969,-29.43400001525879z"></path><path stroke-linecap="round" stroke-linejoin="round" fill-opacity="0" stroke="rgb(163,65,0)" stroke-opacity="1" stroke-width="3" d=" M102.75700378417969,-29.43400001525879 C102.75700378417969,-29.43400001525879 87.97000122070312,-39.57699966430664 70.41999816894531,-39.02899932861328 C53.60300064086914,-38.50400161743164 46.65299987792969,-32.145999908447266 46.65299987792969,-32.145999908447266 C46.65299987792969,-32.145999908447266 52.255001068115234,-44.35599899291992 70.41999816894531,-43.82699966430664 C90.43099975585938,-43.24399948120117 102.75700378417969,-29.43400001525879 102.75700378417969,-29.43400001525879z"></path></g></g><g style="display: block;" transform="matrix(0.75,0,0,0.75,258.28900146484375,204.45700073242188)" opacity="1"><g opacity="1" transform="matrix(1,0,0,1,0,0)"><path fill="rgb(75,37,2)" fill-opacity="1" d=" M43.34299850463867,120.85099792480469 C40.119998931884766,119.03800201416016 25.618000030517578,121.85800170898438 14.940999984741211,118.03099822998047 C4.264999866485596,114.2040023803711 1.8489999771118164,119.62100219726562 -1.9789999723434448,119.62100219726562 C-5.806000232696533,119.62100219726562 -8.222999572753906,114.2040023803711 -18.899999618530273,118.03099822998047 C-29.576000213623047,121.85800170898438 -44.07899856567383,119.03800201416016 -47.301998138427734,120.85099792480469 C-50.525001525878906,122.66400146484375 -28.535999298095703,143.5919952392578 -1.9789999723434448,143.5919952392578 C24.26799964904785,143.5919952392578 46.566001892089844,122.66400146484375 43.34299850463867,120.85099792480469z"></path></g><g opacity="1" transform="matrix(1,0,0,1,0,0)"><path fill="url(#__lottie_element_32)" fill-opacity="1" d=" M43.34299850463867,120.85099792480469 C40.119998931884766,119.03800201416016 25.618000030517578,121.85800170898438 14.940999984741211,118.03099822998047 C4.264999866485596,114.2040023803711 1.8489999771118164,119.62100219726562 -1.9789999723434448,119.62100219726562 C-5.806000232696533,119.62100219726562 -8.222999572753906,114.2040023803711 -18.899999618530273,118.03099822998047 C-29.576000213623047,121.85800170898438 -44.07899856567383,119.03800201416016 -47.301998138427734,120.85099792480469 C-50.525001525878906,122.66400146484375 -28.535999298095703,143.5919952392578 -1.9789999723434448,143.5919952392578 C24.26799964904785,143.5919952392578 46.566001892089844,122.66400146484375 43.34299850463867,120.85099792480469z"></path></g><g opacity="1" transform="matrix(1,0,0,1,0,0)"><path fill="rgb(23,19,11)" fill-opacity="1" d=" M-39.88199996948242,124.6240005493164 C-39.88199996948242,124.6240005493164 -28.322999954223633,127.36900329589844 -20.43899917602539,127.36900329589844 C-15.086999893188477,127.36900329589844 -7.00600004196167,130.20700073242188 -1.9789999723434448,130.20700073242188 C2.8519999980926514,130.20700073242188 9.390000343322754,127.43000030517578 14.458999633789062,127.43000030517578 C24.839000701904297,127.43000030517578 35.196998596191406,124.6240005493164 35.196998596191406,124.6240005493164 C35.196998596191406,124.6240005493164 26.56399917602539,127.21399688720703 13.963000297546387,129.86099243164062 C9.489999771118164,130.80099487304688 3.2860000133514404,133.1820068359375 -1.9789999723434448,133.1820068359375 C-8.236000061035156,133.1820068359375 -15.381999969482422,130.53799438476562 -20.562000274658203,129.3000030517578 C-32.020999908447266,126.56099700927734 -39.88199996948242,124.6240005493164 -39.88199996948242,124.6240005493164z"></path><path stroke-linecap="round" stroke-linejoin="round" fill-opacity="0" stroke="rgb(23,19,11)" stroke-opacity="1" stroke-width="1" d=" M-39.88199996948242,124.6240005493164 C-39.88199996948242,124.6240005493164 -28.322999954223633,127.36900329589844 -20.43899917602539,127.36900329589844 C-15.086999893188477,127.36900329589844 -7.00600004196167,130.20700073242188 -1.9789999723434448,130.20700073242188 C2.8519999980926514,130.20700073242188 9.390000343322754,127.43000030517578 14.458999633789062,127.43000030517578 C24.839000701904297,127.43000030517578 35.196998596191406,124.6240005493164 35.196998596191406,124.6240005493164 C35.196998596191406,124.6240005493164 26.56399917602539,127.21399688720703 13.963000297546387,129.86099243164062 C9.489999771118164,130.80099487304688 3.2860000133514404,133.1820068359375 -1.9789999723434448,133.1820068359375 C-8.236000061035156,133.1820068359375 -15.381999969482422,130.53799438476562 -20.562000274658203,129.3000030517578 C-32.020999908447266,126.56099700927734 -39.88199996948242,124.6240005493164 -39.88199996948242,124.6240005493164z"></path></g></g><g style="display: block;" transform="matrix(0.75,0,0,0.75,257.78875732421875,203.4564971923828)" opacity="1"><g opacity="1" transform="matrix(1,0,0,1,0,0)"><path fill="rgb(255,205,0)" fill-opacity="1" d=" M-78.04000091552734,-130.18600463867188 C-86.03299713134766,-65.35700225830078 -118.78600311279297,-22.701000213623047 -172.9929962158203,0.7409999966621399 C-172.9929962158203,0.7409999966621399 -214.197998046875,52.073001861572266 -202.35800170898438,158.6820068359375 C-202.35800170898438,158.6820068359375 -217.48500061035156,73.1729965209961 -183.0489959716797,-52.4370002746582 C-151.1230010986328,-168.88999938964844 -98.58999633789062,-186.89199829101562 -86.39199829101562,-182.1179962158203 C-86.39199829101562,-182.1179962158203 -69.22000122070312,-214.73699951171875 15.845000267028809,-203.5989990234375 C100.91000366210938,-192.46099853515625 154.7270050048828,-129.60899353027344 178.82400512695312,-56.415000915527344 C202.92100524902344,16.77899932861328 209.79600524902344,103.78600311279297 205.77999877929688,158.6820068359375 C205.77999877929688,158.6820068359375 216.35499572753906,24.500999450683594 125.8740005493164,-19.011999130249023 C125.8740005493164,-19.011999130249023 -2.197999954223633,-46.04100036621094 -78.04000091552734,-130.18600463867188z"></path></g><g opacity="1" transform="matrix(1,0,0,1,0,0)"><path fill="url(#__lottie_element_25)" fill-opacity="1" d=" M-78.04000091552734,-130.18600463867188 C-86.03299713134766,-65.35700225830078 -118.78600311279297,-22.701000213623047 -172.9929962158203,0.7409999966621399 C-172.9929962158203,0.7409999966621399 -214.197998046875,52.073001861572266 -202.35800170898438,158.6820068359375 C-202.35800170898438,158.6820068359375 -217.48500061035156,73.1729965209961 -183.0489959716797,-52.4370002746582 C-151.1230010986328,-168.88999938964844 -98.58999633789062,-186.89199829101562 -86.39199829101562,-182.1179962158203 C-86.39199829101562,-182.1179962158203 -69.22000122070312,-214.73699951171875 15.845000267028809,-203.5989990234375 C100.91000366210938,-192.46099853515625 154.7270050048828,-129.60899353027344 178.82400512695312,-56.415000915527344 C202.92100524902344,16.77899932861328 209.79600524902344,103.78600311279297 205.77999877929688,158.6820068359375 C205.77999877929688,158.6820068359375 216.35499572753906,24.500999450683594 125.8740005493164,-19.011999130249023 C125.8740005493164,-19.011999130249023 -2.197999954223633,-46.04100036621094 -78.04000091552734,-130.18600463867188z"></path></g><g opacity="1" transform="matrix(1,0,0,1,0,0)"><path fill="url(#__lottie_element_26)" fill-opacity="1" d=" M174.47900390625,-13.397000312805176 C174.47900390625,-13.397000312805176 151.83799743652344,-18.486000061035156 125.87699890136719,-19.006000518798828 C125.87699890136719,-19.006000518798828 -2.196000099182129,-46.0369987487793 -78.04100036621094,-130.1909942626953 C-78.04100036621094,-130.1909942626953 -80.94599914550781,-72.83999633789062 -117.72100067138672,-38.965999603271484 C-152.47000122070312,-6.940999984741211 -172.98699951171875,0.7360000014305115 -172.98699951171875,0.7360000014305115 C-172.98699951171875,0.7360000014305115 -199.02099609375,38.500999450683594 -201.6219940185547,71.7969970703125 C-201.6219940185547,71.7969970703125 -203.947998046875,0.8379999995231628 -179.968994140625,-9.576000213623047 C-179.968994140625,-9.576000213623047 -140.3070068359375,-31.211999893188477 -118.94200134277344,-58.972999572753906 C-91.56400299072266,-94.5469970703125 -93.60700225830078,-141.5749969482422 -97.32599639892578,-154.3820037841797 C-102.74099731445312,-173.0279998779297 -144.10499572753906,-152.31700134277344 -169.26499938964844,-94.08100128173828 C-137.78700256347656,-173.302001953125 -96.95999908447266,-186.25 -86.38999938964844,-182.11500549316406 C-86.38999938964844,-182.11500549316406 -69.21600341796875,-214.73199462890625 15.843999862670898,-203.59800720214844 C58.880001068115234,-197.96499633789062 93.93499755859375,-179.08099365234375 121.1780014038086,-152.31500244140625 C121.1780014038086,-152.31500244140625 66.68599700927734,-203.072998046875 -21.749000549316406,-193.33399963378906 C-81.34300231933594,-186.77099609375 -72.93800354003906,-157.82000732421875 -66.31099700927734,-146.7779998779297 C-56.9119987487793,-131.1179962158203 -8.767999649047852,-81.87999725341797 59.74700164794922,-56.15599822998047 C118.37000274658203,-34.145999908447266 151.92300415039062,-28.36400032043457 174.47900390625,-13.397000312805176z"></path></g><g opacity="1" transform="matrix(1,0,0,1,0,0)"><path stroke-linecap="round" stroke-linejoin="round" fill-opacity="0" stroke="rgb(197,92,0)" stroke-opacity="1" stroke-width="10" d=" M-78.04000091552734,-130.18600463867188 C-73.3499984741211,-72.90699768066406 -116.21900177001953,-23.319000244140625 -172.9929962158203,0.7409999966621399 C-172.9929962158203,0.7409999966621399 -215.5489959716797,50.145999908447266 -203.70899963378906,156.7550048828125 C-203.70899963378906,156.7550048828125 -217.48500061035156,73.1729965209961 -183.0489959716797,-52.4370002746582 C-151.1230010986328,-168.88999938964844 -98.58999633789062,-186.89199829101562 -86.39199829101562,-182.1179962158203 C-86.39199829101562,-182.1179962158203 -69.22000122070312,-214.73699951171875 15.845000267028809,-203.5989990234375 C100.91000366210938,-192.46099853515625 154.7270050048828,-129.60899353027344 178.82400512695312,-56.415000915527344 C202.92100524902344,16.77899932861328 209.90699768066406,102.00700378417969 205.89100646972656,156.9029998779297 C205.89100646972656,156.9029998779297 216.0989990234375,23.24799919128418 125.8740005493164,-19.011999130249023 C125.8740005493164,-19.011999130249023 -2.197999954223633,-46.04100036621094 -78.04000091552734,-130.18600463867188z"></path></g><g opacity="1" transform="matrix(1,0,0,1,0,0)"><path fill="url(#__lottie_element_27)" fill-opacity="0.9" d=" M-95.35900115966797,-139.6020050048828 C-94.7030029296875,-165.03700256347656 -91.95500183105469,-170.71800231933594 -97.7959976196289,-169.27000427246094 C-116.37200164794922,-164.66400146484375 -146.6320037841797,-137.3179931640625 -162.50399780273438,-86.68099975585938 C-161.718994140625,-68.13700103759766 -138.73300170898438,-80.89099884033203 -127.7770004272461,-81.43499755859375 C-99.7249984741211,-82.8280029296875 -95.94000244140625,-117.0719985961914 -95.35900115966797,-139.6020050048828z"></path></g><g opacity="1" transform="matrix(1,0,0,1,0,0)"><path fill="url(#__lottie_element_28)" fill-opacity="0.9" d=" M16.84600067138672,-83.1259994506836 C-27.475000381469727,-98.36000061035156 -59.73899841308594,-137.24200439453125 -66.9469985961914,-149.1580047607422 C-75.44300079345703,-163.20399475097656 -77.95800018310547,-175.9709930419922 -75.63999938964844,-178.60499572753906 C-65.66000366210938,-189.9459991455078 -28.160999298095703,-200.54200744628906 24.340999603271484,-190.15699768066406 C72.96399688720703,-180.53900146484375 122.29399871826172,-143.87600708007812 146.23300170898438,-98.8280029296875 C159.5850067138672,-73.7020034790039 89.62000274658203,-58.112998962402344 16.84600067138672,-83.1259994506836z"></path></g><g opacity="1" transform="matrix(1,0,0,1,0,0)"><path stroke-linecap="round" stroke-linejoin="round" fill-opacity="0" stroke="rgb(163,65,0)" stroke-opacity="1" stroke-width="10" d=" M205.89100646972656,156.9029998779297 C205.89100646972656,156.9029998779297 216.0989990234375,23.24799919128418 125.8740005493164,-19.011999130249023 C125.8740005493164,-19.011999130249023 -2.197999954223633,-46.04100036621094 -78.04000091552734,-130.18600463867188 C-73.3499984741211,-72.90699768066406 -116.21900177001953,-23.319000244140625 -172.9929962158203,0.7409999966621399 C-172.9929962158203,0.7409999966621399 -215.5489959716797,50.145999908447266 -203.70899963378906,156.7550048828125"></path></g></g><g style="display: block;" transform="matrix(1,0,0,1,256,256)" opacity="1"><g opacity="1" transform="matrix(1,0,0,1,0,0)"><path fill="url(#__lottie_element_6)" fill-opacity="1" d=" M127.73500061035156,86.63099670410156 C127.73500061035156,86.63099670410156 -123.21499633789062,86.63099670410156 -123.21499633789062,86.63099670410156 C-123.21499633789062,86.63099670410156 -123.21499633789062,231.5919952392578 -123.21499633789062,231.5919952392578 C-123.21499633789062,231.5919952392578 127.73500061035156,231.5919952392578 127.73500061035156,231.5919952392578 C127.73500061035156,231.5919952392578 127.73500061035156,86.63099670410156 127.73500061035156,86.63099670410156z"></path></g><g opacity="1" transform="matrix(1,0,0,1,0,0)"><g opacity="1" transform="matrix(1,0,0,1,0,0)"><path fill="url(#__lottie_element_7)" fill-opacity="1" d=" M160.66600036621094,168.7969970703125 C158.18299865722656,146.47300720214844 151.18699645996094,90.93399810791016 132.33900451660156,73.76499938964844 C115.03299713134766,58.00199890136719 87.25,57.77399826049805 62.979000091552734,66.45500183105469 C62.979000091552734,66.45500183105469 50.7130012512207,80.43900299072266 50.7130012512207,80.43900299072266 C50.7130012512207,80.43900299072266 116.46199798583984,127.30799865722656 116.46199798583984,127.30799865722656"></path></g><g opacity="1" transform="matrix(1,0,0,1,0,0)"><path stroke-linecap="round" stroke-linejoin="round" fill-opacity="0" stroke="rgb(82,1,86)" stroke-opacity="1" stroke-width="8" d=" M160.66600036621094,168.7969970703125 C158.18299865722656,146.47300720214844 151.18699645996094,90.93399810791016 132.33900451660156,73.76499938964844 C115.03299713134766,58.00199890136719 87.25,57.77399826049805 62.979000091552734,66.45500183105469"></path></g></g><g opacity="1" transform="matrix(1,0,0,1,0,0)"><g opacity="1" transform="matrix(-1,0,0,1,2.75,-1.125)"><g opacity="1" transform="matrix(1,0,0,1,0,0)"><path fill="rgb(255,216,0)" fill-opacity="1" d=" M-82.43199920654297,8.803000450134277 C-82.43199920654297,8.803000450134277 -121.97699737548828,-35.93899917602539 -133.23899841308594,-43.446998596191406 C-144.50100708007812,-50.95500183105469 -174.91000366210938,-67.59700012207031 -183.9199981689453,-73.22799682617188 C-192.92999267578125,-78.85900115966797 -198.85699462890625,-81.14399719238281 -202.69000244140625,-80.11499786376953 C-206.58799743652344,-79.06900024414062 -209.25999450683594,-72.72899627685547 -202.69000244140625,-67.97200012207031 C-202.69000244140625,-67.97200012207031 -208.5760040283203,-65.65799713134766 -207.06900024414062,-58.58700180053711 C-205.53900146484375,-51.40599822998047 -194.05599975585938,-48.89099884033203 -186.45399475097656,-42.97800064086914 C-178.8520050048828,-37.064998626708984 -168.4340057373047,-25.239999771118164 -165.33700561523438,-20.172000885009766 C-162.24000549316406,-15.104000091552734 -133.46299743652344,29.382999420166016 -110.40399932861328,40.082000732421875 C-87.34500122070312,50.78099822998047 -82.43199920654297,8.803000450134277 -82.43199920654297,8.803000450134277z"></path></g><g opacity="1" transform="matrix(1,0,0,1,0,0)"><path fill="url(#__lottie_element_8)" fill-opacity="1" d=" M-82.43199920654297,8.803000450134277 C-82.43199920654297,8.803000450134277 -121.97699737548828,-35.93899917602539 -133.23899841308594,-43.446998596191406 C-144.50100708007812,-50.95500183105469 -174.91000366210938,-67.59700012207031 -183.9199981689453,-73.22799682617188 C-192.92999267578125,-78.85900115966797 -197.85699462890625,-81.14399719238281 -201.69000244140625,-80.11499786376953 C-205.58799743652344,-79.06900024414062 -209.25999450683594,-72.72899627685547 -202.69000244140625,-67.97200012207031 C-202.69000244140625,-67.97200012207031 -208.5760040283203,-65.65799713134766 -207.06900024414062,-58.58700180053711 C-205.53900146484375,-51.40599822998047 -194.05599975585938,-48.89099884033203 -186.45399475097656,-42.97800064086914 C-178.8520050048828,-37.064998626708984 -168.4340057373047,-25.239999771118164 -165.33700561523438,-20.172000885009766 C-162.24000549316406,-15.104000091552734 -133.46299743652344,29.382999420166016 -110.40399932861328,40.082000732421875 C-87.34500122070312,50.78099822998047 -82.43199920654297,8.803000450134277 -82.43199920654297,8.803000450134277z"></path></g><g opacity="1" transform="matrix(1,0,0,1,0,0)"><path stroke-linecap="round" stroke-linejoin="round" fill-opacity="0" stroke="rgb(218,110,0)" stroke-opacity="1" stroke-width="8" d=" M-82.43199920654297,8.803000450134277 C-82.43199920654297,8.803000450134277 -121.97699737548828,-35.93899917602539 -133.23899841308594,-43.446998596191406 C-144.50100708007812,-50.95500183105469 -174.91000366210938,-67.59700012207031 -183.9199981689453,-73.22799682617188 C-192.92999267578125,-78.85900115966797 -197.85699462890625,-81.14399719238281 -201.69000244140625,-80.11499786376953 C-205.58799743652344,-79.06900024414062 -209.25999450683594,-72.72899627685547 -202.69000244140625,-67.97200012207031 C-202.69000244140625,-67.97200012207031 -208.5760040283203,-65.65799713134766 -207.06900024414062,-58.58700180053711 C-205.53900146484375,-51.40599822998047 -194.05599975585938,-48.89099884033203 -186.45399475097656,-42.97800064086914 C-178.8520050048828,-37.064998626708984 -168.4340057373047,-25.239999771118164 -165.33700561523438,-20.172000885009766 C-162.24000549316406,-15.104000091552734 -133.46299743652344,29.382999420166016 -110.40399932861328,40.082000732421875 C-87.34500122070312,50.78099822998047 -82.43199920654297,8.803000450134277 -82.43199920654297,8.803000450134277z"></path></g><g opacity="1" transform="matrix(1,0,0,1,0,0)"><path stroke-linecap="round" stroke-linejoin="round" fill-opacity="0" stroke="rgb(218,110,0)" stroke-opacity="0.5" stroke-width="4" d=" M-202.69000244140625,-67.97200012207031 C-194.05499267578125,-67.22100067138672 -170.1230010986328,-51.42499923706055 -156.0449981689453,-42.415000915527344"></path></g></g><g opacity="1" transform="matrix(1,0,0,1,0,0)"><path fill="rgb(66,0,72)" fill-opacity="1" d=" M69.11499786376953,14.26200008392334 C69.11499786376953,14.26200008392334 81.86100006103516,5.218999862670898 84.50199890136719,5.2170000076293945 C88.44400024414062,5.214000225067139 106.96499633789062,22.165000915527344 113.4729995727539,38.49599838256836 C114.87100219726562,42.005001068115234 106.6510009765625,51.448001861572266 101.58300018310547,54.45100021362305 C96.51499938964844,57.45399856567383 69.11499786376953,14.26200008392334 69.11499786376953,14.26200008392334z"></path><path stroke-linecap="round" stroke-linejoin="round" fill-opacity="0" stroke="rgb(44,0,48)" stroke-opacity="1" stroke-width="8" d=" M69.11499786376953,14.26200008392334 C69.11499786376953,14.26200008392334 81.86100006103516,5.218999862670898 84.50199890136719,5.2170000076293945 C88.44400024414062,5.214000225067139 106.96499633789062,22.165000915527344 113.4729995727539,38.49599838256836 C114.87100219726562,42.005001068115234 106.6510009765625,51.448001861572266 101.58300018310547,54.45100021362305 C96.51499938964844,57.45399856567383 69.11499786376953,14.26200008392334 69.11499786376953,14.26200008392334z"></path></g><g opacity="1" transform="matrix(-2.0971486568450928,1.1762393712997437,0.48918455839157104,0.8721802830696106,12.243284225463867,-48.50819396972656)"><path fill="url(#__lottie_element_9)" fill-opacity="1" d=" M78.74700164794922,93.81099700927734 C78.74700164794922,93.81099700927734 25.332000732421875,84.51699829101562 6.360000133514404,77.61599731445312 C-10.833999633789062,71.36199951171875 -11.079000473022461,97.09400177001953 -13.192000389099121,112.67900085449219 C-14.538000106811523,122.6050033569336 -18.861000061035156,136.43699645996094 -2.0769999027252197,146.64100646972656 C17,158.23899841308594 38.15599822998047,175.85499572753906 78.29000091552734,184.75799560546875 C116.00499725341797,193.12399291992188 125.19100189208984,138.1840057373047 91.98400115966797,62.68299865722656 C84.92400360107422,46.630001068115234 62.59199905395508,-8.324999809265137 42.71099853515625,100.12799835205078"></path></g><g opacity="1" transform="matrix(1,0,0,1,0,0)"><path fill="url(#__lottie_element_10)" fill-opacity="0.2" d=" M-147.81300354003906,219.85699462890625 C-158.08200073242188,195.06700134277344 -140.06399536132812,102.30500030517578 -122.35299682617188,82.22699737548828 C-101.89800262451172,59.03799819946289 -62.52299880981445,68.5469970703125 -62.52299880981445,68.5469970703125 C-62.52299880981445,68.5469970703125 -62.52299880981445,63.97700119018555 -62.52299880981445,63.97700119018555 C-86.15299987792969,56.22700119018555 -112.58300018310547,56.97700119018555 -129.2729949951172,72.177001953125 C-148.11300659179688,89.34700012207031 -155.11300659179688,146.88699340820312 -157.59300231933594,169.20700073242188 C-159.89300537109375,189.85699462890625 -158.73300170898438,209.14700317382812 -147.81300354003906,219.85699462890625z"></path></g><g opacity="1" transform="matrix(1,0,0,1,0,0)"><path fill="url(#__lottie_element_11)" fill-opacity="0.2" d=" M-110.3030014038086,128.0070037841797 C-107.85299682617188,126.45700073242188 50.31700134277344,28.406999588012695 63.30699920654297,26.797000885009766 C76.39700317382812,25.177000045776367 104.0770034790039,49.606998443603516 104.0770034790039,49.606998443603516 C101.95700073242188,34.027000427246094 74.8270034790039,8.177000045776367 57.62699890136719,14.437000274658203 C42.73699951171875,19.847000122070312 -54.10300064086914,85.2969970703125 -95.10299682617188,113.21700286865234 C-95.10299682617188,113.21700286865234 -110.3030014038086,128.0070037841797 -110.3030014038086,128.0070037841797z"></path></g><g opacity="1" transform="matrix(1,0,0,1,0,0)"><path fill="url(#__lottie_element_12)" fill-opacity="0.5" d=" M-69.16699981689453,94.94599914550781 C-69.16699981689453,94.94599914550781 0,155.86000061035156 0,155.86000061035156 C0,155.86000061035156 -38.10499954223633,186.17300415039062 -38.10499954223633,186.17300415039062 C-38.10499954223633,186.17300415039062 -100.35700225830078,115.71700286865234 -100.35700225830078,115.71700286865234 C-100.35700225830078,115.71700286865234 -69.16699981689453,94.94599914550781 -69.16699981689453,94.94599914550781z"></path></g><g opacity="1" transform="matrix(1,0,0,1,0,0)"><path stroke-linecap="round" stroke-linejoin="round" fill-opacity="0" stroke="rgb(82,1,86)" stroke-opacity="1" stroke-width="8" d=" M-113.39299774169922,125.72200012207031 C-113.39299774169922,125.72200012207031 38.65700149536133,21.336999893188477 57.62900161743164,14.435999870300293 C74.822998046875,8.182000160217285 101.96199798583984,34.0260009765625 104.07499694824219,49.611000061035156 C105.4209976196289,59.5369987487793 81.9520034790039,83.5719985961914 67.48699951171875,96.86100006103516 C47.56100082397461,115.16699981689453 -65.14600372314453,222.04800415039062 -114.93299865722656,228.11599731445312 C-153.281005859375,232.7899932861328 -161.33200073242188,202.79100036621094 -157.5959930419922,169.21099853515625 C-155.11199951171875,146.88699340820312 -148.11700439453125,89.3479995727539 -129.2689971923828,72.17900085449219 C-111.96299743652344,56.41600036621094 -84.18000030517578,56.1879997253418 -59.909000396728516,64.86900329589844"></path></g><g opacity="1" transform="matrix(1,0,0,1,0,0)"><path stroke-linecap="round" stroke-linejoin="round" fill-opacity="0" stroke="rgb(44,0,48)" stroke-opacity="1" stroke-width="8" d=" M69.11499786376953,14.26099967956543 C84.86799621582031,18.31399917602539 102.39399719238281,37.209999084472656 104.07499694824219,49.611000061035156 C105.4209976196289,59.5369987487793 81.9520034790039,83.5719985961914 67.48699951171875,96.86100006103516 C47.56100082397461,115.16699981689453 -65.14600372314453,222.04800415039062 -114.93299865722656,228.11599731445312 C-133.31399536132812,230.3560028076172 -144.73399353027344,224.63099670410156 -151.23199462890625,214.36300659179688"></path></g></g><g opacity="1" transform="matrix(1,0,0,1,0,0)"><g opacity="1" transform="matrix(1,0,0,1,0,0)"><g opacity="1" transform="matrix(1,0,0,1,0,0)"><path fill="rgb(255,216,0)" fill-opacity="1" d=" M-82.43199920654297,8.803000450134277 C-82.43199920654297,8.803000450134277 -121.97699737548828,-35.93899917602539 -133.23899841308594,-43.446998596191406 C-144.50100708007812,-50.95500183105469 -174.91000366210938,-67.59700012207031 -183.9199981689453,-73.22799682617188 C-192.92999267578125,-78.85900115966797 -198.85699462890625,-81.14399719238281 -202.69000244140625,-80.11499786376953 C-206.58799743652344,-79.06900024414062 -209.25999450683594,-72.72899627685547 -202.69000244140625,-67.97200012207031 C-202.69000244140625,-67.97200012207031 -208.5760040283203,-65.65799713134766 -207.06900024414062,-58.58700180053711 C-205.53900146484375,-51.40599822998047 -194.05599975585938,-48.89099884033203 -186.45399475097656,-42.97800064086914 C-178.8520050048828,-37.064998626708984 -168.4340057373047,-25.239999771118164 -165.33700561523438,-20.172000885009766 C-162.24000549316406,-15.104000091552734 -133.46299743652344,29.382999420166016 -110.40399932861328,40.082000732421875 C-87.34500122070312,50.78099822998047 -82.43199920654297,8.803000450134277 -82.43199920654297,8.803000450134277z"></path></g><g opacity="1" transform="matrix(1,0,0,1,0,0)"><path fill="url(#__lottie_element_13)" fill-opacity="1" d=" M-82.43199920654297,8.803000450134277 C-82.43199920654297,8.803000450134277 -121.97699737548828,-35.93899917602539 -133.23899841308594,-43.446998596191406 C-144.50100708007812,-50.95500183105469 -174.91000366210938,-67.59700012207031 -183.9199981689453,-73.22799682617188 C-192.92999267578125,-78.85900115966797 -197.85699462890625,-81.14399719238281 -201.69000244140625,-80.11499786376953 C-205.58799743652344,-79.06900024414062 -209.25999450683594,-72.72899627685547 -202.69000244140625,-67.97200012207031 C-202.69000244140625,-67.97200012207031 -208.5760040283203,-65.65799713134766 -207.06900024414062,-58.58700180053711 C-205.53900146484375,-51.40599822998047 -194.05599975585938,-48.89099884033203 -186.45399475097656,-42.97800064086914 C-178.8520050048828,-37.064998626708984 -168.4340057373047,-25.239999771118164 -165.33700561523438,-20.172000885009766 C-162.24000549316406,-15.104000091552734 -133.46299743652344,29.382999420166016 -110.40399932861328,40.082000732421875 C-87.34500122070312,50.78099822998047 -82.43199920654297,8.803000450134277 -82.43199920654297,8.803000450134277z"></path></g><g opacity="1" transform="matrix(1,0,0,1,0,0)"><path stroke-linecap="round" stroke-linejoin="round" fill-opacity="0" stroke="rgb(218,110,0)" stroke-opacity="1" stroke-width="8" d=" M-82.43199920654297,8.803000450134277 C-82.43199920654297,8.803000450134277 -121.97699737548828,-35.93899917602539 -133.23899841308594,-43.446998596191406 C-144.50100708007812,-50.95500183105469 -174.91000366210938,-67.59700012207031 -183.9199981689453,-73.22799682617188 C-192.92999267578125,-78.85900115966797 -197.85699462890625,-81.14399719238281 -201.69000244140625,-80.11499786376953 C-205.58799743652344,-79.06900024414062 -209.25999450683594,-72.72899627685547 -202.69000244140625,-67.97200012207031 C-202.69000244140625,-67.97200012207031 -208.5760040283203,-65.65799713134766 -207.06900024414062,-58.58700180053711 C-205.53900146484375,-51.40599822998047 -194.05599975585938,-48.89099884033203 -186.45399475097656,-42.97800064086914 C-178.8520050048828,-37.064998626708984 -168.4340057373047,-25.239999771118164 -165.33700561523438,-20.172000885009766 C-162.24000549316406,-15.104000091552734 -133.46299743652344,29.382999420166016 -110.40399932861328,40.082000732421875 C-87.34500122070312,50.78099822998047 -82.43199920654297,8.803000450134277 -82.43199920654297,8.803000450134277z"></path></g><g opacity="1" transform="matrix(1,0,0,1,0,0)"><path stroke-linecap="round" stroke-linejoin="round" fill-opacity="0" stroke="rgb(218,110,0)" stroke-opacity="0.5" stroke-width="4" d=" M-202.69000244140625,-67.97200012207031 C-194.05499267578125,-67.22100067138672 -170.1230010986328,-51.42499923706055 -156.0449981689453,-42.415000915527344"></path></g></g><g opacity="1" transform="matrix(1,0,0,1,0,0)"><path fill="rgb(66,0,72)" fill-opacity="1" d=" M-66.04499816894531,15.848999977111816 C-66.04499816894531,15.848999977111816 -78.79100036621094,6.804999828338623 -81.43199920654297,6.802999973297119 C-85.3740005493164,6.800000190734863 -103.89600372314453,23.750999450683594 -110.40399932861328,40.082000732421875 C-111.8030014038086,43.590999603271484 -103.58100128173828,53.034000396728516 -98.51300048828125,56.0369987487793 C-93.44499969482422,59.040000915527344 -66.04499816894531,15.848999977111816 -66.04499816894531,15.848999977111816z"></path><path stroke-linecap="round" stroke-linejoin="round" fill-opacity="0" stroke="rgb(44,0,48)" stroke-opacity="1" stroke-width="8" d=" M-66.04499816894531,15.848999977111816 C-66.04499816894531,15.848999977111816 -78.79100036621094,6.804999828338623 -81.43199920654297,6.802999973297119 C-85.3740005493164,6.800000190734863 -103.89600372314453,23.750999450683594 -110.40399932861328,40.082000732421875 C-111.8030014038086,43.590999603271484 -103.58100128173828,53.034000396728516 -98.51300048828125,56.0369987487793 C-93.44499969482422,59.040000915527344 -66.04499816894531,15.848999977111816 -66.04499816894531,15.848999977111816z"></path></g><g opacity="1" transform="matrix(2.1002821922302246,1.1706351041793823,-0.48685380816459656,0.8734834790229797,-13.411134719848633,-46.44757080078125)"><path fill="url(#__lottie_element_14)" fill-opacity="1" d=" M79.37000274658203,88.54000091552734 C79.37000274658203,88.54000091552734 27.5310001373291,78.38500213623047 8.529999732971191,74.57499694824219 C-9.409000396728516,70.97799682617188 -11.079000473022461,97.09400177001953 -13.192000389099121,112.67900085449219 C-14.538000106811523,122.6050033569336 -15.29699993133545,132.29100036621094 0.25099998712539673,144.2949981689453 C18.740999221801758,158.57000732421875 26.618000030517578,165.64700317382812 71.57099914550781,178.8800048828125 C114.58599853515625,191.54200744628906 116.77300262451172,149.11399841308594 111.125,122.99600219726562 C107.16600036621094,104.68900299072266 105.62699890136719,100.51300048828125 97.5,77.52300262451172"></path></g><g opacity="1" transform="matrix(1,0,0,1,0,0)"><path fill="url(#__lottie_element_15)" fill-opacity="0.2" d=" M100.42900085449219,69.65699768066406 C107.875,71.25 118.25,75.875 124.9219970703125,82.93900299072266 C141.25,100.625 161.1510009765625,194.6529998779297 150.8820037841797,219.4429931640625 C161.802001953125,208.73300170898438 162.96200561523438,189.44400024414062 160.66200256347656,168.79400634765625 C158.1820068359375,146.4739990234375 146.9320068359375,92.18399810791016 128.0919952392578,75.01399993896484 C128.0919952392578,75.01399993896484 120.75,67.125 103.34300231933594,65.0999984741211 C103.18800354003906,65.43699645996094 99.625,69.81300354003906 100.42900085449219,69.65699768066406z"></path></g><g opacity="1" transform="matrix(1,0,0,1,0,0)"><path fill="url(#__lottie_element_16)" fill-opacity="0.2" d=" M113.49700164794922,128.843994140625 C111.0469970703125,127.29399871826172 -47.24800109863281,29.993000030517578 -60.237998962402344,28.382999420166016 C-73.3280029296875,26.76300048828125 -101.00800323486328,51.19300079345703 -101.00800323486328,51.19300079345703 C-98.88800048828125,35.612998962402344 -71.75800323486328,9.762999534606934 -54.55799865722656,16.023000717163086 C-39.667999267578125,21.433000564575195 57.172000885009766,86.88300323486328 98.1719970703125,114.8030014038086 C98.1719970703125,114.8030014038086 113.49700164794922,128.843994140625 113.49700164794922,128.843994140625z"></path></g><g opacity="1" transform="matrix(1,0,0,1,0,0)"><path stroke-linecap="round" stroke-linejoin="round" fill-opacity="0" stroke="rgb(82,1,86)" stroke-opacity="1" stroke-width="8" d=" M116.46199798583984,127.30799865722656 C116.46199798583984,127.30799865722656 -35.5880012512207,22.923999786376953 -54.560001373291016,16.023000717163086 C-71.75399780273438,9.769000053405762 -98.89199829101562,35.612998962402344 -101.00499725341797,51.198001861572266 C-102.35099792480469,61.124000549316406 -78.88200378417969,85.15799713134766 -64.41699981689453,98.4469985961914 C-44.49100112915039,116.75299835205078 68.21600341796875,221.63400268554688 118.00299835205078,227.70199584960938 C156.3509979248047,232.37600708007812 164.40199279785156,202.3769989013672 160.66600036621094,168.7969970703125 C158.18299865722656,146.47300720214844 151.18699645996094,90.93399810791016 132.33900451660156,73.76499938964844"></path></g><g opacity="1" transform="matrix(1,0,0,1,0,0)"><path stroke-linecap="round" stroke-linejoin="round" fill-opacity="0" stroke="rgb(44,0,48)" stroke-opacity="1" stroke-width="8" d=" M-66.0459976196289,15.847999572753906 C-81.79900360107422,19.900999069213867 -99.3239974975586,38.797000885009766 -101.00499725341797,51.198001861572266 C-102.35099792480469,61.124000549316406 -78.88200378417969,85.15799713134766 -64.41699981689453,98.4469985961914 C-44.49100112915039,116.75299835205078 68.21600341796875,221.63400268554688 118.00299835205078,227.70199584960938 C136.38400268554688,229.94200134277344 147.8040008544922,224.2169952392578 154.302001953125,213.94900512695312"></path></g></g></g></g></svg>