<svg xmlns="http://www.w3.org/2000/svg" xmlns:xlink="http://www.w3.org/1999/xlink" viewBox="0 0 512 512" width="512" height="512" style="width: 100%; height: 100%; transform: translate3d(0,0,0); content-visibility: visible;" preserveAspectRatio="xMidYMid meet"><defs><clipPath id="__lottie_element_2"><rect width="512" height="512" x="0" y="0"></rect></clipPath><radialGradient id="__lottie_element_9" spreadMethod="pad" gradientUnits="userSpaceOnUse" cx="-126.23799896240234" cy="-170" r="84.81599807739258" fx="-126.23799896240234" fy="-170"><stop offset="80%" stop-color="rgb(255,216,0)" stop-opacity="1"></stop><stop offset="86%" stop-color="rgb(255,216,0)" stop-opacity="0.5"></stop><stop offset="92%" stop-color="rgb(255,216,0)" stop-opacity="0"></stop></radialGradient><radialGradient id="__lottie_element_10" spreadMethod="pad" gradientUnits="userSpaceOnUse" cx="-127.80500030517578" cy="-145.2239990234375" r="23.68248133589233" fx="-127.80500030517578" fy="-145.2239990234375"><stop offset="0%" stop-color="rgb(255,255,255)" stop-opacity="1"></stop><stop offset="75%" stop-color="rgb(255,255,255)" stop-opacity="0.5"></stop><stop offset="100%" stop-color="rgb(255,255,255)" stop-opacity="0"></stop></radialGradient><radialGradient id="__lottie_element_14" spreadMethod="pad" gradientUnits="userSpaceOnUse" cx="43.762001037597656" cy="45" r="354.3857019627848" fx="43.762001037597656" fy="45"><stop offset="0%" stop-color="rgb(147,18,149)" stop-opacity="1"></stop><stop offset="23%" stop-color="rgb(107,9,110)" stop-opacity="0.5"></stop><stop offset="47%" stop-color="rgb(66,0,72)" stop-opacity="0"></stop><stop offset="64%" stop-color="rgb(66,0,72)" stop-opacity="0.5"></stop><stop offset="82%" stop-color="rgb(66,0,72)" stop-opacity="1"></stop></radialGradient><radialGradient id="__lottie_element_15" spreadMethod="pad" gradientUnits="userSpaceOnUse" cx="14.26200008392334" cy="20" r="144.28406528955384" fx="14.26200008392334" fy="20"><stop offset="0%" stop-color="rgb(66,0,72)" stop-opacity="1"></stop><stop offset="82%" stop-color="rgb(66,0,72)" stop-opacity="0.5"></stop><stop offset="100%" stop-color="rgb(66,0,72)" stop-opacity="0"></stop></radialGradient><radialGradient id="__lottie_element_16" spreadMethod="pad" gradientUnits="userSpaceOnUse" cx="-136.23800659179688" cy="225" r="108.3389113143748" fx="-136.23800659179688" fy="225"><stop offset="0%" stop-color="rgb(66,0,72)" stop-opacity="1"></stop><stop offset="50%" stop-color="rgb(66,0,72)" stop-opacity="0.5"></stop><stop offset="100%" stop-color="rgb(66,0,72)" stop-opacity="0"></stop></radialGradient><radialGradient id="__lottie_element_20" spreadMethod="pad" gradientUnits="userSpaceOnUse" cx="24.761999130249023" cy="107" r="36.24600028991699" fx="24.761999130249023" fy="107"><stop offset="8%" stop-color="rgb(117,55,14)" stop-opacity="1"></stop><stop offset="57%" stop-color="rgb(117,55,14)" stop-opacity="0.5"></stop><stop offset="100%" stop-color="rgb(117,55,14)" stop-opacity="0"></stop></radialGradient><linearGradient id="__lottie_element_21" spreadMethod="pad" gradientUnits="userSpaceOnUse" x1="0.6370000243186951" y1="103" x2="48.64799880981445" y2="103"><stop offset="0%" stop-color="rgb(198,196,196)"></stop><stop offset="8%" stop-color="rgb(226,225,225)"></stop><stop offset="50%" stop-color="rgb(255,255,255)"></stop><stop offset="93%" stop-color="rgb(226,225,225)"></stop><stop offset="100%" stop-color="rgb(198,196,196)"></stop></linearGradient><linearGradient id="__lottie_element_25" spreadMethod="pad" gradientUnits="userSpaceOnUse" x1="31.761999130249023" y1="-94" x2="28.23200035095215" y2="19.55500030517578"><stop offset="14%" stop-color="rgb(255,169,0)" stop-opacity="0"></stop><stop offset="40%" stop-color="rgb(255,169,0)" stop-opacity="0.5"></stop><stop offset="66%" stop-color="rgb(255,169,0)" stop-opacity="1"></stop></linearGradient><linearGradient id="__lottie_element_26" spreadMethod="pad" gradientUnits="userSpaceOnUse" x1="15.76200008392334" y1="40" x2="6.752999782562256" y2="-144.2760009765625"><stop offset="7%" stop-color="rgb(218,110,0)" stop-opacity="0.30000001192092896"></stop><stop offset="28%" stop-color="rgb(218,110,0)" stop-opacity="0.6499999761581421"></stop><stop offset="70%" stop-color="rgb(218,110,0)" stop-opacity="1"></stop><stop offset="80%" stop-color="rgb(218,110,0)" stop-opacity="0.5"></stop><stop offset="100%" stop-color="rgb(218,110,0)" stop-opacity="0"></stop></linearGradient><linearGradient id="__lottie_element_27" spreadMethod="pad" gradientUnits="userSpaceOnUse" x1="-81.23799896240234" y1="-105" x2="-67.69300079345703" y2="-73.41899871826172"><stop offset="0%" stop-color="rgb(255,255,255)" stop-opacity="1"></stop><stop offset="50%" stop-color="rgb(255,255,255)" stop-opacity="0.5"></stop><stop offset="100%" stop-color="rgb(255,255,255)" stop-opacity="0"></stop></linearGradient><linearGradient id="__lottie_element_28" spreadMethod="pad" gradientUnits="userSpaceOnUse" x1="58.762001037597656" y1="-132" x2="48.46099853515625" y2="-64.56999969482422"><stop offset="0%" stop-color="rgb(255,255,255)" stop-opacity="1"></stop><stop offset="50%" stop-color="rgb(255,255,255)" stop-opacity="0.5"></stop><stop offset="100%" stop-color="rgb(255,255,255)" stop-opacity="0"></stop></linearGradient><linearGradient id="__lottie_element_35" spreadMethod="pad" gradientUnits="userSpaceOnUse" x1="23.761999130249023" y1="73.625" x2="24.136999130249023" y2="96.53800201416016"><stop offset="0%" stop-color="rgb(255,168,0)" stop-opacity="1"></stop><stop offset="66%" stop-color="rgb(255,168,0)" stop-opacity="0.5"></stop><stop offset="100%" stop-color="rgb(255,168,0)" stop-opacity="0"></stop></linearGradient><linearGradient id="__lottie_element_36" spreadMethod="pad" gradientUnits="userSpaceOnUse" x1="23.886999130249023" y1="84" x2="23.761999130249023" y2="66.55699920654297"><stop offset="10%" stop-color="rgb(219,110,0)" stop-opacity="1"></stop><stop offset="49%" stop-color="rgb(219,110,0)" stop-opacity="0.5"></stop><stop offset="77%" stop-color="rgb(219,110,0)" stop-opacity="0"></stop></linearGradient><radialGradient id="__lottie_element_37" spreadMethod="pad" gradientUnits="userSpaceOnUse" cx="23.761999130249023" cy="63" r="17.660001754760742" fx="23.761999130249023" fy="63"><stop offset="40%" stop-color="rgb(255,168,0)" stop-opacity="0"></stop><stop offset="70%" stop-color="rgb(255,168,0)" stop-opacity="0.5"></stop><stop offset="100%" stop-color="rgb(255,168,0)" stop-opacity="1"></stop></radialGradient><linearGradient id="__lottie_element_38" spreadMethod="pad" gradientUnits="userSpaceOnUse" x1="23.761999130249023" y1="62" x2="23.761999130249023" y2="70.49299621582031"><stop offset="0%" stop-color="rgb(255,255,255)" stop-opacity="1"></stop><stop offset="50%" stop-color="rgb(255,255,255)" stop-opacity="0.5"></stop><stop offset="100%" stop-color="rgb(255,255,255)" stop-opacity="0"></stop></linearGradient><linearGradient id="__lottie_element_42" spreadMethod="pad" gradientUnits="userSpaceOnUse" x1="79.26200103759766" y1="11.75" x2="95.40799713134766" y2="34.16299819946289"><stop offset="0%" stop-color="rgb(66,0,0)"></stop><stop offset="37%" stop-color="rgb(118,40,0)"></stop><stop offset="100%" stop-color="rgb(170,80,0)"></stop></linearGradient><radialGradient id="__lottie_element_43" spreadMethod="pad" gradientUnits="userSpaceOnUse" cx="92.76200103759766" cy="32" r="10.207000732421875" fx="92.76200103759766" fy="32"><stop offset="0%" stop-color="rgb(246,175,0)" stop-opacity="1"></stop><stop offset="50%" stop-color="rgb(246,175,0)" stop-opacity="0.5"></stop><stop offset="100%" stop-color="rgb(246,175,0)" stop-opacity="0"></stop></radialGradient><linearGradient id="__lottie_element_44" spreadMethod="pad" gradientUnits="userSpaceOnUse" x1="78.01200103759766" y1="6" x2="78.32499694824219" y2="14.312999725341797"><stop offset="0%" stop-color="rgb(255,255,255)" stop-opacity="1"></stop><stop offset="60%" stop-color="rgb(255,255,255)" stop-opacity="0.5"></stop><stop offset="100%" stop-color="rgb(255,255,255)" stop-opacity="0"></stop></linearGradient><linearGradient id="__lottie_element_45" spreadMethod="pad" gradientUnits="userSpaceOnUse" x1="-37.862998962402344" y1="11.75" x2="-20.966999053955078" y2="34.66299819946289"><stop offset="0%" stop-color="rgb(66,0,0)"></stop><stop offset="37%" stop-color="rgb(118,40,0)"></stop><stop offset="100%" stop-color="rgb(170,80,0)"></stop></linearGradient><radialGradient id="__lottie_element_46" spreadMethod="pad" gradientUnits="userSpaceOnUse" cx="-24.238000869750977" cy="32" r="10.207000732421875" fx="-24.238000869750977" fy="32"><stop offset="0%" stop-color="rgb(246,175,0)" stop-opacity="1"></stop><stop offset="50%" stop-color="rgb(246,175,0)" stop-opacity="0.5"></stop><stop offset="100%" stop-color="rgb(246,175,0)" stop-opacity="0"></stop></radialGradient><linearGradient id="__lottie_element_47" spreadMethod="pad" gradientUnits="userSpaceOnUse" x1="-39.29999923706055" y1="6.125" x2="-38.987998962402344" y2="14.312999725341797"><stop offset="0%" stop-color="rgb(255,255,255)" stop-opacity="1"></stop><stop offset="60%" stop-color="rgb(255,255,255)" stop-opacity="0.5"></stop><stop offset="100%" stop-color="rgb(255,255,255)" stop-opacity="0"></stop></linearGradient><linearGradient id="__lottie_element_51" spreadMethod="pad" gradientUnits="userSpaceOnUse" x1="23.761999130249023" y1="-91" x2="23.761999130249023" y2="9.876999855041504"><stop offset="0%" stop-color="rgb(219,110,0)" stop-opacity="1"></stop><stop offset="38%" stop-color="rgb(219,110,0)" stop-opacity="0.5"></stop><stop offset="70%" stop-color="rgb(219,110,0)" stop-opacity="0"></stop></linearGradient><linearGradient id="__lottie_element_52" spreadMethod="pad" gradientUnits="userSpaceOnUse" x1="21.761999130249023" y1="-63" x2="21.761999130249023" y2="125.70800018310547"><stop offset="0%" stop-color="rgb(255,216,0)" stop-opacity="0"></stop><stop offset="14%" stop-color="rgb(255,216,0)" stop-opacity="0.5"></stop><stop offset="45%" stop-color="rgb(255,216,0)" stop-opacity="1"></stop><stop offset="90%" stop-color="rgb(255,216,0)" stop-opacity="0.5"></stop><stop offset="100%" stop-color="rgb(255,216,0)" stop-opacity="0"></stop></linearGradient><radialGradient id="__lottie_element_56" spreadMethod="pad" gradientUnits="userSpaceOnUse" cx="11.76200008392334" cy="224" r="176.8100061416626" fx="11.76200008392334" fy="224"><stop offset="38%" stop-color="rgb(147,18,149)"></stop><stop offset="85%" stop-color="rgb(107,9,110)"></stop><stop offset="100%" stop-color="rgb(66,0,72)"></stop></radialGradient><linearGradient id="__lottie_element_57" spreadMethod="pad" gradientUnits="userSpaceOnUse" x1="110.01200103759766" y1="142.25" x2="111.96299743652344" y2="198.06300354003906"><stop offset="0%" stop-color="rgb(255,255,255)" stop-opacity="1"></stop><stop offset="50%" stop-color="rgb(255,255,255)" stop-opacity="0.5"></stop><stop offset="100%" stop-color="rgb(255,255,255)" stop-opacity="0"></stop></linearGradient><radialGradient id="__lottie_element_58" spreadMethod="pad" gradientUnits="userSpaceOnUse" cx="45.46799850463867" cy="149.21499633789062" r="72.27948057654197" fx="45.46799850463867" fy="149.21499633789062"><stop offset="0%" stop-color="rgb(66,0,72)" stop-opacity="1"></stop><stop offset="60%" stop-color="rgb(66,0,72)" stop-opacity="0.5"></stop><stop offset="100%" stop-color="rgb(66,0,72)" stop-opacity="0"></stop></radialGradient><radialGradient id="__lottie_element_59" spreadMethod="pad" gradientUnits="userSpaceOnUse" cx="26.761999130249023" cy="182.25" r="45.066340515981" fx="26.761999130249023" fy="182.25"><stop offset="20%" stop-color="rgb(255,168,0)" stop-opacity="1"></stop><stop offset="66%" stop-color="rgb(255,168,0)" stop-opacity="0.5"></stop><stop offset="100%" stop-color="rgb(255,168,0)" stop-opacity="0"></stop></radialGradient><radialGradient id="__lottie_element_63" spreadMethod="pad" gradientUnits="userSpaceOnUse" cx="-109.23799896240234" cy="129" r="83.45608316672758" fx="-109.23799896240234" fy="129"><stop offset="0%" stop-color="rgb(255,169,0)" stop-opacity="1"></stop><stop offset="50%" stop-color="rgb(255,169,0)" stop-opacity="0.5"></stop><stop offset="100%" stop-color="rgb(255,169,0)" stop-opacity="0"></stop></radialGradient><radialGradient id="__lottie_element_64" spreadMethod="pad" gradientUnits="userSpaceOnUse" cx="163.76199340820312" cy="126.75" r="81.33188698998822" fx="163.76199340820312" fy="126.75"><stop offset="0%" stop-color="rgb(255,169,0)" stop-opacity="1"></stop><stop offset="50%" stop-color="rgb(255,169,0)" stop-opacity="0.5"></stop><stop offset="100%" stop-color="rgb(255,169,0)" stop-opacity="0"></stop></radialGradient></defs><g clip-path="url(#__lottie_element_2)"><g style="display: block;" transform="matrix(1,0,0,1,255.99998474121094,256)" opacity="1"><g opacity="1" transform="matrix(1,0,0,1,0,0)"><path fill="rgb(159,84,2)" fill-opacity="1" d=" M137.64999389648438,-68.46800231933594 C101.04299926757812,-125.83000183105469 24.545000076293945,-124.3270034790039 24.545000076293945,-124.3270034790039 C24.545000076293945,-124.3270034790039 -51.95399856567383,-125.83000183105469 -88.56099700927734,-68.46800231933594 C-125.16699981689453,-11.107000350952148 -143.3470001220703,96.7760009765625 -134.99000549316406,136.3159942626953 C-127.50299835205078,171.74099731445312 -23.076000213623047,169.15199279785156 24.545000076293945,169.15199279785156 C72.16600036621094,169.15199279785156 191.58399963378906,164.01800537109375 190.30999755859375,136.3159942626953 C187.1320037841797,67.18800354003906 174.25599670410156,-11.107000350952148 137.64999389648438,-68.46800231933594z"></path></g><g opacity="1" transform="matrix(1,0,0,1,0,0)"><path fill="url(#__lottie_element_63)" fill-opacity="1" d=" M-36.465999603271484,168.89500427246094 C-50.10100173950195,167.3800048828125 -61.76100158691406,164.5500030517578 -71.28700256347656,163.4720001220703 C-126.95099639892578,157.1719970703125 -132.218994140625,146.73800659179688 -136.44000244140625,127.4020004272461 C-138.34800720214844,118.63600158691406 -139.34300231933594,107.56900024414062 -139.47000122070312,94.77899932861328 C-135.98899841308594,70.3550033569336 -123.88099670410156,10.682999610900879 -90.91100311279297,25.820999145507812 C-66.52200317382812,37.00400161743164 -67.93299865722656,58.98699951171875 -29.573999404907227,101.12799835205078 C4.1020002365112305,138.1219940185547 -8.098999977111816,168.62899780273438 -36.465999603271484,168.89500427246094z"></path></g><g opacity="1" transform="matrix(1,0,0,1,0,0)"><path fill="url(#__lottie_element_64)" fill-opacity="1" d=" M91.0739974975586,168.89500427246094 C104.70800018310547,167.3800048828125 116.36900329589844,164.5500030517578 125.8949966430664,163.4720001220703 C181.5590057373047,157.1719970703125 186.82699584960938,146.73800659179688 191.04800415039062,127.4020004272461 C192.95599365234375,118.63600158691406 191.55999755859375,107.56900024414062 191.68699645996094,94.77899932861328 C188.20599365234375,70.3550033569336 178.48899841308594,10.682999610900879 145.5189971923828,25.820999145507812 C121.12999725341797,37.00400161743164 122.54100036621094,58.98699951171875 84.18199920654297,101.12799835205078 C50.50699996948242,138.1219940185547 62.707000732421875,168.62899780273438 91.0739974975586,168.89500427246094z"></path></g><g opacity="1" transform="matrix(1,0,0,1,0,0)"><path stroke-linecap="round" stroke-linejoin="round" fill-opacity="0" stroke="rgb(163,65,0)" stroke-opacity="1" stroke-width="8" d=" M137.64999389648438,-68.46800231933594 C101.04299926757812,-125.83000183105469 -49.38100051879883,-124.10399627685547 -88.56099700927734,-68.46800231933594 C-132.7989959716797,-5.650000095367432 -143.61700439453125,96.83399963378906 -134.99000549316406,136.3159942626953 C-132.07899475097656,149.63900756835938 -115.58100128173828,155.46200561523438 -90.08300018310547,161.17100524902344 C-42.56100082397461,171.81199645996094 97.89099884033203,171.81199645996094 145.4029998779297,161.17100524902344 C168.45799255371094,156.00799560546875 189.67799377441406,149.93899536132812 190.30999755859375,136.3159942626953 C193.51699829101562,67.18900299072266 174.25599670410156,-11.107000350952148 137.64999389648438,-68.46800231933594z"></path></g></g><g style="display: block;" transform="matrix(1,0,0,1,255.99998474121094,256)" opacity="1"><g opacity="1" transform="matrix(1,0,0,1,0,0)"><path fill="url(#__lottie_element_56)" fill-opacity="1" d=" M144.45199584960938,218.91299438476562 C144.45199584960938,218.91299438476562 -91.87699890136719,218.91299438476562 -91.87699890136719,218.91299438476562 C-103.31900024414062,219.2010040283203 -115.98799896240234,216.11900329589844 -118.5270004272461,208.46499633789062 C-118.5270004272461,208.46499633789062 -102.61100006103516,189.23300170898438 -88.31199645996094,182.6909942626953 C-88.31199645996094,182.6909942626953 -18.285999298095703,154.26600646972656 -18.285999298095703,154.26600646972656 C-18.285999298095703,154.26600646972656 -6.002999782562256,169.11199951171875 25.54800033569336,168.04200744628906 C55.50199890136719,167.0260009765625 68.12899780273438,150.76400756835938 68.12899780273438,150.76400756835938 C68.12899780273438,150.76400756835938 143.28599548339844,180.82400512695312 143.28599548339844,180.82400512695312 C161.23800659179688,186.30599975585938 177.1179962158203,209.04299926757812 177.1179962158203,209.04299926757812 C170.2100067138672,218.9550018310547 155.55099487304688,218.85400390625 144.45199584960938,218.91299438476562z"></path></g><g opacity="1" transform="matrix(1,0,0,1,0,0)"><path fill="url(#__lottie_element_57)" fill-opacity="0.3" d=" M165.58900451660156,217.4510040283203 C163.50900268554688,217.4510040283203 161.56399536132812,216.15199279785156 160.83999633789062,214.07699584960938 C156.38099670410156,201.2989959716797 147.38499450683594,194.156005859375 125.2040023803711,185.78599548339844 C125.2040023803711,185.78599548339844 57.44300079345703,162.56500244140625 57.44300079345703,162.56500244140625 C54.814998626708984,161.6649932861328 53.415000915527344,158.8040008544922 54.316001892089844,156.17599487304688 C55.21699905395508,153.5489959716797 58.07500076293945,152.14700317382812 60.70500183105469,153.04800415039062 C60.70500183105469,153.04800415039062 128.53900146484375,176.29400634765625 128.53900146484375,176.29400634765625 C128.58700561523438,176.31100463867188 128.63499450683594,176.3280029296875 128.6820068359375,176.3459930419922 C153.88499450683594,185.8470001220703 164.78500366210938,194.85299682617188 170.33799743652344,210.76199340820312 C171.25399780273438,213.38499450683594 169.86900329589844,216.2530059814453 167.24600219726562,217.16900634765625 C166.697998046875,217.36099243164062 166.13900756835938,217.4510040283203 165.58900451660156,217.4510040283203z"></path></g><g opacity="1" transform="matrix(0.9997574090957642,-0.02202427387237549,0.010957516729831696,0.49739933013916016,5.785106658935547,79.90070343017578)"><path fill="url(#__lottie_element_58)" fill-opacity="1" d=" M89.39199829101562,166.5189971923828 C92.66699981689453,170.44000244140625 142.3560028076172,224.92599487304688 49.452999114990234,226.41299438476562 C-28.25,227.65699768066406 -33.005001068115234,157.71800231933594 -25.79199981689453,152.99400329589844 C-22.934999465942383,150.7100067138672 13.111000061035156,156.16700744628906 44.310001373291016,156.16700744628906 C75.50900268554688,156.16700744628906 86.88600158691406,164.0449981689453 89.39199829101562,166.5189971923828z"></path></g><g opacity="1" transform="matrix(1,0,0,1,0,0)"><path stroke-linecap="round" stroke-linejoin="round" fill-opacity="0" stroke="rgb(147,18,149)" stroke-opacity="0.4" stroke-width="8" d=" M65.73300170898438,156.18600463867188 C64.31199645996094,158.97300720214844 50.694000244140625,172.03799438476562 25.54800033569336,171.92300415039062 C2.3910000324249268,171.81700134277344 -7.821000099182129,160.76199340820312 -16.003999710083008,152.19200134277344"></path></g><g opacity="1" transform="matrix(1,0,0,1,0,0)"><path stroke-linecap="round" stroke-linejoin="round" fill-opacity="0" stroke="rgb(82,1,86)" stroke-opacity="1" stroke-width="8" d=" M173.63699340820312,207.38900756835938 C168.58999633789062,192.9290008544922 158.50999450683594,184.90199279785156 134.95599365234375,176.0229949951172 C134.95599365234375,176.0229949951172 67.12300109863281,152.7760009765625 67.12300109863281,152.7760009765625"></path></g><g opacity="1" transform="matrix(1,0,0,1,0,0)"><g opacity="1" transform="matrix(1,0,0,1,0,0)"><path fill="rgb(181,102,6)" fill-opacity="1" d=" M-4.7789998054504395,134.8699951171875 C-4.7789998054504395,134.8699951171875 -11.42300033569336,157.42999267578125 -11.42300033569336,157.42999267578125 C-10.932000160217285,162.25900268554688 44.07400131225586,174.50100708007812 61.99300003051758,158.97799682617188 C61.99300003051758,158.97799682617188 57.5260009765625,134.8159942626953 57.5260009765625,134.8159942626953 C57.5260009765625,134.8159942626953 -4.7789998054504395,134.8699951171875 -4.7789998054504395,134.8699951171875z"></path></g><g opacity="1" transform="matrix(1,0,0,1,0,0)"><path fill="url(#__lottie_element_59)" fill-opacity="1" d=" M-7.6020002365112305,137.8350067138672 C-7.6020002365112305,137.8350067138672 -10.281000137329102,156.4080047607422 -10.281000137329102,156.4080047607422 C1.628999948501587,163.96200561523438 43.30400085449219,173.9530029296875 61.99300003051758,158.97799682617188 C61.99300003051758,158.97799682617188 57.5260009765625,134.8159942626953 57.5260009765625,134.8159942626953 C57.5260009765625,134.8159942626953 -7.6020002365112305,137.8350067138672 -7.6020002365112305,137.8350067138672z"></path></g><g opacity="1" transform="matrix(1,0,0,1,0,0)"><path stroke-linecap="round" stroke-linejoin="round" fill-opacity="0" stroke="rgb(153,71,4)" stroke-opacity="1" stroke-width="8" d=" M-11.42300033569336,151.6300048828125 C-11.42300033569336,151.6300048828125 -7.6020002365112305,134.8699951171875 -7.6020002365112305,134.8699951171875 C-7.6020002365112305,134.8699951171875 56.86800003051758,134.8699951171875 56.86800003051758,134.8699951171875 C56.86800003051758,134.8699951171875 61.99300003051758,150.2740020751953 61.99300003051758,150.2740020751953"></path></g></g></g><g style="display: block;" transform="matrix(1,0,0,1,256,255.99998474121094)" opacity="1"><g opacity="1" transform="matrix(1,0,0,1,0,0)"><path fill="rgb(255,168,0)" fill-opacity="1" d=" M113.18699645996094,-80.4020004272461 C92.43599700927734,-109.22200012207031 65.11299896240234,-126.16999816894531 24.035999298095703,-126.16999816894531 C-17.040000915527344,-126.16999816894531 -44.36399841308594,-109.22200012207031 -65.11399841308594,-80.4020004272461 C-85.86499786376953,-51.582000732421875 -103.15699768066406,15.625 -76.06600189208984,72.11299896240234 C-48.974998474121094,128.6009979248047 -3.2070000171661377,146.46800231933594 24.035999298095703,146.46800231933594 C51.27899932861328,146.46800231933594 97.0479965209961,128.6009979248047 124.13899993896484,72.11299896240234 C151.22999572753906,15.625 133.93699645996094,-51.582000732421875 113.18699645996094,-80.4020004272461z"></path></g><g opacity="1" transform="matrix(1,0,0,1,0,0)"><path fill="url(#__lottie_element_51)" fill-opacity="1" d=" M113.33699798583984,-80.4020004272461 C92.58599853515625,-109.22200012207031 65.26399993896484,-126.16999816894531 24.187000274658203,-126.16999816894531 C-16.888999938964844,-126.16999816894531 -44.2130012512207,-109.22200012207031 -64.96299743652344,-80.4020004272461 C-85.71399688720703,-51.582000732421875 -103.00599670410156,15.625 -75.91500091552734,72.11299896240234 C-48.82400131225586,128.6009979248047 -3.055999994277954,146.46800231933594 24.187000274658203,146.46800231933594 C51.43000030517578,146.46800231933594 97.197998046875,128.6009979248047 124.28900146484375,72.11299896240234 C151.3800048828125,15.625 134.08700561523438,-51.582000732421875 113.33699798583984,-80.4020004272461z"></path></g><g opacity="1" transform="matrix(1,0,0,1,0,0)"><path stroke-linecap="round" stroke-linejoin="round" fill-opacity="0" stroke="rgb(219,110,0)" stroke-opacity="1" stroke-width="8" d=" M113.18699645996094,-80.4020004272461 C92.43599700927734,-109.22200012207031 65.11299896240234,-126.16999816894531 24.035999298095703,-126.16999816894531 C-17.040000915527344,-126.16999816894531 -44.36399841308594,-109.22200012207031 -65.11399841308594,-80.4020004272461 C-85.86499786376953,-51.582000732421875 -103.15699768066406,15.625 -76.06600189208984,72.11299896240234 C-48.974998474121094,128.6009979248047 -3.2070000171661377,146.46800231933594 24.035999298095703,146.46800231933594 C51.27899932861328,146.46800231933594 97.0479965209961,128.6009979248047 124.13899993896484,72.11299896240234 C151.22999572753906,15.625 133.93699645996094,-51.582000732421875 113.18699645996094,-80.4020004272461z"></path></g><g opacity="1" transform="matrix(1,0,0,1,0,0)"><path fill="url(#__lottie_element_52)" fill-opacity="1" d=" M104.23600006103516,0.6880000233650208 C104.23600006103516,0.6880000233650208 64.30000305175781,-12.215999603271484 39.8129997253418,-24.131000518798828 C9.538999557495117,-38.86199951171875 -14.163999557495117,-56.3380012512207 -27.305999755859375,-66.95999908447266 C-27.305999755859375,-66.95999908447266 -37.70000076293945,-36.0260009765625 -54.41899871826172,-18.239999771118164 C-80.79900360107422,9.822999954223633 -78.52300262451172,43.02000045776367 -56.470001220703125,79.63200378417969 C-34.41699981689453,116.24400329589844 1.8589999675750732,128.80599975585938 24.035999298095703,128.80599975585938 C46.2130012512207,128.80599975585938 82.48899841308594,116.24400329589844 104.54199981689453,79.63200378417969 C126.59500122070312,43.02000045776367 121.12699890136719,19.368000030517578 104.23600006103516,0.6880000233650208z"></path></g></g><g style="display: block;" transform="matrix(1,0,0,1,255.99998474121094,255.99998474121094)" opacity="1"><g opacity="1" transform="matrix(1,0,0,1,0,0)"><path fill="rgb(255,255,255)" fill-opacity="1" d=" M49.856998443603516,30.17099952697754 C49.856998443603516,30.17099952697754 52.81800079345703,-0.671999990940094 82.20899963378906,-3.249000072479248 C109.20099639892578,-5.614999771118164 118.05799865722656,21.707000732421875 118.05799865722656,21.707000732421875 C118.05799865722656,21.707000732421875 110.79399871826172,38.24700164794922 87.16400146484375,40.50899887084961 C60.82099914550781,43.03099822998047 49.856998443603516,30.17099952697754 49.856998443603516,30.17099952697754z"></path></g><g opacity="1" transform="matrix(1,0,0,1,0,0)"><g opacity="1" transform="matrix(1,0,0,1,0,0)"><path fill="url(#__lottie_element_42)" fill-opacity="1" d=" M102.9000015258789,20.761999130249023 C102.9000015258789,31.849000930786133 94.41999816894531,40.83599853515625 83.95800018310547,40.83599853515625 C73.49600219726562,40.83599853515625 65.01499938964844,31.849000930786133 65.01499938964844,20.761999130249023 C65.01499938964844,9.675000190734863 73.49600219726562,0.6880000233650208 83.95800018310547,0.6880000233650208 C94.41999816894531,0.6880000233650208 102.9000015258789,9.675000190734863 102.9000015258789,20.761999130249023z"></path></g><g opacity="1" transform="matrix(1,0,0,1,0,0)"><g opacity="1" transform="matrix(1,0,0,1,0,0)"><path fill="url(#__lottie_element_43)" fill-opacity="1" d=" M88.37799835205078,39.972999572753906 C86.88200378417969,39.972999572753906 85.49800109863281,39.00699996948242 85.03399658203125,37.50299835205078 C84.46399688720703,35.65599822998047 85.4990005493164,33.69599914550781 87.34700012207031,33.125999450683594 C90.88099670410156,32.0359992980957 93.69499969482422,29.291000366210938 94.87300109863281,25.781999588012695 C95.48799896240234,23.947999954223633 97.47599792480469,22.96299934387207 99.30500030517578,23.57699966430664 C101.13800048828125,24.191999435424805 102.125,26.177000045776367 101.51000213623047,28.010000228881836 C99.61699676513672,33.6510009765625 95.09400177001953,38.06399917602539 89.41000366210938,39.81700134277344 C89.06600189208984,39.92300033569336 88.71900177001953,39.972999572753906 88.37799835205078,39.972999572753906z"></path></g></g><g opacity="1" transform="matrix(1,0,0,1,0,0)"><path fill="rgb(23,19,10)" fill-opacity="1" d=" M95.92900085449219,20.761999130249023 C95.92900085449219,27.768999099731445 90.56999969482422,33.44900131225586 83.95800018310547,33.44900131225586 C77.34600067138672,33.44900131225586 71.98600006103516,27.768999099731445 71.98600006103516,20.761999130249023 C71.98600006103516,13.755000114440918 77.34600067138672,8.074999809265137 83.95800018310547,8.074999809265137 C90.56999969482422,8.074999809265137 95.92900085449219,13.755000114440918 95.92900085449219,20.761999130249023z"></path></g><g opacity="1" transform="matrix(1,0,0,1,0,0)"><path fill="url(#__lottie_element_44)" fill-opacity="1" d=" M82.89700317382812,9.822999954223633 C82.89700317382812,12.484000205993652 80.86199951171875,14.640999794006348 78.35099792480469,14.640999794006348 C75.83999633789062,14.640999794006348 73.80400085449219,12.484000205993652 73.80400085449219,9.822999954223633 C73.80400085449219,7.1620001792907715 75.83999633789062,5.005000114440918 78.35099792480469,5.005000114440918 C80.86199951171875,5.005000114440918 82.89700317382812,7.1620001792907715 82.89700317382812,9.822999954223633z"></path></g></g><g opacity="1" transform="matrix(1,0,0,1,0,0)"><path fill="rgb(255,255,255)" fill-opacity="1" d=" M-0.578000009059906,30.17099952697754 C-0.578000009059906,30.17099952697754 -3.5380001068115234,-0.671999990940094 -32.93000030517578,-3.249000072479248 C-59.922000885009766,-5.614999771118164 -68.77899932861328,21.707000732421875 -68.77899932861328,21.707000732421875 C-68.77899932861328,21.707000732421875 -61.513999938964844,38.24700164794922 -37.88399887084961,40.50899887084961 C-11.541000366210938,43.03099822998047 -0.578000009059906,30.17099952697754 -0.578000009059906,30.17099952697754z"></path></g><g opacity="1" transform="matrix(1,0,0,1,0,0)"><g opacity="1" transform="matrix(1,0,0,1,0,0)"><path fill="url(#__lottie_element_45)" fill-opacity="1" d=" M-14.515999794006348,20.761999130249023 C-14.515999794006348,31.849000930786133 -22.996000289916992,40.83599853515625 -33.45800018310547,40.83599853515625 C-43.91999816894531,40.83599853515625 -52.4010009765625,31.849000930786133 -52.4010009765625,20.761999130249023 C-52.4010009765625,9.675000190734863 -43.91999816894531,0.6880000233650208 -33.45800018310547,0.6880000233650208 C-22.996000289916992,0.6880000233650208 -14.515999794006348,9.675000190734863 -14.515999794006348,20.761999130249023z"></path></g><g opacity="1" transform="matrix(1,0,0,1,0,0)"><g opacity="1" transform="matrix(1,0,0,1,0,0)"><path fill="url(#__lottie_element_46)" fill-opacity="1" d=" M-29.070999145507812,39.972999572753906 C-30.566999435424805,39.972999572753906 -31.95199966430664,39.00699996948242 -32.41600036621094,37.50299835205078 C-32.986000061035156,35.65599822998047 -31.950000762939453,33.69599914550781 -30.101999282836914,33.125999450683594 C-26.56800079345703,32.0359992980957 -23.7549991607666,29.291000366210938 -22.57699966430664,25.781999588012695 C-21.961999893188477,23.947999954223633 -19.972999572753906,22.96299934387207 -18.143999099731445,23.57699966430664 C-16.31100082397461,24.191999435424805 -15.324000358581543,26.177000045776367 -15.939000129699707,28.010000228881836 C-17.832000732421875,33.6510009765625 -22.354999542236328,38.06399917602539 -28.038999557495117,39.81700134277344 C-28.382999420166016,39.92300033569336 -28.729999542236328,39.972999572753906 -29.070999145507812,39.972999572753906z"></path></g></g><g opacity="1" transform="matrix(1,0,0,1,0,0)"><path fill="rgb(23,19,10)" fill-opacity="1" d=" M-21.48699951171875,20.761999130249023 C-21.48699951171875,27.768999099731445 -26.84600067138672,33.44900131225586 -33.45800018310547,33.44900131225586 C-40.06999969482422,33.44900131225586 -45.43000030517578,27.768999099731445 -45.43000030517578,20.761999130249023 C-45.43000030517578,13.755000114440918 -40.06999969482422,8.074999809265137 -33.45800018310547,8.074999809265137 C-26.84600067138672,8.074999809265137 -21.48699951171875,13.755000114440918 -21.48699951171875,20.761999130249023z"></path></g><g opacity="1" transform="matrix(1,0,0,1,0,0)"><path fill="url(#__lottie_element_47)" fill-opacity="1" d=" M-34.51900100708008,9.822999954223633 C-34.51900100708008,12.484000205993652 -36.55500030517578,14.640999794006348 -39.066001892089844,14.640999794006348 C-41.57699966430664,14.640999794006348 -43.61199951171875,12.484000205993652 -43.61199951171875,9.822999954223633 C-43.61199951171875,7.1620001792907715 -41.57699966430664,5.005000114440918 -39.066001892089844,5.005000114440918 C-36.55500030517578,5.005000114440918 -34.51900100708008,7.1620001792907715 -34.51900100708008,9.822999954223633z"></path></g></g><g opacity="1" transform="matrix(1,0,0,1,0,0)"><path fill="rgb(255,216,0)" fill-opacity="1" d=" M-0.578000009059906,30.17099952697754 C-0.578000009059906,30.17099952697754 -6.998000144958496,54.750999450683594 -36.38999938964844,52.17399978637695 C-63.38199996948242,49.80799865722656 -68.77899932861328,21.707000732421875 -68.77899932861328,21.707000732421875 C-68.77899932861328,21.707000732421875 -61.513999938964844,37.24700164794922 -37.88399887084961,39.50899887084961 C-11.541000366210938,42.03099822998047 -0.578000009059906,30.17099952697754 -0.578000009059906,30.17099952697754z"></path></g><g opacity="1" transform="matrix(1,0,0,1,0,0)"><path fill="rgb(255,216,0)" fill-opacity="1" d=" M49.856998443603516,30.17099952697754 C49.856998443603516,30.17099952697754 59.50699996948242,54.560001373291016 88.89800262451172,51.983001708984375 C115.88999938964844,49.617000579833984 118.05799865722656,21.707000732421875 118.05799865722656,21.707000732421875 C118.05799865722656,21.707000732421875 110.79399871826172,37.24700164794922 87.16400146484375,39.50899887084961 C60.82099914550781,42.03099822998047 49.856998443603516,30.17099952697754 49.856998443603516,30.17099952697754z"></path></g><g opacity="1" transform="matrix(1,0,0,1,0,0)"><path fill="rgb(163,65,0)" fill-opacity="1" d=" M50.22100067138672,30.05900001525879 C50.22100067138672,30.05900001525879 51.88199996948242,-0.9909999966621399 81.58300018310547,-3.986999988555908 C102.04399871826172,-6.051000118255615 117.08399963378906,9.067000389099121 118.4219970703125,25.363000869750977 C118.4219970703125,25.363000869750977 114.35399627685547,-3.131999969482422 83.10199737548828,-1.1619999408721924 C53.76300048828125,0.6880000233650208 50.22100067138672,30.05900001525879 50.22100067138672,30.05900001525879z"></path><path stroke-linecap="round" stroke-linejoin="round" fill-opacity="0" stroke="rgb(163,65,0)" stroke-opacity="1" stroke-width="2" d=" M50.22100067138672,30.05900001525879 C50.22100067138672,30.05900001525879 51.88199996948242,-0.9909999966621399 81.58300018310547,-3.986999988555908 C102.04399871826172,-6.051000118255615 117.08399963378906,9.067000389099121 118.4219970703125,25.363000869750977 C118.4219970703125,25.363000869750977 114.35399627685547,-3.131999969482422 83.10199737548828,-1.1619999408721924 C53.76300048828125,0.6880000233650208 50.22100067138672,30.05900001525879 50.22100067138672,30.05900001525879z"></path></g><g opacity="1" transform="matrix(1,0,0,1,0,0)"><path fill="rgb(163,65,0)" fill-opacity="1" d=" M-0.578000009059906,30.05900001525879 C-0.578000009059906,30.05900001525879 -2.239000082015991,-0.9909999966621399 -31.940000534057617,-3.986999988555908 C-52.4010009765625,-6.051000118255615 -67.44100189208984,9.067000389099121 -68.77899932861328,25.363000869750977 C-68.77899932861328,25.363000869750977 -64.70999908447266,-3.131999969482422 -33.45800018310547,-1.1619999408721924 C-4.11899995803833,0.6880000233650208 -0.578000009059906,30.05900001525879 -0.578000009059906,30.05900001525879z"></path><path stroke-linecap="round" stroke-linejoin="round" fill-opacity="0" stroke="rgb(163,65,0)" stroke-opacity="1" stroke-width="2" d=" M-0.578000009059906,30.05900001525879 C-0.578000009059906,30.05900001525879 -2.239000082015991,-0.9909999966621399 -31.940000534057617,-3.986999988555908 C-52.4010009765625,-6.051000118255615 -67.44100189208984,9.067000389099121 -68.77899932861328,25.363000869750977 C-68.77899932861328,25.363000869750977 -64.70999908447266,-3.131999969482422 -33.45800018310547,-1.1619999408721924 C-4.11899995803833,0.6880000233650208 -0.578000009059906,30.05900001525879 -0.578000009059906,30.05900001525879z"></path></g></g><g style="display: block;" transform="matrix(1,0,0,1,256,256)" opacity="1"><g opacity="1" transform="matrix(1,0,0,1,0,0)"><path fill="url(#__lottie_element_35)" fill-opacity="1" d=" M40.79399871826172,77.40399932861328 C40.79399871826172,84.79499816894531 32.770999908447266,91.36499786376953 24.035999298095703,91.36499786376953 C15.300999641418457,91.36499786376953 7.2779998779296875,84.79499816894531 7.2779998779296875,77.40399932861328 C7.2779998779296875,70.01300048828125 15.300999641418457,63.23699951171875 24.035999298095703,63.23699951171875 C32.770999908447266,63.23699951171875 40.79399871826172,70.01300048828125 40.79399871826172,77.40399932861328z"></path></g><g opacity="1" transform="matrix(1,0,0,1,0,0)"><path fill="rgb(255,168,0)" fill-opacity="0.8" d=" M40.79399871826172,72.33300018310547 C40.79399871826172,79.0780029296875 33.29100036621094,84.54499816894531 24.035999298095703,84.54499816894531 C14.781000137329102,84.54499816894531 7.2789998054504395,79.0780029296875 7.2789998054504395,72.33300018310547 C7.2789998054504395,65.58799743652344 14.781000137329102,60.40800094604492 24.035999298095703,60.40800094604492 C33.29100036621094,60.40800094604492 40.79399871826172,65.58799743652344 40.79399871826172,72.33300018310547z"></path></g><g opacity="1" transform="matrix(1,0,0,1,0,0)"><path fill="url(#__lottie_element_36)" fill-opacity="0.7000000000000001" d=" M40.79399871826172,72.33300018310547 C40.79399871826172,79.0780029296875 33.29100036621094,84.54499816894531 24.035999298095703,84.54499816894531 C14.781000137329102,84.54499816894531 7.2789998054504395,79.0780029296875 7.2789998054504395,72.33300018310547 C7.2789998054504395,65.58799743652344 14.781000137329102,60.40800094604492 24.035999298095703,60.40800094604492 C33.29100036621094,60.40800094604492 40.79399871826172,65.58799743652344 40.79399871826172,72.33300018310547z"></path></g><g opacity="1" transform="matrix(1,0,0,1,0,0)"><path fill="rgb(255,216,0)" fill-opacity="1" d=" M38.53300094604492,68.47799682617188 C38.53300094604492,73.4990005493164 32.04199981689453,77.56999969482422 24.035999298095703,77.56999969482422 C16.030000686645508,77.56999969482422 9.539999961853027,73.4990005493164 9.539999961853027,68.47799682617188 C9.539999961853027,63.457000732421875 16.030000686645508,60.21099853515625 24.035999298095703,60.21099853515625 C32.04199981689453,60.21099853515625 38.53300094604492,63.457000732421875 38.53300094604492,68.47799682617188z"></path></g><g opacity="1" transform="matrix(1,0,0,1,0,0)"><path fill="url(#__lottie_element_37)" fill-opacity="1" d=" M38.53300094604492,68.47799682617188 C38.53300094604492,73.4990005493164 32.04199981689453,77.56999969482422 24.035999298095703,77.56999969482422 C16.030000686645508,77.56999969482422 9.539999961853027,73.4990005493164 9.539999961853027,68.47799682617188 C9.539999961853027,63.457000732421875 16.030000686645508,60.21099853515625 24.035999298095703,60.21099853515625 C32.04199981689453,60.21099853515625 38.53300094604492,63.457000732421875 38.53300094604492,68.47799682617188z"></path></g><g opacity="1" transform="matrix(1,0,0,1,0,0)"><path fill="url(#__lottie_element_38)" fill-opacity="0.7000000000000001" d=" M31.5049991607666,64.83200073242188 C31.5049991607666,67.5199966430664 28.160999298095703,70.04900360107422 24.035999298095703,70.04900360107422 C19.910999298095703,70.04900360107422 16.566999435424805,67.5199966430664 16.566999435424805,64.83200073242188 C16.566999435424805,62.14400100708008 19.910999298095703,60.79499816894531 24.035999298095703,60.79499816894531 C28.160999298095703,60.79499816894531 31.5049991607666,62.14400100708008 31.5049991607666,64.83200073242188z"></path></g></g><g style="display: block;" transform="matrix(1,0,0,1,256,256)" opacity="1"><g opacity="1" transform="matrix(1,0,0,1,0,0)"><path fill="rgb(163,65,0)" fill-opacity="1" d=" M-60.2130012512207,-18.388999938964844 C-60.2130012512207,-18.388999938964844 -48.426998138427734,-26.472999572753906 -34.43899917602539,-26.035999298095703 C-21.035999298095703,-25.618000030517578 -15.496999740600586,-20.549999237060547 -15.496999740600586,-20.549999237060547 C-15.496999740600586,-20.549999237060547 -19.961000442504883,-30.281999588012695 -34.43899917602539,-29.860000610351562 C-50.388999938964844,-29.395000457763672 -60.2130012512207,-18.388999938964844 -60.2130012512207,-18.388999938964844z"></path><path stroke-linecap="round" stroke-linejoin="round" fill-opacity="0" stroke="rgb(163,65,0)" stroke-opacity="1" stroke-width="2" d=" M-60.2130012512207,-18.388999938964844 C-60.2130012512207,-18.388999938964844 -48.426998138427734,-26.472999572753906 -34.43899917602539,-26.035999298095703 C-21.035999298095703,-25.618000030517578 -15.496999740600586,-20.549999237060547 -15.496999740600586,-20.549999237060547 C-15.496999740600586,-20.549999237060547 -19.961000442504883,-30.281999588012695 -34.43899917602539,-29.860000610351562 C-50.388999938964844,-29.395000457763672 -60.2130012512207,-18.388999938964844 -60.2130012512207,-18.388999938964844z"></path></g><g opacity="1" transform="matrix(1,0,0,1,0,0)"><path fill="rgb(163,65,0)" fill-opacity="1" d=" M108.1969985961914,-18.388999938964844 C108.1969985961914,-18.388999938964844 96.41100311279297,-26.472999572753906 82.4229965209961,-26.035999298095703 C69.01899719238281,-25.618000030517578 63.48099899291992,-20.549999237060547 63.48099899291992,-20.549999237060547 C63.48099899291992,-20.549999237060547 67.94499969482422,-30.281999588012695 82.4229965209961,-29.860000610351562 C98.37200164794922,-29.395000457763672 108.1969985961914,-18.388999938964844 108.1969985961914,-18.388999938964844z"></path><path stroke-linecap="round" stroke-linejoin="round" fill-opacity="0" stroke="rgb(163,65,0)" stroke-opacity="1" stroke-width="2" d=" M108.1969985961914,-18.388999938964844 C108.1969985961914,-18.388999938964844 96.41100311279297,-26.472999572753906 82.4229965209961,-26.035999298095703 C69.01899719238281,-25.618000030517578 63.48099899291992,-20.549999237060547 63.48099899291992,-20.549999237060547 C63.48099899291992,-20.549999237060547 67.94499969482422,-30.281999588012695 82.4229965209961,-29.860000610351562 C98.37200164794922,-29.395000457763672 108.1969985961914,-18.388999938964844 108.1969985961914,-18.388999938964844z"></path></g></g><g style="display: block;" transform="matrix(1,0,0,1,256,256)" opacity="1"><g opacity="1" transform="matrix(1,0,0,1,0,0)"><path fill="rgb(255,205,0)" fill-opacity="1" d=" M-35.90399932861328,-98.69100189208984 C-42.275001525878906,-47.02000045776367 -68.37999725341797,-13.022000312805176 -111.58499908447266,5.6620001792907715 C-111.58499908447266,5.6620001792907715 -144.427001953125,46.57600021362305 -134.99000549316406,131.5469970703125 C-134.99000549316406,131.5469970703125 -147.0469970703125,63.391998291015625 -119.5999984741211,-36.722999572753906 C-94.15399932861328,-129.5399932861328 -52.28300094604492,-143.88699340820312 -42.56100082397461,-140.08200073242188 C-42.56100082397461,-140.08200073242188 -28.875,-166.08099365234375 38.92499923706055,-157.2030029296875 C106.7249984741211,-148.3249969482422 149.61900329589844,-98.23100280761719 168.8249969482422,-39.893001556396484 C188.031005859375,18.44499969482422 193.51100158691406,87.79299926757812 190.30999755859375,131.5469970703125 C190.30999755859375,131.5469970703125 198.73800659179688,24.599000930786133 126.62200164794922,-10.081999778747559 C126.62200164794922,-10.081999778747559 24.545000076293945,-31.624000549316406 -35.90399932861328,-98.69100189208984z"></path></g><g opacity="1" transform="matrix(1,0,0,1,0,0)"><path fill="url(#__lottie_element_25)" fill-opacity="1" d=" M-35.90399932861328,-98.69100189208984 C-42.275001525878906,-47.02000045776367 -68.37999725341797,-13.022000312805176 -111.58499908447266,5.6620001792907715 C-111.58499908447266,5.6620001792907715 -144.427001953125,46.57600021362305 -134.99000549316406,131.5469970703125 C-134.99000549316406,131.5469970703125 -147.0469970703125,63.391998291015625 -119.5999984741211,-36.722999572753906 C-94.15399932861328,-129.5399932861328 -52.28300094604492,-143.88699340820312 -42.56100082397461,-140.08200073242188 C-42.56100082397461,-140.08200073242188 -28.875,-166.08099365234375 38.92499923706055,-157.2030029296875 C106.7249984741211,-148.3249969482422 149.61900329589844,-98.23100280761719 168.8249969482422,-39.893001556396484 C188.031005859375,18.44499969482422 193.51100158691406,87.79299926757812 190.30999755859375,131.5469970703125 C190.30999755859375,131.5469970703125 198.73800659179688,24.599000930786133 126.62200164794922,-10.081999778747559 C126.62200164794922,-10.081999778747559 24.545000076293945,-31.624000549316406 -35.90399932861328,-98.69100189208984z"></path></g><g opacity="1" transform="matrix(1,0,0,1,0,0)"><path fill="url(#__lottie_element_26)" fill-opacity="1" d=" M165.36199951171875,-5.605999946594238 C165.36199951171875,-5.605999946594238 147.3159942626953,-9.663000106811523 126.6240005493164,-10.07699966430664 C126.6240005493164,-10.07699966430664 24.54599952697754,-31.621999740600586 -35.904998779296875,-98.69499969482422 C-35.904998779296875,-98.69499969482422 -38.220001220703125,-52.98400115966797 -67.53099822998047,-25.985000610351562 C-95.22699737548828,-0.46000000834465027 -111.58100128173828,5.6579999923706055 -111.58100128173828,5.6579999923706055 C-111.58100128173828,5.6579999923706055 -132.33099365234375,35.757999420166016 -134.4040069580078,62.29600143432617 C-134.4040069580078,62.29600143432617 -136.2570037841797,5.738999843597412 -117.1449966430664,-2.561000108718872 C-117.1449966430664,-2.561000108718872 -85.53299713134766,-19.80500030517578 -68.50399780273438,-41.93199920654297 C-46.68299865722656,-70.28600311279297 -48.3120002746582,-107.76799774169922 -51.2760009765625,-117.97599792480469 C-55.59199905395508,-132.83700561523438 -88.56099700927734,-116.33000183105469 -108.61399841308594,-69.91400146484375 C-83.5250015258789,-133.05599975585938 -50.98400115966797,-143.375 -42.558998107910156,-140.0800018310547 C-42.558998107910156,-140.0800018310547 -28.871000289916992,-166.07699584960938 38.92499923706055,-157.2030029296875 C73.22699737548828,-152.71299743652344 101.16600036621094,-137.66200256347656 122.87899780273438,-116.3290023803711 C122.87899780273438,-116.3290023803711 79.44599914550781,-156.78399658203125 8.961000442504883,-149.02200317382812 C-38.5369987487793,-143.79100036621094 -31.83799934387207,-120.71600341796875 -26.555999755859375,-111.91500091552734 C-19.065000534057617,-99.43299865722656 19.308000564575195,-60.18899917602539 73.91699981689453,-39.6870002746582 C120.64199829101562,-22.145000457763672 147.38400268554688,-17.53499984741211 165.36199951171875,-5.605999946594238z"></path></g><g opacity="1" transform="matrix(1,0,0,1,0,0)"><path stroke-linecap="round" stroke-linejoin="round" fill-opacity="0" stroke="rgb(197,92,0)" stroke-opacity="1" stroke-width="8" d=" M-35.90399932861328,-98.69100189208984 C-32.16600036621094,-53.03799819946289 -66.33399963378906,-13.515000343322754 -111.58499908447266,5.6620001792907715 C-111.58499908447266,5.6620001792907715 -145.50399780273438,45.03900146484375 -136.06700134277344,130.00999450683594 C-136.06700134277344,130.00999450683594 -147.0469970703125,63.391998291015625 -119.5999984741211,-36.722999572753906 C-94.15399932861328,-129.5399932861328 -52.28300094604492,-143.88699340820312 -42.56100082397461,-140.08200073242188 C-42.56100082397461,-140.08200073242188 -28.875,-166.08099365234375 38.92499923706055,-157.2030029296875 C106.7249984741211,-148.3249969482422 149.61900329589844,-98.23100280761719 168.8249969482422,-39.893001556396484 C188.031005859375,18.44499969482422 193.5989990234375,86.375 190.3979949951172,130.12899780273438 C190.3979949951172,130.12899780273438 198.53399658203125,23.60099983215332 126.62200164794922,-10.081999778747559 C126.62200164794922,-10.081999778747559 24.545000076293945,-31.624000549316406 -35.90399932861328,-98.69100189208984z"></path></g><g opacity="1" transform="matrix(1,0,0,1,0,0)"><path fill="url(#__lottie_element_27)" fill-opacity="0.9" d=" M-49.70800018310547,-106.19599914550781 C-49.185001373291016,-126.46800231933594 -46.99599838256836,-130.99600219726562 -51.6510009765625,-129.8419952392578 C-66.45600128173828,-126.16999816894531 -90.5739974975586,-104.375 -103.2249984741211,-64.01599884033203 C-102.5989990234375,-49.236000061035156 -84.27899932861328,-59.4010009765625 -75.5469970703125,-59.834999084472656 C-53.18899917602539,-60.94599914550781 -50.17100143432617,-88.23899841308594 -49.70800018310547,-106.19599914550781z"></path></g><g opacity="1" transform="matrix(1,0,0,1,0,0)"><path fill="url(#__lottie_element_28)" fill-opacity="0.9" d=" M39.722999572753906,-61.18299865722656 C4.3979997634887695,-73.32499694824219 -21.31800079345703,-104.31400299072266 -27.062999725341797,-113.81199645996094 C-33.83399963378906,-125.00700378417969 -35.84000015258789,-135.1840057373047 -33.992000579833984,-137.2830047607422 C-26.03700065612793,-146.32200622558594 3.8510000705718994,-154.76699829101562 45.696998596191406,-146.49000549316406 C84.45099639892578,-138.82400512695312 123.76799774169922,-109.60199737548828 142.84800720214844,-73.6969985961914 C153.49000549316406,-53.67100143432617 97.72599792480469,-41.24700164794922 39.722999572753906,-61.18299865722656z"></path></g><g opacity="1" transform="matrix(1,0,0,1,0,0)"><path stroke-linecap="round" stroke-linejoin="round" fill-opacity="0" stroke="rgb(163,65,0)" stroke-opacity="1" stroke-width="8" d=" M190.3979949951172,130.12899780273438 C190.3979949951172,130.12899780273438 198.53399658203125,23.60099983215332 126.62200164794922,-10.081999778747559 C126.62200164794922,-10.081999778747559 24.545000076293945,-31.624000549316406 -35.90399932861328,-98.69100189208984 C-32.16600036621094,-53.03799819946289 -66.33399963378906,-13.515000343322754 -111.58499908447266,5.6620001792907715 C-111.58499908447266,5.6620001792907715 -145.50399780273438,45.03900146484375 -136.06700134277344,130.00999450683594"></path></g></g><g style="display: block;" transform="matrix(1,0,0,1,255.99998474121094,256)" opacity="1"><g opacity="1" transform="matrix(1,0,0,1,0,0)"><path fill="rgb(75,37,2)" fill-opacity="1" d=" M-17.506999969482422,95.96600341796875 C-17.983999252319336,94.6780014038086 -17.302000045776367,93.22799682617188 -15.932999610900879,93.33899688720703 C6.388999938964844,95.1449966430664 13.12399959564209,91.30699920654297 20.510000228881836,93.75599670410156 C25.232999801635742,95.3219985961914 25.202999114990234,95.22100067138672 29.56100082397461,93.36000061035156 C35.361000061035156,90.88300323486328 44.016998291015625,95.1449966430664 65.99600219726562,93.36499786376953 C67.4260025024414,93.2490005493164 68.05899810791016,94.77300262451172 67.51000213623047,96.0979995727539 C63.82400131225586,105 48.0260009765625,121.08499908447266 25.7549991607666,121.08499908447266 C1.1440000534057617,121.08499908447266 -14.583999633789062,103.86499786376953 -17.506999969482422,95.96600341796875z"></path></g><g opacity="1" transform="matrix(1,0,0,1,0,0)"><path fill="url(#__lottie_element_20)" fill-opacity="1" d=" M-17.506999969482422,95.96600341796875 C-17.983999252319336,94.6780014038086 -17.302000045776367,93.22799682617188 -15.932999610900879,93.33899688720703 C6.388999938964844,95.1449966430664 13.12399959564209,91.30699920654297 20.510000228881836,93.75599670410156 C25.232999801635742,95.3219985961914 25.202999114990234,95.22100067138672 29.56100082397461,93.36000061035156 C35.361000061035156,90.88300323486328 44.016998291015625,95.1449966430664 65.99600219726562,93.36499786376953 C67.4260025024414,93.2490005493164 68.05899810791016,94.77300262451172 67.51000213623047,96.0979995727539 C63.82400131225586,105 48.0260009765625,121.08499908447266 25.7549991607666,121.08499908447266 C1.1440000534057617,121.08499908447266 -14.583999633789062,103.86499786376953 -17.506999969482422,95.96600341796875z"></path></g><g opacity="1" transform="matrix(1,0,0,1,0,0)"><path fill="rgb(23,19,11)" fill-opacity="1" d=" M-10.133999824523926,99.5250015258789 C-10.133999824523926,99.5250015258789 60.20500183105469,99.5250015258789 60.20500183105469,99.5250015258789 C60.20500183105469,99.5250015258789 48.17100143432617,113.02400207519531 25.187999725341797,113.02400207519531 C3.9679999351501465,113.02400207519531 -5.915999889373779,103.36100006103516 -10.133999824523926,99.5250015258789z"></path><path stroke-linecap="round" stroke-linejoin="round" fill-opacity="0" stroke="rgb(23,19,11)" stroke-opacity="1" stroke-width="1" d=" M-10.133999824523926,99.5250015258789 C-10.133999824523926,99.5250015258789 60.20500183105469,99.5250015258789 60.20500183105469,99.5250015258789 C60.20500183105469,99.5250015258789 48.17100143432617,113.02400207519531 25.187999725341797,113.02400207519531 C3.9679999351501465,113.02400207519531 -5.915999889373779,103.36100006103516 -10.133999824523926,99.5250015258789z"></path></g><g opacity="1" transform="matrix(1,0,0,1,0,0)"><path fill="url(#__lottie_element_21)" fill-opacity="1" d=" M-7.507999897003174,99.06800079345703 C-7.507999897003174,99.06800079345703 57.58000183105469,99.06800079345703 57.58000183105469,99.06800079345703 C53.25699996948242,102.04299926757812 40.595001220703125,105 25.16900062561035,105 C11.357000350952148,105 -2.7269999980926514,102.38300323486328 -7.507999897003174,99.06800079345703z"></path></g></g><g style="display: block;" transform="matrix(1,0,0,1,256,255.99998474121094)" opacity="1"><g opacity="1" transform="matrix(1,0,0,1,0,0)"><path fill="rgb(147,18,149)" fill-opacity="1" d=" M-22.253999710083008,155.18600463867188 C-73.28299713134766,139.78199768066406 -101.7300033569336,72.96700286865234 -102.16400146484375,60.895999908447266 C-102.61900329589844,48.24300003051758 -92.05699920654297,-45.430999755859375 -92.3030014038086,-53.06999969482422 C-92.54900360107422,-60.70899963378906 -96.65399932861328,-70.20099639892578 -103.30899810791016,-71.9020004272461 C-108.0719985961914,-73.11900329589844 -140.62899780273438,-78.57099914550781 -151.2689971923828,-78.16100311279297 C-161.90899658203125,-77.7509994506836 -169.78700256347656,-72.60199737548828 -172,-63.29399871826172 C-173.6230010986328,-56.470001220703125 -195.22900390625,71.48899841308594 -182.88699340820312,111.99700164794922 C-167.4759979248047,162.58099365234375 -109.8499984741211,216.14100646972656 -109.8499984741211,216.14100646972656 C-109.8499984741211,216.14100646972656 -101.44599914550781,218.92100524902344 -93.73699951171875,218.91700744628906 C-86.02799987792969,218.91299438476562 -22.253999710083008,218.9320068359375 -22.253999710083008,218.9320068359375 C-22.253999710083008,218.9320068359375 -22.253999710083008,155.18600463867188 -22.253999710083008,155.18600463867188z"></path></g><g opacity="1" transform="matrix(1,0,0,1,0,0)"><path fill="url(#__lottie_element_14)" fill-opacity="1" d=" M-102.16400146484375,60.895999908447266 C-102.61900329589844,48.24300003051758 -92.05699920654297,-45.430999755859375 -92.3030014038086,-53.06999969482422 C-92.54900360107422,-60.70899963378906 -96.65399932861328,-70.20099639892578 -103.30899810791016,-71.9020004272461 C-108.0719985961914,-73.11900329589844 -140.6280059814453,-78.57099914550781 -151.26800537109375,-78.16100311279297 C-161.9080047607422,-77.7509994506836 -169.78700256347656,-72.60199737548828 -172,-63.29399871826172 C-173.6230010986328,-56.470001220703125 -195.22900390625,71.48899841308594 -182.88699340820312,111.99700164794922 C-167.4759979248047,162.58099365234375 -119.31300354003906,210.11700439453125 -119.31300354003906,210.11700439453125 C-119.31300354003906,210.11700439453125 -111.16300201416016,218.93099975585938 -93.73699951171875,218.91700744628906 C-90.98699951171875,218.9149932861328 -58.69300079345703,218.89100646972656 -18.285999298095703,218.86099243164062 C54.56399917602539,218.8070068359375 153.78599548339844,218.73399353027344 153.78599548339844,218.73399353027344 C162.9969940185547,218.5070037841797 173.1439971923828,215.50100708007812 177.1179962158203,209.04299926757812 C154.36900329589844,176.4409942626953 143.28500366210938,178.53799438476562 117.4000015258789,170.9239959716797 C117.4000015258789,170.9239959716797 67.12300109863281,152.7760009765625 67.12300109863281,152.7760009765625 C67.12300109863281,152.7760009765625 48.64699935913086,168.1439971923828 28.28700065612793,169.53399658203125 C7.927000045776367,170.9239959716797 -14.998000144958496,155.18600463867188 -14.998000144958496,155.18600463867188 C-66.9990005493164,141.91000366210938 -101.7300033569336,72.96700286865234 -102.16400146484375,60.895999908447266z"></path></g><g opacity="1" transform="matrix(1,0,0,1,0,0)"><path fill="url(#__lottie_element_15)" fill-opacity="1" d=" M-11.553000450134277,159.81500244140625 C-102.94300079345703,161.55799865722656 -123.41000366210938,90.1050033569336 -126.87799835205078,70.36699676513672 C-132.52999877929688,38.20000076293945 -125.15599822998047,-29.95199966430664 -110.5780029296875,-65.66000366210938 C-102.93499755859375,-67.8290023803711 -96.68800354003906,-66.68099975585938 -93.19100189208984,-58.99599838256836 C-93.19100189208984,-58.99599838256836 -102.1760025024414,59.83300018310547 -102.1760025024414,59.83300018310547 C-85.59500122070312,98.87300109863281 -63.79199981689453,134.8159942626953 -11.553000450134277,159.81500244140625z"></path></g><g opacity="1" transform="matrix(1,0,0,1,0,0)"><path fill="url(#__lottie_element_16)" fill-opacity="1" d=" M-13.211999893188477,218.01699829101562 C-14,218.875 -20.474000930786133,217.9320068359375 -98.18499755859375,219.11500549316406 C-115.25,219.375 -124.875,203.5 -149.28399658203125,169.01699829101562 C-184.375,128.875 -185.25,73.625 -181.18499755859375,73.41799926757812 C-100.5,69.125 -13.211999893188477,140.2969970703125 -13.211999893188477,218.01699829101562z"></path></g><g opacity="1" transform="matrix(1,0,0,1,0,0)"><path stroke-linecap="round" stroke-linejoin="round" fill-opacity="0" stroke="rgb(82,1,86)" stroke-opacity="1" stroke-width="8" d=" M-112.01499938964844,210.93600463867188 C-123.04199981689453,202.96800231933594 -169.0850067138672,162.86700439453125 -182.88699340820312,111.99700164794922 C-193.97500610351562,71.12799835205078 -173.6230010986328,-56.470001220703125 -172,-63.29399871826172 C-169.78700256347656,-72.60199737548828 -161.90899658203125,-77.7509994506836 -151.2689971923828,-78.16100311279297 C-140.62899780273438,-78.57099914550781 -108.0719985961914,-73.11900329589844 -103.30899810791016,-71.9020004272461 C-96.65399932861328,-70.20099639892578 -92.54900360107422,-60.70899963378906 -92.3030014038086,-53.06999969482422 C-92.05699920654297,-45.430999755859375 -102.61900329589844,48.24300003051758 -102.16400146484375,60.895999908447266 C-101.7300033569336,72.96700286865234 -69.18099975585938,136.8979949951172 -18.285999298095703,154.26600646972656"></path></g></g><g style="display: block;" transform="matrix(1,0,0,1,256,256)" opacity="1"><g opacity="1" transform="matrix(1,0,0,1,0,0)"><path stroke-linecap="round" stroke-linejoin="round" fill-opacity="0" stroke="rgb(147,18,149)" stroke-opacity="1" stroke-width="9" d=" M-107.37699890136719,-66.63200378417969 C-107.37699890136719,-66.63200378417969 -129.2830047607422,-61.01100158691406 -152.49600219726562,-73.90399932861328"></path></g><g opacity="1" transform="matrix(1,0,0,1,0,0)"><g opacity="1" transform="matrix(1,0,0,1,0,0)"><path fill="rgb(255,168,0)" fill-opacity="1" d=" M-150.66600036621094,-90.55799865722656 C-150.66600036621094,-90.55799865722656 -163.7169952392578,-113.86799621582031 -161.89199829101562,-138.21800231933594 C-161.16200256347656,-147.96400451660156 -167.50100708007812,-182.0019989013672 -167.5019989013672,-185.89500427246094 C-167.5050048828125,-198.58200073242188 -157.10000610351562,-197.0469970703125 -155.36099243164062,-188.55499267578125 C-154.0469970703125,-182.13699340820312 -149.5290069580078,-154.9290008544922 -144.6179962158203,-155.61099243164062 C-141.21600341796875,-156.08399963378906 -146.71600341796875,-202.5659942626953 -146.7449951171875,-204.16400146484375 C-146.9709930419922,-216.5030059814453 -133.2270050048828,-216.41700744628906 -132.5850067138672,-204.92100524902344 C-132.18899536132812,-197.82899475097656 -130.1929931640625,-160.21400451660156 -126.87799835205078,-160.11199951171875 C-123.72200012207031,-160.01499938964844 -120.88400268554688,-205.2469940185547 -120.31900024414062,-213.4429931640625 C-119.60299682617188,-223.8350067138672 -106.06500244140625,-223.375 -105.97899627685547,-212.06900024414062 C-105.93000030517578,-205.6750030517578 -111.5719985961914,-158.5780029296875 -109.01399993896484,-157.8939971923828 C-107.13999938964844,-157.39300537109375 -96.47899627685547,-192.09500122070312 -93.60700225830078,-199.4510040283203 C-90.32499694824219,-207.85800170898438 -79.31700134277344,-205.12899780273438 -80.7760009765625,-195.92100524902344 C-82.23500061035156,-186.71299743652344 -94.37799835205078,-152.59800720214844 -95.0999984741211,-146.55299377441406 C-95.49400329589844,-143.2550048828125 -98.23200225830078,-128.52200317382812 -88.552001953125,-126.96399688720703 C-78.06500244140625,-125.2760009765625 -70.12799835205078,-140.45199584960938 -64.33000183105469,-144.4080047607422 C-56.084999084472656,-150.03399658203125 -43.49599838256836,-144.6280059814453 -53.76599884033203,-133.51300048828125 C-61.72200012207031,-124.90299987792969 -64.93800354003906,-118.48200225830078 -68.90799713134766,-111.33599853515625 C-72.87799835205078,-104.19000244140625 -87.27799987792969,-94.74700164794922 -101.28500366210938,-88.40399932861328 C-104.31300354003906,-86.33399963378906 -104.21700286865234,-77.76599884033203 -104.21700286865234,-77.76599884033203 C-104.21700286865234,-77.76599884033203 -142.75399780273438,-72.89800262451172 -150.66600036621094,-90.55799865722656z"></path></g><g opacity="1" transform="matrix(1,0,0,1,0,0)"><path fill="url(#__lottie_element_9)" fill-opacity="1" d=" M-150.66600036621094,-90.55799865722656 C-150.66600036621094,-90.55799865722656 -163.7169952392578,-113.86799621582031 -161.89199829101562,-138.21800231933594 C-161.16200256347656,-147.96400451660156 -167.50100708007812,-182.0019989013672 -167.5019989013672,-185.89500427246094 C-167.5050048828125,-198.58200073242188 -157.10000610351562,-197.0469970703125 -155.36099243164062,-188.55499267578125 C-154.0469970703125,-182.13699340820312 -149.5290069580078,-154.9290008544922 -144.6179962158203,-155.61099243164062 C-141.21600341796875,-156.08399963378906 -146.71600341796875,-202.5659942626953 -146.7449951171875,-204.16400146484375 C-146.9709930419922,-216.5030059814453 -133.2270050048828,-216.41700744628906 -132.5850067138672,-204.92100524902344 C-132.18899536132812,-197.82899475097656 -130.1929931640625,-160.21400451660156 -126.87799835205078,-160.11199951171875 C-123.72200012207031,-160.01499938964844 -120.88400268554688,-205.2469940185547 -120.31900024414062,-213.4429931640625 C-119.60299682617188,-223.8350067138672 -106.06500244140625,-223.375 -105.97899627685547,-212.06900024414062 C-105.93000030517578,-205.6750030517578 -111.5719985961914,-158.5780029296875 -109.01399993896484,-157.8939971923828 C-107.13999938964844,-157.39300537109375 -96.47899627685547,-192.09500122070312 -93.60700225830078,-199.4510040283203 C-90.32499694824219,-207.85800170898438 -79.31700134277344,-205.12899780273438 -80.7760009765625,-195.92100524902344 C-82.23500061035156,-186.71299743652344 -94.37799835205078,-152.59800720214844 -95.0999984741211,-146.55299377441406 C-95.49400329589844,-143.2550048828125 -98.23200225830078,-128.52200317382812 -88.552001953125,-126.96399688720703 C-78.06500244140625,-125.2760009765625 -70.12799835205078,-140.45199584960938 -64.33000183105469,-144.4080047607422 C-56.084999084472656,-150.03399658203125 -43.49599838256836,-144.6280059814453 -53.76599884033203,-133.51300048828125 C-61.72200012207031,-124.90299987792969 -64.93800354003906,-118.48200225830078 -68.90799713134766,-111.33599853515625 C-72.87799835205078,-104.19000244140625 -87.27799987792969,-94.74700164794922 -101.28500366210938,-88.40399932861328 C-104.31300354003906,-86.33399963378906 -104.21700286865234,-77.76599884033203 -104.21700286865234,-77.76599884033203 C-104.21700286865234,-77.76599884033203 -151.875,-75.5 -150.66600036621094,-90.55799865722656z"></path></g><g opacity="1" transform="matrix(1,0,0,1,0,0)"><path stroke-linecap="round" stroke-linejoin="round" fill-opacity="0" stroke="rgb(219,110,0)" stroke-opacity="1" stroke-width="8" d=" M-150.66600036621094,-90.55799865722656 C-150.66600036621094,-90.55799865722656 -163.7169952392578,-113.86799621582031 -161.89199829101562,-138.21800231933594 C-161.16200256347656,-147.96400451660156 -167.50100708007812,-182.0019989013672 -167.5019989013672,-185.89500427246094 C-167.5050048828125,-198.58200073242188 -157.10000610351562,-197.0469970703125 -155.36099243164062,-188.55499267578125 C-154.0469970703125,-182.13699340820312 -149.5290069580078,-154.9290008544922 -144.6179962158203,-155.61099243164062 C-141.21600341796875,-156.08399963378906 -146.71600341796875,-202.5659942626953 -146.7449951171875,-204.16400146484375 C-146.9709930419922,-216.5030059814453 -133.2270050048828,-216.41700744628906 -132.5850067138672,-204.92100524902344 C-132.18899536132812,-197.82899475097656 -130.1929931640625,-160.21400451660156 -126.87799835205078,-160.11199951171875 C-123.72200012207031,-160.01499938964844 -120.88400268554688,-205.2469940185547 -120.31900024414062,-213.4429931640625 C-119.60299682617188,-223.8350067138672 -106.06500244140625,-223.375 -105.97899627685547,-212.06900024414062 C-105.93000030517578,-205.6750030517578 -111.5719985961914,-158.5780029296875 -109.01399993896484,-157.8939971923828 C-107.13999938964844,-157.39300537109375 -96.47899627685547,-192.09500122070312 -93.60700225830078,-199.4510040283203 C-90.32499694824219,-207.85800170898438 -79.31700134277344,-205.12899780273438 -80.7760009765625,-195.92100524902344 C-82.23500061035156,-186.71299743652344 -94.37799835205078,-152.59800720214844 -95.0999984741211,-146.55299377441406 C-95.49400329589844,-143.2550048828125 -98.23200225830078,-128.52200317382812 -88.552001953125,-126.96399688720703 C-78.06500244140625,-125.2760009765625 -70.12799835205078,-140.45199584960938 -64.33000183105469,-144.4080047607422 C-56.084999084472656,-150.03399658203125 -43.49599838256836,-144.6280059814453 -53.76599884033203,-133.51300048828125 C-61.72200012207031,-124.90299987792969 -64.93800354003906,-118.48200225830078 -68.90799713134766,-111.33599853515625 C-72.87799835205078,-104.19000244140625 -87.27799987792969,-94.74700164794922 -101.28500366210938,-88.40399932861328 C-104.31300354003906,-86.33399963378906 -104.21700286865234,-77.76599884033203 -104.21700286865234,-77.76599884033203 C-104.21700286865234,-77.76599884033203 -151.25,-77.25 -150.66600036621094,-90.55799865722656z"></path></g><g opacity="1" transform="matrix(1.0722371339797974,-0.04730238392949104,0.048554930835962296,1.100629448890686,16.253952026367188,8.640853881835938)"><path fill="url(#__lottie_element_10)" fill-opacity="0.3" d=" M-150.2760009765625,-139.7530059814453 C-152.57200622558594,-144.24400329589844 -143.80499267578125,-150.91799926757812 -129.84800720214844,-151.66600036621094 C-113.87200164794922,-152.52200317382812 -102.42500305175781,-149.4340057373047 -103.7249984741211,-143.843994140625 C-105.02100372314453,-138.2729949951172 -114.8280029296875,-140.68699645996094 -126.9209976196289,-139.91099548339844 C-139.01400756835938,-139.13499450683594 -147.3699951171875,-134.0679931640625 -150.2760009765625,-139.7530059814453z"></path></g></g><g opacity="1" transform="matrix(1,0,0,1,0,0)"><path fill="rgb(66,0,72)" fill-opacity="1" d=" M-153.99600219726562,-87.72799682617188 C-153.99600219726562,-87.72799682617188 -132.88999938964844,-73.7490005493164 -101.26300048828125,-80.58200073242188 C-99.91500091552734,-73.04499816894531 -104.46600341796875,-69.5260009765625 -104.46600341796875,-69.5260009765625 C-104.46600341796875,-69.5260009765625 -129.06199645996094,-63.85200119018555 -152.55099487304688,-76.23400115966797 C-156.82200622558594,-82.38500213623047 -153.99600219726562,-87.72799682617188 -153.99600219726562,-87.72799682617188z"></path><path stroke-linecap="round" stroke-linejoin="round" fill-opacity="0" stroke="rgb(44,0,48)" stroke-opacity="1" stroke-width="8" d=" M-153.99600219726562,-87.72799682617188 C-153.99600219726562,-87.72799682617188 -132.88999938964844,-73.7490005493164 -101.26300048828125,-80.58200073242188 C-99.91500091552734,-73.04499816894531 -104.46600341796875,-69.5260009765625 -104.46600341796875,-69.5260009765625 C-104.46600341796875,-69.5260009765625 -129.06199645996094,-63.85200119018555 -152.55099487304688,-76.23400115966797 C-156.82200622558594,-82.38500213623047 -153.99600219726562,-87.72799682617188 -153.99600219726562,-87.72799682617188z"></path></g></g><g style="display: block;" transform="matrix(1,0,0,1,256,256)" opacity="1"><g opacity="1" transform="matrix(1,0,0,1,0,0)"><path stroke-linecap="round" stroke-linejoin="round" fill-opacity="0" stroke="rgb(44,0,48)" stroke-opacity="1" stroke-width="8" d=" M67.12300109863281,152.7760009765625 C61.99300003051758,158.97799682617188 46.051998138427734,168.77499389648438 24.54199981689453,168.04200744628906 C4.802999973297119,167.36900329589844 -10.76200008392334,156.61399841308594 -16.003999710083008,152.19200134277344"></path></g></g></g></svg>