<svg xmlns="http://www.w3.org/2000/svg" xmlns:xlink="http://www.w3.org/1999/xlink" viewBox="0 0 512 512" width="512" height="512" style="width: 100%; height: 100%; transform: translate3d(0,0,0); content-visibility: visible;" preserveAspectRatio="xMidYMid meet"><defs><clipPath id="__lottie_element_2"><rect width="512" height="512" x="0" y="0"></rect></clipPath><radialGradient id="__lottie_element_9" spreadMethod="pad" gradientUnits="userSpaceOnUse" cx="-126.23799896240234" cy="-170" r="84.81599807739258" fx="-126.23799896240234" fy="-170"><stop offset="80%" stop-color="rgb(255,216,0)" stop-opacity="1"></stop><stop offset="86%" stop-color="rgb(255,216,0)" stop-opacity="0.5"></stop><stop offset="92%" stop-color="rgb(255,216,0)" stop-opacity="0"></stop></radialGradient><radialGradient id="__lottie_element_10" spreadMethod="pad" gradientUnits="userSpaceOnUse" cx="-127.80500030517578" cy="-145.2239990234375" r="23.68248133589233" fx="-127.80500030517578" fy="-145.2239990234375"><stop offset="0%" stop-color="rgb(255,255,255)" stop-opacity="1"></stop><stop offset="75%" stop-color="rgb(255,255,255)" stop-opacity="0.5"></stop><stop offset="100%" stop-color="rgb(255,255,255)" stop-opacity="0"></stop></radialGradient><radialGradient id="__lottie_element_14" spreadMethod="pad" gradientUnits="userSpaceOnUse" cx="43.762001037597656" cy="45" r="354.3857019627848" fx="43.762001037597656" fy="45"><stop offset="0%" stop-color="rgb(51,142,218)" stop-opacity="1"></stop><stop offset="23%" stop-color="rgb(26,104,177)" stop-opacity="0.5"></stop><stop offset="47%" stop-color="rgb(0,66,137)" stop-opacity="0"></stop><stop offset="64%" stop-color="rgb(0,66,137)" stop-opacity="0.5"></stop><stop offset="82%" stop-color="rgb(0,66,137)" stop-opacity="1"></stop></radialGradient><radialGradient id="__lottie_element_15" spreadMethod="pad" gradientUnits="userSpaceOnUse" cx="14.26200008392334" cy="20" r="144.28406528955384" fx="14.26200008392334" fy="20"><stop offset="0%" stop-color="rgb(0,66,137)" stop-opacity="1"></stop><stop offset="82%" stop-color="rgb(0,66,137)" stop-opacity="0.5"></stop><stop offset="100%" stop-color="rgb(0,66,137)" stop-opacity="0"></stop></radialGradient><radialGradient id="__lottie_element_16" spreadMethod="pad" gradientUnits="userSpaceOnUse" cx="-136.23800659179688" cy="225" r="108.3389113143748" fx="-136.23800659179688" fy="225"><stop offset="0%" stop-color="rgb(0,66,137)" stop-opacity="1"></stop><stop offset="50%" stop-color="rgb(0,66,137)" stop-opacity="0.5"></stop><stop offset="100%" stop-color="rgb(0,66,137)" stop-opacity="0"></stop></radialGradient><radialGradient id="__lottie_element_20" spreadMethod="pad" gradientUnits="userSpaceOnUse" cx="22.511999130249023" cy="115.25" r="32.12491945298271" fx="22.511999130249023" fy="115.25"><stop offset="10%" stop-color="rgb(219,110,0)" stop-opacity="1"></stop><stop offset="64%" stop-color="rgb(219,110,0)" stop-opacity="0.5"></stop><stop offset="100%" stop-color="rgb(219,110,0)" stop-opacity="0"></stop></radialGradient><radialGradient id="__lottie_element_21" spreadMethod="pad" gradientUnits="userSpaceOnUse" cx="22.261999130249023" cy="107.75" r="42.713564414253185" fx="22.261999130249023" fy="107.75"><stop offset="0%" stop-color="rgb(255,255,255)" stop-opacity="1"></stop><stop offset="60%" stop-color="rgb(255,255,255)" stop-opacity="0.5"></stop><stop offset="100%" stop-color="rgb(255,255,255)" stop-opacity="0"></stop></radialGradient><linearGradient id="__lottie_element_22" spreadMethod="pad" gradientUnits="userSpaceOnUse" x1="22.511999130249023" y1="105.5" x2="22.44700050354004" y2="95.4260025024414"><stop offset="0%" stop-color="rgb(88,11,14)" stop-opacity="0"></stop><stop offset="36%" stop-color="rgb(88,11,14)" stop-opacity="0.5"></stop><stop offset="80%" stop-color="rgb(88,11,14)" stop-opacity="1"></stop></linearGradient><linearGradient id="__lottie_element_23" spreadMethod="pad" gradientUnits="userSpaceOnUse" x1="-4.36299991607666" y1="92" x2="50.03099822998047" y2="91.26699829101562"><stop offset="0%" stop-color="rgb(198,196,196)"></stop><stop offset="8%" stop-color="rgb(226,225,225)"></stop><stop offset="50%" stop-color="rgb(255,255,255)"></stop><stop offset="93%" stop-color="rgb(226,225,225)"></stop><stop offset="100%" stop-color="rgb(198,196,196)"></stop></linearGradient><linearGradient id="__lottie_element_27" spreadMethod="pad" gradientUnits="userSpaceOnUse" x1="-55.487998962402344" y1="-28.125" x2="-39.1510009765625" y2="-6.464000225067139"><stop offset="0%" stop-color="rgb(66,0,0)"></stop><stop offset="38%" stop-color="rgb(118,40,0)"></stop><stop offset="100%" stop-color="rgb(170,80,0)"></stop></linearGradient><radialGradient id="__lottie_element_28" spreadMethod="pad" gradientUnits="userSpaceOnUse" cx="-42.237998962402344" cy="-10" r="9.889999389648438" fx="-42.237998962402344" fy="-10"><stop offset="0%" stop-color="rgb(246,175,0)" stop-opacity="1"></stop><stop offset="50%" stop-color="rgb(246,175,0)" stop-opacity="0.5"></stop><stop offset="100%" stop-color="rgb(246,175,0)" stop-opacity="0"></stop></radialGradient><linearGradient id="__lottie_element_29" spreadMethod="pad" gradientUnits="userSpaceOnUse" x1="-56.987998962402344" y1="-33.1879997253418" x2="-56.75299835205078" y2="-25.875"><stop offset="0%" stop-color="rgb(255,255,255)" stop-opacity="1"></stop><stop offset="60%" stop-color="rgb(255,255,255)" stop-opacity="0.5"></stop><stop offset="100%" stop-color="rgb(255,255,255)" stop-opacity="0"></stop></linearGradient><linearGradient id="__lottie_element_30" spreadMethod="pad" gradientUnits="userSpaceOnUse" x1="-55.487998962402344" y1="-28.125" x2="-39.1510009765625" y2="-6.464000225067139"><stop offset="0%" stop-color="rgb(66,0,0)"></stop><stop offset="38%" stop-color="rgb(118,40,0)"></stop><stop offset="100%" stop-color="rgb(170,80,0)"></stop></linearGradient><radialGradient id="__lottie_element_31" spreadMethod="pad" gradientUnits="userSpaceOnUse" cx="-42.237998962402344" cy="-10" r="9.889999389648438" fx="-42.237998962402344" fy="-10"><stop offset="0%" stop-color="rgb(246,175,0)" stop-opacity="1"></stop><stop offset="50%" stop-color="rgb(246,175,0)" stop-opacity="0.5"></stop><stop offset="100%" stop-color="rgb(246,175,0)" stop-opacity="0"></stop></radialGradient><linearGradient id="__lottie_element_32" spreadMethod="pad" gradientUnits="userSpaceOnUse" x1="-56.987998962402344" y1="-33.1879997253418" x2="-56.75299835205078" y2="-25.875"><stop offset="0%" stop-color="rgb(255,255,255)" stop-opacity="1"></stop><stop offset="60%" stop-color="rgb(255,255,255)" stop-opacity="0.5"></stop><stop offset="100%" stop-color="rgb(255,255,255)" stop-opacity="0"></stop></linearGradient><linearGradient id="__lottie_element_40" spreadMethod="pad" gradientUnits="userSpaceOnUse" x1="-22.238000869750977" y1="-129" x2="-7.683000087738037" y2="-55.742000579833984"><stop offset="0%" stop-color="rgb(219,110,0)" stop-opacity="1"></stop><stop offset="38%" stop-color="rgb(219,110,0)" stop-opacity="0.5"></stop><stop offset="70%" stop-color="rgb(219,110,0)" stop-opacity="0"></stop></linearGradient><linearGradient id="__lottie_element_41" spreadMethod="pad" gradientUnits="userSpaceOnUse" x1="-1.2380000352859497" y1="-114" x2="-1.2380000352859497" y2="95.20500183105469"><stop offset="6%" stop-color="rgb(255,216,0)" stop-opacity="0"></stop><stop offset="15%" stop-color="rgb(255,216,0)" stop-opacity="0.5"></stop><stop offset="50%" stop-color="rgb(255,216,0)" stop-opacity="1"></stop><stop offset="89%" stop-color="rgb(255,216,0)" stop-opacity="0.5"></stop><stop offset="100%" stop-color="rgb(255,216,0)" stop-opacity="0"></stop></linearGradient><linearGradient id="__lottie_element_44" spreadMethod="pad" gradientUnits="userSpaceOnUse" x1="-1.2380000352859497" y1="26" x2="-1.2380000352859497" y2="46.29499816894531"><stop offset="0%" stop-color="rgb(255,168,0)" stop-opacity="1"></stop><stop offset="66%" stop-color="rgb(255,168,0)" stop-opacity="0.5"></stop><stop offset="100%" stop-color="rgb(255,168,0)" stop-opacity="0"></stop></linearGradient><linearGradient id="__lottie_element_45" spreadMethod="pad" gradientUnits="userSpaceOnUse" x1="-1.2380000352859497" y1="36" x2="-1.2380000352859497" y2="15.09000015258789"><stop offset="10%" stop-color="rgb(219,110,0)" stop-opacity="1"></stop><stop offset="52%" stop-color="rgb(219,110,0)" stop-opacity="0.5"></stop><stop offset="80%" stop-color="rgb(219,110,0)" stop-opacity="0"></stop></linearGradient><radialGradient id="__lottie_element_46" spreadMethod="pad" gradientUnits="userSpaceOnUse" cx="-2.23799991607666" cy="8" r="24.73599910736084" fx="-2.23799991607666" fy="8"><stop offset="36%" stop-color="rgb(255,168,0)" stop-opacity="0"></stop><stop offset="74%" stop-color="rgb(255,168,0)" stop-opacity="0.5"></stop><stop offset="100%" stop-color="rgb(255,168,0)" stop-opacity="1"></stop></radialGradient><linearGradient id="__lottie_element_47" spreadMethod="pad" gradientUnits="userSpaceOnUse" x1="-1.2380000352859497" y1="5" x2="-1.2380000352859497" y2="19.649999618530273"><stop offset="0%" stop-color="rgb(255,255,255)" stop-opacity="1"></stop><stop offset="50%" stop-color="rgb(255,255,255)" stop-opacity="0.5"></stop><stop offset="100%" stop-color="rgb(255,255,255)" stop-opacity="0"></stop></linearGradient><linearGradient id="__lottie_element_51" spreadMethod="pad" gradientUnits="userSpaceOnUse" x1="-2.23799991607666" y1="-135" x2="-2.23799991607666" y2="-60.61600112915039"><stop offset="10%" stop-color="rgb(255,169,0)" stop-opacity="0"></stop><stop offset="46%" stop-color="rgb(255,169,0)" stop-opacity="0.5"></stop><stop offset="100%" stop-color="rgb(255,169,0)" stop-opacity="1"></stop></linearGradient><linearGradient id="__lottie_element_52" spreadMethod="pad" gradientUnits="userSpaceOnUse" x1="-1.7380000352859497" y1="-34" x2="-2.23799991607666" y2="-188.0240020751953"><stop offset="8%" stop-color="rgb(218,110,0)" stop-opacity="0.30000001192092896"></stop><stop offset="26%" stop-color="rgb(218,110,0)" stop-opacity="0.6499999761581421"></stop><stop offset="45%" stop-color="rgb(218,110,0)" stop-opacity="1"></stop><stop offset="58%" stop-color="rgb(218,110,0)" stop-opacity="0.5"></stop><stop offset="80%" stop-color="rgb(218,110,0)" stop-opacity="0"></stop></linearGradient><linearGradient id="__lottie_element_53" spreadMethod="pad" gradientUnits="userSpaceOnUse" x1="-117.23799896240234" y1="-140" x2="-105.31999969482422" y2="-110.20500183105469"><stop offset="0%" stop-color="rgb(255,255,255)" stop-opacity="1"></stop><stop offset="50%" stop-color="rgb(255,255,255)" stop-opacity="0.5"></stop><stop offset="100%" stop-color="rgb(255,255,255)" stop-opacity="0"></stop></linearGradient><linearGradient id="__lottie_element_54" spreadMethod="pad" gradientUnits="userSpaceOnUse" x1="-19.238000869750977" y1="-181" x2="-9.968000411987305" y2="-122.302001953125"><stop offset="0%" stop-color="rgb(255,255,255)" stop-opacity="1"></stop><stop offset="50%" stop-color="rgb(255,255,255)" stop-opacity="0.5"></stop><stop offset="100%" stop-color="rgb(255,255,255)" stop-opacity="0"></stop></linearGradient><radialGradient id="__lottie_element_61" spreadMethod="pad" gradientUnits="userSpaceOnUse" cx="11.76200008392334" cy="224" r="176.8100061416626" fx="11.76200008392334" fy="224"><stop offset="38%" stop-color="rgb(51,142,218)"></stop><stop offset="85%" stop-color="rgb(26,104,177)"></stop><stop offset="100%" stop-color="rgb(0,66,137)"></stop></radialGradient><linearGradient id="__lottie_element_62" spreadMethod="pad" gradientUnits="userSpaceOnUse" x1="109.51200103759766" y1="139.75" x2="111.96299743652344" y2="198.31300354003906"><stop offset="0%" stop-color="rgb(255,255,255)" stop-opacity="1"></stop><stop offset="50%" stop-color="rgb(255,255,255)" stop-opacity="0.5"></stop><stop offset="100%" stop-color="rgb(255,255,255)" stop-opacity="0"></stop></linearGradient><radialGradient id="__lottie_element_63" spreadMethod="pad" gradientUnits="userSpaceOnUse" cx="45.46799850463867" cy="149.21499633789062" r="72.27948057654197" fx="45.46799850463867" fy="149.21499633789062"><stop offset="0%" stop-color="rgb(0,66,137)" stop-opacity="1"></stop><stop offset="60%" stop-color="rgb(0,66,137)" stop-opacity="0.5"></stop><stop offset="100%" stop-color="rgb(0,66,137)" stop-opacity="0"></stop></radialGradient><radialGradient id="__lottie_element_64" spreadMethod="pad" gradientUnits="userSpaceOnUse" cx="27.011999130249023" cy="181.25" r="41.361037545216064" fx="27.011999130249023" fy="181.25"><stop offset="20%" stop-color="rgb(255,168,0)" stop-opacity="1"></stop><stop offset="66%" stop-color="rgb(255,168,0)" stop-opacity="0.5"></stop><stop offset="100%" stop-color="rgb(255,168,0)" stop-opacity="0"></stop></radialGradient></defs><g clip-path="url(#__lottie_element_2)"><g style="display: block;" transform="matrix(1,0,0,1,255.99998474121094,256)" opacity="1"><g opacity="1" transform="matrix(1,0,0,1,0,0)"><path fill="url(#__lottie_element_61)" fill-opacity="1" d=" M144.45199584960938,218.91299438476562 C144.45199584960938,218.91299438476562 -91.87699890136719,218.91299438476562 -91.87699890136719,218.91299438476562 C-103.31900024414062,219.2010040283203 -115.98799896240234,216.11900329589844 -118.5270004272461,208.46499633789062 C-118.5270004272461,208.46499633789062 -102.61100006103516,189.23300170898438 -88.31199645996094,182.6909942626953 C-88.31199645996094,182.6909942626953 -18.285999298095703,154.26600646972656 -18.285999298095703,154.26600646972656 C-18.285999298095703,154.26600646972656 -6.002999782562256,169.11199951171875 25.54800033569336,168.04200744628906 C55.50199890136719,167.0260009765625 68.12899780273438,150.76400756835938 68.12899780273438,150.76400756835938 C68.12899780273438,150.76400756835938 143.28599548339844,180.82400512695312 143.28599548339844,180.82400512695312 C161.23800659179688,186.30599975585938 177.1179962158203,209.04299926757812 177.1179962158203,209.04299926757812 C170.2100067138672,218.9550018310547 155.55099487304688,218.85400390625 144.45199584960938,218.91299438476562z"></path></g><g opacity="1" transform="matrix(1,0,0,1,0,0)"><path fill="url(#__lottie_element_62)" fill-opacity="0.3" d=" M165.58900451660156,217.4510040283203 C163.50900268554688,217.4510040283203 161.56399536132812,216.15199279785156 160.83999633789062,214.07699584960938 C156.38099670410156,201.2989959716797 147.38499450683594,194.156005859375 125.2040023803711,185.78599548339844 C125.2040023803711,185.78599548339844 57.44300079345703,162.56500244140625 57.44300079345703,162.56500244140625 C54.814998626708984,161.6649932861328 53.415000915527344,158.8040008544922 54.316001892089844,156.17599487304688 C55.21699905395508,153.5489959716797 58.07500076293945,152.14700317382812 60.70500183105469,153.04800415039062 C60.70500183105469,153.04800415039062 128.53900146484375,176.29400634765625 128.53900146484375,176.29400634765625 C128.58700561523438,176.31100463867188 128.63499450683594,176.3280029296875 128.6820068359375,176.3459930419922 C153.88499450683594,185.8470001220703 164.78500366210938,194.85299682617188 170.33799743652344,210.76199340820312 C171.25399780273438,213.38499450683594 169.86900329589844,216.2530059814453 167.24600219726562,217.16900634765625 C166.697998046875,217.36099243164062 166.13900756835938,217.4510040283203 165.58900451660156,217.4510040283203z"></path></g><g opacity="1" transform="matrix(0.9997574090957642,-0.02202427387237549,0.010957516729831696,0.49739933013916016,5.785106658935547,79.90070343017578)"><path fill="url(#__lottie_element_63)" fill-opacity="1" d=" M89.39199829101562,166.5189971923828 C92.66699981689453,170.44000244140625 142.3560028076172,224.92599487304688 49.452999114990234,226.41299438476562 C-28.25,227.65699768066406 -33.005001068115234,157.71800231933594 -25.79199981689453,152.99400329589844 C-22.934999465942383,150.7100067138672 13.111000061035156,156.16700744628906 44.310001373291016,156.16700744628906 C75.50900268554688,156.16700744628906 86.88600158691406,164.0449981689453 89.39199829101562,166.5189971923828z"></path></g><g opacity="1" transform="matrix(1,0,0,1,0,0)"><path stroke-linecap="round" stroke-linejoin="round" fill-opacity="0" stroke="rgb(51,142,218)" stroke-opacity="0.4" stroke-width="8" d=" M65.73300170898438,156.18600463867188 C64.31199645996094,158.97300720214844 50.694000244140625,172.03799438476562 25.54800033569336,171.92300415039062 C2.3910000324249268,171.81700134277344 -7.821000099182129,160.76199340820312 -16.003999710083008,152.19200134277344"></path></g><g opacity="1" transform="matrix(1,0,0,1,0,0)"><path stroke-linecap="round" stroke-linejoin="round" fill-opacity="0" stroke="rgb(2,77,140)" stroke-opacity="1" stroke-width="8" d=" M173.63699340820312,207.38900756835938 C168.58999633789062,192.9290008544922 158.50999450683594,184.90199279785156 134.95599365234375,176.0229949951172 C134.95599365234375,176.0229949951172 67.12300109863281,152.7760009765625 67.12300109863281,152.7760009765625"></path></g><g opacity="1" transform="matrix(1,0,0,1,0,0)"><g opacity="1" transform="matrix(1,0,0,1,0,0)"><path fill="rgb(181,102,6)" fill-opacity="1" d=" M-4.7789998054504395,134.8699951171875 C-4.7789998054504395,134.8699951171875 -11.42300033569336,157.42999267578125 -11.42300033569336,157.42999267578125 C-10.932000160217285,162.25900268554688 44.07400131225586,174.50100708007812 61.99300003051758,158.97799682617188 C61.99300003051758,158.97799682617188 57.5260009765625,134.8159942626953 57.5260009765625,134.8159942626953 C57.5260009765625,134.8159942626953 -4.7789998054504395,134.8699951171875 -4.7789998054504395,134.8699951171875z"></path></g><g opacity="1" transform="matrix(1,0,0,1,0,0)"><path fill="url(#__lottie_element_64)" fill-opacity="1" d=" M-7.6020002365112305,137.8350067138672 C-7.6020002365112305,137.8350067138672 -10.281000137329102,156.4080047607422 -10.281000137329102,156.4080047607422 C1.628999948501587,163.96200561523438 43.30400085449219,173.9530029296875 61.99300003051758,158.97799682617188 C61.99300003051758,158.97799682617188 57.5260009765625,134.8159942626953 57.5260009765625,134.8159942626953 C57.5260009765625,134.8159942626953 -7.6020002365112305,137.8350067138672 -7.6020002365112305,137.8350067138672z"></path></g><g opacity="1" transform="matrix(1,0,0,1,0,0)"><path stroke-linecap="round" stroke-linejoin="round" fill-opacity="0" stroke="rgb(153,71,4)" stroke-opacity="1" stroke-width="8" d=" M-11.42300033569336,151.6300048828125 C-11.42300033569336,151.6300048828125 -7.6020002365112305,134.8699951171875 -7.6020002365112305,134.8699951171875 C-7.6020002365112305,134.8699951171875 56.86800003051758,134.8699951171875 56.86800003051758,134.8699951171875 C56.86800003051758,134.8699951171875 61.99300003051758,150.2740020751953 61.99300003051758,150.2740020751953"></path></g></g></g><g style="display: block;" transform="matrix(0.9800000190734863,0,0,0.9800000190734863,280.2110595703125,294.0885314941406)" opacity="1"><g opacity="1" transform="matrix(1,0,0,1,0,0)"><path fill="rgb(255,168,0)" fill-opacity="1" d=" M-110.91200256347656,-42.15399932861328 C-110.91200256347656,-42.15399932861328 -121.3280029296875,-49.30099868774414 -126.8030014038086,-39.7239990234375 C-131.81199645996094,-30.96299934387207 -122.23999786376953,14.326000213623047 -113.39700317382812,21.67099952697754 C-107.95800018310547,26.18899917602539 -102.06900024414062,20.614999771118164 -102.06900024414062,20.614999771118164 C-98.48200225830078,18.136999130249023 -104.30400085449219,-33.069000244140625 -110.91200256347656,-42.15399932861328z"></path><path stroke-linecap="round" stroke-linejoin="round" fill-opacity="0" stroke="rgb(219,110,0)" stroke-opacity="1" stroke-width="8" d=" M-110.91200256347656,-42.15399932861328 C-110.91200256347656,-42.15399932861328 -121.3280029296875,-49.30099868774414 -126.8030014038086,-39.7239990234375 C-131.81199645996094,-30.96299934387207 -122.23999786376953,14.326000213623047 -113.39700317382812,21.67099952697754 C-107.95800018310547,26.18899917602539 -102.06900024414062,20.614999771118164 -102.06900024414062,20.614999771118164 C-98.48200225830078,18.136999130249023 -104.30400085449219,-33.069000244140625 -110.91200256347656,-42.15399932861328z"></path></g><g opacity="1" transform="matrix(1,0,0,1,0,0)"><path fill="rgb(255,168,0)" fill-opacity="1" d=" M108.16400146484375,-42.15399932861328 C108.16400146484375,-42.15399932861328 118.58000183105469,-49.30099868774414 124.05500030517578,-39.7239990234375 C129.06399536132812,-30.96299934387207 119.49099731445312,14.326000213623047 110.64900207519531,21.67099952697754 C105.20999908447266,26.18899917602539 99.32099914550781,20.614999771118164 99.32099914550781,20.614999771118164 C95.73400115966797,18.136999130249023 101.55599975585938,-33.069000244140625 108.16400146484375,-42.15399932861328z"></path><path stroke-linecap="round" stroke-linejoin="round" fill-opacity="0" stroke="rgb(219,110,0)" stroke-opacity="1" stroke-width="8" d=" M108.16400146484375,-42.15399932861328 C108.16400146484375,-42.15399932861328 118.58000183105469,-49.30099868774414 124.05500030517578,-39.7239990234375 C129.06399536132812,-30.96299934387207 119.49099731445312,14.326000213623047 110.64900207519531,21.67099952697754 C105.20999908447266,26.18899917602539 99.32099914550781,20.614999771118164 99.32099914550781,20.614999771118164 C95.73400115966797,18.136999130249023 101.55599975585938,-33.069000244140625 108.16400146484375,-42.15399932861328z"></path></g></g><g style="display: block;" transform="matrix(0.9800000190734863,0,0,0.9800000190734863,280.2110595703125,294.0885314941406)" opacity="1"><g opacity="1" transform="matrix(1,0,0,1,0,0)"><path fill="rgb(255,168,0)" fill-opacity="1" d=" M106.87899780273438,-12.211000442504883 C106.87899780273438,57.29800033569336 57.98899841308594,115.91300201416016 -0.9610000252723694,115.91300201416016 C-59.9109992980957,115.91300201416016 -108.8010025024414,57.29800033569336 -108.8010025024414,-12.211000442504883 C-119.64800262451172,-127.76399993896484 -59.24599838256836,-174.25900268554688 -0.9610000252723694,-174.25900268554688 C55.79499816894531,-174.25900268554688 106.87899780273438,-156.12899780273438 106.87899780273438,-12.211000442504883z"></path></g><g opacity="1" transform="matrix(1,0,0,1,0,0)"><path fill="url(#__lottie_element_40)" fill-opacity="1" d=" M106.87899780273438,-12.211000442504883 C106.87899780273438,57.29800033569336 57.98899841308594,115.91300201416016 -0.9610000252723694,115.91300201416016 C-59.9109992980957,115.91300201416016 -108.8010025024414,57.29800033569336 -108.8010025024414,-12.211000442504883 C-119.64800262451172,-127.76399993896484 -59.24599838256836,-174.25900268554688 -0.9610000252723694,-174.25900268554688 C55.79499816894531,-174.25900268554688 106.87899780273438,-156.12899780273438 106.87899780273438,-12.211000442504883z"></path></g><g opacity="1" transform="matrix(1,0,0,1,0,0)"><path stroke-linecap="round" stroke-linejoin="round" fill-opacity="0" stroke="rgb(219,110,0)" stroke-opacity="1" stroke-width="8" d=" M106.87899780273438,-12.211000442504883 C106.87899780273438,57.29800033569336 57.98899841308594,115.91300201416016 -0.9610000252723694,115.91300201416016 C-59.9109992980957,115.91300201416016 -108.8010025024414,57.29800033569336 -108.8010025024414,-12.211000442504883 C-119.64800262451172,-127.76399993896484 -59.24599838256836,-174.25900268554688 -0.9610000252723694,-174.25900268554688 C55.79499816894531,-174.25900268554688 106.87899780273438,-156.12899780273438 106.87899780273438,-12.211000442504883z"></path></g><g opacity="1" transform="matrix(1,0,0,1,0,0)"><g opacity="1" transform="matrix(1,0,0,1,0,0)"><path fill="url(#__lottie_element_41)" fill-opacity="1" d=" M96.70500183105469,-50.25699996948242 C78.21099853515625,-69.21800231933594 78.052001953125,-86.62200164794922 77.15799713134766,-91.73500061035156 C76.97699737548828,-92.77200317382812 75.98600006103516,-93.45800018310547 74.96299743652344,-93.25199890136719 C-5.63700008392334,-77.03900146484375 -59.66899871826172,-97.8949966430664 -69.35900115966797,-105.03299713134766 C-70.48300170898438,-105.86100006103516 -72.34400177001953,-105.20600128173828 -72.29199981689453,-103.802001953125 C-71.41200256347656,-80.25399780273438 -97.625,-55.143001556396484 -98.8290023803711,-51.67900085449219 C-98.84700012207031,-50.305999755859375 -98.88800048828125,-23.795000076293945 -98.88800048828125,-22.121999740600586 C-98.88800048828125,40.5629997253418 -54.492000579833984,95.6989974975586 -0.9610000252723694,95.6989974975586 C52.56999969482422,95.6989974975586 96.96600341796875,40.5629997253418 96.96600341796875,-22.121999740600586 C96.96600341796875,-27.642000198364258 96.73100280761719,-49.34299850463867 96.70500183105469,-50.25699996948242z"></path></g></g></g><g style="display: block;" transform="matrix(0.9800000190734863,0,0,0.9800000190734863,280.2110595703125,294.58831787109375)" opacity="1"><g opacity="1" transform="matrix(1,0,0,1,0,0)"><path fill="rgb(255,206,1)" fill-opacity="1" d=" M-82.19200134277344,-123.8479995727539 C-82.07599639892578,-124.85600280761719 -80.93399810791016,-125.39600372314453 -80.09100341796875,-124.8219985961914 C-73.01300048828125,-120.00900268554688 -45.58399963378906,-103.68900299072266 3.4790000915527344,-101.68699645996094 C51.41299819946289,-99.73100280761719 78.8740005493164,-105.64900207519531 85.41100311279297,-107.28099822998047 C86.20800018310547,-107.4800033569336 86.98899841308594,-106.93599700927734 87.0719985961914,-106.1240005493164 C87.60299682617188,-100.91799926757812 90.12000274658203,-83.4530029296875 101.01699829101562,-65.23799896240234 C102.0009994506836,-63.59400177001953 102.5009994506836,-61.707000732421875 102.5009994506836,-59.79499816894531 C102.5009994506836,-59.79499816894531 102.5009994506836,-15.41100025177002 102.5009994506836,-15.41100025177002 C102.5009994506836,-13.895000457763672 104.00900268554688,-12.767000198364258 105.44300079345703,-13.288000106811523 C108.3010025024414,-14.326000213623047 112.51000213623047,-18.270999908447266 114.6449966430664,-31.933000564575195 C118.06099700927734,-53.79199981689453 125.6510009765625,-89.59600067138672 118.81999969482422,-121.25399780273438 C111.98899841308594,-152.91200256347656 88.24199676513672,-187.66299438476562 36.62799835205078,-196.11099243164062 C-19.572999954223633,-205.30999755859375 -77.75800323486328,-194.1269989013672 -99.4020004272461,-157.62399291992188 C-103.6500015258789,-155.17599487304688 -148.42999267578125,-121.88400268554688 -109.70500183105469,-13.63599967956543 C-109.03199768066406,-11.755000114440918 -105.29299926757812,-10.96399974822998 -105.29299926757812,-12.960000038146973 C-105.29299926757812,-12.960000038146973 -105.85399627685547,-59.37300109863281 -105.85399627685547,-59.37300109863281 C-105.85399627685547,-61.75 -105.05500030517578,-64.05500030517578 -103.61000061035156,-65.94999694824219 C-98.44100189208984,-72.72799682617188 -85.85800170898438,-92.08499908447266 -82.19200134277344,-123.8479995727539z"></path></g><g opacity="1" transform="matrix(1,0,0,1,0,0)"><path fill="url(#__lottie_element_51)" fill-opacity="1" d=" M-82.19200134277344,-123.8479995727539 C-82.07599639892578,-124.85600280761719 -80.93399810791016,-125.39600372314453 -80.09100341796875,-124.8219985961914 C-73.01300048828125,-120.00900268554688 -45.58399963378906,-103.68900299072266 3.4790000915527344,-101.68699645996094 C51.41299819946289,-99.73100280761719 78.8740005493164,-105.64900207519531 85.41100311279297,-107.28099822998047 C86.20800018310547,-107.4800033569336 86.98899841308594,-106.93599700927734 87.0719985961914,-106.1240005493164 C87.60299682617188,-100.91799926757812 90.12000274658203,-83.4530029296875 101.01699829101562,-65.23799896240234 C102.0009994506836,-63.59400177001953 102.5009994506836,-61.707000732421875 102.5009994506836,-59.79499816894531 C102.5009994506836,-59.79499816894531 102.5009994506836,-15.41100025177002 102.5009994506836,-15.41100025177002 C102.5009994506836,-13.895000457763672 104.00900268554688,-12.767000198364258 105.44300079345703,-13.288000106811523 C108.3010025024414,-14.326000213623047 112.51000213623047,-18.270999908447266 114.6449966430664,-31.933000564575195 C118.06099700927734,-53.79199981689453 125.6510009765625,-89.59600067138672 118.81999969482422,-121.25399780273438 C111.98899841308594,-152.91200256347656 88.24199676513672,-187.66299438476562 36.62799835205078,-196.11099243164062 C-19.572999954223633,-205.30999755859375 -77.75800323486328,-194.1269989013672 -99.4020004272461,-157.62399291992188 C-103.6500015258789,-155.17599487304688 -148.42999267578125,-121.88400268554688 -109.70500183105469,-13.63599967956543 C-109.03199768066406,-11.755000114440918 -105.29299926757812,-10.96399974822998 -105.29299926757812,-12.960000038146973 C-105.29299926757812,-12.960000038146973 -105.85399627685547,-59.37300109863281 -105.85399627685547,-59.37300109863281 C-105.85399627685547,-61.75 -105.05500030517578,-64.05500030517578 -103.61000061035156,-65.94999694824219 C-98.44100189208984,-72.72799682617188 -85.85800170898438,-92.08499908447266 -82.19200134277344,-123.8479995727539z"></path></g><g opacity="1" transform="matrix(1,0,0,1,0,0)"><path fill="url(#__lottie_element_52)" fill-opacity="1" d=" M113.66300201416016,-26.857999801635742 C111.38300323486328,-17.250999450683594 104.99199676513672,-9.684000015258789 104.99199676513672,-11.201000213623047 C104.99199676513672,-11.201000213623047 101.66000366210938,-61.972999572753906 101.66000366210938,-61.972999572753906 C88.58000183105469,-86.36100006103516 87.60600280761719,-97.98100280761719 87.07499694824219,-103.19100189208984 C86.98600006103516,-104.00399780273438 53.54499816894531,-95.76799774169922 5.614999771118164,-97.7239990234375 C-43.45500183105469,-99.73600006103516 -75.96199798583984,-116.09600067138672 -83.0459976196289,-120.91100311279297 C-83.88800048828125,-121.48300170898438 -79.2249984741211,-94.71199798583984 -103.61499786376953,-63.013999938964844 C-105.06400299072266,-61.13100051879883 -106.83499908447266,-11.201000213623047 -106.83499908447266,-11.201000213623047 C-112.85299682617188,-12.954000473022461 -115.04900360107422,-22.066999435424805 -117.27400207519531,-32.507999420166016 C-109.96800231933594,-8.515000343322754 -113.78800201416016,-60.72700119018555 -113.78800201416016,-60.72700119018555 C-114.59700012207031,-60.42900085449219 -116.4209976196289,-60.577999114990234 -116.4209976196289,-60.577999114990234 C-96.18699645996094,-85.70800018310547 -90.80000305175781,-113.56700134277344 -91.24500274658203,-126.59100341796875 C-91.58799743652344,-136.63400268554688 -93.00900268554688,-142.44200134277344 -96.71199798583984,-144.2760009765625 C-109.03900146484375,-150.3800048828125 -123.4280014038086,-107.6520004272461 -123.4280014038086,-107.6520004272461 C-124.3479995727539,-137.12600708007812 -104.58799743652344,-152.29800415039062 -98.5780029296875,-155.81500244140625 C-74.43599700927734,-190.15499877929688 -19.570999145507812,-205.31199645996094 36.62799835205078,-196.11099243164062 C88.24400329589844,-187.66900634765625 112.37999725341797,-164.8280029296875 120.63700103759766,-110.08100128173828 C117.06800079345703,-163.6790008544922 71.58799743652344,-190.00900268554688 3.1679999828338623,-189.89999389648438 C-50.665000915527344,-189.81399536132812 -73.13300323486328,-173.2310028076172 -81.95099639892578,-163.20700073242188 C-84.58899688720703,-160.20799255371094 -87.48100280761719,-152.76800537109375 -84.72200012207031,-147.51100158691406 C-76.16500091552734,-131.20899963378906 -46.097999572753906,-114.05999755859375 7.699999809265137,-110.9489974975586 C65.34400177001953,-107.61599731445312 107.96700286865234,-120.41200256347656 108.86399841308594,-120.68699645996094 C102.5989990234375,-115.03700256347656 97.10099792480469,-107.1240005493164 97.10099792480469,-107.1240005493164 C98.95800018310547,-80.18900299072266 114.3489990234375,-59.86199951171875 114.3489990234375,-59.86199951171875 C112.30500030517578,-59.35900115966797 110.5979995727539,-59.792999267578125 110.5979995727539,-59.792999267578125 C109.75900268554688,-18.1299991607666 113.66300201416016,-26.857999801635742 113.66300201416016,-26.857999801635742z"></path></g><g opacity="1" transform="matrix(1,0,0,1,0,0)"><path fill="url(#__lottie_element_53)" fill-opacity="0.9" d=" M-91.48699951171875,-119.58799743652344 C-89.75399780273438,-139.3179931640625 -96.0790023803711,-146.56500244140625 -97.5979995727539,-146.552001953125 C-99.98799896240234,-146.531005859375 -105.23500061035156,-142.71099853515625 -108.4990005493164,-138.4290008544922 C-119.62300109863281,-123.83699798583984 -121.58300018310547,-111.36199951171875 -121.27300262451172,-96.47899627685547 C-121.1520004272461,-90.69000244140625 -117.6989974975586,-99.26300048828125 -110.43399810791016,-112.16500091552734 C-103.3010025024414,-124.83300018310547 -91.92500305175781,-114.6050033569336 -91.48699951171875,-119.58799743652344z"></path></g><g opacity="1" transform="matrix(1,0,0,1,0,0)"><path fill="url(#__lottie_element_54)" fill-opacity="0.9" d=" M0.38100001215934753,-113.31099700927734 C-42.20600128173828,-113.30899810791016 -70.60900115966797,-127.71499633789062 -81.6500015258789,-143.35899353027344 C-83.75199890136719,-146.33700561523438 -88.31700134277344,-152.59300231933594 -86.83000183105469,-156.1699981689453 C-80.38800048828125,-171.67100524902344 -45.766998291015625,-189.21200561523438 1.5199999809265137,-189.83200073242188 C34.6619987487793,-190.26800537109375 64.35700225830078,-185.07400512695312 85.1989974975586,-165.3470001220703 C111.6520004272461,-141.48800659179688 79.75399780273438,-113.31400299072266 0.38100001215934753,-113.31099700927734z"></path></g><g opacity="1" transform="matrix(1,0,0,1,0,0)"><path stroke-linecap="round" stroke-linejoin="round" fill-opacity="0" stroke="rgb(197,92,0)" stroke-opacity="1" stroke-width="8" d=" M-82.45899963378906,-123.01000213623047 C-41.60300064086914,-97.99199676513672 26.47100067138672,-93.94999694824219 88.0479965209961,-104.9010009765625 C88.0479965209961,-104.9010009765625 87.697998046875,-85.36699676513672 101.66000366210938,-61.972999572753906 C101.64600372314453,-55.47800064086914 102.64399719238281,-14.3149995803833 102.64399719238281,-14.3149995803833 C102.64399719238281,-10.54699993133545 103.54199981689453,-8.682999610900879 109.48699951171875,-15.218999862670898 C117.71600341796875,-24.266000747680664 125.46199798583984,-80.86900329589844 120.63700103759766,-115.65399932861328 C115.44300079345703,-153.09800720214844 91.22799682617188,-199.18600463867188 1.524999976158142,-199.19000244140625 C-73.9530029296875,-199.1929931640625 -97.34700012207031,-162.8719940185547 -99.4020004272461,-157.62399291992188 C-125.32099914550781,-146.13900756835938 -133.81500244140625,-85.3010025024414 -114.54499816894531,-19.940000534057617 C-110.31500244140625,-6.4679999351501465 -105.1520004272461,-4.920000076293945 -105.03500366210938,-17.739999771118164 C-104.91799926757812,-30.559999465942383 -104.45099639892578,-62.37099838256836 -104.45099639892578,-62.37099838256836 C-104.45099639892578,-62.37099838256836 -84.61399841308594,-88.11799621582031 -82.45899963378906,-123.01000213623047z"></path></g><g opacity="1" transform="matrix(1,0,0,1,0,0)"><path stroke-linecap="round" stroke-linejoin="round" fill-opacity="0" stroke="rgb(163,65,0)" stroke-opacity="1" stroke-width="8" d=" M-104.45099639892578,-62.37099838256836 C-104.45099639892578,-62.37099838256836 -84.61399841308594,-88.11799621582031 -82.45899963378906,-123.01000213623047 C-41.60300064086914,-97.99199676513672 26.47100067138672,-93.94999694824219 88.0479965209961,-104.9010009765625 C88.0479965209961,-104.9010009765625 87.697998046875,-85.36699676513672 101.66000366210938,-61.972999572753906"></path></g></g><g style="display: block;" transform="matrix(0.9408000111579895,0,0,0.9408000111579895,280.42327880859375,294.8657531738281)" opacity="1"><g opacity="1" transform="matrix(1,0,0,1,0,1)"><path fill="url(#__lottie_element_44)" fill-opacity="1" d=" M20.9689998626709,23.378000259399414 C20.9689998626709,33.18299865722656 12.366999626159668,41.13100051879883 -0.9610000252723694,41.13100051879883 C-14.288999557495117,41.13100051879883 -22.891000747680664,33.18299865722656 -22.891000747680664,23.378000259399414 C-22.5,-3 22.625,-2.875 20.9689998626709,23.378000259399414z"></path></g><g opacity="1" transform="matrix(1,0,0,1,0,0)"><path fill="rgb(255,168,0)" fill-opacity="0.8" d=" M21.42799949645996,20.042999267578125 C21.42799949645996,29.138999938964844 11.404000282287598,36.51300048828125 -0.9610000252723694,36.51300048828125 C-13.326000213623047,36.51300048828125 -23.350000381469727,29.138999938964844 -23.350000381469727,20.042999267578125 C-23.350000381469727,10.946000099182129 -13.326000213623047,3.9600000381469727 -0.9610000252723694,3.9600000381469727 C11.404000282287598,3.9600000381469727 21.42799949645996,10.946000099182129 21.42799949645996,20.042999267578125z"></path></g><g opacity="1" transform="matrix(1,0,0,1,0,0)"><path fill="url(#__lottie_element_45)" fill-opacity="1" d=" M21.42799949645996,20.042999267578125 C21.42799949645996,29.138999938964844 11.404000282287598,36.51300048828125 -0.9610000252723694,36.51300048828125 C-13.326000213623047,36.51300048828125 -23.350000381469727,29.138999938964844 -23.350000381469727,20.042999267578125 C-23.350000381469727,10.946000099182129 -13.326000213623047,3.9600000381469727 -0.9610000252723694,3.9600000381469727 C11.404000282287598,3.9600000381469727 21.42799949645996,10.946000099182129 21.42799949645996,20.042999267578125z"></path></g><g opacity="1" transform="matrix(1,0,0,1,0,0)"><path fill="rgb(255,216,0)" fill-opacity="1" d=" M19.416000366210938,15.6899995803833 C19.416000366210938,22.461999893188477 9.736000061035156,28.9689998626709 -0.9610000252723694,28.9689998626709 C-11.657999992370605,28.9689998626709 -21.336999893188477,22.461999893188477 -21.336999893188477,15.6899995803833 C-21.336999893188477,8.918000221252441 -11.657999992370605,3.622999906539917 -0.9610000252723694,3.622999906539917 C9.736000061035156,3.622999906539917 19.416000366210938,8.918000221252441 19.416000366210938,15.6899995803833z"></path></g><g opacity="1" transform="matrix(1,0,0,1,0,0)"><path fill="url(#__lottie_element_46)" fill-opacity="1" d=" M19.416000366210938,15.6899995803833 C19.416000366210938,22.461999893188477 9.736000061035156,28.9689998626709 -0.9610000252723694,28.9689998626709 C-11.657999992370605,28.9689998626709 -21.336999893188477,22.461999893188477 -21.336999893188477,15.6899995803833 C-21.336999893188477,8.918000221252441 -11.657999992370605,3.622999906539917 -0.9610000252723694,3.622999906539917 C9.736000061035156,3.622999906539917 19.416000366210938,8.918000221252441 19.416000366210938,15.6899995803833z"></path></g><g opacity="1" transform="matrix(1,0,0,1,0,0)"><path fill="url(#__lottie_element_47)" fill-opacity="0.7000000000000001" d=" M8.130000114440918,11.319000244140625 C8.130000114440918,15.913999557495117 4.059999942779541,20.23699951171875 -0.9610000252723694,20.23699951171875 C-5.98199987411499,20.23699951171875 -10.050999641418457,15.913999557495117 -10.050999641418457,11.319000244140625 C-10.050999641418457,6.723999977111816 -5.98199987411499,4.418000221252441 -0.9610000252723694,4.418000221252441 C4.059999942779541,4.418000221252441 8.130000114440918,6.723999977111816 8.130000114440918,11.319000244140625z"></path></g></g><g style="display: block;" transform="matrix(1,0,0,1,256,256)" opacity="1"><g opacity="1" transform="matrix(1,0,0,1,0,0)"><path stroke-linecap="round" stroke-linejoin="round" fill-opacity="0" stroke="rgb(163,65,0)" stroke-opacity="1" stroke-width="11" d=" M59.81800079345703,-28.364999771118164 C59.81800079345703,-28.364999771118164 76.15499877929688,-32.1349983215332 90.95600128173828,-24.982999801635742"></path></g><g opacity="1" transform="matrix(1,0,0,1,0,0)"><path stroke-linecap="round" stroke-linejoin="round" fill-opacity="0" stroke="rgb(163,65,0)" stroke-opacity="1" stroke-width="11" d=" M-13.435999870300293,-28.364999771118164 C-13.435999870300293,-28.364999771118164 -29.773000717163086,-32.1349983215332 -44.57400131225586,-24.982999801635742"></path></g></g><g style="display: block;" transform="matrix(1,0,0,1,256,256)" opacity="1"><g opacity="1" transform="matrix(1,0,0,1,0,0)"><g opacity="1" transform="matrix(1,0,0,1,0,0)"><path fill="rgb(255,255,255)" fill-opacity="1" d=" M47.064998626708984,23.94300079345703 C47.064998626708984,23.94300079345703 45.61399841308594,7.881999969482422 57.459999084472656,-2.555000066757202 C67.63800048828125,-11.522000312805176 86.7979965209961,-10.642000198364258 96.4010009765625,0.847000002861023 C104.22000122070312,10.20199966430664 102.35900115966797,21.108999252319336 102.35900115966797,21.108999252319336 C102.35900115966797,21.108999252319336 94.5530014038086,28.21299934387207 78.52899932861328,29.093000411987305 C58.143001556396484,30.211999893188477 47.064998626708984,23.94300079345703 47.064998626708984,23.94300079345703z"></path></g><g opacity="1" transform="matrix(0.9456599950790405,0,0,0.9456599950790405,122.06290435791016,30.703954696655273)"><g opacity="1" transform="matrix(1,0,0,1,0,0)"><path fill="url(#__lottie_element_27)" fill-opacity="1" d=" M-32.805999755859375,-19.76799964904785 C-32.805999755859375,-9.526000022888184 -41.108001708984375,-1.2239999771118164 -51.349998474121094,-1.2239999771118164 C-61.59199905395508,-1.2239999771118164 -69.89399719238281,-9.526000022888184 -69.89399719238281,-19.76799964904785 C-69.89399719238281,-30.010000228881836 -61.59199905395508,-38.3120002746582 -51.349998474121094,-38.3120002746582 C-41.108001708984375,-38.3120002746582 -32.805999755859375,-30.010000228881836 -32.805999755859375,-19.76799964904785z"></path></g><g opacity="1" transform="matrix(1,0,0,1,0,0)"><g opacity="1" transform="matrix(1,0,0,1,0,0)"><path fill="url(#__lottie_element_28)" fill-opacity="1" d=" M-46.5989990234375,-2.069000005722046 C-48.04800033569336,-2.069000005722046 -49.388999938964844,-3.00600004196167 -49.8390007019043,-4.4629998207092285 C-50.39099884033203,-6.252999782562256 -49.38800048828125,-8.151000022888184 -47.597999572753906,-8.70300006866455 C-44.17399978637695,-9.758999824523926 -41.446998596191406,-12.420000076293945 -40.305999755859375,-15.819999694824219 C-39.709999084472656,-17.597000122070312 -37.784000396728516,-18.551000595092773 -36.012001037597656,-17.95599937438965 C-34.236000061035156,-17.360000610351562 -33.27899932861328,-15.437000274658203 -33.875,-13.66100025177002 C-35.70899963378906,-8.196000099182129 -40.09199905395508,-3.9189999103546143 -45.5989990234375,-2.2209999561309814 C-45.93199920654297,-2.118000030517578 -46.26900100708008,-2.069000005722046 -46.5989990234375,-2.069000005722046z"></path></g></g><g opacity="1" transform="matrix(1,0,0,1,0,0)"><path fill="rgb(24,19,9)" fill-opacity="1" d=" M-39.630001068115234,-19.76799964904785 C-39.630001068115234,-13.295000076293945 -44.87699890136719,-8.04800033569336 -51.349998474121094,-8.04800033569336 C-57.823001861572266,-8.04800033569336 -63.069000244140625,-13.295000076293945 -63.069000244140625,-19.76799964904785 C-63.069000244140625,-26.240999221801758 -57.823001861572266,-31.488000869750977 -51.349998474121094,-31.488000869750977 C-44.87699890136719,-31.488000869750977 -39.630001068115234,-26.240999221801758 -39.630001068115234,-19.76799964904785z"></path></g><g opacity="1" transform="matrix(1,0,0,1,0,0)"><path fill="url(#__lottie_element_29)" fill-opacity="1" d=" M-56.8390007019043,-25.42300033569336 C-59.297000885009766,-25.42300033569336 -61.28900146484375,-27.415000915527344 -61.28900146484375,-29.87299919128418 C-61.28900146484375,-32.33100128173828 -59.297000885009766,-34.32400131225586 -56.8390007019043,-34.32400131225586 C-54.38100051879883,-34.32400131225586 -52.38800048828125,-32.33100128173828 -52.38800048828125,-29.87299919128418 C-52.38800048828125,-27.415000915527344 -54.38100051879883,-25.42300033569336 -56.8390007019043,-25.42300033569336z"></path></g></g><g opacity="1" transform="matrix(-1,0,0,1,21.312000274658203,36.875)"><path fill="rgb(255,216,0)" fill-opacity="1" d=" M-24.929000854492188,-13.36400032043457 C-24.929000854492188,-13.36400032043457 -31.775999069213867,0.8199999928474426 -53.54499816894531,0.8240000009536743 C-75.31400299072266,0.828000009059906 -81.22599792480469,-16.048999786376953 -81.22599792480469,-16.048999786376953 C-81.22599792480469,-16.048999786376953 -72.6240005493164,-9.545999526977539 -56.7400016784668,-8.73799991607666 C-37.3120002746582,-7.75 -24.929000854492188,-13.36400032043457 -24.929000854492188,-13.36400032043457z"></path></g><g opacity="1" transform="matrix(1,0,0,1,0,0)"><path fill="rgb(163,65,0)" fill-opacity="1" d=" M47.064998626708984,23.03700065612793 C44.81100082397461,6.078000068664551 56.21099853515625,-10.395000457763672 75.19499969482422,-10.137999534606934 C92.26499938964844,-9.906999588012695 105.74500274658203,4.642000198364258 102.35900115966797,21.108999252319336 C102.72899627685547,5.820000171661377 90.98699951171875,-7.215000152587891 74.68800354003906,-7.0279998779296875 C57.180999755859375,-6.827000141143799 47.72100067138672,7.659999847412109 47.064998626708984,23.03700065612793z"></path><path stroke-linecap="round" stroke-linejoin="round" fill-opacity="0" stroke="rgb(163,65,0)" stroke-opacity="1" stroke-width="2" d=" M47.064998626708984,23.03700065612793 C44.81100082397461,6.078000068664551 56.21099853515625,-10.395000457763672 75.19499969482422,-10.137999534606934 C92.26499938964844,-9.906999588012695 105.74500274658203,4.642000198364258 102.35900115966797,21.108999252319336 C102.72899627685547,5.820000171661377 90.98699951171875,-7.215000152587891 74.68800354003906,-7.0279998779296875 C57.180999755859375,-6.827000141143799 47.72100067138672,7.659999847412109 47.064998626708984,23.03700065612793z"></path></g></g><g opacity="1" transform="matrix(1,0,0,1,0,0)"><g opacity="1" transform="matrix(1,0,0,1,0,0)"><path fill="rgb(255,255,255)" fill-opacity="1" d=" M-0.6830000281333923,23.94300079345703 C-0.6830000281333923,23.94300079345703 0.7680000066757202,7.881999969482422 -11.07800006866455,-2.555000066757202 C-21.256000518798828,-11.522000312805176 -40.41600036621094,-10.642000198364258 -50.01900100708008,0.847000002861023 C-57.8380012512207,10.20199966430664 -55.97700119018555,21.108999252319336 -55.97700119018555,21.108999252319336 C-55.97700119018555,21.108999252319336 -48.17100143432617,28.21299934387207 -32.14699935913086,29.093000411987305 C-11.76099967956543,30.211999893188477 -0.6830000281333923,23.94300079345703 -0.6830000281333923,23.94300079345703z"></path></g><g opacity="1" transform="matrix(0.9456599950790405,0,0,0.9456599950790405,21.49990463256836,30.703954696655273)"><g opacity="1" transform="matrix(1,0,0,1,0,0)"><path fill="url(#__lottie_element_30)" fill-opacity="1" d=" M-32.805999755859375,-19.76799964904785 C-32.805999755859375,-9.526000022888184 -41.108001708984375,-1.2239999771118164 -51.349998474121094,-1.2239999771118164 C-61.59199905395508,-1.2239999771118164 -69.89399719238281,-9.526000022888184 -69.89399719238281,-19.76799964904785 C-69.89399719238281,-30.010000228881836 -61.59199905395508,-38.3120002746582 -51.349998474121094,-38.3120002746582 C-41.108001708984375,-38.3120002746582 -32.805999755859375,-30.010000228881836 -32.805999755859375,-19.76799964904785z"></path></g><g opacity="1" transform="matrix(1,0,0,1,0,0)"><g opacity="1" transform="matrix(1,0,0,1,0,0)"><path fill="url(#__lottie_element_31)" fill-opacity="1" d=" M-46.5989990234375,-2.069000005722046 C-48.04800033569336,-2.069000005722046 -49.388999938964844,-3.00600004196167 -49.8390007019043,-4.4629998207092285 C-50.39099884033203,-6.252999782562256 -49.38800048828125,-8.151000022888184 -47.597999572753906,-8.70300006866455 C-44.17399978637695,-9.758999824523926 -41.446998596191406,-12.420000076293945 -40.305999755859375,-15.819999694824219 C-39.709999084472656,-17.597000122070312 -37.784000396728516,-18.551000595092773 -36.012001037597656,-17.95599937438965 C-34.236000061035156,-17.360000610351562 -33.27899932861328,-15.437000274658203 -33.875,-13.66100025177002 C-35.70899963378906,-8.196000099182129 -40.09199905395508,-3.9189999103546143 -45.5989990234375,-2.2209999561309814 C-45.93199920654297,-2.118000030517578 -46.26900100708008,-2.069000005722046 -46.5989990234375,-2.069000005722046z"></path></g></g><g opacity="1" transform="matrix(1,0,0,1,0,0)"><path fill="rgb(24,19,9)" fill-opacity="1" d=" M-39.630001068115234,-19.76799964904785 C-39.630001068115234,-13.295000076293945 -44.87699890136719,-8.04800033569336 -51.349998474121094,-8.04800033569336 C-57.823001861572266,-8.04800033569336 -63.069000244140625,-13.295000076293945 -63.069000244140625,-19.76799964904785 C-63.069000244140625,-26.240999221801758 -57.823001861572266,-31.488000869750977 -51.349998474121094,-31.488000869750977 C-44.87699890136719,-31.488000869750977 -39.630001068115234,-26.240999221801758 -39.630001068115234,-19.76799964904785z"></path></g><g opacity="1" transform="matrix(1,0,0,1,0,0)"><path fill="url(#__lottie_element_32)" fill-opacity="1" d=" M-56.8390007019043,-25.42300033569336 C-59.297000885009766,-25.42300033569336 -61.28900146484375,-27.415000915527344 -61.28900146484375,-29.87299919128418 C-61.28900146484375,-32.33100128173828 -59.297000885009766,-34.32400131225586 -56.8390007019043,-34.32400131225586 C-54.38100051879883,-34.32400131225586 -52.38800048828125,-32.33100128173828 -52.38800048828125,-29.87299919128418 C-52.38800048828125,-27.415000915527344 -54.38100051879883,-25.42300033569336 -56.8390007019043,-25.42300033569336z"></path></g></g><g opacity="1" transform="matrix(1,0,0,1,25.062000274658203,36.875)"><path fill="rgb(255,216,0)" fill-opacity="1" d=" M-24.929000854492188,-13.36400032043457 C-24.929000854492188,-13.36400032043457 -31.775999069213867,0.8199999928474426 -53.54499816894531,0.8240000009536743 C-75.31400299072266,0.828000009059906 -81.22599792480469,-16.048999786376953 -81.22599792480469,-16.048999786376953 C-81.22599792480469,-16.048999786376953 -72.6240005493164,-9.545999526977539 -56.7400016784668,-8.73799991607666 C-37.3120002746582,-7.75 -24.929000854492188,-13.36400032043457 -24.929000854492188,-13.36400032043457z"></path></g><g opacity="1" transform="matrix(1,0,0,1,0,0)"><path fill="rgb(163,65,0)" fill-opacity="1" d=" M-0.5899999737739563,23.16200065612793 C1.6640000343322754,6.203000068664551 -9.829000473022461,-10.395000457763672 -28.812999725341797,-10.137999534606934 C-45.882999420166016,-9.906999588012695 -59.362998962402344,4.642000198364258 -55.97700119018555,21.108999252319336 C-56.34700012207031,5.820000171661377 -44.60499954223633,-7.215000152587891 -28.305999755859375,-7.0279998779296875 C-10.798999786376953,-6.827000141143799 -1.246000051498413,7.784999847412109 -0.5899999737739563,23.16200065612793z"></path><path stroke-linecap="round" stroke-linejoin="round" fill-opacity="0" stroke="rgb(163,65,0)" stroke-opacity="1" stroke-width="2" d=" M-0.5899999737739563,23.16200065612793 C1.6640000343322754,6.203000068664551 -9.829000473022461,-10.395000457763672 -28.812999725341797,-10.137999534606934 C-45.882999420166016,-9.906999588012695 -59.362998962402344,4.642000198364258 -55.97700119018555,21.108999252319336 C-56.34700012207031,5.820000171661377 -44.60499954223633,-7.215000152587891 -28.305999755859375,-7.0279998779296875 C-10.798999786376953,-6.827000141143799 -1.246000051498413,7.784999847412109 -0.5899999737739563,23.16200065612793z"></path></g></g></g><g style="display: block;" transform="matrix(1,0,0,1,257,256)" opacity="1"><g opacity="1" transform="matrix(1,0,0,1,0,0)"><path fill="url(#__lottie_element_20)" fill-opacity="0.5" d=" M54.65299987792969,103.61599731445312 C54.65299987792969,107.91300201416016 38.875,118.46099853515625 22.621000289916992,118.46099853515625 C6.367000102996826,118.46099853515625 -9.41100025177002,108.61799621582031 -9.41100025177002,104.48300170898438 C-9.41100025177002,99.62200164794922 2.128000020980835,109.74099731445312 22.16900062561035,109.74099731445312 C42.75699996948242,109.74099731445312 54.65299987792969,98.85800170898438 54.65299987792969,103.61599731445312z"></path></g><g opacity="1" transform="matrix(1.1884100437164307,0,0,1,-4.1921234130859375,0)"><path fill="url(#__lottie_element_21)" fill-opacity="0.7000000000000001" d=" M56.9630012512207,85.36199951171875 C56.9630012512207,93.3239974975586 45.43600082397461,109.74099731445312 22.250999450683594,109.74099731445312 C-1.0049999952316284,109.74099731445312 -12.460000038146973,93.3239974975586 -12.460000038146973,85.36199951171875 C-12.460000038146973,85.36199951171875 56.9630012512207,85.36199951171875 56.9630012512207,85.36199951171875z"></path></g><g opacity="1" transform="matrix(1,0,0,1,0,0)"><g opacity="1" transform="matrix(1,0,0,1,0,0)"><path fill="rgb(136,24,4)" fill-opacity="1" d=" M-18.302000045776367,86.50299835205078 C-18.302000045776367,86.50299835205078 63.54399871826172,86.50299835205078 63.54399871826172,86.50299835205078 C63.54399871826172,86.50299835205078 52.75699996948242,105.42500305175781 22.621000289916992,105.42500305175781 C-7.514999866485596,105.42500305175781 -18.302000045776367,86.50299835205078 -18.302000045776367,86.50299835205078z"></path></g><g opacity="1" transform="matrix(1,0,0,1,0,0)"><path fill="url(#__lottie_element_22)" fill-opacity="1" d=" M-18.302000045776367,86.50299835205078 C-18.302000045776367,86.50299835205078 63.54399871826172,86.50299835205078 63.54399871826172,86.50299835205078 C63.54399871826172,86.50299835205078 52.75699996948242,105.42500305175781 22.621000289916992,105.42500305175781 C-7.514999866485596,105.42500305175781 -18.302000045776367,86.50299835205078 -18.302000045776367,86.50299835205078z"></path></g><g opacity="1" transform="matrix(1,0,0,1,0,0)"><path fill="url(#__lottie_element_23)" fill-opacity="1" d=" M-18.302000045776367,86.50299835205078 C-18.302000045776367,86.50299835205078 63.54399871826172,86.50299835205078 63.54399871826172,86.50299835205078 C63.54399871826172,86.50299835205078 58.70399856567383,88.0999984741211 58.70399856567383,88.0999984741211 C51.17399978637695,91.90699768066406 42.35900115966797,95.4219970703125 22.621000289916992,95.5260009765625 C2.871000051498413,95.62999725341797 -5.947000026702881,92.13099670410156 -13.475000381469727,88.27999877929688 C-13.475000381469727,88.27999877929688 -18.302000045776367,86.50299835205078 -18.302000045776367,86.50299835205078z"></path></g><g opacity="1" transform="matrix(1,0,0,1,0,0)"><path stroke-linecap="round" stroke-linejoin="round" fill-opacity="0" stroke="rgb(88,11,14)" stroke-opacity="1" stroke-width="4" d=" M-16.54400062561035,86.67900085449219 C-16.54400062561035,86.67900085449219 62.069000244140625,86.67900085449219 62.069000244140625,86.67900085449219"></path></g></g></g><g style="display: block;" transform="matrix(1,0,0,1,256,255.99998474121094)" opacity="1"><g opacity="1" transform="matrix(1,0,0,1,0,0)"><path fill="rgb(51,142,218)" fill-opacity="1" d=" M-22.253999710083008,155.18600463867188 C-73.28299713134766,139.78199768066406 -101.7300033569336,72.96700286865234 -102.16400146484375,60.895999908447266 C-102.61900329589844,48.24300003051758 -92.05699920654297,-45.430999755859375 -92.3030014038086,-53.06999969482422 C-92.54900360107422,-60.70899963378906 -96.65399932861328,-70.20099639892578 -103.30899810791016,-71.9020004272461 C-108.0719985961914,-73.11900329589844 -140.62899780273438,-78.57099914550781 -151.2689971923828,-78.16100311279297 C-161.90899658203125,-77.7509994506836 -169.78700256347656,-72.60199737548828 -172,-63.29399871826172 C-173.6230010986328,-56.470001220703125 -195.22900390625,71.48899841308594 -182.88699340820312,111.99700164794922 C-167.4759979248047,162.58099365234375 -109.8499984741211,216.14100646972656 -109.8499984741211,216.14100646972656 C-109.8499984741211,216.14100646972656 -101.44599914550781,218.92100524902344 -93.73699951171875,218.91700744628906 C-86.02799987792969,218.91299438476562 -22.253999710083008,218.9320068359375 -22.253999710083008,218.9320068359375 C-22.253999710083008,218.9320068359375 -22.253999710083008,155.18600463867188 -22.253999710083008,155.18600463867188z"></path></g><g opacity="1" transform="matrix(1,0,0,1,0,0)"><path fill="url(#__lottie_element_14)" fill-opacity="1" d=" M-102.16400146484375,60.895999908447266 C-102.61900329589844,48.24300003051758 -92.05699920654297,-45.430999755859375 -92.3030014038086,-53.06999969482422 C-92.54900360107422,-60.70899963378906 -96.65399932861328,-70.20099639892578 -103.30899810791016,-71.9020004272461 C-108.0719985961914,-73.11900329589844 -140.6280059814453,-78.57099914550781 -151.26800537109375,-78.16100311279297 C-161.9080047607422,-77.7509994506836 -169.78700256347656,-72.60199737548828 -172,-63.29399871826172 C-173.6230010986328,-56.470001220703125 -195.22900390625,71.48899841308594 -182.88699340820312,111.99700164794922 C-167.4759979248047,162.58099365234375 -119.31300354003906,210.11700439453125 -119.31300354003906,210.11700439453125 C-119.31300354003906,210.11700439453125 -111.16300201416016,218.93099975585938 -93.73699951171875,218.91700744628906 C-90.98699951171875,218.9149932861328 -58.69300079345703,218.89100646972656 -18.285999298095703,218.86099243164062 C54.56399917602539,218.8070068359375 153.78599548339844,218.73399353027344 153.78599548339844,218.73399353027344 C162.9969940185547,218.5070037841797 173.1439971923828,215.50100708007812 177.1179962158203,209.04299926757812 C154.36900329589844,176.4409942626953 143.28500366210938,178.53799438476562 117.4000015258789,170.9239959716797 C117.4000015258789,170.9239959716797 67.12300109863281,152.7760009765625 67.12300109863281,152.7760009765625 C67.12300109863281,152.7760009765625 48.64699935913086,168.1439971923828 28.28700065612793,169.53399658203125 C7.927000045776367,170.9239959716797 -14.998000144958496,155.18600463867188 -14.998000144958496,155.18600463867188 C-66.9990005493164,141.91000366210938 -101.7300033569336,72.96700286865234 -102.16400146484375,60.895999908447266z"></path></g><g opacity="1" transform="matrix(1,0,0,1,0,0)"><path fill="url(#__lottie_element_15)" fill-opacity="1" d=" M-11.553000450134277,159.81500244140625 C-102.94300079345703,161.55799865722656 -123.41000366210938,90.1050033569336 -126.87799835205078,70.36699676513672 C-132.52999877929688,38.20000076293945 -125.15599822998047,-29.95199966430664 -110.5780029296875,-65.66000366210938 C-102.93499755859375,-67.8290023803711 -96.68800354003906,-66.68099975585938 -93.19100189208984,-58.99599838256836 C-93.19100189208984,-58.99599838256836 -102.1760025024414,59.83300018310547 -102.1760025024414,59.83300018310547 C-85.59500122070312,98.87300109863281 -63.79199981689453,134.8159942626953 -11.553000450134277,159.81500244140625z"></path></g><g opacity="1" transform="matrix(1,0,0,1,0,0)"><path fill="url(#__lottie_element_16)" fill-opacity="1" d=" M-13.211999893188477,218.01699829101562 C-14,218.875 -20.474000930786133,217.9320068359375 -98.18499755859375,219.11500549316406 C-115.25,219.375 -124.875,203.5 -149.28399658203125,169.01699829101562 C-184.375,128.875 -185.25,73.625 -181.18499755859375,73.41799926757812 C-100.5,69.125 -13.211999893188477,140.2969970703125 -13.211999893188477,218.01699829101562z"></path></g><g opacity="1" transform="matrix(1,0,0,1,0,0)"><path stroke-linecap="round" stroke-linejoin="round" fill-opacity="0" stroke="rgb(2,77,140)" stroke-opacity="1" stroke-width="8" d=" M-112.01499938964844,210.93600463867188 C-123.04199981689453,202.96800231933594 -169.0850067138672,162.86700439453125 -182.88699340820312,111.99700164794922 C-193.97500610351562,71.12799835205078 -173.6230010986328,-56.470001220703125 -172,-63.29399871826172 C-169.78700256347656,-72.60199737548828 -161.90899658203125,-77.7509994506836 -151.2689971923828,-78.16100311279297 C-140.62899780273438,-78.57099914550781 -108.0719985961914,-73.11900329589844 -103.30899810791016,-71.9020004272461 C-96.65399932861328,-70.20099639892578 -92.54900360107422,-60.70899963378906 -92.3030014038086,-53.06999969482422 C-92.05699920654297,-45.430999755859375 -102.61900329589844,48.24300003051758 -102.16400146484375,60.895999908447266 C-101.7300033569336,72.96700286865234 -69.18099975585938,136.8979949951172 -18.285999298095703,154.26600646972656"></path></g></g><g style="display: block;" transform="matrix(1,0,0,1,256,256)" opacity="1"><g opacity="1" transform="matrix(1,0,0,1,0,0)"><path stroke-linecap="round" stroke-linejoin="round" fill-opacity="0" stroke="rgb(51,142,218)" stroke-opacity="1" stroke-width="9" d=" M-107.37699890136719,-66.63200378417969 C-107.37699890136719,-66.63200378417969 -129.2830047607422,-61.01100158691406 -152.49600219726562,-73.90399932861328"></path></g><g opacity="1" transform="matrix(1,0,0,1,0,0)"><g opacity="1" transform="matrix(1,0,0,1,0,0)"><path fill="rgb(255,168,0)" fill-opacity="1" d=" M-150.66600036621094,-90.55799865722656 C-150.66600036621094,-90.55799865722656 -163.7169952392578,-113.86799621582031 -161.89199829101562,-138.21800231933594 C-161.16200256347656,-147.96400451660156 -167.50100708007812,-182.0019989013672 -167.5019989013672,-185.89500427246094 C-167.5050048828125,-198.58200073242188 -157.10000610351562,-197.0469970703125 -155.36099243164062,-188.55499267578125 C-154.0469970703125,-182.13699340820312 -149.5290069580078,-154.9290008544922 -144.6179962158203,-155.61099243164062 C-141.21600341796875,-156.08399963378906 -146.71600341796875,-202.5659942626953 -146.7449951171875,-204.16400146484375 C-146.9709930419922,-216.5030059814453 -133.2270050048828,-216.41700744628906 -132.5850067138672,-204.92100524902344 C-132.18899536132812,-197.82899475097656 -130.1929931640625,-160.21400451660156 -126.87799835205078,-160.11199951171875 C-123.72200012207031,-160.01499938964844 -120.88400268554688,-205.2469940185547 -120.31900024414062,-213.4429931640625 C-119.60299682617188,-223.8350067138672 -106.06500244140625,-223.375 -105.97899627685547,-212.06900024414062 C-105.93000030517578,-205.6750030517578 -111.5719985961914,-158.5780029296875 -109.01399993896484,-157.8939971923828 C-107.13999938964844,-157.39300537109375 -96.47899627685547,-192.09500122070312 -93.60700225830078,-199.4510040283203 C-90.32499694824219,-207.85800170898438 -79.31700134277344,-205.12899780273438 -80.7760009765625,-195.92100524902344 C-82.23500061035156,-186.71299743652344 -94.37799835205078,-152.59800720214844 -95.0999984741211,-146.55299377441406 C-95.49400329589844,-143.2550048828125 -98.23200225830078,-128.52200317382812 -88.552001953125,-126.96399688720703 C-78.06500244140625,-125.2760009765625 -70.12799835205078,-140.45199584960938 -64.33000183105469,-144.4080047607422 C-56.084999084472656,-150.03399658203125 -43.49599838256836,-144.6280059814453 -53.76599884033203,-133.51300048828125 C-61.72200012207031,-124.90299987792969 -64.93800354003906,-118.48200225830078 -68.90799713134766,-111.33599853515625 C-72.87799835205078,-104.19000244140625 -87.27799987792969,-94.74700164794922 -101.28500366210938,-88.40399932861328 C-104.31300354003906,-86.33399963378906 -104.21700286865234,-77.76599884033203 -104.21700286865234,-77.76599884033203 C-104.21700286865234,-77.76599884033203 -142.75399780273438,-72.89800262451172 -150.66600036621094,-90.55799865722656z"></path></g><g opacity="1" transform="matrix(1,0,0,1,0,0)"><path fill="url(#__lottie_element_9)" fill-opacity="1" d=" M-150.66600036621094,-90.55799865722656 C-150.66600036621094,-90.55799865722656 -163.7169952392578,-113.86799621582031 -161.89199829101562,-138.21800231933594 C-161.16200256347656,-147.96400451660156 -167.50100708007812,-182.0019989013672 -167.5019989013672,-185.89500427246094 C-167.5050048828125,-198.58200073242188 -157.10000610351562,-197.0469970703125 -155.36099243164062,-188.55499267578125 C-154.0469970703125,-182.13699340820312 -149.5290069580078,-154.9290008544922 -144.6179962158203,-155.61099243164062 C-141.21600341796875,-156.08399963378906 -146.71600341796875,-202.5659942626953 -146.7449951171875,-204.16400146484375 C-146.9709930419922,-216.5030059814453 -133.2270050048828,-216.41700744628906 -132.5850067138672,-204.92100524902344 C-132.18899536132812,-197.82899475097656 -130.1929931640625,-160.21400451660156 -126.87799835205078,-160.11199951171875 C-123.72200012207031,-160.01499938964844 -120.88400268554688,-205.2469940185547 -120.31900024414062,-213.4429931640625 C-119.60299682617188,-223.8350067138672 -106.06500244140625,-223.375 -105.97899627685547,-212.06900024414062 C-105.93000030517578,-205.6750030517578 -111.5719985961914,-158.5780029296875 -109.01399993896484,-157.8939971923828 C-107.13999938964844,-157.39300537109375 -96.47899627685547,-192.09500122070312 -93.60700225830078,-199.4510040283203 C-90.32499694824219,-207.85800170898438 -79.31700134277344,-205.12899780273438 -80.7760009765625,-195.92100524902344 C-82.23500061035156,-186.71299743652344 -94.37799835205078,-152.59800720214844 -95.0999984741211,-146.55299377441406 C-95.49400329589844,-143.2550048828125 -98.23200225830078,-128.52200317382812 -88.552001953125,-126.96399688720703 C-78.06500244140625,-125.2760009765625 -70.12799835205078,-140.45199584960938 -64.33000183105469,-144.4080047607422 C-56.084999084472656,-150.03399658203125 -43.49599838256836,-144.6280059814453 -53.76599884033203,-133.51300048828125 C-61.72200012207031,-124.90299987792969 -64.93800354003906,-118.48200225830078 -68.90799713134766,-111.33599853515625 C-72.87799835205078,-104.19000244140625 -87.27799987792969,-94.74700164794922 -101.28500366210938,-88.40399932861328 C-104.31300354003906,-86.33399963378906 -104.21700286865234,-77.76599884033203 -104.21700286865234,-77.76599884033203 C-104.21700286865234,-77.76599884033203 -151.875,-75.5 -150.66600036621094,-90.55799865722656z"></path></g><g opacity="1" transform="matrix(1,0,0,1,0,0)"><path stroke-linecap="round" stroke-linejoin="round" fill-opacity="0" stroke="rgb(219,110,0)" stroke-opacity="1" stroke-width="8" d=" M-150.66600036621094,-90.55799865722656 C-150.66600036621094,-90.55799865722656 -163.7169952392578,-113.86799621582031 -161.89199829101562,-138.21800231933594 C-161.16200256347656,-147.96400451660156 -167.50100708007812,-182.0019989013672 -167.5019989013672,-185.89500427246094 C-167.5050048828125,-198.58200073242188 -157.10000610351562,-197.0469970703125 -155.36099243164062,-188.55499267578125 C-154.0469970703125,-182.13699340820312 -149.5290069580078,-154.9290008544922 -144.6179962158203,-155.61099243164062 C-141.21600341796875,-156.08399963378906 -146.71600341796875,-202.5659942626953 -146.7449951171875,-204.16400146484375 C-146.9709930419922,-216.5030059814453 -133.2270050048828,-216.41700744628906 -132.5850067138672,-204.92100524902344 C-132.18899536132812,-197.82899475097656 -130.1929931640625,-160.21400451660156 -126.87799835205078,-160.11199951171875 C-123.72200012207031,-160.01499938964844 -120.88400268554688,-205.2469940185547 -120.31900024414062,-213.4429931640625 C-119.60299682617188,-223.8350067138672 -106.06500244140625,-223.375 -105.97899627685547,-212.06900024414062 C-105.93000030517578,-205.6750030517578 -111.5719985961914,-158.5780029296875 -109.01399993896484,-157.8939971923828 C-107.13999938964844,-157.39300537109375 -96.47899627685547,-192.09500122070312 -93.60700225830078,-199.4510040283203 C-90.32499694824219,-207.85800170898438 -79.31700134277344,-205.12899780273438 -80.7760009765625,-195.92100524902344 C-82.23500061035156,-186.71299743652344 -94.37799835205078,-152.59800720214844 -95.0999984741211,-146.55299377441406 C-95.49400329589844,-143.2550048828125 -98.23200225830078,-128.52200317382812 -88.552001953125,-126.96399688720703 C-78.06500244140625,-125.2760009765625 -70.12799835205078,-140.45199584960938 -64.33000183105469,-144.4080047607422 C-56.084999084472656,-150.03399658203125 -43.49599838256836,-144.6280059814453 -53.76599884033203,-133.51300048828125 C-61.72200012207031,-124.90299987792969 -64.93800354003906,-118.48200225830078 -68.90799713134766,-111.33599853515625 C-72.87799835205078,-104.19000244140625 -87.27799987792969,-94.74700164794922 -101.28500366210938,-88.40399932861328 C-104.31300354003906,-86.33399963378906 -104.21700286865234,-77.76599884033203 -104.21700286865234,-77.76599884033203 C-104.21700286865234,-77.76599884033203 -151.25,-77.25 -150.66600036621094,-90.55799865722656z"></path></g><g opacity="1" transform="matrix(1.0722371339797974,-0.04730238392949104,0.048554930835962296,1.100629448890686,16.253952026367188,8.640853881835938)"><path fill="url(#__lottie_element_10)" fill-opacity="0.3" d=" M-150.2760009765625,-139.7530059814453 C-152.57200622558594,-144.24400329589844 -143.80499267578125,-150.91799926757812 -129.84800720214844,-151.66600036621094 C-113.87200164794922,-152.52200317382812 -102.42500305175781,-149.4340057373047 -103.7249984741211,-143.843994140625 C-105.02100372314453,-138.2729949951172 -114.8280029296875,-140.68699645996094 -126.9209976196289,-139.91099548339844 C-139.01400756835938,-139.13499450683594 -147.3699951171875,-134.0679931640625 -150.2760009765625,-139.7530059814453z"></path></g></g><g opacity="1" transform="matrix(1,0,0,1,0,0)"><path fill="rgb(0,66,137)" fill-opacity="1" d=" M-153.99600219726562,-87.72799682617188 C-153.99600219726562,-87.72799682617188 -132.88999938964844,-73.7490005493164 -101.26300048828125,-80.58200073242188 C-99.91500091552734,-73.04499816894531 -104.46600341796875,-69.5260009765625 -104.46600341796875,-69.5260009765625 C-104.46600341796875,-69.5260009765625 -129.06199645996094,-63.85200119018555 -152.55099487304688,-76.23400115966797 C-156.82200622558594,-82.38500213623047 -153.99600219726562,-87.72799682617188 -153.99600219726562,-87.72799682617188z"></path><path stroke-linecap="round" stroke-linejoin="round" fill-opacity="0" stroke="rgb(0,40,79)" stroke-opacity="1" stroke-width="8" d=" M-153.99600219726562,-87.72799682617188 C-153.99600219726562,-87.72799682617188 -132.88999938964844,-73.7490005493164 -101.26300048828125,-80.58200073242188 C-99.91500091552734,-73.04499816894531 -104.46600341796875,-69.5260009765625 -104.46600341796875,-69.5260009765625 C-104.46600341796875,-69.5260009765625 -129.06199645996094,-63.85200119018555 -152.55099487304688,-76.23400115966797 C-156.82200622558594,-82.38500213623047 -153.99600219726562,-87.72799682617188 -153.99600219726562,-87.72799682617188z"></path></g></g><g style="display: block;" transform="matrix(1,0,0,1,256,256)" opacity="1"><g opacity="1" transform="matrix(1,0,0,1,0,0)"><path stroke-linecap="round" stroke-linejoin="round" fill-opacity="0" stroke="rgb(0,40,79)" stroke-opacity="1" stroke-width="8" d=" M67.12300109863281,152.7760009765625 C61.99300003051758,158.97799682617188 46.051998138427734,168.77499389648438 24.54199981689453,168.04200744628906 C4.802999973297119,167.36900329589844 -10.76200008392334,156.61399841308594 -16.003999710083008,152.19200134277344"></path></g></g></g></svg>