<svg xmlns="http://www.w3.org/2000/svg" xmlns:xlink="http://www.w3.org/1999/xlink" viewBox="0 0 512 512" width="512" height="512" style="width: 100%; height: 100%; transform: translate3d(0,0,0); content-visibility: visible;" preserveAspectRatio="xMidYMid meet"><defs><clipPath id="__lottie_element_2"><rect width="512" height="512" x="0" y="0"></rect></clipPath><radialGradient id="__lottie_element_6" spreadMethod="pad" gradientUnits="userSpaceOnUse" cx="2.76200008392334" cy="229.9429931640625" r="68.64399814605713" fx="2.76200008392334" fy="229.9429931640625"><stop offset="0%" stop-color="rgb(190,194,198)"></stop><stop offset="50%" stop-color="rgb(143,147,150)"></stop><stop offset="100%" stop-color="rgb(96,100,102)"></stop></radialGradient><radialGradient id="__lottie_element_7" spreadMethod="pad" gradientUnits="userSpaceOnUse" cx="119.76200103759766" cy="89.94300079345703" r="114.14744882538446" fx="119.76200103759766" fy="89.94300079345703"><stop offset="17%" stop-color="rgb(190,194,198)"></stop><stop offset="83%" stop-color="rgb(143,147,150)"></stop><stop offset="100%" stop-color="rgb(96,100,102)"></stop></radialGradient><linearGradient id="__lottie_element_8" spreadMethod="pad" gradientUnits="userSpaceOnUse" x1="-135.23800659179688" y1="-35.055999755859375" x2="-166.38299560546875" y2="-3.9110000133514404"><stop offset="41%" stop-color="rgb(219,110,0)" stop-opacity="0"></stop><stop offset="65%" stop-color="rgb(219,110,0)" stop-opacity="0.5"></stop><stop offset="88%" stop-color="rgb(219,110,0)" stop-opacity="1"></stop></linearGradient><radialGradient id="__lottie_element_9" spreadMethod="pad" gradientUnits="userSpaceOnUse" cx="63.03099822998047" cy="74.56199645996094" r="91.89071358258252" fx="63.03099822998047" fy="74.56199645996094"><stop offset="22%" stop-color="rgb(190,194,198)"></stop><stop offset="87%" stop-color="rgb(143,147,150)"></stop><stop offset="100%" stop-color="rgb(96,100,102)"></stop></radialGradient><linearGradient id="__lottie_element_10" spreadMethod="pad" gradientUnits="userSpaceOnUse" x1="-95.23799896240234" y1="48.444000244140625" x2="-137.51100158691406" y2="211.65499877929688"><stop offset="23%" stop-color="rgb(255,255,255)" stop-opacity="1"></stop><stop offset="62%" stop-color="rgb(255,255,255)" stop-opacity="0.5"></stop><stop offset="100%" stop-color="rgb(255,255,255)" stop-opacity="0"></stop></linearGradient><linearGradient id="__lottie_element_11" spreadMethod="pad" gradientUnits="userSpaceOnUse" x1="-27.738000869750977" y1="24.444000244140625" x2="14.387999534606934" y2="98.51799774169922"><stop offset="23%" stop-color="rgb(255,255,255)" stop-opacity="1"></stop><stop offset="62%" stop-color="rgb(255,255,255)" stop-opacity="0.5"></stop><stop offset="100%" stop-color="rgb(255,255,255)" stop-opacity="0"></stop></linearGradient><linearGradient id="__lottie_element_12" spreadMethod="pad" gradientUnits="userSpaceOnUse" x1="-41.237998962402344" y1="126.94300079345703" x2="-64.31300354003906" y2="148.0959930419922"><stop offset="0%" stop-color="rgb(72,75,76)" stop-opacity="1"></stop><stop offset="44%" stop-color="rgb(72,75,76)" stop-opacity="0.5099999904632568"></stop><stop offset="100%" stop-color="rgb(72,75,76)" stop-opacity="0.019999999552965164"></stop></linearGradient><linearGradient id="__lottie_element_13" spreadMethod="pad" gradientUnits="userSpaceOnUse" x1="-135.23800659179688" y1="-35.055999755859375" x2="-166.38299560546875" y2="-3.9110000133514404"><stop offset="41%" stop-color="rgb(219,110,0)" stop-opacity="0"></stop><stop offset="65%" stop-color="rgb(219,110,0)" stop-opacity="0.5"></stop><stop offset="88%" stop-color="rgb(219,110,0)" stop-opacity="1"></stop></linearGradient><radialGradient id="__lottie_element_14" spreadMethod="pad" gradientUnits="userSpaceOnUse" cx="65.76200103759766" cy="71.94300079345703" r="90.88167857986576" fx="65.76200103759766" fy="71.94300079345703"><stop offset="22%" stop-color="rgb(190,194,198)"></stop><stop offset="87%" stop-color="rgb(143,147,150)"></stop><stop offset="100%" stop-color="rgb(96,100,102)"></stop></radialGradient><linearGradient id="__lottie_element_15" spreadMethod="pad" gradientUnits="userSpaceOnUse" x1="121.51200103759766" y1="63.94300079345703" x2="161.46200561523438" y2="199.43499755859375"><stop offset="23%" stop-color="rgb(255,255,255)" stop-opacity="1"></stop><stop offset="62%" stop-color="rgb(255,255,255)" stop-opacity="0.5"></stop><stop offset="100%" stop-color="rgb(255,255,255)" stop-opacity="0"></stop></linearGradient><linearGradient id="__lottie_element_16" spreadMethod="pad" gradientUnits="userSpaceOnUse" x1="29.761999130249023" y1="31.944000244140625" x2="1.8880000114440918" y2="99.51799774169922"><stop offset="23%" stop-color="rgb(255,255,255)" stop-opacity="1"></stop><stop offset="62%" stop-color="rgb(255,255,255)" stop-opacity="0.5"></stop><stop offset="100%" stop-color="rgb(255,255,255)" stop-opacity="0"></stop></linearGradient><linearGradient id="__lottie_element_21" spreadMethod="pad" gradientUnits="userSpaceOnUse" x1="-17.926000595092773" y1="-141.58200073242188" x2="-4.585000038146973" y2="-9.946000099182129"><stop offset="0%" stop-color="rgb(219,110,0)" stop-opacity="1"></stop><stop offset="38%" stop-color="rgb(219,110,0)" stop-opacity="0.5"></stop><stop offset="71%" stop-color="rgb(219,110,0)" stop-opacity="0"></stop></linearGradient><linearGradient id="__lottie_element_22" spreadMethod="pad" gradientUnits="userSpaceOnUse" x1="-1.9259999990463257" y1="-64.58200073242188" x2="-1.9259999990463257" y2="179.83099365234375"><stop offset="0%" stop-color="rgb(255,216,0)" stop-opacity="0"></stop><stop offset="11%" stop-color="rgb(255,216,0)" stop-opacity="0.5"></stop><stop offset="45%" stop-color="rgb(255,216,0)" stop-opacity="1"></stop><stop offset="90%" stop-color="rgb(255,216,0)" stop-opacity="0.5"></stop><stop offset="100%" stop-color="rgb(255,216,0)" stop-opacity="0"></stop></linearGradient><linearGradient id="__lottie_element_25" spreadMethod="pad" gradientUnits="userSpaceOnUse" x1="-0.9259999990463257" y1="-139.58200073242188" x2="0.375" y2="-1.9279999732971191"><stop offset="10%" stop-color="rgb(255,169,0)" stop-opacity="0"></stop><stop offset="55%" stop-color="rgb(255,169,0)" stop-opacity="0.5"></stop><stop offset="100%" stop-color="rgb(255,169,0)" stop-opacity="1"></stop></linearGradient><linearGradient id="__lottie_element_26" spreadMethod="pad" gradientUnits="userSpaceOnUse" x1="5.073999881744385" y1="-7.581999778747559" x2="5.073999881744385" y2="-150.54200744628906"><stop offset="8%" stop-color="rgb(218,110,0)" stop-opacity="0.30000001192092896"></stop><stop offset="27%" stop-color="rgb(218,110,0)" stop-opacity="0.6499999761581421"></stop><stop offset="65%" stop-color="rgb(218,110,0)" stop-opacity="1"></stop><stop offset="82%" stop-color="rgb(218,110,0)" stop-opacity="0.5"></stop><stop offset="100%" stop-color="rgb(218,110,0)" stop-opacity="0"></stop></linearGradient><linearGradient id="__lottie_element_27" spreadMethod="pad" gradientUnits="userSpaceOnUse" x1="24.073999404907227" y1="-186.58200073242188" x2="24.440000534057617" y2="-109.05799865722656"><stop offset="0%" stop-color="rgb(255,255,255)" stop-opacity="1"></stop><stop offset="50%" stop-color="rgb(255,255,255)" stop-opacity="0.5"></stop><stop offset="100%" stop-color="rgb(255,255,255)" stop-opacity="0"></stop></linearGradient><linearGradient id="__lottie_element_28" spreadMethod="pad" gradientUnits="userSpaceOnUse" x1="-149.92599487304688" y1="-140.58200073242188" x2="-133.92100524902344" y2="-93.08399963378906"><stop offset="0%" stop-color="rgb(255,255,255)" stop-opacity="1"></stop><stop offset="50%" stop-color="rgb(255,255,255)" stop-opacity="0.5"></stop><stop offset="100%" stop-color="rgb(255,255,255)" stop-opacity="0"></stop></linearGradient><linearGradient id="__lottie_element_32" spreadMethod="pad" gradientUnits="userSpaceOnUse" x1="-0.35600000619888306" y1="69.75399780273438" x2="-0.35600000619888306" y2="86.26399993896484"><stop offset="0%" stop-color="rgb(255,168,0)" stop-opacity="1"></stop><stop offset="66%" stop-color="rgb(255,168,0)" stop-opacity="0.5"></stop><stop offset="100%" stop-color="rgb(255,168,0)" stop-opacity="0"></stop></linearGradient><linearGradient id="__lottie_element_33" spreadMethod="pad" gradientUnits="userSpaceOnUse" x1="-0.35600000619888306" y1="79.25399780273438" x2="-0.35600000619888306" y2="61.22800064086914"><stop offset="10%" stop-color="rgb(219,110,0)" stop-opacity="1"></stop><stop offset="51%" stop-color="rgb(219,110,0)" stop-opacity="0.5"></stop><stop offset="80%" stop-color="rgb(219,110,0)" stop-opacity="0"></stop></linearGradient><radialGradient id="__lottie_element_34" spreadMethod="pad" gradientUnits="userSpaceOnUse" cx="-0.35600000619888306" cy="59.50400161743164" r="17.17138660339569" fx="-0.35600000619888306" fy="59.50400161743164"><stop offset="36%" stop-color="rgb(255,168,0)" stop-opacity="0"></stop><stop offset="74%" stop-color="rgb(255,168,0)" stop-opacity="0.5"></stop><stop offset="100%" stop-color="rgb(255,168,0)" stop-opacity="1"></stop></radialGradient><linearGradient id="__lottie_element_35" spreadMethod="pad" gradientUnits="userSpaceOnUse" x1="0.20600000023841858" y1="56.37900161743164" x2="0.39399999380111694" y2="63.9010009765625"><stop offset="0%" stop-color="rgb(255,255,255)" stop-opacity="1"></stop><stop offset="50%" stop-color="rgb(255,255,255)" stop-opacity="0.5"></stop><stop offset="100%" stop-color="rgb(255,255,255)" stop-opacity="0"></stop></linearGradient><linearGradient id="__lottie_element_39" spreadMethod="pad" gradientUnits="userSpaceOnUse" x1="-1.8009999990463257" y1="132.04299926757812" x2="-1.9259999990463257" y2="143.00799560546875"><stop offset="0%" stop-color="rgb(255,168,0)" stop-opacity="1"></stop><stop offset="50%" stop-color="rgb(255,168,0)" stop-opacity="0.5"></stop><stop offset="100%" stop-color="rgb(255,168,0)" stop-opacity="0"></stop></linearGradient><radialGradient id="__lottie_element_40" spreadMethod="pad" gradientUnits="userSpaceOnUse" cx="-1.9259999990463257" cy="148.41799926757812" r="39.79100167751312" fx="-1.9259999990463257" fy="148.41799926757812"><stop offset="0%" stop-color="rgb(255,255,255)" stop-opacity="1"></stop><stop offset="62%" stop-color="rgb(255,255,255)" stop-opacity="0.5"></stop><stop offset="100%" stop-color="rgb(255,255,255)" stop-opacity="0"></stop></radialGradient><linearGradient id="__lottie_element_41" spreadMethod="pad" gradientUnits="userSpaceOnUse" x1="-1.9259999990463257" y1="148.41799926757812" x2="-1.9259999990463257" y2="138.76699829101562"><stop offset="0%" stop-color="rgb(88,11,14)" stop-opacity="0"></stop><stop offset="34%" stop-color="rgb(88,11,14)" stop-opacity="0.5"></stop><stop offset="75%" stop-color="rgb(88,11,14)" stop-opacity="1"></stop></linearGradient><radialGradient id="__lottie_element_42" spreadMethod="pad" gradientUnits="userSpaceOnUse" cx="-1.9259999990463257" cy="164.41799926757812" r="23.880000472068787" fx="-1.9259999990463257" fy="164.41799926757812"><stop offset="10%" stop-color="rgb(219,110,0)" stop-opacity="1"></stop><stop offset="66%" stop-color="rgb(219,110,0)" stop-opacity="0.5"></stop><stop offset="100%" stop-color="rgb(219,110,0)" stop-opacity="0"></stop></radialGradient><linearGradient id="__lottie_element_46" spreadMethod="pad" gradientUnits="userSpaceOnUse" x1="-82.1760025024414" y1="17.667999267578125" x2="-62.25299835205078" y2="47.108001708984375"><stop offset="0%" stop-color="rgb(66,0,0)"></stop><stop offset="37%" stop-color="rgb(118,40,0)"></stop><stop offset="100%" stop-color="rgb(170,80,0)"></stop></linearGradient><radialGradient id="__lottie_element_47" spreadMethod="pad" gradientUnits="userSpaceOnUse" cx="-63.92599868774414" cy="42.417999267578125" r="13.069999694824219" fx="-63.92599868774414" fy="42.417999267578125"><stop offset="0%" stop-color="rgb(246,175,0)"></stop><stop offset="0%" stop-color="rgb(246,175,0)"></stop><stop offset="0%" stop-color="rgb(246,175,0)"></stop><stop offset="50%" stop-color="rgb(246,175,0)"></stop><stop offset="100%" stop-color="rgb(246,175,0)"></stop></radialGradient><mask id="__lottie_element_49"><path fill="url(#__lottie_element_48)" d=" M-69.47200012207031,52.233001708984375 C-71.38700103759766,52.233001708984375 -73.16100311279297,50.99599838256836 -73.75499725341797,49.06999969482422 C-74.48500061035156,46.70399856567383 -73.15799713134766,44.194000244140625 -70.79199981689453,43.46500015258789 C-66.26699829101562,42.069000244140625 -62.66400146484375,38.553001403808594 -61.15599822998047,34.060001373291016 C-60.36800003051758,31.711999893188477 -57.821998596191406,30.451000213623047 -55.47999954223633,31.23699951171875 C-53.13199996948242,32.02399826049805 -51.86899948120117,34.566001892089844 -52.65700149536133,36.91299819946289 C-55.08100128173828,44.13600158691406 -60.87200164794922,49.7869987487793 -68.1500015258789,52.03200149536133 C-68.58999633789062,52.167999267578125 -69.03500366210938,52.233001708984375 -69.47200012207031,52.233001708984375z"></path></mask><radialGradient id="__lottie_element_48" spreadMethod="pad" gradientUnits="userSpaceOnUse" cx="-63.92599868774414" cy="42.417999267578125" r="13.069999694824219" fx="-63.92599868774414" fy="42.417999267578125"><stop stop-color="rgb(255,255,255)" offset="0%" stop-opacity="1"></stop><stop stop-color="rgb(255,255,255)" offset="50%" stop-opacity="0.5"></stop><stop stop-color="rgb(255,255,255)" offset="100%" stop-opacity="0"></stop></radialGradient><linearGradient id="__lottie_element_50" spreadMethod="pad" gradientUnits="userSpaceOnUse" x1="-83.9260025024414" y1="11.418000221252441" x2="-83.9260025024414" y2="22.239999771118164"><stop offset="0%" stop-color="rgb(255,255,255)" stop-opacity="1"></stop><stop offset="60%" stop-color="rgb(255,255,255)" stop-opacity="0.5"></stop><stop offset="100%" stop-color="rgb(255,255,255)" stop-opacity="0"></stop></linearGradient><linearGradient id="__lottie_element_51" spreadMethod="pad" gradientUnits="userSpaceOnUse" x1="66.5739974975586" y1="18.667999267578125" x2="86.24700164794922" y2="47.358001708984375"><stop offset="0%" stop-color="rgb(66,0,0)"></stop><stop offset="37%" stop-color="rgb(118,40,0)"></stop><stop offset="100%" stop-color="rgb(170,80,0)"></stop></linearGradient><radialGradient id="__lottie_element_52" spreadMethod="pad" gradientUnits="userSpaceOnUse" cx="85.0739974975586" cy="42.417999267578125" r="13.069999694824219" fx="85.0739974975586" fy="42.417999267578125"><stop offset="0%" stop-color="rgb(246,175,0)" stop-opacity="1"></stop><stop offset="50%" stop-color="rgb(246,175,0)" stop-opacity="0.5"></stop><stop offset="100%" stop-color="rgb(246,175,0)" stop-opacity="0"></stop></radialGradient><linearGradient id="__lottie_element_53" spreadMethod="pad" gradientUnits="userSpaceOnUse" x1="65.0739974975586" y1="11.418000221252441" x2="65.0739974975586" y2="22.239999771118164"><stop offset="0%" stop-color="rgb(255,255,255)" stop-opacity="1"></stop><stop offset="60%" stop-color="rgb(255,255,255)" stop-opacity="0.5"></stop><stop offset="100%" stop-color="rgb(255,255,255)" stop-opacity="0"></stop></linearGradient></defs><g clip-path="url(#__lottie_element_2)"><g style="display: block;" transform="matrix(0.6819999814033508,0,0,0.6819999814033508,257.539794921875,186.76365661621094)" opacity="1"><g opacity="1" transform="matrix(1,0,0,1,0,0)"><path fill="rgb(218,110,0)" fill-opacity="1" d=" M145.08700561523438,91.0250015258789 C145.08700561523438,91.0250015258789 142.13400268554688,120.36699676513672 150.35299682617188,143.08599853515625 C150.35299682617188,143.08599853515625 141.5019989013672,143.11000061035156 131.38600158691406,137.89300537109375 C131.38600158691406,137.89300537109375 131.17599487304688,147.4949951171875 134.968994140625,155.63400268554688 C134.968994140625,155.63400268554688 124.2959976196289,154.08099365234375 118.31999969482422,148.3300018310547 C118.31999969482422,148.3300018310547 116.56300354003906,154.72500610351562 117.05599975585938,161.97900390625 C117.05599975585938,161.97900390625 110.31800079345703,160.96200561523438 99.56999969482422,147.3419952392578 C88.8219985961914,133.7220001220703 115.79399871826172,87.97699737548828 145.08700561523438,91.0250015258789z"></path><path stroke-linecap="round" stroke-linejoin="round" fill-opacity="0" stroke="rgb(163,65,0)" stroke-opacity="1" stroke-width="11.4" d=" M145.08700561523438,91.0250015258789 C145.08700561523438,91.0250015258789 142.13400268554688,120.36699676513672 150.35299682617188,143.08599853515625 C150.35299682617188,143.08599853515625 141.5019989013672,143.11000061035156 131.38600158691406,137.89300537109375 C131.38600158691406,137.89300537109375 131.17599487304688,147.4949951171875 134.968994140625,155.63400268554688 C134.968994140625,155.63400268554688 124.2959976196289,154.08099365234375 118.31999969482422,148.3300018310547 C118.31999969482422,148.3300018310547 116.56300354003906,154.72500610351562 117.05599975585938,161.97900390625 C117.05599975585938,161.97900390625 110.31800079345703,160.96200561523438 99.56999969482422,147.3419952392578 C88.8219985961914,133.7220001220703 115.79399871826172,87.97699737548828 145.08700561523438,91.0250015258789z"></path></g><g opacity="1" transform="matrix(1,0,0,1,0,0)"><path fill="rgb(218,110,0)" fill-opacity="1" d=" M-150.34800720214844,95.72799682617188 C-150.34800720214844,95.72799682617188 -147.31900024414062,118.20800018310547 -157.30999755859375,141.61700439453125 C-157.30999755859375,141.61700439453125 -149.8699951171875,139.94200134277344 -140.37100219726562,137.8520050048828 C-140.37100219726562,137.8520050048828 -142.48199462890625,147.38800048828125 -144.59300231933594,152.6540069580078 C-144.59300231933594,152.6540069580078 -133.8769989013672,152.84500122070312 -126.43800354003906,148.59800720214844 C-126.43800354003906,148.59800720214844 -125.69400024414062,153.90899658203125 -126.43800354003906,161.05499267578125 C-126.43800354003906,161.05499267578125 -112.4020004272461,156.9429931640625 -102.63899993896484,141.83099365234375 C-92.8759994506836,126.72000122070312 -126.5510025024414,83.38999938964844 -150.34800720214844,95.72799682617188z"></path><path stroke-linecap="round" stroke-linejoin="round" fill-opacity="0" stroke="rgb(163,65,0)" stroke-opacity="1" stroke-width="11.4" d=" M-150.34800720214844,95.72799682617188 C-150.34800720214844,95.72799682617188 -147.31900024414062,118.20800018310547 -157.30999755859375,141.61700439453125 C-157.30999755859375,141.61700439453125 -149.8699951171875,139.94200134277344 -140.37100219726562,137.8520050048828 C-140.37100219726562,137.8520050048828 -142.48199462890625,147.38800048828125 -144.59300231933594,152.6540069580078 C-144.59300231933594,152.6540069580078 -133.8769989013672,152.84500122070312 -126.43800354003906,148.59800720214844 C-126.43800354003906,148.59800720214844 -125.69400024414062,153.90899658203125 -126.43800354003906,161.05499267578125 C-126.43800354003906,161.05499267578125 -112.4020004272461,156.9429931640625 -102.63899993896484,141.83099365234375 C-92.8759994506836,126.72000122070312 -126.5510025024414,83.38999938964844 -150.34800720214844,95.72799682617188z"></path></g></g><g style="display: block;" transform="matrix(0.6819999814033508,0,0,0.6819999814033508,257.539794921875,186.76365661621094)" opacity="1"><g opacity="1" transform="matrix(1,0,0,1,0,0)"><path fill="rgb(255,168,0)" fill-opacity="1" d=" M-158.96099853515625,13.85099983215332 C-169.34300231933594,12.062000274658203 -170.0709991455078,35.34000015258789 -165.76100158691406,55.9630012512207 C-161.77099609375,75.05599975585938 -153.83200073242188,98.31400299072266 -139.56399536132812,93.98600006103516 C-125.2959976196289,89.65699768066406 -123.37799835205078,19.983999252319336 -158.96099853515625,13.85099983215332z"></path><path stroke-linecap="round" stroke-linejoin="round" fill-opacity="0" stroke="rgb(219,110,0)" stroke-opacity="1" stroke-width="11.4" d=" M-158.96099853515625,13.85099983215332 C-169.34300231933594,12.062000274658203 -170.0709991455078,35.34000015258789 -165.76100158691406,55.9630012512207 C-161.77099609375,75.05599975585938 -153.83200073242188,98.31400299072266 -139.56399536132812,93.98600006103516 C-125.2959976196289,89.65699768066406 -123.37799835205078,19.983999252319336 -158.96099853515625,13.85099983215332z"></path></g><g opacity="1" transform="matrix(1,0,0,1,0,0)"><path fill="rgb(255,168,0)" fill-opacity="1" d=" M155.91200256347656,13.85099983215332 C166.29400634765625,12.062000274658203 167.02200317382812,35.34000015258789 162.71200561523438,55.9630012512207 C158.7220001220703,75.05599975585938 150.7830047607422,98.31400299072266 136.51499938964844,93.98600006103516 C122.24700164794922,89.65699768066406 120.3290023803711,19.983999252319336 155.91200256347656,13.85099983215332z"></path><path stroke-linecap="round" stroke-linejoin="round" fill-opacity="0" stroke="rgb(219,110,0)" stroke-opacity="1" stroke-width="11.4" d=" M155.91200256347656,13.85099983215332 C166.29400634765625,12.062000274658203 167.02200317382812,35.34000015258789 162.71200561523438,55.9630012512207 C158.7220001220703,75.05599975585938 150.7830047607422,98.31400299072266 136.51499938964844,93.98600006103516 C122.24700164794922,89.65699768066406 120.3290023803711,19.983999252319336 155.91200256347656,13.85099983215332z"></path></g></g><g style="display: block;" transform="matrix(0.6819999814033508,0,0,0.6819999814033508,257.539794921875,186.76365661621094)" opacity="1"><g opacity="1" transform="matrix(1,0,0,1,0,0)"><g opacity="1" transform="matrix(1,0,0,1,0,0)"><path fill="rgb(255,168,0)" fill-opacity="1" d=" M112.81400299072266,-103.32599639892578 C85.7229995727539,-139.51100158691406 51.624000549316406,-161.58200073242188 -0.6610000133514404,-161.58200073242188 C-52.94499969482422,-161.58200073242188 -86.18699645996094,-138.85299682617188 -114.13600158691406,-103.32599639892578 C-146.66299438476562,-61.97999954223633 -163.8070068359375,46.362998962402344 -129.32400512695312,118.26300048828125 C-94.84200286865234,190.16299438476562 -35.33700180053711,210.41000366210938 -0.6610000133514404,210.41000366210938 C34.01499938964844,210.41000366210938 93.51899719238281,190.16299438476562 128.0019989013672,118.26300048828125 C162.48399353027344,46.362998962402344 145.33999633789062,-59.88100051879883 112.81400299072266,-103.32599639892578z"></path></g><g opacity="1" transform="matrix(1,0,0,1,0,0)"><path fill="url(#__lottie_element_21)" fill-opacity="1" d=" M112.81400299072266,-103.32599639892578 C85.7229995727539,-139.51100158691406 51.624000549316406,-161.58200073242188 -0.6610000133514404,-161.58200073242188 C-52.94499969482422,-161.58200073242188 -86.18699645996094,-138.85299682617188 -114.13600158691406,-103.32599639892578 C-146.66299438476562,-61.97999954223633 -163.8070068359375,46.362998962402344 -129.32400512695312,118.26300048828125 C-94.84200286865234,190.16299438476562 -35.33700180053711,210.41000366210938 -0.6610000133514404,210.41000366210938 C34.01499938964844,210.41000366210938 93.51899719238281,190.16299438476562 128.0019989013672,118.26300048828125 C162.48399353027344,46.362998962402344 145.33999633789062,-59.88100051879883 112.81400299072266,-103.32599639892578z"></path></g><g opacity="1" transform="matrix(1,0,0,1,0,0)"><path stroke-linecap="round" stroke-linejoin="round" fill-opacity="0" stroke="rgb(219,110,0)" stroke-opacity="1" stroke-width="11.4" d=" M112.81400299072266,-103.32599639892578 C85.7229995727539,-139.51100158691406 51.624000549316406,-161.58200073242188 -0.6610000133514404,-161.58200073242188 C-52.94499969482422,-161.58200073242188 -86.18699645996094,-138.85299682617188 -114.13600158691406,-103.32599639892578 C-146.66299438476562,-61.97999954223633 -163.8070068359375,46.362998962402344 -129.32400512695312,118.26300048828125 C-94.84200286865234,190.16299438476562 -35.33700180053711,210.41000366210938 -0.6610000133514404,210.41000366210938 C34.01499938964844,210.41000366210938 93.51899719238281,190.16299438476562 128.0019989013672,118.26300048828125 C162.48399353027344,46.362998962402344 145.33999633789062,-59.88100051879883 112.81400299072266,-103.32599639892578z"></path></g><g opacity="1" transform="matrix(1,0,0,1,0,0)"><path fill="url(#__lottie_element_22)" fill-opacity="1" d=" M-2.9709999561309814,185.427001953125 C-68.28199768066406,183.93099975585938 -140.48500061035156,117.36799621582031 -128.7270050048828,2.053999900817871 C-128.7270050048828,2.053999900817871 -117.23699951171875,-11.152000427246094 -110.79100036621094,-27.73900032043457 C-110.79100036621094,-27.73900032043457 -95.28500366210938,-18.158000946044922 -96.93599700927734,-43.50600051879883 C-96.93599700927734,-43.50600051879883 -82.7509994506836,-34.13999938964844 -85.23400115966797,-46.77000045776367 C-86.31300354003906,-52.257999420166016 -92.14299774169922,-68.1719970703125 -89.55799865722656,-87.53500366210938 C-89.55799865722656,-87.53500366210938 -60.37799835205078,-53.1870002746582 -3.1579999923706055,-48.8380012512207 C48.694000244140625,-44.89699935913086 60.7400016784668,-40.80799865722656 75.39900207519531,-24.913000106811523 C79.56400299072266,-20.39699935913086 85.177001953125,-17.604000091552734 87.28700256347656,-25.88599967956543 C87.28700256347656,-25.88599967956543 104.19200134277344,-1.843000054359436 107.50900268554688,-12.442999839782715 C107.50900268554688,-12.442999839782715 122.57599639892578,6.953000068664551 126.29100036621094,22.58300018310547 C131.4709930419922,44.375 124.43000030517578,83.75199890136719 106.1510009765625,116.66899871826172 C83.34100341796875,157.74600219726562 44.47800064086914,186.51400756835938 -2.9709999561309814,185.427001953125z"></path></g></g></g><g style="display: block;" transform="matrix(0.6819999814033508,0,0,0.6819999814033508,257.539794921875,187.76551818847656)" opacity="1"><g opacity="1" transform="matrix(1,0,0,1,0,0)"><path fill="rgb(163,65,0)" fill-opacity="1" d=" M-111.56300354003906,-14.378000259399414 C-113.55799865722656,-18 -95.30899810791016,-30.250999450683594 -73.01899719238281,-30.72599983215332 C-54.665000915527344,-31.117000579833984 -52.17399978637695,-25.722000122070312 -53.19900131225586,-23.841999053955078 C-54.2239990234375,-21.961999893188477 -65.61000061035156,-26.374000549316406 -86.18800354003906,-22.341999053955078 C-107.18599700927734,-18.22800064086914 -110.58699798583984,-12.605999946594238 -111.56300354003906,-14.378000259399414z"></path><path stroke-linecap="round" stroke-linejoin="round" fill-opacity="0" stroke="rgb(163,65,0)" stroke-opacity="1" stroke-width="3.3" d=" M-111.56300354003906,-14.378000259399414 C-113.55799865722656,-18 -95.30899810791016,-30.250999450683594 -73.01899719238281,-30.72599983215332 C-54.665000915527344,-31.117000579833984 -52.17399978637695,-25.722000122070312 -53.19900131225586,-23.841999053955078 C-54.2239990234375,-21.961999893188477 -65.61000061035156,-26.374000549316406 -86.18800354003906,-22.341999053955078 C-107.18599700927734,-18.22800064086914 -110.58699798583984,-12.605999946594238 -111.56300354003906,-14.378000259399414z"></path></g><g opacity="1" transform="matrix(1,0,0,1,0,0)"><path fill="rgb(163,65,0)" fill-opacity="1" d=" M102.96099853515625,-14.378000259399414 C104.95600128173828,-18 86.70800018310547,-30.250999450683594 64.41699981689453,-30.72599983215332 C46.0629997253418,-31.117000579833984 43.571998596191406,-25.722000122070312 44.59700012207031,-23.841999053955078 C45.62200164794922,-21.961999893188477 57.007999420166016,-26.374000549316406 77.58599853515625,-22.341999053955078 C98.58399963378906,-18.22800064086914 101.98500061035156,-12.605999946594238 102.96099853515625,-14.378000259399414z"></path><path stroke-linecap="round" stroke-linejoin="round" fill-opacity="0" stroke="rgb(163,65,0)" stroke-opacity="1" stroke-width="3.3" d=" M102.96099853515625,-14.378000259399414 C104.95600128173828,-18 86.70800018310547,-30.250999450683594 64.41699981689453,-30.72599983215332 C46.0629997253418,-31.117000579833984 43.571998596191406,-25.722000122070312 44.59700012207031,-23.841999053955078 C45.62200164794922,-21.961999893188477 57.007999420166016,-26.374000549316406 77.58599853515625,-22.341999053955078 C98.58399963378906,-18.22800064086914 101.98500061035156,-12.605999946594238 102.96099853515625,-14.378000259399414z"></path></g></g><g style="display: block;" transform="matrix(0.6819999814033508,0,0,0.6819999814033508,257.54046630859375,188.14060974121094)" opacity="1"><g opacity="1" transform="matrix(1,0,0,1,0,0)"><g opacity="1" transform="matrix(1,0,0,1,0,0)"><path fill="rgb(255,255,255)" fill-opacity="1" d=" M-34.55400085449219,39.54999923706055 C-34.55400085449219,39.54999923706055 -40.69300079345703,-1.159000039100647 -73.87200164794922,-1.156000018119812 C-104.83000183105469,-1.152999997138977 -118.447998046875,28.309999465942383 -118.447998046875,36.58100128173828 C-118.447998046875,36.58100128173828 -105.99099731445312,58.145999908447266 -75.93599700927734,58.11899948120117 C-42.07600021362305,58.0890007019043 -34.55400085449219,39.54999923706055 -34.55400085449219,39.54999923706055z"></path></g><g opacity="1" transform="matrix(1,0,0,1,0,0)"><g opacity="1" transform="matrix(1,0,0,1,0,0)"><path fill="url(#__lottie_element_46)" fill-opacity="1" d=" M-50.935001373291016,28.48200035095215 C-50.935001373291016,42.37099838256836 -62.24700164794922,53.630001068115234 -76.19999694824219,53.630001068115234 C-90.15299987792969,53.630001068115234 -101.46499633789062,42.37099838256836 -101.46499633789062,28.48200035095215 C-101.46499633789062,14.593000411987305 -90.15299987792969,3.3329999446868896 -76.19999694824219,3.3329999446868896 C-62.24700164794922,3.3329999446868896 -50.935001373291016,14.593000411987305 -50.935001373291016,28.48200035095215z"></path></g><g opacity="1" transform="matrix(1,0,0,1,0,0)"><g opacity="1" transform="matrix(1,0,0,1,0,0)"><path fill="url(#__lottie_element_47)" mask="url(#__lottie_element_49)" fill-opacity="1" d="M0 0 M-69.47200012207031,52.233001708984375 C-71.38700103759766,52.233001708984375 -73.16100311279297,50.99599838256836 -73.75499725341797,49.06999969482422 C-74.48500061035156,46.70399856567383 -73.15799713134766,44.194000244140625 -70.79199981689453,43.46500015258789 C-66.26699829101562,42.069000244140625 -62.66400146484375,38.553001403808594 -61.15599822998047,34.060001373291016 C-60.36800003051758,31.711999893188477 -57.821998596191406,30.451000213623047 -55.47999954223633,31.23699951171875 C-53.13199996948242,32.02399826049805 -51.86899948120117,34.566001892089844 -52.65700149536133,36.91299819946289 C-55.08100128173828,44.13600158691406 -60.87200164794922,49.7869987487793 -68.1500015258789,52.03200149536133 C-68.58999633789062,52.167999267578125 -69.03500366210938,52.233001708984375 -69.47200012207031,52.233001708984375z"></path></g></g><g opacity="1" transform="matrix(1,0,0,1,0,0)"><path fill="rgb(23,19,10)" fill-opacity="1" d=" M-60.233001708984375,28.48200035095215 C-60.233001708984375,37.2599983215332 -67.38200378417969,44.375 -76.19999694824219,44.375 C-85.01799774169922,44.375 -92.16699981689453,37.2599983215332 -92.16699981689453,28.48200035095215 C-92.16699981689453,19.70400047302246 -85.01799774169922,12.588000297546387 -76.19999694824219,12.588000297546387 C-67.38200378417969,12.588000297546387 -60.233001708984375,19.70400047302246 -60.233001708984375,28.48200035095215z"></path></g><g opacity="1" transform="matrix(1,0,0,1,0,0)"><path fill="url(#__lottie_element_50)" fill-opacity="1" d=" M-77.9739990234375,16.01799964904785 C-77.9739990234375,19.356000900268555 -80.52799987792969,22.062000274658203 -83.6780014038086,22.062000274658203 C-86.8280029296875,22.062000274658203 -89.38200378417969,19.356000900268555 -89.38200378417969,16.01799964904785 C-89.38200378417969,12.680000305175781 -86.8280029296875,9.972999572753906 -83.6780014038086,9.972999572753906 C-80.52799987792969,9.972999572753906 -77.9739990234375,12.680000305175781 -77.9739990234375,16.01799964904785z"></path></g></g><g opacity="1" transform="matrix(1,0,0,1,0,0)"><path fill="rgb(163,65,0)" fill-opacity="1" d=" M-34.882999420166016,33.82099914550781 C-34.882999420166016,33.82099914550781 -44.93899917602539,-3.937999963760376 -77.43599700927734,-3.5980000495910645 C-109.93299865722656,-3.257999897003174 -117.14199829101562,27.409000396728516 -118.447998046875,36.58100128173828 C-118.447998046875,36.58100128173828 -113.22100067138672,-0.3149999976158142 -76.18800354003906,-0.7300000190734863 C-45.518001556396484,-1.0740000009536743 -34.882999420166016,33.82099914550781 -34.882999420166016,33.82099914550781z"></path><path stroke-linecap="round" stroke-linejoin="round" fill-opacity="0" stroke="rgb(163,65,0)" stroke-opacity="1" stroke-width="3.2" d=" M-34.882999420166016,33.82099914550781 C-34.882999420166016,33.82099914550781 -44.93899917602539,-3.937999963760376 -77.43599700927734,-3.5980000495910645 C-109.93299865722656,-3.257999897003174 -117.14199829101562,27.409000396728516 -118.447998046875,36.58100128173828 C-118.447998046875,36.58100128173828 -113.22100067138672,-0.3149999976158142 -76.18800354003906,-0.7300000190734863 C-45.518001556396484,-1.0740000009536743 -34.882999420166016,33.82099914550781 -34.882999420166016,33.82099914550781z"></path></g></g><g opacity="1" transform="matrix(1,0,0,1,0,0)"><g opacity="1" transform="matrix(1,0,0,1,0,0)"><path fill="rgb(255,255,255)" fill-opacity="1" d=" M30.94499969482422,39.54999923706055 C30.94499969482422,39.54999923706055 37.08399963378906,-1.159000039100647 70.26300048828125,-1.156000018119812 C101.22100067138672,-1.152999997138977 114.83899688720703,28.309999465942383 114.83899688720703,36.58100128173828 C114.83899688720703,36.58100128173828 102.38200378417969,58.145999908447266 72.3270034790039,58.11899948120117 C38.46799850463867,58.0890007019043 30.94499969482422,39.54999923706055 30.94499969482422,39.54999923706055z"></path></g><g opacity="1" transform="matrix(1,0,0,1,0,0)"><g opacity="1" transform="matrix(1,0,0,1,0,0)"><path fill="url(#__lottie_element_51)" fill-opacity="1" d=" M97.85600280761719,28.48200035095215 C97.85600280761719,42.37099838256836 86.54399871826172,53.630001068115234 72.59100341796875,53.630001068115234 C58.63800048828125,53.630001068115234 47.32600021362305,42.37099838256836 47.32600021362305,28.48200035095215 C47.32600021362305,14.593000411987305 58.63800048828125,3.3329999446868896 72.59100341796875,3.3329999446868896 C86.54399871826172,3.3329999446868896 97.85600280761719,14.593000411987305 97.85600280761719,28.48200035095215z"></path></g><g opacity="1" transform="matrix(1,0,0,1,0,0)"><g opacity="1" transform="matrix(1,0,0,1,0,0)"><path fill="url(#__lottie_element_52)" fill-opacity="1" d=" M79.38600158691406,52.233001708984375 C77.47100067138672,52.233001708984375 75.697998046875,50.99599838256836 75.10399627685547,49.06999969482422 C74.3740005493164,46.70399856567383 75.70099639892578,44.194000244140625 78.06700134277344,43.46500015258789 C82.59200286865234,42.069000244140625 86.19499969482422,38.553001403808594 87.7030029296875,34.060001373291016 C88.49099731445312,31.711999893188477 91.03700256347656,30.451000213623047 93.37899780273438,31.23699951171875 C95.72699737548828,32.02399826049805 96.98999786376953,34.566001892089844 96.2020034790039,36.91299819946289 C93.77799987792969,44.13600158691406 87.98699951171875,49.7869987487793 80.70899963378906,52.03200149536133 C80.26899719238281,52.167999267578125 79.822998046875,52.233001708984375 79.38600158691406,52.233001708984375z"></path></g></g><g opacity="1" transform="matrix(1,0,0,1,0,0)"><path fill="rgb(23,19,10)" fill-opacity="1" d=" M88.55799865722656,28.48200035095215 C88.55799865722656,37.2599983215332 81.40899658203125,44.375 72.59100341796875,44.375 C63.77299880981445,44.375 56.624000549316406,37.2599983215332 56.624000549316406,28.48200035095215 C56.624000549316406,19.70400047302246 63.77299880981445,12.588000297546387 72.59100341796875,12.588000297546387 C81.40899658203125,12.588000297546387 88.55799865722656,19.70400047302246 88.55799865722656,28.48200035095215z"></path></g><g opacity="1" transform="matrix(1,0,0,1,0,0)"><path fill="url(#__lottie_element_53)" fill-opacity="1" d=" M70.81600189208984,16.01799964904785 C70.81600189208984,19.356000900268555 68.26300048828125,22.062000274658203 65.11299896240234,22.062000274658203 C61.9630012512207,22.062000274658203 59.409000396728516,19.356000900268555 59.409000396728516,16.01799964904785 C59.409000396728516,12.680000305175781 61.9630012512207,9.972999572753906 65.11299896240234,9.972999572753906 C68.26300048828125,9.972999572753906 70.81600189208984,12.680000305175781 70.81600189208984,16.01799964904785z"></path></g></g><g opacity="1" transform="matrix(1,0,0,1,0,0)"><path fill="rgb(163,65,0)" fill-opacity="1" d=" M31.27400016784668,33.82099914550781 C31.27400016784668,33.82099914550781 41.33000183105469,-3.937999963760376 73.8270034790039,-3.5980000495910645 C106.3239974975586,-3.257999897003174 113.53299713134766,27.409000396728516 114.83899688720703,36.58100128173828 C114.83899688720703,36.58100128173828 109.61199951171875,-0.3149999976158142 72.5790023803711,-0.7300000190734863 C41.909000396728516,-1.0740000009536743 31.27400016784668,33.82099914550781 31.27400016784668,33.82099914550781z"></path><path stroke-linecap="round" stroke-linejoin="round" fill-opacity="0" stroke="rgb(163,65,0)" stroke-opacity="1" stroke-width="3.2" d=" M31.27400016784668,33.82099914550781 C31.27400016784668,33.82099914550781 41.33000183105469,-3.937999963760376 73.8270034790039,-3.5980000495910645 C106.3239974975586,-3.257999897003174 113.53299713134766,27.409000396728516 114.83899688720703,36.58100128173828 C114.83899688720703,36.58100128173828 109.61199951171875,-0.3149999976158142 72.5790023803711,-0.7300000190734863 C41.909000396728516,-1.0740000009536743 31.27400016784668,33.82099914550781 31.27400016784668,33.82099914550781z"></path></g></g></g><g style="display: block;" transform="matrix(0.6819999814033508,0,0,0.6819999814033508,258.0397033691406,186.63885498046875)" opacity="1"><g opacity="1" transform="matrix(1,0,0,1,0,0)"><path fill="url(#__lottie_element_39)" fill-opacity="1" d=" M39.138999938964844,134.47799682617188 C36.43299865722656,131.96200561523438 32.07500076293945,131.3979949951172 -1.3819999694824219,131.3979949951172 C-34.03300094604492,131.3979949951172 -38.7599983215332,131.96200561523438 -41.90299987792969,134.47799682617188 C-44.38600158691406,136.46600341796875 -43.564998626708984,153.8350067138672 -1.3890000581741333,153.8350067138672 C40.11000061035156,153.8350067138672 41.32099914550781,136.50599670410156 39.138999938964844,134.47799682617188z"></path></g><g opacity="1" transform="matrix(1,0,0,1,0,0)"><path fill="url(#__lottie_element_40)" fill-opacity="0.7000000000000001" d=" M38.880001068115234,140.3470001220703 C37.948001861572266,135.16799926757812 32.07500076293945,136.8730010986328 -1.3819999694824219,136.8730010986328 C-34.03300094604492,136.8730010986328 -40.1510009765625,134.84300231933594 -41.64400100708008,140.3470001220703 C-42.24100112915039,142.54800415039062 -28.93199920654297,158.6320037841797 -1.3890000581741333,158.6320037841797 C25.687000274658203,158.6320037841797 39.29800033569336,142.6699981689453 38.880001068115234,140.3470001220703z"></path></g><g opacity="1" transform="matrix(1,0,0,1,0,0)"><path fill="rgb(136,24,4)" fill-opacity="1" d=" M37.847999572753906,137.9969940185547 C36.301998138427734,135.7209930419922 32.07500076293945,136.08999633789062 -1.3819999694824219,136.08999633789062 C-34.03300094604492,136.08999633789062 -38.880001068115234,135.8000030517578 -40.61199951171875,137.9969940185547 C-42.132999420166016,139.9250030517578 -28.93199920654297,153.8350067138672 -1.3890000581741333,153.8350067138672 C25.687000274658203,153.8350067138672 39.26300048828125,140.08099365234375 37.847999572753906,137.9969940185547z"></path></g><g opacity="1" transform="matrix(1,0,0,1,0,0)"><path fill="url(#__lottie_element_41)" fill-opacity="1" d=" M37.847999572753906,137.9969940185547 C36.301998138427734,135.7209930419922 32.07500076293945,136.08999633789062 -1.3819999694824219,136.08999633789062 C-34.03300094604492,136.08999633789062 -38.880001068115234,135.8000030517578 -40.61199951171875,137.9969940185547 C-42.132999420166016,139.9250030517578 -28.93199920654297,153.8350067138672 -1.3890000581741333,153.8350067138672 C25.687000274658203,153.8350067138672 39.26300048828125,140.08099365234375 37.847999572753906,137.9969940185547z"></path></g><g opacity="1" transform="matrix(1,0,0,1,0,0)"><path fill="url(#__lottie_element_42)" fill-opacity="0.5" d=" M22.57900047302246,158.6320037841797 C22.57900047302246,163.9499969482422 15.295000076293945,171.6490020751953 -1.3890000581741333,171.6490020751953 C-18.072999954223633,171.6490020751953 -25.357999801635742,163.9499969482422 -25.357999801635742,158.6320037841797 C-25.357999801635742,153.31399536132812 -18.072999954223633,158.6320037841797 -1.3890000581741333,158.6320037841797 C15.295000076293945,158.6320037841797 22.57900047302246,153.31399536132812 22.57900047302246,158.6320037841797z"></path></g></g><g style="display: block;" transform="matrix(1.0029423236846924,0,0,1.0029423236846924,256.49945068359375,184.4412384033203)" opacity="1"><g opacity="1" transform="matrix(1,0,0,1,0,0)"><path fill="url(#__lottie_element_32)" fill-opacity="1" d=" M16.56999969482422,72.15499877929688 C16.56999969482422,78.7229995727539 8.704000473022461,84.56199645996094 0.13899999856948853,84.56199645996094 C-8.425999641418457,84.56199645996094 -16.292999267578125,78.7229995727539 -16.292999267578125,72.15499877929688 C-16.292999267578125,65.58699798583984 -8.425999641418457,59.566001892089844 0.13899999856948853,59.566001892089844 C8.704000473022461,59.566001892089844 16.56999969482422,65.58699798583984 16.56999969482422,72.15499877929688z"></path></g><g opacity="1" transform="matrix(1,0,0,1,0,0)"><path fill="rgb(255,168,0)" fill-opacity="0.8" d=" M15.934000015258789,66.30799865722656 C15.934000015258789,72.62100219726562 8.862000465393066,77.29399871826172 0.13899999856948853,77.29399871826172 C-8.583999633789062,77.29399871826172 -15.656000137329102,72.62100219726562 -15.656000137329102,66.30799865722656 C-15.656000137329102,59.994998931884766 -8.583999633789062,55.145999908447266 0.13899999856948853,55.145999908447266 C8.862000465393066,55.145999908447266 15.934000015258789,59.994998931884766 15.934000015258789,66.30799865722656z"></path></g><g opacity="1" transform="matrix(1,0,0,1,0,0)"><path fill="url(#__lottie_element_33)" fill-opacity="1" d=" M15.934000015258789,66.30799865722656 C15.934000015258789,72.62100219726562 8.862000465393066,77.29399871826172 0.13899999856948853,77.29399871826172 C-8.583999633789062,77.29399871826172 -15.656000137329102,72.62100219726562 -15.656000137329102,66.30799865722656 C-15.656000137329102,59.994998931884766 -8.583999633789062,55.145999908447266 0.13899999856948853,55.145999908447266 C8.862000465393066,55.145999908447266 15.934000015258789,59.994998931884766 15.934000015258789,66.30799865722656z"></path></g><g opacity="1" transform="matrix(1,0,0,1,0,0)"><path fill="rgb(255,216,0)" fill-opacity="1" d=" M14.383999824523926,62.99599838256836 C14.383999824523926,67.47899627685547 9.531999588012695,71.76499938964844 0.13899999856948853,71.76499938964844 C-9.380999565124512,71.76499938964844 -14.107000350952148,67.47899627685547 -14.107000350952148,62.99599838256836 C-14.107000350952148,58.51300048828125 -7.4070000648498535,54.96200180053711 0.13899999856948853,54.96200180053711 C7.684999942779541,54.96200180053711 14.383999824523926,58.51300048828125 14.383999824523926,62.99599838256836z"></path></g><g opacity="1" transform="matrix(1,0,0,1,0,0)"><path fill="url(#__lottie_element_34)" fill-opacity="1" d=" M14.383999824523926,62.99599838256836 C14.383999824523926,67.47899627685547 9.531999588012695,71.76499938964844 0.13899999856948853,71.76499938964844 C-9.380999565124512,71.76499938964844 -14.107000350952148,67.47899627685547 -14.107000350952148,62.99599838256836 C-14.107000350952148,58.51300048828125 -7.4070000648498535,54.96200180053711 0.13899999856948853,54.96200180053711 C7.684999942779541,54.96200180053711 14.383999824523926,58.51300048828125 14.383999824523926,62.99599838256836z"></path></g><g opacity="1" transform="matrix(1,0,0,1,0,0)"><path fill="url(#__lottie_element_35)" fill-opacity="0.7000000000000001" d=" M8.312000274658203,59.749000549316406 C8.312000274658203,62.222999572753906 4.6529998779296875,64.55000305175781 0.13899999856948853,64.55000305175781 C-4.375,64.55000305175781 -8.03499984741211,62.222999572753906 -8.03499984741211,59.749000549316406 C-8.03499984741211,57.275001525878906 -4.375,56.034000396728516 0.13899999856948853,56.034000396728516 C4.6529998779296875,56.034000396728516 8.312000274658203,57.275001525878906 8.312000274658203,59.749000549316406z"></path></g></g><g style="display: block;" transform="matrix(0.6819999814033508,0,0,0.6819999814033508,257.539794921875,186.76365661621094)" opacity="1"><g opacity="1" transform="matrix(1,0,0,1,0,0)"><path fill="rgb(255,205,0)" fill-opacity="1" d=" M-98.23699951171875,-126.00599670410156 C-98.23699951171875,-126.00599670410156 -81.41300201416016,-79.05400085449219 -16.545000076293945,-67.26399993896484 C24.759000778198242,-59.75699996948242 63.527000427246094,-62.87200164794922 79.08999633789062,-42.12200164794922 C79.08999633789062,-42.12200164794922 78.30000305175781,-53.132999420166016 76.56199645996094,-68.27899932861328 C76.56199645996094,-68.27899932861328 105.29000091552734,-30.68000030517578 105.29000091552734,-30.68000030517578 C105.29000091552734,-30.68000030517578 111.68299865722656,-40.20899963378906 107.83000183105469,-56.2760009765625 C107.83000183105469,-56.2760009765625 150.35299682617188,9.982000350952148 145.44700622558594,47.83599853515625 C145.44700622558594,47.83599853515625 154.79800415039062,22.4060001373291 156.1269989013672,15.050999641418457 C179.4810028076172,22.4060001373291 184.58799743652344,-80.63700103759766 161.95399475097656,-122.78800201416016 C152.04800415039062,-141.23699951171875 123.56199645996094,-182.38499450683594 49.99100112915039,-201.92300415039062 C-19.350000381469727,-220.33799743652344 -96.10099792480469,-205.9759979248047 -111.15499877929688,-162.22500610351562 C-189.31700134277344,-162.22500610351562 -183.9320068359375,-3.6010000705718994 -163.33399963378906,14.157999992370605 C-163.33399963378906,14.157999992370605 -158.11099243164062,21.29199981689453 -153.17799377441406,35.15800094604492 C-153.17799377441406,35.15800094604492 -149.99000549316406,21.2810001373291 -150.04100036621094,1.3509999513626099 C-150.04100036621094,1.3509999513626099 -125.39700317382812,-28.423999786376953 -122.88200378417969,-50.48099899291992 C-122.88200378417969,-50.48099899291992 -116.322998046875,-41.119998931884766 -107.48100280761719,-37.242000579833984 C-107.48100280761719,-37.242000579833984 -107.64099884033203,-48.18899917602539 -105.19400024414062,-65.33000183105469 C-105.19400024414062,-65.33000183105469 -101.53399658203125,-57.17499923706055 -91.01100158691406,-53.097999572753906 C-91.01100158691406,-53.097999572753906 -94.63700103759766,-105.49199676513672 -98.23699951171875,-126.00599670410156z"></path></g><g opacity="1" transform="matrix(1,0,0,1,0,0)"><path fill="url(#__lottie_element_25)" fill-opacity="1" d=" M-98.23699951171875,-126.00599670410156 C-98.23699951171875,-126.00599670410156 -81.41300201416016,-79.05400085449219 -16.545000076293945,-67.26399993896484 C24.759000778198242,-59.75699996948242 63.527000427246094,-62.87200164794922 79.08999633789062,-42.12200164794922 C79.08999633789062,-42.12200164794922 78.30000305175781,-53.132999420166016 76.56199645996094,-68.27899932861328 C76.56199645996094,-68.27899932861328 105.29000091552734,-30.68000030517578 105.29000091552734,-30.68000030517578 C105.29000091552734,-30.68000030517578 111.68299865722656,-40.20899963378906 107.83000183105469,-56.2760009765625 C107.83000183105469,-56.2760009765625 150.35299682617188,9.982000350952148 145.44700622558594,47.83599853515625 C145.44700622558594,47.83599853515625 154.79800415039062,22.4060001373291 156.1269989013672,15.050999641418457 C179.4810028076172,22.4060001373291 184.58799743652344,-80.63700103759766 161.95399475097656,-122.78800201416016 C152.04800415039062,-141.23699951171875 123.56199645996094,-182.38499450683594 49.99100112915039,-201.92300415039062 C-19.350000381469727,-220.33799743652344 -96.10099792480469,-205.9759979248047 -111.15499877929688,-162.22500610351562 C-189.31700134277344,-162.22500610351562 -183.9320068359375,-3.6010000705718994 -163.33399963378906,14.157999992370605 C-163.33399963378906,14.157999992370605 -158.11099243164062,21.29199981689453 -153.17799377441406,35.15800094604492 C-153.17799377441406,35.15800094604492 -149.99000549316406,21.2810001373291 -150.04100036621094,1.3509999513626099 C-150.04100036621094,1.3509999513626099 -125.39700317382812,-28.423999786376953 -122.88200378417969,-50.48099899291992 C-122.88200378417969,-50.48099899291992 -116.322998046875,-41.119998931884766 -107.48100280761719,-37.242000579833984 C-107.48100280761719,-37.242000579833984 -107.64099884033203,-48.18899917602539 -105.19400024414062,-65.33000183105469 C-105.19400024414062,-65.33000183105469 -101.53399658203125,-57.17499923706055 -91.01100158691406,-53.097999572753906 C-91.01100158691406,-53.097999572753906 -94.63700103759766,-105.49199676513672 -98.23699951171875,-126.00599670410156z"></path></g><g opacity="1" transform="matrix(1,0,0,1,0,0)"><path fill="url(#__lottie_element_26)" fill-opacity="1" d=" M161.75900268554688,-112.69200134277344 C181.9669952392578,-54.540000915527344 164.53900146484375,-3.38700008392334 150.41900634765625,-11.41100025177002 C143.5240020751953,-15.329999923706055 126.52300262451172,-48.944000244140625 107.68900299072266,-59.6870002746582 C107.68900299072266,-59.6870002746582 114.98300170898438,-37.37099838256836 102.21499633789062,-55.35599899291992 C85.88500213623047,-83.13099670410156 58.09000015258789,-90.197998046875 58.09000015258789,-90.197998046875 C62.47700119018555,-79.23899841308594 63.52199935913086,-65.91600036621094 63.52199935913086,-65.91600036621094 C63.52199935913086,-65.91600036621094 63.529998779296875,-65.90599822998047 63.529998779296875,-65.90599822998047 C48.62799835205078,-74.87200164794922 21.954999923706055,-76.6760025024414 -11.73799991607666,-83.58000183105469 C-72.63099670410156,-96.05799865722656 -109.8219985961914,-149.17999267578125 -84.13700103759766,-178.29299926757812 C-50.4109992980957,-216.52000427246094 33.858001708984375,-205.66299438476562 89.0469970703125,-183.05499267578125 C3.190000057220459,-236.39300537109375 -104.7969970703125,-202.03399658203125 -111.15899658203125,-162.22500610351562 C-143.86700439453125,-158.84300231933594 -159.12899780273438,-134.02000427246094 -167.07200622558594,-100.2030029296875 C-151.72999572753906,-145.92300415039062 -125.56300354003906,-159.1959991455078 -116.84600067138672,-147.78500366210938 C-107.17500305175781,-135.125 -105.4749984741211,-69.65599822998047 -115.59300231933594,-84.18099975585938 C-115.19599914550781,-80.63700103759766 -115.36900329589844,-72.06300354003906 -118.08699798583984,-65.21099853515625 C-120.64900207519531,-58.75199890136719 -131.36900329589844,-78.2509994506836 -131.36900329589844,-78.2509994506836 C-139.8040008544922,-20.295000076293945 -163.98199462890625,-22.226999282836914 -165.88299560546875,7.5229997634887695 C-165.88299560546875,7.5229997634887695 -158.11599731445312,21.297000885009766 -153.17300415039062,35.152000427246094 C-153.17300415039062,35.152000427246094 -149.99099731445312,21.284000396728516 -150.04200744628906,1.3539999723434448 C-150.04200744628906,1.3539999723434448 -125.39299774169922,-28.427000045776367 -122.88300323486328,-50.47800064086914 C-122.88300323486328,-50.47800064086914 -116.31800079345703,-41.11600112915039 -107.48400115966797,-37.237998962402344 C-107.48400115966797,-37.237998962402344 -107.63600158691406,-48.194000244140625 -105.19000244140625,-65.32499694824219 C-105.19000244140625,-65.32499694824219 -101.54000091552734,-57.18000030517578 -91.00800323486328,-53.10100173950195 C-91.00800323486328,-53.10100173950195 -94.63200378417969,-105.48500061035156 -98.21900177001953,-125.96700286865234 C-97.6989974975586,-124.54900360107422 -80.24099731445312,-79.70899963378906 -16.548999786376953,-67.25800323486328 C70.01000213623047,-50.33599853515625 85.552001953125,-56.512001037597656 100.11599731445312,-35.858001708984375 C100.11599731445312,-35.86000061035156 100.11599731445312,-35.86199951171875 100.11599731445312,-35.86399841308594 C102.79199981689453,-33.229000091552734 108.08799743652344,-42.058998107910156 115.06700134277344,-33.73099899291992 C136.0279998779297,-8.720999717712402 143.2550048828125,32.03900146484375 145.447998046875,47.84000015258789 C145.447998046875,47.84000015258789 154.1649932861328,22.405000686645508 156.1320037841797,15.045999526977539 C186.84500122070312,3.5840001106262207 184.41400146484375,-87.53399658203125 161.75900268554688,-112.69200134277344z"></path></g><g opacity="1" transform="matrix(1,0,0,1,0,0)"><path fill="url(#__lottie_element_27)" fill-opacity="0.9" d=" M3.190000057220459,-85.29900360107422 C-50.20000076293945,-89.71800231933594 -69.24800109863281,-107.30599975585938 -86.28099822998047,-134.58999633789062 C-94.47200012207031,-147.7100067138672 -96.89099884033203,-161.61900329589844 -94.9209976196289,-165.24000549316406 C-82.6780014038086,-187.7469940185547 -33.10499954223633,-203.29800415039062 23.801000595092773,-195.4669952392578 C60.832000732421875,-190.37100219726562 96.43099975585938,-174.76199340820312 128.05299377441406,-143.8990020751953 C185.093994140625,-83.04900360107422 92.4010009765625,-77.91500091552734 3.190000057220459,-85.29900360107422z"></path></g><g opacity="1" transform="matrix(1,0,0,1,0,0)"><path fill="url(#__lottie_element_28)" fill-opacity="0.9" d=" M-118.47799682617188,-148.83799743652344 C-137.1179962158203,-148.91299438476562 -163.4149932861328,-113.22799682617188 -163.8000030517578,-85.29900360107422 C-164.21600341796875,-55.13199996948242 -143.27499389648438,-92.93499755859375 -131.36900329589844,-93.80699920654297 C-118.81400299072266,-94.72699737548828 -112.5979995727539,-109.16100311279297 -111.76499938964844,-122.82599639892578 C-111.05000305175781,-134.5570068359375 -115.79199981689453,-148.82699584960938 -118.47799682617188,-148.83799743652344z"></path></g><g opacity="1" transform="matrix(1,0,0,1,0,0)"><path stroke-linecap="round" stroke-linejoin="round" fill-opacity="0" stroke="rgb(197,92,0)" stroke-opacity="1" stroke-width="11.4" d=" M-98.23699951171875,-126.00599670410156 C-98.23699951171875,-126.00599670410156 -81.41300201416016,-79.05400085449219 -16.545000076293945,-67.26399993896484 C24.759000778198242,-59.75699996948242 63.527000427246094,-62.87200164794922 79.08999633789062,-42.12200164794922 C79.08999633789062,-42.12200164794922 82.33399963378906,-51.25 76.56199645996094,-68.27899932861328 C76.56199645996094,-68.27899932861328 105.29000091552734,-30.68000030517578 105.29000091552734,-30.68000030517578 C105.29000091552734,-30.68000030517578 111.68299865722656,-40.20899963378906 107.83000183105469,-56.2760009765625 C125.7229995727539,-10.390999794006348 140.32400512695312,-13.885000228881836 145.44700622558594,47.83599853515625 C145.44700622558594,47.83599853515625 152.06199645996094,40.75 156.1269989013672,15.050999641418457 C156.1269989013672,15.050999641418457 171.49000549316406,25.552000045776367 175.22799682617188,-23.73900032043457 C183.0260009765625,-126.5530014038086 123.56099700927734,-182.38499450683594 49.99100112915039,-201.92300415039062 C-19.350000381469727,-220.33799743652344 -104.7959976196289,-202.03199768066406 -111.15499877929688,-162.22500610351562 C-138.33599853515625,-173.9949951171875 -204.16000366210938,-94.58100128173828 -163.33399963378906,14.157999992370605 C-163.33399963378906,14.157999992370605 -158.11099243164062,21.29199981689453 -153.17799377441406,35.15800094604492 C-153.17799377441406,35.15800094604492 -149.99000549316406,21.2810001373291 -150.04100036621094,1.3509999513626099 C-150.04100036621094,1.3509999513626099 -125.39700317382812,-28.423999786376953 -122.88200378417969,-50.48099899291992 C-122.88200378417969,-50.48099899291992 -116.322998046875,-41.119998931884766 -107.48100280761719,-37.242000579833984 C-107.48100280761719,-37.242000579833984 -107.64099884033203,-48.18899917602539 -105.19400024414062,-65.33000183105469 C-105.19400024414062,-65.33000183105469 -101.53399658203125,-57.17499923706055 -91.01100158691406,-53.097999572753906 C-91.01100158691406,-53.097999572753906 -98.0989990234375,-84.36299896240234 -98.23699951171875,-126.00599670410156z"></path></g><g opacity="1" transform="matrix(1,0,0,1,0,0)"><path stroke-linecap="round" stroke-linejoin="round" fill-opacity="0" stroke="rgb(163,65,0)" stroke-opacity="1" stroke-width="11.4" d=" M-150.04100036621094,1.3509999513626099 C-150.04100036621094,1.3509999513626099 -125.39700317382812,-28.423999786376953 -122.88200378417969,-50.48099899291992 C-122.88200378417969,-50.48099899291992 -116.322998046875,-41.119998931884766 -107.48100280761719,-37.242000579833984 C-107.48100280761719,-37.242000579833984 -107.64099884033203,-48.18899917602539 -105.19400024414062,-65.33000183105469 C-105.19400024414062,-65.33000183105469 -101.53399658203125,-57.17499923706055 -91.01100158691406,-53.097999572753906 C-91.01100158691406,-53.097999572753906 -98.0989990234375,-84.36299896240234 -98.23699951171875,-126.00599670410156 C-98.23699951171875,-126.00599670410156 -81.41300201416016,-79.05400085449219 -16.545000076293945,-67.26399993896484 C24.759000778198242,-59.75699996948242 63.527000427246094,-62.87200164794922 79.08999633789062,-42.12200164794922 C79.08999633789062,-42.12200164794922 82.33399963378906,-51.25 76.56199645996094,-68.27899932861328 C76.56199645996094,-68.27899932861328 105.29000091552734,-30.68000030517578 105.29000091552734,-30.68000030517578 C105.29000091552734,-30.68000030517578 111.68299865722656,-40.20899963378906 107.83000183105469,-56.2760009765625 C125.7229995727539,-10.390999794006348 140.32400512695312,-13.885000228881836 145.44700622558594,47.83599853515625"></path></g></g><g style="display: block;" transform="matrix(1,0,0,1,256,256)" opacity="1"><g opacity="1" transform="matrix(1,0,0,1,0,0)"><path fill="url(#__lottie_element_6)" fill-opacity="1" d=" M127.73500061035156,86.63099670410156 C127.73500061035156,86.63099670410156 -123.21499633789062,86.63099670410156 -123.21499633789062,86.63099670410156 C-123.21499633789062,86.63099670410156 -123.21499633789062,231.5919952392578 -123.21499633789062,231.5919952392578 C-123.21499633789062,231.5919952392578 127.73500061035156,231.5919952392578 127.73500061035156,231.5919952392578 C127.73500061035156,231.5919952392578 127.73500061035156,86.63099670410156 127.73500061035156,86.63099670410156z"></path></g><g opacity="1" transform="matrix(1,0,0,1,0,0)"><g opacity="1" transform="matrix(1,0,0,1,0,0)"><path fill="url(#__lottie_element_7)" fill-opacity="1" d=" M160.66600036621094,168.7969970703125 C158.18299865722656,146.47300720214844 151.18699645996094,90.93399810791016 132.33900451660156,73.76499938964844 C115.03299713134766,58.00199890136719 87.25,57.77399826049805 62.979000091552734,66.45500183105469 C62.979000091552734,66.45500183105469 50.7130012512207,80.43900299072266 50.7130012512207,80.43900299072266 C50.7130012512207,80.43900299072266 116.46199798583984,127.30799865722656 116.46199798583984,127.30799865722656"></path></g><g opacity="1" transform="matrix(1,0,0,1,0,0)"><path stroke-linecap="round" stroke-linejoin="round" fill-opacity="0" stroke="rgb(111,115,117)" stroke-opacity="1" stroke-width="8" d=" M160.66600036621094,168.7969970703125 C158.18299865722656,146.47300720214844 151.18699645996094,90.93399810791016 132.33900451660156,73.76499938964844 C115.03299713134766,58.00199890136719 87.25,57.77399826049805 62.979000091552734,66.45500183105469"></path></g></g><g opacity="1" transform="matrix(1,0,0,1,0,0)"><g opacity="1" transform="matrix(-1,0,0,1,2.75,-1.125)"><g opacity="1" transform="matrix(1,0,0,1,0,0)"><path fill="rgb(255,216,0)" fill-opacity="1" d=" M-82.43199920654297,8.803000450134277 C-82.43199920654297,8.803000450134277 -121.97699737548828,-35.93899917602539 -133.23899841308594,-43.446998596191406 C-144.50100708007812,-50.95500183105469 -174.91000366210938,-67.59700012207031 -183.9199981689453,-73.22799682617188 C-192.92999267578125,-78.85900115966797 -198.85699462890625,-81.14399719238281 -202.69000244140625,-80.11499786376953 C-206.58799743652344,-79.06900024414062 -209.25999450683594,-72.72899627685547 -202.69000244140625,-67.97200012207031 C-202.69000244140625,-67.97200012207031 -208.5760040283203,-65.65799713134766 -207.06900024414062,-58.58700180053711 C-205.53900146484375,-51.40599822998047 -194.05599975585938,-48.89099884033203 -186.45399475097656,-42.97800064086914 C-178.8520050048828,-37.064998626708984 -168.4340057373047,-25.239999771118164 -165.33700561523438,-20.172000885009766 C-162.24000549316406,-15.104000091552734 -133.46299743652344,29.382999420166016 -110.40399932861328,40.082000732421875 C-87.34500122070312,50.78099822998047 -82.43199920654297,8.803000450134277 -82.43199920654297,8.803000450134277z"></path></g><g opacity="1" transform="matrix(1,0,0,1,0,0)"><path fill="url(#__lottie_element_8)" fill-opacity="1" d=" M-82.43199920654297,8.803000450134277 C-82.43199920654297,8.803000450134277 -121.97699737548828,-35.93899917602539 -133.23899841308594,-43.446998596191406 C-144.50100708007812,-50.95500183105469 -174.91000366210938,-67.59700012207031 -183.9199981689453,-73.22799682617188 C-192.92999267578125,-78.85900115966797 -197.85699462890625,-81.14399719238281 -201.69000244140625,-80.11499786376953 C-205.58799743652344,-79.06900024414062 -209.25999450683594,-72.72899627685547 -202.69000244140625,-67.97200012207031 C-202.69000244140625,-67.97200012207031 -208.5760040283203,-65.65799713134766 -207.06900024414062,-58.58700180053711 C-205.53900146484375,-51.40599822998047 -194.05599975585938,-48.89099884033203 -186.45399475097656,-42.97800064086914 C-178.8520050048828,-37.064998626708984 -168.4340057373047,-25.239999771118164 -165.33700561523438,-20.172000885009766 C-162.24000549316406,-15.104000091552734 -133.46299743652344,29.382999420166016 -110.40399932861328,40.082000732421875 C-87.34500122070312,50.78099822998047 -82.43199920654297,8.803000450134277 -82.43199920654297,8.803000450134277z"></path></g><g opacity="1" transform="matrix(1,0,0,1,0,0)"><path stroke-linecap="round" stroke-linejoin="round" fill-opacity="0" stroke="rgb(218,110,0)" stroke-opacity="1" stroke-width="8" d=" M-82.43199920654297,8.803000450134277 C-82.43199920654297,8.803000450134277 -121.97699737548828,-35.93899917602539 -133.23899841308594,-43.446998596191406 C-144.50100708007812,-50.95500183105469 -174.91000366210938,-67.59700012207031 -183.9199981689453,-73.22799682617188 C-192.92999267578125,-78.85900115966797 -197.85699462890625,-81.14399719238281 -201.69000244140625,-80.11499786376953 C-205.58799743652344,-79.06900024414062 -209.25999450683594,-72.72899627685547 -202.69000244140625,-67.97200012207031 C-202.69000244140625,-67.97200012207031 -208.5760040283203,-65.65799713134766 -207.06900024414062,-58.58700180053711 C-205.53900146484375,-51.40599822998047 -194.05599975585938,-48.89099884033203 -186.45399475097656,-42.97800064086914 C-178.8520050048828,-37.064998626708984 -168.4340057373047,-25.239999771118164 -165.33700561523438,-20.172000885009766 C-162.24000549316406,-15.104000091552734 -133.46299743652344,29.382999420166016 -110.40399932861328,40.082000732421875 C-87.34500122070312,50.78099822998047 -82.43199920654297,8.803000450134277 -82.43199920654297,8.803000450134277z"></path></g><g opacity="1" transform="matrix(1,0,0,1,0,0)"><path stroke-linecap="round" stroke-linejoin="round" fill-opacity="0" stroke="rgb(218,110,0)" stroke-opacity="0.5" stroke-width="4" d=" M-202.69000244140625,-67.97200012207031 C-194.05499267578125,-67.22100067138672 -170.1230010986328,-51.42499923706055 -156.0449981689453,-42.415000915527344"></path></g></g><g opacity="1" transform="matrix(1,0,0,1,0,0)"><path fill="rgb(96,100,102)" fill-opacity="1" d=" M69.11499786376953,14.26200008392334 C69.11499786376953,14.26200008392334 81.86100006103516,5.218999862670898 84.50199890136719,5.2170000076293945 C88.44400024414062,5.214000225067139 106.96499633789062,22.165000915527344 113.4729995727539,38.49599838256836 C114.87100219726562,42.005001068115234 106.6510009765625,51.448001861572266 101.58300018310547,54.45100021362305 C96.51499938964844,57.45399856567383 69.11499786376953,14.26200008392334 69.11499786376953,14.26200008392334z"></path><path stroke-linecap="round" stroke-linejoin="round" fill-opacity="0" stroke="rgb(72,75,76)" stroke-opacity="1" stroke-width="8" d=" M69.11499786376953,14.26200008392334 C69.11499786376953,14.26200008392334 81.86100006103516,5.218999862670898 84.50199890136719,5.2170000076293945 C88.44400024414062,5.214000225067139 106.96499633789062,22.165000915527344 113.4729995727539,38.49599838256836 C114.87100219726562,42.005001068115234 106.6510009765625,51.448001861572266 101.58300018310547,54.45100021362305 C96.51499938964844,57.45399856567383 69.11499786376953,14.26200008392334 69.11499786376953,14.26200008392334z"></path></g><g opacity="1" transform="matrix(-2.0971486568450928,1.1762393712997437,0.48918455839157104,0.8721802830696106,14.743284225463867,-49.00819396972656)"><path fill="url(#__lottie_element_9)" fill-opacity="1" d=" M80.38600158691406,89.59400177001953 C80.38600158691406,89.59400177001953 26.270999908447266,75.64199829101562 6.084000110626221,75.40899658203125 C-11.54800033569336,75.20500183105469 -10.204999923706055,94.19599914550781 -12.317999839782715,109.78099822998047 C-13.663999557495117,119.70700073242188 -15.815999984741211,135.06100463867188 -0.20800000429153442,146.98699951171875 C18.409000396728516,161.21200561523438 31.77199935913086,168.4149932861328 77.78199768066406,182.5780029296875 C115.45899963378906,194.17599487304688 126.78800201416016,142.88800048828125 93.63600158691406,66.18800354003906 C86.6780014038086,50.09000015258789 68.94300079345703,-11.565999984741211 42.71099853515625,100.12799835205078"></path></g><g opacity="1" transform="matrix(1,0,0,1,0,0)"><path fill="url(#__lottie_element_10)" fill-opacity="0.2" d=" M-147.81300354003906,219.85699462890625 C-158.08200073242188,195.06700134277344 -140.06399536132812,102.30500030517578 -122.35299682617188,82.22699737548828 C-101.89800262451172,59.03799819946289 -62.52299880981445,68.5469970703125 -62.52299880981445,68.5469970703125 C-62.52299880981445,68.5469970703125 -62.52299880981445,63.97700119018555 -62.52299880981445,63.97700119018555 C-86.15299987792969,56.22700119018555 -112.58300018310547,56.97700119018555 -129.2729949951172,72.177001953125 C-148.11300659179688,89.34700012207031 -155.11300659179688,146.88699340820312 -157.59300231933594,169.20700073242188 C-159.89300537109375,189.85699462890625 -158.73300170898438,209.14700317382812 -147.81300354003906,219.85699462890625z"></path></g><g opacity="1" transform="matrix(1,0,0,1,0,0)"><path fill="url(#__lottie_element_11)" fill-opacity="0.2" d=" M-110.3030014038086,128.0070037841797 C-107.85299682617188,126.45700073242188 50.31700134277344,28.406999588012695 63.30699920654297,26.797000885009766 C76.39700317382812,25.177000045776367 104.0770034790039,49.606998443603516 104.0770034790039,49.606998443603516 C101.95700073242188,34.027000427246094 74.8270034790039,8.177000045776367 57.62699890136719,14.437000274658203 C42.73699951171875,19.847000122070312 -54.10300064086914,85.2969970703125 -95.10299682617188,113.21700286865234 C-95.10299682617188,113.21700286865234 -110.3030014038086,128.0070037841797 -110.3030014038086,128.0070037841797z"></path></g><g opacity="1" transform="matrix(1,0,0,1,0,0)"><path fill="url(#__lottie_element_12)" fill-opacity="0.5" d=" M-69.16699981689453,94.94599914550781 C-69.16699981689453,94.94599914550781 0,155.86000061035156 0,155.86000061035156 C0,155.86000061035156 -38.10499954223633,186.17300415039062 -38.10499954223633,186.17300415039062 C-38.10499954223633,186.17300415039062 -100.35700225830078,115.71700286865234 -100.35700225830078,115.71700286865234 C-100.35700225830078,115.71700286865234 -69.16699981689453,94.94599914550781 -69.16699981689453,94.94599914550781z"></path></g><g opacity="1" transform="matrix(1,0,0,1,0,0)"><path stroke-linecap="round" stroke-linejoin="round" fill-opacity="0" stroke="rgb(111,115,117)" stroke-opacity="1" stroke-width="8" d=" M-113.39299774169922,125.72200012207031 C-113.39299774169922,125.72200012207031 38.65700149536133,21.336999893188477 57.62900161743164,14.435999870300293 C74.822998046875,8.182000160217285 101.96199798583984,34.0260009765625 104.07499694824219,49.611000061035156 C105.4209976196289,59.5369987487793 81.9520034790039,83.5719985961914 67.48699951171875,96.86100006103516 C47.56100082397461,115.16699981689453 -65.14600372314453,222.04800415039062 -114.93299865722656,228.11599731445312 C-153.281005859375,232.7899932861328 -161.33200073242188,202.79100036621094 -157.5959930419922,169.21099853515625 C-155.11199951171875,146.88699340820312 -148.11700439453125,89.3479995727539 -129.2689971923828,72.17900085449219 C-111.96299743652344,56.41600036621094 -84.18000030517578,56.1879997253418 -59.909000396728516,64.86900329589844"></path></g><g opacity="1" transform="matrix(1,0,0,1,0,0)"><path stroke-linecap="round" stroke-linejoin="round" fill-opacity="0" stroke="rgb(72,75,76)" stroke-opacity="1" stroke-width="8" d=" M69.11499786376953,14.26099967956543 C84.86799621582031,18.31399917602539 102.39399719238281,37.209999084472656 104.07499694824219,49.611000061035156 C105.4209976196289,59.5369987487793 81.9520034790039,83.5719985961914 67.48699951171875,96.86100006103516 C47.56100082397461,115.16699981689453 -65.14600372314453,222.04800415039062 -114.93299865722656,228.11599731445312 C-133.31399536132812,230.3560028076172 -144.73399353027344,224.63099670410156 -151.23199462890625,214.36300659179688"></path></g></g><g opacity="1" transform="matrix(1,0,0,1,0,0)"><g opacity="1" transform="matrix(1,0,0,1,0,0)"><g opacity="1" transform="matrix(1,0,0,1,0,0)"><path fill="rgb(255,216,0)" fill-opacity="1" d=" M-82.43199920654297,8.803000450134277 C-82.43199920654297,8.803000450134277 -121.97699737548828,-35.93899917602539 -133.23899841308594,-43.446998596191406 C-144.50100708007812,-50.95500183105469 -174.91000366210938,-67.59700012207031 -183.9199981689453,-73.22799682617188 C-192.92999267578125,-78.85900115966797 -198.85699462890625,-81.14399719238281 -202.69000244140625,-80.11499786376953 C-206.58799743652344,-79.06900024414062 -209.25999450683594,-72.72899627685547 -202.69000244140625,-67.97200012207031 C-202.69000244140625,-67.97200012207031 -208.5760040283203,-65.65799713134766 -207.06900024414062,-58.58700180053711 C-205.53900146484375,-51.40599822998047 -194.05599975585938,-48.89099884033203 -186.45399475097656,-42.97800064086914 C-178.8520050048828,-37.064998626708984 -168.4340057373047,-25.239999771118164 -165.33700561523438,-20.172000885009766 C-162.24000549316406,-15.104000091552734 -133.46299743652344,29.382999420166016 -110.40399932861328,40.082000732421875 C-87.34500122070312,50.78099822998047 -82.43199920654297,8.803000450134277 -82.43199920654297,8.803000450134277z"></path></g><g opacity="1" transform="matrix(1,0,0,1,0,0)"><path fill="url(#__lottie_element_13)" fill-opacity="1" d=" M-82.43199920654297,8.803000450134277 C-82.43199920654297,8.803000450134277 -121.97699737548828,-35.93899917602539 -133.23899841308594,-43.446998596191406 C-144.50100708007812,-50.95500183105469 -174.91000366210938,-67.59700012207031 -183.9199981689453,-73.22799682617188 C-192.92999267578125,-78.85900115966797 -197.85699462890625,-81.14399719238281 -201.69000244140625,-80.11499786376953 C-205.58799743652344,-79.06900024414062 -209.25999450683594,-72.72899627685547 -202.69000244140625,-67.97200012207031 C-202.69000244140625,-67.97200012207031 -208.5760040283203,-65.65799713134766 -207.06900024414062,-58.58700180053711 C-205.53900146484375,-51.40599822998047 -194.05599975585938,-48.89099884033203 -186.45399475097656,-42.97800064086914 C-178.8520050048828,-37.064998626708984 -168.4340057373047,-25.239999771118164 -165.33700561523438,-20.172000885009766 C-162.24000549316406,-15.104000091552734 -133.46299743652344,29.382999420166016 -110.40399932861328,40.082000732421875 C-87.34500122070312,50.78099822998047 -82.43199920654297,8.803000450134277 -82.43199920654297,8.803000450134277z"></path></g><g opacity="1" transform="matrix(1,0,0,1,0,0)"><path stroke-linecap="round" stroke-linejoin="round" fill-opacity="0" stroke="rgb(218,110,0)" stroke-opacity="1" stroke-width="8" d=" M-82.43199920654297,8.803000450134277 C-82.43199920654297,8.803000450134277 -121.97699737548828,-35.93899917602539 -133.23899841308594,-43.446998596191406 C-144.50100708007812,-50.95500183105469 -174.91000366210938,-67.59700012207031 -183.9199981689453,-73.22799682617188 C-192.92999267578125,-78.85900115966797 -197.85699462890625,-81.14399719238281 -201.69000244140625,-80.11499786376953 C-205.58799743652344,-79.06900024414062 -209.25999450683594,-72.72899627685547 -202.69000244140625,-67.97200012207031 C-202.69000244140625,-67.97200012207031 -208.5760040283203,-65.65799713134766 -207.06900024414062,-58.58700180053711 C-205.53900146484375,-51.40599822998047 -194.05599975585938,-48.89099884033203 -186.45399475097656,-42.97800064086914 C-178.8520050048828,-37.064998626708984 -168.4340057373047,-25.239999771118164 -165.33700561523438,-20.172000885009766 C-162.24000549316406,-15.104000091552734 -133.46299743652344,29.382999420166016 -110.40399932861328,40.082000732421875 C-87.34500122070312,50.78099822998047 -82.43199920654297,8.803000450134277 -82.43199920654297,8.803000450134277z"></path></g><g opacity="1" transform="matrix(1,0,0,1,0,0)"><path stroke-linecap="round" stroke-linejoin="round" fill-opacity="0" stroke="rgb(218,110,0)" stroke-opacity="0.5" stroke-width="4" d=" M-202.69000244140625,-67.97200012207031 C-194.05499267578125,-67.22100067138672 -170.1230010986328,-51.42499923706055 -156.0449981689453,-42.415000915527344"></path></g></g><g opacity="1" transform="matrix(1,0,0,1,0,0)"><path fill="rgb(96,100,102)" fill-opacity="1" d=" M-66.04499816894531,15.848999977111816 C-66.04499816894531,15.848999977111816 -78.79100036621094,6.804999828338623 -81.43199920654297,6.802999973297119 C-85.3740005493164,6.800000190734863 -103.89600372314453,23.750999450683594 -110.40399932861328,40.082000732421875 C-111.8030014038086,43.590999603271484 -103.58100128173828,53.034000396728516 -98.51300048828125,56.0369987487793 C-93.44499969482422,59.040000915527344 -66.04499816894531,15.848999977111816 -66.04499816894531,15.848999977111816z"></path><path stroke-linecap="round" stroke-linejoin="round" fill-opacity="0" stroke="rgb(72,75,76)" stroke-opacity="1" stroke-width="8" d=" M-66.04499816894531,15.848999977111816 C-66.04499816894531,15.848999977111816 -78.79100036621094,6.804999828338623 -81.43199920654297,6.802999973297119 C-85.3740005493164,6.800000190734863 -103.89600372314453,23.750999450683594 -110.40399932861328,40.082000732421875 C-111.8030014038086,43.590999603271484 -103.58100128173828,53.034000396728516 -98.51300048828125,56.0369987487793 C-93.44499969482422,59.040000915527344 -66.04499816894531,15.848999977111816 -66.04499816894531,15.848999977111816z"></path></g><g opacity="1" transform="matrix(2.1002821922302246,1.1706351041793823,-0.48685380816459656,0.8734834790229797,-13.411134719848633,-47.94757080078125)"><path fill="url(#__lottie_element_14)" fill-opacity="1" d=" M78.74700164794922,93.81099700927734 C78.74700164794922,93.81099700927734 30.170000076293945,84.7699966430664 11.197999954223633,77.86900329589844 C-5.995999813079834,71.61499786376953 -11.079000473022461,97.09400177001953 -13.192000389099121,112.67900085449219 C-14.538000106811523,122.6050033569336 -15.894000053405762,133.9459991455078 -0.1420000046491623,145.68099975585938 C20.510000228881836,161.0659942626953 32.26900100708008,170.31399536132812 78.3290023803711,181.843994140625 C115.6969985961914,191.197998046875 116.77300262451172,149.11399841308594 111.125,122.99600219726562 C107.16600036621094,104.68900299072266 105.62699890136719,100.51300048828125 97.5,77.52300262451172"></path></g><g opacity="1" transform="matrix(1,0,0,1,0,0)"><path fill="url(#__lottie_element_15)" fill-opacity="0.2" d=" M100.42900085449219,69.65699768066406 C107.875,71.25 118.25,75.875 124.9219970703125,82.93900299072266 C141.25,100.625 161.1510009765625,194.6529998779297 150.8820037841797,219.4429931640625 C161.802001953125,208.73300170898438 162.96200561523438,189.44400024414062 160.66200256347656,168.79400634765625 C158.1820068359375,146.4739990234375 146.9320068359375,92.18399810791016 128.0919952392578,75.01399993896484 C128.0919952392578,75.01399993896484 120.75,67.125 103.34300231933594,65.0999984741211 C103.18800354003906,65.43699645996094 99.625,69.81300354003906 100.42900085449219,69.65699768066406z"></path></g><g opacity="1" transform="matrix(1,0,0,1,0,0)"><path fill="url(#__lottie_element_16)" fill-opacity="0.2" d=" M113.37200164794922,129.593994140625 C110.9219970703125,128.04400634765625 -47.24800109863281,29.993000030517578 -60.237998962402344,28.382999420166016 C-73.3280029296875,26.76300048828125 -101.00800323486328,51.19300079345703 -101.00800323486328,51.19300079345703 C-98.88800048828125,35.612998962402344 -71.75800323486328,9.762999534606934 -54.55799865722656,16.023000717163086 C-39.667999267578125,21.433000564575195 57.172000885009766,86.88300323486328 98.1719970703125,114.8030014038086 C98.1719970703125,114.8030014038086 113.37200164794922,129.593994140625 113.37200164794922,129.593994140625z"></path></g><g opacity="1" transform="matrix(1,0,0,1,0,0)"><path stroke-linecap="round" stroke-linejoin="round" fill-opacity="0" stroke="rgb(111,115,117)" stroke-opacity="1" stroke-width="8" d=" M116.46199798583984,127.30799865722656 C116.46199798583984,127.30799865722656 -35.5880012512207,22.923999786376953 -54.560001373291016,16.023000717163086 C-71.75399780273438,9.769000053405762 -98.89199829101562,35.612998962402344 -101.00499725341797,51.198001861572266 C-102.35099792480469,61.124000549316406 -78.88200378417969,85.15799713134766 -64.41699981689453,98.4469985961914 C-44.49100112915039,116.75299835205078 68.21600341796875,221.63400268554688 118.00299835205078,227.70199584960938 C156.3509979248047,232.37600708007812 164.40199279785156,202.3769989013672 160.66600036621094,168.7969970703125 C158.18299865722656,146.47300720214844 151.18699645996094,90.93399810791016 132.33900451660156,73.76499938964844"></path></g><g opacity="1" transform="matrix(1,0,0,1,0,0)"><path stroke-linecap="round" stroke-linejoin="round" fill-opacity="0" stroke="rgb(72,75,76)" stroke-opacity="1" stroke-width="8" d=" M-66.0459976196289,15.847999572753906 C-81.79900360107422,19.900999069213867 -99.3239974975586,38.797000885009766 -101.00499725341797,51.198001861572266 C-102.35099792480469,61.124000549316406 -78.88200378417969,85.15799713134766 -64.41699981689453,98.4469985961914 C-44.49100112915039,116.75299835205078 68.21600341796875,221.63400268554688 118.00299835205078,227.70199584960938 C136.38400268554688,229.94200134277344 147.8040008544922,224.2169952392578 154.302001953125,213.94900512695312"></path></g></g></g></g></svg>