<svg xmlns="http://www.w3.org/2000/svg" xmlns:xlink="http://www.w3.org/1999/xlink" viewBox="0 0 512 512" width="512" height="512" style="width: 100%; height: 100%; transform: translate3d(0,0,0); content-visibility: visible;" preserveAspectRatio="xMidYMid meet"><defs><clipPath id="__lottie_element_2"><rect width="512" height="512" x="0" y="0"></rect></clipPath><linearGradient id="__lottie_element_6" spreadMethod="pad" gradientUnits="userSpaceOnUse" x1="-1.2380000352859497" y1="26" x2="-1.2380000352859497" y2="46.29499816894531"><stop offset="0%" stop-color="rgb(255,168,0)" stop-opacity="1"></stop><stop offset="66%" stop-color="rgb(255,168,0)" stop-opacity="0.5"></stop><stop offset="100%" stop-color="rgb(255,168,0)" stop-opacity="0"></stop></linearGradient><linearGradient id="__lottie_element_7" spreadMethod="pad" gradientUnits="userSpaceOnUse" x1="-1.2380000352859497" y1="36" x2="-1.2380000352859497" y2="15.09000015258789"><stop offset="10%" stop-color="rgb(219,110,0)" stop-opacity="1"></stop><stop offset="52%" stop-color="rgb(219,110,0)" stop-opacity="0.5"></stop><stop offset="80%" stop-color="rgb(219,110,0)" stop-opacity="0"></stop></linearGradient><radialGradient id="__lottie_element_8" spreadMethod="pad" gradientUnits="userSpaceOnUse" cx="-2.23799991607666" cy="8" r="24.73599910736084" fx="-2.23799991607666" fy="8"><stop offset="36%" stop-color="rgb(255,168,0)" stop-opacity="0"></stop><stop offset="74%" stop-color="rgb(255,168,0)" stop-opacity="0.5"></stop><stop offset="100%" stop-color="rgb(255,168,0)" stop-opacity="1"></stop></radialGradient><linearGradient id="__lottie_element_9" spreadMethod="pad" gradientUnits="userSpaceOnUse" x1="-1.2380000352859497" y1="5" x2="-1.2380000352859497" y2="19.649999618530273"><stop offset="0%" stop-color="rgb(255,255,255)" stop-opacity="1"></stop><stop offset="50%" stop-color="rgb(255,255,255)" stop-opacity="0.5"></stop><stop offset="100%" stop-color="rgb(255,255,255)" stop-opacity="0"></stop></linearGradient><linearGradient id="__lottie_element_16" spreadMethod="pad" gradientUnits="userSpaceOnUse" x1="48.137001037597656" y1="-35.5" x2="64.9739990234375" y2="-13.96399974822998"><stop offset="0%" stop-color="rgb(66,0,0)"></stop><stop offset="38%" stop-color="rgb(118,40,0)"></stop><stop offset="100%" stop-color="rgb(170,80,0)"></stop></linearGradient><radialGradient id="__lottie_element_17" spreadMethod="pad" gradientUnits="userSpaceOnUse" cx="62.07500076293945" cy="-16.5" r="8.64713126043026" fx="62.07500076293945" fy="-16.5"><stop offset="0%" stop-color="rgb(246,175,0)" stop-opacity="1"></stop><stop offset="50%" stop-color="rgb(246,175,0)" stop-opacity="0.5"></stop><stop offset="100%" stop-color="rgb(246,175,0)" stop-opacity="0"></stop></radialGradient><linearGradient id="__lottie_element_18" spreadMethod="pad" gradientUnits="userSpaceOnUse" x1="47.35599899291992" y1="-40.40599822998047" x2="47.768001556396484" y2="-33.0620002746582"><stop offset="0%" stop-color="rgb(255,255,255)" stop-opacity="1"></stop><stop offset="60%" stop-color="rgb(255,255,255)" stop-opacity="0.5"></stop><stop offset="100%" stop-color="rgb(255,255,255)" stop-opacity="0"></stop></linearGradient><linearGradient id="__lottie_element_19" spreadMethod="pad" gradientUnits="userSpaceOnUse" x1="-57.862998962402344" y1="-35.25" x2="-41.5260009765625" y2="-13.46399974822998"><stop offset="0%" stop-color="rgb(66,0,0)"></stop><stop offset="38%" stop-color="rgb(118,40,0)"></stop><stop offset="100%" stop-color="rgb(170,80,0)"></stop></linearGradient><radialGradient id="__lottie_element_20" spreadMethod="pad" gradientUnits="userSpaceOnUse" cx="-42.79999923706055" cy="-16.187999725341797" r="7.955928522877322" fx="-42.79999923706055" fy="-16.187999725341797"><stop offset="0%" stop-color="rgb(246,175,0)" stop-opacity="1"></stop><stop offset="50%" stop-color="rgb(246,175,0)" stop-opacity="0.5"></stop><stop offset="100%" stop-color="rgb(246,175,0)" stop-opacity="0"></stop></radialGradient><linearGradient id="__lottie_element_21" spreadMethod="pad" gradientUnits="userSpaceOnUse" x1="-58.737998962402344" y1="-39.75" x2="-58.54499816894531" y2="-32.6879997253418"><stop offset="0%" stop-color="rgb(255,255,255)" stop-opacity="1"></stop><stop offset="60%" stop-color="rgb(255,255,255)" stop-opacity="0.5"></stop><stop offset="100%" stop-color="rgb(255,255,255)" stop-opacity="0"></stop></linearGradient><radialGradient id="__lottie_element_25" spreadMethod="pad" gradientUnits="userSpaceOnUse" cx="-0.11299999803304672" cy="73.25" r="24.209323377822162" fx="-0.11299999803304672" fy="73.25"><stop offset="10%" stop-color="rgb(219,110,0)" stop-opacity="1"></stop><stop offset="66%" stop-color="rgb(219,110,0)" stop-opacity="0.5"></stop><stop offset="100%" stop-color="rgb(219,110,0)" stop-opacity="0"></stop></radialGradient><linearGradient id="__lottie_element_26" spreadMethod="pad" gradientUnits="userSpaceOnUse" x1="-0.4880000054836273" y1="73" x2="-0.5929999947547913" y2="54.63999938964844"><stop offset="10%" stop-color="rgb(163,65,1)"></stop><stop offset="48%" stop-color="rgb(209,117,1)"></stop><stop offset="75%" stop-color="rgb(255,168,0)"></stop></linearGradient><linearGradient id="__lottie_element_27" spreadMethod="pad" gradientUnits="userSpaceOnUse" x1="-1.1440000534057617" y1="54.78099822998047" x2="-1.0670000314712524" y2="60.150001525878906"><stop offset="0%" stop-color="rgb(255,216,0)" stop-opacity="1"></stop><stop offset="50%" stop-color="rgb(255,216,0)" stop-opacity="0.5"></stop><stop offset="100%" stop-color="rgb(255,216,0)" stop-opacity="0"></stop></linearGradient><linearGradient id="__lottie_element_31" spreadMethod="pad" gradientUnits="userSpaceOnUse" x1="-2.23799991607666" y1="-135" x2="-2.23799991607666" y2="-60.61600112915039"><stop offset="10%" stop-color="rgb(255,169,0)" stop-opacity="0"></stop><stop offset="46%" stop-color="rgb(255,169,0)" stop-opacity="0.5"></stop><stop offset="100%" stop-color="rgb(255,169,0)" stop-opacity="1"></stop></linearGradient><linearGradient id="__lottie_element_32" spreadMethod="pad" gradientUnits="userSpaceOnUse" x1="-1.7380000352859497" y1="-34" x2="-2.23799991607666" y2="-188.0240020751953"><stop offset="8%" stop-color="rgb(218,110,0)" stop-opacity="0.30000001192092896"></stop><stop offset="26%" stop-color="rgb(218,110,0)" stop-opacity="0.6499999761581421"></stop><stop offset="45%" stop-color="rgb(218,110,0)" stop-opacity="1"></stop><stop offset="58%" stop-color="rgb(218,110,0)" stop-opacity="0.5"></stop><stop offset="80%" stop-color="rgb(218,110,0)" stop-opacity="0"></stop></linearGradient><linearGradient id="__lottie_element_33" spreadMethod="pad" gradientUnits="userSpaceOnUse" x1="-117.23799896240234" y1="-140" x2="-105.31999969482422" y2="-110.20500183105469"><stop offset="0%" stop-color="rgb(255,255,255)" stop-opacity="1"></stop><stop offset="50%" stop-color="rgb(255,255,255)" stop-opacity="0.5"></stop><stop offset="100%" stop-color="rgb(255,255,255)" stop-opacity="0"></stop></linearGradient><linearGradient id="__lottie_element_34" spreadMethod="pad" gradientUnits="userSpaceOnUse" x1="-19.238000869750977" y1="-181" x2="-9.968000411987305" y2="-122.302001953125"><stop offset="0%" stop-color="rgb(255,255,255)" stop-opacity="1"></stop><stop offset="50%" stop-color="rgb(255,255,255)" stop-opacity="0.5"></stop><stop offset="100%" stop-color="rgb(255,255,255)" stop-opacity="0"></stop></linearGradient><linearGradient id="__lottie_element_38" spreadMethod="pad" gradientUnits="userSpaceOnUse" x1="-22.238000869750977" y1="-129" x2="-7.683000087738037" y2="-55.742000579833984"><stop offset="0%" stop-color="rgb(219,110,0)" stop-opacity="1"></stop><stop offset="38%" stop-color="rgb(219,110,0)" stop-opacity="0.5"></stop><stop offset="70%" stop-color="rgb(219,110,0)" stop-opacity="0"></stop></linearGradient><linearGradient id="__lottie_element_39" spreadMethod="pad" gradientUnits="userSpaceOnUse" x1="-1.2380000352859497" y1="-114" x2="-1.2380000352859497" y2="95.20500183105469"><stop offset="6%" stop-color="rgb(255,216,0)" stop-opacity="0"></stop><stop offset="15%" stop-color="rgb(255,216,0)" stop-opacity="0.5"></stop><stop offset="50%" stop-color="rgb(255,216,0)" stop-opacity="1"></stop><stop offset="89%" stop-color="rgb(255,216,0)" stop-opacity="0.5"></stop><stop offset="100%" stop-color="rgb(255,216,0)" stop-opacity="0"></stop></linearGradient><radialGradient id="__lottie_element_46" spreadMethod="pad" gradientUnits="userSpaceOnUse" cx="-2.1440000534057617" cy="162.67999267578125" r="48.62161596665254" fx="-2.1440000534057617" fy="162.67999267578125"><stop offset="20%" stop-color="rgb(255,168,0)" stop-opacity="1"></stop><stop offset="60%" stop-color="rgb(255,168,0)" stop-opacity="0.5"></stop><stop offset="100%" stop-color="rgb(255,168,0)" stop-opacity="0"></stop></radialGradient><radialGradient id="__lottie_element_50" spreadMethod="pad" gradientUnits="userSpaceOnUse" cx="-1.2380000352859497" cy="210" r="153.84099686145782" fx="-1.2380000352859497" fy="210"><stop offset="55%" stop-color="rgb(51,142,218)"></stop><stop offset="93%" stop-color="rgb(26,104,177)"></stop><stop offset="100%" stop-color="rgb(0,66,137)"></stop></radialGradient><linearGradient id="__lottie_element_51" spreadMethod="pad" gradientUnits="userSpaceOnUse" x1="-3.23799991607666" y1="118" x2="-1.6670000553131104" y2="182.4149932861328"><stop offset="0%" stop-color="rgb(255,255,255)" stop-opacity="1"></stop><stop offset="50%" stop-color="rgb(255,255,255)" stop-opacity="0.5"></stop><stop offset="100%" stop-color="rgb(255,255,255)" stop-opacity="0"></stop></linearGradient><radialGradient id="__lottie_element_52" spreadMethod="pad" gradientUnits="userSpaceOnUse" cx="-96.98799896240234" cy="216" r="23.83600610549698" fx="-96.98799896240234" fy="216"><stop offset="0%" stop-color="rgb(0,66,137)" stop-opacity="1"></stop><stop offset="50%" stop-color="rgb(0,66,137)" stop-opacity="0.5"></stop><stop offset="100%" stop-color="rgb(0,66,137)" stop-opacity="0"></stop></radialGradient><radialGradient id="__lottie_element_53" spreadMethod="pad" gradientUnits="userSpaceOnUse" cx="98.01200103759766" cy="215" r="24.22612620449226" fx="98.01200103759766" fy="215"><stop offset="0%" stop-color="rgb(0,66,137)" stop-opacity="1"></stop><stop offset="50%" stop-color="rgb(0,66,137)" stop-opacity="0.5"></stop><stop offset="100%" stop-color="rgb(0,66,137)" stop-opacity="0"></stop></radialGradient><radialGradient id="__lottie_element_54" spreadMethod="pad" gradientUnits="userSpaceOnUse" cx="-2.23799991607666" cy="86" r="86.68370488309837" fx="-2.23799991607666" fy="86"><stop offset="0%" stop-color="rgb(0,66,137)" stop-opacity="1"></stop><stop offset="50%" stop-color="rgb(0,66,137)" stop-opacity="0.5"></stop><stop offset="100%" stop-color="rgb(0,66,137)" stop-opacity="0"></stop></radialGradient></defs><g clip-path="url(#__lottie_element_2)"><g style="display: block;" transform="matrix(1,0,0,1,256,256)" opacity="1"><g opacity="1" transform="matrix(1,0,0,1,0,0)"><path fill="url(#__lottie_element_50)" fill-opacity="1" d=" M133.29299926757812,217.19000244140625 C137.25399780273438,217.19000244140625 150.33399963378906,215.76199340820312 154.25399780273438,207.61399841308594 C154.25399780273438,207.61399841308594 148.718994140625,175.94400024414062 148.718994140625,175.94400024414062 C145.5229949951172,158.40499877929688 132.0070037841797,144.53199768066406 113.71900177001953,138.94700622558594 C113.71900177001953,138.94700622558594 46.78200149536133,114.89900207519531 46.78200149536133,114.89900207519531 C46.78200149536133,114.89900207519531 44.71699905395508,133.98699951171875 1.74399995803833,133.98699951171875 C-41.374000549316406,133.98699951171875 -50.875999450683594,112.83000183105469 -50.875999450683594,112.83000183105469 C-50.875999450683594,112.83000183105469 -122.21199798583984,140.8489990234375 -122.21199798583984,140.8489990234375 C-136.7779998779297,147.51400756835938 -145.79299926757812,159.86599731445312 -148.32200622558594,178.85899353027344 C-148.32200622558594,178.85899353027344 -154.25399780273438,207.25900268554688 -154.25399780273438,207.25900268554688 C-150.75399780273438,214.69400024414062 -141.18299865722656,217.19000244140625 -130.1179962158203,217.19000244140625 C-130.1179962158203,217.19000244140625 133.29299926757812,217.19000244140625 133.29299926757812,217.19000244140625z"></path></g><g opacity="1" transform="matrix(1,0,0,1,0,0)"><path fill="url(#__lottie_element_51)" fill-opacity="0.2" d=" M148.08399963378906,209.72300720214844 C146.29400634765625,209.72300720214844 144.6490020751953,208.54299926757812 144.13999938964844,206.73599243164062 C144.13999938964844,206.73599243164062 137.94700622558594,184.7830047607422 137.94700622558594,184.7830047607422 C137.9290008544922,184.718994140625 137.91200256347656,184.656005859375 137.8979949951172,184.59100341796875 C133.25100708007812,164.4219970703125 123.26499938964844,153.89599609375 101.06500244140625,145.7760009765625 C101.06500244140625,145.7760009765625 42.58100128173828,126.33999633789062 42.58100128173828,126.33999633789062 C42.58100128173828,126.33999633789062 -44.06700134277344,126.35299682617188 -44.06700134277344,126.35299682617188 C-44.06700134277344,126.35299682617188 -102.20099639892578,145.77499389648438 -102.20099639892578,145.77499389648438 C-124.40499877929688,153.89500427246094 -134.39100646972656,164.42100524902344 -139.03799438476562,184.59100341796875 C-139.052001953125,184.656005859375 -139.06900024414062,184.718994140625 -139.08700561523438,184.7830047607422 C-139.08700561523438,184.7830047607422 -145.27999877929688,206.73599243164062 -145.27999877929688,206.73599243164062 C-145.89500427246094,208.9149932861328 -148.15499877929688,210.1840057373047 -150.33799743652344,209.5679931640625 C-152.51699829101562,208.9530029296875 -153.78599548339844,206.68899536132812 -153.17100524902344,204.50999450683594 C-153.17100524902344,204.50999450683594 -147.00399780273438,182.65199279785156 -147.00399780273438,182.65199279785156 C-141.68299865722656,159.66700744628906 -129.88699340820312,147.1580047607422 -104.95999908447266,138.0540008544922 C-104.92500305175781,138.04100036621094 -104.88899993896484,138.0290069580078 -104.85299682617188,138.01699829101562 C-104.85299682617188,138.01699829101562 -46.03300094604492,118.36499786376953 -46.03300094604492,118.36499786376953 C-45.6150016784668,118.2249984741211 -45.17599868774414,118.15399932861328 -44.73500061035156,118.15399932861328 C-44.73500061035156,118.15399932861328 43.24300003051758,118.14099884033203 43.24300003051758,118.14099884033203 C43.68299865722656,118.14099884033203 44.119998931884766,118.21099853515625 44.5369987487793,118.3499984741211 C44.5369987487793,118.3499984741211 103.70899963378906,138.01499938964844 103.70899963378906,138.01499938964844 C103.74700164794922,138.0279998779297 103.78500366210938,138.0399932861328 103.8219985961914,138.0540008544922 C128.7480010986328,147.1580047607422 140.54400634765625,159.66700744628906 145.86500549316406,182.65199279785156 C145.86500549316406,182.65199279785156 152.031005859375,204.50999450683594 152.031005859375,204.50999450683594 C152.64599609375,206.68899536132812 151.3780059814453,208.9530029296875 149.19900512695312,209.5679931640625 C148.8280029296875,209.67300415039062 148.45199584960938,209.72300720214844 148.08399963378906,209.72300720214844z"></path></g><g opacity="1" transform="matrix(1,0,0,1,0,0)"><path fill="url(#__lottie_element_52)" fill-opacity="0.6" d=" M-76.84500122070312,217.18899536132812 C-76.84500122070312,217.18899536132812 -117.10600280761719,217.15899658203125 -117.10600280761719,217.15899658203125 C-117.10600280761719,206.65499877929688 -111.09300231933594,191.13900756835938 -97.25800323486328,191.13900756835938 C-81.66699981689453,191.13900756835938 -76.21800231933594,214.4709930419922 -76.84500122070312,217.18899536132812z"></path></g><g opacity="1" transform="matrix(1,0,0,1,0,0)"><path fill="url(#__lottie_element_53)" fill-opacity="0.6" d=" M118.37000274658203,217.18899536132812 C118.37000274658203,217.18899536132812 78.10900115966797,217.15899658203125 78.10900115966797,217.15899658203125 C78.10900115966797,206.65499877929688 84.12200164794922,191.13900756835938 97.95700073242188,191.13900756835938 C113.5479965209961,191.13900756835938 118.99700164794922,214.4709930419922 118.37000274658203,217.18899536132812z"></path></g><g opacity="1" transform="matrix(1,0,0,1,0,0)"><path stroke-linecap="round" stroke-linejoin="round" fill-opacity="0" stroke="rgb(2,77,140)" stroke-opacity="1" stroke-width="8" d=" M152.0590057373047,204.6060028076172 C152.0590057373047,204.6060028076172 147.70700073242188,178.85899353027344 147.70700073242188,178.85899353027344 C142.447998046875,155.302001953125 130.66900634765625,143.1009979248047 106.67400360107422,134.05599975585938 C106.67400360107422,134.05599975585938 45.17100143432617,112.96199798583984 45.17100143432617,112.96199798583984"></path></g><g opacity="1" transform="matrix(1,0,0,1,0,0)"><path stroke-linecap="round" stroke-linejoin="round" fill-opacity="0" stroke="rgb(2,77,140)" stroke-opacity="1" stroke-width="8" d=" M-152.7969970703125,204.6060028076172 C-152.7969970703125,204.6060028076172 -148.44400024414062,178.85899353027344 -148.44400024414062,178.85899353027344 C-143.18499755859375,155.302001953125 -131.406005859375,143.1009979248047 -107.41100311279297,134.05599975585938 C-107.41100311279297,134.05599975585938 -46.27299880981445,112.9749984741211 -46.27299880981445,112.9749984741211"></path></g><g opacity="1" transform="matrix(1,0,0,1,0,0)"><path fill="url(#__lottie_element_54)" fill-opacity="1" d=" M73.2959976196289,123.40799713134766 C79.4540023803711,133.8509979248047 54.45100021362305,180.125 -3.9240000247955322,180.0760040283203 C-56.108001708984375,180.03199768066406 -79.34100341796875,130.00599670410156 -70.42400360107422,122.0250015258789 C-66.89299774169922,118.16600036621094 -41.71200180053711,109.60199737548828 -3.1429998874664307,109.60199737548828 C35.42599868774414,109.60199737548828 70.197998046875,119.22799682617188 73.2959976196289,123.40799713134766z"></path></g><g opacity="1" transform="matrix(1,0,0,1,0,0)"><path stroke-linecap="round" stroke-linejoin="round" fill-opacity="0" stroke="rgb(51,142,218)" stroke-opacity="0.3" stroke-width="8" d=" M48.83300018310547,118.73899841308594 C56.35100173950195,129.97000122070312 27.086000442504883,146.4600067138672 -0.6759999990463257,146.4600067138672 C-28.437999725341797,146.4600067138672 -60.0260009765625,131.93899536132812 -49.13100051879883,118.75800323486328 C-46.5890007019043,115.68299865722656 -28.479999542236328,113.4800033569336 -0.7179999947547913,113.4800033569336 C27.04400062561035,113.4800033569336 46.60300064086914,115.40799713134766 48.83300018310547,118.73899841308594z"></path></g><g opacity="1" transform="matrix(1,0,0,1,0,0)"><path fill="rgb(181,102,6)" fill-opacity="1" d=" M48.005001068115234,113.83599853515625 C55.39799880981445,125.06700134277344 29.707000732421875,142.58200073242188 -0.6759999990463257,142.58200073242188 C-30.166000366210938,142.58200073242188 -57.6510009765625,126.91799926757812 -48.31999969482422,113.85399627685547 C-46.013999938964844,110.6259994506836 -28.014999389648438,108.5770034790039 -0.7170000076293945,108.5770034790039 C26.58099937438965,108.5770034790039 45.8129997253418,110.50499725341797 48.005001068115234,113.83599853515625z"></path><path stroke-linecap="round" stroke-linejoin="round" fill-opacity="0" stroke="rgb(0,40,79)" stroke-opacity="1" stroke-width="8" d=" M48.005001068115234,113.83599853515625 C55.39799880981445,125.06700134277344 29.707000732421875,142.58200073242188 -0.6759999990463257,142.58200073242188 C-30.166000366210938,142.58200073242188 -57.6510009765625,126.91799926757812 -48.31999969482422,113.85399627685547 C-46.013999938964844,110.6259994506836 -28.014999389648438,108.5770034790039 -0.7170000076293945,108.5770034790039 C26.58099937438965,108.5770034790039 45.8129997253418,110.50499725341797 48.005001068115234,113.83599853515625z"></path></g></g><g style="display: block;" transform="matrix(1,0,0,1,256,256)" opacity="1"><g opacity="1" transform="matrix(1,0,0,1,0,0)"><path fill="rgb(181,102,6)" fill-opacity="1" d=" M-41.29100036621094,117.90899658203125 C-41.29100036621094,117.90899658203125 -39.090999603271484,100.83499908447266 -39.090999603271484,100.83499908447266 C-39.090999603271484,100.83499908447266 38,100.83499908447266 38,100.83499908447266 C38,100.83499908447266 40.8120002746582,117.5979995727539 40.8120002746582,117.5979995727539"></path><path stroke-linecap="round" stroke-linejoin="round" fill-opacity="0" stroke="rgb(153,71,4)" stroke-opacity="1" stroke-width="8" d=" M-41.29100036621094,117.90899658203125 C-41.29100036621094,117.90899658203125 -39.090999603271484,100.83499908447266 -39.090999603271484,100.83499908447266 C-39.090999603271484,100.83499908447266 38,100.83499908447266 38,100.83499908447266 C38,100.83499908447266 40.8120002746582,117.5979995727539 40.8120002746582,117.5979995727539"></path></g><g opacity="1" transform="matrix(1.1456600427627563,0,0,0.6349300146102905,0.14566004276275635,45.05839538574219)"><path fill="url(#__lottie_element_46)" fill-opacity="1" d=" M-34.12200164794922,89.77799987792969 C-34.12200164794922,89.77799987792969 -39.17499923706055,120.53600311279297 -39.17499923706055,120.53600311279297 C-25.875999450683594,154.8470001220703 27.367000579833984,157.01199340820312 39.45600128173828,116.927001953125 C39.45600128173828,116.927001953125 33.654998779296875,89.46700286865234 33.654998779296875,89.46700286865234 C33.654998779296875,89.46700286865234 -34.12200164794922,89.77799987792969 -34.12200164794922,89.77799987792969z"></path></g></g><g style="display: block;" transform="matrix(1,0,0,1,256,256)" opacity="1"><g opacity="1" transform="matrix(1,0,0,1,0,0)"><path fill="rgb(255,168,0)" fill-opacity="1" d=" M-110.91200256347656,-42.15399932861328 C-110.91200256347656,-42.15399932861328 -121.3280029296875,-49.30099868774414 -126.8030014038086,-39.7239990234375 C-131.81199645996094,-30.96299934387207 -122.23999786376953,14.326000213623047 -113.39700317382812,21.67099952697754 C-107.95800018310547,26.18899917602539 -102.06900024414062,20.614999771118164 -102.06900024414062,20.614999771118164 C-98.48200225830078,18.136999130249023 -104.30400085449219,-33.069000244140625 -110.91200256347656,-42.15399932861328z"></path><path stroke-linecap="round" stroke-linejoin="round" fill-opacity="0" stroke="rgb(219,110,0)" stroke-opacity="1" stroke-width="8" d=" M-110.91200256347656,-42.15399932861328 C-110.91200256347656,-42.15399932861328 -121.3280029296875,-49.30099868774414 -126.8030014038086,-39.7239990234375 C-131.81199645996094,-30.96299934387207 -122.23999786376953,14.326000213623047 -113.39700317382812,21.67099952697754 C-107.95800018310547,26.18899917602539 -102.06900024414062,20.614999771118164 -102.06900024414062,20.614999771118164 C-98.48200225830078,18.136999130249023 -104.30400085449219,-33.069000244140625 -110.91200256347656,-42.15399932861328z"></path></g><g opacity="1" transform="matrix(1,0,0,1,0,0)"><path fill="rgb(255,168,0)" fill-opacity="1" d=" M108.16400146484375,-42.15399932861328 C108.16400146484375,-42.15399932861328 118.58000183105469,-49.30099868774414 124.05500030517578,-39.7239990234375 C129.06399536132812,-30.96299934387207 119.49099731445312,14.326000213623047 110.64900207519531,21.67099952697754 C105.20999908447266,26.18899917602539 99.32099914550781,20.614999771118164 99.32099914550781,20.614999771118164 C95.73400115966797,18.136999130249023 101.55599975585938,-33.069000244140625 108.16400146484375,-42.15399932861328z"></path><path stroke-linecap="round" stroke-linejoin="round" fill-opacity="0" stroke="rgb(219,110,0)" stroke-opacity="1" stroke-width="8" d=" M108.16400146484375,-42.15399932861328 C108.16400146484375,-42.15399932861328 118.58000183105469,-49.30099868774414 124.05500030517578,-39.7239990234375 C129.06399536132812,-30.96299934387207 119.49099731445312,14.326000213623047 110.64900207519531,21.67099952697754 C105.20999908447266,26.18899917602539 99.32099914550781,20.614999771118164 99.32099914550781,20.614999771118164 C95.73400115966797,18.136999130249023 101.55599975585938,-33.069000244140625 108.16400146484375,-42.15399932861328z"></path></g></g><g style="display: block;" transform="matrix(1,0,0,1,256,256)" opacity="1"><g opacity="1" transform="matrix(1,0,0,1,0,0)"><path fill="rgb(255,168,0)" fill-opacity="1" d=" M106.87899780273438,-12.211000442504883 C106.87899780273438,57.29800033569336 57.98899841308594,115.91300201416016 -0.9610000252723694,115.91300201416016 C-59.9109992980957,115.91300201416016 -108.8010025024414,57.29800033569336 -108.8010025024414,-12.211000442504883 C-119.64800262451172,-127.76399993896484 -59.24599838256836,-174.25900268554688 -0.9610000252723694,-174.25900268554688 C55.79499816894531,-174.25900268554688 106.87899780273438,-156.12899780273438 106.87899780273438,-12.211000442504883z"></path></g><g opacity="1" transform="matrix(1,0,0,1,0,0)"><path fill="url(#__lottie_element_38)" fill-opacity="1" d=" M106.87899780273438,-12.211000442504883 C106.87899780273438,57.29800033569336 57.98899841308594,115.91300201416016 -0.9610000252723694,115.91300201416016 C-59.9109992980957,115.91300201416016 -108.8010025024414,57.29800033569336 -108.8010025024414,-12.211000442504883 C-119.64800262451172,-127.76399993896484 -59.24599838256836,-174.25900268554688 -0.9610000252723694,-174.25900268554688 C55.79499816894531,-174.25900268554688 106.87899780273438,-156.12899780273438 106.87899780273438,-12.211000442504883z"></path></g><g opacity="1" transform="matrix(1,0,0,1,0,0)"><path stroke-linecap="round" stroke-linejoin="round" fill-opacity="0" stroke="rgb(219,110,0)" stroke-opacity="1" stroke-width="8" d=" M106.87899780273438,-12.211000442504883 C106.87899780273438,57.29800033569336 57.98899841308594,115.91300201416016 -0.9610000252723694,115.91300201416016 C-59.9109992980957,115.91300201416016 -108.8010025024414,57.29800033569336 -108.8010025024414,-12.211000442504883 C-119.64800262451172,-127.76399993896484 -59.24599838256836,-174.25900268554688 -0.9610000252723694,-174.25900268554688 C55.79499816894531,-174.25900268554688 106.87899780273438,-156.12899780273438 106.87899780273438,-12.211000442504883z"></path></g><g opacity="1" transform="matrix(1,0,0,1,0,0)"><g opacity="1" transform="matrix(1,0,0,1,0,0)"><path fill="url(#__lottie_element_39)" fill-opacity="1" d=" M96.70500183105469,-50.25699996948242 C78.21099853515625,-69.21800231933594 78.052001953125,-86.62200164794922 77.15799713134766,-91.73500061035156 C76.97699737548828,-92.77200317382812 75.98600006103516,-93.45800018310547 74.96299743652344,-93.25199890136719 C-5.63700008392334,-77.03900146484375 -59.66899871826172,-97.8949966430664 -69.35900115966797,-105.03299713134766 C-70.48300170898438,-105.86100006103516 -72.34400177001953,-105.20600128173828 -72.29199981689453,-103.802001953125 C-71.41200256347656,-80.25399780273438 -97.625,-55.143001556396484 -98.8290023803711,-51.67900085449219 C-98.84700012207031,-50.305999755859375 -98.88800048828125,-23.795000076293945 -98.88800048828125,-22.121999740600586 C-98.88800048828125,40.5629997253418 -54.492000579833984,95.6989974975586 -0.9610000252723694,95.6989974975586 C52.56999969482422,95.6989974975586 96.96600341796875,40.5629997253418 96.96600341796875,-22.121999740600586 C96.96600341796875,-27.642000198364258 96.73100280761719,-49.34299850463867 96.70500183105469,-50.25699996948242z"></path></g></g></g><g style="display: block;" transform="matrix(1,0,0,1,256,256)" opacity="1"><g opacity="1" transform="matrix(1,0,0,1,0,0)"><path fill="rgb(255,206,1)" fill-opacity="1" d=" M-82.19200134277344,-123.8479995727539 C-82.07599639892578,-124.85600280761719 -80.93399810791016,-125.39600372314453 -80.09100341796875,-124.8219985961914 C-73.01300048828125,-120.00900268554688 -45.58399963378906,-103.68900299072266 3.4790000915527344,-101.68699645996094 C51.41299819946289,-99.73100280761719 78.8740005493164,-105.64900207519531 85.41100311279297,-107.28099822998047 C86.20800018310547,-107.4800033569336 86.98899841308594,-106.93599700927734 87.0719985961914,-106.1240005493164 C87.60299682617188,-100.91799926757812 90.12000274658203,-83.4530029296875 101.01699829101562,-65.23799896240234 C102.0009994506836,-63.59400177001953 102.5009994506836,-61.707000732421875 102.5009994506836,-59.79499816894531 C102.5009994506836,-59.79499816894531 102.5009994506836,-15.41100025177002 102.5009994506836,-15.41100025177002 C102.5009994506836,-13.895000457763672 104.00900268554688,-12.767000198364258 105.44300079345703,-13.288000106811523 C108.3010025024414,-14.326000213623047 112.51000213623047,-18.270999908447266 114.6449966430664,-31.933000564575195 C118.06099700927734,-53.79199981689453 125.6510009765625,-89.59600067138672 118.81999969482422,-121.25399780273438 C111.98899841308594,-152.91200256347656 88.24199676513672,-187.66299438476562 36.62799835205078,-196.11099243164062 C-19.572999954223633,-205.30999755859375 -77.75800323486328,-194.1269989013672 -99.4020004272461,-157.62399291992188 C-103.6500015258789,-155.17599487304688 -148.42999267578125,-121.88400268554688 -109.70500183105469,-13.63599967956543 C-109.03199768066406,-11.755000114440918 -105.29299926757812,-10.96399974822998 -105.29299926757812,-12.960000038146973 C-105.29299926757812,-12.960000038146973 -105.85399627685547,-59.37300109863281 -105.85399627685547,-59.37300109863281 C-105.85399627685547,-61.75 -105.05500030517578,-64.05500030517578 -103.61000061035156,-65.94999694824219 C-98.44100189208984,-72.72799682617188 -85.85800170898438,-92.08499908447266 -82.19200134277344,-123.8479995727539z"></path></g><g opacity="1" transform="matrix(1,0,0,1,0,0)"><path fill="url(#__lottie_element_31)" fill-opacity="1" d=" M-82.19200134277344,-123.8479995727539 C-82.07599639892578,-124.85600280761719 -80.93399810791016,-125.39600372314453 -80.09100341796875,-124.8219985961914 C-73.01300048828125,-120.00900268554688 -45.58399963378906,-103.68900299072266 3.4790000915527344,-101.68699645996094 C51.41299819946289,-99.73100280761719 78.8740005493164,-105.64900207519531 85.41100311279297,-107.28099822998047 C86.20800018310547,-107.4800033569336 86.98899841308594,-106.93599700927734 87.0719985961914,-106.1240005493164 C87.60299682617188,-100.91799926757812 90.12000274658203,-83.4530029296875 101.01699829101562,-65.23799896240234 C102.0009994506836,-63.59400177001953 102.5009994506836,-61.707000732421875 102.5009994506836,-59.79499816894531 C102.5009994506836,-59.79499816894531 102.5009994506836,-15.41100025177002 102.5009994506836,-15.41100025177002 C102.5009994506836,-13.895000457763672 104.00900268554688,-12.767000198364258 105.44300079345703,-13.288000106811523 C108.3010025024414,-14.326000213623047 112.51000213623047,-18.270999908447266 114.6449966430664,-31.933000564575195 C118.06099700927734,-53.79199981689453 125.6510009765625,-89.59600067138672 118.81999969482422,-121.25399780273438 C111.98899841308594,-152.91200256347656 88.24199676513672,-187.66299438476562 36.62799835205078,-196.11099243164062 C-19.572999954223633,-205.30999755859375 -77.75800323486328,-194.1269989013672 -99.4020004272461,-157.62399291992188 C-103.6500015258789,-155.17599487304688 -148.42999267578125,-121.88400268554688 -109.70500183105469,-13.63599967956543 C-109.03199768066406,-11.755000114440918 -105.29299926757812,-10.96399974822998 -105.29299926757812,-12.960000038146973 C-105.29299926757812,-12.960000038146973 -105.85399627685547,-59.37300109863281 -105.85399627685547,-59.37300109863281 C-105.85399627685547,-61.75 -105.05500030517578,-64.05500030517578 -103.61000061035156,-65.94999694824219 C-98.44100189208984,-72.72799682617188 -85.85800170898438,-92.08499908447266 -82.19200134277344,-123.8479995727539z"></path></g><g opacity="1" transform="matrix(1,0,0,1,0,0)"><path fill="url(#__lottie_element_32)" fill-opacity="1" d=" M113.66300201416016,-26.857999801635742 C111.38300323486328,-17.250999450683594 104.99199676513672,-9.684000015258789 104.99199676513672,-11.201000213623047 C104.99199676513672,-11.201000213623047 101.66000366210938,-61.972999572753906 101.66000366210938,-61.972999572753906 C88.58000183105469,-86.36100006103516 87.60600280761719,-97.98100280761719 87.07499694824219,-103.19100189208984 C86.98600006103516,-104.00399780273438 53.54499816894531,-95.76799774169922 5.614999771118164,-97.7239990234375 C-43.45500183105469,-99.73600006103516 -75.96199798583984,-116.09600067138672 -83.0459976196289,-120.91100311279297 C-83.88800048828125,-121.48300170898438 -79.2249984741211,-94.71199798583984 -103.61499786376953,-63.013999938964844 C-105.06400299072266,-61.13100051879883 -106.83499908447266,-11.201000213623047 -106.83499908447266,-11.201000213623047 C-112.85299682617188,-12.954000473022461 -115.04900360107422,-22.066999435424805 -117.27400207519531,-32.507999420166016 C-109.96800231933594,-8.515000343322754 -113.78800201416016,-60.72700119018555 -113.78800201416016,-60.72700119018555 C-114.59700012207031,-60.42900085449219 -116.4209976196289,-60.577999114990234 -116.4209976196289,-60.577999114990234 C-96.18699645996094,-85.70800018310547 -90.80000305175781,-113.56700134277344 -91.24500274658203,-126.59100341796875 C-91.58799743652344,-136.63400268554688 -93.00900268554688,-142.44200134277344 -96.71199798583984,-144.2760009765625 C-109.03900146484375,-150.3800048828125 -123.4280014038086,-107.6520004272461 -123.4280014038086,-107.6520004272461 C-124.3479995727539,-137.12600708007812 -104.58799743652344,-152.29800415039062 -98.5780029296875,-155.81500244140625 C-74.43599700927734,-190.15499877929688 -19.570999145507812,-205.31199645996094 36.62799835205078,-196.11099243164062 C88.24400329589844,-187.66900634765625 112.37999725341797,-164.8280029296875 120.63700103759766,-110.08100128173828 C117.06800079345703,-163.6790008544922 71.58799743652344,-190.00900268554688 3.1679999828338623,-189.89999389648438 C-50.665000915527344,-189.81399536132812 -73.13300323486328,-173.2310028076172 -81.95099639892578,-163.20700073242188 C-84.58899688720703,-160.20799255371094 -87.48100280761719,-152.76800537109375 -84.72200012207031,-147.51100158691406 C-76.16500091552734,-131.20899963378906 -46.097999572753906,-114.05999755859375 7.699999809265137,-110.9489974975586 C65.34400177001953,-107.61599731445312 107.96700286865234,-120.41200256347656 108.86399841308594,-120.68699645996094 C102.5989990234375,-115.03700256347656 97.10099792480469,-107.1240005493164 97.10099792480469,-107.1240005493164 C98.95800018310547,-80.18900299072266 114.3489990234375,-59.86199951171875 114.3489990234375,-59.86199951171875 C112.30500030517578,-59.35900115966797 110.5979995727539,-59.792999267578125 110.5979995727539,-59.792999267578125 C109.75900268554688,-18.1299991607666 113.66300201416016,-26.857999801635742 113.66300201416016,-26.857999801635742z"></path></g><g opacity="1" transform="matrix(1,0,0,1,0,0)"><path fill="url(#__lottie_element_33)" fill-opacity="0.9" d=" M-91.48699951171875,-119.58799743652344 C-89.75399780273438,-139.3179931640625 -96.0790023803711,-146.56500244140625 -97.5979995727539,-146.552001953125 C-99.98799896240234,-146.531005859375 -105.23500061035156,-142.71099853515625 -108.4990005493164,-138.4290008544922 C-119.62300109863281,-123.83699798583984 -121.58300018310547,-111.36199951171875 -121.27300262451172,-96.47899627685547 C-121.1520004272461,-90.69000244140625 -117.6989974975586,-99.26300048828125 -110.43399810791016,-112.16500091552734 C-103.3010025024414,-124.83300018310547 -91.92500305175781,-114.6050033569336 -91.48699951171875,-119.58799743652344z"></path></g><g opacity="1" transform="matrix(1,0,0,1,0,0)"><path fill="url(#__lottie_element_34)" fill-opacity="0.9" d=" M0.38100001215934753,-113.31099700927734 C-42.20600128173828,-113.30899810791016 -70.60900115966797,-127.71499633789062 -81.6500015258789,-143.35899353027344 C-83.75199890136719,-146.33700561523438 -88.31700134277344,-152.59300231933594 -86.83000183105469,-156.1699981689453 C-80.38800048828125,-171.67100524902344 -45.766998291015625,-189.21200561523438 1.5199999809265137,-189.83200073242188 C34.6619987487793,-190.26800537109375 64.35700225830078,-185.07400512695312 85.1989974975586,-165.3470001220703 C111.6520004272461,-141.48800659179688 79.75399780273438,-113.31400299072266 0.38100001215934753,-113.31099700927734z"></path></g><g opacity="1" transform="matrix(1,0,0,1,0,0)"><path stroke-linecap="round" stroke-linejoin="round" fill-opacity="0" stroke="rgb(197,92,0)" stroke-opacity="1" stroke-width="8" d=" M-82.45899963378906,-123.01000213623047 C-41.60300064086914,-97.99199676513672 26.47100067138672,-93.94999694824219 88.0479965209961,-104.9010009765625 C88.0479965209961,-104.9010009765625 87.697998046875,-85.36699676513672 101.66000366210938,-61.972999572753906 C101.64600372314453,-55.47800064086914 102.64399719238281,-14.3149995803833 102.64399719238281,-14.3149995803833 C102.64399719238281,-10.54699993133545 103.54199981689453,-8.682999610900879 109.48699951171875,-15.218999862670898 C117.71600341796875,-24.266000747680664 125.46199798583984,-80.86900329589844 120.63700103759766,-115.65399932861328 C115.44300079345703,-153.09800720214844 91.22799682617188,-199.18600463867188 1.524999976158142,-199.19000244140625 C-73.9530029296875,-199.1929931640625 -97.34700012207031,-162.8719940185547 -99.4020004272461,-157.62399291992188 C-125.32099914550781,-146.13900756835938 -133.81500244140625,-85.3010025024414 -114.54499816894531,-19.940000534057617 C-110.31500244140625,-6.4679999351501465 -105.1520004272461,-4.920000076293945 -105.03500366210938,-17.739999771118164 C-104.91799926757812,-30.559999465942383 -104.45099639892578,-62.37099838256836 -104.45099639892578,-62.37099838256836 C-104.45099639892578,-62.37099838256836 -84.61399841308594,-88.11799621582031 -82.45899963378906,-123.01000213623047z"></path></g><g opacity="1" transform="matrix(1,0,0,1,0,0)"><path stroke-linecap="round" stroke-linejoin="round" fill-opacity="0" stroke="rgb(163,65,0)" stroke-opacity="1" stroke-width="8" d=" M-104.45099639892578,-62.37099838256836 C-104.45099639892578,-62.37099838256836 -84.61399841308594,-88.11799621582031 -82.45899963378906,-123.01000213623047 C-41.60300064086914,-97.99199676513672 26.47100067138672,-93.94999694824219 88.0479965209961,-104.9010009765625 C88.0479965209961,-104.9010009765625 87.697998046875,-85.36699676513672 101.66000366210938,-61.972999572753906"></path></g></g><g style="display: block;" transform="matrix(1,0,0,1,256,256)" opacity="1"><g opacity="1" transform="matrix(1,0,0,1,0,0)"><path fill="url(#__lottie_element_25)" fill-opacity="0.5" d=" M-22.43899917602539,79.9520034790039 C-20.0939998626709,83.90299987792969 -11.6850004196167,79.52400207519531 -0.4000000059604645,79.13500213623047 C10.659000396728516,78.75399780273438 18.82699966430664,84.0719985961914 21.79199981689453,80.0979995727539 C24.506000518798828,76.45999908447266 12.822999954223633,66.92900085449219 -0.527999997138977,66.92900085449219 C-14.255999565124512,66.92900085449219 -24.264999389648438,76.875 -22.43899917602539,79.9520034790039z"></path></g><g opacity="1" transform="matrix(1,0,0,1,0,0)"><g opacity="1" transform="matrix(1,0,0,1,0,0)"><path fill="rgb(255,168,0)" fill-opacity="1" d=" M22.469999313354492,60.32600021362305 C22.469999313354492,63.8120002746582 11.392999649047852,63.72200012207031 -0.8949999809265137,63.72200012207031 C-13.182999610900879,63.72200012207031 -23.468000411987305,63.8120002746582 -23.468000411987305,60.32600021362305 C-23.468000411987305,56.84000015258789 -12.859999656677246,53.91999816894531 -0.5720000267028809,53.91999816894531 C11.715999603271484,53.91999816894531 22.469999313354492,56.84000015258789 22.469999313354492,60.32600021362305z"></path></g><g opacity="1" transform="matrix(1,0,0,1,0,0)"><path fill="url(#__lottie_element_26)" fill-opacity="1" d=" M21.44099998474121,61.35599899291992 C18.895000457763672,60.83100128173828 15.645000457763672,61.34600067138672 14.605999946594238,61.75400161743164 C8.336000442504883,64.21700286865234 -8.418000221252441,64.53099822998047 -15.503000259399414,61.770999908447266 C-16.542999267578125,61.36600112915039 -20.37299919128418,60.970001220703125 -22.43899917602539,61.35599899291992 C-23.349000930786133,61.5260009765625 -23.704999923706055,62.452999114990234 -22.711000442504883,62.814998626708984 C-21.19300079345703,63.36800003051758 -20.30299949645996,62.27899932861328 -16.375,64.9209976196289 C-13.227999687194824,67.03800201416016 -8.052000045776367,70.61499786376953 -0.5210000276565552,70.61499786376953 C7.010000228881836,70.61499786376953 12.383999824523926,67.2490005493164 15.378000259399414,64.9209976196289 C18.371999740600586,62.59299850463867 20.20400047302246,63.09700012207031 21.424999237060547,62.814998626708984 C22.45400047302246,62.577999114990234 22.347999572753906,61.542999267578125 21.44099998474121,61.35599899291992z"></path></g><g opacity="1" transform="matrix(1,0,0,1,0,0)"><path fill="url(#__lottie_element_27)" fill-opacity="1" d=" M21.44099998474121,58.422000885009766 C21.44099998474121,61.28799819946289 10.380000114440918,60.097999572753906 -0.625,60.097999572753906 C-11.630000114440918,60.097999572753906 -22.43899917602539,61.132999420166016 -22.43899917602539,58.266998291015625 C-22.43899917602539,55.4010009765625 -11.57699966430664,51.86000061035156 -0.5720000267028809,51.86000061035156 C10.432999610900879,51.86000061035156 21.44099998474121,55.555999755859375 21.44099998474121,58.422000885009766z"></path></g></g><g opacity="1" transform="matrix(1,0,0,1,0,0)"><path fill="rgb(88,11,14)" fill-opacity="1" d=" M-32.29899978637695,63.09700012207031 C-22.35099983215332,56.417999267578125 -11.105999946594238,52.159000396728516 -0.22100000083446503,52.10599899291992 C11.175000190734863,52.04999923706055 22.18199920654297,56.505001068115234 31.049999237060547,63.09700012207031 C31.049999237060547,63.09700012207031 22.135000228881836,46.915000915527344 -0.42800000309944153,46.915000915527344 C-22.683000564575195,46.915000915527344 -32.29899978637695,63.09700012207031 -32.29899978637695,63.09700012207031z"></path><path stroke-linecap="round" stroke-linejoin="round" fill-opacity="0" stroke="rgb(88,11,14)" stroke-opacity="1" stroke-width="1" d=" M-32.29899978637695,63.09700012207031 C-22.35099983215332,56.417999267578125 -11.105999946594238,52.159000396728516 -0.22100000083446503,52.10599899291992 C11.175000190734863,52.04999923706055 22.18199920654297,56.505001068115234 31.049999237060547,63.09700012207031 C31.049999237060547,63.09700012207031 22.135000228881836,46.915000915527344 -0.42800000309944153,46.915000915527344 C-22.683000564575195,46.915000915527344 -32.29899978637695,63.09700012207031 -32.29899978637695,63.09700012207031z"></path></g></g><g style="display: block;" transform="matrix(1,0,0,1,256,256)" opacity="1"><g opacity="1" transform="matrix(1,0,0,1,0,0)"><g opacity="1" transform="matrix(1,0,0,1,0,0)"><path fill="rgb(253,253,222)" fill-opacity="1" d=" M24.0310001373291,-11.447999954223633 C24.0310001373291,-11.447999954223633 22.54800033569336,-29.048999786376953 34.65299987792969,-40.487998962402344 C42.35100173950195,-43.448001861572266 68.66999816894531,-40.694000244140625 74.44400024414062,-36.7599983215332 C82.43399810791016,-26.507999420166016 80.53099822998047,-14.555000305175781 80.53099822998047,-14.555000305175781 C80.53099822998047,-14.555000305175781 72.55400085449219,-6.736999988555908 56.180999755859375,-5.7729997634887695 C35.349998474121094,-4.546999931335449 24.0310001373291,-11.447999954223633 24.0310001373291,-11.447999954223633z"></path></g><g opacity="1" transform="matrix(1,0,0,1,0,0)"><g opacity="1" transform="matrix(1,0,0,1,0,0)"><path fill="url(#__lottie_element_16)" fill-opacity="1" d=" M71.73500061035156,-26.929000854492188 C71.73500061035156,-16.638999938964844 63.39400100708008,-8.29800033569336 53.104000091552734,-8.29800033569336 C42.81399917602539,-8.29800033569336 34.472999572753906,-16.638999938964844 34.472999572753906,-26.929000854492188 C34.472999572753906,-37.21900177001953 42.81399917602539,-45.560001373291016 53.104000091552734,-45.560001373291016 C63.39400100708008,-45.560001373291016 71.73500061035156,-37.21900177001953 71.73500061035156,-26.929000854492188z"></path></g><g opacity="1" transform="matrix(1,0,0,1,0,0)"><g opacity="1" transform="matrix(1,0,0,1,0,0)"><path fill="url(#__lottie_element_17)" fill-opacity="1" d=" M57.87699890136719,-9.147000312805176 C56.42100143432617,-9.147000312805176 55.07400131225586,-10.088000297546387 54.62200164794922,-11.552000045776367 C54.06700134277344,-13.350000381469727 55.07500076293945,-15.258000373840332 56.874000549316406,-15.812999725341797 C60.31399917602539,-16.874000549316406 63.05400085449219,-19.54599952697754 64.19999694824219,-22.961999893188477 C64.79900360107422,-24.746999740600586 66.73400115966797,-25.707000732421875 68.51399993896484,-25.108999252319336 C70.29900360107422,-24.510000228881836 71.26000213623047,-22.57699966430664 70.66100311279297,-20.792999267578125 C68.81800079345703,-15.302000045776367 64.41500091552734,-11.005999565124512 58.88199996948242,-9.300000190734863 C58.54800033569336,-9.196999549865723 58.20899963378906,-9.147000312805176 57.87699890136719,-9.147000312805176z"></path></g></g><g opacity="1" transform="matrix(1,0,0,1,0,0)"><path fill="rgb(24,19,9)" fill-opacity="1" d=" M64.87899780273438,-26.929000854492188 C64.87899780273438,-20.426000595092773 59.606998443603516,-15.154000282287598 53.104000091552734,-15.154000282287598 C46.60100173950195,-15.154000282287598 41.32899856567383,-20.426000595092773 41.32899856567383,-26.929000854492188 C41.32899856567383,-33.43199920654297 46.60100173950195,-38.70399856567383 53.104000091552734,-38.70399856567383 C59.606998443603516,-38.70399856567383 64.87899780273438,-33.43199920654297 64.87899780273438,-26.929000854492188z"></path></g><g opacity="1" transform="matrix(1,0,0,1,0,0.375)"><path fill="url(#__lottie_element_18)" fill-opacity="1" d=" M52.06100082397461,-37.082000732421875 C52.06100082397461,-34.61199951171875 50.058998107910156,-32.611000061035156 47.5890007019043,-32.611000061035156 C45.11899948120117,-32.611000061035156 43.11800003051758,-34.61199951171875 43.11800003051758,-37.082000732421875 C43.11800003051758,-39.551998138427734 45.11899948120117,-41.553001403808594 47.5890007019043,-41.553001403808594 C50.058998107910156,-41.553001403808594 52.06100082397461,-39.551998138427734 52.06100082397461,-37.082000732421875z"></path></g></g><g opacity="1" transform="matrix(1,0,0,1,0,0)"><path fill="rgb(255,216,0)" fill-opacity="1" d=" M79.78500366210938,-37.92499923706055 C79.78500366210938,-37.92499923706055 74.90499877929688,-48.904998779296875 53.104000091552734,-50.702999114990234 C31.30299949645996,-52.500999450683594 26.52899932861328,-41.731998443603516 26.52899932861328,-41.731998443603516 C26.52899932861328,-41.731998443603516 79.78500366210938,-37.92499923706055 79.78500366210938,-37.92499923706055z"></path></g><g opacity="1" transform="matrix(1,0,0,1,0,0)"><path fill="rgb(163,65,0)" fill-opacity="1" d=" M24.031999588012695,-13.571999549865723 C23.070999145507812,-21.326000213623047 25.516000747680664,-29.90999984741211 29.01799964904785,-36.624000549316406 C30.729999542236328,-39.90700149536133 34.64699935913086,-43.849998474121094 42.35900115966797,-43.41999816894531 C52.125,-42.875 60.3120002746582,-41.625 68.86699676513672,-41.191001892089844 C71.71499633789062,-41.047000885009766 74.6259994506836,-39.349998474121094 76.32599639892578,-36.98899841308594 C80.17500305175781,-31.64299964904785 81.95500183105469,-24.110000610351562 80.53099822998047,-16.679000854492188 C80.71299743652344,-24.733999252319336 79.6050033569336,-30.297000885009766 75.302001953125,-35.12300109863281 C73.64700317382812,-36.97999954223633 72.03600311279297,-38.77799987792969 69.59500122070312,-38.93000030517578 C60.28799819946289,-39.507999420166016 48.75,-40.4379997253418 41.32899856567383,-40.60499954223633 C32.685001373291016,-40.79999923706055 31.273000717163086,-36.900001525878906 29.52400016784668,-33.81399917602539 C25.99799919128418,-27.591999053955078 24.32900047302246,-21.052000045776367 24.031999588012695,-13.571999549865723z"></path><path stroke-linecap="round" stroke-linejoin="round" fill-opacity="0" stroke="rgb(163,65,0)" stroke-opacity="1" stroke-width="2" d=" M24.031999588012695,-13.571999549865723 C23.070999145507812,-21.326000213623047 25.516000747680664,-29.90999984741211 29.01799964904785,-36.624000549316406 C30.729999542236328,-39.90700149536133 34.64699935913086,-43.849998474121094 42.35900115966797,-43.41999816894531 C52.125,-42.875 60.3120002746582,-41.625 68.86699676513672,-41.191001892089844 C71.71499633789062,-41.047000885009766 74.6259994506836,-39.349998474121094 76.32599639892578,-36.98899841308594 C80.17500305175781,-31.64299964904785 81.95500183105469,-24.110000610351562 80.53099822998047,-16.679000854492188 C80.71299743652344,-24.733999252319336 79.6050033569336,-30.297000885009766 75.302001953125,-35.12300109863281 C73.64700317382812,-36.97999954223633 72.03600311279297,-38.77799987792969 69.59500122070312,-38.93000030517578 C60.28799819946289,-39.507999420166016 48.75,-40.4379997253418 41.32899856567383,-40.60499954223633 C32.685001373291016,-40.79999923706055 31.273000717163086,-36.900001525878906 29.52400016784668,-33.81399917602539 C25.99799919128418,-27.591999053955078 24.32900047302246,-21.052000045776367 24.031999588012695,-13.571999549865723z"></path></g></g><g opacity="1" transform="matrix(1,0,0,1,0,0)"><g opacity="1" transform="matrix(1,0,0,1,0,0)"><path fill="rgb(253,253,222)" fill-opacity="1" d=" M-25.231000900268555,-11.447999954223633 C-25.231000900268555,-11.447999954223633 -23.746999740600586,-29.048999786376953 -35.85200119018555,-40.487998962402344 C-43.54999923706055,-43.448001861572266 -69.86900329589844,-40.694000244140625 -75.64299774169922,-36.7599983215332 C-83.63300323486328,-26.507999420166016 -81.7300033569336,-14.555000305175781 -81.7300033569336,-14.555000305175781 C-81.7300033569336,-14.555000305175781 -73.75299835205078,-6.736999988555908 -57.380001068115234,-5.7729997634887695 C-36.54899978637695,-4.546999931335449 -25.231000900268555,-11.447999954223633 -25.231000900268555,-11.447999954223633z"></path></g><g opacity="1" transform="matrix(1,0,0,1,0,0.375)"><g opacity="1" transform="matrix(1,0,0,1,0,0)"><path fill="url(#__lottie_element_19)" fill-opacity="1" d=" M-34.46500015258789,-26.929000854492188 C-34.46500015258789,-16.638999938964844 -42.805999755859375,-8.29800033569336 -53.09600067138672,-8.29800033569336 C-63.38600158691406,-8.29800033569336 -71.72699737548828,-16.638999938964844 -71.72699737548828,-26.929000854492188 C-71.72699737548828,-37.21900177001953 -63.38600158691406,-45.560001373291016 -53.09600067138672,-45.560001373291016 C-42.805999755859375,-45.560001373291016 -34.46500015258789,-37.21900177001953 -34.46500015258789,-26.929000854492188z"></path></g><g opacity="1" transform="matrix(1,0,0,1,0,0)"><g opacity="1" transform="matrix(1,0,0,1,0,0)"><path fill="url(#__lottie_element_20)" fill-opacity="1" d=" M-48.323001861572266,-9.147000312805176 C-49.77899932861328,-9.147000312805176 -51.12699890136719,-10.088000297546387 -51.57899856567383,-11.552000045776367 C-52.13399887084961,-13.350000381469727 -51.125,-15.258000373840332 -49.32600021362305,-15.812999725341797 C-45.88600158691406,-16.874000549316406 -43.14699935913086,-19.54599952697754 -42.000999450683594,-22.961999893188477 C-41.402000427246094,-24.746999740600586 -39.465999603271484,-25.707000732421875 -37.68600082397461,-25.108999252319336 C-35.9010009765625,-24.510000228881836 -34.939998626708984,-22.57699966430664 -35.53900146484375,-20.792999267578125 C-37.38199996948242,-15.302000045776367 -41.78499984741211,-11.005999565124512 -47.31800079345703,-9.300000190734863 C-47.652000427246094,-9.196999549865723 -47.99100112915039,-9.147000312805176 -48.323001861572266,-9.147000312805176z"></path></g></g><g opacity="1" transform="matrix(1,0,0,1,0,0)"><path fill="rgb(24,19,9)" fill-opacity="1" d=" M-41.32099914550781,-26.929000854492188 C-41.32099914550781,-20.426000595092773 -46.59299850463867,-15.154000282287598 -53.09600067138672,-15.154000282287598 C-59.5989990234375,-15.154000282287598 -64.87100219726562,-20.426000595092773 -64.87100219726562,-26.929000854492188 C-64.87100219726562,-33.43199920654297 -59.5989990234375,-38.70399856567383 -53.09600067138672,-38.70399856567383 C-46.59299850463867,-38.70399856567383 -41.32099914550781,-33.43199920654297 -41.32099914550781,-26.929000854492188z"></path></g><g opacity="1" transform="matrix(1,0,0,1,0,0.125)"><path fill="url(#__lottie_element_21)" fill-opacity="1" d=" M-54.13999938964844,-37.082000732421875 C-54.13999938964844,-34.61199951171875 -56.14099884033203,-32.611000061035156 -58.611000061035156,-32.611000061035156 C-61.08100128173828,-32.611000061035156 -63.08300018310547,-34.61199951171875 -63.08300018310547,-37.082000732421875 C-63.08300018310547,-39.551998138427734 -61.08100128173828,-41.553001403808594 -58.611000061035156,-41.553001403808594 C-56.14099884033203,-41.553001403808594 -54.13999938964844,-39.551998138427734 -54.13999938964844,-37.082000732421875z"></path></g></g><g opacity="1" transform="matrix(1,0,0,1,0,0)"><path fill="rgb(255,216,0)" fill-opacity="1" d=" M-80.98400115966797,-37.92499923706055 C-80.98400115966797,-37.92499923706055 -76.10399627685547,-48.904998779296875 -54.303001403808594,-50.702999114990234 C-32.50199890136719,-52.500999450683594 -27.72800064086914,-41.731998443603516 -27.72800064086914,-41.731998443603516 C-27.72800064086914,-41.731998443603516 -80.98400115966797,-37.92499923706055 -80.98400115966797,-37.92499923706055z"></path></g><g opacity="1" transform="matrix(1,0,0,1,0,0)"><path fill="rgb(163,65,0)" fill-opacity="1" d=" M-25.231000900268555,-13.571999549865723 C-24.270000457763672,-21.326000213623047 -26.540000915527344,-29.386999130249023 -30.04199981689453,-36.10100173950195 C-31.753999710083008,-39.38399887084961 -35.332000732421875,-43.698001861572266 -43.55799865722656,-42.974998474121094 C-53.9370002746582,-42.0629997253418 -61.875,-41.75 -70.06600189208984,-41.191001892089844 C-72.91100311279297,-40.99700164794922 -75.82499694824219,-39.349998474121094 -77.5250015258789,-36.98899841308594 C-81.3740005493164,-31.64299964904785 -83.15399932861328,-24.110000610351562 -81.7300033569336,-16.679000854492188 C-81.91200256347656,-24.733999252319336 -80.80400085449219,-30.297000885009766 -76.5009994506836,-35.12300109863281 C-74.84600067138672,-36.97999954223633 -73.33499908447266,-38.560001373291016 -70.89299774169922,-38.70399856567383 C-61.625,-39.25 -50.4379997253418,-40.0629997253418 -43.03799819946289,-40.608001708984375 C-34.39500045776367,-41.244998931884766 -32.47200012207031,-36.900001525878906 -30.722999572753906,-33.81399917602539 C-27.19700050354004,-27.591999053955078 -25.527999877929688,-21.052000045776367 -25.231000900268555,-13.571999549865723z"></path><path stroke-linecap="round" stroke-linejoin="round" fill-opacity="0" stroke="rgb(163,65,0)" stroke-opacity="1" stroke-width="2" d=" M-25.231000900268555,-13.571999549865723 C-24.270000457763672,-21.326000213623047 -26.540000915527344,-29.386999130249023 -30.04199981689453,-36.10100173950195 C-31.753999710083008,-39.38399887084961 -35.332000732421875,-43.698001861572266 -43.55799865722656,-42.974998474121094 C-53.9370002746582,-42.0629997253418 -61.875,-41.75 -70.06600189208984,-41.191001892089844 C-72.91100311279297,-40.99700164794922 -75.82499694824219,-39.349998474121094 -77.5250015258789,-36.98899841308594 C-81.3740005493164,-31.64299964904785 -83.15399932861328,-24.110000610351562 -81.7300033569336,-16.679000854492188 C-81.91200256347656,-24.733999252319336 -80.80400085449219,-30.297000885009766 -76.5009994506836,-35.12300109863281 C-74.84600067138672,-36.97999954223633 -73.33499908447266,-38.560001373291016 -70.89299774169922,-38.70399856567383 C-61.625,-39.25 -50.4379997253418,-40.0629997253418 -43.03799819946289,-40.608001708984375 C-34.39500045776367,-41.244998931884766 -32.47200012207031,-36.900001525878906 -30.722999572753906,-33.81399917602539 C-27.19700050354004,-27.591999053955078 -25.527999877929688,-21.052000045776367 -25.231000900268555,-13.571999549865723z"></path></g></g></g><g style="display: block;" transform="matrix(1,0,0,1,255.5,256)" opacity="1"><g opacity="1" transform="matrix(1,0,0,1,0,0)"><path stroke-linecap="round" stroke-linejoin="round" fill-opacity="0" stroke="rgb(163,65,0)" stroke-opacity="1" stroke-width="12" d=" M31.573999404907227,-61.8120002746582 C45.71799850463867,-58.0620002746582 51.64799880981445,-68.85900115966797 72.12899780273438,-64.62200164794922"></path></g><g opacity="1" transform="matrix(1,0,0,1,0,0)"><path stroke-linecap="round" stroke-linejoin="round" fill-opacity="0" stroke="rgb(163,65,0)" stroke-opacity="1" stroke-width="12" d=" M-31.891000747680664,-61.707000732421875 C-46.05400085449219,-58.029998779296875 -51.926998138427734,-68.85900115966797 -72.43000030517578,-64.72699737548828"></path></g></g><g style="display: block;" transform="matrix(1,0,0,1,256.75,256)" opacity="1"><g opacity="1" transform="matrix(1,0,0,1,0,1)"><path fill="url(#__lottie_element_6)" fill-opacity="1" d=" M20.9689998626709,23.378000259399414 C20.9689998626709,33.18299865722656 12.366999626159668,41.13100051879883 -0.9610000252723694,41.13100051879883 C-14.288999557495117,41.13100051879883 -22.891000747680664,33.18299865722656 -22.891000747680664,23.378000259399414 C-22.5,-3 22.625,-2.875 20.9689998626709,23.378000259399414z"></path></g><g opacity="1" transform="matrix(1,0,0,1,0,0)"><path fill="rgb(255,168,0)" fill-opacity="0.8" d=" M21.42799949645996,20.042999267578125 C21.42799949645996,29.138999938964844 11.404000282287598,36.51300048828125 -0.9610000252723694,36.51300048828125 C-13.326000213623047,36.51300048828125 -23.350000381469727,29.138999938964844 -23.350000381469727,20.042999267578125 C-23.350000381469727,10.946000099182129 -13.326000213623047,3.9600000381469727 -0.9610000252723694,3.9600000381469727 C11.404000282287598,3.9600000381469727 21.42799949645996,10.946000099182129 21.42799949645996,20.042999267578125z"></path></g><g opacity="1" transform="matrix(1,0,0,1,0,0)"><path fill="url(#__lottie_element_7)" fill-opacity="1" d=" M21.42799949645996,20.042999267578125 C21.42799949645996,29.138999938964844 11.404000282287598,36.51300048828125 -0.9610000252723694,36.51300048828125 C-13.326000213623047,36.51300048828125 -23.350000381469727,29.138999938964844 -23.350000381469727,20.042999267578125 C-23.350000381469727,10.946000099182129 -13.326000213623047,3.9600000381469727 -0.9610000252723694,3.9600000381469727 C11.404000282287598,3.9600000381469727 21.42799949645996,10.946000099182129 21.42799949645996,20.042999267578125z"></path></g><g opacity="1" transform="matrix(1,0,0,1,0,0)"><path fill="rgb(255,216,0)" fill-opacity="1" d=" M19.416000366210938,15.6899995803833 C19.416000366210938,22.461999893188477 9.736000061035156,28.9689998626709 -0.9610000252723694,28.9689998626709 C-11.657999992370605,28.9689998626709 -21.336999893188477,22.461999893188477 -21.336999893188477,15.6899995803833 C-21.336999893188477,8.918000221252441 -11.657999992370605,3.622999906539917 -0.9610000252723694,3.622999906539917 C9.736000061035156,3.622999906539917 19.416000366210938,8.918000221252441 19.416000366210938,15.6899995803833z"></path></g><g opacity="1" transform="matrix(1,0,0,1,0,0)"><path fill="url(#__lottie_element_8)" fill-opacity="1" d=" M19.416000366210938,15.6899995803833 C19.416000366210938,22.461999893188477 9.736000061035156,28.9689998626709 -0.9610000252723694,28.9689998626709 C-11.657999992370605,28.9689998626709 -21.336999893188477,22.461999893188477 -21.336999893188477,15.6899995803833 C-21.336999893188477,8.918000221252441 -11.657999992370605,3.622999906539917 -0.9610000252723694,3.622999906539917 C9.736000061035156,3.622999906539917 19.416000366210938,8.918000221252441 19.416000366210938,15.6899995803833z"></path></g><g opacity="1" transform="matrix(1,0,0,1,0,0)"><path fill="url(#__lottie_element_9)" fill-opacity="0.7000000000000001" d=" M8.130000114440918,11.319000244140625 C8.130000114440918,15.913999557495117 4.059999942779541,20.23699951171875 -0.9610000252723694,20.23699951171875 C-5.98199987411499,20.23699951171875 -10.050999641418457,15.913999557495117 -10.050999641418457,11.319000244140625 C-10.050999641418457,6.723999977111816 -5.98199987411499,4.418000221252441 -0.9610000252723694,4.418000221252441 C4.059999942779541,4.418000221252441 8.130000114440918,6.723999977111816 8.130000114440918,11.319000244140625z"></path></g></g></g></svg>