<svg xmlns="http://www.w3.org/2000/svg" xmlns:xlink="http://www.w3.org/1999/xlink" viewBox="0 0 512 512" width="512" height="512" style="width: 100%; height: 100%; transform: translate3d(0,0,0); content-visibility: visible;" preserveAspectRatio="xMidYMid meet"><defs><clipPath id="__lottie_element_2"><rect width="512" height="512" x="0" y="0"></rect></clipPath><linearGradient id="__lottie_element_6" spreadMethod="pad" gradientUnits="userSpaceOnUse" x1="85.64399719238281" y1="56.270999908447266" x2="58.1619987487793" y2="144.60499572753906"><stop offset="0%" stop-color="rgb(157,206,170)"></stop><stop offset="53%" stop-color="rgb(107,148,115)"></stop><stop offset="92%" stop-color="rgb(56,91,60)"></stop></linearGradient><radialGradient id="__lottie_element_7" spreadMethod="pad" gradientUnits="userSpaceOnUse" cx="94.64399719238281" cy="61.270999908447266" r="53.70600891113281" fx="94.64399719238281" fy="61.270999908447266"><stop offset="22%" stop-color="rgb(157,206,170)"></stop><stop offset="68%" stop-color="rgb(115,156,123)"></stop><stop offset="100%" stop-color="rgb(73,105,77)"></stop></radialGradient><linearGradient id="__lottie_element_12" spreadMethod="pad" gradientUnits="userSpaceOnUse" x1="-25.356000900268555" y1="-157.72900390625" x2="2.61299991607666" y2="-89.88999938964844"><stop offset="0%" stop-color="rgb(219,110,0)" stop-opacity="1"></stop><stop offset="38%" stop-color="rgb(219,110,0)" stop-opacity="0.5"></stop><stop offset="71%" stop-color="rgb(219,110,0)" stop-opacity="0"></stop></linearGradient><linearGradient id="__lottie_element_13" spreadMethod="pad" gradientUnits="userSpaceOnUse" x1="-5.355999946594238" y1="-122.72899627685547" x2="25.143999099731445" y2="-1.6059999465942383"><stop offset="6%" stop-color="rgb(255,216,0)" stop-opacity="0"></stop><stop offset="15%" stop-color="rgb(255,216,0)" stop-opacity="0.5"></stop><stop offset="50%" stop-color="rgb(255,216,0)" stop-opacity="1"></stop><stop offset="88%" stop-color="rgb(255,216,0)" stop-opacity="0.5"></stop><stop offset="100%" stop-color="rgb(255,216,0)" stop-opacity="0"></stop></linearGradient><linearGradient id="__lottie_element_16" spreadMethod="pad" gradientUnits="userSpaceOnUse" x1="22.643999099731445" y1="-43.229000091552734" x2="28.393999099731445" y2="-25.864999771118164"><stop offset="0%" stop-color="rgb(255,168,0)" stop-opacity="1"></stop><stop offset="66%" stop-color="rgb(255,168,0)" stop-opacity="0.5"></stop><stop offset="100%" stop-color="rgb(255,168,0)" stop-opacity="0"></stop></linearGradient><linearGradient id="__lottie_element_17" spreadMethod="pad" gradientUnits="userSpaceOnUse" x1="26.143999099731445" y1="-33.104000091552734" x2="21.143999099731445" y2="-46.36600112915039"><stop offset="11%" stop-color="rgb(219,110,0)" stop-opacity="1"></stop><stop offset="49%" stop-color="rgb(219,110,0)" stop-opacity="0.5"></stop><stop offset="77%" stop-color="rgb(219,110,0)" stop-opacity="0"></stop></linearGradient><radialGradient id="__lottie_element_18" spreadMethod="pad" gradientUnits="userSpaceOnUse" cx="20.58099937438965" cy="-47.979000091552734" r="13.024403284011616" fx="20.389181666151362" fy="-47.92404804501478"><stop offset="40%" stop-color="rgb(255,168,0)" stop-opacity="0"></stop><stop offset="70%" stop-color="rgb(255,168,0)" stop-opacity="0.5"></stop><stop offset="100%" stop-color="rgb(255,168,0)" stop-opacity="1"></stop></radialGradient><linearGradient id="__lottie_element_19" spreadMethod="pad" gradientUnits="userSpaceOnUse" x1="20.36199951171875" y1="-48.7599983215332" x2="22.643999099731445" y2="-43.29600143432617"><stop offset="0%" stop-color="rgb(255,255,255)" stop-opacity="1"></stop><stop offset="50%" stop-color="rgb(255,255,255)" stop-opacity="0.5"></stop><stop offset="100%" stop-color="rgb(255,255,255)" stop-opacity="0"></stop></linearGradient><linearGradient id="__lottie_element_23" spreadMethod="pad" gradientUnits="userSpaceOnUse" x1="-30.356000900268555" y1="-183.72900390625" x2="10.57699966430664" y2="-0.25999999046325684"><stop offset="14%" stop-color="rgb(255,169,0)" stop-opacity="0"></stop><stop offset="40%" stop-color="rgb(255,169,0)" stop-opacity="0.5"></stop><stop offset="66%" stop-color="rgb(255,169,0)" stop-opacity="1"></stop></linearGradient><linearGradient id="__lottie_element_24" spreadMethod="pad" gradientUnits="userSpaceOnUse" x1="-9.355999946594238" y1="-181.72900390625" x2="3.703000068664551" y2="-8.22700023651123"><stop offset="4%" stop-color="rgb(218,110,0)" stop-opacity="0"></stop><stop offset="34%" stop-color="rgb(218,110,0)" stop-opacity="0.5"></stop><stop offset="65%" stop-color="rgb(218,110,0)" stop-opacity="1"></stop></linearGradient><linearGradient id="__lottie_element_25" spreadMethod="pad" gradientUnits="userSpaceOnUse" x1="6.644000053405762" y1="-186.72900390625" x2="11.211000442504883" y2="-130.45799255371094"><stop offset="0%" stop-color="rgb(255,255,255)" stop-opacity="1"></stop><stop offset="50%" stop-color="rgb(255,255,255)" stop-opacity="0.5"></stop><stop offset="100%" stop-color="rgb(255,255,255)" stop-opacity="0"></stop></linearGradient><linearGradient id="__lottie_element_26" spreadMethod="pad" gradientUnits="userSpaceOnUse" x1="-97.35600280761719" y1="-153.72900390625" x2="-75.19599914550781" y2="-123.6050033569336"><stop offset="0%" stop-color="rgb(255,255,255)" stop-opacity="1"></stop><stop offset="50%" stop-color="rgb(255,255,255)" stop-opacity="0.5"></stop><stop offset="100%" stop-color="rgb(255,255,255)" stop-opacity="0"></stop></linearGradient><radialGradient id="__lottie_element_30" spreadMethod="pad" gradientUnits="userSpaceOnUse" cx="29.393999099731445" cy="-20.479000091552734" r="25.004799233515257" fx="29.393999099731445" fy="-20.479000091552734"><stop offset="8%" stop-color="rgb(117,55,14)" stop-opacity="1"></stop><stop offset="57%" stop-color="rgb(117,55,14)" stop-opacity="0.5049999952316284"></stop><stop offset="100%" stop-color="rgb(117,55,14)" stop-opacity="0.009999999776482582"></stop></radialGradient><radialGradient id="__lottie_element_31" spreadMethod="pad" gradientUnits="userSpaceOnUse" cx="27.58099937438965" cy="-21.979000091552734" r="16.694256221782528" fx="27.58099937438965" fy="-21.979000091552734"><stop offset="52%" stop-color="rgb(255,255,255)"></stop><stop offset="79%" stop-color="rgb(166,166,166)"></stop><stop offset="100%" stop-color="rgb(77,77,77)"></stop></radialGradient><linearGradient id="__lottie_element_41" spreadMethod="pad" gradientUnits="userSpaceOnUse" x1="-15.085000038146973" y1="137.27099609375" x2="1.6109999418258667" y2="187.7570037841797"><stop offset="20%" stop-color="rgb(219,110,0)" stop-opacity="0"></stop><stop offset="62%" stop-color="rgb(219,110,0)" stop-opacity="0.5"></stop><stop offset="100%" stop-color="rgb(219,110,0)" stop-opacity="1"></stop></linearGradient><radialGradient id="__lottie_element_45" spreadMethod="pad" gradientUnits="userSpaceOnUse" cx="92.78399658203125" cy="141.27099609375" r="83.20917287502613" fx="92.78399658203125" fy="141.27099609375"><stop offset="14%" stop-color="rgb(147,18,149)"></stop><stop offset="57%" stop-color="rgb(107,9,110)"></stop><stop offset="86%" stop-color="rgb(66,0,72)"></stop></radialGradient><radialGradient id="__lottie_element_46" spreadMethod="pad" gradientUnits="userSpaceOnUse" cx="103.64399719238281" cy="138.52099609375" r="46.70555551499215" fx="103.64399719238281" fy="138.52099609375"><stop offset="41%" stop-color="rgb(66,0,72)" stop-opacity="1"></stop><stop offset="72%" stop-color="rgb(66,0,72)" stop-opacity="0.5"></stop><stop offset="100%" stop-color="rgb(66,0,72)" stop-opacity="0"></stop></radialGradient><linearGradient id="__lottie_element_50" spreadMethod="pad" gradientUnits="userSpaceOnUse" x1="54.915000915527344" y1="160.27099609375" x2="54.915000915527344" y2="217.28500366210938"><stop offset="37%" stop-color="rgb(219,110,0)" stop-opacity="0"></stop><stop offset="70%" stop-color="rgb(219,110,0)" stop-opacity="0.5"></stop><stop offset="100%" stop-color="rgb(219,110,0)" stop-opacity="1"></stop></linearGradient><radialGradient id="__lottie_element_54" spreadMethod="pad" gradientUnits="userSpaceOnUse" cx="-123.33499908447266" cy="157.27099609375" r="56.28599548339844" fx="-123.33499908447266" fy="157.27099609375"><stop offset="6%" stop-color="rgb(147,18,149)"></stop><stop offset="38%" stop-color="rgb(107,9,110)"></stop><stop offset="65%" stop-color="rgb(66,0,72)"></stop></radialGradient><radialGradient id="__lottie_element_58" spreadMethod="pad" gradientUnits="userSpaceOnUse" cx="-15.984999656677246" cy="118.46600341796875" r="92.6230133067193" fx="-15.984999656677246" fy="118.46600341796875"><stop offset="7%" stop-color="rgb(186,236,226)"></stop><stop offset="67%" stop-color="rgb(123,162,159)"></stop><stop offset="100%" stop-color="rgb(60,88,91)"></stop></radialGradient><linearGradient id="__lottie_element_59" spreadMethod="pad" gradientUnits="userSpaceOnUse" x1="51.172000885009766" y1="123.625" x2="-87.12200164794922" y2="199.28399658203125"><stop offset="0%" stop-color="rgb(35,58,57)" stop-opacity="1"></stop><stop offset="30%" stop-color="rgb(35,58,57)" stop-opacity="0.5"></stop><stop offset="60%" stop-color="rgb(35,58,57)" stop-opacity="0"></stop></linearGradient><radialGradient id="__lottie_element_63" spreadMethod="pad" gradientUnits="userSpaceOnUse" cx="5.315000057220459" cy="10.27400016784668" r="27.36034024410157" fx="5.315000057220459" fy="10.27400016784668"><stop offset="41%" stop-color="rgb(66,0,72)" stop-opacity="1"></stop><stop offset="72%" stop-color="rgb(66,0,72)" stop-opacity="0.5"></stop><stop offset="100%" stop-color="rgb(66,0,72)" stop-opacity="0"></stop></radialGradient><radialGradient id="__lottie_element_64" spreadMethod="pad" gradientUnits="userSpaceOnUse" cx="50.165000915527344" cy="63.270999908447266" r="78.0979995727539" fx="50.165000915527344" fy="63.270999908447266"><stop offset="0%" stop-color="rgb(255,216,0)" stop-opacity="1"></stop><stop offset="64%" stop-color="rgb(255,216,0)" stop-opacity="0.5"></stop><stop offset="100%" stop-color="rgb(255,216,0)" stop-opacity="0"></stop></radialGradient><radialGradient id="__lottie_element_65" spreadMethod="pad" gradientUnits="userSpaceOnUse" cx="47.915000915527344" cy="76.27100372314453" r="18.74514402091896" fx="47.915000915527344" fy="76.27100372314453"><stop offset="0%" stop-color="rgb(181,102,6)" stop-opacity="1"></stop><stop offset="57%" stop-color="rgb(181,102,6)" stop-opacity="0.5"></stop><stop offset="100%" stop-color="rgb(181,102,6)" stop-opacity="0"></stop></radialGradient><radialGradient id="__lottie_element_66" spreadMethod="pad" gradientUnits="userSpaceOnUse" cx="8.914999961853027" cy="14.270999908447266" r="35.62190836000321" fx="8.914999961853027" fy="14.270999908447266"><stop offset="41%" stop-color="rgb(181,102,6)" stop-opacity="1"></stop><stop offset="72%" stop-color="rgb(181,102,6)" stop-opacity="0.5"></stop><stop offset="100%" stop-color="rgb(181,102,6)" stop-opacity="0"></stop></radialGradient><radialGradient id="__lottie_element_70" spreadMethod="pad" gradientUnits="userSpaceOnUse" cx="-3.0850000381469727" cy="93.27100372314453" r="191.70200443267822" fx="-3.0850000381469727" fy="93.27100372314453"><stop offset="29%" stop-color="rgb(147,18,149)"></stop><stop offset="68%" stop-color="rgb(107,9,110)"></stop><stop offset="100%" stop-color="rgb(66,0,72)"></stop></radialGradient><radialGradient id="__lottie_element_71" spreadMethod="pad" gradientUnits="userSpaceOnUse" cx="148.9149932861328" cy="18.770999908447266" r="67.1978593495588" fx="148.9149932861328" fy="18.770999908447266"><stop offset="18%" stop-color="rgb(255,255,255)" stop-opacity="1"></stop><stop offset="67%" stop-color="rgb(255,255,255)" stop-opacity="0.5"></stop><stop offset="100%" stop-color="rgb(255,255,255)" stop-opacity="0"></stop></radialGradient><radialGradient id="__lottie_element_72" spreadMethod="pad" gradientUnits="userSpaceOnUse" cx="-88.08499908447266" cy="38.270999908447266" r="72.80299949645996" fx="-88.08499908447266" fy="38.270999908447266"><stop offset="18%" stop-color="rgb(255,255,255)" stop-opacity="1"></stop><stop offset="67%" stop-color="rgb(255,255,255)" stop-opacity="0.5"></stop><stop offset="100%" stop-color="rgb(255,255,255)" stop-opacity="0"></stop></radialGradient><radialGradient id="__lottie_element_73" spreadMethod="pad" gradientUnits="userSpaceOnUse" cx="-39.334999084472656" cy="113.52100372314453" r="52.336003964542115" fx="-39.334999084472656" fy="113.52100372314453"><stop offset="0%" stop-color="rgb(66,0,72)" stop-opacity="1"></stop><stop offset="60%" stop-color="rgb(66,0,72)" stop-opacity="0.5"></stop><stop offset="100%" stop-color="rgb(66,0,72)" stop-opacity="0"></stop></radialGradient><radialGradient id="__lottie_element_77" spreadMethod="pad" gradientUnits="userSpaceOnUse" cx="110.64399719238281" cy="-16.979000091552734" r="42.24319985410466" fx="110.64399719238281" fy="-16.979000091552734"><stop offset="0%" stop-color="rgb(255,169,0)" stop-opacity="1"></stop><stop offset="50%" stop-color="rgb(255,169,0)" stop-opacity="0.5"></stop><stop offset="100%" stop-color="rgb(255,169,0)" stop-opacity="0"></stop></radialGradient><radialGradient id="__lottie_element_78" spreadMethod="pad" gradientUnits="userSpaceOnUse" cx="-96.10600280761719" cy="22.770999908447266" r="55.21311811893169" fx="-96.10600280761719" fy="22.770999908447266"><stop offset="0%" stop-color="rgb(255,169,0)" stop-opacity="1"></stop><stop offset="50%" stop-color="rgb(255,169,0)" stop-opacity="0.5"></stop><stop offset="100%" stop-color="rgb(255,169,0)" stop-opacity="0"></stop></radialGradient></defs><g clip-path="url(#__lottie_element_2)"><g style="display: block;" transform="matrix(1,0,0,1,255.99998474121094,256)" opacity="1"><g opacity="1" transform="matrix(1,0,0,1,0,0)"><path fill="rgb(159,84,2)" fill-opacity="1" d=" M114.01499938964844,-28.249000549316406 C113.70500183105469,-24.999000549316406 113.34500122070312,-21.68899917602539 112.93499755859375,-18.319000244140625 C112.92500305175781,-18.249000549316406 112.91500091552734,-18.18899917602539 112.90499877929688,-18.118999481201172 C110.2249984741211,0.0010000000474974513 61.70500183105469,3.3910000324249268 12.055000305175781,14.630999565124512 C-46.064998626708984,27.791000366210938 -103.40499877929688,46.54100036621094 -107.56500244140625,23.240999221801758 C-111.42500305175781,-11.64900016784668 -106.1050033569336,-32.50899887084961 -83.1449966430664,-63.229000091552734 C-43.94499969482422,-115.67900085449219 -58.10499954223633,-143.70899963378906 -58.915000915527344,-145.22900390625 C-18.704999923706055,-93.76899719238281 62.125,-113.63899993896484 67.90499877929688,-111.88899993896484 C113.31500244140625,-98.12899780273438 115.3949966430664,-49.53900146484375 114.01499938964844,-28.249000549316406z"></path></g><g opacity="1" transform="matrix(1,0,0,1,0,0)"><path fill="url(#__lottie_element_77)" fill-opacity="1" d=" M78.42400360107422,3.739000082015991 C83.55999755859375,2.5179998874664307 87.89099884033203,0.6000000238418579 91.47899627685547,-0.2639999985694885 C112.44300079345703,-5.315000057220459 114.04100036621094,-11.392000198364258 114.88899993896484,-22.506000518798828 C115.27100372314453,-27.54400062561035 114.30400085449219,-33.80500030517578 113.8489990234375,-41.08700180053711 C111.56199645996094,-54.89400100708008 105.51200103759766,-88.59500122070312 93.54299926757812,-79.11199951171875 C84.68900299072266,-72.10600280761719 86.09100341796875,-59.632999420166016 73.13099670410156,-34.641998291015625 C61.75299835205078,-12.70300006866455 67.60299682617188,4.335000038146973 78.42400360107422,3.739000082015991z"></path></g><g opacity="1" transform="matrix(1,0,0,1,0,0)"><path fill="url(#__lottie_element_78)" fill-opacity="1" d=" M-43.582000732421875,30.839000701904297 C-51.69599914550781,31.83300018310547 -58.845001220703125,31.79400062561035 -64.51699829101562,32.47700119018555 C-97.65899658203125,36.470001220703125 -102.14800262451172,31.14299964904785 -107.2509994506836,20.51099967956543 C-109.56099700927734,15.6899995803833 -111.65799713134766,9.40999984741211 -113.48899841308594,2.010999917984009 C-114.82499694824219,-12.628999710083008 -116.0009994506836,-48.893001556396484 -94.80400085449219,-44.64400100708008 C-79.1259994506836,-41.5099983215332 -76.92500305175781,-28.569000244140625 -48.89400100708008,-9.402999877929688 C-24.285999298095703,7.422999858856201 -27.170000076293945,26.788000106811523 -43.582000732421875,30.839000701904297z"></path></g><g opacity="1" transform="matrix(1,0,0,1,0,0)"><path stroke-linecap="round" stroke-linejoin="round" fill-opacity="0" stroke="rgb(163,65,0)" stroke-opacity="1" stroke-width="8" d=" M114.01499938964844,-28.249000549316406 C113.70500183105469,-24.999000549316406 113.34500122070312,-21.68899917602539 112.93499755859375,-18.319000244140625 C112.92500305175781,-18.249000549316406 112.91500091552734,-18.18899917602539 112.90499877929688,-18.118999481201172 C110.2249984741211,0.0010000000474974513 61.70500183105469,3.3910000324249268 12.055000305175781,14.630999565124512 C-46.064998626708984,27.791000366210938 -103.40499877929688,46.54100036621094 -107.56500244140625,23.240999221801758 C-111.42500305175781,-11.64900016784668 -106.1050033569336,-32.50899887084961 -83.1449966430664,-63.229000091552734 C-43.94499969482422,-115.67900085449219 -58.10499954223633,-143.70899963378906 -58.915000915527344,-145.22900390625 C-18.704999923706055,-93.76899719238281 62.125,-113.63899993896484 67.90499877929688,-111.88899993896484 C113.31500244140625,-98.12899780273438 115.3949966430664,-49.53900146484375 114.01499938964844,-28.249000549316406z"></path></g></g><g style="display: block;" transform="matrix(1,0,0,1,256,256)" opacity="1"><g opacity="1" transform="matrix(1,0,0,1,0,0)"><path fill="url(#__lottie_element_70)" fill-opacity="1" d=" M53.0620002746582,169.48500061035156 C53.150001525878906,171.56100463867188 54.82099914550781,157.08599853515625 57.37799835205078,171.92100524902344 C60.38600158691406,189.36900329589844 54.79399871826172,196.38600158691406 63.487998962402344,197.01499938964844 C110.6500015258789,200.427001953125 158.7729949951172,200.67300415039062 164.1269989013672,190.72999572753906 C170.86300659179688,178.2209930419922 171.89999389648438,139.17300415039062 159.39100646972656,88.17400360107422 C146.8820037841797,37.17499923706055 122.49299621582031,14.517000198364258 118.18499755859375,12.692000389099121 C93.27200317382812,2.13700008392334 61.84000015258789,-3.2980000972747803 61.84000015258789,-3.2980000972747803 C61.84000015258789,-3.2980000972747803 -3.503000020980835,-28.656999588012695 -3.503000020980835,-28.656999588012695 C-3.503000020980835,-28.656999588012695 -21.27400016784668,6.010000228881836 -21.27400016784668,6.010000228881836 C-21.27400016784668,6.010000228881836 -47.117000579833984,10.744999885559082 -70.76599884033203,34.29800033569336 C-85.54299926757812,49.01499938964844 -126.6050033569336,111.78399658203125 -145.20199584960938,145.2030029296875 C-145.20199584960938,145.2030029296875 53.0620002746582,169.48500061035156 53.0620002746582,169.48500061035156z"></path></g><g opacity="1" transform="matrix(1,0,0,1,0,0)"><path stroke-linecap="round" stroke-linejoin="round" fill-opacity="0" stroke="rgb(82,1,86)" stroke-opacity="0.5" stroke-width="6" d=" M96.39700317382812,4.98799991607666 C96.39700317382812,4.98799991607666 119.1969985961914,27.034000396728516 116.66400146484375,82.7509994506836"></path></g><g opacity="1" transform="matrix(1,0,0,1,0,0)"><path fill="url(#__lottie_element_71)" fill-opacity="0.15" d=" M169.26400756835938,143.5709991455078 C169.26400756835938,143.56100463867188 169.25399780273438,143.55099487304688 169.25399780273438,143.54100036621094 C144.48399353027344,46.82099914550781 120.26399993896484,30.250999450683594 112.64399719238281,23.881000518798828 C105.02400207519531,17.51099967956543 58.354000091552734,6.741000175476074 58.354000091552734,6.741000175476074 C58.354000091552734,6.741000175476074 56.04399871826172,-5.548999786376953 56.04399871826172,-5.548999786376953 C56.04399871826172,-5.548999786376953 61.84400177001953,-3.2990000247955322 61.84400177001953,-3.2990000247955322 C61.84400177001953,-3.2990000247955322 92.27400207519531,3.1410000324249268 117.18399810791016,13.690999984741211 C121.49400329589844,15.520999908447266 146.88400268554688,37.17100143432617 159.3939971923828,88.1709976196289 C164.57400512695312,109.28099822998047 167.7740020751953,127.99099731445312 169.26400756835938,143.5709991455078z"></path></g><g opacity="1" transform="matrix(1,0,0,1,0,0)"><path stroke-linecap="round" stroke-linejoin="round" fill-opacity="0" stroke="rgb(82,1,86)" stroke-opacity="0.3" stroke-width="6" d=" M-65.86100006103516,29.70400047302246 C-53.76599884033203,27.652000427246094 -45.1510009765625,64.29399871826172 -42.612998962402344,109.78600311279297"></path></g><g opacity="1" transform="matrix(1,0,0,1,0,0)"><path stroke-linecap="round" stroke-linejoin="round" fill-opacity="0" stroke="rgb(82,1,86)" stroke-opacity="0.15" stroke-width="6" d=" M-59.54199981689453,73.16899871826172 C-59.54199981689453,73.16899871826172 -52.2130012512207,85.21099853515625 -48.862998962402344,109.78600311279297"></path></g><g opacity="1" transform="matrix(1,0,0,1,0,0)"><path stroke-linecap="round" stroke-linejoin="round" fill-opacity="0" stroke="rgb(82,1,86)" stroke-opacity="0.15" stroke-width="6" d=" M-35.72800064086914,61.0099983215332 C-35.72800064086914,61.0099983215332 -32.88800048828125,78.70500183105469 -35.72800064086914,97.49299621582031"></path></g><g opacity="1" transform="matrix(1,0,0,1,0,0)"><path fill="url(#__lottie_element_72)" fill-opacity="0.15" d=" M-3.505000114440918,-16.618999481201172 C-3.505000114440918,-16.618999481201172 -13.475000381469727,14.190999984741211 -13.475000381469727,14.190999984741211 C-13.475000381469727,14.190999984741211 -44.98500061035156,23.881000518798828 -59.834999084472656,38.79100036621094 C-74.67500305175781,53.71099853515625 -129.5850067138672,124.5510025024414 -129.5850067138672,124.5510025024414 C-130.11500549316406,125.28099822998047 -133.63499450683594,125.83100128173828 -134.14500427246094,126.22100067138672 C-113.54499816894531,92.03099822998047 -83.06500244140625,46.54100036621094 -70.76499938964844,34.30099868774414 C-47.1150016784668,10.741000175476074 -21.274999618530273,6.011000156402588 -21.274999618530273,6.011000156402588 C-21.274999618530273,6.011000156402588 -11.104999542236328,-13.83899974822998 -11.104999542236328,-13.83899974822998 C-11.104999542236328,-13.83899974822998 -3.505000114440918,-16.618999481201172 -3.505000114440918,-16.618999481201172z"></path></g><g opacity="1" transform="matrix(1.1533440351486206,-0.657429039478302,0.46729084849357605,0.8197799324989319,-49.11378479003906,-5.119895935058594)"><path fill="url(#__lottie_element_73)" fill-opacity="0.8" d=" M13.347000122070312,108.33699798583984 C16.45400047302246,138.11599731445312 7.107999801635742,160.93600463867188 -29.264999389648438,167.89599609375 C-65.63800048828125,174.8560028076172 -86.09600067138672,159.44900512695312 -90.72799682617188,129.86900329589844 C-94.37000274658203,106.61499786376953 -86.38500213623047,66.02999877929688 -49.641998291015625,61.4010009765625 C-11.01200008392334,56.534000396728516 11.5600004196167,91.21299743652344 13.347000122070312,108.33699798583984z"></path></g><g opacity="1" transform="matrix(1,0,0,1,0,0)"><path stroke-linecap="round" stroke-linejoin="round" fill-opacity="0" stroke="rgb(82,1,86)" stroke-opacity="1" stroke-width="8" d=" M-21.27400016784668,6.010000228881836 C-21.27400016784668,6.010000228881836 -47.117000579833984,10.744999885559082 -70.76599884033203,34.29800033569336 C-85.54299926757812,49.01499938964844 -103.2030029296875,82.375 -125.66600036621094,113.3290023803711"></path></g><g opacity="1" transform="matrix(1,0,0,1,0,0)"><path stroke-linecap="round" stroke-linejoin="round" fill-opacity="0" stroke="rgb(82,1,86)" stroke-opacity="1" stroke-width="8" d=" M48.5989990234375,152.19500732421875 C48.6870002746582,154.27099609375 54.82099914550781,157.08599853515625 57.37799835205078,171.92100524902344 C60.38600158691406,189.36900329589844 50.63800048828125,193.0500030517578 58.61899948120117,196.5540008544922 C92.22599792480469,211.30799865722656 155.91600036621094,205.0019989013672 164.1269989013672,190.72999572753906 C171.21200561523438,178.4149932861328 171.89999389648438,139.17300415039062 159.39100646972656,88.17400360107422 C146.8820037841797,37.17499923706055 127.4530029296875,20.53700065612793 118.18499755859375,14.692000389099121 C98.80000305175781,2.4660000801086426 61.84000015258789,-3.2980000972747803 61.84000015258789,-3.2980000972747803 C61.84000015258789,-3.2980000972747803 -3.503000020980835,-28.656999588012695 -3.503000020980835,-28.656999588012695"></path></g></g><g style="display: block;" transform="matrix(1,0,0,1,256,256)" opacity="1"><g opacity="1" transform="matrix(2.2534632682800293,-0.3146182894706726,0.1765832006931305,1.2647826671600342,-11.5,-2)"><path fill="url(#__lottie_element_63)" fill-opacity="0.8" d=" M-21.805999755859375,15.1899995803833 C-21.805999755859375,15.1899995803833 -13.677000045776367,54.077999114990234 20.357999801635742,49.63399887084961 C51.37900161743164,45.58399963378906 43.624000549316406,14.463000297546387 43.624000549316406,14.463000297546387 C43.624000549316406,14.463000297546387 31.886999130249023,0.8159999847412109 12.027000427246094,1.437000036239624 C-13.260000228881836,2.2269999980926514 -21.805999755859375,15.1899995803833 -21.805999755859375,15.1899995803833z"></path></g><g opacity="1" transform="matrix(1,0,0,1,0,0)"><path fill="rgb(181,102,6)" fill-opacity="1" d=" M-21.27400016784668,4.010000228881836 C-20.299999237060547,22.329999923706055 18.22100067138672,115.58999633789062 81.59300231933594,109.78600311279297 C144.96499633789062,103.98200225830078 96.39700317382812,-3.996999979019165 58.86800003051758,-4.452000141143799"></path></g><g opacity="1" transform="matrix(1,0,0,1,0,0)"><path fill="url(#__lottie_element_64)" fill-opacity="1" d=" M-21.27400016784668,4.010000228881836 C-20.299999237060547,22.329999923706055 18.22100067138672,115.58999633789062 81.59300231933594,109.78600311279297 C144.96499633789062,103.98200225830078 96.39700317382812,-3.996999979019165 58.86800003051758,-4.452000141143799"></path></g><g opacity="1" transform="matrix(0.8144965767860413,-0.3665107190608978,0.8121374845504761,1.8048126697540283,-52.083457946777344,-43.32926940917969)"><path fill="url(#__lottie_element_65)" fill-opacity="0.45" d=" M67.44000244140625,76.93699645996094 C68.03700256347656,89.36100006103516 60.040000915527344,99.53700256347656 49.577999114990234,99.66500091552734 C39.11600112915039,99.79299926757812 30.150999069213867,89.8239974975586 29.554000854492188,77.4000015258789 C28.957000732421875,64.97599792480469 36.95500183105469,54.79999923706055 47.41699981689453,54.672000885009766 C57.87900161743164,54.54399871826172 66.84300231933594,64.51300048828125 67.44000244140625,76.93699645996094z"></path></g><g opacity="1" transform="matrix(1.6218461990356445,-0.18355315923690796,0.09701596945524216,0.85721755027771,-2.5,0)"><path fill="url(#__lottie_element_66)" fill-opacity="0.8" d=" M-4.184000015258789,54.058998107910156 C2.890000104904175,53.4900016784668 6.339000225067139,54.38399887084961 15.755000114440918,50.808998107910156 C60.57699966430664,33.790000915527344 46.08399963378906,1.6729999780654907 46.08399963378906,1.6729999780654907 C46.08399963378906,1.6729999780654907 31.926000595092773,-10.03600025177002 -4.932000160217285,1.6729999780654907 C-11.604999542236328,3.7929999828338623 -7.414999961853027,4.50600004196167 -12.446999549865723,6.89900016784668 C-12.446999549865723,6.89900016784668 -4.184000015258789,54.058998107910156 -4.184000015258789,54.058998107910156z"></path></g><g opacity="1" transform="matrix(1,0,0,1,0,0)"><path stroke-linecap="round" stroke-linejoin="round" fill-opacity="0" stroke="rgb(44,0,48)" stroke-opacity="1" stroke-width="8" d=" M-21.27400016784668,4.010000228881836 C-20.299999237060547,22.329999923706055 18.22100067138672,115.58999633789062 81.59300231933594,109.78600311279297 C144.96499633789062,103.98200225830078 96.39700317382812,-3.996999979019165 58.86800003051758,-4.452000141143799"></path></g></g><g style="display: block;" transform="matrix(1.0046314001083374,0.05265050008893013,-0.054952751845121384,1.0485609769821167,265.6498718261719,240.13885498046875)" opacity="1"><g opacity="1" transform="matrix(1.1955771446228027,-0.4111567735671997,0.28145524859428406,0.8184260725975037,-39.94908142089844,15.448661804199219)"><path fill="url(#__lottie_element_58)" fill-opacity="1" d=" M48.95899963378906,113.0479965209961 C48.95899963378906,113.0479965209961 22.010000228881836,70.01200103759766 -44.51599884033203,98.64199829101562 C-112.69400024414062,127.98200225830078 -95.37999725341797,175.75399780273438 -80.1449966430664,191.96400451660156 C-60.749000549316406,212.6009979248047 -14.343000411987305,235.6020050048828 26.566999435424805,219.31900024414062 C86.5260009765625,195.45399475097656 48.95899963378906,113.0479965209961 48.95899963378906,113.0479965209961z"></path></g><g opacity="1" transform="matrix(1,0,0,1,0,0)"><path stroke-linecap="round" stroke-linejoin="round" fill-opacity="0" stroke="rgb(35,58,57)" stroke-opacity="0.2" stroke-width="8" d=" M-81.20800018310547,205.8159942626953 C-81.20800018310547,205.8159942626953 -55.722999572753906,126.91699981689453 16.167999267578125,83.81500244140625"></path></g><g opacity="1" transform="matrix(1,0,0,1,0,0)"><path stroke-linecap="round" stroke-linejoin="round" fill-opacity="0" stroke="rgb(35,58,57)" stroke-opacity="0.1" stroke-width="6" d=" M-91.06700134277344,201.03399658203125 C-91.06700134277344,201.03399658203125 -66.9020004272461,126.25299835205078 -4.142000198364258,86.5719985961914"></path></g><g opacity="1" transform="matrix(1,0,0,1,0,0)"><path stroke-linecap="round" stroke-linejoin="round" fill-opacity="0" stroke="rgb(87,132,130)" stroke-opacity="1" stroke-width="8" d=" M49.54399871826172,87.71600341796875 C49.54399871826172,87.71600341796875 -2.7300000190734863,67.30799865722656 -66.8489990234375,116.01200103759766 C-125.9540023803711,160.9080047607422 -111.01100158691406,191.16000366210938 -91.84300231933594,202.4499969482422 C-67.44000244140625,216.822998046875 7.535999774932861,211.64999389648438 45.196998596191406,188.83700561523438 C118.9229965209961,144.17599487304688 49.54399871826172,87.71600341796875 49.54399871826172,87.71600341796875z"></path></g><g opacity="1" transform="matrix(1,0,0,1,0,0)"><path fill="url(#__lottie_element_59)" fill-opacity="0.4" d=" M45.194000244140625,188.84100341796875 C7.533999919891357,211.6510009765625 -67.43599700927734,216.8209991455078 -91.84600067138672,202.4510040283203 C-106.95600128173828,193.55099487304688 -112.47200012207031,180.2779998779297 -105.03800201416016,165.31100463867188 C-108.83100128173828,192.2550048828125 -51.882999420166016,187.01100158691406 -27.375999450683594,182.10899353027344 C3.0739998817443848,176.01800537109375 48.42300033569336,150.97999572753906 43.38800048828125,119.26399993896484 C43.38800048828125,119.26399993896484 76.65499877929688,133.81300354003906 76.65499877929688,133.81300354003906 C80.46499633789062,151.7030029296875 76.1240005493164,170.1009979248047 45.194000244140625,188.84100341796875z"></path></g><g opacity="1" transform="matrix(1,0,0,1,0,0)"><path stroke-linecap="round" stroke-linejoin="round" fill-opacity="0" stroke="rgb(35,58,57)" stroke-opacity="1" stroke-width="8" d=" M-91.84300231933594,202.4499969482422 C-67.44000244140625,216.822998046875 7.535999774932861,211.64999389648438 45.196998596191406,188.83700561523438 C118.9229965209961,144.17599487304688 49.54399871826172,87.71600341796875 49.54399871826172,87.71600341796875"></path></g></g><g style="display: block;" transform="matrix(1,0,0,1,256,256)" opacity="1"><g opacity="1" transform="matrix(1,0,0,1,0,0)"><g opacity="1" transform="matrix(1,0,0,1,0,0)"><path fill="url(#__lottie_element_54)" fill-opacity="1" d=" M-131.40499877929688,137.6649932861328 C-131.40499877929688,137.6649932861328 -120.24400329589844,135.718994140625 -110.50700378417969,139.0500030517578 C-105.28299713134766,140.83700561523438 -94.15899658203125,151.78900146484375 -96.1729965209961,177.74099731445312 C-98.18699645996094,203.6929931640625 -129.8820037841797,201.8249969482422 -129.8820037841797,201.8249969482422 C-137.52499389648438,200.88299560546875 -161.27099609375,188.2270050048828 -154.56399536132812,161.3280029296875 C-152.45799255371094,152.8820037841797 -147.1269989013672,148.07200622558594 -143.11900329589844,141.74000549316406 C-143.11900329589844,141.74000549316406 -136.74400329589844,138.5590057373047 -131.40499877929688,137.6649932861328"></path></g><g opacity="1" transform="matrix(1,0,0,1,0,0)"><g opacity="1" transform="matrix(1,0,0,1,0,0)"><path stroke-linecap="round" stroke-linejoin="round" fill-opacity="0" stroke="rgb(82,1,86)" stroke-opacity="1" stroke-width="8" d=" M-131.40499877929688,139.6649932861328 C-131.40499877929688,139.6649932861328 -120.24400329589844,135.718994140625 -110.50700378417969,139.0500030517578 C-110.47799682617188,139.05999755859375 -94.2969970703125,153.5659942626953 -96.1729965209961,177.74099731445312"></path></g></g><g opacity="1" transform="matrix(1,0,0,1,0,0)"><path stroke-linecap="round" stroke-linejoin="round" fill-opacity="0" stroke="rgb(82,1,86)" stroke-opacity="1" stroke-width="8" d=" M-131.40499877929688,139.6649932861328 C-131.40499877929688,139.6649932861328 -120.24400329589844,135.718994140625 -110.50700378417969,139.0500030517578 C-110.47799682617188,139.05999755859375 -94.2969970703125,153.5659942626953 -96.1729965209961,177.74099731445312 C-98.18699645996094,203.6929931640625 -129.8820037841797,201.8249969482422 -129.8820037841797,201.8249969482422 C-137.52499389648438,200.88299560546875 -161.27099609375,188.2270050048828 -154.56399536132812,161.3280029296875 C-149.5189971923828,141.09500122070312 -137.9239959716797,130.65899658203125 -125.00299835205078,112.14299774169922"></path></g><g opacity="1" transform="matrix(1,0,0,1,0,0)"><path stroke-linecap="round" stroke-linejoin="round" fill-opacity="0" stroke="rgb(44,0,48)" stroke-opacity="1" stroke-width="8" d=" M-131.40499877929688,139.6649932861328 C-131.40499877929688,139.6649932861328 -120.24400329589844,135.718994140625 -110.50700378417969,139.0500030517578 C-110.47799682617188,139.05999755859375 -94.2969970703125,153.5659942626953 -96.1729965209961,177.74099731445312 C-98.18699645996094,203.6929931640625 -129.8820037841797,201.8249969482422 -129.8820037841797,201.8249969482422 C-137.52499389648438,200.88299560546875 -161.27099609375,188.2270050048828 -154.56399536132812,161.3280029296875"></path></g><g opacity="1" transform="matrix(1,0,0,1,0,0)"><path stroke-linecap="round" stroke-linejoin="round" fill-opacity="0" stroke="rgb(82,1,86)" stroke-opacity="1" stroke-width="8" d=" M-131.40499877929688,139.6649932861328 C-131.40499877929688,139.6649932861328 -120.24400329589844,135.718994140625 -110.50700378417969,139.0500030517578 C-110.47799682617188,139.05999755859375 -94.2969970703125,153.5659942626953 -96.1729965209961,177.74099731445312"></path></g></g><g opacity="1" transform="matrix(1,0,0,1,0,0)"><path fill="rgb(66,0,72)" fill-opacity="1" d=" M-102.447998046875,170.18099975585938 C-102.447998046875,170.18099975585938 -99.65299987792969,184.45599365234375 -102.447998046875,192.61500549316406 C-106.16300201416016,203.4600067138672 -114.86799621582031,202.88400268554688 -119.99199676513672,203.4600067138672 C-123.38899993896484,203.8419952392578 -131.2480010986328,202.46800231933594 -133.70399475097656,197.427001953125 C-137.79400634765625,189.03399658203125 -132.7689971923828,173.78700256347656 -117.45800018310547,168.8699951171875 C-110.23100280761719,166.5489959716797 -102.447998046875,170.18099975585938 -102.447998046875,170.18099975585938z"></path><path stroke-linecap="round" stroke-linejoin="round" fill-opacity="0" stroke="rgb(44,0,48)" stroke-opacity="1" stroke-width="8" d=" M-102.447998046875,170.18099975585938 C-102.447998046875,170.18099975585938 -99.65299987792969,184.45599365234375 -102.447998046875,192.61500549316406 C-106.16300201416016,203.4600067138672 -114.86799621582031,202.88400268554688 -119.99199676513672,203.4600067138672 C-123.38899993896484,203.8419952392578 -131.2480010986328,202.46800231933594 -133.70399475097656,197.427001953125 C-137.79400634765625,189.03399658203125 -132.7689971923828,173.78700256347656 -117.45800018310547,168.8699951171875 C-110.23100280761719,166.5489959716797 -102.447998046875,170.18099975585938 -102.447998046875,170.18099975585938z"></path></g></g><g style="display: block;" transform="matrix(1,0,0,1,256,255.99998474121094)" opacity="1"><g opacity="1" transform="matrix(1,0,0,1,0,0)"><path fill="rgb(255,216,0)" fill-opacity="1" d=" M-117.375,203.302001953125 C-103.80699920654297,204.98300170898438 -80.5979995727539,213.031005859375 -69.43299865722656,214.9709930419922 C-64.1259994506836,215.89300537109375 -37.85100173950195,215.6719970703125 -36.34400177001953,212.58399963378906 C-35.78799819946289,211.44500732421875 -35.987998962402344,205.17599487304688 -43.16299819946289,204.19500732421875 C-50.71500015258789,203.16299438476562 -57.71200180053711,203.1269989013672 -62.16400146484375,202.1540069580078 C-68.97100067138672,200.66600036621094 -71.47699737548828,198.1909942626953 -73.8290023803711,196.07200622558594 C-79.43599700927734,191.02000427246094 -85.56099700927734,187.21099853515625 -80.1500015258789,186.38999938964844 C-71.052001953125,185.00900268554688 -59.53900146484375,179.91600036621094 -59.86899948120117,172.80599975585938 C-60.19900131225586,165.6959991455078 -72.37300109863281,172.28199768066406 -88.56199645996094,172.9290008544922 C-103.40299987792969,173.52200317382812 -101.79399871826172,179.10499572753906 -113.62699890136719,181.5260009765625 C-113.62699890136719,181.5260009765625 -118.63099670410156,186.10000610351562 -121.01200103759766,194.60499572753906 C-123.31900024414062,202.843994140625 -117.375,203.302001953125 -117.375,203.302001953125z"></path></g><g opacity="1" transform="matrix(1,0,0,1,0,0)"><path fill="url(#__lottie_element_50)" fill-opacity="1" d=" M-117.375,203.302001953125 C-103.80699920654297,204.98300170898438 -80.5979995727539,213.031005859375 -69.43299865722656,214.9709930419922 C-64.1259994506836,215.89300537109375 -37.85100173950195,215.6719970703125 -36.34400177001953,212.58399963378906 C-35.78799819946289,211.44500732421875 -35.987998962402344,205.17599487304688 -43.16299819946289,204.19500732421875 C-50.71500015258789,203.16299438476562 -57.71200180053711,203.1269989013672 -62.16400146484375,202.1540069580078 C-68.97100067138672,200.66600036621094 -71.47699737548828,198.1909942626953 -73.8290023803711,196.07200622558594 C-79.43599700927734,191.02000427246094 -85.56099700927734,187.21099853515625 -80.1500015258789,186.38999938964844 C-71.052001953125,185.00900268554688 -59.53900146484375,179.91600036621094 -59.86899948120117,172.80599975585938 C-60.19900131225586,165.6959991455078 -72.37300109863281,172.28199768066406 -88.56199645996094,172.9290008544922 C-103.40299987792969,173.52200317382812 -101.79399871826172,179.10499572753906 -113.62699890136719,181.5260009765625 C-113.62699890136719,181.5260009765625 -120.02300262451172,186.86099243164062 -121.01200103759766,194.60499572753906 C-122.16899871826172,203.66700744628906 -117.375,203.302001953125 -117.375,203.302001953125z"></path></g><g opacity="1" transform="matrix(1,0,0,1,0,0)"><path stroke-linecap="round" stroke-linejoin="round" fill-opacity="0" stroke="rgb(197,92,0)" stroke-opacity="1" stroke-width="8" d=" M-112.375,205.302001953125 C-99.99500274658203,208.3300018310547 -80.5979995727539,213.031005859375 -69.43299865722656,214.9709930419922 C-64.1259994506836,215.89300537109375 -37.85100173950195,215.6719970703125 -36.34400177001953,212.58399963378906 C-35.78799819946289,211.44500732421875 -35.987998962402344,205.17599487304688 -43.16299819946289,204.19500732421875 C-50.71500015258789,203.16299438476562 -57.71200180053711,203.1269989013672 -62.16400146484375,202.1540069580078 C-68.97100067138672,200.66600036621094 -71.47699737548828,198.1909942626953 -73.8290023803711,196.07200622558594 C-79.43599700927734,191.02000427246094 -85.56099700927734,187.21099853515625 -80.1500015258789,186.38999938964844 C-71.052001953125,185.00900268554688 -57.21799850463867,180.21200561523438 -59.86899948120117,172.80599975585938 C-62.268001556396484,166.10499572753906 -69.75499725341797,171.8780059814453 -87.56199645996094,173.9290008544922 C-99.03399658203125,175.25 -104.58599853515625,177.3000030517578 -111.62699890136719,181.5260009765625 C-124.00900268554688,188.95700073242188 -124.01499938964844,202.4550018310547 -112.375,205.302001953125z"></path></g></g><g style="display: block;" transform="matrix(1,0,0,1,256,256)" opacity="1"><g opacity="1" transform="matrix(1.2353299856185913,0,0,1,-26.00396728515625,0)"><path fill="url(#__lottie_element_45)" fill-opacity="1" d=" M155.3820037841797,190.71200561523438 C156.64199829101562,201.97900390625 103.36000061035156,212.46200561523438 71.9489974975586,197.0019989013672 C65.25800323486328,193.70899963378906 69.3759994506836,189.3489990234375 66.88300323486328,171.88699340820312 C64.76300048828125,157.03900146484375 69.7509994506836,154.5449981689453 70.18900299072266,152.53399658203125 C72.84200286865234,140.343994140625 86.47200012207031,146.63499450683594 95.49299621582031,147.91200256347656 C106.83999633789062,149.5189971923828 117.90599822998047,144.1179962158203 117.90599822998047,144.1179962158203 C117.90599822998047,144.1179962158203 149.65499877929688,139.5 155.3820037841797,190.71200561523438z"></path></g><g opacity="1" transform="matrix(1,0,0,1,0,0)"><path stroke-linecap="round" stroke-linejoin="round" fill-opacity="0" stroke="rgb(44,0,48)" stroke-opacity="1" stroke-width="8" d=" M118.9229965209961,144.17599487304688 C118.9229965209961,144.17599487304688 106.62899780273438,147.12899780273438 91.88800048828125,147.96600341796875 C70.87799835205078,149.16000366210938 62.77199935913086,143.343994140625 61.3650016784668,152.58399963378906 C61.051998138427734,154.63800048828125 54.82099914550781,157.08599853515625 57.37799835205078,171.92100524902344 C60.38600158691406,189.36900329589844 50.63800048828125,193.0500030517578 58.61899948120117,196.5540008544922 C92.22599792480469,211.30799865722656 155.91600036621094,205.0019989013672 164.1269989013672,190.72999572753906 C171.21200561523438,178.4149932861328 171.89999389648438,139.17300415039062 159.39100646972656,88.17400360107422"></path></g><g opacity="1" transform="matrix(1.2683793306350708,-0.048859238624572754,0.029574904590845108,0.7677605748176575,-30.764328002929688,52.226837158203125)"><path fill="url(#__lottie_element_46)" fill-opacity="0.8" d=" M63.625,166.76600646972656 C63.625,166.76600646972656 84.10099792480469,203.27999877929688 128.6060028076172,178.38699340820312 C171.42599487304688,154.43600463867188 169.8280029296875,62.54899978637695 114.41699981689453,62.0359992980957 C114.41699981689453,62.0359992980957 101.20500183105469,126.34200286865234 101.20500183105469,126.34200286865234 C101.20500183105469,126.34200286865234 48.68000030517578,119.67500305175781 63.625,166.76600646972656z"></path></g><g opacity="1" transform="matrix(1,0,0,1,0,0)"><path stroke-linecap="round" stroke-linejoin="round" fill-opacity="0" stroke="rgb(44,0,48)" stroke-opacity="0.3" stroke-width="6" d=" M124.62000274658203,140.40499877929688 C124.62000274658203,140.40499877929688 140.57400512695312,141.5679931640625 155.5279998779297,160.6820068359375"></path></g></g><g style="display: block;" transform="matrix(1,0,0,1,255.99998474121094,256)" opacity="1"><g opacity="1" transform="matrix(1,0,0,1,0,0)"><path fill="rgb(255,216,0)" fill-opacity="1" d=" M40.37300109863281,151.08399963378906 C40.37300109863281,151.08399963378906 27.059999465942383,136.66799926757812 18.798999786376953,130.07000732421875 C15.555000305175781,127.47899627685547 8.288000106811523,123.20500183105469 2.9670000076293945,120.69499969482422 C-5.263999938964844,116.81300354003906 -11.236000061035156,114.86799621582031 -12.821999549865723,119.90899658203125 C-14.105999946594238,123.99099731445312 -9.979000091552734,125.28700256347656 -6.104000091552734,127.7300033569336 C-1.4950000047683716,130.63600158691406 3.7149999141693115,134.08399963378906 3.4159998893737793,135.27499389648438 C2.4709999561309814,139.03399658203125 -19.017000198364258,132.41200256347656 -28.204999923706055,130.07000732421875 C-42.487998962402344,126.42900085449219 -48.430999755859375,125.27300262451172 -50.13999938964844,130.07000732421875 C-51.8489990234375,134.86700439453125 -38.54100036621094,139.1280059814453 -30.849000930786133,141.1219940185547 C-23.156999588012695,143.11599731445312 -16.1200008392334,145.13800048828125 -16.524999618530273,146.0679931640625 C-16.941999435424805,147.02699279785156 -31.899999618530273,145.49099731445312 -43.018001556396484,144.5709991455078 C-58.236000061035156,143.31100463867188 -61.106998443603516,143.5590057373047 -61.53499984741211,148.58099365234375 C-61.736000061035156,150.94000244140625 -61.5369987487793,154.0850067138672 -44.058998107910156,156.10299682617188 C-28.604000091552734,157.88800048828125 -17.716999053955078,158.3780059814453 -17.094999313354492,158.7270050048828 C-17.094999313354492,158.7270050048828 -17.094999313354492,158.7270050048828 -17.094999313354492,158.7270050048828 C-17.094999313354492,158.7270050048828 -26.559999465942383,157.95199584960938 -37.25299835205078,157.06399536132812 C-55.90999984741211,155.51499938964844 -56.18000030517578,157.7270050048828 -56.40700149536133,160.39999389648438 C-56.71900177001953,164.07000732421875 -55.29100036621094,166.7449951171875 -39.50299835205078,168.5749969482422 C-24.017000198364258,170.3699951171875 -17.73699951171875,170.81100463867188 -17.80500030517578,171.531005859375 C-17.82699966430664,171.76400756835938 -21.14699935913086,171.65899658203125 -32.196998596191406,171.65699768066406 C-40.21900177001953,171.65499877929688 -40.87900161743164,174.13699340820312 -41.30699920654297,176.42999267578125 C-42.16299819946289,181.01600646972656 -36.96500015258789,182.07200622558594 -15.385000228881836,183.01100158691406 C3.115999937057495,183.8159942626953 22.466999053955078,186.6820068359375 35.30400085449219,181.14300537109375 C48.14099884033203,175.60400390625 40.37300109863281,151.08399963378906 40.37300109863281,151.08399963378906z"></path></g><g opacity="1" transform="matrix(1,0,0,1,0,0)"><path fill="url(#__lottie_element_41)" fill-opacity="1" d=" M40.37300109863281,151.08399963378906 C40.37300109863281,151.08399963378906 27.059999465942383,136.66799926757812 18.798999786376953,130.07000732421875 C15.555000305175781,127.47899627685547 8.288000106811523,123.20500183105469 2.9670000076293945,120.69499969482422 C-5.263999938964844,116.81300354003906 -11.236000061035156,114.86799621582031 -12.821999549865723,119.90899658203125 C-14.105999946594238,123.99099731445312 -9.979000091552734,125.28700256347656 -6.104000091552734,127.7300033569336 C-1.4950000047683716,130.63600158691406 3.7149999141693115,134.08399963378906 3.4159998893737793,135.27499389648438 C2.4709999561309814,139.03399658203125 -19.017000198364258,132.41200256347656 -28.204999923706055,130.07000732421875 C-42.487998962402344,126.42900085449219 -48.430999755859375,125.27300262451172 -50.13999938964844,130.07000732421875 C-51.8489990234375,134.86700439453125 -38.54100036621094,139.1280059814453 -30.849000930786133,141.1219940185547 C-23.156999588012695,143.11599731445312 -16.1200008392334,145.13800048828125 -16.524999618530273,146.0679931640625 C-16.941999435424805,147.02699279785156 -31.899999618530273,145.49099731445312 -43.018001556396484,144.5709991455078 C-58.236000061035156,143.31100463867188 -61.106998443603516,143.5590057373047 -61.53499984741211,148.58099365234375 C-61.736000061035156,150.94000244140625 -61.5369987487793,154.0850067138672 -44.058998107910156,156.10299682617188 C-28.604000091552734,157.88800048828125 -17.716999053955078,158.3780059814453 -17.094999313354492,158.7270050048828 C-17.094999313354492,158.7270050048828 -17.094999313354492,158.7270050048828 -17.094999313354492,158.7270050048828 C-17.094999313354492,158.7270050048828 -26.559999465942383,157.95199584960938 -37.25299835205078,157.06399536132812 C-55.90999984741211,155.51499938964844 -56.18000030517578,157.7270050048828 -56.40700149536133,160.39999389648438 C-56.71900177001953,164.07000732421875 -55.29100036621094,166.7449951171875 -39.50299835205078,168.5749969482422 C-24.017000198364258,170.3699951171875 -17.73699951171875,170.81100463867188 -17.80500030517578,171.531005859375 C-17.82699966430664,171.76400756835938 -21.14699935913086,171.65899658203125 -32.196998596191406,171.65699768066406 C-40.21900177001953,171.65499877929688 -40.87900161743164,174.13699340820312 -41.30699920654297,176.42999267578125 C-42.16299819946289,181.01600646972656 -36.96500015258789,182.07200622558594 -15.385000228881836,183.01100158691406 C3.115999937057495,183.8159942626953 22.466999053955078,186.6820068359375 35.30400085449219,181.14300537109375 C48.14099884033203,175.60400390625 40.37300109863281,151.08399963378906 40.37300109863281,151.08399963378906z"></path></g><g opacity="1" transform="matrix(1,0,0,1,0,0)"><path stroke-linecap="round" stroke-linejoin="round" fill-opacity="0" stroke="rgb(197,92,0)" stroke-opacity="1" stroke-width="8" d=" M40.37300109863281,151.08399963378906 C40.37300109863281,151.08399963378906 27.059999465942383,136.66799926757812 18.798999786376953,130.07000732421875 C15.555000305175781,127.47899627685547 8.288000106811523,123.20500183105469 2.9670000076293945,120.69499969482422 C-5.263999938964844,116.81300354003906 -11.236000061035156,114.86799621582031 -12.821999549865723,119.90899658203125 C-14.105999946594238,123.99099731445312 -9.979000091552734,125.28700256347656 -6.104000091552734,127.7300033569336 C-1.4950000047683716,130.63600158691406 3.7149999141693115,134.08399963378906 3.4159998893737793,135.27499389648438 C2.4709999561309814,139.03399658203125 -19.017000198364258,132.41200256347656 -28.204999923706055,130.07000732421875 C-42.487998962402344,126.42900085449219 -48.430999755859375,125.27300262451172 -50.13999938964844,130.07000732421875 C-51.8489990234375,134.86700439453125 -38.46500015258789,138.85800170898438 -30.849000930786133,141.1219940185547 C-21.27400016784668,143.96800231933594 -16.510000228881836,145.50799560546875 -16.524999618530273,146.0679931640625 C-16.541000366210938,146.6750030517578 -31.899999618530273,145.49099731445312 -43.018001556396484,144.5709991455078 C-58.236000061035156,143.31100463867188 -61.106998443603516,143.5590057373047 -61.53499984741211,148.58099365234375 C-61.736000061035156,150.94000244140625 -61.5369987487793,154.0850067138672 -44.058998107910156,156.10299682617188 C-28.604000091552734,157.88800048828125 -17.716999053955078,158.3780059814453 -17.094999313354492,158.7270050048828 C-17.094999313354492,158.7270050048828 -17.094999313354492,158.7270050048828 -17.094999313354492,158.7270050048828 C-17.094999313354492,158.7270050048828 -26.559999465942383,157.95199584960938 -37.25299835205078,157.06399536132812 C-55.90999984741211,155.51499938964844 -56.18000030517578,157.7270050048828 -56.40700149536133,160.39999389648438 C-56.71900177001953,164.07000732421875 -55.29100036621094,166.7449951171875 -39.50299835205078,168.5749969482422 C-24.017000198364258,170.3699951171875 -17.73699951171875,170.81100463867188 -17.80500030517578,171.531005859375 C-17.82699966430664,171.76400756835938 -21.14699935913086,171.65899658203125 -32.196998596191406,171.65699768066406 C-40.21900177001953,171.65499877929688 -40.87900161743164,174.13699340820312 -41.30699920654297,176.42999267578125 C-42.16299819946289,181.01600646972656 -36.96500015258789,182.07200622558594 -15.385000228881836,183.01100158691406 C3.115999937057495,183.8159942626953 22.466999053955078,186.6820068359375 35.30400085449219,181.14300537109375 C48.14099884033203,175.60400390625 40.37300109863281,151.08399963378906 40.37300109863281,151.08399963378906z"></path></g><g opacity="1" transform="matrix(1,0,0,1,0,0)"><path fill="rgb(66,0,72)" fill-opacity="1" d=" M41.43600082397461,147.57699584960938 C42.970001220703125,152.6179962158203 42.43600082397461,173.90699768066406 34.32600021362305,185.96200561523438 C34.32600021362305,185.96200561523438 39.2400016784668,186.7830047607422 56.04399871826172,190.947998046875 C56.04399871826172,190.947998046875 66.46800231933594,173.46099853515625 61.3650016784668,152.58399963378906 C61.3650016784668,152.58399963378906 41.43600082397461,147.57699584960938 41.43600082397461,147.57699584960938z"></path><path stroke-linecap="round" stroke-linejoin="round" fill-opacity="0" stroke="rgb(44,0,48)" stroke-opacity="1" stroke-width="8" d=" M41.43600082397461,147.57699584960938 C42.970001220703125,152.6179962158203 42.43600082397461,173.90699768066406 34.32600021362305,185.96200561523438 C34.32600021362305,185.96200561523438 39.2400016784668,186.7830047607422 56.04399871826172,190.947998046875 C56.04399871826172,190.947998046875 66.46800231933594,173.46099853515625 61.3650016784668,152.58399963378906 C61.3650016784668,152.58399963378906 41.43600082397461,147.57699584960938 41.43600082397461,147.57699584960938z"></path></g></g><g style="display: block;" transform="matrix(1,0,0,1,255.99998474121094,256)" opacity="1"><g opacity="1" transform="matrix(1,0,0,1,0,0)"><path fill="rgb(255,168,0)" fill-opacity="1" d=" M83.03500366210938,-72.51300048828125 C83.03500366210938,-72.51300048828125 96.2760009765625,-78.46600341796875 94.51399993896484,-95.927001953125 C92.23400115966797,-118.5199966430664 74.82599639892578,-110.50199890136719 74.82599639892578,-110.50199890136719"></path><path stroke-linecap="round" stroke-linejoin="round" fill-opacity="0" stroke="rgb(219,110,0)" stroke-opacity="1" stroke-width="8" d=" M83.03500366210938,-72.51300048828125 C83.03500366210938,-72.51300048828125 96.2760009765625,-78.46600341796875 94.51399993896484,-95.927001953125 C92.23400115966797,-118.5199966430664 74.82599639892578,-110.50199890136719 74.82599639892578,-110.50199890136719"></path></g><g opacity="1" transform="matrix(1,0,0,1,0,0)"><path fill="rgb(255,168,0)" fill-opacity="1" d=" M-70.26100158691406,-67.65499877929688 C-82.68299865722656,-63.233001708984375 -80.40599822998047,-42.005001068115234 -64.29299926757812,-31.854999542236328 C-50.875999450683594,-23.402999877929688 -45.34700012207031,-36.1510009765625 -45.34700012207031,-36.1510009765625"></path><path stroke-linecap="round" stroke-linejoin="round" fill-opacity="0" stroke="rgb(219,110,0)" stroke-opacity="1" stroke-width="8" d=" M-70.26100158691406,-67.65499877929688 C-82.68299865722656,-63.233001708984375 -80.40599822998047,-42.005001068115234 -64.29299926757812,-31.854999542236328 C-50.875999450683594,-23.402999877929688 -45.34700012207031,-36.1510009765625 -45.34700012207031,-36.1510009765625"></path></g></g><g style="display: block;" transform="matrix(1,0,0,1,255.99998474121094,256)" opacity="1"><g opacity="1" transform="matrix(1,0,0,1,0,0)"><g opacity="1" transform="matrix(1,0,0,1,0,0)"><g opacity="1" transform="matrix(1,0,0,1,0,0)"><path fill="rgb(255,168,0)" fill-opacity="1" d=" M50.6879997253418,-161.8090057373047 C31.716999053955078,-178.25399780273438 10.159000396728516,-185.45899963378906 -18.099000930786133,-178.76499938964844 C-46.35599899291992,-172.0709991455078 -62.39099884033203,-155.96099853515625 -71.96900177001953,-132.7530059814453 C-81.5469970703125,-109.54499816894531 -82.49099731445312,-63.49399948120117 -54.64899826049805,-29.049999237060547 C-26.80699920654297,5.394000053405762 8.58899974822998,12.227999687194824 27.329999923706055,7.788000106811523 C46.07099914550781,3.3480000495910645 73.64399719238281,-15.401000022888184 83.07499694824219,-58.67499923706055 C92.50599670410156,-101.9489974975586 69.65899658203125,-145.36500549316406 50.6879997253418,-161.8090057373047z"></path></g><g opacity="1" transform="matrix(1,0,0,1,0,0)"><path fill="url(#__lottie_element_12)" fill-opacity="1" d=" M50.79100036621094,-161.83299255371094 C31.81999969482422,-178.2779998779297 10.26200008392334,-185.48399353027344 -17.996000289916992,-178.7899932861328 C-46.25299835205078,-172.0959930419922 -62.28799819946289,-155.98500061035156 -71.86599731445312,-132.77699279785156 C-81.44400024414062,-109.56900024414062 -82.38800048828125,-63.518001556396484 -54.54600143432617,-29.073999404907227 C-26.70400047302246,5.369999885559082 8.692000389099121,12.204000473022461 27.433000564575195,7.763999938964844 C46.17399978637695,3.3239998817443848 73.74800109863281,-15.425999641418457 83.17900085449219,-58.70000076293945 C92.61000061035156,-101.9739990234375 69.76200103759766,-145.38900756835938 50.79100036621094,-161.83299255371094z"></path></g><g opacity="1" transform="matrix(1,0,0,1,0,0)"><path stroke-linecap="round" stroke-linejoin="round" fill-opacity="0" stroke="rgb(219,110,0)" stroke-opacity="1" stroke-width="8" d=" M50.6879997253418,-161.8090057373047 C31.716999053955078,-178.25399780273438 10.159000396728516,-185.45899963378906 -18.099000930786133,-178.76499938964844 C-46.35599899291992,-172.0709991455078 -62.39099884033203,-155.96099853515625 -71.96900177001953,-132.7530059814453 C-81.5469970703125,-109.54499816894531 -82.49099731445312,-63.49399948120117 -54.64899826049805,-29.049999237060547 C-26.80699920654297,5.394000053405762 10.779999732971191,11.119000434875488 31.652000427246094,6.73199987411499 C52.882999420166016,2.2699999809265137 73.64399719238281,-15.401000022888184 83.07499694824219,-58.67499923706055 C92.50599670410156,-101.9489974975586 69.65899658203125,-145.36500549316406 50.6879997253418,-161.8090057373047z"></path></g><g opacity="1" transform="matrix(1,0,0,1,0,0)"><path fill="url(#__lottie_element_13)" fill-opacity="1" d=" M69.85900115966797,-91.08999633789062 C68.66100311279297,-93.00299835205078 66.4800033569336,-94.06300354003906 64.22899627685547,-93.91000366210938 C55.93199920654297,-93.34500122070312 29.36400032043457,-92.08799743652344 6.935999870300293,-94.14099884033203 C-16.767000198364258,-96.31099700927734 -34.125999450683594,-105.38400268554688 -44.89799880981445,-110.54900360107422 C-44.89799880981445,-110.54900360107422 -43.494998931884766,-105.58999633789062 -49.77799987792969,-89.51799774169922 C-59.768001556396484,-63.965999603271484 -51.04100036621094,-43.51599884033203 -34.94300079345703,-27.070999145507812 C-13.805999755859375,-5.478000164031982 14.173999786376953,-0.8410000205039978 29.45199966430664,-4.361999988555908 C51.0099983215332,-9.331000328063965 64.10600280761719,-29.827999114990234 69.81999969482422,-49.308998107910156 C75.39600372314453,-68.31999969482422 74.8030014038086,-83.19499969482422 69.85900115966797,-91.08999633789062z"></path></g></g></g></g><g style="display: block;" transform="matrix(1,0,0,1,255.99998474121094,256)" opacity="1"><g opacity="1" transform="matrix(1,0,0,1,0,0)"><g opacity="1" transform="matrix(1,0,0,1,0,0)"><path fill="rgb(163,65,0)" fill-opacity="1" d=" M-54.292999267578125,-70.33399963378906 C-54.292999267578125,-70.33399963378906 -46.573001861572266,-77.8270034790039 -35.75600051879883,-80.33100128173828 C-25.391000747680664,-82.7300033569336 -20.299999237060547,-80.60399627685547 -20.299999237060547,-80.60399627685547 C-20.299999237060547,-80.60399627685547 -25.333999633789062,-85.91500091552734 -36.38600158691406,-82.76699829101562 C-48.56100082397461,-79.29900360107422 -54.292999267578125,-70.33399963378906 -54.292999267578125,-70.33399963378906z"></path><path stroke-linecap="round" stroke-linejoin="round" fill-opacity="0" stroke="rgb(163,65,0)" stroke-opacity="1" stroke-width="2" d=" M-54.292999267578125,-70.33399963378906 C-54.292999267578125,-70.33399963378906 -46.573001861572266,-77.8270034790039 -35.75600051879883,-80.33100128173828 C-25.391000747680664,-82.7300033569336 -20.299999237060547,-80.60399627685547 -20.299999237060547,-80.60399627685547 C-20.299999237060547,-80.60399627685547 -25.333999633789062,-85.91500091552734 -36.38600158691406,-82.76699829101562 C-48.56100082397461,-79.29900360107422 -54.292999267578125,-70.33399963378906 -54.292999267578125,-70.33399963378906z"></path></g><g opacity="1" transform="matrix(1,0,0,1,0,0)"><path fill="rgb(163,65,0)" fill-opacity="1" d=" M60.45899963378906,-109.58200073242188 C60.45899963378906,-109.58200073242188 49.37799835205078,-111.99400329589844 39.22999954223633,-107.48500061035156 C29.506000518798828,-103.16500091552734 26.952999114990234,-97.78199768066406 26.952999114990234,-97.78199768066406 C26.952999114990234,-97.78199768066406 27.31999969482422,-106.26899719238281 38.084999084472656,-110.29399871826172 C49.944000244140625,-114.72799682617188 60.45899963378906,-109.58200073242188 60.45899963378906,-109.58200073242188z"></path><path stroke-linecap="round" stroke-linejoin="round" fill-opacity="0" stroke="rgb(163,65,0)" stroke-opacity="1" stroke-width="2" d=" M60.45899963378906,-109.58200073242188 C60.45899963378906,-109.58200073242188 49.37799835205078,-111.99400329589844 39.22999954223633,-107.48500061035156 C29.506000518798828,-103.16500091552734 26.952999114990234,-97.78199768066406 26.952999114990234,-97.78199768066406 C26.952999114990234,-97.78199768066406 27.31999969482422,-106.26899719238281 38.084999084472656,-110.29399871826172 C49.944000244140625,-114.72799682617188 60.45899963378906,-109.58200073242188 60.45899963378906,-109.58200073242188z"></path></g></g><g opacity="1" transform="matrix(1,0,0,1,0,0)"><path fill="rgb(163,65,0)" fill-opacity="1" d=" M-47.85499954223633,-51.770999908447266 C-46.36600112915039,-51.40299987792969 -21.378000259399414,-46.595001220703125 -6.646999835968018,-63.965999603271484 C-6.89900016784668,-63.534000396728516 -12.229000091552734,-51.974998474121094 -24.924999237060547,-49.32400131225586 C-37.7400016784668,-46.64799880981445 -47.85499954223633,-51.770999908447266 -47.85499954223633,-51.770999908447266z"></path><path stroke-linecap="round" stroke-linejoin="round" fill-opacity="0" stroke="rgb(163,65,0)" stroke-opacity="1" stroke-width="2" d=" M-47.85499954223633,-51.770999908447266 C-46.36600112915039,-51.40299987792969 -21.378000259399414,-46.595001220703125 -6.646999835968018,-63.965999603271484 C-6.89900016784668,-63.534000396728516 -12.229000091552734,-51.974998474121094 -24.924999237060547,-49.32400131225586 C-37.7400016784668,-46.64799880981445 -47.85499954223633,-51.770999908447266 -47.85499954223633,-51.770999908447266z"></path></g><g opacity="1" transform="matrix(1,0,0,1,0,0)"><path fill="rgb(163,65,0)" fill-opacity="1" d=" M30.957000732421875,-77.4540023803711 C30.927000045776367,-77.45899963378906 57.974998474121094,-73.11699676513672 69.44000244140625,-91.2699966430664 C69.44000244140625,-91.2699966430664 67.21800231933594,-80.3479995727539 53.41299819946289,-76.50299835205078 C41.40800094604492,-73.16000366210938 30.957000732421875,-77.4540023803711 30.957000732421875,-77.4540023803711z"></path><path stroke-linecap="round" stroke-linejoin="round" fill-opacity="0" stroke="rgb(163,65,0)" stroke-opacity="1" stroke-width="2" d=" M30.957000732421875,-77.4540023803711 C30.927000045776367,-77.45899963378906 57.974998474121094,-73.11699676513672 69.44000244140625,-91.2699966430664 C69.44000244140625,-91.2699966430664 67.21800231933594,-80.3479995727539 53.41299819946289,-76.50299835205078 C41.40800094604492,-73.16000366210938 30.957000732421875,-77.4540023803711 30.957000732421875,-77.4540023803711z"></path></g></g><g style="display: block;" transform="matrix(1,0,0,1,255.99998474121094,256)" opacity="1"><g opacity="1" transform="matrix(1,0,0,1,0,0)"><g opacity="1" transform="matrix(1,0,0,1,0,0)"><path fill="rgb(81,35,0)" fill-opacity="1" d=" M48.84199905395508,-34.16400146484375 C46.763999938964844,-34.676998138427734 45.159000396728516,-32.415000915527344 37.31399917602539,-30.724000930786133 C30.94099998474121,-29.350000381469727 30.131999969482422,-26.924999237060547 28.03700065612793,-26.257999420166016 C25.941999435424805,-25.591999053955078 23.966999053955078,-27.44099998474121 16.917999267578125,-23.95400047302246 C9.86400032043457,-20.464000701904297 3.5320000648498535,-20.69700050354004 2.2109999656677246,-18.937999725341797 C0.14300000667572021,-16.183000564575195 16.834999084472656,-7.598999977111816 31.371999740600586,-12.223999977111816 C45.73899841308594,-16.795000076293945 50.91999816894531,-33.6510009765625 48.84199905395508,-34.16400146484375z"></path></g><g opacity="1" transform="matrix(1,0,0,1,0,0)"><path fill="url(#__lottie_element_30)" fill-opacity="1" d=" M48.84199905395508,-34.16400146484375 C46.763999938964844,-34.676998138427734 45.32400131225586,-32.53900146484375 37.31399917602539,-30.724000930786133 C30.954999923706055,-29.283000946044922 30.131999969482422,-26.924999237060547 28.03700065612793,-26.257999420166016 C25.941999435424805,-25.591999053955078 23.791000366210938,-27.273000717163086 16.917999267578125,-23.95400047302246 C9.197999954223633,-20.226999282836914 3.4690001010894775,-20.75 2.2109999656677246,-18.937999725341797 C0.2529999911785126,-16.115999221801758 16.834999084472656,-7.598999977111816 31.371999740600586,-12.223999977111816 C45.73899841308594,-16.795000076293945 50.91999816894531,-33.6510009765625 48.84199905395508,-34.16400146484375z"></path></g></g><g opacity="1" transform="matrix(1,0,0,1,0,0)"><path fill="url(#__lottie_element_31)" fill-opacity="1" d=" M9.86400032043457,-17.325000762939453 C9.895999908447266,-16.288999557495117 23.10099983215332,-16.22100067138672 29.715999603271484,-18.32200050354004 C41.933998107910156,-22.202999114990234 44.53300094604492,-28.268999099731445 44.06999969482422,-28.631999969482422 C43.57099914550781,-29.023000717163086 38.86399841308594,-24.66699981689453 29.190000534057617,-21.73200035095215 C18.135000228881836,-18.378000259399414 9.842000007629395,-18.03700065612793 9.86400032043457,-17.325000762939453z"></path></g></g><g style="display: block;" transform="matrix(1,0,0,1,255.99998474121094,256)" opacity="1"><g opacity="1" transform="matrix(1,0,0,1,0,0)"><path fill="rgb(255,205,0)" fill-opacity="1" d=" M-58.95399856567383,-145.29299926757812 C-58.95399856567383,-145.29299926757812 -42.827999114990234,-117.18000030517578 -83.1449966430664,-63.233001708984375 C-106.10399627685547,-32.512001037597656 -111.427001953125,-11.647000312805176 -107.56999969482422,23.23900032043457 C-107.56999969482422,23.23900032043457 -127.88600158691406,-48.83599853515625 -105.35600280761719,-132.16400146484375 C-95.0719985961914,-170.1999969482422 -76.98600006103516,-175.93899536132812 -68.36100006103516,-176.6280059814453 C-68.36100006103516,-176.6280059814453 -48.36800003051758,-210.33799743652344 16.052000045776367,-201.98199462890625 C66.05699920654297,-195.49600219726562 128.968994140625,-147.5050048828125 112.9000015258789,-18.121999740600586 C112.9000015258789,-18.121999740600586 126.61000061035156,-94.0989990234375 67.90599822998047,-111.88400268554688 C62.12099838256836,-113.63700103759766 -18.766000747680664,-93.74600219726562 -58.95399856567383,-145.29299926757812z"></path></g><g opacity="1" transform="matrix(1,0,0,1,0,0)"><path fill="url(#__lottie_element_23)" fill-opacity="1" d=" M-58.95399856567383,-145.29299926757812 C-58.95399856567383,-145.29299926757812 -42.827999114990234,-117.18000030517578 -83.1449966430664,-63.233001708984375 C-106.10399627685547,-32.512001037597656 -111.427001953125,-11.647000312805176 -107.56999969482422,23.23900032043457 C-107.56999969482422,23.23900032043457 -127.88600158691406,-48.83599853515625 -105.35600280761719,-132.16400146484375 C-95.0719985961914,-170.1999969482422 -76.98600006103516,-175.93899536132812 -68.36100006103516,-176.6280059814453 C-68.36100006103516,-176.6280059814453 -48.36800003051758,-210.33799743652344 16.052000045776367,-201.98199462890625 C66.05699920654297,-195.49600219726562 128.968994140625,-147.5050048828125 112.9000015258789,-18.121999740600586 C112.9000015258789,-18.121999740600586 126.61000061035156,-94.0989990234375 67.90599822998047,-111.88400268554688 C62.12099838256836,-113.63700103759766 -18.766000747680664,-93.74600219726562 -58.95399856567383,-145.29299926757812z"></path></g><g opacity="1" transform="matrix(1,0,0,1,0,0)"><path fill="url(#__lottie_element_24)" fill-opacity="1" d=" M102.27300262451172,-103.9260025024414 C89.67500305175781,-108.96499633789062 76.74600219726562,-108.52300262451172 76.74600219726562,-108.52300262451172 C73.1760025024414,-110.4229965209961 72.2249984741211,-110.5790023803711 67.90499877929688,-111.88899993896484 C62.125,-113.63899993896484 -18.704999923706055,-93.76899719238281 -58.915000915527344,-145.22900390625 C-58.10499954223633,-143.70899963378906 -43.94499969482422,-115.67900085449219 -83.1449966430664,-63.229000091552734 C-91.24500274658203,-52.39899826049805 -97.1449966430664,-42.16899871826172 -101.2249984741211,-31.93899917602539 C-90.98500061035156,-72.06900024414062 -69.65499877929688,-91.75900268554688 -66.2249984741211,-119.16899871826172 C-62.79499816894531,-146.60899353027344 -70.85600280761719,-165.77200317382812 -74.26499938964844,-165.07899475097656 C-92.44599914550781,-161.38099670410156 -109.65499877929688,-113.16899871826172 -110.04499816894531,-111.91899871826172 C-108.75499725341797,-118.5989990234375 -107.19499969482422,-125.36900329589844 -105.3550033569336,-132.16900634765625 C-95.07499694824219,-170.19900512695312 -76.98500061035156,-175.93899536132812 -68.36499786376953,-176.62899780273438 C-68.36499786376953,-176.62899780273438 -48.3650016784668,-210.33900451660156 16.05500030517578,-201.97900390625 C39.474998474121094,-198.93899536132812 65.7249984741211,-186.36900329589844 85.36499786376953,-160.5489959716797 C9.121999740600586,-226.8979949951172 -61.30799865722656,-180.4149932861328 -59.125,-170.35899353027344 C-52.775001525878906,-141.11300659179688 -26.198999404907227,-129.4250030517578 -3.255000114440918,-122.47899627685547 C9.369999885559082,-118.65699768066406 32.236000061035156,-116.29199981689453 61.625,-118.86900329589844 C88.03700256347656,-121.18499755859375 107.16300201416016,-101.97000122070312 102.27300262451172,-103.9260025024414z"></path></g><g opacity="1" transform="matrix(1,0,0,1,0,0)"><path stroke-linecap="round" stroke-linejoin="round" fill-opacity="0" stroke="rgb(197,92,0)" stroke-opacity="1" stroke-width="8" d=" M-58.95399856567383,-145.29299926757812 C-58.95399856567383,-145.29299926757812 -42.827999114990234,-117.18000030517578 -83.1449966430664,-63.233001708984375 C-106.10399627685547,-32.512001037597656 -111.427001953125,-11.647000312805176 -107.56999969482422,23.23900032043457 C-107.56999969482422,23.23900032043457 -127.88600158691406,-48.83599853515625 -105.35600280761719,-132.16400146484375 C-95.0719985961914,-170.1999969482422 -76.98600006103516,-175.93899536132812 -68.36100006103516,-176.6280059814453 C-68.36100006103516,-176.6280059814453 -48.36800003051758,-210.33799743652344 16.052000045776367,-201.98199462890625 C66.05699920654297,-195.49600219726562 128.968994140625,-147.5050048828125 112.9000015258789,-18.121999740600586 C112.9000015258789,-18.121999740600586 126.61000061035156,-94.0989990234375 67.90599822998047,-111.88400268554688 C62.12099838256836,-113.63700103759766 -18.766000747680664,-93.74600219726562 -58.95399856567383,-145.29299926757812z"></path></g><g opacity="1" transform="matrix(1,0,0,1,0,0)"><path stroke-linecap="round" stroke-linejoin="round" fill-opacity="0" stroke="rgb(163,65,0)" stroke-opacity="1" stroke-width="8" d=" M112.9000015258789,-18.121999740600586 C112.9000015258789,-18.121999740600586 126.61000061035156,-94.0989990234375 67.90599822998047,-111.88400268554688 C62.12099838256836,-113.63700103759766 -18.766000747680664,-93.74600219726562 -58.95399856567383,-145.29299926757812 C-58.95399856567383,-145.29299926757812 -42.827999114990234,-117.18000030517578 -83.1449966430664,-63.233001708984375 C-106.10399627685547,-32.512001037597656 -111.427001953125,-11.647000312805176 -107.56999969482422,23.23900032043457"></path></g><g opacity="1" transform="matrix(1,0,0,1,0,0)"><path fill="url(#__lottie_element_25)" fill-opacity="0.9" d=" M-59.125,-170.35899353027344 C-57.457000732421875,-163.19400024414062 -52.27399826049805,-143.47900390625 -20.374000549316406,-128.8780059814453 C8.541999816894531,-115.64299774169922 95.3499984741211,-129.63900756835938 74.82599639892578,-159.08900451660156 C54.301998138427734,-188.53900146484375 23.39900016784668,-195.51800537109375 -7.686999797821045,-195.1580047607422 C-38.77299880981445,-194.79800415039062 -60.43199920654297,-175.97500610351562 -59.125,-170.35899353027344z"></path></g><g opacity="1" transform="matrix(1,0,0,1,0,0)"><path fill="url(#__lottie_element_26)" fill-opacity="0.9" d=" M-73.26499938964844,-165.07899475097656 C-77.96700286865234,-165.79800415039062 -96.91100311279297,-148.01199340820312 -101.76699829101562,-123.86900329589844 C-106.62300109863281,-99.72599792480469 -65.5510025024414,-95.4229965209961 -65.55000305175781,-127.4520034790039 C-65.54900360107422,-153.68600463867188 -70.19999694824219,-164.61000061035156 -73.26499938964844,-165.07899475097656z"></path></g></g><g style="display: block;" transform="matrix(1,0,0,1,255.99998474121094,256)" opacity="1"><g opacity="1" transform="matrix(1,0,0,1,0,0)"><path fill="url(#__lottie_element_16)" fill-opacity="1" d=" M34.58100128173828,-40.97100067138672 C35.72600173950195,-36.1349983215332 31.232999801635742,-30.530000686645508 25.232999801635742,-29.108999252319336 C19.232999801635742,-27.687999725341797 12.70300006866455,-30.680999755859375 11.557999610900879,-35.516998291015625 C10.413000106811523,-40.35300064086914 14.87399959564209,-46.09199905395508 20.874000549316406,-47.51300048828125 C26.874000549316406,-48.933998107910156 33.43600082397461,-45.80699920654297 34.58100128173828,-40.97100067138672z"></path></g><g opacity="1" transform="matrix(1,0,0,1,0,0)"><g opacity="1" transform="matrix(1,0,0,1,0,0)"><path fill="rgb(255,168,0)" fill-opacity="0.8" d=" M33.97200012207031,-44.35100173950195 C35.069000244140625,-39.71799850463867 30.80500030517578,-34.742000579833984 24.447999954223633,-33.236000061035156 C18.090999603271484,-31.729999542236328 12.04699993133545,-34.26499938964844 10.949999809265137,-38.89799880981445 C9.852999687194824,-43.53099822998047 14.163999557495117,-48.308998107910156 20.520999908447266,-49.814998626708984 C26.878000259399414,-51.32099914550781 32.875,-48.98400115966797 33.97200012207031,-44.35100173950195z"></path></g><g opacity="1" transform="matrix(1,0,0,1,0,0)"><path fill="url(#__lottie_element_17)" fill-opacity="0.7000000000000001" d=" M33.97200012207031,-44.35100173950195 C35.069000244140625,-39.71799850463867 30.80500030517578,-34.742000579833984 24.447999954223633,-33.236000061035156 C18.090999603271484,-31.729999542236328 12.04699993133545,-34.26499938964844 10.949999809265137,-38.89799880981445 C9.852999687194824,-43.53099822998047 14.163999557495117,-48.308998107910156 20.520999908447266,-49.814998626708984 C26.878000259399414,-51.32099914550781 32.875,-48.98400115966797 33.97200012207031,-44.35100173950195z"></path></g><g opacity="1" transform="matrix(1,0,0,1,0,0)"><path fill="rgb(255,216,0)" fill-opacity="1" d=" M31.79199981689453,-46.63100051879883 C32.60900115966797,-43.18199920654297 28.812999725341797,-39.33000183105469 23.312999725341797,-38.027000427246094 C17.812999725341797,-36.7239990234375 12.692999839782715,-38.4640007019043 11.87600040435791,-41.91299819946289 C11.059000015258789,-45.36199951171875 14.98900032043457,-48.64799880981445 20.48900032043457,-49.95100021362305 C25.98900032043457,-51.25400161743164 30.975000381469727,-50.08000183105469 31.79199981689453,-46.63100051879883z"></path></g><g opacity="1" transform="matrix(1,0,0,1,0,0)"><path fill="url(#__lottie_element_18)" fill-opacity="1" d=" M31.79199981689453,-46.63100051879883 C32.60900115966797,-43.18199920654297 28.812999725341797,-39.33000183105469 23.312999725341797,-38.027000427246094 C17.812999725341797,-36.7239990234375 12.692999839782715,-38.4640007019043 11.87600040435791,-41.91299819946289 C11.059000015258789,-45.36199951171875 14.98900032043457,-48.64799880981445 20.48900032043457,-49.95100021362305 C25.98900032043457,-51.25400161743164 30.975000381469727,-50.08000183105469 31.79199981689453,-46.63100051879883z"></path></g><g opacity="1" transform="matrix(1,0,0,1,0,0)"><path fill="url(#__lottie_element_19)" fill-opacity="0.7000000000000001" d=" M26.371000289916992,-47.992000579833984 C26.808000564575195,-46.14500045776367 24.922000885009766,-43.86399841308594 22.089000701904297,-43.19300079345703 C19.2549991607666,-42.52199935913086 16.547000885009766,-43.7140007019043 16.110000610351562,-45.56100082397461 C15.67300033569336,-47.40800094604492 17.75,-48.87900161743164 20.583999633789062,-49.54999923706055 C23.41699981689453,-50.22100067138672 25.93400001525879,-49.8390007019043 26.371000289916992,-47.992000579833984z"></path></g></g></g><g style="display: block;" transform="matrix(1,0,0,1,272,258.75)" opacity="1"><g opacity="1" transform="matrix(1,0,0,1,0,0)"><path fill="url(#__lottie_element_6)" fill-opacity="1" d=" M82.89099884033203,48.98099899291992 C82.89099884033203,48.98099899291992 80.58999633789062,45.19499969482422 68.39700317382812,46.14500045776367 C56.20399856567383,47.095001220703125 31.336999893188477,68.1780014038086 34.81999969482422,106.63700103759766 C37.9370002746582,141.0500030517578 60.17499923706055,157.6479949951172 72.13500213623047,159.7239990234375 C82.13800048828125,161.4600067138672 99.46600341796875,157.23800659179688 96.39700317382812,154.81500244140625 C93.3280029296875,152.39199829101562 82.89099884033203,48.98099899291992 82.89099884033203,48.98099899291992z"></path></g><g opacity="1" transform="matrix(1,0,0,1,0,0)"><path fill="rgb(255,255,255)" fill-opacity="0.2" d=" M94.4540023803711,157.25100708007812 C90.26399993896484,131.7310028076172 83.05400085449219,60.31100082397461 83.05400085449219,60.31100082397461 C83.05400085449219,60.31100082397461 80.75399780273438,56.520999908447266 68.56400299072266,57.47100067138672 C57.67399978637695,58.32099914550781 36.694000244140625,75.22100067138672 34.784000396728516,106.20099639892578 C31.52400016784668,68.02100372314453 56.25400161743164,47.090999603271484 68.39399719238281,46.14099884033203 C80.59400177001953,45.191001892089844 82.89399719238281,48.98099899291992 82.89399719238281,48.98099899291992 C82.89399719238281,48.98099899291992 93.3239974975586,152.39100646972656 96.39399719238281,154.81100463867188 C97.30400085449219,155.531005859375 96.41400146484375,156.41099548339844 94.4540023803711,157.25100708007812z"></path></g><g opacity="1" transform="matrix(1,0,0,1,0,0)"><path stroke-linecap="round" stroke-linejoin="round" fill-opacity="0" stroke="rgb(73,106,78)" stroke-opacity="1" stroke-width="8" d=" M82.89099884033203,48.98099899291992 C82.89099884033203,48.98099899291992 80.58999633789062,45.19499969482422 68.39700317382812,46.14500045776367 C56.20399856567383,47.095001220703125 31.336999893188477,68.1780014038086 34.81999969482422,106.63700103759766 C37.9370002746582,141.0500030517578 60.17499923706055,157.6479949951172 72.13500213623047,159.7239990234375 C82.13800048828125,161.4600067138672 99.46600341796875,157.23800659179688 96.39700317382812,154.81500244140625 C93.3280029296875,152.39199829101562 82.89099884033203,48.98099899291992 82.89099884033203,48.98099899291992z"></path></g><g opacity="1" transform="matrix(1,0,0,1,0,0)"><path stroke-linecap="round" stroke-linejoin="round" fill-opacity="0" stroke="rgb(46,68,49)" stroke-opacity="1" stroke-width="8" d=" M34.81999969482422,106.63700103759766 C37.9370002746582,141.0500030517578 60.17499923706055,157.6479949951172 72.13500213623047,159.7239990234375 C82.13800048828125,161.4600067138672 99.46600341796875,157.23800659179688 96.39700317382812,154.81500244140625"></path></g><g opacity="1" transform="matrix(0.9656800031661987,0,0,1.3441200256347656,3.4148406982421875,-23.444366455078125)"><path fill="url(#__lottie_element_7)" fill-opacity="1" d=" M96.39700317382812,133.4810028076172 C108.0770034790039,131.3260040283203 145.62600708007812,121.8479995727539 140.38800048828125,87.49299621582031 C135.97999572753906,58.582000732421875 98.60700225830078,49.80500030517578 82.89099884033203,53.05500030517578 C72.20600128173828,55.26499938964844 53.0620002746582,69.10099792480469 57.551998138427734,98.61100006103516 C59.1510009765625,109.12200164794922 65.48699951171875,120.51300048828125 78.65699768066406,128.26199340820312 C88.8290023803711,134.2469940185547 96.39700317382812,133.4810028076172 96.39700317382812,133.4810028076172z"></path></g><g opacity="1" transform="matrix(1,0,0,1,0,0)"><path fill="rgb(255,255,255)" fill-opacity="0.2" d=" M135.82400512695312,125.9209976196289 C136.78399658203125,120.45099639892578 136.98399353027344,114.29100036621094 136.1840057373047,107.37100219726562 C131.7740020751953,69.33100128173828 94.40399932861328,57.78099822998047 78.68399810791016,62.05099868774414 C72.67400360107422,63.680999755859375 64.00399780273438,70.1510009765625 58.354000091552734,82.38099670410156 C62.58399963378906,61.54100036621094 75.02400207519531,51.12099838256836 82.89399719238281,48.98099899291992 C98.60399627685547,44.70100021362305 135.98399353027344,56.250999450683594 140.38400268554688,94.3010025024414 C141.9040069580078,107.41100311279297 139.82400512695312,117.76100158691406 135.82400512695312,125.9209976196289z"></path></g><g opacity="1" transform="matrix(1,0,0,1,0,0)"><path stroke-linecap="round" stroke-linejoin="round" fill-opacity="0" stroke="rgb(73,106,78)" stroke-opacity="1" stroke-width="8" d=" M96.39700317382812,154.81500244140625 C108.0770034790039,151.97900390625 145.62600708007812,139.50599670410156 140.38800048828125,94.2979965209961 C135.97999572753906,56.25299835205078 98.60700225830078,44.70399856567383 82.89099884033203,48.98099899291992 C72.20600128173828,51.888999938964844 53.0620002746582,70.09600067138672 57.551998138427734,108.92900085449219 C59.1510009765625,122.76100158691406 65.48699951171875,137.74899291992188 78.65699768066406,147.94700622558594 C88.8290023803711,155.822998046875 96.39700317382812,154.81500244140625 96.39700317382812,154.81500244140625z"></path></g><g opacity="1" transform="matrix(1,0,0,1,0,0)"><path stroke-linecap="round" stroke-linejoin="round" fill-opacity="0" stroke="rgb(46,68,49)" stroke-opacity="1" stroke-width="8" d=" M57.551998138427734,108.92900085449219 C59.1510009765625,122.76100158691406 65.48699951171875,137.74899291992188 78.65699768066406,147.94700622558594 C88.8290023803711,155.822998046875 96.39700317382812,154.81500244140625 96.39700317382812,154.81500244140625 C108.0770034790039,151.97900390625 145.62600708007812,139.50599670410156 140.38800048828125,94.2979965209961"></path></g></g></g></svg>