<svg xmlns="http://www.w3.org/2000/svg" xmlns:xlink="http://www.w3.org/1999/xlink" viewBox="0 0 512 512" width="512" height="512" style="width: 100%; height: 100%; transform: translate3d(0,0,0); content-visibility: visible;" preserveAspectRatio="xMidYMid meet"><defs><clipPath id="__lottie_element_2"><rect width="512" height="512" x="0" y="0"></rect></clipPath><linearGradient id="__lottie_element_6" spreadMethod="pad" gradientUnits="userSpaceOnUse" x1="16.761999130249023" y1="-173.61199951171875" x2="8.614999771118164" y2="-106.02200317382812"><stop offset="11%" stop-color="rgb(255,169,0)" stop-opacity="0"></stop><stop offset="47%" stop-color="rgb(255,169,0)" stop-opacity="0.5"></stop><stop offset="100%" stop-color="rgb(255,169,0)" stop-opacity="1"></stop></linearGradient><linearGradient id="__lottie_element_7" spreadMethod="pad" gradientUnits="userSpaceOnUse" x1="0.7620000243186951" y1="-93.11199951171875" x2="2.7809998989105225" y2="-205.9810028076172"><stop offset="7%" stop-color="rgb(218,110,0)" stop-opacity="0.30000001192092896"></stop><stop offset="26%" stop-color="rgb(218,110,0)" stop-opacity="0.6499999761581421"></stop><stop offset="45%" stop-color="rgb(218,110,0)" stop-opacity="1"></stop><stop offset="58%" stop-color="rgb(218,110,0)" stop-opacity="0.5"></stop><stop offset="80%" stop-color="rgb(218,110,0)" stop-opacity="0"></stop></linearGradient><linearGradient id="__lottie_element_8" spreadMethod="pad" gradientUnits="userSpaceOnUse" x1="-58.237998962402344" y1="-182.11199951171875" x2="-49.99599838256836" y2="-162.89700317382812"><stop offset="0%" stop-color="rgb(255,255,255)" stop-opacity="1"></stop><stop offset="50%" stop-color="rgb(255,255,255)" stop-opacity="0.5"></stop><stop offset="100%" stop-color="rgb(255,255,255)" stop-opacity="0"></stop></linearGradient><linearGradient id="__lottie_element_9" spreadMethod="pad" gradientUnits="userSpaceOnUse" x1="30.511999130249023" y1="-198.36199951171875" x2="20.493999481201172" y2="-157.08599853515625"><stop offset="0%" stop-color="rgb(255,255,255)" stop-opacity="1"></stop><stop offset="50%" stop-color="rgb(255,255,255)" stop-opacity="0.5"></stop><stop offset="100%" stop-color="rgb(255,255,255)" stop-opacity="0"></stop></linearGradient><radialGradient id="__lottie_element_13" spreadMethod="pad" gradientUnits="userSpaceOnUse" cx="7.88700008392334" cy="-50.48699951171875" r="23.1100421061018" fx="7.88700008392334" fy="-50.48699951171875"><stop offset="8%" stop-color="rgb(117,55,14)" stop-opacity="1"></stop><stop offset="57%" stop-color="rgb(117,55,14)" stop-opacity="0.5"></stop><stop offset="100%" stop-color="rgb(117,55,14)" stop-opacity="0"></stop></radialGradient><linearGradient id="__lottie_element_20" spreadMethod="pad" gradientUnits="userSpaceOnUse" x1="10.574999809265137" y1="-68.36199951171875" x2="10.01200008392334" y2="-55.87200164794922"><stop offset="0%" stop-color="rgb(255,168,0)" stop-opacity="1"></stop><stop offset="66%" stop-color="rgb(255,168,0)" stop-opacity="0.5"></stop><stop offset="100%" stop-color="rgb(255,168,0)" stop-opacity="0"></stop></linearGradient><linearGradient id="__lottie_element_21" spreadMethod="pad" gradientUnits="userSpaceOnUse" x1="9.949999809265137" y1="-61.17399978637695" x2="10.51200008392334" y2="-72.80699920654297"><stop offset="12%" stop-color="rgb(219,110,0)" stop-opacity="1"></stop><stop offset="51%" stop-color="rgb(219,110,0)" stop-opacity="0.5"></stop><stop offset="80%" stop-color="rgb(219,110,0)" stop-opacity="0"></stop></linearGradient><radialGradient id="__lottie_element_22" spreadMethod="pad" gradientUnits="userSpaceOnUse" cx="10.63700008392334" cy="-76.04900360107422" r="10.417000770568848" fx="10.63700008392334" fy="-76.04900360107422"><stop offset="36%" stop-color="rgb(255,168,0)" stop-opacity="0"></stop><stop offset="74%" stop-color="rgb(255,168,0)" stop-opacity="0.5"></stop><stop offset="100%" stop-color="rgb(255,168,0)" stop-opacity="1"></stop></radialGradient><linearGradient id="__lottie_element_23" spreadMethod="pad" gradientUnits="userSpaceOnUse" x1="10.76200008392334" y1="-76.08100128173828" x2="10.605999946594238" y2="-71.35800170898438"><stop offset="0%" stop-color="rgb(255,255,255)" stop-opacity="1"></stop><stop offset="50%" stop-color="rgb(255,255,255)" stop-opacity="0.5"></stop><stop offset="100%" stop-color="rgb(255,255,255)" stop-opacity="0"></stop></linearGradient><linearGradient id="__lottie_element_27" spreadMethod="pad" gradientUnits="userSpaceOnUse" x1="-50.233001708984375" y1="-78.197998046875" x2="-38.39899826049805" y2="-63.57899856567383"><stop offset="0%" stop-color="rgb(66,0,0)"></stop><stop offset="37%" stop-color="rgb(118,40,0)"></stop><stop offset="100%" stop-color="rgb(170,80,0)"></stop></linearGradient><radialGradient id="__lottie_element_28" spreadMethod="pad" gradientUnits="userSpaceOnUse" cx="-40.233001708984375" cy="-66.697998046875" r="6.976001739501953" fx="-40.233001708984375" fy="-66.697998046875"><stop offset="0%" stop-color="rgb(246,175,0)" stop-opacity="1"></stop><stop offset="50%" stop-color="rgb(246,175,0)" stop-opacity="0.5"></stop><stop offset="100%" stop-color="rgb(246,175,0)" stop-opacity="0"></stop></radialGradient><linearGradient id="__lottie_element_29" spreadMethod="pad" gradientUnits="userSpaceOnUse" x1="-51.45199966430664" y1="-81.13500213623047" x2="-49.82699966430664" y2="-76.1760025024414"><stop offset="0%" stop-color="rgb(255,255,255)" stop-opacity="1"></stop><stop offset="60%" stop-color="rgb(255,255,255)" stop-opacity="0.5"></stop><stop offset="100%" stop-color="rgb(255,255,255)" stop-opacity="0"></stop></linearGradient><linearGradient id="__lottie_element_30" spreadMethod="pad" gradientUnits="userSpaceOnUse" x1="-50.233001708984375" y1="-78.197998046875" x2="-38.39899826049805" y2="-63.57899856567383"><stop offset="0%" stop-color="rgb(66,0,0)"></stop><stop offset="37%" stop-color="rgb(118,40,0)"></stop><stop offset="100%" stop-color="rgb(170,80,0)"></stop></linearGradient><radialGradient id="__lottie_element_31" spreadMethod="pad" gradientUnits="userSpaceOnUse" cx="-40.233001708984375" cy="-66.697998046875" r="6.976001739501953" fx="-40.233001708984375" fy="-66.697998046875"><stop offset="0%" stop-color="rgb(246,175,0)" stop-opacity="1"></stop><stop offset="50%" stop-color="rgb(246,175,0)" stop-opacity="0.5"></stop><stop offset="100%" stop-color="rgb(246,175,0)" stop-opacity="0"></stop></radialGradient><linearGradient id="__lottie_element_32" spreadMethod="pad" gradientUnits="userSpaceOnUse" x1="-51.45199966430664" y1="-81.13500213623047" x2="-49.82699966430664" y2="-76.1760025024414"><stop offset="0%" stop-color="rgb(255,255,255)" stop-opacity="1"></stop><stop offset="60%" stop-color="rgb(255,255,255)" stop-opacity="0.5"></stop><stop offset="100%" stop-color="rgb(255,255,255)" stop-opacity="0"></stop></linearGradient><linearGradient id="__lottie_element_36" spreadMethod="pad" gradientUnits="userSpaceOnUse" x1="6.76200008392334" y1="-173.11199951171875" x2="6.76200008392334" y2="-111.73500061035156"><stop offset="0%" stop-color="rgb(219,110,0)" stop-opacity="1"></stop><stop offset="38%" stop-color="rgb(219,110,0)" stop-opacity="0.5"></stop><stop offset="71%" stop-color="rgb(219,110,0)" stop-opacity="0"></stop></linearGradient><linearGradient id="__lottie_element_37" spreadMethod="pad" gradientUnits="userSpaceOnUse" x1="5.76200008392334" y1="-154.11199951171875" x2="5.76200008392334" y2="-41.21900177001953"><stop offset="6%" stop-color="rgb(255,216,0)" stop-opacity="0"></stop><stop offset="15%" stop-color="rgb(255,216,0)" stop-opacity="0.5"></stop><stop offset="50%" stop-color="rgb(255,216,0)" stop-opacity="1"></stop><stop offset="88%" stop-color="rgb(255,216,0)" stop-opacity="0.5"></stop><stop offset="100%" stop-color="rgb(255,216,0)" stop-opacity="0"></stop></linearGradient><linearGradient id="__lottie_element_41" spreadMethod="pad" gradientUnits="userSpaceOnUse" x1="82.11799621582031" y1="84.88800048828125" x2="121.97000122070312" y2="115.79299926757812"><stop offset="24%" stop-color="rgb(219,110,0)" stop-opacity="0"></stop><stop offset="57%" stop-color="rgb(219,110,0)" stop-opacity="0.5"></stop><stop offset="88%" stop-color="rgb(219,110,0)" stop-opacity="1"></stop></linearGradient><radialGradient id="__lottie_element_45" spreadMethod="pad" gradientUnits="userSpaceOnUse" cx="26.618000030517578" cy="69.88800048828125" r="260.23574416988515" fx="26.618000030517578" fy="69.88800048828125"><stop offset="29%" stop-color="rgb(147,18,149)"></stop><stop offset="49%" stop-color="rgb(107,9,110)"></stop><stop offset="65%" stop-color="rgb(66,0,72)"></stop></radialGradient><radialGradient id="__lottie_element_46" spreadMethod="pad" gradientUnits="userSpaceOnUse" cx="-69.38200378417969" cy="122.63800048828125" r="72.68809636044477" fx="-69.38200378417969" fy="122.63800048828125"><stop offset="0%" stop-color="rgb(66,0,72)" stop-opacity="0.4000000059604645"></stop><stop offset="39%" stop-color="rgb(66,0,72)" stop-opacity="0.20000000298023224"></stop><stop offset="87%" stop-color="rgb(66,0,72)" stop-opacity="0"></stop></radialGradient><radialGradient id="__lottie_element_47" spreadMethod="pad" gradientUnits="userSpaceOnUse" cx="9.755999565124512" cy="-17.19300079345703" r="84.26251140364818" fx="9.755999565124512" fy="-17.19300079345703"><stop offset="49%" stop-color="rgb(66,0,72)" stop-opacity="0.4000000059604645"></stop><stop offset="71%" stop-color="rgb(66,0,72)" stop-opacity="0.20000000298023224"></stop><stop offset="90%" stop-color="rgb(66,0,72)" stop-opacity="0"></stop></radialGradient><radialGradient id="__lottie_element_48" spreadMethod="pad" gradientUnits="userSpaceOnUse" cx="40.0890007019043" cy="139.8249969482422" r="52.871411937041934" fx="40.0890007019043" fy="139.8249969482422"><stop offset="27%" stop-color="rgb(255,255,255)" stop-opacity="1"></stop><stop offset="76%" stop-color="rgb(255,255,255)" stop-opacity="0.5"></stop><stop offset="100%" stop-color="rgb(255,255,255)" stop-opacity="0"></stop></radialGradient><radialGradient id="__lottie_element_49" spreadMethod="pad" gradientUnits="userSpaceOnUse" cx="-55.63199996948242" cy="73.88800048828125" r="46.57910748919417" fx="-55.63199996948242" fy="73.88800048828125"><stop offset="0%" stop-color="rgb(66,0,72)" stop-opacity="0.6000000238418579"></stop><stop offset="49%" stop-color="rgb(66,0,72)" stop-opacity="0.30000001192092896"></stop><stop offset="97%" stop-color="rgb(66,0,72)" stop-opacity="0"></stop></radialGradient><linearGradient id="__lottie_element_50" spreadMethod="pad" gradientUnits="userSpaceOnUse" x1="-49.88199996948242" y1="-36.61199951171875" x2="-76.31300354003906" y2="199.66000366210938"><stop offset="0%" stop-color="rgb(66,0,72)"></stop><stop offset="13%" stop-color="rgb(107,9,110)"></stop><stop offset="26%" stop-color="rgb(147,18,149)"></stop><stop offset="67%" stop-color="rgb(107,9,110)"></stop><stop offset="100%" stop-color="rgb(66,0,72)"></stop></linearGradient><radialGradient id="__lottie_element_51" spreadMethod="pad" gradientUnits="userSpaceOnUse" cx="-8.631999969482422" cy="32.63800048828125" r="41.05826255790743" fx="-8.631999969482422" fy="32.63800048828125"><stop offset="18%" stop-color="rgb(255,255,255)" stop-opacity="1"></stop><stop offset="64%" stop-color="rgb(255,255,255)" stop-opacity="0.5"></stop><stop offset="100%" stop-color="rgb(255,255,255)" stop-opacity="0"></stop></radialGradient><linearGradient id="__lottie_element_52" spreadMethod="pad" gradientUnits="userSpaceOnUse" x1="68.11799621582031" y1="87.88800048828125" x2="118.89800262451172" y2="182.07000732421875"><stop offset="18%" stop-color="rgb(255,255,255)" stop-opacity="1"></stop><stop offset="67%" stop-color="rgb(255,255,255)" stop-opacity="0.5"></stop><stop offset="100%" stop-color="rgb(255,255,255)" stop-opacity="0"></stop></linearGradient><linearGradient id="__lottie_element_53" spreadMethod="pad" gradientUnits="userSpaceOnUse" x1="42.11800003051758" y1="-24.11199951171875" x2="87.03399658203125" y2="59.194000244140625"><stop offset="18%" stop-color="rgb(255,255,255)" stop-opacity="1"></stop><stop offset="67%" stop-color="rgb(255,255,255)" stop-opacity="0.5"></stop><stop offset="100%" stop-color="rgb(255,255,255)" stop-opacity="0"></stop></linearGradient><radialGradient id="__lottie_element_54" spreadMethod="pad" gradientUnits="userSpaceOnUse" cx="-61.13199996948242" cy="152.51300048828125" r="15.908947215898865" fx="-61.13199996948242" fy="152.51300048828125"><stop offset="19%" stop-color="rgb(147,18,149)" stop-opacity="1"></stop><stop offset="76%" stop-color="rgb(147,18,149)" stop-opacity="0.5"></stop><stop offset="100%" stop-color="rgb(147,18,149)" stop-opacity="0"></stop></radialGradient><radialGradient id="__lottie_element_55" spreadMethod="pad" gradientUnits="userSpaceOnUse" cx="-83.18199920654297" cy="35.66999816894531" r="19.181621473475193" fx="-83.18199920654297" fy="35.66999816894531"><stop offset="19%" stop-color="rgb(147,18,149)" stop-opacity="1"></stop><stop offset="76%" stop-color="rgb(147,18,149)" stop-opacity="0.5"></stop><stop offset="100%" stop-color="rgb(147,18,149)" stop-opacity="0"></stop></radialGradient><linearGradient id="__lottie_element_56" spreadMethod="pad" gradientUnits="userSpaceOnUse" x1="-10.881999969482422" y1="171.88800048828125" x2="-71.12300109863281" y2="130.26699829101562"><stop offset="18%" stop-color="rgb(255,255,255)" stop-opacity="1"></stop><stop offset="67%" stop-color="rgb(255,255,255)" stop-opacity="0.5"></stop><stop offset="100%" stop-color="rgb(255,255,255)" stop-opacity="0"></stop></linearGradient><linearGradient id="__lottie_element_57" spreadMethod="pad" gradientUnits="userSpaceOnUse" x1="-60.88199996948242" y1="-27.11199951171875" x2="-120.93699645996094" y2="170.3769989013672"><stop offset="18%" stop-color="rgb(255,255,255)" stop-opacity="1"></stop><stop offset="67%" stop-color="rgb(255,255,255)" stop-opacity="0.5"></stop><stop offset="100%" stop-color="rgb(255,255,255)" stop-opacity="0"></stop></linearGradient><linearGradient id="__lottie_element_58" spreadMethod="pad" gradientUnits="userSpaceOnUse" x1="16.118000030517578" y1="221.88800048828125" x2="39.0989990234375" y2="185.0399932861328"><stop offset="17%" stop-color="rgb(219,110,0)" stop-opacity="1"></stop><stop offset="36%" stop-color="rgb(219,110,0)" stop-opacity="0.5"></stop><stop offset="58%" stop-color="rgb(219,110,0)" stop-opacity="0"></stop></linearGradient><radialGradient id="__lottie_element_59" spreadMethod="pad" gradientUnits="userSpaceOnUse" cx="75.11799621582031" cy="91.88800048828125" r="36.501948732211126" fx="75.11799621582031" fy="91.88800048828125"><stop offset="0%" stop-color="rgb(66,0,72)" stop-opacity="0.6000000238418579"></stop><stop offset="53%" stop-color="rgb(66,0,72)" stop-opacity="0.30000001192092896"></stop><stop offset="100%" stop-color="rgb(66,0,72)" stop-opacity="0"></stop></radialGradient><linearGradient id="__lottie_element_60" spreadMethod="pad" gradientUnits="userSpaceOnUse" x1="56.762001037597656" y1="89.88800048828125" x2="11.1850004196167" y2="25.121000289916992"><stop offset="0%" stop-color="rgb(66,0,72)" stop-opacity="0.6000000238418579"></stop><stop offset="30%" stop-color="rgb(66,0,72)" stop-opacity="0.30000001192092896"></stop><stop offset="80%" stop-color="rgb(66,0,72)" stop-opacity="0"></stop></linearGradient><radialGradient id="__lottie_element_64" spreadMethod="pad" gradientUnits="userSpaceOnUse" cx="-24.381999969482422" cy="7.138000011444092" r="49.27363493465399" fx="-24.381999969482422" fy="7.138000011444092"><stop offset="19%" stop-color="rgb(255,168,0)" stop-opacity="1"></stop><stop offset="61%" stop-color="rgb(255,168,0)" stop-opacity="0.5"></stop><stop offset="100%" stop-color="rgb(255,168,0)" stop-opacity="0"></stop></radialGradient><radialGradient id="__lottie_element_68" spreadMethod="pad" gradientUnits="userSpaceOnUse" cx="-75.23799896240234" cy="-39.11199951171875" r="50.77758159578122" fx="-75.23799896240234" fy="-39.11199951171875"><stop offset="0%" stop-color="rgb(255,169,0)" stop-opacity="1"></stop><stop offset="50%" stop-color="rgb(255,169,0)" stop-opacity="0.5"></stop><stop offset="100%" stop-color="rgb(255,169,0)" stop-opacity="0"></stop></radialGradient><radialGradient id="__lottie_element_69" spreadMethod="pad" gradientUnits="userSpaceOnUse" cx="83.76200103759766" cy="-29.11199951171875" r="55.51668447288127" fx="83.76200103759766" fy="-29.11199951171875"><stop offset="0%" stop-color="rgb(255,169,0)" stop-opacity="1"></stop><stop offset="50%" stop-color="rgb(255,169,0)" stop-opacity="0.5"></stop><stop offset="100%" stop-color="rgb(255,169,0)" stop-opacity="0"></stop></radialGradient></defs><g clip-path="url(#__lottie_element_2)"><g style="display: block;" transform="matrix(1,0,0,1,256,256)" opacity="1"><g opacity="1" transform="matrix(1,0,0,1,0,0)"><path fill="rgb(159,84,2)" fill-opacity="1" d=" M78.12799835205078,-153.29100036621094 C58.547000885009766,-189.77000427246094 12.065999984741211,-192.36399841308594 12.065999984741211,-192.36399841308594 C12.065999984741211,-192.36399841308594 -34.277000427246094,-196.781005859375 -59.1150016784668,-163.65699768066406 C-83.9530029296875,-130.5330047607422 -99.92500305175781,-65.91400146484375 -96.66699981689453,-41.54199981689453 C-93.74800109863281,-19.70599937438965 -30.27400016784668,-16.492000579833984 -1.3819999694824219,-14.3100004196167 C27.510000228881836,-12.128000259399414 100.19499969482422,-9.770000457763672 100.69200134277344,-26.635000228881836 C101.93099975585938,-68.72100067138672 97.70800018310547,-116.81199645996094 78.12799835205078,-153.29100036621094z"></path></g><g opacity="1" transform="matrix(1,0,0,1,0,0)"><path fill="url(#__lottie_element_68)" fill-opacity="1" d=" M-38.38600158691406,-17.26099967956543 C-46.5890007019043,-18.80500030517578 -53.53300094604492,-21.055999755859375 -59.26300048828125,-22.14699935913086 C-92.74600219726562,-28.520000457763672 -95.46399688720703,-35.09199905395508 -97.13899993896484,-47.01599884033203 C-97.8949966430664,-52.422000885009766 -97.99099731445312,-59.18199920654297 -97.48200225830078,-66.947998046875 C-94.2509994506836,-81.60700225830078 -84.16999816894531,-117.25499725341797 -64.86100006103516,-106.55999755859375 C-50.57600021362305,-98.65799713134766 -52.439998626708984,-85.38500213623047 -31.099000930786133,-58.060001373291016 C-12.36299991607666,-34.071998596191406 -21.163000106811523,-16.121999740600586 -38.38600158691406,-17.26099967956543z"></path></g><g opacity="1" transform="matrix(1,0,0,1,0,0)"><path fill="url(#__lottie_element_69)" fill-opacity="1" d=" M38.99300003051758,-11.416999816894531 C47.33399963378906,-11.711000442504883 54.53799819946289,-12.894000053405762 60.367000579833984,-13.112000465393066 C94.427001953125,-14.383000373840332 98.10199737548828,-20.47100067138672 101.54900360107422,-32.00899887084961 C103.10800170898438,-37.2400016784668 102.76799774169922,-44.01900100708008 103.43099975585938,-51.77299880981445 C102.43800354003906,-66.7509994506836 99.27799987792969,-103.39800262451172 78.58100128173828,-95.7249984741211 C63.27199935913086,-90.05799865722656 63.12099838256836,-76.65599822998047 37.91699981689453,-52.84700012207031 C15.791000366210938,-31.945999145507812 21.795000076293945,-12.878000259399414 38.99300003051758,-11.416999816894531z"></path></g><g opacity="1" transform="matrix(1,0,0,1,0,0)"><path stroke-linecap="round" stroke-linejoin="round" fill-opacity="0" stroke="rgb(163,65,0)" stroke-opacity="1" stroke-width="8" d=" M78.12799835205078,-153.29100036621094 C58.547000885009766,-189.77000427246094 -32.79499816894531,-195.61599731445312 -59.1150016784668,-163.65699768066406 C-88.83300018310547,-127.5719985961914 -100.09200286865234,-65.89099884033203 -96.66699981689453,-41.54199981689453 C-95.51100158691406,-33.32600021362305 -85.76899719238281,-29.035999298095703 -70.56099700927734,-24.40399932861328 C-42.21699905395508,-15.770999908447266 42.994998931884766,-9.335000038146973 72.30799865722656,-13.61299991607666 C86.53199768066406,-15.689000129699707 99.68399810791016,-18.39900016784668 100.69200134277344,-26.635000228881836 C105.80500030517578,-68.427001953125 97.70800018310547,-116.81199645996094 78.12799835205078,-153.29100036621094z"></path></g></g><g style="display: block;" transform="matrix(1,0,0,1,256,256)" opacity="1"><g opacity="1" transform="matrix(1,0,0,1,0,0)"><path fill="rgb(181,102,6)" fill-opacity="1" d=" M31.402000427246094,-44.12900161743164 C31.402000427246094,-44.12900161743164 -0.11999999731779099,-43.66299819946289 -0.11999999731779099,-43.66299819946289 C-0.11999999731779099,-43.66299819946289 -31.21500015258789,-48.85900115966797 -31.21500015258789,-48.85900115966797 C-31.21500015258789,-48.85900115966797 -35.13399887084961,-7.234000205993652 -35.13399887084961,-7.234000205993652 C-35.13399887084961,-7.234000205993652 -21.65999984741211,0.14100000262260437 -3.5320000648498535,1.5099999904632568 C14.595999717712402,2.878999948501587 29.024999618530273,-2.388000011444092 29.024999618530273,-2.388000011444092 C29.024999618530273,-2.388000011444092 31.402000427246094,-44.12900161743164 31.402000427246094,-44.12900161743164z"></path></g><g opacity="1" transform="matrix(1,0,0,1,0,0)"><path fill="url(#__lottie_element_64)" fill-opacity="1" d=" M31.402000427246094,-44.12900161743164 C31.402000427246094,-44.12900161743164 -0.11999999731779099,-43.66299819946289 -0.11999999731779099,-43.66299819946289 C-0.11999999731779099,-43.66299819946289 -31.21500015258789,-48.85900115966797 -31.21500015258789,-48.85900115966797 C-31.21500015258789,-48.85900115966797 -35.13399887084961,-7.234000205993652 -35.13399887084961,-7.234000205993652 C-35.13399887084961,-7.234000205993652 -21.65999984741211,0.14100000262260437 -3.5320000648498535,1.5099999904632568 C14.595999717712402,2.878999948501587 29.024999618530273,-2.388000011444092 29.024999618530273,-2.388000011444092 C29.024999618530273,-2.388000011444092 31.402000427246094,-44.12900161743164 31.402000427246094,-44.12900161743164z"></path></g><g opacity="1" transform="matrix(1,0,0,1,0,0)"><path stroke-linecap="round" stroke-linejoin="round" fill-opacity="0" stroke="rgb(153,71,4)" stroke-opacity="1" stroke-width="8" d=" M-31.21500015258789,-48.85900115966797 C-31.21500015258789,-48.85900115966797 -34.92300033569336,-10.024999618530273 -34.92300033569336,-10.024999618530273"></path></g></g><g style="display: block;" transform="matrix(1,0,0,1,256,256)" opacity="1"><g opacity="1" transform="matrix(1,0,0,1.1335999965667725,0,-12.024002075195312)"><path fill="url(#__lottie_element_45)" fill-opacity="1" d=" M-50.823001861572266,27.979999542236328 C-50.823001861572266,27.979999542236328 -60.25699996948242,56.849998474121094 -63.94200134277344,90.68000030517578 C-67.62699890136719,124.51000213623047 -61.39099884033203,155.47500610351562 -61.39099884033203,155.47500610351562 C-61.39099884033203,155.47500610351562 -53.856998443603516,194.53700256347656 -3,206.46299743652344 C55.689998626708984,220.2259979248047 92.35900115966797,197.53799438476562 92.35900115966797,197.53799438476562 C112.20700073242188,183.74899291992188 125.85900115966797,155.6699981689453 120.75299835205078,128.58799743652344 C114.52899932861328,95.57599639892578 78.6989974975586,75.39900207519531 78.6989974975586,75.39900207519531 C78.6989974975586,75.39900207519531 90.74500274658203,70.81900024414062 90.74500274658203,56.1619987487793 C90.74500274658203,36.31399917602539 71.04000091552734,23.948999404907227 71.04000091552734,23.948999404907227 C71.04000091552734,23.948999404907227 72.30799865722656,8.87600040435791 63.38600158691406,-1.2330000400543213 C53.77899932861328,-12.116999626159668 30.16200065612793,-12.25100040435791 30.16200065612793,-12.25100040435791 C30.16200065612793,-12.25100040435791 34.38999938964844,5.834000110626221 12.902000427246094,6.636000156402588 C-10.442999839782715,7.507999897003174 -36.255001068115234,-17.44499969482422 -36.255001068115234,-17.44499969482422 C-36.255001068115234,-17.44499969482422 -59.05400085449219,-21.590999603271484 -77.26000213623047,-4.7820000648498535 C-77.26000213623047,-4.7820000648498535 -50.823001861572266,27.979999542236328 -50.823001861572266,27.979999542236328z"></path></g><g opacity="1" transform="matrix(1,0,0,1,0,0)"><path fill="url(#__lottie_element_46)" fill-opacity="1" d=" M-50.823001861572266,18.15399932861328 C-50.823001861572266,18.15399932861328 -60.25699996948242,50.90800094604492 -63.94200134277344,89.28700256347656 C-67.62699890136719,127.66600036621094 -61.39099884033203,162.7949981689453 -61.39099884033203,162.7949981689453 C-61.39099884033203,162.7949981689453 -53.856998443603516,207.11099243164062 -3,220.64100646972656 C55.689998626708984,236.2550048828125 92.35900115966797,210.51600646972656 92.35900115966797,210.51600646972656 C112.20700073242188,194.8719940185547 125.85900115966797,163.01600646972656 120.75299835205078,132.29200744628906 C114.52899932861328,94.83999633789062 78.6989974975586,71.95099639892578 78.6989974975586,71.95099639892578 C78.6989974975586,71.95099639892578 80.6969985961914,69.21900177001953 80.6969985961914,52.590999603271484 C80.6969985961914,30.073999404907227 71.04000091552734,13.581999778747559 71.04000091552734,13.581999778747559 C71.04000091552734,13.581999778747559 72.30799865722656,-3.5190000534057617 63.38600158691406,-14.987000465393066 C53.77899932861328,-27.334999084472656 30.16200065612793,-27.486000061035156 30.16200065612793,-27.486000061035156 C30.16200065612793,-27.486000061035156 34.38999938964844,-6.96999979019165 12.902000427246094,-6.059999942779541 C-10.442999839782715,-5.071000099182129 -36.255001068115234,-33.37900161743164 -36.255001068115234,-33.37900161743164 C-36.255001068115234,-33.37900161743164 -59.05400085449219,-38.082000732421875 -77.26000213623047,-19.01300048828125 C-77.26000213623047,-19.01300048828125 -50.823001861572266,18.15399932861328 -50.823001861572266,18.15399932861328z"></path></g><g opacity="1" transform="matrix(0.683768093585968,-0.32152366638183594,0.42552658915519714,0.9049459099769592,18.913000106811523,-5.2206315994262695)"><path fill="url(#__lottie_element_47)" fill-opacity="1" d=" M-101.31300354003906,-2.996999979019165 C-101.31300354003906,-2.996999979019165 -153.35499572753906,37.47600173950195 -168.49600219726562,76.77999877929688 C-182.3560028076172,112.75900268554688 -186.57200622558594,149.3419952392578 -186.57200622558594,149.3419952392578 C-186.57200622558594,149.3419952392578 -164.02200317382812,227.34300231933594 -28.375,223.22799682617188 C13.619000434875488,221.95399475097656 33.053001403808594,189.70599365234375 33.053001403808594,189.70599365234375 C52.9010009765625,174.06199645996094 56.40800094604492,145.15499877929688 46.064998626708984,124.61399841308594 C32.61399841308594,97.9000015258789 40.347999572753906,80.31199645996094 40.347999572753906,80.31199645996094 C40.347999572753906,80.31199645996094 53.202999114990234,61.957000732421875 53.202999114990234,45.32899856567383 C53.202999114990234,22.812000274658203 61.654998779296875,16.325000762939453 61.654998779296875,16.325000762939453 C61.654998779296875,16.325000762939453 61.020999908447266,8.967000007629395 52.0989990234375,-2.500999927520752 C42.492000579833984,-14.848999977111816 26.534000396728516,-15.628000259399414 26.534000396728516,-15.628000259399414 C26.534000396728516,-15.628000259399414 22.275999069213867,-1.6039999723434448 0.7879999876022339,-0.6940000057220459 C-22.55699920654297,0.29499998688697815 -39.09000015258789,-34.11000061035156 -39.09000015258789,-34.11000061035156 C-39.09000015258789,-34.11000061035156 -77.13999938964844,-38.983001708984375 -95.34600067138672,-19.913999557495117 C-95.34600067138672,-19.913999557495117 -101.31300354003906,-2.996999979019165 -101.31300354003906,-2.996999979019165z"></path></g><g opacity="1" transform="matrix(1.1686344146728516,-0.23158660531044006,0.19438843429088593,0.9809246063232422,-30.568370819091797,8.268119812011719)"><path fill="url(#__lottie_element_48)" fill-opacity="0.15" d=" M101.54199981689453,117.58899688720703 C110.48999786376953,153.01400756835938 83.6969985961914,190.33099365234375 41.696998596191406,200.94000244140625 C-0.30300000309944153,211.5489959716797 -41.604000091552734,191.4320068359375 -50.551998138427734,156.0070037841797 C-59.5,120.58200073242188 -32.707000732421875,83.26499938964844 9.293000221252441,72.65599822998047 C51.292999267578125,62.047000885009766 92.59400177001953,82.16400146484375 101.54199981689453,117.58899688720703z"></path></g><g opacity="1" transform="matrix(1,0,0,1.4671299457550049,0,-33.166229248046875)"><path fill="url(#__lottie_element_49)" fill-opacity="1" d=" M-43.09700012207031,23.003000259399414 C-26.69300079345703,16.131000518798828 2.2230000495910645,34.632999420166016 2.119999885559082,64.60600280761719 C2.0169999599456787,94.5790023803711 -18.58799934387207,118.25 -38.4370002746582,118.21800231933594 C-58.2859992980957,118.18599700927734 -70.18000030517578,87.23500061035156 -58.21099853515625,67.63500213623047 C-41.32699966430664,39.986000061035156 -60.034000396728516,30.097999572753906 -43.09700012207031,23.003000259399414z"></path></g><g opacity="1" transform="matrix(1,0,0,1,0,0)"><path stroke-linecap="round" stroke-linejoin="round" fill-opacity="0" stroke="rgb(44,0,48)" stroke-opacity="1" stroke-width="8" d=" M-62.858001708984375,71.95099639892578 C-62.858001708984375,71.95099639892578 -68.30899810791016,129.7310028076172 -58.42599868774414,169.78399658203125"></path></g><g opacity="1" transform="matrix(1,0,0,1,0,0)"><path fill="url(#__lottie_element_50)" fill-opacity="1" d=" M-50.823001861572266,18.15399932861328 C-48.65399932861328,42.54100036621094 -60.32699966430664,65.99500274658203 -68.68399810791016,85.29299926757812 C-76.15899658203125,102.55400085449219 -81.7509994506836,116.09300231933594 -81.7509994506836,116.09300231933594 C-55.04499816894531,139.17799377441406 -11.138999938964844,168.14700317382812 -11.138999938964844,168.14700317382812 C-27.43400001525879,174.93699645996094 -25.17099952697754,197.56900024414062 -25.17099952697754,197.56900024414062 C-67.71900177001953,174.93699645996094 -116.1520004272461,154.11500549316406 -121.552001953125,143.70399475097656 C-126.9520034790039,133.29299926757812 -126.56300354003906,112.47200012207031 -121.552001953125,87.81400299072266 C-107.2699966430664,17.52899932861328 -85.41999816894531,-10.465999603271484 -77.26000213623047,-19.01300048828125"></path></g><g opacity="1" transform="matrix(1,0,0,1,0,0)"><path fill="url(#__lottie_element_51)" fill-opacity="0.15" d=" M-69.58300018310547,4.394000053405762 C-58.29600143432617,-18.309999465942383 -22.979999542236328,-23.707000732421875 9.29800033569336,-7.660999774932861 C41.57600021362305,8.385000228881836 58.59199905395508,39.79899978637695 47.30500030517578,62.50299835205078 C36.018001556396484,85.20700073242188 0.7020000219345093,90.6050033569336 -31.576000213623047,74.55899810791016 C-63.854000091552734,58.51300048828125 -80.87000274658203,27.097999572753906 -69.58300018310547,4.394000053405762z"></path></g><g opacity="1" transform="matrix(1,0,0,1,0,0)"><path fill="url(#__lottie_element_52)" fill-opacity="0.15" d=" M101.51200103759766,201.6479949951172 C101.51200103759766,201.6479949951172 96.54199981689453,201.6479949951172 96.54199981689453,201.6479949951172 C134.83099365234375,138.61000061035156 96.66000366210938,98.56500244140625 78.0459976196289,84.01599884033203 C74,80.85299682617188 74.3280029296875,74.63899993896484 78.7020034790039,71.947998046875 C78.7020034790039,71.947998046875 78.7020034790039,71.947998046875 78.7020034790039,71.947998046875 C78.7020034790039,71.947998046875 114.53199768066406,94.83799743652344 120.75199890136719,132.28799438476562 C125.03199768066406,158.00799560546875 116.16200256347656,184.50799560546875 101.51200103759766,201.6479949951172z"></path></g><g opacity="1" transform="matrix(1,0,0,1,0,0)"><path fill="url(#__lottie_element_53)" fill-opacity="0.15" d=" M90.74199676513672,50.12799835205078 C90.74199676513672,66.75800323486328 78.7020034790039,71.947998046875 78.7020034790039,71.947998046875 C90.78500366210938,46.9900016784668 71.66699981689453,26.44099998474121 63.69200134277344,19.371000289916992 C61.755001068115234,17.65399932861328 60.61899948120117,15.204000473022461 60.625999450683594,12.614999771118164 C60.63999938964844,7.122000217437744 60.020999908447266,-2.5390000343322754 55.922000885009766,-8.112000465393066 C49.08399963378906,-17.408000946044922 29.86199951171875,-18.091999053955078 29.86199951171875,-18.091999053955078 C31.091999053955078,-22.972000122070312 30.16200065612793,-27.48200035095215 30.16200065612793,-27.48200035095215 C30.16200065612793,-27.48200035095215 53.78200149536133,-27.332000732421875 63.38199996948242,-14.991999626159668 C72.31199645996094,-3.5220000743865967 71.04199981689453,13.57800006866455 71.04199981689453,13.57800006866455 C71.04199981689453,13.57800006866455 90.74199676513672,27.607999801635742 90.74199676513672,50.12799835205078z"></path></g><g opacity="1" transform="matrix(2.8924777507781982,1.8086142539978027,-0.6278442144393921,1.0040977001190186,209.026123046875,107.41348266601562)"><path fill="url(#__lottie_element_54)" fill-opacity="1" d=" M-41.38600158691406,163.76800537109375 C-46.48400115966797,172.5989990234375 -47.42100143432617,175.02000427246094 -73.58899688720703,165.24000549316406 C-76.10099792480469,164.30099487304688 -81.90799713134766,151.00900268554688 -76.80999755859375,142.17799377441406 C-71.71199798583984,133.3470001220703 -67.7959976196289,130.9340057373047 -56.305999755859375,137.37899780273438 C-42.29499816894531,145.23800659179688 -36.28799819946289,154.93699645996094 -41.38600158691406,163.76800537109375z"></path></g><g opacity="1" transform="matrix(1.0481173992156982,0.382291704416275,-1.088372826576233,2.9839584827423096,49.11437225341797,-45.74005126953125)"><path fill="url(#__lottie_element_55)" fill-opacity="1" d=" M-81.39700317382812,16.014999389648438 C-72.1760025024414,15.420999526977539 -62.709999084472656,23.21500015258789 -61.00899887084961,31.437000274658203 C-57.05699920654297,50.54199981689453 -64.30599975585938,57.62300109863281 -73.5270004272461,58.21699905395508 C-82.74800109863281,58.81100082397461 -105.14700317382812,53.555999755859375 -104.49800109863281,34.05799865722656 C-104.03500366210938,20.158000946044922 -90.61699676513672,16.608999252319336 -81.39700317382812,16.014999389648438z"></path></g><g opacity="1" transform="matrix(1,0,0,1,0,0)"><path fill="url(#__lottie_element_56)" fill-opacity="0.15" d=" M-75.05400085449219,120.24199676513672 C-75.05400085449219,120.24199676513672 -59.270999908447266,145.32400512695312 -19.38599967956543,174.4739990234375 C-19.38599967956543,174.4739990234375 -11.138999938964844,168.14700317382812 -11.138999938964844,168.14700317382812 C-11.138999938964844,168.14700317382812 -75.05400085449219,120.24199676513672 -75.05400085449219,120.24199676513672z"></path></g><g opacity="1" transform="matrix(1,0,0,1,0,0)"><path fill="url(#__lottie_element_57)" fill-opacity="0.15" d=" M-28.777999877929688,-26.142000198364258 C-28.777999877929688,-26.142000198364258 -32.77799987792969,-26.27199935913086 -38.448001861572266,-25.631999969482422 C-47.31800079345703,-24.621999740600586 -61.27799987792969,-20.722000122070312 -69.2979965209961,-12.472000122070312 C-70.15799713134766,-11.581999778747559 -71.06800079345703,-10.501999855041504 -72.01799774169922,-9.241999626159668 C-85.52799987792969,8.697999954223633 -101.68299865722656,32.74599838256836 -115.56800079345703,106.0780029296875 C-119.14199829101562,124.95600128173828 -120.947998046875,146.17799377441406 -107.86799621582031,154.76800537109375 C-115.10800170898438,150.38800048828125 -120.02799987792969,146.6280059814453 -121.5479965209961,143.70799255371094 C-126.947998046875,133.29800415039062 -126.56800079345703,112.46800231933594 -121.5479965209961,87.81800079345703 C-107.26799774169922,17.527999877929688 -85.41799926757812,-10.461999893188477 -77.25800323486328,-19.011999130249023 C-59.05799865722656,-38.082000732421875 -36.257999420166016,-33.38199996948242 -36.257999420166016,-33.38199996948242 C-36.257999420166016,-33.38199996948242 -33.417999267578125,-30.27199935913086 -28.777999877929688,-26.142000198364258z"></path></g><g opacity="1" transform="matrix(1,0,0,1,0,0)"><g opacity="1" transform="matrix(1,0,0,1,0,0)"><path fill="rgb(255,216,0)" fill-opacity="1" d=" M1.88100004196167,180.96099853515625 C1.88100004196167,180.96099853515625 10.972999572753906,174.1820068359375 28.58099937438965,177.8419952392578 C36.61800003051758,179.51300048828125 49.20899963378906,177.23899841308594 51.263999938964844,180.96099853515625 C53.62300109863281,185.23399353027344 47.84600067138672,189.36300659179688 35.29999923706055,188.83999633789062 C33.26900100708008,188.7550048828125 31.106000900268555,192.60800170898438 37.20000076293945,194.79600524902344 C43.29399871826172,196.98399353027344 53.7760009765625,196.03199768066406 56.564998626708984,194.593994140625 C59.354000091552734,193.156005859375 64.95600128173828,187.00900268554688 69.05400085449219,189.6929931640625 C74.05400085449219,192.96800231933594 68.14099884033203,200.3459930419922 68.14099884033203,200.3459930419922 C68.14099884033203,200.3459930419922 68.2300033569336,211.0290069580078 56.02899932861328,214.0590057373047 C56.02899932861328,214.0590057373047 50.03499984741211,221.06300354003906 30.72800064086914,218.82699584960938 C8.645999908447266,216.27000427246094 -6.767000198364258,196.48199462890625 -6.767000198364258,196.48199462890625"></path></g><g opacity="1" transform="matrix(1,0,0,1,0,0)"><path fill="url(#__lottie_element_58)" fill-opacity="1" d=" M1.88100004196167,180.96099853515625 C1.88100004196167,180.96099853515625 10.972999572753906,174.1820068359375 28.58099937438965,177.8419952392578 C36.61800003051758,179.51300048828125 49.20899963378906,177.23899841308594 51.263999938964844,180.96099853515625 C53.62300109863281,185.23399353027344 47.84600067138672,189.36300659179688 35.29999923706055,188.83999633789062 C33.26900100708008,188.7550048828125 31.106000900268555,192.60800170898438 37.20000076293945,194.79600524902344 C43.29399871826172,196.98399353027344 53.7760009765625,196.03199768066406 56.564998626708984,194.593994140625 C59.354000091552734,193.156005859375 64.95600128173828,187.00900268554688 69.05400085449219,189.6929931640625 C74.05400085449219,192.96800231933594 68.14099884033203,200.3459930419922 68.14099884033203,200.3459930419922 C68.14099884033203,200.3459930419922 68.2300033569336,211.0290069580078 56.02899932861328,214.0590057373047 C56.02899932861328,214.0590057373047 50.03499984741211,221.06300354003906 30.72800064086914,218.82699584960938 C8.645999908447266,216.27000427246094 -6.767000198364258,196.48199462890625 -6.767000198364258,196.48199462890625"></path></g><g opacity="1" transform="matrix(1,0,0,1,0,0)"><path stroke-linecap="round" stroke-linejoin="round" fill-opacity="0" stroke="rgb(218,110,0)" stroke-opacity="1" stroke-width="6" d=" M-1.8669999837875366,181.9980010986328 C-1.8669999837875366,181.9980010986328 10.972999572753906,174.1820068359375 28.58099937438965,177.8419952392578 C36.61800003051758,179.51300048828125 49.20899963378906,177.23899841308594 51.263999938964844,180.96099853515625 C53.62300109863281,185.23399353027344 47.84600067138672,189.36300659179688 35.29999923706055,188.83999633789062 C33.26900100708008,188.7550048828125 31.106000900268555,192.60800170898438 37.20000076293945,194.79600524902344 C43.29399871826172,196.98399353027344 53.7760009765625,196.03199768066406 56.564998626708984,194.593994140625 C59.354000091552734,193.156005859375 64.95600128173828,187.00900268554688 69.05400085449219,189.6929931640625 C74.05400085449219,192.96800231933594 68.14099884033203,200.3459930419922 68.14099884033203,200.3459930419922 C68.14099884033203,200.3459930419922 68.2300033569336,211.0290069580078 56.02899932861328,214.0590057373047 C56.02899932861328,214.0590057373047 50.03499984741211,221.06300354003906 30.72800064086914,218.82699584960938 C8.645999908447266,216.27000427246094 -6.767000198364258,196.48199462890625 -6.767000198364258,196.48199462890625"></path></g><g opacity="1" transform="matrix(1,0,0,1,0,0)"><path stroke-linecap="round" stroke-linejoin="round" fill-opacity="0" stroke="rgb(218,110,0)" stroke-opacity="0.5" stroke-width="4" d=" M70.27400207519531,194.21299743652344 C68.89700317382812,198.41400146484375 60.85499954223633,204.11700439453125 56.87099838256836,205.6009979248047 C52.32899856567383,207.29200744628906 41.70399856567383,206.51400756835938 41.70399856567383,206.51400756835938"></path></g><g opacity="1" transform="matrix(1,0,0,1,0,0)"><path stroke-linecap="round" stroke-linejoin="round" fill-opacity="0" stroke="rgb(218,110,0)" stroke-opacity="0.5" stroke-width="4" d=" M41.70399856567383,214.19700622558594 C41.70399856567383,214.19700622558594 51.60900115966797,215.24099731445312 59.7859992980957,211.78599548339844"></path></g><g opacity="1" transform="matrix(1,0,0,1,0,0)"><path fill="rgb(66,0,72)" fill-opacity="1" d=" M-14.279000282287598,169.8300018310547 C-14.279000282287598,169.8300018310547 -5.080999851226807,174.07200622558594 2.119999885559082,176.8719940185547 C2.119999885559082,176.8719940185547 -8.595999717712402,186.9669952392578 -6.51200008392334,204.10499572753906 C-6.51200008392334,204.10499572753906 -26.12700080871582,194.55799865722656 -26.12700080871582,194.55799865722656"></path><path stroke-linecap="round" stroke-linejoin="round" fill-opacity="0" stroke="rgb(44,0,48)" stroke-opacity="1" stroke-width="8" d=" M-14.279000282287598,169.8300018310547 C-14.279000282287598,169.8300018310547 -5.080999851226807,174.07200622558594 2.119999885559082,176.8719940185547 C2.119999885559082,176.8719940185547 -8.595999717712402,186.9669952392578 -6.51200008392334,204.10499572753906 C-6.51200008392334,204.10499572753906 -26.12700080871582,194.55799865722656 -26.12700080871582,194.55799865722656"></path></g></g><g opacity="1" transform="matrix(1,0,0,1,0,0)"><path stroke-linecap="round" stroke-linejoin="round" fill-opacity="0" stroke="rgb(82,1,86)" stroke-opacity="1" stroke-width="8" d=" M-50.823001861572266,18.15399932861328 C-48.65399932861328,42.54100036621094 -60.32699966430664,65.99500274658203 -68.68399810791016,85.29299926757812 C-76.15899658203125,102.55400085449219 -81.7509994506836,116.09300231933594 -81.7509994506836,116.09300231933594 C-55.04499816894531,139.17799377441406 -11.138999938964844,168.14700317382812 -11.138999938964844,168.14700317382812 C-27.43400001525879,174.93699645996094 -25.17099952697754,197.56900024414062 -25.17099952697754,197.56900024414062 C-67.71900177001953,174.93699645996094 -116.1520004272461,154.11500549316406 -121.552001953125,143.70399475097656 C-126.9520034790039,133.29299926757812 -126.56300354003906,112.47200012207031 -121.552001953125,87.81400299072266 C-107.2699966430664,17.52899932861328 -85.41999816894531,-10.465999603271484 -77.26000213623047,-19.01300048828125 C-59.05400085449219,-38.082000732421875 -36.255001068115234,-33.37900161743164 -36.255001068115234,-33.37900161743164 C-36.255001068115234,-33.37900161743164 -10.442999839782715,-5.071000099182129 12.902000427246094,-6.059999942779541 C34.38999938964844,-6.96999979019165 30.16200065612793,-27.486000061035156 30.16200065612793,-27.486000061035156 C30.16200065612793,-27.486000061035156 53.77899932861328,-27.334999084472656 63.38600158691406,-14.987000465393066 C69.79900360107422,-6.74399995803833 70.9469985961914,4.4079999923706055 71.08599853515625,10.029000282287598 C71.14199829101562,12.303000450134277 72.08200073242188,14.46500015258789 73.69200134277344,16.070999145507812 C79.06800079345703,21.43600082397461 90.74500274658203,34.84700012207031 90.74500274658203,50.12699890136719 C90.74500274658203,66.75499725341797 78.6989974975586,71.95099639892578 78.6989974975586,71.95099639892578 C78.6989974975586,71.95099639892578 114.52899932861328,94.83999633789062 120.75299835205078,132.29200744628906 C125.85900115966797,163.01600646972656 110.11799621582031,191.53199768066406 90.2699966430664,207.17599487304688"></path></g><g opacity="1" transform="matrix(1,0,0,1,0,0)"><path stroke-linecap="round" stroke-linejoin="round" fill-opacity="0" stroke="rgb(44,0,48)" stroke-opacity="1" stroke-width="8" d=" M-11.138999938964844,168.14700317382812 C-27.43400001525879,174.93699645996094 -25.17099952697754,197.56900024414062 -25.17099952697754,197.56900024414062 C-67.71900177001953,174.93699645996094 -116.1520004272461,154.11500549316406 -121.552001953125,143.70399475097656"></path></g><g opacity="1" transform="matrix(0.7560915350914001,-0.26139166951179504,0.38587942719459534,1.1161800622940063,-16.350479125976562,3.422088623046875)"><path fill="url(#__lottie_element_59)" fill-opacity="1" d=" M110.70899963378906,132.02499389648438 C109.95500183105469,148.53799438476562 74.62699890136719,141.6280059814453 48.97200012207031,123.95999908447266 C23.316999435424805,106.29199981689453 16.770999908447266,83.62200164794922 19.496000289916992,67.31800079345703 C27.31800079345703,20.527000427246094 86.88500213623047,30.125999450683594 93.08599853515625,44.808998107910156 C101.39700317382812,64.48899841308594 88.34300231933594,75.70500183105469 88.34300231933594,75.70500183105469 C113.99800109863281,93.37300109863281 111.13800048828125,122.62999725341797 110.70899963378906,132.02499389648438z"></path></g><g opacity="1" transform="matrix(1,0,0,1,0,0)"><path fill="url(#__lottie_element_60)" fill-opacity="1" d=" M80.6989974975586,73.95099639892578 C75.20600128173828,79.05999755859375 68.58200073242188,79.4219970703125 53.32099914550781,80.54100036621094 C27.31800079345703,82.4469985961914 23.986000061035156,93.77799987792969 -1.8669999837875366,93.50800323486328 C-36.45000076293945,93.14600372314453 -40.270999908447266,56.63600158691406 -31.908000946044922,53.21500015258789 C-23.545000076293945,49.79399871826172 -11.138999938964844,75.95099639892578 11.484999656677246,68.0739974975586 C27.871000289916992,62.36899948120117 28.863000869750977,58.49100112915039 50.027000427246094,58.49800109863281 C68.88500213623047,58.50400161743164 75.20500183105469,38.38199996948242 54.8390007019043,18.358999252319336 C44.51599884033203,8.210000038146973 55.76300048828125,-1.75 49.637001037597656,-12.930999755859375 C43.51100158691406,-24.11199951171875 30.16200065612793,-27.486000061035156 30.16200065612793,-27.486000061035156 C76.64800262451172,-29.591999053955078 71.09200286865234,18.135000228881836 68.04000091552734,13.581999778747559 C68.04000091552734,13.581999778747559 108.12799835205078,48.439998626708984 80.6989974975586,73.95099639892578z"></path></g><g opacity="1" transform="matrix(1,0,0,1,0,0)"><path stroke-linecap="round" stroke-linejoin="round" fill-opacity="0" stroke="rgb(44,0,48)" stroke-opacity="1" stroke-width="8" d=" M-36.255001068115234,-33.37900161743164 C-36.255001068115234,-33.37900161743164 -10.442999839782715,-5.071000099182129 12.902000427246094,-6.059999942779541 C34.38999938964844,-6.96999979019165 30.16200065612793,-27.486000061035156 30.16200065612793,-27.486000061035156"></path></g></g><g style="display: block;" transform="matrix(1,0,0,1,256,255.99998474121094)" opacity="1"><g opacity="1" transform="matrix(1,0,0,1,0,0)"><path fill="rgb(255,216,0)" fill-opacity="1" d=" M69.6969985961914,78.84400177001953 C67.38099670410156,79.1520004272461 65.86299896240234,80.28099822998047 65.41699981689453,78.6240005493164 C64.12999725341797,73.83599853515625 81.55000305175781,68.56400299072266 89.4739990234375,70.47100067138672 C96.68699645996094,72.20700073242188 108.0780029296875,84.79499816894531 109.95800018310547,91.88300323486328 C110.5989990234375,94.2979965209961 110.1500015258789,97.65599822998047 109.29100036621094,100.93199920654297 C108.15499877929688,105.26499938964844 106.52799987792969,109.02799987792969 103.5469970703125,108.6510009765625 C97.39700317382812,107.8740005493164 101.375,97.18699645996094 101.375,97.18699645996094 C101.375,97.18699645996094 92.4020004272461,115.16999816894531 87.39800262451172,111.2020034790039 C82.85299682617188,107.5979995727539 94.56900024414062,88.83499908447266 94.56900024414062,88.83499908447266 C81.01799774169922,95.88800048828125 76.1240005493164,101.84400177001953 70.9800033569336,98.49299621582031 C67.92900085449219,96.50499725341797 69.3740005493164,92.63600158691406 69.3740005493164,92.63600158691406 C69.3740005493164,92.63600158691406 66.41400146484375,93.24199676513672 64.49199676513672,91.86499786376953 C55.777000427246094,85.62200164794922 81.73600006103516,69.19000244140625 86.36399841308594,70.08499908447266"></path></g><g opacity="1" transform="matrix(1,0,0,1,0,0)"><path fill="url(#__lottie_element_41)" fill-opacity="1" d=" M69.6969985961914,78.84400177001953 C67.38099670410156,79.1520004272461 65.86299896240234,80.28099822998047 65.41699981689453,78.6240005493164 C64.12999725341797,73.83599853515625 81.55000305175781,68.56400299072266 89.4739990234375,70.47100067138672 C96.68699645996094,72.20700073242188 108.0780029296875,84.79499816894531 109.95800018310547,91.88300323486328 C110.5989990234375,94.2979965209961 110.1500015258789,97.65599822998047 109.29100036621094,100.93199920654297 C108.15499877929688,105.26499938964844 106.52799987792969,109.02799987792969 103.5469970703125,108.6510009765625 C97.39700317382812,107.8740005493164 101.375,97.18699645996094 101.375,97.18699645996094 C101.375,97.18699645996094 92.4020004272461,115.16999816894531 87.39800262451172,111.2020034790039 C82.85299682617188,107.5979995727539 94.56900024414062,88.83499908447266 94.56900024414062,88.83499908447266 C81.01799774169922,95.88800048828125 76.1240005493164,101.84400177001953 70.9800033569336,98.49299621582031 C67.92900085449219,96.50499725341797 69.3740005493164,92.63600158691406 69.3740005493164,92.63600158691406 C69.3740005493164,92.63600158691406 66.41400146484375,93.24199676513672 64.49199676513672,91.86499786376953 C55.777000427246094,85.62200164794922 81.73600006103516,69.19000244140625 86.36399841308594,70.08499908447266"></path></g><g opacity="1" transform="matrix(1,0,0,1,0,0)"><path stroke-linecap="round" stroke-linejoin="round" fill-opacity="0" stroke="rgb(218,110,0)" stroke-opacity="1" stroke-width="6" d=" M69.6969985961914,78.84400177001953 C67.38099670410156,79.1520004272461 65.86299896240234,80.28099822998047 65.41699981689453,78.6240005493164 C64.12999725341797,73.83599853515625 81.55000305175781,68.56400299072266 89.4739990234375,70.47100067138672 C96.68699645996094,72.20700073242188 108.0780029296875,84.79499816894531 109.95800018310547,91.88300323486328 C110.5989990234375,94.2979965209961 110.1500015258789,97.65599822998047 109.29100036621094,100.93199920654297 C108.15499877929688,105.26499938964844 106.52799987792969,109.02799987792969 103.5469970703125,108.6510009765625 C97.39700317382812,107.8740005493164 101.375,97.18699645996094 101.375,97.18699645996094 C101.375,97.18699645996094 92.4020004272461,115.16999816894531 87.39800262451172,111.2020034790039 C82.85299682617188,107.5979995727539 94.56900024414062,88.83499908447266 94.56900024414062,88.83499908447266 C81.01799774169922,95.88800048828125 76.1240005493164,101.84400177001953 70.9800033569336,98.49299621582031 C67.92900085449219,96.50499725341797 69.3740005493164,92.63600158691406 69.3740005493164,92.63600158691406 C69.3740005493164,92.63600158691406 66.41400146484375,93.24199676513672 64.49199676513672,91.86499786376953 C55.777000427246094,85.62200164794922 81.73600006103516,69.19000244140625 86.36399841308594,70.08499908447266"></path></g><g opacity="1" transform="matrix(1,0,0,1,0,0)"><path stroke-linecap="round" stroke-linejoin="round" fill-opacity="0" stroke="rgb(218,110,0)" stroke-opacity="0.5" stroke-width="4" d=" M69.3740005493164,92.63600158691406 C69.3740005493164,92.63600158691406 75.95999908447266,87.21099853515625 86.48899841308594,80.98500061035156"></path></g></g><g style="display: block;" transform="matrix(1,0,0,1,256,256)" opacity="1"><g opacity="1" transform="matrix(1,0,0,1,0,0)"><path fill="rgb(255,168,0)" fill-opacity="1" d=" M65.08999633789062,-161.55799865722656 C53.82099914550781,-179.99400329589844 38.020999908447266,-191.5290069580078 13.100000381469727,-193.41099548339844 C-11.821000099182129,-195.29299926757812 -29.174999237060547,-186.26199340820312 -43.084999084472656,-169.72799682617188 C-56.994998931884766,-153.19400024414062 -70.56700134277344,-113.21199798583984 -56.71900177001953,-77.6989974975586 C-42.87200164794922,-42.18600082397461 -15.92199993133545,-29.24799919128418 0.6060000061988831,-28 C17.134000778198242,-26.75200080871582 45.72100067138672,-35.494998931884766 64.74600219726562,-68.5250015258789 C83.77100372314453,-101.55500030517578 76.35900115966797,-143.1219940185547 65.08999633789062,-161.55799865722656z"></path></g><g opacity="1" transform="matrix(1,0,0,1,0,0)"><path fill="url(#__lottie_element_36)" fill-opacity="1" d=" M65.18199920654297,-161.55099487304688 C53.91299819946289,-179.98699951171875 38.11199951171875,-191.52200317382812 13.190999984741211,-193.4040069580078 C-11.729999542236328,-195.28599548339844 -29.083999633789062,-186.2550048828125 -42.99399948120117,-169.7209930419922 C-56.90399932861328,-153.18699645996094 -70.4749984741211,-113.20500183105469 -56.62699890136719,-77.69200134277344 C-42.779998779296875,-42.17900085449219 -15.829999923706055,-29.242000579833984 0.6980000138282776,-27.993999481201172 C17.22599983215332,-26.746000289916992 45.8120002746582,-35.487998962402344 64.83699798583984,-68.51799774169922 C83.86199951171875,-101.5479965209961 76.45099639892578,-143.11500549316406 65.18199920654297,-161.55099487304688z"></path></g><g opacity="1" transform="matrix(1,0,0,1,0,0)"><path stroke-linecap="round" stroke-linejoin="round" fill-opacity="0" stroke="rgb(219,110,0)" stroke-opacity="1" stroke-width="8" d=" M65.08999633789062,-161.55799865722656 C53.82099914550781,-179.99400329589844 38.020999908447266,-191.5290069580078 13.100000381469727,-193.41099548339844 C-11.821000099182129,-195.29299926757812 -29.174999237060547,-186.26199340820312 -43.084999084472656,-169.72799682617188 C-56.994998931884766,-153.19400024414062 -70.56700134277344,-113.21199798583984 -56.71900177001953,-77.6989974975586 C-42.87200164794922,-42.18600082397461 -12.92199993133545,-29.24799919128418 3.6059999465942383,-28 C20.134000778198242,-26.75200080871582 45.72100067138672,-35.494998931884766 64.74600219726562,-68.5250015258789 C83.77100372314453,-101.55500030517578 76.35900115966797,-143.1219940185547 65.08999633789062,-161.55799865722656z"></path></g><g opacity="1" transform="matrix(1,0,0,1,0,0)"><path fill="url(#__lottie_element_37)" fill-opacity="1" d=" M55.94300079345703,-112.7699966430664 C55.94300079345703,-112.7699966430664 32.305999755859375,-120.42900085449219 17.996000289916992,-128.77999877929688 C0.30399999022483826,-139.10499572753906 -13.276000022888184,-150.79299926757812 -20.76300048828125,-157.83999633789062 C-20.76300048828125,-157.83999633789062 -28.48699951171875,-139.54800415039062 -39.44499969482422,-129.5240020751953 C-56.736000061035156,-113.70700073242188 -56.875999450683594,-95.46199798583984 -45.17399978637695,-72.23899841308594 C-33.47200012207031,-49.01599884033203 -12.038999557495117,-39.731998443603516 1.4160000085830688,-38.715999603271484 C14.871000289916992,-37.70000076293945 37.45500183105469,-43.659000396728516 52.512001037597656,-64.86100006103516 C67.56900024414062,-86.06300354003906 65.33499908447266,-100.66300201416016 55.94300079345703,-112.7699966430664z"></path></g></g><g style="display: block;" transform="matrix(1,0,0,1,256,256)" opacity="1"><g opacity="1" transform="matrix(1,0,0,1,0,0)"><g opacity="1" transform="matrix(1,0,0,1,0,0)"><path fill="rgb(255,255,255)" fill-opacity="1" d=" M25.854000091552734,-94.46800231933594 C25.854000091552734,-94.46800231933594 29.256000518798828,-114.28700256347656 46.6870002746582,-114.81700134277344 C62.69599914550781,-115.30400085449219 66.5199966430664,-95.43299865722656 66.5199966430664,-95.43299865722656 C66.5199966430664,-95.43299865722656 61.28799819946289,-85.49600219726562 47.25199890136719,-85.47000122070312 C31.576000213623047,-85.44100189208984 25.854000091552734,-94.46800231933594 25.854000091552734,-94.46800231933594z"></path></g><g opacity="1" transform="matrix(1.0074399709701538,0,0,1.0074399709701538,92.34510803222656,-26.839317321777344)"><g opacity="1" transform="matrix(1,0,0,1,0,0)"><path fill="url(#__lottie_element_27)" fill-opacity="1" d=" M-34.00299835205078,-73.44000244140625 C-33.48400115966797,-66.55899810791016 -38.64099884033203,-60.56100082397461 -45.52199935913086,-60.04199981689453 C-52.40299987792969,-59.52299880981445 -58.4010009765625,-64.68099975585938 -58.91999816894531,-71.56199645996094 C-59.43899917602539,-78.44300079345703 -54.28200149536133,-84.44100189208984 -47.4010009765625,-84.95999908447266 C-40.52000045776367,-85.47899627685547 -34.52199935913086,-80.32099914550781 -34.00299835205078,-73.44000244140625z"></path></g><g opacity="1" transform="matrix(1,0,0,1,0,0)"><g opacity="1" transform="matrix(1,0,0,1,0,0)"><path fill="url(#__lottie_element_28)" fill-opacity="1" d=" M-42.422000885009766,-60.84700012207031 C-43.395999908447266,-60.77399826049805 -44.345001220703125,-61.334999084472656 -44.72100067138672,-62.29100036621094 C-45.18299865722656,-63.465999603271484 -44.604000091552734,-64.79199981689453 -43.42900085449219,-65.25399780273438 C-41.18199920654297,-66.13700103759766 -39.48500061035156,-68.06199645996094 -38.89099884033203,-70.40399932861328 C-38.58000183105469,-71.62799835205078 -37.334999084472656,-72.36699676513672 -36.11399841308594,-72.05699920654297 C-34.88999938964844,-71.74700164794922 -34.150001525878906,-70.50199890136719 -34.46099853515625,-69.27899932861328 C-35.41699981689453,-65.51399993896484 -38.14400100708008,-62.41999816894531 -41.757999420166016,-61 C-41.97600173950195,-60.91400146484375 -42.20000076293945,-60.86399841308594 -42.422000885009766,-60.84700012207031z"></path></g></g><g opacity="1" transform="matrix(1,0,0,1,0,0)"><path fill="rgb(24,19,9)" fill-opacity="1" d=" M-38.58700180053711,-73.09500122070312 C-38.25899887084961,-68.74600219726562 -41.51900100708008,-64.95500183105469 -45.86800003051758,-64.62699890136719 C-50.21699905395508,-64.29900360107422 -54.00699996948242,-67.55799865722656 -54.334999084472656,-71.90699768066406 C-54.66299819946289,-76.25599670410156 -51.40399932861328,-80.0469970703125 -47.05500030517578,-80.375 C-42.70600128173828,-80.7030029296875 -38.915000915527344,-77.44400024414062 -38.58700180053711,-73.09500122070312z"></path></g><g opacity="1" transform="matrix(1,0,0,1,0,0)"><path fill="url(#__lottie_element_29)" fill-opacity="1" d=" M-47.64400100708008,-79.23999786376953 C-47.51100158691406,-77.4739990234375 -48.75400161743164,-75.94100189208984 -50.41999816894531,-75.81500244140625 C-52.08599853515625,-75.68900299072266 -53.54499816894531,-77.01899719238281 -53.678001403808594,-78.78500366210938 C-53.81100082397461,-80.5510025024414 -52.56800079345703,-82.08399963378906 -50.902000427246094,-82.20999908447266 C-49.236000061035156,-82.33599853515625 -47.777000427246094,-81.00599670410156 -47.64400100708008,-79.23999786376953z"></path></g></g><g opacity="1" transform="matrix(1,0,0,1,0,0)"><path fill="rgb(163,65,0)" fill-opacity="1" d=" M25.854000091552734,-96.5479965209961 C25.854000091552734,-96.5479965209961 29.98699951171875,-114.36100006103516 47.33599853515625,-114.36100006103516 C54.608001708984375,-114.36100006103516 60.4640007019043,-110.88999938964844 63.402000427246094,-105.4520034790039 C66.3239974975586,-100.04399871826172 66.5199966430664,-95.43299865722656 66.5199966430664,-95.43299865722656 C66.5199966430664,-95.43299865722656 65.25199890136719,-112.31500244140625 47.58700180053711,-113.44999694824219 C29.631000518798828,-114.60399627685547 25.854000091552734,-96.5479965209961 25.854000091552734,-96.5479965209961z"></path><path stroke-linecap="round" stroke-linejoin="round" fill-opacity="0" stroke="rgb(163,65,0)" stroke-opacity="1" stroke-width="2" d=" M25.854000091552734,-96.5479965209961 C25.854000091552734,-96.5479965209961 29.98699951171875,-114.36100006103516 47.33599853515625,-114.36100006103516 C54.608001708984375,-114.36100006103516 60.4640007019043,-110.88999938964844 63.402000427246094,-105.4520034790039 C66.3239974975586,-100.04399871826172 66.5199966430664,-95.43299865722656 66.5199966430664,-95.43299865722656 C66.5199966430664,-95.43299865722656 65.25199890136719,-112.31500244140625 47.58700180053711,-113.44999694824219 C29.631000518798828,-114.60399627685547 25.854000091552734,-96.5479965209961 25.854000091552734,-96.5479965209961z"></path></g></g><g opacity="1" transform="matrix(1,0,0,1,0,0)"><g opacity="1" transform="matrix(1,0,0,1,0,0)"><path fill="rgb(255,255,255)" fill-opacity="1" d=" M-5.691999912261963,-96.52999877929688 C-5.691999912261963,-96.52999877929688 -5.875,-117.8550033569336 -24.187999725341797,-121.10199737548828 C-41.00600051879883,-124.08399963378906 -49.05099868774414,-103.71600341796875 -49.05099868774414,-103.71600341796875 C-49.05099868774414,-103.71600341796875 -44.388999938964844,-92.61000061035156 -29.676000595092773,-89.86299896240234 C-13.27400016784668,-86.80000305175781 -5.691999912261963,-96.52999877929688 -5.691999912261963,-96.52999877929688z"></path></g><g opacity="1" transform="matrix(1.0074399709701538,0,0,1.0074399709701538,21.220102310180664,-33.183319091796875)"><g opacity="1" transform="matrix(1,0,0,1,0,0)"><path fill="url(#__lottie_element_30)" fill-opacity="1" d=" M-34.00299835205078,-73.44000244140625 C-33.48400115966797,-66.55899810791016 -38.64099884033203,-60.56100082397461 -45.52199935913086,-60.04199981689453 C-52.40299987792969,-59.52299880981445 -58.4010009765625,-64.68099975585938 -58.91999816894531,-71.56199645996094 C-59.43899917602539,-78.44300079345703 -54.28200149536133,-84.44100189208984 -47.4010009765625,-84.95999908447266 C-40.52000045776367,-85.47899627685547 -34.52199935913086,-80.32099914550781 -34.00299835205078,-73.44000244140625z"></path></g><g opacity="1" transform="matrix(1,0,0,1,0,0)"><g opacity="1" transform="matrix(1,0,0,1,0,0)"><path fill="url(#__lottie_element_31)" fill-opacity="1" d=" M-42.422000885009766,-60.84700012207031 C-43.395999908447266,-60.77399826049805 -44.345001220703125,-61.334999084472656 -44.72100067138672,-62.29100036621094 C-45.18299865722656,-63.465999603271484 -44.604000091552734,-64.79199981689453 -43.42900085449219,-65.25399780273438 C-41.18199920654297,-66.13700103759766 -39.48500061035156,-68.06199645996094 -38.89099884033203,-70.40399932861328 C-38.58000183105469,-71.62799835205078 -37.334999084472656,-72.36699676513672 -36.11399841308594,-72.05699920654297 C-34.88999938964844,-71.74700164794922 -34.150001525878906,-70.50199890136719 -34.46099853515625,-69.27899932861328 C-35.41699981689453,-65.51399993896484 -38.14400100708008,-62.41999816894531 -41.757999420166016,-61 C-41.97600173950195,-60.91400146484375 -42.20000076293945,-60.86399841308594 -42.422000885009766,-60.84700012207031z"></path></g></g><g opacity="1" transform="matrix(1,0,0,1,0,0)"><path fill="rgb(24,19,9)" fill-opacity="1" d=" M-38.58700180053711,-73.09500122070312 C-38.25899887084961,-68.74600219726562 -41.51900100708008,-64.95500183105469 -45.86800003051758,-64.62699890136719 C-50.21699905395508,-64.29900360107422 -54.00699996948242,-67.55799865722656 -54.334999084472656,-71.90699768066406 C-54.66299819946289,-76.25599670410156 -51.40399932861328,-80.0469970703125 -47.05500030517578,-80.375 C-42.70600128173828,-80.7030029296875 -38.915000915527344,-77.44400024414062 -38.58700180053711,-73.09500122070312z"></path></g><g opacity="1" transform="matrix(1,0,0,1,0,0)"><path fill="url(#__lottie_element_32)" fill-opacity="1" d=" M-47.64400100708008,-79.23999786376953 C-47.51100158691406,-77.4739990234375 -48.75400161743164,-75.94100189208984 -50.41999816894531,-75.81500244140625 C-52.08599853515625,-75.68900299072266 -53.54499816894531,-77.01899719238281 -53.678001403808594,-78.78500366210938 C-53.81100082397461,-80.5510025024414 -52.56800079345703,-82.08399963378906 -50.902000427246094,-82.20999908447266 C-49.236000061035156,-82.33599853515625 -47.777000427246094,-81.00599670410156 -47.64400100708008,-79.23999786376953z"></path></g></g><g opacity="1" transform="matrix(1,0,0,1,0,0)"><path fill="rgb(163,65,0)" fill-opacity="1" d=" M-5.107999801635742,-100.13200378417969 C-5.107999801635742,-100.13200378417969 -6.697999954223633,-117.91999816894531 -24.187999725341797,-121.10199737548828 C-33.34299850463867,-122.76699829101562 -41.180999755859375,-118.8219985961914 -45.689998626708984,-112.83799743652344 C-48.891998291015625,-108.58699798583984 -49.05099868774414,-104.85099792480469 -49.05099868774414,-104.85099792480469 C-49.05099868774414,-104.85099792480469 -43.52399826049805,-121.08200073242188 -25.038000106811523,-120.03399658203125 C-6.65500020980835,-118.99199676513672 -5.107999801635742,-100.13200378417969 -5.107999801635742,-100.13200378417969z"></path><path stroke-linecap="round" stroke-linejoin="round" fill-opacity="0" stroke="rgb(163,65,0)" stroke-opacity="1" stroke-width="2" d=" M-5.107999801635742,-100.13200378417969 C-5.107999801635742,-100.13200378417969 -6.697999954223633,-117.91999816894531 -24.187999725341797,-121.10199737548828 C-33.34299850463867,-122.76699829101562 -41.180999755859375,-118.8219985961914 -45.689998626708984,-112.83799743652344 C-48.891998291015625,-108.58699798583984 -49.05099868774414,-104.85099792480469 -49.05099868774414,-104.85099792480469 C-49.05099868774414,-104.85099792480469 -43.52399826049805,-121.08200073242188 -25.038000106811523,-120.03399658203125 C-6.65500020980835,-118.99199676513672 -5.107999801635742,-100.13200378417969 -5.107999801635742,-100.13200378417969z"></path></g></g></g><g style="display: block;" transform="matrix(1,0,0,1,256,256)" opacity="1"><g opacity="1" transform="matrix(1,0,0,1,0,0)"><path fill="url(#__lottie_element_20)" fill-opacity="1" d=" M20.652999877929688,-64.75599670410156 C20.33099937438965,-60.49100112915039 15.184000015258789,-57.066001892089844 9.892000198364258,-57.465999603271484 C4.599999904632568,-57.86600112915039 0.027000000700354576,-62.025001525878906 0.3490000069141388,-66.29000091552734 C0.6710000038146973,-70.55500030517578 5.827000141143799,-74.09700012207031 11.119000434875488,-73.6969985961914 C16.410999298095703,-73.2969970703125 20.975000381469727,-69.02100372314453 20.652999877929688,-64.75599670410156z"></path></g><g opacity="1" transform="matrix(1,0,0,1,0,0)"><path fill="rgb(255,168,0)" fill-opacity="0.8" d=" M20.476999282836914,-68.76799774169922 C20.167999267578125,-64.68199920654297 15.373000144958496,-61.7130012512207 9.765999794006348,-62.137001037597656 C4.158999919891357,-62.56100082397461 -0.13600000739097595,-66.21600341796875 0.17299999296665192,-70.302001953125 C0.4819999933242798,-74.38800048828125 5.263000011444092,-77.18299865722656 10.869999885559082,-76.75900268554688 C16.476999282836914,-76.33499908447266 20.785999298095703,-72.85399627685547 20.476999282836914,-68.76799774169922z"></path></g><g opacity="1" transform="matrix(1,0,0,1,0,0)"><path fill="url(#__lottie_element_21)" fill-opacity="0.7000000000000001" d=" M20.476999282836914,-68.76799774169922 C20.167999267578125,-64.68199920654297 15.373000144958496,-61.7130012512207 9.765999794006348,-62.137001037597656 C4.158999919891357,-62.56100082397461 -0.13600000739097595,-66.21600341796875 0.17299999296665192,-70.302001953125 C0.4819999933242798,-74.38800048828125 5.263000011444092,-77.18299865722656 10.869999885559082,-76.75900268554688 C16.476999282836914,-76.33499908447266 20.785999298095703,-72.85399627685547 20.476999282836914,-68.76799774169922z"></path></g><g opacity="1" transform="matrix(1,0,0,1,0,0)"><path fill="rgb(255,216,0)" fill-opacity="1" d=" M19.283000946044922,-71.20600128173828 C19.05299949645996,-68.16400146484375 14.9350004196167,-65.99600219726562 10.085000038146973,-66.36199951171875 C5.235000133514404,-66.72799682617188 1.4889999628067017,-69.49099731445312 1.718999981880188,-72.53299713134766 C1.9490000009536743,-75.57499694824219 6.0289998054504395,-77.24400329589844 10.878999710083008,-76.87799835205078 C15.729000091552734,-76.51200103759766 19.51300048828125,-74.24800109863281 19.283000946044922,-71.20600128173828z"></path></g><g opacity="1" transform="matrix(1,0,0,1,0,0)"><path fill="url(#__lottie_element_22)" fill-opacity="1" d=" M19.283000946044922,-71.20600128173828 C19.05299949645996,-68.16400146484375 14.9350004196167,-65.99600219726562 10.085000038146973,-66.36199951171875 C5.235000133514404,-66.72799682617188 1.4889999628067017,-69.49099731445312 1.718999981880188,-72.53299713134766 C1.9490000009536743,-75.57499694824219 6.0289998054504395,-77.24400329589844 10.878999710083008,-76.87799835205078 C15.729000091552734,-76.51200103759766 19.51300048828125,-74.24800109863281 19.283000946044922,-71.20600128173828z"></path></g><g opacity="1" transform="matrix(1,0,0,1,0,0)"><path fill="url(#__lottie_element_23)" fill-opacity="0.7000000000000001" d=" M15.192999839782715,-73.73699951171875 C15.069999694824219,-72.10900115966797 12.928000450134277,-70.72899627685547 10.428999900817871,-70.91799926757812 C7.929999828338623,-71.10700225830078 6.019999980926514,-72.79299926757812 6.14300012588501,-74.4209976196289 C6.265999794006348,-76.05000305175781 8.354000091552734,-76.71299743652344 10.852999687194824,-76.52400207519531 C13.35200023651123,-76.33499908447266 15.315999984741211,-75.36599731445312 15.192999839782715,-73.73699951171875z"></path></g></g><g style="display: block;" transform="matrix(1,0,0,1,256,256)" opacity="1"><g opacity="1" transform="matrix(1,0,0,1,0,0)"><path fill="rgb(163,65,0)" fill-opacity="1" d=" M-38.20100021362305,-130.093994140625 C-38.20100021362305,-130.093994140625 -31.256999969482422,-135.3070068359375 -22.7549991607666,-135.40499877929688 C-14.609000205993652,-135.49899291992188 -11.114999771118164,-132.56700134277344 -11.114999771118164,-132.56700134277344 C-11.114999771118164,-132.56700134277344 -14.07699966430664,-138.35800170898438 -22.854000091552734,-137.7259979248047 C-32.52299880981445,-137.02999877929688 -38.20100021362305,-130.093994140625 -38.20100021362305,-130.093994140625z"></path><path stroke-linecap="round" stroke-linejoin="round" fill-opacity="0" stroke="rgb(163,65,0)" stroke-opacity="1" stroke-width="1" d=" M-38.20100021362305,-130.093994140625 C-38.20100021362305,-130.093994140625 -31.256999969482422,-135.3070068359375 -22.7549991607666,-135.40499877929688 C-14.609000205993652,-135.49899291992188 -11.114999771118164,-132.56700134277344 -11.114999771118164,-132.56700134277344 C-11.114999771118164,-132.56700134277344 -14.07699966430664,-138.35800170898438 -22.854000091552734,-137.7259979248047 C-32.52299880981445,-137.02999877929688 -38.20100021362305,-130.093994140625 -38.20100021362305,-130.093994140625z"></path></g><g opacity="1" transform="matrix(1,0,0,1,0,0)"><path fill="rgb(163,65,0)" fill-opacity="1" d=" M59.16400146484375,-122.86599731445312 C59.16400146484375,-122.86599731445312 52.39400100708008,-128.30299377441406 43.900001525878906,-128.67799377441406 C35.76100158691406,-129.03799438476562 32.17300033569336,-126.22100067138672 32.17300033569336,-126.22100067138672 C32.17300033569336,-126.22100067138672 35.323001861572266,-131.91200256347656 44.07500076293945,-130.99400329589844 C53.715999603271484,-129.98300170898438 59.16400146484375,-122.86599731445312 59.16400146484375,-122.86599731445312z"></path><path stroke-linecap="round" stroke-linejoin="round" fill-opacity="0" stroke="rgb(163,65,0)" stroke-opacity="1" stroke-width="1" d=" M59.16400146484375,-122.86599731445312 C59.16400146484375,-122.86599731445312 52.39400100708008,-128.30299377441406 43.900001525878906,-128.67799377441406 C35.76100158691406,-129.03799438476562 32.17300033569336,-126.22100067138672 32.17300033569336,-126.22100067138672 C32.17300033569336,-126.22100067138672 35.323001861572266,-131.91200256347656 44.07500076293945,-130.99400329589844 C53.715999603271484,-129.98300170898438 59.16400146484375,-122.86599731445312 59.16400146484375,-122.86599731445312z"></path></g></g><g style="display: block;" transform="matrix(1,0,0,1,255.99998474121094,256)" opacity="1"><g opacity="1" transform="matrix(1,0,0,1,0,0)"><path fill="rgb(81,35,0)" fill-opacity="1" d=" M29.17799949645996,-53.28200149536133 C27.60700035095215,-54.32899856567383 23.277000427246094,-52.45100021362305 17.98699951171875,-54.81100082397461 C12.697999954223633,-57.17100143432617 11.258999824523926,-54.505001068115234 9.3100004196167,-54.652000427246094 C7.361000061035156,-54.79899978637695 5.339000225067139,-57.650001525878906 -0.24500000476837158,-56.11199951171875 C-5.828999996185303,-54.57400131225586 -13.230999946594238,-57.70399856567383 -14.871999740600586,-56.76900100708008 C-17.44099998474121,-55.30500030517578 -6.190999984741211,-43.46699905395508 7.333000183105469,-42.44599914550781 C20.698999404907227,-41.43600082397461 30.75,-52.23500061035156 29.17799949645996,-53.28200149536133z"></path></g><g opacity="1" transform="matrix(1,0,0,1,0,0)"><path fill="url(#__lottie_element_13)" fill-opacity="1" d=" M29.17799949645996,-53.28200149536133 C27.60700035095215,-54.32899856567383 23.277000427246094,-52.45100021362305 17.98699951171875,-54.81100082397461 C12.697999954223633,-57.17100143432617 11.258999824523926,-54.505001068115234 9.3100004196167,-54.652000427246094 C7.361000061035156,-54.79899978637695 5.339000225067139,-57.650001525878906 -0.24500000476837158,-56.11199951171875 C-5.828999996185303,-54.57400131225586 -13.267000198364258,-57.76499938964844 -14.871999740600586,-56.76900100708008 C-17.3700008392334,-55.21900177001953 -6.190999984741211,-43.46699905395508 7.333000183105469,-42.44599914550781 C20.698999404907227,-41.43600082397461 30.75,-52.23500061035156 29.17799949645996,-53.28200149536133z"></path></g><g opacity="1" transform="matrix(1,0,0,1,0,0)"><path fill="rgb(23,19,11)" fill-opacity="1" d=" M-10.989999771118164,-54.08000183105469 C-10.989999771118164,-54.08000183105469 -4.585000038146973,-51.43299865722656 -0.5699999928474426,-51.130001068115234 C2.1559998989105225,-50.92399978637695 6.3429999351501465,-49.45500183105469 8.902999877929688,-49.262001037597656 C11.36299991607666,-49.07600021362305 14.798999786376953,-50.237998962402344 17.3799991607666,-50.042999267578125 C22.666000366210938,-49.64400100708008 24.854000091552734,-50.67900085449219 24.854000091552734,-50.67900085449219 C24.854000091552734,-50.67900085449219 23.55299949645996,-49.6870002746582 17.034000396728516,-48.82400131225586 C14.720000267028809,-48.518001556396484 11.468999862670898,-47.542999267578125 8.788000106811523,-47.74599838256836 C5.6020002365112305,-47.98699951171875 1.8830000162124634,-49.32099914550781 -0.7070000171661377,-50.1510009765625 C-6.436999797821045,-51.986000061035156 -10.989999771118164,-54.08000183105469 -10.989999771118164,-54.08000183105469z"></path><path stroke-linecap="round" stroke-linejoin="round" fill-opacity="0" stroke="rgb(23,19,11)" stroke-opacity="1" stroke-width="1" d=" M-10.989999771118164,-54.08000183105469 C-10.989999771118164,-54.08000183105469 -4.585000038146973,-51.43299865722656 -0.5699999928474426,-51.130001068115234 C2.1559998989105225,-50.92399978637695 6.3429999351501465,-49.45500183105469 8.902999877929688,-49.262001037597656 C11.36299991607666,-49.07600021362305 14.798999786376953,-50.237998962402344 17.3799991607666,-50.042999267578125 C22.666000366210938,-49.64400100708008 24.854000091552734,-50.67900085449219 24.854000091552734,-50.67900085449219 C24.854000091552734,-50.67900085449219 23.55299949645996,-49.6870002746582 17.034000396728516,-48.82400131225586 C14.720000267028809,-48.518001556396484 11.468999862670898,-47.542999267578125 8.788000106811523,-47.74599838256836 C5.6020002365112305,-47.98699951171875 1.8830000162124634,-49.32099914550781 -0.7070000171661377,-50.1510009765625 C-6.436999797821045,-51.986000061035156 -10.989999771118164,-54.08000183105469 -10.989999771118164,-54.08000183105469z"></path></g></g><g style="display: block;" transform="matrix(1,0,0,1,255.99998474121094,256)" opacity="1"><g opacity="1" transform="matrix(1,0,0,1,0,0)"><path fill="rgb(255,205,0)" fill-opacity="1" d=" M-25.783000946044922,-179.5800018310547 C-32.01599884033203,-148.5229949951172 -49.4109992980957,-129.09300231933594 -76.4800033569336,-119.73699951171875 C-76.4800033569336,-119.73699951171875 -98.28099822998047,-96.41999816894531 -96.4489974975586,-44.43600082397461 C-96.4489974975586,-44.43600082397461 -100.64099884033203,-86.33799743652344 -79.4010009765625,-145.82000732421875 C-59.709999084472656,-200.96600341796875 -33.64899826049805,-207.7519989013672 -27.924999237060547,-204.9980010986328 C-27.924999237060547,-204.9980010986328 -18.429000854492188,-220.1439971923828 22.29800033569336,-211.6510009765625 C63.025001525878906,-203.1580047607422 86.75299835205078,-170.8000030517578 95.73200225830078,-134.5260009765625 C104.71099853515625,-98.25199890136719 104.85800170898438,-55.928001403808594 100.91100311279297,-29.52899932861328 C100.91100311279297,-29.52899932861328 110.9260025024414,-94.0270004272461 68.76200103759766,-118.37300109863281 C68.76200103759766,-118.37300109863281 7.817999839782715,-136.1199951171875 -25.783000946044922,-179.5800018310547z"></path></g><g opacity="1" transform="matrix(1,0,0,1,0,0)"><path fill="url(#__lottie_element_6)" fill-opacity="1" d=" M-25.783000946044922,-179.5800018310547 C-32.01599884033203,-148.5229949951172 -49.4109992980957,-129.09300231933594 -76.4800033569336,-119.73699951171875 C-76.4800033569336,-119.73699951171875 -98.28099822998047,-96.41999816894531 -96.4489974975586,-44.43600082397461 C-96.4489974975586,-44.43600082397461 -100.64099884033203,-86.33799743652344 -79.4010009765625,-145.82000732421875 C-59.709999084472656,-200.96600341796875 -33.64899826049805,-207.7519989013672 -27.924999237060547,-204.9980010986328 C-27.924999237060547,-204.9980010986328 -18.429000854492188,-220.1439971923828 22.29800033569336,-211.6510009765625 C63.025001525878906,-203.1580047607422 86.75299835205078,-170.8000030517578 95.73200225830078,-134.5260009765625 C104.71099853515625,-98.25199890136719 104.85800170898438,-55.928001403808594 100.91100311279297,-29.52899932861328 C100.91100311279297,-29.52899932861328 110.9260025024414,-94.0270004272461 68.76200103759766,-118.37300109863281 C68.76200103759766,-118.37300109863281 7.817999839782715,-136.1199951171875 -25.783000946044922,-179.5800018310547z"></path></g><g opacity="1" transform="matrix(1,0,0,1,0,0)"><path fill="url(#__lottie_element_7)" fill-opacity="1" d=" M92.05999755859375,-113.88300323486328 C92.05999755859375,-113.88300323486328 81.2979965209961,-117.16999816894531 68.76300048828125,-118.37000274658203 C68.76300048828125,-118.37000274658203 7.818999767303467,-136.11900329589844 -25.783000946044922,-179.58299255371094 C-25.783000946044922,-179.58299255371094 -29.283000946044922,-151.95599365234375 -48.303001403808594,-136.91900634765625 C-66.2760009765625,-122.7020034790039 -76.47799682617188,-119.73999786376953 -76.47799682617188,-119.73999786376953 C-76.47799682617188,-119.73999786376953 -90.44599914550781,-102.42900085449219 -92.91999816894531,-86.4229965209961 C-92.91999816894531,-86.4229965209961 -91.4530029296875,-120.82099914550781 -79.47699737548828,-124.98100280761719 C-79.47699737548828,-124.98100280761719 -59.50699996948242,-133.9949951171875 -48.1619987487793,-146.63900756835938 C-33.624000549316406,-162.84100341796875 -32.89400100708008,-185.656005859375 -34.224998474121094,-191.98500061035156 C-36.1619987487793,-201.19900512695312 -56.92100143432617,-192.69500732421875 -71.21399688720703,-165.4530029296875 C-53.0989990234375,-202.61199951171875 -32.88399887084961,-207.38099670410156 -27.923999786376953,-204.99600219726562 C-27.923999786376953,-204.99600219726562 -18.42799949645996,-220.14199829101562 22.297000885009766,-211.6510009765625 C42.902000427246094,-207.35499572753906 59.16299819946289,-196.9429931640625 71.35900115966797,-183.0050048828125 C71.35900115966797,-183.0050048828125 46.862998962402344,-209.53900146484375 3.74399995803833,-208.05999755859375 C-25.312999725341797,-207.06300354003906 -22.305999755859375,-192.7570037841797 -19.5049991607666,-187.1750030517578 C-15.531999588012695,-179.25900268554688 5.949999809265137,-153.6909942626953 38.141998291015625,-138.75 C65.68599700927734,-125.96600341796875 81.69999694824219,-121.94400024414062 92.05999755859375,-113.88300323486328z"></path></g><g opacity="1" transform="matrix(1,0,0,1,0,0)"><path stroke-linecap="round" stroke-linejoin="round" fill-opacity="0" stroke="rgb(197,92,0)" stroke-opacity="1" stroke-width="8" d=" M-25.783000946044922,-179.5800018310547 C-25.60700035095215,-151.71099853515625 -48.14799880981445,-129.29800415039062 -76.4800033569336,-119.73699951171875 C-76.4800033569336,-119.73699951171875 -98.86399841308594,-97.4010009765625 -97.03199768066406,-45.41699981689453 C-97.03199768066406,-45.41699981689453 -100.64099884033203,-86.33799743652344 -79.4010009765625,-145.82000732421875 C-59.709999084472656,-200.96600341796875 -33.64899826049805,-207.7519989013672 -27.924999237060547,-204.9980010986328 C-27.924999237060547,-204.9980010986328 -18.429000854492188,-220.1439971923828 22.29800033569336,-211.6510009765625 C63.025001525878906,-203.1580047607422 86.75299835205078,-170.8000030517578 95.73200225830078,-134.5260009765625 C104.71099853515625,-98.25199890136719 104.97599792480469,-56.784000396728516 101.02899932861328,-30.385000228881836 C101.02899932861328,-30.385000228881836 110.8479995727539,-94.64199829101562 68.76200103759766,-118.37300109863281 C68.76200103759766,-118.37300109863281 7.817999839782715,-136.1199951171875 -25.783000946044922,-179.5800018310547z"></path></g><g opacity="1" transform="matrix(1,0,0,1,0,0)"><path fill="url(#__lottie_element_8)" fill-opacity="0.9" d=" M-33.81399917602539,-184.76600646972656 C-32.56800079345703,-197.04100036621094 -31.031999588012695,-199.68800354003906 -33.909000396728516,-199.2010040283203 C-43.060001373291016,-197.65199279785156 -58.689998626708984,-185.53399658203125 -68.21499633789062,-161.6280059814453 C-68.51300048828125,-152.6320037841797 -56.93199920654297,-157.9600067138672 -51.61399841308594,-157.822998046875 C-37.99800109863281,-157.4720001220703 -34.917999267578125,-173.89300537109375 -33.81399917602539,-184.76600646972656z"></path></g><g opacity="1" transform="matrix(1,0,0,1,0,0)"><path fill="url(#__lottie_element_9)" fill-opacity="0.9" d=" M18.381000518798828,-153.35899353027344 C-2.494999885559082,-162.343994140625 -16.676000595092773,-182.322998046875 -19.72599983215332,-188.3489990234375 C-23.320999145507812,-195.4510040283203 -24.070999145507812,-201.71800231933594 -22.854000091552734,-202.90699768066406 C-17.61400032043457,-208.02699279785156 0.9070000052452087,-211.77999877929688 25.915000915527344,-204.84100341796875 C49.07600021362305,-198.41400146484375 71.58999633789062,-178.88400268554688 81.52100372314453,-156.2259979248047 C87.05999755859375,-143.58900451660156 52.65800094604492,-138.6060028076172 18.381000518798828,-153.35899353027344z"></path></g><g opacity="1" transform="matrix(1,0,0,1,0,0)"><path stroke-linecap="round" stroke-linejoin="round" fill-opacity="0" stroke="rgb(163,65,0)" stroke-opacity="1" stroke-width="8" d=" M101.02899932861328,-30.385000228881836 C101.02899932861328,-30.385000228881836 110.8479995727539,-94.64199829101562 68.76200103759766,-118.37300109863281 C68.76200103759766,-118.37300109863281 7.817999839782715,-136.1199951171875 -25.783000946044922,-179.5800018310547 C-25.60700035095215,-151.71099853515625 -48.14799880981445,-129.29800415039062 -76.4800033569336,-119.73699951171875 C-76.4800033569336,-119.73699951171875 -98.86399841308594,-97.4010009765625 -97.03199768066406,-45.41699981689453"></path></g></g></g></svg>