<svg xmlns="http://www.w3.org/2000/svg" xmlns:xlink="http://www.w3.org/1999/xlink" viewBox="0 0 512 512" width="512" height="512" style="width: 100%; height: 100%; transform: translate3d(0,0,0); content-visibility: visible;" preserveAspectRatio="xMidYMid meet"><defs><clipPath id="__lottie_element_2"><rect width="512" height="512" x="0" y="0"></rect></clipPath><linearGradient id="__lottie_element_7" spreadMethod="pad" gradientUnits="userSpaceOnUse" x1="1.5" y1="139" x2="2.3529999256134033" y2="183.88499450683594"><stop offset="0%" stop-color="rgb(188,184,188)"></stop><stop offset="31%" stop-color="rgb(212,210,212)"></stop><stop offset="100%" stop-color="rgb(237,237,237)"></stop></linearGradient><radialGradient id="__lottie_element_8" spreadMethod="pad" gradientUnits="userSpaceOnUse" cx="-5" cy="46" r="86.87300109863281" fx="-5" fy="46"><stop offset="43%" stop-color="rgb(188,184,188)"></stop><stop offset="91%" stop-color="rgb(214,212,214)"></stop><stop offset="100%" stop-color="rgb(240,240,240)"></stop></radialGradient><linearGradient id="__lottie_element_9" spreadMethod="pad" gradientUnits="userSpaceOnUse" x1="0" y1="130" x2="-1.25600004196167" y2="215.44000244140625"><stop offset="31%" stop-color="rgb(74,35,135)"></stop><stop offset="54%" stop-color="rgb(90,48,164)"></stop><stop offset="100%" stop-color="rgb(106,61,193)"></stop></linearGradient><linearGradient id="__lottie_element_10" spreadMethod="pad" gradientUnits="userSpaceOnUse" x1="-101" y1="163" x2="-49.986000061035156" y2="187.92100524902344"><stop offset="14%" stop-color="rgb(45,45,45)"></stop><stop offset="67%" stop-color="rgb(30,30,30)"></stop><stop offset="100%" stop-color="rgb(15,15,15)"></stop></linearGradient><linearGradient id="__lottie_element_11" spreadMethod="pad" gradientUnits="userSpaceOnUse" x1="-101" y1="110" x2="-100.32099914550781" y2="207.76300048828125"><stop offset="0%" stop-color="rgb(255,255,255)" stop-opacity="1"></stop><stop offset="37%" stop-color="rgb(255,255,255)" stop-opacity="0.5"></stop><stop offset="100%" stop-color="rgb(255,255,255)" stop-opacity="0"></stop></linearGradient><linearGradient id="__lottie_element_12" spreadMethod="pad" gradientUnits="userSpaceOnUse" x1="-114.93800354003906" y1="209" x2="-102.1510009765625" y2="199.17300415039062"><stop offset="30%" stop-color="rgb(15,15,15)" stop-opacity="1"></stop><stop offset="67%" stop-color="rgb(15,15,15)" stop-opacity="0.5"></stop><stop offset="100%" stop-color="rgb(15,15,15)" stop-opacity="0"></stop></linearGradient><linearGradient id="__lottie_element_13" spreadMethod="pad" gradientUnits="userSpaceOnUse" x1="-101" y1="163" x2="-49.986000061035156" y2="187.92100524902344"><stop offset="14%" stop-color="rgb(45,45,45)"></stop><stop offset="67%" stop-color="rgb(30,30,30)"></stop><stop offset="100%" stop-color="rgb(15,15,15)"></stop></linearGradient><linearGradient id="__lottie_element_14" spreadMethod="pad" gradientUnits="userSpaceOnUse" x1="-101" y1="110" x2="-100.32099914550781" y2="207.76300048828125"><stop offset="0%" stop-color="rgb(255,255,255)" stop-opacity="1"></stop><stop offset="37%" stop-color="rgb(255,255,255)" stop-opacity="0.5"></stop><stop offset="100%" stop-color="rgb(255,255,255)" stop-opacity="0"></stop></linearGradient><linearGradient id="__lottie_element_15" spreadMethod="pad" gradientUnits="userSpaceOnUse" x1="-114.93800354003906" y1="209" x2="-102.1510009765625" y2="199.17300415039062"><stop offset="30%" stop-color="rgb(15,15,15)" stop-opacity="1"></stop><stop offset="67%" stop-color="rgb(15,15,15)" stop-opacity="0.5"></stop><stop offset="100%" stop-color="rgb(15,15,15)" stop-opacity="0"></stop></linearGradient><linearGradient id="__lottie_element_18" spreadMethod="pad" gradientUnits="userSpaceOnUse" x1="0" y1="23.875" x2="0" y2="41.415000915527344"><stop offset="0%" stop-color="rgb(255,168,0)" stop-opacity="1"></stop><stop offset="60%" stop-color="rgb(255,168,0)" stop-opacity="0.5"></stop><stop offset="100%" stop-color="rgb(255,168,0)" stop-opacity="0"></stop></linearGradient><linearGradient id="__lottie_element_19" spreadMethod="pad" gradientUnits="userSpaceOnUse" x1="0" y1="36.125" x2="0" y2="15.696000099182129"><stop offset="11%" stop-color="rgb(219,110,0)" stop-opacity="1"></stop><stop offset="51%" stop-color="rgb(219,110,0)" stop-opacity="0.5149999856948853"></stop><stop offset="80%" stop-color="rgb(219,110,0)" stop-opacity="0.029999999329447746"></stop></linearGradient><radialGradient id="__lottie_element_20" spreadMethod="pad" gradientUnits="userSpaceOnUse" cx="0.25" cy="11" r="20.736000061035156" fx="0.25" fy="11"><stop offset="36%" stop-color="rgb(255,168,0)" stop-opacity="0"></stop><stop offset="74%" stop-color="rgb(255,168,0)" stop-opacity="0.5"></stop><stop offset="100%" stop-color="rgb(255,168,0)" stop-opacity="1"></stop></radialGradient><linearGradient id="__lottie_element_21" spreadMethod="pad" gradientUnits="userSpaceOnUse" x1="0.06199999898672104" y1="9.062000274658203" x2="0.31200000643730164" y2="20.20800018310547"><stop offset="0%" stop-color="rgb(255,255,255)" stop-opacity="1"></stop><stop offset="60%" stop-color="rgb(255,255,255)" stop-opacity="0.5"></stop><stop offset="100%" stop-color="rgb(255,255,255)" stop-opacity="0"></stop></linearGradient><linearGradient id="__lottie_element_28" spreadMethod="pad" gradientUnits="userSpaceOnUse" x1="1" y1="-209" x2="2.2279999256134033" y2="-122.41200256347656"><stop offset="0%" stop-color="rgb(0,0,0)" stop-opacity="1"></stop><stop offset="50%" stop-color="rgb(0,0,0)" stop-opacity="0.5"></stop><stop offset="100%" stop-color="rgb(0,0,0)" stop-opacity="0"></stop></linearGradient><linearGradient id="__lottie_element_29" spreadMethod="pad" gradientUnits="userSpaceOnUse" x1="1" y1="-206" x2="2.822000026702881" y2="-156.29600524902344"><stop offset="0%" stop-color="rgb(152,152,152)" stop-opacity="1"></stop><stop offset="50%" stop-color="rgb(152,152,152)" stop-opacity="0.5"></stop><stop offset="100%" stop-color="rgb(152,152,152)" stop-opacity="0"></stop></linearGradient><radialGradient id="__lottie_element_33" spreadMethod="pad" gradientUnits="userSpaceOnUse" cx="0" cy="71" r="22.364999771118164" fx="0" fy="71"><stop offset="10%" stop-color="rgb(219,110,0)" stop-opacity="1"></stop><stop offset="66%" stop-color="rgb(219,110,0)" stop-opacity="0.5"></stop><stop offset="100%" stop-color="rgb(219,110,0)" stop-opacity="0"></stop></radialGradient><radialGradient id="__lottie_element_34" spreadMethod="pad" gradientUnits="userSpaceOnUse" cx="1" cy="41" r="39.54899978637695" fx="1" fy="41"><stop offset="0%" stop-color="rgb(255,255,255)" stop-opacity="1"></stop><stop offset="62%" stop-color="rgb(255,255,255)" stop-opacity="0.5"></stop><stop offset="100%" stop-color="rgb(255,255,255)" stop-opacity="0"></stop></radialGradient><linearGradient id="__lottie_element_41" spreadMethod="pad" gradientUnits="userSpaceOnUse" x1="-55.875" y1="-39.375" x2="-39.5359992980957" y2="-16.40999984741211"><stop offset="0%" stop-color="rgb(38,0,6)"></stop><stop offset="37%" stop-color="rgb(116,0,3)"></stop><stop offset="100%" stop-color="rgb(193,0,0)"></stop></linearGradient><radialGradient id="__lottie_element_42" spreadMethod="pad" gradientUnits="userSpaceOnUse" cx="-42" cy="-20" r="10.59618206063323" fx="-42" fy="-20"><stop offset="0%" stop-color="rgb(255,0,0)" stop-opacity="1"></stop><stop offset="50%" stop-color="rgb(255,0,0)" stop-opacity="0.5"></stop><stop offset="100%" stop-color="rgb(255,0,0)" stop-opacity="0"></stop></radialGradient><linearGradient id="__lottie_element_43" spreadMethod="pad" gradientUnits="userSpaceOnUse" x1="-57" y1="-45" x2="-57" y2="-36.194000244140625"><stop offset="0%" stop-color="rgb(255,255,255)" stop-opacity="1"></stop><stop offset="60%" stop-color="rgb(255,255,255)" stop-opacity="0.5"></stop><stop offset="100%" stop-color="rgb(255,255,255)" stop-opacity="0"></stop></linearGradient><linearGradient id="__lottie_element_44" spreadMethod="pad" gradientUnits="userSpaceOnUse" x1="-55.875" y1="-39.375" x2="-39.5359992980957" y2="-16.40999984741211"><stop offset="0%" stop-color="rgb(38,0,6)"></stop><stop offset="37%" stop-color="rgb(116,0,3)"></stop><stop offset="100%" stop-color="rgb(193,0,0)"></stop></linearGradient><radialGradient id="__lottie_element_45" spreadMethod="pad" gradientUnits="userSpaceOnUse" cx="-42" cy="-20" r="10.59618206063323" fx="-42" fy="-20"><stop offset="0%" stop-color="rgb(255,0,0)" stop-opacity="1"></stop><stop offset="50%" stop-color="rgb(255,0,0)" stop-opacity="0.5"></stop><stop offset="100%" stop-color="rgb(255,0,0)" stop-opacity="0"></stop></radialGradient><linearGradient id="__lottie_element_46" spreadMethod="pad" gradientUnits="userSpaceOnUse" x1="-57" y1="-45" x2="-57" y2="-36.194000244140625"><stop offset="0%" stop-color="rgb(255,255,255)" stop-opacity="1"></stop><stop offset="60%" stop-color="rgb(255,255,255)" stop-opacity="0.5"></stop><stop offset="100%" stop-color="rgb(255,255,255)" stop-opacity="0"></stop></linearGradient><linearGradient id="__lottie_element_50" spreadMethod="pad" gradientUnits="userSpaceOnUse" x1="0" y1="-159" x2="0" y2="94.44999694824219"><stop offset="9%" stop-color="rgb(255,216,0)" stop-opacity="0"></stop><stop offset="15%" stop-color="rgb(255,216,0)" stop-opacity="0.5"></stop><stop offset="50%" stop-color="rgb(255,216,0)" stop-opacity="1"></stop><stop offset="88%" stop-color="rgb(255,216,0)" stop-opacity="0.5"></stop><stop offset="100%" stop-color="rgb(255,216,0)" stop-opacity="0"></stop></linearGradient><radialGradient id="__lottie_element_54" spreadMethod="pad" gradientUnits="userSpaceOnUse" cx="-157" cy="-35" r="37.72699737548828" fx="-157" fy="-35"><stop offset="21%" stop-color="rgb(255,216,0)" stop-opacity="1"></stop><stop offset="90%" stop-color="rgb(255,216,0)" stop-opacity="0.5"></stop><stop offset="100%" stop-color="rgb(255,216,0)" stop-opacity="0"></stop></radialGradient><radialGradient id="__lottie_element_55" spreadMethod="pad" gradientUnits="userSpaceOnUse" cx="-157" cy="-35" r="37.72699737548828" fx="-157" fy="-35"><stop offset="21%" stop-color="rgb(255,216,0)" stop-opacity="1"></stop><stop offset="90%" stop-color="rgb(255,216,0)" stop-opacity="0.5"></stop><stop offset="100%" stop-color="rgb(255,216,0)" stop-opacity="0"></stop></radialGradient><linearGradient id="__lottie_element_59" spreadMethod="pad" gradientUnits="userSpaceOnUse" x1="108" y1="-45" x2="90.72200012207031" y2="-98.07099914550781"><stop offset="0%" stop-color="rgb(208,0,0)"></stop><stop offset="59%" stop-color="rgb(150,12,12)"></stop><stop offset="95%" stop-color="rgb(92,24,24)"></stop></linearGradient><radialGradient id="__lottie_element_60" spreadMethod="pad" gradientUnits="userSpaceOnUse" cx="20" cy="50" r="87.0770034790039" fx="20" fy="50"><stop offset="23%" stop-color="rgb(92,24,24)"></stop><stop offset="85%" stop-color="rgb(150,12,12)"></stop><stop offset="100%" stop-color="rgb(208,0,0)"></stop></radialGradient><linearGradient id="__lottie_element_61" spreadMethod="pad" gradientUnits="userSpaceOnUse" x1="118" y1="64" x2="147.6999969482422" y2="-124.4800033569336"><stop offset="0%" stop-color="rgb(0,0,0)"></stop><stop offset="50%" stop-color="rgb(28,28,28)"></stop><stop offset="100%" stop-color="rgb(56,56,56)"></stop></linearGradient><linearGradient id="__lottie_element_62" spreadMethod="pad" gradientUnits="userSpaceOnUse" x1="108" y1="-45" x2="90.72200012207031" y2="-98.07099914550781"><stop offset="0%" stop-color="rgb(208,0,0)"></stop><stop offset="59%" stop-color="rgb(150,12,12)"></stop><stop offset="95%" stop-color="rgb(92,24,24)"></stop></linearGradient><radialGradient id="__lottie_element_63" spreadMethod="pad" gradientUnits="userSpaceOnUse" cx="20" cy="50" r="87.0770034790039" fx="20" fy="50"><stop offset="23%" stop-color="rgb(92,24,24)"></stop><stop offset="85%" stop-color="rgb(150,12,12)"></stop><stop offset="100%" stop-color="rgb(208,0,0)"></stop></radialGradient><linearGradient id="__lottie_element_64" spreadMethod="pad" gradientUnits="userSpaceOnUse" x1="118" y1="64" x2="147.6999969482422" y2="-124.4800033569336"><stop offset="0%" stop-color="rgb(0,0,0)"></stop><stop offset="50%" stop-color="rgb(28,28,28)"></stop><stop offset="100%" stop-color="rgb(56,56,56)"></stop></linearGradient></defs><g clip-path="url(#__lottie_element_2)"><g style="display: block;" transform="matrix(1,0,0,1,256,256)" opacity="1"><g opacity="1" transform="matrix(1,0,0,1,0,0)"><g opacity="1" transform="matrix(1,0,0,1,0,0)"><path fill="url(#__lottie_element_7)" fill-opacity="1" d=" M-41.85599899291992,116.8489990234375 C-41.85599899291992,119.98200225830078 1.6519999504089355,192.98500061035156 1.6519999504089355,192.98500061035156 C1.6519999504089355,192.98500061035156 41.426998138427734,119.3479995727539 41.426998138427734,116.3010025024414 C41.426998138427734,116.3010025024414 -41.85599899291992,116.8489990234375 -41.85599899291992,116.8489990234375z"></path></g><g opacity="1" transform="matrix(1,0,0,1,0,0)"><path fill="url(#__lottie_element_8)" fill-opacity="1" d=" M0.9279999732971191,128.54800415039062 C0.9279999732971191,128.54800415039062 -11.732999801635742,155.58700561523438 -11.732999801635742,155.58700561523438 C-11.732999801635742,155.58700561523438 -29.027999877929688,148.41700744628906 -39.42499923706055,130.33299255371094 C-39.42499923706055,130.33299255371094 -35.38800048828125,106.53199768066406 -35.38800048828125,106.53199768066406 C-35.38800048828125,106.53199768066406 36.481998443603516,106.53199768066406 36.481998443603516,106.53199768066406 C36.481998443603516,106.53199768066406 39.49800109863281,130.23800659179688 39.49800109863281,130.23800659179688 C39.49800109863281,130.23800659179688 32.18000030517578,146.38299560546875 13.312999725341797,155.58700561523438 C13.312999725341797,155.58700561523438 0.9279999732971191,128.54800415039062 0.9279999732971191,128.54800415039062z"></path><path stroke-linecap="round" stroke-linejoin="round" fill-opacity="0" stroke="rgb(151,163,164)" stroke-opacity="1" stroke-width="8" d=" M0.9279999732971191,128.54800415039062 C0.9279999732971191,128.54800415039062 -11.732999801635742,155.58700561523438 -11.732999801635742,155.58700561523438 C-11.732999801635742,155.58700561523438 -29.027999877929688,148.41700744628906 -39.42499923706055,130.33299255371094 C-39.42499923706055,130.33299255371094 -35.38800048828125,106.53199768066406 -35.38800048828125,106.53199768066406 C-35.38800048828125,106.53199768066406 36.481998443603516,106.53199768066406 36.481998443603516,106.53199768066406 C36.481998443603516,106.53199768066406 39.49800109863281,130.23800659179688 39.49800109863281,130.23800659179688 C39.49800109863281,130.23800659179688 32.18000030517578,146.38299560546875 13.312999725341797,155.58700561523438 C13.312999725341797,155.58700561523438 0.9279999732971191,128.54800415039062 0.9279999732971191,128.54800415039062z"></path></g><g opacity="1" transform="matrix(1,0,0,1,0,0)"><path fill="rgb(144,155,157)" fill-opacity="0.3" d=" M37.23699951171875,106.53700256347656 C37.23699951171875,106.53700256347656 0.9229999780654907,106.53700256347656 0.9229999780654907,106.53700256347656 C0.9229999780654907,106.53700256347656 -35.39099884033203,106.53700256347656 -35.39099884033203,106.53700256347656 C-35.39099884033203,106.53700256347656 -39.42300033569336,130.3300018310547 -39.42300033569336,130.3300018310547 C-35.047000885009766,137.9340057373047 -27.50200080871582,140.66200256347656 -22.488000869750977,144.6750030517578 C-22.753000259399414,144.03700256347656 -31.125,131.86599731445312 -25.65999984741211,125.60600280761719 C-20.07699966430664,119.20899963378906 -14.232000350952148,124.08999633789062 0.28999999165534973,124.08999633789062 C14.812000274658203,124.08999633789062 20.777000427246094,118.46199798583984 26.360000610351562,124.85900115966797 C31.825000762939453,131.11900329589844 24.599000930786133,144.03700256347656 24.333999633789062,144.6750030517578 C29.347999572753906,140.66200256347656 36.893001556396484,137.9340057373047 41.26900100708008,130.3300018310547 C41.26900100708008,130.3300018310547 37.23699951171875,106.53700256347656 37.23699951171875,106.53700256347656z"></path></g><g opacity="1" transform="matrix(1,0,0,1,0,0)"><path fill="url(#__lottie_element_9)" fill-opacity="1" d=" M46.35200119018555,116.84600067138672 C46.35200119018555,116.84600067138672 46.35200119018555,218.09500122070312 46.35200119018555,218.09500122070312 C46.35200119018555,218.09500122070312 -45.91899871826172,218.09500122070312 -45.91899871826172,218.09500122070312 C-45.91899871826172,218.09500122070312 -45.91899871826172,116.84600067138672 -45.91899871826172,116.84600067138672 C-44.37900161743164,116.58100128173828 -42.827999114990234,116.32499694824219 -41.257999420166016,116.08999633789062 C-35.10599899291992,134.43800354003906 1.5119999647140503,192.98599243164062 1.5119999647140503,192.98599243164062 C1.5119999647140503,192.98599243164062 34.823001861572266,135.39100646972656 40.81800079345703,116.22799682617188 C40.81800079345703,116.22799682617188 46.35200119018555,116.84600067138672 46.35200119018555,116.84600067138672z"></path></g><g opacity="1" transform="matrix(1,0,0,1,0,0)"><path stroke-linecap="round" stroke-linejoin="round" fill-opacity="0" stroke="rgb(45,0,95)" stroke-opacity="1" stroke-width="8" d=" M41.426998138427734,114.072998046875 C37.62099838256836,130.56500244140625 1.5130000114440918,192.98500061035156 1.5130000114440918,192.98500061035156 C1.5130000114440918,192.98500061035156 -38.124000549316406,129.61199951171875 -41.85599899291992,114.072998046875"></path></g></g><g opacity="1" transform="matrix(1,0,0,1,0,0)"><g opacity="1" transform="matrix(1,0,0,1,0,0)"><path fill="url(#__lottie_element_10)" fill-opacity="1" d=" M-45.917999267578125,116.8489990234375 C-45.917999267578125,116.8489990234375 -45.917999267578125,218.09800720214844 -45.917999267578125,218.09800720214844 C-45.917999267578125,218.09800720214844 -118.50700378417969,218.09800720214844 -118.50700378417969,218.09800720214844 C-128.24000549316406,218.09800720214844 -135.48199462890625,217.1269989013672 -140.7899932861328,215.86099243164062 C-150.89700317382812,213.43699645996094 -154.0070037841797,209.93499755859375 -154.0070037841797,209.93499755859375 C-152.24099731445312,196.78700256347656 -147.43299865722656,170.88299560546875 -135.73699951171875,156.26300048828125 C-122.98200225830078,140.3280029296875 -91.81800079345703,124.6989974975586 -45.917999267578125,116.8489990234375z"></path></g><g opacity="1" transform="matrix(1,0,0,1,0,0)"><path fill="url(#__lottie_element_11)" fill-opacity="0.18" d=" M-45.917999267578125,116.8489990234375 C-45.917999267578125,116.8489990234375 -45.917999267578125,134.1179962158203 -45.917999267578125,134.1179962158203 C-45.917999267578125,134.1179962158203 -103.19100189208984,140.1719970703125 -125.66999816894531,168.0970001220703 C-134.18699645996094,178.6739959716797 -139.22000122070312,203.73300170898438 -140.7899932861328,215.86099243164062 C-150.89700317382812,213.43699645996094 -154.0070037841797,209.93499755859375 -154.0070037841797,209.93499755859375 C-152.24099731445312,196.78700256347656 -147.43299865722656,170.88299560546875 -135.73699951171875,156.26300048828125 C-122.98200225830078,140.3280029296875 -91.81800079345703,124.6989974975586 -45.917999267578125,116.8489990234375z"></path></g><g opacity="1" transform="matrix(1,0,0,1,0,0)"><path fill="url(#__lottie_element_12)" fill-opacity="0.6" d=" M-85.86199951171875,218.09800720214844 C-85.86199951171875,218.09800720214844 -107.93299865722656,217.61399841308594 -116.7490005493164,217.94000244140625 C-121.41400146484375,218.11300659179688 -122.5719985961914,206.11000061035156 -127.17900085449219,191.13800048828125 C-129.55499267578125,183.41600036621094 -132.55499267578125,175.2760009765625 -126.50599670410156,171.95700073242188 C-120.45700073242188,168.63800048828125 -88.95099639892578,213.26400756835938 -85.86199951171875,218.09800720214844z"></path></g><g opacity="1" transform="matrix(1,0,0,1,0,0)"><g opacity="1" transform="matrix(1,0,0,1,0,0)"><path fill="rgb(0,0,0)" fill-opacity="1" d=" M-149.98800659179688,203.3769989013672 C-149.98800659179688,203.3769989013672 -150.69200134277344,208.58299255371094 -151.13900756835938,212.01699829101562 C-151.13900756835938,212.01699829101562 -158.41400146484375,208.031005859375 -157.86700439453125,203.57400512695312 C-157.86700439453125,203.57400512695312 -149.98800659179688,203.3769989013672 -149.98800659179688,203.3769989013672z"></path></g><g opacity="1" transform="matrix(1,0,0,1,0,0)"><path stroke-linecap="round" stroke-linejoin="round" fill-opacity="0" stroke="rgb(0,0,0)" stroke-opacity="1" stroke-width="8" d=" M-154.0070037841797,203.99400329589844 C-152.99099731445312,196.00900268554688 -149.33299255371094,173.26400756835938 -135.73699951171875,156.26300048828125 C-122.98200225830078,140.3280029296875 -91.81800079345703,124.6989974975586 -45.917999267578125,116.8489990234375 C-45.917999267578125,116.8489990234375 -45.917999267578125,213.19200134277344 -45.917999267578125,213.19200134277344"></path></g></g><g opacity="1" transform="matrix(1,0,0,1,0,0)"><path stroke-linecap="round" stroke-linejoin="round" fill-opacity="0" stroke="rgb(0,0,0)" stroke-opacity="1" stroke-width="5" d=" M-129.25900268554688,176.531005859375 C-127.32499694824219,187.09100341796875 -124.27300262451172,200.09800720214844 -119.23899841308594,214.9600067138672"></path></g></g><g opacity="1" transform="matrix(-1,0,0,1,0.43799999356269836,0)"><g opacity="1" transform="matrix(1,0,0,1,0,0)"><path fill="url(#__lottie_element_13)" fill-opacity="1" d=" M-45.917999267578125,116.8489990234375 C-45.917999267578125,116.8489990234375 -45.917999267578125,218.09800720214844 -45.917999267578125,218.09800720214844 C-45.917999267578125,218.09800720214844 -118.50700378417969,218.09800720214844 -118.50700378417969,218.09800720214844 C-128.24000549316406,218.09800720214844 -135.48199462890625,217.1269989013672 -140.7899932861328,215.86099243164062 C-150.89700317382812,213.43699645996094 -154.0070037841797,209.93499755859375 -154.0070037841797,209.93499755859375 C-152.24099731445312,196.78700256347656 -147.43299865722656,170.88299560546875 -135.73699951171875,156.26300048828125 C-122.98200225830078,140.3280029296875 -91.81800079345703,124.6989974975586 -45.917999267578125,116.8489990234375z"></path></g><g opacity="1" transform="matrix(1,0,0,1,0,0)"><path fill="url(#__lottie_element_14)" fill-opacity="0.18" d=" M-45.917999267578125,116.8489990234375 C-45.917999267578125,116.8489990234375 -45.917999267578125,134.1179962158203 -45.917999267578125,134.1179962158203 C-45.917999267578125,134.1179962158203 -103.19100189208984,140.1719970703125 -125.66999816894531,168.0970001220703 C-134.18699645996094,178.6739959716797 -139.22000122070312,203.73300170898438 -140.7899932861328,215.86099243164062 C-150.89700317382812,213.43699645996094 -154.0070037841797,209.93499755859375 -154.0070037841797,209.93499755859375 C-152.24099731445312,196.78700256347656 -147.43299865722656,170.88299560546875 -135.73699951171875,156.26300048828125 C-122.98200225830078,140.3280029296875 -91.81800079345703,124.6989974975586 -45.917999267578125,116.8489990234375z"></path></g><g opacity="1" transform="matrix(1,0,0,1,0,0)"><path fill="url(#__lottie_element_15)" fill-opacity="0.6" d=" M-85.86199951171875,218.09800720214844 C-85.86199951171875,218.09800720214844 -107.93299865722656,217.61399841308594 -116.7490005493164,217.94000244140625 C-121.41400146484375,218.11300659179688 -122.5719985961914,206.11000061035156 -127.17900085449219,191.13800048828125 C-129.55499267578125,183.41600036621094 -132.55499267578125,175.2760009765625 -126.50599670410156,171.95700073242188 C-120.45700073242188,168.63800048828125 -88.95099639892578,213.26400756835938 -85.86199951171875,218.09800720214844z"></path></g><g opacity="1" transform="matrix(1,0,0,1,0,0)"><g opacity="1" transform="matrix(1,0,0,1,0,0)"><path fill="rgb(0,0,0)" fill-opacity="1" d=" M-149.98800659179688,203.3769989013672 C-149.98800659179688,203.3769989013672 -150.69200134277344,208.58299255371094 -151.13900756835938,212.01699829101562 C-151.13900756835938,212.01699829101562 -158.41400146484375,208.031005859375 -157.86700439453125,203.57400512695312 C-157.86700439453125,203.57400512695312 -149.98800659179688,203.3769989013672 -149.98800659179688,203.3769989013672z"></path></g><g opacity="1" transform="matrix(1,0,0,1,0,0)"><path stroke-linecap="round" stroke-linejoin="round" fill-opacity="0" stroke="rgb(0,0,0)" stroke-opacity="1" stroke-width="8" d=" M-154.0070037841797,203.99400329589844 C-152.99099731445312,196.00900268554688 -149.33299255371094,173.26400756835938 -135.73699951171875,156.26300048828125 C-122.98200225830078,140.3280029296875 -91.81800079345703,124.6989974975586 -45.917999267578125,116.8489990234375 C-45.917999267578125,116.8489990234375 -45.917999267578125,213.19200134277344 -45.917999267578125,213.19200134277344"></path></g></g><g opacity="1" transform="matrix(1,0,0,1,0,0)"><path stroke-linecap="round" stroke-linejoin="round" fill-opacity="0" stroke="rgb(0,0,0)" stroke-opacity="1" stroke-width="5" d=" M-129.25900268554688,176.531005859375 C-127.32499694824219,187.09100341796875 -124.27300262451172,200.09800720214844 -119.23899841308594,214.9600067138672"></path></g></g></g><g style="display: block;" transform="matrix(1,0,0,1,256,256)" opacity="1"><g opacity="1" transform="matrix(1,0,0,1,0,0)"><g opacity="1" transform="matrix(1,0,0,1,0,0)"><path fill="url(#__lottie_element_59)" fill-opacity="1" d=" M1.2430000305175781,-84.6500015258789 C88.12899780273438,-83.49700164794922 159.4040069580078,-115.8290023803711 196.97500610351562,-146.3520050048828 C196.97500610351562,-146.3520050048828 200.29800415039062,-82.60399627685547 190.6219940185547,-40.02299880981445 C183.58399963378906,-9.048999786376953 156.35299682617188,67.63700103759766 49.15299987792969,142.83799743652344 C49.15299987792969,142.83799743652344 43.39500045776367,81.63999938964844 18.413999557495117,43.643001556396484 C-14.71500015258789,-6.748000144958496 1.2430000305175781,-84.6500015258789 1.2430000305175781,-84.6500015258789z"></path><path stroke-linecap="round" stroke-linejoin="round" fill-opacity="0" stroke="rgb(193,47,47)" stroke-opacity="1" stroke-width="8" d=" M1.2430000305175781,-84.6500015258789 C88.12899780273438,-83.49700164794922 159.4040069580078,-115.8290023803711 196.97500610351562,-146.3520050048828 C196.97500610351562,-146.3520050048828 200.29800415039062,-82.60399627685547 190.6219940185547,-40.02299880981445 C183.58399963378906,-9.048999786376953 156.35299682617188,67.63700103759766 49.15299987792969,142.83799743652344 C49.15299987792969,142.83799743652344 43.39500045776367,81.63999938964844 18.413999557495117,43.643001556396484 C-14.71500015258789,-6.748000144958496 1.2430000305175781,-84.6500015258789 1.2430000305175781,-84.6500015258789z"></path></g><g opacity="1" transform="matrix(1,0,0,1,0,0)"><path fill="url(#__lottie_element_60)" fill-opacity="1" d=" M28.29800033569336,65.13700103759766 C28.29800033569336,65.14700317382812 28.29800033569336,65.14700317382812 28.29800033569336,65.14700317382812 C42.38800048828125,100.13600158691406 42.44900131225586,123.41400146484375 42.44900131225586,123.41400146484375 C42.547000885009766,123.34500122070312 53.3489990234375,136.74000549316406 50.49399948120117,132.91799926757812 C66.09500122070312,125.50399780273438 67.63200378417969,118.30999755859375 85.01499938964844,100.31300354003906 C131.31100463867188,52.38199996948242 94.89700317382812,0.3269999921321869 94.89700317382812,0.3269999921321869 C53.03900146484375,-13.77299976348877 39.49300003051758,27.479000091552734 28.29800033569336,65.13700103759766z"></path></g><g opacity="1" transform="matrix(1,0,0,1,0,0)"><path stroke-linecap="round" stroke-linejoin="round" fill-opacity="0" stroke="rgb(82,6,6)" stroke-opacity="1" stroke-width="8" d=" M49.15299987792969,142.83799743652344 C49.15299987792969,142.83799743652344 43.39500045776367,81.63999938964844 18.413999557495117,43.643001556396484"></path></g><g opacity="1" transform="matrix(1,0,0,1,0,0)"><path fill="url(#__lottie_element_61)" fill-opacity="1" d=" M49.15299987792969,142.83799743652344 C157.26100158691406,70.67400360107422 184.625,-9.350000381469727 191.6060028076172,-40.02299880981445 C201.28399658203125,-82.60900115966797 196.9770050048828,-146.35699462890625 196.9770050048828,-146.35699462890625 C189.55799865722656,-158.48599243164062 174.63900756835938,-166.30499267578125 174.63900756835938,-166.30499267578125 C174.63900756835938,-166.30499267578125 175.3939971923828,-150.95700073242188 175.6269989013672,-131.69200134277344 C176.01600646972656,-98.43000030517578 174.83700561523438,-47.78499984741211 165.49000549316406,-18.871999740600586 C133.44900512695312,80.25599670410156 64.802001953125,132.05499267578125 49.15299987792969,142.83799743652344z"></path></g><g opacity="1" transform="matrix(1,0,0,1,0,0)"><path stroke-linecap="round" stroke-linejoin="round" fill-opacity="0" stroke="rgb(0,0,0)" stroke-opacity="1" stroke-width="8" d=" M49.15299987792969,142.83799743652344 C157.26100158691406,70.67400360107422 184.625,-9.350000381469727 191.6060028076172,-40.02299880981445 C201.28399658203125,-82.60900115966797 196.9770050048828,-146.35699462890625 196.9770050048828,-146.35699462890625 C189.55799865722656,-158.48599243164062 174.63900756835938,-166.30499267578125 174.63900756835938,-166.30499267578125 C174.63900756835938,-166.30499267578125 175.3939971923828,-150.95700073242188 175.6269989013672,-131.69200134277344 C176.01600646972656,-98.43000030517578 174.83700561523438,-47.78499984741211 165.49000549316406,-18.871999740600586 C133.44900512695312,80.25599670410156 64.802001953125,132.05499267578125 49.15299987792969,142.83799743652344z"></path></g></g><g opacity="1" transform="matrix(-1,0,0,1,0,0)"><g opacity="1" transform="matrix(1,0,0,1,0,0)"><path fill="url(#__lottie_element_62)" fill-opacity="1" d=" M1.2430000305175781,-84.6500015258789 C88.12899780273438,-83.49700164794922 159.4040069580078,-115.8290023803711 196.97500610351562,-146.3520050048828 C196.97500610351562,-146.3520050048828 200.29800415039062,-82.60399627685547 190.6219940185547,-40.02299880981445 C183.58399963378906,-9.048999786376953 156.35299682617188,67.63700103759766 49.15299987792969,142.83799743652344 C49.15299987792969,142.83799743652344 43.39500045776367,81.63999938964844 18.413999557495117,43.643001556396484 C-14.71500015258789,-6.748000144958496 1.2430000305175781,-84.6500015258789 1.2430000305175781,-84.6500015258789z"></path><path stroke-linecap="round" stroke-linejoin="round" fill-opacity="0" stroke="rgb(193,47,47)" stroke-opacity="1" stroke-width="8" d=" M1.2430000305175781,-84.6500015258789 C88.12899780273438,-83.49700164794922 159.4040069580078,-115.8290023803711 196.97500610351562,-146.3520050048828 C196.97500610351562,-146.3520050048828 200.29800415039062,-82.60399627685547 190.6219940185547,-40.02299880981445 C183.58399963378906,-9.048999786376953 156.35299682617188,67.63700103759766 49.15299987792969,142.83799743652344 C49.15299987792969,142.83799743652344 43.39500045776367,81.63999938964844 18.413999557495117,43.643001556396484 C-14.71500015258789,-6.748000144958496 1.2430000305175781,-84.6500015258789 1.2430000305175781,-84.6500015258789z"></path></g><g opacity="1" transform="matrix(1,0,0,1,0,0)"><path fill="url(#__lottie_element_63)" fill-opacity="1" d=" M28.29800033569336,65.13700103759766 C28.29800033569336,65.14700317382812 28.29800033569336,65.14700317382812 28.29800033569336,65.14700317382812 C42.38800048828125,100.13600158691406 42.44900131225586,123.41400146484375 42.44900131225586,123.41400146484375 C42.547000885009766,123.34500122070312 53.3489990234375,136.74000549316406 50.49399948120117,132.91799926757812 C66.09500122070312,125.50399780273438 67.63200378417969,118.30999755859375 85.01499938964844,100.31300354003906 C131.31100463867188,52.38199996948242 94.89700317382812,0.3269999921321869 94.89700317382812,0.3269999921321869 C53.03900146484375,-13.77299976348877 39.49300003051758,27.479000091552734 28.29800033569336,65.13700103759766z"></path></g><g opacity="1" transform="matrix(1,0,0,1,0,0)"><path stroke-linecap="round" stroke-linejoin="round" fill-opacity="0" stroke="rgb(82,6,6)" stroke-opacity="1" stroke-width="8" d=" M49.15299987792969,142.83799743652344 C49.15299987792969,142.83799743652344 43.39500045776367,81.63999938964844 18.413999557495117,43.643001556396484"></path></g><g opacity="1" transform="matrix(1,0,0,1,0,0)"><path fill="url(#__lottie_element_64)" fill-opacity="1" d=" M49.15299987792969,142.83799743652344 C157.26100158691406,70.67400360107422 184.625,-9.350000381469727 191.6060028076172,-40.02299880981445 C201.28399658203125,-82.60900115966797 196.9770050048828,-146.35699462890625 196.9770050048828,-146.35699462890625 C189.55799865722656,-158.48599243164062 174.63900756835938,-166.30499267578125 174.63900756835938,-166.30499267578125 C174.63900756835938,-166.30499267578125 175.3939971923828,-150.95700073242188 175.6269989013672,-131.69200134277344 C176.01600646972656,-98.43000030517578 174.83700561523438,-47.78499984741211 165.49000549316406,-18.871999740600586 C133.44900512695312,80.25599670410156 64.802001953125,132.05499267578125 49.15299987792969,142.83799743652344z"></path></g><g opacity="1" transform="matrix(1,0,0,1,0,0)"><path stroke-linecap="round" stroke-linejoin="round" fill-opacity="0" stroke="rgb(0,0,0)" stroke-opacity="1" stroke-width="8" d=" M49.15299987792969,142.83799743652344 C157.26100158691406,70.67400360107422 184.625,-9.350000381469727 191.6060028076172,-40.02299880981445 C201.28399658203125,-82.60900115966797 196.9770050048828,-146.35699462890625 196.9770050048828,-146.35699462890625 C189.55799865722656,-158.48599243164062 174.63900756835938,-166.30499267578125 174.63900756835938,-166.30499267578125 C174.63900756835938,-166.30499267578125 175.3939971923828,-150.95700073242188 175.6269989013672,-131.69200134277344 C176.01600646972656,-98.43000030517578 174.83700561523438,-47.78499984741211 165.49000549316406,-18.871999740600586 C133.44900512695312,80.25599670410156 64.802001953125,132.05499267578125 49.15299987792969,142.83799743652344z"></path></g></g></g><g style="display: block;" transform="matrix(1,0,0,1,256,256)" opacity="1"><g opacity="1" transform="matrix(1,0,0,1,0,0)"><g opacity="1" transform="matrix(1,0,0,1,0,0)"><path fill="rgb(255,168,0)" fill-opacity="1" d=" M-104.2979965209961,-35.4900016784668 C-121.58300018310547,-64.74099731445312 -151.4080047607422,-63.58399963378906 -151.4080047607422,-63.58399963378906 C-151.4080047607422,-46.582000732421875 -128.06199645996094,12.732000350952148 -100.94400024414062,3.2269999980926514"></path></g><g opacity="1" transform="matrix(1,0,0,1,0,0)"><path fill="url(#__lottie_element_54)" fill-opacity="1" d=" M-104.2979965209961,-35.4900016784668 C-121.58300018310547,-64.74099731445312 -151.4080047607422,-63.58399963378906 -151.4080047607422,-63.58399963378906 C-151.4080047607422,-46.582000732421875 -128.06199645996094,12.732000350952148 -100.94400024414062,3.2269999980926514"></path></g><g opacity="1" transform="matrix(1,0,0,1,0,0)"><path stroke-linecap="round" stroke-linejoin="round" fill-opacity="0" stroke="rgb(219,110,0)" stroke-opacity="1" stroke-width="8" d=" M-104.2979965209961,-35.4900016784668 C-121.58300018310547,-64.74099731445312 -151.4080047607422,-63.58399963378906 -151.4080047607422,-63.58399963378906 C-151.4080047607422,-46.582000732421875 -128.06199645996094,12.732000350952148 -100.94400024414062,3.2269999980926514"></path></g></g><g opacity="1" transform="matrix(-1,0,0,1,2,0)"><g opacity="1" transform="matrix(1,0,0,1,0,0)"><path fill="rgb(255,168,0)" fill-opacity="1" d=" M-104.2979965209961,-35.4900016784668 C-121.58300018310547,-64.74099731445312 -151.4080047607422,-63.58399963378906 -151.4080047607422,-63.58399963378906 C-151.4080047607422,-46.582000732421875 -128.06199645996094,12.732000350952148 -100.94400024414062,3.2269999980926514"></path></g><g opacity="1" transform="matrix(1,0,0,1,0,0)"><path fill="url(#__lottie_element_55)" fill-opacity="1" d=" M-104.2979965209961,-35.4900016784668 C-121.58300018310547,-64.74099731445312 -151.4080047607422,-63.58399963378906 -151.4080047607422,-63.58399963378906 C-151.4080047607422,-46.582000732421875 -128.06199645996094,12.732000350952148 -100.94400024414062,3.2269999980926514"></path></g><g opacity="1" transform="matrix(1,0,0,1,0,0)"><path stroke-linecap="round" stroke-linejoin="round" fill-opacity="0" stroke="rgb(219,110,0)" stroke-opacity="1" stroke-width="8" d=" M-104.2979965209961,-35.4900016784668 C-121.58300018310547,-64.74099731445312 -151.4080047607422,-63.58399963378906 -151.4080047607422,-63.58399963378906 C-151.4080047607422,-46.582000732421875 -128.06199645996094,12.732000350952148 -100.94400024414062,3.2269999980926514"></path></g></g></g><g style="display: block;" transform="matrix(1,0,0,1,256,256)" opacity="1"><g opacity="1" transform="matrix(1,0,0,1,0,0)"><path fill="rgb(255,168,0)" fill-opacity="1" d=" M86.53800201416016,-151.20799255371094 C66.46299743652344,-179.84500122070312 40.029998779296875,-186.58900451660156 0.28999999165534973,-186.58900451660156 C-39.44900131225586,-186.58900451660156 -65.88300323486328,-179.84500122070312 -85.95800018310547,-151.20799255371094 C-106.03299713134766,-122.5719985961914 -122.76200103759766,-10.315999984741211 -96.5530014038086,45.8120002746582 C-70.34400177001953,101.94000244140625 -26.06599998474121,117.73100280761719 0.28999999165534973,117.73100280761719 C26.645999908447266,117.73100280761719 70.92500305175781,101.94000244140625 97.13400268554688,45.8120002746582 C123.34300231933594,-10.315999984741211 106.61299896240234,-122.5719985961914 86.53800201416016,-151.20799255371094z"></path></g><g opacity="1" transform="matrix(1,0,0,1,0,0)"><path fill="url(#__lottie_element_50)" fill-opacity="1" d=" M80.90899658203125,-153.7570037841797 C62.14400100708008,-180.33099365234375 37.43600082397461,-186.58900451660156 0.28999999165534973,-186.58900451660156 C-36.85499954223633,-186.58900451660156 -61.564998626708984,-180.33099365234375 -80.3290023803711,-153.7570037841797 C-99.09400177001953,-127.18299865722656 -114.73100280761719,-23.014999389648438 -90.23200225830078,29.069000244140625 C-65.73400115966797,81.15299987792969 -24.34600067138672,96.78399658203125 0.28999999165534973,96.78399658203125 C24.926000595092773,96.78399658203125 66.31400299072266,81.15299987792969 90.81300354003906,29.069000244140625 C115.31099700927734,-23.014999389648438 99.67400360107422,-127.18299865722656 80.90899658203125,-153.7570037841797z"></path></g><g opacity="1" transform="matrix(1,0,0,1,0,0)"><path fill="rgb(219,110,0)" fill-opacity="0.4" d=" M2.6600000858306885,-185.5970001220703 C2.6600000858306885,-185.5970001220703 2.6600000858306885,-122.65299987792969 2.6600000858306885,-122.65299987792969 C-17.405000686645508,-122.65299987792969 -55.85900115966797,-140.52099609375 -65.13099670410156,-135.40899658203125 C-73.46199798583984,-130.8070068359375 -97.35299682617188,-40.49800109863281 -102.12200164794922,-22.198999404907227 C-105.87000274658203,-73.5739974975586 -93.91899871826172,-133.53500366210938 -80.33000183105469,-152.7760009765625 C-61.56999969482422,-179.3470001220703 -36.85300064086914,-185.6060028076172 0.2849999964237213,-185.6060028076172 C1.0800000429153442,-185.6060028076172 1.875,-185.60699462890625 2.6600000858306885,-185.5970001220703z"></path></g><g opacity="1" transform="matrix(1,0,0,1,0,0)"><path fill="rgb(219,110,0)" fill-opacity="0.4" d=" M2.6600000858306885,-185.5970001220703 C2.6600000858306885,-185.5970001220703 2.6600000858306885,-122.65299987792969 2.6600000858306885,-122.65299987792969 C22.725000381469727,-122.65299987792969 61.178001403808594,-140.52099609375 70.44999694824219,-135.40899658203125 C78.78099822998047,-130.8070068359375 102.6719970703125,-40.49800109863281 107.44100189208984,-22.198999404907227 C111.18900299072266,-73.5739974975586 99.23799896240234,-133.53500366210938 85.64900207519531,-152.7760009765625 C66.88899993896484,-179.3470001220703 42.172000885009766,-185.6060028076172 5.033999919891357,-185.6060028076172 C4.238999843597412,-185.6060028076172 3.444999933242798,-185.60699462890625 2.6600000858306885,-185.5970001220703z"></path></g><g opacity="1" transform="matrix(1,0,0,1,0,0)"><path stroke-linecap="round" stroke-linejoin="round" fill-opacity="0" stroke="rgb(219,110,0)" stroke-opacity="1" stroke-width="8" d=" M86.53800201416016,-151.20799255371094 C66.46299743652344,-179.84500122070312 40.029998779296875,-186.58900451660156 0.28999999165534973,-186.58900451660156 C-39.44900131225586,-186.58900451660156 -65.88300323486328,-179.84500122070312 -85.95800018310547,-151.20799255371094 C-106.03299713134766,-122.5719985961914 -122.76200103759766,-10.315999984741211 -96.5530014038086,45.8120002746582 C-70.34400177001953,101.94000244140625 -26.06599998474121,116.75 0.28999999165534973,116.75 C26.645999908447266,116.75 70.92500305175781,101.94000244140625 97.13400268554688,45.8120002746582 C123.34300231933594,-10.315999984741211 106.61299896240234,-122.5719985961914 86.53800201416016,-151.20799255371094z"></path></g></g><g style="display: block;" transform="matrix(1,0,0,1,256,256)" opacity="1"><g opacity="1" transform="matrix(1,0,0,1,0,0)"><g opacity="1" transform="matrix(1,0,0,1,0,0)"><path fill="rgb(255,255,255)" fill-opacity="1" d=" M24.913000106811523,-18.27899932861328 C24.913000106811523,-18.27899932861328 24.90399932861328,-49.39799880981445 50.499000549316406,-52.527000427246094 C79.8239974975586,-56.111000061035156 83.625,-22.298999786376953 83.625,-22.298999786376953 C83.625,-22.298999786376953 76.12100219726562,-10.427000045776367 59.04899978637695,-8.428000450134277 C35.87799835205078,-5.715000152587891 24.913000106811523,-18.27899932861328 24.913000106811523,-18.27899932861328z"></path></g><g opacity="1" transform="matrix(1,0,0,1,103.68800354003906,0)"><g opacity="1" transform="matrix(1,0,0,1,0,0)"><path fill="url(#__lottie_element_41)" fill-opacity="1" d=" M-32.792999267578125,-29.875999450683594 C-32.792999267578125,-19.291000366210938 -40.933998107910156,-10.710000038146973 -50.97600173950195,-10.710000038146973 C-61.018001556396484,-10.710000038146973 -69.16000366210938,-19.291000366210938 -69.16000366210938,-29.875999450683594 C-69.16000366210938,-40.46099853515625 -61.018001556396484,-49.04199981689453 -50.97600173950195,-49.04199981689453 C-40.933998107910156,-49.04199981689453 -32.792999267578125,-40.46099853515625 -32.792999267578125,-29.875999450683594z"></path></g><g opacity="1" transform="matrix(1,0,0,1,0,0)"><g opacity="1" transform="matrix(1,0,0,1,0,0)"><path fill="url(#__lottie_element_42)" fill-opacity="1" d=" M-46.31800079345703,-11.583999633789062 C-47.73899841308594,-11.583999633789062 -49.05400085449219,-12.552000045776367 -49.494998931884766,-14.057999610900879 C-50.0369987487793,-15.907999992370605 -49.053001403808594,-17.871000289916992 -47.297000885009766,-18.44099998474121 C-43.93899917602539,-19.533000946044922 -41.266998291015625,-22.281999588012695 -40.14799880981445,-25.79599952697754 C-39.5629997253418,-27.631999969482422 -37.67499923706055,-28.618000030517578 -35.9370002746582,-28.003000259399414 C-34.19499969482422,-27.386999130249023 -33.25699996948242,-25.39900016784668 -33.84199905395508,-23.56399917602539 C-35.64099884033203,-17.916000366210938 -39.9370002746582,-13.496000289916992 -45.33700180053711,-11.741000175476074 C-45.66299819946289,-11.635000228881836 -45.99399948120117,-11.583999633789062 -46.31800079345703,-11.583999633789062z"></path></g></g><g opacity="1" transform="matrix(1,0,0,1,0,0)"><path fill="rgb(24,19,9)" fill-opacity="1" d=" M-39.48400115966797,-29.875999450683594 C-39.48400115966797,-23.18600082397461 -44.62900161743164,-17.76300048828125 -50.97600173950195,-17.76300048828125 C-57.323001861572266,-17.76300048828125 -62.46799850463867,-23.18600082397461 -62.46799850463867,-29.875999450683594 C-62.46799850463867,-36.566001892089844 -57.323001861572266,-41.98899841308594 -50.97600173950195,-41.98899841308594 C-44.62900161743164,-41.98899841308594 -39.48400115966797,-36.566001892089844 -39.48400115966797,-29.875999450683594z"></path></g><g opacity="1" transform="matrix(1,0,0,1,0,0)"><path fill="url(#__lottie_element_43)" fill-opacity="1" d=" M-51.95500183105469,-40.31999969482422 C-51.95500183105469,-37.604000091552734 -53.926998138427734,-35.402000427246094 -56.35900115966797,-35.402000427246094 C-58.79100036621094,-35.402000427246094 -60.762001037597656,-37.604000091552734 -60.762001037597656,-40.31999969482422 C-60.762001037597656,-43.0369987487793 -58.79100036621094,-45.23899841308594 -56.35900115966797,-45.23899841308594 C-53.926998138427734,-45.23899841308594 -51.95500183105469,-43.0369987487793 -51.95500183105469,-40.31999969482422z"></path></g></g><g opacity="1" transform="matrix(1,0,0,1,0,0)"><path fill="rgb(163,65,0)" fill-opacity="1" d=" M26.159000396728516,-27.829999923706055 C26.159000396728516,-27.829999923706055 31.9060001373291,-51.96500015258789 53.62900161743164,-52.2239990234375 C74.41600036621094,-52.47200012207031 81.26000213623047,-32.75699996948242 81.26000213623047,-32.75699996948242 C81.26000213623047,-32.75699996948242 74.38800048828125,-54.72200012207031 51.909000396728516,-53.52000045776367 C32.172000885009766,-52.4640007019043 26.159000396728516,-27.829999923706055 26.159000396728516,-27.829999923706055z"></path><path stroke-linecap="round" stroke-linejoin="round" fill-opacity="0" stroke="rgb(163,65,0)" stroke-opacity="1" stroke-width="2" d=" M26.159000396728516,-27.829999923706055 C26.159000396728516,-27.829999923706055 31.9060001373291,-51.96500015258789 53.62900161743164,-52.2239990234375 C74.41600036621094,-52.47200012207031 81.26000213623047,-32.75699996948242 81.26000213623047,-32.75699996948242 C81.26000213623047,-32.75699996948242 74.38800048828125,-54.72200012207031 51.909000396728516,-53.52000045776367 C32.172000885009766,-52.4640007019043 26.159000396728516,-27.829999923706055 26.159000396728516,-27.829999923706055z"></path></g></g><g opacity="1" transform="matrix(1,0,0,1,0,0)"><g opacity="1" transform="matrix(1,0,0,1,0,0)"><path fill="rgb(255,255,255)" fill-opacity="1" d=" M-23.395999908447266,-18.27899932861328 C-23.395999908447266,-18.27899932861328 -23.386999130249023,-49.39799880981445 -48.981998443603516,-52.527000427246094 C-78.30699920654297,-56.111000061035156 -82.10900115966797,-22.298999786376953 -82.10900115966797,-22.298999786376953 C-82.10900115966797,-22.298999786376953 -74.60399627685547,-10.427000045776367 -57.53200149536133,-8.428000450134277 C-34.361000061035156,-5.715000152587891 -23.395999908447266,-18.27899932861328 -23.395999908447266,-18.27899932861328z"></path></g><g opacity="1" transform="matrix(1,0,0,1,0,0)"><g opacity="1" transform="matrix(1,0,0,1,0,0)"><path fill="url(#__lottie_element_44)" fill-opacity="1" d=" M-32.792999267578125,-29.875999450683594 C-32.792999267578125,-19.291000366210938 -40.933998107910156,-10.710000038146973 -50.97600173950195,-10.710000038146973 C-61.018001556396484,-10.710000038146973 -69.16000366210938,-19.291000366210938 -69.16000366210938,-29.875999450683594 C-69.16000366210938,-40.46099853515625 -61.018001556396484,-49.04199981689453 -50.97600173950195,-49.04199981689453 C-40.933998107910156,-49.04199981689453 -32.792999267578125,-40.46099853515625 -32.792999267578125,-29.875999450683594z"></path></g><g opacity="1" transform="matrix(1,0,0,1,0,0)"><g opacity="1" transform="matrix(1,0,0,1,0,0)"><path fill="url(#__lottie_element_45)" fill-opacity="1" d=" M-46.31800079345703,-11.583999633789062 C-47.73899841308594,-11.583999633789062 -49.05400085449219,-12.552000045776367 -49.494998931884766,-14.057999610900879 C-50.0369987487793,-15.907999992370605 -49.053001403808594,-17.871000289916992 -47.297000885009766,-18.44099998474121 C-43.93899917602539,-19.533000946044922 -41.266998291015625,-22.281999588012695 -40.14799880981445,-25.79599952697754 C-39.5629997253418,-27.631999969482422 -37.67499923706055,-28.618000030517578 -35.9370002746582,-28.003000259399414 C-34.19499969482422,-27.386999130249023 -33.25699996948242,-25.39900016784668 -33.84199905395508,-23.56399917602539 C-35.64099884033203,-17.916000366210938 -39.9370002746582,-13.496000289916992 -45.33700180053711,-11.741000175476074 C-45.66299819946289,-11.635000228881836 -45.99399948120117,-11.583999633789062 -46.31800079345703,-11.583999633789062z"></path></g></g><g opacity="1" transform="matrix(1,0,0,1,0,0)"><path fill="rgb(24,19,9)" fill-opacity="1" d=" M-39.48400115966797,-29.875999450683594 C-39.48400115966797,-23.18600082397461 -44.62900161743164,-17.76300048828125 -50.97600173950195,-17.76300048828125 C-57.323001861572266,-17.76300048828125 -62.46799850463867,-23.18600082397461 -62.46799850463867,-29.875999450683594 C-62.46799850463867,-36.566001892089844 -57.323001861572266,-41.98899841308594 -50.97600173950195,-41.98899841308594 C-44.62900161743164,-41.98899841308594 -39.48400115966797,-36.566001892089844 -39.48400115966797,-29.875999450683594z"></path></g><g opacity="1" transform="matrix(1,0,0,1,0,0)"><path fill="url(#__lottie_element_46)" fill-opacity="1" d=" M-51.95500183105469,-40.31999969482422 C-51.95500183105469,-37.604000091552734 -53.926998138427734,-35.402000427246094 -56.35900115966797,-35.402000427246094 C-58.79100036621094,-35.402000427246094 -60.762001037597656,-37.604000091552734 -60.762001037597656,-40.31999969482422 C-60.762001037597656,-43.0369987487793 -58.79100036621094,-45.23899841308594 -56.35900115966797,-45.23899841308594 C-53.926998138427734,-45.23899841308594 -51.95500183105469,-43.0369987487793 -51.95500183105469,-40.31999969482422z"></path></g></g><g opacity="1" transform="matrix(1,0,0,1,0,0)"><path fill="rgb(163,65,0)" fill-opacity="1" d=" M-24.64299964904785,-27.829999923706055 C-24.64299964904785,-27.829999923706055 -30.389999389648438,-51.96500015258789 -52.112998962402344,-52.2239990234375 C-72.9000015258789,-52.47200012207031 -79.74299621582031,-32.75699996948242 -79.74299621582031,-32.75699996948242 C-79.74299621582031,-32.75699996948242 -72.87100219726562,-54.72200012207031 -50.391998291015625,-53.52000045776367 C-30.655000686645508,-52.4640007019043 -24.64299964904785,-27.829999923706055 -24.64299964904785,-27.829999923706055z"></path><path stroke-linecap="round" stroke-linejoin="round" fill-opacity="0" stroke="rgb(163,65,0)" stroke-opacity="1" stroke-width="2" d=" M-24.64299964904785,-27.829999923706055 C-24.64299964904785,-27.829999923706055 -30.389999389648438,-51.96500015258789 -52.112998962402344,-52.2239990234375 C-72.9000015258789,-52.47200012207031 -79.74299621582031,-32.75699996948242 -79.74299621582031,-32.75699996948242 C-79.74299621582031,-32.75699996948242 -72.87100219726562,-54.72200012207031 -50.391998291015625,-53.52000045776367 C-30.655000686645508,-52.4640007019043 -24.64299964904785,-27.829999923706055 -24.64299964904785,-27.829999923706055z"></path></g></g></g><g style="display: block;" transform="matrix(1,0,0,1,256,256)" opacity="1"><g opacity="1" transform="matrix(1,0,0,1,0,0)"><path stroke-linecap="round" stroke-linejoin="round" fill-opacity="0" stroke="rgb(0,0,0)" stroke-opacity="1" stroke-width="13" d=" M-37.92599868774414,-70.88700103759766 C-37.92599868774414,-70.88700103759766 -56.24399948120117,-73.49400329589844 -69.76699829101562,-66.19999694824219"></path></g><g opacity="1" transform="matrix(1,0,0,1,0,0)"><path stroke-linecap="round" stroke-linejoin="round" fill-opacity="0" stroke="rgb(0,0,0)" stroke-opacity="1" stroke-width="13" d=" M40.31100082397461,-70.88700103759766 C40.31100082397461,-70.88700103759766 58.62900161743164,-73.49400329589844 72.1520004272461,-66.19999694824219"></path></g></g><g style="display: block;" transform="matrix(1,0,0,1,256,256)" opacity="1"><g opacity="1" transform="matrix(1,0,0,1,0,-0.25)"><path fill="url(#__lottie_element_33)" fill-opacity="0.5" d=" M24.843000411987305,63.250999450683594 C24.843000411987305,63.250999450683594 15.812999725341797,71.375 0.28999999165534973,71.2509994506836 C-14.1899995803833,71.13500213623047 -24.26300048828125,63.250999450683594 -24.26300048828125,63.250999450683594 C-24.26300048828125,63.250999450683594 -22.509000778198242,62.481998443603516 -22.465999603271484,67.43399810791016 C-22.445999145507812,69.67500305175781 -21.91900062561035,74.66400146484375 -21.91900062561035,74.66400146484375 C-15.215999603271484,74.66400146484375 -10.305000305175781,79.85900115966797 0.28999999165534973,79.85900115966797 C10.347000122070312,79.85900115966797 16.13599967956543,74.66400146484375 22.499000549316406,74.66400146484375 C22.499000549316406,74.66400146484375 23.024999618530273,69.67500305175781 23.045000076293945,67.43399810791016 C23.08799934387207,62.481998443603516 24.843000411987305,63.250999450683594 24.843000411987305,63.250999450683594z"></path></g><g opacity="1" transform="matrix(1,0,0,1,0,-0.25)"><path fill="url(#__lottie_element_34)" fill-opacity="0.65" d=" M-36.02199935913086,48.14899826049805 C-36.02199935913086,51.15299987792969 -25.09600067138672,71.20500183105469 0.28999999165534973,71.20500183105469 C25.676000595092773,71.20500183105469 36.61600112915039,51.04399871826172 36.61600112915039,48.14899826049805 C36.61600112915039,45.25400161743164 -36.02199935913086,45.14500045776367 -36.02199935913086,48.14899826049805z"></path></g><g opacity="1" transform="matrix(1,0,0,1,0,0)"><path fill="rgb(75,0,7)" fill-opacity="1" d=" M36.61600112915039,48.14899826049805 C36.61600112915039,44.94200134277344 26.173999786376953,45.263999938964844 0.296999990940094,45.263999938964844 C-25.579999923706055,45.263999938964844 -36.02199935913086,44.94200134277344 -36.02199935913086,48.14899826049805 C-36.02199935913086,50 -21.003000259399414,65.04299926757812 0.28999999165534973,65.04299926757812 C21.58300018310547,65.04299926757812 36.61600112915039,50 36.61600112915039,48.14899826049805z"></path></g><g opacity="1" transform="matrix(1,0,0,1,0,0)"><g opacity="1" transform="matrix(1,0,0,1,0,0)"><g opacity="1" transform="matrix(1,0,0,1,0,0)"><path fill="rgb(229,239,249)" fill-opacity="1" d=" M21.628999710083008,74.9530029296875 C21.298999786376953,74.9530029296875 20.988000869750977,74.78700256347656 20.80500030517578,74.50499725341797 C20.66699981689453,74.29000091552734 19.402999877929688,72.11199951171875 17.665000915527344,61.53799819946289 C16.75,55.97800064086914 16.035999298095703,48.74599838256836 16.02899932861328,48.67300033569336 C15.984000205993652,48.21799850463867 16.260000228881836,47.79199981689453 16.694000244140625,47.64699935913086 C16.75200080871582,47.62799835205078 18.148000717163086,47.167999267578125 20.16699981689453,47.167999267578125 C22.51300048828125,47.167999267578125 24.698999404907227,47.76300048828125 26.663000106811523,48.93600082397461 C26.98699951171875,49.130001068115234 27.170000076293945,49.4900016784668 27.136999130249023,49.86600112915039 C27.131999969482422,49.915000915527344 26.674999237060547,54.880001068115234 25.18899917602539,62.5880012512207 C24.16900062561035,67.87899780273438 22.597000122070312,74.14800262451172 22.58099937438965,74.21099853515625 C22.486000061035156,74.58899688720703 22.173999786376953,74.87699890136719 21.788999557495117,74.94000244140625 C21.735000610351562,74.94999694824219 21.68199920654297,74.9530029296875 21.628999710083008,74.9530029296875z"></path></g><g opacity="1" transform="matrix(1,0,0,1,0,0)"><path fill="rgb(180,184,193)" fill-opacity="1" d=" M20.165000915527344,48.14899826049805 C21.843000411987305,48.14899826049805 24.000999450683594,48.4900016784668 26.159000396728516,49.77799987792969 C26.159000396728516,49.77799987792969 25.719999313354492,54.654998779296875 24.22599983215332,62.402000427246094 C23.198999404907227,67.72799682617188 21.628999710083008,73.97100067138672 21.628999710083008,73.97100067138672 C21.628999710083008,73.97100067138672 20.38800048828125,72.05500030517578 18.632999420166016,61.37900161743164 C17.714000701904297,55.7859992980957 17.006000518798828,48.57699966430664 17.006000518798828,48.57699966430664 C17.006000518798828,48.57699966430664 18.284000396728516,48.14899826049805 20.165000915527344,48.14899826049805 M20.166000366210938,46.1870002746582 C20.166000366210938,46.1870002746582 20.166000366210938,46.1870002746582 20.166000366210938,46.1870002746582 C18.027000427246094,46.1870002746582 16.545000076293945,46.6619987487793 16.382999420166016,46.715999603271484 C15.515000343322754,47.00600051879883 14.96399974822998,47.858001708984375 15.053000450134277,48.76900100708008 C15.081999778747559,49.066001892089844 15.777000427246094,56.10599899291992 16.695999145507812,61.698001861572266 C18.38599967956543,71.97899627685547 19.638999938964844,74.50800323486328 19.98200035095215,75.03800201416016 C20.347000122070312,75.60199737548828 20.97100067138672,75.93399810791016 21.628999710083008,75.93399810791016 C21.736000061035156,75.93399810791016 21.843000411987305,75.92500305175781 21.950000762939453,75.90699768066406 C22.72100067138672,75.77899932861328 23.341999053955078,75.20700073242188 23.531999588012695,74.44999694824219 C23.54800033569336,74.38700103759766 25.128000259399414,68.09300231933594 26.152999877929688,62.77399826049805 C27.648000717163086,55.01900100708008 28.09600067138672,50.15700149536133 28.11400032043457,49.95399856567383 C28.18199920654297,49.202999114990234 27.812000274658203,48.47999954223633 27.165000915527344,48.09299850463867 C25.04599952697754,46.827999114990234 22.691999435424805,46.1870002746582 20.166000366210938,46.1870002746582 C20.166000366210938,46.1870002746582 20.166000366210938,46.1870002746582 20.166000366210938,46.1870002746582z"></path></g></g><g opacity="1" transform="matrix(1,0,0,1,0,0)"><g opacity="1" transform="matrix(1,0,0,1,0,0)"><path fill="rgb(229,239,249)" fill-opacity="1" d=" M-21.048999786376953,74.9530029296875 C-21.11199951171875,74.9530029296875 -21.177000045776367,74.9469985961914 -21.239999771118164,74.93499755859375 C-21.61199951171875,74.86100006103516 -21.908000946044922,74.5790023803711 -22,74.21099853515625 C-22.016000747680664,74.14800262451172 -23.58799934387207,67.87899780273438 -24.608999252319336,62.5880012512207 C-26.094999313354492,54.880001068115234 -26.552000045776367,49.915000915527344 -26.55699920654297,49.86600112915039 C-26.593000411987305,49.46500015258789 -26.378999710083008,49.082000732421875 -26.018999099731445,48.9010009765625 C-23.437999725341797,47.608001708984375 -20.864999771118164,47.33700180053711 -19.160999298095703,47.33700180053711 C-17.41900062561035,47.33700180053711 -16.24799919128418,47.61199951171875 -16.198999404907227,47.62300109863281 C-15.722000122070312,47.736000061035156 -15.402000427246094,48.183998107910156 -15.449000358581543,48.672000885009766 C-15.456000328063965,48.744998931884766 -16.156999588012695,55.981998443603516 -17.084999084472656,61.54100036621094 C-18.875,72.26300048828125 -20.042999267578125,74.26300048828125 -20.260000228881836,74.55500030517578 C-20.44700050354004,74.80799865722656 -20.740999221801758,74.9530029296875 -21.048999786376953,74.9530029296875z"></path></g><g opacity="1" transform="matrix(1,0,0,1,0,0)"><path fill="rgb(180,184,193)" fill-opacity="1" d=" M-19.160999298095703,48.31800079345703 C-17.514999389648438,48.31800079345703 -16.426000595092773,48.57699966430664 -16.426000595092773,48.57699966430664 C-16.426000595092773,48.57699966430664 -17.1200008392334,55.78799819946289 -18.05299949645996,61.37900161743164 C-19.893999099731445,72.41200256347656 -21.048999786376953,73.97100067138672 -21.048999786376953,73.97100067138672 C-21.048999786376953,73.97100067138672 -22.618999481201172,67.72799682617188 -23.645999908447266,62.402000427246094 C-25.139999389648438,54.654998779296875 -25.579999923706055,49.77799987792969 -25.579999923706055,49.77799987792969 C-23.235000610351562,48.604000091552734 -20.889999389648438,48.31800079345703 -19.160999298095703,48.31800079345703 M-19.160999298095703,46.35499954223633 C-20.969999313354492,46.35499954223633 -23.704999923706055,46.64400100708008 -26.45800018310547,48.02299880981445 C-27.179000854492188,48.38399887084961 -27.606000900268555,49.150001525878906 -27.534000396728516,49.95399856567383 C-27.516000747680664,50.15700149536133 -27.06800079345703,55.01900100708008 -25.572999954223633,62.77399826049805 C-24.54800033569336,68.09300231933594 -22.968000411987305,74.38700103759766 -22.95199966430664,74.44999694824219 C-22.767000198364258,75.18599700927734 -22.173999786376953,75.7490005493164 -21.43000030517578,75.89600372314453 C-21.30299949645996,75.9209976196289 -21.176000595092773,75.93399810791016 -21.048999786376953,75.93399810791016 C-20.434999465942383,75.93399810791016 -19.84600067138672,75.64399719238281 -19.472000122070312,75.13899993896484 C-18.559999465942383,73.90699768066406 -17.336999893188477,69.00900268554688 -16.117000579833984,61.70199966430664 C-15.184000015258789,56.108001708984375 -14.50100040435791,49.0620002746582 -14.472999572753906,48.76499938964844 C-14.378999710083008,47.790000915527344 -15.017999649047852,46.89500045776367 -15.970999717712402,46.667999267578125 C-16.104999542236328,46.63600158691406 -17.336999893188477,46.35499954223633 -19.160999298095703,46.35499954223633 C-19.160999298095703,46.35499954223633 -19.160999298095703,46.35499954223633 -19.160999298095703,46.35499954223633z"></path></g></g><g opacity="1" transform="matrix(1,0,0,1,0,0)"><path fill="rgb(180,184,193)" fill-opacity="0.5" d=" M-16.423999786376953,48.10900115966797 C-16.423999786376953,48.10900115966797 -15.923999786376953,49.48099899291992 -16.423999786376953,53.395999908447266 C-18.80699920654297,51.06700134277344 -23.135000228881836,51.141998291015625 -26.1200008392334,52.70899963378906 C-26.511999130249023,49.94200134277344 -25.57900047302246,49.316001892089844 -25.57900047302246,49.316001892089844 C-21.006000518798828,47.02000045776367 -16.423999786376953,48.10900115966797 -16.423999786376953,48.10900115966797z"></path></g><g opacity="1" transform="matrix(1,0,0,1,0,0)"><path fill="rgb(180,184,193)" fill-opacity="0.5" d=" M16.79800033569336,48.10900115966797 C16.79800033569336,48.10900115966797 16.29800033569336,49.48099899291992 16.79800033569336,53.395999908447266 C19.180999755859375,51.06700134277344 23.509000778198242,51.141998291015625 26.493999481201172,52.70899963378906 C26.88599967956543,49.94200134277344 25.95199966430664,49.316001892089844 25.95199966430664,49.316001892089844 C21.378999710083008,47.02000045776367 16.79800033569336,48.10900115966797 16.79800033569336,48.10900115966797z"></path></g></g></g><g style="display: block;" transform="matrix(1,0,0,1,256,256)" opacity="1"><g opacity="1" transform="matrix(1,0,0,1,0,0)"><path fill="rgb(45,45,45)" fill-opacity="1" d=" M120.29100036621094,-113.27200317382812 C117.79299926757812,-144.69200134277344 103.81700134277344,-158.68099975585938 98.4749984741211,-162.9550018310547 C93.13300323486328,-167.22900390625 93.41799926757812,-176.59800720214844 80.84500122070312,-186.58900451660156 C61.709999084472656,-201.7949981689453 23.16900062561035,-216.46499633789062 2.6640000343322754,-216.46499633789062 C-17.840999603271484,-216.46499633789062 -56.38199996948242,-201.7949981689453 -75.51699829101562,-186.58900451660156 C-88.08999633789062,-176.59800720214844 -87.80400085449219,-167.22900390625 -93.14600372314453,-162.9550018310547 C-98.48799896240234,-158.68099975585938 -112.46499633789062,-144.69200134277344 -114.96299743652344,-113.27200317382812 C-116.83300018310547,-89.74800109863281 -113.12000274658203,-47.055999755859375 -102.9530029296875,-19.957000732421875 C-102.9530029296875,-19.957000732421875 -99.02300262451172,-61.946998596191406 -89.94100189208984,-101.23200225830078 C-80.85900115966797,-140.51699829101562 -74.7020034790039,-150.66799926757812 -69.76699829101562,-152.27099609375 C-64.83200073242188,-153.87399291992188 -12.645999908447266,-127.16200256347656 2.6640000343322754,-127.16200256347656 C17.972999572753906,-127.16200256347656 70.16100311279297,-153.87399291992188 75.09600067138672,-152.27099609375 C80.03099822998047,-150.66799926757812 86.18800354003906,-140.51699829101562 95.2699966430664,-101.23200225830078 C104.35199737548828,-61.946998596191406 108.28199768066406,-19.957000732421875 108.28199768066406,-19.957000732421875 C118.4489974975586,-47.055999755859375 122.16100311279297,-89.74800109863281 120.29100036621094,-113.27200317382812z"></path></g><g opacity="1" transform="matrix(1,0,0,1,0,0)"><path fill="rgb(56,55,54)" fill-opacity="1" d=" M-84.61699676513672,-122.21199798583984 C-86.2750015258789,-116.36399841308594 -88.0510025024414,-109.43699645996094 -89.94499969482422,-101.23400115966797 C-99.02100372314453,-61.946998596191406 -102.95600128173828,-19.961999893188477 -102.95600128173828,-19.961999893188477 C-113.12100219726562,-47.053001403808594 -116.8290023803711,-89.74400329589844 -114.96499633789062,-113.27300262451172 C-114.58200073242188,-118.0999984741211 -113.9260025024414,-122.50599670410156 -113.08200073242188,-126.53900146484375 C-113.08200073242188,-126.53900146484375 -113.0719985961914,-126.53900146484375 -113.0719985961914,-126.53900146484375 C-113.0719985961914,-126.53900146484375 -103.40699768066406,-119.33699798583984 -84.61699676513672,-122.21199798583984z"></path></g><g opacity="1" transform="matrix(1,0,0,1,0,0)"><path fill="rgb(110,108,105)" fill-opacity="1" d=" M-90.4260025024414,-99.1050033569336 C-99.15899658203125,-60.44599914550781 -102.95600128173828,-19.961999893188477 -102.95600128173828,-19.961999893188477 C-111.56099700927734,-42.902000427246094 -115.54499816894531,-77.02799987792969 -115.41699981689453,-101.23400115966797 C-115.03399658203125,-101.0770034790039 -105.13400268554688,-97.18199920654297 -90.4260025024414,-99.1050033569336z"></path></g><g opacity="1" transform="matrix(1,0,0,1,0,0)"><path fill="rgb(166,161,155)" fill-opacity="1" d=" M-95.01799774169922,-76.4000015258789 C-100.50299835205078,-46.08100128173828 -102.95600128173828,-19.961999893188477 -102.95600128173828,-19.961999893188477 C-108.98100280761719,-36.02399826049805 -112.73799896240234,-57.58000183105469 -114.40599822998047,-77.37100219726562 C-114.01300048828125,-77.2239990234375 -105.39900207519531,-73.85900115966797 -95.01799774169922,-76.4000015258789z"></path></g><g opacity="1" transform="matrix(1,0,0,1,0,0)"><path fill="rgb(120,118,112)" fill-opacity="1" d=" M-98.38300323486328,-56.10900115966797 C-101.52300262451172,-35.29800033569336 -102.95600128173828,-19.961999893188477 -102.95600128173828,-19.961999893188477 C-106.86100006103516,-30.363000869750977 -109.81400299072266,-43.069000244140625 -111.8550033569336,-56.10900115966797 C-111.8550033569336,-56.10900115966797 -104.3489990234375,-54.96099853515625 -98.38300323486328,-56.10900115966797z"></path></g><g opacity="1" transform="matrix(1,0,0,1,0,0)"><path fill="rgb(56,55,54)" fill-opacity="1" d=" M89.63099670410156,-122.21199798583984 C91.28900146484375,-116.36399841308594 93.06500244140625,-109.43699645996094 94.95899963378906,-101.23400115966797 C104.03500366210938,-61.946998596191406 107.96900177001953,-19.961999893188477 107.96900177001953,-19.961999893188477 C118.13400268554688,-47.053001403808594 121.84300231933594,-89.74400329589844 119.97899627685547,-113.27300262451172 C119.59600067138672,-118.0999984741211 118.93900299072266,-122.50599670410156 118.09500122070312,-126.53900146484375 C118.09500122070312,-126.53900146484375 118.08599853515625,-126.53900146484375 118.08599853515625,-126.53900146484375 C118.08599853515625,-126.53900146484375 108.4209976196289,-119.33699798583984 89.63099670410156,-122.21199798583984z"></path></g><g opacity="1" transform="matrix(1,0,0,1,0,0)"><path fill="rgb(110,108,105)" fill-opacity="1" d=" M95.44000244140625,-99.1050033569336 C104.1729965209961,-60.44599914550781 107.96900177001953,-19.961999893188477 107.96900177001953,-19.961999893188477 C116.5739974975586,-42.902000427246094 120.55899810791016,-77.02799987792969 120.43099975585938,-101.23400115966797 C120.0479965209961,-101.0770034790039 110.14800262451172,-97.18199920654297 95.44000244140625,-99.1050033569336z"></path></g><g opacity="1" transform="matrix(1,0,0,1,0,0)"><path fill="rgb(166,161,155)" fill-opacity="1" d=" M100.03199768066406,-76.4000015258789 C105.51699829101562,-46.08100128173828 107.96900177001953,-19.961999893188477 107.96900177001953,-19.961999893188477 C113.99400329589844,-36.02399826049805 117.75199890136719,-57.58000183105469 119.41999816894531,-77.37100219726562 C119.0270004272461,-77.2239990234375 110.41300201416016,-73.85900115966797 100.03199768066406,-76.4000015258789z"></path></g><g opacity="1" transform="matrix(1,0,0,1,0,0)"><path fill="rgb(120,118,112)" fill-opacity="1" d=" M103.39700317382812,-56.10900115966797 C106.53700256347656,-35.29800033569336 107.96900177001953,-19.961999893188477 107.96900177001953,-19.961999893188477 C111.8740005493164,-30.363000869750977 114.8280029296875,-43.069000244140625 116.86900329589844,-56.10900115966797 C116.86900329589844,-56.10900115966797 109.36299896240234,-54.96099853515625 103.39700317382812,-56.10900115966797z"></path></g><g opacity="1" transform="matrix(1,0,0,1,0,0)"><path fill="url(#__lottie_element_28)" fill-opacity="1" d=" M120.29100036621094,-113.27200317382812 C117.79299926757812,-144.69200134277344 103.81700134277344,-158.68099975585938 98.4749984741211,-162.9550018310547 C93.13300323486328,-167.22900390625 93.41799926757812,-176.59800720214844 80.84500122070312,-186.58900451660156 C61.709999084472656,-201.7949981689453 23.16900062561035,-216.46499633789062 2.6640000343322754,-216.46499633789062 C-17.840999603271484,-216.46499633789062 -56.38199996948242,-201.7949981689453 -75.51699829101562,-186.58900451660156 C-88.08999633789062,-176.59800720214844 -87.80400085449219,-167.22900390625 -93.14600372314453,-162.9550018310547 C-98.48799896240234,-158.68099975585938 -112.46499633789062,-144.69200134277344 -114.96299743652344,-113.27200317382812 C-116.83300018310547,-89.74800109863281 -113.12000274658203,-47.055999755859375 -102.9530029296875,-19.957000732421875 C-102.9530029296875,-19.957000732421875 -99.02300262451172,-61.946998596191406 -89.94100189208984,-101.23200225830078 C-80.85900115966797,-140.51699829101562 -74.7020034790039,-150.66799926757812 -69.76699829101562,-152.27099609375 C-64.83200073242188,-153.87399291992188 -12.645999908447266,-127.16200256347656 2.6640000343322754,-127.16200256347656 C17.972999572753906,-127.16200256347656 70.16100311279297,-153.87399291992188 75.09600067138672,-152.27099609375 C80.03099822998047,-150.66799926757812 86.18800354003906,-140.51699829101562 95.2699966430664,-101.23200225830078 C104.35199737548828,-61.946998596191406 108.28199768066406,-19.957000732421875 108.28199768066406,-19.957000732421875 C118.4489974975586,-47.055999755859375 122.16100311279297,-89.74800109863281 120.29100036621094,-113.27200317382812z"></path></g><g opacity="1" transform="matrix(1,0,0,1,0,0)"><path fill="url(#__lottie_element_29)" fill-opacity="0.9" d=" M76.58699798583984,-173.54299926757812 C73.64299774169922,-185.60699462890625 25.929000854492188,-207.843994140625 2.6640000343322754,-207.843994140625 C2.6640000343322754,-207.843994140625 2.6640000343322754,-207.843994140625 2.6640000343322754,-207.843994140625 C2.6640000343322754,-207.843994140625 2.6640000343322754,-207.843994140625 2.6640000343322754,-207.843994140625 C2.6640000343322754,-207.843994140625 2.6640000343322754,-207.843994140625 2.6640000343322754,-207.843994140625 C2.6640000343322754,-207.843994140625 2.6640000343322754,-207.843994140625 2.6640000343322754,-207.843994140625 C-20.60099983215332,-207.843994140625 -69.76300048828125,-183.06900024414062 -71.25800323486328,-173.54299926757812 C-73.58200073242188,-158.72900390625 -30.952999114990234,-149.74099731445312 2.6640000343322754,-149.74099731445312 C33.02399826049805,-149.74099731445312 80.14199829101562,-158.97500610351562 76.58699798583984,-173.54299926757812z"></path></g><g opacity="1" transform="matrix(1,0,0,1,0,0)"><path fill="rgb(0,0,0)" fill-opacity="0.3" d=" M-68.8280029296875,-156.2550048828125 C-68.8280029296875,-156.2550048828125 -15.232999801635742,-140.76400756835938 2.6640000343322754,-140.76400756835938 C20.56100082397461,-140.76400756835938 73.64299774169922,-156.2550048828125 73.64299774169922,-156.2550048828125 C73.64299774169922,-156.2550048828125 25.847999572753906,-127.16200256347656 2.6640000343322754,-127.16200256347656 C-20.520000457763672,-127.16200256347656 -68.8280029296875,-156.2550048828125 -68.8280029296875,-156.2550048828125z"></path></g><g opacity="1" transform="matrix(1,0,0,1,0,0)"><path stroke-linecap="round" stroke-linejoin="round" fill-opacity="0" stroke="rgb(0,0,0)" stroke-opacity="1" stroke-width="8" d=" M119.30999755859375,-113.27200317382812 C116.81199645996094,-144.69200134277344 103.81700134277344,-158.68099975585938 98.4749984741211,-162.9550018310547 C93.13300323486328,-167.22900390625 93.41799926757812,-176.59800720214844 80.84500122070312,-186.58900451660156 C61.709999084472656,-201.7949981689453 23.16900062561035,-216.46499633789062 2.6640000343322754,-216.46499633789062 C-17.840999603271484,-216.46499633789062 -56.38199996948242,-201.7949981689453 -75.51699829101562,-186.58900451660156 C-88.08999633789062,-176.59800720214844 -87.80400085449219,-167.22900390625 -93.14600372314453,-162.9550018310547 C-98.48799896240234,-158.68099975585938 -111.48300170898438,-144.69200134277344 -113.98100280761719,-113.27200317382812 C-115.85099792480469,-89.74800109863281 -113.12000274658203,-47.055999755859375 -102.9530029296875,-19.957000732421875 C-102.9530029296875,-19.957000732421875 -99.02300262451172,-61.946998596191406 -89.94100189208984,-101.23200225830078 C-80.85900115966797,-140.51699829101562 -74.7020034790039,-150.66799926757812 -69.76699829101562,-152.27099609375 C-64.83200073242188,-153.87399291992188 -12.645999908447266,-127.16200256347656 2.6640000343322754,-127.16200256347656 C17.972999572753906,-127.16200256347656 70.16100311279297,-153.87399291992188 75.09600067138672,-152.27099609375 C80.03099822998047,-150.66799926757812 86.18800354003906,-140.51699829101562 95.2699966430664,-101.23200225830078 C104.35199737548828,-61.946998596191406 108.28199768066406,-19.957000732421875 108.28199768066406,-19.957000732421875 C118.4489974975586,-47.055999755859375 121.18000030517578,-89.74800109863281 119.30999755859375,-113.27200317382812z"></path></g></g><g style="display: block;" transform="matrix(1,0,0,1,256,256)" opacity="1"><g opacity="1" transform="matrix(1,0,0,1,0,0)"><path fill="rgb(179,145,0)" fill-opacity="1" d=" M-41.308998107910156,140.76699829101562 C-41.308998107910156,145.1020050048828 -45.06999969482422,148.61599731445312 -49.70899963378906,148.61599731445312 C-54.347999572753906,148.61599731445312 -58.10900115966797,145.1020050048828 -58.10900115966797,140.76699829101562 C-58.10900115966797,136.4320068359375 -54.347999572753906,132.91799926757812 -49.70899963378906,132.91799926757812 C-45.06999969482422,132.91799926757812 -41.308998107910156,136.4320068359375 -41.308998107910156,140.76699829101562z"></path><path stroke-linecap="round" stroke-linejoin="round" fill-opacity="0" stroke="rgb(207,194,63)" stroke-opacity="1" stroke-width="5" d=" M-41.308998107910156,140.76699829101562 C-41.308998107910156,145.1020050048828 -45.06999969482422,148.61599731445312 -49.70899963378906,148.61599731445312 C-54.347999572753906,148.61599731445312 -58.10900115966797,145.1020050048828 -58.10900115966797,140.76699829101562 C-58.10900115966797,136.4320068359375 -54.347999572753906,132.91799926757812 -49.70899963378906,132.91799926757812 C-45.06999969482422,132.91799926757812 -41.308998107910156,136.4320068359375 -41.308998107910156,140.76699829101562z"></path></g><g opacity="1" transform="matrix(1,0,0,1,0,0)"><path fill="rgb(179,145,0)" fill-opacity="1" d=" M58.89400100708008,140.76699829101562 C58.89400100708008,145.1020050048828 55.132999420166016,148.61599731445312 50.49399948120117,148.61599731445312 C45.85499954223633,148.61599731445312 42.09400177001953,145.1020050048828 42.09400177001953,140.76699829101562 C42.09400177001953,136.4320068359375 45.85499954223633,132.91799926757812 50.49399948120117,132.91799926757812 C55.132999420166016,132.91799926757812 58.89400100708008,136.4320068359375 58.89400100708008,140.76699829101562z"></path><path stroke-linecap="round" stroke-linejoin="round" fill-opacity="0" stroke="rgb(207,194,63)" stroke-opacity="1" stroke-width="5" d=" M58.89400100708008,140.76699829101562 C58.89400100708008,145.1020050048828 55.132999420166016,148.61599731445312 50.49399948120117,148.61599731445312 C45.85499954223633,148.61599731445312 42.09400177001953,145.1020050048828 42.09400177001953,140.76699829101562 C42.09400177001953,136.4320068359375 45.85499954223633,132.91799926757812 50.49399948120117,132.91799926757812 C55.132999420166016,132.91799926757812 58.89400100708008,136.4320068359375 58.89400100708008,140.76699829101562z"></path></g></g><g style="display: block;" transform="matrix(1,0,0,1,256,256)" opacity="1"><g opacity="1" transform="matrix(1,0,0,1,0,0)"><path fill="url(#__lottie_element_18)" fill-opacity="1" d=" M18.076000213623047,23.68600082397461 C18.076000213623047,31.56399917602539 11.100000381469727,37.95000076293945 0.28999999165534973,37.95000076293945 C-10.520000457763672,37.95000076293945 -17.496999740600586,31.56399917602539 -17.496999740600586,23.68600082397461 C-17.496999740600586,15.807999610900879 18.076000213623047,15.807999610900879 18.076000213623047,23.68600082397461z"></path></g><g opacity="1" transform="matrix(1,0,0,1,0,0)"><path fill="rgb(255,168,0)" fill-opacity="0.8" d=" M18.448999404907227,21.006000518798828 C18.448999404907227,28.31399917602539 10.319000244140625,34.2400016784668 0.28999999165534973,34.2400016784668 C-9.73900032043457,34.2400016784668 -17.868999481201172,28.31399917602539 -17.868999481201172,21.006000518798828 C-17.868999481201172,13.696999549865723 -9.73900032043457,8.085000038146973 0.28999999165534973,8.085000038146973 C10.319000244140625,8.085000038146973 18.448999404907227,13.696999549865723 18.448999404907227,21.006000518798828z"></path></g><g opacity="1" transform="matrix(1,0,0,1,0,0)"><path fill="url(#__lottie_element_19)" fill-opacity="1" d=" M18.448999404907227,21.006000518798828 C18.448999404907227,28.31399917602539 10.319000244140625,34.2400016784668 0.28999999165534973,34.2400016784668 C-9.73900032043457,34.2400016784668 -17.868999481201172,28.31399917602539 -17.868999481201172,21.006000518798828 C-17.868999481201172,13.696999549865723 -9.73900032043457,8.085000038146973 0.28999999165534973,8.085000038146973 C10.319000244140625,8.085000038146973 18.448999404907227,13.696999549865723 18.448999404907227,21.006000518798828z"></path></g><g opacity="1" transform="matrix(1,0,0,1,0,0)"><path fill="rgb(255,216,0)" fill-opacity="1" d=" M16.816999435424805,17.509000778198242 C16.816999435424805,22.950000762939453 8.965999603271484,28.17799949645996 0.28999999165534973,28.17799949645996 C-8.38599967956543,28.17799949645996 -16.23699951171875,22.950000762939453 -16.23699951171875,17.509000778198242 C-16.23699951171875,12.067999839782715 -8.38599967956543,7.814000129699707 0.28999999165534973,7.814000129699707 C8.965999603271484,7.814000129699707 16.816999435424805,12.067999839782715 16.816999435424805,17.509000778198242z"></path></g><g opacity="1" transform="matrix(1,0,0,1,0,0)"><path fill="url(#__lottie_element_20)" fill-opacity="1" d=" M16.816999435424805,17.509000778198242 C16.816999435424805,22.950000762939453 8.965999603271484,28.17799949645996 0.28999999165534973,28.17799949645996 C-8.38599967956543,28.17799949645996 -16.23699951171875,22.950000762939453 -16.23699951171875,17.509000778198242 C-16.23699951171875,12.067999839782715 -8.38599967956543,7.814000129699707 0.28999999165534973,7.814000129699707 C8.965999603271484,7.814000129699707 16.816999435424805,12.067999839782715 16.816999435424805,17.509000778198242z"></path></g><g opacity="1" transform="matrix(1,0,0,1,0,0)"><path fill="url(#__lottie_element_21)" fill-opacity="0.7000000000000001" d=" M7.663000106811523,13.996999740600586 C7.663000106811523,17.68899917602539 4.361999988555908,21.16200065612793 0.28999999165534973,21.16200065612793 C-3.7820000648498535,21.16200065612793 -7.083000183105469,17.68899917602539 -7.083000183105469,13.996999740600586 C-7.083000183105469,10.305000305175781 -3.7820000648498535,8.45199966430664 0.28999999165534973,8.45199966430664 C4.361999988555908,8.45199966430664 7.663000106811523,10.305000305175781 7.663000106811523,13.996999740600586z"></path></g></g></g></svg>