<svg xmlns="http://www.w3.org/2000/svg" xmlns:xlink="http://www.w3.org/1999/xlink" viewBox="0 0 512 512" width="512" height="512" style="width: 100%; height: 100%; transform: translate3d(0,0,0); content-visibility: visible;" preserveAspectRatio="xMidYMid meet"><defs><clipPath id="__lottie_element_2"><rect width="512" height="512" x="0" y="0"></rect></clipPath><linearGradient id="__lottie_element_6" spreadMethod="pad" gradientUnits="userSpaceOnUse" x1="-78.37799835205078" y1="37.709999084472656" x2="-57.97800064086914" y2="67.10299682617188"><stop offset="0%" stop-color="rgb(66,0,0)"></stop><stop offset="37%" stop-color="rgb(118,40,0)"></stop><stop offset="100%" stop-color="rgb(170,80,0)"></stop></linearGradient><radialGradient id="__lottie_element_7" spreadMethod="pad" gradientUnits="userSpaceOnUse" cx="-60.87799835205078" cy="60.584999084472656" r="15.681497962352378" fx="-60.87799835205078" fy="60.584999084472656"><stop offset="0%" stop-color="rgb(246,175,0)" stop-opacity="1"></stop><stop offset="50%" stop-color="rgb(246,175,0)" stop-opacity="0.5"></stop><stop offset="100%" stop-color="rgb(246,175,0)" stop-opacity="0"></stop></radialGradient><linearGradient id="__lottie_element_8" spreadMethod="pad" gradientUnits="userSpaceOnUse" x1="-80.12799835205078" y1="30.27199935913086" x2="-80.25299835205078" y2="41.96500015258789"><stop offset="0%" stop-color="rgb(255,255,255)" stop-opacity="1"></stop><stop offset="60%" stop-color="rgb(255,255,255)" stop-opacity="0.5"></stop><stop offset="100%" stop-color="rgb(255,255,255)" stop-opacity="0"></stop></linearGradient><linearGradient id="__lottie_element_9" spreadMethod="pad" gradientUnits="userSpaceOnUse" x1="63.87200164794922" y1="37.334999084472656" x2="86.02200317382812" y2="66.35299682617188"><stop offset="0%" stop-color="rgb(66,0,0)"></stop><stop offset="37%" stop-color="rgb(118,40,0)"></stop><stop offset="100%" stop-color="rgb(170,80,0)"></stop></linearGradient><radialGradient id="__lottie_element_10" spreadMethod="pad" gradientUnits="userSpaceOnUse" cx="83.87200164794922" cy="60.584999084472656" r="15.056518643047522" fx="83.87200164794922" fy="60.584999084472656"><stop offset="0%" stop-color="rgb(246,175,0)" stop-opacity="1"></stop><stop offset="50%" stop-color="rgb(246,175,0)" stop-opacity="0.5"></stop><stop offset="100%" stop-color="rgb(246,175,0)" stop-opacity="0"></stop></radialGradient><linearGradient id="__lottie_element_11" spreadMethod="pad" gradientUnits="userSpaceOnUse" x1="62.74700164794922" y1="30.39699935913086" x2="62.99700164794922" y2="41.84000015258789"><stop offset="0%" stop-color="rgb(255,255,255)" stop-opacity="1"></stop><stop offset="60%" stop-color="rgb(255,255,255)" stop-opacity="0.5"></stop><stop offset="100%" stop-color="rgb(255,255,255)" stop-opacity="0"></stop></linearGradient><linearGradient id="__lottie_element_15" spreadMethod="pad" gradientUnits="userSpaceOnUse" x1="-1.600000023841858" y1="120.70999908447266" x2="-1.600000023841858" y2="137.36099243164062"><stop offset="0%" stop-color="rgb(255,168,0)" stop-opacity="1"></stop><stop offset="50%" stop-color="rgb(255,168,0)" stop-opacity="0.5"></stop><stop offset="100%" stop-color="rgb(255,168,0)" stop-opacity="0"></stop></linearGradient><radialGradient id="__lottie_element_16" spreadMethod="pad" gradientUnits="userSpaceOnUse" cx="-1.600000023841858" cy="144.7100067138672" r="44.92799913883209" fx="-1.600000023841858" fy="144.7100067138672"><stop offset="0%" stop-color="rgb(255,255,255)" stop-opacity="1"></stop><stop offset="62%" stop-color="rgb(255,255,255)" stop-opacity="0.5"></stop><stop offset="100%" stop-color="rgb(255,255,255)" stop-opacity="0"></stop></radialGradient><linearGradient id="__lottie_element_17" spreadMethod="pad" gradientUnits="userSpaceOnUse" x1="-1.600000023841858" y1="143.7100067138672" x2="-1.600000023841858" y2="127.2490005493164"><stop offset="0%" stop-color="rgb(88,11,14)" stop-opacity="0"></stop><stop offset="34%" stop-color="rgb(88,11,14)" stop-opacity="0.5"></stop><stop offset="75%" stop-color="rgb(88,11,14)" stop-opacity="1"></stop></linearGradient><linearGradient id="__lottie_element_21" spreadMethod="pad" gradientUnits="userSpaceOnUse" x1="0.4000000059604645" y1="-181.2899932861328" x2="0.4000000059604645" y2="-29.788999557495117"><stop offset="11%" stop-color="rgb(255,169,0)" stop-opacity="0"></stop><stop offset="58%" stop-color="rgb(255,169,0)" stop-opacity="0.5"></stop><stop offset="100%" stop-color="rgb(255,169,0)" stop-opacity="1"></stop></linearGradient><linearGradient id="__lottie_element_22" spreadMethod="pad" gradientUnits="userSpaceOnUse" x1="0.4000000059604645" y1="-174.2899932861328" x2="0.4000000059604645" y2="23.31100082397461"><stop offset="15%" stop-color="rgb(218,110,0)" stop-opacity="0"></stop><stop offset="31%" stop-color="rgb(218,110,0)" stop-opacity="0.3499999940395355"></stop><stop offset="48%" stop-color="rgb(218,110,0)" stop-opacity="0.699999988079071"></stop><stop offset="77%" stop-color="rgb(218,110,0)" stop-opacity="0.5"></stop><stop offset="92%" stop-color="rgb(218,110,0)" stop-opacity="0.30000001192092896"></stop></linearGradient><linearGradient id="__lottie_element_23" spreadMethod="pad" gradientUnits="userSpaceOnUse" x1="45.400001525878906" y1="-188.2899932861328" x2="45.71200180053711" y2="-124.31300354003906"><stop offset="0%" stop-color="rgb(255,255,255)" stop-opacity="1"></stop><stop offset="50%" stop-color="rgb(255,255,255)" stop-opacity="0.5099999904632568"></stop><stop offset="100%" stop-color="rgb(255,255,255)" stop-opacity="0.019999999552965164"></stop></linearGradient><linearGradient id="__lottie_element_24" spreadMethod="pad" gradientUnits="userSpaceOnUse" x1="-112.5999984741211" y1="-169.2899932861328" x2="-112.29199981689453" y2="-106.04900360107422"><stop offset="0%" stop-color="rgb(255,255,255)" stop-opacity="1"></stop><stop offset="50%" stop-color="rgb(255,255,255)" stop-opacity="0.5"></stop><stop offset="100%" stop-color="rgb(255,255,255)" stop-opacity="0"></stop></linearGradient><linearGradient id="__lottie_element_31" spreadMethod="pad" gradientUnits="userSpaceOnUse" x1="-0.878000020980835" y1="92.70999908447266" x2="-0.878000020980835" y2="115.66200256347656"><stop offset="0%" stop-color="rgb(255,168,0)" stop-opacity="1"></stop><stop offset="66%" stop-color="rgb(255,168,0)" stop-opacity="0.5049999952316284"></stop><stop offset="100%" stop-color="rgb(255,168,0)" stop-opacity="0.009999999776482582"></stop></linearGradient><linearGradient id="__lottie_element_32" spreadMethod="pad" gradientUnits="userSpaceOnUse" x1="0.014000000432133675" y1="99.81700134277344" x2="-0.5440000295639038" y2="80.33899688720703"><stop offset="11%" stop-color="rgb(219,110,0)" stop-opacity="1"></stop><stop offset="44%" stop-color="rgb(219,110,0)" stop-opacity="0.5"></stop><stop offset="77%" stop-color="rgb(219,110,0)" stop-opacity="0"></stop></linearGradient><radialGradient id="__lottie_element_33" spreadMethod="pad" gradientUnits="userSpaceOnUse" cx="0.12200000137090683" cy="75.70999908447266" r="17.812000013887882" fx="0.12200000137090683" fy="75.70999908447266"><stop offset="40%" stop-color="rgb(255,168,0)" stop-opacity="0"></stop><stop offset="70%" stop-color="rgb(255,168,0)" stop-opacity="0.5"></stop><stop offset="100%" stop-color="rgb(255,168,0)" stop-opacity="1"></stop></radialGradient><linearGradient id="__lottie_element_34" spreadMethod="pad" gradientUnits="userSpaceOnUse" x1="-0.878000020980835" y1="73.70999908447266" x2="-0.878000020980835" y2="83.77300262451172"><stop offset="0%" stop-color="rgb(255,255,255)" stop-opacity="1"></stop><stop offset="50%" stop-color="rgb(255,255,255)" stop-opacity="0.5099999904632568"></stop><stop offset="100%" stop-color="rgb(255,255,255)" stop-opacity="0.019999999552965164"></stop></linearGradient><linearGradient id="__lottie_element_38" spreadMethod="pad" gradientUnits="userSpaceOnUse" x1="-10.600000381469727" y1="-133.2899932861328" x2="-2.178999900817871" y2="6.716000080108643"><stop offset="11%" stop-color="rgb(219,110,0)" stop-opacity="1"></stop><stop offset="43%" stop-color="rgb(219,110,0)" stop-opacity="0.5"></stop><stop offset="71%" stop-color="rgb(219,110,0)" stop-opacity="0"></stop></linearGradient><linearGradient id="__lottie_element_39" spreadMethod="pad" gradientUnits="userSpaceOnUse" x1="-0.6000000238418579" y1="-83.29000091552734" x2="-0.6000000238418579" y2="172.33399963378906"><stop offset="0%" stop-color="rgb(255,216,0)" stop-opacity="0"></stop><stop offset="12%" stop-color="rgb(255,216,0)" stop-opacity="0.5"></stop><stop offset="45%" stop-color="rgb(255,216,0)" stop-opacity="1"></stop><stop offset="90%" stop-color="rgb(255,216,0)" stop-opacity="0.5"></stop><stop offset="100%" stop-color="rgb(255,216,0)" stop-opacity="0"></stop></linearGradient></defs><g clip-path="url(#__lottie_element_2)"><g style="display: block;" transform="matrix(1,0,0,1,0,0)" opacity="1"><g opacity="1" transform="matrix(1,0,0,1,256,256)"><g opacity="1" transform="matrix(1,0,0,1,0,0)"><path fill="rgb(218,110,0)" fill-opacity="1" d=" M-170.27099609375,72.89099884033203 C-170.27099609375,72.89099884033203 -165.84800720214844,96.65499877929688 -170.27099609375,140.51400756835938 C-170.27099609375,140.51400756835938 -160.88800048828125,140.56199645996094 -152.9550018310547,136.4770050048828 C-152.9550018310547,136.4770050048828 -151.04299926757812,144.94700622558594 -151.58900451660156,158.06100463867188 C-151.58900451660156,158.06100463867188 -139.52000427246094,155.58099365234375 -130.8249969482422,149.3179931640625 C-130.8249969482422,149.3179931640625 -128.91200256347656,154.50900268554688 -128.91200256347656,164.6179962158203 C-128.91200256347656,164.6179962158203 -105.14299774169922,163.2519989013672 -98.31300354003906,145.22000122070312 C-91.48300170898438,127.18800354003906 -170.27099609375,72.89099884033203 -170.27099609375,72.89099884033203z"></path><path stroke-linecap="round" stroke-linejoin="round" fill-opacity="0" stroke="rgb(163,65,0)" stroke-opacity="1" stroke-width="8" d=" M-170.27099609375,72.89099884033203 C-170.27099609375,72.89099884033203 -165.84800720214844,96.65499877929688 -170.27099609375,140.51400756835938 C-170.27099609375,140.51400756835938 -160.88800048828125,140.56199645996094 -152.9550018310547,136.4770050048828 C-152.9550018310547,136.4770050048828 -151.04299926757812,144.94700622558594 -151.58900451660156,158.06100463867188 C-151.58900451660156,158.06100463867188 -139.52000427246094,155.58099365234375 -130.8249969482422,149.3179931640625 C-130.8249969482422,149.3179931640625 -128.91200256347656,154.50900268554688 -128.91200256347656,164.6179962158203 C-128.91200256347656,164.6179962158203 -105.14299774169922,163.2519989013672 -98.31300354003906,145.22000122070312 C-91.48300170898438,127.18800354003906 -170.27099609375,72.89099884033203 -170.27099609375,72.89099884033203z"></path></g></g><g opacity="1" transform="matrix(1,0,0,1,255.99998474121094,256)"><g opacity="1" transform="matrix(1,0,0,1,0,0)"><path fill="rgb(218,110,0)" fill-opacity="1" d=" M168.59300231933594,72.89099884033203 C168.59300231933594,72.89099884033203 164.1699981689453,96.65499877929688 168.59300231933594,140.51400756835938 C168.59300231933594,140.51400756835938 159.2100067138672,140.56199645996094 151.27699279785156,136.4770050048828 C151.27699279785156,136.4770050048828 149.36500549316406,144.94700622558594 149.91099548339844,158.06100463867188 C149.91099548339844,158.06100463867188 137.8419952392578,155.58099365234375 129.14700317382812,149.3179931640625 C129.14700317382812,149.3179931640625 127.23500061035156,154.50900268554688 127.23500061035156,164.6179962158203 C127.23500061035156,164.6179962158203 103.46499633789062,163.2519989013672 96.63500213623047,145.22000122070312 C89.80500030517578,127.18800354003906 168.59300231933594,72.89099884033203 168.59300231933594,72.89099884033203z"></path><path stroke-linecap="round" stroke-linejoin="round" fill-opacity="0" stroke="rgb(163,65,0)" stroke-opacity="1" stroke-width="8" d=" M168.59300231933594,72.89099884033203 C168.59300231933594,72.89099884033203 164.1699981689453,96.65499877929688 168.59300231933594,140.51400756835938 C168.59300231933594,140.51400756835938 159.2100067138672,140.56199645996094 151.27699279785156,136.4770050048828 C151.27699279785156,136.4770050048828 149.36500549316406,144.94700622558594 149.91099548339844,158.06100463867188 C149.91099548339844,158.06100463867188 137.8419952392578,155.58099365234375 129.14700317382812,149.3179931640625 C129.14700317382812,149.3179931640625 127.23500061035156,154.50900268554688 127.23500061035156,164.6179962158203 C127.23500061035156,164.6179962158203 103.46499633789062,163.2519989013672 96.63500213623047,145.22000122070312 C89.80500030517578,127.18800354003906 168.59300231933594,72.89099884033203 168.59300231933594,72.89099884033203z"></path></g></g></g><g style="display: block;" transform="matrix(1,0,0,1,0,0)" opacity="1"><g opacity="1" transform="matrix(1,0,0,1,256,255.99998474121094)"><g opacity="1" transform="matrix(1,0,0,1,0,0)"><path fill="rgb(255,168,0)" fill-opacity="1" d=" M-169.52099609375,33.76499938964844 C-174.55999755859375,16.016000747680664 -192.83099365234375,16.191999435424805 -192.76600646972656,34.00199890136719 C-192.70700073242188,50.308998107910156 -176.48300170898438,94.66999816894531 -156.74000549316406,89.40399932861328 C-134.00900268554688,83.34100341796875 -169.52099609375,33.76499938964844 -169.52099609375,33.76499938964844z"></path><path stroke-linecap="round" stroke-linejoin="round" fill-opacity="0" stroke="rgb(219,110,0)" stroke-opacity="1" stroke-width="8" d=" M-169.52099609375,33.76499938964844 C-174.55999755859375,16.016000747680664 -192.83099365234375,16.191999435424805 -192.76600646972656,34.00199890136719 C-192.70700073242188,50.308998107910156 -176.48300170898438,94.66999816894531 -156.74000549316406,89.40399932861328 C-134.00900268554688,83.34100341796875 -169.52099609375,33.76499938964844 -169.52099609375,33.76499938964844z"></path></g></g><g opacity="1" transform="matrix(1,0,0,1,256,255.99998474121094)"><g opacity="1" transform="matrix(1,0,0,1,0,0)"><path fill="rgb(255,168,0)" fill-opacity="1" d=" M167.08099365234375,33.76499938964844 C172.1199951171875,16.016000747680664 190.39100646972656,16.191999435424805 190.3260040283203,34.00199890136719 C190.26699829101562,50.308998107910156 174.04299926757812,94.66999816894531 154.3000030517578,89.40399932861328 C131.56900024414062,83.34100341796875 167.08099365234375,33.76499938964844 167.08099365234375,33.76499938964844z"></path><path stroke-linecap="round" stroke-linejoin="round" fill-opacity="0" stroke="rgb(219,110,0)" stroke-opacity="1" stroke-width="8" d=" M167.08099365234375,33.76499938964844 C172.1199951171875,16.016000747680664 190.39100646972656,16.191999435424805 190.3260040283203,34.00199890136719 C190.26699829101562,50.308998107910156 174.04299926757812,94.66999816894531 154.3000030517578,89.40399932861328 C131.56900024414062,83.34100341796875 167.08099365234375,33.76499938964844 167.08099365234375,33.76499938964844z"></path></g></g></g><g style="display: block;" transform="matrix(1,0,0,1,256,255.99998474121094)" opacity="1"><g opacity="1" transform="matrix(1,0,0,1,0,0)"><path fill="rgb(255,168,0)" fill-opacity="1" d=" M-0.7089999914169312,-147.5709991455078 C-131.4530029296875,-147.5709991455078 -170.7220001220703,-43.60599899291992 -170.7220001220703,26.47100067138672 C-170.7220001220703,96.5479965209961 -113.93000030517578,200.80099487304688 -0.7089999914169312,200.80099487304688 C112.51200103759766,200.80099487304688 169.30299377441406,96.5479965209961 169.30299377441406,26.47100067138672 C169.30299377441406,-43.60599899291992 130.03500366210938,-147.5709991455078 -0.7089999914169312,-147.5709991455078z"></path></g><g opacity="1" transform="matrix(1,0,0,1,0,0)"><path fill="url(#__lottie_element_38)" fill-opacity="1" d=" M-0.7089999914169312,-147.5709991455078 C-131.4530029296875,-147.5709991455078 -170.7220001220703,-43.60599899291992 -170.7220001220703,26.47100067138672 C-170.7220001220703,96.5479965209961 -113.93000030517578,200.80099487304688 -0.7089999914169312,200.80099487304688 C112.51200103759766,200.80099487304688 169.30299377441406,96.5479965209961 169.30299377441406,26.47100067138672 C169.30299377441406,-43.60599899291992 130.03500366210938,-147.5709991455078 -0.7089999914169312,-147.5709991455078z"></path></g><g opacity="1" transform="matrix(1,0,0,1,0,0)"><path fill="url(#__lottie_element_39)" fill-opacity="1" d=" M147.92599487304688,-2.9539999961853027 C147.92599487304688,-2.9539999961853027 136.03399658203125,-5.375999927520752 127.63400268554688,-12.020999908447266 C116.64600372314453,-20.71299934387207 111.87699890136719,-30.53499984741211 111.87699890136719,-30.53499984741211 C89.6989974975586,-29.917999267578125 73.11499786376953,-41.36399841308594 73.11499786376953,-41.36399841308594 C73.11499786376953,-41.36399841308594 79.48600006103516,-32.159000396728516 79.48600006103516,-32.159000396728516 C62.891998291015625,-24.06399917602539 24.06100082397461,-28.83799934387207 1.8660000562667847,-38.665000915527344 C-1.444000005722046,-40.13100051879883 -36.2140007019043,-56.28900146484375 -51.505001068115234,-75.99800109863281 C-51.505001068115234,-75.99800109863281 -63.16999816894531,-45.76499938964844 -111.38600158691406,-18.722000122070312 C-111.38600158691406,-18.722000122070312 -114.27200317382812,-25.18899917602539 -117.01399993896484,-28.53499984741211 C-117.01399993896484,-28.53499984741211 -128.81700134277344,-10.37399959564209 -147.843994140625,8.937000274658203 C-155.78599548339844,16.996999740600586 -143.69000244140625,173.25 -0.40700000524520874,173.63999938964844 C-0.40700000524520874,173.63999938964844 -0.40700000524520874,173.63999938964844 -0.40700000524520874,173.63999938964844 C116.01100158691406,173.322998046875 148.2239990234375,69.09300231933594 149.7010040283203,26.819000244140625 C150.04200744628906,17.06399917602539 149.4149932861328,-1.4429999589920044 147.92599487304688,-2.9539999961853027z"></path></g><g opacity="1" transform="matrix(1,0,0,1,0,0)"><path stroke-linecap="round" stroke-linejoin="round" fill-opacity="0" stroke="rgb(219,110,0)" stroke-opacity="1" stroke-width="8" d=" M-0.7089999914169312,-147.5709991455078 C-131.4530029296875,-147.5709991455078 -170.7220001220703,-43.60599899291992 -170.7220001220703,26.47100067138672 C-170.7220001220703,96.5479965209961 -113.93000030517578,200.80099487304688 -0.7089999914169312,200.80099487304688 C112.51200103759766,200.80099487304688 169.30299377441406,96.5479965209961 169.30299377441406,26.47100067138672 C169.30299377441406,-43.60599899291992 130.03500366210938,-147.5709991455078 -0.7089999914169312,-147.5709991455078z"></path></g></g><g style="display: block;" transform="matrix(1.1200000047683716,0,0,1.1200000047683716,255.625,245.2730712890625)" opacity="1"><g opacity="1" transform="matrix(1,0,0,1,0,0)"><path fill="url(#__lottie_element_31)" fill-opacity="1" d=" M17.926000595092773,95.80699920654297 C17.926000595092773,104.14800262451172 9.343999862670898,111.56400299072266 0,111.56400299072266 C-9.343999862670898,111.56400299072266 -17.926000595092773,104.14800262451172 -17.926000595092773,95.80699920654297 C-17.926000595092773,87.46600341796875 -9.343999862670898,79.81900024414062 0,79.81900024414062 C9.343999862670898,79.81900024414062 17.926000595092773,87.46600341796875 17.926000595092773,95.80699920654297z"></path></g><g opacity="1" transform="matrix(1,0,0,1,0,0)"><path fill="rgb(255,168,0)" fill-opacity="0.8" d=" M17.926000595092773,87.8290023803711 C17.926000595092773,95.81999969482422 9.899999618530273,102.2979965209961 0,102.2979965209961 C-9.899999618530273,102.2979965209961 -17.926000595092773,95.81999969482422 -17.926000595092773,87.8290023803711 C-17.926000595092773,79.83799743652344 -9.899999618530273,73.70099639892578 0,73.70099639892578 C9.899999618530273,73.70099639892578 17.926000595092773,79.83799743652344 17.926000595092773,87.8290023803711z"></path></g><g opacity="1" transform="matrix(1,0,0,1,0,0)"><path fill="url(#__lottie_element_32)" fill-opacity="0.7000000000000001" d=" M17.926000595092773,87.8290023803711 C17.926000595092773,95.81999969482422 9.899999618530273,102.2979965209961 0,102.2979965209961 C-9.899999618530273,102.2979965209961 -17.926000595092773,95.81999969482422 -17.926000595092773,87.8290023803711 C-17.926000595092773,79.83799743652344 -9.899999618530273,73.70099639892578 0,73.70099639892578 C9.899999618530273,73.70099639892578 17.926000595092773,79.83799743652344 17.926000595092773,87.8290023803711z"></path></g><g opacity="1" transform="matrix(1,0,0,1,0,0)"><path fill="rgb(255,216,0)" fill-opacity="1" d=" M15.508000373840332,83.26200103759766 C15.508000373840332,89.21099853515625 8.564000129699707,94.03399658203125 0,94.03399658203125 C-8.5649995803833,94.03399658203125 -15.506999969482422,89.21099853515625 -15.506999969482422,83.26200103759766 C-15.506999969482422,77.31300354003906 -8.5649995803833,73.46700286865234 0,73.46700286865234 C8.564000129699707,73.46700286865234 15.508000373840332,77.31300354003906 15.508000373840332,83.26200103759766z"></path></g><g opacity="1" transform="matrix(1,0,0,1,0,0)"><path fill="url(#__lottie_element_33)" fill-opacity="1" d=" M15.508000373840332,83.26200103759766 C15.508000373840332,89.21099853515625 8.564000129699707,94.03399658203125 0,94.03399658203125 C-8.5649995803833,94.03399658203125 -15.506999969482422,89.21099853515625 -15.506999969482422,83.26200103759766 C-15.506999969482422,77.31300354003906 -8.5649995803833,73.46700286865234 0,73.46700286865234 C8.564000129699707,73.46700286865234 15.508000373840332,77.31300354003906 15.508000373840332,83.26200103759766z"></path></g><g opacity="1" transform="matrix(1,0,0,1,0,0)"><path fill="url(#__lottie_element_34)" fill-opacity="0.7000000000000001" d=" M7.989999771118164,78.94200134277344 C7.989999771118164,82.12699890136719 4.413000106811523,85.12300109863281 0,85.12300109863281 C-4.413000106811523,85.12300109863281 -7.989999771118164,82.12699890136719 -7.989999771118164,78.94200134277344 C-7.989999771118164,75.75700378417969 -4.413000106811523,74.15899658203125 0,74.15899658203125 C4.413000106811523,74.15899658203125 7.989999771118164,75.75700378417969 7.989999771118164,78.94200134277344z"></path></g></g><g style="display: block;" transform="matrix(1,0,0,1,256,256)" opacity="1"><g opacity="1" transform="matrix(1,0,0,1,0,0)"><path fill="rgb(163,65,0)" fill-opacity="1" d=" M113.6719970703125,2.5199999809265137 C116.072998046875,-1.2929999828338623 97.00199890136719,-15.781999588012695 72.78500366210938,-17.716999053955078 C52.845001220703125,-19.309999465942383 49.790000915527344,-13.60099983215332 50.7859992980957,-11.491000175476074 C51.78200149536133,-9.380999565124512 64.4489974975586,-13.454999923706055 86.5770034790039,-7.758999824523926 C109.15699768066406,-1.9470000267028809 112.49700164794922,4.386000156402588 113.6719970703125,2.5199999809265137z"></path><path stroke-linecap="round" stroke-linejoin="round" fill-opacity="0" stroke="rgb(163,65,0)" stroke-opacity="1" stroke-width="2" d=" M113.6719970703125,2.5199999809265137 C116.072998046875,-1.2929999828338623 97.00199890136719,-15.781999588012695 72.78500366210938,-17.716999053955078 C52.845001220703125,-19.309999465942383 49.790000915527344,-13.60099983215332 50.7859992980957,-11.491000175476074 C51.78200149536133,-9.380999565124512 64.4489974975586,-13.454999923706055 86.5770034790039,-7.758999824523926 C109.15699768066406,-1.9470000267028809 112.49700164794922,4.386000156402588 113.6719970703125,2.5199999809265137z"></path></g><g opacity="1" transform="matrix(1,0,0,1,0,0)"><path fill="rgb(163,65,0)" fill-opacity="1" d=" M-115.55599975585938,2.5199999809265137 C-117.95700073242188,-1.2929999828338623 -98.88600158691406,-15.781999588012695 -74.66899871826172,-17.716999053955078 C-54.729000091552734,-19.309999465942383 -51.67399978637695,-13.60099983215332 -52.66999816894531,-11.491000175476074 C-53.66600036621094,-9.380999565124512 -66.33200073242188,-13.454999923706055 -88.45999908447266,-7.758999824523926 C-111.04000091552734,-1.9470000267028809 -114.38099670410156,4.386000156402588 -115.55599975585938,2.5199999809265137z"></path><path stroke-linecap="round" stroke-linejoin="round" fill-opacity="0" stroke="rgb(163,65,0)" stroke-opacity="1" stroke-width="2" d=" M-115.55599975585938,2.5199999809265137 C-117.95700073242188,-1.2929999828338623 -98.88600158691406,-15.781999588012695 -74.66899871826172,-17.716999053955078 C-54.729000091552734,-19.309999465942383 -51.67399978637695,-13.60099983215332 -52.66999816894531,-11.491000175476074 C-53.66600036621094,-9.380999565124512 -66.33200073242188,-13.454999923706055 -88.45999908447266,-7.758999824523926 C-111.04000091552734,-1.9470000267028809 -114.38099670410156,4.386000156402588 -115.55599975585938,2.5199999809265137z"></path></g></g><g style="display: block;" transform="matrix(1,0,0,1,256,256)" opacity="1"><g opacity="1" transform="matrix(1,0,0,1,0,0)"><path fill="rgb(255,205,0)" fill-opacity="1" d=" M-169.27099609375,46.62699890136719 C-169.27099609375,46.62699890136719 -161.21800231933594,40.36399841308594 -160.6020050048828,8.321999549865723 C-160.6020050048828,8.321999549865723 -149.072998046875,-12.708000183105469 -135.34300231933594,-31.013999938964844 C-121.61299896240234,-49.31999969482422 -120.97899627685547,-59.185001373291016 -121.30599975585938,-67.02999877929688 C-121.30599975585938,-67.02999877929688 -114.74299621582031,-54.935001373291016 -114.24800109863281,-39.08599853515625 C-114.24800109863281,-39.08599853515625 -74.01599884033203,-61.82099914550781 -57.564998626708984,-103.697998046875 C-57.564998626708984,-103.697998046875 -0.47200000286102295,-43.814998626708984 60.625999450683594,-45.79899978637695 C60.625999450683594,-45.79899978637695 48.55099868774414,-64.44599914550781 50.62099838256836,-84.68000030517578 C50.62099838256836,-84.68000030517578 64.59300231933594,-47.38600158691406 105.45700073242188,-46.19599914550781 C105.45700073242188,-46.19599914550781 90.77799987792969,-75.9520034790039 91.96800231933594,-93.40799713134766 C91.96800231933594,-93.40799713134766 108.63099670410156,-73.17400360107422 120.53299713134766,-46.19599914550781 C132.43499755859375,-19.218000411987305 157.8260040283203,-13.663999557495117 157.8260040283203,-13.663999557495117 C157.8260040283203,-13.663999557495117 155.4149932861328,20.614999771118164 168.6750030517578,39.5620002746582 C168.6750030517578,39.5620002746582 171.28399658203125,20.216999053955078 181.69000244140625,20.6299991607666 C181.69000244140625,20.6299991607666 190.5399932861328,-53.92399978637695 176.47300720214844,-97.2490005493164 C162.406005859375,-140.57400512695312 119.7509994506836,-203.73300170898438 29.618000030517578,-208.093994140625 C-5.267000198364258,-209.78199768066406 -32.222999572753906,-204.71800231933594 -52.505001068115234,-191.21400451660156 C-52.505001068115234,-191.21400451660156 -85.20600128173828,-206.62600708007812 -135.0260009765625,-156.53799438476562 C-187.40899658203125,-103.87300109863281 -186.16900634765625,-24.650999069213867 -180.69400024414062,20.83799934387207 C-180.69400024414062,20.83799934387207 -170.69900512695312,23.52199935913086 -169.27099609375,46.62699890136719z"></path></g><g opacity="1" transform="matrix(1,0,0,1,0,0)"><path fill="url(#__lottie_element_21)" fill-opacity="1" d=" M-169.27099609375,46.62699890136719 C-169.27099609375,46.62699890136719 -161.21800231933594,40.36399841308594 -160.6020050048828,8.321999549865723 C-160.6020050048828,8.321999549865723 -149.072998046875,-12.708000183105469 -135.34300231933594,-31.013999938964844 C-121.61299896240234,-49.31999969482422 -120.97899627685547,-59.185001373291016 -121.30599975585938,-67.02999877929688 C-121.30599975585938,-67.02999877929688 -114.74299621582031,-54.935001373291016 -114.24800109863281,-39.08599853515625 C-114.24800109863281,-39.08599853515625 -74.01599884033203,-61.82099914550781 -57.564998626708984,-103.697998046875 C-57.564998626708984,-103.697998046875 -0.47200000286102295,-43.814998626708984 60.625999450683594,-45.79899978637695 C60.625999450683594,-45.79899978637695 48.55099868774414,-64.44599914550781 50.62099838256836,-84.68000030517578 C50.62099838256836,-84.68000030517578 64.59300231933594,-47.38600158691406 105.45700073242188,-46.19599914550781 C105.45700073242188,-46.19599914550781 90.77799987792969,-75.9520034790039 91.96800231933594,-93.40799713134766 C91.96800231933594,-93.40799713134766 108.63099670410156,-73.17400360107422 120.53299713134766,-46.19599914550781 C132.43499755859375,-19.218000411987305 157.8260040283203,-13.663999557495117 157.8260040283203,-13.663999557495117 C157.8260040283203,-13.663999557495117 155.4149932861328,20.614999771118164 168.6750030517578,39.5620002746582 C168.6750030517578,39.5620002746582 171.28399658203125,20.216999053955078 181.69000244140625,20.6299991607666 C181.69000244140625,20.6299991607666 190.5399932861328,-53.92399978637695 176.47300720214844,-97.2490005493164 C162.406005859375,-140.57400512695312 119.7509994506836,-203.73300170898438 29.618000030517578,-208.093994140625 C-5.267000198364258,-209.78199768066406 -32.222999572753906,-204.71800231933594 -52.505001068115234,-191.21400451660156 C-52.505001068115234,-191.21400451660156 -85.20600128173828,-206.62600708007812 -135.0260009765625,-156.53799438476562 C-187.40899658203125,-103.87300109863281 -186.16900634765625,-24.650999069213867 -180.69400024414062,20.83799934387207 C-180.69400024414062,20.83799934387207 -170.69900512695312,23.52199935913086 -169.27099609375,46.62699890136719z"></path></g><g opacity="1" transform="matrix(1,0,0,1,0,0)"><path fill="url(#__lottie_element_22)" fill-opacity="1" d=" M179.74000549316406,17.34000015258789 C179.5399932861328,22.670000076293945 169.3000030517578,32.310001373291016 166.66000366210938,28.850000381469727 C158.27000427246094,17.8700008392334 157.8300018310547,-13.65999984741211 157.8300018310547,-13.65999984741211 C157.8300018310547,-13.65999984741211 132.44000244140625,-19.219999313354492 120.52999877929688,-46.20000076293945 C108.62999725341797,-73.16999816894531 91.97000122070312,-93.41000366210938 91.97000122070312,-93.41000366210938 C90.77999877929688,-75.94999694824219 105.45999908447266,-46.20000076293945 105.45999908447266,-46.20000076293945 C64.58999633789062,-47.38999938964844 50.619998931884766,-84.68000030517578 50.619998931884766,-84.68000030517578 C48.54999923706055,-64.44999694824219 60.630001068115234,-45.79999923706055 60.630001068115234,-45.79999923706055 C-0.4699999988079071,-43.81999969482422 -57.560001373291016,-103.69999694824219 -57.560001373291016,-103.69999694824219 C-74.01000213623047,-61.81999969482422 -114.25,-39.09000015258789 -114.25,-39.09000015258789 C-114.73999786376953,-54.93000030517578 -121.30999755859375,-67.02999877929688 -121.30999755859375,-67.02999877929688 C-120.9800033569336,-59.18000030517578 -121.61000061035156,-49.31999969482422 -135.33999633789062,-31.010000228881836 C-143.32000732421875,-20.3700008392334 -150.55999755859375,-6.809999942779541 -155.22000122070312,1.0099999904632568 C-155.22000122070312,1.0099999904632568 -155.22999572753906,1.0099999904632568 -155.22999572753906,1.0199999809265137 C-157.33999633789062,2.2699999809265137 -165.17999267578125,40.880001068115234 -166.8300018310547,39.75 C-181.35000610351562,29.799999237060547 -178.02000427246094,11.050000190734863 -178.02000427246094,11.050000190734863 C-178.35000610351562,19.170000076293945 -176.72999572753906,23.84000015258789 -174.08999633789062,21.3700008392334 C-169.89999389648438,17.450000762939453 -170.75999450683594,5.480000019073486 -171.30999755859375,5.559999942779541 C-173.88999938964844,5.940000057220459 -175.61000061035156,6.489999771118164 -175.61000061035156,6.489999771118164 C-168.22900390625,-11.907999992370605 -152.15699768066406,-28.535999298095703 -137.42300415039062,-47.185001373291016 C-129.60699462890625,-57.077999114990234 -124.98799896240234,-68.85199737548828 -124.98799896240234,-68.85199737548828 C-114.9520034790039,-60.82099914550781 -111.39399719238281,-46.0620002746582 -111.39399719238281,-46.0620002746582 C-81.33399963378906,-70.5719985961914 -63.375,-129.906005859375 -56.645999908447266,-163.7570037841797 C-46.415000915527344,-110.1240005493164 -9.109999656677246,-82.45099639892578 13.869000434875488,-68.0260009765625 C34.5989990234375,-55.012001037597656 55.10599899291992,-50.862998962402344 55.10599899291992,-50.862998962402344 C47.625999450683594,-73.90299987792969 52.8489990234375,-87.25 52.8489990234375,-87.25 C71,-62.270999908447266 95.27200317382812,-63.68199920654297 95.27200317382812,-63.68199920654297 C87.19200134277344,-85.66200256347656 92.23999786376953,-96.19499969482422 92.04000091552734,-97.2249984741211 C92.51000213623047,-96.90499877929688 107.60399627685547,-90.22200012207031 125.76000213623047,-61.40999984741211 C150.9340057373047,-21.461000442504883 176.07200622558594,-19.844999313354492 176.07200622558594,-19.844999313354492 C176.07200622558594,-19.844999313354492 175.31500244140625,-16.91900062561035 170.6999969482422,-13.932999610900879 C170.35400390625,-13.708999633789062 168.47000122070312,4.650000095367432 173.72999572753906,13.9399995803833 C176.47000122070312,18.780000686645508 179.74000549316406,17.34000015258789 179.74000549316406,17.34000015258789z"></path></g><g opacity="1" transform="matrix(1,0,0,1,0,0)"><path stroke-linecap="round" stroke-linejoin="round" fill-opacity="0" stroke="rgb(197,92,0)" stroke-opacity="1" stroke-width="8" d=" M-169.27099609375,46.62699890136719 C-169.27099609375,46.62699890136719 -161.21800231933594,40.36399841308594 -160.6020050048828,8.321999549865723 C-160.6020050048828,8.321999549865723 -149.072998046875,-12.708000183105469 -135.34300231933594,-31.013999938964844 C-121.61299896240234,-49.31999969482422 -120.97899627685547,-59.185001373291016 -121.30599975585938,-67.02999877929688 C-121.30599975585938,-67.02999877929688 -114.74299621582031,-54.935001373291016 -114.24800109863281,-39.08599853515625 C-114.24800109863281,-39.08599853515625 -74.01599884033203,-61.82099914550781 -57.564998626708984,-103.697998046875 C-57.564998626708984,-103.697998046875 -0.47200000286102295,-43.814998626708984 60.625999450683594,-45.79899978637695 C60.625999450683594,-45.79899978637695 48.55099868774414,-64.44599914550781 50.62099838256836,-84.68000030517578 C50.62099838256836,-84.68000030517578 64.59300231933594,-47.38600158691406 105.45700073242188,-46.19599914550781 C105.45700073242188,-46.19599914550781 90.77799987792969,-75.9520034790039 91.96800231933594,-93.40799713134766 C91.96800231933594,-93.40799713134766 108.63099670410156,-73.17400360107422 120.53299713134766,-46.19599914550781 C132.43499755859375,-19.218000411987305 157.8260040283203,-13.663999557495117 157.8260040283203,-13.663999557495117 C157.8260040283203,-13.663999557495117 155.4149932861328,20.614999771118164 168.6750030517578,39.5620002746582 C168.6750030517578,39.5620002746582 171.28399658203125,20.216999053955078 181.69000244140625,20.6299991607666 C181.69000244140625,20.6299991607666 190.5399932861328,-53.92399978637695 176.47300720214844,-97.2490005493164 C162.406005859375,-140.57400512695312 119.7509994506836,-203.73300170898438 29.618000030517578,-208.093994140625 C-5.267000198364258,-209.78199768066406 -32.222999572753906,-204.71800231933594 -52.505001068115234,-191.21400451660156 C-52.505001068115234,-191.21400451660156 -85.20600128173828,-206.62600708007812 -135.0260009765625,-156.53799438476562 C-187.40899658203125,-103.87300109863281 -186.16900634765625,-24.650999069213867 -180.69400024414062,20.83799934387207 C-180.69400024414062,20.83799934387207 -170.69900512695312,23.52199935913086 -169.27099609375,46.62699890136719z"></path></g><g opacity="1" transform="matrix(1,0,0,1,0,0)"><path stroke-linecap="round" stroke-linejoin="round" fill-opacity="0" stroke="rgb(163,65,0)" stroke-opacity="1" stroke-width="8" d=" M-169.27099609375,46.62699890136719 C-169.27099609375,46.62699890136719 -161.21800231933594,40.36399841308594 -160.6020050048828,8.321999549865723 C-160.6020050048828,8.321999549865723 -149.072998046875,-12.708000183105469 -135.34300231933594,-31.013999938964844 C-121.61299896240234,-49.31999969482422 -120.97899627685547,-59.185001373291016 -121.30599975585938,-67.02999877929688 C-121.30599975585938,-67.02999877929688 -114.74299621582031,-54.935001373291016 -114.24800109863281,-39.08599853515625 C-114.24800109863281,-39.08599853515625 -74.01599884033203,-61.82099914550781 -57.564998626708984,-103.697998046875 C-57.564998626708984,-103.697998046875 -0.47200000286102295,-43.814998626708984 60.625999450683594,-45.79899978637695 C60.625999450683594,-45.79899978637695 48.55099868774414,-64.44599914550781 50.62099838256836,-84.68000030517578 C50.62099838256836,-84.68000030517578 64.59300231933594,-47.38600158691406 105.45700073242188,-46.19599914550781 C105.45700073242188,-46.19599914550781 90.77799987792969,-75.9520034790039 91.96800231933594,-93.40799713134766 C91.96800231933594,-93.40799713134766 108.63099670410156,-73.17400360107422 120.53299713134766,-46.19599914550781 C132.43499755859375,-19.218000411987305 157.8260040283203,-13.663999557495117 157.8260040283203,-13.663999557495117 C157.8260040283203,-13.663999557495117 155.4149932861328,20.614999771118164 168.6750030517578,39.5620002746582"></path></g><g opacity="1" transform="matrix(1,0,0,1,0,0)"><path fill="url(#__lottie_element_23)" fill-opacity="1" d=" M-46.290000915527344,-181.85000610351562 C-51.224998474121094,-175.7790069580078 -51.90800094604492,-143.16000366210938 -37.224998474121094,-116.86100006103516 C-22.54199981689453,-90.56199645996094 202.04400634765625,-86.48300170898438 126.4020004272461,-156.3939971923828 C55.542999267578125,-221.88400268554688 -38.167999267578125,-191.8419952392578 -46.290000915527344,-181.85000610351562z"></path></g><g opacity="1" transform="matrix(1,0,0,1,0,0)"><path fill="url(#__lottie_element_24)" fill-opacity="1" d=" M-68.5199966430664,-178.6699981689453 C-62.768001556396484,-179.02699279785156 -59.895999908447266,-150.97000122070312 -70.5199966430664,-116.66500091552734 C-81.14399719238281,-82.36000061035156 -167.52000427246094,-67.4229965209961 -161.052001953125,-96.83699798583984 C-154.58399963378906,-126.2509994506836 -112.39299774169922,-175.9459991455078 -68.5199966430664,-178.6699981689453z"></path></g></g><g style="display: block;" transform="matrix(1,0,0,1,256,255.99998474121094)" opacity="1"><g opacity="1" transform="matrix(1,0,0,1,0,0)"><path fill="url(#__lottie_element_15)" fill-opacity="1" d=" M44.26100158691406,125.03399658203125 C42.45800018310547,121.68599700927734 37.625999450683594,121.21600341796875 -0.8240000009536743,121.21600341796875 C-38.347999572753906,121.21600341796875 -44.01499938964844,121.73100280761719 -45.90999984741211,125.03399658203125 C-50.01100158691406,132.1840057373047 -32.48699951171875,148.43600463867188 -0.8330000042915344,148.43600463867188 C30.284000396728516,148.43600463867188 48.11000061035156,132.1840057373047 44.26100158691406,125.03399658203125z"></path></g><g opacity="1" transform="matrix(1,0,0,1,0,0)"><path fill="url(#__lottie_element_16)" fill-opacity="0.7000000000000001" d=" M44.26100158691406,135.03399658203125 C42.48400115966797,131.67100524902344 37.625999450683594,132.21600341796875 -0.8240000009536743,132.21600341796875 C-38.347999572753906,132.21600341796875 -43.91899871826172,131.78799438476562 -45.90999984741211,135.03399658203125 C-47.65700149536133,137.88299560546875 -32.48699951171875,158.43600463867188 -0.8330000042915344,158.43600463867188 C30.284000396728516,158.43600463867188 45.88800048828125,138.11300659179688 44.26100158691406,135.03399658203125z"></path></g><g opacity="1" transform="matrix(1,0,0,1,0,0)"><path fill="rgb(136,24,4)" fill-opacity="1" d=" M44.26100158691406,129.03399658203125 C42.48400115966797,125.6709976196289 37.625999450683594,126.21600341796875 -0.8240000009536743,126.21600341796875 C-38.347999572753906,126.21600341796875 -43.91899871826172,125.78800201416016 -45.90999984741211,129.03399658203125 C-47.65700149536133,131.88299560546875 -32.48699951171875,152.43600463867188 -0.8330000042915344,152.43600463867188 C30.284000396728516,152.43600463867188 45.88800048828125,132.11300659179688 44.26100158691406,129.03399658203125z"></path></g><g opacity="1" transform="matrix(1,0,0,1,0,0)"><path fill="url(#__lottie_element_17)" fill-opacity="1" d=" M44.26100158691406,129.03399658203125 C42.48400115966797,125.6709976196289 37.625999450683594,126.21600341796875 -0.8240000009536743,126.21600341796875 C-38.347999572753906,126.21600341796875 -43.91899871826172,125.78800201416016 -45.90999984741211,129.03399658203125 C-47.65700149536133,131.88299560546875 -32.48699951171875,152.43600463867188 -0.8330000042915344,152.43600463867188 C30.284000396728516,152.43600463867188 45.88800048828125,132.11300659179688 44.26100158691406,129.03399658203125z"></path></g></g><g style="display: block;" transform="matrix(1,0,0,1,256,256)" opacity="1"><g opacity="1" transform="matrix(1,0,0,1,0,0)"><path fill="rgb(255,255,255)" fill-opacity="1" d=" M-28.823999404907227,56.845001220703125 C-28.823999404907227,56.845001220703125 -35.23400115966797,16.33799934387207 -69.87899780273438,16.340999603271484 C-102.20500183105469,16.3439998626709 -116.42400360107422,47.108001708984375 -116.42400360107422,55.744998931884766 C-116.42400360107422,55.744998931884766 -105.41600036621094,78.26200103759766 -74.03399658203125,78.23400115966797 C-38.67900085449219,78.2030029296875 -28.823999404907227,56.845001220703125 -28.823999404907227,56.845001220703125z"></path></g><g opacity="1" transform="matrix(1,0,0,1,0,0)"><g opacity="1" transform="matrix(1,0,0,1,0,0)"><path fill="url(#__lottie_element_6)" fill-opacity="1" d=" M-45.92900085449219,47.28799819946289 C-45.92900085449219,61.790000915527344 -57.7400016784668,73.5469970703125 -72.30999755859375,73.5469970703125 C-86.87999725341797,73.5469970703125 -98.69000244140625,61.790000915527344 -98.69000244140625,47.28799819946289 C-98.69000244140625,32.7859992980957 -86.87999725341797,21.02899932861328 -72.30999755859375,21.02899932861328 C-57.7400016784668,21.02899932861328 -45.92900085449219,32.7859992980957 -45.92900085449219,47.28799819946289z"></path></g><g opacity="1" transform="matrix(1,0,0,1,0,0)"><path fill="url(#__lottie_element_7)" fill-opacity="1" d=" M-65.28500366210938,72.08799743652344 C-67.28500366210938,72.08799743652344 -69.13700103759766,70.7969970703125 -69.75700378417969,68.78600311279297 C-70.51899719238281,66.31600189208984 -69.13400268554688,63.69599914550781 -66.66300201416016,62.933998107910156 C-61.9379997253418,61.47600173950195 -58.17599868774414,57.80500030517578 -56.60100173950195,53.112998962402344 C-55.77799987792969,50.6609992980957 -53.119998931884766,49.34400177001953 -50.67499923706055,50.165000915527344 C-48.2239990234375,50.98699951171875 -46.90299987792969,53.64099884033203 -47.72600173950195,56.09199905395508 C-50.25699996948242,63.63399887084961 -56.305999755859375,69.53500366210938 -63.904998779296875,71.87899780273438 C-64.36399841308594,72.02100372314453 -64.8290023803711,72.08799743652344 -65.28500366210938,72.08799743652344z"></path></g><g opacity="1" transform="matrix(1,0,0,1,0,0)"><path fill="rgb(23,19,10)" fill-opacity="1" d=" M-55.637001037597656,47.28799819946289 C-55.637001037597656,56.45399856567383 -63.10200119018555,63.88399887084961 -72.30999755859375,63.88399887084961 C-81.51799774169922,63.88399887084961 -88.98200225830078,56.45399856567383 -88.98200225830078,47.28799819946289 C-88.98200225830078,38.12300109863281 -81.51799774169922,30.691999435424805 -72.30999755859375,30.691999435424805 C-63.10200119018555,30.691999435424805 -55.637001037597656,38.12300109863281 -55.637001037597656,47.28799819946289z"></path></g><g opacity="1" transform="matrix(1,0,0,1,0,0)"><path fill="url(#__lottie_element_8)" fill-opacity="1" d=" M-73.29100036621094,35.27299880981445 C-73.29100036621094,39.26900100708008 -76.3479995727539,42.507999420166016 -80.11799621582031,42.507999420166016 C-83.88899993896484,42.507999420166016 -86.94599914550781,39.26900100708008 -86.94599914550781,35.27299880981445 C-86.94599914550781,31.277000427246094 -83.88899993896484,28.038000106811523 -80.11799621582031,28.038000106811523 C-76.3479995727539,28.038000106811523 -73.29100036621094,31.277000427246094 -73.29100036621094,35.27299880981445z"></path></g></g><g opacity="1" transform="matrix(1,0,0,1,0,0)"><path fill="rgb(163,65,0)" fill-opacity="1" d=" M-31.104000091552734,47.28799819946289 C-31.104000091552734,47.28799819946289 -39.667999267578125,13.435999870300293 -73.5999984741211,13.791000366210938 C-107.53199768066406,14.145999908447266 -115.06099700927734,46.167999267578125 -116.42400360107422,55.744998931884766 C-116.42400360107422,55.744998931884766 -110.96600341796875,17.219999313354492 -72.2969970703125,16.785999298095703 C-40.27199935913086,16.427000045776367 -31.104000091552734,47.28799819946289 -31.104000091552734,47.28799819946289z"></path><path stroke-linecap="round" stroke-linejoin="round" fill-opacity="0" stroke="rgb(163,65,0)" stroke-opacity="1" stroke-width="2" d=" M-31.104000091552734,47.28799819946289 C-31.104000091552734,47.28799819946289 -39.667999267578125,13.435999870300293 -73.5999984741211,13.791000366210938 C-107.53199768066406,14.145999908447266 -115.06099700927734,46.167999267578125 -116.42400360107422,55.744998931884766 C-116.42400360107422,55.744998931884766 -110.96600341796875,17.219999313354492 -72.2969970703125,16.785999298095703 C-40.27199935913086,16.427000045776367 -31.104000091552734,47.28799819946289 -31.104000091552734,47.28799819946289z"></path></g><g opacity="1" transform="matrix(1,0,0,1,0,0)"><path fill="rgb(255,255,255)" fill-opacity="1" d=" M27.21500015258789,56.845001220703125 C27.21500015258789,56.845001220703125 33.625,16.33799934387207 68.2699966430664,16.340999603271484 C100.59600067138672,16.3439998626709 114.81500244140625,47.108001708984375 114.81500244140625,55.744998931884766 C114.81500244140625,55.744998931884766 103.80699920654297,78.26200103759766 72.42500305175781,78.23400115966797 C37.06999969482422,78.2030029296875 27.21500015258789,56.845001220703125 27.21500015258789,56.845001220703125z"></path></g><g opacity="1" transform="matrix(1,0,0,1,0,0)"><g opacity="1" transform="matrix(1,0,0,1,0,0)"><path fill="url(#__lottie_element_9)" fill-opacity="1" d=" M97.08100128173828,47.28799819946289 C97.08100128173828,61.790000915527344 85.27100372314453,73.5469970703125 70.70099639892578,73.5469970703125 C56.13100051879883,73.5469970703125 44.31999969482422,61.790000915527344 44.31999969482422,47.28799819946289 C44.31999969482422,32.7859992980957 56.13100051879883,21.02899932861328 70.70099639892578,21.02899932861328 C85.27100372314453,21.02899932861328 97.08100128173828,32.7859992980957 97.08100128173828,47.28799819946289z"></path></g><g opacity="1" transform="matrix(1,0,0,1,0,0)"><path fill="url(#__lottie_element_10)" fill-opacity="1" d=" M77.7959976196289,72.08799743652344 C75.7959976196289,72.08799743652344 73.94499969482422,70.7969970703125 73.32499694824219,68.78600311279297 C72.56300354003906,66.31600189208984 73.9469985961914,63.69599914550781 76.41799926757812,62.933998107910156 C81.14299774169922,61.47600173950195 84.90499877929688,57.80500030517578 86.4800033569336,53.112998962402344 C87.3030014038086,50.6609992980957 89.96199798583984,49.34400177001953 92.40699768066406,50.165000915527344 C94.85800170898438,50.98699951171875 96.1780014038086,53.64099884033203 95.3550033569336,56.09199905395508 C92.8239974975586,63.63399887084961 86.7760009765625,69.53500366210938 79.177001953125,71.87899780273438 C78.71800231933594,72.02100372314453 78.25199890136719,72.08799743652344 77.7959976196289,72.08799743652344z"></path></g><g opacity="1" transform="matrix(1,0,0,1,0,0)"><path fill="rgb(23,19,10)" fill-opacity="1" d=" M87.37300109863281,47.28799819946289 C87.37300109863281,56.45399856567383 79.90899658203125,63.88399887084961 70.70099639892578,63.88399887084961 C61.49300003051758,63.88399887084961 54.02799987792969,56.45399856567383 54.02799987792969,47.28799819946289 C54.02799987792969,38.12300109863281 61.49300003051758,30.691999435424805 70.70099639892578,30.691999435424805 C79.90899658203125,30.691999435424805 87.37300109863281,38.12300109863281 87.37300109863281,47.28799819946289z"></path></g><g opacity="1" transform="matrix(1,0,0,1,0,0)"><path fill="url(#__lottie_element_11)" fill-opacity="1" d=" M69.71900177001953,35.27299880981445 C69.71900177001953,39.26900100708008 66.66200256347656,42.507999420166016 62.891998291015625,42.507999420166016 C59.12099838256836,42.507999420166016 56.064998626708984,39.26900100708008 56.064998626708984,35.27299880981445 C56.064998626708984,31.277000427246094 59.12099838256836,28.038000106811523 62.891998291015625,28.038000106811523 C66.66200256347656,28.038000106811523 69.71900177001953,31.277000427246094 69.71900177001953,35.27299880981445z"></path></g></g><g opacity="1" transform="matrix(1,0,0,1,0,0)"><path fill="rgb(163,65,0)" fill-opacity="1" d=" M29.95400047302246,47.28799819946289 C29.95400047302246,47.28799819946289 38.058998107910156,13.435999870300293 71.99099731445312,13.791000366210938 C105.9229965209961,14.145999908447266 113.4520034790039,46.167999267578125 114.81500244140625,55.744998931884766 C114.81500244140625,55.744998931884766 109.35700225830078,17.219999313354492 70.68800354003906,16.785999298095703 C38.66299819946289,16.427000045776367 29.95400047302246,47.28799819946289 29.95400047302246,47.28799819946289z"></path><path stroke-linecap="round" stroke-linejoin="round" fill-opacity="0" stroke="rgb(163,65,0)" stroke-opacity="1" stroke-width="2" d=" M29.95400047302246,47.28799819946289 C29.95400047302246,47.28799819946289 38.058998107910156,13.435999870300293 71.99099731445312,13.791000366210938 C105.9229965209961,14.145999908447266 113.4520034790039,46.167999267578125 114.81500244140625,55.744998931884766 C114.81500244140625,55.744998931884766 109.35700225830078,17.219999313354492 70.68800354003906,16.785999298095703 C38.66299819946289,16.427000045776367 29.95400047302246,47.28799819946289 29.95400047302246,47.28799819946289z"></path></g></g></g></svg>