<svg xmlns="http://www.w3.org/2000/svg" xmlns:xlink="http://www.w3.org/1999/xlink" viewBox="0 0 512 512" width="512" height="512" style="width: 100%; height: 100%; transform: translate3d(0,0,0); content-visibility: visible;" preserveAspectRatio="xMidYMid meet"><defs><clipPath id="__lottie_element_2"><rect width="512" height="512" x="0" y="0"></rect></clipPath><linearGradient id="__lottie_element_9" spreadMethod="pad" gradientUnits="userSpaceOnUse" x1="-3.5510001182556152" y1="114.1969985961914" x2="-3.6760001182556152" y2="89.03399658203125"><stop offset="0%" stop-color="rgb(142,67,0)" stop-opacity="1"></stop><stop offset="50%" stop-color="rgb(142,67,0)" stop-opacity="0.5"></stop><stop offset="100%" stop-color="rgb(142,67,0)" stop-opacity="0"></stop></linearGradient><linearGradient id="__lottie_element_10" spreadMethod="pad" gradientUnits="userSpaceOnUse" x1="-3.9260001182556152" y1="99.6969985961914" x2="-3.9260001182556152" y2="72.13500213623047"><stop offset="10%" stop-color="rgb(219,110,0)" stop-opacity="1"></stop><stop offset="51%" stop-color="rgb(219,110,0)" stop-opacity="0.5"></stop><stop offset="80%" stop-color="rgb(219,110,0)" stop-opacity="0"></stop></linearGradient><radialGradient id="__lottie_element_11" spreadMethod="pad" gradientUnits="userSpaceOnUse" cx="-4.926000118255615" cy="62.696998596191406" r="35.147000789642334" fx="-4.926000118255615" fy="62.696998596191406"><stop offset="40%" stop-color="rgb(255,168,0)" stop-opacity="0"></stop><stop offset="76%" stop-color="rgb(255,168,0)" stop-opacity="0.5"></stop><stop offset="100%" stop-color="rgb(255,168,0)" stop-opacity="1"></stop></radialGradient><linearGradient id="__lottie_element_12" spreadMethod="pad" gradientUnits="userSpaceOnUse" x1="-3.9260001182556152" y1="58.696998596191406" x2="-3.9260001182556152" y2="78.00800323486328"><stop offset="0%" stop-color="rgb(255,255,255)" stop-opacity="1"></stop><stop offset="50%" stop-color="rgb(255,255,255)" stop-opacity="0.5"></stop><stop offset="99%" stop-color="rgb(255,255,255)" stop-opacity="0"></stop></linearGradient><linearGradient id="__lottie_element_16" spreadMethod="pad" gradientUnits="userSpaceOnUse" x1="-2.2850000858306885" y1="-21.038999557495117" x2="-2.2850000858306885" y2="205.8939971923828"><stop offset="20%" stop-color="rgb(255,169,0)" stop-opacity="1"></stop><stop offset="60%" stop-color="rgb(255,169,0)" stop-opacity="0.5"></stop><stop offset="92%" stop-color="rgb(255,169,0)" stop-opacity="0"></stop></linearGradient><linearGradient id="__lottie_element_20" spreadMethod="pad" gradientUnits="userSpaceOnUse" x1="-2.8010001182556152" y1="-132.59300231933594" x2="-2.8010001182556152" y2="-36.81100082397461"><stop offset="10%" stop-color="rgb(255,169,0)" stop-opacity="0"></stop><stop offset="46%" stop-color="rgb(255,169,0)" stop-opacity="0.5"></stop><stop offset="100%" stop-color="rgb(255,169,0)" stop-opacity="1"></stop></linearGradient><linearGradient id="__lottie_element_21" spreadMethod="pad" gradientUnits="userSpaceOnUse" x1="-4.801000118255615" y1="-22.593000411987305" x2="-4.801000118255615" y2="-196.08799743652344"><stop offset="8%" stop-color="rgb(218,110,0)" stop-opacity="0.30000001192092896"></stop><stop offset="26%" stop-color="rgb(218,110,0)" stop-opacity="0.6499999761581421"></stop><stop offset="45%" stop-color="rgb(218,110,0)" stop-opacity="1"></stop><stop offset="58%" stop-color="rgb(218,110,0)" stop-opacity="0.5"></stop><stop offset="80%" stop-color="rgb(218,110,0)" stop-opacity="0"></stop></linearGradient><linearGradient id="__lottie_element_22" spreadMethod="pad" gradientUnits="userSpaceOnUse" x1="-155.80099487304688" y1="-134.59300231933594" x2="-141.17300415039062" y2="-98.02300262451172"><stop offset="0%" stop-color="rgb(255,255,255)" stop-opacity="1"></stop><stop offset="50%" stop-color="rgb(255,255,255)" stop-opacity="0.5"></stop><stop offset="100%" stop-color="rgb(255,255,255)" stop-opacity="0"></stop></linearGradient><linearGradient id="__lottie_element_23" spreadMethod="pad" gradientUnits="userSpaceOnUse" x1="-7.646999835968018" y1="-190.17100524902344" x2="9.437999725341797" y2="-105.7509994506836"><stop offset="0%" stop-color="rgb(255,255,255)" stop-opacity="1"></stop><stop offset="50%" stop-color="rgb(255,255,255)" stop-opacity="0.5"></stop><stop offset="100%" stop-color="rgb(255,255,255)" stop-opacity="0"></stop></linearGradient><radialGradient id="__lottie_element_27" spreadMethod="pad" gradientUnits="userSpaceOnUse" cx="-4.926000118255615" cy="153.69700622558594" r="32.492000102996826" fx="-4.926000118255615" fy="153.69700622558594"><stop offset="10%" stop-color="rgb(219,110,0)" stop-opacity="1"></stop><stop offset="66%" stop-color="rgb(219,110,0)" stop-opacity="0.5"></stop><stop offset="100%" stop-color="rgb(219,110,0)" stop-opacity="0"></stop></radialGradient><radialGradient id="__lottie_element_28" spreadMethod="pad" gradientUnits="userSpaceOnUse" cx="-4.926000118255615" cy="133.69700622558594" r="43.7310004234314" fx="-4.926000118255615" fy="133.69700622558594"><stop offset="0%" stop-color="rgb(255,255,255)"></stop><stop offset="60%" stop-color="rgb(255,255,255)"></stop><stop offset="100%" stop-color="rgb(255,255,255)"></stop></radialGradient><mask id="__lottie_element_30"><path fill="url(#__lottie_element_29)" d=" M38.356998443603516,125.84500122070312 C38.356998443603516,136.5760040283203 19.18199920654297,148.1820068359375 -4.4710001945495605,148.1820068359375 C-28.124000549316406,148.1820068359375 -47.29800033569336,136.5760040283203 -47.29800033569336,125.84500122070312 C-47.29800033569336,115.11399841308594 38.356998443603516,115.11399841308594 38.356998443603516,125.84500122070312z"></path></mask><radialGradient id="__lottie_element_29" spreadMethod="pad" gradientUnits="userSpaceOnUse" cx="-4.926000118255615" cy="133.69700622558594" r="43.7310004234314" fx="-4.926000118255615" fy="133.69700622558594"><stop stop-color="rgb(255,255,255)" offset="0%" stop-opacity="1"></stop><stop stop-color="rgb(255,255,255)" offset="50%" stop-opacity="0.5"></stop><stop stop-color="rgb(255,255,255)" offset="100%" stop-opacity="0"></stop></radialGradient><linearGradient id="__lottie_element_31" spreadMethod="pad" gradientUnits="userSpaceOnUse" x1="-4.926000118255615" y1="141.32200622558594" x2="-4.926000118255615" y2="126.96700286865234"><stop offset="0%" stop-color="rgb(88,11,14)" stop-opacity="0"></stop><stop offset="36%" stop-color="rgb(88,11,14)" stop-opacity="0.5"></stop><stop offset="80%" stop-color="rgb(88,11,14)" stop-opacity="1"></stop></linearGradient><linearGradient id="__lottie_element_35" spreadMethod="pad" gradientUnits="userSpaceOnUse" x1="59.07400131225586" y1="10.696999549865723" x2="74.9020004272461" y2="35.19300079345703"><stop offset="0%" stop-color="rgb(66,0,0)"></stop><stop offset="37%" stop-color="rgb(118,40,0)"></stop><stop offset="100%" stop-color="rgb(170,80,0)"></stop></linearGradient><radialGradient id="__lottie_element_36" spreadMethod="pad" gradientUnits="userSpaceOnUse" cx="76.0739974975586" cy="29.69700050354004" r="12.561004638671875" fx="76.0739974975586" fy="29.69700050354004"><stop offset="0%" stop-color="rgb(246,175,0)" stop-opacity="1"></stop><stop offset="50%" stop-color="rgb(246,175,0)" stop-opacity="0.5"></stop><stop offset="100%" stop-color="rgb(246,175,0)" stop-opacity="0"></stop></radialGradient><linearGradient id="__lottie_element_37" spreadMethod="pad" gradientUnits="userSpaceOnUse" x1="57.07400131225586" y1="-1.3029999732971191" x2="57.07400131225586" y2="9.519000053405762"><stop offset="0%" stop-color="rgb(255,255,255)" stop-opacity="1"></stop><stop offset="60%" stop-color="rgb(255,255,255)" stop-opacity="0.5"></stop><stop offset="100%" stop-color="rgb(255,255,255)" stop-opacity="0"></stop></linearGradient><linearGradient id="__lottie_element_38" spreadMethod="pad" gradientUnits="userSpaceOnUse" x1="-77.0510025024414" y1="7.447000026702881" x2="-59.347999572753906" y2="35.94200134277344"><stop offset="0%" stop-color="rgb(66,0,0)"></stop><stop offset="37%" stop-color="rgb(118,40,0)"></stop><stop offset="100%" stop-color="rgb(170,80,0)"></stop></linearGradient><radialGradient id="__lottie_element_39" spreadMethod="pad" gradientUnits="userSpaceOnUse" cx="-59.92599868774414" cy="29.69700050354004" r="12.560997009277344" fx="-59.92599868774414" fy="29.69700050354004"><stop offset="0%" stop-color="rgb(246,175,0)" stop-opacity="1"></stop><stop offset="50%" stop-color="rgb(246,175,0)" stop-opacity="0.5"></stop><stop offset="100%" stop-color="rgb(246,175,0)" stop-opacity="0"></stop></radialGradient><linearGradient id="__lottie_element_40" spreadMethod="pad" gradientUnits="userSpaceOnUse" x1="-78.9260025024414" y1="-1.3029999732971191" x2="-78.9260025024414" y2="9.519000053405762"><stop offset="0%" stop-color="rgb(255,255,255)" stop-opacity="1"></stop><stop offset="60%" stop-color="rgb(255,255,255)" stop-opacity="0.5"></stop><stop offset="100%" stop-color="rgb(255,255,255)" stop-opacity="0"></stop></linearGradient><linearGradient id="__lottie_element_47" spreadMethod="pad" gradientUnits="userSpaceOnUse" x1="-3.9260001182556152" y1="-101.8030014038086" x2="-3.9260001182556152" y2="179.45899963378906"><stop offset="6%" stop-color="rgb(255,216,0)" stop-opacity="0"></stop><stop offset="15%" stop-color="rgb(255,216,0)" stop-opacity="0.5"></stop><stop offset="50%" stop-color="rgb(255,216,0)" stop-opacity="1"></stop><stop offset="89%" stop-color="rgb(255,216,0)" stop-opacity="0.5"></stop><stop offset="100%" stop-color="rgb(255,216,0)" stop-opacity="0"></stop></linearGradient><linearGradient id="__lottie_element_48" spreadMethod="pad" gradientUnits="userSpaceOnUse" x1="-37.92599868774414" y1="-137.30299377441406" x2="-20.236000061035156" y2="-47.71500015258789"><stop offset="0%" stop-color="rgb(219,110,0)" stop-opacity="1"></stop><stop offset="38%" stop-color="rgb(219,110,0)" stop-opacity="0.5"></stop><stop offset="70%" stop-color="rgb(219,110,0)" stop-opacity="0"></stop></linearGradient></defs><g clip-path="url(#__lottie_element_2)"><g style="display: block;" transform="matrix(1,0,0,1,256,255.99998474121094)" opacity="1"><g opacity="1" transform="matrix(1,0,0,1,0,0)"><path fill="rgb(255,168,0)" fill-opacity="1" d=" M-150.2259979248047,-0.6800000071525574 C-150.2259979248047,-0.6800000071525574 -164.0850067138672,-10.10099983215332 -171.37100219726562,2.5230000019073486 C-178.03599548339844,14.071000099182129 -165.3000030517578,73.76799774169922 -153.53399658203125,83.44999694824219 C-146.29600524902344,89.40599822998047 -138.4600067138672,82.05899810791016 -138.4600067138672,82.05899810791016 C-133.68699645996094,78.79299926757812 -141.43299865722656,11.295000076293945 -150.2259979248047,-0.6800000071525574z"></path><path stroke-linecap="round" stroke-linejoin="round" fill-opacity="0" stroke="rgb(219,110,0)" stroke-opacity="1" stroke-width="8" d=" M-150.2259979248047,-0.6800000071525574 C-150.2259979248047,-0.6800000071525574 -164.0850067138672,-10.10099983215332 -171.37100219726562,2.5230000019073486 C-178.03599548339844,14.071000099182129 -165.3000030517578,73.76799774169922 -153.53399658203125,83.44999694824219 C-146.29600524902344,89.40599822998047 -138.4600067138672,82.05899810791016 -138.4600067138672,82.05899810791016 C-133.68699645996094,78.79299926757812 -141.43299865722656,11.295000076293945 -150.2259979248047,-0.6800000071525574z"></path></g><g opacity="1" transform="matrix(1,0,0,1,0,0)"><path fill="rgb(255,168,0)" fill-opacity="1" d=" M141.28399658203125,-0.6800000071525574 C141.28399658203125,-0.6800000071525574 155.1439971923828,-10.10099983215332 162.42999267578125,2.5230000019073486 C169.09500122070312,14.071000099182129 156.35800170898438,73.76799774169922 144.5919952392578,83.44999694824219 C137.35400390625,89.40599822998047 129.51800537109375,82.05899810791016 129.51800537109375,82.05899810791016 C124.74500274658203,78.79299926757812 132.49099731445312,11.295000076293945 141.28399658203125,-0.6800000071525574z"></path><path stroke-linecap="round" stroke-linejoin="round" fill-opacity="0" stroke="rgb(219,110,0)" stroke-opacity="1" stroke-width="8" d=" M141.28399658203125,-0.6800000071525574 C141.28399658203125,-0.6800000071525574 155.1439971923828,-10.10099983215332 162.42999267578125,2.5230000019073486 C169.09500122070312,14.071000099182129 156.35800170898438,73.76799774169922 144.5919952392578,83.44999694824219 C137.35400390625,89.40599822998047 129.51800537109375,82.05899810791016 129.51800537109375,82.05899810791016 C124.74500274658203,78.79299926757812 132.49099731445312,11.295000076293945 141.28399658203125,-0.6800000071525574z"></path></g></g><g style="display: block;" transform="matrix(1,0,0,1,256,256)" opacity="1"><g opacity="1" transform="matrix(1,0,0,1,0,0)"><path fill="rgb(255,168,0)" fill-opacity="1" d=" M139.5749969482422,38.790000915527344 C139.5749969482422,130.41299438476562 74.5199966430664,207.6750030517578 -3.9210000038146973,207.6750030517578 C-82.36199951171875,207.6750030517578 -147.41700744628906,130.41299438476562 -147.41700744628906,38.790000915527344 C-161.85000610351562,-113.5260009765625 -81.47699737548828,-174.81399536132812 -3.9210000038146973,-174.81399536132812 C71.60099792480469,-174.81399536132812 139.5749969482422,-150.91400146484375 139.5749969482422,38.790000915527344z"></path></g><g opacity="1" transform="matrix(1,0,0,1,0,0)"><g opacity="1" transform="matrix(1,0,0,1,0,0)"><path fill="url(#__lottie_element_47)" fill-opacity="1" d=" M122.39600372314453,-20.57200050354004 C106.572998046875,-44.21099853515625 101.24400329589844,-63.79499816894531 100.05500030517578,-70.53500366210938 C99.81400299072266,-71.9020004272461 98.49600219726562,-72.80599975585938 97.13500213623047,-72.53500366210938 C-10.114999771118164,-51.16400146484375 -82.01300048828125,-78.65399932861328 -94.90699768066406,-88.06300354003906 C-96.40299987792969,-89.15499877929688 -98.68199920654297,-88.28800201416016 -98.80899810791016,-86.44000244140625 C-100.5,-61.75 -124.25,-26.75 -130.33999633789062,-19.809999465942383 C-130.36399841308594,-18.000999450683594 -130.9770050048828,23.694000244140625 -130.9770050048828,25.899999618530273 C-130.9770050048828,74.43099975585938 -130.80999755859375,129.6060028076172 -130.80999755859375,129.6060028076172 C-130.80999755859375,129.6060028076172 -25.815000534057617,189.52999877929688 3.5789999961853027,189.52999877929688 C39.51300048828125,189.52999877929688 123.5260009765625,119.3280029296875 123.5260009765625,119.3280029296875 C123.5260009765625,119.3280029296875 122.63500213623047,25.763999938964844 122.63500213623047,25.763999938964844 C122.63500213623047,25.763999938964844 122.43099975585938,-19.367000579833984 122.39600372314453,-20.57200050354004z"></path></g></g><g opacity="1" transform="matrix(1,0,0,1,0,0)"><path fill="url(#__lottie_element_48)" fill-opacity="1" d=" M139.5749969482422,38.790000915527344 C139.5749969482422,130.41299438476562 74.5199966430664,207.6750030517578 -3.9210000038146973,207.6750030517578 C-82.36199951171875,207.6750030517578 -147.41700744628906,130.41299438476562 -147.41700744628906,38.790000915527344 C-161.85000610351562,-113.5260009765625 -81.47699737548828,-174.81399536132812 -3.9210000038146973,-174.81399536132812 C71.60099792480469,-174.81399536132812 139.5749969482422,-150.91400146484375 139.5749969482422,38.790000915527344z"></path></g><g opacity="1" transform="matrix(1,0,0,1,0,0)"><path stroke-linecap="round" stroke-linejoin="round" fill-opacity="0" stroke="rgb(219,110,0)" stroke-opacity="1" stroke-width="8" d=" M139.5749969482422,38.790000915527344 C139.5749969482422,130.41299438476562 74.5199966430664,207.6750030517578 -3.9210000038146973,207.6750030517578 C-82.36199951171875,207.6750030517578 -147.41700744628906,130.41299438476562 -147.41700744628906,38.790000915527344 C-161.85000610351562,-113.5260009765625 -81.47699737548828,-174.81399536132812 -3.9210000038146973,-174.81399536132812 C71.60099792480469,-174.81399536132812 139.5749969482422,-150.91400146484375 139.5749969482422,38.790000915527344z"></path></g></g><g style="display: block;" transform="matrix(1,0,0,1,256,256)" opacity="1"><g opacity="1" transform="matrix(1,0,0,1,0,0)"><path stroke-linecap="round" stroke-linejoin="round" fill-opacity="0" stroke="rgb(163,65,0)" stroke-opacity="1" stroke-width="15" d=" M45.78099822998047,-35.01499938964844 C45.78099822998047,-35.01499938964844 67.8270034790039,-40.10300064086914 87.80000305175781,-30.451000213623047"></path></g><g opacity="1" transform="matrix(1,0,0,1,0,0)"><path stroke-linecap="round" stroke-linejoin="round" fill-opacity="0" stroke="rgb(163,65,0)" stroke-opacity="1" stroke-width="15" d=" M-53.071998596191406,-35.01499938964844 C-53.071998596191406,-35.01499938964844 -75.11699676513672,-40.10300064086914 -95.08999633789062,-30.451000213623047"></path></g></g><g style="display: block;" transform="matrix(1,0,0,1,256,255.99998474121094)" opacity="1"><g opacity="1" transform="matrix(1,0,0,1,0,0)"><g opacity="1" transform="matrix(1,0,0,1,0,0)"><path fill="rgb(255,255,255)" fill-opacity="1" d=" M28.57200050354004,35.28799819946289 C28.57200050354004,35.28799819946289 26.613000869750977,12.751999855041504 42.5989990234375,-1.8940000534057617 C56.33300018310547,-14.47700023651123 82.19000244140625,-13.241999626159668 95.14800262451172,2.878999948501587 C105.69999694824219,16.006000518798828 103.18800354003906,31.309999465942383 103.18800354003906,31.309999465942383 C103.18800354003906,31.309999465942383 92.65299987792969,42.63800048828125 71.02999877929688,43.87200164794922 C43.52000045776367,45.44200134277344 28.57200050354004,35.28799819946289 28.57200050354004,35.28799819946289z"></path></g><g opacity="1" transform="matrix(1,0,0,1,0,0)"><g opacity="1" transform="matrix(1,0,0,1,0,0)"><path fill="url(#__lottie_element_35)" fill-opacity="1" d=" M87.80000305175781,16.822999954223633 C87.80000305175781,29.83099937438965 77.25499725341797,40.375999450683594 64.24700164794922,40.375999450683594 C51.23899841308594,40.375999450683594 40.694000244140625,29.83099937438965 40.694000244140625,16.822999954223633 C40.694000244140625,3.815000057220459 51.23899841308594,-6.730000019073486 64.24700164794922,-6.730000019073486 C77.25499725341797,-6.730000019073486 87.80000305175781,3.815000057220459 87.80000305175781,16.822999954223633z"></path></g><g opacity="1" transform="matrix(1,0,0,1,0,0)"><g opacity="1" transform="matrix(1,0,0,1,0,0)"><path fill="url(#__lottie_element_36)" fill-opacity="1" d=" M70.28099822998047,39.303001403808594 C68.44000244140625,39.303001403808594 66.73600006103516,38.11399841308594 66.16500091552734,36.26300048828125 C65.46299743652344,33.9900016784668 66.73799896240234,31.577999114990234 69.01200103759766,30.87700080871582 C73.36100006103516,29.53499984741211 76.8239974975586,26.1560001373291 78.27300262451172,21.83799934387207 C79.02999877929688,19.58099937438965 81.47699737548828,18.368999481201172 83.72799682617188,19.125 C85.98400115966797,19.881999969482422 87.1989974975586,22.323999404907227 86.44200134277344,24.579999923706055 C84.11199951171875,31.520999908447266 78.5459976196289,36.952999114990234 71.5510025024414,39.11000061035156 C71.12799835205078,39.2400016784668 70.70099639892578,39.303001403808594 70.28099822998047,39.303001403808594z"></path></g></g><g opacity="1" transform="matrix(1,0,0,1,0,0)"><path fill="rgb(24,19,9)" fill-opacity="1" d=" M79.13200378417969,16.822999954223633 C79.13200378417969,25.04400062561035 72.46800231933594,31.708999633789062 64.24700164794922,31.708999633789062 C56.0260009765625,31.708999633789062 49.361000061035156,25.04400062561035 49.361000061035156,16.822999954223633 C49.361000061035156,8.60200023651123 56.0260009765625,1.937999963760376 64.24700164794922,1.937999963760376 C72.46800231933594,1.937999963760376 79.13200378417969,8.60200023651123 79.13200378417969,16.822999954223633z"></path></g><g opacity="1" transform="matrix(1,0,0,1,0,0)"><path fill="url(#__lottie_element_37)" fill-opacity="1" d=" M62.979000091552734,3.98799991607666 C62.979000091552734,7.326000213623047 60.42499923706055,10.032999992370605 57.275001525878906,10.032999992370605 C54.125,10.032999992370605 51.57099914550781,7.326000213623047 51.57099914550781,3.98799991607666 C51.57099914550781,0.6499999761581421 54.125,-2.055999994277954 57.275001525878906,-2.055999994277954 C60.42499923706055,-2.055999994277954 62.979000091552734,0.6499999761581421 62.979000091552734,3.98799991607666z"></path></g></g><g opacity="1" transform="matrix(1,0,0,1,0,0)"><path fill="rgb(163,65,0)" fill-opacity="1" d=" M28.57200050354004,35.28799819946289 C25.5310001373291,11.491000175476074 40.91299819946289,-12.895999908447266 66.53099822998047,-12.53600025177002 C89.56500244140625,-12.211999893188477 107.75700378417969,8.204000473022461 103.18800354003906,31.309999465942383 C103.68699645996094,9.857000350952148 87.84200286865234,-8.434000015258789 65.84700012207031,-8.170999526977539 C42.222999572753906,-7.888000011444092 29.457000732421875,13.711000442504883 28.57200050354004,35.28799819946289z"></path><path stroke-linecap="round" stroke-linejoin="round" fill-opacity="0" stroke="rgb(163,65,0)" stroke-opacity="1" stroke-width="2" d=" M28.57200050354004,35.28799819946289 C25.5310001373291,11.491000175476074 40.91299819946289,-12.895999908447266 66.53099822998047,-12.53600025177002 C89.56500244140625,-12.211999893188477 107.75700378417969,8.204000473022461 103.18800354003906,31.309999465942383 C103.68699645996094,9.857000350952148 87.84200286865234,-8.434000015258789 65.84700012207031,-8.170999526977539 C42.222999572753906,-7.888000011444092 29.457000732421875,13.711000442504883 28.57200050354004,35.28799819946289z"></path></g></g><g opacity="1" transform="matrix(1,0,0,1,0,0)"><g opacity="1" transform="matrix(1,0,0,1,0,0)"><path fill="rgb(255,255,255)" fill-opacity="1" d=" M-35.86199951171875,35.28799819946289 C-35.86199951171875,35.28799819946289 -33.90299987792969,12.751999855041504 -49.888999938964844,-1.8940000534057617 C-63.62300109863281,-14.47700023651123 -89.48100280761719,-13.241999626159668 -102.43900299072266,2.878999948501587 C-112.99099731445312,16.006000518798828 -110.47799682617188,31.309999465942383 -110.47799682617188,31.309999465942383 C-110.47799682617188,31.309999465942383 -99.94400024414062,42.63800048828125 -78.32099914550781,43.87200164794922 C-50.81100082397461,45.44200134277344 -35.86199951171875,35.28799819946289 -35.86199951171875,35.28799819946289z"></path></g><g opacity="1" transform="matrix(1,0,0,1,0,0)"><g opacity="1" transform="matrix(1,0,0,1,0,0)"><path fill="url(#__lottie_element_38)" fill-opacity="1" d=" M-47.98400115966797,16.822999954223633 C-47.98400115966797,29.83099937438965 -58.52899932861328,40.375999450683594 -71.53700256347656,40.375999450683594 C-84.54499816894531,40.375999450683594 -95.08999633789062,29.83099937438965 -95.08999633789062,16.822999954223633 C-95.08999633789062,3.815000057220459 -84.54499816894531,-6.730000019073486 -71.53700256347656,-6.730000019073486 C-58.52899932861328,-6.730000019073486 -47.98400115966797,3.815000057220459 -47.98400115966797,16.822999954223633z"></path></g><g opacity="1" transform="matrix(1,0,0,1,0,0)"><g opacity="1" transform="matrix(1,0,0,1,0,0)"><path fill="url(#__lottie_element_39)" fill-opacity="1" d=" M-65.59600067138672,39.303001403808594 C-67.43699645996094,39.303001403808594 -69.14099884033203,38.11399841308594 -69.71199798583984,36.26300048828125 C-70.41400146484375,33.9900016784668 -69.13899993896484,31.577999114990234 -66.86499786376953,30.87700080871582 C-62.51599884033203,29.53499984741211 -59.053001403808594,26.1560001373291 -57.604000091552734,21.83799934387207 C-56.84700012207031,19.58099937438965 -54.400001525878906,18.368999481201172 -52.14899826049805,19.125 C-49.893001556396484,19.881999969482422 -48.67900085449219,22.323999404907227 -49.43600082397461,24.579999923706055 C-51.76599884033203,31.520999908447266 -57.33100128173828,36.952999114990234 -64.32599639892578,39.11000061035156 C-64.7490005493164,39.2400016784668 -65.1760025024414,39.303001403808594 -65.59600067138672,39.303001403808594z"></path></g></g><g opacity="1" transform="matrix(1,0,0,1,0,0)"><path fill="rgb(24,19,9)" fill-opacity="1" d=" M-56.652000427246094,16.822999954223633 C-56.652000427246094,25.04400062561035 -63.316001892089844,31.708999633789062 -71.53700256347656,31.708999633789062 C-79.75800323486328,31.708999633789062 -86.4229965209961,25.04400062561035 -86.4229965209961,16.822999954223633 C-86.4229965209961,8.60200023651123 -79.75800323486328,1.937999963760376 -71.53700256347656,1.937999963760376 C-63.316001892089844,1.937999963760376 -56.652000427246094,8.60200023651123 -56.652000427246094,16.822999954223633z"></path></g><g opacity="1" transform="matrix(1,0,0,1,0,0)"><path fill="url(#__lottie_element_40)" fill-opacity="1" d=" M-72.80500030517578,3.98799991607666 C-72.80500030517578,7.326000213623047 -75.35900115966797,10.032999992370605 -78.50900268554688,10.032999992370605 C-81.65899658203125,10.032999992370605 -84.21299743652344,7.326000213623047 -84.21299743652344,3.98799991607666 C-84.21299743652344,0.6499999761581421 -81.65899658203125,-2.055999994277954 -78.50900268554688,-2.055999994277954 C-75.35900115966797,-2.055999994277954 -72.80500030517578,0.6499999761581421 -72.80500030517578,3.98799991607666z"></path></g></g><g opacity="1" transform="matrix(1,0,0,1,0,0)"><path fill="rgb(163,65,0)" fill-opacity="1" d=" M-35.86199951171875,35.28799819946289 C-32.82099914550781,11.491000175476074 -48.20399856567383,-12.895999908447266 -73.8219985961914,-12.53600025177002 C-96.85700225830078,-12.211999893188477 -115.0469970703125,8.204000473022461 -110.47799682617188,31.309999465942383 C-110.97699737548828,9.857000350952148 -95.13200378417969,-8.434000015258789 -73.13700103759766,-8.170999526977539 C-49.51300048828125,-7.888000011444092 -36.74700164794922,13.711000442504883 -35.86199951171875,35.28799819946289z"></path><path stroke-linecap="round" stroke-linejoin="round" fill-opacity="0" stroke="rgb(163,65,0)" stroke-opacity="1" stroke-width="2" d=" M-35.86199951171875,35.28799819946289 C-32.82099914550781,11.491000175476074 -48.20399856567383,-12.895999908447266 -73.8219985961914,-12.53600025177002 C-96.85700225830078,-12.211999893188477 -115.0469970703125,8.204000473022461 -110.47799682617188,31.309999465942383 C-110.97699737548828,9.857000350952148 -95.13200378417969,-8.434000015258789 -73.13700103759766,-8.170999526977539 C-49.51300048828125,-7.888000011444092 -36.74700164794922,13.711000442504883 -35.86199951171875,35.28799819946289z"></path></g></g></g><g style="display: block;" transform="matrix(1,0,0,1,256,255.99998474121094)" opacity="1"><g opacity="1" transform="matrix(1,0,0,1,0,0)"><path fill="url(#__lottie_element_27)" fill-opacity="0.5" d=" M28.496000289916992,146.94000244140625 C28.496000289916992,152.656005859375 13.960000038146973,162.2729949951172 -3.9719998836517334,162.2729949951172 C-21.90399932861328,162.2729949951172 -36.439998626708984,152.656005859375 -36.439998626708984,146.94000244140625 C-36.439998626708984,141.2239990234375 -21.90399932861328,148.28199768066406 -3.9719998836517334,148.28199768066406 C13.960000038146973,148.28199768066406 28.496000289916992,141.2239990234375 28.496000289916992,146.94000244140625z"></path></g><g opacity="1" transform="matrix(1,0,0,1,0,0)"><path fill="url(#__lottie_element_28)" mask="url(#__lottie_element_30)" fill-opacity="0.7000000000000001" d="M0 0 M38.356998443603516,125.84500122070312 C38.356998443603516,136.5760040283203 19.18199920654297,148.1820068359375 -4.4710001945495605,148.1820068359375 C-28.124000549316406,148.1820068359375 -47.29800033569336,136.5760040283203 -47.29800033569336,125.84500122070312 C-47.29800033569336,115.11399841308594 38.356998443603516,115.11399841308594 38.356998443603516,125.84500122070312z"></path></g><g opacity="1" transform="matrix(1,0,0,1,0,0)"><path fill="rgb(136,24,4)" fill-opacity="1" d=" M-41.790000915527344,124.98100280761719 C-41.790000915527344,126.94499969482422 -40.98400115966797,128.8209991455078 -39.474998474121094,130.5500030517578 C-34.22800064086914,136.6909942626953 -20.540000915527344,141.05799865722656 -4.478000164031982,141.05799865722656 C11.598999977111816,141.05799865722656 25.285999298095703,136.6909942626953 30.533000946044922,130.5500030517578 C32.042999267578125,128.8209991455078 32.8489990234375,126.94499969482422 32.8489990234375,124.98100280761719 C32.8489990234375,116.0999984741211 -41.790000915527344,116.0999984741211 -41.790000915527344,124.98100280761719z"></path></g><g opacity="1" transform="matrix(1,0,0,1,0,0)"><path fill="url(#__lottie_element_31)" fill-opacity="1" d=" M-41.790000915527344,124.98100280761719 C-41.790000915527344,126.94499969482422 -40.98400115966797,128.8209991455078 -39.474998474121094,130.5500030517578 C-34.22800064086914,136.6909942626953 -20.540000915527344,141.05799865722656 -4.478000164031982,141.05799865722656 C11.598999977111816,141.05799865722656 25.285999298095703,136.6909942626953 30.533000946044922,130.5500030517578 C32.042999267578125,128.8209991455078 32.8489990234375,126.94499969482422 32.8489990234375,124.98100280761719 C32.8489990234375,116.0999984741211 -41.790000915527344,116.0999984741211 -41.790000915527344,124.98100280761719z"></path></g></g><g style="display: block;" transform="matrix(1,0,0,1,256,256)" opacity="1"><g opacity="1" transform="matrix(1,0,0,1,0,0)"><path fill="rgb(255,206,1)" fill-opacity="1" d=" M-112.01100158691406,-113.91400146484375 C-111.85600280761719,-115.16899871826172 -110.33699798583984,-115.83999633789062 -109.21499633789062,-115.1259994506836 C-99.7969970703125,-109.13600158691406 -63.29899978637695,-88.8280029296875 1.9859999418258667,-86.33599853515625 C65.76899719238281,-83.9020004272461 102.30999755859375,-91.26599884033203 111.00800323486328,-93.2969970703125 C112.06900024414062,-93.54499816894531 113.10900115966797,-92.86799621582031 113.21900177001953,-91.85700225830078 C113.9260025024414,-85.37799835205078 123.72699737548828,-47.4630012512207 138.2270050048828,-24.795000076293945 C139.53599548339844,-22.749000549316406 150.61000061035156,-11.98799991607666 150.61000061035156,-9.607999801635742 C150.61000061035156,-9.607999801635742 134.531005859375,-11.3149995803833 134.531005859375,-11.3149995803833 C134.531005859375,-9.428000450134277 136.53799438476562,-8.02400016784668 138.4459991455078,-8.67199993133545 C142.2480010986328,-9.96399974822998 156.46099853515625,-7.013999938964844 159.302001953125,-24.016000747680664 C163.8470001220703,-51.21900177001953 164.5540008544922,-71.28900146484375 155.46400451660156,-110.68599700927734 C146.37399291992188,-150.08399963378906 114.7760009765625,-193.3300018310547 46.09600067138672,-203.843994140625 C-28.687000274658203,-215.29200744628906 -106.11000061035156,-201.375 -134.91099548339844,-155.947998046875 C-140.56399536132812,-152.9010009765625 -195.11500549316406,-117.91100311279297 -156.03500366210938,11.37399959564209 C-155.30999755859375,13.77299976348877 -144.9810028076172,8.843000411987305 -144.9810028076172,6.359000205993652 C-144.9810028076172,6.359000205993652 -143.49600219726562,-33.676998138427734 -143.49600219726562,-33.676998138427734 C-143.49600219726562,-36.63600158691406 -142.43299865722656,-39.50199890136719 -140.50999450683594,-41.861000061035156 C-133.6320037841797,-50.29600143432617 -116.88899993896484,-74.38600158691406 -112.01100158691406,-113.91400146484375z"></path></g><g opacity="1" transform="matrix(1,0,0,1,0,0)"><path fill="url(#__lottie_element_20)" fill-opacity="1" d=" M-112.01100158691406,-113.91400146484375 C-111.85600280761719,-115.16899871826172 -110.33699798583984,-115.83999633789062 -109.21499633789062,-115.1259994506836 C-99.7969970703125,-109.13600158691406 -63.29899978637695,-88.8280029296875 1.9859999418258667,-86.33599853515625 C65.76899719238281,-83.9020004272461 102.31099700927734,-91.26599884033203 111.00900268554688,-93.2969970703125 C112.06999969482422,-93.54499816894531 113.10900115966797,-92.86799621582031 113.21900177001953,-91.85700225830078 C113.9260025024414,-85.37799835205078 117.9469985961914,-51.486000061035156 132.44700622558594,-28.81800079345703 C133.75599670410156,-26.77199935913086 150.61000061035156,-11.98799991607666 150.61000061035156,-9.607999801635742 C150.61000061035156,-9.607999801635742 134.531005859375,-11.3149995803833 134.531005859375,-11.3149995803833 C134.531005859375,-9.428000450134277 136.53799438476562,-8.02400016784668 138.4459991455078,-8.67199993133545 C142.24899291992188,-9.96399974822998 156.46099853515625,-7.013999938964844 159.302001953125,-24.016000747680664 C163.8470001220703,-51.21900177001953 164.5540008544922,-71.28900146484375 155.46400451660156,-110.68599700927734 C146.37399291992188,-150.08399963378906 114.7760009765625,-193.3300018310547 46.09600067138672,-203.843994140625 C-28.687000274658203,-215.29200744628906 -106.11000061035156,-201.375 -134.91099548339844,-155.947998046875 C-140.56399536132812,-152.9010009765625 -193.98199462890625,-125.08799743652344 -156.03500366210938,11.37399959564209 C-155.36399841308594,13.788999557495117 -144.9810028076172,8.843000411987305 -144.9810028076172,6.359000205993652 C-144.9810028076172,6.359000205993652 -141.2519989013672,-30.638999938964844 -141.2519989013672,-30.638999938964844 C-141.2519989013672,-33.597999572753906 -138.92599487304688,-34.81399917602539 -137.0030059814453,-37.17300033569336 C-130.125,-45.608001708984375 -116.88899993896484,-74.38600158691406 -112.01100158691406,-113.91400146484375z"></path></g><g opacity="1" transform="matrix(1,0,0,1,0,0)"><path fill="url(#__lottie_element_21)" fill-opacity="1" d=" M150.61000061035156,-9.607999801635742 C147.5760040283203,2.3480000495910645 137.8459930419922,-4.185999870300293 137.8459930419922,-6.073999881744385 C137.8459930419922,-6.073999881744385 144.57899475097656,-16.398000717163086 144.57899475097656,-16.398000717163086 C122.86900329589844,-42.0890007019043 113.93000030517578,-81.7229995727539 113.2229995727539,-88.20700073242188 C113.1050033569336,-89.21900177001953 68.60700225830078,-78.96900177001953 4.828999996185303,-81.40399932861328 C-60.46500015258789,-83.90699768066406 -103.72000122070312,-104.26799774169922 -113.14600372314453,-110.26000213623047 C-114.26599884033203,-110.97100067138672 -108.06199645996094,-77.65499877929688 -140.51600646972656,-38.20800018310547 C-142.44400024414062,-35.86399841308594 -147.0330047607422,8.548999786376953 -147.0330047607422,8.548999786376953 C-155.0399932861328,6.368000030517578 -155.73199462890625,12.75 -158.69200134277344,-0.24400000274181366 C-154.3209991455078,13.182000160217285 -153.58399963378906,12.5600004196167 -161.5449981689453,-16.863000869750977 C-162.62100219726562,-16.492000579833984 -168.35499572753906,-51.229000091552734 -168.35499572753906,-51.229000091552734 C-164.052001953125,-22.34000015258789 -154.5709991455078,-35.948001861572266 -151.3249969482422,-40.50400161743164 C-127.48300170898438,-73.96800231933594 -123.53500366210938,-103.06199645996094 -124.05599975585938,-117.3280029296875 C-124.51300048828125,-129.8260040283203 -126.29100036621094,-137.28500366210938 -131.33099365234375,-139.33700561523438 C-149.11099243164062,-146.57699584960938 -166.88099670410156,-93.75800323486328 -166.88099670410156,-93.75800323486328 C-168.10499572753906,-130.43800354003906 -141.81199645996094,-149.31900024414062 -133.81500244140625,-153.6959991455078 C-101.69100189208984,-196.43099975585938 -28.68400001525879,-215.29400634765625 46.09600067138672,-203.843994140625 C114.77799987792969,-193.33799743652344 146.89500427246094,-164.91200256347656 157.8820037841797,-96.78099822998047 C153.13299560546875,-163.48199462890625 92.61499786376953,-196.25100708007812 1.5729999542236328,-196.11500549316406 C-70.05899810791016,-196.00799560546875 -99.95500183105469,-175.37100219726562 -111.68900299072266,-162.89599609375 C-115.1989974975586,-159.16400146484375 -119.0469970703125,-149.9040069580078 -115.3759994506836,-143.36199951171875 C-103.98999786376953,-123.0739974975586 -63.983001708984375,-101.73300170898438 7.603000164031982,-97.86199951171875 C84.30599975585938,-93.71399688720703 141.0240020751953,-109.63800048828125 142.2169952392578,-109.9800033569336 C133.8800048828125,-102.9489974975586 126.56500244140625,-93.10199737548828 126.56500244140625,-93.10199737548828 C128.11000061035156,-72.1520004272461 137.55799865722656,-47.8120002746582 146.9409942626953,-36.04399871826172 C155.6009979248047,-25.183000564575195 157.8820037841797,-46.39899826049805 157.8820037841797,-46.39899826049805 C157.8820037841797,-38.69599914550781 153.32000732421875,-13.744999885559082 153.32000732421875,-13.744999885559082 C153.32000732421875,-13.744999885559082 150.61000061035156,-9.607999801635742 150.61000061035156,-9.607999801635742z"></path></g><g opacity="1" transform="matrix(1,0,0,1,0,0)"><path fill="url(#__lottie_element_22)" fill-opacity="0.9" d=" M-124.37799835205078,-108.61299896240234 C-122.07099914550781,-133.16700744628906 -130.48899841308594,-142.1840057373047 -132.50999450683594,-142.16799926757812 C-135.6909942626953,-142.14199829101562 -142.67100524902344,-137.38900756835938 -147.01499938964844,-132.05999755859375 C-161.8159942626953,-113.9000015258789 -164.4250030517578,-98.375 -164.01300048828125,-79.85399627685547 C-163.8520050048828,-72.6500015258789 -159.2570037841797,-83.31800079345703 -149.58999633789062,-99.375 C-140.0989990234375,-115.13999938964844 -124.96099853515625,-102.41100311279297 -124.37799835205078,-108.61299896240234z"></path></g><g opacity="1" transform="matrix(1,0,0,1,0,0)"><path fill="url(#__lottie_element_23)" fill-opacity="0.9" d=" M-2.135999917984009,-100.8010025024414 C-58.80400085449219,-100.79900360107422 -96.5979995727539,-118.72599792480469 -111.29000091552734,-138.19500732421875 C-114.08599853515625,-141.9010009765625 -120.15899658203125,-149.68600463867188 -118.18099975585938,-154.13800048828125 C-109.60900115966797,-173.4290008544922 -63.54199981689453,-195.25900268554688 -0.6200000047683716,-196.02999877929688 C43.47999954223633,-196.572998046875 82.99400329589844,-190.10899353027344 110.72699737548828,-165.5590057373047 C145.927001953125,-135.86700439453125 103.48100280761719,-100.80500030517578 -2.135999917984009,-100.8010025024414z"></path></g><g opacity="1" transform="matrix(1,0,0,1,0,0)"><path stroke-linecap="round" stroke-linejoin="round" fill-opacity="0" stroke="rgb(197,92,0)" stroke-opacity="1" stroke-width="8" d=" M-112.36499786376953,-112.87100219726562 C-58,-81.73699951171875 32.58100128173828,-76.70700073242188 114.51799774169922,-90.33499908447266 C114.51799774169922,-90.33499908447266 115.16999816894531,-63.31800079345703 132.88499450683594,-33.40299987792969 C132.86599731445312,-25.31999969482422 134.7220001220703,-9.949999809265137 134.7220001220703,-9.949999809265137 C134.7220001220703,-5.260000228881836 142.6020050048828,1.253000020980835 150.51300048828125,-6.88100004196167 C161.46299743652344,-18.139999389648438 164.302001953125,-60.428001403808594 157.8820037841797,-103.71700286865234 C150.9709930419922,-150.31500244140625 118.75,-207.6699981689453 -0.6129999756813049,-207.6750030517578 C-101.0469970703125,-207.6790008544922 -132.17599487304688,-162.47900390625 -134.91099548339844,-155.947998046875 C-164.6820068359375,-143.61000061035156 -180.2740020751953,-63.650001525878906 -157.41299438476562,7.810999870300293 C-151.78399658203125,24.57699966430664 -144.79400634765625,16.364999771118164 -144.63800048828125,0.41100001335144043 C-144.48199462890625,-15.543999671936035 -141.2519989013672,-30.638999938964844 -141.2519989013672,-30.638999938964844 C-141.2519989013672,-30.638999938964844 -108.88500213623047,-73.77999877929688 -112.36499786376953,-112.87100219726562z"></path></g></g><g style="display: block;" transform="matrix(1,0,0,1,256,256)" opacity="1"><g opacity="1" transform="matrix(1,0,0,1,0,0)"><path fill="rgb(159,84,2)" fill-opacity="1" d=" M-2.9110000133514404,209.79100036621094 C21.524999618530273,209.79100036621094 75.63200378417969,201.75100708007812 111.47799682617188,160.16099548339844 C148.14199829101562,117.62100219726562 151.1909942626953,74.38099670410156 151.1909942626953,62.680999755859375 C151.1909942626953,50.98099899291992 150.9219970703125,-9.371999740600586 150.9219970703125,-9.371999740600586 C150.9219970703125,-9.371999740600586 150.9340057373047,-9.295000076293945 150.9340057373047,-9.295000076293945 C150.9340057373047,-9.295000076293945 133.49400329589844,-32.61899948120117 133.49400329589844,-32.61899948120117 C133.49400329589844,-32.61899948120117 135.13800048828125,52.33100128173828 135.13800048828125,57.95100021362305 C135.13800048828125,70.01100158691406 114.50700378417969,103.30899810791016 93.83999633789062,116.66100311279297 C73.17500305175781,130.01100158691406 69.27999877929688,122.80999755859375 61.87799835205078,116.66100311279297 C54.48699951171875,110.52100372314453 47.85100173950195,102.44100189208984 42.3129997253418,102.44100189208984 C35.56800079345703,102.44100189208984 -3.2730000019073486,102.44100189208984 -3.2730000019073486,102.44100189208984 C-3.2730000019073486,102.44100189208984 -12.979999542236328,102.44100189208984 -23.538999557495117,102.44100189208984 C-23.538999557495117,102.44100189208984 -48.858001708984375,102.44100189208984 -48.858001708984375,102.44100189208984 C-54.395999908447266,102.44100189208984 -61.042999267578125,110.51000213623047 -68.43499755859375,116.66100311279297 C-75.82599639892578,122.81099700927734 -82.22899627685547,130.00900268554688 -102.90599822998047,116.66100311279297 C-123.57099914550781,103.32099914550781 -144.1929931640625,70.01100158691406 -144.1929931640625,57.95100021362305 C-144.1929931640625,52.33100128173828 -144.1929931640625,-27.618999481201172 -144.1929931640625,-27.618999481201172 C-144.1929931640625,-27.618999481201172 -160.44700622558594,-6.263999938964844 -160.44700622558594,-6.263999938964844 C-160.44700622558594,-6.263999938964844 -160.28500366210938,-6.184000015258789 -160.28500366210938,-6.184000015258789 C-160.28500366210938,-6.184000015258789 -160.24600219726562,50.98099899291992 -160.24600219726562,62.680999755859375 C-160.24600219726562,74.38099670410156 -157.20199584960938,117.625 -120.53299713134766,160.16099548339844 C-83.86900329589844,202.6909942626953 -26.496000289916992,210.14100646972656 -2.9110000133514404,209.781005859375 C-2.9110000133514404,209.781005859375 -3.2730000019073486,150.3509979248047 -3.2730000019073486,150.3509979248047 C-3.2730000019073486,150.3509979248047 -14.876999855041504,150.3509979248047 -14.876999855041504,150.3509979248047 C-19.423999786376953,150.3509979248047 -25.025999069213867,164.55099487304688 -37.93299865722656,164.55099487304688 C-50.83000183105469,164.55099487304688 -55.32899856567383,141.43299865722656 -53.231998443603516,137.26100158691406 C-51.13100051879883,133.08099365234375 -40.034000396728516,122.49099731445312 -34.625,122.49099731445312 C-29.226999282836914,122.49099731445312 -3.2730000019073486,122.49099731445312 -3.2730000019073486,122.49099731445312 C-3.2730000019073486,122.49099731445312 3.2130000591278076,122.49099731445312 10.378000259399414,122.49099731445312 C10.378000259399414,122.49099731445312 28.079999923706055,122.49099731445312 28.079999923706055,122.49099731445312 C33.48899841308594,122.49099731445312 44.582000732421875,133.08299255371094 46.6870002746582,137.26100158691406 C48.78799819946289,141.43099975585938 44.28499984741211,164.55099487304688 31.38800048828125,164.55099487304688 C18.481000900268555,164.55099487304688 12.878000259399414,150.3509979248047 8.331000328063965,150.3509979248047 C3.7739999294281006,150.3509979248047 -3.2730000019073486,150.3509979248047 -3.2730000019073486,150.3509979248047 C-3.2730000019073486,150.3509979248047 -2.9110000133514404,209.79100036621094 -2.9110000133514404,209.79100036621094z"></path></g><g opacity="1" transform="matrix(1,0,0,1,0,0)"><path fill="url(#__lottie_element_16)" fill-opacity="1" d=" M-2.9110000133514404,209.79100036621094 C21.524999618530273,209.79100036621094 75.63200378417969,201.75100708007812 111.47799682617188,160.16099548339844 C148.14199829101562,117.62100219726562 151.1909942626953,74.38099670410156 151.1909942626953,62.680999755859375 C151.1909942626953,50.98099899291992 150.9219970703125,-9.371999740600586 150.9219970703125,-9.371999740600586 C150.9219970703125,-9.371999740600586 150.9340057373047,-9.295000076293945 150.9340057373047,-9.295000076293945 C150.9340057373047,-9.295000076293945 133.30599975585938,-32.55699920654297 133.30599975585938,-32.55699920654297 C133.30599975585938,-32.55699920654297 134.05999755859375,52.33100128173828 134.05999755859375,57.95100021362305 C134.05999755859375,70.01100158691406 114.50700378417969,103.30899810791016 93.83999633789062,116.66100311279297 C73.17500305175781,130.01100158691406 69.27999877929688,122.80999755859375 61.87799835205078,116.66100311279297 C54.48699951171875,110.52100372314453 47.85100173950195,102.44100189208984 42.3129997253418,102.44100189208984 C35.56800079345703,102.44100189208984 -3.2730000019073486,102.44100189208984 -3.2730000019073486,102.44100189208984 C-3.2730000019073486,102.44100189208984 -12.979999542236328,102.44100189208984 -23.538999557495117,102.44100189208984 C-23.538999557495117,102.44100189208984 -48.858001708984375,102.44100189208984 -48.858001708984375,102.44100189208984 C-54.395999908447266,102.44100189208984 -61.042999267578125,110.51000213623047 -68.43499755859375,116.66100311279297 C-75.82599639892578,122.81099700927734 -82.22899627685547,130.00900268554688 -102.90599822998047,116.66100311279297 C-123.57099914550781,103.32099914550781 -143.11500549316406,70.01100158691406 -143.11500549316406,57.95100021362305 C-143.11500549316406,52.33100128173828 -144.1929931640625,-27.618999481201172 -144.1929931640625,-27.618999481201172 C-144.1929931640625,-27.618999481201172 -160.44700622558594,-6.263999938964844 -160.44700622558594,-6.263999938964844 C-160.44700622558594,-6.263999938964844 -160.28500366210938,-6.184000015258789 -160.28500366210938,-6.184000015258789 C-160.28500366210938,-6.184000015258789 -160.24600219726562,50.98099899291992 -160.24600219726562,62.680999755859375 C-160.24600219726562,74.38099670410156 -157.20199584960938,117.625 -120.53299713134766,160.16099548339844 C-83.86900329589844,202.6909942626953 -26.496000289916992,210.1510009765625 -2.9110000133514404,209.79100036621094 C-2.9110000133514404,209.79100036621094 -3.2730000019073486,150.3509979248047 -3.2730000019073486,150.3509979248047 C-3.2730000019073486,150.3509979248047 -14.876999855041504,150.3509979248047 -14.876999855041504,150.3509979248047 C-19.423999786376953,150.3509979248047 -25.025999069213867,164.55099487304688 -37.93299865722656,164.55099487304688 C-50.83000183105469,164.55099487304688 -55.32899856567383,141.43299865722656 -53.231998443603516,137.26100158691406 C-51.13100051879883,133.08099365234375 -40.034000396728516,122.49099731445312 -34.625,122.49099731445312 C-29.226999282836914,122.49099731445312 -3.2730000019073486,122.49099731445312 -3.2730000019073486,122.49099731445312 C-3.2730000019073486,122.49099731445312 3.2130000591278076,122.49099731445312 10.378000259399414,122.49099731445312 C10.378000259399414,122.49099731445312 28.079999923706055,122.49099731445312 28.079999923706055,122.49099731445312 C33.48899841308594,122.49099731445312 44.582000732421875,133.08299255371094 46.6870002746582,137.26100158691406 C48.78799819946289,141.43099975585938 44.28499984741211,164.55099487304688 31.38800048828125,164.55099487304688 C18.481000900268555,164.55099487304688 12.878000259399414,150.3509979248047 8.331000328063965,150.3509979248047 C3.7739999294281006,150.3509979248047 -3.2730000019073486,150.3509979248047 -3.2730000019073486,150.3509979248047 C-3.2730000019073486,150.3509979248047 -2.9110000133514404,209.79100036621094 -2.9110000133514404,209.79100036621094z"></path></g><g opacity="1" transform="matrix(1,0,0,1,0,0)"><path stroke-linecap="round" stroke-linejoin="round" fill-opacity="0" stroke="rgb(142,67,0)" stroke-opacity="1" stroke-width="8" d=" M150.93699645996094,-9.295000076293945 C150.93699645996094,-9.295000076293945 132.97300720214844,-32.80500030517578 132.97300720214844,-32.80500030517578 C132.97300720214844,-32.80500030517578 134.06300354003906,48.32699966430664 134.06300354003906,53.95500183105469 C134.06300354003906,70.7969970703125 114.51300048828125,103.31900024414062 93.84500122070312,116.66300201416016 C73.177001953125,130.0070037841797 69.2770004272461,122.80699920654297 61.882999420166016,116.66300201416016 C54.48899841308594,110.51899719238281 45.698001861572266,102.44200134277344 40.15399932861328,102.44200134277344 C33.40999984741211,102.44200134277344 -3.2699999809265137,102.44200134277344 -3.2730000019073486,102.44200134277344 C-3.2730000019073486,102.44200134277344 -3.2739999294281006,102.44200134277344 -3.2739999294281006,102.44200134277344 C-3.2769999504089355,102.44200134277344 -39.957000732421875,102.44200134277344 -46.70100021362305,102.44200134277344 C-52.244998931884766,102.44200134277344 -61.0359992980957,110.51899719238281 -68.43000030517578,116.66300201416016 C-75.8239974975586,122.80699920654297 -82.23300170898438,130.0070037841797 -102.9010009765625,116.66300201416016 C-123.56900024414062,103.31900024414062 -143.11900329589844,70.7969970703125 -143.11900329589844,53.95500183105469 C-143.11900329589844,48.32699966430664 -142.04200744628906,-27.617000579833984 -142.04200744628906,-27.617000579833984 C-142.04200744628906,-27.617000579833984 -160.45199584960938,-6.263999938964844 -160.45199584960938,-6.263999938964844 C-160.45199584960938,-6.263999938964844 -160.28799438476562,-6.178999900817871 -160.28799438476562,-6.178999900817871 C-160.28799438476562,-6.178999900817871 -160.24899291992188,50.983001708984375 -160.24899291992188,62.68000030517578 C-160.24899291992188,74.37699890136719 -157.19400024414062,117.62200164794922 -120.53099822998047,160.1580047607422 C-83.86799621582031,202.69400024414062 -28.110000610351562,210.13600158691406 -4.5279998779296875,209.78199768066406 C-4.5279998779296875,209.78199768066406 -4.5279998779296875,209.78199768066406 -4.5279998779296875,209.78199768066406 C-4.5279998779296875,209.78199768066406 -4.5279998779296875,209.78199768066406 -4.5279998779296875,209.78199768066406 C19.054000854492188,210.13600158691406 74.81199645996094,202.69400024414062 111.4749984741211,160.1580047607422 C148.13800048828125,117.62200164794922 151.1929931640625,74.37699890136719 151.1929931640625,62.68000030517578 C151.1929931640625,50.983001708984375 150.92300415039062,-9.366999626159668 150.92300415039062,-9.366999626159668 C150.92300415039062,-9.366999626159668 150.93699645996094,-9.295000076293945 150.93699645996094,-9.295000076293945z"></path></g><g opacity="1" transform="matrix(1,0,0,1,0,0)"><path stroke-linecap="round" stroke-linejoin="round" fill-opacity="0" stroke="rgb(142,67,0)" stroke-opacity="1" stroke-width="8" d=" M36.775001525878906,161.55099487304688 C22.711000442504883,165.75999450683594 12.878000259399414,150.3509979248047 8.331000328063965,150.3509979248047 C3.7739999294281006,150.3509979248047 -14.876999855041504,150.3509979248047 -14.876999855041504,150.3509979248047 C-19.423999786376953,150.3509979248047 -29.714000701904297,165.2740020751953 -43.31999969482422,161.55099487304688 C-57.46099853515625,157.6820068359375 -54.25199890136719,141.43299865722656 -52.154998779296875,137.26100158691406 C-50.05400085449219,133.08099365234375 -41.56999969482422,122.49099731445312 -34.625,122.49099731445312 C-29.226999282836914,122.49099731445312 28.079999923706055,122.49099731445312 28.079999923706055,122.49099731445312 C35.36000061035156,122.49099731445312 43.505001068115234,133.08299255371094 45.61000061035156,137.26100158691406 C47.71099853515625,141.43099975585938 49.70199966430664,157.6820068359375 36.775001525878906,161.55099487304688z"></path></g><g opacity="1" transform="matrix(1,0,0,1,0,0)"><path stroke-linecap="round" stroke-linejoin="round" fill-opacity="0" stroke="rgb(181,102,8)" stroke-opacity="1" stroke-width="8" d=" M150.93800354003906,-9.295000076293945 C150.93800354003906,-9.295000076293945 132.97300720214844,-32.80500030517578 132.97300720214844,-32.80500030517578 C132.97300720214844,-32.80500030517578 134.06300354003906,48.32699966430664 134.06300354003906,53.95500183105469 C134.06300354003906,70.7969970703125 114.51300048828125,103.31900024414062 93.84500122070312,116.66300201416016 C73.177001953125,130.0070037841797 69.2770004272461,122.80699920654297 61.882999420166016,116.66300201416016 C54.48899841308594,110.51899719238281 45.698001861572266,102.44200134277344 40.15399932861328,102.44200134277344 C33.40999984741211,102.44200134277344 -3.2739999294281006,102.44200134277344 -3.2739999294281006,102.44200134277344 C-3.2769999504089355,102.44200134277344 -39.957000732421875,102.44200134277344 -46.70100021362305,102.44200134277344 C-52.244998931884766,102.44200134277344 -61.0359992980957,110.51899719238281 -68.43000030517578,116.66300201416016 C-75.8239974975586,122.80699920654297 -82.23300170898438,130.0070037841797 -102.9010009765625,116.66300201416016 C-123.56900024414062,103.31900024414062 -143.11900329589844,70.7969970703125 -143.11900329589844,53.95500183105469 C-143.11900329589844,48.32699966430664 -142.04200744628906,-27.617000579833984 -142.04200744628906,-27.617000579833984"></path></g></g><g style="display: block;" transform="matrix(1,0,0,1,256,256)" opacity="1"><g opacity="1" transform="matrix(1,0,0,1,0,0)"><path fill="url(#__lottie_element_9)" fill-opacity="1" d=" M23.749000549316406,83.00599670410156 C23.749000549316406,95.93000030517578 13.10099983215332,111.34500122070312 -3.7130000591278076,111.34500122070312 C-20.527000427246094,111.34500122070312 -31.579999923706055,95.93000030517578 -31.579999923706055,83.00599670410156 C-35.75,49.625 28.125,48.75 23.749000549316406,83.00599670410156z"></path></g><g opacity="1" transform="matrix(1,0,0,1,0,0)"><path fill="rgb(255,168,0)" fill-opacity="0.8" d=" M25.871000289916992,78.61000061035156 C25.871000289916992,90.5999984741211 12.532999992370605,100.31999969482422 -3.9210000038146973,100.31999969482422 C-20.375,100.31999969482422 -33.7130012512207,90.5999984741211 -33.7130012512207,78.61000061035156 C-33.7130012512207,66.62000274658203 -20.375,57.4109992980957 -3.9210000038146973,57.4109992980957 C12.532999992370605,57.4109992980957 25.871000289916992,66.62000274658203 25.871000289916992,78.61000061035156z"></path></g><g opacity="1" transform="matrix(1,0,0,1,0,0)"><path fill="url(#__lottie_element_10)" fill-opacity="1" d=" M25.871000289916992,78.61000061035156 C25.871000289916992,90.5999984741211 12.532999992370605,100.31999969482422 -3.9210000038146973,100.31999969482422 C-20.375,100.31999969482422 -33.7130012512207,90.5999984741211 -33.7130012512207,78.61000061035156 C-33.7130012512207,66.62000274658203 -20.375,57.4109992980957 -3.9210000038146973,57.4109992980957 C12.532999992370605,57.4109992980957 25.871000289916992,66.62000274658203 25.871000289916992,78.61000061035156z"></path></g><g opacity="1" transform="matrix(1,0,0,1,0,0)"><path fill="rgb(255,216,0)" fill-opacity="1" d=" M23.19300079345703,72.87200164794922 C23.19300079345703,81.7979965209961 10.312999725341797,90.3759994506836 -3.9210000038146973,90.3759994506836 C-18.155000686645508,90.3759994506836 -31.03499984741211,81.7979965209961 -31.03499984741211,72.87200164794922 C-31.03499984741211,63.94599914550781 -18.155000686645508,56.965999603271484 -3.9210000038146973,56.965999603271484 C10.312999725341797,56.965999603271484 23.19300079345703,63.94599914550781 23.19300079345703,72.87200164794922z"></path></g><g opacity="1" transform="matrix(1,0,0,1,0,0)"><path fill="url(#__lottie_element_11)" fill-opacity="1" d=" M23.19300079345703,72.87200164794922 C23.19300079345703,81.7979965209961 10.312999725341797,90.3759994506836 -3.9210000038146973,90.3759994506836 C-18.155000686645508,90.3759994506836 -31.03499984741211,81.7979965209961 -31.03499984741211,72.87200164794922 C-31.03499984741211,63.94599914550781 -18.155000686645508,56.965999603271484 -3.9210000038146973,56.965999603271484 C10.312999725341797,56.965999603271484 23.19300079345703,63.94599914550781 23.19300079345703,72.87200164794922z"></path></g><g opacity="1" transform="matrix(1,0,0,1,0,0)"><path fill="url(#__lottie_element_12)" fill-opacity="0.7000000000000001" d=" M8.175000190734863,67.11000061035156 C8.175000190734863,73.16699981689453 2.759000062942505,78.86599731445312 -3.9210000038146973,78.86599731445312 C-10.60099983215332,78.86599731445312 -16.017000198364258,73.16699981689453 -16.017000198364258,67.11000061035156 C-16.017000198364258,61.053001403808594 -10.60099983215332,58.013999938964844 -3.9210000038146973,58.013999938964844 C2.759000062942505,58.013999938964844 8.175000190734863,61.053001403808594 8.175000190734863,67.11000061035156z"></path></g></g><g style="display: block;" transform="matrix(1,0,0,1,256,256)" opacity="1"><g opacity="1" transform="matrix(1,0,0,1,0,0)"><path stroke-linecap="round" stroke-linejoin="round" fill-opacity="0" stroke="rgb(163,65,0)" stroke-opacity="1" stroke-width="8" d=" M-158.4499969482422,-7.607999801635742 C-158.4499969482422,-7.607999801635742 -106.5770034790039,-67.78199768066406 -112.36499786376953,-112.87100219726562 C-58,-81.73699951171875 32.58100128173828,-76.70700073242188 114.51799774169922,-90.33499908447266 C114.51799774169922,-90.33499908447266 116.4729995727539,-45.310001373291016 150.61000061035156,-9.607999801635742"></path></g></g></g></svg>