<svg xmlns="http://www.w3.org/2000/svg" xmlns:xlink="http://www.w3.org/1999/xlink" viewBox="0 0 512 512" width="512" height="512" style="width: 100%; height: 100%; transform: translate3d(0,0,0); content-visibility: visible;" preserveAspectRatio="xMidYMid meet"><defs><clipPath id="__lottie_element_2"><rect width="512" height="512" x="0" y="0"></rect></clipPath><linearGradient id="__lottie_element_6" spreadMethod="pad" gradientUnits="userSpaceOnUse" x1="3" y1="-20" x2="-1.3630000352859497" y2="-121.4280014038086"><stop offset="11%" stop-color="rgb(0,0,0)" stop-opacity="1"></stop><stop offset="56%" stop-color="rgb(0,0,0)" stop-opacity="0.5"></stop><stop offset="100%" stop-color="rgb(0,0,0)" stop-opacity="0"></stop></linearGradient><linearGradient id="__lottie_element_7" spreadMethod="pad" gradientUnits="userSpaceOnUse" x1="-33" y1="-56" x2="-50.92900085449219" y2="-161.4250030517578"><stop offset="0%" stop-color="rgb(0,0,0)" stop-opacity="1"></stop><stop offset="50%" stop-color="rgb(0,0,0)" stop-opacity="0.5"></stop><stop offset="100%" stop-color="rgb(0,0,0)" stop-opacity="0"></stop></linearGradient><linearGradient id="__lottie_element_8" spreadMethod="pad" gradientUnits="userSpaceOnUse" x1="19" y1="-175" x2="14.87600040435791" y2="-114.86499786376953"><stop offset="0%" stop-color="rgb(152,152,152)" stop-opacity="1"></stop><stop offset="50%" stop-color="rgb(152,152,152)" stop-opacity="0.5"></stop><stop offset="100%" stop-color="rgb(152,152,152)" stop-opacity="0"></stop></linearGradient><linearGradient id="__lottie_element_9" spreadMethod="pad" gradientUnits="userSpaceOnUse" x1="-111.25" y1="-132.25" x2="-93.91799926757812" y2="-104.08499908447266"><stop offset="0%" stop-color="rgb(152,152,152)" stop-opacity="1"></stop><stop offset="50%" stop-color="rgb(152,152,152)" stop-opacity="0.5"></stop><stop offset="100%" stop-color="rgb(152,152,152)" stop-opacity="0"></stop></linearGradient><linearGradient id="__lottie_element_14" spreadMethod="pad" gradientUnits="userSpaceOnUse" x1="1.5" y1="139" x2="2.3529999256134033" y2="183.88499450683594"><stop offset="0%" stop-color="rgb(188,184,188)"></stop><stop offset="31%" stop-color="rgb(212,210,212)"></stop><stop offset="100%" stop-color="rgb(237,237,237)"></stop></linearGradient><radialGradient id="__lottie_element_15" spreadMethod="pad" gradientUnits="userSpaceOnUse" cx="-5" cy="46" r="89.12335173694325" fx="-5" fy="46"><stop offset="43%" stop-color="rgb(188,184,188)"></stop><stop offset="91%" stop-color="rgb(214,212,214)"></stop><stop offset="100%" stop-color="rgb(240,240,240)"></stop></radialGradient><linearGradient id="__lottie_element_16" spreadMethod="pad" gradientUnits="userSpaceOnUse" x1="0" y1="120.5" x2="-1.25600004196167" y2="215.44000244140625"><stop offset="31%" stop-color="rgb(113,119,119)"></stop><stop offset="54%" stop-color="rgb(139,142,142)"></stop><stop offset="100%" stop-color="rgb(164,164,164)"></stop></linearGradient><linearGradient id="__lottie_element_17" spreadMethod="pad" gradientUnits="userSpaceOnUse" x1="-101" y1="163" x2="-49.986000061035156" y2="187.92100524902344"><stop offset="14%" stop-color="rgb(45,45,45)"></stop><stop offset="67%" stop-color="rgb(30,30,30)"></stop><stop offset="100%" stop-color="rgb(15,15,15)"></stop></linearGradient><linearGradient id="__lottie_element_18" spreadMethod="pad" gradientUnits="userSpaceOnUse" x1="-101" y1="110" x2="-100.32099914550781" y2="207.76300048828125"><stop offset="0%" stop-color="rgb(255,255,255)" stop-opacity="1"></stop><stop offset="37%" stop-color="rgb(255,255,255)" stop-opacity="0.5"></stop><stop offset="100%" stop-color="rgb(255,255,255)" stop-opacity="0"></stop></linearGradient><linearGradient id="__lottie_element_19" spreadMethod="pad" gradientUnits="userSpaceOnUse" x1="-114.93800354003906" y1="209" x2="-102.1510009765625" y2="199.17300415039062"><stop offset="30%" stop-color="rgb(15,15,15)" stop-opacity="1"></stop><stop offset="67%" stop-color="rgb(15,15,15)" stop-opacity="0.5"></stop><stop offset="100%" stop-color="rgb(15,15,15)" stop-opacity="0"></stop></linearGradient><linearGradient id="__lottie_element_20" spreadMethod="pad" gradientUnits="userSpaceOnUse" x1="-101" y1="163" x2="-49.986000061035156" y2="187.92100524902344"><stop offset="14%" stop-color="rgb(45,45,45)"></stop><stop offset="67%" stop-color="rgb(30,30,30)"></stop><stop offset="100%" stop-color="rgb(15,15,15)"></stop></linearGradient><linearGradient id="__lottie_element_21" spreadMethod="pad" gradientUnits="userSpaceOnUse" x1="-101" y1="110" x2="-100.32099914550781" y2="207.76300048828125"><stop offset="0%" stop-color="rgb(255,255,255)" stop-opacity="1"></stop><stop offset="37%" stop-color="rgb(255,255,255)" stop-opacity="0.5"></stop><stop offset="100%" stop-color="rgb(255,255,255)" stop-opacity="0"></stop></linearGradient><linearGradient id="__lottie_element_22" spreadMethod="pad" gradientUnits="userSpaceOnUse" x1="-114.93800354003906" y1="209" x2="-102.1510009765625" y2="199.17300415039062"><stop offset="30%" stop-color="rgb(15,15,15)" stop-opacity="1"></stop><stop offset="67%" stop-color="rgb(15,15,15)" stop-opacity="0.5"></stop><stop offset="100%" stop-color="rgb(15,15,15)" stop-opacity="0"></stop></linearGradient><linearGradient id="__lottie_element_25" spreadMethod="pad" gradientUnits="userSpaceOnUse" x1="0" y1="23.875" x2="0" y2="41.415000915527344"><stop offset="0%" stop-color="rgb(255,168,0)" stop-opacity="1"></stop><stop offset="60%" stop-color="rgb(255,168,0)" stop-opacity="0.5"></stop><stop offset="100%" stop-color="rgb(255,168,0)" stop-opacity="0"></stop></linearGradient><linearGradient id="__lottie_element_26" spreadMethod="pad" gradientUnits="userSpaceOnUse" x1="0.26899999380111694" y1="38.14099884033203" x2="0" y2="15.696000099182129"><stop offset="11%" stop-color="rgb(219,110,0)" stop-opacity="1"></stop><stop offset="51%" stop-color="rgb(219,110,0)" stop-opacity="0.5149999856948853"></stop><stop offset="80%" stop-color="rgb(219,110,0)" stop-opacity="0.029999999329447746"></stop></linearGradient><radialGradient id="__lottie_element_27" spreadMethod="pad" gradientUnits="userSpaceOnUse" cx="0.25" cy="11" r="20.736000061035156" fx="0.25" fy="11"><stop offset="36%" stop-color="rgb(255,168,0)" stop-opacity="0"></stop><stop offset="74%" stop-color="rgb(255,168,0)" stop-opacity="0.5"></stop><stop offset="100%" stop-color="rgb(255,168,0)" stop-opacity="1"></stop></radialGradient><linearGradient id="__lottie_element_28" spreadMethod="pad" gradientUnits="userSpaceOnUse" x1="0.06199999898672104" y1="9.062000274658203" x2="0.31200000643730164" y2="20.20800018310547"><stop offset="0%" stop-color="rgb(255,255,255)" stop-opacity="1"></stop><stop offset="60%" stop-color="rgb(255,255,255)" stop-opacity="0.5"></stop><stop offset="100%" stop-color="rgb(255,255,255)" stop-opacity="0"></stop></linearGradient><radialGradient id="__lottie_element_32" spreadMethod="pad" gradientUnits="userSpaceOnUse" cx="0.25" cy="78.125" r="19.145408523397226" fx="0.25" fy="78.125"><stop offset="10%" stop-color="rgb(219,110,0)" stop-opacity="1"></stop><stop offset="66%" stop-color="rgb(219,110,0)" stop-opacity="0.5"></stop><stop offset="100%" stop-color="rgb(219,110,0)" stop-opacity="0"></stop></radialGradient><radialGradient id="__lottie_element_33" spreadMethod="pad" gradientUnits="userSpaceOnUse" cx="0" cy="59" r="27.558000564575195" fx="0" fy="59"><stop offset="0%" stop-color="rgb(255,255,255)" stop-opacity="1"></stop><stop offset="62%" stop-color="rgb(255,255,255)" stop-opacity="0.5"></stop><stop offset="100%" stop-color="rgb(255,255,255)" stop-opacity="0"></stop></radialGradient><linearGradient id="__lottie_element_40" spreadMethod="pad" gradientUnits="userSpaceOnUse" x1="-57.75" y1="-25.25" x2="-41.560001373291016" y2="-2.322999954223633"><stop offset="0%" stop-color="rgb(38,0,6)"></stop><stop offset="37%" stop-color="rgb(116,0,3)"></stop><stop offset="100%" stop-color="rgb(193,0,0)"></stop></linearGradient><radialGradient id="__lottie_element_41" spreadMethod="pad" gradientUnits="userSpaceOnUse" cx="-42.875" cy="-6.125" r="14.68853161250779" fx="-42.875" fy="-6.125"><stop offset="0%" stop-color="rgb(255,0,0)" stop-opacity="1"></stop><stop offset="50%" stop-color="rgb(255,0,0)" stop-opacity="0.5"></stop><stop offset="100%" stop-color="rgb(255,0,0)" stop-opacity="0"></stop></radialGradient><linearGradient id="__lottie_element_42" spreadMethod="pad" gradientUnits="userSpaceOnUse" x1="-59" y1="-31" x2="-59" y2="-22.195999145507812"><stop offset="0%" stop-color="rgb(255,255,255)" stop-opacity="1"></stop><stop offset="60%" stop-color="rgb(255,255,255)" stop-opacity="0.5"></stop><stop offset="100%" stop-color="rgb(255,255,255)" stop-opacity="0"></stop></linearGradient><linearGradient id="__lottie_element_43" spreadMethod="pad" gradientUnits="userSpaceOnUse" x1="-57.75" y1="-25.25" x2="-41.560001373291016" y2="-2.322999954223633"><stop offset="0%" stop-color="rgb(38,0,6)"></stop><stop offset="37%" stop-color="rgb(116,0,3)"></stop><stop offset="100%" stop-color="rgb(193,0,0)"></stop></linearGradient><radialGradient id="__lottie_element_44" spreadMethod="pad" gradientUnits="userSpaceOnUse" cx="-42.875" cy="-6.125" r="14.68853161250779" fx="-42.875" fy="-6.125"><stop offset="0%" stop-color="rgb(255,0,0)" stop-opacity="1"></stop><stop offset="50%" stop-color="rgb(255,0,0)" stop-opacity="0.5"></stop><stop offset="100%" stop-color="rgb(255,0,0)" stop-opacity="0"></stop></radialGradient><linearGradient id="__lottie_element_45" spreadMethod="pad" gradientUnits="userSpaceOnUse" x1="-59" y1="-31" x2="-59" y2="-22.195999145507812"><stop offset="0%" stop-color="rgb(255,255,255)" stop-opacity="1"></stop><stop offset="60%" stop-color="rgb(255,255,255)" stop-opacity="0.5"></stop><stop offset="100%" stop-color="rgb(255,255,255)" stop-opacity="0"></stop></linearGradient><linearGradient id="__lottie_element_49" spreadMethod="pad" gradientUnits="userSpaceOnUse" x1="-2" y1="-95" x2="2.5929999351501465" y2="93.31800079345703"><stop offset="9%" stop-color="rgb(255,216,0)" stop-opacity="0"></stop><stop offset="15%" stop-color="rgb(255,216,0)" stop-opacity="0.5"></stop><stop offset="50%" stop-color="rgb(255,216,0)" stop-opacity="1"></stop><stop offset="88%" stop-color="rgb(255,216,0)" stop-opacity="0.5"></stop><stop offset="100%" stop-color="rgb(255,216,0)" stop-opacity="0"></stop></linearGradient><linearGradient id="__lottie_element_50" spreadMethod="pad" gradientUnits="userSpaceOnUse" x1="-18" y1="-139" x2="-6.698999881744385" y2="-64.48100280761719"><stop offset="0%" stop-color="rgb(219,110,0)" stop-opacity="1"></stop><stop offset="38%" stop-color="rgb(219,110,0)" stop-opacity="0.5"></stop><stop offset="71%" stop-color="rgb(219,110,0)" stop-opacity="0"></stop></linearGradient><radialGradient id="__lottie_element_60" spreadMethod="pad" gradientUnits="userSpaceOnUse" cx="-156.25" cy="-29.25" r="37.42139541635062" fx="-156.25" fy="-29.25"><stop offset="21%" stop-color="rgb(255,216,0)" stop-opacity="1"></stop><stop offset="90%" stop-color="rgb(255,216,0)" stop-opacity="0.5"></stop><stop offset="100%" stop-color="rgb(255,216,0)" stop-opacity="0"></stop></radialGradient><radialGradient id="__lottie_element_61" spreadMethod="pad" gradientUnits="userSpaceOnUse" cx="-156.25" cy="-29.25" r="39.64618295746218" fx="-156.25" fy="-29.25"><stop offset="21%" stop-color="rgb(255,216,0)" stop-opacity="1"></stop><stop offset="90%" stop-color="rgb(255,216,0)" stop-opacity="0.5"></stop><stop offset="100%" stop-color="rgb(255,216,0)" stop-opacity="0"></stop></radialGradient><linearGradient id="__lottie_element_65" spreadMethod="pad" gradientUnits="userSpaceOnUse" x1="108" y1="-45" x2="90.72200012207031" y2="-98.07099914550781"><stop offset="0%" stop-color="rgb(208,0,0)"></stop><stop offset="59%" stop-color="rgb(150,12,12)"></stop><stop offset="95%" stop-color="rgb(92,24,24)"></stop></linearGradient><radialGradient id="__lottie_element_66" spreadMethod="pad" gradientUnits="userSpaceOnUse" cx="20" cy="51.75" r="83.84526827596733" fx="20" fy="51.75"><stop offset="23%" stop-color="rgb(92,24,24)"></stop><stop offset="85%" stop-color="rgb(150,12,12)"></stop><stop offset="100%" stop-color="rgb(208,0,0)"></stop></radialGradient><linearGradient id="__lottie_element_67" spreadMethod="pad" gradientUnits="userSpaceOnUse" x1="118" y1="64" x2="147.6999969482422" y2="-124.4800033569336"><stop offset="0%" stop-color="rgb(0,0,0)"></stop><stop offset="50%" stop-color="rgb(28,28,28)"></stop><stop offset="100%" stop-color="rgb(56,56,56)"></stop></linearGradient><linearGradient id="__lottie_element_68" spreadMethod="pad" gradientUnits="userSpaceOnUse" x1="108" y1="-45" x2="90.72200012207031" y2="-98.07099914550781"><stop offset="0%" stop-color="rgb(208,0,0)"></stop><stop offset="59%" stop-color="rgb(150,12,12)"></stop><stop offset="95%" stop-color="rgb(92,24,24)"></stop></linearGradient><radialGradient id="__lottie_element_69" spreadMethod="pad" gradientUnits="userSpaceOnUse" cx="20.25" cy="53.75" r="81.90182231399322" fx="20.25" fy="53.75"><stop offset="23%" stop-color="rgb(92,24,24)"></stop><stop offset="85%" stop-color="rgb(150,12,12)"></stop><stop offset="100%" stop-color="rgb(208,0,0)"></stop></radialGradient><linearGradient id="__lottie_element_70" spreadMethod="pad" gradientUnits="userSpaceOnUse" x1="118" y1="64" x2="147.6999969482422" y2="-124.4800033569336"><stop offset="0%" stop-color="rgb(0,0,0)"></stop><stop offset="50%" stop-color="rgb(28,28,28)"></stop><stop offset="100%" stop-color="rgb(56,56,56)"></stop></linearGradient></defs><g clip-path="url(#__lottie_element_2)"><g style="display: block;" transform="matrix(1,0,0,1,256,256)" opacity="1"><g opacity="1" transform="matrix(1,0,0,1,0,0)"><g opacity="1" transform="matrix(1,0,0,1,0,0)"><path fill="url(#__lottie_element_14)" fill-opacity="1" d=" M-41.85599899291992,116.8489990234375 C-41.85599899291992,119.98200225830078 1.6519999504089355,192.98500061035156 1.6519999504089355,192.98500061035156 C1.6519999504089355,192.98500061035156 41.426998138427734,119.3479995727539 41.426998138427734,116.3010025024414 C41.426998138427734,116.3010025024414 -41.85599899291992,116.8489990234375 -41.85599899291992,116.8489990234375z"></path></g><g opacity="1" transform="matrix(1,0,0,1,0,0)"><path fill="url(#__lottie_element_15)" fill-opacity="1" d=" M0.9279999732971191,128.54800415039062 C0.9279999732971191,128.54800415039062 -11.732999801635742,155.58700561523438 -11.732999801635742,155.58700561523438 C-11.732999801635742,155.58700561523438 -29.027999877929688,148.41700744628906 -39.42499923706055,130.33299255371094 C-39.42499923706055,130.33299255371094 -35.38800048828125,106.53199768066406 -35.38800048828125,106.53199768066406 C-35.38800048828125,106.53199768066406 36.481998443603516,106.53199768066406 36.481998443603516,106.53199768066406 C36.481998443603516,106.53199768066406 39.49800109863281,130.23800659179688 39.49800109863281,130.23800659179688 C39.49800109863281,130.23800659179688 32.18000030517578,146.38299560546875 13.312999725341797,155.58700561523438 C13.312999725341797,155.58700561523438 0.9279999732971191,128.54800415039062 0.9279999732971191,128.54800415039062z"></path><path stroke-linecap="round" stroke-linejoin="round" fill-opacity="0" stroke="rgb(151,163,164)" stroke-opacity="1" stroke-width="8" d=" M0.9279999732971191,128.54800415039062 C0.9279999732971191,128.54800415039062 -11.732999801635742,155.58700561523438 -11.732999801635742,155.58700561523438 C-11.732999801635742,155.58700561523438 -29.027999877929688,148.41700744628906 -39.42499923706055,130.33299255371094 C-39.42499923706055,130.33299255371094 -35.38800048828125,106.53199768066406 -35.38800048828125,106.53199768066406 C-35.38800048828125,106.53199768066406 36.481998443603516,106.53199768066406 36.481998443603516,106.53199768066406 C36.481998443603516,106.53199768066406 39.49800109863281,130.23800659179688 39.49800109863281,130.23800659179688 C39.49800109863281,130.23800659179688 32.18000030517578,146.38299560546875 13.312999725341797,155.58700561523438 C13.312999725341797,155.58700561523438 0.9279999732971191,128.54800415039062 0.9279999732971191,128.54800415039062z"></path></g><g opacity="1" transform="matrix(1,0,0,1,0,0)"><path fill="rgb(144,155,157)" fill-opacity="0.3" d=" M37.23699951171875,106.53700256347656 C37.23699951171875,106.53700256347656 0.9229999780654907,106.53700256347656 0.9229999780654907,106.53700256347656 C0.9229999780654907,106.53700256347656 -35.39099884033203,106.53700256347656 -35.39099884033203,106.53700256347656 C-35.39099884033203,106.53700256347656 -39.42300033569336,130.3300018310547 -39.42300033569336,130.3300018310547 C-35.047000885009766,137.9340057373047 -27.50200080871582,140.66200256347656 -22.488000869750977,144.6750030517578 C-22.753000259399414,144.03700256347656 -31.125,131.86599731445312 -25.65999984741211,125.60600280761719 C-20.07699966430664,119.20899963378906 -14.232000350952148,124.08999633789062 0.28999999165534973,124.08999633789062 C14.812000274658203,124.08999633789062 20.777000427246094,118.46199798583984 26.360000610351562,124.85900115966797 C31.825000762939453,131.11900329589844 24.599000930786133,144.03700256347656 24.333999633789062,144.6750030517578 C29.347999572753906,140.66200256347656 36.893001556396484,137.9340057373047 41.26900100708008,130.3300018310547 C41.26900100708008,130.3300018310547 37.23699951171875,106.53700256347656 37.23699951171875,106.53700256347656z"></path></g><g opacity="1" transform="matrix(1,0,0,1,0,0)"><path fill="url(#__lottie_element_16)" fill-opacity="1" d=" M46.35200119018555,116.84600067138672 C46.35200119018555,116.84600067138672 46.35200119018555,218.09500122070312 46.35200119018555,218.09500122070312 C46.35200119018555,218.09500122070312 -45.91899871826172,218.09500122070312 -45.91899871826172,218.09500122070312 C-45.91899871826172,218.09500122070312 -45.91899871826172,116.84600067138672 -45.91899871826172,116.84600067138672 C-44.37900161743164,116.58100128173828 -42.827999114990234,116.32499694824219 -41.257999420166016,116.08999633789062 C-35.10599899291992,134.43800354003906 1.5119999647140503,192.98599243164062 1.5119999647140503,192.98599243164062 C1.5119999647140503,192.98599243164062 34.823001861572266,135.39100646972656 40.81800079345703,116.22799682617188 C40.81800079345703,116.22799682617188 46.35200119018555,116.84600067138672 46.35200119018555,116.84600067138672z"></path></g><g opacity="1" transform="matrix(1,0,0,1,0,0)"><path stroke-linecap="round" stroke-linejoin="round" fill-opacity="0" stroke="rgb(100,108,109)" stroke-opacity="1" stroke-width="8" d=" M41.426998138427734,114.072998046875 C37.62099838256836,130.56500244140625 1.5130000114440918,192.98500061035156 1.5130000114440918,192.98500061035156 C1.5130000114440918,192.98500061035156 -38.124000549316406,129.61199951171875 -41.85599899291992,114.072998046875"></path></g></g><g opacity="1" transform="matrix(1,0,0,1,0,0)"><g opacity="1" transform="matrix(1,0,0,1,0,0)"><path fill="url(#__lottie_element_17)" fill-opacity="1" d=" M-45.917999267578125,116.8489990234375 C-45.917999267578125,116.8489990234375 -45.917999267578125,218.09800720214844 -45.917999267578125,218.09800720214844 C-45.917999267578125,218.09800720214844 -118.50700378417969,218.09800720214844 -118.50700378417969,218.09800720214844 C-128.24000549316406,218.09800720214844 -135.48199462890625,217.1269989013672 -140.7899932861328,215.86099243164062 C-150.89700317382812,213.43699645996094 -154.0070037841797,209.93499755859375 -154.0070037841797,209.93499755859375 C-152.24099731445312,196.78700256347656 -147.43299865722656,170.88299560546875 -135.73699951171875,156.26300048828125 C-122.98200225830078,140.3280029296875 -91.81800079345703,124.6989974975586 -45.917999267578125,116.8489990234375z"></path></g><g opacity="1" transform="matrix(1,0,0,1,0,0)"><path fill="url(#__lottie_element_18)" fill-opacity="0.18" d=" M-45.917999267578125,116.8489990234375 C-45.917999267578125,116.8489990234375 -45.917999267578125,134.1179962158203 -45.917999267578125,134.1179962158203 C-45.917999267578125,134.1179962158203 -103.19100189208984,140.1719970703125 -125.66999816894531,168.0970001220703 C-134.18699645996094,178.6739959716797 -139.22000122070312,203.73300170898438 -140.7899932861328,215.86099243164062 C-150.89700317382812,213.43699645996094 -154.0070037841797,209.93499755859375 -154.0070037841797,209.93499755859375 C-152.24099731445312,196.78700256347656 -147.43299865722656,170.88299560546875 -135.73699951171875,156.26300048828125 C-122.98200225830078,140.3280029296875 -91.81800079345703,124.6989974975586 -45.917999267578125,116.8489990234375z"></path></g><g opacity="1" transform="matrix(1,0,0,1,0,0)"><path fill="url(#__lottie_element_19)" fill-opacity="0.6" d=" M-85.86199951171875,218.09800720214844 C-85.86199951171875,218.09800720214844 -107.93299865722656,217.61399841308594 -116.7490005493164,217.94000244140625 C-121.41400146484375,218.11300659179688 -122.5719985961914,206.11000061035156 -127.17900085449219,191.13800048828125 C-129.55499267578125,183.41600036621094 -132.55499267578125,175.2760009765625 -126.50599670410156,171.95700073242188 C-120.45700073242188,168.63800048828125 -88.95099639892578,213.26400756835938 -85.86199951171875,218.09800720214844z"></path></g><g opacity="1" transform="matrix(1,0,0,1,0,0)"><g opacity="1" transform="matrix(1,0,0,1,0,0)"><path fill="rgb(0,0,0)" fill-opacity="1" d=" M-149.98800659179688,203.3769989013672 C-149.98800659179688,203.3769989013672 -150.69200134277344,208.58299255371094 -151.13900756835938,212.01699829101562 C-151.13900756835938,212.01699829101562 -158.41400146484375,208.031005859375 -157.86700439453125,203.57400512695312 C-157.86700439453125,203.57400512695312 -149.98800659179688,203.3769989013672 -149.98800659179688,203.3769989013672z"></path></g><g opacity="1" transform="matrix(1,0,0,1,0,0)"><path stroke-linecap="round" stroke-linejoin="round" fill-opacity="0" stroke="rgb(0,0,0)" stroke-opacity="1" stroke-width="8" d=" M-154.0070037841797,203.99400329589844 C-152.99099731445312,196.00900268554688 -149.33299255371094,173.26400756835938 -135.73699951171875,156.26300048828125 C-122.98200225830078,140.3280029296875 -91.81800079345703,124.6989974975586 -45.917999267578125,116.8489990234375 C-45.917999267578125,116.8489990234375 -45.917999267578125,213.19200134277344 -45.917999267578125,213.19200134277344"></path></g></g><g opacity="1" transform="matrix(1,0,0,1,0,0)"><path stroke-linecap="round" stroke-linejoin="round" fill-opacity="0" stroke="rgb(0,0,0)" stroke-opacity="1" stroke-width="5" d=" M-129.25900268554688,176.531005859375 C-127.32499694824219,187.09100341796875 -124.27300262451172,200.09800720214844 -119.23899841308594,214.9600067138672"></path></g></g><g opacity="1" transform="matrix(-1,0,0,1,0.43799999356269836,0)"><g opacity="1" transform="matrix(1,0,0,1,0,0)"><path fill="url(#__lottie_element_20)" fill-opacity="1" d=" M-45.917999267578125,116.8489990234375 C-45.917999267578125,116.8489990234375 -45.917999267578125,218.09800720214844 -45.917999267578125,218.09800720214844 C-45.917999267578125,218.09800720214844 -118.50700378417969,218.09800720214844 -118.50700378417969,218.09800720214844 C-128.24000549316406,218.09800720214844 -135.48199462890625,217.1269989013672 -140.7899932861328,215.86099243164062 C-150.89700317382812,213.43699645996094 -154.0070037841797,209.93499755859375 -154.0070037841797,209.93499755859375 C-152.24099731445312,196.78700256347656 -147.43299865722656,170.88299560546875 -135.73699951171875,156.26300048828125 C-122.98200225830078,140.3280029296875 -91.81800079345703,124.6989974975586 -45.917999267578125,116.8489990234375z"></path></g><g opacity="1" transform="matrix(1,0,0,1,0,0)"><path fill="url(#__lottie_element_21)" fill-opacity="0.18" d=" M-45.917999267578125,116.8489990234375 C-45.917999267578125,116.8489990234375 -45.917999267578125,134.1179962158203 -45.917999267578125,134.1179962158203 C-45.917999267578125,134.1179962158203 -103.19100189208984,140.1719970703125 -125.66999816894531,168.0970001220703 C-134.18699645996094,178.6739959716797 -139.22000122070312,203.73300170898438 -140.7899932861328,215.86099243164062 C-150.89700317382812,213.43699645996094 -154.0070037841797,209.93499755859375 -154.0070037841797,209.93499755859375 C-152.24099731445312,196.78700256347656 -147.43299865722656,170.88299560546875 -135.73699951171875,156.26300048828125 C-122.98200225830078,140.3280029296875 -91.81800079345703,124.6989974975586 -45.917999267578125,116.8489990234375z"></path></g><g opacity="1" transform="matrix(1,0,0,1,0,0)"><path fill="url(#__lottie_element_22)" fill-opacity="0.6" d=" M-85.86199951171875,218.09800720214844 C-85.86199951171875,218.09800720214844 -107.93299865722656,217.61399841308594 -116.7490005493164,217.94000244140625 C-121.41400146484375,218.11300659179688 -122.5719985961914,206.11000061035156 -127.17900085449219,191.13800048828125 C-129.55499267578125,183.41600036621094 -132.55499267578125,175.2760009765625 -126.50599670410156,171.95700073242188 C-120.45700073242188,168.63800048828125 -88.95099639892578,213.26400756835938 -85.86199951171875,218.09800720214844z"></path></g><g opacity="1" transform="matrix(1,0,0,1,0,0)"><g opacity="1" transform="matrix(1,0,0,1,0,0)"><path fill="rgb(0,0,0)" fill-opacity="1" d=" M-149.98800659179688,203.3769989013672 C-149.98800659179688,203.3769989013672 -150.69200134277344,208.58299255371094 -151.13900756835938,212.01699829101562 C-151.13900756835938,212.01699829101562 -158.41400146484375,208.031005859375 -157.86700439453125,203.57400512695312 C-157.86700439453125,203.57400512695312 -149.98800659179688,203.3769989013672 -149.98800659179688,203.3769989013672z"></path></g><g opacity="1" transform="matrix(1,0,0,1,0,0)"><path stroke-linecap="round" stroke-linejoin="round" fill-opacity="0" stroke="rgb(0,0,0)" stroke-opacity="1" stroke-width="8" d=" M-154.0070037841797,203.99400329589844 C-152.99099731445312,196.00900268554688 -149.33299255371094,173.26400756835938 -135.73699951171875,156.26300048828125 C-122.98200225830078,140.3280029296875 -91.81800079345703,124.6989974975586 -45.917999267578125,116.8489990234375 C-45.917999267578125,116.8489990234375 -45.917999267578125,213.19200134277344 -45.917999267578125,213.19200134277344"></path></g></g><g opacity="1" transform="matrix(1,0,0,1,0,0)"><path stroke-linecap="round" stroke-linejoin="round" fill-opacity="0" stroke="rgb(0,0,0)" stroke-opacity="1" stroke-width="5" d=" M-129.25900268554688,176.531005859375 C-127.32499694824219,187.09100341796875 -124.27300262451172,200.09800720214844 -119.23899841308594,214.9600067138672"></path></g></g></g><g style="display: block;" transform="matrix(1,0,0,1,256,256)" opacity="1"><g opacity="1" transform="matrix(1,0,0,1,0,0)"><g opacity="1" transform="matrix(1,0,0,1,0,0)"><path fill="url(#__lottie_element_65)" fill-opacity="1" d=" M1.2430000305175781,-84.6500015258789 C88.12899780273438,-83.49700164794922 159.4040069580078,-115.8290023803711 196.97500610351562,-146.3520050048828 C196.97500610351562,-146.3520050048828 200.29800415039062,-82.60399627685547 190.6219940185547,-40.02299880981445 C183.58399963378906,-9.048999786376953 156.35299682617188,67.63700103759766 49.15299987792969,142.83799743652344 C49.15299987792969,142.83799743652344 43.39500045776367,81.63999938964844 18.413999557495117,43.643001556396484 C-14.71500015258789,-6.748000144958496 1.2430000305175781,-84.6500015258789 1.2430000305175781,-84.6500015258789z"></path><path stroke-linecap="round" stroke-linejoin="round" fill-opacity="0" stroke="rgb(193,47,47)" stroke-opacity="1" stroke-width="8" d=" M1.2430000305175781,-84.6500015258789 C88.12899780273438,-83.49700164794922 159.4040069580078,-115.8290023803711 196.97500610351562,-146.3520050048828 C196.97500610351562,-146.3520050048828 200.29800415039062,-82.60399627685547 190.6219940185547,-40.02299880981445 C183.58399963378906,-9.048999786376953 156.35299682617188,67.63700103759766 49.15299987792969,142.83799743652344 C49.15299987792969,142.83799743652344 43.39500045776367,81.63999938964844 18.413999557495117,43.643001556396484 C-14.71500015258789,-6.748000144958496 1.2430000305175781,-84.6500015258789 1.2430000305175781,-84.6500015258789z"></path></g><g opacity="1" transform="matrix(1,0,0,1,0,1.5)"><path fill="url(#__lottie_element_66)" fill-opacity="1" d=" M28.29800033569336,65.13700103759766 C28.29800033569336,65.14700317382812 28.29800033569336,65.14700317382812 28.29800033569336,65.14700317382812 C42.38800048828125,100.13600158691406 45.94900131225586,123.66400146484375 45.94900131225586,123.66400146484375 C46.047000885009766,123.59500122070312 53.3489990234375,136.74000549316406 50.49399948120117,132.91799926757812 C66.09500122070312,125.50399780273438 67.63200378417969,118.30999755859375 85.01499938964844,100.31300354003906 C131.31100463867188,52.38199996948242 94.89700317382812,0.3269999921321869 94.89700317382812,0.3269999921321869 C53.03900146484375,-13.77299976348877 39.49300003051758,27.479000091552734 28.29800033569336,65.13700103759766z"></path></g><g opacity="1" transform="matrix(1,0,0,1,0,0)"><path stroke-linecap="round" stroke-linejoin="round" fill-opacity="0" stroke="rgb(82,6,6)" stroke-opacity="1" stroke-width="8" d=" M49.15299987792969,142.83799743652344 C49.15299987792969,142.83799743652344 43.39500045776367,81.63999938964844 18.413999557495117,43.643001556396484"></path></g><g opacity="1" transform="matrix(1,0,0,1,0,0)"><path fill="url(#__lottie_element_67)" fill-opacity="1" d=" M49.15299987792969,142.83799743652344 C157.26100158691406,70.67400360107422 184.625,-9.350000381469727 191.6060028076172,-40.02299880981445 C201.28399658203125,-82.60900115966797 196.9770050048828,-146.35699462890625 196.9770050048828,-146.35699462890625 C189.55799865722656,-158.48599243164062 174.63900756835938,-166.30499267578125 174.63900756835938,-166.30499267578125 C174.63900756835938,-166.30499267578125 175.3939971923828,-150.95700073242188 175.6269989013672,-131.69200134277344 C176.01600646972656,-98.43000030517578 174.83700561523438,-47.78499984741211 165.49000549316406,-18.871999740600586 C133.44900512695312,80.25599670410156 64.802001953125,132.05499267578125 49.15299987792969,142.83799743652344z"></path></g><g opacity="1" transform="matrix(1,0,0,1,0,0)"><path stroke-linecap="round" stroke-linejoin="round" fill-opacity="0" stroke="rgb(0,0,0)" stroke-opacity="1" stroke-width="8" d=" M49.15299987792969,142.83799743652344 C157.26100158691406,70.67400360107422 184.625,-9.350000381469727 191.6060028076172,-40.02299880981445 C201.28399658203125,-82.60900115966797 196.9770050048828,-146.35699462890625 196.9770050048828,-146.35699462890625 C189.55799865722656,-158.48599243164062 174.63900756835938,-166.30499267578125 174.63900756835938,-166.30499267578125 C174.63900756835938,-166.30499267578125 175.3939971923828,-150.95700073242188 175.6269989013672,-131.69200134277344 C176.01600646972656,-98.43000030517578 174.83700561523438,-47.78499984741211 165.49000549316406,-18.871999740600586 C133.44900512695312,80.25599670410156 64.802001953125,132.05499267578125 49.15299987792969,142.83799743652344z"></path></g></g><g opacity="1" transform="matrix(-1,0,0,1,0,0)"><g opacity="1" transform="matrix(1,0,0,1,0,0)"><path fill="url(#__lottie_element_68)" fill-opacity="1" d=" M1.2430000305175781,-84.6500015258789 C88.12899780273438,-83.49700164794922 159.4040069580078,-115.8290023803711 196.97500610351562,-146.3520050048828 C196.97500610351562,-146.3520050048828 200.29800415039062,-82.60399627685547 190.6219940185547,-40.02299880981445 C183.58399963378906,-9.048999786376953 156.35299682617188,67.63700103759766 49.15299987792969,142.83799743652344 C49.15299987792969,142.83799743652344 43.39500045776367,81.63999938964844 18.413999557495117,43.643001556396484 C-14.71500015258789,-6.748000144958496 1.2430000305175781,-84.6500015258789 1.2430000305175781,-84.6500015258789z"></path><path stroke-linecap="round" stroke-linejoin="round" fill-opacity="0" stroke="rgb(193,47,47)" stroke-opacity="1" stroke-width="8" d=" M1.2430000305175781,-84.6500015258789 C88.12899780273438,-83.49700164794922 159.4040069580078,-115.8290023803711 196.97500610351562,-146.3520050048828 C196.97500610351562,-146.3520050048828 200.29800415039062,-82.60399627685547 190.6219940185547,-40.02299880981445 C183.58399963378906,-9.048999786376953 156.35299682617188,67.63700103759766 49.15299987792969,142.83799743652344 C49.15299987792969,142.83799743652344 43.39500045776367,81.63999938964844 18.413999557495117,43.643001556396484 C-14.71500015258789,-6.748000144958496 1.2430000305175781,-84.6500015258789 1.2430000305175781,-84.6500015258789z"></path></g><g opacity="1" transform="matrix(1,0,0,1,0,1.5)"><path fill="url(#__lottie_element_69)" fill-opacity="1" d=" M28.29800033569336,65.13700103759766 C28.29800033569336,65.14700317382812 28.29800033569336,65.14700317382812 28.29800033569336,65.14700317382812 C42.38800048828125,100.13600158691406 42.44900131225586,123.41400146484375 42.44900131225586,123.41400146484375 C42.547000885009766,123.34500122070312 53.3489990234375,136.74000549316406 50.49399948120117,132.91799926757812 C66.09500122070312,125.50399780273438 67.63200378417969,118.30999755859375 85.01499938964844,100.31300354003906 C131.31100463867188,52.38199996948242 94.89700317382812,0.3269999921321869 94.89700317382812,0.3269999921321869 C53.03900146484375,-13.77299976348877 39.49300003051758,27.479000091552734 28.29800033569336,65.13700103759766z"></path></g><g opacity="1" transform="matrix(1,0,0,1,0,0)"><path stroke-linecap="round" stroke-linejoin="round" fill-opacity="0" stroke="rgb(82,6,6)" stroke-opacity="1" stroke-width="8" d=" M49.15299987792969,142.83799743652344 C49.15299987792969,142.83799743652344 43.39500045776367,81.63999938964844 18.413999557495117,43.643001556396484"></path></g><g opacity="1" transform="matrix(1,0,0,1,0,0)"><path fill="url(#__lottie_element_70)" fill-opacity="1" d=" M49.15299987792969,142.83799743652344 C157.26100158691406,70.67400360107422 184.625,-9.350000381469727 191.6060028076172,-40.02299880981445 C201.28399658203125,-82.60900115966797 196.9770050048828,-146.35699462890625 196.9770050048828,-146.35699462890625 C189.55799865722656,-158.48599243164062 174.63900756835938,-166.30499267578125 174.63900756835938,-166.30499267578125 C174.63900756835938,-166.30499267578125 175.3939971923828,-150.95700073242188 175.6269989013672,-131.69200134277344 C176.01600646972656,-98.43000030517578 174.83700561523438,-47.78499984741211 165.49000549316406,-18.871999740600586 C133.44900512695312,80.25599670410156 64.802001953125,132.05499267578125 49.15299987792969,142.83799743652344z"></path></g><g opacity="1" transform="matrix(1,0,0,1,0,0)"><path stroke-linecap="round" stroke-linejoin="round" fill-opacity="0" stroke="rgb(0,0,0)" stroke-opacity="1" stroke-width="8" d=" M49.15299987792969,142.83799743652344 C157.26100158691406,70.67400360107422 184.625,-9.350000381469727 191.6060028076172,-40.02299880981445 C201.28399658203125,-82.60900115966797 196.9770050048828,-146.35699462890625 196.9770050048828,-146.35699462890625 C189.55799865722656,-158.48599243164062 174.63900756835938,-166.30499267578125 174.63900756835938,-166.30499267578125 C174.63900756835938,-166.30499267578125 175.3939971923828,-150.95700073242188 175.6269989013672,-131.69200134277344 C176.01600646972656,-98.43000030517578 174.83700561523438,-47.78499984741211 165.49000549316406,-18.871999740600586 C133.44900512695312,80.25599670410156 64.802001953125,132.05499267578125 49.15299987792969,142.83799743652344z"></path></g></g></g><g style="display: block;" transform="matrix(1,0,0,1,256,282.75)" opacity="1"><g opacity="1" transform="matrix(1,0,0,1,0,0)"><g opacity="1" transform="matrix(1,0,0,1,0,0)"><path fill="rgb(255,168,0)" fill-opacity="1" d=" M-104.2979965209961,-35.4900016784668 C-121.58300018310547,-64.74099731445312 -151.4080047607422,-63.58399963378906 -151.4080047607422,-63.58399963378906 C-151.4080047607422,-46.582000732421875 -128.06199645996094,12.732000350952148 -100.94400024414062,3.2269999980926514"></path></g><g opacity="1" transform="matrix(1,0,0,1,0,0)"><path fill="url(#__lottie_element_60)" fill-opacity="1" d=" M-104.2979965209961,-35.4900016784668 C-121.58300018310547,-64.74099731445312 -151.4080047607422,-63.58399963378906 -151.4080047607422,-63.58399963378906 C-151.4080047607422,-46.582000732421875 -128.06199645996094,12.732000350952148 -100.94400024414062,3.2269999980926514"></path></g><g opacity="1" transform="matrix(1,0,0,1,0,0)"><path stroke-linecap="round" stroke-linejoin="round" fill-opacity="0" stroke="rgb(219,110,0)" stroke-opacity="1" stroke-width="8" d=" M-104.2979965209961,-35.4900016784668 C-121.58300018310547,-64.74099731445312 -151.4080047607422,-63.58399963378906 -151.4080047607422,-63.58399963378906 C-151.4080047607422,-46.582000732421875 -128.06199645996094,12.732000350952148 -100.94400024414062,3.2269999980926514"></path></g></g><g opacity="1" transform="matrix(-1,0,0,1,2,0)"><g opacity="1" transform="matrix(1,0,0,1,0,0)"><path fill="rgb(255,168,0)" fill-opacity="1" d=" M-104.2979965209961,-35.4900016784668 C-121.58300018310547,-64.74099731445312 -151.4080047607422,-63.58399963378906 -151.4080047607422,-63.58399963378906 C-151.4080047607422,-46.582000732421875 -128.06199645996094,12.732000350952148 -100.94400024414062,3.2269999980926514"></path></g><g opacity="1" transform="matrix(1,0,0,1,0,0)"><path fill="url(#__lottie_element_61)" fill-opacity="1" d=" M-104.2979965209961,-35.4900016784668 C-121.58300018310547,-64.74099731445312 -151.4080047607422,-63.58399963378906 -151.4080047607422,-63.58399963378906 C-151.4080047607422,-46.582000732421875 -128.06199645996094,12.732000350952148 -100.94400024414062,3.2269999980926514"></path></g><g opacity="1" transform="matrix(1,0,0,1,0,0)"><path stroke-linecap="round" stroke-linejoin="round" fill-opacity="0" stroke="rgb(219,110,0)" stroke-opacity="1" stroke-width="8" d=" M-104.2979965209961,-35.4900016784668 C-121.58300018310547,-64.74099731445312 -151.4080047607422,-63.58399963378906 -151.4080047607422,-63.58399963378906 C-151.4080047607422,-46.582000732421875 -128.06199645996094,12.732000350952148 -100.94400024414062,3.2269999980926514"></path></g></g></g><g style="display: block;" transform="matrix(1,0,0,1,256,256)" opacity="1"><g opacity="1" transform="matrix(1,0,0,1,0,0)"><path fill="rgb(179,145,0)" fill-opacity="1" d=" M-41.308998107910156,140.76699829101562 C-41.308998107910156,145.1020050048828 -45.06999969482422,148.61599731445312 -49.70899963378906,148.61599731445312 C-54.347999572753906,148.61599731445312 -58.10900115966797,145.1020050048828 -58.10900115966797,140.76699829101562 C-58.10900115966797,136.4320068359375 -54.347999572753906,132.91799926757812 -49.70899963378906,132.91799926757812 C-45.06999969482422,132.91799926757812 -41.308998107910156,136.4320068359375 -41.308998107910156,140.76699829101562z"></path><path stroke-linecap="round" stroke-linejoin="round" fill-opacity="0" stroke="rgb(207,194,63)" stroke-opacity="1" stroke-width="5" d=" M-41.308998107910156,140.76699829101562 C-41.308998107910156,145.1020050048828 -45.06999969482422,148.61599731445312 -49.70899963378906,148.61599731445312 C-54.347999572753906,148.61599731445312 -58.10900115966797,145.1020050048828 -58.10900115966797,140.76699829101562 C-58.10900115966797,136.4320068359375 -54.347999572753906,132.91799926757812 -49.70899963378906,132.91799926757812 C-45.06999969482422,132.91799926757812 -41.308998107910156,136.4320068359375 -41.308998107910156,140.76699829101562z"></path></g><g opacity="1" transform="matrix(1,0,0,1,0,0)"><path fill="rgb(179,145,0)" fill-opacity="1" d=" M58.89400100708008,140.76699829101562 C58.89400100708008,145.1020050048828 55.132999420166016,148.61599731445312 50.49399948120117,148.61599731445312 C45.85499954223633,148.61599731445312 42.09400177001953,145.1020050048828 42.09400177001953,140.76699829101562 C42.09400177001953,136.4320068359375 45.85499954223633,132.91799926757812 50.49399948120117,132.91799926757812 C55.132999420166016,132.91799926757812 58.89400100708008,136.4320068359375 58.89400100708008,140.76699829101562z"></path><path stroke-linecap="round" stroke-linejoin="round" fill-opacity="0" stroke="rgb(207,194,63)" stroke-opacity="1" stroke-width="5" d=" M58.89400100708008,140.76699829101562 C58.89400100708008,145.1020050048828 55.132999420166016,148.61599731445312 50.49399948120117,148.61599731445312 C45.85499954223633,148.61599731445312 42.09400177001953,145.1020050048828 42.09400177001953,140.76699829101562 C42.09400177001953,136.4320068359375 45.85499954223633,132.91799926757812 50.49399948120117,132.91799926757812 C55.132999420166016,132.91799926757812 58.89400100708008,136.4320068359375 58.89400100708008,140.76699829101562z"></path></g></g><g style="display: block;" transform="matrix(1,0,0,1,256,256)" opacity="1"><g opacity="1" transform="matrix(1,0,0,1,0,0)"><path fill="rgb(0,0,0)" fill-opacity="1" d=" M-104.01300048828125,28.833999633789062 C-104.01300048828125,28.833999633789062 -104.23799896240234,49.388999938964844 -108.79399871826172,62.66699981689453 C-108.79399871826172,62.66699981689453 -100.08100128173828,58.58100128173828 -100.08100128173828,58.58100128173828 C-100.08100128173828,58.58100128173828 -98.11699676513672,71.71099853515625 -98.11699676513672,71.71099853515625 C-98.11699676513672,71.71099853515625 -89.12300109863281,66.65299987792969 -89.12300109863281,66.65299987792969 C-89.12300109863281,66.65299987792969 -84.99099731445312,75.54900360107422 -84.99099731445312,75.54900360107422 C-84.99099731445312,75.54900360107422 -66.80000305175781,43.21500015258789 -104.01300048828125,28.833999633789062z"></path><path stroke-linecap="round" stroke-linejoin="round" fill-opacity="0" stroke="rgb(0,0,0)" stroke-opacity="1" stroke-width="8" d=" M-104.01300048828125,28.833999633789062 C-104.01300048828125,28.833999633789062 -104.23799896240234,49.388999938964844 -108.79399871826172,62.66699981689453 C-108.79399871826172,62.66699981689453 -100.08100128173828,58.58100128173828 -100.08100128173828,58.58100128173828 C-100.08100128173828,58.58100128173828 -98.11699676513672,71.71099853515625 -98.11699676513672,71.71099853515625 C-98.11699676513672,71.71099853515625 -89.12300109863281,66.65299987792969 -89.12300109863281,66.65299987792969 C-89.12300109863281,66.65299987792969 -84.99099731445312,75.54900360107422 -84.99099731445312,75.54900360107422 C-84.99099731445312,75.54900360107422 -66.80000305175781,43.21500015258789 -104.01300048828125,28.833999633789062z"></path></g><g opacity="1" transform="matrix(1,0,0,1,0,0)"><path fill="rgb(0,0,0)" fill-opacity="1" d=" M103.91200256347656,28.833999633789062 C103.91200256347656,28.833999633789062 104.13700103759766,49.388999938964844 108.69300079345703,62.66699981689453 C108.69300079345703,62.66699981689453 99.97899627685547,58.58100128173828 99.97899627685547,58.58100128173828 C99.97899627685547,58.58100128173828 98.01499938964844,71.71099853515625 98.01499938964844,71.71099853515625 C98.01499938964844,71.71099853515625 89.02100372314453,66.65299987792969 89.02100372314453,66.65299987792969 C89.02100372314453,66.65299987792969 84.88999938964844,75.54900360107422 84.88999938964844,75.54900360107422 C84.88999938964844,75.54900360107422 66.6989974975586,43.21500015258789 103.91200256347656,28.833999633789062z"></path><path stroke-linecap="round" stroke-linejoin="round" fill-opacity="0" stroke="rgb(0,0,0)" stroke-opacity="1" stroke-width="8" d=" M103.91200256347656,28.833999633789062 C103.91200256347656,28.833999633789062 104.13700103759766,49.388999938964844 108.69300079345703,62.66699981689453 C108.69300079345703,62.66699981689453 99.97899627685547,58.58100128173828 99.97899627685547,58.58100128173828 C99.97899627685547,58.58100128173828 98.01499938964844,71.71099853515625 98.01499938964844,71.71099853515625 C98.01499938964844,71.71099853515625 89.02100372314453,66.65299987792969 89.02100372314453,66.65299987792969 C89.02100372314453,66.65299987792969 84.88999938964844,75.54900360107422 84.88999938964844,75.54900360107422 C84.88999938964844,75.54900360107422 66.6989974975586,43.21500015258789 103.91200256347656,28.833999633789062z"></path></g></g><g style="display: block;" transform="matrix(1,0,0,1,256,256)" opacity="1"><g opacity="1" transform="matrix(1,0,0,1,0,0)"><path fill="rgb(255,168,0)" fill-opacity="1" d=" M86.58000183105469,-106.54900360107422 C66.48799896240234,-135.2100067138672 40.03099822998047,-152.06399536132812 0.25699999928474426,-152.06399536132812 C-39.51599884033203,-152.06399536132812 -65.9729995727539,-135.2100067138672 -86.06500244140625,-106.54900360107422 C-106.15799713134766,-77.88800048828125 -122.9010009765625,-11.052000045776367 -96.66899871826172,45.124000549316406 C-70.43800354003906,101.30000305175781 -26.121999740600586,119.06900024414062 0.25699999928474426,119.06900024414062 C26.63599967956543,119.06900024414062 70.9520034790039,101.30000305175781 97.18399810791016,45.124000549316406 C123.41500091552734,-11.052000045776367 106.6719970703125,-77.88800048828125 86.58000183105469,-106.54900360107422z"></path></g><g opacity="1" transform="matrix(1,0,0,1,0,0)"><path fill="url(#__lottie_element_49)" fill-opacity="1" d=" M82.33000183105469,-109.56099700927734 C63.22700119018555,-136.3260040283203 38.071998596191406,-152.06399536132812 0.25699999928474426,-152.06399536132812 C-37.55799865722656,-152.06399536132812 -62.71099853515625,-136.3260040283203 -81.81400299072266,-109.56099700927734 C-100.91699981689453,-82.7969970703125 -116.83699798583984,-20.382999420166016 -91.89700317382812,32.07600021362305 C-66.95700073242188,84.53399658203125 -24.822999954223633,101.12799835205078 0.25699999928474426,101.12799835205078 C25.336999893188477,101.12799835205078 67.47200012207031,84.53399658203125 92.41200256347656,32.07600021362305 C117.35199737548828,-20.382999420166016 101.43299865722656,-82.7969970703125 82.33000183105469,-109.56099700927734z"></path></g><g opacity="1" transform="matrix(1,0,0,1,0,0)"><path fill="rgb(255,168,0)" fill-opacity="1" d=" M112.8030014038086,-2.056999921798706 C112.8030014038086,-2.056999921798706 110.65299987792969,-0.08299999684095383 110.65299987792969,-0.08299999684095383 C98.81800079345703,-1.4819999933242798 95.15599822998047,-28.631000518798828 95.15599822998047,-28.631000518798828 C81.54199981689453,-40.93600082397461 76.78299713134766,-60.54399871826172 76.78299713134766,-60.54399871826172 C72.79499816894531,-56.487998962402344 58.16600036621094,-66.45600128173828 59.11600112915039,-76.51499938964844 C60.02899932861328,-69.89600372314453 62.9119987487793,-61.04899978637695 49.236000061035156,-66.35099792480469 C25.426000595092773,-75.58200073242188 3.9820001125335693,-69.72899627685547 -23.395000457763672,-76.77999877929688 C-48.38600158691406,-83.21600341796875 -57.19599914550781,-94.36799621582031 -57.19599914550781,-94.36799621582031 C-59.13100051879883,-81.26799774169922 -57.19599914550781,-71.22200012207031 -57.19599914550781,-71.22200012207031 C-62.52199935913086,-59.2760009765625 -75.06900024414062,-68.84500122070312 -75.06900024414062,-68.84500122070312 C-68.46299743652344,-47.10300064086914 -83.49500274658203,-54.91999816894531 -83.49500274658203,-54.91999816894531 C-86.20500183105469,-42.547000885009766 -96.53600311279297,-32.755001068115234 -96.53600311279297,-32.755001068115234 C-99.83799743652344,-11.486000061035156 -106.48500061035156,-5.465000152587891 -108.59600067138672,-3.992000102996826 C-111.50299835205078,-45.01100158691406 -103.55799865722656,-84.05699920654297 -89.01399993896484,-104.26699829101562 C-68.23400115966797,-133.12899780273438 -40.875,-150.0989990234375 0.2529999911785126,-150.0989990234375 C41.38999938964844,-150.0989990234375 68.7490005493164,-133.12899780273438 89.52899932861328,-104.26699829101562 C104.4260025024414,-83.58499908447266 116.55400085449219,-44.12699890136719 112.8030014038086,-2.056999921798706z"></path></g><g opacity="1" transform="matrix(1,0,0,1,0,0)"><path fill="url(#__lottie_element_50)" fill-opacity="1" d=" M86.58000183105469,-106.54900360107422 C66.48799896240234,-135.2100067138672 40.03099822998047,-152.06399536132812 0.25699999928474426,-152.06399536132812 C-39.51599884033203,-152.06399536132812 -65.9729995727539,-135.2100067138672 -86.06500244140625,-106.54900360107422 C-106.15799713134766,-77.88800048828125 -122.9010009765625,-11.052000045776367 -96.66899871826172,45.124000549316406 C-70.43800354003906,101.30000305175781 -26.121999740600586,119.06900024414062 0.25699999928474426,119.06900024414062 C26.63599967956543,119.06900024414062 70.9520034790039,101.30000305175781 97.18399810791016,45.124000549316406 C123.41500091552734,-11.052000045776367 106.6719970703125,-77.88800048828125 86.58000183105469,-106.54900360107422z"></path></g><g opacity="1" transform="matrix(1,0,0,1,0,0)"><path stroke-linecap="round" stroke-linejoin="round" fill-opacity="0" stroke="rgb(219,110,0)" stroke-opacity="1" stroke-width="8" d=" M86.58000183105469,-106.54900360107422 C66.48799896240234,-135.2100067138672 40.03099822998047,-152.06399536132812 0.25699999928474426,-152.06399536132812 C-39.51599884033203,-152.06399536132812 -65.9729995727539,-135.2100067138672 -86.06500244140625,-106.54900360107422 C-106.15799713134766,-77.88800048828125 -122.9010009765625,-11.052000045776367 -96.66899871826172,45.124000549316406 C-70.43800354003906,101.30000305175781 -26.121999740600586,118.08699798583984 0.25699999928474426,118.08699798583984 C26.63599967956543,118.08699798583984 70.9520034790039,101.30000305175781 97.18399810791016,45.124000549316406 C123.41500091552734,-11.052000045776367 106.6719970703125,-77.88800048828125 86.58000183105469,-106.54900360107422z"></path></g></g><g style="display: block;" transform="matrix(1,0,0,1,255.99998474121094,256)" opacity="1"><g opacity="1" transform="matrix(1,0,0,1,0,0)"><g opacity="1" transform="matrix(1,0,0,1,0,0)"><path fill="rgb(255,255,255)" fill-opacity="1" d=" M24.902000427246094,-4.302000045776367 C24.902000427246094,-4.302000045776367 27.594999313354492,-34.92599868774414 53.020999908447266,-38.25899887084961 C77.50700378417969,-41.46900177001953 88.16200256347656,-13.383000373840332 88.16200256347656,-13.383000373840332 C88.16200256347656,-13.383000373840332 84.38300323486328,2.6530001163482666 63.33100128173828,7.354000091552734 C39.6870002746582,12.633999824523926 24.902000427246094,-4.302000045776367 24.902000427246094,-4.302000045776367z"></path></g><g opacity="1" transform="matrix(1,0,0,1,107.56300354003906,0)"><g opacity="1" transform="matrix(1,0,0,1,0,0)"><path fill="url(#__lottie_element_40)" fill-opacity="1" d=" M-34.74800109863281,-15.557000160217285 C-34.74800109863281,-4.973999977111816 -42.84400177001953,3.6059999465942383 -52.83100128173828,3.6059999465942383 C-62.81700134277344,3.6059999465942383 -70.91300201416016,-4.973999977111816 -70.91300201416016,-15.557000160217285 C-70.91300201416016,-26.139999389648438 -62.81700134277344,-34.71900177001953 -52.83100128173828,-34.71900177001953 C-42.84400177001953,-34.71900177001953 -34.74800109863281,-26.139999389648438 -34.74800109863281,-15.557000160217285z"></path></g><g opacity="1" transform="matrix(1,0,0,1,0,0)"><g opacity="1" transform="matrix(1,0,0,1,0,0)"><path fill="url(#__lottie_element_41)" fill-opacity="1" d=" M-48.198001861572266,2.7320001125335693 C-49.611000061035156,2.7320001125335693 -50.91999816894531,1.7649999856948853 -51.358001708984375,0.2590000033378601 C-51.89699935913086,-1.590999960899353 -50.917999267578125,-3.552999973297119 -49.172000885009766,-4.123000144958496 C-45.83300018310547,-5.214000225067139 -43.17499923706055,-7.964000225067139 -42.0620002746582,-11.47700023651123 C-41.48099899291992,-13.312999725341797 -39.60200119018555,-14.298999786376953 -37.874000549316406,-13.684000015258789 C-36.141998291015625,-13.067999839782715 -35.209999084472656,-11.081000328063965 -35.79100036621094,-9.246000289916992 C-37.58000183105469,-3.5989999771118164 -41.85300064086914,0.8199999928474426 -47.222999572753906,2.575000047683716 C-47.54800033569336,2.680999994277954 -47.875999450683594,2.7320001125335693 -48.198001861572266,2.7320001125335693z"></path></g></g><g opacity="1" transform="matrix(1,0,0,1,0,0)"><path fill="rgb(24,19,9)" fill-opacity="1" d=" M-41.402000427246094,-15.557000160217285 C-41.402000427246094,-8.869000434875488 -46.51900100708008,-3.446000099182129 -52.83100128173828,-3.446000099182129 C-59.141998291015625,-3.446000099182129 -64.25800323486328,-8.869000434875488 -64.25800323486328,-15.557000160217285 C-64.25800323486328,-22.246000289916992 -59.141998291015625,-27.66699981689453 -52.83100128173828,-27.66699981689453 C-46.51900100708008,-27.66699981689453 -41.402000427246094,-22.246000289916992 -41.402000427246094,-15.557000160217285z"></path></g><g opacity="1" transform="matrix(1,0,0,1,0,0)"><path fill="url(#__lottie_element_42)" fill-opacity="1" d=" M-53.80400085449219,-25.999000549316406 C-53.80400085449219,-23.283000946044922 -55.763999938964844,-21.08099937438965 -58.18299865722656,-21.08099937438965 C-60.60100173950195,-21.08099937438965 -62.5620002746582,-23.283000946044922 -62.5620002746582,-25.999000549316406 C-62.5620002746582,-28.71500015258789 -60.60100173950195,-30.91699981689453 -58.18299865722656,-30.91699981689453 C-55.763999938964844,-30.91699981689453 -53.80400085449219,-28.71500015258789 -53.80400085449219,-25.999000549316406z"></path></g></g><g opacity="1" transform="matrix(1,0,0,1,0,0)"><path fill="rgb(163,65,0)" fill-opacity="1" d=" M27.091999053955078,-15.312999725341797 C27.091999053955078,-15.312999725341797 35.551998138427734,-37.83599853515625 56.21699905395508,-37.816001892089844 C77.61699676513672,-37.79499816894531 85.68299865722656,-18.62299919128418 85.68299865722656,-18.62299919128418 C85.68299865722656,-18.62299919128418 76.4209976196289,-41.362998962402344 54.40399932861328,-39.42100143432617 C35.01300048828125,-37.709999084472656 27.091999053955078,-15.312999725341797 27.091999053955078,-15.312999725341797z"></path><path stroke-linecap="round" stroke-linejoin="round" fill-opacity="0" stroke="rgb(163,65,0)" stroke-opacity="1" stroke-width="2" d=" M27.091999053955078,-15.312999725341797 C27.091999053955078,-15.312999725341797 35.551998138427734,-37.83599853515625 56.21699905395508,-37.816001892089844 C77.61699676513672,-37.79499816894531 85.68299865722656,-18.62299919128418 85.68299865722656,-18.62299919128418 C85.68299865722656,-18.62299919128418 76.4209976196289,-41.362998962402344 54.40399932861328,-39.42100143432617 C35.01300048828125,-37.709999084472656 27.091999053955078,-15.312999725341797 27.091999053955078,-15.312999725341797z"></path></g></g><g opacity="1" transform="matrix(1,0,0,1,0,0)"><g opacity="1" transform="matrix(1,0,0,1,0,0)"><path fill="rgb(255,255,255)" fill-opacity="1" d=" M-23.163999557495117,-4.302000045776367 C-23.163999557495117,-4.302000045776367 -25.857999801635742,-34.92599868774414 -51.284000396728516,-38.25899887084961 C-75.7699966430664,-41.46900177001953 -86.42500305175781,-13.383000373840332 -86.42500305175781,-13.383000373840332 C-86.42500305175781,-13.383000373840332 -82.6449966430664,2.6530001163482666 -61.59299850463867,7.354000091552734 C-37.94900131225586,12.633999824523926 -23.163999557495117,-4.302000045776367 -23.163999557495117,-4.302000045776367z"></path></g><g opacity="1" transform="matrix(1,0,0,1,0,0)"><g opacity="1" transform="matrix(1,0,0,1,0,0)"><path fill="url(#__lottie_element_43)" fill-opacity="1" d=" M-34.74800109863281,-15.557000160217285 C-34.74800109863281,-4.973999977111816 -42.84400177001953,3.6059999465942383 -52.83100128173828,3.6059999465942383 C-62.81700134277344,3.6059999465942383 -70.91300201416016,-4.973999977111816 -70.91300201416016,-15.557000160217285 C-70.91300201416016,-26.139999389648438 -62.81700134277344,-34.71900177001953 -52.83100128173828,-34.71900177001953 C-42.84400177001953,-34.71900177001953 -34.74800109863281,-26.139999389648438 -34.74800109863281,-15.557000160217285z"></path></g><g opacity="1" transform="matrix(1,0,0,1,0,0)"><g opacity="1" transform="matrix(1,0,0,1,0,0)"><path fill="url(#__lottie_element_44)" fill-opacity="1" d=" M-48.198001861572266,2.7320001125335693 C-49.611000061035156,2.7320001125335693 -50.91999816894531,1.7649999856948853 -51.358001708984375,0.2590000033378601 C-51.89699935913086,-1.590999960899353 -50.917999267578125,-3.552999973297119 -49.172000885009766,-4.123000144958496 C-45.83300018310547,-5.214000225067139 -43.17499923706055,-7.964000225067139 -42.0620002746582,-11.47700023651123 C-41.48099899291992,-13.312999725341797 -39.60200119018555,-14.298999786376953 -37.874000549316406,-13.684000015258789 C-36.141998291015625,-13.067999839782715 -35.209999084472656,-11.081000328063965 -35.79100036621094,-9.246000289916992 C-37.58000183105469,-3.5989999771118164 -41.85300064086914,0.8199999928474426 -47.222999572753906,2.575000047683716 C-47.54800033569336,2.680999994277954 -47.875999450683594,2.7320001125335693 -48.198001861572266,2.7320001125335693z"></path></g></g><g opacity="1" transform="matrix(1,0,0,1,0,0)"><path fill="rgb(24,19,9)" fill-opacity="1" d=" M-41.402000427246094,-15.557000160217285 C-41.402000427246094,-8.869000434875488 -46.51900100708008,-3.446000099182129 -52.83100128173828,-3.446000099182129 C-59.141998291015625,-3.446000099182129 -64.25800323486328,-8.869000434875488 -64.25800323486328,-15.557000160217285 C-64.25800323486328,-22.246000289916992 -59.141998291015625,-27.66699981689453 -52.83100128173828,-27.66699981689453 C-46.51900100708008,-27.66699981689453 -41.402000427246094,-22.246000289916992 -41.402000427246094,-15.557000160217285z"></path></g><g opacity="1" transform="matrix(1,0,0,1,0,0)"><path fill="url(#__lottie_element_45)" fill-opacity="1" d=" M-53.80400085449219,-25.999000549316406 C-53.80400085449219,-23.283000946044922 -55.763999938964844,-21.08099937438965 -58.18299865722656,-21.08099937438965 C-60.60100173950195,-21.08099937438965 -62.5620002746582,-23.283000946044922 -62.5620002746582,-25.999000549316406 C-62.5620002746582,-28.71500015258789 -60.60100173950195,-30.91699981689453 -58.18299865722656,-30.91699981689453 C-55.763999938964844,-30.91699981689453 -53.80400085449219,-28.71500015258789 -53.80400085449219,-25.999000549316406z"></path></g></g><g opacity="1" transform="matrix(1,0,0,1,0,0)"><path fill="rgb(163,65,0)" fill-opacity="1" d=" M-25.354999542236328,-15.312999725341797 C-25.354999542236328,-15.312999725341797 -33.81399917602539,-37.83599853515625 -54.479000091552734,-37.816001892089844 C-75.87899780273438,-37.79499816894531 -83.94499969482422,-18.62299919128418 -83.94499969482422,-18.62299919128418 C-83.94499969482422,-18.62299919128418 -74.68299865722656,-41.362998962402344 -52.66600036621094,-39.42100143432617 C-33.275001525878906,-37.709999084472656 -25.354999542236328,-15.312999725341797 -25.354999542236328,-15.312999725341797z"></path><path stroke-linecap="round" stroke-linejoin="round" fill-opacity="0" stroke="rgb(163,65,0)" stroke-opacity="1" stroke-width="2" d=" M-25.354999542236328,-15.312999725341797 C-25.354999542236328,-15.312999725341797 -33.81399917602539,-37.83599853515625 -54.479000091552734,-37.816001892089844 C-75.87899780273438,-37.79499816894531 -83.94499969482422,-18.62299919128418 -83.94499969482422,-18.62299919128418 C-83.94499969482422,-18.62299919128418 -74.68299865722656,-41.362998962402344 -52.66600036621094,-39.42100143432617 C-33.275001525878906,-37.709999084472656 -25.354999542236328,-15.312999725341797 -25.354999542236328,-15.312999725341797z"></path></g></g></g><g style="display: block;" transform="matrix(1,0,0,1,256,256)" opacity="1"><g opacity="1" transform="matrix(1,0,0,1,0,0)"><path stroke-linecap="round" stroke-linejoin="round" fill-opacity="0" stroke="rgb(0,0,0)" stroke-opacity="1" stroke-width="6" d=" M38.46699905395508,-57.88100051879883 C38.46699905395508,-57.88100051879883 60.356998443603516,-61.599998474121094 75.6709976196289,-50.04899978637695"></path></g><g opacity="1" transform="matrix(1,0,0,1,0,0)"><path stroke-linecap="round" stroke-linejoin="round" fill-opacity="0" stroke="rgb(0,0,0)" stroke-opacity="1" stroke-width="6" d=" M-38.5989990234375,-57.88100051879883 C-38.5989990234375,-57.88100051879883 -60.48899841308594,-61.599998474121094 -75.8030014038086,-50.04899978637695"></path></g></g><g style="display: block;" transform="matrix(1,0,0,1,256,256)" opacity="1"><g opacity="1" transform="matrix(1,0,0,1,0,0)"><path fill="url(#__lottie_element_32)" fill-opacity="0.5" d=" M23.320999145507812,75.54900360107422 C23.320999145507812,75.54900360107422 13.559000015258789,81.75499725341797 0.890999972820282,81.80000305175781 C-14.01099967956543,81.85299682617188 -22.805999755859375,75.54900360107422 -22.805999755859375,75.54900360107422 C-22.805999755859375,75.54900360107422 -22.84000015258789,77.87100219726562 -22.799999237060547,82.0979995727539 C-22.781999588012695,84.01100158691406 -22.999000549316406,86.59500122070312 -18.628999710083008,86.59500122070312 C-12.376999855041504,86.59500122070312 -9.626999855041504,90.19100189208984 0.25699999928474426,90.19100189208984 C9.638999938964844,90.19100189208984 13.208000183105469,86.59500122070312 19.143999099731445,86.59500122070312 C23.513999938964844,86.59500122070312 23.297000885009766,84.01100158691406 23.315000534057617,82.0979995727539 C23.354999542236328,77.87100219726562 23.320999145507812,75.54900360107422 23.320999145507812,75.54900360107422z"></path></g><g opacity="1" transform="matrix(1,0,0,1,0,0)"><path fill="url(#__lottie_element_33)" fill-opacity="0.6" d=" M-28.06399917602539,67.18399810791016 C-28.06399917602539,67.18399810791016 -19.243999481201172,81.82099914550781 -0.38999998569488525,81.82099914550781 C20.22599983215332,81.82099914550781 28.57900047302246,67.18399810791016 28.57900047302246,67.18399810791016 C28.57900047302246,67.18399810791016 -28.06399917602539,67.18399810791016 -28.06399917602539,67.18399810791016z"></path></g><g opacity="1" transform="matrix(1,0,0,1,0,0)"><path fill="rgb(75,0,7)" fill-opacity="1" d=" M17.606000900268555,62.29800033569336 C8.17199993133545,60.654998779296875 4.591000080108643,63.07500076293945 0.257999986410141,63.07500076293945 C-3.944000005722046,63.07500076293945 -6.247000217437744,60.43299865722656 -17.090999603271484,62.29800033569336 C-21.406999588012695,63.040000915527344 -25.010000228881836,63.41600036621094 -28.31599998474121,64.02999877929688 C-29.73200035095215,64.29299926757812 -29.68199920654297,66.34600067138672 -28.06399917602539,67.18399810791016 C-23.083999633789062,69.76499938964844 -15.07699966430664,75.54900360107422 0.257999986410141,75.54900360107422 C15.593000411987305,75.54900360107422 23.599000930786133,69.76499938964844 28.57900047302246,67.18399810791016 C30.54400062561035,66.16600036621094 30.16900062561035,64.4489974975586 28.152999877929688,64.03399658203125 C25.72800064086914,63.53499984741211 21.774999618530273,63.02399826049805 17.606000900268555,62.29800033569336z"></path></g><g opacity="1" transform="matrix(1,0,0,1,0,0)"><g opacity="1" transform="matrix(1,0,0,1,0,0)"><g opacity="1" transform="matrix(1,0,0,1,0,0)"><path fill="rgb(229,239,249)" fill-opacity="1" d=" M18.472000122070312,90.16100311279297 C18.14299964904785,90.16100311279297 17.829999923706055,89.99500274658203 17.648000717163086,89.71299743652344 C17.527999877929688,89.52799987792969 16.433000564575195,87.64399719238281 14.946000099182129,78.58999633789062 C14.163999557495117,73.83999633789062 13.555000305175781,67.66000366210938 13.548999786376953,67.5989990234375 C13.503999710083008,67.14399719238281 13.779999732971191,66.71700286865234 14.21399974822998,66.5719985961914 C14.265000343322754,66.55500030517578 15.477999687194824,66.15599822998047 17.222999572753906,66.15599822998047 C19.25200080871582,66.15599822998047 21.14299964904785,66.66999816894531 22.841999053955078,67.68499755859375 C23.166000366210938,67.87799835205078 23.350000381469727,68.23999786376953 23.316999435424805,68.61599731445312 C23.302000045776367,68.78800201416016 22.922000885009766,72.90399932861328 21.652999877929688,79.48999786376953 C20.7810001373291,84.01100158691406 19.437000274658203,89.36399841308594 19.423999786376953,89.41799926757812 C19.32900047302246,89.7969970703125 19.018999099731445,90.08399963378906 18.632999420166016,90.14700317382812 C18.577999114990234,90.15599822998047 18.524999618530273,90.16100311279297 18.472000122070312,90.16100311279297z"></path></g><g opacity="1" transform="matrix(1,0,0,1,0,0)"><path fill="rgb(180,184,193)" fill-opacity="1" d=" M17.222000122070312,67.13800048828125 C18.65399932861328,67.13800048828125 20.496999740600586,67.4280014038086 22.339000701904297,68.52799987792969 C22.339000701904297,68.52799987792969 21.96299934387207,72.69100189208984 20.687999725341797,79.30400085449219 C19.81100082397461,83.8499984741211 18.472000122070312,89.17900085449219 18.472000122070312,89.17900085449219 C18.472000122070312,89.17900085449219 17.41200065612793,87.54299926757812 15.913999557495117,78.43099975585938 C15.128999710083008,73.65699768066406 14.526000022888184,67.50299835205078 14.526000022888184,67.50299835205078 C14.526000022888184,67.50299835205078 15.616000175476074,67.13800048828125 17.222000122070312,67.13800048828125 M17.222999572753906,65.17400360107422 C17.222999572753906,65.17400360107422 17.222000122070312,65.17400360107422 17.222000122070312,65.17400360107422 C15.350000381469727,65.17400360107422 14.045000076293945,65.59300231933594 13.902000427246094,65.64099884033203 C13.032999992370605,65.93199920654297 12.482000350952148,66.78399658203125 12.571000099182129,67.69499969482422 C12.595999717712402,67.9489974975586 13.1899995803833,73.96800231933594 13.97599983215332,78.75 C15.428000450134277,87.58100128173828 16.52199935913086,89.78199768066406 16.822999954223633,90.24700164794922 C17.18899917602539,90.81099700927734 17.812999725341797,91.14299774169922 18.47100067138672,91.14299774169922 C18.577999114990234,91.14299774169922 18.684999465942383,91.13400268554688 18.792999267578125,91.11599731445312 C19.56399917602539,90.98799896240234 20.184999465942383,90.41600036621094 20.375999450683594,89.65799713134766 C20.430999755859375,89.43800354003906 21.739999771118164,84.2239990234375 22.617000579833984,79.6760025024414 C23.895999908447266,73.04199981689453 24.27899932861328,68.87899780273438 24.295000076293945,68.70500183105469 C24.363000869750977,67.9530029296875 23.993000030517578,67.22899627685547 23.344999313354492,66.84200286865234 C21.517000198364258,65.7509994506836 19.400999069213867,65.17400360107422 17.222999572753906,65.17400360107422 C17.222999572753906,65.17400360107422 17.222999572753906,65.17400360107422 17.222999572753906,65.17400360107422z"></path></g></g><g opacity="1" transform="matrix(1,0,0,1,0,0)"><g opacity="1" transform="matrix(1,0,0,1,0,0)"><path fill="rgb(229,239,249)" fill-opacity="1" d=" M-17.957000732421875,90.16100311279297 C-18.020000457763672,90.16100311279297 -18.084999084472656,90.15499877929688 -18.148000717163086,90.14199829101562 C-18.520000457763672,90.06900024414062 -18.816999435424805,89.78600311279297 -18.909000396728516,89.41799926757812 C-18.922000885009766,89.36399841308594 -20.266000747680664,84.01100158691406 -21.136999130249023,79.48999786376953 C-22.406999588012695,72.90399932861328 -22.78700065612793,68.78800201416016 -22.802000045776367,68.61599731445312 C-22.83799934387207,68.21399688720703 -22.625,67.83100128173828 -22.26300048828125,67.6500015258789 C-20.034000396728516,66.53399658203125 -17.81399917602539,66.29900360107422 -16.344999313354492,66.29900360107422 C-14.842000007629395,66.29900360107422 -13.824999809265137,66.53700256347656 -13.782999992370605,66.5479965209961 C-13.305000305175781,66.66100311279297 -12.986000061035156,67.10900115966797 -13.032999992370605,67.59700012207031 C-13.038999557495117,67.65899658203125 -13.637999534606934,73.84200286865234 -14.430999755859375,78.59300231933594 C-15.96399974822998,87.7760009765625 -16.979999542236328,89.51000213623047 -17.167999267578125,89.76300048828125 C-17.354999542236328,90.01599884033203 -17.64900016784668,90.16100311279297 -17.957000732421875,90.16100311279297z"></path></g><g opacity="1" transform="matrix(1,0,0,1,0,0)"><path fill="rgb(180,184,193)" fill-opacity="1" d=" M-16.344999313354492,67.28199768066406 C-14.9399995803833,67.28199768066406 -14.01099967956543,67.50299835205078 -14.01099967956543,67.50299835205078 C-14.01099967956543,67.50299835205078 -14.602999687194824,73.65899658203125 -15.39900016784668,78.43099975585938 C-16.97100067138672,87.8479995727539 -17.957000732421875,89.17900085449219 -17.957000732421875,89.17900085449219 C-17.957000732421875,89.17900085449219 -19.29599952697754,83.8499984741211 -20.17300033569336,79.30400085449219 C-21.447999954223633,72.69100189208984 -21.823999404907227,68.52799987792969 -21.823999404907227,68.52799987792969 C-19.822999954223633,67.5260009765625 -17.820999145507812,67.28199768066406 -16.344999313354492,67.28199768066406 M-16.344999313354492,65.31800079345703 C-17.920000076293945,65.31800079345703 -20.30299949645996,65.56999969482422 -22.702999114990234,66.77200317382812 C-23.424999237060547,67.13400268554688 -23.851999282836914,67.9010009765625 -23.780000686645508,68.70500183105469 C-23.763999938964844,68.87899780273438 -23.381000518798828,73.04199981689453 -22.101999282836914,79.6760025024414 C-21.225000381469727,84.2239990234375 -19.916000366210938,89.43800354003906 -19.861000061035156,89.65799713134766 C-19.676000595092773,90.39399719238281 -19.08300018310547,90.95700073242188 -18.33799934387207,91.1050033569336 C-18.211000442504883,91.12999725341797 -18.08300018310547,91.14299774169922 -17.95599937438965,91.14299774169922 C-17.340999603271484,91.14299774169922 -16.753000259399414,90.85399627685547 -16.378000259399414,90.3479995727539 C-15.560999870300293,89.24500274658203 -14.526000022888184,85.12699890136719 -13.461999893188477,78.75399780273438 C-12.663000106811523,73.97000122070312 -12.079000473022461,67.94499969482422 -12.055000305175781,67.69100189208984 C-11.961000442504883,66.71499633789062 -12.60099983215332,65.81999969482422 -13.555000305175781,65.59300231933594 C-13.67300033569336,65.56500244140625 -14.755000114440918,65.31800079345703 -16.344999313354492,65.31800079345703 C-16.344999313354492,65.31800079345703 -16.344999313354492,65.31800079345703 -16.344999313354492,65.31800079345703z"></path></g></g></g></g><g style="display: block;" transform="matrix(0.9300000071525574,0,0,0.9300000071525574,256.0202941894531,269.9137268066406)" opacity="1"><g opacity="1" transform="matrix(1,0,0,1,0,0)"><path fill="url(#__lottie_element_25)" fill-opacity="1" d=" M18.076000213623047,23.68600082397461 C18.076000213623047,31.56399917602539 11.100000381469727,37.95000076293945 0.28999999165534973,37.95000076293945 C-10.520000457763672,37.95000076293945 -17.496999740600586,31.56399917602539 -17.496999740600586,23.68600082397461 C-17.496999740600586,15.807999610900879 18.076000213623047,15.807999610900879 18.076000213623047,23.68600082397461z"></path></g><g opacity="1" transform="matrix(1,0,0,1,0,0)"><path fill="rgb(255,168,0)" fill-opacity="0.8" d=" M18.448999404907227,21.006000518798828 C18.448999404907227,28.31399917602539 10.319000244140625,34.2400016784668 0.28999999165534973,34.2400016784668 C-9.73900032043457,34.2400016784668 -17.868999481201172,28.31399917602539 -17.868999481201172,21.006000518798828 C-17.868999481201172,13.696999549865723 -9.73900032043457,8.085000038146973 0.28999999165534973,8.085000038146973 C10.319000244140625,8.085000038146973 18.448999404907227,13.696999549865723 18.448999404907227,21.006000518798828z"></path></g><g opacity="1" transform="matrix(1,0,0,1,0,0)"><path fill="url(#__lottie_element_26)" fill-opacity="1" d=" M18.448999404907227,21.006000518798828 C18.448999404907227,28.31399917602539 10.319000244140625,34.2400016784668 0.28999999165534973,34.2400016784668 C-9.73900032043457,34.2400016784668 -17.868999481201172,28.31399917602539 -17.868999481201172,21.006000518798828 C-17.868999481201172,13.696999549865723 -9.73900032043457,8.085000038146973 0.28999999165534973,8.085000038146973 C10.319000244140625,8.085000038146973 18.448999404907227,13.696999549865723 18.448999404907227,21.006000518798828z"></path></g><g opacity="1" transform="matrix(1,0,0,1,0,0)"><path fill="rgb(255,216,0)" fill-opacity="1" d=" M16.816999435424805,17.509000778198242 C16.816999435424805,22.950000762939453 8.965999603271484,28.17799949645996 0.28999999165534973,28.17799949645996 C-8.38599967956543,28.17799949645996 -16.23699951171875,22.950000762939453 -16.23699951171875,17.509000778198242 C-16.23699951171875,12.067999839782715 -8.38599967956543,7.814000129699707 0.28999999165534973,7.814000129699707 C8.965999603271484,7.814000129699707 16.816999435424805,12.067999839782715 16.816999435424805,17.509000778198242z"></path></g><g opacity="1" transform="matrix(1,0,0,1,0,0)"><path fill="url(#__lottie_element_27)" fill-opacity="1" d=" M16.816999435424805,17.509000778198242 C16.816999435424805,22.950000762939453 8.965999603271484,28.17799949645996 0.28999999165534973,28.17799949645996 C-8.38599967956543,28.17799949645996 -16.23699951171875,22.950000762939453 -16.23699951171875,17.509000778198242 C-16.23699951171875,12.067999839782715 -8.38599967956543,7.814000129699707 0.28999999165534973,7.814000129699707 C8.965999603271484,7.814000129699707 16.816999435424805,12.067999839782715 16.816999435424805,17.509000778198242z"></path></g><g opacity="1" transform="matrix(1,0,0,1,0,0)"><path fill="url(#__lottie_element_28)" fill-opacity="0.7000000000000001" d=" M7.663000106811523,13.996999740600586 C7.663000106811523,17.68899917602539 4.361999988555908,21.16200065612793 0.28999999165534973,21.16200065612793 C-3.7820000648498535,21.16200065612793 -7.083000183105469,17.68899917602539 -7.083000183105469,13.996999740600586 C-7.083000183105469,10.305000305175781 -3.7820000648498535,8.45199966430664 0.28999999165534973,8.45199966430664 C4.361999988555908,8.45199966430664 7.663000106811523,10.305000305175781 7.663000106811523,13.996999740600586z"></path></g></g><g style="display: block;" transform="matrix(1,0,0,1,255.99998474121094,256)" opacity="1"><g opacity="1" transform="matrix(1,0,0,1,0,0)"><path fill="rgb(45,45,45)" fill-opacity="1" d=" M-67.26499938964844,-129.7480010986328 C-67.26499938964844,-129.7480010986328 -55.62300109863281,-98.5510025024414 -17.888999938964844,-89.74400329589844 C19.844999313354492,-80.93699645996094 40.047000885009766,-87.17500305175781 59.486000061035156,-72.12999725341797 C59.486000061035156,-72.12999725341797 64.26599884033203,-82.77300262451172 59.486000061035156,-94.88200378417969 C59.486000061035156,-94.88200378417969 63.51300048828125,-75.43299865722656 80.39299774169922,-64.05699920654297 C80.39299774169922,-64.05699920654297 79.65899658203125,-75.80000305175781 80.39299774169922,-82.40499877929688 C80.39299774169922,-82.40499877929688 85.03399658203125,-55.26100158691406 102.14800262451172,-34.71900177001953 C105.83100128173828,-30.29800033569336 101.91300201416016,-10.973999977111816 110.65699768066406,-3.0320000648498535 C110.65699768066406,-3.0320000648498535 112.46900177001953,-21.399999618530273 118.79299926757812,-30.597999572753906 C126.48200225830078,-41.78099822998047 133.89999389648438,-76.89399719238281 126.41999816894531,-108.4280014038086 C116.83300018310547,-148.84100341796875 74.68900299072266,-181.0659942626953 18.30900001525879,-186.5570068359375 C-21.8439998626709,-190.46800231933594 -66.7760009765625,-182.30499267578125 -75.8030014038086,-154.39199829101562 C-75.8030014038086,-154.39199829101562 -102.48600006103516,-158.9810028076172 -117.6520004272461,-120.18299865722656 C-132.8179931640625,-81.38500213623047 -125.5979995727539,-37.737998962402344 -120.08699798583984,-30.597999572753906 C-113.91899871826172,-22.606000900268555 -110.97200012207031,-5.692999839782715 -110.97200012207031,-5.692999839782715 C-105.24700164794922,-7.665999889373779 -104.22100067138672,-38.53200149536133 -104.22100067138672,-38.53200149536133 C-104.22100067138672,-38.53200149536133 -91.74299621582031,-52.28499984741211 -85.44300079345703,-75.8280029296875 C-85.44300079345703,-75.8280029296875 -78.53399658203125,-64.56700134277344 -74.82099914550781,-64.56700134277344 C-74.82099914550781,-64.56700134277344 -75.802001953125,-74.88500213623047 -73.92500305175781,-83.62100219726562 C-73.92500305175781,-83.62100219726562 -66.56300354003906,-75.12799835205078 -59.165000915527344,-74.23600006103516 C-59.165000915527344,-74.23600006103516 -70.11900329589844,-93.97000122070312 -67.26499938964844,-129.7480010986328z"></path></g><g opacity="1" transform="matrix(1,0,0,1,0,0)"><path fill="url(#__lottie_element_6)" fill-opacity="1" d=" M-67.26499938964844,-129.7480010986328 C-67.26499938964844,-129.7480010986328 -55.62300109863281,-98.5510025024414 -17.888999938964844,-89.74400329589844 C19.844999313354492,-80.93699645996094 40.047000885009766,-87.17500305175781 59.486000061035156,-72.12999725341797 C59.486000061035156,-72.12999725341797 64.26599884033203,-82.77300262451172 59.486000061035156,-94.88200378417969 C59.486000061035156,-94.88200378417969 63.51300048828125,-75.43299865722656 80.39299774169922,-64.05699920654297 C80.39299774169922,-64.05699920654297 79.65899658203125,-75.80000305175781 80.39299774169922,-82.40499877929688 C80.39299774169922,-82.40499877929688 85.03399658203125,-55.26100158691406 102.14800262451172,-34.71900177001953 C105.83100128173828,-30.29800033569336 101.91300201416016,-10.973999977111816 110.65699768066406,-3.0320000648498535 C110.65699768066406,-3.0320000648498535 112.46900177001953,-21.399999618530273 118.79299926757812,-30.597999572753906 C126.48200225830078,-41.78099822998047 133.89999389648438,-76.89399719238281 126.41999816894531,-108.4280014038086 C116.83300018310547,-148.84100341796875 74.68900299072266,-181.0659942626953 18.30900001525879,-186.5570068359375 C-21.8439998626709,-190.46800231933594 -66.7760009765625,-182.30499267578125 -75.8030014038086,-154.39199829101562 C-75.8030014038086,-154.39199829101562 -102.48600006103516,-158.9810028076172 -117.6520004272461,-120.18299865722656 C-132.8179931640625,-81.38500213623047 -125.5979995727539,-37.737998962402344 -120.08699798583984,-30.597999572753906 C-113.91899871826172,-22.606000900268555 -110.97200012207031,-5.692999839782715 -110.97200012207031,-5.692999839782715 C-105.24700164794922,-7.665999889373779 -104.22100067138672,-38.53200149536133 -104.22100067138672,-38.53200149536133 C-104.22100067138672,-38.53200149536133 -91.74299621582031,-52.28499984741211 -85.44300079345703,-75.8280029296875 C-85.44300079345703,-75.8280029296875 -78.53399658203125,-64.56700134277344 -74.82099914550781,-64.56700134277344 C-74.82099914550781,-64.56700134277344 -75.802001953125,-74.88500213623047 -73.92500305175781,-83.62100219726562 C-73.92500305175781,-83.62100219726562 -66.56300354003906,-75.12799835205078 -59.165000915527344,-74.23600006103516 C-59.165000915527344,-74.23600006103516 -70.11900329589844,-93.97000122070312 -67.26499938964844,-129.7480010986328z"></path></g><g opacity="1" transform="matrix(1,0,0,1,0,0)"><path fill="url(#__lottie_element_7)" fill-opacity="1" d=" M59.48899841308594,-72.13500213623047 C40.04499816894531,-87.18000030517578 19.844999313354492,-80.93399810791016 -17.885000228881836,-89.74299621582031 C-55.625,-98.552001953125 -67.26200103759766,-129.75100708007812 -67.26200103759766,-129.75100708007812 C-70.12000274658203,-93.96600341796875 -59.15999984741211,-74.23699951171875 -59.15999984741211,-74.23699951171875 C-66.56500244140625,-75.13099670410156 -73.93000030517578,-83.625 -73.93000030517578,-83.625 C-75.80599975585938,-74.88500213623047 -74.822998046875,-64.56400299072266 -74.822998046875,-64.56400299072266 C-78.53500366210938,-64.56400299072266 -85.43900299072266,-75.8270034790039 -85.43900299072266,-75.8270034790039 C-91.74400329589844,-52.28799819946289 -104.22599792480469,-38.529998779296875 -104.22599792480469,-38.529998779296875 C-104.22599792480469,-38.529998779296875 -104.26499938964844,-7.664999961853027 -109.98999786376953,-5.690999984741211 C-109.98999786376953,-5.690999984741211 -113.91799926757812,-22.60099983215332 -120.08499908447266,-30.594999313354492 C-124.04299926757812,-35.72100067138672 -128.875,-59.65299987792969 -125.68299865722656,-87.10099792480469 C-125.68299865722656,-87.10099792480469 -125.10299682617188,-63.729000091552734 -111.73799896240234,-62.374000549316406 C-98.38200378417969,-61.02899932861328 -75.12799835205078,-107.81199645996094 -77.4260025024414,-129.01400756835938 C-79.4000015258789,-147.2209930419922 -95.5510025024414,-146.2239990234375 -106.41600036621094,-136.46800231933594 C-91.63600158691406,-156.46200561523438 -75.80599975585938,-154.38999938964844 -75.80599975585938,-154.38999938964844 C-70.44400024414062,-170.94700622558594 -52.46200180053711,-180.55099487304688 -30.347000122070312,-184.822998046875 C-30.347000122070312,-184.822998046875 -30.33799934387207,-184.81300354003906 -30.33799934387207,-184.81300354003906 C-30.33799934387207,-184.81300354003906 -62.64400100708008,-178.47500610351562 -62.637001037597656,-148.94000244140625 C-62.63199996948242,-127.14399719238281 -29.33099937438965,-104.81900024414062 1.4010000228881836,-100.56199645996094 C24.98200035095215,-97.29499816894531 46.67399978637695,-100.53500366210938 59.48899841308594,-72.13500213623047z"></path></g><g opacity="1" transform="matrix(1,0,0,1,0,0)"><path stroke-linecap="round" stroke-linejoin="round" fill-opacity="0" stroke="rgb(0,0,0)" stroke-opacity="1" stroke-width="8" d=" M-67.26499938964844,-129.7480010986328 C-67.26499938964844,-129.7480010986328 -55.62300109863281,-98.5510025024414 -17.888999938964844,-89.74400329589844 C19.844999313354492,-80.93699645996094 40.047000885009766,-87.17500305175781 59.486000061035156,-72.12999725341797 C59.486000061035156,-72.12999725341797 64.26599884033203,-82.77300262451172 59.486000061035156,-94.88200378417969 C59.486000061035156,-94.88200378417969 63.51300048828125,-75.43299865722656 80.39299774169922,-64.05699920654297 C80.39299774169922,-64.05699920654297 79.65899658203125,-75.80000305175781 80.39299774169922,-82.40499877929688 C80.39299774169922,-82.40499877929688 85.03399658203125,-55.26100158691406 102.14800262451172,-34.71900177001953 C105.83100128173828,-30.29800033569336 105.50299835205078,-19.5049991607666 109.67500305175781,-3.0320000648498535 C109.67500305175781,-3.0320000648498535 111.15299987792969,-22.509000778198242 120.75800323486328,-31.579999923706055 C128.427001953125,-38.821998596191406 132.91799926757812,-76.89399719238281 125.43800354003906,-108.4280014038086 C115.85199737548828,-148.84100341796875 74.68900299072266,-181.0659942626953 18.30900001525879,-186.5570068359375 C-21.8439998626709,-190.46800231933594 -66.7760009765625,-182.30499267578125 -75.8030014038086,-154.39199829101562 C-75.8030014038086,-154.39199829101562 -102.48600006103516,-158.9810028076172 -117.6520004272461,-120.18299865722656 C-132.8179931640625,-81.38500213623047 -127.60600280761719,-36.5629997253418 -120.08699798583984,-31.579999923706055 C-110.14399719238281,-24.989999771118164 -109.98999786376953,-5.692999839782715 -109.98999786376953,-5.692999839782715 C-107.21499633789062,-16.96299934387207 -105.2030029296875,-38.53200149536133 -105.2030029296875,-38.53200149536133 C-105.2030029296875,-38.53200149536133 -91.74299621582031,-52.28499984741211 -85.44300079345703,-75.8280029296875 C-85.44300079345703,-75.8280029296875 -78.53399658203125,-64.56700134277344 -74.82099914550781,-64.56700134277344 C-74.82099914550781,-64.56700134277344 -75.802001953125,-74.88500213623047 -73.92500305175781,-83.62100219726562 C-73.92500305175781,-83.62100219726562 -66.56300354003906,-75.12799835205078 -59.165000915527344,-74.23600006103516 C-59.165000915527344,-74.23600006103516 -70.11900329589844,-93.97000122070312 -67.26499938964844,-129.7480010986328z"></path></g><g opacity="1" transform="matrix(1,0,0,1,0,0)"><path fill="url(#__lottie_element_8)" fill-opacity="0.9" d=" M14.152999877929688,-99.18499755859375 C-22.472999572753906,-105.64199829101562 -42.58399963378906,-119.44100189208984 -51.50600051879883,-126.21499633789062 C-62.05799865722656,-134.2259979248047 -59.68000030517578,-153.53399658203125 -53.33000183105469,-160.53199768066406 C-42.71799850463867,-172.22799682617188 -16.875999450683594,-181.27000427246094 14.835000038146973,-179.52999877929688 C45.15399932861328,-177.86599731445312 73.7239990234375,-167.16099548339844 86.32499694824219,-152.61500549316406 C86.33399963378906,-152.6020050048828 86.33399963378906,-152.6020050048828 86.34300231933594,-152.58900451660156 C109.13600158691406,-126.04900360107422 122.01699829101562,-80.16899871826172 14.152999877929688,-99.18499755859375z"></path></g><g opacity="1" transform="matrix(1,0,0,1,0,0)"><path fill="url(#__lottie_element_9)" fill-opacity="0.9" d=" M-81.91500091552734,-116.37300109863281 C-79.43900299072266,-128.09100341796875 -89.90499877929688,-141.6269989013672 -97.73699951171875,-134.86399841308594 C-107.02899932861328,-126.84100341796875 -113.55899810791016,-107.20700073242188 -114.22000122070312,-92.69400024414062 C-114.47699737548828,-87.04900360107422 -103.875,-94.51200103759766 -96.01699829101562,-106.61000061035156 C-88.3010025024414,-118.48899841308594 -82.92400360107422,-111.59700012207031 -81.91500091552734,-116.37300109863281z"></path></g></g></g></svg>