<svg xmlns="http://www.w3.org/2000/svg" xmlns:xlink="http://www.w3.org/1999/xlink" viewBox="0 0 512 512" width="512" height="512" style="width: 100%; height: 100%; transform: translate3d(0,0,0); content-visibility: visible;" preserveAspectRatio="xMidYMid meet"><defs><clipPath id="__lottie_element_2"><rect width="512" height="512" x="0" y="0"></rect></clipPath><linearGradient id="__lottie_element_6" spreadMethod="pad" gradientUnits="userSpaceOnUse" x1="-57.75" y1="-99.75" x2="-92.5" y2="-105"><stop offset="0%" stop-color="rgb(213,208,187)" stop-opacity="1"></stop><stop offset="50%" stop-color="rgb(213,208,187)" stop-opacity="0.5"></stop><stop offset="100%" stop-color="rgb(213,208,187)" stop-opacity="0"></stop></linearGradient><linearGradient id="__lottie_element_7" spreadMethod="pad" gradientUnits="userSpaceOnUse" x1="56.75" y1="-93.75" x2="92.25" y2="-104.75"><stop offset="0%" stop-color="rgb(213,208,187)" stop-opacity="1"></stop><stop offset="50%" stop-color="rgb(213,208,187)" stop-opacity="0.5"></stop><stop offset="100%" stop-color="rgb(213,208,187)" stop-opacity="0"></stop></linearGradient><radialGradient id="__lottie_element_8" spreadMethod="pad" gradientUnits="userSpaceOnUse" cx="48.5" cy="-101.5" r="47.10095540432275" fx="48.5" fy="-101.5"><stop offset="0%" stop-color="rgb(222,218,198)"></stop><stop offset="52%" stop-color="rgb(219,214,191)"></stop><stop offset="100%" stop-color="rgb(216,210,183)"></stop></radialGradient><mask id="__lottie_element_10"><path fill="url(#__lottie_element_9)" d=" M103,-123.25 C59.5,-134.25 42.875,-98.25 34,-81.75 C22.798999786376953,-60.92499923706055 6.5,-61.375 12.625,-82.875 C-4.625,-78.875 17.496000289916992,-46.58100128173828 37.375,-78 C63,-118.5 84,-124.25 103,-123.25z"></path></mask><radialGradient id="__lottie_element_9" spreadMethod="pad" gradientUnits="userSpaceOnUse" cx="48.5" cy="-101.5" r="47.10095540432275" fx="48.5" fy="-101.5"><stop stop-color="rgb(255,255,255)" offset="0%" stop-opacity="1"></stop><stop stop-color="rgb(255,255,255)" offset="51%" stop-opacity="0.6499999761581421"></stop><stop stop-color="rgb(255,255,255)" offset="100%" stop-opacity="0.30000001192092896"></stop></radialGradient><radialGradient id="__lottie_element_11" spreadMethod="pad" gradientUnits="userSpaceOnUse" cx="-46" cy="-105.75" r="44.034787384521344" fx="-46" fy="-105.75"><stop offset="0%" stop-color="rgb(222,218,198)"></stop><stop offset="52%" stop-color="rgb(219,214,191)"></stop><stop offset="100%" stop-color="rgb(216,210,183)"></stop></radialGradient><mask id="__lottie_element_13"><path fill="url(#__lottie_element_12)" d=" M-100.75,-123.5 C-60.25,-123.5 -47.53499984741211,-94.41999816894531 -38.875,-78.875 C-23.625,-51.5 2.5,-73.375 -12,-83.375 C-12.125,-61.75 -27.875,-62.625 -34.125,-80.75 C-38.053001403808594,-92.13999938964844 -53.75,-133.25 -100.75,-123.5z"></path></mask><radialGradient id="__lottie_element_12" spreadMethod="pad" gradientUnits="userSpaceOnUse" cx="-46" cy="-105.75" r="44.034787384521344" fx="-46" fy="-105.75"><stop stop-color="rgb(255,255,255)" offset="0%" stop-opacity="1"></stop><stop stop-color="rgb(255,255,255)" offset="51%" stop-opacity="0.6499999761581421"></stop><stop stop-color="rgb(255,255,255)" offset="100%" stop-opacity="0.30000001192092896"></stop></radialGradient><radialGradient id="__lottie_element_14" spreadMethod="pad" gradientUnits="userSpaceOnUse" cx="-0.04500000178813934" cy="2.4769999980926514" r="8.686676444335193" fx="-0.44538564524809626" fy="1.3084442608780225"><stop offset="0%" stop-color="rgb(158,255,208)"></stop><stop offset="63%" stop-color="rgb(99,204,165)"></stop><stop offset="100%" stop-color="rgb(41,153,122)"></stop></radialGradient><linearGradient id="__lottie_element_15" spreadMethod="pad" gradientUnits="userSpaceOnUse" x1="2.0450000762939453" y1="-37.72700119018555" x2="2.2730000019073486" y2="-75.90899658203125"><stop offset="0%" stop-color="rgb(41,153,122)"></stop><stop offset="10%" stop-color="rgb(96,201,162)"></stop><stop offset="20%" stop-color="rgb(151,250,203)"></stop><stop offset="47%" stop-color="rgb(96,201,162)"></stop><stop offset="100%" stop-color="rgb(41,153,122)"></stop></linearGradient><linearGradient id="__lottie_element_16" spreadMethod="pad" gradientUnits="userSpaceOnUse" x1="1.3639999628067017" y1="-74.09100341796875" x2="2.0450000762939453" y2="-54.31800079345703"><stop offset="0%" stop-color="rgb(255,255,255)"></stop><stop offset="51%" stop-color="rgb(255,255,255)"></stop><stop offset="100%" stop-color="rgb(255,255,255)"></stop></linearGradient><mask id="__lottie_element_18"><path fill="url(#__lottie_element_17)" d=" M1.6139999628067017,-73.88600158691406 C-2.0220000743865967,-74 -5.889999866485596,-52.08300018310547 1.5,-51.840999603271484 C8.432000160217285,-51.61399841308594 5.7170000076293945,-73.75800323486328 1.6139999628067017,-73.88600158691406z"></path></mask><linearGradient id="__lottie_element_17" spreadMethod="pad" gradientUnits="userSpaceOnUse" x1="1.3639999628067017" y1="-74.09100341796875" x2="2.0450000762939453" y2="-54.31800079345703"><stop stop-color="rgb(255,255,255)" offset="0%" stop-opacity="1"></stop><stop stop-color="rgb(255,255,255)" offset="54%" stop-opacity="0.5"></stop><stop stop-color="rgb(255,255,255)" offset="100%" stop-opacity="0"></stop></linearGradient><linearGradient id="__lottie_element_25" spreadMethod="pad" gradientUnits="userSpaceOnUse" x1="-99.73500061035156" y1="271.9580078125" x2="-87.302001953125" y2="116.93099975585938"><stop offset="0%" stop-color="rgb(230,219,183)"></stop><stop offset="51%" stop-color="rgb(234,224,193)"></stop><stop offset="100%" stop-color="rgb(237,229,202)"></stop></linearGradient><linearGradient id="__lottie_element_26" spreadMethod="pad" gradientUnits="userSpaceOnUse" x1="160.05299377441406" y1="271.9580078125" x2="148.677001953125" y2="128.5709991455078"><stop offset="0%" stop-color="rgb(230,219,183)"></stop><stop offset="51%" stop-color="rgb(234,224,193)"></stop><stop offset="100%" stop-color="rgb(237,229,202)"></stop></linearGradient><linearGradient id="__lottie_element_27" spreadMethod="pad" gradientUnits="userSpaceOnUse" x1="28.075000762939453" y1="-147.8730010986328" x2="28.884000778198242" y2="-67.74500274658203"><stop offset="0%" stop-color="rgb(255,255,255)" stop-opacity="1"></stop><stop offset="50%" stop-color="rgb(255,255,255)" stop-opacity="0.5"></stop><stop offset="100%" stop-color="rgb(255,255,255)" stop-opacity="0"></stop></linearGradient><linearGradient id="__lottie_element_28" spreadMethod="pad" gradientUnits="userSpaceOnUse" x1="24.868000030517578" y1="-96.82499694824219" x2="29.6299991607666" y2="259.2590026855469"><stop offset="0%" stop-color="rgb(192,167,90)"></stop><stop offset="68%" stop-color="rgb(194,168,96)"></stop><stop offset="100%" stop-color="rgb(196,168,102)"></stop></linearGradient><mask id="__lottie_element_30"><path fill="url(#__lottie_element_29)" d=" M25.743000030517578,-93.39900207519531 C-8.913000106811523,-124.61599731445312 -47.801998138427734,-58.47800064086914 -59.347999572753906,4.776000022888184 C-71.50499725341797,71.375 -65.5260009765625,156.33599853515625 -104.41500091552734,275.1199951171875 C-104.1500015258789,275.3840026855469 -93.76599884033203,277.78900146484375 -93.04000091552734,275.64898681640625 C-58.11899948120117,172.73899841308594 -59.178001403808594,38.875999450683594 -50.71200180053711,7.130000114440918 C-42.24599838256836,-24.615999221801758 -17.378000259399414,-109.27200317382812 24.950000762939453,-84.93299865722656 C41.88100051879883,-101.33499908447266 92.14600372314453,-80.70099639892578 103.25700378417969,3.4260001182556152 C111.44999694824219,65.45800018310547 101.13999938964844,134.11399841308594 146.11399841308594,274.8550109863281 C146.11399841308594,275.1199951171875 157.08299255371094,276.81500244140625 156.43099975585938,274.8550109863281 C115.95500183105469,153.16099548339844 127.23100280761719,73.01399993896484 112.06300354003906,0.5220000147819519 C97.1719970703125,-70.64700317382812 60.39899826049805,-123.55799865722656 25.743000030517578,-93.39900207519531z"></path></mask><linearGradient id="__lottie_element_29" spreadMethod="pad" gradientUnits="userSpaceOnUse" x1="24.868000030517578" y1="-96.82499694824219" x2="29.6299991607666" y2="259.2590026855469"><stop stop-color="rgb(255,255,255)" offset="0%" stop-opacity="1"></stop><stop stop-color="rgb(255,255,255)" offset="63%" stop-opacity="0.5"></stop><stop stop-color="rgb(255,255,255)" offset="100%" stop-opacity="0"></stop></linearGradient><linearGradient id="__lottie_element_31" spreadMethod="pad" gradientUnits="userSpaceOnUse" x1="135.97900390625" y1="-33.86199951171875" x2="110.58200073242188" y2="-95.50299835205078"><stop offset="0%" stop-color="rgb(186,167,128)"></stop><stop offset="51%" stop-color="rgb(211,198,165)"></stop><stop offset="100%" stop-color="rgb(237,229,202)"></stop></linearGradient><linearGradient id="__lottie_element_32" spreadMethod="pad" gradientUnits="userSpaceOnUse" x1="-83.33300018310547" y1="-30.42300033569336" x2="-57.9370002746582" y2="-94.9739990234375"><stop offset="0%" stop-color="rgb(186,167,128)"></stop><stop offset="51%" stop-color="rgb(211,198,165)"></stop><stop offset="100%" stop-color="rgb(237,229,202)"></stop></linearGradient><linearGradient id="__lottie_element_39" spreadMethod="pad" gradientUnits="userSpaceOnUse" x1="-109.36299896240234" y1="-51.25" x2="-94.26499938964844" y2="-28.141000747680664"><stop offset="0%" stop-color="rgb(66,0,0)"></stop><stop offset="37%" stop-color="rgb(118,40,0)"></stop><stop offset="100%" stop-color="rgb(170,80,0)"></stop></linearGradient><radialGradient id="__lottie_element_40" spreadMethod="pad" gradientUnits="userSpaceOnUse" cx="-97.23799896240234" cy="-32" r="9.497001647949219" fx="-97.23799896240234" fy="-32"><stop offset="0%" stop-color="rgb(246,175,0)" stop-opacity="1"></stop><stop offset="50%" stop-color="rgb(246,175,0)" stop-opacity="0.5"></stop><stop offset="100%" stop-color="rgb(246,175,0)" stop-opacity="0"></stop></radialGradient><linearGradient id="__lottie_element_41" spreadMethod="pad" gradientUnits="userSpaceOnUse" x1="-110.36299896240234" y1="-55.0629997253418" x2="-110.0250015258789" y2="-48.31399917602539"><stop offset="0%" stop-color="rgb(255,255,255)" stop-opacity="1"></stop><stop offset="60%" stop-color="rgb(255,255,255)" stop-opacity="0.5"></stop><stop offset="100%" stop-color="rgb(255,255,255)" stop-opacity="0"></stop></linearGradient><linearGradient id="__lottie_element_42" spreadMethod="pad" gradientUnits="userSpaceOnUse" x1="-109.36299896240234" y1="-51.25" x2="-94.26499938964844" y2="-28.141000747680664"><stop offset="0%" stop-color="rgb(66,0,0)"></stop><stop offset="37%" stop-color="rgb(118,40,0)"></stop><stop offset="100%" stop-color="rgb(170,80,0)"></stop></linearGradient><radialGradient id="__lottie_element_43" spreadMethod="pad" gradientUnits="userSpaceOnUse" cx="-97.23799896240234" cy="-32" r="9.497001647949219" fx="-97.23799896240234" fy="-32"><stop offset="0%" stop-color="rgb(246,175,0)" stop-opacity="1"></stop><stop offset="50%" stop-color="rgb(246,175,0)" stop-opacity="0.5"></stop><stop offset="100%" stop-color="rgb(246,175,0)" stop-opacity="0"></stop></radialGradient><linearGradient id="__lottie_element_44" spreadMethod="pad" gradientUnits="userSpaceOnUse" x1="-110.36299896240234" y1="-55.0629997253418" x2="-110.0250015258789" y2="-48.31399917602539"><stop offset="0%" stop-color="rgb(255,255,255)" stop-opacity="1"></stop><stop offset="60%" stop-color="rgb(255,255,255)" stop-opacity="0.5"></stop><stop offset="100%" stop-color="rgb(255,255,255)" stop-opacity="0"></stop></linearGradient><radialGradient id="__lottie_element_48" spreadMethod="pad" gradientUnits="userSpaceOnUse" cx="-0.8009999990463257" cy="134.54600524902344" r="35.5340017080307" fx="-0.8009999990463257" fy="134.54600524902344"><stop offset="8%" stop-color="rgb(117,55,14)" stop-opacity="1"></stop><stop offset="57%" stop-color="rgb(117,55,14)" stop-opacity="0.5049999952316284"></stop><stop offset="100%" stop-color="rgb(117,55,14)" stop-opacity="0.009999999776482582"></stop></radialGradient><linearGradient id="__lottie_element_52" spreadMethod="pad" gradientUnits="userSpaceOnUse" x1="23.761999130249023" y1="73.625" x2="24.136999130249023" y2="93.21399688720703"><stop offset="0%" stop-color="rgb(255,168,0)" stop-opacity="1"></stop><stop offset="66%" stop-color="rgb(255,168,0)" stop-opacity="0.5"></stop><stop offset="100%" stop-color="rgb(255,168,0)" stop-opacity="0"></stop></linearGradient><linearGradient id="__lottie_element_53" spreadMethod="pad" gradientUnits="userSpaceOnUse" x1="23.886999130249023" y1="84" x2="23.761999130249023" y2="66.55699920654297"><stop offset="10%" stop-color="rgb(219,110,0)" stop-opacity="1"></stop><stop offset="49%" stop-color="rgb(219,110,0)" stop-opacity="0.5"></stop><stop offset="77%" stop-color="rgb(219,110,0)" stop-opacity="0"></stop></linearGradient><radialGradient id="__lottie_element_54" spreadMethod="pad" gradientUnits="userSpaceOnUse" cx="23.761999130249023" cy="63" r="17.660001754760742" fx="23.761999130249023" fy="63"><stop offset="40%" stop-color="rgb(255,168,0)" stop-opacity="0"></stop><stop offset="70%" stop-color="rgb(255,168,0)" stop-opacity="0.5"></stop><stop offset="100%" stop-color="rgb(255,168,0)" stop-opacity="1"></stop></radialGradient><linearGradient id="__lottie_element_55" spreadMethod="pad" gradientUnits="userSpaceOnUse" x1="23.761999130249023" y1="62" x2="23.761999130249023" y2="70.49299621582031"><stop offset="0%" stop-color="rgb(255,255,255)" stop-opacity="1"></stop><stop offset="50%" stop-color="rgb(255,255,255)" stop-opacity="0.5"></stop><stop offset="100%" stop-color="rgb(255,255,255)" stop-opacity="0"></stop></linearGradient><linearGradient id="__lottie_element_59" spreadMethod="pad" gradientUnits="userSpaceOnUse" x1="21.761999130249023" y1="-63" x2="21.761999130249023" y2="125.70800018310547"><stop offset="0%" stop-color="rgb(255,216,0)" stop-opacity="0"></stop><stop offset="14%" stop-color="rgb(255,216,0)" stop-opacity="0.5"></stop><stop offset="45%" stop-color="rgb(255,216,0)" stop-opacity="1"></stop><stop offset="90%" stop-color="rgb(255,216,0)" stop-opacity="0.5"></stop><stop offset="100%" stop-color="rgb(255,216,0)" stop-opacity="0"></stop></linearGradient><linearGradient id="__lottie_element_60" spreadMethod="pad" gradientUnits="userSpaceOnUse" x1="27.44099998474121" y1="-97.24700164794922" x2="27.472000122070312" y2="-58.88399887084961"><stop offset="0%" stop-color="rgb(219,110,0)" stop-opacity="1"></stop><stop offset="38%" stop-color="rgb(219,110,0)" stop-opacity="0.5"></stop><stop offset="70%" stop-color="rgb(219,110,0)" stop-opacity="0"></stop></linearGradient><linearGradient id="__lottie_element_64" spreadMethod="pad" gradientUnits="userSpaceOnUse" x1="-130.33399963378906" y1="-37.237998962402344" x2="-125.94599914550781" y2="3.0190000534057617"><stop offset="0%" stop-color="rgb(255,216,0)"></stop><stop offset="50%" stop-color="rgb(255,192,0)"></stop><stop offset="100%" stop-color="rgb(255,168,0)"></stop></linearGradient><linearGradient id="__lottie_element_65" spreadMethod="pad" gradientUnits="userSpaceOnUse" x1="128.3209991455078" y1="-39.75400161743164" x2="121.13500213623047" y2="1.5099999904632568"><stop offset="0%" stop-color="rgb(255,216,0)"></stop><stop offset="50%" stop-color="rgb(255,192,0)"></stop><stop offset="100%" stop-color="rgb(255,168,0)"></stop></linearGradient><radialGradient id="__lottie_element_69" spreadMethod="pad" gradientUnits="userSpaceOnUse" cx="-59.5" cy="191.5" r="58.25858305863609" fx="-59.62099665036717" fy="207.23692589446097"><stop offset="0%" stop-color="rgb(75,196,128)"></stop><stop offset="65%" stop-color="rgb(61,172,109)"></stop><stop offset="100%" stop-color="rgb(47,147,91)"></stop></radialGradient><radialGradient id="__lottie_element_70" spreadMethod="pad" gradientUnits="userSpaceOnUse" cx="60" cy="192.5" r="58.008620049092706" fx="59.789605665944" fy="206.7946761641073"><stop offset="0%" stop-color="rgb(75,196,128)"></stop><stop offset="65%" stop-color="rgb(61,172,109)"></stop><stop offset="100%" stop-color="rgb(47,147,91)"></stop></radialGradient><linearGradient id="__lottie_element_71" spreadMethod="pad" gradientUnits="userSpaceOnUse" x1="98.75" y1="203.25" x2="81.75" y2="211.75"><stop offset="0%" stop-color="rgb(35,67,48)"></stop><stop offset="50%" stop-color="rgb(35,67,48)"></stop><stop offset="100%" stop-color="rgb(35,67,48)"></stop></linearGradient><mask id="__lottie_element_73"><path fill="url(#__lottie_element_72)" d=" M60.5,188.1719970703125 C60.375,188.17999267578125 70.70700073242188,201.16400146484375 71.58200073242188,221.8520050048828 C71.70700073242188,221.9149932861328 106.31600189208984,221.9340057373047 106.06600189208984,221.6840057373047 C103.56199645996094,209.75 86.18800354003906,190 60.5,188.1719970703125z"></path></mask><linearGradient id="__lottie_element_72" spreadMethod="pad" gradientUnits="userSpaceOnUse" x1="98.75" y1="203.25" x2="81.75" y2="211.75"><stop stop-color="rgb(255,255,255)" offset="0%" stop-opacity="1"></stop><stop stop-color="rgb(255,255,255)" offset="51%" stop-opacity="0.5"></stop><stop stop-color="rgb(255,255,255)" offset="100%" stop-opacity="0"></stop></linearGradient><linearGradient id="__lottie_element_74" spreadMethod="pad" gradientUnits="userSpaceOnUse" x1="-103.75" y1="203.25" x2="-84" y2="213"><stop offset="0%" stop-color="rgb(35,67,48)"></stop><stop offset="50%" stop-color="rgb(35,67,48)"></stop><stop offset="100%" stop-color="rgb(35,67,48)"></stop></linearGradient><mask id="__lottie_element_76"><path fill="url(#__lottie_element_75)" d=" M-62.9379997253418,188.06300354003906 C-82.3759994506836,187.93800354003906 -102.8280029296875,206.52000427246094 -109.625,221.81300354003906 C-109.68800354003906,221.93800354003906 -71.81300354003906,221.87600708007812 -71.81300354003906,221.81300354003906 C-71.25,204.375 -63.000999450683594,188.18800354003906 -62.9379997253418,188.06300354003906z"></path></mask><linearGradient id="__lottie_element_75" spreadMethod="pad" gradientUnits="userSpaceOnUse" x1="-103.75" y1="203.25" x2="-84" y2="213"><stop stop-color="rgb(255,255,255)" offset="0%" stop-opacity="1"></stop><stop stop-color="rgb(255,255,255)" offset="51%" stop-opacity="0.5"></stop><stop stop-color="rgb(255,255,255)" offset="100%" stop-opacity="0"></stop></linearGradient><radialGradient id="__lottie_element_77" spreadMethod="pad" gradientUnits="userSpaceOnUse" cx="-1.5" cy="115.25" r="66.50046992315167" fx="-2.2105051851718724" fy="120.88720101903807"><stop offset="0%" stop-color="rgb(29,75,43)"></stop><stop offset="69%" stop-color="rgb(50,116,78)"></stop><stop offset="100%" stop-color="rgb(71,157,112)"></stop></radialGradient><linearGradient id="__lottie_element_78" spreadMethod="pad" gradientUnits="userSpaceOnUse" x1="54.5" y1="104.25" x2="47.5" y2="131.75"><stop offset="0%" stop-color="rgb(29,75,43)" stop-opacity="1"></stop><stop offset="69%" stop-color="rgb(29,75,43)" stop-opacity="0.5"></stop><stop offset="100%" stop-color="rgb(29,75,43)" stop-opacity="0"></stop></linearGradient><linearGradient id="__lottie_element_79" spreadMethod="pad" gradientUnits="userSpaceOnUse" x1="-57" y1="104.75" x2="-50.75" y2="131"><stop offset="0%" stop-color="rgb(29,75,43)" stop-opacity="1"></stop><stop offset="69%" stop-color="rgb(29,75,43)" stop-opacity="0.5"></stop><stop offset="100%" stop-color="rgb(29,75,43)" stop-opacity="0"></stop></linearGradient><linearGradient id="__lottie_element_80" spreadMethod="pad" gradientUnits="userSpaceOnUse" x1="24.5" y1="116.5" x2="84.5" y2="216.25"><stop offset="0%" stop-color="rgb(22,58,29)"></stop><stop offset="27%" stop-color="rgb(22,58,29)"></stop><stop offset="54%" stop-color="rgb(22,58,29)"></stop><stop offset="76%" stop-color="rgb(22,58,29)"></stop><stop offset="100%" stop-color="rgb(22,58,29)"></stop></linearGradient><mask id="__lottie_element_82"><path fill="url(#__lottie_element_81)" d=" M29.5,103 C17.43600082397461,115.06400299072266 11.644000053405762,134.04800415039062 16.5,155.75 C24.5,191.5 55.125,202.5 74.5,202.6719970703125 C74.5,202.6719970703125 74.75,199.25 74.75,198.75 C63.875,199.375 56.375,195 56,195 C64.75,191.625 63.75,181.25 56.625,179 C57.625,185.5 57.952999114990234,191.14999389648438 50.07600021362305,190.2209930419922 C24.875,187.25 13.75,129 33.75,111.5 C33.75,111.5 30.25,102.5 29.5,103z"></path></mask><linearGradient id="__lottie_element_81" spreadMethod="pad" gradientUnits="userSpaceOnUse" x1="24.5" y1="116.5" x2="84.5" y2="216.25"><stop stop-color="rgb(255,255,255)" offset="0%" stop-opacity="0"></stop><stop stop-color="rgb(255,255,255)" offset="27%" stop-opacity="0.5"></stop><stop stop-color="rgb(255,255,255)" offset="54%" stop-opacity="1"></stop><stop stop-color="rgb(255,255,255)" offset="78%" stop-opacity="0.5"></stop><stop stop-color="rgb(255,255,255)" offset="100%" stop-opacity="0"></stop></linearGradient><linearGradient id="__lottie_element_83" spreadMethod="pad" gradientUnits="userSpaceOnUse" x1="-30.25" y1="112.875" x2="-85.125" y2="217.625"><stop offset="0%" stop-color="rgb(22,58,29)"></stop><stop offset="27%" stop-color="rgb(22,58,29)"></stop><stop offset="54%" stop-color="rgb(22,58,29)"></stop><stop offset="76%" stop-color="rgb(22,58,29)"></stop><stop offset="100%" stop-color="rgb(22,58,29)"></stop></linearGradient><mask id="__lottie_element_85"><path fill="url(#__lottie_element_84)" d=" M-58.125,180.625 C-64.75,180.375 -63.375,194.375 -57.625,195.625 C-57.375,195.875 -69.375,199 -75.5,199 C-75.375,199.375 -75.875,203.25 -75.75,203.125 C-48.75,200.5 -20.75,187 -15.125,144.5 C-16.75,123.25 -30.75,91.75 -36.40399932861328,109.06099700927734 C-10.75,143 -26,177 -46.994998931884766,188.50999450683594 C-52.68899917602539,191.6320037841797 -58.70600128173828,184.15199279785156 -58.125,180.625z"></path></mask><linearGradient id="__lottie_element_84" spreadMethod="pad" gradientUnits="userSpaceOnUse" x1="-30.25" y1="112.875" x2="-85.125" y2="217.625"><stop stop-color="rgb(255,255,255)" offset="0%" stop-opacity="0"></stop><stop stop-color="rgb(255,255,255)" offset="27%" stop-opacity="0.5"></stop><stop stop-color="rgb(255,255,255)" offset="54%" stop-opacity="1"></stop><stop stop-color="rgb(255,255,255)" offset="78%" stop-opacity="0.5"></stop><stop stop-color="rgb(255,255,255)" offset="100%" stop-opacity="0"></stop></linearGradient><radialGradient id="__lottie_element_86" spreadMethod="pad" gradientUnits="userSpaceOnUse" cx="-0.875" cy="144" r="68.6322855877611" fx="-1.1249512776243433" fy="129.2502942443342"><stop offset="27%" stop-color="rgb(204,175,74)"></stop><stop offset="44%" stop-color="rgb(173,146,52)"></stop><stop offset="68%" stop-color="rgb(142,117,29)"></stop><stop offset="84%" stop-color="rgb(173,146,52)"></stop><stop offset="100%" stop-color="rgb(204,175,74)"></stop></radialGradient><radialGradient id="__lottie_element_87" spreadMethod="pad" gradientUnits="userSpaceOnUse" cx="73" cy="114" r="57.15002187226178" fx="73" fy="114"><stop offset="0%" stop-color="rgb(255,255,255)" stop-opacity="1"></stop><stop offset="52%" stop-color="rgb(255,255,255)" stop-opacity="0.5"></stop><stop offset="100%" stop-color="rgb(255,255,255)" stop-opacity="0"></stop></radialGradient><radialGradient id="__lottie_element_88" spreadMethod="pad" gradientUnits="userSpaceOnUse" cx="-71.5" cy="115.75" r="55.78586290450296" fx="-71.5" fy="115.75"><stop offset="0%" stop-color="rgb(255,255,255)" stop-opacity="1"></stop><stop offset="52%" stop-color="rgb(255,255,255)" stop-opacity="0.5"></stop><stop offset="100%" stop-color="rgb(255,255,255)" stop-opacity="0"></stop></radialGradient><radialGradient id="__lottie_element_89" spreadMethod="pad" gradientUnits="userSpaceOnUse" cx="0" cy="164.125" r="18.631710200623022" fx="-0.02475096228764652" fy="170.77572921751187"><stop offset="0%" stop-color="rgb(158,255,208)"></stop><stop offset="50%" stop-color="rgb(99,204,165)"></stop><stop offset="100%" stop-color="rgb(41,153,122)"></stop></radialGradient><linearGradient id="__lottie_element_90" spreadMethod="pad" gradientUnits="userSpaceOnUse" x1="0.5" y1="142.5" x2="-0.125" y2="165.5"><stop offset="0%" stop-color="rgb(255,255,255)"></stop><stop offset="48%" stop-color="rgb(255,255,255)"></stop><stop offset="100%" stop-color="rgb(255,255,255)"></stop></linearGradient><mask id="__lottie_element_92"><path fill="url(#__lottie_element_91)" d=" M0,142.25 C-8.043999671936035,142.78599548339844 -3.5169999599456787,168.50100708007812 0.25,168.375 C4,168.25 7.5,141.75 0,142.25z"></path></mask><linearGradient id="__lottie_element_91" spreadMethod="pad" gradientUnits="userSpaceOnUse" x1="0.5" y1="142.5" x2="-0.125" y2="165.5"><stop stop-color="rgb(255,255,255)" offset="0%" stop-opacity="1"></stop><stop stop-color="rgb(255,255,255)" offset="53%" stop-opacity="0.5"></stop><stop stop-color="rgb(255,255,255)" offset="100%" stop-opacity="0"></stop></linearGradient><radialGradient id="__lottie_element_96" spreadMethod="pad" gradientUnits="userSpaceOnUse" cx="-1.0509999990463257" cy="128.35000610351562" r="39.968141779365034" fx="-1.0510042095740135" fy="122.95790409606313"><stop offset="20%" stop-color="rgb(255,168,0)" stop-opacity="1"></stop><stop offset="68%" stop-color="rgb(255,168,0)" stop-opacity="0.5"></stop><stop offset="100%" stop-color="rgb(255,168,0)" stop-opacity="0"></stop></radialGradient><radialGradient id="__lottie_element_100" spreadMethod="pad" gradientUnits="userSpaceOnUse" cx="-0.5609999895095825" cy="145.01699829101562" r="167.80686589999843" fx="-0.5609999895095825" fy="145.01699829101562"><stop offset="20%" stop-color="rgb(255,216,0)" stop-opacity="1"></stop><stop offset="68%" stop-color="rgb(255,192,0)" stop-opacity="0.5"></stop><stop offset="100%" stop-color="rgb(255,168,0)" stop-opacity="0"></stop></radialGradient><linearGradient id="__lottie_element_101" spreadMethod="pad" gradientUnits="userSpaceOnUse" x1="-105.39199829101562" y1="189.70599365234375" x2="-103.9219970703125" y2="103.43099975585938"><stop offset="0%" stop-color="rgb(219,110,0)" stop-opacity="1"></stop><stop offset="50%" stop-color="rgb(219,110,0)" stop-opacity="0.5"></stop><stop offset="100%" stop-color="rgb(219,110,0)" stop-opacity="0"></stop></linearGradient><linearGradient id="__lottie_element_105" spreadMethod="pad" gradientUnits="userSpaceOnUse" x1="100" y1="-98" x2="103" y2="-12"><stop offset="0%" stop-color="rgb(237,229,202)"></stop><stop offset="50%" stop-color="rgb(216,199,146)"></stop><stop offset="100%" stop-color="rgb(195,169,90)"></stop></linearGradient><radialGradient id="__lottie_element_106" spreadMethod="pad" gradientUnits="userSpaceOnUse" cx="-142" cy="133.5" r="131.25738074485565" fx="-142" fy="133.5"><stop offset="0%" stop-color="rgb(230,219,183)"></stop><stop offset="68%" stop-color="rgb(230,219,183)"></stop><stop offset="100%" stop-color="rgb(230,219,183)"></stop></radialGradient><mask id="__lottie_element_108"><path fill="url(#__lottie_element_107)" d=" M-147.5,11 C-149.75,41 -174.58099365234375,30.268999099731445 -171,128.75 C-170,156.25 -192.17999267578125,167.94200134277344 -194.75,188.5 C-195.75,196.5 -188.875,206.125 -173.9429931640625,207.0709991455078 C-145.375,207.125 -10.875,206.375 -10.875,206.875 C12,-58.5 -140.76499938964844,-78.7979965209961 -147.5,11z"></path></mask><radialGradient id="__lottie_element_107" spreadMethod="pad" gradientUnits="userSpaceOnUse" cx="-142" cy="133.5" r="131.25738074485565" fx="-142" fy="133.5"><stop stop-color="rgb(255,255,255)" offset="0%" stop-opacity="1"></stop><stop stop-color="rgb(255,255,255)" offset="63%" stop-opacity="0.5"></stop><stop stop-color="rgb(255,255,255)" offset="100%" stop-opacity="0"></stop></radialGradient><radialGradient id="__lottie_element_109" spreadMethod="pad" gradientUnits="userSpaceOnUse" cx="132" cy="131.5" r="122.5367291876195" fx="132" fy="131.5"><stop offset="0%" stop-color="rgb(230,219,183)"></stop><stop offset="68%" stop-color="rgb(230,219,183)"></stop><stop offset="100%" stop-color="rgb(230,219,183)"></stop></radialGradient><mask id="__lottie_element_111"><path fill="url(#__lottie_element_110)" d=" M146.25,14.25 C126,-105.5 1.75,-35 11.625,206.625 C12.125,206.125 132.625,207.125 169.218994140625,206.61099243164062 C192.375,203.875 191.21800231933594,191.63099670410156 190.875,189.625 C186.875,166.25 165.83700561523438,150.1510009765625 167.25,120.75 C171,42.75 148.4980010986328,27.545000076293945 146.25,14.25z"></path></mask><radialGradient id="__lottie_element_110" spreadMethod="pad" gradientUnits="userSpaceOnUse" cx="132" cy="131.5" r="122.5367291876195" fx="132" fy="131.5"><stop stop-color="rgb(255,255,255)" offset="0%" stop-opacity="1"></stop><stop stop-color="rgb(255,255,255)" offset="63%" stop-opacity="0.5"></stop><stop stop-color="rgb(255,255,255)" offset="100%" stop-opacity="0"></stop></radialGradient></defs><g clip-path="url(#__lottie_element_2)"><g style="display: block;" transform="matrix(1,0,0,1,256,256)" opacity="1"><g opacity="1" transform="matrix(1,0,0,1,0,0)"><path fill="url(#__lottie_element_105)" fill-opacity="1" d=" M124,-123.5 C109.49299621582031,-164.38400268554688 -92.16899871826172,-197.6999969482422 -122,-131.5 C-158.5,-50.5 -137,-12.5 -154,29.5 C-169.18699645996094,67.02100372314453 -173.41099548339844,108.43499755859375 -171.5,128.5 C-169.5,149.5 -193.9010009765625,176.51499938964844 -194.5,188.5 C-195,198.5 -187.75,206 -174.25,207 C-172.83999633789062,207.10400390625 168.5,206.75 169,206.75 C181.5,206 192.7949981689453,198.343994140625 190.75,190 C184.5,164.5 163,148 169,121 C171.96299743652344,107.66899871826172 165.4080047607422,44.06700134277344 147,18.5 C138,6 151.5,-46 124,-123.5z"></path></g><g opacity="0.6" transform="matrix(1,0,0,1,0,0)"><path fill="url(#__lottie_element_106)" mask="url(#__lottie_element_108)" fill-opacity="1" d="M0 0 M-147.5,11 C-149.75,41 -174.58099365234375,30.268999099731445 -171,128.75 C-170,156.25 -192.17999267578125,167.94200134277344 -194.75,188.5 C-195.75,196.5 -188.875,206.125 -173.9429931640625,207.0709991455078 C-145.375,207.125 -10.875,206.375 -10.875,206.875 C12,-58.5 -140.76499938964844,-78.7979965209961 -147.5,11z"></path></g><g opacity="0.6" transform="matrix(1,0,0,1,0,0)"><path fill="url(#__lottie_element_109)" mask="url(#__lottie_element_111)" fill-opacity="1" d="M0 0 M146.25,14.25 C126,-105.5 1.75,-35 11.625,206.625 C12.125,206.125 132.625,207.125 169.218994140625,206.61099243164062 C192.375,203.875 191.21800231933594,191.63099670410156 190.875,189.625 C186.875,166.25 165.83700561523438,150.1510009765625 167.25,120.75 C171,42.75 148.4980010986328,27.545000076293945 146.25,14.25z"></path></g><g opacity="1" transform="matrix(1,0,0,1,0,0)"><path stroke-linecap="round" stroke-linejoin="miter" fill-opacity="0" stroke-miterlimit="4" stroke="rgb(153,119,60)" stroke-opacity="1" stroke-width="8" d=" M189.5,189.75 C184,154.5 166.197998046875,156.97999572753906 167.5,121.5 C169.5,67 165.8350067138672,61.277000427246094 148,17.5 C137,-9.5 138.75,-101.25 118.81199645996094,-135 C113.16500091552734,-144.5590057373047 -119.62999725341797,-140.5019989013672 -121.125,-137.5 C-151.5,-76.5 -137.677001953125,-6.502999782562256 -153,26 C-169.5,61 -171.5,71.94499969482422 -171.5,128.5 C-171.5,160 -188,159 -194.25,192"></path></g><g opacity="1" transform="matrix(1,0,0,1,0,0)"><path stroke-linecap="round" stroke-linejoin="miter" fill-opacity="0" stroke-miterlimit="4" stroke="rgb(186,167,128)" stroke-opacity="1" stroke-width="8" d=" M-134.25,-101.81300354003906 C-138.375,-86.125 -139.375,-77.625 -141.125,-62.5"></path></g><g opacity="1" transform="matrix(1,0,0,1,0,0)"><path stroke-linecap="round" stroke-linejoin="miter" fill-opacity="0" stroke-miterlimit="4" stroke="rgb(186,167,128)" stroke-opacity="1" stroke-width="8" d=" M128.5,-108.875 C132.25,-93.625 134.875,-71.375 135.875,-63.875"></path></g></g><g style="display: block;" transform="matrix(1.0199999809265137,0,0,1.0199999809265137,256.2698059082031,270.24932861328125)" opacity="1"><g opacity="1" transform="matrix(1,0,0,1,0,0)"><path fill="rgb(255,168,0)" fill-opacity="1" d=" M-2.8399999141693115,84.16100311279297 C-99.28399658203125,121.81400299072266 -143.4010009765625,88.97000122070312 -156.27699279785156,188.40199279785156 C-156.39199829101562,187.80599975585938 153.16700744628906,189.15499877929688 153.05299377441406,188.27999877929688 C143.1179962158203,94.36299896240234 111.98999786376953,123.77400207519531 -2.8399999141693115,84.16100311279297z"></path></g><g opacity="1" transform="matrix(1,0,0,1,0,0)"><path fill="url(#__lottie_element_100)" fill-opacity="1" d=" M-3.065999984741211,83.97699737548828 C-88.25499725341797,119.85299682617188 -147.56900024414062,89.46099853515625 -156.25799560546875,188.34100341796875 C-156.63699340820312,188.47999572753906 152.9219970703125,188.7259979248047 153.072998046875,188.34100341796875 C144.34300231933594,94.11799621582031 112.23500061035156,125 -3.065999984741211,83.97699737548828z"></path></g><g opacity="0.7000000000000001" transform="matrix(1,0,0,1,0,0)"><path fill="url(#__lottie_element_101)" fill-opacity="1" d=" M-1.4900000095367432,90.93099975585938 C-161.78399658203125,111.51899719238281 -142.177001953125,135.29400634765625 -155.41200256347656,188.23500061035156 C-155.90199279785156,187.99000549316406 -87.27400207519531,187.7449951171875 -87.02899932861328,187.99000549316406 C-94.25900268554688,172.9429931640625 -90.70600128173828,133.33299255371094 -83.46299743652344,120.80000305175781 C-83.0510025024414,120.822998046875 -66.19599914550781,125.9800033569336 -51.744998931884766,122.75 C-51.077999114990234,122.60099792480469 -39.904998779296875,170.9340057373047 -34.08100128173828,169.2310028076172 C-28.711999893188477,167.66099548339844 -20.85300064086914,160.78399658203125 -15.38700008392334,155.0240020751953 C-15.63599967956543,154.97000122070312 13.951000213623047,155.14700317382812 13.312999725341797,154.7259979248047 C13.706000328063965,154.41200256347656 25.961000442504883,172.0590057373047 43.83300018310547,169.0959930419922 C45.525001525878906,168.81500244140625 56.35300064086914,122.05899810791016 56.42399978637695,121.79399871826172 C70.81300354003906,125.9800033569336 80.08699798583984,120.58799743652344 80.05799865722656,120.41100311279297 C90.91100311279297,145.09800720214844 93.36299896240234,174.0189971923828 84.91799926757812,188.343994140625 C85.2750015258789,188.72500610351562 152.8300018310547,188.093994140625 153.01600646972656,187.9219970703125 C147.52999877929688,96.322998046875 100.22599792480469,118.38200378417969 -1.4900000095367432,90.93099975585938z"></path></g><g opacity="1" transform="matrix(1,0,0,1,0,0)"><path stroke-linecap="round" stroke-linejoin="round" fill-opacity="0" stroke="rgb(219,110,0)" stroke-opacity="1" stroke-width="8" d=" M152.80799865722656,185.70899963378906 C144.58799743652344,95.22100067138672 102.18599700927734,120.83300018310547 -2.5950000286102295,83.97699737548828 C-100.75499725341797,121.81300354003906 -143.89199829101562,90.68599700927734 -155.54200744628906,185.83099365234375"></path></g></g><g style="display: block;" transform="matrix(1.0199999809265137,0,0,1.0199999809265137,256.2698059082031,254.7493133544922)" opacity="1"><g opacity="1" transform="matrix(1,0,0,1,0,0)"><path fill="rgb(181,102,6)" fill-opacity="1" d=" M24.125,44.762001037597656 C24.125,44.762001037597656 -28.575000762939453,44.762001037597656 -28.575000762939453,44.762001037597656 C-28.575000762939453,44.762001037597656 -29.562000274658203,124.86100006103516 -29.562000274658203,124.86100006103516 C-29.562000274658203,124.86100006103516 25.11199951171875,124.86100006103516 25.11199951171875,124.86100006103516 C25.11199951171875,124.86100006103516 24.125,44.762001037597656 24.125,44.762001037597656z"></path></g><g opacity="1" transform="matrix(1,0,0,1,0,0)"><path fill="url(#__lottie_element_96)" fill-opacity="1" d=" M25.125,44.762001037597656 C25.125,44.762001037597656 -27.575000762939453,44.762001037597656 -27.575000762939453,44.762001037597656 C-27.575000762939453,44.762001037597656 -28.562000274658203,122.9000015258789 -28.562000274658203,122.9000015258789 C-28.562000274658203,122.9000015258789 26.11199951171875,122.9000015258789 26.11199951171875,122.9000015258789 C26.11199951171875,122.9000015258789 25.125,44.762001037597656 25.125,44.762001037597656z"></path></g><g opacity="1" transform="matrix(1,0,0,1,0,0)"><path stroke-linecap="round" stroke-linejoin="round" fill-opacity="0" stroke="rgb(153,71,4)" stroke-opacity="1" stroke-width="8" d=" M25.11199951171875,119.41000366210938 C25.11199951171875,119.41000366210938 24.125,44.762001037597656 24.125,44.762001037597656 C24.125,44.762001037597656 -28.575000762939453,44.762001037597656 -28.575000762939453,44.762001037597656 C-28.575000762939453,44.762001037597656 -29.562000274658203,119.41000366210938 -29.562000274658203,119.41000366210938"></path></g></g><g style="display: block;" transform="matrix(1,0,0,1,256,241.5)" opacity="1"><g opacity="1" transform="matrix(1,0,0,1,0,0)"><g opacity="1" transform="matrix(1,0,0,1,0,0)"><g opacity="1" transform="matrix(1,0,0,1,0,0)"><path fill="url(#__lottie_element_69)" fill-opacity="1" d=" M-63,188 C-77.53399658203125,188 -98.5,200 -109.5,221.75 C-109.83799743652344,222.41900634765625 -12,221 -12.625,221.5 C-27,198 -45.5,188 -63,188z"></path></g><g opacity="1" transform="matrix(1,0,0,1,0,0)"><path fill="url(#__lottie_element_70)" fill-opacity="1" d=" M60.5,188.25 C43.24300003051758,187.6750030517578 17.000999450683594,204.75 11.562999725341797,221.625 C12.062999725341797,222.125 106.5,222 106.25,221.75 C103.5,208.5 83,189 60.5,188.25z"></path></g></g><g opacity="0.45" transform="matrix(1,0,0,1,0,0)"><path fill="url(#__lottie_element_71)" mask="url(#__lottie_element_73)" fill-opacity="1" d="M0 0 M60.5,188.1719970703125 C60.375,188.17999267578125 70.70700073242188,201.16400146484375 71.58200073242188,221.8520050048828 C71.70700073242188,221.9149932861328 106.31600189208984,221.9340057373047 106.06600189208984,221.6840057373047 C103.56199645996094,209.75 86.18800354003906,190 60.5,188.1719970703125z"></path></g><g opacity="0.45" transform="matrix(1,0,0,1,0,0)"><path fill="url(#__lottie_element_74)" mask="url(#__lottie_element_76)" fill-opacity="1" d="M0 0 M-62.9379997253418,188.06300354003906 C-82.3759994506836,187.93800354003906 -102.8280029296875,206.52000427246094 -109.625,221.81300354003906 C-109.68800354003906,221.93800354003906 -71.81300354003906,221.87600708007812 -71.81300354003906,221.81300354003906 C-71.25,204.375 -63.000999450683594,188.18800354003906 -62.9379997253418,188.06300354003906z"></path></g><g opacity="1" transform="matrix(1,0,0,1,0,0)"><path stroke-linecap="round" stroke-linejoin="miter" fill-opacity="0" stroke-miterlimit="4" stroke="rgb(45,97,59)" stroke-opacity="1" stroke-width="8" d=" M-108.75,219.25 C-99.5,203 -80.7490005493164,188.00799560546875 -62.875,187.75 C-36.875,187.375 -18.5,210.5 -13.75,219.125"></path></g><g opacity="1" transform="matrix(1,0,0,1,0,0)"><path stroke-linecap="round" stroke-linejoin="miter" fill-opacity="0" stroke-miterlimit="4" stroke="rgb(45,97,59)" stroke-opacity="1" stroke-width="8" d=" M12.312999725341797,218.875 C15.062999725341797,212.75 34,188.25 60.125,188.093994140625 C79.50299835205078,187.97799682617188 100,203.875 105.84400177001953,218.625"></path></g><g opacity="1" transform="matrix(1,0,0,1,0,-2.5)"><path fill="rgb(40,97,62)" fill-opacity="1" d=" M-0.5,152.5 C-44.75,152.25 -40.25,178.25 -40.25,178.25 C-40.25,178.25 39.75,178 39.75,178 C39.75,178 43.75,152.75 -0.5,152.5z"></path><path stroke-linecap="butt" stroke-linejoin="miter" fill-opacity="0" stroke-miterlimit="4" stroke="rgb(25,61,32)" stroke-opacity="1" stroke-width="8" d=" M-0.5,152.5 C-44.75,152.25 -40.25,178.25 -40.25,178.25 C-40.25,178.25 39.75,178 39.75,178 C39.75,178 43.75,152.75 -0.5,152.5z"></path></g></g><g opacity="1" transform="matrix(1,0,0,1,0,0)"><g opacity="1" transform="matrix(1,0,0,1,0,0)"><path fill="url(#__lottie_element_77)" fill-opacity="1" d=" M102.25,136 C62.25,119.25 30,132.25 30.506999969482422,94.82499694824219 C5.25,92.25 3,146.75 -0.2549999952316284,146.66799926757812 C-3.999000072479248,146.57400512695312 -5.25,93 -32.50199890136719,94.66000366210938 C-30.5,130.75 -68.4000015258789,120.3030014038086 -106.25,135.75 C-89,139 -76.25,146.25 -55.974998474121094,146.13400268554688 C-69.75,162.5 -81.25,186 -79.23500061035156,207.1510009765625 C-19.75,204.75 -14.5,153.25 -0.75,149 C15.125,154 17.5,204.5 78.2959976196289,207.21400451660156 C80,187.75 71.5,164.25 53.93299865722656,146.17300415039062 C83.5,146.25 84.5,137.75 102.25,136z"></path><path stroke-linecap="round" stroke-linejoin="round" fill-opacity="0" stroke="rgb(32,75,41)" stroke-opacity="1" stroke-width="8" d=" M102.25,136 C62.25,119.25 30,132.25 30.506999969482422,94.82499694824219 C5.25,92.25 3,146.75 -0.2549999952316284,146.66799926757812 C-3.999000072479248,146.57400512695312 -5.25,93 -32.50199890136719,94.66000366210938 C-30.5,130.75 -68.4000015258789,120.3030014038086 -106.25,135.75 C-89,139 -76.25,146.25 -55.974998474121094,146.13400268554688 C-69.75,162.5 -81.25,186 -79.23500061035156,207.1510009765625 C-19.75,204.75 -14.5,153.25 -0.75,149 C15.125,154 17.5,204.5 78.2959976196289,207.21400451660156 C80,187.75 71.5,164.25 53.93299865722656,146.17300415039062 C83.5,146.25 84.5,137.75 102.25,136z"></path></g><g opacity="1" transform="matrix(1,0,0,1,0,0)"><path fill="url(#__lottie_element_78)" fill-opacity="1" d=" M30.375,95 C17.75,94.125 3.0360000133514404,118.125 12.875,129.25 C32,150.875 78.625,139.875 101.875,136 C69.375,120.625 28.625,132.625 30.375,95z"></path></g><g opacity="1" transform="matrix(1,0,0,1,0,0)"><path fill="url(#__lottie_element_79)" fill-opacity="1" d=" M-32.4379997253418,94.875 C-31.5,131.81300354003906 -67.5,119.25 -106.25,135.81300354003906 C-56.25,146.00100708007812 -36.375999450683594,141.875 -18.187999725341797,126.375 C-9.375,118.75 -16.187999725341797,91.875 -32.4379997253418,94.875z"></path></g><g opacity="0.6" transform="matrix(1,0,0,1,0,0)"><path fill="url(#__lottie_element_80)" mask="url(#__lottie_element_82)" fill-opacity="1" d="M0 0 M29.5,103 C17.43600082397461,115.06400299072266 11.644000053405762,134.04800415039062 16.5,155.75 C24.5,191.5 55.125,202.5 74.5,202.6719970703125 C74.5,202.6719970703125 74.75,199.25 74.75,198.75 C63.875,199.375 56.375,195 56,195 C64.75,191.625 63.75,181.25 56.625,179 C57.625,185.5 57.952999114990234,191.14999389648438 50.07600021362305,190.2209930419922 C24.875,187.25 13.75,129 33.75,111.5 C33.75,111.5 30.25,102.5 29.5,103z"></path></g><g opacity="0.6" transform="matrix(1,0,0,1,0,0)"><path fill="url(#__lottie_element_83)" mask="url(#__lottie_element_85)" fill-opacity="1" d="M0 0 M-58.125,180.625 C-64.75,180.375 -63.375,194.375 -57.625,195.625 C-57.375,195.875 -69.375,199 -75.5,199 C-75.375,199.375 -75.875,203.25 -75.75,203.125 C-48.75,200.5 -20.75,187 -15.125,144.5 C-16.75,123.25 -30.75,91.75 -36.40399932861328,109.06099700927734 C-10.75,143 -26,177 -46.994998931884766,188.50999450683594 C-52.68899917602539,191.6320037841797 -58.70600128173828,184.15199279785156 -58.125,180.625z"></path></g><g opacity="1" transform="matrix(1,0,0,1,0,0)"><path fill="url(#__lottie_element_86)" fill-opacity="1" d=" M-5.5,147.625 C-5.436999797821045,148.11000061035156 4.375,148.125 4.826000213623047,147.61599731445312 C11.25,99 26.875,100.875 26.76099967956543,100.87999725341797 C12.875,114.875 10.197999954223633,141.8780059814453 13.847999572753906,155.5290069580078 C17.375,168.718994140625 31.62299919128418,192.48500061035156 47.61199951171875,192.62100219726562 C62.75,192.75 62,177 55.9900016784668,176.61000061035156 C51.30500030517578,176.30599975585938 58.75,188 48.59700012207031,188.47900390625 C33.88999938964844,189.1719970703125 20.437000274658203,164.625 18.093000411987305,154.6750030517578 C13.392999649047852,134.72900390625 19.75,110.75 30.72100067138672,103.43499755859375 C31.125,103.625 30.618000030517578,94.7490005493164 30.606000900268555,94.74299621582031 C5.5,95.625 3.5,133.5 2.009000062942505,144.64100646972656 C1.777999997138977,146.36500549316406 -2.444000005722046,145.61399841308594 -2.5,145.125 C-4.875,124.375 -14.5,94.125 -31.875,96.5 C-32.625,97 -33.42300033569336,103.95600128173828 -32.5629997253418,104.5 C-22.875,110.625 -14.690999984741211,136.63499450683594 -18.66200065612793,152.79400634765625 C-23.75,173.5 -42.763999938964844,188.88499450683594 -48.875,188.52200317382812 C-59.25,187.906005859375 -50.68600082397461,175.99400329589844 -56.5,176.5 C-62.25,177 -63.042999267578125,191.3560028076172 -50.053001403808594,192.7209930419922 C-35.5,194.25 -18.75,170.75 -14.465999603271484,154.58200073242188 C-11.369000434875488,142.89599609375 -14.5,115 -28.25,102 C-20.875,102 -9,120.75 -5.5,147.625z"></path></g><g opacity="0.25" transform="matrix(1,0,0,1,0,0)"><path stroke-linecap="round" stroke-linejoin="miter" fill-opacity="0" stroke-miterlimit="4" stroke="rgb(88,229,150)" stroke-opacity="1" stroke-width="8" d=" M-56,146.375 C-75.25,168.5 -80.375,192.625 -79.25,207"></path></g><g opacity="0.25" transform="matrix(1,0,0,1,0,0)"><path stroke-linecap="round" stroke-linejoin="miter" fill-opacity="0" stroke-miterlimit="4" stroke="rgb(88,229,150)" stroke-opacity="1" stroke-width="8" d=" M54,146.18800354003906 C73.125,166.50100708007812 79.7509994506836,189.25 78.31300354003906,207.18800354003906"></path></g></g><g opacity="0.25" transform="matrix(1,0,0,1,0,0)"><g opacity="1" transform="matrix(1,0,0,1,0,0)"><path fill="url(#__lottie_element_87)" fill-opacity="1" d=" M29.875,96.125 C29.875,96.375 21.875,96.625 22.25,96.75 C22.75,135.5 48.25,132.25 80.88500213623047,137.68600463867188 C81.9749984741211,137.8679962158203 95.5,132 95.375,132.25 C63,123 30.5,127.75 29.875,96.125z"></path></g><g opacity="1" transform="matrix(1,0,0,1,0,0)"><path fill="url(#__lottie_element_88)" fill-opacity="1" d=" M-30.875,97.25 C-32.5,130 -83.03900146484375,124.91100311279297 -99.625,134.125 C-100,134.25 -81,138.25 -81.38200378417969,137.99000549316406 C-67,132 -23,137.5 -23.75,99.375 C-23.78700065612793,97.5 -30.75,94.74099731445312 -30.875,97.25z"></path></g></g><g opacity="1" transform="matrix(1,0,0,1,0,0)"><g opacity="1" transform="matrix(1,0,0,1,0,0)"><path stroke-linecap="round" stroke-linejoin="miter" fill-opacity="0" stroke-miterlimit="4" stroke="rgb(22,58,29)" stroke-opacity="1" stroke-width="8" d=" M-106.125,135.625 C-68.125,120 -31.5,131.75 -32.125,94.625"></path></g><g opacity="1" transform="matrix(1,0,0,1,0,0)"><path stroke-linecap="round" stroke-linejoin="miter" fill-opacity="0" stroke-miterlimit="4" stroke="rgb(22,58,29)" stroke-opacity="1" stroke-width="8" d=" M30.9060001373291,95 C30.5,133.25 64.25,118.875 102.375,135.89100646972656"></path></g><g opacity="1" transform="matrix(1,0,0,1,0,0)"><path stroke-linecap="round" stroke-linejoin="round" fill-opacity="0" stroke="rgb(132,100,17)" stroke-opacity="1" stroke-width="8" d=" M-32.25,94.75 C-16,94.125 -1.875,114.5 0,142.75 C0,114.75 13,92.125 30.625,95"></path></g></g><g opacity="1" transform="matrix(1,0,0,1,-0.5,1.75)"><g opacity="1" transform="matrix(1,0,0,1,0,0)"><path stroke-linecap="butt" stroke-linejoin="miter" fill-opacity="0" stroke-miterlimit="4" stroke="rgb(203,203,95)" stroke-opacity="1" stroke-width="5" d=" M0.5,133 C-12.5,133.125 -16.531999588012695,171.40699768066406 1.375,171.25 C15.625,171.125 13.24899959564209,132.8769989013672 0.5,133z"></path></g><g opacity="0.7000000000000001" transform="matrix(1,0,0,1,0,0)"><path stroke-linecap="round" stroke-linejoin="miter" fill-opacity="0" stroke-miterlimit="4" stroke="rgb(132,100,18)" stroke-opacity="1" stroke-width="5.5" d=" M-10.25,146.625 C-14.125,181.5 17.375,177.75 10.25,146.375"></path></g><g opacity="1" transform="matrix(1,0,0,1,0,0)"><path fill="url(#__lottie_element_89)" fill-opacity="1" d=" M0.25,135.156005859375 C-3.625,134.906005859375 -9.062000274658203,143.25 -9.25,154.125 C-9.432999610900879,164.74899291992188 -3.88100004196167,180.56300354003906 0.25,180.68800354003906 C4.375,180.81300354003906 9.89900016784668,164.99899291992188 9.593999862670898,153.56300354003906 C9.312999725341797,143 4.125,135.406005859375 0.25,135.156005859375z"></path></g><g opacity="1" transform="matrix(1,0,0,1,0,0)"><path fill="url(#__lottie_element_90)" mask="url(#__lottie_element_92)" fill-opacity="1" d="M0 0 M0,142.25 C-8.043999671936035,142.78599548339844 -3.5169999599456787,168.50100708007812 0.25,168.375 C4,168.25 7.5,141.75 0,142.25z"></path></g></g></g><g style="display: block;" transform="matrix(0.9936000108718872,0,0,0.9936000108718872,258.8447265625,233.11512756347656)" opacity="1"><g opacity="1" transform="matrix(1,0,0,1,0,0)"><path fill="url(#__lottie_element_64)" fill-opacity="1" d=" M-149.7530059814453,-45.55500030517578 C-157.2949981689453,-46.172000885009766 -142.75799560546875,7.935999870300293 -102.61100006103516,22.40999984741211 C-92.53299713134766,26.042999267578125 -86.39800262451172,-40.37300109863281 -149.7530059814453,-45.55500030517578z"></path><path stroke-linecap="round" stroke-linejoin="round" fill-opacity="0" stroke="rgb(219,110,0)" stroke-opacity="1" stroke-width="7.5" d=" M-149.7530059814453,-45.55500030517578 C-157.2949981689453,-46.172000885009766 -142.75799560546875,7.935999870300293 -102.61100006103516,22.40999984741211 C-92.53299713134766,26.042999267578125 -86.39800262451172,-40.37300109863281 -149.7530059814453,-45.55500030517578z"></path></g><g opacity="1" transform="matrix(1,0,0,1,0,0)"><path fill="url(#__lottie_element_65)" fill-opacity="1" d=" M142.78700256347656,-45.55500030517578 C150.34100341796875,-46.00199890136719 133.0070037841797,12.968000411987305 95.6449966430664,22.40999984741211 C85.25900268554688,25.03499984741211 80.6719970703125,-41.882999420166016 142.78700256347656,-45.55500030517578z"></path><path stroke-linecap="round" stroke-linejoin="round" fill-opacity="0" stroke="rgb(219,110,0)" stroke-opacity="1" stroke-width="7.5" d=" M142.78700256347656,-45.55500030517578 C150.34100341796875,-46.00199890136719 133.0070037841797,12.968000411987305 95.6449966430664,22.40999984741211 C85.25900268554688,25.03499984741211 80.6719970703125,-41.882999420166016 142.78700256347656,-45.55500030517578z"></path></g></g><g style="display: block;" transform="matrix(0.9449999928474426,0,0,0.9449999928474426,231.41415405273438,201.2592010498047)" opacity="1"><g opacity="1" transform="matrix(1,0,0,1,0,0)"><path fill="rgb(255,168,0)" fill-opacity="1" d=" M113.18699645996094,-80.4020004272461 C92.43599700927734,-109.22200012207031 65.11299896240234,-126.16999816894531 24.035999298095703,-126.16999816894531 C-17.040000915527344,-126.16999816894531 -44.36399841308594,-109.22200012207031 -65.11399841308594,-80.4020004272461 C-85.86499786376953,-51.582000732421875 -103.15699768066406,15.625 -76.06600189208984,72.11299896240234 C-48.974998474121094,128.6009979248047 -3.2070000171661377,146.46800231933594 24.035999298095703,146.46800231933594 C51.27899932861328,146.46800231933594 97.0479965209961,128.6009979248047 124.13899993896484,72.11299896240234 C151.22999572753906,15.625 133.93699645996094,-51.582000732421875 113.18699645996094,-80.4020004272461z"></path></g><g opacity="1" transform="matrix(1,0,0,1,0,0)"><path fill="url(#__lottie_element_59)" fill-opacity="1" d=" M111.64299774169922,-39.52399826049805 C79.98500061035156,-141.01600646972656 -37.47600173950195,-129.9040069580078 -62.35599899291992,-36.229000091552734 C-71.37899780273438,-2.256999969482422 -78.52300262451172,43.02000045776367 -56.470001220703125,79.63200378417969 C-34.41699981689453,116.24400329589844 1.8589999675750732,128.80599975585938 24.035999298095703,128.80599975585938 C46.2130012512207,128.80599975585938 82.48899841308594,116.24400329589844 104.54199981689453,79.63200378417969 C126.59500122070312,43.02000045776367 116.49600219726562,-23.96500015258789 111.64299774169922,-39.52399826049805z"></path></g><g opacity="1" transform="matrix(1,0,0,1,0,0)"><path fill="url(#__lottie_element_60)" fill-opacity="1" d=" M113.33699798583984,-80.4020004272461 C92.58599853515625,-109.22200012207031 65.26399993896484,-126.16999816894531 24.187000274658203,-126.16999816894531 C-16.888999938964844,-126.16999816894531 -44.2130012512207,-109.22200012207031 -64.96299743652344,-80.4020004272461 C-85.71399688720703,-51.582000732421875 -103.00599670410156,15.625 -75.91500091552734,72.11299896240234 C-48.82400131225586,128.6009979248047 -3.055999994277954,146.46800231933594 24.187000274658203,146.46800231933594 C51.43000030517578,146.46800231933594 97.197998046875,128.6009979248047 124.28900146484375,72.11299896240234 C151.3800048828125,15.625 134.08700561523438,-51.582000732421875 113.33699798583984,-80.4020004272461z"></path></g><g opacity="1" transform="matrix(1,0,0,1,0,0)"><path stroke-linecap="round" stroke-linejoin="round" fill-opacity="0" stroke="rgb(219,110,0)" stroke-opacity="1" stroke-width="8" d=" M113.18699645996094,-80.4020004272461 C92.43599700927734,-109.22200012207031 65.11299896240234,-126.16999816894531 24.035999298095703,-126.16999816894531 C-17.040000915527344,-126.16999816894531 -44.36399841308594,-109.22200012207031 -65.11399841308594,-80.4020004272461 C-85.86499786376953,-51.582000732421875 -103.15699768066406,15.625 -76.06600189208984,72.11299896240234 C-48.974998474121094,128.6009979248047 -3.2070000171661377,146.46800231933594 24.035999298095703,146.46800231933594 C51.27899932861328,146.46800231933594 97.0479965209961,128.6009979248047 124.13899993896484,72.11299896240234 C151.22999572753906,15.625 133.93699645996094,-51.582000732421875 113.18699645996094,-80.4020004272461z"></path></g></g><g style="display: block;" transform="matrix(0.9449999928474426,0,0,0.9449999928474426,231.48397827148438,202.57833862304688)" opacity="1"><g opacity="1" transform="matrix(1,0,0,1,0,0)"><path fill="url(#__lottie_element_52)" fill-opacity="1" d=" M40.79399871826172,77.40399932861328 C40.79399871826172,84.79499816894531 32.770999908447266,91.36499786376953 24.035999298095703,91.36499786376953 C15.300999641418457,91.36499786376953 7.2779998779296875,84.79499816894531 7.2779998779296875,77.40399932861328 C7.2779998779296875,70.01300048828125 15.300999641418457,63.23699951171875 24.035999298095703,63.23699951171875 C32.770999908447266,63.23699951171875 40.79399871826172,70.01300048828125 40.79399871826172,77.40399932861328z"></path></g><g opacity="1" transform="matrix(1,0,0,1,0,0)"><path fill="rgb(255,168,0)" fill-opacity="0.8" d=" M40.79399871826172,72.33300018310547 C40.79399871826172,79.0780029296875 33.29100036621094,84.54499816894531 24.035999298095703,84.54499816894531 C14.781000137329102,84.54499816894531 7.2789998054504395,79.0780029296875 7.2789998054504395,72.33300018310547 C7.2789998054504395,65.58799743652344 14.781000137329102,60.40800094604492 24.035999298095703,60.40800094604492 C33.29100036621094,60.40800094604492 40.79399871826172,65.58799743652344 40.79399871826172,72.33300018310547z"></path></g><g opacity="1" transform="matrix(1,0,0,1,0,0)"><path fill="url(#__lottie_element_53)" fill-opacity="0.7000000000000001" d=" M40.79399871826172,72.33300018310547 C40.79399871826172,79.0780029296875 33.29100036621094,84.54499816894531 24.035999298095703,84.54499816894531 C14.781000137329102,84.54499816894531 7.2789998054504395,79.0780029296875 7.2789998054504395,72.33300018310547 C7.2789998054504395,65.58799743652344 14.781000137329102,60.40800094604492 24.035999298095703,60.40800094604492 C33.29100036621094,60.40800094604492 40.79399871826172,65.58799743652344 40.79399871826172,72.33300018310547z"></path></g><g opacity="1" transform="matrix(1,0,0,1,0,0)"><path fill="rgb(255,216,0)" fill-opacity="1" d=" M38.53300094604492,68.47799682617188 C38.53300094604492,73.4990005493164 32.04199981689453,77.56999969482422 24.035999298095703,77.56999969482422 C16.030000686645508,77.56999969482422 9.539999961853027,73.4990005493164 9.539999961853027,68.47799682617188 C9.539999961853027,63.457000732421875 16.030000686645508,60.21099853515625 24.035999298095703,60.21099853515625 C32.04199981689453,60.21099853515625 38.53300094604492,63.457000732421875 38.53300094604492,68.47799682617188z"></path></g><g opacity="1" transform="matrix(1,0,0,1,0,0)"><path fill="url(#__lottie_element_54)" fill-opacity="1" d=" M38.53300094604492,68.47799682617188 C38.53300094604492,73.4990005493164 32.04199981689453,77.56999969482422 24.035999298095703,77.56999969482422 C16.030000686645508,77.56999969482422 9.539999961853027,73.4990005493164 9.539999961853027,68.47799682617188 C9.539999961853027,63.457000732421875 16.030000686645508,60.21099853515625 24.035999298095703,60.21099853515625 C32.04199981689453,60.21099853515625 38.53300094604492,63.457000732421875 38.53300094604492,68.47799682617188z"></path></g><g opacity="1" transform="matrix(1,0,0,1,0,0)"><path fill="url(#__lottie_element_55)" fill-opacity="0.7000000000000001" d=" M31.5049991607666,64.83200073242188 C31.5049991607666,67.5199966430664 28.160999298095703,70.04900360107422 24.035999298095703,70.04900360107422 C19.910999298095703,70.04900360107422 16.566999435424805,67.5199966430664 16.566999435424805,64.83200073242188 C16.566999435424805,62.14400100708008 19.910999298095703,60.79499816894531 24.035999298095703,60.79499816894531 C28.160999298095703,60.79499816894531 31.5049991607666,62.14400100708008 31.5049991607666,64.83200073242188z"></path></g></g><g style="display: block;" transform="matrix(0.9264699816703796,0,0,0.9264699816703796,256.0536804199219,178.88677978515625)" opacity="1"><g opacity="1" transform="matrix(1,0,0,1,0,0)"><path fill="rgb(75,37,2)" fill-opacity="1" d=" M35.189998626708984,127.54000091552734 C32.573001861572266,126.06800079345703 20.798999786376953,128.35699462890625 12.130999565124512,125.25 C3.4630000591278076,122.14299774169922 1.5010000467300415,126.54100036621094 -1.6069999933242798,126.54100036621094 C-4.714000225067139,126.54100036621094 -6.677000045776367,122.14299774169922 -15.345000267028809,125.25 C-24.01300048828125,128.35699462890625 -35.7869987487793,126.06800079345703 -38.40399932861328,127.54000091552734 C-41.02000045776367,129.01199340820312 -23.167999267578125,146.0030059814453 -1.6069999933242798,146.0030059814453 C19.702999114990234,146.0030059814453 37.80699920654297,129.01199340820312 35.189998626708984,127.54000091552734z"></path></g><g opacity="1" transform="matrix(1,0,0,1,0,0)"><path fill="url(#__lottie_element_48)" fill-opacity="1" d=" M35.189998626708984,127.54000091552734 C32.573001861572266,126.06800079345703 20.798999786376953,128.35699462890625 12.130999565124512,125.25 C3.4630000591278076,122.14299774169922 1.5010000467300415,126.54100036621094 -1.6069999933242798,126.54100036621094 C-4.714000225067139,126.54100036621094 -6.677000045776367,122.14299774169922 -15.345000267028809,125.25 C-24.01300048828125,128.35699462890625 -35.7869987487793,126.06800079345703 -38.40399932861328,127.54000091552734 C-41.02000045776367,129.01199340820312 -23.167999267578125,146.0030059814453 -1.6069999933242798,146.0030059814453 C19.702999114990234,146.0030059814453 37.80699920654297,129.01199340820312 35.189998626708984,127.54000091552734z"></path></g><g opacity="1" transform="matrix(1,0,0,1,0,0)"><path fill="rgb(23,19,11)" fill-opacity="1" d=" M-32.380001068115234,130.6020050048828 C-32.380001068115234,130.6020050048828 -22.9950008392334,132.83200073242188 -16.5939998626709,132.83200073242188 C-12.248000144958496,132.83200073242188 -5.688000202178955,135.13499450683594 -1.6069999933242798,135.13499450683594 C2.315999984741211,135.13499450683594 7.624000072479248,132.88099670410156 11.73900032043457,132.88099670410156 C20.166000366210938,132.88099670410156 28.576000213623047,130.6020050048828 28.576000213623047,130.6020050048828 C28.576000213623047,130.6020050048828 21.56800079345703,132.70599365234375 11.336999893188477,134.85499572753906 C7.704999923706055,135.6179962158203 2.6679999828338623,137.55099487304688 -1.6069999933242798,137.55099487304688 C-6.686999797821045,137.55099487304688 -12.48799991607666,135.4040069580078 -16.694000244140625,134.3990020751953 C-25.996999740600586,132.1750030517578 -32.380001068115234,130.6020050048828 -32.380001068115234,130.6020050048828z"></path><path stroke-linecap="round" stroke-linejoin="round" fill-opacity="0" stroke="rgb(23,19,11)" stroke-opacity="1" stroke-width="1" d=" M-32.380001068115234,130.6020050048828 C-32.380001068115234,130.6020050048828 -22.9950008392334,132.83200073242188 -16.5939998626709,132.83200073242188 C-12.248000144958496,132.83200073242188 -5.688000202178955,135.13499450683594 -1.6069999933242798,135.13499450683594 C2.315999984741211,135.13499450683594 7.624000072479248,132.88099670410156 11.73900032043457,132.88099670410156 C20.166000366210938,132.88099670410156 28.576000213623047,130.6020050048828 28.576000213623047,130.6020050048828 C28.576000213623047,130.6020050048828 21.56800079345703,132.70599365234375 11.336999893188477,134.85499572753906 C7.704999923706055,135.6179962158203 2.6679999828338623,137.55099487304688 -1.6069999933242798,137.55099487304688 C-6.686999797821045,137.55099487304688 -12.48799991607666,135.4040069580078 -16.694000244140625,134.3990020751953 C-25.996999740600586,132.1750030517578 -32.380001068115234,130.6020050048828 -32.380001068115234,130.6020050048828z"></path></g></g><g style="display: block;" transform="matrix(0.9264699816703796,0,0,0.9264699816703796,256.0529479980469,178.8870849609375)" opacity="1"><g opacity="1" transform="matrix(1,0,0,1,0,0)"><path fill="rgb(255,255,255)" fill-opacity="1" d=" M24,59.96900177001953 C24,59.96900177001953 27.016000747680664,23.975000381469727 56.95500183105469,20.968000411987305 C84.45099639892578,18.20599937438965 93.47200012207031,50.09199905395508 93.47200012207031,50.09199905395508 C93.47200012207031,50.09199905395508 86.0719985961914,69.39299774169922 62.00199890136719,72.03299713134766 C35.167999267578125,74.97599792480469 24,59.96900177001953 24,59.96900177001953z"></path></g><g opacity="1" transform="matrix(1.0832799673080444,0,0,1.0832799673080444,172.715087890625,91.43930053710938)"><g opacity="1" transform="matrix(1.0299999713897705,0,0,1,3.139434814453125,0)"><g opacity="1" transform="matrix(1,0,0,1,0,0)"><path fill="url(#__lottie_element_39)" fill-opacity="1" d=" M-87.38899993896484,-42.51599884033203 C-87.38899993896484,-32.20100021362305 -95.27899932861328,-23.839000701904297 -105.01300048828125,-23.839000701904297 C-114.74700164794922,-23.839000701904297 -122.63800048828125,-32.20100021362305 -122.63800048828125,-42.51599884033203 C-122.63800048828125,-52.83100128173828 -114.74700164794922,-61.19300079345703 -105.01300048828125,-61.19300079345703 C-95.27899932861328,-61.19300079345703 -87.38899993896484,-52.83100128173828 -87.38899993896484,-42.51599884033203z"></path></g><g opacity="1" transform="matrix(1,0,0,1,0,0)"><g opacity="1" transform="matrix(1,0,0,1,0,0)"><path fill="url(#__lottie_element_40)" fill-opacity="1" d=" M-100.93099975585938,-24.642000198364258 C-102.322998046875,-24.642000198364258 -103.61100006103516,-25.540000915527344 -104.04299926757812,-26.940000534057617 C-104.572998046875,-28.659000396728516 -103.60900115966797,-30.48200035095215 -101.88999938964844,-31.011999130249023 C-98.60199737548828,-32.0260009765625 -95.98400115966797,-34.58100128173828 -94.88800048828125,-37.84600067138672 C-94.31500244140625,-39.551998138427734 -92.46700286865234,-40.46799850463867 -90.76499938964844,-39.89699935913086 C-89.05899810791016,-39.32500076293945 -88.13999938964844,-37.47800064086914 -88.71299743652344,-35.77299880981445 C-90.4739990234375,-30.524999618530273 -94.68299865722656,-26.417999267578125 -99.97100067138672,-24.78700065612793 C-100.29100036621094,-24.687999725341797 -100.61399841308594,-24.642000198364258 -100.93099975585938,-24.642000198364258z"></path></g></g><g opacity="1" transform="matrix(1,0,0,1,0.5,0)"><path fill="rgb(23,19,10)" fill-opacity="1" d=" M-93.8740005493164,-42.51599884033203 C-93.8740005493164,-35.99700164794922 -98.86100006103516,-30.711999893188477 -105.01300048828125,-30.711999893188477 C-111.16500091552734,-30.711999893188477 -116.1520004272461,-35.99700164794922 -116.1520004272461,-42.51599884033203 C-116.1520004272461,-49.03499984741211 -111.16500091552734,-54.31999969482422 -105.01300048828125,-54.31999969482422 C-98.86100006103516,-54.31999969482422 -93.8740005493164,-49.03499984741211 -93.8740005493164,-42.51599884033203z"></path></g><g opacity="1" transform="matrix(1,0,0,1,0,0)"><path fill="url(#__lottie_element_41)" fill-opacity="1" d=" M-106,-52.694000244140625 C-106,-50.21799850463867 -107.89399719238281,-48.21200180053711 -110.2300033569336,-48.21200180053711 C-112.56600189208984,-48.21200180053711 -114.45999908447266,-50.21799850463867 -114.45999908447266,-52.694000244140625 C-114.45999908447266,-55.16999816894531 -112.56600189208984,-57.176998138427734 -110.2300033569336,-57.176998138427734 C-107.89399719238281,-57.176998138427734 -106,-55.16999816894531 -106,-52.694000244140625z"></path></g></g></g><g opacity="1" transform="matrix(1,0,0,1,0,0)"><path fill="rgb(163,65,0)" fill-opacity="1" d=" M24,59.96900177001953 C24,59.96900177001953 25.43899917602539,23.038000106811523 58.736000061035156,19.860000610351562 C72.40699768066406,18.55500030517578 83.98600006103516,26.076000213623047 88.99199676513672,34.992000579833984 C93.20800018310547,42.5 93.47200012207031,50.09199905395508 93.47200012207031,50.09199905395508 C93.47200012207031,50.09199905395508 90.3290023803711,21.451000213623047 59.808998107910156,22.915000915527344 C27.148000717163086,24.48200035095215 24,59.96900177001953 24,59.96900177001953z"></path><path stroke-linecap="round" stroke-linejoin="round" fill-opacity="0" stroke="rgb(163,65,0)" stroke-opacity="1" stroke-width="2" d=" M24,59.96900177001953 C24,59.96900177001953 25.43899917602539,23.038000106811523 58.736000061035156,19.860000610351562 C72.40699768066406,18.55500030517578 83.98600006103516,26.076000213623047 88.99199676513672,34.992000579833984 C93.20800018310547,42.5 93.47200012207031,50.09199905395508 93.47200012207031,50.09199905395508 C93.47200012207031,50.09199905395508 90.3290023803711,21.451000213623047 59.808998107910156,22.915000915527344 C27.148000717163086,24.48200035095215 24,59.96900177001953 24,59.96900177001953z"></path></g><g opacity="1" transform="matrix(1,0,0,1,0,0)"><path fill="rgb(255,255,255)" fill-opacity="1" d=" M-27.375,59.96900177001953 C-27.375,59.96900177001953 -30.389999389648438,23.975000381469727 -60.33000183105469,20.968000411987305 C-87.82499694824219,18.20599937438965 -96.84700012207031,50.09199905395508 -96.84700012207031,50.09199905395508 C-96.84700012207031,50.09199905395508 -89.4469985961914,69.39299774169922 -65.37699890136719,72.03299713134766 C-38.542999267578125,74.97599792480469 -27.375,59.96900177001953 -27.375,59.96900177001953z"></path></g><g opacity="1" transform="matrix(1.0832799673080444,0,0,1.0832799673080444,53.215084075927734,91.43930053710938)"><g opacity="1" transform="matrix(1.0299999713897705,0,0,1,3.139434814453125,0)"><g opacity="1" transform="matrix(1,0,0,1,0,0)"><path fill="url(#__lottie_element_42)" fill-opacity="1" d=" M-87.38899993896484,-42.51599884033203 C-87.38899993896484,-32.20100021362305 -95.27899932861328,-23.839000701904297 -105.01300048828125,-23.839000701904297 C-114.74700164794922,-23.839000701904297 -122.63800048828125,-32.20100021362305 -122.63800048828125,-42.51599884033203 C-122.63800048828125,-52.83100128173828 -114.74700164794922,-61.19300079345703 -105.01300048828125,-61.19300079345703 C-95.27899932861328,-61.19300079345703 -87.38899993896484,-52.83100128173828 -87.38899993896484,-42.51599884033203z"></path></g><g opacity="1" transform="matrix(1,0,0,1,0,0)"><g opacity="1" transform="matrix(1,0,0,1,0,0)"><path fill="url(#__lottie_element_43)" fill-opacity="1" d=" M-100.93099975585938,-24.642000198364258 C-102.322998046875,-24.642000198364258 -103.61100006103516,-25.540000915527344 -104.04299926757812,-26.940000534057617 C-104.572998046875,-28.659000396728516 -103.60900115966797,-30.48200035095215 -101.88999938964844,-31.011999130249023 C-98.60199737548828,-32.0260009765625 -95.98400115966797,-34.58100128173828 -94.88800048828125,-37.84600067138672 C-94.31500244140625,-39.551998138427734 -92.46700286865234,-40.46799850463867 -90.76499938964844,-39.89699935913086 C-89.05899810791016,-39.32500076293945 -88.13999938964844,-37.47800064086914 -88.71299743652344,-35.77299880981445 C-90.4739990234375,-30.524999618530273 -94.68299865722656,-26.417999267578125 -99.97100067138672,-24.78700065612793 C-100.29100036621094,-24.687999725341797 -100.61399841308594,-24.642000198364258 -100.93099975585938,-24.642000198364258z"></path></g></g><g opacity="1" transform="matrix(1,0,0,1,0.5,0)"><path fill="rgb(23,19,10)" fill-opacity="1" d=" M-93.8740005493164,-42.51599884033203 C-93.8740005493164,-35.99700164794922 -98.86100006103516,-30.711999893188477 -105.01300048828125,-30.711999893188477 C-111.16500091552734,-30.711999893188477 -116.1520004272461,-35.99700164794922 -116.1520004272461,-42.51599884033203 C-116.1520004272461,-49.03499984741211 -111.16500091552734,-54.31999969482422 -105.01300048828125,-54.31999969482422 C-98.86100006103516,-54.31999969482422 -93.8740005493164,-49.03499984741211 -93.8740005493164,-42.51599884033203z"></path></g><g opacity="1" transform="matrix(1,0,0,1,0,0)"><path fill="url(#__lottie_element_44)" fill-opacity="1" d=" M-106,-52.694000244140625 C-106,-50.21799850463867 -107.89399719238281,-48.21200180053711 -110.2300033569336,-48.21200180053711 C-112.56600189208984,-48.21200180053711 -114.45999908447266,-50.21799850463867 -114.45999908447266,-52.694000244140625 C-114.45999908447266,-55.16999816894531 -112.56600189208984,-57.176998138427734 -110.2300033569336,-57.176998138427734 C-107.89399719238281,-57.176998138427734 -106,-55.16999816894531 -106,-52.694000244140625z"></path></g></g></g><g opacity="1" transform="matrix(1,0,0,1,0,0)"><path fill="rgb(163,65,0)" fill-opacity="1" d=" M-27.375,59.96900177001953 C-27.375,59.96900177001953 -28.81399917602539,23.038000106811523 -62.111000061035156,19.860000610351562 C-75.78199768066406,18.55500030517578 -87.36100006103516,26.076000213623047 -92.36699676513672,34.992000579833984 C-96.58300018310547,42.5 -96.84700012207031,50.09199905395508 -96.84700012207031,50.09199905395508 C-96.84700012207031,50.09199905395508 -93.70500183105469,21.451000213623047 -63.183998107910156,22.915000915527344 C-30.523000717163086,24.48200035095215 -27.375,59.96900177001953 -27.375,59.96900177001953z"></path><path stroke-linecap="round" stroke-linejoin="round" fill-opacity="0" stroke="rgb(163,65,0)" stroke-opacity="1" stroke-width="2" d=" M-27.375,59.96900177001953 C-27.375,59.96900177001953 -28.81399917602539,23.038000106811523 -62.111000061035156,19.860000610351562 C-75.78199768066406,18.55500030517578 -87.36100006103516,26.076000213623047 -92.36699676513672,34.992000579833984 C-96.58300018310547,42.5 -96.84700012207031,50.09199905395508 -96.84700012207031,50.09199905395508 C-96.84700012207031,50.09199905395508 -93.70500183105469,21.451000213623047 -63.183998107910156,22.915000915527344 C-30.523000717163086,24.48200035095215 -27.375,59.96900177001953 -27.375,59.96900177001953z"></path></g></g><g style="display: block;" transform="matrix(0.9947400093078613,0,0,0.9947400093078613,305.26702880859375,263.5731506347656)" opacity="1"><g opacity="1" transform="matrix(1,0,0,1,0,0)"><path fill="rgb(163,65,0)" fill-opacity="1" d=" M-131.68800354003906,-79.28099822998047 C-131.68800354003906,-79.28099822998047 -120.44000244140625,-86.99600219726562 -107.08999633789062,-86.5790023803711 C-94.2979965209961,-86.18000030517578 -89.01200103759766,-81.34300231933594 -89.01200103759766,-81.34300231933594 C-89.01200103759766,-81.34300231933594 -93.27200317382812,-90.63099670410156 -107.08999633789062,-90.22799682617188 C-122.31199645996094,-89.78399658203125 -131.68800354003906,-79.28099822998047 -131.68800354003906,-79.28099822998047z"></path><path stroke-linecap="round" stroke-linejoin="round" fill-opacity="0" stroke="rgb(163,65,0)" stroke-opacity="1" stroke-width="2" d=" M-131.68800354003906,-79.28099822998047 C-131.68800354003906,-79.28099822998047 -120.44000244140625,-86.99600219726562 -107.08999633789062,-86.5790023803711 C-94.2979965209961,-86.18000030517578 -89.01200103759766,-81.34300231933594 -89.01200103759766,-81.34300231933594 C-89.01200103759766,-81.34300231933594 -93.27200317382812,-90.63099670410156 -107.08999633789062,-90.22799682617188 C-122.31199645996094,-89.78399658203125 -131.68800354003906,-79.28099822998047 -131.68800354003906,-79.28099822998047z"></path></g><g opacity="1" transform="matrix(1,0,0,1,0,0)"><path fill="rgb(163,65,0)" fill-opacity="1" d=" M29.038000106811523,-79.28099822998047 C29.038000106811523,-79.28099822998047 17.790000915527344,-86.99600219726562 4.440000057220459,-86.5790023803711 C-8.35200023651123,-86.18000030517578 -13.637999534606934,-81.34300231933594 -13.637999534606934,-81.34300231933594 C-13.637999534606934,-81.34300231933594 -9.378000259399414,-90.63099670410156 4.440000057220459,-90.22799682617188 C19.66200065612793,-89.78399658203125 29.038000106811523,-79.28099822998047 29.038000106811523,-79.28099822998047z"></path><path stroke-linecap="round" stroke-linejoin="round" fill-opacity="0" stroke="rgb(163,65,0)" stroke-opacity="1" stroke-width="2" d=" M29.038000106811523,-79.28099822998047 C29.038000106811523,-79.28099822998047 17.790000915527344,-86.99600219726562 4.440000057220459,-86.5790023803711 C-8.35200023651123,-86.18000030517578 -13.637999534606934,-81.34300231933594 -13.637999534606934,-81.34300231933594 C-13.637999534606934,-81.34300231933594 -9.378000259399414,-90.63099670410156 4.440000057220459,-90.22799682617188 C19.66200065612793,-89.78399658203125 29.038000106811523,-79.28099822998047 29.038000106811523,-79.28099822998047z"></path></g></g><g style="display: block;" transform="matrix(0.9449999928474426,0,0,0.9449999928474426,229.9227752685547,200.7616424560547)" opacity="1"><g opacity="1" transform="matrix(1,0,0,1,0,0)"><path fill="rgb(230,219,183)" fill-opacity="1" d=" M146.11399841308594,277.7650146484375 C146.37899780273438,277.7650146484375 184.20899963378906,277.2359924316406 184.20899963378906,277.5010070800781 C184.73800659179688,262.4219970703125 146.11399841308594,258.7170104980469 146.11399841308594,277.7650146484375z"></path></g><g opacity="1" transform="matrix(1,0,0,1,0,0)"><path fill="rgb(230,219,183)" fill-opacity="1" d=" M-129.81199645996094,279.61700439453125 C-129.81199645996094,278.822998046875 -94.36299896240234,280.4110107421875 -94.0979995727539,280.14599609375 C-94.89199829101562,265.33099365234375 -128.48899841308594,262.4209899902344 -129.81199645996094,279.61700439453125z"></path></g><g opacity="1" transform="matrix(1,0,0,1,0,0)"><path fill="url(#__lottie_element_25)" fill-opacity="1" d=" M-38.54199981689453,-38.37200164794922 C-32.61199951171875,-53.35900115966797 -76.16999816894531,-68.38999938964844 -82.98699951171875,-35.72700119018555 C-95.68499755859375,25.1200008392334 -93.04000091552734,169.03500366210938 -130.6060028076172,276.4429931640625 C-131.13499450683594,275.91400146484375 -93.04000091552734,275.91400146484375 -93.56900024414062,276.4429931640625 C-48.066001892089844,144.69700622558594 -67.64299774169922,35.17300033569336 -38.54199981689453,-38.37200164794922z"></path></g><g opacity="1" transform="matrix(1,0,0,1,0,0)"><path fill="url(#__lottie_element_26)" fill-opacity="1" d=" M129.71200561523438,-46.308998107910156 C114.2020034790039,-64.33499908447266 86.32499694824219,-50.012001037597656 91.08699798583984,-37.84299850463867 C119.3239974975586,34.31800079345703 95.8489990234375,109.7760009765625 146.64300537109375,275.3840026855469 C146.9530029296875,276.3949890136719 184.20899963378906,274.32598876953125 184.73800659179688,274.8550109863281 C142.93899536132812,148.39999389648438 149.28900146484375,-23.558000564575195 129.71200561523438,-46.308998107910156z"></path></g><g opacity="1" transform="matrix(1,0,0,1,0,0)"><path fill="rgb(237,229,202)" fill-opacity="1" d=" M26.007999420166016,-84.40399932861328 C63.04499816894531,-108.21399688720703 91.08799743652344,-45.250999450683594 96.37899780273438,-28.31999969482422 C98.33100128173828,-22.072999954223633 162.16200256347656,-59.834999084472656 161.7220001220703,-61.65299987792969 C128.6540069580078,-198.16099548339844 -85.10299682617188,-191.28199768066406 -109.70600128173828,-59.80099868774414 C-110.10700225830078,-57.65700149536133 -43.10300064086914,-27.572999954223633 -41.1879997253418,-31.493999481201172 C-30.07699966430664,-54.244998931884766 -11.029000282287598,-105.56800079345703 26.007999420166016,-84.40399932861328z"></path></g><g opacity="1" transform="matrix(1,0,0,1,0,0)"><path fill="url(#__lottie_element_27)" fill-opacity="0.9" d=" M24.908000946044922,-84.46299743652344 C3.7860000133514404,-101.33499908447266 -27.961000442504883,-72.23500061035156 -40.58100128173828,-30.770000457763672 C-64.46900177001953,-41.018001556396484 -101.03299713134766,-60.49800109863281 -100.65799713134766,-61.62200164794922 C-87.74800109863281,-100.27799987792969 -52.5880012512207,-150.38299560546875 25.062000274658203,-150.19400024414062 C99.5530014038086,-150.01300048828125 142.41000366210938,-98.69000244140625 153.9600067138672,-59.4119987487793 C154.36399841308594,-58.0369987487793 99.02400207519531,-25.673999786376953 97.61900329589844,-25.569000244140625 C72.04000091552734,-93.9280014038086 40.29399871826172,-96.04399871826172 24.908000946044922,-84.46299743652344z"></path></g><g opacity="1" transform="matrix(1,0,0,1,0,0)"><path fill="url(#__lottie_element_28)" mask="url(#__lottie_element_30)" fill-opacity="0.9" d="M0 0 M25.743000030517578,-93.39900207519531 C-8.913000106811523,-124.61599731445312 -47.801998138427734,-58.47800064086914 -59.347999572753906,4.776000022888184 C-71.50499725341797,71.375 -65.5260009765625,156.33599853515625 -104.41500091552734,275.1199951171875 C-104.1500015258789,275.3840026855469 -93.76599884033203,277.78900146484375 -93.04000091552734,275.64898681640625 C-58.11899948120117,172.73899841308594 -59.178001403808594,38.875999450683594 -50.71200180053711,7.130000114440918 C-42.24599838256836,-24.615999221801758 -17.378000259399414,-109.27200317382812 24.950000762939453,-84.93299865722656 C41.88100051879883,-101.33499908447266 92.14600372314453,-80.70099639892578 103.25700378417969,3.4260001182556152 C111.44999694824219,65.45800018310547 101.13999938964844,134.11399841308594 146.11399841308594,274.8550109863281 C146.11399841308594,275.1199951171875 157.08299255371094,276.81500244140625 156.43099975585938,274.8550109863281 C115.95500183105469,153.16099548339844 127.23100280761719,73.01399993896484 112.06300354003906,0.5220000147819519 C97.1719970703125,-70.64700317382812 60.39899826049805,-123.55799865722656 25.743000030517578,-93.39900207519531z"></path></g><g opacity="1" transform="matrix(1,0,0,1,0,0)"><g opacity="1" transform="matrix(1,0,0,1,0,0)"><path stroke-linecap="round" stroke-linejoin="round" fill-opacity="0" stroke="rgb(153,119,60)" stroke-opacity="1" stroke-width="8" d=" M145.5850067138672,274.8550109863281 C101.66999816894531,119.8280029296875 117.4800033569336,92.86799621582031 102.46299743652344,4.749000072479248 C88.44200134277344,-77.5260009765625 49.28799819946289,-101.86499786376953 25.743000030517578,-84.66899871826172 C1.6690000295639038,-103.4520034790039 -36.65999984741211,-67.41000366210938 -50.474998474121094,8.119000434875488 C-63.93899917602539,81.73300170898438 -49.65399932861328,131.468994140625 -94.0979995727539,277.5010070800781"></path></g><g opacity="1" transform="matrix(1,0,0,1,0,0)"><path stroke-linecap="round" stroke-linejoin="round" fill-opacity="0" stroke="rgb(186,167,128)" stroke-opacity="1" stroke-width="8" d=" M-115.79100036621094,-41.547000885009766 C-88.80699920654297,-202.92300415039062 142.41000366210938,-201.86399841308594 166.1529998779297,-42.60499954223633"></path></g><g opacity="1" transform="matrix(1,0,0,1,0,0)"><path stroke-linecap="round" stroke-linejoin="round" fill-opacity="0" stroke="rgb(186,167,128)" stroke-opacity="1" stroke-width="8" d=" M-84.83899688720703,-26.73200035095215 C-97.53700256347656,45.755001068115234 -89.86499786376953,146.81199645996094 -130.07699584960938,276.4419860839844"></path></g><g opacity="1" transform="matrix(1,0,0,1,0,0)"><path stroke-linecap="round" stroke-linejoin="round" fill-opacity="0" stroke="rgb(186,167,128)" stroke-opacity="1" stroke-width="8" d=" M137.11900329589844,-28.31999969482422 C153.52099609375,64.802001953125 143.46800231933594,124.06099700927734 183.67999267578125,274.8550109863281"></path></g><g opacity="1" transform="matrix(1,0,0,1,0,0)"><path fill="url(#__lottie_element_31)" fill-opacity="1" d=" M107.75399780273438,-98.9540023803711 C104.98200225830078,-99.87799835205078 124.02400207519531,-85.72699737548828 133.61399841308594,-24.8799991607666 C134.0050048828125,-22.400999069213867 141.1230010986328,-24.101999282836914 140.822998046875,-26.996999740600586 C136.3260040283203,-70.38300323486328 117.27799987792969,-95.77899932861328 107.75399780273438,-98.9540023803711z"></path></g><g opacity="1" transform="matrix(1,0,0,1,0,0)"><path fill="url(#__lottie_element_32)" fill-opacity="1" d=" M-56.79600143432617,-97.10299682617188 C-64.31199645996094,-94.37000274658203 -80.87000274658203,-75.40899658203125 -88.80699920654297,-27.26099967956543 C-89.11100006103516,-25.415000915527344 -81.40799713134766,-24.0049991607666 -81.00299835205078,-26.468000411987305 C-70.94999694824219,-87.5790023803711 -53.88600158691406,-98.16100311279297 -56.79600143432617,-97.10299682617188z"></path></g></g></g><g style="display: block;" transform="matrix(1,0,0,1,255.5,256)" opacity="0.1"><g opacity="1" transform="matrix(1,0,0,1,0,0)"><path fill="rgb(219,110,0)" fill-opacity="1" d=" M-1.5,-66 C-40.5,-108 -93,-110.75 -124.75,-129.25 C-123.5,-103 -106.25,-100 -88.19100189208984,-105.1719970703125 C-78,-92.5 -63,-85.75 -51.03099822998047,-84.43099975585938 C-37,-43.25 -16.25,-55.89500045776367 -16.25,-56 C-24.5,-22 25.5,-20.75 16.04800033569336,-55.09000015258789 C15.812000274658203,-54.94300079345703 36.5,-48 50.96099853515625,-84.14099884033203 C62.25,-83.5 81.25,-91 90.94200134277344,-103.16899871826172 C121,-98.25 123.62200164794922,-121.41300201416016 122,-128 C82,-105.5 33.5,-102.5 -1.5,-66z"></path></g></g><g style="display: block;" transform="matrix(1,0,0,1,255.25,256)" opacity="1"><g opacity="1" transform="matrix(1,0,0,1,0,0)"><g opacity="1" transform="matrix(1,0,0,1,0,0)"><path stroke-linecap="round" stroke-linejoin="miter" fill-opacity="0" stroke-miterlimit="4" stroke="rgb(179,170,144)" stroke-opacity="1" stroke-width="6" d=" M-113,-142.75 C-84.5,-141.75 -83,-116.75 -75,-106.75"></path></g><g opacity="1" transform="matrix(1,0,0,1,0,0)"><path stroke-linecap="round" stroke-linejoin="miter" fill-opacity="0" stroke-miterlimit="4" stroke="rgb(179,170,144)" stroke-opacity="1" stroke-width="6" d=" M115.25,-142.25 C89,-145.25 86.5,-117.5 80.25,-107"></path></g><g opacity="1" transform="matrix(1,0,0,1,0,0)"><path stroke-linecap="round" stroke-linejoin="round" fill-opacity="0" stroke="rgb(137,131,112)" stroke-opacity="1" stroke-width="8" d=" M-117.25,-122 C-109.25,-102 -77.90699768066406,-121.58799743652344 -51.5,-111.75 C-38.75,-107 -15,-83.61299896240234 -0.5,-83.43800354003906 C15,-83.25 36.867000579833984,-110.01000213623047 53.5,-114.25 C79,-120.75 104,-100.75 113.75,-121.5"></path></g><g opacity="1" transform="matrix(1,0,0,1,0,0)"><path stroke-linecap="round" stroke-linejoin="miter" fill-opacity="0" stroke-miterlimit="4" stroke="rgb(193,184,163)" stroke-opacity="1" stroke-width="3.5" d=" M-116.25,-119.75 C-107,-105.5 -72.5,-121 -52.75,-113.75 C-29.51099967956543,-105.21900177001953 -16.5,-85.25 0,-85.5 C17,-85.75800323486328 39.75,-116.75 59,-116.625 C80.51699829101562,-116.48500061035156 104.25,-106.25 114,-121.5"></path></g></g><g opacity="1" transform="matrix(1,0,0,1,0,0)"><g opacity="1" transform="matrix(1,0,0,1,0,0)"><path stroke-linecap="round" stroke-linejoin="miter" fill-opacity="0" stroke-miterlimit="4" stroke="rgb(159,155,143)" stroke-opacity="1" stroke-width="8" d=" M-35.5,-92.75 C-16.5,-97.125 -20.25,-110.25 -26.75,-109.875"></path></g><g opacity="1" transform="matrix(1,0,0,1,0,0)"><path stroke-linecap="round" stroke-linejoin="miter" fill-opacity="0" stroke-miterlimit="4" stroke="rgb(159,155,143)" stroke-opacity="1" stroke-width="8" d=" M35.5,-92.875 C15.25,-97.375 20.25,-111.5 26.5,-109.75"></path></g><g opacity="1" transform="matrix(1,0,0,1,0,0)"><path stroke-linecap="round" stroke-linejoin="miter" fill-opacity="0" stroke-miterlimit="4" stroke="rgb(154,145,121)" stroke-opacity="1" stroke-width="8" d=" M119,-143.5 C94.25,-136.75 94.5,-105.25 57.25,-94.75 C23.3700008392334,-85.19999694824219 18.749000549316406,-108.50700378417969 0,-108.75 C-19.25,-109 -25.11199951171875,-84.11599731445312 -54.5,-95 C-95,-110 -92,-136.25 -118.75,-144.25"></path></g><g opacity="1" transform="matrix(1,0,0,1,0,0)"><path fill="url(#__lottie_element_6)" fill-opacity="1" d=" M-83.75,-114.75 C-78.625,-102.5 -49.46200180053711,-92.27400207519531 -52.5,-97 C-54.75,-100.5 -67.75,-101 -83.75,-114.75z"></path></g><g opacity="1" transform="matrix(1,0,0,1,0,0)"><path fill="url(#__lottie_element_7)" fill-opacity="1" d=" M85.75,-115 C71.5,-98.375 57.5260009765625,-100.5530014038086 55.375,-96.25 C54.125,-93.75 81.25,-100.75 85.75,-115z"></path></g><g opacity="1" transform="matrix(1,0,0,1,0,0)"><path fill="rgb(179,172,154)" fill-opacity="1" d=" M-95.25,-128.5 C-96.75,-124.25 -108,-141.25 -118.75,-145.5 C-108.5,-143.75 -93.76899719238281,-132.69700622558594 -95.25,-128.5z"></path></g><g opacity="1" transform="matrix(1,0,0,1,0,0)"><path fill="rgb(179,172,154)" fill-opacity="1" d=" M97.75,-128.25 C101.73999786376953,-124.65899658203125 107.75,-141.25 119.75,-145 C108,-145 95.25,-130.5 97.75,-128.25z"></path></g><g opacity="0.75" transform="matrix(1,0,0,1,0,0)"><path fill="rgb(255,255,255)" fill-opacity="1" d=" M-27.875,-112.125 C-33.125,-108.375 -22.125,-111.625 -20.125,-104.5 C-18.75,-110.125 -24.71500015258789,-114.38200378417969 -27.875,-112.125z"></path></g><g opacity="0.75" transform="matrix(1,0,0,1,0,0)"><path fill="rgb(255,255,255)" fill-opacity="1" d=" M28,-111.875 C24.5,-115.125 18.125,-110.375 20.75,-104.25 C19.875,-110.5 31.18000030517578,-108.9219970703125 28,-111.875z"></path></g><g opacity="1" transform="matrix(1,0,0,1,0,0)"><path fill="rgb(193,184,164)" fill-opacity="1" d=" M24.375,-102 C26.25,-93.625 36.875,-91.625 39.75,-93.875 C42.52899932861328,-96.05000305175781 29.25,-94.875 24.375,-102z"></path></g><g opacity="1" transform="matrix(1,0,0,1,0,0)"><path fill="rgb(193,184,164)" fill-opacity="1" d=" M-25,-102 C-31.875,-94.5 -41.55699920654297,-96.97000122070312 -38.875,-94 C-35.375,-90.125 -25.25,-97 -25,-102z"></path></g><g opacity="1" transform="matrix(1,0,0,1,0,0)"><path fill="rgb(125,119,104)" fill-opacity="1" d=" M-86.875,-114.375 C-82.75,-101.75 -46.75,-80.375 -27.625,-92.625 C-53.375,-91.125 -76.875,-103.875 -86.875,-114.375z"></path></g><g opacity="1" transform="matrix(1,0,0,1,0,0)"><path fill="rgb(125,119,104)" fill-opacity="1" d=" M91,-114.75 C81.625,-104.625 65.625,-91.875 25.75,-93.5 C40.125,-82.375 84.75,-94.25 91,-114.75z"></path></g></g><g opacity="1" transform="matrix(1,0,0,1,0,0)"><g opacity="1" transform="matrix(1,0,0,1,0,0)"><path stroke-linecap="round" stroke-linejoin="round" fill-opacity="0" stroke="rgb(148,139,119)" stroke-opacity="1" stroke-width="8" d=" M-125,-133.56300354003906 C-124.25,-127.56300354003906 -125.5,-117.25 -90.5,-121.5 C-55.5,-125.75 -43.77399826049805,-91.552001953125 -37.935001373291016,-79.77100372314453 C-25.75,-55.1870002746582 -5.313000202178955,-66.625 -11.468999862670898,-80.375"></path></g><g opacity="1" transform="matrix(1,0,0,1,0,0)"><path stroke-linecap="round" stroke-linejoin="miter" fill-opacity="0" stroke-miterlimit="4" stroke="rgb(148,139,119)" stroke-opacity="1" stroke-width="8" d=" M11,-80 C4.25,-67.75 20.336000442504883,-54.3129997253418 37.0629997253418,-79 C48.750999450683594,-96.25 58.9739990234375,-126.052001953125 93,-121.75 C114.75,-119 124.5,-122.25 125.5,-133.5"></path></g><g opacity="1" transform="matrix(1,0,0,1,0,0)"><path fill="url(#__lottie_element_8)" mask="url(#__lottie_element_10)" fill-opacity="1" d="M0 0 M103,-123.25 C59.5,-134.25 42.875,-98.25 34,-81.75 C22.798999786376953,-60.92499923706055 6.5,-61.375 12.625,-82.875 C-4.625,-78.875 17.496000289916992,-46.58100128173828 37.375,-78 C63,-118.5 84,-124.25 103,-123.25z"></path></g><g opacity="1" transform="matrix(1,0,0,1,0,0)"><path fill="url(#__lottie_element_11)" mask="url(#__lottie_element_13)" fill-opacity="1" d="M0 0 M-100.75,-123.5 C-60.25,-123.5 -47.53499984741211,-94.41999816894531 -38.875,-78.875 C-23.625,-51.5 2.5,-73.375 -12,-83.375 C-12.125,-61.75 -27.875,-62.625 -34.125,-80.75 C-38.053001403808594,-92.13999938964844 -53.75,-133.25 -100.75,-123.5z"></path></g><g opacity="0.2" transform="matrix(1,0,0,1,0,0)"><path fill="rgb(255,255,255)" fill-opacity="1" d=" M123.375,-134 C123,-123 106.125,-123.125 106.5,-123 C108.125,-121.375 125.75,-119.875 127.75,-133 C128.24000549316406,-136.21299743652344 123.45600128173828,-136.38699340820312 123.375,-134z"></path></g><g opacity="0.2" transform="matrix(1,0,0,1,0,0)"><path fill="rgb(255,255,255)" fill-opacity="1" d=" M-126.875,-133.875 C-127.125,-125.5 -122,-119.75 -111.25,-123 C-111.125,-123 -122.375,-122.5 -122.75,-133.875 C-122.83699798583984,-136.49899291992188 -126.7959976196289,-136.52499389648438 -126.875,-133.875z"></path></g><g opacity="1" transform="matrix(1,0,0,1,0,0)"><path fill="rgb(125,119,103)" fill-opacity="1" d=" M-122.125,-122.125 C-108.75,-114 -88.18800354003906,-120.125 -77.81300354003906,-118.75 C-91.5009994506836,-126.75 -110.25,-118.25 -122.125,-122.125z"></path></g><g opacity="1" transform="matrix(1,0,0,1,0,0)"><path fill="rgb(125,119,103)" fill-opacity="1" d=" M122.625,-123.75 C111.75,-117.25 95.125,-128 77.5,-117.25 C96.5,-121.25 111.75,-112.5 122.625,-123.75z"></path></g></g><g opacity="1" transform="matrix(1.100000023841858,0,0,1.100000023841858,-2.1500000953674316,4.900001525878906)"><g opacity="1" transform="matrix(1,0,0,1,1.375,-94.375)"><path fill="url(#__lottie_element_14)" fill-opacity="1" d=" M0,-10.875 C6.001912593841553,-10.875 10.875,-6.001912593841553 10.875,0 C10.875,6.001912593841553 6.001912593841553,10.875 0,10.875 C-6.001912593841553,10.875 -10.875,6.001912593841553 -10.875,0 C-10.875,-6.001912593841553 -6.001912593841553,-10.875 0,-10.875z"></path><path stroke-linecap="butt" stroke-linejoin="miter" fill-opacity="0" stroke-miterlimit="4" stroke="rgb(175,174,153)" stroke-opacity="1" stroke-width="4" d=" M0,-10.875 C6.001912593841553,-10.875 10.875,-6.001912593841553 10.875,0 C10.875,6.001912593841553 6.001912593841553,10.875 0,10.875 C-6.001912593841553,10.875 -10.875,6.001912593841553 -10.875,0 C-10.875,-6.001912593841553 -6.001912593841553,-10.875 0,-10.875z"></path></g><g opacity="1" transform="matrix(1,0,0,1,0,0)"><path fill="rgb(255,255,255)" fill-opacity="1" d=" M1.531000018119812,-101 C-2.7219998836517334,-101.30400085449219 -3.684000015258789,-96.375 1.125,-96.06300354003906 C5.938000202178955,-95.75 5.906000137329102,-100.68699645996094 1.531000018119812,-101z"></path></g><g opacity="1" transform="matrix(1,0,0,1,0,0)"><path fill="url(#__lottie_element_15)" fill-opacity="1" d=" M1.7269999980926514,-79.45500183105469 C-5.7729997634887695,-79.45500183105469 -7.817999839782715,-55.36399841308594 -7.136000156402588,-44.909000396728516 C-6.453999996185303,-34.45399856567383 10.36299991607666,-35.362998962402344 10.817999839782715,-45.13600158691406 C11.27299976348877,-54.909000396728516 9.22700023651123,-79.45500183105469 1.7269999980926514,-79.45500183105469z"></path><path stroke-linecap="butt" stroke-linejoin="miter" fill-opacity="0" stroke-miterlimit="4" stroke="rgb(25,121,93)" stroke-opacity="1" stroke-width="4" d=" M1.7269999980926514,-79.45500183105469 C-5.7729997634887695,-79.45500183105469 -7.817999839782715,-55.36399841308594 -7.136000156402588,-44.909000396728516 C-6.453999996185303,-34.45399856567383 10.36299991607666,-35.362998962402344 10.817999839782715,-45.13600158691406 C11.27299976348877,-54.909000396728516 9.22700023651123,-79.45500183105469 1.7269999980926514,-79.45500183105469z"></path></g><g opacity="1" transform="matrix(1,0,0,1,0,0)"><path fill="url(#__lottie_element_16)" mask="url(#__lottie_element_18)" fill-opacity="1" d="M0 0 M1.6139999628067017,-73.88600158691406 C-2.0220000743865967,-74 -5.889999866485596,-52.08300018310547 1.5,-51.840999603271484 C8.432000160217285,-51.61399841308594 5.7170000076293945,-73.75800323486328 1.6139999628067017,-73.88600158691406z"></path></g><g opacity="0.65" transform="matrix(1,0,0,1,2.2730000019073486,5.341000080108643)"><path fill="rgb(255,255,255)" fill-opacity="1" d=" M16.875,-104.5 C6.25,-114.125 -6.625,-114.5 -18.25,-104.5 C-18.5,-104.375 -9.517000198364258,-109.51200103759766 -0.3409999907016754,-109.26100158691406 C8.784000396728516,-109.01100158691406 17.125,-103.875 16.875,-104.5z"></path></g></g></g></g></svg>