<svg xmlns="http://www.w3.org/2000/svg" xmlns:xlink="http://www.w3.org/1999/xlink" viewBox="0 0 512 512" width="512" height="512" style="width: 100%; height: 100%; transform: translate3d(0,0,0); content-visibility: visible;" preserveAspectRatio="xMidYMid meet"><defs><clipPath id="__lottie_element_2"><rect width="512" height="512" x="0" y="0"></rect></clipPath><radialGradient id="__lottie_element_6" spreadMethod="pad" gradientUnits="userSpaceOnUse" cx="4.118000030517578" cy="-106.2760009765625" r="155.99799728393555" fx="4.118000030517578" fy="-106.2760009765625"><stop offset="20%" stop-color="rgb(93,70,172)"></stop><stop offset="60%" stop-color="rgb(74,57,137)"></stop><stop offset="96%" stop-color="rgb(55,44,102)"></stop></radialGradient><radialGradient id="__lottie_element_7" spreadMethod="pad" gradientUnits="userSpaceOnUse" cx="-0.8820000290870667" cy="-166.2760009765625" r="187.11399465799332" fx="-0.8820000290870667" fy="-166.2760009765625"><stop offset="0%" stop-color="rgb(255,255,255)" stop-opacity="1"></stop><stop offset="48%" stop-color="rgb(255,255,255)" stop-opacity="0.5"></stop><stop offset="83%" stop-color="rgb(255,255,255)" stop-opacity="0"></stop></radialGradient><radialGradient id="__lottie_element_8" spreadMethod="pad" gradientUnits="userSpaceOnUse" cx="2.118000030517578" cy="104.7239990234375" r="76.44285505486589" fx="2.118000030517578" fy="104.7239990234375"><stop offset="20%" stop-color="rgb(87,70,156)" stop-opacity="1"></stop><stop offset="61%" stop-color="rgb(71,57,129)" stop-opacity="0.5"></stop><stop offset="96%" stop-color="rgb(55,44,102)" stop-opacity="0"></stop></radialGradient><radialGradient id="__lottie_element_9" spreadMethod="pad" gradientUnits="userSpaceOnUse" cx="-89.88200378417969" cy="-22.275999069213867" r="79.24198186428985" fx="-89.88200378417969" fy="-22.275999069213867"><stop offset="20%" stop-color="rgb(87,70,156)" stop-opacity="1"></stop><stop offset="61%" stop-color="rgb(71,57,129)" stop-opacity="0.5"></stop><stop offset="96%" stop-color="rgb(55,44,102)" stop-opacity="0"></stop></radialGradient><radialGradient id="__lottie_element_10" spreadMethod="pad" gradientUnits="userSpaceOnUse" cx="-10.881999969482422" cy="121.7239990234375" r="90.45648424242489" fx="-10.881999969482422" fy="121.7239990234375"><stop offset="20%" stop-color="rgb(87,70,156)" stop-opacity="1"></stop><stop offset="61%" stop-color="rgb(71,57,129)" stop-opacity="0.5"></stop><stop offset="96%" stop-color="rgb(55,44,102)" stop-opacity="0"></stop></radialGradient><radialGradient id="__lottie_element_11" spreadMethod="pad" gradientUnits="userSpaceOnUse" cx="-13.881999969482422" cy="158.7239990234375" r="102.69718553000911" fx="-13.881999969482422" fy="158.7239990234375"><stop offset="20%" stop-color="rgb(87,70,156)" stop-opacity="1"></stop><stop offset="61%" stop-color="rgb(71,57,129)" stop-opacity="0.5"></stop><stop offset="96%" stop-color="rgb(55,44,102)" stop-opacity="0"></stop></radialGradient><radialGradient id="__lottie_element_12" spreadMethod="pad" gradientUnits="userSpaceOnUse" cx="99.11799621582031" cy="-54.2760009765625" r="62.539517927367534" fx="99.11799621582031" fy="-54.2760009765625"><stop offset="20%" stop-color="rgb(87,70,156)" stop-opacity="1"></stop><stop offset="61%" stop-color="rgb(71,57,129)" stop-opacity="0.5"></stop><stop offset="96%" stop-color="rgb(55,44,102)" stop-opacity="0"></stop></radialGradient><radialGradient id="__lottie_element_13" spreadMethod="pad" gradientUnits="userSpaceOnUse" cx="91.7770004272461" cy="-95.49600219726562" r="23.592278649879752" fx="91.7770004272461" fy="-95.49600219726562"><stop offset="0%" stop-color="rgb(33,28,68)" stop-opacity="1"></stop><stop offset="51%" stop-color="rgb(33,28,68)" stop-opacity="0.5"></stop><stop offset="96%" stop-color="rgb(33,28,68)" stop-opacity="0"></stop></radialGradient><radialGradient id="__lottie_element_14" spreadMethod="pad" gradientUnits="userSpaceOnUse" cx="91.7770004272461" cy="-95.49600219726562" r="23.592278649879752" fx="91.7770004272461" fy="-95.49600219726562"><stop offset="0%" stop-color="rgb(33,28,68)" stop-opacity="1"></stop><stop offset="51%" stop-color="rgb(33,28,68)" stop-opacity="0.5"></stop><stop offset="96%" stop-color="rgb(33,28,68)" stop-opacity="0"></stop></radialGradient><radialGradient id="__lottie_element_15" spreadMethod="pad" gradientUnits="userSpaceOnUse" cx="3.118000030517578" cy="-86.2760009765625" r="61.698001861572266" fx="3.118000030517578" fy="-86.2760009765625"><stop offset="0%" stop-color="rgb(33,28,68)" stop-opacity="1"></stop><stop offset="51%" stop-color="rgb(33,28,68)" stop-opacity="0.5"></stop><stop offset="96%" stop-color="rgb(33,28,68)" stop-opacity="0"></stop></radialGradient><radialGradient id="__lottie_element_19" spreadMethod="pad" gradientUnits="userSpaceOnUse" cx="-2.6760001182556152" cy="130.71099853515625" r="41.14175984672442" fx="-2.6760001182556152" fy="130.71099853515625"><stop offset="8%" stop-color="rgb(117,55,14)" stop-opacity="1"></stop><stop offset="54%" stop-color="rgb(117,55,14)" stop-opacity="0.5"></stop><stop offset="100%" stop-color="rgb(117,55,14)" stop-opacity="0"></stop></radialGradient><linearGradient id="__lottie_element_23" spreadMethod="pad" gradientUnits="userSpaceOnUse" x1="-3.1760001182556152" y1="85.71099853515625" x2="-2.3010001182556152" y2="116.6709976196289"><stop offset="0%" stop-color="rgb(255,168,0)" stop-opacity="1"></stop><stop offset="65%" stop-color="rgb(255,168,0)" stop-opacity="0.5"></stop><stop offset="100%" stop-color="rgb(255,168,0)" stop-opacity="0"></stop></linearGradient><linearGradient id="__lottie_element_24" spreadMethod="pad" gradientUnits="userSpaceOnUse" x1="-2.0510001182556152" y1="103.96099853515625" x2="-2.9260001182556152" y2="80.63999938964844"><stop offset="10%" stop-color="rgb(219,110,0)" stop-opacity="1"></stop><stop offset="49%" stop-color="rgb(219,110,0)" stop-opacity="0.5"></stop><stop offset="78%" stop-color="rgb(219,110,0)" stop-opacity="0"></stop></linearGradient><radialGradient id="__lottie_element_25" spreadMethod="pad" gradientUnits="userSpaceOnUse" cx="-3.9260001182556152" cy="73.96099853515625" r="22.90700101852417" fx="-3.9260001182556152" fy="73.96099853515625"><stop offset="40%" stop-color="rgb(255,168,0)" stop-opacity="0"></stop><stop offset="70%" stop-color="rgb(255,168,0)" stop-opacity="0.5"></stop><stop offset="100%" stop-color="rgb(255,168,0)" stop-opacity="1"></stop></radialGradient><linearGradient id="__lottie_element_26" spreadMethod="pad" gradientUnits="userSpaceOnUse" x1="-2.9260001182556152" y1="71.96099853515625" x2="-2.9260001182556152" y2="82.61699676513672"><stop offset="0%" stop-color="rgb(255,255,254)" stop-opacity="1"></stop><stop offset="50%" stop-color="rgb(255,255,254)" stop-opacity="0.5"></stop><stop offset="100%" stop-color="rgb(255,255,254)" stop-opacity="0"></stop></linearGradient><linearGradient id="__lottie_element_33" spreadMethod="pad" gradientUnits="userSpaceOnUse" x1="-80.73799896240234" y1="10.89900016784668" x2="-61.7130012512207" y2="39.979000091552734"><stop offset="0%" stop-color="rgb(66,0,0)"></stop><stop offset="37%" stop-color="rgb(118,40,0)"></stop><stop offset="100%" stop-color="rgb(170,80,0)"></stop></linearGradient><radialGradient id="__lottie_element_34" spreadMethod="pad" gradientUnits="userSpaceOnUse" cx="-63.92599868774414" cy="33.96099853515625" r="12.805999755859375" fx="-63.92599868774414" fy="33.96099853515625"><stop offset="0%" stop-color="rgb(246,175,0)" stop-opacity="1"></stop><stop offset="50%" stop-color="rgb(246,175,0)" stop-opacity="0.5"></stop><stop offset="100%" stop-color="rgb(246,175,0)" stop-opacity="0"></stop></radialGradient><linearGradient id="__lottie_element_35" spreadMethod="pad" gradientUnits="userSpaceOnUse" x1="-82.9260025024414" y1="0.9610000252723694" x2="-82.9260025024414" y2="11.782999992370605"><stop offset="0%" stop-color="rgb(255,255,255)" stop-opacity="1"></stop><stop offset="60%" stop-color="rgb(255,255,255)" stop-opacity="0.5"></stop><stop offset="100%" stop-color="rgb(255,255,255)" stop-opacity="0"></stop></linearGradient><linearGradient id="__lottie_element_36" spreadMethod="pad" gradientUnits="userSpaceOnUse" x1="-80.73799896240234" y1="10.89900016784668" x2="-61.7130012512207" y2="39.979000091552734"><stop offset="0%" stop-color="rgb(66,0,0)"></stop><stop offset="37%" stop-color="rgb(118,40,0)"></stop><stop offset="100%" stop-color="rgb(170,80,0)"></stop></linearGradient><radialGradient id="__lottie_element_37" spreadMethod="pad" gradientUnits="userSpaceOnUse" cx="-63.92599868774414" cy="33.96099853515625" r="12.805999755859375" fx="-63.92599868774414" fy="33.96099853515625"><stop offset="0%" stop-color="rgb(246,175,0)" stop-opacity="1"></stop><stop offset="50%" stop-color="rgb(246,175,0)" stop-opacity="0.5"></stop><stop offset="100%" stop-color="rgb(246,175,0)" stop-opacity="0"></stop></radialGradient><linearGradient id="__lottie_element_38" spreadMethod="pad" gradientUnits="userSpaceOnUse" x1="-82.9260025024414" y1="0.9610000252723694" x2="-82.9260025024414" y2="11.782999992370605"><stop offset="0%" stop-color="rgb(255,255,255)" stop-opacity="1"></stop><stop offset="60%" stop-color="rgb(255,255,255)" stop-opacity="0.5"></stop><stop offset="100%" stop-color="rgb(255,255,255)" stop-opacity="0"></stop></linearGradient><linearGradient id="__lottie_element_42" spreadMethod="pad" gradientUnits="userSpaceOnUse" x1="0.11800000071525574" y1="-120.2760009765625" x2="0.11800000071525574" y2="-42.823001861572266"><stop offset="18%" stop-color="rgb(255,169,0)" stop-opacity="0"></stop><stop offset="43%" stop-color="rgb(255,169,0)" stop-opacity="0.5"></stop><stop offset="65%" stop-color="rgb(255,169,0)" stop-opacity="1"></stop></linearGradient><linearGradient id="__lottie_element_43" spreadMethod="pad" gradientUnits="userSpaceOnUse" x1="0.11800000071525574" y1="-95.0260009765625" x2="0.11800000071525574" y2="78.13300323486328"><stop offset="0%" stop-color="rgb(255,216,0)" stop-opacity="0"></stop><stop offset="9%" stop-color="rgb(255,216,0)" stop-opacity="0.5"></stop><stop offset="50%" stop-color="rgb(255,216,0)" stop-opacity="1"></stop><stop offset="88%" stop-color="rgb(255,216,0)" stop-opacity="0.5"></stop><stop offset="100%" stop-color="rgb(255,216,0)" stop-opacity="0"></stop></linearGradient><linearGradient id="__lottie_element_47" spreadMethod="pad" gradientUnits="userSpaceOnUse" x1="145.3679962158203" y1="189.4739990234375" x2="52.65399932861328" y2="161.20899963378906"><stop offset="5%" stop-color="rgb(87,70,156)"></stop><stop offset="45%" stop-color="rgb(71,57,129)"></stop><stop offset="80%" stop-color="rgb(55,44,102)"></stop></linearGradient><radialGradient id="__lottie_element_48" spreadMethod="pad" gradientUnits="userSpaceOnUse" cx="141.3679962158203" cy="120.9739990234375" r="75.6554118374582" fx="141.3679962158203" fy="120.9739990234375"><stop offset="0%" stop-color="rgb(255,255,255)" stop-opacity="1"></stop><stop offset="49%" stop-color="rgb(255,255,255)" stop-opacity="0.5"></stop><stop offset="84%" stop-color="rgb(255,255,255)" stop-opacity="0"></stop></radialGradient><radialGradient id="__lottie_element_49" spreadMethod="pad" gradientUnits="userSpaceOnUse" cx="59.11800003051758" cy="190.7239990234375" r="53.507999420166016" fx="59.11800003051758" fy="190.7239990234375"><stop offset="20%" stop-color="rgb(33,28,68)" stop-opacity="1"></stop><stop offset="60%" stop-color="rgb(33,28,68)" stop-opacity="0.5"></stop><stop offset="96%" stop-color="rgb(33,28,68)" stop-opacity="0"></stop></radialGradient><radialGradient id="__lottie_element_50" spreadMethod="pad" gradientUnits="userSpaceOnUse" cx="128.9929962158203" cy="190.7239990234375" r="29.1950706499382" fx="128.9929962158203" fy="190.7239990234375"><stop offset="20%" stop-color="rgb(87,70,156)"></stop><stop offset="60%" stop-color="rgb(87,70,156)"></stop><stop offset="96%" stop-color="rgb(87,70,156)"></stop></radialGradient><radialGradient id="__lottie_element_51" spreadMethod="pad" gradientUnits="userSpaceOnUse" cx="19.118000030517578" cy="191.7239990234375" r="45.67457165643862" fx="19.118000030517578" fy="191.7239990234375"><stop offset="20%" stop-color="rgb(87,70,156)" stop-opacity="1"></stop><stop offset="60%" stop-color="rgb(71,57,129)" stop-opacity="0.5"></stop><stop offset="96%" stop-color="rgb(55,44,102)" stop-opacity="0"></stop></radialGradient><radialGradient id="__lottie_element_52" spreadMethod="pad" gradientUnits="userSpaceOnUse" cx="58.11800003051758" cy="154.7239990234375" r="47.1927002377229" fx="58.11800003051758" fy="154.7239990234375"><stop offset="20%" stop-color="rgb(87,70,156)" stop-opacity="1"></stop><stop offset="60%" stop-color="rgb(71,57,129)" stop-opacity="0.5"></stop><stop offset="96%" stop-color="rgb(55,44,102)" stop-opacity="0"></stop></radialGradient><linearGradient id="__lottie_element_56" spreadMethod="pad" gradientUnits="userSpaceOnUse" x1="-44.88199996948242" y1="269.7239990234375" x2="3.2190001010894775" y2="181.24899291992188"><stop offset="0%" stop-color="rgb(140,116,170)"></stop><stop offset="48%" stop-color="rgb(172,148,202)"></stop><stop offset="83%" stop-color="rgb(205,180,234)"></stop></linearGradient><linearGradient id="__lottie_element_57" spreadMethod="pad" gradientUnits="userSpaceOnUse" x1="-21.381999969482422" y1="214.9739990234375" x2="5.215000152587891" y2="170.06199645996094"><stop offset="0%" stop-color="rgb(133,112,162)" stop-opacity="0"></stop><stop offset="48%" stop-color="rgb(133,112,162)" stop-opacity="0.5"></stop><stop offset="83%" stop-color="rgb(133,112,162)" stop-opacity="1"></stop></linearGradient><linearGradient id="__lottie_element_58" spreadMethod="pad" gradientUnits="userSpaceOnUse" x1="5.118000030517578" y1="205.7239990234375" x2="4.988999843597412" y2="214.75799560546875"><stop offset="16%" stop-color="rgb(133,112,162)" stop-opacity="1"></stop><stop offset="50%" stop-color="rgb(133,112,162)" stop-opacity="0.5"></stop><stop offset="100%" stop-color="rgb(133,112,162)" stop-opacity="0"></stop></linearGradient><linearGradient id="__lottie_element_59" spreadMethod="pad" gradientUnits="userSpaceOnUse" x1="-10.881999969482422" y1="123.7239990234375" x2="-8.062000274658203" y2="199.15199279785156"><stop offset="0%" stop-color="rgb(255,255,255)" stop-opacity="1"></stop><stop offset="48%" stop-color="rgb(255,255,255)" stop-opacity="0.5"></stop><stop offset="83%" stop-color="rgb(255,255,255)" stop-opacity="0"></stop></linearGradient></defs><g clip-path="url(#__lottie_element_2)"><g style="display: block;" transform="matrix(1,0,0,1,256,256)" opacity="1"><g opacity="1" transform="matrix(1,0,0,1,0,0)"><path fill="url(#__lottie_element_56)" fill-opacity="1" d=" M134.71800231933594,138.19500732421875 C121.0979995727539,124.89399719238281 74.3499984741211,120.95099639892578 74.3499984741211,120.95099639892578 C74.3499984741211,120.95099639892578 0.8799999952316284,126.28399658203125 0.8799999952316284,126.28399658203125 C0.8799999952316284,126.28399658203125 -72.58999633789062,120.95099639892578 -72.58999633789062,120.95099639892578 C-72.58999633789062,120.95099639892578 -118.33799743652344,124.89399719238281 -131.95799255371094,138.19500732421875 C-145.5780029296875,151.49600219726562 -156.51600646972656,196.89599609375 -156.51600646972656,196.89599609375 C-156.51600646972656,196.89599609375 -146.10000610351562,216.85400390625 -113.15399932861328,216.85400390625 C-84.19599914550781,216.85400390625 -0.42399999499320984,216.85400390625 0.8650000095367432,216.85400390625 C0.875,216.85400390625 0.8949999809265137,216.85400390625 0.8949999809265137,216.85400390625 C2.184000015258789,216.85400390625 85.95700073242188,216.85400390625 114.91400146484375,216.85400390625 C147.86000061035156,216.85400390625 155.37399291992188,197.66900634765625 155.37399291992188,197.66900634765625 C155.37399291992188,197.66900634765625 148.33799743652344,151.49600219726562 134.71800231933594,138.19500732421875z"></path></g><g opacity="1" transform="matrix(1,0,0,1,0,0)"><path fill="url(#__lottie_element_57)" fill-opacity="1" d=" M-60.76300048828125,156.35800170898438 C-60.76300048828125,156.35800170898438 -37.69499969482422,167.6540069580078 -20.72800064086914,180.66700744628906 C0.8640000224113464,197.2270050048828 0.8949999809265137,207.51300048828125 0.8949999809265137,216.85400390625 C0.8949999809265137,216.85400390625 52.435001373291016,216.85400390625 52.435001373291016,216.85400390625 C52.435001373291016,216.85400390625 -0.5709999799728394,159.28900146484375 -0.5709999799728394,159.28900146484375 C-0.5709999799728394,159.28900146484375 -60.76300048828125,156.35800170898438 -60.76300048828125,156.35800170898438z"></path></g><g opacity="1" transform="matrix(1,0,0,1,0,0)"><path fill="url(#__lottie_element_58)" fill-opacity="1" d=" M10.340999603271484,210.9499969482422 C10.340999603271484,213.68800354003906 8.121000289916992,215.9080047607422 5.382999897003174,215.9080047607422 C2.6449999809265137,215.9080047607422 0.4259999990463257,213.68800354003906 0.4259999990463257,210.9499969482422 C0.4259999990463257,208.21200561523438 2.6449999809265137,205.9929962158203 5.382999897003174,205.9929962158203 C8.121000289916992,205.9929962158203 10.340999603271484,208.21200561523438 10.340999603271484,210.9499969482422z"></path></g><g opacity="1" transform="matrix(1,0,0,1,0,0)"><path fill="rgb(226,215,186)" fill-opacity="1" d=" M10.340999603271484,207.9499969482422 C10.340999603271484,210.68800354003906 8.121000289916992,212.9080047607422 5.382999897003174,212.9080047607422 C2.6449999809265137,212.9080047607422 0.4259999990463257,210.68800354003906 0.4259999990463257,207.9499969482422 C0.4259999990463257,205.21200561523438 2.6449999809265137,202.9929962158203 5.382999897003174,202.9929962158203 C8.121000289916992,202.9929962158203 10.340999603271484,205.21200561523438 10.340999603271484,207.9499969482422z"></path></g><g opacity="1" transform="matrix(1,0,0,1,0,0)"><path fill="url(#__lottie_element_59)" fill-opacity="0.3" d=" M138.88800048828125,143.53399658203125 C121.0479965209961,133.57400512695312 84.33799743652344,130.48399353027344 84.33799743652344,130.48399353027344 C84.33799743652344,130.48399353027344 10.868000030517578,135.81300354003906 10.868000030517578,135.81300354003906 C10.868000030517578,135.81300354003906 -62.60200119018555,130.48399353027344 -62.60200119018555,130.48399353027344 C-62.60200119018555,130.48399353027344 -108.34200286865234,134.4239959716797 -121.96199798583984,147.7239990234375 C-134.46200561523438,159.9340057373047 -144.71200561523438,200.88400268554688 -146.302001953125,207.51400756835938 C-153.6820068359375,202.32400512695312 -156.51199340820312,196.89300537109375 -156.51199340820312,196.89300537109375 C-156.51199340820312,196.89300537109375 -145.58200073242188,151.49400329589844 -131.96200561523438,138.19400024414062 C-118.34200286865234,124.89399719238281 -72.59200286865234,120.9540023803711 -72.59200286865234,120.9540023803711 C-72.59200286865234,120.9540023803711 0.878000020980835,126.28399658203125 0.878000020980835,126.28399658203125 C0.878000020980835,126.28399658203125 74.3479995727539,120.9540023803711 74.3479995727539,120.9540023803711 C74.3479995727539,120.9540023803711 121.0979995727539,124.89399719238281 134.71800231933594,138.19400024414062 C136.18800354003906,139.62399291992188 137.5780029296875,141.4340057373047 138.88800048828125,143.53399658203125z"></path></g><g opacity="1" transform="matrix(1,0,0,1,0,0)"><path stroke-linecap="butt" stroke-linejoin="round" fill-opacity="0" stroke="rgb(133,112,162)" stroke-opacity="0.4" stroke-width="6" d=" M19.538999557495117,216.85400390625 C19.538999557495117,216.85400390625 19.538999557495117,152.67100524902344 19.538999557495117,152.67100524902344"></path></g><g opacity="1" transform="matrix(1,0,0,1,0,0)"><path stroke-linecap="round" stroke-linejoin="round" fill-opacity="0" stroke="rgb(133,112,162)" stroke-opacity="1" stroke-width="8" d=" M-153.10499572753906,194.94400024414062 C-153.10499572753906,194.94400024414062 -145.5780029296875,151.49600219726562 -131.95799255371094,138.19500732421875 C-118.33799743652344,124.89399719238281 -72.58999633789062,120.95099639892578 -72.58999633789062,120.95099639892578 C-72.58999633789062,120.95099639892578 0.8949999809265137,126.28500366210938 0.8949999809265137,126.28500366210938"></path></g><g opacity="1" transform="matrix(1,0,0,1,0,0)"><path stroke-linecap="round" stroke-linejoin="round" fill-opacity="0" stroke="rgb(133,112,162)" stroke-opacity="0.4" stroke-width="6" d=" M-131.95799255371094,138.19500732421875 C-131.95799255371094,138.19500732421875 -109.44300079345703,156.43899536132812 -93.625,213.625"></path></g></g><g style="display: block;" transform="matrix(1,0,0,1,256,256)" opacity="1"><g opacity="1" transform="matrix(1,0,0,1,0,0)"><path fill="url(#__lottie_element_47)" fill-opacity="1" d=" M169.9499969482422,185.26600646972656 C170.86900329589844,173.85400390625 160.90899658203125,172.05099487304688 160.44000244140625,169.843994140625 C159.67300415039062,166.23699951171875 160.2429962158203,159.6280059814453 148.16600036621094,147.7519989013672 C132.6909942626953,132.53399658203125 112.97799682617188,126.52200317382812 112.97799682617188,126.52200317382812 C104.51499938964844,112.78500366210938 81.95899963378906,120.95099639892578 81.95899963378906,120.95099639892578 C81.95899963378906,120.95099639892578 -18.04800033569336,163.63600158691406 -18.04800033569336,163.63600158691406 C-18.04800033569336,163.63600158691406 5.011000156402588,196.32000732421875 44.099998474121094,216.85400390625 C44.099998474121094,216.85400390625 100.89600372314453,216.85400390625 121.8499984741211,216.85400390625 C155.37399291992188,216.85400390625 169.3719940185547,192.44000244140625 169.9499969482422,185.26600646972656z"></path></g><g opacity="1" transform="matrix(1,0,0,1,0,0)"><path fill="url(#__lottie_element_48)" fill-opacity="0.2" d=" M169.947998046875,185.26400756835938 C169.5679931640625,189.96400451660156 163.45799255371094,202.0240020751953 149.8979949951172,209.8040008544922 C156.80799865722656,203.11399841308594 160.08799743652344,195.86399841308594 160.35800170898438,192.4739990234375 C161.2779998779297,181.06399536132812 151.3179931640625,179.26400756835938 150.84800720214844,177.0540008544922 C150.0780029296875,173.45399475097656 150.6479949951172,166.843994140625 138.5780029296875,154.96400451660156 C123.0979995727539,139.74400329589844 103.38800048828125,133.73399353027344 103.38800048828125,133.73399353027344 C94.9280014038086,119.99400329589844 72.36799621582031,128.16299438476562 72.36799621582031,128.16299438476562 C72.36799621582031,128.16299438476562 -16.281999588012695,165.99400329589844 -16.281999588012695,165.99400329589844 C-17.45199966430664,164.48399353027344 -18.052000045776367,163.63299560546875 -18.052000045776367,163.63299560546875 C-18.052000045776367,163.63299560546875 81.95800018310547,120.9540023803711 81.95800018310547,120.9540023803711 C81.95800018310547,120.9540023803711 104.51799774169922,112.78399658203125 112.97799682617188,126.52400207519531 C112.97799682617188,126.52400207519531 132.68800354003906,132.53399658203125 148.16799926757812,147.75399780273438 C160.23800659179688,159.62399291992188 159.66799926757812,166.23399353027344 160.43800354003906,169.843994140625 C160.9080047607422,172.0540008544922 170.8679962158203,173.85400390625 169.947998046875,185.26400756835938z"></path></g><g opacity="1" transform="matrix(1,0,0,1,0,0)"><path fill="url(#__lottie_element_49)" fill-opacity="0.3" d=" M34.79999923706055,165.39999389648438 C34.79999923706055,165.39999389648438 80.28299713134766,203.11500549316406 130.51400756835938,174.59300231933594 C130.51400756835938,174.59300231933594 113.13899993896484,188.78399658203125 104.44400024414062,216.85400390625 C104.44400024414062,216.85400390625 44.099998474121094,216.85400390625 44.099998474121094,216.85400390625 C44.099998474121094,216.85400390625 -11.814000129699707,171.56900024414062 -11.814000129699707,171.56900024414062 C-11.814000129699707,171.56900024414062 34.79999923706055,165.39999389648438 34.79999923706055,165.39999389648438z"></path></g><g opacity="1" transform="matrix(1,0,0,1,0,0)"><path fill="url(#__lottie_element_50)" fill-opacity="0.7000000000000001" d=" M156.58299255371094,167.697998046875 C156.58299255371094,167.697998046875 132.50100708007812,176.26199340820312 119.40799713134766,216.4770050048828 C119.40799713134766,216.4770050048828 104.44400024414062,216.85400390625 104.44400024414062,216.85400390625 C104.44400024414062,216.85400390625 112.39399719238281,168.98199462890625 156.58299255371094,165.72500610351562 C156.58299255371094,165.72500610351562 156.58299255371094,167.697998046875 156.58299255371094,167.697998046875z"></path></g><g opacity="1" transform="matrix(1,0,0,1,0,0)"><path fill="url(#__lottie_element_51)" fill-opacity="0.7000000000000001" d=" M-2.8910000324249268,172.75999450683594 C-2.8910000324249268,172.75999450683594 -2.450000047683716,173.0749969482422 -1.6239999532699585,173.65199279785156 C6.228000164031982,179.14199829101562 49.770999908447266,208.38999938964844 76.80899810791016,216.85400390625 C76.80899810791016,216.85400390625 44.099998474121094,216.85400390625 44.099998474121094,216.85400390625 C44.099998474121094,216.85400390625 -7.99399995803833,172.75999450683594 -7.99399995803833,172.75999450683594"></path></g><g opacity="1" transform="matrix(1,0,0,1,0,0)"><path fill="url(#__lottie_element_52)" fill-opacity="0.7000000000000001" d=" M90.71499633789062,123.28700256347656 C90.71499633789062,123.28700256347656 116.13700103759766,129.88299560546875 84.33799743652344,152.67100524902344 C52.53900146484375,175.45899963378906 13.479999542236328,171.26600646972656 13.479999542236328,171.26600646972656 C13.479999542236328,171.26600646972656 56.5260009765625,164.91600036621094 74.74800109863281,144.5070037841797 C92.97000122070312,124.0979995727539 90.71499633789062,123.28700256347656 90.71499633789062,123.28700256347656z"></path></g><g opacity="1" transform="matrix(1,0,0,1,0,0)"><path stroke-linecap="round" stroke-linejoin="round" fill-opacity="0" stroke="rgb(33,28,68)" stroke-opacity="0.3" stroke-width="8" d=" M160.44000244140625,169.843994140625 C148.4320068359375,174.1439971923828 135.33799743652344,186.71299743652344 124.4010009765625,211.23800659179688"></path></g><g opacity="1" transform="matrix(1,0,0,1,0,0)"><path stroke-linecap="round" stroke-linejoin="round" fill-opacity="0" stroke="rgb(33,28,68)" stroke-opacity="1" stroke-width="8" d=" M43.09400177001953,212.9080047607422 C4.005000114440918,192.37399291992188 -18.04800033569336,163.63600158691406 -18.04800033569336,163.63600158691406 C-18.04800033569336,163.63600158691406 81.95899963378906,120.95099639892578 81.95899963378906,120.95099639892578 C81.95899963378906,120.95099639892578 104.51499938964844,112.78500366210938 112.97799682617188,126.52200317382812 C112.97799682617188,126.52200317382812 132.6909942626953,132.53399658203125 148.16600036621094,147.7519989013672 C160.2429962158203,159.6280059814453 159.67300415039062,166.23699951171875 160.44000244140625,169.843994140625 C160.85800170898438,171.81100463867188 163.1479949951172,174.51699829101562 166.36700439453125,183.5050048828125"></path></g><g opacity="1" transform="matrix(1,0,0,1,0,0)"><path stroke-linecap="round" stroke-linejoin="round" fill-opacity="0" stroke="rgb(33,28,68)" stroke-opacity="0.3" stroke-width="8" d=" M112.97799682617188,126.52200317382812 C112.97799682617188,126.52200317382812 112.97799682617188,140.38499450683594 75.41699981689453,162.1790008544922"></path></g><g opacity="1" transform="matrix(1,0,0,1,0,0)"><path stroke-linecap="round" stroke-linejoin="round" fill-opacity="0" stroke="rgb(33,28,68)" stroke-opacity="0.4" stroke-width="8" d=" M-0.5709999799728394,169.843994140625 C-0.5709999799728394,169.843994140625 39.5359992980957,198.72799682617188 77.84500122070312,212.625"></path></g></g><g style="display: block;" transform="matrix(1,0,0,1,255.99998474121094,256)" opacity="1"><g opacity="1" transform="matrix(1,0,0,1,0,0)"><path fill="rgb(255,168,0)" fill-opacity="1" d=" M87.69599914550781,-129.6269989013672 C69.14099884033203,-155.39700317382812 39.04199981689453,-173.0399932861328 0.8650000095367432,-173.0399932861328 C-37.31100082397461,-173.0399932861328 -67.41300201416016,-155.39700317382812 -85.96700286865234,-129.6269989013672 C-105.9990005493164,-101.80500030517578 -121.9229965209961,-30.000999450683594 -95.7699966430664,24.530000686645508 C-69.61799621582031,79.06099700927734 -25.43400001525879,98.30899810791016 0.8650000095367432,98.30899810791016 C27.163999557495117,98.30899810791016 71.34600067138672,79.06099700927734 97.4990005493164,24.530000686645508 C123.6510009765625,-30.000999450683594 107.72799682617188,-101.80500030517578 87.69599914550781,-129.6269989013672z"></path></g><g opacity="1" transform="matrix(1,0,0,1,0,0)"><path fill="url(#__lottie_element_42)" fill-opacity="1" d=" M87.69599914550781,-129.6269989013672 C69.14099884033203,-155.39700317382812 39.04199981689453,-173.0399932861328 0.8650000095367432,-173.0399932861328 C-37.31100082397461,-173.0399932861328 -67.41300201416016,-155.39700317382812 -85.96700286865234,-129.6269989013672 C-105.9990005493164,-101.80500030517578 -121.9229965209961,-30.000999450683594 -95.7699966430664,24.530000686645508 C-69.61799621582031,79.06099700927734 -25.43400001525879,98.30899810791016 0.8650000095367432,98.30899810791016 C27.163999557495117,98.30899810791016 71.34600067138672,79.06099700927734 97.4990005493164,24.530000686645508 C123.6510009765625,-30.000999450683594 107.72799682617188,-101.80500030517578 87.69599914550781,-129.6269989013672z"></path></g><g opacity="1" transform="matrix(1,0,0,1,0,0)"><path fill="url(#__lottie_element_43)" fill-opacity="1" d=" M-3.753999948501587,-90.16000366210938 C-27.639999389648438,-90.16000366210938 -91.37899780273438,-62.71900177001953 -91.36799621582031,-43.367000579833984 C-91.35800170898438,-24.94700050354004 -88.2490005493164,0.8220000267028809 -80.0989990234375,17.575000762939453 C-56.56399917602539,65.95600128173828 -22.80299949645996,81.25900268554688 0.8650000095367432,81.25900268554688 C24.531999588012695,81.25900268554688 58.292999267578125,65.95600128173828 81.8290023803711,17.575000762939453 C90.65499877929688,-0.5680000185966492 93.15799713134766,-25.08300018310547 93.15799713134766,-44.939998626708984 C93.15799713134766,-61.10100173950195 36.6349983215332,-90.16000366210938 -3.753999948501587,-90.16000366210938z"></path></g><g opacity="1" transform="matrix(1,0,0,1,0,0)"><path stroke-linecap="round" stroke-linejoin="round" fill-opacity="0" stroke="rgb(219,110,0)" stroke-opacity="1" stroke-width="8" d=" M87.69599914550781,-129.6269989013672 C69.14099884033203,-155.39700317382812 39.04199981689453,-173.0399932861328 0.8650000095367432,-173.0399932861328 C-37.31100082397461,-173.0399932861328 -67.41300201416016,-155.39700317382812 -85.96700286865234,-129.6269989013672 C-105.9990005493164,-101.80500030517578 -121.9229965209961,-30.000999450683594 -95.7699966430664,24.530000686645508 C-69.61799621582031,79.06099700927734 -25.43400001525879,98.30899810791016 0.8650000095367432,98.30899810791016 C27.163999557495117,98.30899810791016 71.34600067138672,79.06099700927734 97.4990005493164,24.530000686645508 C123.6510009765625,-30.000999450683594 107.72799682617188,-101.80500030517578 87.69599914550781,-129.6269989013672z"></path></g></g><g style="display: block;" transform="matrix(-1,0,0,1,259.39398193359375,256)" opacity="1"><g opacity="1" transform="matrix(1,0,0,1,0,0)"><g opacity="1" transform="matrix(1,0,0,1,0,0)"><path fill="rgb(255,255,255)" fill-opacity="1" d=" M-22.89699935913086,-11.239999771118164 C-22.89699935913086,-11.239999771118164 -25.7549991607666,-45.35100173950195 -54.12799835205078,-48.20100021362305 C-80.18499755859375,-50.81800079345703 -88.73500061035156,-20.600000381469727 -88.73500061035156,-20.600000381469727 C-88.73500061035156,-20.600000381469727 -81.72200012207031,-2.309000015258789 -58.9109992980957,0.19300000369548798 C-33.48099899291992,2.9820001125335693 -22.89699935913086,-11.239999771118164 -22.89699935913086,-11.239999771118164z"></path></g><g opacity="1" transform="matrix(-0.769320011138916,0,0,0.769320011138916,-112.27268981933594,-40.208831787109375)"><g opacity="1" transform="matrix(1,0,0,1,0,0)"><g opacity="1" transform="matrix(1,0,0,1,0,0)"><path fill="url(#__lottie_element_33)" fill-opacity="1" d=" M-51.20500183105469,19.68600082397461 C-51.20500183105469,33.59600067138672 -61.845001220703125,44.87200164794922 -74.97100067138672,44.87200164794922 C-88.09700012207031,44.87200164794922 -98.73799896240234,33.59600067138672 -98.73799896240234,19.68600082397461 C-98.73799896240234,5.776000022888184 -88.09700012207031,-5.5 -74.97100067138672,-5.5 C-61.845001220703125,-5.5 -51.20500183105469,5.776000022888184 -51.20500183105469,19.68600082397461z"></path></g><g opacity="1" transform="matrix(1,0,0,1,0,0)"><g opacity="1" transform="matrix(1,0,0,1,0,0)"><path fill="url(#__lottie_element_34)" fill-opacity="1" d=" M-69.46700286865234,43.790000915527344 C-71.34400177001953,43.790000915527344 -73.08100128173828,42.577999114990234 -73.66300201416016,40.691001892089844 C-74.37799835205078,38.37300109863281 -73.0780029296875,35.91400146484375 -70.76000213623047,35.19900131225586 C-66.32599639892578,33.83100128173828 -62.79600143432617,30.38599967956543 -61.31800079345703,25.983999252319336 C-60.54600143432617,23.683000564575195 -58.051998138427734,22.447999954223633 -55.75699996948242,23.218000411987305 C-53.457000732421875,23.989999771118164 -52.21900177001953,26.479999542236328 -52.99100112915039,28.780000686645508 C-55.36600112915039,35.856998443603516 -61.04100036621094,41.39500045776367 -68.1719970703125,43.59400177001953 C-68.60299682617188,43.72700119018555 -69.03900146484375,43.790000915527344 -69.46700286865234,43.790000915527344z"></path></g></g><g opacity="1" transform="matrix(1,0,0,1,0,0)"><path fill="rgb(24,19,9)" fill-opacity="1" d=" M-59.95100021362305,19.68600082397461 C-59.95100021362305,28.476999282836914 -66.67500305175781,35.604000091552734 -74.97100067138672,35.604000091552734 C-83.26699829101562,35.604000091552734 -89.99199676513672,28.476999282836914 -89.99199676513672,19.68600082397461 C-89.99199676513672,10.895000457763672 -83.26699829101562,3.7690000534057617 -74.97100067138672,3.7690000534057617 C-66.67500305175781,3.7690000534057617 -59.95100021362305,10.895000457763672 -59.95100021362305,19.68600082397461z"></path></g><g opacity="1" transform="matrix(1,0,0,1,0,0)"><path fill="url(#__lottie_element_35)" fill-opacity="1" d=" M-76.302001953125,5.961999893188477 C-76.302001953125,9.300000190734863 -78.85600280761719,12.005999565124512 -82.00599670410156,12.005999565124512 C-85.15599822998047,12.005999565124512 -87.70999908447266,9.300000190734863 -87.70999908447266,5.961999893188477 C-87.70999908447266,2.624000072479248 -85.15599822998047,-0.08299999684095383 -82.00599670410156,-0.08299999684095383 C-78.85600280761719,-0.08299999684095383 -76.302001953125,2.624000072479248 -76.302001953125,5.961999893188477z"></path></g></g></g><g opacity="1" transform="matrix(1,0,0,1,0,0)"><path fill="rgb(163,65,0)" fill-opacity="1" d=" M-22.89699935913086,-17.229999542236328 C-22.89699935913086,-17.229999542236328 -25.753999710083008,-46.36899948120117 -53.47200012207031,-49.189998626708984 C-66.41899871826172,-50.507999420166016 -76.14199829101562,-44.42100143432617 -83.48999786376953,-34.90999984741211 C-88.47899627685547,-28.452999114990234 -89.73500061035156,-20.600000381469727 -89.73500061035156,-20.600000381469727 C-89.73500061035156,-20.600000381469727 -83.7770004272461,-47.07600021362305 -54.821998596191406,-46.7140007019043 C-27.6299991607666,-46.374000549316406 -22.89699935913086,-17.229999542236328 -22.89699935913086,-17.229999542236328z"></path><path stroke-linecap="round" stroke-linejoin="round" fill-opacity="0" stroke="rgb(163,65,0)" stroke-opacity="1" stroke-width="2" d=" M-22.89699935913086,-17.229999542236328 C-22.89699935913086,-17.229999542236328 -25.753999710083008,-46.36899948120117 -53.47200012207031,-49.189998626708984 C-66.41899871826172,-50.507999420166016 -76.14199829101562,-44.42100143432617 -83.48999786376953,-34.90999984741211 C-88.47899627685547,-28.452999114990234 -89.73500061035156,-20.600000381469727 -89.73500061035156,-20.600000381469727 C-89.73500061035156,-20.600000381469727 -83.7770004272461,-47.07600021362305 -54.821998596191406,-46.7140007019043 C-27.6299991607666,-46.374000549316406 -22.89699935913086,-17.229999542236328 -22.89699935913086,-17.229999542236328z"></path></g></g><g opacity="1" transform="matrix(1,0,0,1,0,0)"><g opacity="1" transform="matrix(1,0,0,1,0,0)"><path fill="rgb(255,255,255)" fill-opacity="1" d=" M26.291000366210938,-11.239999771118164 C26.291000366210938,-11.239999771118164 29.14900016784668,-45.35100173950195 57.52199935913086,-48.20100021362305 C83.5790023803711,-50.81800079345703 92.12899780273438,-20.600000381469727 92.12899780273438,-20.600000381469727 C92.12899780273438,-20.600000381469727 85.11599731445312,-2.309000015258789 62.30500030517578,0.19300000369548798 C36.875,2.9820001125335693 26.291000366210938,-11.239999771118164 26.291000366210938,-11.239999771118164z"></path></g><g opacity="1" transform="matrix(-0.769320011138916,0,0,0.769320011138916,0.414306640625,-40.208831787109375)"><g opacity="1" transform="matrix(1,0,0,1,0,0)"><g opacity="1" transform="matrix(1,0,0,1,0,0)"><path fill="url(#__lottie_element_36)" fill-opacity="1" d=" M-51.20500183105469,19.68600082397461 C-51.20500183105469,33.59600067138672 -61.845001220703125,44.87200164794922 -74.97100067138672,44.87200164794922 C-88.09700012207031,44.87200164794922 -98.73799896240234,33.59600067138672 -98.73799896240234,19.68600082397461 C-98.73799896240234,5.776000022888184 -88.09700012207031,-5.5 -74.97100067138672,-5.5 C-61.845001220703125,-5.5 -51.20500183105469,5.776000022888184 -51.20500183105469,19.68600082397461z"></path></g><g opacity="1" transform="matrix(1,0,0,1,0,0)"><g opacity="1" transform="matrix(1,0,0,1,0,0)"><path fill="url(#__lottie_element_37)" fill-opacity="1" d=" M-69.46700286865234,43.790000915527344 C-71.34400177001953,43.790000915527344 -73.08100128173828,42.577999114990234 -73.66300201416016,40.691001892089844 C-74.37799835205078,38.37300109863281 -73.0780029296875,35.91400146484375 -70.76000213623047,35.19900131225586 C-66.32599639892578,33.83100128173828 -62.79600143432617,30.38599967956543 -61.31800079345703,25.983999252319336 C-60.54600143432617,23.683000564575195 -58.051998138427734,22.447999954223633 -55.75699996948242,23.218000411987305 C-53.457000732421875,23.989999771118164 -52.21900177001953,26.479999542236328 -52.99100112915039,28.780000686645508 C-55.36600112915039,35.856998443603516 -61.04100036621094,41.39500045776367 -68.1719970703125,43.59400177001953 C-68.60299682617188,43.72700119018555 -69.03900146484375,43.790000915527344 -69.46700286865234,43.790000915527344z"></path></g></g><g opacity="1" transform="matrix(1,0,0,1,0,0)"><path fill="rgb(24,19,9)" fill-opacity="1" d=" M-59.95100021362305,19.68600082397461 C-59.95100021362305,28.476999282836914 -66.67500305175781,35.604000091552734 -74.97100067138672,35.604000091552734 C-83.26699829101562,35.604000091552734 -89.99199676513672,28.476999282836914 -89.99199676513672,19.68600082397461 C-89.99199676513672,10.895000457763672 -83.26699829101562,3.7690000534057617 -74.97100067138672,3.7690000534057617 C-66.67500305175781,3.7690000534057617 -59.95100021362305,10.895000457763672 -59.95100021362305,19.68600082397461z"></path></g><g opacity="1" transform="matrix(1,0,0,1,0,0)"><path fill="url(#__lottie_element_38)" fill-opacity="1" d=" M-76.302001953125,5.961999893188477 C-76.302001953125,9.300000190734863 -78.85600280761719,12.005999565124512 -82.00599670410156,12.005999565124512 C-85.15599822998047,12.005999565124512 -87.70999908447266,9.300000190734863 -87.70999908447266,5.961999893188477 C-87.70999908447266,2.624000072479248 -85.15599822998047,-0.08299999684095383 -82.00599670410156,-0.08299999684095383 C-78.85600280761719,-0.08299999684095383 -76.302001953125,2.624000072479248 -76.302001953125,5.961999893188477z"></path></g></g></g><g opacity="1" transform="matrix(1,0,0,1,0,0)"><path fill="rgb(163,65,0)" fill-opacity="1" d=" M26.291000366210938,-17.229999542236328 C26.291000366210938,-17.229999542236328 29.148000717163086,-46.36899948120117 56.86600112915039,-49.189998626708984 C69.81300354003906,-50.507999420166016 79.53500366210938,-44.42100143432617 86.88300323486328,-34.90999984741211 C91.87200164794922,-28.452999114990234 93.12899780273438,-20.600000381469727 93.12899780273438,-20.600000381469727 C93.12899780273438,-20.600000381469727 87.1709976196289,-47.07600021362305 58.215999603271484,-46.7140007019043 C31.02400016784668,-46.374000549316406 26.291000366210938,-17.229999542236328 26.291000366210938,-17.229999542236328z"></path><path stroke-linecap="round" stroke-linejoin="round" fill-opacity="0" stroke="rgb(163,65,0)" stroke-opacity="1" stroke-width="2" d=" M26.291000366210938,-17.229999542236328 C26.291000366210938,-17.229999542236328 29.148000717163086,-46.36899948120117 56.86600112915039,-49.189998626708984 C69.81300354003906,-50.507999420166016 79.53500366210938,-44.42100143432617 86.88300323486328,-34.90999984741211 C91.87200164794922,-28.452999114990234 93.12899780273438,-20.600000381469727 93.12899780273438,-20.600000381469727 C93.12899780273438,-20.600000381469727 87.1709976196289,-47.07600021362305 58.215999603271484,-46.7140007019043 C31.02400016784668,-46.374000549316406 26.291000366210938,-17.229999542236328 26.291000366210938,-17.229999542236328z"></path></g></g></g><g style="display: block;" transform="matrix(1,0,0,1,255.99998474121094,256)" opacity="1"><g opacity="1" transform="matrix(1,0,0,1,0,0)"><path fill="rgb(163,65,0)" fill-opacity="1" d=" M-80.46600341796875,-62.83599853515625 C-80.46600341796875,-62.83599853515625 -69.08799743652344,-70.64099884033203 -55.584999084472656,-70.21900177001953 C-42.645999908447266,-69.81500244140625 -37.29899978637695,-64.9229965209961 -37.29899978637695,-64.9229965209961 C-37.29899978637695,-64.9229965209961 -41.608001708984375,-74.31700134277344 -55.584999084472656,-73.91000366210938 C-70.98200225830078,-73.46099853515625 -80.46600341796875,-62.83599853515625 -80.46600341796875,-62.83599853515625z"></path><path stroke-linecap="round" stroke-linejoin="round" fill-opacity="0" stroke="rgb(163,65,0)" stroke-opacity="1" stroke-width="2" d=" M-80.46600341796875,-62.83599853515625 C-80.46600341796875,-62.83599853515625 -69.08799743652344,-70.64099884033203 -55.584999084472656,-70.21900177001953 C-42.645999908447266,-69.81500244140625 -37.29899978637695,-64.9229965209961 -37.29899978637695,-64.9229965209961 C-37.29899978637695,-64.9229965209961 -41.608001708984375,-74.31700134277344 -55.584999084472656,-73.91000366210938 C-70.98200225830078,-73.46099853515625 -80.46600341796875,-62.83599853515625 -80.46600341796875,-62.83599853515625z"></path></g><g opacity="1" transform="matrix(1,0,0,1,0,0)"><path fill="rgb(163,65,0)" fill-opacity="1" d=" M82.11000061035156,-62.83599853515625 C82.11000061035156,-62.83599853515625 70.73200225830078,-70.64099884033203 57.229000091552734,-70.21900177001953 C44.290000915527344,-69.81500244140625 38.94200134277344,-64.9229965209961 38.94200134277344,-64.9229965209961 C38.94200134277344,-64.9229965209961 43.25199890136719,-74.31700134277344 57.229000091552734,-73.91000366210938 C72.6259994506836,-73.46099853515625 82.11000061035156,-62.83599853515625 82.11000061035156,-62.83599853515625z"></path><path stroke-linecap="round" stroke-linejoin="round" fill-opacity="0" stroke="rgb(163,65,0)" stroke-opacity="1" stroke-width="2" d=" M82.11000061035156,-62.83599853515625 C82.11000061035156,-62.83599853515625 70.73200225830078,-70.64099884033203 57.229000091552734,-70.21900177001953 C44.290000915527344,-69.81500244140625 38.94200134277344,-64.9229965209961 38.94200134277344,-64.9229965209961 C38.94200134277344,-64.9229965209961 43.25199890136719,-74.31700134277344 57.229000091552734,-73.91000366210938 C72.6259994506836,-73.46099853515625 82.11000061035156,-62.83599853515625 82.11000061035156,-62.83599853515625z"></path></g></g><g style="display: block;" transform="matrix(0.7699999809265137,0,0,0.7699999809265137,259.6689453125,216.05459594726562)" opacity="1"><g opacity="1" transform="matrix(1,0,0,1,0,0)"><path fill="url(#__lottie_element_23)" fill-opacity="1" d=" M18.190000534057617,94.09300231933594 C18.190000534057617,102.9260025024414 8.125,110.77799987792969 -2.8350000381469727,110.77799987792969 C-13.795000076293945,110.77799987792969 -23.861000061035156,102.9260025024414 -23.861000061035156,94.09300231933594 C-23.861000061035156,85.26100158691406 -13.795000076293945,77.16200256347656 -2.8350000381469727,77.16200256347656 C8.125,77.16200256347656 18.190000534057617,85.26100158691406 18.190000534057617,94.09300231933594z"></path></g><g opacity="1" transform="matrix(1,0,0,1,0,0)"><path fill="rgb(255,168,0)" fill-opacity="0.8" d=" M18.190000534057617,85.64399719238281 C18.190000534057617,94.10600280761719 8.777000427246094,100.96600341796875 -2.8350000381469727,100.96600341796875 C-14.446999549865723,100.96600341796875 -23.860000610351562,94.10600280761719 -23.860000610351562,85.64399719238281 C-23.860000610351562,77.18199920654297 -14.446999549865723,70.68299865722656 -2.8350000381469727,70.68299865722656 C8.777000427246094,70.68299865722656 18.190000534057617,77.18199920654297 18.190000534057617,85.64399719238281z"></path></g><g opacity="1" transform="matrix(1,0,0,1,0,0)"><path fill="url(#__lottie_element_24)" fill-opacity="1" d=" M18.190000534057617,85.64399719238281 C18.190000534057617,94.10600280761719 8.777000427246094,100.96600341796875 -2.8350000381469727,100.96600341796875 C-14.446999549865723,100.96600341796875 -23.860000610351562,94.10600280761719 -23.860000610351562,85.64399719238281 C-23.860000610351562,77.18199920654297 -14.446999549865723,70.68299865722656 -2.8350000381469727,70.68299865722656 C8.777000427246094,70.68299865722656 18.190000534057617,77.18199920654297 18.190000534057617,85.64399719238281z"></path></g><g opacity="1" transform="matrix(1,0,0,1,0,0)"><path fill="rgb(255,216,0)" fill-opacity="1" d=" M15.352999687194824,80.80799865722656 C15.352999687194824,87.10800170898438 7.210000038146973,92.21499633789062 -2.8350000381469727,92.21499633789062 C-12.880000114440918,92.21499633789062 -21.02400016784668,87.10800170898438 -21.02400016784668,80.80799865722656 C-21.02400016784668,74.50800323486328 -12.880000114440918,70.43599700927734 -2.8350000381469727,70.43599700927734 C7.210000038146973,70.43599700927734 15.352999687194824,74.50800323486328 15.352999687194824,80.80799865722656z"></path></g><g opacity="1" transform="matrix(1,0,0,1,0,0)"><path fill="url(#__lottie_element_25)" fill-opacity="1" d=" M15.352999687194824,80.80799865722656 C15.352999687194824,87.10800170898438 7.210000038146973,92.21499633789062 -2.8350000381469727,92.21499633789062 C-12.880000114440918,92.21499633789062 -21.02400016784668,87.10800170898438 -21.02400016784668,80.80799865722656 C-21.02400016784668,74.50800323486328 -12.880000114440918,70.43599700927734 -2.8350000381469727,70.43599700927734 C7.210000038146973,70.43599700927734 15.352999687194824,74.50800323486328 15.352999687194824,80.80799865722656z"></path></g><g opacity="1" transform="matrix(1,0,0,1,0,0)"><path fill="url(#__lottie_element_26)" fill-opacity="0.7000000000000001" d=" M6.535999774932861,76.23300170898438 C6.535999774932861,79.60600280761719 2.3399999141693115,82.77799987792969 -2.8350000381469727,82.77799987792969 C-8.010000228881836,82.77799987792969 -12.206000328063965,79.60600280761719 -12.206000328063965,76.23300170898438 C-12.206000328063965,72.86000061035156 -8.010000228881836,71.16799926757812 -2.8350000381469727,71.16799926757812 C2.3399999141693115,71.16799926757812 6.535999774932861,72.86000061035156 6.535999774932861,76.23300170898438z"></path></g></g><g style="display: block;" transform="matrix(0.7699999809265137,0,0,0.7699999809265137,259.41937255859375,216.05422973632812)" opacity="1"><g opacity="1" transform="matrix(1,0,0,1,0,0)"><path fill="rgb(75,37,2)" fill-opacity="1" d=" M43.34299850463867,120.85099792480469 C40.119998931884766,119.03800201416016 25.618000030517578,121.85800170898438 14.940999984741211,118.03099822998047 C4.264999866485596,114.2040023803711 1.8489999771118164,119.62100219726562 -1.9789999723434448,119.62100219726562 C-5.806000232696533,119.62100219726562 -8.222999572753906,114.2040023803711 -18.899999618530273,118.03099822998047 C-29.576000213623047,121.85800170898438 -44.07899856567383,119.03800201416016 -47.301998138427734,120.85099792480469 C-50.525001525878906,122.66400146484375 -28.535999298095703,143.5919952392578 -1.9789999723434448,143.5919952392578 C24.26799964904785,143.5919952392578 46.566001892089844,122.66400146484375 43.34299850463867,120.85099792480469z"></path></g><g opacity="1" transform="matrix(1,0,0,1,0,0)"><path fill="url(#__lottie_element_19)" fill-opacity="1" d=" M43.34299850463867,120.85099792480469 C40.119998931884766,119.03800201416016 25.618000030517578,121.85800170898438 14.940999984741211,118.03099822998047 C4.264999866485596,114.2040023803711 1.8489999771118164,119.62100219726562 -1.9789999723434448,119.62100219726562 C-5.806000232696533,119.62100219726562 -8.222999572753906,114.2040023803711 -18.899999618530273,118.03099822998047 C-29.576000213623047,121.85800170898438 -44.07899856567383,119.03800201416016 -47.301998138427734,120.85099792480469 C-50.525001525878906,122.66400146484375 -28.535999298095703,143.5919952392578 -1.9789999723434448,143.5919952392578 C24.26799964904785,143.5919952392578 46.566001892089844,122.66400146484375 43.34299850463867,120.85099792480469z"></path></g><g opacity="1" transform="matrix(1,0,0,1,0,0)"><path fill="rgb(23,19,11)" fill-opacity="1" d=" M-39.88199996948242,124.6240005493164 C-39.88199996948242,124.6240005493164 -28.322999954223633,127.36900329589844 -20.43899917602539,127.36900329589844 C-15.086999893188477,127.36900329589844 -7.00600004196167,130.20700073242188 -1.9789999723434448,130.20700073242188 C2.8519999980926514,130.20700073242188 9.390000343322754,127.43000030517578 14.458999633789062,127.43000030517578 C24.839000701904297,127.43000030517578 35.196998596191406,124.6240005493164 35.196998596191406,124.6240005493164 C35.196998596191406,124.6240005493164 26.56399917602539,127.21399688720703 13.963000297546387,129.86099243164062 C9.489999771118164,130.80099487304688 3.2860000133514404,133.1820068359375 -1.9789999723434448,133.1820068359375 C-8.236000061035156,133.1820068359375 -15.381999969482422,130.53799438476562 -20.562000274658203,129.3000030517578 C-32.020999908447266,126.56099700927734 -39.88199996948242,124.6240005493164 -39.88199996948242,124.6240005493164z"></path><path stroke-linecap="round" stroke-linejoin="round" fill-opacity="0" stroke="rgb(23,19,11)" stroke-opacity="1" stroke-width="1" d=" M-39.88199996948242,124.6240005493164 C-39.88199996948242,124.6240005493164 -28.322999954223633,127.36900329589844 -20.43899917602539,127.36900329589844 C-15.086999893188477,127.36900329589844 -7.00600004196167,130.20700073242188 -1.9789999723434448,130.20700073242188 C2.8519999980926514,130.20700073242188 9.390000343322754,127.43000030517578 14.458999633789062,127.43000030517578 C24.839000701904297,127.43000030517578 35.196998596191406,124.6240005493164 35.196998596191406,124.6240005493164 C35.196998596191406,124.6240005493164 26.56399917602539,127.21399688720703 13.963000297546387,129.86099243164062 C9.489999771118164,130.80099487304688 3.2860000133514404,133.1820068359375 -1.9789999723434448,133.1820068359375 C-8.236000061035156,133.1820068359375 -15.381999969482422,130.53799438476562 -20.562000274658203,129.3000030517578 C-32.020999908447266,126.56099700927734 -39.88199996948242,124.6240005493164 -39.88199996948242,124.6240005493164z"></path></g></g><g style="display: block;" transform="matrix(1,0,0,1,256,256)" opacity="1"><g opacity="1" transform="matrix(1,0,0,1.1449300050735474,0,0)"><path fill="url(#__lottie_element_6)" fill-opacity="1" d=" M85.04100036621094,91.17400360107422 C102.28900146484375,84.26799774169922 109.73300170898438,76.56199645996094 116.51000213623047,63.900001525878906 C120.57599639892578,56.303001403808594 124.68199920654297,46.922000885009766 127.93900299072266,34.86000061035156 C137.802001953125,-1.6720000505447388 139.5469970703125,-46.8380012512207 136.427001953125,-65.86900329589844 C133.3070068359375,-84.9000015258789 113.83000183105469,-121.3270034790039 106.55999755859375,-132.77000427246094 C100.70899963378906,-141.97999572753906 73.3219985961914,-182.9810028076172 1.5219999551773071,-178.79800415039062 C-71.6969985961914,-174.53199768066406 -110.03700256347656,-125.24500274658203 -120.99800109863281,-96.53600311279297 C-133.76600646972656,-63.095001220703125 -133.68299865722656,-36.6349983215332 -127.34100341796875,-3.888000011444092 C-120.9990005493164,28.858999252319336 -94.0199966430664,55.12300109863281 -94.0199966430664,55.12300109863281 C-98.39399719238281,66.89800262451172 -80.48300170898438,92.4489974975586 -80.48300170898438,92.4489974975586 C-93.02999877929688,93.48699951171875 -95.12100219726562,101.95700073242188 -95.12100219726562,101.95700073242188 C-102.18599700927734,101.3759994506836 -108.26499938964844,105.4209976196289 -107.96600341796875,107.49600219726562 C-107.66699981689453,109.57099914550781 -87.76699829101562,120.6780014038086 -66.19499969482422,131.5540008544922 C-14.585000038146973,157.572998046875 51.62699890136719,143.1580047607422 72.57599639892578,126.72100067138672 C93.55899810791016,110.25700378417969 86.56700134277344,102.0989990234375 86.56700134277344,102.0989990234375 C89.33799743652344,94.08300018310547 85.04100036621094,91.17400360107422 85.04100036621094,91.17400360107422 C12.383999824523926,97.91999816894531 -50.67599868774414,75.6969985961914 -75.80899810791016,41.38100051879883 C-100.94200134277344,7.065000057220459 -98.93199920654297,-41.53300094604492 -96.9020004272461,-43.66999816894531 C-69.88300323486328,-72.11499786376953 -15.314000129699707,-96.59400177001953 0.07800000160932541,-96.53600311279297 C11.777999877929688,-96.49199676513672 93.41600036621094,-66.9540023803711 103.56099700927734,-48.560001373291016 C106.7509994506836,-42.777000427246094 97.89099884033203,31.968000411987305 60.98899841308594,59.375999450683594 C44.40299987792969,71.69499969482422 20.611000061035156,81.96700286865234 -9.819000244140625,82.72799682617188 C-9.819000244140625,82.72799682617188 33.31100082397461,93.14900207519531 33.31100082397461,93.14900207519531 C33.31100082397461,93.14900207519531 85.04100036621094,91.17400360107422 85.04100036621094,91.17400360107422z"></path></g><g opacity="1" transform="matrix(1,0,0,1,0,0)"><path fill="url(#__lottie_element_7)" fill-opacity="0.2" d=" M127.93800354003906,42.0629997253418 C124.6780014038086,55.952999114990234 120.5780029296875,66.75399780273438 116.50800323486328,75.50399780273438 C114.72799682617188,79.33399963378906 112.89800262451172,82.77300262451172 110.85800170898438,85.90299987792969 C114.53800201416016,77.36299896240234 118.21800231933594,66.91300201416016 121.15799713134766,53.632999420166016 C130.47799682617188,11.562999725341797 132.1280059814453,-40.446998596191406 129.17799377441406,-62.356998443603516 C126.22799682617188,-84.26699829101562 107.81800079345703,-125.21700286865234 100.93800354003906,-138.39700317382812 C95.40799713134766,-148.9969940185547 69.50800323486328,-196.20700073242188 1.6080000400543213,-191.39700317382812 C-67.63200378417969,-186.4770050048828 -103.88200378417969,-129.7270050048828 -114.25199890136719,-96.66699981689453 C-126.3219985961914,-58.16699981689453 -126.24199676513672,-28.695999145507812 -120.25199890136719,9.013999938964844 C-118.14199829101562,22.243999481201172 -113.63200378417969,34.56399917602539 -108.66200256347656,44.9739990234375 C-116.10199737548828,32.74399948120117 -124.22200012207031,16.003999710083008 -127.34200286865234,-2.555999994277954 C-133.6820068359375,-40.25600051879883 -133.76199340820312,-70.72599792480469 -121.00199890136719,-109.23600006103516 C-110.04199981689453,-142.29600524902344 -71.7020034790039,-199.04600524902344 1.5180000066757202,-203.95599365234375 C73.31800079345703,-208.7760009765625 100.70800018310547,-161.5659942626953 106.55799865722656,-150.95599365234375 C113.8280029296875,-137.78599548339844 133.30799865722656,-95.83599853515625 136.42799377441406,-73.9260025024414 C139.54800415039062,-52.00600051879883 137.79800415039062,0.003000000026077032 127.93800354003906,42.0629997253418z"></path></g><g opacity="1" transform="matrix(1,0,0,1,0,0)"><path fill="url(#__lottie_element_8)" fill-opacity="0.7000000000000001" d=" M-67.70700073242188,63.641998291015625 C-67.70700073242188,63.641998291015625 -53.78300094604492,98.822998046875 -0.5709999799728394,111.50199890136719 C37.617000579833984,120.60199737548828 74.74800109863281,108.37799835205078 74.74800109863281,108.37799835205078 C74.74800109863281,108.37799835205078 -5.283999919891357,120.96700286865234 -67.70700073242188,63.641998291015625z"></path></g><g opacity="1" transform="matrix(1,0,0,1,0,0)"><path fill="url(#__lottie_element_9)" fill-opacity="1" d=" M-23.590999603271484,92.15599822998047 C-23.590999603271484,92.15599822998047 -97.88700103759766,80.23999786376953 -109.44300079345703,-14.498000144958496 C-120.9990005493164,-109.23600006103516 -86.73500061035156,-134.1840057373047 -86.73500061035156,-134.1840057373047 C-86.73500061035156,-134.1840057373047 -106.14099884033203,-79.62300109863281 -101.37999725341797,-40.25299835205078 C-96.61900329589844,-0.8830000162124634 -79.33000183105469,70.23899841308594 -23.590999603271484,92.15599822998047z"></path></g><g opacity="1" transform="matrix(1.2041399478912354,0,0,1,1.6331195831298828,0)"><path fill="url(#__lottie_element_10)" fill-opacity="0.7000000000000001" d=" M62.92399978637695,118.40899658203125 C55.737998962402344,126.25 29.726999282836914,136.01300048828125 -4.507999897003174,133.81300354003906 C-82.3270034790039,128.81300354003906 -78.7490005493164,70.29399871826172 -78.7490005493164,70.29399871826172 C-78.7490005493164,70.29399871826172 -46.452999114990234,118.16300201416016 18.350000381469727,121.9540023803711 C40.40399932861328,123.24400329589844 55.334999084472656,121.63899993896484 62.92399978637695,118.40899658203125z"></path></g><g opacity="1" transform="matrix(1,0,0,1,0,0)"><path fill="url(#__lottie_element_11)" fill-opacity="0.7000000000000001" d=" M-94.0199966430664,120.95099639892578 C-94.0199966430664,120.95099639892578 -64.28299713134766,157.947998046875 -8.812000274658203,154.9459991455078 C35.7599983215332,152.53399658203125 68.62799835205078,144.656005859375 84.33799743652344,130.48399353027344 C84.33799743652344,130.48399353027344 77.64399719238281,173.92999267578125 -22.89699935913086,167.697998046875 C-62.125,165.26699829101562 -107.96600341796875,125.70500183105469 -107.96600341796875,125.70500183105469 C-107.96600341796875,125.70500183105469 -106.0510025024414,119.39700317382812 -94.0199966430664,120.95099639892578z"></path></g><g opacity="1" transform="matrix(1,0,0,1,0,0)"><path stroke-linecap="round" stroke-linejoin="round" fill-opacity="0" stroke="rgb(33,28,68)" stroke-opacity="0.5" stroke-width="8" d=" M-80.48300170898438,108.37799835205078 C-56.72200012207031,134.5489959716797 -16.559999465942383,137.13800048828125 4.644999980926514,138.072998046875 C30.152000427246094,139.197998046875 69.24299621582031,132.48399353027344 86.56700134277344,119.49099731445312"></path></g><g opacity="1" transform="matrix(1,0,0,1,0,0)"><path stroke-linecap="round" stroke-linejoin="round" fill-opacity="0" stroke="rgb(33,28,68)" stroke-opacity="0.5" stroke-width="8" d=" M-95.12100219726562,119.3280029296875 C-95.12100219726562,119.3280029296875 -80.79100036621094,134.61599731445312 -50.060001373291016,145.63900756835938"></path></g><g opacity="1" transform="matrix(1,0,0,1,0,0)"><path stroke-linecap="round" stroke-linejoin="round" fill-opacity="0" stroke="rgb(33,28,68)" stroke-opacity="1" stroke-width="8" d=" M85.04100036621094,106.91000366210938 C102.28900146484375,98.95800018310547 109.73300170898438,90.08399963378906 116.51000213623047,75.50399780273438 C120.57599639892578,66.75599670410156 124.68199920654297,55.95500183105469 127.93900299072266,42.066001892089844 C137.802001953125,0 139.5469970703125,-52.00899887084961 136.427001953125,-73.9229965209961 C133.3070068359375,-95.83699798583984 113.83000183105469,-137.781005859375 106.55999755859375,-150.95799255371094 C100.70899963378906,-161.56300354003906 73.3219985961914,-208.77699279785156 1.5219999551773071,-203.9600067138672 C-71.6969985961914,-199.04800415039062 -110.03700256347656,-142.29400634765625 -120.99800109863281,-109.23600006103516 C-133.76600646972656,-70.72899627685547 -133.68299865722656,-40.26100158691406 -127.34100341796875,-2.552999973297119 C-120.9990005493164,35.154998779296875 -94.0199966430664,65.39900207519531 -94.0199966430664,65.39900207519531 C-98.39399719238281,78.95800018310547 -80.48300170898438,108.37799835205078 -80.48300170898438,108.37799835205078 C-93.02999877929688,109.572998046875 -95.12100219726562,119.3280029296875 -95.12100219726562,119.3280029296875 C-102.18599700927734,118.65899658203125 -108.26499938964844,123.31500244140625 -107.96600341796875,125.70500183105469 C-107.66699981689453,128.09500122070312 -87.76699829101562,140.88400268554688 -66.19499969482422,153.40699768066406 C-14.585000038146973,183.3679962158203 51.62699890136719,166.77000427246094 72.57599639892578,147.84300231933594 C93.55899810791016,128.88499450683594 86.56700134277344,119.49099731445312 86.56700134277344,119.49099731445312 C89.33799743652344,110.26100158691406 85.04100036621094,106.91000366210938 85.04100036621094,106.91000366210938 C12.383999824523926,114.6780014038086 -50.67599868774414,89.08899688720703 -75.80899810791016,49.57400131225586 C-100.94200134277344,10.0600004196167 -98.93199920654297,-45.900001525878906 -96.9020004272461,-48.361000061035156 C-69.88300323486328,-81.11499786376953 -15.314000129699707,-109.302001953125 0.07800000160932541,-109.23600006103516 C11.777999877929688,-109.18499755859375 93.41600036621094,-75.1719970703125 103.56099700927734,-53.992000579833984 C106.7509994506836,-47.33300018310547 97.89099884033203,38.73500061035156 60.98899841308594,70.2959976196289 C44.40299987792969,84.48100280761719 20.611000061035156,96.30899810791016 -9.819000244140625,97.18499755859375"></path></g><g opacity="0.3" transform="matrix(1,0,0,1,0,0)"><g opacity="1" transform="matrix(1,0,0,1,0,0)"><path stroke-linecap="round" stroke-linejoin="round" fill-opacity="0" stroke="rgb(33,28,68)" stroke-opacity="1" stroke-width="8" d=" M82.11000061035156,-144.25999450683594 C82.11000061035156,-144.25999450683594 105.08499908447266,-103.43900299072266 104.71800231933594,-45.577999114990234"></path></g><g opacity="1" transform="matrix(1,0,0,1,0,0)"><path stroke-linecap="round" stroke-linejoin="round" fill-opacity="0" stroke="rgb(33,28,68)" stroke-opacity="1" stroke-width="8" d=" M-98.00700378417969,-35.60200119018555 C-98.00700378417969,-35.60200119018555 -100.43000030517578,-84.08399963378906 -86.73500061035156,-122.3280029296875"></path></g><g opacity="1" transform="matrix(1,0,0,1,0,0)"><path stroke-linecap="round" stroke-linejoin="round" fill-opacity="0" stroke="rgb(33,28,68)" stroke-opacity="1" stroke-width="8" d=" M34.79999923706055,107.00599670410156 C62.7869987487793,104.65299987792969 110.81300354003906,91.78500366210938 137.4550018310547,-62.83599853515625"></path></g><g opacity="1" transform="matrix(1,0,0,1,0,0)"><path stroke-linecap="round" stroke-linejoin="round" fill-opacity="0" stroke="rgb(33,28,68)" stroke-opacity="1" stroke-width="8" d=" M30.128000259399414,118.91400146484375 C-32.45500183105469,114.25900268554688 -69.68099975585938,93.572998046875 -94.0199966430664,65.39900207519531"></path></g></g><g opacity="1" transform="matrix(1,0,0,1,0,0)"><path fill="url(#__lottie_element_12)" fill-opacity="1" d=" M86.56700134277344,-144.25999450683594 C86.56700134277344,-144.25999450683594 126.24199676513672,-72.93599700927734 97.39700317382812,-1.5529999732971191 C68.552001953125,69.83000183105469 77.78700256347656,49.57400131225586 77.78700256347656,49.57400131225586 C77.78700256347656,49.57400131225586 120.14600372314453,-8.595000267028809 118.90699768066406,-68.37999725341797 C117.66799926757812,-128.1649932861328 86.56700134277344,-144.25999450683594 86.56700134277344,-144.25999450683594z"></path></g><g opacity="1" transform="matrix(0.9239444136619568,-0.19505932927131653,0.43647339940071106,2.0674588680267334,48.319908142089844,119.01539611816406)"><path fill="url(#__lottie_element_13)" fill-opacity="0.4" d=" M71.97100067138672,-89.10399627685547 C73.77999877929688,-86.18599700927734 92.15299987792969,-80.48600006103516 96.9260025024414,-74.7969970703125 C99.16400146484375,-72.12899780273438 90.61900329589844,-65.32099914550781 90.61900329589844,-65.32099914550781 C101.5999984741211,-65.77300262451172 113.64199829101562,-71.75399780273438 114.43599700927734,-90.72899627685547 C115.2969970703125,-111.3010025024414 94.04100036621094,-121.24400329589844 83.05999755859375,-120.79199981689453 C72.0790023803711,-120.33999633789062 60.167999267578125,-108.13899993896484 71.97100067138672,-89.10399627685547z"></path></g><g opacity="1" transform="matrix(-0.9321290850639343,-0.14923614263534546,-0.3340470790863037,2.086458206176758,-33.75444793701172,126.54927062988281)"><path fill="url(#__lottie_element_14)" fill-opacity="0.4" d=" M71.97100067138672,-89.10399627685547 C73.77999877929688,-86.18599700927734 92.15299987792969,-80.48600006103516 96.9260025024414,-74.7969970703125 C99.16400146484375,-72.12899780273438 90.61900329589844,-65.32099914550781 90.61900329589844,-65.32099914550781 C101.5999984741211,-65.77300262451172 113.64199829101562,-71.75399780273438 114.43599700927734,-90.72899627685547 C115.2969970703125,-111.3010025024414 94.04100036621094,-121.24400329589844 83.05999755859375,-120.79199981689453 C72.0790023803711,-120.33999633789062 60.167999267578125,-108.13899993896484 71.97100067138672,-89.10399627685547z"></path></g><g opacity="1" transform="matrix(1,0,0,1,0,0)"><path fill="url(#__lottie_element_15)" fill-opacity="1" d=" M-96.9020004272461,-48.361000061035156 C-96.9020004272461,-48.361000061035156 -43.066001892089844,-111.45700073242188 8.074999809265137,-122.3280029296875 C40.42399978637695,-129.20399475097656 57.68600082397461,-96.9469985961914 104.72200012207031,-58.50199890136719 C104.72200012207031,-58.50199890136719 25.573999404907227,-110.28500366210938 0.07800000160932541,-109.23600006103516 C-25.417999267578125,-108.18699645996094 -96.9020004272461,-48.361000061035156 -96.9020004272461,-48.361000061035156z"></path></g></g></g></svg>