<svg xmlns="http://www.w3.org/2000/svg" xmlns:xlink="http://www.w3.org/1999/xlink" viewBox="0 0 512 512" width="512" height="512" style="width: 100%; height: 100%; transform: translate3d(0,0,0); content-visibility: visible;" preserveAspectRatio="xMidYMid meet"><defs><clipPath id="__lottie_element_2"><rect width="512" height="512" x="0" y="0"></rect></clipPath><linearGradient id="__lottie_element_6" spreadMethod="pad" gradientUnits="userSpaceOnUse" x1="3" y1="129.5" x2="-0.27300000190734863" y2="-26.386999130249023"><stop offset="0%" stop-color="rgb(0,0,0)" stop-opacity="1"></stop><stop offset="66%" stop-color="rgb(0,0,0)" stop-opacity="0.5"></stop><stop offset="100%" stop-color="rgb(0,0,0)" stop-opacity="0"></stop></linearGradient><linearGradient id="__lottie_element_7" spreadMethod="pad" gradientUnits="userSpaceOnUse" x1="1" y1="-188" x2="1.6369999647140503" y2="-142.27099609375"><stop offset="0%" stop-color="rgb(152,152,152)" stop-opacity="1"></stop><stop offset="50%" stop-color="rgb(152,152,152)" stop-opacity="0.5"></stop><stop offset="100%" stop-color="rgb(152,152,152)" stop-opacity="0"></stop></linearGradient><linearGradient id="__lottie_element_8" spreadMethod="pad" gradientUnits="userSpaceOnUse" x1="-68" y1="25" x2="-69.9489974975586" y2="-112.06300354003906"><stop offset="0%" stop-color="rgb(84,84,84)"></stop><stop offset="62%" stop-color="rgb(135,135,135)"></stop><stop offset="100%" stop-color="rgb(186,186,186)"></stop></linearGradient><linearGradient id="__lottie_element_9" spreadMethod="pad" gradientUnits="userSpaceOnUse" x1="-68" y1="-92" x2="-57.98899841308594" y2="-133.0469970703125"><stop offset="0%" stop-color="rgb(0,0,0)" stop-opacity="1"></stop><stop offset="50%" stop-color="rgb(0,0,0)" stop-opacity="0.5"></stop><stop offset="100%" stop-color="rgb(0,0,0)" stop-opacity="0"></stop></linearGradient><linearGradient id="__lottie_element_10" spreadMethod="pad" gradientUnits="userSpaceOnUse" x1="25" y1="-87" x2="23.719999313354492" y2="-130.53599548339844"><stop offset="0%" stop-color="rgb(0,0,0)" stop-opacity="1"></stop><stop offset="50%" stop-color="rgb(0,0,0)" stop-opacity="0.5"></stop><stop offset="100%" stop-color="rgb(0,0,0)" stop-opacity="0"></stop></linearGradient><linearGradient id="__lottie_element_15" spreadMethod="pad" gradientUnits="userSpaceOnUse" x1="0" y1="119" x2="0" y2="215.27200317382812"><stop offset="31%" stop-color="rgb(155,0,85)"></stop><stop offset="54%" stop-color="rgb(182,0,91)"></stop><stop offset="100%" stop-color="rgb(208,0,96)"></stop></linearGradient><linearGradient id="__lottie_element_16" spreadMethod="pad" gradientUnits="userSpaceOnUse" x1="1.5" y1="137.75" x2="2.4030001163482666" y2="172.34300231933594"><stop offset="0%" stop-color="rgb(188,184,188)"></stop><stop offset="31%" stop-color="rgb(212,210,212)"></stop><stop offset="100%" stop-color="rgb(237,237,237)"></stop></linearGradient><radialGradient id="__lottie_element_17" spreadMethod="pad" gradientUnits="userSpaceOnUse" cx="-1" cy="36" r="77.26699829101562" fx="-1" fy="36"><stop offset="48%" stop-color="rgb(188,184,188)"></stop><stop offset="93%" stop-color="rgb(214,212,214)"></stop><stop offset="100%" stop-color="rgb(240,240,240)"></stop></radialGradient><linearGradient id="__lottie_element_18" spreadMethod="pad" gradientUnits="userSpaceOnUse" x1="-101" y1="163" x2="-49.986000061035156" y2="187.92100524902344"><stop offset="14%" stop-color="rgb(45,45,45)"></stop><stop offset="67%" stop-color="rgb(30,30,30)"></stop><stop offset="100%" stop-color="rgb(15,15,15)"></stop></linearGradient><linearGradient id="__lottie_element_19" spreadMethod="pad" gradientUnits="userSpaceOnUse" x1="-101" y1="110" x2="-100.32099914550781" y2="207.76300048828125"><stop offset="0%" stop-color="rgb(255,255,255)" stop-opacity="1"></stop><stop offset="37%" stop-color="rgb(255,255,255)" stop-opacity="0.5"></stop><stop offset="100%" stop-color="rgb(255,255,255)" stop-opacity="0"></stop></linearGradient><linearGradient id="__lottie_element_20" spreadMethod="pad" gradientUnits="userSpaceOnUse" x1="-114.93800354003906" y1="209" x2="-102.1510009765625" y2="199.17300415039062"><stop offset="30%" stop-color="rgb(15,15,15)" stop-opacity="1"></stop><stop offset="67%" stop-color="rgb(15,15,15)" stop-opacity="0.5"></stop><stop offset="100%" stop-color="rgb(15,15,15)" stop-opacity="0"></stop></linearGradient><linearGradient id="__lottie_element_21" spreadMethod="pad" gradientUnits="userSpaceOnUse" x1="-101" y1="163" x2="-49.986000061035156" y2="187.92100524902344"><stop offset="14%" stop-color="rgb(45,45,45)"></stop><stop offset="67%" stop-color="rgb(30,30,30)"></stop><stop offset="100%" stop-color="rgb(15,15,15)"></stop></linearGradient><linearGradient id="__lottie_element_22" spreadMethod="pad" gradientUnits="userSpaceOnUse" x1="-101" y1="110" x2="-100.32099914550781" y2="207.76300048828125"><stop offset="0%" stop-color="rgb(255,255,255)" stop-opacity="1"></stop><stop offset="37%" stop-color="rgb(255,255,255)" stop-opacity="0.5"></stop><stop offset="100%" stop-color="rgb(255,255,255)" stop-opacity="0"></stop></linearGradient><linearGradient id="__lottie_element_23" spreadMethod="pad" gradientUnits="userSpaceOnUse" x1="-114.93800354003906" y1="209" x2="-102.1510009765625" y2="199.17300415039062"><stop offset="30%" stop-color="rgb(15,15,15)" stop-opacity="1"></stop><stop offset="67%" stop-color="rgb(15,15,15)" stop-opacity="0.5"></stop><stop offset="100%" stop-color="rgb(15,15,15)" stop-opacity="0"></stop></linearGradient><linearGradient id="__lottie_element_26" spreadMethod="pad" gradientUnits="userSpaceOnUse" x1="0" y1="23.875" x2="0" y2="41.415000915527344"><stop offset="0%" stop-color="rgb(255,168,0)" stop-opacity="1"></stop><stop offset="60%" stop-color="rgb(255,168,0)" stop-opacity="0.5"></stop><stop offset="100%" stop-color="rgb(255,168,0)" stop-opacity="0"></stop></linearGradient><linearGradient id="__lottie_element_27" spreadMethod="pad" gradientUnits="userSpaceOnUse" x1="0" y1="40.03099822998047" x2="0" y2="15.696000099182129"><stop offset="11%" stop-color="rgb(219,110,0)" stop-opacity="1"></stop><stop offset="51%" stop-color="rgb(219,110,0)" stop-opacity="0.5149999856948853"></stop><stop offset="80%" stop-color="rgb(219,110,0)" stop-opacity="0.029999999329447746"></stop></linearGradient><radialGradient id="__lottie_element_28" spreadMethod="pad" gradientUnits="userSpaceOnUse" cx="0.25" cy="11" r="20.736000061035156" fx="0.25" fy="11"><stop offset="36%" stop-color="rgb(255,168,0)" stop-opacity="0"></stop><stop offset="74%" stop-color="rgb(255,168,0)" stop-opacity="0.5"></stop><stop offset="100%" stop-color="rgb(255,168,0)" stop-opacity="1"></stop></radialGradient><linearGradient id="__lottie_element_29" spreadMethod="pad" gradientUnits="userSpaceOnUse" x1="0.06199999898672104" y1="9.062000274658203" x2="0.31200000643730164" y2="20.20800018310547"><stop offset="0%" stop-color="rgb(255,255,255)" stop-opacity="1"></stop><stop offset="60%" stop-color="rgb(255,255,255)" stop-opacity="0.5"></stop><stop offset="100%" stop-color="rgb(255,255,255)" stop-opacity="0"></stop></linearGradient><radialGradient id="__lottie_element_33" spreadMethod="pad" gradientUnits="userSpaceOnUse" cx="0" cy="65" r="27.795000076293945" fx="0" fy="65"><stop offset="10%" stop-color="rgb(219,110,0)" stop-opacity="1"></stop><stop offset="66%" stop-color="rgb(219,110,0)" stop-opacity="0.5"></stop><stop offset="100%" stop-color="rgb(219,110,0)" stop-opacity="0"></stop></radialGradient><radialGradient id="__lottie_element_34" spreadMethod="pad" gradientUnits="userSpaceOnUse" cx="1" cy="46" r="35.1879997253418" fx="1" fy="46"><stop offset="0%" stop-color="rgb(75,0,7)" stop-opacity="0"></stop><stop offset="76%" stop-color="rgb(75,0,7)" stop-opacity="0.5"></stop><stop offset="100%" stop-color="rgb(75,0,7)" stop-opacity="1"></stop></radialGradient><linearGradient id="__lottie_element_41" spreadMethod="pad" gradientUnits="userSpaceOnUse" x1="-59.125" y1="-34.5" x2="-41.625" y2="-10.817999839782715"><stop offset="0%" stop-color="rgb(38,0,6)"></stop><stop offset="37%" stop-color="rgb(116,0,3)"></stop><stop offset="100%" stop-color="rgb(193,0,0)"></stop></linearGradient><radialGradient id="__lottie_element_42" spreadMethod="pad" gradientUnits="userSpaceOnUse" cx="-44" cy="-15" r="12.096000671386719" fx="-44" fy="-15"><stop offset="0%" stop-color="rgb(255,0,0)" stop-opacity="1"></stop><stop offset="50%" stop-color="rgb(255,0,0)" stop-opacity="0.5"></stop><stop offset="100%" stop-color="rgb(255,0,0)" stop-opacity="0"></stop></radialGradient><linearGradient id="__lottie_element_43" spreadMethod="pad" gradientUnits="userSpaceOnUse" x1="-60" y1="-41" x2="-60" y2="-31.71299934387207"><stop offset="0%" stop-color="rgb(255,255,255)" stop-opacity="1"></stop><stop offset="60%" stop-color="rgb(255,255,255)" stop-opacity="0.5"></stop><stop offset="100%" stop-color="rgb(255,255,255)" stop-opacity="0"></stop></linearGradient><linearGradient id="__lottie_element_44" spreadMethod="pad" gradientUnits="userSpaceOnUse" x1="-59.125" y1="-34.5" x2="-41.625" y2="-10.817999839782715"><stop offset="0%" stop-color="rgb(38,0,6)"></stop><stop offset="37%" stop-color="rgb(116,0,3)"></stop><stop offset="100%" stop-color="rgb(193,0,0)"></stop></linearGradient><radialGradient id="__lottie_element_45" spreadMethod="pad" gradientUnits="userSpaceOnUse" cx="-44" cy="-15" r="12.096000671386719" fx="-44" fy="-15"><stop offset="0%" stop-color="rgb(255,0,0)" stop-opacity="1"></stop><stop offset="50%" stop-color="rgb(255,0,0)" stop-opacity="0.5"></stop><stop offset="100%" stop-color="rgb(255,0,0)" stop-opacity="0"></stop></radialGradient><linearGradient id="__lottie_element_46" spreadMethod="pad" gradientUnits="userSpaceOnUse" x1="-60" y1="-41" x2="-60" y2="-31.71299934387207"><stop offset="0%" stop-color="rgb(255,255,255)" stop-opacity="1"></stop><stop offset="60%" stop-color="rgb(255,255,255)" stop-opacity="0.5"></stop><stop offset="100%" stop-color="rgb(255,255,255)" stop-opacity="0"></stop></linearGradient><linearGradient id="__lottie_element_50" spreadMethod="pad" gradientUnits="userSpaceOnUse" x1="-1" y1="-99" x2="2.496000051498413" y2="81.04299926757812"><stop offset="9%" stop-color="rgb(255,216,0)" stop-opacity="0"></stop><stop offset="15%" stop-color="rgb(255,216,0)" stop-opacity="0.5"></stop><stop offset="50%" stop-color="rgb(255,216,0)" stop-opacity="1"></stop><stop offset="88%" stop-color="rgb(255,216,0)" stop-opacity="0.5"></stop><stop offset="100%" stop-color="rgb(255,216,0)" stop-opacity="0"></stop></linearGradient><linearGradient id="__lottie_element_51" spreadMethod="pad" gradientUnits="userSpaceOnUse" x1="-1" y1="-102" x2="-0.4950000047683716" y2="-51.104000091552734"><stop offset="0%" stop-color="rgb(219,110,0)" stop-opacity="1"></stop><stop offset="38%" stop-color="rgb(219,110,0)" stop-opacity="0.5"></stop><stop offset="71%" stop-color="rgb(219,110,0)" stop-opacity="0"></stop></linearGradient><linearGradient id="__lottie_element_55" spreadMethod="pad" gradientUnits="userSpaceOnUse" x1="122" y1="-35" x2="131.76300048828125" y2="-24.69499969482422"><stop offset="0%" stop-color="rgb(255,216,0)" stop-opacity="1"></stop><stop offset="54%" stop-color="rgb(255,216,0)" stop-opacity="0.5249999761581421"></stop><stop offset="100%" stop-color="rgb(255,216,0)" stop-opacity="0.05000000074505806"></stop></linearGradient><linearGradient id="__lottie_element_56" spreadMethod="pad" gradientUnits="userSpaceOnUse" x1="-126" y1="-37.5" x2="-132.23699951171875" y2="-27.69499969482422"><stop offset="0%" stop-color="rgb(255,216,0)" stop-opacity="1"></stop><stop offset="54%" stop-color="rgb(255,216,0)" stop-opacity="0.5"></stop><stop offset="100%" stop-color="rgb(255,216,0)" stop-opacity="0"></stop></linearGradient><linearGradient id="__lottie_element_66" spreadMethod="pad" gradientUnits="userSpaceOnUse" x1="108" y1="-45" x2="90.72200012207031" y2="-98.07099914550781"><stop offset="0%" stop-color="rgb(208,0,0)"></stop><stop offset="59%" stop-color="rgb(150,12,12)"></stop><stop offset="95%" stop-color="rgb(92,24,24)"></stop></linearGradient><radialGradient id="__lottie_element_67" spreadMethod="pad" gradientUnits="userSpaceOnUse" cx="27.25" cy="50" r="79.8270034790039" fx="27.25" fy="50"><stop offset="23%" stop-color="rgb(92,24,24)"></stop><stop offset="85%" stop-color="rgb(150,12,12)"></stop><stop offset="100%" stop-color="rgb(208,0,0)"></stop></radialGradient><linearGradient id="__lottie_element_68" spreadMethod="pad" gradientUnits="userSpaceOnUse" x1="118" y1="64" x2="147.6999969482422" y2="-124.4800033569336"><stop offset="0%" stop-color="rgb(0,0,0)"></stop><stop offset="50%" stop-color="rgb(28,28,28)"></stop><stop offset="100%" stop-color="rgb(56,56,56)"></stop></linearGradient><linearGradient id="__lottie_element_69" spreadMethod="pad" gradientUnits="userSpaceOnUse" x1="108" y1="-45" x2="90.72200012207031" y2="-98.07099914550781"><stop offset="0%" stop-color="rgb(208,0,0)"></stop><stop offset="59%" stop-color="rgb(150,12,12)"></stop><stop offset="95%" stop-color="rgb(92,24,24)"></stop></linearGradient><radialGradient id="__lottie_element_70" spreadMethod="pad" gradientUnits="userSpaceOnUse" cx="27.25" cy="50" r="79.8270034790039" fx="27.25" fy="50"><stop offset="23%" stop-color="rgb(92,24,24)"></stop><stop offset="85%" stop-color="rgb(150,12,12)"></stop><stop offset="100%" stop-color="rgb(208,0,0)"></stop></radialGradient><linearGradient id="__lottie_element_71" spreadMethod="pad" gradientUnits="userSpaceOnUse" x1="118" y1="64" x2="147.6999969482422" y2="-124.4800033569336"><stop offset="0%" stop-color="rgb(0,0,0)"></stop><stop offset="50%" stop-color="rgb(28,28,28)"></stop><stop offset="100%" stop-color="rgb(56,56,56)"></stop></linearGradient></defs><g clip-path="url(#__lottie_element_2)"><g style="display: block;" transform="matrix(1,0,0,1,256,256)" opacity="1"><g opacity="1" transform="matrix(1,0,0,1,0,0)"><g opacity="1" transform="matrix(1,0,0,1,0,0)"><path fill="url(#__lottie_element_15)" fill-opacity="1" d=" M-46.2140007019043,217.6300048828125 C-46.2140007019043,217.6300048828125 -46.2140007019043,115.72799682617188 -46.2140007019043,115.72799682617188 C-33.90800094604492,113.62200164794922 -20.549999237060547,112.07099914550781 -6.209000110626221,111.21600341796875 C-6.209000110626221,111.21600341796875 8.682999610900879,111.5 8.682999610900879,111.5 C8.682999610900879,111.5 46.64799880981445,115.72899627685547 46.64799880981445,115.72899627685547 C46.64799880981445,115.72899627685547 46.64799880981445,217.6280059814453 46.64799880981445,217.6280059814453"></path></g><g opacity="1" transform="matrix(1,0,0,1,0,0)"><path fill="url(#__lottie_element_16)" fill-opacity="1" d=" M-36.37099838256836,86.58999633789062 C-36.37099838256836,86.58999633789062 -42.125,115.72899627685547 -42.125,115.72899627685547 C-42.125,118.88200378417969 1.6629999876022339,192.35299682617188 1.6629999876022339,192.35299682617188 C1.6629999876022339,192.35299682617188 41.69300079345703,118.24299621582031 41.69300079345703,115.177001953125 C41.69300079345703,115.177001953125 36.534000396728516,86.58999633789062 36.534000396728516,86.58999633789062 C36.534000396728516,86.58999633789062 -36.37099838256836,86.58999633789062 -36.37099838256836,86.58999633789062z"></path></g><g opacity="1" transform="matrix(1,0,0,1,0,0)"><path fill="rgb(144,155,157)" fill-opacity="0.3" d=" M0.9330000281333923,128.39300537109375 C0.9330000281333923,128.39300537109375 -6.703999996185303,145.17100524902344 -6.703999996185303,145.17100524902344 C-7.368000030517578,146.6300048828125 -9.062000274658203,147.3179931640625 -10.548999786376953,146.71800231933594 C-16.43000030517578,144.3419952392578 -30.55500030517578,137.42799377441406 -38.691001892089844,123.2770004272461 C-38.691001892089844,123.2770004272461 -35.6150016784668,103.27300262451172 -35.6150016784668,103.27300262451172 C-35.6150016784668,103.27300262451172 36.715999603271484,103.27300262451172 36.715999603271484,103.27300262451172 C36.715999603271484,103.27300262451172 40.73899841308594,123.18099975585938 40.73899841308594,123.18099975585938 C40.73899841308594,123.18099975585938 31.375999450683594,137.01800537109375 14.08899974822998,146.33799743652344 C12.633000373840332,147.1230010986328 10.8100004196167,146.57699584960938 10.020000457763672,145.1230010986328 C10.020000457763672,145.1230010986328 0.9330000281333923,128.39300537109375 0.9330000281333923,128.39300537109375z"></path></g><g opacity="1" transform="matrix(1,0,0,1,0,0)"><path fill="url(#__lottie_element_17)" fill-opacity="1" d=" M0.9330000281333923,107.76000213623047 C0.9330000281333923,107.76000213623047 -11.807999610900879,134.97300720214844 -11.807999610900879,134.97300720214844 C-11.807999610900879,134.97300720214844 -34.152000427246094,124.79399871826172 -44.61600112915039,106.59400177001953 C-44.61600112915039,106.59400177001953 -40.553001403808594,83.62699890136719 -40.553001403808594,83.62699890136719 C-40.553001403808594,83.62699890136719 40.66600036621094,84.61499786376953 40.66600036621094,84.61499786376953 C40.66600036621094,84.61499786376953 43.70199966430664,108.4729995727539 43.70199966430664,108.4729995727539 C43.70199966430664,108.4729995727539 32.38600158691406,125.70999908447266 13.39799976348877,134.97300720214844 C13.39799976348877,134.97300720214844 0.9330000281333923,107.76000213623047 0.9330000281333923,107.76000213623047z"></path><path stroke-linecap="round" stroke-linejoin="round" fill-opacity="0" stroke="rgb(151,163,164)" stroke-opacity="1" stroke-width="8" d=" M0.9330000281333923,107.76000213623047 C0.9330000281333923,107.76000213623047 -11.807999610900879,134.97300720214844 -11.807999610900879,134.97300720214844 C-11.807999610900879,134.97300720214844 -34.152000427246094,124.79399871826172 -44.61600112915039,106.59400177001953 C-44.61600112915039,106.59400177001953 -40.553001403808594,83.62699890136719 -40.553001403808594,83.62699890136719 C-40.553001403808594,83.62699890136719 40.66600036621094,84.61499786376953 40.66600036621094,84.61499786376953 C40.66600036621094,84.61499786376953 43.70199966430664,108.4729995727539 43.70199966430664,108.4729995727539 C43.70199966430664,108.4729995727539 32.38600158691406,125.70999908447266 13.39799976348877,134.97300720214844 C13.39799976348877,134.97300720214844 0.9330000281333923,107.76000213623047 0.9330000281333923,107.76000213623047z"></path></g><g opacity="1" transform="matrix(1,0,0,1,0,0)"><path fill="rgb(144,155,157)" fill-opacity="0.3" d=" M37.47600173950195,85.60700225830078 C37.47600173950195,85.60700225830078 0.9290000200271606,85.60700225830078 0.9290000200271606,85.60700225830078 C0.9290000200271606,85.60700225830078 -35.61899948120117,85.60700225830078 -35.61899948120117,85.60700225830078 C-35.61899948120117,85.60700225830078 -39.676998138427734,109.55400085449219 -39.676998138427734,109.55400085449219 C-35.27299880981445,117.20700073242188 -27.679000854492188,119.9520034790039 -22.632999420166016,123.99099731445312 C-22.899999618530273,123.3489990234375 -29.98900032043457,113.5719985961914 -24.48900032043457,107.27200317382812 C-18.8700008392334,100.83399963378906 -13.685999870300293,105.78099822998047 0.9290000200271606,105.78099822998047 C15.543999671936035,105.78099822998047 20.72800064086914,100.83399963378906 26.347000122070312,107.27200317382812 C31.847000122070312,113.5719985961914 24.756999969482422,123.3489990234375 24.489999771118164,123.99099731445312 C29.535999298095703,119.9520034790039 37.130001068115234,117.20700073242188 41.534000396728516,109.55400085449219 C41.534000396728516,109.55400085449219 37.47600173950195,85.60700225830078 37.47600173950195,85.60700225830078z"></path></g><g opacity="1" transform="matrix(1,0,0,1,0,0)"><path stroke-linecap="round" stroke-linejoin="round" fill-opacity="0" stroke="rgb(135,0,72)" stroke-opacity="1" stroke-width="8" d=" M43.667999267578125,110.95899963378906 C39.83700180053711,127.55699920654297 1.5219999551773071,192.35299682617188 1.5219999551773071,192.35299682617188 C1.5219999551773071,192.35299682617188 -40.34400177001953,125.61100006103516 -44.099998474121094,109.97200012207031"></path></g></g><g opacity="1" transform="matrix(1,0,0,1,0,0)"><g opacity="1" transform="matrix(1,0,0,1,0,0)"><path fill="url(#__lottie_element_18)" fill-opacity="1" d=" M-45.917999267578125,116.8489990234375 C-45.917999267578125,116.8489990234375 -45.917999267578125,218.09800720214844 -45.917999267578125,218.09800720214844 C-45.917999267578125,218.09800720214844 -118.50700378417969,218.09800720214844 -118.50700378417969,218.09800720214844 C-128.24000549316406,218.09800720214844 -135.48199462890625,217.1269989013672 -140.7899932861328,215.86099243164062 C-150.89700317382812,213.43699645996094 -154.0070037841797,209.93499755859375 -154.0070037841797,209.93499755859375 C-152.24099731445312,196.78700256347656 -147.43299865722656,170.88299560546875 -135.73699951171875,156.26300048828125 C-122.98200225830078,140.3280029296875 -91.81800079345703,124.6989974975586 -45.917999267578125,116.8489990234375z"></path></g><g opacity="1" transform="matrix(1,0,0,1,0,0)"><path fill="url(#__lottie_element_19)" fill-opacity="0.18" d=" M-45.917999267578125,116.8489990234375 C-45.917999267578125,116.8489990234375 -45.917999267578125,134.1179962158203 -45.917999267578125,134.1179962158203 C-45.917999267578125,134.1179962158203 -103.19100189208984,140.1719970703125 -125.66999816894531,168.0970001220703 C-134.18699645996094,178.6739959716797 -139.22000122070312,203.73300170898438 -140.7899932861328,215.86099243164062 C-150.89700317382812,213.43699645996094 -154.0070037841797,209.93499755859375 -154.0070037841797,209.93499755859375 C-152.24099731445312,196.78700256347656 -147.43299865722656,170.88299560546875 -135.73699951171875,156.26300048828125 C-122.98200225830078,140.3280029296875 -91.81800079345703,124.6989974975586 -45.917999267578125,116.8489990234375z"></path></g><g opacity="1" transform="matrix(1,0,0,1,0,0)"><path fill="url(#__lottie_element_20)" fill-opacity="0.6" d=" M-85.86199951171875,218.09800720214844 C-85.86199951171875,218.09800720214844 -107.93299865722656,217.61399841308594 -116.7490005493164,217.94000244140625 C-121.41400146484375,218.11300659179688 -122.5719985961914,206.11000061035156 -127.17900085449219,191.13800048828125 C-129.55499267578125,183.41600036621094 -132.55499267578125,175.2760009765625 -126.50599670410156,171.95700073242188 C-120.45700073242188,168.63800048828125 -88.95099639892578,213.26400756835938 -85.86199951171875,218.09800720214844z"></path></g><g opacity="1" transform="matrix(1,0,0,1,0,0)"><g opacity="1" transform="matrix(1,0,0,1,0,0)"><path fill="rgb(0,0,0)" fill-opacity="1" d=" M-149.98800659179688,203.3769989013672 C-149.98800659179688,203.3769989013672 -150.69200134277344,208.58299255371094 -151.13900756835938,212.01699829101562 C-151.13900756835938,212.01699829101562 -158.41400146484375,208.031005859375 -157.86700439453125,203.57400512695312 C-157.86700439453125,203.57400512695312 -149.98800659179688,203.3769989013672 -149.98800659179688,203.3769989013672z"></path></g><g opacity="1" transform="matrix(1,0,0,1,0,0)"><path stroke-linecap="round" stroke-linejoin="round" fill-opacity="0" stroke="rgb(0,0,0)" stroke-opacity="1" stroke-width="8" d=" M-154.0070037841797,203.99400329589844 C-152.99099731445312,196.00900268554688 -149.33299255371094,173.26400756835938 -135.73699951171875,156.26300048828125 C-122.98200225830078,140.3280029296875 -91.81800079345703,124.6989974975586 -45.917999267578125,116.8489990234375 C-45.917999267578125,116.8489990234375 -45.917999267578125,213.19200134277344 -45.917999267578125,213.19200134277344"></path></g></g><g opacity="1" transform="matrix(1,0,0,1,0,0)"><path stroke-linecap="round" stroke-linejoin="round" fill-opacity="0" stroke="rgb(0,0,0)" stroke-opacity="1" stroke-width="5" d=" M-129.25900268554688,176.531005859375 C-127.32499694824219,187.09100341796875 -124.27300262451172,200.09800720214844 -119.23899841308594,214.9600067138672"></path></g></g><g opacity="1" transform="matrix(-1,0,0,1,0.43799999356269836,0)"><g opacity="1" transform="matrix(1,0,0,1,0,0)"><path fill="url(#__lottie_element_21)" fill-opacity="1" d=" M-45.917999267578125,116.8489990234375 C-45.917999267578125,116.8489990234375 -45.917999267578125,218.09800720214844 -45.917999267578125,218.09800720214844 C-45.917999267578125,218.09800720214844 -118.50700378417969,218.09800720214844 -118.50700378417969,218.09800720214844 C-128.24000549316406,218.09800720214844 -135.48199462890625,217.1269989013672 -140.7899932861328,215.86099243164062 C-150.89700317382812,213.43699645996094 -154.0070037841797,209.93499755859375 -154.0070037841797,209.93499755859375 C-152.24099731445312,196.78700256347656 -147.43299865722656,170.88299560546875 -135.73699951171875,156.26300048828125 C-122.98200225830078,140.3280029296875 -91.81800079345703,124.6989974975586 -45.917999267578125,116.8489990234375z"></path></g><g opacity="1" transform="matrix(1,0,0,1,0,0)"><path fill="url(#__lottie_element_22)" fill-opacity="0.18" d=" M-45.917999267578125,116.8489990234375 C-45.917999267578125,116.8489990234375 -45.917999267578125,134.1179962158203 -45.917999267578125,134.1179962158203 C-45.917999267578125,134.1179962158203 -103.19100189208984,140.1719970703125 -125.66999816894531,168.0970001220703 C-134.18699645996094,178.6739959716797 -139.22000122070312,203.73300170898438 -140.7899932861328,215.86099243164062 C-150.89700317382812,213.43699645996094 -154.0070037841797,209.93499755859375 -154.0070037841797,209.93499755859375 C-152.24099731445312,196.78700256347656 -147.43299865722656,170.88299560546875 -135.73699951171875,156.26300048828125 C-122.98200225830078,140.3280029296875 -91.81800079345703,124.6989974975586 -45.917999267578125,116.8489990234375z"></path></g><g opacity="1" transform="matrix(1,0,0,1,0,0)"><path fill="url(#__lottie_element_23)" fill-opacity="0.6" d=" M-85.86199951171875,218.09800720214844 C-85.86199951171875,218.09800720214844 -107.93299865722656,217.61399841308594 -116.7490005493164,217.94000244140625 C-121.41400146484375,218.11300659179688 -122.5719985961914,206.11000061035156 -127.17900085449219,191.13800048828125 C-129.55499267578125,183.41600036621094 -132.55499267578125,175.2760009765625 -126.50599670410156,171.95700073242188 C-120.45700073242188,168.63800048828125 -88.95099639892578,213.26400756835938 -85.86199951171875,218.09800720214844z"></path></g><g opacity="1" transform="matrix(1,0,0,1,0,0)"><g opacity="1" transform="matrix(1,0,0,1,0,0)"><path fill="rgb(0,0,0)" fill-opacity="1" d=" M-149.98800659179688,203.3769989013672 C-149.98800659179688,203.3769989013672 -150.69200134277344,208.58299255371094 -151.13900756835938,212.01699829101562 C-151.13900756835938,212.01699829101562 -158.41400146484375,208.031005859375 -157.86700439453125,203.57400512695312 C-157.86700439453125,203.57400512695312 -149.98800659179688,203.3769989013672 -149.98800659179688,203.3769989013672z"></path></g><g opacity="1" transform="matrix(1,0,0,1,0,0)"><path stroke-linecap="round" stroke-linejoin="round" fill-opacity="0" stroke="rgb(0,0,0)" stroke-opacity="1" stroke-width="8" d=" M-154.0070037841797,203.99400329589844 C-152.99099731445312,196.00900268554688 -149.33299255371094,173.26400756835938 -135.73699951171875,156.26300048828125 C-122.98200225830078,140.3280029296875 -91.81800079345703,124.6989974975586 -45.917999267578125,116.8489990234375 C-45.917999267578125,116.8489990234375 -45.917999267578125,213.19200134277344 -45.917999267578125,213.19200134277344"></path></g></g><g opacity="1" transform="matrix(1,0,0,1,0,0)"><path stroke-linecap="round" stroke-linejoin="round" fill-opacity="0" stroke="rgb(0,0,0)" stroke-opacity="1" stroke-width="5" d=" M-129.25900268554688,176.531005859375 C-127.32499694824219,187.09100341796875 -124.27300262451172,200.09800720214844 -119.23899841308594,214.9600067138672"></path></g></g></g><g style="display: block;" transform="matrix(1,0,0,1,256,256)" opacity="1"><g opacity="1" transform="matrix(-1,0,0,1,0,0)"><g opacity="1" transform="matrix(1,0,0,1,0,0)"><path fill="url(#__lottie_element_66)" fill-opacity="1" d=" M1.2430000305175781,-84.6500015258789 C88.12899780273438,-83.49700164794922 159.4040069580078,-115.8290023803711 196.97500610351562,-146.3520050048828 C196.97500610351562,-146.3520050048828 200.29800415039062,-82.60399627685547 190.6219940185547,-40.02299880981445 C183.58399963378906,-9.048999786376953 156.35299682617188,67.63700103759766 49.15299987792969,142.83799743652344 C49.15299987792969,142.83799743652344 43.39500045776367,81.63999938964844 18.413999557495117,43.643001556396484 C-14.71500015258789,-6.748000144958496 1.2430000305175781,-84.6500015258789 1.2430000305175781,-84.6500015258789z"></path></g><g opacity="1" transform="matrix(1,0,0,1,0,-2.5)"><path fill="url(#__lottie_element_67)" fill-opacity="1" d=" M28.29800033569336,65.13700103759766 C28.29800033569336,65.14700317382812 28.29800033569336,65.14700317382812 28.29800033569336,65.14700317382812 C42.38800048828125,100.13600158691406 42.44900131225586,123.41400146484375 42.44900131225586,123.41400146484375 C42.547000885009766,123.34500122070312 53.3489990234375,136.74000549316406 50.49399948120117,132.91799926757812 C66.09500122070312,125.50399780273438 67.63200378417969,118.30999755859375 85.01499938964844,100.31300354003906 C131.31100463867188,52.38199996948242 94.89700317382812,0.3269999921321869 94.89700317382812,0.3269999921321869 C53.03900146484375,-13.77299976348877 39.49300003051758,27.479000091552734 28.29800033569336,65.13700103759766z"></path></g><g opacity="1" transform="matrix(1,0,0,1,0,0)"><path stroke-linecap="round" stroke-linejoin="round" fill-opacity="0" stroke="rgb(193,47,47)" stroke-opacity="1" stroke-width="8" d=" M1.2430000305175781,-84.6500015258789 C88.12899780273438,-83.49700164794922 159.4040069580078,-115.8290023803711 196.97500610351562,-146.3520050048828 C196.97500610351562,-146.3520050048828 200.29800415039062,-82.60399627685547 190.6219940185547,-40.02299880981445 C183.58399963378906,-9.048999786376953 156.35299682617188,67.63700103759766 49.15299987792969,142.83799743652344 C49.15299987792969,142.83799743652344 43.39500045776367,81.63999938964844 18.413999557495117,43.643001556396484 C-14.71500015258789,-6.748000144958496 1.2430000305175781,-84.6500015258789 1.2430000305175781,-84.6500015258789z"></path></g><g opacity="1" transform="matrix(1,0,0,1,0,0)"><path stroke-linecap="round" stroke-linejoin="round" fill-opacity="0" stroke="rgb(82,6,6)" stroke-opacity="1" stroke-width="8" d=" M49.15299987792969,142.83799743652344 C49.15299987792969,142.83799743652344 43.39500045776367,81.63999938964844 18.413999557495117,43.643001556396484"></path></g><g opacity="1" transform="matrix(1,0,0,1,0,0)"><path fill="url(#__lottie_element_68)" fill-opacity="1" d=" M49.15299987792969,142.83799743652344 C157.26100158691406,70.67400360107422 184.625,-9.350000381469727 191.6060028076172,-40.02299880981445 C201.28399658203125,-82.60900115966797 196.9770050048828,-146.35699462890625 196.9770050048828,-146.35699462890625 C189.55799865722656,-158.48599243164062 174.63900756835938,-166.30499267578125 174.63900756835938,-166.30499267578125 C174.63900756835938,-166.30499267578125 175.3939971923828,-150.95700073242188 175.6269989013672,-131.69200134277344 C176.01600646972656,-98.43000030517578 174.83700561523438,-47.78499984741211 165.49000549316406,-18.871999740600586 C133.44900512695312,80.25599670410156 64.802001953125,132.05499267578125 49.15299987792969,142.83799743652344z"></path></g><g opacity="1" transform="matrix(1,0,0,1,0,0)"><path stroke-linecap="round" stroke-linejoin="round" fill-opacity="0" stroke="rgb(0,0,0)" stroke-opacity="1" stroke-width="8" d=" M49.15299987792969,142.83799743652344 C157.26100158691406,70.67400360107422 184.625,-9.350000381469727 191.6060028076172,-40.02299880981445 C201.28399658203125,-82.60900115966797 196.9770050048828,-146.35699462890625 196.9770050048828,-146.35699462890625 C189.55799865722656,-158.48599243164062 174.63900756835938,-166.30499267578125 174.63900756835938,-166.30499267578125 C174.63900756835938,-166.30499267578125 175.3939971923828,-150.95700073242188 175.6269989013672,-131.69200134277344 C176.01600646972656,-98.43000030517578 174.83700561523438,-47.78499984741211 165.49000549316406,-18.871999740600586 C133.44900512695312,80.25599670410156 64.802001953125,132.05499267578125 49.15299987792969,142.83799743652344z"></path></g></g><g opacity="1" transform="matrix(1,0,0,1,0.25,0)"><g opacity="1" transform="matrix(1,0,0,1,0,0)"><path fill="url(#__lottie_element_69)" fill-opacity="1" d=" M1.2430000305175781,-84.6500015258789 C88.12899780273438,-83.49700164794922 159.4040069580078,-115.8290023803711 196.97500610351562,-146.3520050048828 C196.97500610351562,-146.3520050048828 200.29800415039062,-82.60399627685547 190.6219940185547,-40.02299880981445 C183.58399963378906,-9.048999786376953 156.35299682617188,67.63700103759766 49.15299987792969,142.83799743652344 C49.15299987792969,142.83799743652344 43.39500045776367,81.63999938964844 18.413999557495117,43.643001556396484 C-14.71500015258789,-6.748000144958496 1.2430000305175781,-84.6500015258789 1.2430000305175781,-84.6500015258789z"></path></g><g opacity="1" transform="matrix(1,0,0,1,0,-2.5)"><path fill="url(#__lottie_element_70)" fill-opacity="1" d=" M28.29800033569336,65.13700103759766 C28.29800033569336,65.14700317382812 28.29800033569336,65.14700317382812 28.29800033569336,65.14700317382812 C42.38800048828125,100.13600158691406 42.44900131225586,123.41400146484375 42.44900131225586,123.41400146484375 C42.547000885009766,123.34500122070312 53.3489990234375,136.74000549316406 50.49399948120117,132.91799926757812 C66.09500122070312,125.50399780273438 67.63200378417969,118.30999755859375 85.01499938964844,100.31300354003906 C131.31100463867188,52.38199996948242 94.89700317382812,0.3269999921321869 94.89700317382812,0.3269999921321869 C53.03900146484375,-13.77299976348877 39.49300003051758,27.479000091552734 28.29800033569336,65.13700103759766z"></path></g><g opacity="1" transform="matrix(1,0,0,1,0,0)"><path stroke-linecap="round" stroke-linejoin="round" fill-opacity="0" stroke="rgb(193,47,47)" stroke-opacity="1" stroke-width="8" d=" M1.2430000305175781,-84.6500015258789 C88.12899780273438,-83.49700164794922 159.4040069580078,-115.8290023803711 196.97500610351562,-146.3520050048828 C196.97500610351562,-146.3520050048828 200.29800415039062,-82.60399627685547 190.6219940185547,-40.02299880981445 C183.58399963378906,-9.048999786376953 156.35299682617188,67.63700103759766 49.15299987792969,142.83799743652344 C49.15299987792969,142.83799743652344 43.39500045776367,81.63999938964844 18.413999557495117,43.643001556396484 C-14.71500015258789,-6.748000144958496 1.2430000305175781,-84.6500015258789 1.2430000305175781,-84.6500015258789z"></path></g><g opacity="1" transform="matrix(1,0,0,1,0,0)"><path stroke-linecap="round" stroke-linejoin="round" fill-opacity="0" stroke="rgb(82,6,6)" stroke-opacity="1" stroke-width="8" d=" M49.15299987792969,142.83799743652344 C49.15299987792969,142.83799743652344 43.39500045776367,81.63999938964844 18.413999557495117,43.643001556396484"></path></g><g opacity="1" transform="matrix(1,0,0,1,0,0)"><path fill="url(#__lottie_element_71)" fill-opacity="1" d=" M49.15299987792969,142.83799743652344 C157.26100158691406,70.67400360107422 184.625,-9.350000381469727 191.6060028076172,-40.02299880981445 C201.28399658203125,-82.60900115966797 196.9770050048828,-146.35699462890625 196.9770050048828,-146.35699462890625 C189.55799865722656,-158.48599243164062 174.63900756835938,-166.30499267578125 174.63900756835938,-166.30499267578125 C174.63900756835938,-166.30499267578125 175.3939971923828,-150.95700073242188 175.6269989013672,-131.69200134277344 C176.01600646972656,-98.43000030517578 174.83700561523438,-47.78499984741211 165.49000549316406,-18.871999740600586 C133.44900512695312,80.25599670410156 64.802001953125,132.05499267578125 49.15299987792969,142.83799743652344z"></path></g><g opacity="1" transform="matrix(1,0,0,1,0,0)"><path stroke-linecap="round" stroke-linejoin="round" fill-opacity="0" stroke="rgb(0,0,0)" stroke-opacity="1" stroke-width="8" d=" M49.15299987792969,142.83799743652344 C157.26100158691406,70.67400360107422 184.625,-9.350000381469727 191.6060028076172,-40.02299880981445 C201.28399658203125,-82.60900115966797 196.9770050048828,-146.35699462890625 196.9770050048828,-146.35699462890625 C189.55799865722656,-158.48599243164062 174.63900756835938,-166.30499267578125 174.63900756835938,-166.30499267578125 C174.63900756835938,-166.30499267578125 175.3939971923828,-150.95700073242188 175.6269989013672,-131.69200134277344 C176.01600646972656,-98.43000030517578 174.83700561523438,-47.78499984741211 165.49000549316406,-18.871999740600586 C133.44900512695312,80.25599670410156 64.802001953125,132.05499267578125 49.15299987792969,142.83799743652344z"></path></g></g></g><g style="display: block;" transform="matrix(1,0,0,1,256,256)" opacity="1"><g opacity="1" transform="matrix(1,0,0,1,0,0)"><path fill="rgb(179,145,0)" fill-opacity="1" d=" M-41.308998107910156,140.76699829101562 C-41.308998107910156,145.1020050048828 -45.06999969482422,148.61599731445312 -49.70899963378906,148.61599731445312 C-54.347999572753906,148.61599731445312 -58.10900115966797,145.1020050048828 -58.10900115966797,140.76699829101562 C-58.10900115966797,136.4320068359375 -54.347999572753906,132.91799926757812 -49.70899963378906,132.91799926757812 C-45.06999969482422,132.91799926757812 -41.308998107910156,136.4320068359375 -41.308998107910156,140.76699829101562z"></path><path stroke-linecap="round" stroke-linejoin="round" fill-opacity="0" stroke="rgb(207,194,63)" stroke-opacity="1" stroke-width="5" d=" M-41.308998107910156,140.76699829101562 C-41.308998107910156,145.1020050048828 -45.06999969482422,148.61599731445312 -49.70899963378906,148.61599731445312 C-54.347999572753906,148.61599731445312 -58.10900115966797,145.1020050048828 -58.10900115966797,140.76699829101562 C-58.10900115966797,136.4320068359375 -54.347999572753906,132.91799926757812 -49.70899963378906,132.91799926757812 C-45.06999969482422,132.91799926757812 -41.308998107910156,136.4320068359375 -41.308998107910156,140.76699829101562z"></path></g><g opacity="1" transform="matrix(1,0,0,1,0,0)"><path fill="rgb(179,145,0)" fill-opacity="1" d=" M58.89400100708008,140.76699829101562 C58.89400100708008,145.1020050048828 55.132999420166016,148.61599731445312 50.49399948120117,148.61599731445312 C45.85499954223633,148.61599731445312 42.09400177001953,145.1020050048828 42.09400177001953,140.76699829101562 C42.09400177001953,136.4320068359375 45.85499954223633,132.91799926757812 50.49399948120117,132.91799926757812 C55.132999420166016,132.91799926757812 58.89400100708008,136.4320068359375 58.89400100708008,140.76699829101562z"></path><path stroke-linecap="round" stroke-linejoin="round" fill-opacity="0" stroke="rgb(207,194,63)" stroke-opacity="1" stroke-width="5" d=" M58.89400100708008,140.76699829101562 C58.89400100708008,145.1020050048828 55.132999420166016,148.61599731445312 50.49399948120117,148.61599731445312 C45.85499954223633,148.61599731445312 42.09400177001953,145.1020050048828 42.09400177001953,140.76699829101562 C42.09400177001953,136.4320068359375 45.85499954223633,132.91799926757812 50.49399948120117,132.91799926757812 C55.132999420166016,132.91799926757812 58.89400100708008,136.4320068359375 58.89400100708008,140.76699829101562z"></path></g></g><g style="display: block;" transform="matrix(1,0,0,1,256,256)" opacity="1"><g opacity="1" transform="matrix(1,0,0,1,0,0)"><path fill="rgb(0,0,0)" fill-opacity="1" d=" M-82.71399688720703,86.58999633789062 C-82.71399688720703,86.58999633789062 -78.64299774169922,62.65700149536133 -39.92300033569336,74.29100036621094 C-39.92300033569336,74.29100036621094 -79.90899658203125,31.900999069213867 -89.67900085449219,30.579999923706055 C-99.4489974975586,29.257999420166016 -82.71399688720703,86.58999633789062 -82.71399688720703,86.58999633789062z"></path><path stroke-linecap="round" stroke-linejoin="round" fill-opacity="0" stroke="rgb(0,0,0)" stroke-opacity="1" stroke-width="8" d=" M-82.71399688720703,86.58999633789062 C-82.71399688720703,86.58999633789062 -78.64299774169922,62.65700149536133 -39.92300033569336,74.29100036621094 C-39.92300033569336,74.29100036621094 -79.90899658203125,31.900999069213867 -89.67900085449219,30.579999923706055 C-99.4489974975586,29.257999420166016 -82.71399688720703,86.58999633789062 -82.71399688720703,86.58999633789062z"></path></g><g opacity="1" transform="matrix(1,0,0,1,0,0)"><path fill="rgb(0,0,0)" fill-opacity="1" d=" M89.30400085449219,85.60199737548828 C89.30400085449219,85.60199737548828 88.93499755859375,61.0890007019043 50.47600173950195,68.33499908447266 C50.47600173950195,68.33499908447266 79.63999938964844,32.62699890136719 96.927001953125,32.62699890136719 C114.21399688720703,32.62699890136719 89.30400085449219,85.60199737548828 89.30400085449219,85.60199737548828z"></path><path stroke-linecap="round" stroke-linejoin="round" fill-opacity="0" stroke="rgb(0,0,0)" stroke-opacity="1" stroke-width="8" d=" M89.30400085449219,85.60199737548828 C89.30400085449219,85.60199737548828 88.93499755859375,61.0890007019043 50.47600173950195,68.33499908447266 C50.47600173950195,68.33499908447266 79.63999938964844,32.62699890136719 96.927001953125,32.62699890136719 C114.21399688720703,32.62699890136719 89.30400085449219,85.60199737548828 89.30400085449219,85.60199737548828z"></path></g></g><g style="display: block;" transform="matrix(1,0,0,1,256,256)" opacity="1"><g opacity="1" transform="matrix(1,0,0,1,0,0)"><g opacity="1" transform="matrix(1,0,0,1,0,0)"><path fill="rgb(255,168,0)" fill-opacity="1" d=" M107.15699768066406,-33.314998626708984 C124.44200134277344,-62.566001892089844 154.26600646972656,-61.409000396728516 154.26600646972656,-61.409000396728516 C154.26600646972656,-44.40700149536133 130.9199981689453,14.906999588012695 103.802001953125,5.4019999504089355"></path></g><g opacity="1" transform="matrix(1,0,0,1,0,0)"><path fill="url(#__lottie_element_55)" fill-opacity="1" d=" M107.15699768066406,-33.314998626708984 C124.44200134277344,-62.566001892089844 154.26600646972656,-61.409000396728516 154.26600646972656,-61.409000396728516 C154.26600646972656,-44.40700149536133 130.9199981689453,14.906999588012695 103.802001953125,5.4019999504089355"></path></g><g opacity="1" transform="matrix(1,0,0,1,0,0)"><path stroke-linecap="round" stroke-linejoin="round" fill-opacity="0" stroke="rgb(219,110,0)" stroke-opacity="1" stroke-width="8" d=" M107.15699768066406,-33.314998626708984 C124.44200134277344,-62.566001892089844 154.26600646972656,-61.409000396728516 154.26600646972656,-61.409000396728516 C154.26600646972656,-44.40700149536133 130.9199981689453,14.906999588012695 103.802001953125,5.4019999504089355"></path></g></g><g opacity="1" transform="matrix(1,0,0,1,0,0)"><g opacity="1" transform="matrix(1,0,0,1,0,0)"><path fill="rgb(255,168,0)" fill-opacity="1" d=" M-104.71499633789062,-33.314998626708984 C-122,-62.566001892089844 -151.8249969482422,-61.409000396728516 -151.8249969482422,-61.409000396728516 C-151.8249969482422,-44.40700149536133 -128.47799682617188,14.906999588012695 -101.36000061035156,5.4019999504089355"></path></g><g opacity="1" transform="matrix(1,0,0,1,0,0)"><path fill="url(#__lottie_element_56)" fill-opacity="1" d=" M-104.71499633789062,-33.314998626708984 C-122,-62.566001892089844 -151.8249969482422,-61.409000396728516 -151.8249969482422,-61.409000396728516 C-151.8249969482422,-44.40700149536133 -128.47799682617188,14.906999588012695 -101.36000061035156,5.4019999504089355"></path></g><g opacity="1" transform="matrix(1,0,0,1,0,0)"><path stroke-linecap="round" stroke-linejoin="round" fill-opacity="0" stroke="rgb(219,110,0)" stroke-opacity="1" stroke-width="8" d=" M-104.71499633789062,-33.314998626708984 C-122,-62.566001892089844 -151.8249969482422,-61.409000396728516 -151.8249969482422,-61.409000396728516 C-151.8249969482422,-44.40700149536133 -128.47799682617188,14.906999588012695 -101.36000061035156,5.4019999504089355"></path></g></g></g><g style="display: block;" transform="matrix(1,0,0,1,255.99998474121094,256)" opacity="1"><g opacity="1" transform="matrix(1,0,0,1,0,0)"><path fill="rgb(255,168,0)" fill-opacity="1" d=" M90.06199645996094,-131.51400756835938 C69.16699981689453,-160.53500366210938 41.65299987792969,-177.6009979248047 0.29100000858306885,-177.6009979248047 C-41.07099914550781,-177.6009979248047 -68.58399963378906,-160.53500366210938 -89.47799682617188,-131.51400756835938 C-110.37300109863281,-102.49400329589844 -127.78600311279297,-34.819000244140625 -100.50599670410156,22.06100082397461 C-73.22699737548828,78.94100189208984 -27.141000747680664,96.93299865722656 0.29100000858306885,96.93299865722656 C27.722999572753906,96.93299865722656 73.80999755859375,78.94100189208984 101.08999633789062,22.06100082397461 C128.36900329589844,-34.819000244140625 110.95700073242188,-102.49400329589844 90.06199645996094,-131.51400756835938z"></path></g><g opacity="1" transform="matrix(1,0,0,1,0,0)"><path fill="url(#__lottie_element_50)" fill-opacity="1" d=" M88.59500122070312,-133.7480010986328 C68.04100036621094,-161.36199951171875 40.97800064086914,-177.6009979248047 0.29100000858306885,-177.6009979248047 C-40.39500045776367,-177.6009979248047 -67.45899963378906,-161.36199951171875 -88.01200103759766,-133.7480010986328 C-108.56600189208984,-106.13400268554688 -125.69400024414062,-41.7400016784668 -98.86000061035156,12.383999824523926 C-72.0270004272461,66.50700378417969 -26.69300079345703,83.62699890136719 0.29100000858306885,83.62699890136719 C27.274999618530273,83.62699890136719 72.60900115966797,66.50700378417969 99.44300079345703,12.383999824523926 C126.2760009765625,-41.7400016784668 109.14800262451172,-106.13400268554688 88.59500122070312,-133.7480010986328z"></path></g><g opacity="1" transform="matrix(1,0,0,1,0,0)"><path fill="rgb(255,170,0)" fill-opacity="1" d=" M90.45999908447266,-131.51400756835938 C89.0479965209961,-133.47900390625 87.6050033569336,-135.38400268554688 86.1240005493164,-137.2310028076172 C86.1240005493164,-137.2310028076172 0.2919999957084656,-137.2310028076172 0.2919999957084656,-137.2310028076172 C0.2919999957084656,-137.2310028076172 -85.54100036621094,-137.2310028076172 -85.54100036621094,-137.2310028076172 C-87.02200317382812,-135.38400268554688 -88.46399688720703,-133.47900390625 -89.8759994506836,-131.51400756835938 C-110.77100372314453,-102.49199676513672 -128.1820068359375,-34.819000244140625 -100.90699768066406,22.06100082397461 C-95.57499694824219,33.18000030517578 -84.59400177001953,42.808998107910156 -78.09600067138672,51.11399841308594 C-78.09600067138672,51.11399841308594 -78.08599853515625,52.82899856567383 -78.08599853515625,52.82899856567383 C-78.08599853515625,52.82899856567383 -74.36299896240234,-21.319000244140625 -68.75399780273438,-71.36499786376953 C-67.27300262451172,-84.5479965209961 -48.698001861572266,-71.36499786376953 0.2919999957084656,-71.36499786376953 C49.28200149536133,-71.36499786376953 69.83100128173828,-84.5479965209961 71.31199645996094,-71.36499786376953 C76.9209976196289,-21.319000244140625 83.60600280761719,51.11399841308594 83.60600280761719,51.11399841308594 C83.60600280761719,51.11399841308594 83.61599731445312,51.11399841308594 83.61599731445312,51.11399841308594 C90.11399841308594,42.808998107910156 96.15799713134766,33.18000030517578 101.48999786376953,22.06100082397461 C128.76499938964844,-34.819000244140625 111.3550033569336,-102.49199676513672 90.45999908447266,-131.51400756835938z"></path></g><g opacity="1" transform="matrix(1,0,0,1,0,0)"><path fill="url(#__lottie_element_51)" fill-opacity="1" d=" M90.06199645996094,-131.51400756835938 C69.16699981689453,-160.53500366210938 41.65299987792969,-177.6009979248047 0.29100000858306885,-177.6009979248047 C-41.07099914550781,-177.6009979248047 -68.58399963378906,-160.53500366210938 -89.47799682617188,-131.51400756835938 C-110.37300109863281,-102.49400329589844 -127.78600311279297,-34.819000244140625 -100.50599670410156,22.06100082397461 C-73.22699737548828,78.94100189208984 -27.141000747680664,96.93299865722656 0.29100000858306885,96.93299865722656 C27.722999572753906,96.93299865722656 73.80999755859375,78.94100189208984 101.08999633789062,22.06100082397461 C128.36900329589844,-34.819000244140625 110.95700073242188,-102.49400329589844 90.06199645996094,-131.51400756835938z"></path></g><g opacity="1" transform="matrix(1,0,0,1,0,0)"><path stroke-linecap="round" stroke-linejoin="round" fill-opacity="0" stroke="rgb(219,110,0)" stroke-opacity="1" stroke-width="8" d=" M90.06199645996094,-131.51400756835938 C69.16699981689453,-160.53500366210938 41.65299987792969,-177.6009979248047 0.29100000858306885,-177.6009979248047 C-41.07099914550781,-177.6009979248047 -68.58399963378906,-160.53500366210938 -89.47799682617188,-131.51400756835938 C-110.37300109863281,-102.49400329589844 -127.78600311279297,-34.819000244140625 -100.50599670410156,22.06100082397461 C-73.22699737548828,78.94100189208984 -27.141000747680664,96.93299865722656 0.29100000858306885,96.93299865722656 C27.722999572753906,96.93299865722656 73.80999755859375,78.94100189208984 101.08999633789062,22.06100082397461 C128.36900329589844,-34.819000244140625 110.95700073242188,-102.49400329589844 90.06199645996094,-131.51400756835938z"></path></g></g><g style="display: block;" transform="matrix(1,0,0,1,256,256)" opacity="1"><g opacity="1" transform="matrix(1,0,0,1,0,0)"><g opacity="1" transform="matrix(1,0,0,1,0,0)"><path fill="rgb(255,255,255)" fill-opacity="1" d=" M23.698999404907227,-11.161999702453613 C23.698999404907227,-11.161999702453613 25.183000564575195,-44.47700119018555 51.513999938964844,-49.86000061035156 C76.87300109863281,-55.04399871826172 88.93499755859375,-28.458999633789062 88.93499755859375,-28.458999633789062 C88.93499755859375,-28.458999633789062 87.35399627685547,-9.432999610900879 65.6969985961914,-2.946000099182129 C41.374000549316406,4.339000225067139 23.698999404907227,-11.161999702453613 23.698999404907227,-11.161999702453613z"></path></g><g opacity="1" transform="matrix(1,0,0,1,0,0)"><path fill="rgb(0,0,0)" fill-opacity="0.25" d=" M88.93399810791016,-28.458999633789062 C88.93399810791016,-28.458999633789062 88.00599670410156,-17.270999908447266 77.80500030517578,-9.12399959564209 C76.62999725341797,-20.95400047302246 75.36599731445312,-33.46500015258789 74.08200073242188,-45.64099884033203 C84.08499908447266,-39.143001556396484 88.93399810791016,-28.458999633789062 88.93399810791016,-28.458999633789062z"></path></g><g opacity="1" transform="matrix(1,0,0,1,110.18699645996094,-0.8129997253417969)"><g opacity="1" transform="matrix(1,0,0,1,0,0)"><path fill="url(#__lottie_element_41)" fill-opacity="1" d=" M-34.981998443603516,-24.923999786376953 C-34.981998443603516,-13.760000228881836 -43.518001556396484,-4.710999965667725 -54.047000885009766,-4.710999965667725 C-64.57599639892578,-4.710999965667725 -73.11199951171875,-13.760000228881836 -73.11199951171875,-24.923999786376953 C-73.11199951171875,-36.0880012512207 -64.57599639892578,-45.13800048828125 -54.047000885009766,-45.13800048828125 C-43.518001556396484,-45.13800048828125 -34.981998443603516,-36.0880012512207 -34.981998443603516,-24.923999786376953z"></path></g><g opacity="1" transform="matrix(1,0,0,1,0,0)"><g opacity="1" transform="matrix(1,0,0,1,0,0)"><path fill="url(#__lottie_element_42)" fill-opacity="1" d=" M-49.16299819946289,-5.631999969482422 C-50.65299987792969,-5.631999969482422 -52.03200149536133,-6.6519999504089355 -52.49399948120117,-8.241000175476074 C-53.0620002746582,-10.192000389099121 -52.03099822998047,-12.26099967956543 -50.189998626708984,-12.86299991607666 C-46.66999816894531,-14.013999938964844 -43.86600112915039,-16.915000915527344 -42.69300079345703,-20.621000289916992 C-42.08000183105469,-22.558000564575195 -40.099998474121094,-23.597999572753906 -38.27799987792969,-22.948999404907227 C-36.45199966430664,-22.299999237060547 -35.46900177001953,-20.202999114990234 -36.082000732421875,-18.267000198364258 C-37.96799850463867,-12.3100004196167 -42.472999572753906,-7.6479997634887695 -48.1349983215332,-5.796999931335449 C-48.47700119018555,-5.684999942779541 -48.823001861572266,-5.631999969482422 -49.16299819946289,-5.631999969482422z"></path></g></g><g opacity="1" transform="matrix(1,0,0,1,0,0)"><path fill="rgb(24,19,9)" fill-opacity="1" d=" M-41.99800109863281,-24.923999786376953 C-41.99800109863281,-17.868999481201172 -47.393001556396484,-12.14900016784668 -54.047000885009766,-12.14900016784668 C-60.70100021362305,-12.14900016784668 -66.09600067138672,-17.868999481201172 -66.09600067138672,-24.923999786376953 C-66.09600067138672,-31.979999542236328 -60.70100021362305,-37.69900131225586 -54.047000885009766,-37.69900131225586 C-47.393001556396484,-37.69900131225586 -41.99800109863281,-31.979999542236328 -41.99800109863281,-24.923999786376953z"></path></g><g opacity="1" transform="matrix(1,0,0,1,0,0)"><path fill="url(#__lottie_element_43)" fill-opacity="1" d=" M-55.073001861572266,-35.93899917602539 C-55.073001861572266,-33.07400131225586 -57.13999938964844,-30.75200080871582 -59.689998626708984,-30.75200080871582 C-62.2400016784668,-30.75200080871582 -64.30699920654297,-33.07400131225586 -64.30699920654297,-35.93899917602539 C-64.30699920654297,-38.80400085449219 -62.2400016784668,-41.12699890136719 -59.689998626708984,-41.12699890136719 C-57.13999938964844,-41.12699890136719 -55.073001861572266,-38.80400085449219 -55.073001861572266,-35.93899917602539z"></path></g></g><g opacity="1" transform="matrix(1,0,0,1,0,0)"><path fill="rgb(0,0,0)" fill-opacity="1" d=" M26.121000289916992,-23.937000274658203 C26.121000289916992,-23.937000274658203 33.28200149536133,-48.11399841308594 54.887001037597656,-49.63600158691406 C77.26000213623047,-51.21200180053711 87.125,-31.77199935913086 87.125,-31.77199935913086 C87.125,-31.77199935913086 75.74400329589844,-54.85300064086914 52.87200164794922,-51.178001403808594 C32.72800064086914,-47.94200134277344 26.121000289916992,-23.937000274658203 26.121000289916992,-23.937000274658203z"></path><path stroke-linecap="round" stroke-linejoin="round" fill-opacity="0" stroke="rgb(0,0,0)" stroke-opacity="1" stroke-width="2" d=" M26.121000289916992,-23.937000274658203 C26.121000289916992,-23.937000274658203 33.28200149536133,-48.11399841308594 54.887001037597656,-49.63600158691406 C77.26000213623047,-51.21200180053711 87.125,-31.77199935913086 87.125,-31.77199935913086 C87.125,-31.77199935913086 75.74400329589844,-54.85300064086914 52.87200164794922,-51.178001403808594 C32.72800064086914,-47.94200134277344 26.121000289916992,-23.937000274658203 26.121000289916992,-23.937000274658203z"></path></g></g><g opacity="1" transform="matrix(1,0,0,1,0,0)"><g opacity="1" transform="matrix(1,0,0,1,0,0)"><path fill="rgb(255,255,255)" fill-opacity="1" d=" M-23.395000457763672,-11.161999702453613 C-23.395000457763672,-11.161999702453613 -24.878000259399414,-44.47700119018555 -51.20899963378906,-49.86000061035156 C-76.56800079345703,-55.04399871826172 -88.62999725341797,-28.458999633789062 -88.62999725341797,-28.458999633789062 C-88.62999725341797,-28.458999633789062 -87.05000305175781,-9.432999610900879 -65.39299774169922,-2.946000099182129 C-41.06999969482422,4.339000225067139 -23.395000457763672,-11.161999702453613 -23.395000457763672,-11.161999702453613z"></path></g><g opacity="1" transform="matrix(1,0,0,1,0,0)"><path fill="rgb(0,0,0)" fill-opacity="0.25" d=" M-71.1780014038086,-47.1619987487793 C-72.39299774169922,-33.82099914550781 -73.47000122070312,-19.95599937438965 -74.39800262451172,-6.940999984741211 C-87.52200317382812,-15.088000297546387 -88.62699890136719,-28.458999633789062 -88.62699890136719,-28.458999633789062 C-88.62699890136719,-28.458999633789062 -82.93900299072266,-40.9900016784668 -71.1780014038086,-47.1619987487793z"></path></g><g opacity="1" transform="matrix(1,0,0,1,0,0)"><g opacity="1" transform="matrix(1,0,0,1,0,0)"><path fill="url(#__lottie_element_44)" fill-opacity="1" d=" M-34.981998443603516,-24.923999786376953 C-34.981998443603516,-13.760000228881836 -43.518001556396484,-4.710999965667725 -54.047000885009766,-4.710999965667725 C-64.57599639892578,-4.710999965667725 -73.11199951171875,-13.760000228881836 -73.11199951171875,-24.923999786376953 C-73.11199951171875,-36.0880012512207 -64.57599639892578,-45.13800048828125 -54.047000885009766,-45.13800048828125 C-43.518001556396484,-45.13800048828125 -34.981998443603516,-36.0880012512207 -34.981998443603516,-24.923999786376953z"></path></g><g opacity="1" transform="matrix(1,0,0,1,0,0)"><g opacity="1" transform="matrix(1,0,0,1,0,0)"><path fill="url(#__lottie_element_45)" fill-opacity="1" d=" M-49.16299819946289,-5.631999969482422 C-50.65299987792969,-5.631999969482422 -52.03200149536133,-6.6519999504089355 -52.49399948120117,-8.241000175476074 C-53.0620002746582,-10.192000389099121 -52.03099822998047,-12.26099967956543 -50.189998626708984,-12.86299991607666 C-46.66999816894531,-14.013999938964844 -43.86600112915039,-16.915000915527344 -42.69300079345703,-20.621000289916992 C-42.08000183105469,-22.558000564575195 -40.099998474121094,-23.597999572753906 -38.27799987792969,-22.948999404907227 C-36.45199966430664,-22.299999237060547 -35.46900177001953,-20.202999114990234 -36.082000732421875,-18.267000198364258 C-37.96799850463867,-12.3100004196167 -42.472999572753906,-7.6479997634887695 -48.1349983215332,-5.796999931335449 C-48.47700119018555,-5.684999942779541 -48.823001861572266,-5.631999969482422 -49.16299819946289,-5.631999969482422z"></path></g></g><g opacity="1" transform="matrix(1,0,0,1,0,0)"><path fill="rgb(24,19,9)" fill-opacity="1" d=" M-41.99800109863281,-24.923999786376953 C-41.99800109863281,-17.868999481201172 -47.393001556396484,-12.14900016784668 -54.047000885009766,-12.14900016784668 C-60.70100021362305,-12.14900016784668 -66.09600067138672,-17.868999481201172 -66.09600067138672,-24.923999786376953 C-66.09600067138672,-31.979999542236328 -60.70100021362305,-37.69900131225586 -54.047000885009766,-37.69900131225586 C-47.393001556396484,-37.69900131225586 -41.99800109863281,-31.979999542236328 -41.99800109863281,-24.923999786376953z"></path></g><g opacity="1" transform="matrix(1,0,0,1,0,0)"><path fill="url(#__lottie_element_46)" fill-opacity="1" d=" M-55.073001861572266,-35.93899917602539 C-55.073001861572266,-33.07400131225586 -57.13999938964844,-30.75200080871582 -59.689998626708984,-30.75200080871582 C-62.2400016784668,-30.75200080871582 -64.30699920654297,-33.07400131225586 -64.30699920654297,-35.93899917602539 C-64.30699920654297,-38.80400085449219 -62.2400016784668,-41.12699890136719 -59.689998626708984,-41.12699890136719 C-57.13999938964844,-41.12699890136719 -55.073001861572266,-38.80400085449219 -55.073001861572266,-35.93899917602539z"></path></g></g><g opacity="1" transform="matrix(1,0,0,1,0,0)"><path fill="rgb(0,0,0)" fill-opacity="1" d=" M-25.81599998474121,-23.937000274658203 C-25.81599998474121,-23.937000274658203 -32.97800064086914,-48.11399841308594 -54.58300018310547,-49.63600158691406 C-76.95600128173828,-51.21200180053711 -86.81999969482422,-31.77199935913086 -86.81999969482422,-31.77199935913086 C-86.81999969482422,-31.77199935913086 -75.44000244140625,-54.85300064086914 -52.56800079345703,-51.178001403808594 C-32.42399978637695,-47.94200134277344 -25.81599998474121,-23.937000274658203 -25.81599998474121,-23.937000274658203z"></path><path stroke-linecap="round" stroke-linejoin="round" fill-opacity="0" stroke="rgb(0,0,0)" stroke-opacity="1" stroke-width="2" d=" M-25.81599998474121,-23.937000274658203 C-25.81599998474121,-23.937000274658203 -32.97800064086914,-48.11399841308594 -54.58300018310547,-49.63600158691406 C-76.95600128173828,-51.21200180053711 -86.81999969482422,-31.77199935913086 -86.81999969482422,-31.77199935913086 C-86.81999969482422,-31.77199935913086 -75.44000244140625,-54.85300064086914 -52.56800079345703,-51.178001403808594 C-32.42399978637695,-47.94200134277344 -25.81599998474121,-23.937000274658203 -25.81599998474121,-23.937000274658203z"></path></g></g></g><g style="display: block;" transform="matrix(1,0,0,1,256,256)" opacity="1"><g opacity="1" transform="matrix(1,0,0,1,0,0)"><path fill="rgb(0,0,0)" fill-opacity="1" d=" M-83.55599975585938,-62.15700149536133 C-83.55599975585938,-62.15700149536133 -71.68800354003906,-70.2979965209961 -57.60300064086914,-69.85800170898438 C-44.10599899291992,-69.43699645996094 -38.52899932861328,-64.33300018310547 -38.52899932861328,-64.33300018310547 C-38.52899932861328,-64.33300018310547 -43.02399826049805,-74.13300323486328 -57.60300064086914,-73.70800018310547 C-73.66300201416016,-73.23999786376953 -83.55599975585938,-62.15700149536133 -83.55599975585938,-62.15700149536133z"></path><path stroke-linecap="round" stroke-linejoin="round" fill-opacity="0" stroke="rgb(0,0,0)" stroke-opacity="1" stroke-width="2" d=" M-83.55599975585938,-62.15700149536133 C-83.55599975585938,-62.15700149536133 -71.68800354003906,-70.2979965209961 -57.60300064086914,-69.85800170898438 C-44.10599899291992,-69.43699645996094 -38.52899932861328,-64.33300018310547 -38.52899932861328,-64.33300018310547 C-38.52899932861328,-64.33300018310547 -43.02399826049805,-74.13300323486328 -57.60300064086914,-73.70800018310547 C-73.66300201416016,-73.23999786376953 -83.55599975585938,-62.15700149536133 -83.55599975585938,-62.15700149536133z"></path></g><g opacity="1" transform="matrix(1,0,0,1,0,0)"><path fill="rgb(0,0,0)" fill-opacity="1" d=" M83.06199645996094,-62.15700149536133 C83.06199645996094,-62.15700149536133 71.19400024414062,-70.2979965209961 57.10900115966797,-69.85800170898438 C43.61199951171875,-69.43699645996094 38.03499984741211,-64.33300018310547 38.03499984741211,-64.33300018310547 C38.03499984741211,-64.33300018310547 42.529998779296875,-74.13300323486328 57.10900115966797,-73.70800018310547 C73.16899871826172,-73.23999786376953 83.06199645996094,-62.15700149536133 83.06199645996094,-62.15700149536133z"></path><path stroke-linecap="round" stroke-linejoin="round" fill-opacity="0" stroke="rgb(0,0,0)" stroke-opacity="1" stroke-width="2" d=" M83.06199645996094,-62.15700149536133 C83.06199645996094,-62.15700149536133 71.19400024414062,-70.2979965209961 57.10900115966797,-69.85800170898438 C43.61199951171875,-69.43699645996094 38.03499984741211,-64.33300018310547 38.03499984741211,-64.33300018310547 C38.03499984741211,-64.33300018310547 42.529998779296875,-74.13300323486328 57.10900115966797,-73.70800018310547 C73.16899871826172,-73.23999786376953 83.06199645996094,-62.15700149536133 83.06199645996094,-62.15700149536133z"></path></g></g><g style="display: block;" transform="matrix(1,0,0,1,255.99998474121094,256)" opacity="1"><g opacity="1" transform="matrix(1,0,0,1,0,0)"><path fill="url(#__lottie_element_33)" fill-opacity="0.6" d=" M27.351999282836914,61.44200134277344 C27.351999282836914,61.44200134277344 0.29100000858306885,61.44200134277344 0.29100000858306885,61.44200134277344 C0.29100000858306885,61.44200134277344 -26.768999099731445,61.44200134277344 -26.768999099731445,61.44200134277344 C-26.768999099731445,61.44200134277344 -28.267000198364258,62.888999938964844 -28.2189998626709,68.89199829101562 C-28.19700050354004,71.60900115966797 -24.777000427246094,82.28600311279297 -20.13599967956543,79.7969970703125 C-12.88599967956543,75.90899658203125 -11.38700008392334,83.0979995727539 0.29100000858306885,83.0979995727539 C11.37600040435791,83.0979995727539 14.208000183105469,76.21399688720703 21.45800018310547,80.10199737548828 C26.099000930786133,82.59100341796875 28.780000686645508,71.60900115966797 28.802000045776367,68.89199829101562 C28.850000381469727,62.888999938964844 27.351999282836914,61.44200134277344 27.351999282836914,61.44200134277344z"></path></g><g opacity="1" transform="matrix(1,0,0,1,0,0)"><path fill="rgb(156,0,4)" fill-opacity="1" d=" M36.36600112915039,52.53300094604492 C33.779998779296875,51.077999114990234 23.128000259399414,52.35499954223633 14.559000015258789,49.28300094604492 C5.991000175476074,46.21099853515625 4.051000118255615,50.55799865722656 0.9789999723434448,50.55799865722656 C-2.0920000076293945,50.55799865722656 -4.0320000648498535,46.21099853515625 -12.60099983215332,49.28300094604492 C-21.16900062561035,52.35499954223633 -31.82200050354004,51.077999114990234 -34.409000396728516,52.53300094604492 C-36.994998931884766,53.987998962402344 -20.334999084472656,70.78399658203125 0.9789999723434448,70.78399658203125 C22.04400062561035,70.78399658203125 38.952999114990234,53.987998962402344 36.36600112915039,52.53300094604492z"></path></g><g opacity="1" transform="matrix(1,0,0,1,0,0)"><path fill="url(#__lottie_element_34)" fill-opacity="1" d=" M36.36600112915039,52.53300094604492 C33.779998779296875,51.077999114990234 23.128000259399414,52.35499954223633 14.559000015258789,49.28300094604492 C5.991000175476074,46.21099853515625 4.051000118255615,50.55799865722656 0.9789999723434448,50.55799865722656 C-2.0920000076293945,50.55799865722656 -4.0320000648498535,46.21099853515625 -12.60099983215332,49.28300094604492 C-21.16900062561035,52.35499954223633 -31.82200050354004,51.077999114990234 -34.409000396728516,52.53300094604492 C-36.994998931884766,53.987998962402344 -20.334999084472656,70.78399658203125 0.9789999723434448,70.78399658203125 C22.04400062561035,70.78399658203125 38.952999114990234,53.987998962402344 36.36600112915039,52.53300094604492z"></path></g><g opacity="1" transform="matrix(1,0,0,1,0,0)"><path fill="rgb(75,0,7)" fill-opacity="1" d=" M-29.44099998474121,54.573001861572266 C-29.44099998474121,54.573001861572266 -20.163000106811523,56.777000427246094 -13.836000442504883,56.777000427246094 C-9.539999961853027,56.777000427246094 -3.055000066757202,58.06700134277344 0.9789999723434448,58.06700134277344 C4.85699987411499,58.06700134277344 10.102999687194824,56.82600021362305 14.170999526977539,56.82600021362305 C22.500999450683594,56.82600021362305 30.815000534057617,54.573001861572266 30.815000534057617,54.573001861572266 C30.815000534057617,54.573001861572266 23.886999130249023,56.65299987792969 13.77400016784668,58.777000427246094 C10.184000015258789,59.53099822998047 5.204999923706055,60.45500183105469 0.9789999723434448,60.45500183105469 C-4.041999816894531,60.45500183105469 -9.777999877929688,59.32099914550781 -13.9350004196167,58.32699966430664 C-23.131999969482422,56.12900161743164 -29.44099998474121,54.573001861572266 -29.44099998474121,54.573001861572266z"></path><path stroke-linecap="round" stroke-linejoin="round" fill-opacity="0" stroke="rgb(75,0,7)" stroke-opacity="1" stroke-width="1" d=" M-29.44099998474121,54.573001861572266 C-29.44099998474121,54.573001861572266 -20.163000106811523,56.777000427246094 -13.836000442504883,56.777000427246094 C-9.539999961853027,56.777000427246094 -3.055000066757202,58.06700134277344 0.9789999723434448,58.06700134277344 C4.85699987411499,58.06700134277344 10.102999687194824,56.82600021362305 14.170999526977539,56.82600021362305 C22.500999450683594,56.82600021362305 30.815000534057617,54.573001861572266 30.815000534057617,54.573001861572266 C30.815000534057617,54.573001861572266 23.886999130249023,56.65299987792969 13.77400016784668,58.777000427246094 C10.184000015258789,59.53099822998047 5.204999923706055,60.45500183105469 0.9789999723434448,60.45500183105469 C-4.041999816894531,60.45500183105469 -9.777999877929688,59.32099914550781 -13.9350004196167,58.32699966430664 C-23.131999969482422,56.12900161743164 -29.44099998474121,54.573001861572266 -29.44099998474121,54.573001861572266z"></path></g><g opacity="1" transform="matrix(1,0,0,1,0,0)"><g opacity="1" transform="matrix(1,0,0,1,0,0)"><g opacity="1" transform="matrix(1,0,0,1,0,0)"><path fill="rgb(229,239,249)" fill-opacity="1" d=" M22.93899917602539,77.78700256347656 C22.517000198364258,77.78700256347656 22.138999938964844,77.51799774169922 22.003999710083008,77.11499786376953 C21.944000244140625,76.93900299072266 20.53700065612793,72.7229995727539 19.395000457763672,66.16200256347656 C18.566999435424805,61.40399932861328 17.99799919128418,57.1510009765625 17.992000579833984,57.10900115966797 C17.937000274658203,56.696998596191406 18.14699935913086,56.29499816894531 18.514999389648438,56.10300064086914 C18.60700035095215,56.05500030517578 20.804000854492188,54.933998107910156 24.694000244140625,54.933998107910156 C25.42300033569336,54.933998107910156 26.174999237060547,54.9739990234375 26.93000030517578,55.051998138427734 C27.466999053955078,55.108001708984375 27.858999252319336,55.584999084472656 27.81100082397461,56.12300109863281 C27.79599952697754,56.29600143432617 27.415000915527344,60.433998107910156 26.136999130249023,67.05699920654297 C25.26099967956543,71.60299682617188 23.910999298095703,76.98699951171875 23.89699935913086,77.04100036621094 C23.790000915527344,77.46499633789062 23.416000366210938,77.76899719238281 22.97800064086914,77.78600311279297 C22.96500015258789,77.78700256347656 22.95199966430664,77.78700256347656 22.93899917602539,77.78700256347656z"></path></g><g opacity="1" transform="matrix(1,0,0,1,0,0)"><path fill="rgb(180,184,193)" fill-opacity="1" d=" M24.694000244140625,55.92100143432617 C25.35300064086914,55.92100143432617 26.065000534057617,55.95500183105469 26.827999114990234,56.034000396728516 C26.827999114990234,56.034000396728516 26.450000762939453,60.220001220703125 25.167999267578125,66.87000274658203 C24.28700065612793,71.44200134277344 22.940000534057617,76.79900360107422 22.940000534057617,76.79900360107422 C22.940000534057617,76.79900360107422 21.510000228881836,72.55500030517578 20.368000030517578,65.99199676513672 C19.534000396728516,61.19900131225586 18.972000122070312,56.979000091552734 18.972000122070312,56.979000091552734 C18.972000122070312,56.979000091552734 21,55.92100143432617 24.694000244140625,55.92100143432617 M24.69499969482422,53.94599914550781 C24.69499969482422,53.94599914550781 24.69499969482422,53.94599914550781 24.69499969482422,53.94599914550781 C20.634000778198242,53.94599914550781 18.31100082397461,55.09600067138672 18.05900001525879,55.22700119018555 C17.32200050354004,55.611000061035156 16.90399932861328,56.415000915527344 17.013999938964844,57.23899841308594 C17.020000457763672,57.28200149536133 17.590999603271484,61.55400085449219 18.422000885009766,66.33100128173828 C19.57699966430664,72.96600341796875 21.007999420166016,77.2509994506836 21.06800079345703,77.43000030517578 C21.339000701904297,78.23600006103516 22.094999313354492,78.77400207519531 22.93899917602539,78.77400207519531 C22.96500015258789,78.77400207519531 22.990999221801758,78.77400207519531 23.017000198364258,78.77300262451172 C23.89299964904785,78.73899841308594 24.641000747680664,78.13099670410156 24.854999542236328,77.28099822998047 C24.910999298095703,77.05999755859375 26.22599983215332,71.81700134277344 27.107999801635742,67.24400329589844 C28.393999099731445,60.573001861572266 28.77899932861328,56.387001037597656 28.795000076293945,56.21200180053711 C28.892000198364258,55.13600158691406 28.10700035095215,54.18199920654297 27.031999588012695,54.06999969482422 C26.243999481201172,53.987998962402344 25.45800018310547,53.94599914550781 24.69499969482422,53.94599914550781 C24.69499969482422,53.94599914550781 24.69499969482422,53.94599914550781 24.69499969482422,53.94599914550781z"></path></g></g><g opacity="1" transform="matrix(1,0,0,1,0,0)"><g opacity="1" transform="matrix(1,0,0,1,0,0)"><path fill="rgb(229,239,249)" fill-opacity="1" d=" M-21.6299991607666,77.78600311279297 C-22.06800079345703,77.76899719238281 -22.441999435424805,77.46499633789062 -22.548999786376953,77.04100036621094 C-22.562000274658203,76.98699951171875 -23.913000106811523,71.60299682617188 -24.788999557495117,67.05699920654297 C-26.066999435424805,60.433998107910156 -26.447999954223633,56.29600143432617 -26.46299934387207,56.12300109863281 C-26.51099967956543,55.584999084472656 -26.118999481201172,55.108001708984375 -25.582000732421875,55.051998138427734 C-24.82699966430664,54.9739990234375 -24.075000762939453,54.933998107910156 -23.34600067138672,54.933998107910156 C-19.454999923706055,54.933998107910156 -17.259000778198242,56.05500030517578 -17.16699981689453,56.10300064086914 C-16.798999786376953,56.29499816894531 -16.589000701904297,56.696998596191406 -16.643999099731445,57.10900115966797 C-16.649999618530273,57.1510009765625 -17.2189998626709,61.40399932861328 -18.04599952697754,66.16200256347656 C-19.18899917602539,72.7229995727539 -20.59600067138672,76.93900299072266 -20.6560001373291,77.11499786376953 C-20.791000366210938,77.51799774169922 -21.16900062561035,77.78700256347656 -21.590999603271484,77.78700256347656 C-21.604000091552734,77.78700256347656 -21.617000579833984,77.78700256347656 -21.6299991607666,77.78600311279297z"></path></g><g opacity="1" transform="matrix(1,0,0,1,0,0)"><path fill="rgb(180,184,193)" fill-opacity="1" d=" M-23.34600067138672,55.92100143432617 C-19.652000427246094,55.92100143432617 -17.62299919128418,56.979000091552734 -17.62299919128418,56.979000091552734 C-17.62299919128418,56.979000091552734 -18.18600082397461,61.19900131225586 -19.020000457763672,65.99199676513672 C-20.16200065612793,72.55500030517578 -21.590999603271484,76.79900360107422 -21.590999603271484,76.79900360107422 C-21.590999603271484,76.79900360107422 -22.93899917602539,71.44200134277344 -23.81999969482422,66.87000274658203 C-25.101999282836914,60.220001220703125 -25.479999542236328,56.034000396728516 -25.479999542236328,56.034000396728516 C-24.716999053955078,55.95500183105469 -24.0049991607666,55.92100143432617 -23.34600067138672,55.92100143432617 M-23.34600067138672,53.94599914550781 C-24.108999252319336,53.94599914550781 -24.895000457763672,53.987998962402344 -25.68400001525879,54.06999969482422 C-26.757999420166016,54.18199920654297 -27.54400062561035,55.13600158691406 -27.44700050354004,56.21200180053711 C-27.430999755859375,56.387001037597656 -27.045000076293945,60.573001861572266 -25.759000778198242,67.24400329589844 C-24.87700080871582,71.81700134277344 -23.562999725341797,77.05999755859375 -23.506999969482422,77.28099822998047 C-23.292999267578125,78.13099670410156 -22.545000076293945,78.73899841308594 -21.66900062561035,78.77300262451172 C-21.64299964904785,78.77400207519531 -21.617000579833984,78.77400207519531 -21.590999603271484,78.77400207519531 C-20.746999740600586,78.77400207519531 -19.990999221801758,78.23600006103516 -19.719999313354492,77.43000030517578 C-19.65999984741211,77.2509994506836 -18.229000091552734,72.96600341796875 -17.073999404907227,66.33100128173828 C-16.243000030517578,61.55400085449219 -15.670999526977539,57.28200149536133 -15.664999961853027,57.23899841308594 C-15.555000305175781,56.415000915527344 -15.972999572753906,55.611000061035156 -16.709999084472656,55.22700119018555 C-16.961000442504883,55.09600067138672 -19.28499984741211,53.94599914550781 -23.34600067138672,53.94599914550781 C-23.34600067138672,53.94599914550781 -23.34600067138672,53.94599914550781 -23.34600067138672,53.94599914550781z"></path></g></g></g></g><g style="display: block;" transform="matrix(0.7900000214576721,0,0,0.7900000214576721,256.3728942871094,265.1802062988281)" opacity="1"><g opacity="1" transform="matrix(1,0,0,1,0,0)"><path fill="url(#__lottie_element_26)" fill-opacity="1" d=" M18.076000213623047,23.68600082397461 C18.076000213623047,31.56399917602539 11.100000381469727,37.95000076293945 0.28999999165534973,37.95000076293945 C-10.520000457763672,37.95000076293945 -17.496999740600586,31.56399917602539 -17.496999740600586,23.68600082397461 C-17.496999740600586,15.807999610900879 18.076000213623047,15.807999610900879 18.076000213623047,23.68600082397461z"></path></g><g opacity="1" transform="matrix(1,0,0,1,0,0)"><path fill="rgb(255,168,0)" fill-opacity="0.8" d=" M18.448999404907227,21.006000518798828 C18.448999404907227,28.31399917602539 10.319000244140625,34.2400016784668 0.28999999165534973,34.2400016784668 C-9.73900032043457,34.2400016784668 -17.868999481201172,28.31399917602539 -17.868999481201172,21.006000518798828 C-17.868999481201172,13.696999549865723 -9.73900032043457,8.085000038146973 0.28999999165534973,8.085000038146973 C10.319000244140625,8.085000038146973 18.448999404907227,13.696999549865723 18.448999404907227,21.006000518798828z"></path></g><g opacity="1" transform="matrix(1,0,0,1,0,0)"><path fill="url(#__lottie_element_27)" fill-opacity="1" d=" M18.448999404907227,21.006000518798828 C18.448999404907227,28.31399917602539 10.319000244140625,34.2400016784668 0.28999999165534973,34.2400016784668 C-9.73900032043457,34.2400016784668 -17.868999481201172,28.31399917602539 -17.868999481201172,21.006000518798828 C-17.868999481201172,13.696999549865723 -9.73900032043457,8.085000038146973 0.28999999165534973,8.085000038146973 C10.319000244140625,8.085000038146973 18.448999404907227,13.696999549865723 18.448999404907227,21.006000518798828z"></path></g><g opacity="1" transform="matrix(1,0,0,1,0,0)"><path fill="rgb(255,216,0)" fill-opacity="1" d=" M16.816999435424805,17.509000778198242 C16.816999435424805,22.950000762939453 8.965999603271484,28.17799949645996 0.28999999165534973,28.17799949645996 C-8.38599967956543,28.17799949645996 -16.23699951171875,22.950000762939453 -16.23699951171875,17.509000778198242 C-16.23699951171875,12.067999839782715 -8.38599967956543,7.814000129699707 0.28999999165534973,7.814000129699707 C8.965999603271484,7.814000129699707 16.816999435424805,12.067999839782715 16.816999435424805,17.509000778198242z"></path></g><g opacity="1" transform="matrix(1,0,0,1,0,0)"><path fill="url(#__lottie_element_28)" fill-opacity="1" d=" M16.816999435424805,17.509000778198242 C16.816999435424805,22.950000762939453 8.965999603271484,28.17799949645996 0.28999999165534973,28.17799949645996 C-8.38599967956543,28.17799949645996 -16.23699951171875,22.950000762939453 -16.23699951171875,17.509000778198242 C-16.23699951171875,12.067999839782715 -8.38599967956543,7.814000129699707 0.28999999165534973,7.814000129699707 C8.965999603271484,7.814000129699707 16.816999435424805,12.067999839782715 16.816999435424805,17.509000778198242z"></path></g><g opacity="1" transform="matrix(1,0,0,1,0,0)"><path fill="url(#__lottie_element_29)" fill-opacity="0.7000000000000001" d=" M7.663000106811523,13.996999740600586 C7.663000106811523,17.68899917602539 4.361999988555908,21.16200065612793 0.28999999165534973,21.16200065612793 C-3.7820000648498535,21.16200065612793 -7.083000183105469,17.68899917602539 -7.083000183105469,13.996999740600586 C-7.083000183105469,10.305000305175781 -3.7820000648498535,8.45199966430664 0.28999999165534973,8.45199966430664 C4.361999988555908,8.45199966430664 7.663000106811523,10.305000305175781 7.663000106811523,13.996999740600586z"></path></g></g><g style="display: block;" transform="matrix(1,0,0,1,255.99998474121094,256)" opacity="1"><g opacity="1" transform="matrix(1,0,0,1,0,0)"><path fill="rgb(45,45,45)" fill-opacity="1" d=" M86.18699645996094,-96.11399841308594 C86.18699645996094,-66.3550033569336 89.30400085449219,86.58999633789062 89.30400085449219,86.58999633789062 C103.50700378417969,76.41000366210938 113.58999633789062,66.88700103759766 120.68199920654297,57.862998962402344 C120.68199920654297,57.862998962402344 123.97000122070312,13.347000122070312 123.97000122070312,13.347000122070312 C123.97000122070312,13.347000122070312 130.46099853515625,42.12300109863281 130.46099853515625,42.12300109863281 C135.7760009765625,30.590999603271484 136.8179931640625,19.804000854492188 136.4250030517578,9.361000061035156 C135.27999877929688,-21.0939998626709 131.18899536132812,-49.33300018310547 123.33300018310547,-98.7699966430664 C115.11799621582031,-150.46499633789062 88.34600067138672,-198.54400634765625 0.9750000238418579,-198.54400634765625 C-86.39600372314453,-198.54400634765625 -110.11799621582031,-148.36700439453125 -121.23200225830078,-97.2030029296875 C-132.3459930419922,-46.03900146484375 -133.46299743652344,17.586000442504883 -133.99200439453125,22.19300079345703 C-135.1020050048828,31.854000091552734 -132.03900146484375,40.97800064086914 -126.93399810791016,49.17300033569336 C-126.93399810791016,49.17300033569336 -121.4229965209961,31.861000061035156 -121.4229965209961,31.861000061035156 C-121.4229965209961,31.861000061035156 -117.33399963378906,61.444000244140625 -117.33399963378906,61.444000244140625 C-102.31600189208984,77.38600158691406 -82.71399688720703,87.5770034790039 -82.71399688720703,87.5770034790039 C-82.71399688720703,87.5770034790039 -82.71399688720703,-40.659000396728516 -82.71399688720703,-95.94400024414062 C-82.71399688720703,-95.94400024414062 -70.8740005493164,-93.1520004272461 -49.94499969482422,-90.95899963378906 C-47.465999603271484,-90.6989974975586 -39.92499923706055,-133.66299438476562 -39.92499923706055,-133.66299438476562 C-39.92499923706055,-133.66299438476562 -36.99100112915039,-89.78500366210938 -34.26900100708008,-89.59500122070312 C-23.834999084472656,-88.86499786376953 -11.918000221252441,-88.375 1.281000018119812,-88.375 C14.258000373840332,-88.375 26.052000045776367,-88.85800170898438 36.44499969482422,-89.58399963378906 C39.6510009765625,-89.80799865722656 45.65599822998047,-107.23100280761719 45.65599822998047,-107.23100280761719 C45.65599822998047,-107.23100280761719 50.81700134277344,-90.8030014038086 53.222999572753906,-91.05999755859375 C74.16600036621094,-93.29499816894531 86.18699645996094,-96.11399841308594 86.18699645996094,-96.11399841308594z"></path></g><g opacity="1" transform="matrix(1,0,0,1,0,0)"><path fill="url(#__lottie_element_6)" fill-opacity="1" d=" M86.18699645996094,-96.11399841308594 C86.18699645996094,-66.3550033569336 89.30400085449219,86.58999633789062 89.30400085449219,86.58999633789062 C103.50700378417969,76.41000366210938 113.58999633789062,66.88700103759766 120.68199920654297,57.862998962402344 C120.68199920654297,57.862998962402344 123.97000122070312,13.347000122070312 123.97000122070312,13.347000122070312 C123.97000122070312,13.347000122070312 130.46099853515625,42.12300109863281 130.46099853515625,42.12300109863281 C135.7760009765625,30.590999603271484 136.8179931640625,19.804000854492188 136.4250030517578,9.361000061035156 C135.27999877929688,-21.0939998626709 131.18899536132812,-49.33300018310547 123.33300018310547,-98.7699966430664 C115.11799621582031,-150.46499633789062 88.34600067138672,-198.54400634765625 0.9750000238418579,-198.54400634765625 C-86.39600372314453,-198.54400634765625 -110.11799621582031,-148.36700439453125 -121.23200225830078,-97.2030029296875 C-132.3459930419922,-46.03900146484375 -133.46299743652344,17.586000442504883 -133.99200439453125,22.19300079345703 C-135.1020050048828,31.854000091552734 -132.03900146484375,40.97800064086914 -126.93399810791016,49.17300033569336 C-126.93399810791016,49.17300033569336 -121.4229965209961,31.861000061035156 -121.4229965209961,31.861000061035156 C-121.4229965209961,31.861000061035156 -117.33399963378906,61.444000244140625 -117.33399963378906,61.444000244140625 C-102.31600189208984,77.38600158691406 -82.71399688720703,87.5770034790039 -82.71399688720703,87.5770034790039 C-82.71399688720703,87.5770034790039 -82.71399688720703,-40.659000396728516 -82.71399688720703,-95.94400024414062 C-82.71399688720703,-95.94400024414062 -70.8740005493164,-93.1520004272461 -49.94499969482422,-90.95899963378906 C-47.465999603271484,-90.6989974975586 -39.92499923706055,-133.66299438476562 -39.92499923706055,-133.66299438476562 C-39.92499923706055,-133.66299438476562 -36.99100112915039,-89.78500366210938 -34.26900100708008,-89.59500122070312 C-23.834999084472656,-88.86499786376953 -11.918000221252441,-88.375 1.281000018119812,-88.375 C14.258000373840332,-88.375 26.052000045776367,-88.85800170898438 36.44499969482422,-89.58399963378906 C39.6510009765625,-89.80799865722656 45.65599822998047,-107.23100280761719 45.65599822998047,-107.23100280761719 C45.65599822998047,-107.23100280761719 50.81700134277344,-90.8030014038086 53.222999572753906,-91.05999755859375 C74.16600036621094,-93.29499816894531 86.18699645996094,-96.11399841308594 86.18699645996094,-96.11399841308594z"></path></g><g opacity="1" transform="matrix(1,0,0,1,0,0)"><path fill="url(#__lottie_element_7)" fill-opacity="0.9" d=" M3.680999994277954,-132.31100463867188 C-28.707000732421875,-131.77499389648438 -58.70199966430664,-142.6179962158203 -65.51699829101562,-149.19000244140625 C-71.01300048828125,-154.49000549316406 -70.2249984741211,-162.08799743652344 -65.31400299072266,-168.0760040283203 C-61.42900085449219,-172.81300354003906 -45.4900016784668,-188.20199584960938 0.953000009059906,-188.84100341796875 C27.400999069213867,-189.20599365234375 52.77000045776367,-181.6820068359375 64.43299865722656,-170.83200073242188 C64.44100189208984,-170.82200622558594 64.44100189208984,-170.82200622558594 64.44999694824219,-170.81199645996094 C85.55799865722656,-151.00599670410156 62.926998138427734,-133.29200744628906 3.680999994277954,-132.31100463867188z"></path></g><g opacity="1" transform="matrix(1,0,0,1,0,0)"><path fill="url(#__lottie_element_8)" fill-opacity="1" d=" M-44.441001892089844,-181.6820068359375 C-44.441001892089844,-181.6820068359375 -73.09100341796875,-167.02499389648438 -81.0469970703125,-122.61199951171875 C-89.00299835205078,-78.1989974975586 -84.5989990234375,58.52299880981445 -84.5989990234375,58.52299880981445 C-84.5989990234375,58.52299880981445 -94.052001953125,-34.39699935913086 -94.23999786376953,-76.8270034790039 C-94.46700286865234,-128.1750030517578 -84.84700012207031,-164.58200073242188 -44.441001892089844,-181.6820068359375z"></path></g><g opacity="1" transform="matrix(1,0,0,1,0,0)"><path fill="url(#__lottie_element_9)" fill-opacity="1" d=" M-39.92499923706055,-133.66299438476562 C-41.94900131225586,-124.1240005493164 -48.83100128173828,-89.85199737548828 -49.946998596191406,-89.97000122070312 C-68.44300079345703,-91.90499877929688 -79.83799743652344,-94.31500244140625 -82.23799896240234,-94.8479995727539 C-83.3239974975586,-102.39299774169922 -76.01499938964844,-129.94700622558594 -69.40899658203125,-146.53700256347656 C-69.40899658203125,-146.53700256347656 -64.30699920654297,-142.71200561523438 -39.92499923706055,-133.66299438476562z"></path></g><g opacity="1" transform="matrix(1,0,0,1,0,0)"><path fill="url(#__lottie_element_10)" fill-opacity="1" d=" M85.072998046875,-94.87799835205078 C81.64600372314453,-94.14700317382812 70.45800018310547,-91.91600036621094 53.22600173950195,-90.06900024414062 C50.81700134277344,-89.81199645996094 45.652000427246094,-109.20600128173828 45.652000427246094,-109.20600128173828 C45.652000427246094,-109.20600128173828 39.64899826049805,-88.8239974975586 36.44900131225586,-88.59700012207031 C26.051000595092773,-87.8759994506836 14.260000228881836,-87.39199829101562 1.284000039100647,-87.39199829101562 C-11.918999671936035,-87.39199829101562 -23.83799934387207,-87.8759994506836 -34.26599884033203,-88.60700225830078 C-35.441001892089844,-88.68599700927734 -36.0629997253418,-130.66200256347656 -37.06999969482422,-140.00399780273438 C-35.89899826049805,-132.29100036621094 -20.260000228881836,-130.2030029296875 -4.982999801635742,-130.2030029296875 C63.52899932861328,-130.2030029296875 76.75499725341797,-143.41200256347656 76.75499725341797,-143.41200256347656 C76.75499725341797,-143.41200256347656 86.84100341796875,-110.23400115966797 85.072998046875,-94.87799835205078z"></path></g><g opacity="1" transform="matrix(1,0,0,1,0,0)"><path stroke-linecap="round" stroke-linejoin="round" fill-opacity="0" stroke="rgb(0,0,0)" stroke-opacity="1" stroke-width="8" d=" M-69.40899658203125,-146.53700256347656 C-76.06199645996094,-133.5800018310547 -82.71399688720703,-113.71199798583984 -82.71399688720703,-86.06900024414062 C-82.71399688720703,-30.784000396728516 -82.71399688720703,86.58999633789062 -82.71399688720703,86.58999633789062 C-82.71399688720703,86.58999633789062 -102.31600189208984,76.39800262451172 -117.33399963378906,60.45600128173828 C-117.33399963378906,60.45600128173828 -121.4229965209961,29.88599967956543 -121.4229965209961,29.88599967956543 C-121.4229965209961,29.88599967956543 -126.93399810791016,48.185001373291016 -126.93399810791016,48.185001373291016 C-132.03900146484375,39.9900016784668 -135.1020050048828,30.867000579833984 -133.99200439453125,21.20599937438965 C-133.46299743652344,16.599000930786133 -132.3459930419922,-46.03900146484375 -121.23200225830078,-97.2030029296875 C-110.11799621582031,-148.36700439453125 -86.39600372314453,-198.54400634765625 0.9750000238418579,-198.54400634765625 C88.34600067138672,-198.54400634765625 115.11799621582031,-150.46499633789062 123.33300018310547,-98.7699966430664 C131.18899536132812,-49.33300018310547 135.27999877929688,-22.08099937438965 136.4250030517578,8.37399959564209 C136.8179931640625,18.816999435424805 135.7760009765625,29.604000091552734 130.46099853515625,41.13600158691406 C130.46099853515625,41.13600158691406 124.95800018310547,15.321999549865723 124.95800018310547,15.321999549865723 C124.95800018310547,15.321999549865723 120.68199920654297,56.875 120.68199920654297,56.875 C113.58999633789062,65.89900207519531 103.50700378417969,75.4219970703125 89.30400085449219,85.60199737548828 C89.30400085449219,85.60199737548828 86.18699645996094,-59.44300079345703 86.18699645996094,-89.2020034790039 C86.18699645996094,-118.96099853515625 79.10299682617188,-145.7010040283203 67.58300018310547,-158.7530059814453"></path></g><g opacity="1" transform="matrix(1,0,0,1,0,0)"><path stroke-linecap="round" stroke-linejoin="round" fill-opacity="0" stroke="rgb(0,0,0)" stroke-opacity="1" stroke-width="8" d=" M-82.26799774169922,-95.33999633789062 C-82.26799774169922,-95.33999633789062 -71.552001953125,-92.09500122070312 -48.6879997253418,-89.7249984741211 C-48.6879997253418,-89.7249984741211 -47.882999420166016,-93.44999694824219 -44.8650016784668,-110.9020004272461 C-41.66999816894531,-129.3769989013672 -37.06999969482422,-140.00399780273438 -37.06999969482422,-140.00399780273438 C-37.06999969482422,-140.00399780273438 -37.840999603271484,-131.66099548339844 -37.06999969482422,-112.75499725341797 C-36.444000244140625,-97.41400146484375 -34.457000732421875,-88.51100158691406 -34.457000732421875,-88.51100158691406 C-24.466999053955078,-87.83200073242188 -12.895999908447266,-87.38800048828125 0.2800000011920929,-87.38800048828125 C15.470000267028809,-87.38800048828125 28.732999801635742,-87.84700012207031 39.99800109863281,-88.51599884033203 C41.00600051879883,-88.57599639892578 43.11199951171875,-99.75900268554688 43.8129997253418,-113.58000183105469 C44.46500015258789,-126.44000244140625 43.74700164794922,-138.0590057373047 43.74700164794922,-138.0590057373047 C43.74700164794922,-138.0590057373047 46.51300048828125,-126.38400268554688 47.96500015258789,-113.71199798583984 C49.53499984741211,-100.01200103759766 49.83100128173828,-89.18599700927734 50.67100143432617,-89.25199890136719 C73.98200225830078,-91.09200286865234 86.10800170898438,-93.63099670410156 86.10800170898438,-93.63099670410156"></path></g></g></g></svg>