<svg xmlns="http://www.w3.org/2000/svg" xmlns:xlink="http://www.w3.org/1999/xlink" viewBox="0 0 512 512" width="512" height="512" style="width: 100%; height: 100%; transform: translate3d(0,0,0); content-visibility: visible;" preserveAspectRatio="xMidYMid meet"><defs><clipPath id="__lottie_element_2"><rect width="512" height="512" x="0" y="0"></rect></clipPath><radialGradient id="__lottie_element_6" spreadMethod="pad" gradientUnits="userSpaceOnUse" cx="67.25" cy="-109.5" r="45.00138886745608" fx="67.25" fy="-109.5"><stop offset="0%" stop-color="rgb(206,204,196)" stop-opacity="1"></stop><stop offset="50%" stop-color="rgb(206,204,196)" stop-opacity="0.5"></stop><stop offset="100%" stop-color="rgb(206,204,196)" stop-opacity="0"></stop></radialGradient><radialGradient id="__lottie_element_7" spreadMethod="pad" gradientUnits="userSpaceOnUse" cx="-68.25" cy="-109" r="44.86228928621454" fx="-68.25" fy="-109"><stop offset="0%" stop-color="rgb(206,204,196)" stop-opacity="1"></stop><stop offset="50%" stop-color="rgb(206,204,196)" stop-opacity="0.5"></stop><stop offset="100%" stop-color="rgb(206,204,196)" stop-opacity="0"></stop></radialGradient><radialGradient id="__lottie_element_8" spreadMethod="pad" gradientUnits="userSpaceOnUse" cx="1" cy="-78.5" r="151.8453160291749" fx="1" fy="-78.5"><stop offset="0%" stop-color="rgb(219,217,211)" stop-opacity="1"></stop><stop offset="50%" stop-color="rgb(219,217,211)" stop-opacity="0.574999988079071"></stop><stop offset="100%" stop-color="rgb(219,217,211)" stop-opacity="0.15000000596046448"></stop></radialGradient><radialGradient id="__lottie_element_9" spreadMethod="pad" gradientUnits="userSpaceOnUse" cx="37" cy="-136.5" r="33.14834083329058" fx="37" fy="-136.5"><stop offset="0%" stop-color="rgb(198,198,198)"></stop><stop offset="52%" stop-color="rgb(198,198,198)"></stop><stop offset="100%" stop-color="rgb(198,198,198)"></stop></radialGradient><mask id="__lottie_element_11"><path fill="url(#__lottie_element_10)" d=" M96.5,-127.75 C64.75,-146.25 26.25,-139.5 10,-122.5 C-4.659999847412109,-107.16300201416016 6.125,-103.25 10.375,-106.125 C7,-105.875 3.5190000534057617,-106.16899871826172 12.625,-118 C27.25,-137 76,-140.5 96.5,-127.75z"></path></mask><radialGradient id="__lottie_element_10" spreadMethod="pad" gradientUnits="userSpaceOnUse" cx="37" cy="-136.5" r="33.14834083329058" fx="37" fy="-136.5"><stop stop-color="rgb(255,255,255)" offset="0%" stop-opacity="1"></stop><stop stop-color="rgb(255,255,255)" offset="51%" stop-opacity="0.6499999761581421"></stop><stop stop-color="rgb(255,255,255)" offset="100%" stop-opacity="0.30000001192092896"></stop></radialGradient><radialGradient id="__lottie_element_12" spreadMethod="pad" gradientUnits="userSpaceOnUse" cx="-36.75" cy="-134" r="33.25375918599279" fx="-36.75" fy="-134"><stop offset="0%" stop-color="rgb(198,198,198)"></stop><stop offset="52%" stop-color="rgb(198,198,198)"></stop><stop offset="100%" stop-color="rgb(198,198,198)"></stop></radialGradient><mask id="__lottie_element_14"><path fill="url(#__lottie_element_13)" d=" M-92.75,-130.5 C-54,-145.25 -26.5,-130.25 -16.125,-118.125 C-7.505000114440918,-108.0510025024414 -11.25,-106.25 -12.75,-105.625 C-9.25,-105.5 -2,-109.25 -11.375,-120.5 C-26.222000122070312,-138.31700134277344 -59.75,-146.25 -92.75,-130.5z"></path></mask><radialGradient id="__lottie_element_13" spreadMethod="pad" gradientUnits="userSpaceOnUse" cx="-36.75" cy="-134" r="33.25375918599279" fx="-36.75" fy="-134"><stop stop-color="rgb(255,255,255)" offset="0%" stop-opacity="1"></stop><stop stop-color="rgb(255,255,255)" offset="51%" stop-opacity="0.6499999761581421"></stop><stop stop-color="rgb(255,255,255)" offset="100%" stop-opacity="0.30000001192092896"></stop></radialGradient><linearGradient id="__lottie_element_15" spreadMethod="pad" gradientUnits="userSpaceOnUse" x1="2.0450000762939453" y1="-37.72700119018555" x2="1.590999960899353" y2="-78.86399841308594"><stop offset="0%" stop-color="rgb(191,55,53)"></stop><stop offset="10%" stop-color="rgb(218,92,74)"></stop><stop offset="20%" stop-color="rgb(246,129,94)"></stop><stop offset="34%" stop-color="rgb(195,81,62)"></stop><stop offset="100%" stop-color="rgb(144,32,30)"></stop></linearGradient><linearGradient id="__lottie_element_16" spreadMethod="pad" gradientUnits="userSpaceOnUse" x1="1.3639999628067017" y1="-74.09100341796875" x2="2.0450000762939453" y2="-54.31800079345703"><stop offset="0%" stop-color="rgb(255,255,255)"></stop><stop offset="51%" stop-color="rgb(255,255,255)"></stop><stop offset="100%" stop-color="rgb(255,255,255)"></stop></linearGradient><mask id="__lottie_element_18"><path fill="url(#__lottie_element_17)" d=" M1.6139999628067017,-73.88600158691406 C-1.2280000448226929,-73.79100036621094 -3.8429999351501465,-52.143001556396484 1.5,-51.840999603271484 C7.5229997634887695,-51.5 5.0229997634887695,-74 1.6139999628067017,-73.88600158691406z"></path></mask><linearGradient id="__lottie_element_17" spreadMethod="pad" gradientUnits="userSpaceOnUse" x1="1.3639999628067017" y1="-74.09100341796875" x2="2.0450000762939453" y2="-54.31800079345703"><stop stop-color="rgb(255,255,255)" offset="0%" stop-opacity="1"></stop><stop stop-color="rgb(255,255,255)" offset="54%" stop-opacity="0.5"></stop><stop stop-color="rgb(255,255,255)" offset="100%" stop-opacity="0"></stop></linearGradient><linearGradient id="__lottie_element_25" spreadMethod="pad" gradientUnits="userSpaceOnUse" x1="119.5770034790039" y1="112.16899871826172" x2="123.27999877929688" y2="-174.60299682617188"><stop offset="0%" stop-color="rgb(192,167,90)"></stop><stop offset="68%" stop-color="rgb(192,167,90)"></stop><stop offset="100%" stop-color="rgb(192,167,90)"></stop></linearGradient><mask id="__lottie_element_27"><path fill="url(#__lottie_element_26)" d=" M23.62700080871582,-99.74800109863281 C-38.01499938964844,-102.34300231933594 -77.16699981689453,-111.38800048828125 -86.86100006103516,-120.62100219726562 C-87.572998046875,-121.29900360107422 -90.9229965209961,-112.97599792480469 -92.71600341796875,-109.30599975585938 C-79.28299713134766,-98.16100311279297 -55.472999572753906,-97.10199737548828 -45.4630012512207,-96.06500244140625 C-86.69000244140625,-59.00699996948242 -81.2239990234375,-1.9930000305175781 -89.98899841308594,-4.574999809265137 C-95.15699768066406,-6.0970001220703125 -93.59400177001953,-53.63199996948242 -96.47899627685547,-54.5099983215332 C-102.56400299072266,-56.36199951171875 -102.03399658203125,42.05099868774414 -88.80699920654297,47.34199905395508 C-74.52100372314453,46.8129997253418 -93.04000091552734,-27.26099967956543 -47.5369987487793,-93.39900207519531 C-41.1879997253418,-96.5739974975586 36.59000015258789,-103.98100280761719 95.58200073242188,-96.06500244140625 C131.8280029296875,-47.895999908447266 130.24099731445312,46.284000396728516 137.11900329589844,47.87099838256836 C151.40499877929688,46.8129997253418 154.0500030517578,-51.599998474121094 148.4949951171875,-51.599998474121094 C145.53700256347656,-51.599998474121094 148.22500610351562,-5.098999977111816 140.61500549316406,-4.480000019073486 C134.47300720214844,-3.9809999465942383 127.06700134277344,-74.87999725341797 97.13200378417969,-97.14299774169922 C119.12999725341797,-97.10299682617188 135.0019989013672,-101.86399841308594 145.5070037841797,-108.77899932861328 C141.3520050048828,-116.1500015258789 139.23399353027344,-121.84700012207031 139.0469970703125,-121.70099639892578 C121.7750015258789,-108.21399688720703 48.75899887084961,-98.69000244140625 23.62700080871582,-99.74800109863281z"></path></mask><linearGradient id="__lottie_element_26" spreadMethod="pad" gradientUnits="userSpaceOnUse" x1="119.5770034790039" y1="112.16899871826172" x2="123.27999877929688" y2="-174.60299682617188"><stop stop-color="rgb(255,255,255)" offset="0%" stop-opacity="1"></stop><stop stop-color="rgb(255,255,255)" offset="63%" stop-opacity="0.5"></stop><stop stop-color="rgb(255,255,255)" offset="100%" stop-opacity="0"></stop></linearGradient><linearGradient id="__lottie_element_28" spreadMethod="pad" gradientUnits="userSpaceOnUse" x1="24.868000030517578" y1="-157.6719970703125" x2="24.339000701904297" y2="-95.23799896240234"><stop offset="0%" stop-color="rgb(255,255,255)" stop-opacity="1"></stop><stop offset="50%" stop-color="rgb(255,255,255)" stop-opacity="0.5"></stop><stop offset="100%" stop-color="rgb(255,255,255)" stop-opacity="0"></stop></linearGradient><linearGradient id="__lottie_element_29" spreadMethod="pad" gradientUnits="userSpaceOnUse" x1="23.809999465942383" y1="-102.38099670410156" x2="24.339000701904297" y2="-132.27499389648438"><stop offset="0%" stop-color="rgb(192,167,90)"></stop><stop offset="68%" stop-color="rgb(192,167,90)"></stop><stop offset="100%" stop-color="rgb(192,167,90)"></stop></linearGradient><mask id="__lottie_element_31"><path fill="url(#__lottie_element_30)" d=" M-47.27199935913086,-128.05499267578125 C-49.38800048828125,-125.1449966430664 -6.002999782562256,-120.91200256347656 17.01300048828125,-98.9540023803711 C17.01300048828125,-98.9540023803711 31.298999786376953,-99.48400115966797 31.959999084472656,-99.21900177001953 C49.553001403808594,-120.64800262451172 96.37799835205078,-128.05499267578125 94.28600311279297,-129.1529998779297 C86.32499694824219,-130.43600463867188 48.7599983215332,-125.1449966430664 24.158000946044922,-102.69300079345703 C-3.621000051498413,-125.40899658203125 -46.39400100708008,-129.26300048828125 -47.27199935913086,-128.05499267578125z"></path></mask><linearGradient id="__lottie_element_30" spreadMethod="pad" gradientUnits="userSpaceOnUse" x1="23.809999465942383" y1="-102.38099670410156" x2="24.339000701904297" y2="-132.27499389648438"><stop stop-color="rgb(255,255,255)" offset="0%" stop-opacity="1"></stop><stop stop-color="rgb(255,255,255)" offset="63%" stop-opacity="0.5"></stop><stop stop-color="rgb(255,255,255)" offset="100%" stop-opacity="0"></stop></linearGradient><linearGradient id="__lottie_element_38" spreadMethod="pad" gradientUnits="userSpaceOnUse" x1="59.07400131225586" y1="10.696999549865723" x2="74.9020004272461" y2="35.19300079345703"><stop offset="0%" stop-color="rgb(66,0,0)"></stop><stop offset="37%" stop-color="rgb(118,40,0)"></stop><stop offset="100%" stop-color="rgb(170,80,0)"></stop></linearGradient><radialGradient id="__lottie_element_39" spreadMethod="pad" gradientUnits="userSpaceOnUse" cx="76.0739974975586" cy="29.69700050354004" r="12.561004638671875" fx="76.0739974975586" fy="29.69700050354004"><stop offset="0%" stop-color="rgb(246,175,0)" stop-opacity="1"></stop><stop offset="50%" stop-color="rgb(246,175,0)" stop-opacity="0.5"></stop><stop offset="100%" stop-color="rgb(246,175,0)" stop-opacity="0"></stop></radialGradient><linearGradient id="__lottie_element_40" spreadMethod="pad" gradientUnits="userSpaceOnUse" x1="57.07400131225586" y1="-1.3029999732971191" x2="57.07400131225586" y2="9.519000053405762"><stop offset="0%" stop-color="rgb(255,255,255)" stop-opacity="1"></stop><stop offset="60%" stop-color="rgb(255,255,255)" stop-opacity="0.5"></stop><stop offset="100%" stop-color="rgb(255,255,255)" stop-opacity="0"></stop></linearGradient><linearGradient id="__lottie_element_41" spreadMethod="pad" gradientUnits="userSpaceOnUse" x1="-77.0510025024414" y1="7.447000026702881" x2="-59.347999572753906" y2="35.94200134277344"><stop offset="0%" stop-color="rgb(66,0,0)"></stop><stop offset="37%" stop-color="rgb(118,40,0)"></stop><stop offset="100%" stop-color="rgb(170,80,0)"></stop></linearGradient><radialGradient id="__lottie_element_42" spreadMethod="pad" gradientUnits="userSpaceOnUse" cx="-59.92599868774414" cy="29.69700050354004" r="12.560997009277344" fx="-59.92599868774414" fy="29.69700050354004"><stop offset="0%" stop-color="rgb(246,175,0)" stop-opacity="1"></stop><stop offset="50%" stop-color="rgb(246,175,0)" stop-opacity="0.5"></stop><stop offset="100%" stop-color="rgb(246,175,0)" stop-opacity="0"></stop></radialGradient><linearGradient id="__lottie_element_43" spreadMethod="pad" gradientUnits="userSpaceOnUse" x1="-78.9260025024414" y1="-1.3029999732971191" x2="-78.9260025024414" y2="9.519000053405762"><stop offset="0%" stop-color="rgb(255,255,255)" stop-opacity="1"></stop><stop offset="60%" stop-color="rgb(255,255,255)" stop-opacity="0.5"></stop><stop offset="100%" stop-color="rgb(255,255,255)" stop-opacity="0"></stop></linearGradient><linearGradient id="__lottie_element_47" spreadMethod="pad" gradientUnits="userSpaceOnUse" x1="-1.8009999990463257" y1="132.04299926757812" x2="-1.9259999990463257" y2="143.00799560546875"><stop offset="0%" stop-color="rgb(255,168,0)" stop-opacity="1"></stop><stop offset="50%" stop-color="rgb(255,168,0)" stop-opacity="0.5"></stop><stop offset="100%" stop-color="rgb(255,168,0)" stop-opacity="0"></stop></linearGradient><radialGradient id="__lottie_element_48" spreadMethod="pad" gradientUnits="userSpaceOnUse" cx="-1.9259999990463257" cy="148.41799926757812" r="39.79100167751312" fx="-1.9259999990463257" fy="148.41799926757812"><stop offset="0%" stop-color="rgb(255,255,255)" stop-opacity="1"></stop><stop offset="62%" stop-color="rgb(255,255,255)" stop-opacity="0.5"></stop><stop offset="100%" stop-color="rgb(255,255,255)" stop-opacity="0"></stop></radialGradient><linearGradient id="__lottie_element_49" spreadMethod="pad" gradientUnits="userSpaceOnUse" x1="-1.9259999990463257" y1="148.41799926757812" x2="-1.9259999990463257" y2="138.76699829101562"><stop offset="0%" stop-color="rgb(88,11,14)" stop-opacity="0"></stop><stop offset="34%" stop-color="rgb(88,11,14)" stop-opacity="0.5"></stop><stop offset="75%" stop-color="rgb(88,11,14)" stop-opacity="1"></stop></linearGradient><radialGradient id="__lottie_element_50" spreadMethod="pad" gradientUnits="userSpaceOnUse" cx="-1.284999966621399" cy="164.41799926757812" r="25.964000821113586" fx="-1.284999966621399" fy="164.41799926757812"><stop offset="10%" stop-color="rgb(219,110,0)" stop-opacity="1"></stop><stop offset="66%" stop-color="rgb(219,110,0)" stop-opacity="0.5"></stop><stop offset="100%" stop-color="rgb(219,110,0)" stop-opacity="0"></stop></radialGradient><linearGradient id="__lottie_element_54" spreadMethod="pad" gradientUnits="userSpaceOnUse" x1="-3.9260001182556152" y1="89.5719985961914" x2="-3.9260001182556152" y2="111.40899658203125"><stop offset="0%" stop-color="rgb(255,168,0)" stop-opacity="1"></stop><stop offset="65%" stop-color="rgb(255,168,0)" stop-opacity="0.5"></stop><stop offset="100%" stop-color="rgb(255,168,0)" stop-opacity="0"></stop></linearGradient><linearGradient id="__lottie_element_55" spreadMethod="pad" gradientUnits="userSpaceOnUse" x1="-3.9260001182556152" y1="99.6969985961914" x2="-3.9260001182556152" y2="72.13500213623047"><stop offset="10%" stop-color="rgb(219,110,0)" stop-opacity="1"></stop><stop offset="51%" stop-color="rgb(219,110,0)" stop-opacity="0.5"></stop><stop offset="80%" stop-color="rgb(219,110,0)" stop-opacity="0"></stop></linearGradient><radialGradient id="__lottie_element_56" spreadMethod="pad" gradientUnits="userSpaceOnUse" cx="-4.926000118255615" cy="62.696998596191406" r="35.147000789642334" fx="-4.926000118255615" fy="62.696998596191406"><stop offset="40%" stop-color="rgb(255,168,0)" stop-opacity="0"></stop><stop offset="76%" stop-color="rgb(255,168,0)" stop-opacity="0.5"></stop><stop offset="100%" stop-color="rgb(255,168,0)" stop-opacity="1"></stop></radialGradient><linearGradient id="__lottie_element_57" spreadMethod="pad" gradientUnits="userSpaceOnUse" x1="-3.9260001182556152" y1="58.696998596191406" x2="-3.9260001182556152" y2="78.00800323486328"><stop offset="0%" stop-color="rgb(255,255,255)" stop-opacity="1"></stop><stop offset="50%" stop-color="rgb(255,255,255)" stop-opacity="0.5"></stop><stop offset="99%" stop-color="rgb(255,255,255)" stop-opacity="0"></stop></linearGradient><linearGradient id="__lottie_element_61" spreadMethod="pad" gradientUnits="userSpaceOnUse" x1="-4.578999996185303" y1="-145.74200439453125" x2="-3.9260001182556152" y2="181.4320068359375"><stop offset="6%" stop-color="rgb(255,216,0)" stop-opacity="0"></stop><stop offset="15%" stop-color="rgb(255,216,0)" stop-opacity="0.5"></stop><stop offset="50%" stop-color="rgb(255,216,0)" stop-opacity="1"></stop><stop offset="89%" stop-color="rgb(255,216,0)" stop-opacity="0.5"></stop><stop offset="100%" stop-color="rgb(255,216,0)" stop-opacity="0"></stop></linearGradient><linearGradient id="__lottie_element_65" spreadMethod="pad" gradientUnits="userSpaceOnUse" x1="-130.33399963378906" y1="-37.237998962402344" x2="-125.94599914550781" y2="3.0190000534057617"><stop offset="0%" stop-color="rgb(255,216,0)"></stop><stop offset="50%" stop-color="rgb(255,192,0)"></stop><stop offset="100%" stop-color="rgb(255,168,0)"></stop></linearGradient><linearGradient id="__lottie_element_66" spreadMethod="pad" gradientUnits="userSpaceOnUse" x1="128.3209991455078" y1="-39.75400161743164" x2="121.13500213623047" y2="1.5099999904632568"><stop offset="0%" stop-color="rgb(255,216,0)"></stop><stop offset="50%" stop-color="rgb(255,192,0)"></stop><stop offset="100%" stop-color="rgb(255,168,0)"></stop></linearGradient><linearGradient id="__lottie_element_70" spreadMethod="pad" gradientUnits="userSpaceOnUse" x1="-90.21199798583984" y1="297.35400390625" x2="-99.47100067138672" y2="46.03200149536133"><stop offset="0%" stop-color="rgb(0,0,230)"></stop><stop offset="0%" stop-color="rgb(119,114,216)"></stop><stop offset="0%" stop-color="rgb(237,229,202)"></stop><stop offset="68%" stop-color="rgb(234,224,193)"></stop><stop offset="100%" stop-color="rgb(230,219,183)"></stop></linearGradient><linearGradient id="__lottie_element_71" spreadMethod="pad" gradientUnits="userSpaceOnUse" x1="146.29600524902344" y1="301.0580139160156" x2="150.26499938964844" y2="52.90999984741211"><stop offset="0%" stop-color="rgb(0,0,230)"></stop><stop offset="0%" stop-color="rgb(119,114,216)"></stop><stop offset="0%" stop-color="rgb(237,229,202)"></stop><stop offset="68%" stop-color="rgb(234,224,193)"></stop><stop offset="100%" stop-color="rgb(230,219,183)"></stop></linearGradient><linearGradient id="__lottie_element_72" spreadMethod="pad" gradientUnits="userSpaceOnUse" x1="24.868000030517578" y1="-96.82499694824219" x2="29.6299991607666" y2="259.2590026855469"><stop offset="0%" stop-color="rgb(192,167,90)"></stop><stop offset="68%" stop-color="rgb(192,167,90)"></stop><stop offset="100%" stop-color="rgb(192,167,90)"></stop></linearGradient><mask id="__lottie_element_74"><path fill="url(#__lottie_element_73)" d=" M-109.87699890136719,19.194000244140625 C-124.25700378417969,88.61199951171875 -104.1510009765625,167.64599609375 -109.177001953125,283.78399658203125 C-108.91200256347656,284.0480041503906 -99.25599670410156,283.8500061035156 -99.65299987792969,283.7179870605469 C-92.51000213623047,203.69200134277344 -107.32499694824219,104.48500061035156 -102.56300354003906,63.34700012207031 C-52.827999114990234,136.2310028076172 106.43099975585938,139.40499877929688 152.197998046875,65.59600067138672 C155.63699340820312,107.66000366210938 142.93899536132812,177.96400451660156 149.55299377441406,283.78399658203125 C149.55299377441406,284.04901123046875 159.34100341796875,284.0480041503906 159.20899963378906,283.9159851074219 C155.63699340820312,165.13299560546875 165.16200256347656,148.9290008544922 162.06300354003906,29.093000411987305 C161.8699951171875,21.63599967956543 -108.5790023803711,12.925999641418457 -109.87699890136719,19.194000244140625z"></path></mask><linearGradient id="__lottie_element_73" spreadMethod="pad" gradientUnits="userSpaceOnUse" x1="24.868000030517578" y1="-96.82499694824219" x2="29.6299991607666" y2="259.2590026855469"><stop stop-color="rgb(255,255,255)" offset="0%" stop-opacity="1"></stop><stop stop-color="rgb(255,255,255)" offset="63%" stop-opacity="0.5"></stop><stop stop-color="rgb(255,255,255)" offset="100%" stop-opacity="0"></stop></linearGradient><linearGradient id="__lottie_element_78" spreadMethod="pad" gradientUnits="userSpaceOnUse" x1="-2.5" y1="130" x2="-1" y2="237"><stop offset="0%" stop-color="rgb(35,88,53)"></stop><stop offset="16%" stop-color="rgb(53,122,83)"></stop><stop offset="51%" stop-color="rgb(71,157,112)"></stop><stop offset="90%" stop-color="rgb(53,122,83)"></stop><stop offset="100%" stop-color="rgb(35,88,53)"></stop></linearGradient><linearGradient id="__lottie_element_79" spreadMethod="pad" gradientUnits="userSpaceOnUse" x1="0.25" y1="139.25" x2="-1.5" y2="200.25"><stop offset="0%" stop-color="rgb(30,56,39)"></stop><stop offset="21%" stop-color="rgb(30,56,39)"></stop><stop offset="50%" stop-color="rgb(30,56,40)"></stop><stop offset="80%" stop-color="rgb(30,56,40)"></stop><stop offset="100%" stop-color="rgb(30,56,40)"></stop></linearGradient><mask id="__lottie_element_81"><path fill="url(#__lottie_element_80)" d=" M-19.75,124.25 C-105.5,126.5 -114.25,134 -113.75,134.25 C-70.75,153.25 -23.500999450683594,193.5 -1.812999963760376,207.75 C18.25,193.75 55,159.5 115.25,135 C115.98300170898438,135 98.75,126.25 18.253000259399414,123.06500244140625 C10.50100040435791,151.5 -8,163.75 -19.75,124.25z"></path></mask><linearGradient id="__lottie_element_80" spreadMethod="pad" gradientUnits="userSpaceOnUse" x1="0.25" y1="139.25" x2="-1.5" y2="200.25"><stop stop-color="rgb(255,255,255)" offset="0%" stop-opacity="1"></stop><stop stop-color="rgb(255,255,255)" offset="23%" stop-opacity="0.699999988079071"></stop><stop stop-color="rgb(255,255,255)" offset="51%" stop-opacity="0.4000000059604645"></stop><stop stop-color="rgb(255,255,255)" offset="81%" stop-opacity="0.699999988079071"></stop><stop stop-color="rgb(255,255,255)" offset="100%" stop-opacity="1"></stop></linearGradient><linearGradient id="__lottie_element_82" spreadMethod="pad" gradientUnits="userSpaceOnUse" x1="-0.5" y1="121.25" x2="0.25" y2="196.75"><stop offset="0%" stop-color="rgb(34,87,53)"></stop><stop offset="14%" stop-color="rgb(48,108,70)"></stop><stop offset="51%" stop-color="rgb(63,130,87)"></stop><stop offset="88%" stop-color="rgb(48,108,70)"></stop><stop offset="100%" stop-color="rgb(34,87,53)"></stop></linearGradient><linearGradient id="__lottie_element_83" spreadMethod="pad" gradientUnits="userSpaceOnUse" x1="29.5" y1="123.25" x2="29.5" y2="160.25"><stop offset="0%" stop-color="rgb(15,59,29)"></stop><stop offset="59%" stop-color="rgb(39,95,58)"></stop><stop offset="100%" stop-color="rgb(63,130,87)"></stop></linearGradient><radialGradient id="__lottie_element_84" spreadMethod="pad" gradientUnits="userSpaceOnUse" cx="1" cy="187" r="125.23977004130916" fx="1" fy="187"><stop offset="0%" stop-color="rgb(216,217,98)"></stop><stop offset="50%" stop-color="rgb(182,180,73)"></stop><stop offset="100%" stop-color="rgb(148,142,49)"></stop></radialGradient><linearGradient id="__lottie_element_85" spreadMethod="pad" gradientUnits="userSpaceOnUse" x1="-117" y1="134.25" x2="-87.5" y2="251.75"><stop offset="0%" stop-color="rgb(35,67,48)"></stop><stop offset="50%" stop-color="rgb(35,67,48)"></stop><stop offset="100%" stop-color="rgb(35,67,48)"></stop></linearGradient><mask id="__lottie_element_87"><path fill="url(#__lottie_element_86)" d=" M-130.875,186.75 C-127.56900024414062,189.96299743652344 -114.875,204 -96.60600280761719,218.2429962158203 C-96.59400177001953,218.31300354003906 -83.88700103759766,218.3560028076172 -83.83899688720703,218.34500122070312 C-86.46800231933594,178.625 -84.75,146.25 -76.34500122070312,123.29299926757812 C-75.5,123.75 -117,136.25 -148.7259979248047,139.55499267578125 C-148.5,139.5 -131,154.5 -130.875,186.75z"></path></mask><linearGradient id="__lottie_element_86" spreadMethod="pad" gradientUnits="userSpaceOnUse" x1="-117" y1="134.25" x2="-87.5" y2="251.75"><stop stop-color="rgb(255,255,255)" offset="0%" stop-opacity="1"></stop><stop stop-color="rgb(255,255,255)" offset="51%" stop-opacity="0.5"></stop><stop stop-color="rgb(255,255,255)" offset="100%" stop-opacity="0"></stop></linearGradient><linearGradient id="__lottie_element_88" spreadMethod="pad" gradientUnits="userSpaceOnUse" x1="114.5" y1="135" x2="87.25" y2="250.5"><stop offset="0%" stop-color="rgb(35,67,48)"></stop><stop offset="50%" stop-color="rgb(35,67,48)"></stop><stop offset="100%" stop-color="rgb(35,67,48)"></stop></linearGradient><mask id="__lottie_element_90"><path fill="url(#__lottie_element_89)" d=" M149,142 C129.4040069580078,134.0850067138672 71.3949966430664,123.05699920654297 71.86499786376953,123.7979965209961 C86.75,147.25 80.75,202.5 78.46499633789062,219.0919952392578 C78.31199645996094,219.125 93.93699645996094,219.06300354003906 93.85099792480469,219.0449981689453 C102.875,214.875 116.71600341796875,196.84800720214844 124.25,194 C125.5,192.75 131.75,143.5 149,142z"></path></mask><linearGradient id="__lottie_element_89" spreadMethod="pad" gradientUnits="userSpaceOnUse" x1="114.5" y1="135" x2="87.25" y2="250.5"><stop stop-color="rgb(255,255,255)" offset="0%" stop-opacity="1"></stop><stop stop-color="rgb(255,255,255)" offset="51%" stop-opacity="0.5"></stop><stop stop-color="rgb(255,255,255)" offset="100%" stop-opacity="0"></stop></linearGradient><linearGradient id="__lottie_element_91" spreadMethod="pad" gradientUnits="userSpaceOnUse" x1="0.625" y1="150" x2="0.625" y2="119.125"><stop offset="0%" stop-color="rgb(57,93,35)"></stop><stop offset="19%" stop-color="rgb(83,113,38)"></stop><stop offset="53%" stop-color="rgb(108,132,42)"></stop><stop offset="84%" stop-color="rgb(83,113,38)"></stop><stop offset="100%" stop-color="rgb(57,93,35)"></stop></linearGradient><radialGradient id="__lottie_element_92" spreadMethod="pad" gradientUnits="userSpaceOnUse" cx="-114" cy="123" r="74.01097891529338" fx="-114" fy="123"><stop offset="0%" stop-color="rgb(255,255,255)"></stop><stop offset="51%" stop-color="rgb(255,255,255)"></stop><stop offset="100%" stop-color="rgb(255,255,255)"></stop></radialGradient><mask id="__lottie_element_94"><path fill="url(#__lottie_element_93)" d=" M-33.25,114.75 C-67,118 -153,143.25 -165.5,140.75 C-165.5,141.25 -158.75,148.75 -159.25,149.25 C-128.25,148.75 -67.25,128.5 -33.75,124 C-33.75,124 -32.50299835205078,114.6780014038086 -33.25,114.75z"></path></mask><radialGradient id="__lottie_element_93" spreadMethod="pad" gradientUnits="userSpaceOnUse" cx="-114" cy="123" r="74.01097891529338" fx="-114" fy="123"><stop stop-color="rgb(255,255,255)" offset="0%" stop-opacity="1"></stop><stop stop-color="rgb(255,255,255)" offset="53%" stop-opacity="0.5"></stop><stop stop-color="rgb(255,255,255)" offset="100%" stop-opacity="0"></stop></radialGradient><radialGradient id="__lottie_element_95" spreadMethod="pad" gradientUnits="userSpaceOnUse" cx="117.25" cy="120.5" r="86.43277734748548" fx="117.25" fy="120.5"><stop offset="0%" stop-color="rgb(255,255,255)"></stop><stop offset="51%" stop-color="rgb(255,255,255)"></stop><stop offset="100%" stop-color="rgb(255,255,255)"></stop></radialGradient><mask id="__lottie_element_97"><path fill="url(#__lottie_element_96)" d=" M29.5,114 C30.25,114.25 29.75,123.5 29.75,123.5 C83.25,130.75 125,151 159,150 C159.25,150.25 163.5,143 163.5,142.75 C126,138.5 52.75,114.75 29.5,114z"></path></mask><radialGradient id="__lottie_element_96" spreadMethod="pad" gradientUnits="userSpaceOnUse" cx="117.25" cy="120.5" r="86.43277734748548" fx="117.25" fy="120.5"><stop stop-color="rgb(255,255,255)" offset="0%" stop-opacity="1"></stop><stop stop-color="rgb(255,255,255)" offset="53%" stop-opacity="0.5"></stop><stop stop-color="rgb(255,255,255)" offset="100%" stop-opacity="0"></stop></radialGradient><radialGradient id="__lottie_element_98" spreadMethod="pad" gradientUnits="userSpaceOnUse" cx="-1.75" cy="177.5" r="24.50510150968569" fx="-1.75" fy="177.5"><stop offset="0%" stop-color="rgb(151,247,207)"></stop><stop offset="50%" stop-color="rgb(84,188,161)"></stop><stop offset="100%" stop-color="rgb(18,128,116)"></stop></radialGradient><linearGradient id="__lottie_element_99" spreadMethod="pad" gradientUnits="userSpaceOnUse" x1="-1" y1="155.625" x2="-1" y2="174.125"><stop offset="0%" stop-color="rgb(255,255,255)" stop-opacity="1"></stop><stop offset="50%" stop-color="rgb(255,255,255)" stop-opacity="0.5"></stop><stop offset="100%" stop-color="rgb(255,255,255)" stop-opacity="0"></stop></linearGradient><radialGradient id="__lottie_element_103" spreadMethod="pad" gradientUnits="userSpaceOnUse" cx="-1.0509999990463257" cy="128.35000610351562" r="39.968141779365034" fx="-1.0510042095740135" fy="122.95790409606313"><stop offset="20%" stop-color="rgb(255,168,0)" stop-opacity="1"></stop><stop offset="68%" stop-color="rgb(255,168,0)" stop-opacity="0.5"></stop><stop offset="100%" stop-color="rgb(255,168,0)" stop-opacity="0"></stop></radialGradient><radialGradient id="__lottie_element_107" spreadMethod="pad" gradientUnits="userSpaceOnUse" cx="-0.5609999895095825" cy="145.01699829101562" r="167.80686589999843" fx="-0.5609999895095825" fy="145.01699829101562"><stop offset="20%" stop-color="rgb(255,216,0)" stop-opacity="1"></stop><stop offset="68%" stop-color="rgb(255,216,0)" stop-opacity="0.5"></stop><stop offset="100%" stop-color="rgb(255,216,0)" stop-opacity="0"></stop></radialGradient><linearGradient id="__lottie_element_111" spreadMethod="pad" gradientUnits="userSpaceOnUse" x1="104.5" y1="-102" x2="103" y2="-34.5"><stop offset="0%" stop-color="rgb(237,229,202)"></stop><stop offset="50%" stop-color="rgb(214,198,146)"></stop><stop offset="100%" stop-color="rgb(192,167,90)"></stop></linearGradient><radialGradient id="__lottie_element_112" spreadMethod="pad" gradientUnits="userSpaceOnUse" cx="-129.5" cy="172.5" r="139.02967309175406" fx="-129.5" fy="172.5"><stop offset="0%" stop-color="rgb(230,219,183)"></stop><stop offset="68%" stop-color="rgb(230,219,183)"></stop><stop offset="100%" stop-color="rgb(230,219,183)"></stop></radialGradient><mask id="__lottie_element_114"><path fill="url(#__lottie_element_113)" d=" M-138.5,11 C-143.5,104 -174.25,140.5 -188.5,195.06300354003906 C-190.2969970703125,201.94200134277344 -184.125,209.93800354003906 -169.13099670410156,210.75900268554688 C-140.56300354003906,210.81300354003906 -10.875,209.375 -10.875,209.875 C12,-55.5 -133.66600036621094,-78.91999816894531 -138.5,11z"></path></mask><radialGradient id="__lottie_element_113" spreadMethod="pad" gradientUnits="userSpaceOnUse" cx="-129.5" cy="172.5" r="139.02967309175406" fx="-129.5" fy="172.5"><stop stop-color="rgb(255,255,255)" offset="0%" stop-opacity="1"></stop><stop stop-color="rgb(255,255,255)" offset="63%" stop-opacity="0.5"></stop><stop stop-color="rgb(255,255,255)" offset="100%" stop-opacity="0"></stop></radialGradient><radialGradient id="__lottie_element_115" spreadMethod="pad" gradientUnits="userSpaceOnUse" cx="124.5" cy="174" r="140.8634090173882" fx="124.5" fy="174"><stop offset="0%" stop-color="rgb(230,219,183)"></stop><stop offset="68%" stop-color="rgb(230,219,183)"></stop><stop offset="100%" stop-color="rgb(230,219,183)"></stop></radialGradient><mask id="__lottie_element_117"><path fill="url(#__lottie_element_116)" d=" M135.75,17.75 C131.4010009765625,-103.62200164794922 1.75,-30.25 11.625,211.375 C12.125,210.875 121.375,211.375 157.968994140625,210.86099243164062 C177.375,210.5 181.375,197.125 181.375,193.875 C181.375,158.91900634765625 138.5,94.5 135.75,17.75z"></path></mask><radialGradient id="__lottie_element_116" spreadMethod="pad" gradientUnits="userSpaceOnUse" cx="124.5" cy="174" r="140.8634090173882" fx="124.5" fy="174"><stop stop-color="rgb(255,255,255)" offset="0%" stop-opacity="1"></stop><stop stop-color="rgb(255,255,255)" offset="63%" stop-opacity="0.5"></stop><stop stop-color="rgb(255,255,255)" offset="100%" stop-opacity="0"></stop></radialGradient></defs><g clip-path="url(#__lottie_element_2)"><g style="display: block;" transform="matrix(1,0,0,1,256,256)" opacity="1"><g opacity="1" transform="matrix(1,0,0,1,0,0)"><path fill="url(#__lottie_element_111)" fill-opacity="1" d=" M124,-123.5 C106.48899841308594,-163.1909942626953 -117.35399627685547,-192 -130,-120.5 C-143,-47 -134.7689971923828,11.803000450134277 -143.92799377441406,58.013999938964844 C-154.03900146484375,109.02799987792969 -177,156 -188.25,193.75 C-191.11000061035156,203.34500122070312 -182.75,209.75 -169.25,210.75 C-167.83999633789062,210.85400390625 158.75,211 159.25,211 C171.75,210.25 180.6840057373047,202.84100341796875 180.75,194.25 C181,161.5 152.5,130.5 139.7050018310547,51.04600143432617 C129.677001953125,-11.22599983215332 139,-89.5 124,-123.5z"></path></g><g opacity="0.6" transform="matrix(1,0,0,1,0,0)"><path fill="url(#__lottie_element_112)" mask="url(#__lottie_element_114)" fill-opacity="1" d="M0 0 M-138.5,11 C-143.5,104 -174.25,140.5 -188.5,195.06300354003906 C-190.2969970703125,201.94200134277344 -184.125,209.93800354003906 -169.13099670410156,210.75900268554688 C-140.56300354003906,210.81300354003906 -10.875,209.375 -10.875,209.875 C12,-55.5 -133.66600036621094,-78.91999816894531 -138.5,11z"></path></g><g opacity="0.6" transform="matrix(1,0,0,1,0,0)"><path fill="url(#__lottie_element_115)" mask="url(#__lottie_element_117)" fill-opacity="1" d="M0 0 M135.75,17.75 C131.4010009765625,-103.62200164794922 1.75,-30.25 11.625,211.375 C12.125,210.875 121.375,211.375 157.968994140625,210.86099243164062 C177.375,210.5 181.375,197.125 181.375,193.875 C181.375,158.91900634765625 138.5,94.5 135.75,17.75z"></path></g><g opacity="1" transform="matrix(1,0,0,1,0,0)"><path stroke-linecap="round" stroke-linejoin="miter" fill-opacity="0" stroke-miterlimit="4" stroke="rgb(153,119,60)" stroke-opacity="1" stroke-width="8" d=" M182.75,197.5 C173,140.5 148.85899353027344,120.19200134277344 139.2259979248047,50.54600143432617 C128.5,-27 139.5,-95.25 123.25,-131.5 C118.70899963378906,-141.63099670410156 -128.7779998779297,-126.4000015258789 -129.5,-123.125 C-141.125,-70.375 -133,-13 -144.36399841308594,56.8380012512207 C-155.1269989013672,122.98400115966797 -177.5,147 -189,199.75"></path></g><g opacity="1" transform="matrix(1,0,0,1,0,0)"><path stroke-linecap="round" stroke-linejoin="miter" fill-opacity="0" stroke-miterlimit="4" stroke="rgb(186,167,128)" stroke-opacity="1" stroke-width="8" d=" M-132.5,-106.06300354003906 C-135.75,-88.5 -134.875,-74.625 -136.625,-59.5"></path></g><g opacity="1" transform="matrix(1,0,0,1,0,0)"><path stroke-linecap="round" stroke-linejoin="miter" fill-opacity="0" stroke-miterlimit="4" stroke="rgb(186,167,128)" stroke-opacity="1" stroke-width="8" d=" M127.96900177001953,-116.375 C131.218994140625,-97 133.656005859375,-72.75 133.531005859375,-61.875"></path></g></g><g style="display: block;" transform="matrix(1.0199999809265137,0,0,1.0199999809265137,256.2698059082031,270.24932861328125)" opacity="1"><g opacity="1" transform="matrix(1,0,0,1,0,0)"><path fill="rgb(255,168,0)" fill-opacity="1" d=" M-2.8399999141693115,84.16100311279297 C-99.28399658203125,121.81400299072266 -145.85299682617188,101.04100036621094 -150.63999938964844,193.36500549316406 C-150.7550048828125,192.7689971923828 147.5290069580078,194.1179962158203 147.4149932861328,193.2429962158203 C146.3040008544922,108.3949966430664 111.98999786376953,123.77400207519531 -2.8399999141693115,84.16100311279297z"></path></g><g opacity="1" transform="matrix(1,0,0,1,0,0)"><path fill="url(#__lottie_element_107)" fill-opacity="1" d=" M-3.065999984741211,83.97699737548828 C-88.25499725341797,119.85299682617188 -146.343994140625,101.2249984741211 -150.62100219726562,193.97799682617188 C-151,194.11700439453125 147.28399658203125,194.36300659179688 147.43499755859375,193.97799682617188 C146.79400634765625,108.08799743652344 112.23500061035156,125 -3.065999984741211,83.97699737548828z"></path></g><g opacity="1" transform="matrix(1,0,0,1,0,0)"><path stroke-linecap="round" stroke-linejoin="round" fill-opacity="0" stroke="rgb(219,110,0)" stroke-opacity="1" stroke-width="8" d=" M147.1699981689453,191.3459930419922 C146.30299377441406,108.5790023803711 102.18599700927734,120.83300018310547 -2.5950000286102295,83.97699737548828 C-100.75499725341797,121.81300354003906 -146.34300231933594,101.71499633789062 -149.90499877929688,191.46800231933594"></path></g></g><g style="display: block;" transform="matrix(1.0199999809265137,0,0,1.0199999809265137,256.2698059082031,279.24932861328125)" opacity="1"><g opacity="1" transform="matrix(1,0,0,1,0,0)"><path fill="rgb(181,102,6)" fill-opacity="1" d=" M24.125,44.762001037597656 C24.125,44.762001037597656 -28.575000762939453,44.762001037597656 -28.575000762939453,44.762001037597656 C-28.575000762939453,44.762001037597656 -29.562000274658203,124.86100006103516 -29.562000274658203,124.86100006103516 C-29.562000274658203,124.86100006103516 25.11199951171875,124.86100006103516 25.11199951171875,124.86100006103516 C25.11199951171875,124.86100006103516 24.125,44.762001037597656 24.125,44.762001037597656z"></path></g><g opacity="1" transform="matrix(1,0,0,1,0,0)"><path fill="url(#__lottie_element_103)" fill-opacity="1" d=" M25.125,44.762001037597656 C25.125,44.762001037597656 -27.575000762939453,44.762001037597656 -27.575000762939453,44.762001037597656 C-27.575000762939453,44.762001037597656 -28.562000274658203,122.9000015258789 -28.562000274658203,122.9000015258789 C-28.562000274658203,122.9000015258789 26.11199951171875,122.9000015258789 26.11199951171875,122.9000015258789 C26.11199951171875,122.9000015258789 25.125,44.762001037597656 25.125,44.762001037597656z"></path></g><g opacity="1" transform="matrix(1,0,0,1,0,0)"><path stroke-linecap="round" stroke-linejoin="round" fill-opacity="0" stroke="rgb(153,71,4)" stroke-opacity="1" stroke-width="8" d=" M25.11199951171875,119.41000366210938 C25.11199951171875,119.41000366210938 24.125,44.762001037597656 24.125,44.762001037597656 C24.125,44.762001037597656 -28.575000762939453,44.762001037597656 -28.575000762939453,44.762001037597656 C-28.575000762939453,44.762001037597656 -29.562000274658203,119.41000366210938 -29.562000274658203,119.41000366210938"></path></g></g><g style="display: block;" transform="matrix(1,0,0,1,255,249)" opacity="1"><g opacity="1" transform="matrix(1,0,0,1,0,0)"><g opacity="1" transform="matrix(1,0,0,1,0,0)"><g opacity="1" transform="matrix(1,0,0,1,0,0)"><path fill="url(#__lottie_element_78)" fill-opacity="1" d=" M-166.5,140.25 C-148.5,163 -131.75100708007812,193.81300354003906 -96.68800354003906,219.31300354003906 C-96.68800354003906,219.31300354003906 94.5,220.375 93.75,220.125 C133.75,194.31199645996094 148,164.25 163.5,142.5 C164.09800720214844,141.66099548339844 97,131.5 19.261999130249023,124.71299743652344 C7.25,162.75 -15,155.5 -21.9950008392334,123.62300109863281 C-121.25,136 -167.25,140.75 -166.5,140.25z"></path></g><g opacity="0.4" transform="matrix(1,0,0,1,0,0)"><path fill="url(#__lottie_element_79)" mask="url(#__lottie_element_81)" fill-opacity="1" d="M0 0 M-19.75,124.25 C-105.5,126.5 -114.25,134 -113.75,134.25 C-70.75,153.25 -23.500999450683594,193.5 -1.812999963760376,207.75 C18.25,193.75 55,159.5 115.25,135 C115.98300170898438,135 98.75,126.25 18.253000259399414,123.06500244140625 C10.50100040435791,151.5 -8,163.75 -19.75,124.25z"></path></g></g><g opacity="1" transform="matrix(1,0,0,1,0,0)"><g opacity="1" transform="matrix(1,0,0,1,0,0)"><path fill="url(#__lottie_element_82)" fill-opacity="1" d=" M114.75,133.25 C83.75,125.5 46,116 22.506999969482422,114.07499694824219 C0,162 -6,162 -24.75200080871582,113.41000366210938 C-45,114.5 -84.5,124 -111.5,133.25 C-47.5,156 -9.5,195.25 -2,196.25 C6.75,196.25 51,143 114.75,133.25z"></path></g><g opacity="1" transform="matrix(1,0,0,1,0,0)"><path fill="url(#__lottie_element_83)" fill-opacity="1" d=" M-33.375,114.125 C-32.875,127.625 -32.5,165.125 -33.25,168.125 C-33.75,168.125 -6.254000186920166,192.75 -1.5,192.5 C3.25,192.25 29.187999725341797,167.625 29.187999725341797,167.125 C29.75,161.625 28.875,122.875 29.75,112.375 C23.875,113.625 12.75,115.375 6.5,127.25 C2.2190001010894775,135.38499450683594 0,142.625 -2,153.25 C-4.25,143.625 -7.178999900817871,131.89199829101562 -12.25,126.18800354003906 C-19.75,117.75 -24.375,116.375 -33.375,114.125z"></path></g><g opacity="1" transform="matrix(1,0,0,1,0,0)"><path fill="url(#__lottie_element_84)" fill-opacity="1" d=" M103.75,130.375 C52,142 20.75,169.25 -2.00600004196167,189.38299560546875 C-10.75,182 -56,146.75 -103.25,130.25 C-102.75,131 -111.25,132.75 -111.25,133.25 C-50.25,155.5 -10.015999794006348,197.25 -2,197.25 C7,197.25 54,143 115.5,134 C115.5,133.25 103.75,130.625 103.75,130.375z"></path></g><g opacity="0.35000000000000003" transform="matrix(1,0,0,1,0,0)"><path fill="url(#__lottie_element_85)" mask="url(#__lottie_element_87)" fill-opacity="1" d="M0 0 M-130.875,186.75 C-127.56900024414062,189.96299743652344 -114.875,204 -96.60600280761719,218.2429962158203 C-96.59400177001953,218.31300354003906 -83.88700103759766,218.3560028076172 -83.83899688720703,218.34500122070312 C-86.46800231933594,178.625 -84.75,146.25 -76.34500122070312,123.29299926757812 C-75.5,123.75 -117,136.25 -148.7259979248047,139.55499267578125 C-148.5,139.5 -131,154.5 -130.875,186.75z"></path></g><g opacity="0.35000000000000003" transform="matrix(1,0,0,1,0,0)"><path fill="url(#__lottie_element_88)" mask="url(#__lottie_element_90)" fill-opacity="1" d="M0 0 M149,142 C129.4040069580078,134.0850067138672 71.3949966430664,123.05699920654297 71.86499786376953,123.7979965209961 C86.75,147.25 80.75,202.5 78.46499633789062,219.0919952392578 C78.31199645996094,219.125 93.93699645996094,219.06300354003906 93.85099792480469,219.0449981689453 C102.875,214.875 116.71600341796875,196.84800720214844 124.25,194 C125.5,192.75 131.75,143.5 149,142z"></path></g><g opacity="1" transform="matrix(1,0,0,1,0,0)"><path fill="url(#__lottie_element_91)" fill-opacity="1" d=" M29.5,112.5 C18.5,115.5 12.138999938964844,115.93399810791016 6.875,125.75 C2.25,134.375 0,144.875 -2,152.75 C-2,153 -5.795000076293945,133.27000427246094 -10.75,126.75 C-17.875,117.375 -21,115.875 -33.25,114.125 C-33.5,113.875 -33.3129997253418,119.75 -33.8129997253418,119.75 C-30.25,120 -21.25,121 -16.5,127.56300354003906 C-6.434999942779541,141.46800231933594 -7.5269999504089355,159.79800415039062 -0.75,160.25 C3,160.5 4,142.25 11.5,128.625 C15.826000213623047,120.76599884033203 25,119 28.25,118.5 C30.031999588012695,118.22599792480469 29.75,112.75 29.5,112.5z"></path></g></g><g opacity="0.3" transform="matrix(1,0,0,1,0,0)"><path fill="url(#__lottie_element_92)" mask="url(#__lottie_element_94)" fill-opacity="1" d="M0 0 M-33.25,114.75 C-67,118 -153,143.25 -165.5,140.75 C-165.5,141.25 -158.75,148.75 -159.25,149.25 C-128.25,148.75 -67.25,128.5 -33.75,124 C-33.75,124 -32.50299835205078,114.6780014038086 -33.25,114.75z"></path></g><g opacity="0.3" transform="matrix(1,0,0,1,0,0)"><path fill="url(#__lottie_element_95)" mask="url(#__lottie_element_97)" fill-opacity="1" d="M0 0 M29.5,114 C30.25,114.25 29.75,123.5 29.75,123.5 C83.25,130.75 125,151 159,150 C159.25,150.25 163.5,143 163.5,142.75 C126,138.5 52.75,114.75 29.5,114z"></path></g><g opacity="1" transform="matrix(1,0,0,1,0,0)"><g opacity="1" transform="matrix(1,0,0,1,0,0)"><path stroke-linecap="round" stroke-linejoin="round" fill-opacity="0" stroke="rgb(39,83,51)" stroke-opacity="1" stroke-width="8" d=" M113.75,133.75 C138.25,139.5 164.5,142.5 164.25,142 C150.75,161.5 130.75,196.5 99,215.5"></path></g><g opacity="1" transform="matrix(1,0,0,1,0,0)"><path stroke-linecap="round" stroke-linejoin="round" fill-opacity="0" stroke="rgb(39,83,51)" stroke-opacity="1" stroke-width="8" d=" M-112.25,132.75 C-144.25,140 -166.25,140.75 -166.25,141 C-143.5,169.5 -135.75,187 -103,213.75"></path></g><g opacity="1" transform="matrix(1,0,0,1,0,0)"><path stroke-linecap="round" stroke-linejoin="miter" fill-opacity="0" stroke-miterlimit="4" stroke="rgb(27,59,36)" stroke-opacity="1" stroke-width="8" d=" M-166.75,141 C-141.5,171.25 -134.25,190 -102.75,214"></path></g><g opacity="1" transform="matrix(1,0,0,1,0,0)"><path stroke-linecap="round" stroke-linejoin="miter" fill-opacity="0" stroke-miterlimit="4" stroke="rgb(27,59,36)" stroke-opacity="1" stroke-width="8" d=" M164.25,142.25 C149.5,162 138.56300354003906,188.93800354003906 100.06300354003906,214.56300354003906"></path></g><g opacity="1" transform="matrix(1,0,0,1,0,0)"><path stroke-linecap="round" stroke-linejoin="miter" fill-opacity="0" stroke-miterlimit="4" stroke="rgb(21,57,29)" stroke-opacity="1" stroke-width="8" d=" M-33.625,114 C-60,117.25 -113,129.75 -111.75,132.5"></path></g><g opacity="1" transform="matrix(1,0,0,1,0,0)"><path stroke-linecap="round" stroke-linejoin="miter" fill-opacity="0" stroke-miterlimit="4" stroke="rgb(21,57,29)" stroke-opacity="1" stroke-width="8" d=" M28.25,114.25 C59.25,117.75 115,130.5 114.25,133.25"></path></g><g opacity="1" transform="matrix(1,0,0,1,0,0)"><path stroke-linecap="round" stroke-linejoin="miter" fill-opacity="0" stroke-miterlimit="4" stroke="rgb(21,57,29)" stroke-opacity="1" stroke-width="8" d=" M29.625,112.25 C29.625,112.25 29.5,142.43800354003906 29.5,142.43800354003906"></path></g><g opacity="1" transform="matrix(1,0,0,1,0,0)"><path stroke-linecap="round" stroke-linejoin="miter" fill-opacity="0" stroke-miterlimit="4" stroke="rgb(21,57,29)" stroke-opacity="1" stroke-width="8" d=" M-33,114.5 C-33,114.5 -33.0629997253418,142.375 -33.0629997253418,142.375"></path></g></g></g><g opacity="1" transform="matrix(1,0,0,1,0,0)"><path stroke-linecap="round" stroke-linejoin="round" fill-opacity="0" stroke="rgb(66,94,33)" stroke-opacity="1" stroke-width="8" d=" M-32.75,113.625 C-16.5,114.5 -3,122 -2,151.75 C1.5,119.5 9.25,115 29.25,112.125"></path></g><g opacity="1" transform="matrix(1,0,0,1,-0.5,0)"><g opacity="0.3" transform="matrix(1,0,0,1,-0.125,0.125)"><path fill="rgb(25,68,48)" fill-opacity="1" d=" M-1.312999963760376,143.25 C-24.375999450683594,142.625 -25.125999450683594,193.99200439453125 -1.5,194.18800354003906 C21.125,194.37600708007812 22.365999221801758,143.89199829101562 -1.312999963760376,143.25z"></path></g><g opacity="1" transform="matrix(1,0,0,1,0,0)"><path fill="url(#__lottie_element_98)" fill-opacity="1" d=" M-1.5,143.75 C-17.25,143.25 -17.993999481201172,188.50799560546875 -1.75,189 C14.75,189.5 14.25,144.25 -1.5,143.75z"></path><path stroke-linecap="butt" stroke-linejoin="miter" fill-opacity="0" stroke-miterlimit="4" stroke="rgb(233,204,77)" stroke-opacity="1" stroke-width="5" d=" M-1.5,143.75 C-17.25,143.25 -17.993999481201172,188.50799560546875 -1.75,189 C14.75,189.5 14.25,144.25 -1.5,143.75z"></path></g><g opacity="1" transform="matrix(1,0,0,1,-0.25,0)"><path fill="url(#__lottie_element_99)" fill-opacity="1" d=" M-1.25,174.875 C3.203000068664551,175.4320068359375 4.5,152 -0.875,151.75 C-6.191999912261963,151.5030059814453 -5.25,174.375 -1.25,174.875z"></path></g><g opacity="0.7000000000000001" transform="matrix(1,0,0,1,0,0)"><path stroke-linecap="round" stroke-linejoin="miter" fill-opacity="0" stroke-miterlimit="4" stroke="rgb(132,100,18)" stroke-opacity="1" stroke-width="5.5" d=" M-13.343999862670898,173.5 C-15.125,152.625 -8,143.625 -1.75,143.75 C4.999000072479248,143.88499450683594 12.375,153.625 9.875,173.625"></path></g></g></g><g style="display: block;" transform="matrix(0.9449999928474426,0,0,0.9449999928474426,229.9227752685547,200.7616424560547)" opacity="1"><g opacity="1" transform="matrix(1,0,0,1,0,0)"><path fill="url(#__lottie_element_70)" fill-opacity="1" d=" M-86.16100311279297,34.11399841308594 C-86.10900115966797,30.261999130249023 -108.10099792480469,14.147000312805176 -109.70600128173828,19.298999786376953 C-124.78500366210938,67.71199798583984 -103.62200164794922,157.06399536132812 -109.44200134277344,284.31298828125 C-109.97100067138672,283.78399658203125 -72.40499877929688,283.58599853515625 -72.93399810791016,284.114990234375 C-73.99199676513672,239.93499755859375 -87.74800109863281,151.57400512695312 -86.16100311279297,34.11399841308594z"></path></g><g opacity="1" transform="matrix(1,0,0,1,0,0)"><path fill="url(#__lottie_element_71)" fill-opacity="1" d=" M161.98699951171875,28.822999954223633 C160.78900146484375,20.69700050354004 134.1840057373047,31.99799919128418 134.20899963378906,35.70199966430664 C135.0030059814453,152.10400390625 122.83300018310547,217.18299865722656 119.9229965209961,283.8500061035156 C119.87699890136719,284.9070129394531 158.81199645996094,283.8500061035156 159.34100341796875,284.3789978027344 C156.16600036621094,133.85000610351562 169.3939971923828,79.08799743652344 161.98699951171875,28.822999954223633z"></path></g><g opacity="1" transform="matrix(1,0,0,1,0,0)"><path fill="url(#__lottie_element_72)" mask="url(#__lottie_element_74)" fill-opacity="0.9" d="M0 0 M-109.87699890136719,19.194000244140625 C-124.25700378417969,88.61199951171875 -104.1510009765625,167.64599609375 -109.177001953125,283.78399658203125 C-108.91200256347656,284.0480041503906 -99.25599670410156,283.8500061035156 -99.65299987792969,283.7179870605469 C-92.51000213623047,203.69200134277344 -107.32499694824219,104.48500061035156 -102.56300354003906,63.34700012207031 C-52.827999114990234,136.2310028076172 106.43099975585938,139.40499877929688 152.197998046875,65.59600067138672 C155.63699340820312,107.66000366210938 142.93899536132812,177.96400451660156 149.55299377441406,283.78399658203125 C149.55299377441406,284.04901123046875 159.34100341796875,284.0480041503906 159.20899963378906,283.9159851074219 C155.63699340820312,165.13299560546875 165.16200256347656,148.9290008544922 162.06300354003906,29.093000411987305 C161.8699951171875,21.63599967956543 -108.5790023803711,12.925999641418457 -109.87699890136719,19.194000244140625z"></path></g><g opacity="1" transform="matrix(1,0,0,1,0,0)"><path stroke-linecap="round" stroke-linejoin="miter" fill-opacity="0" stroke-miterlimit="4" stroke="rgb(186,167,128)" stroke-opacity="1" stroke-width="8" d=" M134.20899963378906,35.70199966430664 C137.38400268554688,124.8550033569336 120.98100280761719,252.50100708007812 119.9229965209961,281.60101318359375"></path></g><g opacity="1" transform="matrix(1,0,0,1,0,0)"><path stroke-linecap="round" stroke-linejoin="miter" fill-opacity="0" stroke-miterlimit="4" stroke="rgb(186,167,128)" stroke-opacity="1" stroke-width="8" d=" M-85.89700317382812,32.527000427246094 C-89.33599853515625,103.95600128173828 -74.25599670410156,253.16200256347656 -73.197998046875,281.7330017089844"></path></g><g opacity="1" transform="matrix(1,0,0,1,0,0)"><path stroke-linecap="round" stroke-linejoin="miter" fill-opacity="0" stroke-miterlimit="4" stroke="rgb(186,167,128)" stroke-opacity="1" stroke-width="8" d=" M-110.23500061035156,19.82900047302246 C-122.13999938964844,102.36900329589844 -104.1510009765625,174.5240020751953 -108.91300201416016,282.1960144042969"></path></g><g opacity="1" transform="matrix(1,0,0,1,0,0)"><path stroke-linecap="round" stroke-linejoin="miter" fill-opacity="0" stroke-miterlimit="4" stroke="rgb(186,167,128)" stroke-opacity="1" stroke-width="8" d=" M161.7220001220703,29.881999969482422 C167.2779998779297,90.72899627685547 155.63699340820312,198.39999389648438 158.81199645996094,281.468994140625"></path></g></g><g style="display: block;" transform="matrix(1.0099999904632568,0,0,1.0099999904632568,257.9018249511719,230.21986389160156)" opacity="1"><g opacity="1" transform="matrix(1,0,0,1,0,0)"><path fill="url(#__lottie_element_65)" fill-opacity="1" d=" M-149.7530059814453,-45.55500030517578 C-157.2949981689453,-46.172000885009766 -142.75799560546875,7.935999870300293 -102.61100006103516,22.40999984741211 C-92.53299713134766,26.042999267578125 -86.39800262451172,-40.37300109863281 -149.7530059814453,-45.55500030517578z"></path><path stroke-linecap="round" stroke-linejoin="round" fill-opacity="0" stroke="rgb(219,110,0)" stroke-opacity="1" stroke-width="7.5" d=" M-149.7530059814453,-45.55500030517578 C-157.2949981689453,-46.172000885009766 -142.75799560546875,7.935999870300293 -102.61100006103516,22.40999984741211 C-92.53299713134766,26.042999267578125 -86.39800262451172,-40.37300109863281 -149.7530059814453,-45.55500030517578z"></path></g><g opacity="1" transform="matrix(1,0,0,1,0,0)"><path fill="url(#__lottie_element_66)" fill-opacity="1" d=" M142.78700256347656,-45.55500030517578 C150.34100341796875,-46.00199890136719 133.0070037841797,12.968000411987305 95.6449966430664,22.40999984741211 C85.25900268554688,25.03499984741211 80.6719970703125,-41.882999420166016 142.78700256347656,-45.55500030517578z"></path><path stroke-linecap="round" stroke-linejoin="round" fill-opacity="0" stroke="rgb(219,110,0)" stroke-opacity="1" stroke-width="7.5" d=" M142.78700256347656,-45.55500030517578 C150.34100341796875,-46.00199890136719 133.0070037841797,12.968000411987305 95.6449966430664,22.40999984741211 C85.25900268554688,25.03499984741211 80.6719970703125,-41.882999420166016 142.78700256347656,-45.55500030517578z"></path></g></g><g style="display: block;" transform="matrix(0.7649999856948853,0,0,0.754800021648407,255.8045196533203,206.306884765625)" opacity="1"><g opacity="1" transform="matrix(1,0,0,1,0,0)"><path fill="rgb(255,168,0)" fill-opacity="1" d=" M139.5749969482422,38.790000915527344 C139.5749969482422,130.41299438476562 74.5199966430664,207.6750030517578 -3.9210000038146973,207.6750030517578 C-82.36199951171875,207.6750030517578 -147.41700744628906,130.41299438476562 -147.41700744628906,38.790000915527344 C-161.85000610351562,-113.5260009765625 -81.47699737548828,-174.81399536132812 -3.9210000038146973,-174.81399536132812 C71.60099792480469,-174.81399536132812 139.5749969482422,-150.91400146484375 139.5749969482422,38.790000915527344z"></path></g><g opacity="1" transform="matrix(1,0,0,1,0,0)"><g opacity="1" transform="matrix(1,0,0,1,0,0)"><path fill="url(#__lottie_element_61)" fill-opacity="1" d=" M80.76699829101562,-115.7300033569336 C46.6609992980957,-120.96900177001953 -52.685001373291016,-122.29299926757812 -87.74500274658203,-115.35900115966797 C-131.11700439453125,-24.91699981689453 -112.81600189208984,40.66299819946289 -130.6320037841797,61.82699966430664 C-122.29299926757812,123.7969970703125 -75.1520004272461,181.02999877929688 -3.9210000038146973,181.02999877929688 C67.30999755859375,181.02999877929688 115.94300079345703,120.81700134277344 125.0780029296875,59.50899887084961 C112.67500305175781,53.249000549316406 122.47799682617188,-31.54199981689453 80.76699829101562,-115.7300033569336z"></path></g></g><g opacity="1" transform="matrix(1,0,0,1,0,0)"><path stroke-linecap="round" stroke-linejoin="round" fill-opacity="0" stroke="rgb(219,110,0)" stroke-opacity="1" stroke-width="10" d=" M139.5749969482422,38.790000915527344 C139.5749969482422,130.41299438476562 74.5199966430664,207.6750030517578 -3.9210000038146973,207.6750030517578 C-82.36199951171875,207.6750030517578 -147.41700744628906,130.41299438476562 -147.41700744628906,38.790000915527344 C-161.85000610351562,-113.5260009765625 -81.47699737548828,-174.81399536132812 -3.9210000038146973,-174.81399536132812 C71.60099792480469,-174.81399536132812 139.5749969482422,-150.91400146484375 139.5749969482422,38.790000915527344z"></path></g></g><g style="display: block;" transform="matrix(0.7649999856948853,0,0,0.754800021648407,256.9365539550781,207.05264282226562)" opacity="1"><g opacity="1" transform="matrix(1,0,0,1,0,0)"><path fill="url(#__lottie_element_54)" fill-opacity="1" d=" M25.260000228881836,83.00599670410156 C25.260000228881836,95.93000030517578 13.814000129699707,106.40799713134766 -3.9210000038146973,106.40799713134766 C-21.6560001373291,106.40799713134766 -33.10200119018555,95.93000030517578 -33.10200119018555,83.00599670410156 C-37.5,49.625 29.875,48.75 25.260000228881836,83.00599670410156z"></path></g><g opacity="1" transform="matrix(1,0,0,1,0,0)"><path fill="rgb(255,168,0)" fill-opacity="0.8" d=" M25.871000289916992,78.61000061035156 C25.871000289916992,90.5999984741211 12.532999992370605,100.31999969482422 -3.9210000038146973,100.31999969482422 C-20.375,100.31999969482422 -33.7130012512207,90.5999984741211 -33.7130012512207,78.61000061035156 C-33.7130012512207,66.62000274658203 -20.375,57.4109992980957 -3.9210000038146973,57.4109992980957 C12.532999992370605,57.4109992980957 25.871000289916992,66.62000274658203 25.871000289916992,78.61000061035156z"></path></g><g opacity="1" transform="matrix(1,0,0,1,0,0)"><path fill="url(#__lottie_element_55)" fill-opacity="1" d=" M25.871000289916992,78.61000061035156 C25.871000289916992,90.5999984741211 12.532999992370605,100.31999969482422 -3.9210000038146973,100.31999969482422 C-20.375,100.31999969482422 -33.7130012512207,90.5999984741211 -33.7130012512207,78.61000061035156 C-33.7130012512207,66.62000274658203 -20.375,57.4109992980957 -3.9210000038146973,57.4109992980957 C12.532999992370605,57.4109992980957 25.871000289916992,66.62000274658203 25.871000289916992,78.61000061035156z"></path></g><g opacity="1" transform="matrix(1,0,0,1,0,0)"><path fill="rgb(255,216,0)" fill-opacity="1" d=" M23.19300079345703,72.87200164794922 C23.19300079345703,81.7979965209961 10.312999725341797,90.3759994506836 -3.9210000038146973,90.3759994506836 C-18.155000686645508,90.3759994506836 -31.03499984741211,81.7979965209961 -31.03499984741211,72.87200164794922 C-31.03499984741211,63.94599914550781 -18.155000686645508,56.965999603271484 -3.9210000038146973,56.965999603271484 C10.312999725341797,56.965999603271484 23.19300079345703,63.94599914550781 23.19300079345703,72.87200164794922z"></path></g><g opacity="1" transform="matrix(1,0,0,1,0,0)"><path fill="url(#__lottie_element_56)" fill-opacity="1" d=" M23.19300079345703,72.87200164794922 C23.19300079345703,81.7979965209961 10.312999725341797,90.3759994506836 -3.9210000038146973,90.3759994506836 C-18.155000686645508,90.3759994506836 -31.03499984741211,81.7979965209961 -31.03499984741211,72.87200164794922 C-31.03499984741211,63.94599914550781 -18.155000686645508,56.965999603271484 -3.9210000038146973,56.965999603271484 C10.312999725341797,56.965999603271484 23.19300079345703,63.94599914550781 23.19300079345703,72.87200164794922z"></path></g><g opacity="1" transform="matrix(1,0,0,1,0,0)"><path fill="url(#__lottie_element_57)" fill-opacity="0.7000000000000001" d=" M8.175000190734863,67.11000061035156 C8.175000190734863,73.16699981689453 2.759000062942505,78.86599731445312 -3.9210000038146973,78.86599731445312 C-10.60099983215332,78.86599731445312 -16.017000198364258,73.16699981689453 -16.017000198364258,67.11000061035156 C-16.017000198364258,61.053001403808594 -10.60099983215332,58.013999938964844 -3.9210000038146973,58.013999938964844 C2.759000062942505,58.013999938964844 8.175000190734863,61.053001403808594 8.175000190734863,67.11000061035156z"></path></g></g><g style="display: block;" transform="matrix(0.7955999970436096,0,0,0.7955999970436096,255.4361572265625,192.66729736328125)" opacity="1"><g opacity="1" transform="matrix(1,0,0,1,0,0)"><path fill="url(#__lottie_element_47)" fill-opacity="1" d=" M41.88800048828125,127.39600372314453 C39.18199920654297,124.78500366210938 32.07500076293945,124.19999694824219 -1.3819999694824219,124.19999694824219 C-34.03300094604492,124.19999694824219 -41.902000427246094,124.78500366210938 -45.04499816894531,127.39600372314453 C-47.52799987792969,129.45899963378906 -43.564998626708984,153.9219970703125 -1.3890000581741333,153.9219970703125 C40.11000061035156,153.9219970703125 44.069000244140625,129.50100708007812 41.88800048828125,127.39600372314453z"></path></g><g opacity="1" transform="matrix(1,0,0,1,0,0)"><path fill="url(#__lottie_element_48)" fill-opacity="0.7000000000000001" d=" M41.630001068115234,133.48599243164062 C40.698001861572266,128.11199951171875 -43.292999267578125,127.7750015258789 -44.7859992980957,133.48599243164062 C-45.382999420166016,135.77000427246094 -28.93199920654297,158.8990020751953 -1.3890000581741333,158.8990020751953 C25.687000274658203,158.8990020751953 42.04800033569336,135.89599609375 41.630001068115234,133.48599243164062z"></path></g><g opacity="1" transform="matrix(1,0,0,1,0,0)"><path fill="rgb(136,24,4)" fill-opacity="1" d=" M40.597999572753906,131.0469970703125 C39.051998138427734,128.68600463867188 32.07500076293945,129.0679931640625 -1.3819999694824219,129.0679931640625 C-34.03300094604492,129.0679931640625 -42.02199935913086,128.76800537109375 -43.75400161743164,131.0469970703125 C-45.275001525878906,133.04800415039062 -28.93199920654297,153.9219970703125 -1.3890000581741333,153.9219970703125 C25.687000274658203,153.9219970703125 42.01300048828125,133.20899963378906 40.597999572753906,131.0469970703125z"></path></g><g opacity="1" transform="matrix(1,0,0,1,0,0)"><path fill="url(#__lottie_element_49)" fill-opacity="1" d=" M40.597999572753906,131.0469970703125 C39.051998138427734,128.68600463867188 32.07500076293945,129.0679931640625 -1.3819999694824219,129.0679931640625 C-34.03300094604492,129.0679931640625 -42.02199935913086,128.76800537109375 -43.75400161743164,131.0469970703125 C-45.275001525878906,133.04800415039062 -28.93199920654297,153.9219970703125 -1.3890000581741333,153.9219970703125 C25.687000274658203,153.9219970703125 42.01300048828125,133.20899963378906 40.597999572753906,131.0469970703125z"></path></g><g opacity="1" transform="matrix(1,0,0,1,0,0)"><path fill="url(#__lottie_element_50)" fill-opacity="0.5" d=" M25.22800064086914,158.3800048828125 C25.22800064086914,163.8979949951172 15.295000076293945,172.40499877929688 -1.3890000581741333,172.40499877929688 C-18.072999954223633,172.40499877929688 -28.006999969482422,163.8979949951172 -28.006999969482422,158.3800048828125 C-28.006999969482422,152.86199951171875 -18.072999954223633,158.8979949951172 -1.3890000581741333,158.8979949951172 C15.295000076293945,158.8979949951172 25.22800064086914,152.86199951171875 25.22800064086914,158.3800048828125z"></path></g></g><g style="display: block;" transform="matrix(0.7649999856948853,0,0,0.754800021648407,255.8034210205078,205.8114013671875)" opacity="1"><g opacity="1" transform="matrix(1,0,0,1,1.6449999809265137,0)"><g opacity="1" transform="matrix(1,0,0,1,0,0)"><path fill="rgb(255,255,255)" fill-opacity="1" d=" M28.57200050354004,35.28799819946289 C28.57200050354004,35.28799819946289 26.613000869750977,12.751999855041504 42.5989990234375,-1.8940000534057617 C56.33300018310547,-14.47700023651123 82.19000244140625,-13.241999626159668 95.14800262451172,2.878999948501587 C105.69999694824219,16.006000518798828 103.18800354003906,31.309999465942383 103.18800354003906,31.309999465942383 C103.18800354003906,31.309999465942383 92.65299987792969,42.63800048828125 71.02999877929688,43.87200164794922 C43.52000045776367,45.44200134277344 28.57200050354004,35.28799819946289 28.57200050354004,35.28799819946289z"></path></g><g opacity="1" transform="matrix(1,0,0,1,0.8220000267028809,0.5070000290870667)"><g opacity="1" transform="matrix(1,0,0,1,0,0)"><path fill="url(#__lottie_element_38)" fill-opacity="1" d=" M87.80000305175781,16.822999954223633 C87.80000305175781,29.83099937438965 77.25499725341797,40.375999450683594 64.24700164794922,40.375999450683594 C51.23899841308594,40.375999450683594 40.694000244140625,29.83099937438965 40.694000244140625,16.822999954223633 C40.694000244140625,3.815000057220459 51.23899841308594,-6.730000019073486 64.24700164794922,-6.730000019073486 C77.25499725341797,-6.730000019073486 87.80000305175781,3.815000057220459 87.80000305175781,16.822999954223633z"></path></g><g opacity="1" transform="matrix(1,0,0,1,0,0)"><g opacity="1" transform="matrix(1,0,0,1,0,0)"><path fill="url(#__lottie_element_39)" fill-opacity="1" d=" M70.28099822998047,39.303001403808594 C68.44000244140625,39.303001403808594 66.73600006103516,38.11399841308594 66.16500091552734,36.26300048828125 C65.46299743652344,33.9900016784668 66.73799896240234,31.577999114990234 69.01200103759766,30.87700080871582 C73.36100006103516,29.53499984741211 76.8239974975586,26.1560001373291 78.27300262451172,21.83799934387207 C79.02999877929688,19.58099937438965 81.47699737548828,18.368999481201172 83.72799682617188,19.125 C85.98400115966797,19.881999969482422 87.1989974975586,22.323999404907227 86.44200134277344,24.579999923706055 C84.11199951171875,31.520999908447266 78.5459976196289,36.952999114990234 71.5510025024414,39.11000061035156 C71.12799835205078,39.2400016784668 70.70099639892578,39.303001403808594 70.28099822998047,39.303001403808594z"></path></g></g><g opacity="1" transform="matrix(1,0,0,1,0,0)"><path fill="rgb(24,19,9)" fill-opacity="1" d=" M79.13200378417969,16.822999954223633 C79.13200378417969,25.04400062561035 72.46800231933594,31.708999633789062 64.24700164794922,31.708999633789062 C56.0260009765625,31.708999633789062 49.361000061035156,25.04400062561035 49.361000061035156,16.822999954223633 C49.361000061035156,8.60200023651123 56.0260009765625,1.937999963760376 64.24700164794922,1.937999963760376 C72.46800231933594,1.937999963760376 79.13200378417969,8.60200023651123 79.13200378417969,16.822999954223633z"></path></g><g opacity="1" transform="matrix(1,0,0,1,0,0)"><path fill="url(#__lottie_element_40)" fill-opacity="1" d=" M62.979000091552734,3.98799991607666 C62.979000091552734,7.326000213623047 60.42499923706055,10.032999992370605 57.275001525878906,10.032999992370605 C54.125,10.032999992370605 51.57099914550781,7.326000213623047 51.57099914550781,3.98799991607666 C51.57099914550781,0.6499999761581421 54.125,-2.055999994277954 57.275001525878906,-2.055999994277954 C60.42499923706055,-2.055999994277954 62.979000091552734,0.6499999761581421 62.979000091552734,3.98799991607666z"></path></g></g><g opacity="1" transform="matrix(1,0,0,1,0,0)"><path fill="rgb(163,65,0)" fill-opacity="1" d=" M28.57200050354004,35.28799819946289 C25.5310001373291,11.491000175476074 40.91299819946289,-12.895999908447266 66.53099822998047,-12.53600025177002 C89.56500244140625,-12.211999893188477 107.75700378417969,8.204000473022461 103.18800354003906,31.309999465942383 C103.68699645996094,9.857000350952148 87.84200286865234,-8.434000015258789 65.84700012207031,-8.170999526977539 C42.222999572753906,-7.888000011444092 29.457000732421875,13.711000442504883 28.57200050354004,35.28799819946289z"></path><path stroke-linecap="round" stroke-linejoin="round" fill-opacity="0" stroke="rgb(163,65,0)" stroke-opacity="1" stroke-width="2" d=" M28.57200050354004,35.28799819946289 C25.5310001373291,11.491000175476074 40.91299819946289,-12.895999908447266 66.53099822998047,-12.53600025177002 C89.56500244140625,-12.211999893188477 107.75700378417969,8.204000473022461 103.18800354003906,31.309999465942383 C103.68699645996094,9.857000350952148 87.84200286865234,-8.434000015258789 65.84700012207031,-8.170999526977539 C42.222999572753906,-7.888000011444092 29.457000732421875,13.711000442504883 28.57200050354004,35.28799819946289z"></path></g></g><g opacity="1" transform="matrix(1,0,0,1,0,0)"><g opacity="1" transform="matrix(1,0,0,1,0,0)"><path fill="rgb(255,255,255)" fill-opacity="1" d=" M-35.86199951171875,35.28799819946289 C-35.86199951171875,35.28799819946289 -33.90299987792969,12.751999855041504 -49.888999938964844,-1.8940000534057617 C-63.62300109863281,-14.47700023651123 -89.48100280761719,-13.241999626159668 -102.43900299072266,2.878999948501587 C-112.99099731445312,16.006000518798828 -110.47799682617188,31.309999465942383 -110.47799682617188,31.309999465942383 C-110.47799682617188,31.309999465942383 -99.94400024414062,42.63800048828125 -78.32099914550781,43.87200164794922 C-50.81100082397461,45.44200134277344 -35.86199951171875,35.28799819946289 -35.86199951171875,35.28799819946289z"></path></g><g opacity="1" transform="matrix(1,0,0,1,0.32899999618530273,0.8360000252723694)"><g opacity="1" transform="matrix(1,0,0,1,0,0)"><path fill="url(#__lottie_element_41)" fill-opacity="1" d=" M-47.98400115966797,16.822999954223633 C-47.98400115966797,29.83099937438965 -58.52899932861328,40.375999450683594 -71.53700256347656,40.375999450683594 C-84.54499816894531,40.375999450683594 -95.08999633789062,29.83099937438965 -95.08999633789062,16.822999954223633 C-95.08999633789062,3.815000057220459 -84.54499816894531,-6.730000019073486 -71.53700256347656,-6.730000019073486 C-58.52899932861328,-6.730000019073486 -47.98400115966797,3.815000057220459 -47.98400115966797,16.822999954223633z"></path></g><g opacity="1" transform="matrix(1,0,0,1,0,0)"><g opacity="1" transform="matrix(1,0,0,1,0,0)"><path fill="url(#__lottie_element_42)" fill-opacity="1" d=" M-65.59600067138672,39.303001403808594 C-67.43699645996094,39.303001403808594 -69.14099884033203,38.11399841308594 -69.71199798583984,36.26300048828125 C-70.41400146484375,33.9900016784668 -69.13899993896484,31.577999114990234 -66.86499786376953,30.87700080871582 C-62.51599884033203,29.53499984741211 -59.053001403808594,26.1560001373291 -57.604000091552734,21.83799934387207 C-56.84700012207031,19.58099937438965 -54.400001525878906,18.368999481201172 -52.14899826049805,19.125 C-49.893001556396484,19.881999969482422 -48.67900085449219,22.323999404907227 -49.43600082397461,24.579999923706055 C-51.76599884033203,31.520999908447266 -57.33100128173828,36.952999114990234 -64.32599639892578,39.11000061035156 C-64.7490005493164,39.2400016784668 -65.1760025024414,39.303001403808594 -65.59600067138672,39.303001403808594z"></path></g></g><g opacity="1" transform="matrix(1,0,0,1,0,0)"><path fill="rgb(24,19,9)" fill-opacity="1" d=" M-56.652000427246094,16.822999954223633 C-56.652000427246094,25.04400062561035 -63.316001892089844,31.708999633789062 -71.53700256347656,31.708999633789062 C-79.75800323486328,31.708999633789062 -86.4229965209961,25.04400062561035 -86.4229965209961,16.822999954223633 C-86.4229965209961,8.60200023651123 -79.75800323486328,1.937999963760376 -71.53700256347656,1.937999963760376 C-63.316001892089844,1.937999963760376 -56.652000427246094,8.60200023651123 -56.652000427246094,16.822999954223633z"></path></g><g opacity="1" transform="matrix(1,0,0,1,0,0)"><path fill="url(#__lottie_element_43)" fill-opacity="1" d=" M-72.80500030517578,3.98799991607666 C-72.80500030517578,7.326000213623047 -75.35900115966797,10.032999992370605 -78.50900268554688,10.032999992370605 C-81.65899658203125,10.032999992370605 -84.21299743652344,7.326000213623047 -84.21299743652344,3.98799991607666 C-84.21299743652344,0.6499999761581421 -81.65899658203125,-2.055999994277954 -78.50900268554688,-2.055999994277954 C-75.35900115966797,-2.055999994277954 -72.80500030517578,0.6499999761581421 -72.80500030517578,3.98799991607666z"></path></g></g><g opacity="1" transform="matrix(1,0,0,1,0,0)"><path fill="rgb(163,65,0)" fill-opacity="1" d=" M-35.86199951171875,35.28799819946289 C-32.82099914550781,11.491000175476074 -48.20399856567383,-12.895999908447266 -73.8219985961914,-12.53600025177002 C-96.85700225830078,-12.211999893188477 -115.0469970703125,8.204000473022461 -110.47799682617188,31.309999465942383 C-110.97699737548828,9.857000350952148 -95.13200378417969,-8.434000015258789 -73.13700103759766,-8.170999526977539 C-49.51300048828125,-7.888000011444092 -36.74700164794922,13.711000442504883 -35.86199951171875,35.28799819946289z"></path><path stroke-linecap="round" stroke-linejoin="round" fill-opacity="0" stroke="rgb(163,65,0)" stroke-opacity="1" stroke-width="2" d=" M-35.86199951171875,35.28799819946289 C-32.82099914550781,11.491000175476074 -48.20399856567383,-12.895999908447266 -73.8219985961914,-12.53600025177002 C-96.85700225830078,-12.211999893188477 -115.0469970703125,8.204000473022461 -110.47799682617188,31.309999465942383 C-110.97699737548828,9.857000350952148 -95.13200378417969,-8.434000015258789 -73.13700103759766,-8.170999526977539 C-49.51300048828125,-7.888000011444092 -36.74700164794922,13.711000442504883 -35.86199951171875,35.28799819946289z"></path></g></g></g><g style="display: block;" transform="matrix(0.7649999856948853,0,0,0.754800021648407,255.80442810058594,205.31358337402344)" opacity="1"><g opacity="1" transform="matrix(1,0,0,1,0,0)"><path stroke-linecap="round" stroke-linejoin="round" fill-opacity="0" stroke="rgb(163,65,0)" stroke-opacity="1" stroke-width="16" d=" M45.78099822998047,-35.01499938964844 C45.78099822998047,-35.01499938964844 67.8270034790039,-40.10300064086914 87.80000305175781,-30.451000213623047"></path></g><g opacity="1" transform="matrix(1,0,0,1,0,0)"><path stroke-linecap="round" stroke-linejoin="round" fill-opacity="0" stroke="rgb(163,65,0)" stroke-opacity="1" stroke-width="16" d=" M-53.071998596191406,-35.01499938964844 C-53.071998596191406,-35.01499938964844 -75.11699676513672,-40.10300064086914 -95.08999633789062,-30.451000213623047"></path></g></g><g style="display: block;" transform="matrix(0.9449999928474426,0,0,0.9449999928474426,229.9227752685547,200.7616424560547)" opacity="1"><g opacity="1" transform="matrix(1,0,0,1,0,0)"><path fill="rgb(237,229,202)" fill-opacity="1" d=" M97.43699645996094,-93.39900207519531 C137.6479949951172,-26.73200035095215 128.98899841308594,51.191001892089844 138.13099670410156,48.52399826049805 C141.98800659179688,47.39899826049805 156.43099975585938,-10.329999923706055 148.8990020751953,-50.41600036621094 C155.63800048828125,-57.683998107910156 163.35899353027344,-63.42100143432617 163.3090057373047,-63.76900100708008 C158.2830047607422,-88.10800170898438 154.5800018310547,-95.51499938964844 139.55999755859375,-116.45600128173828 C145.5850067138672,-143.13400268554688 81.052001953125,-165.0330047607422 22.86400032043457,-165.18800354003906 C-40.65800094604492,-165.35699462890625 -107.32599639892578,-135.7270050048828 -88.50399780273438,-117.4489974975586 C-99.91799926757812,-101.33599853515625 -105.79199981689453,-94.16600036621094 -110.76499938964844,-66.67900085449219 C-110.8219985961914,-66.36499786376953 -98.03900146484375,-63.77299880981445 -97.25900268554688,-53.45399856567383 C-104.41500091552734,-29.113000869750977 -93.59100341796875,45.60900115966797 -88.49800109863281,45.25600051879883 C-77.72200012207031,44.50899887084961 -91.98200225830078,-34.66899871826172 -47.007999420166016,-93.39900207519531 C-15.791000366210938,-98.16100311279297 68.33599853515625,-103.98100280761719 97.43699645996094,-93.39900207519531z"></path></g><g opacity="1" transform="matrix(1,0,0,1,0,0)"><path fill="url(#__lottie_element_25)" mask="url(#__lottie_element_27)" fill-opacity="0.9" d="M0 0 M23.62700080871582,-99.74800109863281 C-38.01499938964844,-102.34300231933594 -77.16699981689453,-111.38800048828125 -86.86100006103516,-120.62100219726562 C-87.572998046875,-121.29900360107422 -90.9229965209961,-112.97599792480469 -92.71600341796875,-109.30599975585938 C-79.28299713134766,-98.16100311279297 -55.472999572753906,-97.10199737548828 -45.4630012512207,-96.06500244140625 C-86.69000244140625,-59.00699996948242 -81.2239990234375,-1.9930000305175781 -89.98899841308594,-4.574999809265137 C-95.15699768066406,-6.0970001220703125 -93.59400177001953,-53.63199996948242 -96.47899627685547,-54.5099983215332 C-102.56400299072266,-56.36199951171875 -102.03399658203125,42.05099868774414 -88.80699920654297,47.34199905395508 C-74.52100372314453,46.8129997253418 -93.04000091552734,-27.26099967956543 -47.5369987487793,-93.39900207519531 C-41.1879997253418,-96.5739974975586 36.59000015258789,-103.98100280761719 95.58200073242188,-96.06500244140625 C131.8280029296875,-47.895999908447266 130.24099731445312,46.284000396728516 137.11900329589844,47.87099838256836 C151.40499877929688,46.8129997253418 154.0500030517578,-51.599998474121094 148.4949951171875,-51.599998474121094 C145.53700256347656,-51.599998474121094 148.22500610351562,-5.098999977111816 140.61500549316406,-4.480000019073486 C134.47300720214844,-3.9809999465942383 127.06700134277344,-74.87999725341797 97.13200378417969,-97.14299774169922 C119.12999725341797,-97.10299682617188 135.0019989013672,-101.86399841308594 145.5070037841797,-108.77899932861328 C141.3520050048828,-116.1500015258789 139.23399353027344,-121.84700012207031 139.0469970703125,-121.70099639892578 C121.7750015258789,-108.21399688720703 48.75899887084961,-98.69000244140625 23.62700080871582,-99.74800109863281z"></path></g><g opacity="1" transform="matrix(1,0,0,1,0,0)"><path fill="url(#__lottie_element_28)" fill-opacity="0.9" d=" M121.7750015258789,-124.61599731445312 C91.08699798583984,-170.11900329589844 -57.59000015258789,-160.59500122070312 -72.66899871826172,-125.1449966430664 C-77.86299896240234,-112.93399810791016 10.095999717712402,-106.09700012207031 24.42099952697754,-106.09700012207031 C38.707000732421875,-106.09700012207031 128.93099975585938,-114.00599670410156 121.7750015258789,-124.61599731445312z"></path></g><g opacity="1" transform="matrix(1,0,0,1,0,0)"><g opacity="0.38" transform="matrix(1,0,0,1,0,0)"><path fill="url(#__lottie_element_29)" mask="url(#__lottie_element_31)" fill-opacity="1" d="M0 0 M-47.27199935913086,-128.05499267578125 C-49.38800048828125,-125.1449966430664 -6.002999782562256,-120.91200256347656 17.01300048828125,-98.9540023803711 C17.01300048828125,-98.9540023803711 31.298999786376953,-99.48400115966797 31.959999084472656,-99.21900177001953 C49.553001403808594,-120.64800262451172 96.37799835205078,-128.05499267578125 94.28600311279297,-129.1529998779297 C86.32499694824219,-130.43600463867188 48.7599983215332,-125.1449966430664 24.158000946044922,-102.69300079345703 C-3.621000051498413,-125.40899658203125 -46.39400100708008,-129.26300048828125 -47.27199935913086,-128.05499267578125z"></path></g><g opacity="1" transform="matrix(1,0,0,1,0,0)"><path stroke-linecap="round" stroke-linejoin="round" fill-opacity="0" stroke="rgb(186,167,128)" stroke-opacity="1" stroke-width="8" d=" M-115.79100036621094,-26.73200035095215 C-113.67500305175781,-62.18199920654297 -104.58300018310547,-97.95600128173828 -88.73699951171875,-117.1500015258789 C-102.03500366210938,-129.3769989013672 -58.654998779296875,-164.9759979248047 22.829999923706055,-165.56300354003906 C104.31400299072266,-166.14999389648438 150.3459930419922,-128.32000732421875 138.33599853515625,-116.7490005493164 C155.0189971923828,-97.56300354003906 164.10400390625,-75.40899658203125 167.21200561523438,-31.493999481201172"></path></g><g opacity="1" transform="matrix(1,0,0,1,0,0)"><path stroke-linecap="round" stroke-linejoin="miter" fill-opacity="0" stroke-miterlimit="4" stroke="rgb(153,119,60)" stroke-opacity="1" stroke-width="8" d=" M150.08200073242188,-16.679000854492188 C149.28799438476562,15.595999717712402 146.11399841308594,43.90299987792969 138.44200134277344,48.400001525878906"></path></g><g opacity="1" transform="matrix(1,0,0,1,0,0)"><path stroke-linecap="round" stroke-linejoin="miter" fill-opacity="0" stroke-miterlimit="4" stroke="rgb(153,119,60)" stroke-opacity="1" stroke-width="8" d=" M-100.4469985961914,-17.20800018310547 C-96.47899627685547,18.242000579833984 -94.62699890136719,45.75400161743164 -86.95500183105469,46.54800033569336"></path></g><g opacity="1" transform="matrix(1,0,0,1,0,0)"><path stroke-linecap="round" stroke-linejoin="round" fill-opacity="0" stroke="rgb(153,119,60)" stroke-opacity="1" stroke-width="8" d=" M137.6479949951172,48.400001525878906 C128.6529998779297,49.45800018310547 138.70700073242188,-30.43600082397461 97.96600341796875,-93.13400268554688 C86.58999633789062,-101.33499908447266 -36.1619987487793,-101.33499908447266 -48.09400177001953,-93.46800231933594 C-87.7490005493164,-33.61000061035156 -75.58000183105469,48.400001525878906 -87.7490005493164,46.8129997253418"></path></g></g></g><g style="display: block;" transform="matrix(1,0,0,1,255.5,256)" opacity="0.1"><g opacity="1" transform="matrix(1,0,0,1,0,0)"><path fill="rgb(219,110,0)" fill-opacity="1" d=" M-5,-101.25 C-31.75,-149 -81.5,-132.5 -132.25,-126.25 C-130,-110 -108.5,-115.5 -100.69100189208984,-121.1719970703125 C-89,-114.5 -63.5,-96 -43.03099822998047,-76.93099975585938 C-36.5,-73.5 -35,-90.1449966430664 -35,-90.25 C-28.099000930786133,-83.63099670410156 -19.427000045776367,-79.61100006103516 -18.86400032043457,-78.54100036621094 C-12,-65.5 7,-64.75 14.081000328063965,-79.58100128173828 C13.75,-79.5 22.812999725341797,-83.74800109863281 29.29800033569336,-90.83999633789062 C29.062000274658203,-90.69300079345703 32.5,-73.5 37.96099853515625,-76.14099884033203 C61,-94.5 78.5,-111 96.44200134277344,-122.16899871826172 C116.5,-113 129.6219940185547,-119.91300201416016 128,-126.5 C93,-131.5 24,-152 -5,-101.25z"></path></g></g><g style="display: block;" transform="matrix(1,0,0,1,253.75,247)" opacity="1"><g opacity="1" transform="matrix(1,0,0,1,0,0)"><g opacity="1" transform="matrix(1,0,0,1,0,0)"><path stroke-linecap="round" stroke-linejoin="miter" fill-opacity="0" stroke-miterlimit="4" stroke="rgb(153,146,130)" stroke-opacity="1" stroke-width="8" d=" M124,-135.75 C72,-115.25 59,-96.5 40.9900016784668,-82.05999755859375 C41,-82 37.4109992980957,-102.24299621582031 37,-102.5 C27.827999114990234,-108.23300170898438 9.25,-87.25 -1.25,-87 C-10.25100040435791,-86.78600311279297 -29.202999114990234,-108.39399719238281 -39.8129997253418,-102.5 C-40.37300109863281,-102.18900299072266 -43.5,-82 -43.95600128173828,-82.177001953125 C-58.75,-101.75 -106.75,-130.75 -125,-137.25"></path></g><g opacity="1" transform="matrix(1,0,0,1,0,0)"><path fill="rgb(189,187,184)" fill-opacity="1" d=" M-31.375,-106.125 C-34.26599884033203,-107.20899963378906 -37.25,-103.875 -32.75,-102.375 C-28.02899932861328,-100.8010025024414 -18.25,-96.125 -13.125,-92.625 C-14.25,-95.875 -24.375,-103.5 -31.375,-106.125z"></path></g><g opacity="1" transform="matrix(1,0,0,1,0,0)"><path fill="rgb(189,187,184)" fill-opacity="1" d=" M29.125,-105.375 C22.20400047302246,-103.99099731445312 14,-97.625 11.375,-92.25 C15.625,-96.375 23.5,-100.875 29.875,-101.625 C33.474998474121094,-102.04900360107422 33.5,-106.25 29.125,-105.375z"></path></g><g opacity="1" transform="matrix(1,0,0,1,0,0)"><path fill="url(#__lottie_element_6)" fill-opacity="1" d=" M99.5,-126.75 C86,-125.5 45.5,-94.75 40,-82.75 C56.25,-94.5 80.75,-115.25 99.5,-126.75z"></path></g><g opacity="1" transform="matrix(1,0,0,1,0,0)"><path fill="url(#__lottie_element_7)" fill-opacity="1" d=" M-102.5,-128 C-89.5,-119.25 -59.25,-95.75 -44.5,-85.25 C-52.25,-101.25 -92,-126.5 -102.5,-128z"></path></g><g opacity="1" transform="matrix(1,0,0,1,0,0)"><path fill="rgb(115,113,107)" fill-opacity="1" d=" M-122.5,-135.25 C-111.5,-127.25 -66.75,-100.5 -44.75,-81.75 C-64.75,-105.25 -117,-138 -122.5,-135.25z"></path></g><g opacity="1" transform="matrix(1,0,0,1,0,0)"><path fill="rgb(115,113,107)" fill-opacity="1" d=" M122,-134 C83.5,-122.5 54.5,-96.5 41,-82 C64.75,-99.75 96.5,-120.25 122,-134z"></path></g><g opacity="1" transform="matrix(1,0,0,1,0,0)"><path fill="rgb(115,113,107)" fill-opacity="1" d=" M-0.625,-84.25 C-11.125,-84.01100158691406 -26.5,-98.5 -37.25,-101.625 C-32.95800018310547,-101.88899993896484 -19.75,-96.5 -1.1260000467300415,-86.89299774169922 C12.5,-94 29.030000686645508,-101.197998046875 34.75,-101.375 C23,-97.5 10.375,-84.5 -0.625,-84.25z"></path></g></g><g opacity="1" transform="matrix(1,0,0,1,0,0)"><g opacity="1" transform="matrix(1,0,0,1,0,0)"><path stroke-linecap="round" stroke-linejoin="round" fill-opacity="0" stroke="rgb(153,147,131)" stroke-opacity="1" stroke-width="8" d=" M-127.25,-131.75 C-54.5,-138.75 -29.76099967956543,-74.38999938964844 -1.25,-74.18800354003906 C25.25,-74 53.75,-139.25 126.5,-130.75"></path></g><g opacity="1" transform="matrix(1,0,0,1,0,0)"><path fill="url(#__lottie_element_8)" fill-opacity="1" d=" M116.75,-134.5 C44.5,-133 21,-77.75 -1,-77.75 C-21.75,-77.75 -51.25,-133.75 -115,-134.75 C-39.25,-117.5 -23,-73.25 -1,-74.25 C18.5,-72.5 34,-117.25 116.75,-134.5z"></path></g><g opacity="1" transform="matrix(1,0,0,1,0,0)"><path fill="rgb(115,113,107)" fill-opacity="1" d=" M-38,-96.625 C-29.625,-82.875 -12,-69.75 -1.5,-69.125 C9.234000205993652,-68.48600006103516 27.25,-82.875 36,-98 C36.25,-97.375 11.375,-74.625 -1,-74 C-14.746999740600586,-73.30599975585938 -38.125,-96.625 -38,-96.625z"></path></g></g><g opacity="1" transform="matrix(1,0,0,1,0,0)"><g opacity="1" transform="matrix(1,0,0,1,0,0)"><path stroke-linecap="round" stroke-linejoin="miter" fill-opacity="0" stroke-miterlimit="4" stroke="rgb(161,158,150)" stroke-opacity="1" stroke-width="6" d=" M55.125,-136.5 C45.25,-143 27.04800033569336,-138.89199829101562 25.54800033569336,-129.5330047607422 C23.5,-116.75 46.5,-117 46.5,-126.75"></path></g><g opacity="1" transform="matrix(1,0,0,1,0,0)"><path stroke-linecap="round" stroke-linejoin="miter" fill-opacity="0" stroke-miterlimit="4" stroke="rgb(161,158,150)" stroke-opacity="1" stroke-width="6" d=" M-53.75,-137.25 C-37.5,-143 -24.503000259399414,-134.5399932861328 -24.93199920654297,-125.81099700927734 C-25.5,-114.25 -46.75,-117.25 -45.5,-125.375"></path></g><g opacity="0.6" transform="matrix(1,0,0,1,0,0)"><path fill="rgb(255,255,255)" fill-opacity="1" d=" M44.75,-127.625 C41.25,-118.25 29.125,-123 29.5,-122.875 C32.75,-118 44.75,-117.5 48.125,-125.875 C49.34000015258789,-128.88900756835938 45.96799850463867,-130.88699340820312 44.75,-127.625z"></path></g><g opacity="0.6" transform="matrix(1,0,0,1,0,0)"><path fill="rgb(255,255,255)" fill-opacity="1" d=" M-47,-125.125 C-46.875,-118.375 -35,-115 -29.875,-120.75 C-29.75,-120.75 -42.5,-118.25 -44,-126.75 C-44.349998474121094,-128.73500061035156 -47.04899978637695,-127.7760009765625 -47,-125.125z"></path></g><g opacity="1" transform="matrix(1,0,0,1,0,0)"><path stroke-linecap="round" stroke-linejoin="round" fill-opacity="0" stroke="rgb(140,134,122)" stroke-opacity="1" stroke-width="8" d=" M-130,-116.31300354003906 C-103,-112 -96.94499969482422,-133.61000061035156 -69.75,-136.25 C-44,-138.75 -24.17099952697754,-132.17300415039062 -11.6850004196167,-116.52100372314453 C-0.5,-102.5 -18,-103.25 -18.7189998626709,-108.375"></path></g><g opacity="1" transform="matrix(1,0,0,1,0,0)"><path stroke-linecap="round" stroke-linejoin="miter" fill-opacity="0" stroke-miterlimit="4" stroke="rgb(140,134,122)" stroke-opacity="1" stroke-width="8" d=" M16.25,-108.06300354003906 C14.75,-104 -0.5,-103 8.312999725341797,-116.5 C19.89299964904785,-134.23899841308594 51.25,-139.75 71.75,-136.25 C94.15899658203125,-132.4239959716797 105.5,-113 130.5,-117.25"></path></g><g opacity="1" transform="matrix(1,0,0,1,0,0)"><path fill="url(#__lottie_element_9)" mask="url(#__lottie_element_11)" fill-opacity="1" d="M0 0 M96.5,-127.75 C64.75,-146.25 26.25,-139.5 10,-122.5 C-4.659999847412109,-107.16300201416016 6.125,-103.25 10.375,-106.125 C7,-105.875 3.5190000534057617,-106.16899871826172 12.625,-118 C27.25,-137 76,-140.5 96.5,-127.75z"></path></g><g opacity="1" transform="matrix(1,0,0,1,0,0)"><path fill="url(#__lottie_element_12)" mask="url(#__lottie_element_14)" fill-opacity="1" d="M0 0 M-92.75,-130.5 C-54,-145.25 -26.5,-130.25 -16.125,-118.125 C-7.505000114440918,-108.0510025024414 -11.25,-106.25 -12.75,-105.625 C-9.25,-105.5 -2,-109.25 -11.375,-120.5 C-26.222000122070312,-138.31700134277344 -59.75,-146.25 -92.75,-130.5z"></path></g><g opacity="0.5" transform="matrix(1,0,0,1,0,0)"><path fill="rgb(255,255,255)" fill-opacity="1" d=" M106.875,-122 C104.97899627685547,-122.68299865722656 111.375,-117.25 118.125,-116.25 C124.875,-115.25 132.375,-115.5 131.75,-118.625 C131.10499572753906,-121.8489990234375 122.5,-116.375 106.875,-122z"></path></g><g opacity="0.4" transform="matrix(1,0,0,1,0,0)"><path fill="rgb(255,255,255)" fill-opacity="1" d=" M-103.875,-121.625 C-113,-116.25 -129.531005859375,-120.35800170898438 -129.75,-117.625 C-130,-114.5 -121.87300109863281,-115.10199737548828 -118.375,-115.375 C-108.75,-116.125 -103.25,-121.75 -103.875,-121.625z"></path></g><g opacity="1" transform="matrix(1,0,0,1,0,0)"><path fill="rgb(115,112,106)" fill-opacity="1" d=" M-45.25,-134.75 C-96,-144.5 -98,-112.75 -129.75,-114.5 C-104.5,-103.25 -88.5,-141 -45.25,-134.75z"></path></g><g opacity="1" transform="matrix(1,0,0,1,0,0)"><path fill="rgb(115,112,106)" fill-opacity="1" d=" M51.75,-133.75 C91,-138.5 104,-103.5 131.5,-115.5 C107,-111 86.25,-143 51.75,-133.75z"></path></g><g opacity="0.46" transform="matrix(1,0,0,1,0,0)"><path fill="rgb(252,252,252)" fill-opacity="1" d=" M-19.375,-111.875 C-22.75,-110.125 -16.375,-103.75 -11.625,-107.625 C-15,-107.125 -16.625,-112.875 -19.375,-111.875z"></path></g><g opacity="0.46" transform="matrix(1,0,0,1,0,0)"><path fill="rgb(252,252,252)" fill-opacity="1" d=" M17.25,-111 C15.390999794006348,-112.34600067138672 12.875,-107.75 9.25,-108 C13.125,-104.25 20.875,-108.375 17.25,-111z"></path></g></g><g opacity="1" transform="matrix(1.100000023841858,0,0,1.100000023841858,-2.6500000953674316,-26.599998474121094)"><g opacity="1" transform="matrix(1,0,0,1,0,0)"><path fill="url(#__lottie_element_15)" fill-opacity="1" d=" M1.7269999980926514,-79.45500183105469 C-5.7729997634887695,-79.45500183105469 -7.817999839782715,-55.36399841308594 -7.136000156402588,-44.909000396728516 C-6.453999996185303,-34.45399856567383 10.36299991607666,-35.362998962402344 10.817999839782715,-45.13600158691406 C11.27299976348877,-54.909000396728516 9.22700023651123,-79.45500183105469 1.7269999980926514,-79.45500183105469z"></path><path stroke-linecap="butt" stroke-linejoin="miter" fill-opacity="0" stroke-miterlimit="4" stroke="rgb(115,116,116)" stroke-opacity="1" stroke-width="4" d=" M1.7269999980926514,-79.45500183105469 C-5.7729997634887695,-79.45500183105469 -7.817999839782715,-55.36399841308594 -7.136000156402588,-44.909000396728516 C-6.453999996185303,-34.45399856567383 10.36299991607666,-35.362998962402344 10.817999839782715,-45.13600158691406 C11.27299976348877,-54.909000396728516 9.22700023651123,-79.45500183105469 1.7269999980926514,-79.45500183105469z"></path></g><g opacity="1" transform="matrix(1,0,0,1,0,1.3639999628067017)"><path fill="url(#__lottie_element_16)" mask="url(#__lottie_element_18)" fill-opacity="1" d="M0 0 M1.6139999628067017,-73.88600158691406 C-1.2280000448226929,-73.79100036621094 -3.8429999351501465,-52.143001556396484 1.5,-51.840999603271484 C7.5229997634887695,-51.5 5.0229997634887695,-74 1.6139999628067017,-73.88600158691406z"></path></g><g opacity="1" transform="matrix(1,0,0,1,0,0)"><path stroke-linecap="round" stroke-linejoin="miter" fill-opacity="0" stroke-miterlimit="4" stroke="rgb(167,169,169)" stroke-opacity="1" stroke-width="4" d=" M-6.908999919891357,-56.95500183105469 C-5.716000080108643,-70.70500183105469 -2.931999921798706,-79.45500183105469 1.840999960899353,-79.45500183105469 C6.329999923706055,-79.45500183105469 9.170000076293945,-70.36399841308594 10.47700023651123,-57.465999603271484"></path></g></g></g></g></svg>