<svg xmlns="http://www.w3.org/2000/svg" xmlns:xlink="http://www.w3.org/1999/xlink" viewBox="0 0 512 512" width="512" height="512" style="width: 100%; height: 100%; transform: translate3d(0,0,0); content-visibility: visible;" preserveAspectRatio="xMidYMid meet"><defs><clipPath id="__lottie_element_2"><rect width="512" height="512" x="0" y="0"></rect></clipPath><radialGradient id="__lottie_element_6" spreadMethod="pad" gradientUnits="userSpaceOnUse" cx="-0.25" cy="-121" r="38.80157857613528" fx="-0.25" fy="-121"><stop offset="0%" stop-color="rgb(209,204,188)" stop-opacity="1"></stop><stop offset="50%" stop-color="rgb(209,204,188)" stop-opacity="0.6499999761581421"></stop><stop offset="100%" stop-color="rgb(209,204,188)" stop-opacity="0.30000001192092896"></stop></radialGradient><radialGradient id="__lottie_element_7" spreadMethod="pad" gradientUnits="userSpaceOnUse" cx="-43.5" cy="-81.25" r="60.782398768064425" fx="-43.5" fy="-81.25"><stop offset="0%" stop-color="rgb(255,255,255)"></stop><stop offset="52%" stop-color="rgb(255,255,255)"></stop><stop offset="100%" stop-color="rgb(255,255,255)"></stop></radialGradient><mask id="__lottie_element_9"><path fill="url(#__lottie_element_8)" d=" M-92.25,-101.75 C-88.5,-106 -82.18499755859375,-111.75900268554688 -76,-97.5 C-67,-76.75 -50.97999954223633,-71.76599884033203 -37,-79.5 C-31.125,-82.75 -25.673999786376953,-71.01599884033203 -25.125,-72.125 C-18.5,-85.5 -6.5,-84.0009994506836 -2.453000068664551,-81.18800354003906 C-5.75,-86.5009994506836 -18.375,-90.625 -25.125,-77.5 C-26,-79 -31.5,-84.75 -36.75,-82 C-44.801998138427734,-77.78199768066406 -63.11600112915039,-77.59700012207031 -69,-95.25 C-76,-116.25 -90.75,-108.25 -92.25,-101.75z"></path></mask><radialGradient id="__lottie_element_8" spreadMethod="pad" gradientUnits="userSpaceOnUse" cx="-43.5" cy="-81.25" r="60.782398768064425" fx="-43.5" fy="-81.25"><stop stop-color="rgb(255,255,255)" offset="0%" stop-opacity="1"></stop><stop stop-color="rgb(255,255,255)" offset="51%" stop-opacity="0.6499999761581421"></stop><stop stop-color="rgb(255,255,255)" offset="100%" stop-opacity="0.30000001192092896"></stop></radialGradient><radialGradient id="__lottie_element_10" spreadMethod="pad" gradientUnits="userSpaceOnUse" cx="50" cy="-81.25" r="53.750581392204495" fx="50" fy="-81.25"><stop offset="0%" stop-color="rgb(255,255,255)"></stop><stop offset="52%" stop-color="rgb(255,255,255)"></stop><stop offset="100%" stop-color="rgb(255,255,255)"></stop></radialGradient><mask id="__lottie_element_12"><path fill="url(#__lottie_element_11)" d=" M76,-101.5 C68.88600158691406,-91.66600036621094 65.75,-79 41.625,-81.5 C30.365999221801758,-82.66699981689453 28.625,-78.375 28.375,-78.375 C23.5,-88.75 10,-88.5009994506836 6.046999931335449,-80.93800354003906 C15.75,-86.7509994506836 28,-79.25 29.25,-73 C32.625,-77.125 35.071998596191406,-81.54100036621094 42.125,-79.875 C67,-74 71.6780014038086,-85.7030029296875 81,-99.5 C87.25,-108.75 93.5,-103.5 95.25,-99 C94.5,-104 84.5,-113.25 76,-101.5z"></path></mask><radialGradient id="__lottie_element_11" spreadMethod="pad" gradientUnits="userSpaceOnUse" cx="50" cy="-81.25" r="53.750581392204495" fx="50" fy="-81.25"><stop stop-color="rgb(255,255,255)" offset="0%" stop-opacity="1"></stop><stop stop-color="rgb(255,255,255)" offset="51%" stop-opacity="0.6499999761581421"></stop><stop stop-color="rgb(255,255,255)" offset="100%" stop-opacity="0.30000001192092896"></stop></radialGradient><radialGradient id="__lottie_element_13" spreadMethod="pad" gradientUnits="userSpaceOnUse" cx="1.5" cy="-110.5" r="99.40824915468535" fx="1.5" fy="-110.5"><stop offset="0%" stop-color="rgb(212,208,194)"></stop><stop offset="52%" stop-color="rgb(212,208,194)"></stop><stop offset="100%" stop-color="rgb(212,208,194)"></stop></radialGradient><mask id="__lottie_element_15"><path fill="url(#__lottie_element_14)" d=" M-127.25,-106 C-122.25,-104.75 -115.25499725341797,-85.29399871826172 -100.125,-85 C-87.25,-84.75 -69.25,-110.2509994506836 -36.25,-86.31300354003906 C-26.54599952697754,-79.27400207519531 -22.718000411987305,-113.7509994506836 0.843999981880188,-101.43800354003906 C27.781999588012695,-114.2509994506836 25.5,-75.25 39.5,-86.25 C70.03299713134766,-110.23999786376953 88.54199981689453,-82.2699966430664 99.75,-83.5 C120.25,-85.75 118.25,-102.5 126.25,-104.75 C116.75,-106.75 110.59500122070312,-84.85099792480469 100.125,-84.56300354003906 C88.75,-84.25 65.5,-115.7509994506836 33.3129997253418,-89.06300354003906 C28.815000534057617,-85.33399963378906 24.5,-118.75 0.796999990940094,-107.25 C-18.202999114990234,-119.25 -28.375999450683594,-86.19200134277344 -33.375,-90.93800354003906 C-59.25,-115.5009994506836 -89.25,-86.5 -99.68800354003906,-86.5 C-110.00399780273438,-86.5 -113.75,-107 -127.25,-106z"></path></mask><radialGradient id="__lottie_element_14" spreadMethod="pad" gradientUnits="userSpaceOnUse" cx="1.5" cy="-110.5" r="99.40824915468535" fx="1.5" fy="-110.5"><stop stop-color="rgb(255,255,255)" offset="0%" stop-opacity="1"></stop><stop stop-color="rgb(255,255,255)" offset="51%" stop-opacity="0.6499999761581421"></stop><stop stop-color="rgb(255,255,255)" offset="100%" stop-opacity="0.30000001192092896"></stop></radialGradient><radialGradient id="__lottie_element_16" spreadMethod="pad" gradientUnits="userSpaceOnUse" cx="-0.5" cy="4.75" r="13.015015366875293" fx="-0.5000105894698108" fy="5.999962075789847"><stop offset="0%" stop-color="rgb(197,255,227)"></stop><stop offset="63%" stop-color="rgb(127,201,167)"></stop><stop offset="100%" stop-color="rgb(58,147,107)"></stop></radialGradient><radialGradient id="__lottie_element_17" spreadMethod="pad" gradientUnits="userSpaceOnUse" cx="0" cy="3.25" r="9.513148795220223" fx="0" fy="3.25"><stop offset="0%" stop-color="rgb(197,255,227)"></stop><stop offset="63%" stop-color="rgb(127,201,167)"></stop><stop offset="100%" stop-color="rgb(58,147,107)"></stop></radialGradient><radialGradient id="__lottie_element_18" spreadMethod="pad" gradientUnits="userSpaceOnUse" cx="-0.25" cy="1.625" r="7.142522313580827" fx="-0.25" fy="1.625"><stop offset="0%" stop-color="rgb(197,255,227)"></stop><stop offset="63%" stop-color="rgb(127,201,167)"></stop><stop offset="100%" stop-color="rgb(58,147,107)"></stop></radialGradient><linearGradient id="__lottie_element_28" spreadMethod="pad" gradientUnits="userSpaceOnUse" x1="-1.8009999990463257" y1="132.04299926757812" x2="-1.9259999990463257" y2="143.00799560546875"><stop offset="0%" stop-color="rgb(255,168,0)" stop-opacity="1"></stop><stop offset="50%" stop-color="rgb(255,168,0)" stop-opacity="0.5"></stop><stop offset="100%" stop-color="rgb(255,168,0)" stop-opacity="0"></stop></linearGradient><radialGradient id="__lottie_element_29" spreadMethod="pad" gradientUnits="userSpaceOnUse" cx="-1.9259999990463257" cy="148.41799926757812" r="39.79100167751312" fx="-1.9259999990463257" fy="148.41799926757812"><stop offset="0%" stop-color="rgb(255,255,255)" stop-opacity="1"></stop><stop offset="62%" stop-color="rgb(255,255,255)" stop-opacity="0.5"></stop><stop offset="100%" stop-color="rgb(255,255,255)" stop-opacity="0"></stop></radialGradient><linearGradient id="__lottie_element_30" spreadMethod="pad" gradientUnits="userSpaceOnUse" x1="-1.9259999990463257" y1="148.41799926757812" x2="-1.9259999990463257" y2="138.76699829101562"><stop offset="0%" stop-color="rgb(88,11,14)" stop-opacity="0"></stop><stop offset="34%" stop-color="rgb(88,11,14)" stop-opacity="0.5"></stop><stop offset="75%" stop-color="rgb(88,11,14)" stop-opacity="1"></stop></linearGradient><radialGradient id="__lottie_element_31" spreadMethod="pad" gradientUnits="userSpaceOnUse" cx="-1.9259999990463257" cy="164.41799926757812" r="23.880000472068787" fx="-1.9259999990463257" fy="164.41799926757812"><stop offset="10%" stop-color="rgb(219,110,0)" stop-opacity="1"></stop><stop offset="66%" stop-color="rgb(219,110,0)" stop-opacity="0.5"></stop><stop offset="100%" stop-color="rgb(219,110,0)" stop-opacity="0"></stop></radialGradient><linearGradient id="__lottie_element_35" spreadMethod="pad" gradientUnits="userSpaceOnUse" x1="-35.112998962402344" y1="10.5" x2="-19.799999237060547" y2="32.56700134277344"><stop offset="0%" stop-color="rgb(66,0,0)"></stop><stop offset="37%" stop-color="rgb(118,40,0)"></stop><stop offset="100%" stop-color="rgb(170,80,0)"></stop></linearGradient><radialGradient id="__lottie_element_36" spreadMethod="pad" gradientUnits="userSpaceOnUse" cx="-21.238000869750977" cy="29" r="9.703001022338867" fx="-21.238000869750977" fy="29"><stop offset="0%" stop-color="rgb(246,175,0)" stop-opacity="1"></stop><stop offset="50%" stop-color="rgb(246,175,0)" stop-opacity="0.5"></stop><stop offset="100%" stop-color="rgb(246,175,0)" stop-opacity="0"></stop></radialGradient><linearGradient id="__lottie_element_37" spreadMethod="pad" gradientUnits="userSpaceOnUse" x1="-35.83100128173828" y1="5.75" x2="-35.67499923706055" y2="13.157999992370605"><stop offset="0%" stop-color="rgb(255,255,255)" stop-opacity="1"></stop><stop offset="60%" stop-color="rgb(255,255,255)" stop-opacity="0.5"></stop><stop offset="100%" stop-color="rgb(255,255,255)" stop-opacity="0"></stop></linearGradient><linearGradient id="__lottie_element_38" spreadMethod="pad" gradientUnits="userSpaceOnUse" x1="75.63700103759766" y1="10.5" x2="90.44999694824219" y2="32.69200134277344"><stop offset="0%" stop-color="rgb(66,0,0)"></stop><stop offset="37%" stop-color="rgb(118,40,0)"></stop><stop offset="100%" stop-color="rgb(170,80,0)"></stop></linearGradient><radialGradient id="__lottie_element_39" spreadMethod="pad" gradientUnits="userSpaceOnUse" cx="89.76200103759766" cy="29" r="9.702995300292969" fx="89.76200103759766" fy="29"><stop offset="0%" stop-color="rgb(246,175,0)" stop-opacity="1"></stop><stop offset="50%" stop-color="rgb(246,175,0)" stop-opacity="0.5"></stop><stop offset="100%" stop-color="rgb(246,175,0)" stop-opacity="0"></stop></radialGradient><linearGradient id="__lottie_element_40" spreadMethod="pad" gradientUnits="userSpaceOnUse" x1="74.51200103759766" y1="6" x2="74.82499694824219" y2="13.282999992370605"><stop offset="0%" stop-color="rgb(255,255,255)" stop-opacity="1"></stop><stop offset="60%" stop-color="rgb(255,255,255)" stop-opacity="0.5"></stop><stop offset="100%" stop-color="rgb(255,255,255)" stop-opacity="0"></stop></linearGradient><linearGradient id="__lottie_element_44" spreadMethod="pad" gradientUnits="userSpaceOnUse" x1="-0.9259999990463257" y1="-139.58200073242188" x2="0.375" y2="-1.9279999732971191"><stop offset="10%" stop-color="rgb(230,219,183)" stop-opacity="0"></stop><stop offset="55%" stop-color="rgb(230,219,183)" stop-opacity="0.5"></stop><stop offset="100%" stop-color="rgb(230,219,183)" stop-opacity="1"></stop></linearGradient><linearGradient id="__lottie_element_45" spreadMethod="pad" gradientUnits="userSpaceOnUse" x1="5.073999881744385" y1="-7.581999778747559" x2="5.073999881744385" y2="-150.54200744628906"><stop offset="8%" stop-color="rgb(192,167,90)" stop-opacity="0.30000001192092896"></stop><stop offset="27%" stop-color="rgb(192,167,90)" stop-opacity="0.6499999761581421"></stop><stop offset="65%" stop-color="rgb(192,167,90)" stop-opacity="1"></stop><stop offset="82%" stop-color="rgb(192,167,90)" stop-opacity="0.5"></stop><stop offset="100%" stop-color="rgb(192,167,90)" stop-opacity="0"></stop></linearGradient><linearGradient id="__lottie_element_46" spreadMethod="pad" gradientUnits="userSpaceOnUse" x1="24.073999404907227" y1="-186.58200073242188" x2="24.440000534057617" y2="-109.05799865722656"><stop offset="0%" stop-color="rgb(255,255,255)" stop-opacity="1"></stop><stop offset="50%" stop-color="rgb(255,255,255)" stop-opacity="0.5"></stop><stop offset="100%" stop-color="rgb(255,255,255)" stop-opacity="0"></stop></linearGradient><linearGradient id="__lottie_element_47" spreadMethod="pad" gradientUnits="userSpaceOnUse" x1="-149.92599487304688" y1="-140.58200073242188" x2="-133.92100524902344" y2="-93.08399963378906"><stop offset="0%" stop-color="rgb(255,255,255)" stop-opacity="1"></stop><stop offset="50%" stop-color="rgb(255,255,255)" stop-opacity="0.5"></stop><stop offset="100%" stop-color="rgb(255,255,255)" stop-opacity="0"></stop></linearGradient><linearGradient id="__lottie_element_51" spreadMethod="pad" gradientUnits="userSpaceOnUse" x1="-3.249000072479248" y1="27" x2="-3.249000072479248" y2="47.76300048828125"><stop offset="0%" stop-color="rgb(255,168,0)" stop-opacity="1"></stop><stop offset="66%" stop-color="rgb(255,168,0)" stop-opacity="0.5099999904632568"></stop><stop offset="100%" stop-color="rgb(255,168,0)" stop-opacity="0.019999999552965164"></stop></linearGradient><linearGradient id="__lottie_element_52" spreadMethod="pad" gradientUnits="userSpaceOnUse" x1="-3.249000072479248" y1="39" x2="-3.249000072479248" y2="22.46299934387207"><stop offset="10%" stop-color="rgb(219,110,0)" stop-opacity="1"></stop><stop offset="49%" stop-color="rgb(219,110,0)" stop-opacity="0.5"></stop><stop offset="77%" stop-color="rgb(219,110,0)" stop-opacity="0"></stop></linearGradient><radialGradient id="__lottie_element_53" spreadMethod="pad" gradientUnits="userSpaceOnUse" cx="-4.249000072479248" cy="18" r="16.986000537872314" fx="-4.249000072479248" fy="18"><stop offset="40%" stop-color="rgb(255,168,0)" stop-opacity="0.009999999776482582"></stop><stop offset="70%" stop-color="rgb(255,168,0)" stop-opacity="0.5049999952316284"></stop><stop offset="100%" stop-color="rgb(255,168,0)" stop-opacity="1"></stop></radialGradient><linearGradient id="__lottie_element_54" spreadMethod="pad" gradientUnits="userSpaceOnUse" x1="-3.249000072479248" y1="17" x2="-3.249000072479248" y2="25.16900062561035"><stop offset="0%" stop-color="rgb(255,255,255)" stop-opacity="1"></stop><stop offset="50%" stop-color="rgb(255,255,255)" stop-opacity="0.5"></stop><stop offset="100%" stop-color="rgb(255,255,255)" stop-opacity="0"></stop></linearGradient><linearGradient id="__lottie_element_58" spreadMethod="pad" gradientUnits="userSpaceOnUse" x1="-15.458000183105469" y1="-148" x2="-5.818999767303467" y2="-52.891998291015625"><stop offset="0%" stop-color="rgb(219,110,0)" stop-opacity="1"></stop><stop offset="38%" stop-color="rgb(219,110,0)" stop-opacity="0.5"></stop><stop offset="70%" stop-color="rgb(219,110,0)" stop-opacity="0"></stop></linearGradient><linearGradient id="__lottie_element_59" spreadMethod="pad" gradientUnits="userSpaceOnUse" x1="-3.4579999446868896" y1="-92" x2="-3.4579999446868896" y2="82.24700164794922"><stop offset="0%" stop-color="rgb(255,216,0)" stop-opacity="0"></stop><stop offset="11%" stop-color="rgb(255,216,0)" stop-opacity="0.5"></stop><stop offset="45%" stop-color="rgb(255,216,0)" stop-opacity="1"></stop><stop offset="90%" stop-color="rgb(255,216,0)" stop-opacity="0.5"></stop><stop offset="100%" stop-color="rgb(255,216,0)" stop-opacity="0"></stop></linearGradient><linearGradient id="__lottie_element_63" spreadMethod="pad" gradientUnits="userSpaceOnUse" x1="-130.33399963378906" y1="-37.237998962402344" x2="-125.94599914550781" y2="3.0190000534057617"><stop offset="0%" stop-color="rgb(255,216,0)"></stop><stop offset="50%" stop-color="rgb(255,192,0)"></stop><stop offset="100%" stop-color="rgb(255,168,0)"></stop></linearGradient><linearGradient id="__lottie_element_64" spreadMethod="pad" gradientUnits="userSpaceOnUse" x1="128.3209991455078" y1="-39.75400161743164" x2="121.13500213623047" y2="1.5099999904632568"><stop offset="0%" stop-color="rgb(255,216,0)"></stop><stop offset="50%" stop-color="rgb(255,192,0)"></stop><stop offset="100%" stop-color="rgb(255,168,0)"></stop></linearGradient><linearGradient id="__lottie_element_71" spreadMethod="pad" gradientUnits="userSpaceOnUse" x1="-139.5" y1="203.25" x2="139" y2="202.5"><stop offset="0%" stop-color="rgb(20,52,31)"></stop><stop offset="7%" stop-color="rgb(20,52,31)"></stop><stop offset="47%" stop-color="rgb(20,52,31)"></stop><stop offset="93%" stop-color="rgb(20,51,31)"></stop><stop offset="100%" stop-color="rgb(20,51,31)"></stop></linearGradient><mask id="__lottie_element_73"><path fill="url(#__lottie_element_72)" d=" M139,171.25 C139,171.25 -139,170.75 -139,170.75 C-139,170.75 -139.93800354003906,221.68800354003906 -139.93800354003906,221.68800354003906 C-139.93800354003906,221.68800354003906 139.06300354003906,220.93800354003906 139.06300354003906,220.93800354003906 C139.06300354003906,220.93800354003906 139,171.25 139,171.25z"></path></mask><linearGradient id="__lottie_element_72" spreadMethod="pad" gradientUnits="userSpaceOnUse" x1="-139.5" y1="203.25" x2="139" y2="202.5"><stop stop-color="rgb(255,255,255)" offset="0%" stop-opacity="0"></stop><stop stop-color="rgb(255,255,255)" offset="5%" stop-opacity="0.5"></stop><stop stop-color="rgb(255,255,255)" offset="47%" stop-opacity="1"></stop><stop stop-color="rgb(255,255,255)" offset="94%" stop-opacity="0.5"></stop><stop stop-color="rgb(255,255,255)" offset="100%" stop-opacity="0"></stop></linearGradient><radialGradient id="__lottie_element_74" spreadMethod="pad" gradientUnits="userSpaceOnUse" cx="-116" cy="190.25" r="39.55455093917766" fx="-116" fy="190.25"><stop offset="0%" stop-color="rgb(218,219,100)"></stop><stop offset="52%" stop-color="rgb(181,178,73)"></stop><stop offset="100%" stop-color="rgb(144,137,46)"></stop></radialGradient><radialGradient id="__lottie_element_75" spreadMethod="pad" gradientUnits="userSpaceOnUse" cx="120" cy="186.5" r="40.57246603301308" fx="120" fy="186.5"><stop offset="0%" stop-color="rgb(218,219,100)"></stop><stop offset="52%" stop-color="rgb(181,178,73)"></stop><stop offset="100%" stop-color="rgb(144,137,46)"></stop></radialGradient><radialGradient id="__lottie_element_76" spreadMethod="pad" gradientUnits="userSpaceOnUse" cx="-0.5" cy="201.5" r="100.04498987955368" fx="-0.5" fy="201.5"><stop offset="0%" stop-color="rgb(222,222,100)"></stop><stop offset="63%" stop-color="rgb(183,180,74)"></stop><stop offset="100%" stop-color="rgb(145,138,47)"></stop></radialGradient><linearGradient id="__lottie_element_77" spreadMethod="pad" gradientUnits="userSpaceOnUse" x1="0.25" y1="139.25" x2="-2.5" y2="191.5"><stop offset="0%" stop-color="rgb(30,56,39)"></stop><stop offset="52%" stop-color="rgb(30,56,39)"></stop><stop offset="100%" stop-color="rgb(30,56,40)"></stop></linearGradient><mask id="__lottie_element_79"><path fill="url(#__lottie_element_78)" d=" M-10.75,121.75 C-103.75399780273438,121.31999969482422 -119.5,141.75 -119,142 C-59.25,156.75 -21.25,197.75 0.43799999356269836,212 C20.500999450683594,198 58.25,154 122.75,142 C123.48300170898438,142 111.1050033569336,123.68399810791016 9.253000259399414,122.31500244140625 C3.75,159.75 -0.75,164.5 -10.75,121.75z"></path></mask><linearGradient id="__lottie_element_78" spreadMethod="pad" gradientUnits="userSpaceOnUse" x1="0.25" y1="139.25" x2="-2.5" y2="191.5"><stop stop-color="rgb(255,255,255)" offset="0%" stop-opacity="1"></stop><stop stop-color="rgb(255,255,255)" offset="51%" stop-opacity="0.5"></stop><stop stop-color="rgb(255,255,255)" offset="100%" stop-opacity="0"></stop></linearGradient><linearGradient id="__lottie_element_80" spreadMethod="pad" gradientUnits="userSpaceOnUse" x1="-123" y1="140.5" x2="-108.25" y2="163.75"><stop offset="0%" stop-color="rgb(35,67,48)"></stop><stop offset="50%" stop-color="rgb(35,67,48)"></stop><stop offset="100%" stop-color="rgb(35,67,48)"></stop></linearGradient><mask id="__lottie_element_82"><path fill="url(#__lottie_element_81)" d=" M-42.125,145 C-23.219999313354492,139.3520050048828 -113.25,105.5 -146.75,170.75 C-146.75,170.75 -133,181.5 -120.25,193.875 C-103.75,168.75 -62.625,151.125 -42.125,145z"></path></mask><linearGradient id="__lottie_element_81" spreadMethod="pad" gradientUnits="userSpaceOnUse" x1="-123" y1="140.5" x2="-108.25" y2="163.75"><stop stop-color="rgb(255,255,255)" offset="0%" stop-opacity="1"></stop><stop stop-color="rgb(255,255,255)" offset="51%" stop-opacity="0.5"></stop><stop stop-color="rgb(255,255,255)" offset="100%" stop-opacity="0"></stop></linearGradient><linearGradient id="__lottie_element_83" spreadMethod="pad" gradientUnits="userSpaceOnUse" x1="140.5" y1="149.25" x2="119.5" y2="169.75"><stop offset="0%" stop-color="rgb(35,67,48)"></stop><stop offset="50%" stop-color="rgb(35,67,48)"></stop><stop offset="100%" stop-color="rgb(35,67,48)"></stop></linearGradient><mask id="__lottie_element_85"><path fill="url(#__lottie_element_84)" d=" M56.25,141.5 C74.75,152.5 104.5,167.25 121.125,192.18800354003906 C134.25,180.31300354003906 147,171.5 146.75,171.25 C137.75,121.25 37.75,130.5 56.25,141.5z"></path></mask><linearGradient id="__lottie_element_84" spreadMethod="pad" gradientUnits="userSpaceOnUse" x1="140.5" y1="149.25" x2="119.5" y2="169.75"><stop stop-color="rgb(255,255,255)" offset="0%" stop-opacity="1"></stop><stop stop-color="rgb(255,255,255)" offset="51%" stop-opacity="0.5"></stop><stop stop-color="rgb(255,255,255)" offset="100%" stop-opacity="0"></stop></linearGradient><linearGradient id="__lottie_element_86" spreadMethod="pad" gradientUnits="userSpaceOnUse" x1="-0.5" y1="121.25" x2="0.25" y2="196.75"><stop offset="0%" stop-color="rgb(34,87,53)"></stop><stop offset="14%" stop-color="rgb(48,108,70)"></stop><stop offset="51%" stop-color="rgb(63,130,87)"></stop><stop offset="88%" stop-color="rgb(48,108,70)"></stop><stop offset="100%" stop-color="rgb(34,87,53)"></stop></linearGradient><radialGradient id="__lottie_element_87" spreadMethod="pad" gradientUnits="userSpaceOnUse" cx="1" cy="187" r="125.23977004130916" fx="1" fy="187"><stop offset="0%" stop-color="rgb(216,217,98)"></stop><stop offset="50%" stop-color="rgb(182,180,73)"></stop><stop offset="100%" stop-color="rgb(148,142,49)"></stop></radialGradient><linearGradient id="__lottie_element_88" spreadMethod="pad" gradientUnits="userSpaceOnUse" x1="-62" y1="118.5" x2="62" y2="119.25"><stop offset="0%" stop-color="rgb(29,75,43)"></stop><stop offset="12%" stop-color="rgb(39,95,59)"></stop><stop offset="52%" stop-color="rgb(48,116,75)"></stop><stop offset="90%" stop-color="rgb(39,95,59)"></stop><stop offset="100%" stop-color="rgb(29,75,43)"></stop></linearGradient><linearGradient id="__lottie_element_89" spreadMethod="pad" gradientUnits="userSpaceOnUse" x1="-28.875" y1="137" x2="28.25" y2="136.5"><stop offset="0%" stop-color="rgb(29,75,43)" stop-opacity="0"></stop><stop offset="21%" stop-color="rgb(29,75,43)" stop-opacity="0.5"></stop><stop offset="53%" stop-color="rgb(29,75,43)" stop-opacity="1"></stop><stop offset="83%" stop-color="rgb(29,75,43)" stop-opacity="0.5"></stop><stop offset="100%" stop-color="rgb(29,75,43)" stop-opacity="0"></stop></linearGradient><linearGradient id="__lottie_element_90" spreadMethod="pad" gradientUnits="userSpaceOnUse" x1="0.125" y1="159.5" x2="0.625" y2="102.375"><stop offset="0%" stop-color="rgb(142,117,29)"></stop><stop offset="20%" stop-color="rgb(173,146,52)"></stop><stop offset="54%" stop-color="rgb(204,175,74)"></stop><stop offset="84%" stop-color="rgb(173,146,52)"></stop><stop offset="100%" stop-color="rgb(142,117,29)"></stop></linearGradient><radialGradient id="__lottie_element_91" spreadMethod="pad" gradientUnits="userSpaceOnUse" cx="134.25" cy="137.75" r="86.26268022731499" fx="134.25" fy="137.75"><stop offset="0%" stop-color="rgb(255,255,255)" stop-opacity="1"></stop><stop offset="52%" stop-color="rgb(255,255,255)" stop-opacity="0.5"></stop><stop offset="100%" stop-color="rgb(255,255,255)" stop-opacity="0"></stop></radialGradient><radialGradient id="__lottie_element_92" spreadMethod="pad" gradientUnits="userSpaceOnUse" cx="-124.5" cy="133.75" r="83.60210822700586" fx="-124.5" fy="133.75"><stop offset="0%" stop-color="rgb(255,255,255)" stop-opacity="1"></stop><stop offset="52%" stop-color="rgb(255,255,255)" stop-opacity="0.5"></stop><stop offset="100%" stop-color="rgb(255,255,255)" stop-opacity="0"></stop></radialGradient><radialGradient id="__lottie_element_93" spreadMethod="pad" gradientUnits="userSpaceOnUse" cx="-0.1899999976158142" cy="5.125" r="11.763576199324161" fx="-0.38488903652718776" fy="5.0458916878186635"><stop offset="0%" stop-color="rgb(154,250,208)"></stop><stop offset="61%" stop-color="rgb(107,204,196)"></stop><stop offset="100%" stop-color="rgb(60,158,183)"></stop></radialGradient><radialGradient id="__lottie_element_94" spreadMethod="pad" gradientUnits="userSpaceOnUse" cx="0" cy="1" r="10.52675163571365" fx="-0.500001270822069" fy="4.750022814931606"><stop offset="0%" stop-color="rgb(151,247,207)"></stop><stop offset="50%" stop-color="rgb(95,192,184)"></stop><stop offset="100%" stop-color="rgb(38,136,162)"></stop></radialGradient><radialGradient id="__lottie_element_98" spreadMethod="pad" gradientUnits="userSpaceOnUse" cx="-1.0509999990463257" cy="151.8800048828125" r="48.38864761652768" fx="-1.0509999990463257" fy="151.8800048828125"><stop offset="20%" stop-color="rgb(255,168,0)" stop-opacity="1"></stop><stop offset="68%" stop-color="rgb(255,168,0)" stop-opacity="0.5"></stop><stop offset="100%" stop-color="rgb(255,168,0)" stop-opacity="0"></stop></radialGradient></defs><g clip-path="url(#__lottie_element_2)"><g style="display: block;" transform="matrix(1,0,0,1,256,256)" opacity="1"><g opacity="1" transform="matrix(1,0,0,1,0,0)"><path fill="rgb(25,68,48)" fill-opacity="1" d=" M53.25,99.75 C52.75,91 -54,90.625 -54,99.375 C-54,106.23999786376953 -54.25,158.75 -54.25,158.75 C-54.25,158.75 53.25,158.25 53.25,158.25 C53.25,158.25 53.75,108.5 53.25,99.75z"></path><path stroke-linecap="butt" stroke-linejoin="miter" fill-opacity="0" stroke-miterlimit="4" stroke="rgb(22,58,29)" stroke-opacity="1" stroke-width="8" d=" M53.25,99.75 C52.75,91 -54,90.625 -54,99.375 C-54,106.23999786376953 -54.25,158.75 -54.25,158.75 C-54.25,158.75 53.25,158.25 53.25,158.25 C53.25,158.25 53.75,108.5 53.25,99.75z"></path></g></g><g style="display: block;" transform="matrix(1.0199999809265137,0,0,1.0199999809265137,256.2698059082031,270.24932861328125)" opacity="1"><g opacity="1" transform="matrix(1,0,0,1,0,0)"><path fill="rgb(181,102,6)" fill-opacity="1" d=" M38.58599853515625,78.58499908447266 C38.58599853515625,78.58499908447266 -41.566001892089844,78.58499908447266 -41.566001892089844,78.58499908447266 C-41.566001892089844,78.58499908447266 -42.551998138427734,158.6840057373047 -42.551998138427734,158.6840057373047 C-42.551998138427734,158.6840057373047 39.573001861572266,158.6840057373047 39.573001861572266,158.6840057373047 C39.573001861572266,158.6840057373047 38.58599853515625,78.58499908447266 38.58599853515625,78.58499908447266z"></path></g><g opacity="1" transform="matrix(1,0,0,1,0,0)"><path fill="url(#__lottie_element_98)" fill-opacity="1" d=" M39.58599853515625,78.58499908447266 C39.58599853515625,78.58499908447266 -40.566001892089844,78.58499908447266 -40.566001892089844,78.58499908447266 C-40.566001892089844,78.58499908447266 -41.551998138427734,156.72300720214844 -41.551998138427734,156.72300720214844 C-41.551998138427734,156.72300720214844 40.571998596191406,156.72300720214844 40.571998596191406,156.72300720214844 C40.571998596191406,156.72300720214844 39.58599853515625,78.58499908447266 39.58599853515625,78.58499908447266z"></path></g><g opacity="1" transform="matrix(1,0,0,1,0,0)"><path stroke-linecap="round" stroke-linejoin="round" fill-opacity="0" stroke="rgb(153,71,4)" stroke-opacity="1" stroke-width="8" d=" M39.571998596191406,153.23300170898438 C39.571998596191406,153.23300170898438 38.58599853515625,78.58499908447266 38.58599853515625,78.58499908447266 C38.58599853515625,78.58499908447266 -41.566001892089844,78.58499908447266 -41.566001892089844,78.58499908447266 C-41.566001892089844,78.58499908447266 -42.551998138427734,153.23300170898438 -42.551998138427734,153.23300170898438"></path></g></g><g style="display: block;" transform="matrix(1,0,0,1,256,257)" opacity="1"><g opacity="1" transform="matrix(1,0,0,1,0,0)"><g opacity="1" transform="matrix(1,0,0,1,0,0)"><g opacity="1" transform="matrix(1,0,0,1,0,0)"><path fill="rgb(59,148,96)" fill-opacity="1" d=" M127.25,144 C86.58799743652344,125.83999633789062 48.03900146484375,121.54399871826172 12.027000427246094,120.25199890136719 C-1.5,180.5 -2.75,150.75 -16.25,117.00199890136719 C-59.69599914550781,119.34600067138672 -97.01399993896484,130.5749969482422 -124.25,142.75 C-146.7050018310547,152.78799438476562 -156.125,210.31300354003906 -156.375,210.06300354003906 C-155.375,219.18800354003906 -146.68800354003906,222 -140.5,221.75 C-140.43699645996094,221.75 139.18800354003906,221.43800354003906 139.18800354003906,221.18800354003906 C153.18800354003906,221 156.375,213.5 155.875,210.75 C154.42999267578125,202.80299377441406 147.34300231933594,152.9739990234375 127.25,144z"></path></g><g opacity="0.6" transform="matrix(1,0,0,1,0,0)"><path fill="url(#__lottie_element_71)" mask="url(#__lottie_element_73)" fill-opacity="1" d="M0 0 M139,171.25 C139,171.25 -139,170.75 -139,170.75 C-139,170.75 -139.93800354003906,221.68800354003906 -139.93800354003906,221.68800354003906 C-139.93800354003906,221.68800354003906 139.06300354003906,220.93800354003906 139.06300354003906,220.93800354003906 C139.06300354003906,220.93800354003906 139,171.25 139,171.25z"></path></g><g opacity="1" transform="matrix(1,0,0,1,0,0)"><path fill="rgb(75,196,128)" fill-opacity="1" d=" M125.5,172.18800354003906 C125.5,172.18800354003906 -125.5,171.5 -125.5,171.5 C-125.5,171.5 -126,221.75 -126,221.75 C-126,221.75 125.875,221.5 125.875,221.5 C125.875,221.5 125.5,172.18800354003906 125.5,172.18800354003906z"></path></g><g opacity="0.35000000000000003" transform="matrix(1,0,0,1,0,0)"><path fill="rgb(38,86,51)" fill-opacity="1" d=" M-149.68800354003906,178.25 C-137.5,187.5 -112.7509994506836,212.75 -105.43800354003906,221.81300354003906 C-105.18800354003906,221.81300354003906 103.125,221.625 103.375,221.625 C115.5,207.5 143.25,184.25 151,178.75 C140.23599243164062,145.05499267578125 77.197998046875,125.54100036621094 11.529999732971191,122.38600158691406 C1.5,171.25 -4.75,152 -16.517000198364258,122.03900146484375 C-81.5719985961914,123.57499694824219 -142.24099731445312,141.5970001220703 -149.68800354003906,178.25z"></path></g></g><g opacity="1" transform="matrix(1,0,0,1,0,0)"><g opacity="1" transform="matrix(1,0,0,1,0,0)"><path fill="rgb(71,157,112)" fill-opacity="1" d=" M-123.5,142.25 C-138.04200744628906,148.34100341796875 -147,170.5 -146.25,170 C-129,182.75 -110.5009994506836,203.5 -93.93800354003906,221.5 C-93.93800354003906,221.5 92.25,221.81300354003906 91.5,221.56300354003906 C107.5,205 124.25,185.75 147,171 C147.86500549316406,170.43899536132812 141.75,149.5 124.25,142 C90.33399963378906,127.46499633789062 56.452999114990234,120.89600372314453 11.51200008392334,120.21299743652344 C3.75,174.75 -5.75,155.5 -12.744999885559082,121.12300109863281 C-47.64400100708008,122.40699768066406 -81.64399719238281,124.71700286865234 -123.5,142.25z"></path></g><g opacity="1" transform="matrix(1,0,0,1,0,0)"><path fill="url(#__lottie_element_74)" fill-opacity="1" d=" M-142.5,167.25 C-145.53500366210938,165.98500061035156 -146.1820068359375,170.79299926757812 -143.5,173 C-123.75,189.25 -99,216.25 -94.75,221.5 C-94.5,222 -88.375,221.75 -88.125,221.75 C-99.25,203.5 -133.5,171 -142.5,167.25z"></path></g><g opacity="1" transform="matrix(1,0,0,1,0,0)"><path fill="url(#__lottie_element_75)" fill-opacity="1" d=" M144.25,167.75 C133.5,169 94.75,205.75 86.25,221.125 C86.75,221.375 93.625,221.31300354003906 92.625,221.31300354003906 C107,203 136,178.75 147,171.25 C146.5,171.25 144.5,167.5 144.25,167.75z"></path></g><g opacity="1" transform="matrix(1,0,0,1,0,0)"><path fill="rgb(52,128,85)" fill-opacity="1" d=" M36.75,159.5 C36.75,159.5 -36.5,160.5 -36.5,160.5 C-36.5,160.5 -36.75,221.375 -36.75,221.375 C-36.75,221.375 37.5,221.125 37.5,221.125 C37.5,221.125 36.75,159.5 36.75,159.5z"></path></g><g opacity="1" transform="matrix(1,0,0,1,0,0)"><path fill="url(#__lottie_element_76)" fill-opacity="1" d=" M60,138 C62,165.25 62,199.25 62,199.25 C27.5,197.5 -32.1879997253418,197.31300354003906 -59.6879997253418,199.18800354003906 C-59.6879997253418,199.43800354003906 -60.5,179.5 -59.5,132 C-59.37799835205078,126.18599700927734 -69.0009994506836,114.9530029296875 -66.93800354003906,221.2030029296875 C-66.68800354003906,221.7030029296875 -60.0629997253418,221.5469970703125 -59.8129997253418,221.5469970703125 C-60.375999450683594,213.23399353027344 -60.0629997253418,205.31300354003906 -60.0629997253418,205.06300354003906 C-51.05400085449219,204.19200134277344 -26.82200050354004,203.5659942626953 -2.3910000324249268,203.4770050048828 C-2.1410000324249268,203.56300354003906 -2.2739999294281006,211.06300354003906 -2.0859999656677246,221.593994140625 C-2.1489999294281006,221.625 2.734999895095825,221.625 2.7239999771118164,221.5540008544922 C2.796999931335449,212.375 2.4539999961853027,203.56199645996094 2.3910000324249268,203.46600341796875 C26.79199981689453,203.468994140625 51.57400131225586,204.02999877929688 61.3120002746582,205.43800354003906 C61.8120002746582,206.18800354003906 61.75,213.67100524902344 61.25,221.10899353027344 C61.25,221.60899353027344 67.93699645996094,221.7969970703125 67.93699645996094,221.2969970703125 C70.5,117.60900115966797 59.26300048828125,127.96499633789062 60,138z"></path></g><g opacity="0.45" transform="matrix(1,0,0,1,0,0)"><path fill="url(#__lottie_element_77)" mask="url(#__lottie_element_79)" fill-opacity="1" d="M0 0 M-10.75,121.75 C-103.75399780273438,121.31999969482422 -119.5,141.75 -119,142 C-59.25,156.75 -21.25,197.75 0.43799999356269836,212 C20.500999450683594,198 58.25,154 122.75,142 C123.48300170898438,142 111.1050033569336,123.68399810791016 9.253000259399414,122.31500244140625 C3.75,159.75 -0.75,164.5 -10.75,121.75z"></path></g></g><g opacity="0.45" transform="matrix(1,0,0,1,0,0)"><path fill="url(#__lottie_element_80)" mask="url(#__lottie_element_82)" fill-opacity="1" d="M0 0 M-42.125,145 C-23.219999313354492,139.3520050048828 -113.25,105.5 -146.75,170.75 C-146.75,170.75 -133,181.5 -120.25,193.875 C-103.75,168.75 -62.625,151.125 -42.125,145z"></path></g><g opacity="0.45" transform="matrix(1,0,0,1,0,0)"><path fill="url(#__lottie_element_83)" mask="url(#__lottie_element_85)" fill-opacity="1" d="M0 0 M56.25,141.5 C74.75,152.5 104.5,167.25 121.125,192.18800354003906 C134.25,180.31300354003906 147,171.5 146.75,171.25 C137.75,121.25 37.75,130.5 56.25,141.5z"></path></g><g opacity="1" transform="matrix(1,0,0,1,0,0)"><g opacity="1" transform="matrix(1,0,0,1,0,0)"><path fill="url(#__lottie_element_86)" fill-opacity="1" d=" M117.5,135.75 C81.29199981689453,124.96499633789062 39.25,117 10.506999969482422,122.57499694824219 C2.25,153 1.75,168.75 -11.251999855041504,122.41000366210938 C-35,113.25 -72.6500015258789,120.8030014038086 -110.5,136.25 C-45.5,153.5 -7.25,200.25 0.25,201.25 C9,201.25 57,143 117.5,135.75z"></path></g><g opacity="1" transform="matrix(1,0,0,1,0,0)"><path fill="url(#__lottie_element_87)" fill-opacity="1" d=" M108.25,133.875 C53.375,145.25 8.625,191.875 2,196.56300354003906 C3.125,137.875 -1.8639999628067017,148.31399536132812 -1.8969999551773071,149.5260009765625 C-2.25,162.625 -1.184000015258789,196.50599670410156 -1.50600004196167,196.38299560546875 C-12.375,189.25 -43.51900100708008,153.67999267578125 -104.25,132.5 C-103.75,133.25 -113,135.5 -113,136 C-49.75,152.25 -7.515999794006348,201 0.5,201 C9.5,201 55,146.75 114.5,137.75 C114.5,137 108.25,134.125 108.25,133.875z"></path></g></g></g><g opacity="1" transform="matrix(1,0,0,1,0,0)"><g opacity="1" transform="matrix(1,0,0,1,0,0)"><path fill="url(#__lottie_element_88)" fill-opacity="1" d=" M-55.25,98 C-55.25,116 -60.25,120.25 -66.5,122 C-67,122 -45.025001525878906,152.86599731445312 -0.25,152.43800354003906 C45.5,152 66.43800354003906,122.25 66.43800354003906,121.75 C61.1879997253418,119.25 54.625,114.75 54.625,97.75 C39.75,118.25 16,110 8.25,124.125 C3.828000068664551,132.1840057373047 5.75,148.25 -0.75,156 C-5.25,146 -5.453000068664551,130.36099243164062 -9.375,123.81300354003906 C-16.375,112.125 -38.25,117.75 -55.25,98z"></path></g><g opacity="1" transform="matrix(1,0,0,1,0,0)"><path fill="url(#__lottie_element_89)" fill-opacity="1" d=" M-28.625,119.375 C-26.75,127.625 -30.75,147.31199645996094 -30.83799934387207,147.4029998779297 C-15.875,153 9.625,154.875 28.5,147.5 C28.5,147.5 27.75,129.125 29.25,119.75 C29.44099998474121,118.55500030517578 10.625,117.625 0.375,149.20899963378906 C-10.75,118.875 -28.913000106811523,118.10700225830078 -28.625,119.375z"></path></g><g opacity="1" transform="matrix(1,0,0,1,0,0)"><path fill="url(#__lottie_element_90)" fill-opacity="1" d=" M54.5,97.75 C37.75,119 14.151000022888184,114.0790023803711 8.625,123.75 C6.625,127.25 5.5,144.75 -1,155.25 C-3.4159998893737793,159.15199279785156 -4.545000076293945,130.02000427246094 -9.5,123.5 C-16.625,114.125 -42,116 -54.75,98.5 C-55,98.25 -55.5629997253418,109.25 -56.0629997253418,109.25 C-48.5629997253418,121.75 -22.75,121.68800354003906 -17.75,129.81300354003906 C-13.760000228881836,136.29600524902344 -15.75,158.25 -0.5,158.75 C15.772000312805176,159.28399658203125 14.097000122070312,135.69700622558594 17.75,129.625 C22.375,121.93699645996094 38.75,126 56.5,111.75 C57.90599822998047,110.62100219726562 54.75,98 54.5,97.75z"></path></g></g><g opacity="0.35000000000000003" transform="matrix(1,0,0,1,0,0)"><g opacity="1" transform="matrix(1,0,0,1,0,0)"><path fill="url(#__lottie_element_91)" fill-opacity="1" d=" M54.625,99.375 C54.625,99.625 48.125,103.875 48.5,104 C45.125,129.25 79.25,135.5 99.88500213623047,139.18600463867188 C104.37899780273438,139.98899841308594 105.84300231933594,145.1510009765625 106.75,145.375 C140.125,153.625 135.25,174.375 139.625,177.125 C146.08799743652344,181.18800354003906 140.375,191.875 145.75,220.25 C145.84300231933594,220.74099731445312 155.875,217.5 155.5,211.5 C153.38900756835938,177.72300720214844 151.52099609375,176.1009979248047 146.25,171.375 C142.625,168.125 142.718994140625,150.13699340820312 112.375,136.75 C99.625,131.125 52.5,124.125 54.625,99.375z"></path></g><g opacity="1" transform="matrix(1,0,0,1,0,0)"><path fill="url(#__lottie_element_92)" fill-opacity="1" d=" M-54.875,101.75 C-59.875,124.875 -90.875,128.375 -108.875,134.375 C-140.05599975585938,144.7689971923828 -143.25,172 -146.25,172.625 C-155.46600341796875,174.5449981689453 -151.62100219726562,191.5970001220703 -155.625,209.875 C-157.06300354003906,216.43800354003906 -149.25,220 -149.25,219.875 C-139.375,197.75 -145.2010040283203,180.78399658203125 -142,180.25 C-134.5,179 -138.375,152 -104.375,142.875 C-100.4739990234375,141.8280029296875 -103,138.75 -100.13200378417969,137.99000549316406 C-84.24099731445312,133.7779998779297 -48.625,131.125 -49.25,105.875 C-49.29600143432617,104.0009994506836 -54.34400177001953,99.29399871826172 -54.875,101.75z"></path></g></g><g opacity="1" transform="matrix(1,0,0,1,0,0)"><g opacity="1" transform="matrix(1,0,0,1,0,0)"><path stroke-linecap="round" stroke-linejoin="round" fill-opacity="0" stroke="rgb(32,75,40)" stroke-opacity="1" stroke-width="8" d=" M-154.875,210.875 C-148.625,184.75 -156.375,176.875 -146.125,172.25 C-145.09300231933594,171.78399658203125 -140.5,142.875 -110.375,135.75"></path></g><g opacity="1" transform="matrix(1,0,0,1,0,0)"><path stroke-linecap="round" stroke-linejoin="round" fill-opacity="0" stroke="rgb(32,75,40)" stroke-opacity="1" stroke-width="8" d=" M153.875,210.875 C149.125,183.875 157.25,178.5 146.75,172.25 C146.75,172.125 142.5,144.125 113,138"></path></g><g opacity="1" transform="matrix(1,0,0,1,0,0)"><path stroke-linecap="round" stroke-linejoin="miter" fill-opacity="0" stroke-miterlimit="4" stroke="rgb(21,57,29)" stroke-opacity="1" stroke-width="8" d=" M54.375,98.375 C53.25,132.75 113.56300354003906,126.31199645996094 112.625,137.875"></path></g><g opacity="1" transform="matrix(1,0,0,1,0,0)"><path stroke-linecap="round" stroke-linejoin="miter" fill-opacity="0" stroke-miterlimit="4" stroke="rgb(21,57,29)" stroke-opacity="1" stroke-width="8" d=" M-55.125,99 C-53.5,131 -110.5,124.75 -109.75,135.5"></path></g><g opacity="1" transform="matrix(1,0,0,1,0,0)"><path stroke-linecap="round" stroke-linejoin="round" fill-opacity="0" stroke="rgb(132,100,17)" stroke-opacity="1" stroke-width="8" d=" M-55.25,97.75 C-42.5,119.25 -24,107 -9.5,123.5 C-4.679999828338623,128.98500061035156 -3.2950000762939453,155.75 -0.5,155.75 C4.25,155.75 3.625,130.3159942626953 9,123.25 C20.125,108.625 45.75,116.75 54.25,98"></path></g></g><g opacity="1" transform="matrix(1,0,0,1,-0.5,0)"><g opacity="0.3" transform="matrix(1,0,0,1,0,0)"><path fill="rgb(25,68,48)" fill-opacity="1" d=" M-14.812999725341797,157.25 C-19.500999450683594,183.875 21.875,182.125 15.875,157 C11.965999603271484,140.6320037841797 -12.16100025177002,142.18499755859375 -14.812999725341797,157.25z"></path></g><g opacity="0.3" transform="matrix(1,0,0,1,0,0)"><path fill="rgb(25,68,48)" fill-opacity="1" d=" M-15.75,200.5 C-18.875,226.125 20.75,225.5 16.625,199.625 C13.967000007629395,182.9510040283203 -13.468999862670898,181.79299926757812 -15.75,200.5z"></path></g><g opacity="1" transform="matrix(1,0,0,1,0.31299999356269836,200.96600341796875)"><path fill="url(#__lottie_element_93)" fill-opacity="1" d=" M0,-11.9375 C6.519318580627441,-11.9375 11.8125,-6.588306427001953 11.8125,0 C11.8125,6.588306427001953 6.519318580627441,11.9375 0,11.9375 C-6.519318580627441,11.9375 -11.8125,6.588306427001953 -11.8125,0 C-11.8125,-6.588306427001953 -6.519318580627441,-11.9375 0,-11.9375z"></path><path stroke-linecap="butt" stroke-linejoin="miter" fill-opacity="0" stroke-miterlimit="4" stroke="rgb(233,233,121)" stroke-opacity="1" stroke-width="5" d=" M0,-11.9375 C6.519318580627441,-11.9375 11.8125,-6.588306427001953 11.8125,0 C11.8125,6.588306427001953 6.519318580627441,11.9375 0,11.9375 C-6.519318580627441,11.9375 -11.8125,6.588306427001953 -11.8125,0 C-11.8125,-6.588306427001953 -6.519318580627441,-11.9375 0,-11.9375z"></path></g><g opacity="1" transform="matrix(1,0,0,1,0.375,158.125)"><path fill="url(#__lottie_element_94)" fill-opacity="1" d=" M0,-11.625 C6.415837287902832,-11.625 11.625,-6.415837287902832 11.625,0 C11.625,6.415837287902832 6.415837287902832,11.625 0,11.625 C-6.415837287902832,11.625 -11.625,6.415837287902832 -11.625,0 C-11.625,-6.415837287902832 -6.415837287902832,-11.625 0,-11.625z"></path><path stroke-linecap="butt" stroke-linejoin="miter" fill-opacity="0" stroke-miterlimit="4" stroke="rgb(203,203,95)" stroke-opacity="1" stroke-width="5" d=" M0,-11.625 C6.415837287902832,-11.625 11.625,-6.415837287902832 11.625,0 C11.625,6.415837287902832 6.415837287902832,11.625 0,11.625 C-6.415837287902832,11.625 -11.625,6.415837287902832 -11.625,0 C-11.625,-6.415837287902832 -6.415837287902832,-11.625 0,-11.625z"></path></g><g opacity="0.7000000000000001" transform="matrix(1.2300000190734863,0,0,1.2300000190734863,0,-44)"><path fill="rgb(255,255,255)" fill-opacity="1" d=" M2.4690001010894775,195.125 C1.149999976158142,192.1719970703125 -3.759999990463257,194.20700073242188 -2.1710000038146973,196.86599731445312 C-0.7200000286102295,199.29400634765625 3.556999921798706,197.56100463867188 2.4690001010894775,195.125z"></path></g><g opacity="0.7000000000000001" transform="matrix(1,0,0,1,0,0)"><path fill="rgb(255,255,255)" fill-opacity="1" d=" M3.25,153.75 C2.9779999256134033,150.08200073242188 -3.625,150.875 -3.25,154.625 C-2.875,158.375 3.5,157.125 3.25,153.75z"></path></g><g opacity="0.7000000000000001" transform="matrix(1,0,0,1,0,0)"><path stroke-linecap="round" stroke-linejoin="miter" fill-opacity="0" stroke-miterlimit="4" stroke="rgb(132,100,18)" stroke-opacity="1" stroke-width="5.5" d=" M-11.375,159.125 C-12.125,151.25 -5.375,146.5 -0.25,146.5 C8.763999938964844,146.5 12.25,152.875 12,159.25"></path></g></g></g><g style="display: block;" transform="matrix(0.7149999737739563,0,0,0.7149999737739563,256.50048828125,215.4995574951172)" opacity="1"><g opacity="1" transform="matrix(1,0,0,1,0,0)"><path fill="rgb(192,167,90)" fill-opacity="1" d=" M145.08700561523438,91.0250015258789 C145.08700561523438,91.0250015258789 142.13400268554688,120.36699676513672 150.35299682617188,143.08599853515625 C150.35299682617188,143.08599853515625 141.5019989013672,143.11000061035156 131.38600158691406,137.89300537109375 C131.38600158691406,137.89300537109375 131.17599487304688,147.4949951171875 134.968994140625,155.63400268554688 C134.968994140625,155.63400268554688 124.2959976196289,154.08099365234375 118.31999969482422,148.3300018310547 C118.31999969482422,148.3300018310547 116.56300354003906,154.72500610351562 117.05599975585938,161.97900390625 C117.05599975585938,161.97900390625 110.31800079345703,160.96200561523438 99.56999969482422,147.3419952392578 C88.8219985961914,133.7220001220703 115.79399871826172,87.97699737548828 145.08700561523438,91.0250015258789z"></path><path stroke-linecap="round" stroke-linejoin="round" fill-opacity="0" stroke="rgb(153,119,60)" stroke-opacity="1" stroke-width="10" d=" M145.08700561523438,91.0250015258789 C145.08700561523438,91.0250015258789 142.13400268554688,120.36699676513672 150.35299682617188,143.08599853515625 C150.35299682617188,143.08599853515625 141.5019989013672,143.11000061035156 131.38600158691406,137.89300537109375 C131.38600158691406,137.89300537109375 131.17599487304688,147.4949951171875 134.968994140625,155.63400268554688 C134.968994140625,155.63400268554688 124.2959976196289,154.08099365234375 118.31999969482422,148.3300018310547 C118.31999969482422,148.3300018310547 116.56300354003906,154.72500610351562 117.05599975585938,161.97900390625 C117.05599975585938,161.97900390625 110.31800079345703,160.96200561523438 99.56999969482422,147.3419952392578 C88.8219985961914,133.7220001220703 115.79399871826172,87.97699737548828 145.08700561523438,91.0250015258789z"></path></g><g opacity="1" transform="matrix(1,0,0,1,0,0)"><path fill="rgb(192,167,90)" fill-opacity="1" d=" M-150.34800720214844,95.72799682617188 C-150.34800720214844,95.72799682617188 -147.31900024414062,118.20800018310547 -157.30999755859375,141.61700439453125 C-157.30999755859375,141.61700439453125 -149.8699951171875,139.94200134277344 -140.37100219726562,137.8520050048828 C-140.37100219726562,137.8520050048828 -142.48199462890625,147.38800048828125 -144.59300231933594,152.6540069580078 C-144.59300231933594,152.6540069580078 -133.8769989013672,152.84500122070312 -126.43800354003906,148.59800720214844 C-126.43800354003906,148.59800720214844 -125.69400024414062,153.90899658203125 -126.43800354003906,161.05499267578125 C-126.43800354003906,161.05499267578125 -112.4020004272461,156.9429931640625 -102.63899993896484,141.83099365234375 C-92.8759994506836,126.72000122070312 -126.5510025024414,83.38999938964844 -150.34800720214844,95.72799682617188z"></path><path stroke-linecap="round" stroke-linejoin="round" fill-opacity="0" stroke="rgb(153,119,60)" stroke-opacity="1" stroke-width="10" d=" M-150.34800720214844,95.72799682617188 C-150.34800720214844,95.72799682617188 -147.31900024414062,118.20800018310547 -157.30999755859375,141.61700439453125 C-157.30999755859375,141.61700439453125 -149.8699951171875,139.94200134277344 -140.37100219726562,137.8520050048828 C-140.37100219726562,137.8520050048828 -142.48199462890625,147.38800048828125 -144.59300231933594,152.6540069580078 C-144.59300231933594,152.6540069580078 -133.8769989013672,152.84500122070312 -126.43800354003906,148.59800720214844 C-126.43800354003906,148.59800720214844 -125.69400024414062,153.90899658203125 -126.43800354003906,161.05499267578125 C-126.43800354003906,161.05499267578125 -112.4020004272461,156.9429931640625 -102.63899993896484,141.83099365234375 C-92.8759994506836,126.72000122070312 -126.5510025024414,83.38999938964844 -150.34800720214844,95.72799682617188z"></path></g></g><g style="display: block;" transform="matrix(0.9936000108718872,0,0,0.9936000108718872,258.8447265625,262.1151428222656)" opacity="1"><g opacity="1" transform="matrix(1,0,0,1,0,0)"><path fill="url(#__lottie_element_63)" fill-opacity="1" d=" M-149.7530059814453,-45.55500030517578 C-157.2949981689453,-46.172000885009766 -142.75799560546875,7.935999870300293 -102.61100006103516,22.40999984741211 C-92.53299713134766,26.042999267578125 -86.39800262451172,-40.37300109863281 -149.7530059814453,-45.55500030517578z"></path><path stroke-linecap="round" stroke-linejoin="round" fill-opacity="0" stroke="rgb(219,110,0)" stroke-opacity="1" stroke-width="7.5" d=" M-149.7530059814453,-45.55500030517578 C-157.2949981689453,-46.172000885009766 -142.75799560546875,7.935999870300293 -102.61100006103516,22.40999984741211 C-92.53299713134766,26.042999267578125 -86.39800262451172,-40.37300109863281 -149.7530059814453,-45.55500030517578z"></path></g><g opacity="1" transform="matrix(1,0,0,1,0,0)"><path fill="url(#__lottie_element_64)" fill-opacity="1" d=" M142.78700256347656,-45.55500030517578 C150.34100341796875,-46.00199890136719 133.0070037841797,12.968000411987305 95.6449966430664,22.40999984741211 C85.25900268554688,25.03499984741211 80.6719970703125,-41.882999420166016 142.78700256347656,-45.55500030517578z"></path><path stroke-linecap="round" stroke-linejoin="round" fill-opacity="0" stroke="rgb(219,110,0)" stroke-opacity="1" stroke-width="7.5" d=" M142.78700256347656,-45.55500030517578 C150.34100341796875,-46.00199890136719 133.0070037841797,12.968000411987305 95.6449966430664,22.40999984741211 C85.25900268554688,25.03499984741211 80.6719970703125,-41.882999420166016 142.78700256347656,-45.55500030517578z"></path></g></g><g style="display: block;" transform="matrix(0.9936000108718872,0,0,0.9936000108718872,258.84466552734375,262.1156921386719)" opacity="1"><g opacity="1" transform="matrix(1,0,0,1,0,0)"><g opacity="1" transform="matrix(1,0,0,1,0,0)"><path fill="rgb(255,168,0)" fill-opacity="1" d=" M78.625,-120.15599822998047 C59.16999816894531,-146.30099487304688 34.68299865722656,-162.2480010986328 -2.86299991607666,-162.2480010986328 C-40.409000396728516,-162.2480010986328 -64.27999877929688,-145.8260040283203 -84.3499984741211,-120.15599822998047 C-107.70800018310547,-90.28199768066406 -120.0199966430664,-12 -95.25700378417969,39.95100021362305 C-70.49500274658203,91.9010009765625 -27.763999938964844,106.52999877929688 -2.86299991607666,106.52999877929688 C22.038000106811523,106.52999877929688 64.76799774169922,91.9010009765625 89.53099822998047,39.95100021362305 C114.29299926757812,-12 101.98200225830078,-88.76599884033203 78.625,-120.15599822998047z"></path></g><g opacity="1" transform="matrix(1,0,0,1,0,0)"><path fill="url(#__lottie_element_58)" fill-opacity="1" d=" M78.625,-120.15599822998047 C59.16999816894531,-146.30099487304688 34.68299865722656,-162.2480010986328 -2.86299991607666,-162.2480010986328 C-40.409000396728516,-162.2480010986328 -64.27999877929688,-145.8260040283203 -84.3499984741211,-120.15599822998047 C-107.70800018310547,-90.28199768066406 -120.0199966430664,-12 -95.25700378417969,39.95100021362305 C-70.49500274658203,91.9010009765625 -27.763999938964844,106.52999877929688 -2.86299991607666,106.52999877929688 C22.038000106811523,106.52999877929688 64.76799774169922,91.9010009765625 89.53099822998047,39.95100021362305 C114.29299926757812,-12 101.98200225830078,-88.76599884033203 78.625,-120.15599822998047z"></path></g><g opacity="1" transform="matrix(1,0,0,1,0,0)"><path stroke-linecap="round" stroke-linejoin="round" fill-opacity="0" stroke="rgb(219,110,0)" stroke-opacity="1" stroke-width="7.5" d=" M78.625,-120.15599822998047 C59.16999816894531,-146.30099487304688 34.68299865722656,-162.2480010986328 -2.86299991607666,-162.2480010986328 C-40.409000396728516,-162.2480010986328 -64.27999877929688,-145.8260040283203 -84.3499984741211,-120.15599822998047 C-107.70800018310547,-90.28199768066406 -120.0199966430664,-12 -95.25700378417969,39.95100021362305 C-70.49500274658203,91.9010009765625 -27.763999938964844,106.52999877929688 -2.86299991607666,106.52999877929688 C22.038000106811523,106.52999877929688 64.76799774169922,91.9010009765625 89.53099822998047,39.95100021362305 C114.29299926757812,-12 101.98200225830078,-88.76599884033203 78.625,-120.15599822998047z"></path></g><g opacity="1" transform="matrix(1,0,0,1,0,0)"><path fill="url(#__lottie_element_59)" fill-opacity="1" d=" M-4.521999835968018,88.47899627685547 C-51.422000885009766,87.39800262451172 -103.27300262451172,39.30400085449219 -94.8290023803711,-44.01499938964844 C-94.8290023803711,-44.01499938964844 -86.5770034790039,-53.555999755859375 -81.947998046875,-65.54100036621094 C-81.947998046875,-65.54100036621094 -70.81300354003906,-58.61800003051758 -71.9990005493164,-76.93299865722656 C-71.9990005493164,-76.93299865722656 -61.8129997253418,-70.16500091552734 -63.59600067138672,-79.29100036621094 C-64.37100219726562,-83.25599670410156 -68.55699920654297,-94.75599670410156 -66.70099639892578,-108.74600219726562 C-66.70099639892578,-108.74600219726562 -45.74599838256836,-83.92900085449219 -4.656000137329102,-80.78600311279297 C32.57899856567383,-77.93800354003906 41.22999954223633,-74.98400115966797 51.75699996948242,-63.499000549316406 C54.74800109863281,-60.236000061035156 58.77899932861328,-58.21799850463867 60.29399871826172,-64.2020034790039 C60.29399871826172,-64.2020034790039 72.43299865722656,-46.83000183105469 74.81500244140625,-54.48899841308594 C74.81500244140625,-54.48899841308594 85.63500213623047,-40.474998474121094 88.3030014038086,-29.18199920654297 C92.02300262451172,-13.435999870300293 86.96600341796875,15.015999794006348 73.83999633789062,38.79899978637695 C57.459999084472656,68.47899627685547 29.552000045776367,89.26399993896484 -4.521999835968018,88.47899627685547z"></path></g></g></g><g style="display: block;" transform="matrix(0.9936000108718872,0,0,0.9936000108718872,258.5367431640625,257.8519287109375)" opacity="1"><g opacity="1" transform="matrix(1,0,0,1,0,0)"><path fill="url(#__lottie_element_51)" fill-opacity="1" d=" M12.954999923706055,31.781999588012695 C12.954999923706055,38.553001403808594 5.238999843597412,44.573001861572266 -3.1630001068115234,44.573001861572266 C-11.5649995803833,44.573001861572266 -19.2810001373291,38.553001403808594 -19.2810001373291,31.781999588012695 C-19.2810001373291,25.01099967956543 -11.5649995803833,18.80299949645996 -3.1630001068115234,18.80299949645996 C5.238999843597412,18.80299949645996 12.954999923706055,25.01099967956543 12.954999923706055,31.781999588012695z"></path></g><g opacity="1" transform="matrix(1,0,0,1,0,0)"><path fill="rgb(255,168,0)" fill-opacity="0.8" d=" M12.954999923706055,27.375 C12.954999923706055,33.86199951171875 5.738999843597412,39.12099838256836 -3.1630001068115234,39.12099838256836 C-12.0649995803833,39.12099838256836 -19.2810001373291,33.86199951171875 -19.2810001373291,27.375 C-19.2810001373291,20.88800048828125 -12.0649995803833,15.906000137329102 -3.1630001068115234,15.906000137329102 C5.738999843597412,15.906000137329102 12.954999923706055,20.88800048828125 12.954999923706055,27.375z"></path></g><g opacity="1" transform="matrix(1,0,0,1,0,0)"><path fill="url(#__lottie_element_52)" fill-opacity="0.7000000000000001" d=" M12.954999923706055,27.375 C12.954999923706055,33.86199951171875 5.738999843597412,39.12099838256836 -3.1630001068115234,39.12099838256836 C-12.0649995803833,39.12099838256836 -19.2810001373291,33.86199951171875 -19.2810001373291,27.375 C-19.2810001373291,20.88800048828125 -12.0649995803833,15.906000137329102 -3.1630001068115234,15.906000137329102 C5.738999843597412,15.906000137329102 12.954999923706055,20.88800048828125 12.954999923706055,27.375z"></path></g><g opacity="1" transform="matrix(1,0,0,1,0,0)"><path fill="rgb(255,216,0)" fill-opacity="1" d=" M10.779999732971191,23.667999267578125 C10.779999732971191,28.496999740600586 4.538000106811523,32.4119987487793 -3.1630001068115234,32.4119987487793 C-10.86400032043457,32.4119987487793 -17.106000900268555,28.496999740600586 -17.106000900268555,23.667999267578125 C-17.106000900268555,18.839000701904297 -10.86400032043457,15.715999603271484 -3.1630001068115234,15.715999603271484 C4.538000106811523,15.715999603271484 10.779999732971191,18.839000701904297 10.779999732971191,23.667999267578125z"></path></g><g opacity="1" transform="matrix(1,0,0,1,0,0)"><path fill="url(#__lottie_element_53)" fill-opacity="1" d=" M10.779999732971191,23.667999267578125 C10.779999732971191,28.496999740600586 4.538000106811523,32.4119987487793 -3.1630001068115234,32.4119987487793 C-10.86400032043457,32.4119987487793 -17.106000900268555,28.496999740600586 -17.106000900268555,23.667999267578125 C-17.106000900268555,18.839000701904297 -10.86400032043457,15.715999603271484 -3.1630001068115234,15.715999603271484 C4.538000106811523,15.715999603271484 10.779999732971191,18.839000701904297 10.779999732971191,23.667999267578125z"></path></g><g opacity="1" transform="matrix(1,0,0,1,0,0)"><path fill="url(#__lottie_element_54)" fill-opacity="0.7000000000000001" d=" M4.019999980926514,20.160999298095703 C4.019999980926514,22.746000289916992 0.8040000200271606,25.17799949645996 -3.1630001068115234,25.17799949645996 C-7.13100004196167,25.17799949645996 -10.347000122070312,22.746000289916992 -10.347000122070312,20.160999298095703 C-10.347000122070312,17.575000762939453 -7.13100004196167,16.277999877929688 -3.1630001068115234,16.277999877929688 C0.8040000200271606,16.277999877929688 4.019999980926514,17.575000762939453 4.019999980926514,20.160999298095703z"></path></g></g><g style="display: block;" transform="matrix(0.7149999737739563,0,0,0.7149999737739563,256.4995422363281,215.49977111816406)" opacity="1"><g opacity="1" transform="matrix(1,0,0,1,0,0)"><path fill="rgb(237,229,202)" fill-opacity="1" d=" M-98.23699951171875,-126.00599670410156 C-98.23699951171875,-126.00599670410156 -81.41300201416016,-79.05400085449219 -16.545000076293945,-67.26399993896484 C24.759000778198242,-59.75699996948242 63.527000427246094,-62.87200164794922 79.08999633789062,-42.12200164794922 C79.08999633789062,-42.12200164794922 78.30000305175781,-53.132999420166016 76.56199645996094,-68.27899932861328 C76.56199645996094,-68.27899932861328 105.29000091552734,-30.68000030517578 105.29000091552734,-30.68000030517578 C105.29000091552734,-30.68000030517578 111.68299865722656,-40.20899963378906 107.83000183105469,-56.2760009765625 C107.83000183105469,-56.2760009765625 150.35299682617188,9.982000350952148 145.44700622558594,47.83599853515625 C145.44700622558594,47.83599853515625 154.79800415039062,22.4060001373291 156.1269989013672,15.050999641418457 C179.4810028076172,22.4060001373291 184.58799743652344,-80.63700103759766 161.95399475097656,-122.78800201416016 C152.04800415039062,-141.23699951171875 123.56199645996094,-182.38499450683594 49.99100112915039,-201.92300415039062 C-19.350000381469727,-220.33799743652344 -96.10099792480469,-205.9759979248047 -111.15499877929688,-162.22500610351562 C-189.31700134277344,-162.22500610351562 -183.9320068359375,-3.6010000705718994 -163.33399963378906,14.157999992370605 C-163.33399963378906,14.157999992370605 -158.11099243164062,21.29199981689453 -153.17799377441406,35.15800094604492 C-153.17799377441406,35.15800094604492 -149.99000549316406,21.2810001373291 -150.04100036621094,1.3509999513626099 C-150.04100036621094,1.3509999513626099 -125.39700317382812,-28.423999786376953 -122.88200378417969,-50.48099899291992 C-122.88200378417969,-50.48099899291992 -116.322998046875,-41.119998931884766 -107.48100280761719,-37.242000579833984 C-107.48100280761719,-37.242000579833984 -107.64099884033203,-48.18899917602539 -105.19400024414062,-65.33000183105469 C-105.19400024414062,-65.33000183105469 -101.53399658203125,-57.17499923706055 -91.01100158691406,-53.097999572753906 C-91.01100158691406,-53.097999572753906 -94.63700103759766,-105.49199676513672 -98.23699951171875,-126.00599670410156z"></path></g><g opacity="1" transform="matrix(1,0,0,1,0,0)"><path fill="url(#__lottie_element_44)" fill-opacity="1" d=" M-98.23699951171875,-126.00599670410156 C-98.23699951171875,-126.00599670410156 -81.41300201416016,-79.05400085449219 -16.545000076293945,-67.26399993896484 C24.759000778198242,-59.75699996948242 63.527000427246094,-62.87200164794922 79.08999633789062,-42.12200164794922 C79.08999633789062,-42.12200164794922 78.30000305175781,-53.132999420166016 76.56199645996094,-68.27899932861328 C76.56199645996094,-68.27899932861328 105.29000091552734,-30.68000030517578 105.29000091552734,-30.68000030517578 C105.29000091552734,-30.68000030517578 111.68299865722656,-40.20899963378906 107.83000183105469,-56.2760009765625 C107.83000183105469,-56.2760009765625 150.35299682617188,9.982000350952148 145.44700622558594,47.83599853515625 C145.44700622558594,47.83599853515625 154.79800415039062,22.4060001373291 156.1269989013672,15.050999641418457 C179.4810028076172,22.4060001373291 184.58799743652344,-80.63700103759766 161.95399475097656,-122.78800201416016 C152.04800415039062,-141.23699951171875 123.56199645996094,-182.38499450683594 49.99100112915039,-201.92300415039062 C-19.350000381469727,-220.33799743652344 -96.10099792480469,-205.9759979248047 -111.15499877929688,-162.22500610351562 C-189.31700134277344,-162.22500610351562 -183.9320068359375,-3.6010000705718994 -163.33399963378906,14.157999992370605 C-163.33399963378906,14.157999992370605 -158.11099243164062,21.29199981689453 -153.17799377441406,35.15800094604492 C-153.17799377441406,35.15800094604492 -149.99000549316406,21.2810001373291 -150.04100036621094,1.3509999513626099 C-150.04100036621094,1.3509999513626099 -125.39700317382812,-28.423999786376953 -122.88200378417969,-50.48099899291992 C-122.88200378417969,-50.48099899291992 -116.322998046875,-41.119998931884766 -107.48100280761719,-37.242000579833984 C-107.48100280761719,-37.242000579833984 -107.64099884033203,-48.18899917602539 -105.19400024414062,-65.33000183105469 C-105.19400024414062,-65.33000183105469 -101.53399658203125,-57.17499923706055 -91.01100158691406,-53.097999572753906 C-91.01100158691406,-53.097999572753906 -94.63700103759766,-105.49199676513672 -98.23699951171875,-126.00599670410156z"></path></g><g opacity="1" transform="matrix(1,0,0,1,0,0)"><path fill="url(#__lottie_element_45)" fill-opacity="1" d=" M161.75900268554688,-112.69200134277344 C181.9669952392578,-54.540000915527344 164.53900146484375,-3.38700008392334 150.41900634765625,-11.41100025177002 C143.5240020751953,-15.329999923706055 126.52300262451172,-48.944000244140625 107.68900299072266,-59.6870002746582 C107.68900299072266,-59.6870002746582 114.98300170898438,-37.37099838256836 102.21499633789062,-55.35599899291992 C85.88500213623047,-83.13099670410156 58.09000015258789,-90.197998046875 58.09000015258789,-90.197998046875 C62.47700119018555,-79.23899841308594 63.52199935913086,-65.91600036621094 63.52199935913086,-65.91600036621094 C63.52199935913086,-65.91600036621094 63.529998779296875,-65.90599822998047 63.529998779296875,-65.90599822998047 C48.62799835205078,-74.87200164794922 21.954999923706055,-76.6760025024414 -11.73799991607666,-83.58000183105469 C-72.63099670410156,-96.05799865722656 -109.8219985961914,-149.17999267578125 -84.13700103759766,-178.29299926757812 C-50.4109992980957,-216.52000427246094 33.858001708984375,-205.66299438476562 89.0469970703125,-183.05499267578125 C3.190000057220459,-236.39300537109375 -104.7969970703125,-202.03399658203125 -111.15899658203125,-162.22500610351562 C-143.86700439453125,-158.84300231933594 -159.12899780273438,-134.02000427246094 -167.07200622558594,-100.2030029296875 C-151.72999572753906,-145.92300415039062 -125.56300354003906,-159.1959991455078 -116.84600067138672,-147.78500366210938 C-107.17500305175781,-135.125 -105.4749984741211,-69.65599822998047 -115.59300231933594,-84.18099975585938 C-115.19599914550781,-80.63700103759766 -115.36900329589844,-72.06300354003906 -118.08699798583984,-65.21099853515625 C-120.64900207519531,-58.75199890136719 -131.36900329589844,-78.2509994506836 -131.36900329589844,-78.2509994506836 C-139.8040008544922,-20.295000076293945 -163.98199462890625,-22.226999282836914 -165.88299560546875,7.5229997634887695 C-165.88299560546875,7.5229997634887695 -158.11599731445312,21.297000885009766 -153.17300415039062,35.152000427246094 C-153.17300415039062,35.152000427246094 -149.99099731445312,21.284000396728516 -150.04200744628906,1.3539999723434448 C-150.04200744628906,1.3539999723434448 -125.39299774169922,-28.427000045776367 -122.88300323486328,-50.47800064086914 C-122.88300323486328,-50.47800064086914 -116.31800079345703,-41.11600112915039 -107.48400115966797,-37.237998962402344 C-107.48400115966797,-37.237998962402344 -107.63600158691406,-48.194000244140625 -105.19000244140625,-65.32499694824219 C-105.19000244140625,-65.32499694824219 -101.54000091552734,-57.18000030517578 -91.00800323486328,-53.10100173950195 C-91.00800323486328,-53.10100173950195 -94.63200378417969,-105.48500061035156 -98.21900177001953,-125.96700286865234 C-97.6989974975586,-124.54900360107422 -80.24099731445312,-79.70899963378906 -16.548999786376953,-67.25800323486328 C70.01000213623047,-50.33599853515625 85.552001953125,-56.512001037597656 100.11599731445312,-35.858001708984375 C100.11599731445312,-35.86000061035156 100.11599731445312,-35.86199951171875 100.11599731445312,-35.86399841308594 C102.79199981689453,-33.229000091552734 108.08799743652344,-42.058998107910156 115.06700134277344,-33.73099899291992 C136.0279998779297,-8.720999717712402 143.2550048828125,32.03900146484375 145.447998046875,47.84000015258789 C145.447998046875,47.84000015258789 154.1649932861328,22.405000686645508 156.1320037841797,15.045999526977539 C186.84500122070312,3.5840001106262207 184.41400146484375,-87.53399658203125 161.75900268554688,-112.69200134277344z"></path></g><g opacity="1" transform="matrix(1,0,0,1,0,0)"><path fill="url(#__lottie_element_46)" fill-opacity="0.9" d=" M3.190000057220459,-85.29900360107422 C-50.20000076293945,-89.71800231933594 -69.24800109863281,-107.30599975585938 -86.28099822998047,-134.58999633789062 C-94.47200012207031,-147.7100067138672 -96.89099884033203,-161.61900329589844 -94.9209976196289,-165.24000549316406 C-82.6780014038086,-187.7469940185547 -33.10499954223633,-203.29800415039062 23.801000595092773,-195.4669952392578 C60.832000732421875,-190.37100219726562 96.43099975585938,-174.76199340820312 128.05299377441406,-143.8990020751953 C185.093994140625,-83.04900360107422 92.4010009765625,-77.91500091552734 3.190000057220459,-85.29900360107422z"></path></g><g opacity="1" transform="matrix(1,0,0,1,0,0)"><path fill="url(#__lottie_element_47)" fill-opacity="0.9" d=" M-118.47799682617188,-148.83799743652344 C-137.1179962158203,-148.91299438476562 -163.4149932861328,-113.22799682617188 -163.8000030517578,-85.29900360107422 C-164.21600341796875,-55.13199996948242 -143.27499389648438,-92.93499755859375 -131.36900329589844,-93.80699920654297 C-118.81400299072266,-94.72699737548828 -112.5979995727539,-109.16100311279297 -111.76499938964844,-122.82599639892578 C-111.05000305175781,-134.5570068359375 -115.79199981689453,-148.82699584960938 -118.47799682617188,-148.83799743652344z"></path></g><g opacity="1" transform="matrix(1,0,0,1,0,0)"><path stroke-linecap="round" stroke-linejoin="round" fill-opacity="0" stroke="rgb(186,167,128)" stroke-opacity="1" stroke-width="10" d=" M-98.23699951171875,-126.00599670410156 C-98.23699951171875,-126.00599670410156 -81.41300201416016,-79.05400085449219 -16.545000076293945,-67.26399993896484 C24.759000778198242,-59.75699996948242 63.527000427246094,-62.87200164794922 79.08999633789062,-42.12200164794922 C79.08999633789062,-42.12200164794922 82.33399963378906,-51.25 76.56199645996094,-68.27899932861328 C76.56199645996094,-68.27899932861328 105.29000091552734,-30.68000030517578 105.29000091552734,-30.68000030517578 C105.29000091552734,-30.68000030517578 111.68299865722656,-40.20899963378906 107.83000183105469,-56.2760009765625 C125.7229995727539,-10.390999794006348 140.32400512695312,-13.885000228881836 145.44700622558594,47.83599853515625 C145.44700622558594,47.83599853515625 152.06199645996094,40.75 156.1269989013672,15.050999641418457 C156.1269989013672,15.050999641418457 171.49000549316406,25.552000045776367 175.22799682617188,-23.73900032043457 C183.0260009765625,-126.5530014038086 123.56099700927734,-182.38499450683594 49.99100112915039,-201.92300415039062 C-19.350000381469727,-220.33799743652344 -104.7959976196289,-202.03199768066406 -111.15499877929688,-162.22500610351562 C-138.33599853515625,-173.9949951171875 -204.16000366210938,-94.58100128173828 -163.33399963378906,14.157999992370605 C-163.33399963378906,14.157999992370605 -158.11099243164062,21.29199981689453 -153.17799377441406,35.15800094604492 C-153.17799377441406,35.15800094604492 -149.99000549316406,21.2810001373291 -150.04100036621094,1.3509999513626099 C-150.04100036621094,1.3509999513626099 -125.39700317382812,-28.423999786376953 -122.88200378417969,-50.48099899291992 C-122.88200378417969,-50.48099899291992 -116.322998046875,-41.119998931884766 -107.48100280761719,-37.242000579833984 C-107.48100280761719,-37.242000579833984 -107.64099884033203,-48.18899917602539 -105.19400024414062,-65.33000183105469 C-105.19400024414062,-65.33000183105469 -101.53399658203125,-57.17499923706055 -91.01100158691406,-53.097999572753906 C-91.01100158691406,-53.097999572753906 -98.0989990234375,-84.36299896240234 -98.23699951171875,-126.00599670410156z"></path></g><g opacity="1" transform="matrix(1,0,0,1,0,0)"><path stroke-linecap="round" stroke-linejoin="round" fill-opacity="0" stroke="rgb(153,119,60)" stroke-opacity="1" stroke-width="10" d=" M-150.04100036621094,1.3509999513626099 C-150.04100036621094,1.3509999513626099 -125.39700317382812,-28.423999786376953 -122.88200378417969,-50.48099899291992 C-122.88200378417969,-50.48099899291992 -116.322998046875,-41.119998931884766 -107.48100280761719,-37.242000579833984 C-107.48100280761719,-37.242000579833984 -107.64099884033203,-48.18899917602539 -105.19400024414062,-65.33000183105469 C-105.19400024414062,-65.33000183105469 -101.53399658203125,-57.17499923706055 -91.01100158691406,-53.097999572753906 C-91.01100158691406,-53.097999572753906 -98.0989990234375,-84.36299896240234 -98.23699951171875,-126.00599670410156 C-98.23699951171875,-126.00599670410156 -81.41300201416016,-79.05400085449219 -16.545000076293945,-67.26399993896484 C24.759000778198242,-59.75699996948242 63.527000427246094,-62.87200164794922 79.08999633789062,-42.12200164794922 C79.08999633789062,-42.12200164794922 82.33399963378906,-51.25 76.56199645996094,-68.27899932861328 C76.56199645996094,-68.27899932861328 105.29000091552734,-30.68000030517578 105.29000091552734,-30.68000030517578 C105.29000091552734,-30.68000030517578 111.68299865722656,-40.20899963378906 107.83000183105469,-56.2760009765625 C125.7229995727539,-10.390999794006348 140.32400512695312,-13.885000228881836 145.44700622558594,47.83599853515625"></path></g></g><g style="display: block;" transform="matrix(0.9693700075149536,0,0,0.9693700075149536,230.809326171875,219.9390869140625)" opacity="1"><g opacity="1" transform="matrix(1,0,0,1,0,0)"><g opacity="1" transform="matrix(1,0,0,1,0,0)"><path fill="rgb(255,255,255)" fill-opacity="1" d=" M0.6740000247955322,26.625 C0.6740000247955322,26.625 -3.882999897003174,-3.5940001010894775 -28.51300048828125,-3.5920000076293945 C-51.49399948120117,-3.5899999141693115 -61.604000091552734,18.281999588012695 -61.604000091552734,24.422000885009766 C-61.604000091552734,24.422000885009766 -52.35599899291992,40.43000030517578 -30.045000076293945,40.40999984741211 C-4.909999847412109,40.38800048828125 0.6740000247955322,26.625 0.6740000247955322,26.625z"></path></g><g opacity="1" transform="matrix(1,0,0,1,0,0)"><g opacity="1" transform="matrix(1,0,0,1,0,0)"><path fill="url(#__lottie_element_35)" fill-opacity="1" d=" M-11.486000061035156,18.409000396728516 C-11.486000061035156,28.7189998626709 -19.882999420166016,37.07699966430664 -30.240999221801758,37.07699966430664 C-40.5989990234375,37.07699966430664 -48.99599838256836,28.7189998626709 -48.99599838256836,18.409000396728516 C-48.99599838256836,8.098999977111816 -40.5989990234375,-0.2590000033378601 -30.240999221801758,-0.2590000033378601 C-19.882999420166016,-0.2590000033378601 -11.486000061035156,8.098999977111816 -11.486000061035156,18.409000396728516z"></path></g><g opacity="1" transform="matrix(1,0,0,1,0,0)"><g opacity="1" transform="matrix(1,0,0,1,0,0)"><path fill="url(#__lottie_element_36)" fill-opacity="1" d=" M-25.246999740600586,36.04100036621094 C-26.66900062561035,36.04100036621094 -27.985000610351562,35.12300109863281 -28.426000595092773,33.69300079345703 C-28.968000411987305,31.937000274658203 -27.983999252319336,30.072999954223633 -26.226999282836914,29.531999588012695 C-22.868000030517578,28.496000289916992 -20.19300079345703,25.885000228881836 -19.072999954223633,22.549999237060547 C-18.488000869750977,20.80699920654297 -16.599000930786133,19.871000289916992 -14.859999656677246,20.454999923706055 C-13.116999626159668,21.040000915527344 -12.178999900817871,22.926000595092773 -12.763999938964844,24.667999267578125 C-14.564000129699707,30.030000686645508 -18.863000869750977,34.22600173950195 -24.266000747680664,35.891998291015625 C-24.593000411987305,35.99300003051758 -24.92300033569336,36.04100036621094 -25.246999740600586,36.04100036621094z"></path></g></g><g opacity="1" transform="matrix(1,0,0,1,0,0)"><path fill="rgb(23,19,10)" fill-opacity="1" d=" M-18.38800048828125,18.409000396728516 C-18.38800048828125,24.924999237060547 -23.69499969482422,30.207000732421875 -30.240999221801758,30.207000732421875 C-36.7869987487793,30.207000732421875 -42.09400177001953,24.924999237060547 -42.09400177001953,18.409000396728516 C-42.09400177001953,11.892999649047852 -36.7869987487793,6.611000061035156 -30.240999221801758,6.611000061035156 C-23.69499969482422,6.611000061035156 -18.38800048828125,11.892999649047852 -18.38800048828125,18.409000396728516z"></path></g></g><g opacity="1" transform="matrix(1,0,0,1,0,0)"><path fill="rgb(163,65,0)" fill-opacity="1" d=" M0.4300000071525574,22.37299919128418 C0.4300000071525574,22.37299919128418 -7.034999847412109,-5.6579999923706055 -31.159000396728516,-5.40500020980835 C-55.28300094604492,-5.1519999504089355 -60.6349983215332,17.613000869750977 -61.604000091552734,24.422000885009766 C-61.604000091552734,24.422000885009766 -57.722999572753906,-2.9679999351501465 -30.23200035095215,-3.2760000228881836 C-7.464000225067139,-3.5309998989105225 0.4300000071525574,22.37299919128418 0.4300000071525574,22.37299919128418z"></path><path stroke-linecap="round" stroke-linejoin="round" fill-opacity="0" stroke="rgb(163,65,0)" stroke-opacity="1" stroke-width="2" d=" M0.4300000071525574,22.37299919128418 C0.4300000071525574,22.37299919128418 -7.034999847412109,-5.6579999923706055 -31.159000396728516,-5.40500020980835 C-55.28300094604492,-5.1519999504089355 -60.6349983215332,17.613000869750977 -61.604000091552734,24.422000885009766 C-61.604000091552734,24.422000885009766 -57.722999572753906,-2.9679999351501465 -30.23200035095215,-3.2760000228881836 C-7.464000225067139,-3.5309998989105225 0.4300000071525574,22.37299919128418 0.4300000071525574,22.37299919128418z"></path></g><g opacity="1" transform="matrix(1,0,0,1,0,0)"><path fill="url(#__lottie_element_37)" fill-opacity="1" d=" M-31.55900001525879,9.156000137329102 C-31.55900001525879,11.633999824523926 -33.45399856567383,13.644000053405762 -35.792999267578125,13.644000053405762 C-38.13199996948242,13.644000053405762 -40.027000427246094,11.633999824523926 -40.027000427246094,9.156000137329102 C-40.027000427246094,6.677999973297119 -38.13199996948242,4.669000148773193 -35.792999267578125,4.669000148773193 C-33.45399856567383,4.669000148773193 -31.55900001525879,6.677999973297119 -31.55900001525879,9.156000137329102z"></path></g></g><g opacity="1" transform="matrix(1,0,0,1,0,0)"><g opacity="1" transform="matrix(1,0,0,1,0,0)"><path fill="rgb(255,255,255)" fill-opacity="1" d=" M49.297000885009766,26.625 C49.297000885009766,26.625 53.85499954223633,-3.5940001010894775 78.48500061035156,-3.5920000076293945 C101.46600341796875,-3.5899999141693115 111.57499694824219,18.281999588012695 111.57499694824219,24.422000885009766 C111.57499694824219,24.422000885009766 102.3280029296875,40.43000030517578 80.01699829101562,40.40999984741211 C54.88199996948242,40.38800048828125 49.297000885009766,26.625 49.297000885009766,26.625z"></path></g><g opacity="1" transform="matrix(1,0,0,1,0,0)"><g opacity="1" transform="matrix(1,0,0,1,0,0)"><path fill="url(#__lottie_element_38)" fill-opacity="1" d=" M98.96800231933594,18.409000396728516 C98.96800231933594,28.7189998626709 90.57099914550781,37.07699966430664 80.21299743652344,37.07699966430664 C69.8550033569336,37.07699966430664 61.45800018310547,28.7189998626709 61.45800018310547,18.409000396728516 C61.45800018310547,8.098999977111816 69.8550033569336,-0.2590000033378601 80.21299743652344,-0.2590000033378601 C90.57099914550781,-0.2590000033378601 98.96800231933594,8.098999977111816 98.96800231933594,18.409000396728516z"></path></g><g opacity="1" transform="matrix(1,0,0,1,0,0)"><g opacity="1" transform="matrix(1,0,0,1,0,0)"><path fill="url(#__lottie_element_39)" fill-opacity="1" d=" M85.25700378417969,36.04100036621094 C83.83499908447266,36.04100036621094 82.51899719238281,35.12300109863281 82.0780029296875,33.69300079345703 C81.53600311279297,31.937000274658203 82.52100372314453,30.072999954223633 84.27799987792969,29.531999588012695 C87.63700103759766,28.496000289916992 90.31099700927734,25.885000228881836 91.43099975585938,22.549999237060547 C92.01599884033203,20.80699920654297 93.90499877929688,19.871000289916992 95.64399719238281,20.454999923706055 C97.38700103759766,21.040000915527344 98.32499694824219,22.926000595092773 97.73999786376953,24.667999267578125 C95.94000244140625,30.030000686645508 91.64199829101562,34.22600173950195 86.23899841308594,35.891998291015625 C85.91200256347656,35.99300003051758 85.58100128173828,36.04100036621094 85.25700378417969,36.04100036621094z"></path></g></g><g opacity="1" transform="matrix(1,0,0,1,0,0)"><path fill="rgb(23,19,10)" fill-opacity="1" d=" M92.06600189208984,18.409000396728516 C92.06600189208984,24.924999237060547 86.75900268554688,30.207000732421875 80.21299743652344,30.207000732421875 C73.66699981689453,30.207000732421875 68.36000061035156,24.924999237060547 68.36000061035156,18.409000396728516 C68.36000061035156,11.892999649047852 73.66699981689453,6.611000061035156 80.21299743652344,6.611000061035156 C86.75900268554688,6.611000061035156 92.06600189208984,11.892999649047852 92.06600189208984,18.409000396728516z"></path></g></g><g opacity="1" transform="matrix(1,0,0,1,0,0)"><path fill="rgb(163,65,0)" fill-opacity="1" d=" M49.54100036621094,22.37299919128418 C49.54100036621094,22.37299919128418 57.00600051879883,-5.6579999923706055 81.12999725341797,-5.40500020980835 C105.25399780273438,-5.1519999504089355 110.60600280761719,17.613000869750977 111.57499694824219,24.422000885009766 C111.57499694824219,24.422000885009766 107.69499969482422,-2.9679999351501465 80.2040023803711,-3.2760000228881836 C57.43600082397461,-3.5309998989105225 49.54100036621094,22.37299919128418 49.54100036621094,22.37299919128418z"></path><path stroke-linecap="round" stroke-linejoin="round" fill-opacity="0" stroke="rgb(163,65,0)" stroke-opacity="1" stroke-width="2" d=" M49.54100036621094,22.37299919128418 C49.54100036621094,22.37299919128418 57.00600051879883,-5.6579999923706055 81.12999725341797,-5.40500020980835 C105.25399780273438,-5.1519999504089355 110.60600280761719,17.613000869750977 111.57499694824219,24.422000885009766 C111.57499694824219,24.422000885009766 107.69499969482422,-2.9679999351501465 80.2040023803711,-3.2760000228881836 C57.43600082397461,-3.5309998989105225 49.54100036621094,22.37299919128418 49.54100036621094,22.37299919128418z"></path></g><g opacity="1" transform="matrix(1,0,0,1,0,0)"><path fill="url(#__lottie_element_40)" fill-opacity="1" d=" M78.8949966430664,9.156000137329102 C78.8949966430664,11.633999824523926 77,13.644000053405762 74.66100311279297,13.644000053405762 C72.3219985961914,13.644000053405762 70.427001953125,11.633999824523926 70.427001953125,9.156000137329102 C70.427001953125,6.677999973297119 72.3219985961914,4.669000148773193 74.66100311279297,4.669000148773193 C77,4.669000148773193 78.8949966430664,6.677999973297119 78.8949966430664,9.156000137329102z"></path></g></g></g><g style="display: block;" transform="matrix(0.7270200252532959,0,0,0.7270200252532959,256.3979187011719,215.97274780273438)" opacity="1"><g opacity="1" transform="matrix(1,0,0,1,0,0)"><path fill="url(#__lottie_element_28)" fill-opacity="1" d=" M39.138999938964844,134.47799682617188 C36.43299865722656,131.96200561523438 32.07500076293945,131.3979949951172 -1.3819999694824219,131.3979949951172 C-34.03300094604492,131.3979949951172 -38.7599983215332,131.96200561523438 -41.90299987792969,134.47799682617188 C-44.38600158691406,136.46600341796875 -43.564998626708984,153.8350067138672 -1.3890000581741333,153.8350067138672 C40.11000061035156,153.8350067138672 41.32099914550781,136.50599670410156 39.138999938964844,134.47799682617188z"></path></g><g opacity="1" transform="matrix(1,0,0,1,0,0)"><path fill="url(#__lottie_element_29)" fill-opacity="0.7000000000000001" d=" M38.880001068115234,140.3470001220703 C37.948001861572266,135.16799926757812 32.07500076293945,136.8730010986328 -1.3819999694824219,136.8730010986328 C-34.03300094604492,136.8730010986328 -40.1510009765625,134.84300231933594 -41.64400100708008,140.3470001220703 C-42.24100112915039,142.54800415039062 -28.93199920654297,158.6320037841797 -1.3890000581741333,158.6320037841797 C25.687000274658203,158.6320037841797 39.29800033569336,142.6699981689453 38.880001068115234,140.3470001220703z"></path></g><g opacity="1" transform="matrix(1,0,0,1,0,0)"><path fill="rgb(136,24,4)" fill-opacity="1" d=" M37.847999572753906,137.9969940185547 C36.301998138427734,135.7209930419922 32.07500076293945,136.08999633789062 -1.3819999694824219,136.08999633789062 C-34.03300094604492,136.08999633789062 -38.880001068115234,135.8000030517578 -40.61199951171875,137.9969940185547 C-42.132999420166016,139.9250030517578 -28.93199920654297,153.8350067138672 -1.3890000581741333,153.8350067138672 C25.687000274658203,153.8350067138672 39.26300048828125,140.08099365234375 37.847999572753906,137.9969940185547z"></path></g><g opacity="1" transform="matrix(1,0,0,1,0,0)"><path fill="url(#__lottie_element_30)" fill-opacity="1" d=" M37.847999572753906,137.9969940185547 C36.301998138427734,135.7209930419922 32.07500076293945,136.08999633789062 -1.3819999694824219,136.08999633789062 C-34.03300094604492,136.08999633789062 -38.880001068115234,135.8000030517578 -40.61199951171875,137.9969940185547 C-42.132999420166016,139.9250030517578 -28.93199920654297,153.8350067138672 -1.3890000581741333,153.8350067138672 C25.687000274658203,153.8350067138672 39.26300048828125,140.08099365234375 37.847999572753906,137.9969940185547z"></path></g><g opacity="1" transform="matrix(1.2294299602508545,0,0,1,0,0)"><path fill="url(#__lottie_element_31)" fill-opacity="0.5" d=" M22.57900047302246,158.6320037841797 C22.57900047302246,163.9499969482422 15.295000076293945,171.6490020751953 -1.3890000581741333,171.6490020751953 C-18.072999954223633,171.6490020751953 -25.357999801635742,163.9499969482422 -25.357999801635742,158.6320037841797 C-25.357999801635742,153.31399536132812 -18.072999954223633,158.6320037841797 -1.3890000581741333,158.6320037841797 C15.295000076293945,158.6320037841797 22.57900047302246,153.31399536132812 22.57900047302246,158.6320037841797z"></path></g></g><g style="display: block;" transform="matrix(0.9200000166893005,0,0,0.9200000166893005,256.0003967285156,186.02032470703125)" opacity="1"><g opacity="1" transform="matrix(1,0,0,1,0,0)"><path fill="rgb(163,65,0)" fill-opacity="1" d=" M-86.51599884033203,23.239999771118164 C-88.06800079345703,20.422000885009766 -73.87100219726562,10.890999794006348 -56.529998779296875,10.522000312805176 C-42.250999450683594,10.218000411987305 -40.3129997253418,14.414999961853027 -41.111000061035156,15.876999855041504 C-41.909000396728516,17.339000701904297 -50.76599884033203,13.906999588012695 -66.7750015258789,17.04400062561035 C-83.11100006103516,20.2450008392334 -85.75599670410156,24.618999481201172 -86.51599884033203,23.239999771118164z"></path><path stroke-linecap="round" stroke-linejoin="round" fill-opacity="0" stroke="rgb(163,65,0)" stroke-opacity="1" stroke-width="2" d=" M-86.51599884033203,23.239999771118164 C-88.06800079345703,20.422000885009766 -73.87100219726562,10.890999794006348 -56.529998779296875,10.522000312805176 C-42.250999450683594,10.218000411987305 -40.3129997253418,14.414999961853027 -41.111000061035156,15.876999855041504 C-41.909000396728516,17.339000701904297 -50.76599884033203,13.906999588012695 -66.7750015258789,17.04400062561035 C-83.11100006103516,20.2450008392334 -85.75599670410156,24.618999481201172 -86.51599884033203,23.239999771118164z"></path></g><g opacity="1" transform="matrix(1,0,0,1,0,0)"><path fill="rgb(163,65,0)" fill-opacity="1" d=" M80.3759994506836,23.239999771118164 C81.9280014038086,20.422000885009766 67.73200225830078,10.890999794006348 50.39099884033203,10.522000312805176 C36.11199951171875,10.218000411987305 34.17300033569336,14.414999961853027 34.97100067138672,15.876999855041504 C35.76900100708008,17.339000701904297 44.62699890136719,13.906999588012695 60.63600158691406,17.04400062561035 C76.97200012207031,20.2450008392334 79.61599731445312,24.618999481201172 80.3759994506836,23.239999771118164z"></path><path stroke-linecap="round" stroke-linejoin="round" fill-opacity="0" stroke="rgb(163,65,0)" stroke-opacity="1" stroke-width="2" d=" M80.3759994506836,23.239999771118164 C81.9280014038086,20.422000885009766 67.73200225830078,10.890999794006348 50.39099884033203,10.522000312805176 C36.11199951171875,10.218000411987305 34.17300033569336,14.414999961853027 34.97100067138672,15.876999855041504 C35.76900100708008,17.339000701904297 44.62699890136719,13.906999588012695 60.63600158691406,17.04400062561035 C76.97200012207031,20.2450008392334 79.61599731445312,24.618999481201172 80.3759994506836,23.239999771118164z"></path></g></g><g style="display: block;" transform="matrix(1,0,0,1,255.5,256)" opacity="0.1"><g opacity="1" transform="matrix(1,0,0,1,0,0)"><path fill="rgb(219,110,0)" fill-opacity="1" d=" M0.75,-100.25 C-20.242000579833984,-99.63300323486328 -33.5,-79 -57,-89.75 C-77.43599700927734,-99.0979995727539 -85.51499938964844,-89.90699768066406 -98,-89.25 C-107.5,-88.75 -117.25,-115.75 -120.75,-93.5 C-123.83599853515625,-73.88400268554688 -117.53600311279297,-81.71399688720703 -114,-85.25 C-113.75,-85.25 -101,-59.5 -79,-83 C-78.14600372314453,-83.91300201416016 -67.5,-58.5 -39,-69.25 C-39.5,-70 -32,-59.5 -27,-59.75 C-18.947999954223633,-60.15299987792969 -21,-64.25 -15.25,-65.25 C-13.263999938964844,-65.59500122070312 -13,-55 1,-61 C15.25,-54.25 17.5,-66.5 18.25,-66 C26.25,-64 24.834999084472656,-58.29899978637695 29.75,-59.25 C37.5,-60.75 39.62699890136719,-67.43800354003906 43.75,-69.5 C44.25,-69.75 64.43499755859375,-57.41299819946289 81.75,-80.5 C82,-81 100.5,-66 112.5,-81 C113.25,-81.5 121.5,-69.5 122.5,-88.75 C122.86000061035156,-95.68699645996094 123.75,-111.75 99.5,-89.75 C94.51499938964844,-85.22699737548828 82.25,-101 60.75,-89.75 C44.91899871826172,-81.46600341796875 17.75,-100.75 0.75,-100.25z"></path></g></g><g style="display: block;" transform="matrix(1,0,0,1,255.25,256)" opacity="1"><g opacity="1" transform="matrix(1,0,0,1,0,0)"><g opacity="1" transform="matrix(1,0,0,1,0,0)"><path stroke-linecap="round" stroke-linejoin="round" fill-opacity="0" stroke="rgb(171,162,141)" stroke-opacity="1" stroke-width="7" d=" M34.25,-99.75 C19.25,-94.75 23.812000274658203,-107.43800354003906 16.954999923706055,-113.86799621582031 C9.20300006866455,-121.13800048828125 2.25,-113.75 1,-107 C-0.25,-114 -6.74399995803833,-120.10299682617188 -13.8100004196167,-114.8499984741211 C-22.687999725341797,-108.25 -19.25,-93.75 -33,-100.25"></path></g><g opacity="1" transform="matrix(1,0,0,1,0,0)"><path fill="url(#__lottie_element_6)" fill-opacity="1" d=" M-12,-120 C-24.96500015258789,-115.9489974975586 -15.5,-96.25 -34,-103.5 C-25.25,-86.75 -19,-116.5 -10.25,-116.5 C-2.1070001125335693,-116.5 -1,-108.5 1,-103.25 C4.25,-107.75 3.75,-118.25 13,-115.75 C23.038000106811523,-113.03700256347656 20,-88.375 35.25,-102 C15.5,-101.25 27.476999282836914,-115.47200012207031 15.25,-120 C8.5,-122.5 2.5,-119.25 1.25,-114.5 C-0.5,-118 -4,-122.5 -12,-120z"></path></g></g><g opacity="1" transform="matrix(1,0,0,1,0,0)"><g opacity="1" transform="matrix(1,0,0,1,0,0)"><path stroke-linecap="round" stroke-linejoin="miter" fill-opacity="0" stroke-miterlimit="4" stroke="rgb(129,124,109)" stroke-opacity="1" stroke-width="6" d=" M-131,-87.75 C-127,-77.25 -111.75,-82.5 -110.75,-90.5"></path></g><g opacity="1" transform="matrix(1,0,0,1,0,0)"><path stroke-linecap="round" stroke-linejoin="miter" fill-opacity="0" stroke-miterlimit="4" stroke="rgb(129,124,109)" stroke-opacity="1" stroke-width="6" d=" M112.75,-87.25 C114,-79.5 126.25,-77.5 130.25,-87.5"></path></g><g opacity="1" transform="matrix(1,0,0,1,0,0)"><path stroke-linecap="round" stroke-linejoin="miter" fill-opacity="0" stroke-miterlimit="4" stroke="rgb(141,135,117)" stroke-opacity="1" stroke-width="7" d=" M-96.56300354003906,-90 C-94.25,-98 -104.75,-106 -112.78500366210938,-102.66699981689453 C-123.10900115966797,-98.38400268554688 -123.39299774169922,-90.09200286865234 -132.25,-90.25"></path></g><g opacity="1" transform="matrix(1,0,0,1,0,0)"><path stroke-linecap="round" stroke-linejoin="miter" fill-opacity="0" stroke-miterlimit="4" stroke="rgb(141,135,117)" stroke-opacity="1" stroke-width="7" d=" M96.75,-88.75 C97.25,-99 110.57099914550781,-104.05599975585938 115.25700378417969,-100.87999725341797 C119.85399627685547,-97.76399993896484 122.25,-91.5 131.25,-90"></path></g><g opacity="1" transform="matrix(1,0,0,1,0,0)"><path fill="rgb(174,169,148)" fill-opacity="1" d=" M-96.5,-100.5 C-112,-116 -121.25,-95.25 -129.5,-92.5 C-113.25,-95.5 -111,-107.75 -96.5,-100.5z"></path></g><g opacity="1" transform="matrix(1,0,0,1,0,0)"><path fill="rgb(174,169,148)" fill-opacity="1" d=" M99.875,-99.5 C116.75,-105.25 122.25,-87.75 131.375,-91.625 C124,-93.25 115.75,-113.25 99.875,-99.5z"></path></g></g><g opacity="1" transform="matrix(1,0,0,1,0,0)"><g opacity="1" transform="matrix(1,0,0,1,0,0)"><path stroke-linecap="round" stroke-linejoin="round" fill-opacity="0" stroke="rgb(141,136,121)" stroke-opacity="1" stroke-width="9" d=" M10.375,-68.75 C-1.25,-75.375 17.5,-94 28.75,-72 C31.75,-79 35.7859992980957,-83.31700134277344 37.25,-82.5 C58.75,-70.5 70.54000091552734,-85.56500244140625 75.5,-95 C85.75,-114.5 95.75,-96 89.5,-92"></path></g><g opacity="1" transform="matrix(1,0,0,1,0,0)"><path stroke-linecap="round" stroke-linejoin="round" fill-opacity="0" stroke="rgb(141,136,121)" stroke-opacity="1" stroke-width="9" d=" M-89,-94 C-94.25,-103.5 -78.75,-112.5 -71,-95.25 C-62.762001037597656,-76.91300201416016 -50.5,-74.25 -35,-82.5 C-34.09000015258789,-82.98400115966797 -28.75,-78.25 -25.5,-71.25 C-14,-93.75 4.75,-74.75 -8.5,-69.75"></path></g><g opacity="0.7000000000000001" transform="matrix(1,0,0,1,0,0)"><path fill="url(#__lottie_element_7)" mask="url(#__lottie_element_9)" fill-opacity="1" d="M0 0 M-92.25,-101.75 C-88.5,-106 -82.18499755859375,-111.75900268554688 -76,-97.5 C-67,-76.75 -50.97999954223633,-71.76599884033203 -37,-79.5 C-31.125,-82.75 -25.673999786376953,-71.01599884033203 -25.125,-72.125 C-18.5,-85.5 -6.5,-84.0009994506836 -2.453000068664551,-81.18800354003906 C-5.75,-86.5009994506836 -18.375,-90.625 -25.125,-77.5 C-26,-79 -31.5,-84.75 -36.75,-82 C-44.801998138427734,-77.78199768066406 -63.11600112915039,-77.59700012207031 -69,-95.25 C-76,-116.25 -90.75,-108.25 -92.25,-101.75z"></path></g><g opacity="0.7000000000000001" transform="matrix(1,0,0,1,0,0)"><path fill="url(#__lottie_element_10)" mask="url(#__lottie_element_12)" fill-opacity="1" d="M0 0 M76,-101.5 C68.88600158691406,-91.66600036621094 65.75,-79 41.625,-81.5 C30.365999221801758,-82.66699981689453 28.625,-78.375 28.375,-78.375 C23.5,-88.75 10,-88.5009994506836 6.046999931335449,-80.93800354003906 C15.75,-86.7509994506836 28,-79.25 29.25,-73 C32.625,-77.125 35.071998596191406,-81.54100036621094 42.125,-79.875 C67,-74 71.6780014038086,-85.7030029296875 81,-99.5 C87.25,-108.75 93.5,-103.5 95.25,-99 C94.5,-104 84.5,-113.25 76,-101.5z"></path></g><g opacity="0.6" transform="matrix(1,0,0,1,0,0)"><path fill="rgb(255,255,255)" fill-opacity="1" d=" M-3.5,-73 C-4.25,-74.875 -9.125,-73.25 -8.375,-70.625 C-7.625,-68 -2.75,-71.125 -3.5,-73z"></path></g><g opacity="0.6" transform="matrix(1,0,0,1,0.625,0.5)"><path fill="rgb(255,255,255)" fill-opacity="1" d=" M5.625,-73.25 C4.3979997634887695,-71.41000366210938 7.5,-68.625 9.75,-70.5 C11.656000137329102,-72.08799743652344 6.875,-75.125 5.625,-73.25z"></path></g><g opacity="1" transform="matrix(1,0,0,1,0,0)"><path fill="rgb(109,104,92)" fill-opacity="1" d=" M-0.9380000233650208,-79.31300354003906 C-1.2510000467300415,-76.375 -3,-67.25 -12.062999725341797,-68.56300354003906 C-8.625,-62.5 4,-67.875 -0.9380000233650208,-79.31300354003906z"></path></g><g opacity="1" transform="matrix(1,0,0,1,0,0)"><path fill="rgb(109,104,92)" fill-opacity="1" d=" M4.125,-78.75 C-0.375,-69.75 9,-60 14.375,-68.25 C11.5,-66.625 3.625,-68.5 4.125,-78.75z"></path></g><g opacity="1" transform="matrix(1,0,0,1,0,0)"><path fill="rgb(109,104,92)" fill-opacity="1" d=" M89.75,-103.75 C91.75,-101.125 93.125,-91.375 87.75,-91.25 C96.375,-86.5 99.375,-101.625 89.75,-103.75z"></path></g><g opacity="1" transform="matrix(1,0,0,1,0,0)"><path fill="rgb(109,104,92)" fill-opacity="1" d=" M-84.25,-106.25 C-97.375,-104 -95.375,-89.625 -87,-93 C-89,-94.5 -90.75,-101.5 -84.25,-106.25z"></path></g></g><g opacity="1" transform="matrix(1,0,0,1,0,0)"><g opacity="1" transform="matrix(1,0,0,1,0,0)"><path stroke-linecap="round" stroke-linejoin="round" fill-opacity="0" stroke="rgb(152,146,129)" stroke-opacity="1" stroke-width="9" d=" M-127,-103 C-121.25,-107 -117.25900268554688,-87.93399810791016 -99.25,-85.5 C-80.75,-83 -61.25,-114.0009994506836 -32.625,-85.56300354003906 C-27.479000091552734,-80.44999694824219 -18.7810001373291,-114.75 0.843999981880188,-104.5 C21.8439998626709,-114.75 28.07200050354004,-80.0790023803711 34.5,-85.25 C67.75,-112 81.76399993896484,-81.83499908447266 99.25,-83.43800354003906 C121.75,-85.5009994506836 119.25,-106 125.75,-101.75"></path></g><g opacity="1" transform="matrix(1,0,0,1,0,0)"><path fill="url(#__lottie_element_13)" mask="url(#__lottie_element_15)" fill-opacity="1" d="M0 0 M-127.25,-106 C-122.25,-104.75 -115.25499725341797,-85.29399871826172 -100.125,-85 C-87.25,-84.75 -69.25,-110.2509994506836 -36.25,-86.31300354003906 C-26.54599952697754,-79.27400207519531 -22.718000411987305,-113.7509994506836 0.843999981880188,-101.43800354003906 C27.781999588012695,-114.2509994506836 25.5,-75.25 39.5,-86.25 C70.03299713134766,-110.23999786376953 88.54199981689453,-82.2699966430664 99.75,-83.5 C120.25,-85.75 118.25,-102.5 126.25,-104.75 C116.75,-106.75 110.59500122070312,-84.85099792480469 100.125,-84.56300354003906 C88.75,-84.25 65.5,-115.7509994506836 33.3129997253418,-89.06300354003906 C28.815000534057617,-85.33399963378906 24.5,-118.75 0.796999990940094,-107.25 C-18.202999114990234,-119.25 -28.375999450683594,-86.19200134277344 -33.375,-90.93800354003906 C-59.25,-115.5009994506836 -89.25,-86.5 -99.68800354003906,-86.5 C-110.00399780273438,-86.5 -113.75,-107 -127.25,-106z"></path></g><g opacity="1" transform="matrix(1,0,0,1,0,0)"><path fill="rgb(109,104,93)" fill-opacity="1" d=" M-129.5,-103 C-121.25,-101 -117.25,-82.25 -100,-81.125 C-83.74600219726562,-80.06500244140625 -66.5,-96.75 -50.5,-93.5 C-64.5,-102 -86.5,-83.875 -100,-85.125 C-113.5,-86.375 -123,-104.5 -129.5,-103z"></path></g><g opacity="1" transform="matrix(1,0,0,1,0,0)"><path fill="rgb(109,104,93)" fill-opacity="1" d=" M129,-101.25 C120,-102 119.75,-85.25 99.75,-83 C84.71199798583984,-81.30799865722656 72.5,-103.75 50,-92 C74.25,-96.25 81.27999877929688,-78.23100280761719 99.5,-79.31300354003906 C119.5,-80.5009994506836 124.25,-101.75 129,-101.25z"></path></g></g><g opacity="1" transform="matrix(1,0,0,1,0,0)"><g opacity="1" transform="matrix(1,0,0,1,1.375,-94.375)"><path fill="url(#__lottie_element_16)" fill-opacity="1" d=" M0,-10.875 C6.001912593841553,-10.875 10.875,-6.001912593841553 10.875,0 C10.875,6.001912593841553 6.001912593841553,10.875 0,10.875 C-6.001912593841553,10.875 -10.875,6.001912593841553 -10.875,0 C-10.875,-6.001912593841553 -6.001912593841553,-10.875 0,-10.875z"></path><path stroke-linecap="butt" stroke-linejoin="miter" fill-opacity="0" stroke-miterlimit="4" stroke="rgb(195,197,197)" stroke-opacity="1" stroke-width="4" d=" M0,-10.875 C6.001912593841553,-10.875 10.875,-6.001912593841553 10.875,0 C10.875,6.001912593841553 6.001912593841553,10.875 0,10.875 C-6.001912593841553,10.875 -10.875,6.001912593841553 -10.875,0 C-10.875,-6.001912593841553 -6.001912593841553,-10.875 0,-10.875z"></path></g><g opacity="1" transform="matrix(1,0,0,1,37.625,-82.75)"><path fill="url(#__lottie_element_17)" fill-opacity="1" d=" M0,-7 C3.863300085067749,-7 7,-3.863300085067749 7,0 C7,3.863300085067749 3.863300085067749,7 0,7 C-3.863300085067749,7 -7,3.863300085067749 -7,0 C-7,-3.863300085067749 -3.863300085067749,-7 0,-7z"></path><path stroke-linecap="butt" stroke-linejoin="miter" fill-opacity="0" stroke-miterlimit="4" stroke="rgb(149,149,149)" stroke-opacity="1" stroke-width="4" d=" M0,-7 C3.863300085067749,-7 7,-3.863300085067749 7,0 C7,3.863300085067749 3.863300085067749,7 0,7 C-3.863300085067749,7 -7,3.863300085067749 -7,0 C-7,-3.863300085067749 -3.863300085067749,-7 0,-7z"></path></g><g opacity="1" transform="matrix(1,0,0,1,-34.125,-82.875)"><path fill="url(#__lottie_element_18)" fill-opacity="1" d=" M0,-7 C3.863300085067749,-7 7,-3.863300085067749 7,0 C7,3.863300085067749 3.863300085067749,7 0,7 C-3.863300085067749,7 -7,3.863300085067749 -7,0 C-7,-3.863300085067749 -3.863300085067749,-7 0,-7z"></path><path stroke-linecap="butt" stroke-linejoin="miter" fill-opacity="0" stroke-miterlimit="4" stroke="rgb(149,149,149)" stroke-opacity="1" stroke-width="4" d=" M0,-7 C3.863300085067749,-7 7,-3.863300085067749 7,0 C7,3.863300085067749 3.863300085067749,7 0,7 C-3.863300085067749,7 -7,3.863300085067749 -7,0 C-7,-3.863300085067749 -3.863300085067749,-7 0,-7z"></path></g><g opacity="1" transform="matrix(1,0,0,1,0,0)"><path fill="rgb(255,255,255)" fill-opacity="1" d=" M1.531000018119812,-101 C-2.7219998836517334,-101.30400085449219 -3.684000015258789,-96.375 1.125,-96.06300354003906 C5.938000202178955,-95.75 5.906000137329102,-100.68699645996094 1.531000018119812,-101z"></path></g><g opacity="1" transform="matrix(1,0,0,1,0,0)"><path stroke-linecap="round" stroke-linejoin="miter" fill-opacity="0" stroke-miterlimit="4" stroke="rgb(255,255,255)" stroke-opacity="1" stroke-width="4" d=" M-35,-84.56300354003906 C-35,-84.56300354003906 -34.5629997253418,-84.68800354003906 -34.5629997253418,-84.68800354003906"></path></g><g opacity="1" transform="matrix(1,0,0,1,0,0)"><path stroke-linecap="round" stroke-linejoin="miter" fill-opacity="0" stroke-miterlimit="4" stroke="rgb(255,255,255)" stroke-opacity="1" stroke-width="4" d=" M37.25,-84.375 C37.25,-84.375 37.6879997253418,-84.56300354003906 37.6879997253418,-84.56300354003906"></path></g></g></g></g></svg>