<svg xmlns="http://www.w3.org/2000/svg" xmlns:xlink="http://www.w3.org/1999/xlink" viewBox="0 0 512 512" width="512" height="512" style="width: 100%; height: 100%; transform: translate3d(0,0,0); content-visibility: visible;" preserveAspectRatio="xMidYMid meet"><defs><clipPath id="__lottie_element_2"><rect width="512" height="512" x="0" y="0"></rect></clipPath><linearGradient id="__lottie_element_9" spreadMethod="pad" gradientUnits="userSpaceOnUse" x1="-1.5230000019073486" y1="-158.59300231933594" x2="-1.5230000019073486" y2="-28.739999771118164"><stop offset="11%" stop-color="rgb(255,169,0)" stop-opacity="0"></stop><stop offset="47%" stop-color="rgb(255,169,0)" stop-opacity="0.5"></stop><stop offset="100%" stop-color="rgb(255,169,0)" stop-opacity="1"></stop></linearGradient><linearGradient id="__lottie_element_10" spreadMethod="pad" gradientUnits="userSpaceOnUse" x1="-1.5230000019073486" y1="-205.59300231933594" x2="-1.5230000019073486" y2="27.774999618530273"><stop offset="12%" stop-color="rgb(218,110,0)" stop-opacity="0"></stop><stop offset="31%" stop-color="rgb(218,110,0)" stop-opacity="0.5"></stop><stop offset="44%" stop-color="rgb(218,110,0)" stop-opacity="1"></stop><stop offset="69%" stop-color="rgb(218,110,0)" stop-opacity="0.6499999761581421"></stop><stop offset="100%" stop-color="rgb(218,110,0)" stop-opacity="0.30000001192092896"></stop></linearGradient><linearGradient id="__lottie_element_11" spreadMethod="pad" gradientUnits="userSpaceOnUse" x1="47.47700119018555" y1="-199.59300231933594" x2="45.641998291015625" y2="-140.89199829101562"><stop offset="0%" stop-color="rgb(255,255,255)" stop-opacity="1"></stop><stop offset="50%" stop-color="rgb(255,255,255)" stop-opacity="0.5"></stop><stop offset="100%" stop-color="rgb(255,255,255)" stop-opacity="0"></stop></linearGradient><linearGradient id="__lottie_element_12" spreadMethod="pad" gradientUnits="userSpaceOnUse" x1="-151.5229949951172" y1="-153.59300231933594" x2="-124.98699951171875" y2="-122.58399963378906"><stop offset="0%" stop-color="rgb(255,255,255)" stop-opacity="1"></stop><stop offset="50%" stop-color="rgb(255,255,255)" stop-opacity="0.5"></stop><stop offset="100%" stop-color="rgb(255,255,255)" stop-opacity="0"></stop></linearGradient><linearGradient id="__lottie_element_19" spreadMethod="pad" gradientUnits="userSpaceOnUse" x1="-5.926000118255615" y1="73.76399993896484" x2="-5.926000118255615" y2="106.6729965209961"><stop offset="0%" stop-color="rgb(255,168,0)" stop-opacity="1"></stop><stop offset="66%" stop-color="rgb(255,168,0)" stop-opacity="0.5"></stop><stop offset="100%" stop-color="rgb(255,168,0)" stop-opacity="0"></stop></linearGradient><linearGradient id="__lottie_element_20" spreadMethod="pad" gradientUnits="userSpaceOnUse" x1="-5.2220001220703125" y1="85.37899780273438" x2="-5.676000118255615" y2="56.98899841308594"><stop offset="10%" stop-color="rgb(219,110,0)" stop-opacity="1"></stop><stop offset="51%" stop-color="rgb(219,110,0)" stop-opacity="0.5"></stop><stop offset="80%" stop-color="rgb(219,110,0)" stop-opacity="0"></stop></linearGradient><radialGradient id="__lottie_element_21" spreadMethod="pad" gradientUnits="userSpaceOnUse" cx="-5.926000118255615" cy="50.763999938964844" r="30.842000484466553" fx="-5.926000118255615" fy="50.763999938964844"><stop offset="36%" stop-color="rgb(255,168,0)" stop-opacity="0"></stop><stop offset="74%" stop-color="rgb(255,168,0)" stop-opacity="0.5"></stop><stop offset="100%" stop-color="rgb(255,168,0)" stop-opacity="1"></stop></radialGradient><linearGradient id="__lottie_element_22" spreadMethod="pad" gradientUnits="userSpaceOnUse" x1="-5.926000118255615" y1="47.763999938964844" x2="-5.926000118255615" y2="60.27199935913086"><stop offset="0%" stop-color="rgb(255,255,255)" stop-opacity="1"></stop><stop offset="50%" stop-color="rgb(255,255,255)" stop-opacity="0.5"></stop><stop offset="100%" stop-color="rgb(255,255,255)" stop-opacity="0"></stop></linearGradient><radialGradient id="__lottie_element_26" spreadMethod="pad" gradientUnits="userSpaceOnUse" cx="5.557000160217285" cy="142.42100524902344" r="53.46304710347579" fx="5.557000160217285" fy="142.42100524902344"><stop offset="0%" stop-color="rgb(255,255,255)" stop-opacity="1"></stop><stop offset="60%" stop-color="rgb(255,255,255)" stop-opacity="0.5"></stop><stop offset="100%" stop-color="rgb(255,255,255)" stop-opacity="0"></stop></radialGradient><linearGradient id="__lottie_element_27" spreadMethod="pad" gradientUnits="userSpaceOnUse" x1="-1.4429999589920044" y1="142.42100524902344" x2="-1.4429999589920044" y2="127.66999816894531"><stop offset="0%" stop-color="rgb(88,11,14)" stop-opacity="0"></stop><stop offset="34%" stop-color="rgb(88,11,14)" stop-opacity="0.5"></stop><stop offset="75%" stop-color="rgb(88,11,14)" stop-opacity="1"></stop></linearGradient><radialGradient id="__lottie_element_28" spreadMethod="pad" gradientUnits="userSpaceOnUse" cx="-0.19300000369548798" cy="165.67100524902344" r="30.53497488937068" fx="-0.19300000369548798" fy="165.67100524902344"><stop offset="10%" stop-color="rgb(219,110,0)" stop-opacity="1"></stop><stop offset="64%" stop-color="rgb(219,110,0)" stop-opacity="0.5049999952316284"></stop><stop offset="100%" stop-color="rgb(219,110,0)" stop-opacity="0.009999999776482582"></stop></radialGradient><linearGradient id="__lottie_element_29" spreadMethod="pad" gradientUnits="userSpaceOnUse" x1="-29.243999481201172" y1="127.9209976196289" x2="-69.09200286865234" y2="138.552001953125"><stop offset="0%" stop-color="rgb(255,168,0)" stop-opacity="1"></stop><stop offset="60%" stop-color="rgb(255,168,0)" stop-opacity="0.5"></stop><stop offset="100%" stop-color="rgb(255,168,0)" stop-opacity="0"></stop></linearGradient><linearGradient id="__lottie_element_30" spreadMethod="pad" gradientUnits="userSpaceOnUse" x1="-29.243999481201172" y1="127.9209976196289" x2="-69.09200286865234" y2="138.552001953125"><stop offset="0%" stop-color="rgb(255,168,0)" stop-opacity="1"></stop><stop offset="60%" stop-color="rgb(255,168,0)" stop-opacity="0.5"></stop><stop offset="100%" stop-color="rgb(255,168,0)" stop-opacity="0"></stop></linearGradient><linearGradient id="__lottie_element_34" spreadMethod="pad" gradientUnits="userSpaceOnUse" x1="-85.9260025024414" y1="-18.986000061035156" x2="-65.16600036621094" y2="14.65999984741211"><stop offset="0%" stop-color="rgb(66,0,0)"></stop><stop offset="37%" stop-color="rgb(118,40,0)"></stop><stop offset="100%" stop-color="rgb(170,80,0)"></stop></linearGradient><radialGradient id="__lottie_element_35" spreadMethod="pad" gradientUnits="userSpaceOnUse" cx="-67.9260025024414" cy="6.763999938964844" r="14.795001983642578" fx="-67.9260025024414" fy="6.763999938964844"><stop offset="0%" stop-color="rgb(246,175,0)" stop-opacity="1"></stop><stop offset="50%" stop-color="rgb(246,175,0)" stop-opacity="0.5"></stop><stop offset="100%" stop-color="rgb(246,175,0)" stop-opacity="0"></stop></radialGradient><linearGradient id="__lottie_element_36" spreadMethod="pad" gradientUnits="userSpaceOnUse" x1="-87.48799896240234" y1="-28.673999786376953" x2="-87.30999755859375" y2="-16.361000061035156"><stop offset="0%" stop-color="rgb(255,255,255)" stop-opacity="1"></stop><stop offset="60%" stop-color="rgb(255,255,255)" stop-opacity="0.5"></stop><stop offset="100%" stop-color="rgb(255,255,255)" stop-opacity="0"></stop></linearGradient><linearGradient id="__lottie_element_37" spreadMethod="pad" gradientUnits="userSpaceOnUse" x1="-85.9260025024414" y1="-18.986000061035156" x2="-65.16600036621094" y2="14.65999984741211"><stop offset="0%" stop-color="rgb(66,0,0)"></stop><stop offset="37%" stop-color="rgb(118,40,0)"></stop><stop offset="100%" stop-color="rgb(170,80,0)"></stop></linearGradient><radialGradient id="__lottie_element_38" spreadMethod="pad" gradientUnits="userSpaceOnUse" cx="-67.9260025024414" cy="6.763999938964844" r="14.795001983642578" fx="-67.9260025024414" fy="6.763999938964844"><stop offset="0%" stop-color="rgb(246,175,0)" stop-opacity="1"></stop><stop offset="50%" stop-color="rgb(246,175,0)" stop-opacity="0.5"></stop><stop offset="100%" stop-color="rgb(246,175,0)" stop-opacity="0"></stop></radialGradient><linearGradient id="__lottie_element_39" spreadMethod="pad" gradientUnits="userSpaceOnUse" x1="-87.48799896240234" y1="-28.673999786376953" x2="-87.30999755859375" y2="-16.361000061035156"><stop offset="0%" stop-color="rgb(255,255,255)" stop-opacity="1"></stop><stop offset="60%" stop-color="rgb(255,255,255)" stop-opacity="0.5"></stop><stop offset="100%" stop-color="rgb(255,255,255)" stop-opacity="0"></stop></linearGradient><linearGradient id="__lottie_element_43" spreadMethod="pad" gradientUnits="userSpaceOnUse" x1="47.47700119018555" y1="38.40700149536133" x2="122.55999755859375" y2="51.58700180053711"><stop offset="0%" stop-color="rgb(255,168,0)" stop-opacity="1"></stop><stop offset="50%" stop-color="rgb(255,168,0)" stop-opacity="0.5"></stop><stop offset="100%" stop-color="rgb(255,168,0)" stop-opacity="0"></stop></linearGradient><linearGradient id="__lottie_element_44" spreadMethod="pad" gradientUnits="userSpaceOnUse" x1="-48.52299880981445" y1="39.65700149536133" x2="-125.61000061035156" y2="51.917999267578125"><stop offset="0%" stop-color="rgb(255,168,0)" stop-opacity="1"></stop><stop offset="50%" stop-color="rgb(255,168,0)" stop-opacity="0.5"></stop><stop offset="100%" stop-color="rgb(255,168,0)" stop-opacity="0"></stop></linearGradient><linearGradient id="__lottie_element_48" spreadMethod="pad" gradientUnits="userSpaceOnUse" x1="-68.52300262451172" y1="-183.59300231933594" x2="-26.329999923706055" y2="-58.46900177001953"><stop offset="9%" stop-color="rgb(219,110,0)" stop-opacity="1"></stop><stop offset="49%" stop-color="rgb(219,110,0)" stop-opacity="0.5"></stop><stop offset="71%" stop-color="rgb(219,110,0)" stop-opacity="0"></stop></linearGradient><linearGradient id="__lottie_element_49" spreadMethod="pad" gradientUnits="userSpaceOnUse" x1="-0.5230000019073486" y1="-112.59300231933594" x2="-0.5230000019073486" y2="198.72500610351562"><stop offset="0%" stop-color="rgb(255,216,0)" stop-opacity="0.019999999552965164"></stop><stop offset="10%" stop-color="rgb(255,216,0)" stop-opacity="0.5099999904632568"></stop><stop offset="50%" stop-color="rgb(255,216,0)" stop-opacity="1"></stop><stop offset="81%" stop-color="rgb(255,216,0)" stop-opacity="0.5049999952316284"></stop><stop offset="100%" stop-color="rgb(255,216,0)" stop-opacity="0.009999999776482582"></stop></linearGradient><radialGradient id="__lottie_element_50" spreadMethod="pad" gradientUnits="userSpaceOnUse" cx="-0.5230000019073486" cy="-65.59300231933594" r="60.754998445510864" fx="-0.5230000019073486" fy="-65.59300231933594"><stop offset="0%" stop-color="rgb(255,168,0)" stop-opacity="1"></stop><stop offset="50%" stop-color="rgb(255,168,0)" stop-opacity="0.5"></stop><stop offset="100%" stop-color="rgb(255,168,0)" stop-opacity="0"></stop></radialGradient><radialGradient id="__lottie_element_51" spreadMethod="pad" gradientUnits="userSpaceOnUse" cx="-0.5230000019073486" cy="-86.59300231933594" r="36.41800045967102" fx="-0.5230000019073486" fy="-86.59300231933594"><stop offset="0%" stop-color="rgb(255,168,0)" stop-opacity="1"></stop><stop offset="50%" stop-color="rgb(255,168,0)" stop-opacity="0.5"></stop><stop offset="100%" stop-color="rgb(255,168,0)" stop-opacity="0"></stop></radialGradient></defs><g clip-path="url(#__lottie_element_2)"><g style="display: block;" transform="matrix(1,0,0,1,256,256)" opacity="1"><g opacity="1" transform="matrix(1,0,0,1,0,0)"><path fill="rgb(255,168,0)" fill-opacity="1" d=" M-170.48599243164062,15.730999946594238 C-170.48599243164062,15.730999946594238 -180.35499572753906,7.172999858856201 -186.23899841308594,19.236000061035156 C-193.2480010986328,33.604000091552734 -179.68600463867188,93.5459976196289 -169.85000610351562,101.16799926757812 C-156.74200439453125,111.32499694824219 -138.36300659179688,81.12000274658203 -170.48599243164062,15.730999946594238z"></path><path stroke-linecap="round" stroke-linejoin="round" fill-opacity="0" stroke="rgb(219,110,0)" stroke-opacity="1" stroke-width="8" d=" M-170.48599243164062,15.730999946594238 C-170.48599243164062,15.730999946594238 -180.35499572753906,7.172999858856201 -186.23899841308594,19.236000061035156 C-193.2480010986328,33.604000091552734 -179.68600463867188,93.5459976196289 -169.85000610351562,101.16799926757812 C-156.74200439453125,111.32499694824219 -138.36300659179688,81.12000274658203 -170.48599243164062,15.730999946594238z"></path></g><g opacity="1" transform="matrix(1,0,0,1,0,0)"><path fill="rgb(255,168,0)" fill-opacity="1" d=" M170.48599243164062,15.730999946594238 C170.48599243164062,15.730999946594238 180.35499572753906,7.172999858856201 186.23899841308594,19.236000061035156 C193.2480010986328,33.604000091552734 179.68600463867188,93.5459976196289 169.85000610351562,101.16799926757812 C156.74200439453125,111.32499694824219 138.36300659179688,81.12000274658203 170.48599243164062,15.730999946594238z"></path><path stroke-linecap="round" stroke-linejoin="round" fill-opacity="0" stroke="rgb(219,110,0)" stroke-opacity="1" stroke-width="8" d=" M170.48599243164062,15.730999946594238 C170.48599243164062,15.730999946594238 180.35499572753906,7.172999858856201 186.23899841308594,19.236000061035156 C193.2480010986328,33.604000091552734 179.68600463867188,93.5459976196289 169.85000610351562,101.16799926757812 C156.74200439453125,111.32499694824219 138.36300659179688,81.12000274658203 170.48599243164062,15.730999946594238z"></path></g></g><g style="display: block;" transform="matrix(1,0,0,1,256,256)" opacity="1"><g opacity="1" transform="matrix(1,0,0,1,0,0)"><path fill="rgb(255,168,0)" fill-opacity="1" d=" M-0.07900000363588333,-168.3209991455078 C-167.05599975585938,-168.3209991455078 -187.8520050048828,11.173999786376953 -160.66299438476562,91.20500183105469 C-135.5189971923828,165.21600341796875 -96.11499786376953,171.44900512695312 -77.23400115966797,187.3800048828125 C-58.35300064086914,203.31100463867188 -34.869998931884766,216.40899658203125 -0.07900000363588333,216.40899658203125 C34.71200180053711,216.40899658203125 58.19599914550781,203.31100463867188 77.0770034790039,187.3800048828125 C95.95800018310547,171.44900512695312 135.36199951171875,165.21600341796875 160.50599670410156,91.20500183105469 C187.69500732421875,11.173999786376953 166.8979949951172,-168.3209991455078 -0.07900000363588333,-168.3209991455078z"></path></g><g opacity="1" transform="matrix(1,0,0,1,0,0)"><path fill="url(#__lottie_element_48)" fill-opacity="1" d=" M-0.07900000363588333,-168.3209991455078 C-167.05599975585938,-168.3209991455078 -187.8520050048828,11.173999786376953 -160.66299438476562,91.20500183105469 C-135.5189971923828,165.21600341796875 -96.11499786376953,171.44900512695312 -77.23400115966797,187.3800048828125 C-58.35300064086914,203.31100463867188 -34.869998931884766,216.40899658203125 -0.07900000363588333,216.40899658203125 C34.71200180053711,216.40899658203125 58.19599914550781,203.31100463867188 77.0770034790039,187.3800048828125 C95.95800018310547,171.44900512695312 135.36199951171875,165.21600341796875 160.50599670410156,91.20500183105469 C187.69500732421875,11.173999786376953 166.8979949951172,-168.3209991455078 -0.07900000363588333,-168.3209991455078z"></path></g><g opacity="1" transform="matrix(1,0,0,1,0,0)"><path fill="url(#__lottie_element_49)" fill-opacity="1" d=" M73.15699768066406,157.65699768066406 C63.58700180053711,159.88699340820312 53.09700012207031,195.76699829101562 -0.08299999684095383,195.76699829101562 C-50.94300079345703,195.76699829101562 -66.44300079345703,160.01699829101562 -74.21299743652344,158.56700134277344 C-134.59300231933594,147.27699279785156 -163.8730010986328,80.40699768066406 -154.4429931640625,37.75699996948242 C-148.2729949951172,9.866999626159668 -147.3730010986328,3.796999931335449 -147.0330047607422,-20.003000259399414 C-146.73300170898438,-40.75299835205078 -111.79299926757812,-75.2229995727539 -111.79299926757812,-75.2229995727539 C-103.76300048828125,-62.26300048828125 -78.53299713134766,-98.54299926757812 -78.53299713134766,-98.54299926757812 C-78.53299713134766,-98.54299926757812 -73.66300201416016,-89.37300109863281 -70.21299743652344,-89.37300109863281 C-64.18299865722656,-89.37300109863281 -59.042999267578125,-124.2229995727539 -63.58300018310547,-143.7830047607422 C-43.34299850463867,-115.9530029296875 11.456999778747559,-114.00299835205078 36.266998291015625,-102.822998046875 C73.63700103759766,-85.9729995727539 81.8270034790039,-58.49300003051758 83.53700256347656,-82.58300018310547 C83.53700256347656,-82.58300018310547 89.65699768066406,-78.79299926757812 104.63700103759766,-74.64299774169922 C115.24700164794922,-71.7030029296875 143.9770050048828,-73.64299774169922 139.39700317382812,-47.10300064086914 C134.3769989013672,-18.05299949645996 149.177001953125,9.467000007629395 153.0970001220703,37.75699996948242 C160.5070037841797,91.20700073242188 130.93699645996094,144.20700073242188 73.15699768066406,157.65699768066406z"></path></g><g opacity="1" transform="matrix(1,0,0,1,0,0)"><path stroke-linecap="round" stroke-linejoin="round" fill-opacity="0" stroke="rgb(219,110,0)" stroke-opacity="1" stroke-width="8" d=" M-0.07900000363588333,-168.3209991455078 C-167.05599975585938,-168.3209991455078 -187.8520050048828,11.173999786376953 -160.66299438476562,91.20500183105469 C-135.5189971923828,165.21600341796875 -96.11499786376953,171.44900512695312 -77.23400115966797,187.3800048828125 C-58.35300064086914,203.31100463867188 -34.869998931884766,216.40899658203125 -0.07900000363588333,216.40899658203125 C34.71200180053711,216.40899658203125 58.19599914550781,203.31100463867188 77.0770034790039,187.3800048828125 C95.95800018310547,171.44900512695312 135.36199951171875,165.21600341796875 160.50599670410156,91.20500183105469 C187.69500732421875,11.173999786376953 166.8979949951172,-168.3209991455078 -0.07900000363588333,-168.3209991455078z"></path></g><g opacity="1" transform="matrix(1,0,0,1,0,0)"><g opacity="1" transform="matrix(1,0,0,1,0,0)"><path fill="url(#__lottie_element_50)" fill-opacity="1" d=" M-71.00299835205078,-68.322998046875 C-25.756000518798828,-68.91400146484375 23.933000564575195,-68.63899993896484 69.18800354003906,-68.28199768066406 C71.9209976196289,-68.21499633789062 72.22100067138672,-64.7030029296875 69.44499969482422,-64.36100006103516 C57.78200149536133,-62.97100067138672 46.05400085449219,-62.034000396728516 34.314998626708984,-61.5099983215332 C10.850000381469727,-60.38800048828125 -12.692999839782715,-60.45199966430664 -36.15800094604492,-61.54600143432617 C-47.893001556396484,-62.108001708984375 -59.59700012207031,-62.91899871826172 -71.29299926757812,-64.31999969482422 C-74.072998046875,-64.66699981689453 -73.87899780273438,-68.2760009765625 -71.00299835205078,-68.322998046875z"></path></g></g><g opacity="1" transform="matrix(1,0,0,1,0,0)"><g opacity="1" transform="matrix(1,0,0,1,0,0)"><path fill="url(#__lottie_element_51)" fill-opacity="1" d=" M-42.3390007019043,-89.19499969482422 C-15.253000259399414,-89.6709976196289 13.458000183105469,-89.11000061035156 40.569000244140625,-88.6969985961914 C41.5359992980957,-88.66400146484375 42.290000915527344,-87.96299743652344 42.25199890136719,-87.12999725341797 C42.21900177001953,-86.41300201416016 41.611000061035156,-85.83300018310547 40.82600021362305,-85.70500183105469 C33.9379997253418,-84.58599853515625 26.981000900268555,-83.81500244140625 20.011999130249023,-83.35700225830078 C9.557999610900879,-82.60600280761719 -0.9279999732971191,-82.45500183105469 -11.404999732971191,-82.66699981689453 C-21.90999984741211,-82.9800033569336 -32.323001861572266,-83.58499908447266 -42.71799850463867,-85.20800018310547 C-45.4630012512207,-85.65399932861328 -45.10599899291992,-89.14900207519531 -42.3390007019043,-89.19499969482422z"></path></g></g></g><g style="display: block;" transform="matrix(1,0,0,1,256,256)" opacity="1"><g opacity="1" transform="matrix(1,0,0,1,0,0)"><path fill="url(#__lottie_element_43)" fill-opacity="0.5" d=" M35.66299819946289,32.32600021362305 C35.66299819946289,32.32600021362305 40.0880012512207,58.141998291015625 67.96499633789062,63.12200164794922 C95.84200286865234,68.10199737548828 118.2229995727539,46.060001373291016 122.87699890136719,29.239999771118164 C122.87699890136719,29.239999771118164 35.66299819946289,32.32600021362305 35.66299819946289,32.32600021362305z"></path></g><g opacity="1" transform="matrix(1,0,0,1,0,0)"><path fill="url(#__lottie_element_44)" fill-opacity="0.5" d=" M-37.61899948120117,32.32600021362305 C-37.61899948120117,32.32600021362305 -42.04499816894531,58.141998291015625 -69.9219970703125,63.12200164794922 C-97.79900360107422,68.10199737548828 -120.18000030517578,46.060001373291016 -124.83399963378906,29.239999771118164 C-124.83399963378906,29.239999771118164 -37.61899948120117,32.32600021362305 -37.61899948120117,32.32600021362305z"></path></g></g><g style="display: block;" transform="matrix(1.0499999523162842,0,0,1.0499999523162842,255.7624053955078,236.92495727539062)" opacity="1"><g opacity="1" transform="matrix(1,0,0,1,-5.5,0.75)"><g opacity="1" transform="matrix(1,0,0,1,0,0)"><path fill="rgb(255,255,255)" fill-opacity="1" d=" M-30.263999938964844,48.715999603271484 C-30.263999938964844,48.715999603271484 -36.36600112915039,8.258000373840332 -69.34100341796875,8.26099967956543 C-100.10800170898438,8.263999938964844 -113.64199829101562,37.54600143432617 -113.64199829101562,45.76599884033203 C-113.64199829101562,45.76599884033203 -101.26200103759766,67.1969985961914 -71.39199829101562,67.1709976196289 C-37.74100112915039,67.14099884033203 -30.263999938964844,48.715999603271484 -30.263999938964844,48.715999603271484z"></path></g><g opacity="1" transform="matrix(0.9136199951171875,0,0,0.9136199951171875,1.2163848876953125,44.602149963378906)"><g opacity="1" transform="matrix(1,0,0,1,0,0)"><path fill="url(#__lottie_element_34)" fill-opacity="1" d=" M-52.59600067138672,-7.182000160217285 C-52.59600067138672,8.140000343322754 -64.71399688720703,20.559999465942383 -79.66100311279297,20.559999465942383 C-94.60900115966797,20.559999465942383 -106.72599792480469,8.140000343322754 -106.72599792480469,-7.182000160217285 C-106.72599792480469,-22.503999710083008 -94.60900115966797,-34.92499923706055 -79.66100311279297,-34.92499923706055 C-64.71399688720703,-34.92499923706055 -52.59600067138672,-22.503999710083008 -52.59600067138672,-7.182000160217285z"></path></g><g opacity="1" transform="matrix(1,0,0,1,0,0)"><g opacity="1" transform="matrix(1,0,0,1,0,0)"><path fill="url(#__lottie_element_35)" fill-opacity="1" d=" M-72.83399963378906,19.295000076293945 C-74.9489974975586,19.295000076293945 -76.90799713134766,17.895000457763672 -77.56400299072266,15.71500015258789 C-78.37000274658203,13.036999702453613 -76.90499877929688,10.196000099182129 -74.29199981689453,9.369999885559082 C-69.29399871826172,7.789999961853027 -65.31500244140625,3.809999942779541 -63.650001525878906,-1.2760000228881836 C-62.779998779296875,-3.934000015258789 -59.96900177001953,-5.361999988555908 -57.38199996948242,-4.4720001220703125 C-54.790000915527344,-3.5810000896453857 -53.39400100708008,-0.703000009059906 -54.263999938964844,1.9539999961853027 C-56.941001892089844,10.130000114440918 -63.33599853515625,16.527000427246094 -71.3740005493164,19.06800079345703 C-71.86000061035156,19.222000122070312 -72.35199737548828,19.295000076293945 -72.83399963378906,19.295000076293945z"></path></g></g><g opacity="1" transform="matrix(1,0,0,1,0,0)"><path fill="rgb(24,19,9)" fill-opacity="1" d=" M-62.555999755859375,-7.182000160217285 C-62.555999755859375,2.500999927520752 -70.21399688720703,10.35099983215332 -79.66100311279297,10.35099983215332 C-89.10800170898438,10.35099983215332 -96.76599884033203,2.500999927520752 -96.76599884033203,-7.182000160217285 C-96.76599884033203,-16.864999771118164 -89.10800170898438,-24.71500015258789 -79.66100311279297,-24.71500015258789 C-70.21399688720703,-24.71500015258789 -62.555999755859375,-16.864999771118164 -62.555999755859375,-7.182000160217285z"></path></g><g opacity="1" transform="matrix(1,0,0,1,0,0)"><path fill="url(#__lottie_element_36)" fill-opacity="1" d=" M-87.6719970703125,-15.805000305175781 C-91.3489990234375,-15.805000305175781 -94.33100128173828,-18.71299934387207 -94.33100128173828,-22.299999237060547 C-94.33100128173828,-25.886999130249023 -91.3499984741211,-28.79599952697754 -87.6729965209961,-28.79599952697754 C-83.99600219726562,-28.79599952697754 -81.01399993896484,-25.886999130249023 -81.01399993896484,-22.299999237060547 C-81.01399993896484,-18.71299934387207 -83.99500274658203,-15.805000305175781 -87.6719970703125,-15.805000305175781z"></path></g></g><g opacity="1" transform="matrix(1,0,0,1,0,0)"><path fill="rgb(163,65,0)" fill-opacity="1" d=" M-30.590999603271484,43.02299880981445 C-30.590999603271484,43.02299880981445 -38.10499954223633,5.495999813079834 -70.4010009765625,5.834000110626221 C-102.697998046875,6.171999931335449 -112.34400177001953,36.6510009765625 -113.64199829101562,45.76599884033203 C-113.64199829101562,45.76599884033203 -107.20600128173828,9.097999572753906 -70.4010009765625,8.6850004196167 C-39.91999816894531,8.343000411987305 -30.590999603271484,43.02299880981445 -30.590999603271484,43.02299880981445z"></path><path stroke-linecap="round" stroke-linejoin="round" fill-opacity="0" stroke="rgb(163,65,0)" stroke-opacity="1" stroke-width="2" d=" M-30.590999603271484,43.02299880981445 C-30.590999603271484,43.02299880981445 -38.10499954223633,5.495999813079834 -70.4010009765625,5.834000110626221 C-102.697998046875,6.171999931335449 -112.34400177001953,36.6510009765625 -113.64199829101562,45.76599884033203 C-113.64199829101562,45.76599884033203 -107.20600128173828,9.097999572753906 -70.4010009765625,8.6850004196167 C-39.91999816894531,8.343000411987305 -30.590999603271484,43.02299880981445 -30.590999603271484,43.02299880981445z"></path></g></g><g opacity="1" transform="matrix(1,0,0,1,5.5,1)"><g opacity="1" transform="matrix(1,0,0,1,0,0)"><path fill="rgb(255,255,255)" fill-opacity="1" d=" M29.76799964904785,48.715999603271484 C29.76799964904785,48.715999603271484 35.86899948120117,8.258000373840332 68.84400177001953,8.26099967956543 C99.61100006103516,8.263999938964844 113.1449966430664,37.54600143432617 113.1449966430664,45.76599884033203 C113.1449966430664,45.76599884033203 100.76499938964844,67.1969985961914 70.8949966430664,67.1709976196289 C37.24399948120117,67.14099884033203 29.76799964904785,48.715999603271484 29.76799964904785,48.715999603271484z"></path></g><g opacity="1" transform="matrix(0.9136199951171875,0,0,0.9136199951171875,143.90438842773438,44.602149963378906)"><g opacity="1" transform="matrix(1,0,0,1,0,0)"><path fill="url(#__lottie_element_37)" fill-opacity="1" d=" M-52.59600067138672,-7.182000160217285 C-52.59600067138672,8.140000343322754 -64.71399688720703,20.559999465942383 -79.66100311279297,20.559999465942383 C-94.60900115966797,20.559999465942383 -106.72599792480469,8.140000343322754 -106.72599792480469,-7.182000160217285 C-106.72599792480469,-22.503999710083008 -94.60900115966797,-34.92499923706055 -79.66100311279297,-34.92499923706055 C-64.71399688720703,-34.92499923706055 -52.59600067138672,-22.503999710083008 -52.59600067138672,-7.182000160217285z"></path></g><g opacity="1" transform="matrix(1,0,0,1,0,0)"><g opacity="1" transform="matrix(1,0,0,1,0,0)"><path fill="url(#__lottie_element_38)" fill-opacity="1" d=" M-72.83399963378906,19.295000076293945 C-74.9489974975586,19.295000076293945 -76.90799713134766,17.895000457763672 -77.56400299072266,15.71500015258789 C-78.37000274658203,13.036999702453613 -76.90499877929688,10.196000099182129 -74.29199981689453,9.369999885559082 C-69.29399871826172,7.789999961853027 -65.31500244140625,3.809999942779541 -63.650001525878906,-1.2760000228881836 C-62.779998779296875,-3.934000015258789 -59.96900177001953,-5.361999988555908 -57.38199996948242,-4.4720001220703125 C-54.790000915527344,-3.5810000896453857 -53.39400100708008,-0.703000009059906 -54.263999938964844,1.9539999961853027 C-56.941001892089844,10.130000114440918 -63.33599853515625,16.527000427246094 -71.3740005493164,19.06800079345703 C-71.86000061035156,19.222000122070312 -72.35199737548828,19.295000076293945 -72.83399963378906,19.295000076293945z"></path></g></g><g opacity="1" transform="matrix(1,0,0,1,0,0)"><path fill="rgb(24,19,9)" fill-opacity="1" d=" M-62.555999755859375,-7.182000160217285 C-62.555999755859375,2.500999927520752 -70.21399688720703,10.35099983215332 -79.66100311279297,10.35099983215332 C-89.10800170898438,10.35099983215332 -96.76599884033203,2.500999927520752 -96.76599884033203,-7.182000160217285 C-96.76599884033203,-16.864999771118164 -89.10800170898438,-24.71500015258789 -79.66100311279297,-24.71500015258789 C-70.21399688720703,-24.71500015258789 -62.555999755859375,-16.864999771118164 -62.555999755859375,-7.182000160217285z"></path></g><g opacity="1" transform="matrix(1,0,0,1,0,0)"><path fill="url(#__lottie_element_39)" fill-opacity="1" d=" M-87.6719970703125,-15.805000305175781 C-91.3489990234375,-15.805000305175781 -94.33100128173828,-18.71299934387207 -94.33100128173828,-22.299999237060547 C-94.33100128173828,-25.886999130249023 -91.3499984741211,-28.79599952697754 -87.6729965209961,-28.79599952697754 C-83.99600219726562,-28.79599952697754 -81.01399993896484,-25.886999130249023 -81.01399993896484,-22.299999237060547 C-81.01399993896484,-18.71299934387207 -83.99500274658203,-15.805000305175781 -87.6719970703125,-15.805000305175781z"></path></g></g><g opacity="1" transform="matrix(1,0,0,1,0,0)"><path fill="rgb(163,65,0)" fill-opacity="1" d=" M30.094999313354492,43.02299880981445 C30.094999313354492,43.02299880981445 37.608001708984375,5.495999813079834 69.90499877929688,5.834000110626221 C102.20099639892578,6.171999931335449 111.84700012207031,36.6510009765625 113.1449966430664,45.76599884033203 C113.1449966430664,45.76599884033203 106.70999908447266,9.097999572753906 69.90499877929688,8.6850004196167 C39.42399978637695,8.343000411987305 30.094999313354492,43.02299880981445 30.094999313354492,43.02299880981445z"></path><path stroke-linecap="round" stroke-linejoin="round" fill-opacity="0" stroke="rgb(163,65,0)" stroke-opacity="1" stroke-width="2" d=" M30.094999313354492,43.02299880981445 C30.094999313354492,43.02299880981445 37.608001708984375,5.495999813079834 69.90499877929688,5.834000110626221 C102.20099639892578,6.171999931335449 111.84700012207031,36.6510009765625 113.1449966430664,45.76599884033203 C113.1449966430664,45.76599884033203 106.70999908447266,9.097999572753906 69.90499877929688,8.6850004196167 C39.42399978637695,8.343000411987305 30.094999313354492,43.02299880981445 30.094999313354492,43.02299880981445z"></path></g></g></g><g style="display: block;" transform="matrix(1.0590499639511108,0,0,0.9607499837875366,256.0439147949219,257.82061767578125)" opacity="1"><g opacity="1" transform="matrix(1,0,0,1,0,0)"><path fill="url(#__lottie_element_26)" fill-opacity="0.5" d=" M44.55099868774414,130.90699768066406 C46.393001556396484,122.82499694824219 22.225000381469727,127.14900207519531 -1.1349999904632568,127.21700286865234 C-24.4950008392334,127.28500366210938 -47.04800033569336,123.09600067138672 -45.516998291015625,130.90699768066406 C-46.185001373291016,134.27200317382812 -31.29800033569336,157.85299682617188 -0.4909999966621399,157.85299682617188 C29.792999267578125,157.85299682617188 45.018001556396484,134.45700073242188 44.55099868774414,130.90699768066406z"></path></g><g opacity="1" transform="matrix(1,0,0,1,0,0)"><path fill="rgb(136,24,4)" fill-opacity="1" d=" M43.395999908447266,127.49700164794922 C41.66699981689453,124.01899719238281 36.93899917602539,124.58200073242188 -0.4830000102519989,124.58200073242188 C-37.00299835205078,124.58200073242188 -42.42399978637695,124.13899993896484 -44.36199951171875,127.49700164794922 C-46.0629997253418,130.44400024414062 -31.29800033569336,151.7050018310547 -0.4909999966621399,151.7050018310547 C29.792999267578125,151.7050018310547 44.979000091552734,130.68099975585938 43.395999908447266,127.49700164794922z"></path></g><g opacity="1" transform="matrix(1,0,0,1,0,0)"><path fill="url(#__lottie_element_27)" fill-opacity="1" d=" M43.395999908447266,127.49700164794922 C41.66699981689453,124.01899719238281 36.93899917602539,124.58200073242188 -0.4830000102519989,124.58200073242188 C-37.00299835205078,124.58200073242188 -42.42399978637695,124.13899993896484 -44.36199951171875,127.49700164794922 C-46.0629997253418,130.44400024414062 -31.29800033569336,151.7050018310547 -0.4909999966621399,151.7050018310547 C29.792999267578125,151.7050018310547 44.979000091552734,130.68099975585938 43.395999908447266,127.49700164794922z"></path></g><g opacity="1" transform="matrix(1,0,0,1,0,0)"><path fill="url(#__lottie_element_28)" fill-opacity="0.5" d=" M29.562999725341797,159.6269989013672 C29.562999725341797,164.99899291992188 20.43000030517578,173.77699279785156 -0.4909999966621399,173.77699279785156 C-21.41200065612793,173.77699279785156 -30.54599952697754,164.99899291992188 -30.54599952697754,159.6269989013672 C-30.54599952697754,154.2550048828125 -21.41200065612793,160.6269989013672 -0.4909999966621399,160.6269989013672 C20.43000030517578,160.6269989013672 29.562999725341797,154.2550048828125 29.562999725341797,159.6269989013672z"></path></g><g opacity="1" transform="matrix(1,0,0,1,-0.25,0)"><g opacity="1" transform="matrix(-1,0,0,1,4.25,0)"><path fill="url(#__lottie_element_29)" fill-opacity="0.8" d=" M-50.624000549316406,134.16400146484375 C-45.95100021362305,127.125 -34.00600051879883,112.33100128173828 -36.915000915527344,110.3499984741211 C-39.82400131225586,108.36900329589844 -51.141998291015625,116.822998046875 -58.63800048828125,130.51400756835938 C-62.367000579833984,137.3249969482422 -70.46800231933594,160.16600036621094 -65.56300354003906,161.49200439453125 C-62.31399917602539,162.3699951171875 -58.88199996948242,146.60299682617188 -50.624000549316406,134.16400146484375z"></path></g><g opacity="1" transform="matrix(1,0,0,1,-4.122000217437744,0)"><path fill="url(#__lottie_element_30)" fill-opacity="0.8" d=" M-50.624000549316406,134.16400146484375 C-45.95100021362305,127.125 -34.00600051879883,112.33100128173828 -36.915000915527344,110.3499984741211 C-39.82400131225586,108.36900329589844 -51.141998291015625,116.822998046875 -58.63800048828125,130.51400756835938 C-62.367000579833984,137.3249969482422 -70.46800231933594,160.16600036621094 -65.56300354003906,161.49200439453125 C-62.31399917602539,162.3699951171875 -58.88199996948242,146.60299682617188 -50.624000549316406,134.16400146484375z"></path></g></g></g><g style="display: block;" transform="matrix(0.7900000214576721,0,0,0.7900000214576721,259.59375,287.1987609863281)" opacity="1"><g opacity="1" transform="matrix(1,0,0,1,0,0)"><path fill="url(#__lottie_element_19)" fill-opacity="0.7000000000000001" d=" M21.486000061035156,77.85600280761719 C21.486000061035156,88.90499877929688 8.708000183105469,98.72799682617188 -5.205999851226807,98.72799682617188 C-19.1200008392334,98.72799682617188 -31.89900016784668,88.90499877929688 -31.89900016784668,77.85600280761719 C-31.89900016784668,66.80799865722656 -19.1200008392334,56.678001403808594 -5.205999851226807,56.678001403808594 C8.708000183105469,56.678001403808594 21.486000061035156,66.80799865722656 21.486000061035156,77.85600280761719z"></path></g><g opacity="1" transform="matrix(1,0,0,1,0,0)"><path fill="rgb(255,168,0)" fill-opacity="0.8" d=" M21.486000061035156,65.87899780273438 C21.486000061035156,76.927001953125 9.53600025177002,85.10600280761719 -5.205999851226807,85.10600280761719 C-19.947999954223633,85.10600280761719 -31.89900016784668,76.927001953125 -31.89900016784668,65.87899780273438 C-31.89900016784668,54.83100128173828 -19.947999954223633,46.34600067138672 -5.205999851226807,46.34600067138672 C9.53600025177002,46.34600067138672 21.486000061035156,54.83100128173828 21.486000061035156,65.87899780273438z"></path></g><g opacity="1" transform="matrix(1,0,0,1,0,0)"><path fill="url(#__lottie_element_20)" fill-opacity="0.7000000000000001" d=" M21.486000061035156,65.87899780273438 C21.486000061035156,76.927001953125 9.53600025177002,85.10600280761719 -5.205999851226807,85.10600280761719 C-19.947999954223633,85.10600280761719 -31.89900016784668,76.927001953125 -31.89900016784668,65.87899780273438 C-31.89900016784668,54.83100128173828 -19.947999954223633,46.34600067138672 -5.205999851226807,46.34600067138672 C9.53600025177002,46.34600067138672 21.486000061035156,54.83100128173828 21.486000061035156,65.87899780273438z"></path></g><g opacity="1" transform="matrix(1,0,0,1,0,0)"><path fill="rgb(255,216,0)" fill-opacity="1" d=" M18.868000030517578,60.762001037597656 C18.868000030517578,68.98699951171875 10.666999816894531,76.85099792480469 -5.205999851226807,76.85099792480469 C-21.295000076293945,76.85099792480469 -29.280000686645508,68.98699951171875 -29.280000686645508,60.762001037597656 C-29.280000686645508,52.5369987487793 -17.958999633789062,46.02299880981445 -5.205999851226807,46.02299880981445 C7.546999931335449,46.02299880981445 18.868000030517578,52.5369987487793 18.868000030517578,60.762001037597656z"></path></g><g opacity="1" transform="matrix(1,0,0,1,0,0)"><path fill="url(#__lottie_element_21)" fill-opacity="1" d=" M18.868000030517578,60.762001037597656 C18.868000030517578,68.98699951171875 10.666999816894531,76.85099792480469 -5.205999851226807,76.85099792480469 C-21.295000076293945,76.85099792480469 -29.280000686645508,68.98699951171875 -29.280000686645508,60.762001037597656 C-29.280000686645508,52.5369987487793 -17.958999633789062,46.02299880981445 -5.205999851226807,46.02299880981445 C7.546999931335449,46.02299880981445 18.868000030517578,52.5369987487793 18.868000030517578,60.762001037597656z"></path></g><g opacity="1" transform="matrix(1,0,0,1,0,0)"><path fill="url(#__lottie_element_22)" fill-opacity="0.7000000000000001" d=" M8.605999946594238,54.4010009765625 C8.605999946594238,58.73099899291992 2.421999931335449,62.803001403808594 -5.205999851226807,62.803001403808594 C-12.833999633789062,62.803001403808594 -19.018999099731445,58.73099899291992 -19.018999099731445,54.4010009765625 C-19.018999099731445,50.07099914550781 -12.833999633789062,47.89899826049805 -5.205999851226807,47.89899826049805 C2.421999931335449,47.89899826049805 8.605999946594238,50.07099914550781 8.605999946594238,54.4010009765625z"></path></g></g><g style="display: block;" transform="matrix(1,0,0,1,256,255.99998474121094)" opacity="1"><g opacity="0.6" transform="matrix(1,0,0,1,0,0)"><g opacity="1" transform="matrix(1,0,0,1,0,0)"><path stroke-linecap="round" stroke-linejoin="round" fill-opacity="0" stroke="rgb(255,164,0)" stroke-opacity="1" stroke-width="6" d=" M-34.555999755859375,31.190000534057617 C-34.555999755859375,31.190000534057617 -2.684000015258789,7.86299991607666 33.50199890136719,31.190000534057617"></path></g><g opacity="1" transform="matrix(1,0,0,1,0,0)"><g opacity="1" transform="matrix(1,0,0,1,0,0)"><path stroke-linecap="round" stroke-linejoin="round" fill-opacity="0" stroke="rgb(255,164,0)" stroke-opacity="1" stroke-width="6" d=" M-126.63700103759766,33.880001068115234 C-126.63700103759766,33.880001068115234 -137.6439971923828,34.22700119018555 -140.2100067138672,34.27799987792969 C-149.09500122070312,34.45500183105469 -166.4709930419922,21.54400062561035 -166.4709930419922,21.54400062561035"></path></g><g opacity="1" transform="matrix(1,0,0,1,0,0)"><path stroke-linecap="round" stroke-linejoin="round" fill-opacity="0" stroke="rgb(255,164,0)" stroke-opacity="1" stroke-width="6" d=" M-132.3260040283203,35.40999984741211 C-132.3260040283203,35.40999984741211 -133.15699768066406,63.356998443603516 -103.14099884033203,72.79100036621094"></path></g></g><g opacity="1" transform="matrix(1,0,0,1,0,0)"><g opacity="1" transform="matrix(1,0,0,1,0,0)"><path stroke-linecap="round" stroke-linejoin="round" fill-opacity="0" stroke="rgb(255,164,0)" stroke-opacity="1" stroke-width="6" d=" M125.24700164794922,33.880001068115234 C125.24700164794922,33.880001068115234 136.2550048828125,34.22700119018555 138.8209991455078,34.27799987792969 C147.70599365234375,34.45500183105469 165.08099365234375,21.54400062561035 165.08099365234375,21.54400062561035"></path></g><g opacity="1" transform="matrix(1,0,0,1,0,0)"><path stroke-linecap="round" stroke-linejoin="round" fill-opacity="0" stroke="rgb(255,164,0)" stroke-opacity="1" stroke-width="6" d=" M130.93600463867188,35.40999984741211 C130.93600463867188,35.40999984741211 131.76699829101562,63.356998443603516 101.7509994506836,72.79100036621094"></path></g></g></g><g opacity="1" transform="matrix(1,0,0,1,0,0)"><g opacity="1" transform="matrix(1,0,0,1,0,0)"><path stroke-linecap="round" stroke-linejoin="round" fill-opacity="0" stroke="rgb(154,150,138)" stroke-opacity="1" stroke-width="6" d=" M-34.555999755859375,24.70199966430664 C-34.555999755859375,24.70199966430664 -1.8029999732971191,7.214000225067139 33.50199890136719,24.70199966430664"></path></g><g opacity="1" transform="matrix(1,0,0,1,0,0)"><path stroke-linecap="round" stroke-linejoin="round" fill-opacity="0" stroke="rgb(154,150,138)" stroke-opacity="1" stroke-width="6" d=" M-125.57099914550781,27.790000915527344 C-125.57099914550781,27.790000915527344 -140.2729949951172,28.204999923706055 -142.80599975585938,27.790000915527344 C-146.03199768066406,27.26099967956543 -166.4709930419922,13.758000373840332 -166.4709930419922,13.758000373840332"></path></g><g opacity="1" transform="matrix(1,0,0,1,0,0)"><path stroke-linecap="round" stroke-linejoin="round" fill-opacity="0" stroke="rgb(154,150,138)" stroke-opacity="1" stroke-width="6" d=" M124.17500305175781,27.790000915527344 C124.17500305175781,27.790000915527344 138.8769989013672,28.204999923706055 141.41000366210938,27.790000915527344 C144.63600158691406,27.26099967956543 163.77699279785156,13.758000373840332 163.77699279785156,13.758000373840332"></path></g><g opacity="1" transform="matrix(1,0,0,1,0,0)"><g opacity="1" transform="matrix(1,0,0,1,0,0)"><path stroke-linecap="round" stroke-linejoin="round" fill-opacity="0" stroke="rgb(154,150,138)" stroke-opacity="1" stroke-width="6" d=" M-34.27899932861328,37.005001068115234 C-34.27899932861328,59.108001708984375 -55.856998443603516,78.39199829101562 -80.77400207519531,78.39199829101562 C-105.69100189208984,78.39199829101562 -125.88999938964844,59.108001708984375 -125.88999938964844,37.005001068115234 C-125.88999938964844,14.902000427246094 -105.69100189208984,-0.2840000092983246 -80.77400207519531,-0.2840000092983246 C-55.856998443603516,-0.2840000092983246 -34.27899932861328,14.902000427246094 -34.27899932861328,37.005001068115234z"></path></g><g opacity="1" transform="matrix(1,0,0,1,0,0)"><path stroke-linecap="round" stroke-linejoin="round" fill-opacity="0" stroke="rgb(127,124,116)" stroke-opacity="1" stroke-width="6" d=" M-36.433998107910156,25.356000900268555 C-35.0369987487793,28.959999084472656 -34.27899932861328,32.861000061035156 -34.27899932861328,37.005001068115234 C-34.27899932861328,59.108001708984375 -55.856998443603516,78.39199829101562 -80.77400207519531,78.39199829101562 C-105.69100189208984,78.39199829101562 -125.88999938964844,59.108001708984375 -125.88999938964844,37.005001068115234 C-125.88999938964844,33.83700180053711 -125.4749984741211,30.81100082397461 -124.69000244140625,27.951000213623047"></path></g></g><g opacity="1" transform="matrix(1,0,0,1,0,0)"><g opacity="1" transform="matrix(1,0,0,1,0,0)"><path stroke-linecap="round" stroke-linejoin="round" fill-opacity="0" stroke="rgb(154,150,138)" stroke-opacity="1" stroke-width="6" d=" M32.8380012512207,37.005001068115234 C32.8380012512207,59.108001708984375 54.41600036621094,78.39199829101562 79.33300018310547,78.39199829101562 C104.25,78.39199829101562 124.4489974975586,59.108001708984375 124.4489974975586,37.005001068115234 C124.4489974975586,14.902000427246094 104.25,-0.2840000092983246 79.33300018310547,-0.2840000092983246 C54.41600036621094,-0.2840000092983246 32.8380012512207,14.902000427246094 32.8380012512207,37.005001068115234z"></path></g><g opacity="1" transform="matrix(1,0,0,1,0,0)"><path stroke-linecap="round" stroke-linejoin="round" fill-opacity="0" stroke="rgb(127,124,116)" stroke-opacity="1" stroke-width="6" d=" M34.99300003051758,25.356000900268555 C33.59600067138672,28.959999084472656 32.8380012512207,32.861000061035156 32.8380012512207,37.005001068115234 C32.8380012512207,59.108001708984375 54.41600036621094,78.39199829101562 79.33300018310547,78.39199829101562 C104.25,78.39199829101562 124.4489974975586,59.108001708984375 124.4489974975586,37.005001068115234 C124.4489974975586,33.83700180053711 124.03299713134766,30.81100082397461 123.2490005493164,27.951000213623047"></path></g></g></g></g><g style="display: block;" transform="matrix(1,0,0,1,256,256)" opacity="1"><g opacity="1" transform="matrix(1,0,0,1,0,0)"><path fill="rgb(255,206,1)" fill-opacity="1" d=" M-168.38600158691406,45.99399948120117 C-168.38600158691406,45.99399948120117 -154.98300170898438,22.038999557495117 -158.20799255371094,-19.888999938964844 C-158.7760009765625,-27.266000747680664 -148.8350067138672,-52.986000061035156 -129.76699829101562,-74.94400024414062 C-110.6989974975586,-96.9020004272461 -106.2699966430664,-102.22000122070312 -103.14099884033203,-121.23100280761719 C-103.14099884033203,-121.23100280761719 -101.31099700927734,-102.7979965209961 -103.14099884033203,-85.97799682617188 C-103.14099884033203,-85.97799682617188 -82.85199737548828,-103.45999908447266 -77.17400360107422,-130.73599243164062 C-77.17400360107422,-130.73599243164062 -78.01399993896484,-114.61900329589844 -67.72899627685547,-103.0469970703125 C-67.72899627685547,-103.0469970703125 -60.027000427246094,-134.45599365234375 -64.31500244140625,-155.1199951171875 C-64.31500244140625,-155.1199951171875 -48.70800018310547,-131.33099365234375 0,-124.3010025024414 C61.367000579833984,-115.44400024414062 79.44100189208984,-82.5790023803711 79.44100189208984,-82.5790023803711 C79.44100189208984,-82.5790023803711 78.89399719238281,-97.552001953125 73.35600280761719,-115.6780014038086 C73.35600280761719,-115.6780014038086 89.6510009765625,-90.85099792480469 128.0030059814453,-77.78800201416016 C140.6269989013672,-73.48799896240234 144.197998046875,-62.22200012207031 143.9759979248047,-54.5629997253418 C143.75399780273438,-46.904998779296875 137.98899841308594,-30.45199966430664 152.63499450683594,-1.475000023841858 C164.8939971923828,22.777999877929688 161.75,35.058998107910156 165.08099365234375,40.349998474121094 C165.08099365234375,40.349998474121094 171.93499755859375,28.204999923706055 174.91000366210938,13.39799976348877 C174.91000366210938,13.39799976348877 175.72500610351562,13.185999870300293 177.47799682617188,12.78600025177002 C178.197998046875,12.621999740600586 179.875,12.78600025177002 179.875,12.78600025177002 C182.2429962158203,3.984999895095825 185.01300048828125,-8.232000350952148 187,-22.393999099731445 C191.83799743652344,-56.87699890136719 192.031005859375,-102.89900207519531 170.46099853515625,-139.26100158691406 C136.0279998779297,-197.30599975585938 54.5989990234375,-254.62100219726562 -50.680999755859375,-206.46099853515625 C-50.680999755859375,-206.46099853515625 -47.069000244140625,-223.77499389648438 -47.805999755859375,-223.77499389648438 C-48.542999267578125,-223.77499389648438 -79.02300262451172,-210.9409942626953 -82.21800231933594,-180.21600341796875 C-82.21800231933594,-180.21600341796875 -136.0449981689453,-195.8419952392578 -175.1929931640625,-130.40899658203125 C-214.34100341796875,-64.97599792480469 -179.78500366210938,10.574000358581543 -178.66700744628906,12.78600025177002 C-177.5489959716797,14.998000144958496 -174.08599853515625,45.67100143432617 -168.38600158691406,45.99399948120117z"></path></g><g opacity="1" transform="matrix(1,0,0,1,0,0)"><path fill="url(#__lottie_element_9)" fill-opacity="1" d=" M-168.38600158691406,45.99399948120117 C-168.38600158691406,45.99399948120117 -154.98300170898438,22.038999557495117 -158.20799255371094,-19.888999938964844 C-158.7760009765625,-27.266000747680664 -148.8350067138672,-52.986000061035156 -129.76699829101562,-74.94400024414062 C-110.6989974975586,-96.9020004272461 -106.2699966430664,-102.22000122070312 -103.14099884033203,-121.23100280761719 C-103.14099884033203,-121.23100280761719 -101.31099700927734,-102.7979965209961 -103.14099884033203,-85.97799682617188 C-103.14099884033203,-85.97799682617188 -82.85199737548828,-103.45999908447266 -77.17400360107422,-130.73599243164062 C-77.17400360107422,-130.73599243164062 -78.01399993896484,-114.61900329589844 -67.72899627685547,-103.0469970703125 C-67.72899627685547,-103.0469970703125 -60.027000427246094,-134.45599365234375 -64.31500244140625,-155.1199951171875 C-64.31500244140625,-155.1199951171875 -48.70800018310547,-131.33099365234375 0,-124.3010025024414 C61.367000579833984,-115.44400024414062 79.44100189208984,-82.5790023803711 79.44100189208984,-82.5790023803711 C79.44100189208984,-82.5790023803711 78.89399719238281,-97.552001953125 73.35600280761719,-115.6780014038086 C73.35600280761719,-115.6780014038086 89.6510009765625,-90.85099792480469 128.0030059814453,-77.78800201416016 C140.6269989013672,-73.48799896240234 144.197998046875,-62.22200012207031 143.9759979248047,-54.5629997253418 C143.75399780273438,-46.904998779296875 137.98899841308594,-30.45199966430664 152.63499450683594,-1.475000023841858 C164.8939971923828,22.777999877929688 161.75,35.058998107910156 165.08099365234375,40.349998474121094 C165.08099365234375,40.349998474121094 171.93499755859375,28.204999923706055 174.91000366210938,13.39799976348877 C174.91000366210938,13.39799976348877 175.72500610351562,13.185999870300293 177.47799682617188,12.78600025177002 C178.197998046875,12.621999740600586 179.875,12.78600025177002 179.875,12.78600025177002 C182.2429962158203,3.984999895095825 185.01300048828125,-8.232000350952148 187,-22.393999099731445 C191.83799743652344,-56.87699890136719 192.031005859375,-102.89900207519531 170.46099853515625,-139.26100158691406 C136.0279998779297,-197.30599975585938 54.5989990234375,-254.62100219726562 -50.680999755859375,-206.46099853515625 C-50.680999755859375,-206.46099853515625 -47.069000244140625,-223.77499389648438 -47.805999755859375,-223.77499389648438 C-48.542999267578125,-223.77499389648438 -79.02300262451172,-210.9409942626953 -82.21800231933594,-180.21600341796875 C-82.21800231933594,-180.21600341796875 -136.0449981689453,-195.8419952392578 -175.1929931640625,-130.40899658203125 C-214.34100341796875,-64.97599792480469 -179.78500366210938,10.574000358581543 -178.66700744628906,12.78600025177002 C-177.5489959716797,14.998000144958496 -174.08599853515625,45.67100143432617 -168.38600158691406,45.99399948120117z"></path></g><g opacity="1" transform="matrix(1,0,0,1,0,0)"><path fill="url(#__lottie_element_10)" fill-opacity="1" d=" M186.9969940185547,-22.39299964904785 C185.01699829101562,-8.232999801635742 182.2469940185547,3.986999988555908 179.8769989013672,12.786999702453613 C179.8769989013672,12.786999702453613 178.19700622558594,12.626999855041504 177.4770050048828,12.786999702453613 C175.7270050048828,13.187000274658203 174.90699768066406,13.397000312805176 174.90699768066406,13.397000312805176 C171.93699645996094,28.207000732421875 165.07699584960938,40.34700012207031 165.07699584960938,40.34700012207031 C161.7469940185547,35.05699920654297 164.89700317382812,22.777000427246094 152.63699340820312,-1.4730000495910645 C137.98699951171875,-30.452999114990234 143.7570037841797,-46.90299987792969 143.9770050048828,-54.5629997253418 C144.19700622558594,-62.222999572753906 140.6269989013672,-73.48300170898438 128.0070037841797,-77.78299713134766 C90.24700164794922,-90.65299987792969 73.86699676513672,-114.90299987792969 73.36699676513672,-115.65299987792969 C78.89700317382812,-97.54299926757812 79.43699645996094,-82.58300018310547 79.43699645996094,-82.58300018310547 C79.43699645996094,-82.58300018310547 61.367000579833984,-115.44300079345703 -0.003000000026077032,-124.3030014038086 C-48.702999114990234,-131.33299255371094 -64.31300354003906,-155.1230010986328 -64.31300354003906,-155.1230010986328 C-60.02299880981445,-134.4530029296875 -67.73300170898438,-103.04299926757812 -67.73300170898438,-103.04299926757812 C-78.01300048828125,-114.62300109863281 -77.1729965209961,-130.73300170898438 -77.1729965209961,-130.73300170898438 C-82.85299682617188,-103.46299743652344 -103.14299774169922,-85.9729995727539 -103.14299774169922,-85.9729995727539 C-101.31300354003906,-102.79299926757812 -103.14299774169922,-121.23300170898438 -103.14299774169922,-121.23300170898438 C-106.27300262451172,-102.2229995727539 -110.7030029296875,-96.90299987792969 -129.76300048828125,-74.94300079345703 C-148.83299255371094,-52.983001708984375 -158.7729949951172,-27.26300048828125 -158.21299743652344,-19.89299964904785 C-154.98300170898438,22.03700065612793 -168.38299560546875,45.99700164794922 -168.38299560546875,45.99700164794922 C-174.08299255371094,45.66699981689453 -177.55299377441406,14.996999740600586 -178.66299438476562,12.786999702453613 C-179.36300659179688,11.416999816894531 -192.85299682617188,-18.042999267578125 -193.76300048828125,-55.823001861572266 C-193.11300659179688,-51.33300018310547 -183.7530059814453,18.9689998626709 -164.57400512695312,-30.075000762939453 C-152.5989990234375,-60.69599914550781 -136.8699951171875,-67.68199920654297 -122.83399963378906,-87.37699890136719 C-109.08200073242188,-106.67500305175781 -106.81900024414062,-122.61199951171875 -106.81900024414062,-122.61199951171875 C-106.81900024414062,-122.61199951171875 -100.64700317382812,-125.49700164794922 -101.15299987792969,-116.88800048828125 C-101.15299987792969,-116.88800048828125 -99.21299743652344,-109.28299713134766 -99.21299743652344,-109.28299713134766 C-99.21299743652344,-109.28299713134766 -77.1729965209961,-143.7830047607422 -84.4229965209961,-168.322998046875 C-88.58899688720703,-182.4250030517578 -141.5229949951172,-172.66299438476562 -167.58299255371094,-136.7729949951172 C-171.4929962158203,-131.39300537109375 -174.43299865722656,-128.68299865722656 -176.6230010986328,-127.94300079345703 C-176.16299438476562,-128.7729949951172 -175.68299865722656,-129.59300231933594 -175.1929931640625,-130.41299438476562 C-136.04299926757812,-195.84300231933594 -82.21299743652344,-180.21299743652344 -82.21299743652344,-180.21299743652344 C-79.02300262451172,-210.9429931640625 -48.542999267578125,-223.7729949951172 -47.803001403808594,-223.7729949951172 C-47.0629997253418,-223.7729949951172 -50.68299865722656,-206.46299743652344 -50.68299865722656,-206.46299743652344 C54.58700180053711,-254.6230010986328 136.01699829101562,-197.31300354003906 170.44700622558594,-139.2729949951172 C169.4770050048828,-140.54299926757812 99.0770034790039,-231.86300659179688 -9.892999649047852,-207.8730010986328 C-32.60300064086914,-202.8730010986328 -53.76300048828125,-194.5229949951172 -55.12300109863281,-188.1929931640625 C-56.472999572753906,-181.86300659179688 -48.803001403808594,-154.1529998779297 -15.70300006866455,-143.7830047607422 C17.386999130249023,-133.41299438476562 46.249000549316406,-131.89700317382812 62.96699905395508,-115.052001953125 C62.96699905395508,-115.052001953125 58.58300018310547,-132.81900024414062 62.367000579833984,-139.4530029296875 C63.858001708984375,-142.0679931640625 93.13600158691406,-100.69200134277344 134.60499572753906,-78.91000366210938 C161.6929931640625,-64.68199920654297 148.6009979248047,-43.45399856567383 156.5489959716797,-26.913000106811523 C170.45599365234375,2.0299999713897705 184.99200439453125,-9.989999771118164 184.83599853515625,-82.70099639892578 C184.82899475097656,-85.86499786376953 188.56700134277344,-74.74299621582031 188.88699340820312,-77.43299865722656 C190.5570068359375,-57.99300003051758 189.3070068359375,-38.87300109863281 186.9969940185547,-22.39299964904785z"></path></g><g opacity="1" transform="matrix(1,0,0,1,0,0)"><path stroke-linecap="round" stroke-linejoin="round" fill-opacity="0" stroke="rgb(197,92,0)" stroke-opacity="1" stroke-width="8" d=" M-168.38600158691406,45.99399948120117 C-168.38600158691406,45.99399948120117 -154.98300170898438,22.038999557495117 -158.20799255371094,-19.888999938964844 C-158.7760009765625,-27.266000747680664 -148.8350067138672,-52.986000061035156 -129.76699829101562,-74.94400024414062 C-110.6989974975586,-96.9020004272461 -106.2699966430664,-102.22000122070312 -103.14099884033203,-121.23100280761719 C-103.14099884033203,-121.23100280761719 -101.31099700927734,-102.7979965209961 -103.14099884033203,-85.97799682617188 C-103.14099884033203,-85.97799682617188 -82.85199737548828,-103.45999908447266 -77.17400360107422,-130.73599243164062 C-77.17400360107422,-130.73599243164062 -78.01399993896484,-114.61900329589844 -67.72899627685547,-103.0469970703125 C-67.72899627685547,-103.0469970703125 -60.027000427246094,-134.45599365234375 -64.31500244140625,-155.1199951171875 C-64.31500244140625,-155.1199951171875 -48.70800018310547,-131.33099365234375 0,-124.3010025024414 C61.367000579833984,-115.44400024414062 79.44100189208984,-82.5790023803711 79.44100189208984,-82.5790023803711 C79.44100189208984,-82.5790023803711 78.89399719238281,-97.552001953125 73.35600280761719,-115.6780014038086 C73.35600280761719,-115.6780014038086 89.6510009765625,-90.85099792480469 128.0030059814453,-77.78800201416016 C140.6269989013672,-73.48799896240234 144.197998046875,-62.22200012207031 143.9759979248047,-54.5629997253418 C143.75399780273438,-46.904998779296875 137.98899841308594,-30.45199966430664 152.63499450683594,-1.475000023841858 C164.8939971923828,22.777999877929688 161.75,35.058998107910156 165.08099365234375,40.349998474121094 C165.08099365234375,40.349998474121094 171.93499755859375,28.204999923706055 174.91000366210938,13.39799976348877 C174.91000366210938,13.39799976348877 175.72500610351562,13.185999870300293 177.47799682617188,12.78600025177002 C178.197998046875,12.621999740600586 179.875,12.78600025177002 179.875,12.78600025177002 C182.2429962158203,3.984999895095825 185.01300048828125,-8.232000350952148 187,-22.393999099731445 C191.83799743652344,-56.87699890136719 192.031005859375,-102.89900207519531 170.46099853515625,-139.26100158691406 C136.0279998779297,-197.30599975585938 54.5989990234375,-254.62100219726562 -50.680999755859375,-206.46099853515625 C-50.680999755859375,-206.46099853515625 -47.069000244140625,-223.77499389648438 -47.805999755859375,-223.77499389648438 C-48.542999267578125,-223.77499389648438 -79.02300262451172,-210.9409942626953 -82.21800231933594,-180.21600341796875 C-82.21800231933594,-180.21600341796875 -136.0449981689453,-195.8419952392578 -175.1929931640625,-130.40899658203125 C-214.34100341796875,-64.97599792480469 -179.78500366210938,10.574000358581543 -178.66700744628906,12.78600025177002 C-177.5489959716797,14.998000144958496 -174.08599853515625,45.67100143432617 -168.38600158691406,45.99399948120117z"></path></g><g opacity="1" transform="matrix(1,0,0,1,0,0)"><path stroke-linecap="round" stroke-linejoin="round" fill-opacity="0" stroke="rgb(163,65,0)" stroke-opacity="1" stroke-width="8" d=" M-158.20799255371094,-19.888999938964844 C-158.7760009765625,-27.266000747680664 -148.8350067138672,-52.986000061035156 -129.76699829101562,-74.94400024414062 C-110.6989974975586,-96.9020004272461 -106.2699966430664,-102.22000122070312 -103.14099884033203,-121.23100280761719 C-103.14099884033203,-121.23100280761719 -101.31099700927734,-102.7979965209961 -103.14099884033203,-85.97799682617188 C-103.14099884033203,-85.97799682617188 -82.85199737548828,-103.45999908447266 -77.17400360107422,-130.73599243164062 C-77.17400360107422,-130.73599243164062 -78.01399993896484,-114.61900329589844 -67.72899627685547,-103.0469970703125 C-67.72899627685547,-103.0469970703125 -60.027000427246094,-134.45599365234375 -64.31500244140625,-155.1199951171875 C-64.31500244140625,-155.1199951171875 -48.70800018310547,-131.33099365234375 0,-124.3010025024414 C61.367000579833984,-115.44400024414062 79.44100189208984,-82.5790023803711 79.44100189208984,-82.5790023803711 C79.44100189208984,-82.5790023803711 78.89399719238281,-97.552001953125 73.35600280761719,-115.6780014038086 C73.35600280761719,-115.6780014038086 89.6510009765625,-90.85099792480469 128.0030059814453,-77.78800201416016 C140.6269989013672,-73.48799896240234 144.197998046875,-62.22200012207031 143.9759979248047,-54.5629997253418 C143.75399780273438,-46.904998779296875 137.98899841308594,-30.45199966430664 152.63499450683594,-1.475000023841858"></path></g><g opacity="1" transform="matrix(1,0,0,1,0,0)"><path fill="url(#__lottie_element_11)" fill-opacity="1" d=" M-55.12300109863281,-188.1929931640625 C-58.974998474121094,-181.1790008544922 -44.13100051879883,-144.36300659179688 0,-139.3419952392578 C44.13100051879883,-134.3209991455078 169.75,-119.21600341796875 142.8459930419922,-158.04400634765625 C115.94200134277344,-196.8719940185547 60.5629997253418,-216.2740020751953 13.111000061035156,-211.3419952392578 C-26.679000854492188,-207.20700073242188 -50.21900177001953,-197.1230010986328 -55.12300109863281,-188.1929931640625z"></path></g><g opacity="1" transform="matrix(1,0,0,1,0,0)"><path fill="url(#__lottie_element_12)" fill-opacity="1" d=" M-84.4229965209961,-168.322998046875 C-89.92900085449219,-175.16700744628906 -146.8090057373047,-177.24899291992188 -172.61399841308594,-110.23899841308594 C-198.41900634765625,-43.229000091552734 -94.03800201416016,-130.5709991455078 -87.5,-143.7830047607422 C-80.96199798583984,-156.9949951171875 -82.44100189208984,-165.85899353027344 -84.4229965209961,-168.322998046875z"></path></g></g><g style="display: block;" transform="matrix(1,0,0,1,256,256)" opacity="1"><g opacity="1" transform="matrix(1,0,0,1,0,0)"><path fill="rgb(163,65,0)" fill-opacity="1" d=" M107.65699768066406,-32.45800018310547 C109.50499725341797,-36.3390007019043 89.81300354003906,-47.930999755859375 66.6520004272461,-47.053001403808594 C47.58100128173828,-46.33000183105469 45.32600021362305,-40.577999114990234 46.50600051879883,-38.691001892089844 C47.68600082397461,-36.80400085449219 59.231998443603516,-42.082000732421875 80.83399963378906,-39.16299819946289 C102.87799835205078,-36.183998107910156 106.75299835205078,-30.55900001525879 107.65699768066406,-32.45800018310547z"></path><path stroke-linecap="round" stroke-linejoin="round" fill-opacity="0" stroke="rgb(163,65,0)" stroke-opacity="1" stroke-width="2" d=" M107.65699768066406,-32.45800018310547 C109.50499725341797,-36.3390007019043 89.81300354003906,-47.930999755859375 66.6520004272461,-47.053001403808594 C47.58100128173828,-46.33000183105469 45.32600021362305,-40.577999114990234 46.50600051879883,-38.691001892089844 C47.68600082397461,-36.80400085449219 59.231998443603516,-42.082000732421875 80.83399963378906,-39.16299819946289 C102.87799835205078,-36.183998107910156 106.75299835205078,-30.55900001525879 107.65699768066406,-32.45800018310547z"></path></g><g opacity="1" transform="matrix(1,0,0,1,0,0)"><path fill="rgb(163,65,0)" fill-opacity="1" d=" M-107.81700134277344,-32.45800018310547 C-109.66500091552734,-36.3390007019043 -89.9729995727539,-47.930999755859375 -66.81199645996094,-47.053001403808594 C-47.74100112915039,-46.33000183105469 -45.48699951171875,-40.577999114990234 -46.66699981689453,-38.691001892089844 C-47.84700012207031,-36.80400085449219 -59.39099884033203,-42.082000732421875 -80.99400329589844,-39.16299819946289 C-103.03800201416016,-36.183998107910156 -106.91300201416016,-30.55900001525879 -107.81700134277344,-32.45800018310547z"></path><path stroke-linecap="round" stroke-linejoin="round" fill-opacity="0" stroke="rgb(163,65,0)" stroke-opacity="1" stroke-width="2" d=" M-107.81700134277344,-32.45800018310547 C-109.66500091552734,-36.3390007019043 -89.9729995727539,-47.930999755859375 -66.81199645996094,-47.053001403808594 C-47.74100112915039,-46.33000183105469 -45.48699951171875,-40.577999114990234 -46.66699981689453,-38.691001892089844 C-47.84700012207031,-36.80400085449219 -59.39099884033203,-42.082000732421875 -80.99400329589844,-39.16299819946289 C-103.03800201416016,-36.183998107910156 -106.91300201416016,-30.55900001525879 -107.81700134277344,-32.45800018310547z"></path></g></g></g></svg>